<?xml version="1.0" encoding="UTF-8" standalone="no"?>
<!DOCTYPE svg PUBLIC "-//W3C//DTD SVG 1.1//EN"
 "http://www.w3.org/Graphics/SVG/1.1/DTD/svg11.dtd">
<!-- Generated by graphviz version 12.2.1 (20241206.2353)
 -->
<!-- Title: LSM1x0A_Controller::sendCommandWithResponse Pages: 1 -->
<svg width="1663pt" height="1018pt"
 viewBox="0.00 0.00 1663.25 1018.48" xmlns="http://www.w3.org/2000/svg" xmlns:xlink="http://www.w3.org/1999/xlink">
<g id="graph0" class="graph" transform="scale(1 1) rotate(0) translate(4 1014.48)">
<title>LSM1x0A_Controller::sendCommandWithResponse</title>
<!-- Node1 -->
<g id="Node000001" class="node">
<title>Node1</title>
<g id="a_Node000001"><a xlink:title="Sends an AT command and captures its response in a text block. Ideal for getters (e....">
<polygon fill="#999999" stroke="#666666" points="152.5,-104 0,-104 0,-72 152.5,-72 152.5,-104"/>
<text text-anchor="start" x="8" y="-90.5" font-family="Helvetica,sans-Serif" font-size="10.00">LSM1x0A_Controller</text>
<text text-anchor="middle" x="76.25" y="-78.5" font-family="Helvetica,sans-Serif" font-size="10.00">::sendCommandWithResponse</text>
</a>
</g>
</g>
<!-- Node2 -->
<g id="Node000002" class="node">
<title>Node2</title>
<g id="a_Node000002"><a xlink:href="../../d8/d92/classLSM1x0A__Controller.html#abb0eb380daa3dfb7acffb483c5db8e2b" target="_top" xlink:title="Executes the recovery protocol. First Soft&#45;Reset (ATZ), then Hard&#45;Reset if there is a pin.">
<polygon fill="white" stroke="#666666" points="294.5,-214 188.5,-214 188.5,-182 294.5,-182 294.5,-214"/>
<text text-anchor="start" x="196.5" y="-200.5" font-family="Helvetica,sans-Serif" font-size="10.00">LSM1x0A_Controller</text>
<text text-anchor="middle" x="241.5" y="-188.5" font-family="Helvetica,sans-Serif" font-size="10.00">::recoverModule</text>
</a>
</g>
</g>
<!-- Node1&#45;&gt;Node2 -->
<g id="edge1_Node000001_Node000002" class="edge">
<title>Node1&#45;&gt;Node2</title>
<g id="a_edge1_Node000001_Node000002"><a xlink:title=" ">
<path fill="none" stroke="#63b8ff" d="M101.69,-104.47C129.66,-123.32 175.64,-154.29 206.95,-175.39"/>
<polygon fill="#63b8ff" stroke="#63b8ff" points="204.66,-178.07 214.9,-180.75 208.57,-172.26 204.66,-178.07"/>
</a>
</g>
</g>
<!-- Node11 -->
<g id="Node000011" class="node">
<title>Node11</title>
<g id="a_Node000011"><a xlink:href="../../d6/d3c/classLSM1x0A__AtParser.html#a0ba6f927c54fceece22c17773d3f2600" target="_top" xlink:title="Sends a command and extracts a value from the response.">
<polygon fill="white" stroke="#666666" points="1510.25,-287 1336,-287 1336,-255 1510.25,-255 1510.25,-287"/>
<text text-anchor="start" x="1344" y="-273.5" font-family="Helvetica,sans-Serif" font-size="10.00">LSM1x0A_AtParser::sendCommand</text>
<text text-anchor="middle" x="1423.12" y="-261.5" font-family="Helvetica,sans-Serif" font-size="10.00">WithResponse</text>
</a>
</g>
</g>
<!-- Node1&#45;&gt;Node11 -->
<g id="edge56_Node000001_Node000011" class="edge">
<title>Node1&#45;&gt;Node11</title>
<g id="a_edge56_Node000001_Node000011"><a xlink:title=" ">
<path fill="none" stroke="#63b8ff" d="M113.69,-71.65C173.86,-46.21 298.29,0 408.75,0 408.75,0 408.75,0 1014.5,0 1191.44,0 1350.2,-179.26 1403.31,-246.19"/>
<polygon fill="#63b8ff" stroke="#63b8ff" points="1400.24,-247.95 1409.16,-253.67 1405.75,-243.64 1400.24,-247.95"/>
</a>
</g>
</g>
<!-- Node3 -->
<g id="Node000003" class="node">
<title>Node3</title>
<g id="a_Node000003"><a xlink:href="../../d8/d92/classLSM1x0A__Controller.html#a3f6f25b843fe4fb7042c544deae2ab16" target="_top" xlink:title="Manually clears bits from the internal EventGroup.">
<polygon fill="white" stroke="#666666" points="857.38,-98 751.38,-98 751.38,-66 857.38,-66 857.38,-98"/>
<text text-anchor="start" x="759.38" y="-84.5" font-family="Helvetica,sans-Serif" font-size="10.00">LSM1x0A_Controller</text>
<text text-anchor="middle" x="804.38" y="-72.5" font-family="Helvetica,sans-Serif" font-size="10.00">::clearEvents</text>
</a>
</g>
</g>
<!-- Node2&#45;&gt;Node3 -->
<g id="edge2_Node000002_Node000003" class="edge">
<title>Node2&#45;&gt;Node3</title>
<g id="a_edge2_Node000002_Node000003"><a xlink:title=" ">
<path fill="none" stroke="#63b8ff" d="M267.18,-181.53C284.23,-171 307.84,-158.03 330.5,-151 476.15,-105.82 521.23,-138.94 671.5,-113 694,-109.12 718.4,-103.72 740.02,-98.52"/>
<polygon fill="#63b8ff" stroke="#63b8ff" points="740.7,-101.96 749.58,-96.18 739.03,-95.16 740.7,-101.96"/>
</a>
</g>
</g>
<!-- Node4 -->
<g id="Node000004" class="node">
<title>Node4</title>
<g id="a_Node000004"><a xlink:href="../../d8/d92/classLSM1x0A__Controller.html#a345d4bd79fa16b18dc33a4ca788fe5f7" target="_top" xlink:title="Performs a hardware reset using the reset pin.">
<polygon fill="white" stroke="#666666" points="462.75,-104 356.75,-104 356.75,-72 462.75,-72 462.75,-104"/>
<text text-anchor="start" x="364.75" y="-90.5" font-family="Helvetica,sans-Serif" font-size="10.00">LSM1x0A_Controller</text>
<text text-anchor="middle" x="409.75" y="-78.5" font-family="Helvetica,sans-Serif" font-size="10.00">::hardwareReset</text>
</a>
</g>
</g>
<!-- Node2&#45;&gt;Node4 -->
<g id="edge3_Node000002_Node000004" class="edge">
<title>Node2&#45;&gt;Node4</title>
<g id="a_edge3_Node000002_Node000004"><a xlink:title=" ">
<path fill="none" stroke="#63b8ff" d="M256.96,-181.63C273.32,-163.93 301.49,-135.86 330.5,-118 335.77,-114.76 341.44,-111.77 347.24,-109.03"/>
<polygon fill="#63b8ff" stroke="#63b8ff" points="348.64,-112.24 356.38,-104.99 345.81,-105.83 348.64,-112.24"/>
</a>
</g>
</g>
<!-- Node6 -->
<g id="Node000006" class="node">
<title>Node6</title>
<g id="a_Node000006"><a xlink:href="../../d5/d72/classLSM1x0A__LoRaWAN.html#a1892801e37c8cd67d37c76108d6f7d49" target="_top" xlink:title="Validates if the device is currently Joined to the network. (Either confirmed by OTAA or statically a...">
<polygon fill="white" stroke="#666666" points="1089.75,-136 937.25,-136 937.25,-116 1089.75,-116 1089.75,-136"/>
<text text-anchor="middle" x="1013.5" y="-122.5" font-family="Helvetica,sans-Serif" font-size="10.00">LSM1x0A_LoRaWAN::isJoined</text>
</a>
</g>
</g>
<!-- Node2&#45;&gt;Node6 -->
<g id="edge5_Node000002_Node000006" class="edge">
<title>Node2&#45;&gt;Node6</title>
<g id="a_edge5_Node000002_Node000006"><a xlink:title=" ">
<path fill="none" stroke="#63b8ff" d="M247.43,-181.77C257.49,-151.92 283.48,-88.97 330.5,-63 441.54,-1.69 779.26,-22.24 901.25,-57 936.32,-66.99 971.12,-91.56 992.22,-108.51"/>
<polygon fill="#63b8ff" stroke="#63b8ff" points="989.8,-111.05 999.74,-114.72 994.26,-105.65 989.8,-111.05"/>
</a>
</g>
</g>
<!-- Node7 -->
<g id="Node000007" class="node">
<title>Node7</title>
<g id="a_Node000007"><a xlink:href="../../d5/d72/classLSM1x0A__LoRaWAN.html#a83e11c0e74ff9e0757db616ab1163424" target="_top" xlink:title="Attempts to recover a lost connection (re&#45;executes OTAA Join if dropped).">
<polygon fill="white" stroke="#666666" points="484.12,-192 335.38,-192 335.38,-160 484.12,-160 484.12,-192"/>
<text text-anchor="start" x="343.38" y="-178.5" font-family="Helvetica,sans-Serif" font-size="10.00">LSM1x0A_LoRaWAN::recover</text>
<text text-anchor="middle" x="409.75" y="-166.5" font-family="Helvetica,sans-Serif" font-size="10.00">Connection</text>
</a>
</g>
</g>
<!-- Node2&#45;&gt;Node7 -->
<g id="edge6_Node000002_Node000007" class="edge">
<title>Node2&#45;&gt;Node7</title>
<g id="a_edge6_Node000002_Node000007"><a xlink:title=" ">
<path fill="none" stroke="#63b8ff" d="M294.65,-191.1C303.99,-189.86 313.94,-188.55 323.92,-187.23"/>
<polygon fill="#63b8ff" stroke="#63b8ff" points="324.22,-190.72 333.67,-185.94 323.3,-183.78 324.22,-190.72"/>
</a>
</g>
</g>
<!-- Node15 -->
<g id="Node000015" class="node">
<title>Node15</title>
<g id="a_Node000015"><a xlink:href="../../d5/d72/classLSM1x0A__LoRaWAN.html#ae3be4ce59dfa200369733317df356e97" target="_top" xlink:title="Pushes the RAM&#45;cached variables back down into the hardware module. Restores the operational state af...">
<polygon fill="white" stroke="#666666" points="671.5,-539 525,-539 525,-507 671.5,-507 671.5,-539"/>
<text text-anchor="start" x="533" y="-525.5" font-family="Helvetica,sans-Serif" font-size="10.00">LSM1x0A_LoRaWAN::restore</text>
<text text-anchor="middle" x="598.25" y="-513.5" font-family="Helvetica,sans-Serif" font-size="10.00">Config</text>
</a>
</g>
</g>
<!-- Node2&#45;&gt;Node15 -->
<g id="edge19_Node000002_Node000015" class="edge">
<title>Node2&#45;&gt;Node15</title>
<g id="a_edge19_Node000002_Node000015"><a xlink:title=" ">
<path fill="none" stroke="#63b8ff" d="M260.09,-214.12C318.01,-267.18 502.94,-436.6 571.42,-499.34"/>
<polygon fill="#63b8ff" stroke="#63b8ff" points="568.7,-501.59 578.44,-505.76 573.43,-496.43 568.7,-501.59"/>
</a>
</g>
</g>
<!-- Node32 -->
<g id="Node000032" class="node">
<title>Node32</title>
<g id="a_Node000032"><a xlink:href="../../d5/d72/classLSM1x0A__LoRaWAN.html#ace4b04396f1de1f4a54f513f5f378db7" target="_top" xlink:title="Manually overrides the internal joined state tracker.">
<polygon fill="white" stroke="#666666" points="489,-939 330.5,-939 330.5,-919 489,-919 489,-939"/>
<text text-anchor="middle" x="409.75" y="-925.5" font-family="Helvetica,sans-Serif" font-size="10.00">LSM1x0A_LoRaWAN::setJoined</text>
</a>
</g>
</g>
<!-- Node2&#45;&gt;Node32 -->
<g id="edge53_Node000002_Node000032" class="edge">
<title>Node2&#45;&gt;Node32</title>
<g id="a_edge53_Node000002_Node000032"><a xlink:title=" ">
<path fill="none" stroke="#63b8ff" d="M242.22,-214.4C240.9,-310.08 238.83,-795.83 330.5,-905 332.92,-907.88 335.68,-910.43 338.68,-912.67"/>
<polygon fill="#63b8ff" stroke="#63b8ff" points="336.66,-915.54 347.02,-917.75 340.3,-909.56 336.66,-915.54"/>
</a>
</g>
</g>
<!-- Node33 -->
<g id="Node000033" class="node">
<title>Node33</title>
<g id="a_Node000033"><a xlink:href="../../d8/d92/classLSM1x0A__Controller.html#a11ad21cb5ca33ec51346764a23bd485e" target="_top" xlink:title="Performs a software reset (ATZ Command).">
<polygon fill="white" stroke="#666666" points="1066.5,-795 960.5,-795 960.5,-763 1066.5,-763 1066.5,-795"/>
<text text-anchor="start" x="968.5" y="-781.5" font-family="Helvetica,sans-Serif" font-size="10.00">LSM1x0A_Controller</text>
<text text-anchor="middle" x="1013.5" y="-769.5" font-family="Helvetica,sans-Serif" font-size="10.00">::softwareReset</text>
</a>
</g>
</g>
<!-- Node2&#45;&gt;Node33 -->
<g id="edge54_Node000002_Node000033" class="edge">
<title>Node2&#45;&gt;Node33</title>
<g id="a_edge54_Node000002_Node000033"><a xlink:title=" ">
<path fill="none" stroke="#63b8ff" d="M243.14,-214.18C247.41,-318.83 273.5,-897.3 330.5,-948 395.69,-1005.99 663.64,-1058.87 901.25,-932 952.71,-904.52 986.32,-841.52 1002.07,-805.51"/>
<polygon fill="#63b8ff" stroke="#63b8ff" points="1005.14,-807.25 1005.8,-796.67 998.69,-804.53 1005.14,-807.25"/>
</a>
</g>
</g>
<!-- Node5 -->
<g id="Node000005" class="node">
<title>Node5</title>
<g id="a_Node000005"><a xlink:href="../../d6/d3c/classLSM1x0A__AtParser.html#ad2839120da13e56132b95019419be1e5" target="_top" xlink:title="Waits for an event (like BOOTALERT) without sending any command. Useful for hardware reset where the ...">
<polygon fill="white" stroke="#666666" points="668.5,-104 528,-104 528,-72 668.5,-72 668.5,-104"/>
<text text-anchor="start" x="536" y="-90.5" font-family="Helvetica,sans-Serif" font-size="10.00">LSM1x0A_AtParser::waitFor</text>
<text text-anchor="middle" x="598.25" y="-78.5" font-family="Helvetica,sans-Serif" font-size="10.00">Event</text>
</a>
</g>
</g>
<!-- Node4&#45;&gt;Node5 -->
<g id="edge4_Node000004_Node000005" class="edge">
<title>Node4&#45;&gt;Node5</title>
<g id="a_edge4_Node000004_Node000005"><a xlink:title=" ">
<path fill="none" stroke="#63b8ff" d="M463.2,-88C479.71,-88 498.36,-88 516.37,-88"/>
<polygon fill="#63b8ff" stroke="#63b8ff" points="516.28,-91.5 526.28,-88 516.28,-84.5 516.28,-91.5"/>
</a>
</g>
</g>
<!-- Node8 -->
<g id="Node000008" class="node">
<title>Node8</title>
<g id="a_Node000008"><a xlink:href="../../d5/d72/classLSM1x0A__LoRaWAN.html#a59f781f3cfd30c11cd3973bcb10a7baa" target="_top" xlink:title="Initiates a LoRaWAN Network Join procedure. This is a blocking function until the module fires an eve...">
<polygon fill="white" stroke="#666666" points="664,-186 532.5,-186 532.5,-166 664,-166 664,-186"/>
<text text-anchor="middle" x="598.25" y="-172.5" font-family="Helvetica,sans-Serif" font-size="10.00">LSM1x0A_LoRaWAN::join</text>
</a>
</g>
</g>
<!-- Node7&#45;&gt;Node8 -->
<g id="edge7_Node000007_Node000008" class="edge">
<title>Node7&#45;&gt;Node8</title>
<g id="a_edge7_Node000007_Node000008"><a xlink:title=" ">
<path fill="none" stroke="#63b8ff" d="M484.46,-176C496.42,-176 508.83,-176 520.85,-176"/>
<polygon fill="#63b8ff" stroke="#63b8ff" points="520.72,-179.5 530.72,-176 520.72,-172.5 520.72,-179.5"/>
</a>
</g>
</g>
<!-- Node8&#45;&gt;Node2 -->
<g id="edge9_Node000008_Node000002" class="edge">
<title>Node8&#45;&gt;Node2</title>
<g id="a_edge9_Node000008_Node000002"><a xlink:title=" ">
<path fill="none" stroke="#63b8ff" d="M561.52,-186.4C540.59,-191.95 513.53,-198.2 489,-201 419.01,-208.98 400.93,-202.2 330.5,-201 322.6,-200.87 314.31,-200.66 306.11,-200.43"/>
<polygon fill="#63b8ff" stroke="#63b8ff" points="306.23,-196.93 296.12,-200.12 306.01,-203.92 306.23,-196.93"/>
</a>
</g>
</g>
<!-- Node8&#45;&gt;Node3 -->
<g id="edge8_Node000008_Node000003" class="edge">
<title>Node8&#45;&gt;Node3</title>
<g id="a_edge8_Node000008_Node000003"><a xlink:title=" ">
<path fill="none" stroke="#63b8ff" d="M632.8,-165.52C645.55,-160.68 659.81,-154.16 671.5,-146 690.84,-132.5 687.27,-119.13 707.5,-107 717.45,-101.03 728.81,-96.47 740.15,-93"/>
<polygon fill="#63b8ff" stroke="#63b8ff" points="740.82,-96.45 749.51,-90.39 738.94,-89.7 740.82,-96.45"/>
</a>
</g>
</g>
<!-- Node9 -->
<g id="Node000009" class="node">
<title>Node9</title>
<g id="a_Node000009"><a xlink:href="../../d8/d92/classLSM1x0A__Controller.html#afd7d92e60ed6fdae696a955cdbe0ed8c" target="_top" xlink:title="Sends any AT command to the module, returning error if it fails. Internally uses the LsmAtParser logi...">
<polygon fill="white" stroke="#666666" points="1066.5,-558 960.5,-558 960.5,-526 1066.5,-526 1066.5,-558"/>
<text text-anchor="start" x="968.5" y="-544.5" font-family="Helvetica,sans-Serif" font-size="10.00">LSM1x0A_Controller</text>
<text text-anchor="middle" x="1013.5" y="-532.5" font-family="Helvetica,sans-Serif" font-size="10.00">::sendCommand</text>
</a>
</g>
</g>
<!-- Node8&#45;&gt;Node9 -->
<g id="edge10_Node000008_Node000009" class="edge">
<title>Node8&#45;&gt;Node9</title>
<g id="a_edge10_Node000008_Node000009"><a xlink:title=" ">
<path fill="none" stroke="#63b8ff" d="M664.28,-171.81C741.89,-168.2 865.66,-167.28 901.25,-195 1002.98,-274.23 1013.24,-447.25 1013.2,-514.5"/>
<polygon fill="#63b8ff" stroke="#63b8ff" points="1009.7,-514.23 1013.1,-524.26 1016.7,-514.3 1009.7,-514.23"/>
</a>
</g>
</g>
<!-- Node13 -->
<g id="Node000013" class="node">
<title>Node13</title>
<g id="a_Node000013"><a xlink:href="../../d5/d72/classLSM1x0A__LoRaWAN.html#a3fdd1ac318a5ad2559323e5d57e36a5e" target="_top" xlink:title="Enables or disables specific sub&#45;bands for regions supporting Channel Masks (e.g.,...">
<polygon fill="white" stroke="#666666" points="899.38,-224 709.38,-224 709.38,-204 899.38,-204 899.38,-224"/>
<text text-anchor="middle" x="804.38" y="-210.5" font-family="Helvetica,sans-Serif" font-size="10.00">LSM1x0A_LoRaWAN::setChannelMask</text>
</a>
</g>
</g>
<!-- Node8&#45;&gt;Node13 -->
<g id="edge15_Node000008_Node000013" class="edge">
<title>Node8&#45;&gt;Node13</title>
<g id="a_edge15_Node000008_Node000013"><a xlink:title=" ">
<path fill="none" stroke="#63b8ff" d="M655.57,-186.48C680.44,-191.12 709.89,-196.6 735.93,-201.44"/>
<polygon fill="#63b8ff" stroke="#63b8ff" points="735.28,-204.88 745.75,-203.27 736.56,-198 735.28,-204.88"/>
</a>
</g>
</g>
<!-- Node14 -->
<g id="Node000014" class="node">
<title>Node14</title>
<g id="a_Node000014"><a xlink:href="../../d8/d92/classLSM1x0A__Controller.html#a62476e30e50c7fe120aeb8df4b828675" target="_top" xlink:title="Synchronously/blockingly waits for an asynchronous event to occur. Useful for wrapping commands like ...">
<polygon fill="white" stroke="#666666" points="857.38,-148 751.38,-148 751.38,-116 857.38,-116 857.38,-148"/>
<text text-anchor="start" x="759.38" y="-134.5" font-family="Helvetica,sans-Serif" font-size="10.00">LSM1x0A_Controller</text>
<text text-anchor="middle" x="804.38" y="-122.5" font-family="Helvetica,sans-Serif" font-size="10.00">::waitForEvent</text>
</a>
</g>
</g>
<!-- Node8&#45;&gt;Node14 -->
<g id="edge18_Node000008_Node000014" class="edge">
<title>Node8&#45;&gt;Node14</title>
<g id="a_edge18_Node000008_Node000014"><a xlink:title=" ">
<path fill="none" stroke="#63b8ff" d="M647.88,-165.52C675.49,-159.57 710.36,-152.05 740.07,-145.65"/>
<polygon fill="#63b8ff" stroke="#63b8ff" points="740.67,-149.1 749.7,-143.57 739.19,-142.25 740.67,-149.1"/>
</a>
</g>
</g>
<!-- Node9&#45;&gt;Node2 -->
<g id="edge11_Node000009_Node000002" class="edge">
<title>Node9&#45;&gt;Node2</title>
<g id="a_edge11_Node000009_Node000002"><a xlink:title=" ">
<path fill="none" stroke="#63b8ff" d="M1006.07,-558.31C992.31,-593.61 959.41,-679.91 937.25,-754 917.98,-818.44 954.17,-859.48 901.25,-901 833.5,-954.16 783.94,-940.65 707.5,-901 420.18,-751.97 282.22,-335.66 250.02,-225.19"/>
<polygon fill="#63b8ff" stroke="#63b8ff" points="253.45,-224.47 247.33,-215.82 246.72,-226.4 253.45,-224.47"/>
</a>
</g>
</g>
<!-- Node10 -->
<g id="Node000010" class="node">
<title>Node10</title>
<g id="a_Node000010"><a xlink:href="../../d6/d3c/classLSM1x0A__AtParser.html#a29b53c521974387ba6c03afadfaffa4a" target="_top" xlink:title="Sends a simple command and waits for OK/ERROR. Example: sendCommand(&quot;AT+JOIN&quot;);.">
<polygon fill="white" stroke="#666666" points="1300,-552 1125.75,-552 1125.75,-532 1300,-532 1300,-552"/>
<text text-anchor="middle" x="1212.88" y="-538.5" font-family="Helvetica,sans-Serif" font-size="10.00">LSM1x0A_AtParser::sendCommand</text>
</a>
</g>
</g>
<!-- Node9&#45;&gt;Node10 -->
<g id="edge12_Node000009_Node000010" class="edge">
<title>Node9&#45;&gt;Node10</title>
<g id="a_edge12_Node000009_Node000010"><a xlink:title=" ">
<path fill="none" stroke="#63b8ff" d="M1066.87,-542C1081.44,-542 1097.75,-542 1114.03,-542"/>
<polygon fill="#63b8ff" stroke="#63b8ff" points="1113.76,-545.5 1123.76,-542 1113.76,-538.5 1113.76,-545.5"/>
</a>
</g>
</g>
<!-- Node10&#45;&gt;Node11 -->
<g id="edge13_Node000010_Node000011" class="edge">
<title>Node10&#45;&gt;Node11</title>
<g id="a_edge13_Node000010_Node000011"><a xlink:title=" ">
<path fill="none" stroke="#63b8ff" d="M1221.78,-531.71C1251.69,-492.78 1358.43,-353.88 1402.69,-296.3"/>
<polygon fill="#63b8ff" stroke="#63b8ff" points="1405.23,-298.73 1408.55,-288.67 1399.68,-294.46 1405.23,-298.73"/>
</a>
</g>
</g>
<!-- Node12 -->
<g id="Node000012" class="node">
<title>Node12</title>
<g id="a_Node000012"><a xlink:href="../../d5/d8b/classUartDriver.html#a5d0f22e8867eebe99273078bb19bd23d" target="_top" xlink:title="Sends data through UART.">
<polygon fill="white" stroke="#666666" points="1655.25,-281 1546.25,-281 1546.25,-261 1655.25,-261 1655.25,-281"/>
<text text-anchor="middle" x="1600.75" y="-267.5" font-family="Helvetica,sans-Serif" font-size="10.00">UartDriver::sendData</text>
</a>
</g>
</g>
<!-- Node11&#45;&gt;Node12 -->
<g id="edge14_Node000011_Node000012" class="edge">
<title>Node11&#45;&gt;Node12</title>
<g id="a_edge14_Node000011_Node000012"><a xlink:title=" ">
<path fill="none" stroke="#63b8ff" d="M1510.65,-271C1518.8,-271 1526.95,-271 1534.85,-271"/>
<polygon fill="#63b8ff" stroke="#63b8ff" points="1534.68,-274.5 1544.68,-271 1534.68,-267.5 1534.68,-274.5"/>
</a>
</g>
</g>
<!-- Node13&#45;&gt;Node6 -->
<g id="edge16_Node000013_Node000006" class="edge">
<title>Node13&#45;&gt;Node6</title>
<g id="a_edge16_Node000013_Node000006"><a xlink:title=" ">
<path fill="none" stroke="#63b8ff" d="M829.95,-203.56C866.54,-188.01 935.53,-158.7 977.42,-140.9"/>
<polygon fill="#63b8ff" stroke="#63b8ff" points="978.73,-144.15 986.57,-137.02 975.99,-137.71 978.73,-144.15"/>
</a>
</g>
</g>
<!-- Node13&#45;&gt;Node9 -->
<g id="edge17_Node000013_Node000009" class="edge">
<title>Node13&#45;&gt;Node9</title>
<g id="a_edge17_Node000013_Node000009"><a xlink:title=" ">
<path fill="none" stroke="#63b8ff" d="M888.13,-224.28C892.83,-226.69 897.26,-229.57 901.25,-233 987.58,-307.27 1006.92,-453.75 1011.25,-514.55"/>
<polygon fill="#63b8ff" stroke="#63b8ff" points="1007.75,-514.57 1011.86,-524.33 1014.73,-514.13 1007.75,-514.57"/>
</a>
</g>
</g>
<!-- Node15&#45;&gt;Node13 -->
<g id="edge24_Node000015_Node000013" class="edge">
<title>Node15&#45;&gt;Node13</title>
<g id="a_edge24_Node000015_Node000013"><a xlink:title=" ">
<path fill="none" stroke="#63b8ff" d="M600.05,-506.78C603.43,-457.25 620.7,-306.79 707.5,-233 708.63,-232.04 709.79,-231.13 710.98,-230.25"/>
<polygon fill="#63b8ff" stroke="#63b8ff" points="712.67,-233.33 719.37,-225.12 709.02,-227.35 712.67,-233.33"/>
</a>
</g>
</g>
<!-- Node16 -->
<g id="Node000016" class="node">
<title>Node16</title>
<g id="a_Node000016"><a xlink:href="../../d5/d72/classLSM1x0A__LoRaWAN.html#af0baa3db4c7fab580d6b19a9e92472f6" target="_top" xlink:title="Enables or disables Adaptive Data Rate (ADR).">
<polygon fill="white" stroke="#666666" points="880.25,-350 728.5,-350 728.5,-330 880.25,-330 880.25,-350"/>
<text text-anchor="middle" x="804.38" y="-336.5" font-family="Helvetica,sans-Serif" font-size="10.00">LSM1x0A_LoRaWAN::setADR</text>
</a>
</g>
</g>
<!-- Node15&#45;&gt;Node16 -->
<g id="edge20_Node000015_Node000016" class="edge">
<title>Node15&#45;&gt;Node16</title>
<g id="a_edge20_Node000015_Node000016"><a xlink:title=" ">
<path fill="none" stroke="#63b8ff" d="M605.06,-506.6C617.85,-473 651.85,-396.38 707.5,-359 710.77,-356.8 714.23,-354.85 717.83,-353.11"/>
<polygon fill="#63b8ff" stroke="#63b8ff" points="718.98,-356.42 726.87,-349.35 716.29,-349.96 718.98,-356.42"/>
</a>
</g>
</g>
<!-- Node17 -->
<g id="Node000017" class="node">
<title>Node17</title>
<g id="a_Node000017"><a xlink:href="../../d5/d72/classLSM1x0A__LoRaWAN.html#a5365ed1596eb84ebf1e3b33b4a10c788" target="_top" xlink:title="Sets the LoRaWAN operational frequency band.">
<polygon fill="white" stroke="#666666" points="880.62,-312 728.12,-312 728.12,-292 880.62,-292 880.62,-312"/>
<text text-anchor="middle" x="804.38" y="-298.5" font-family="Helvetica,sans-Serif" font-size="10.00">LSM1x0A_LoRaWAN::setBand</text>
</a>
</g>
</g>
<!-- Node15&#45;&gt;Node17 -->
<g id="edge22_Node000015_Node000017" class="edge">
<title>Node15&#45;&gt;Node17</title>
<g id="a_edge22_Node000015_Node000017"><a xlink:title=" ">
<path fill="none" stroke="#63b8ff" d="M602.97,-506.5C612.7,-467.43 642.74,-368.94 707.5,-321 710.66,-318.66 714.04,-316.58 717.57,-314.75"/>
<polygon fill="#63b8ff" stroke="#63b8ff" points="718.75,-318.05 726.47,-310.8 715.91,-311.66 718.75,-318.05"/>
</a>
</g>
</g>
<!-- Node18 -->
<g id="Node000018" class="node">
<title>Node18</title>
<g id="a_Node000018"><a xlink:href="../../d5/d72/classLSM1x0A__LoRaWAN.html#a9d9285c43414337a0ccb3a6cd7ca06e6" target="_top" xlink:title="Configures the number of retries for Confirmed uplinks.">
<polygon fill="white" stroke="#666666" points="886.62,-274 722.12,-274 722.12,-242 886.62,-242 886.62,-274"/>
<text text-anchor="start" x="730.12" y="-260.5" font-family="Helvetica,sans-Serif" font-size="10.00">LSM1x0A_LoRaWAN::setConfirm</text>
<text text-anchor="middle" x="804.38" y="-248.5" font-family="Helvetica,sans-Serif" font-size="10.00">Retry</text>
</a>
</g>
</g>
<!-- Node15&#45;&gt;Node18 -->
<g id="edge25_Node000015_Node000018" class="edge">
<title>Node15&#45;&gt;Node18</title>
<g id="a_edge25_Node000015_Node000018"><a xlink:title=" ">
<path fill="none" stroke="#63b8ff" d="M601.68,-506.7C609.05,-463.28 635.2,-344.03 707.5,-283 708.99,-281.74 710.54,-280.55 712.13,-279.41"/>
<polygon fill="#63b8ff" stroke="#63b8ff" points="713.75,-282.52 720.45,-274.32 710.1,-276.55 713.75,-282.52"/>
</a>
</g>
</g>
<!-- Node19 -->
<g id="Node000019" class="node">
<title>Node19</title>
<g id="a_Node000019"><a xlink:href="../../d5/d72/classLSM1x0A__LoRaWAN.html#a56345ceeafa0b9059d6de4e69eddc82e" target="_top" xlink:title="Sets the Data Rate (DR) of the module.">
<polygon fill="white" stroke="#666666" points="890.38,-892 718.38,-892 718.38,-872 890.38,-872 890.38,-892"/>
<text text-anchor="middle" x="804.38" y="-878.5" font-family="Helvetica,sans-Serif" font-size="10.00">LSM1x0A_LoRaWAN::setDataRate</text>
</a>
</g>
</g>
<!-- Node15&#45;&gt;Node19 -->
<g id="edge27_Node000015_Node000019" class="edge">
<title>Node15&#45;&gt;Node19</title>
<g id="a_edge27_Node000015_Node000019"><a xlink:title=" ">
<path fill="none" stroke="#63b8ff" d="M599.05,-539.16C599.29,-593.93 607.94,-774.06 707.5,-863 708.45,-863.85 709.42,-864.66 710.42,-865.44"/>
<polygon fill="#63b8ff" stroke="#63b8ff" points="708.45,-868.34 718.75,-870.83 712.25,-862.46 708.45,-868.34"/>
</a>
</g>
</g>
<!-- Node20 -->
<g id="Node000020" class="node">
<title>Node20</title>
<g id="a_Node000020"><a xlink:href="../../d5/d72/classLSM1x0A__LoRaWAN.html#a8494083816ab885cb07fc3b08de029f4" target="_top" xlink:title="Sets the LoRaWAN Device Address (DevAddr) for ABP mode.">
<polygon fill="white" stroke="#666666" points="888.5,-854 720.25,-854 720.25,-834 888.5,-834 888.5,-854"/>
<text text-anchor="middle" x="804.38" y="-840.5" font-family="Helvetica,sans-Serif" font-size="10.00">LSM1x0A_LoRaWAN::setDevAddr</text>
</a>
</g>
</g>
<!-- Node15&#45;&gt;Node20 -->
<g id="edge29_Node000015_Node000020" class="edge">
<title>Node15&#45;&gt;Node20</title>
<g id="a_edge29_Node000015_Node000020"><a xlink:title=" ">
<path fill="none" stroke="#63b8ff" d="M599.78,-539.15C602.37,-589.92 617.62,-747.57 707.5,-825 708.62,-825.97 709.78,-826.89 710.96,-827.77"/>
<polygon fill="#63b8ff" stroke="#63b8ff" points="708.98,-830.65 719.32,-832.93 712.65,-824.7 708.98,-830.65"/>
</a>
</g>
</g>
<!-- Node21 -->
<g id="Node000021" class="node">
<title>Node21</title>
<g id="a_Node000021"><a xlink:href="../../d5/d72/classLSM1x0A__LoRaWAN.html#ad320634e52d7ea907043cc50dd37c5b0" target="_top" xlink:title="Sets the LoRaWAN Device EUI (DevEUI).">
<polygon fill="white" stroke="#666666" points="887,-816 721.75,-816 721.75,-796 887,-796 887,-816"/>
<text text-anchor="middle" x="804.38" y="-802.5" font-family="Helvetica,sans-Serif" font-size="10.00">LSM1x0A_LoRaWAN::setDevEUI</text>
</a>
</g>
</g>
<!-- Node15&#45;&gt;Node21 -->
<g id="edge31_Node000015_Node000021" class="edge">
<title>Node15&#45;&gt;Node21</title>
<g id="a_edge31_Node000015_Node000021"><a xlink:title=" ">
<path fill="none" stroke="#63b8ff" d="M600.74,-539.44C605.89,-586.24 627.37,-721.05 707.5,-787 708.99,-788.22 710.53,-789.38 712.12,-790.46"/>
<polygon fill="#63b8ff" stroke="#63b8ff" points="709.98,-793.27 720.4,-795.21 713.47,-787.2 709.98,-793.27"/>
</a>
</g>
</g>
<!-- Node22 -->
<g id="Node000022" class="node">
<title>Node22</title>
<g id="a_Node000022"><a xlink:href="../../d5/d72/classLSM1x0A__LoRaWAN.html#a031023b0d2dd5db3c51c2db6ae7801cc" target="_top" xlink:title="Enables or disables the Duty Cycle limitation (EU regions mostly).">
<polygon fill="white" stroke="#666666" points="879.88,-778 728.88,-778 728.88,-746 879.88,-746 879.88,-778"/>
<text text-anchor="start" x="736.88" y="-764.5" font-family="Helvetica,sans-Serif" font-size="10.00">LSM1x0A_LoRaWAN::setDuty</text>
<text text-anchor="middle" x="804.38" y="-752.5" font-family="Helvetica,sans-Serif" font-size="10.00">Cycle</text>
</a>
</g>
</g>
<!-- Node15&#45;&gt;Node22 -->
<g id="edge33_Node000015_Node000022" class="edge">
<title>Node15&#45;&gt;Node22</title>
<g id="a_edge33_Node000015_Node000022"><a xlink:title=" ">
<path fill="none" stroke="#63b8ff" d="M602.65,-539.3C611.9,-579.44 641.39,-683.67 707.5,-737 710.94,-739.78 714.66,-742.25 718.56,-744.44"/>
<polygon fill="#63b8ff" stroke="#63b8ff" points="716.71,-747.44 727.23,-748.7 719.8,-741.15 716.71,-747.44"/>
</a>
</g>
</g>
<!-- Node23 -->
<g id="Node000023" class="node">
<title>Node23</title>
<g id="a_Node000023"><a xlink:href="../../d5/d72/classLSM1x0A__LoRaWAN.html#a6b179d5825c49af0f391dfc539912f64" target="_top" xlink:title="Sets the delay for the Join1 receive window.">
<polygon fill="white" stroke="#666666" points="881,-728 727.75,-728 727.75,-696 881,-696 881,-728"/>
<text text-anchor="start" x="735.75" y="-714.5" font-family="Helvetica,sans-Serif" font-size="10.00">LSM1x0A_LoRaWAN::setJoin1</text>
<text text-anchor="middle" x="804.38" y="-702.5" font-family="Helvetica,sans-Serif" font-size="10.00">Delay</text>
</a>
</g>
</g>
<!-- Node15&#45;&gt;Node23 -->
<g id="edge35_Node000015_Node000023" class="edge">
<title>Node15&#45;&gt;Node23</title>
<g id="a_edge35_Node000015_Node000023"><a xlink:title=" ">
<path fill="none" stroke="#63b8ff" d="M605.34,-539.39C618.56,-572.62 653.13,-648.08 707.5,-687 710.67,-689.27 714.04,-691.34 717.53,-693.21"/>
<polygon fill="#63b8ff" stroke="#63b8ff" points="715.78,-696.26 726.32,-697.38 718.78,-689.93 715.78,-696.26"/>
</a>
</g>
</g>
<!-- Node24 -->
<g id="Node000024" class="node">
<title>Node24</title>
<g id="a_Node000024"><a xlink:href="../../d5/d72/classLSM1x0A__LoRaWAN.html#a4545d0caad41558cdb9bae8286b104d8" target="_top" xlink:title="Sets the delay for the Join2 receive window.">
<polygon fill="white" stroke="#666666" points="881,-678 727.75,-678 727.75,-646 881,-646 881,-678"/>
<text text-anchor="start" x="735.75" y="-664.5" font-family="Helvetica,sans-Serif" font-size="10.00">LSM1x0A_LoRaWAN::setJoin2</text>
<text text-anchor="middle" x="804.38" y="-652.5" font-family="Helvetica,sans-Serif" font-size="10.00">Delay</text>
</a>
</g>
</g>
<!-- Node15&#45;&gt;Node24 -->
<g id="edge37_Node000015_Node000024" class="edge">
<title>Node15&#45;&gt;Node24</title>
<g id="a_edge37_Node000015_Node000024"><a xlink:title=" ">
<path fill="none" stroke="#63b8ff" d="M610.14,-539.33C627.65,-564.27 664.49,-611.61 707.5,-637 710.51,-638.78 713.65,-640.43 716.88,-641.97"/>
<polygon fill="#63b8ff" stroke="#63b8ff" points="715.48,-645.18 726.05,-645.9 718.24,-638.74 715.48,-645.18"/>
</a>
</g>
</g>
<!-- Node25 -->
<g id="Node000025" class="node">
<title>Node25</title>
<g id="a_Node000025"><a xlink:href="../../d5/d72/classLSM1x0A__LoRaWAN.html#a06bd50723ec1eb7e144c9141b2ec86fc" target="_top" xlink:title="Sets the LoRaWAN Network ID (NetID).">
<polygon fill="white" stroke="#666666" points="884.75,-628 724,-628 724,-608 884.75,-608 884.75,-628"/>
<text text-anchor="middle" x="804.38" y="-614.5" font-family="Helvetica,sans-Serif" font-size="10.00">LSM1x0A_LoRaWAN::setNwkID</text>
</a>
</g>
</g>
<!-- Node15&#45;&gt;Node25 -->
<g id="edge39_Node000015_Node000025" class="edge">
<title>Node15&#45;&gt;Node25</title>
<g id="a_edge39_Node000015_Node000025"><a xlink:title=" ">
<path fill="none" stroke="#63b8ff" d="M617.35,-539.34C637.76,-556.84 672.66,-584.11 707.5,-599 712.1,-600.97 716.91,-602.73 721.83,-604.32"/>
<polygon fill="#63b8ff" stroke="#63b8ff" points="720.67,-607.63 731.26,-607.08 722.64,-600.91 720.67,-607.63"/>
</a>
</g>
</g>
<!-- Node26 -->
<g id="Node000026" class="node">
<title>Node26</title>
<g id="a_Node000026"><a xlink:href="../../d5/d72/classLSM1x0A__LoRaWAN.html#aa70ada64d28ecca216bb62268e502adf" target="_top" xlink:title="Sets the delay for the RX1 receive window.">
<polygon fill="white" stroke="#666666" points="891.12,-590 717.62,-590 717.62,-570 891.12,-570 891.12,-590"/>
<text text-anchor="middle" x="804.38" y="-576.5" font-family="Helvetica,sans-Serif" font-size="10.00">LSM1x0A_LoRaWAN::setRx1Delay</text>
</a>
</g>
</g>
<!-- Node15&#45;&gt;Node26 -->
<g id="edge41_Node000015_Node000026" class="edge">
<title>Node15&#45;&gt;Node26</title>
<g id="a_edge41_Node000015_Node000026"><a xlink:title=" ">
<path fill="none" stroke="#63b8ff" d="M641.74,-539.49C661.52,-546.76 685.5,-554.99 707.5,-561 715.58,-563.21 724.11,-565.27 732.62,-567.16"/>
<polygon fill="#63b8ff" stroke="#63b8ff" points="731.75,-570.55 742.26,-569.23 733.22,-563.71 731.75,-570.55"/>
</a>
</g>
</g>
<!-- Node27 -->
<g id="Node000027" class="node">
<title>Node27</title>
<g id="a_Node000027"><a xlink:href="../../d5/d72/classLSM1x0A__LoRaWAN.html#a2cf4eff0181b6107d082bccefa24217b" target="_top" xlink:title="Sets the Data Rate (DR) specifically for the RX2 window.">
<polygon fill="white" stroke="#666666" points="899.38,-552 709.38,-552 709.38,-532 899.38,-532 899.38,-552"/>
<text text-anchor="middle" x="804.38" y="-538.5" font-family="Helvetica,sans-Serif" font-size="10.00">LSM1x0A_LoRaWAN::setRx2DataRate</text>
</a>
</g>
</g>
<!-- Node15&#45;&gt;Node27 -->
<g id="edge43_Node000015_Node000027" class="edge">
<title>Node15&#45;&gt;Node27</title>
<g id="a_edge43_Node000015_Node000027"><a xlink:title=" ">
<path fill="none" stroke="#63b8ff" d="M671.79,-529.75C680.16,-530.53 688.81,-531.34 697.51,-532.15"/>
<polygon fill="#63b8ff" stroke="#63b8ff" points="697.14,-535.63 707.43,-533.07 697.79,-528.66 697.14,-535.63"/>
</a>
</g>
</g>
<!-- Node28 -->
<g id="Node000028" class="node">
<title>Node28</title>
<g id="a_Node000028"><a xlink:href="../../d5/d72/classLSM1x0A__LoRaWAN.html#a42d2137b475b57e19d891a5f1ac93221" target="_top" xlink:title="Sets the delay for the RX2 receive window.">
<polygon fill="white" stroke="#666666" points="891.12,-514 717.62,-514 717.62,-494 891.12,-494 891.12,-514"/>
<text text-anchor="middle" x="804.38" y="-500.5" font-family="Helvetica,sans-Serif" font-size="10.00">LSM1x0A_LoRaWAN::setRx2Delay</text>
</a>
</g>
</g>
<!-- Node15&#45;&gt;Node28 -->
<g id="edge45_Node000015_Node000028" class="edge">
<title>Node15&#45;&gt;Node28</title>
<g id="a_edge45_Node000015_Node000028"><a xlink:title=" ">
<path fill="none" stroke="#63b8ff" d="M671.79,-516.25C682.99,-515.21 694.72,-514.11 706.35,-513.03"/>
<polygon fill="#63b8ff" stroke="#63b8ff" points="706.32,-516.55 715.95,-512.14 705.67,-509.58 706.32,-516.55"/>
</a>
</g>
</g>
<!-- Node29 -->
<g id="Node000029" class="node">
<title>Node29</title>
<g id="a_Node000029"><a xlink:href="../../d5/d72/classLSM1x0A__LoRaWAN.html#a689f7dfda1dfeae11ea397c2ddf2ad37" target="_top" xlink:title="Sets the precise frequency for the RX2 window.">
<polygon fill="white" stroke="#666666" points="901.25,-476 707.5,-476 707.5,-456 901.25,-456 901.25,-476"/>
<text text-anchor="middle" x="804.38" y="-462.5" font-family="Helvetica,sans-Serif" font-size="10.00">LSM1x0A_LoRaWAN::setRx2Frequency</text>
</a>
</g>
</g>
<!-- Node15&#45;&gt;Node29 -->
<g id="edge47_Node000015_Node000029" class="edge">
<title>Node15&#45;&gt;Node29</title>
<g id="a_edge47_Node000015_Node000029"><a xlink:title=" ">
<path fill="none" stroke="#63b8ff" d="M641.74,-506.51C661.52,-499.24 685.5,-491.01 707.5,-485 715.58,-482.79 724.11,-480.73 732.62,-478.84"/>
<polygon fill="#63b8ff" stroke="#63b8ff" points="733.22,-482.29 742.26,-476.77 731.75,-475.45 733.22,-482.29"/>
</a>
</g>
</g>
<!-- Node30 -->
<g id="Node000030" class="node">
<title>Node30</title>
<g id="a_Node000030"><a xlink:href="../../d5/d72/classLSM1x0A__LoRaWAN.html#a1df10d7ae6bf45b537d28d3d5c4b88d7" target="_top" xlink:title="Sets the transmission power index.">
<polygon fill="white" stroke="#666666" points="888.88,-438 719.88,-438 719.88,-418 888.88,-418 888.88,-438"/>
<text text-anchor="middle" x="804.38" y="-424.5" font-family="Helvetica,sans-Serif" font-size="10.00">LSM1x0A_LoRaWAN::setTxPower</text>
</a>
</g>
</g>
<!-- Node15&#45;&gt;Node30 -->
<g id="edge49_Node000015_Node000030" class="edge">
<title>Node15&#45;&gt;Node30</title>
<g id="a_edge49_Node000015_Node000030"><a xlink:title=" ">
<path fill="none" stroke="#63b8ff" d="M617.35,-506.66C637.76,-489.16 672.66,-461.89 707.5,-447 712.1,-445.03 716.91,-443.27 721.83,-441.68"/>
<polygon fill="#63b8ff" stroke="#63b8ff" points="722.64,-445.09 731.26,-438.92 720.67,-438.37 722.64,-445.09"/>
</a>
</g>
</g>
<!-- Node31 -->
<g id="Node000031" class="node">
<title>Node31</title>
<g id="a_Node000031"><a xlink:href="../../d5/d72/classLSM1x0A__LoRaWAN.html#a059fd6a9356c4ecadd5a98294da5952d" target="_top" xlink:title="Configures the number of repetitions for Unconfirmed uplinks.">
<polygon fill="white" stroke="#666666" points="891.88,-400 716.88,-400 716.88,-368 891.88,-368 891.88,-400"/>
<text text-anchor="start" x="724.88" y="-386.5" font-family="Helvetica,sans-Serif" font-size="10.00">LSM1x0A_LoRaWAN::setUnconfirm</text>
<text text-anchor="middle" x="804.38" y="-374.5" font-family="Helvetica,sans-Serif" font-size="10.00">Retry</text>
</a>
</g>
</g>
<!-- Node15&#45;&gt;Node31 -->
<g id="edge51_Node000015_Node000031" class="edge">
<title>Node15&#45;&gt;Node31</title>
<g id="a_edge51_Node000015_Node000031"><a xlink:title=" ">
<path fill="none" stroke="#63b8ff" d="M610.14,-506.67C627.65,-481.73 664.49,-434.39 707.5,-409 709.81,-407.64 712.2,-406.34 714.64,-405.12"/>
<polygon fill="#63b8ff" stroke="#63b8ff" points="715.9,-408.4 723.58,-401.1 713.03,-402.01 715.9,-408.4"/>
</a>
</g>
</g>
<!-- Node16&#45;&gt;Node9 -->
<g id="edge21_Node000016_Node000009" class="edge">
<title>Node16&#45;&gt;Node9</title>
<g id="a_edge21_Node000016_Node000009"><a xlink:title=" ">
<path fill="none" stroke="#63b8ff" d="M880.65,-348.53C887.97,-351.2 894.99,-354.62 901.25,-359 956.84,-397.86 989.69,-474.26 1003.99,-514.97"/>
<polygon fill="#63b8ff" stroke="#63b8ff" points="1000.61,-515.89 1007.12,-524.24 1007.24,-513.65 1000.61,-515.89"/>
</a>
</g>
</g>
<!-- Node17&#45;&gt;Node9 -->
<g id="edge23_Node000017_Node000009" class="edge">
<title>Node17&#45;&gt;Node9</title>
<g id="a_edge23_Node000017_Node000009"><a xlink:title=" ">
<path fill="none" stroke="#63b8ff" d="M881.02,-310.03C888.27,-312.79 895.17,-316.38 901.25,-321 965.87,-370.13 995.71,-467.16 1006.91,-514.6"/>
<polygon fill="#63b8ff" stroke="#63b8ff" points="1003.42,-515.06 1009.03,-524.05 1010.25,-513.53 1003.42,-515.06"/>
</a>
</g>
</g>
<!-- Node18&#45;&gt;Node9 -->
<g id="edge26_Node000018_Node000009" class="edge">
<title>Node18&#45;&gt;Node9</title>
<g id="a_edge26_Node000018_Node000009"><a xlink:title=" ">
<path fill="none" stroke="#63b8ff" d="M887.08,-273.44C892.16,-276.14 896.95,-279.3 901.25,-283 973.2,-344.86 999.98,-461.59 1008.74,-514.59"/>
<polygon fill="#63b8ff" stroke="#63b8ff" points="1005.25,-514.92 1010.24,-524.26 1012.17,-513.84 1005.25,-514.92"/>
</a>
</g>
</g>
<!-- Node19&#45;&gt;Node9 -->
<g id="edge28_Node000019_Node000009" class="edge">
<title>Node19&#45;&gt;Node9</title>
<g id="a_edge28_Node000019_Node000009"><a xlink:title=" ">
<path fill="none" stroke="#63b8ff" d="M888.69,-871.6C893.2,-869.21 897.44,-866.37 901.25,-863 939.48,-829.22 920.72,-802.26 937.25,-754 960.06,-687.42 988.05,-609.52 1002.62,-569.23"/>
<polygon fill="#63b8ff" stroke="#63b8ff" points="1005.89,-570.47 1006.01,-559.87 999.31,-568.08 1005.89,-570.47"/>
</a>
</g>
</g>
<!-- Node20&#45;&gt;Node9 -->
<g id="edge30_Node000020_Node000009" class="edge">
<title>Node20&#45;&gt;Node9</title>
<g id="a_edge30_Node000020_Node000009"><a xlink:title=" ">
<path fill="none" stroke="#63b8ff" d="M888.02,-833.58C892.75,-831.21 897.21,-828.37 901.25,-825 922.03,-807.64 980.94,-636.39 1003.53,-569.02"/>
<polygon fill="#63b8ff" stroke="#63b8ff" points="1006.74,-570.45 1006.59,-559.86 1000.1,-568.24 1006.74,-570.45"/>
</a>
</g>
</g>
<!-- Node21&#45;&gt;Node9 -->
<g id="edge32_Node000021_Node000009" class="edge">
<title>Node21&#45;&gt;Node9</title>
<g id="a_edge32_Node000021_Node000009"><a xlink:title=" ">
<path fill="none" stroke="#63b8ff" d="M887.36,-795.56C892.3,-793.2 896.99,-790.37 901.25,-787 971.75,-731.13 999.14,-620.69 1008.38,-569.39"/>
<polygon fill="#63b8ff" stroke="#63b8ff" points="1011.79,-570.18 1010.01,-559.74 1004.89,-569.01 1011.79,-570.18"/>
</a>
</g>
</g>
<!-- Node22&#45;&gt;Node9 -->
<g id="edge34_Node000022_Node000009" class="edge">
<title>Node22&#45;&gt;Node9</title>
<g id="a_edge34_Node000022_Node000009"><a xlink:title=" ">
<path fill="none" stroke="#63b8ff" d="M879.91,-749.05C887.54,-745.87 894.83,-741.92 901.25,-737 958.24,-693.34 990.81,-611.57 1004.6,-569.12"/>
<polygon fill="#63b8ff" stroke="#63b8ff" points="1007.9,-570.29 1007.55,-559.7 1001.22,-568.2 1007.9,-570.29"/>
</a>
</g>
</g>
<!-- Node23&#45;&gt;Node9 -->
<g id="edge36_Node000023_Node000009" class="edge">
<title>Node23&#45;&gt;Node9</title>
<g id="a_edge36_Node000023_Node000009"><a xlink:title=" ">
<path fill="none" stroke="#63b8ff" d="M881.24,-697.37C888.29,-694.51 895.09,-691.09 901.25,-687 947.06,-656.61 981.82,-600.94 999.5,-568.13"/>
<polygon fill="#63b8ff" stroke="#63b8ff" points="1002.39,-570.16 1003.93,-559.68 996.19,-566.91 1002.39,-570.16"/>
</a>
</g>
</g>
<!-- Node24&#45;&gt;Node9 -->
<g id="edge38_Node000024_Node000009" class="edge">
<title>Node24&#45;&gt;Node9</title>
<g id="a_edge38_Node000024_Node000009"><a xlink:title=" ">
<path fill="none" stroke="#63b8ff" d="M881.43,-645.62C888.29,-643.12 895,-640.26 901.25,-637 936.04,-618.85 969.35,-588.01 990.31,-566.4"/>
<polygon fill="#63b8ff" stroke="#63b8ff" points="992.58,-569.1 996.93,-559.44 987.5,-564.27 992.58,-569.1"/>
</a>
</g>
</g>
<!-- Node25&#45;&gt;Node9 -->
<g id="edge40_Node000025_Node000009" class="edge">
<title>Node25&#45;&gt;Node9</title>
<g id="a_edge40_Node000025_Node000009"><a xlink:title=" ">
<path fill="none" stroke="#63b8ff" d="M871.01,-607.52C881.26,-605.16 891.63,-602.34 901.25,-599 927.32,-589.94 954.95,-575.81 976.15,-563.89"/>
<polygon fill="#63b8ff" stroke="#63b8ff" points="977.75,-567 984.69,-559 974.27,-560.93 977.75,-567"/>
</a>
</g>
</g>
<!-- Node26&#45;&gt;Node9 -->
<g id="edge42_Node000026_Node000009" class="edge">
<title>Node26&#45;&gt;Node9</title>
<g id="a_edge42_Node000026_Node000009"><a xlink:title=" ">
<path fill="none" stroke="#63b8ff" d="M862.52,-569.52C889.36,-564.59 921.44,-558.71 949.03,-553.64"/>
<polygon fill="#63b8ff" stroke="#63b8ff" points="949.46,-557.12 958.66,-551.88 948.19,-550.24 949.46,-557.12"/>
</a>
</g>
</g>
<!-- Node27&#45;&gt;Node9 -->
<g id="edge44_Node000027_Node000009" class="edge">
<title>Node27&#45;&gt;Node9</title>
<g id="a_edge44_Node000027_Node000009"><a xlink:title=" ">
<path fill="none" stroke="#63b8ff" d="M899.85,-542C916.34,-542 933.14,-542 948.57,-542"/>
<polygon fill="#63b8ff" stroke="#63b8ff" points="948.55,-545.5 958.55,-542 948.55,-538.5 948.55,-545.5"/>
</a>
</g>
</g>
<!-- Node28&#45;&gt;Node9 -->
<g id="edge46_Node000028_Node000009" class="edge">
<title>Node28&#45;&gt;Node9</title>
<g id="a_edge46_Node000028_Node000009"><a xlink:title=" ">
<path fill="none" stroke="#63b8ff" d="M862.52,-514.48C889.36,-519.41 921.44,-525.29 949.03,-530.36"/>
<polygon fill="#63b8ff" stroke="#63b8ff" points="948.19,-533.76 958.66,-532.12 949.46,-526.88 948.19,-533.76"/>
</a>
</g>
</g>
<!-- Node29&#45;&gt;Node9 -->
<g id="edge48_Node000029_Node000009" class="edge">
<title>Node29&#45;&gt;Node9</title>
<g id="a_edge48_Node000029_Node000009"><a xlink:title=" ">
<path fill="none" stroke="#63b8ff" d="M871.01,-476.48C881.26,-478.84 891.63,-481.66 901.25,-485 927.32,-494.06 954.95,-508.19 976.15,-520.11"/>
<polygon fill="#63b8ff" stroke="#63b8ff" points="974.27,-523.07 984.69,-525 977.75,-517 974.27,-523.07"/>
</a>
</g>
</g>
<!-- Node30&#45;&gt;Node9 -->
<g id="edge50_Node000030_Node000009" class="edge">
<title>Node30&#45;&gt;Node9</title>
<g id="a_edge50_Node000030_Node000009"><a xlink:title=" ">
<path fill="none" stroke="#63b8ff" d="M878.64,-438.43C886.46,-440.74 894.15,-443.56 901.25,-447 936.76,-464.21 970.15,-495.52 990.91,-517.48"/>
<polygon fill="#63b8ff" stroke="#63b8ff" points="988.1,-519.6 997.46,-524.57 993.24,-514.85 988.1,-519.6"/>
</a>
</g>
</g>
<!-- Node31&#45;&gt;Node9 -->
<g id="edge52_Node000031_Node000009" class="edge">
<title>Node31&#45;&gt;Node9</title>
<g id="a_edge52_Node000031_Node000009"><a xlink:title=" ">
<path fill="none" stroke="#63b8ff" d="M884.5,-400.31C890.36,-402.81 896.02,-405.69 901.25,-409 944.24,-436.23 978.97,-485.5 997.6,-515.83"/>
<polygon fill="#63b8ff" stroke="#63b8ff" points="994.59,-517.61 1002.73,-524.4 1000.6,-514.02 994.59,-517.61"/>
</a>
</g>
</g>
<!-- Node33&#45;&gt;Node10 -->
<g id="edge55_Node000033_Node000010" class="edge">
<title>Node33&#45;&gt;Node10</title>
<g id="a_edge55_Node000033_Node000010"><a xlink:title=" ">
<path fill="none" stroke="#63b8ff" d="M1028.07,-762.71C1063.44,-720.24 1158.34,-606.28 1196.08,-560.97"/>
<polygon fill="#63b8ff" stroke="#63b8ff" points="1198.55,-563.47 1202.26,-553.55 1193.17,-558.99 1198.55,-563.47"/>
</a>
</g>
</g>
</g>
</svg>
