<?xml version="1.0" encoding="UTF-8" standalone="no"?>
<!DOCTYPE svg PUBLIC "-//W3C//DTD SVG 1.1//EN"
 "http://www.w3.org/Graphics/SVG/1.1/DTD/svg11.dtd">
<!-- Generated by graphviz version 12.2.1 (20241206.2353)
 -->
<!-- Title: LSM1x0A_Controller::factoryReset Pages: 1 -->
<svg width="1237pt" height="1143pt"
 viewBox="0.00 0.00 1236.75 1143.11" xmlns="http://www.w3.org/2000/svg" xmlns:xlink="http://www.w3.org/1999/xlink">
<g id="graph0" class="graph" transform="scale(1 1) rotate(0) translate(4 1139.11)">
<title>LSM1x0A_Controller::factoryReset</title>
<!-- Node1 -->
<g id="Node000001" class="node">
<title>Node1</title>
<g id="a_Node000001"><a xlink:title="Executes a factory reset returning the module to its factory state. Warning: This erases all written ...">
<polygon fill="#999999" stroke="#666666" points="106,-496.95 0,-496.95 0,-464.95 106,-464.95 106,-496.95"/>
<text text-anchor="start" x="8" y="-483.45" font-family="Helvetica,sans-Serif" font-size="10.00">LSM1x0A_Controller</text>
<text text-anchor="middle" x="53" y="-471.45" font-family="Helvetica,sans-Serif" font-size="10.00">::factoryReset</text>
</a>
</g>
</g>
<!-- Node2 -->
<g id="Node000002" class="node">
<title>Node2</title>
<g id="a_Node000002"><a xlink:href="../../d8/d92/classLSM1x0A__Controller.html#afd7d92e60ed6fdae696a955cdbe0ed8c" target="_top" xlink:title="Sends any AT command to the module, returning error if it fails. Internally uses the LsmAtParser logi...">
<polygon fill="white" stroke="#666666" points="248,-496.95 142,-496.95 142,-464.95 248,-464.95 248,-496.95"/>
<text text-anchor="start" x="150" y="-483.45" font-family="Helvetica,sans-Serif" font-size="10.00">LSM1x0A_Controller</text>
<text text-anchor="middle" x="195" y="-471.45" font-family="Helvetica,sans-Serif" font-size="10.00">::sendCommand</text>
</a>
</g>
</g>
<!-- Node1&#45;&gt;Node2 -->
<g id="edge1_Node000001_Node000002" class="edge">
<title>Node1&#45;&gt;Node2</title>
<g id="a_edge1_Node000001_Node000002"><a xlink:title=" ">
<path fill="none" stroke="#63b8ff" d="M106.13,-480.95C114.06,-480.95 122.31,-480.95 130.45,-480.95"/>
<polygon fill="#63b8ff" stroke="#63b8ff" points="130.31,-484.45 140.31,-480.95 130.31,-477.45 130.31,-484.45"/>
</a>
</g>
</g>
<!-- Node3 -->
<g id="Node000003" class="node">
<title>Node3</title>
<g id="a_Node000003"><a xlink:href="../../d8/d92/classLSM1x0A__Controller.html#abb0eb380daa3dfb7acffb483c5db8e2b" target="_top" xlink:title="Executes the recovery protocol. First Soft&#45;Reset (ATZ), then Hard&#45;Reset if there is a pin.">
<polygon fill="white" stroke="#666666" points="390,-938.95 284,-938.95 284,-906.95 390,-906.95 390,-938.95"/>
<text text-anchor="start" x="292" y="-925.45" font-family="Helvetica,sans-Serif" font-size="10.00">LSM1x0A_Controller</text>
<text text-anchor="middle" x="337" y="-913.45" font-family="Helvetica,sans-Serif" font-size="10.00">::recoverModule</text>
</a>
</g>
</g>
<!-- Node2&#45;&gt;Node3 -->
<g id="edge2_Node000002_Node000003" class="edge">
<title>Node2&#45;&gt;Node3</title>
<g id="a_edge2_Node000002_Node000003"><a xlink:title=" ">
<path fill="none" stroke="#63b8ff" d="M199.55,-497.39C210.11,-545.46 243.16,-689.56 284,-804.95 295.35,-837.01 311.54,-872.58 322.83,-896.2"/>
<polygon fill="#63b8ff" stroke="#63b8ff" points="319.63,-897.62 327.13,-905.1 325.93,-894.57 319.63,-897.62"/>
</a>
</g>
</g>
<!-- Node31 -->
<g id="Node000031" class="node">
<title>Node31</title>
<g id="a_Node000031"><a xlink:href="../../d6/d3c/classLSM1x0A__AtParser.html#a29b53c521974387ba6c03afadfaffa4a" target="_top" xlink:title="Sends a simple command and waits for OK/ERROR. Example: sendCommand(&quot;AT+JOIN&quot;);.">
<polygon fill="white" stroke="#666666" points="804.5,-1118.95 630.25,-1118.95 630.25,-1098.95 804.5,-1098.95 804.5,-1118.95"/>
<text text-anchor="middle" x="717.38" y="-1105.45" font-family="Helvetica,sans-Serif" font-size="10.00">LSM1x0A_AtParser::sendCommand</text>
</a>
</g>
</g>
<!-- Node2&#45;&gt;Node31 -->
<g id="edge55_Node000002_Node000031" class="edge">
<title>Node2&#45;&gt;Node31</title>
<g id="a_edge55_Node000002_Node000031"><a xlink:title=" ">
<path fill="none" stroke="#63b8ff" d="M196.06,-497.2C196.88,-559.15 205.42,-785.25 284,-947.95 325.93,-1034.77 338.31,-1071.88 426,-1111.95 503.76,-1147.48 605.91,-1134.62 666.02,-1121.89"/>
<polygon fill="#63b8ff" stroke="#63b8ff" points="666.61,-1125.34 675.62,-1119.77 665.1,-1118.51 666.61,-1125.34"/>
</a>
</g>
</g>
<!-- Node4 -->
<g id="Node000004" class="node">
<title>Node4</title>
<g id="a_Node000004"><a xlink:href="../../d8/d92/classLSM1x0A__Controller.html#a3f6f25b843fe4fb7042c544deae2ab16" target="_top" xlink:title="Manually clears bits from the internal EventGroup.">
<polygon fill="white" stroke="#666666" points="998.25,-957.95 892.25,-957.95 892.25,-925.95 998.25,-925.95 998.25,-957.95"/>
<text text-anchor="start" x="900.25" y="-944.45" font-family="Helvetica,sans-Serif" font-size="10.00">LSM1x0A_Controller</text>
<text text-anchor="middle" x="945.25" y="-932.45" font-family="Helvetica,sans-Serif" font-size="10.00">::clearEvents</text>
</a>
</g>
</g>
<!-- Node3&#45;&gt;Node4 -->
<g id="edge3_Node000003_Node000004" class="edge">
<title>Node3&#45;&gt;Node4</title>
<g id="a_edge3_Node000003_Node000004"><a xlink:title=" ">
<path fill="none" stroke="#63b8ff" d="M354.08,-939.29C370.5,-954.72 397.56,-976.82 426,-985.95 585.57,-1037.18 786.16,-991 884.43,-961.72"/>
<polygon fill="#63b8ff" stroke="#63b8ff" points="885.32,-965.11 893.87,-958.86 883.29,-958.41 885.32,-965.11"/>
</a>
</g>
</g>
<!-- Node5 -->
<g id="Node000005" class="node">
<title>Node5</title>
<g id="a_Node000005"><a xlink:href="../../d8/d92/classLSM1x0A__Controller.html#a345d4bd79fa16b18dc33a4ca788fe5f7" target="_top" xlink:title="Performs a hardware reset using the reset pin.">
<polygon fill="white" stroke="#666666" points="558.25,-938.95 452.25,-938.95 452.25,-906.95 558.25,-906.95 558.25,-938.95"/>
<text text-anchor="start" x="460.25" y="-925.45" font-family="Helvetica,sans-Serif" font-size="10.00">LSM1x0A_Controller</text>
<text text-anchor="middle" x="505.25" y="-913.45" font-family="Helvetica,sans-Serif" font-size="10.00">::hardwareReset</text>
</a>
</g>
</g>
<!-- Node3&#45;&gt;Node5 -->
<g id="edge4_Node000003_Node000005" class="edge">
<title>Node3&#45;&gt;Node5</title>
<g id="a_edge4_Node000003_Node000005"><a xlink:title=" ">
<path fill="none" stroke="#63b8ff" d="M390.15,-922.95C406.16,-922.95 423.97,-922.95 440.66,-922.95"/>
<polygon fill="#63b8ff" stroke="#63b8ff" points="440.49,-926.45 450.49,-922.95 440.49,-919.45 440.49,-926.45"/>
</a>
</g>
</g>
<!-- Node7 -->
<g id="Node000007" class="node">
<title>Node7</title>
<g id="a_Node000007"><a xlink:href="../../d5/d72/classLSM1x0A__LoRaWAN.html#a1892801e37c8cd67d37c76108d6f7d49" target="_top" xlink:title="Validates if the device is currently Joined to the network. (Either confirmed by OTAA or statically a...">
<polygon fill="white" stroke="#666666" points="1228.75,-926.95 1076.25,-926.95 1076.25,-906.95 1228.75,-906.95 1228.75,-926.95"/>
<text text-anchor="middle" x="1152.5" y="-913.45" font-family="Helvetica,sans-Serif" font-size="10.00">LSM1x0A_LoRaWAN::isJoined</text>
</a>
</g>
</g>
<!-- Node3&#45;&gt;Node7 -->
<g id="edge6_Node000003_Node000007" class="edge">
<title>Node3&#45;&gt;Node7</title>
<g id="a_edge6_Node000003_Node000007"><a xlink:title=" ">
<path fill="none" stroke="#63b8ff" d="M383.94,-939.25C386.08,-940.7 388.11,-942.26 390,-943.95 415.17,-966.51 396.99,-993.6 426,-1010.95 436.7,-1017.34 752.16,-1014.94 814.25,-1008.95 915.94,-999.13 942.74,-997.44 1040.25,-966.95 1069.08,-957.93 1100.33,-943.44 1122.34,-932.37"/>
<polygon fill="#63b8ff" stroke="#63b8ff" points="1123.7,-935.61 1131.01,-927.94 1120.51,-929.38 1123.7,-935.61"/>
</a>
</g>
</g>
<!-- Node8 -->
<g id="Node000008" class="node">
<title>Node8</title>
<g id="a_Node000008"><a xlink:href="../../d5/d72/classLSM1x0A__LoRaWAN.html#a83e11c0e74ff9e0757db616ab1163424" target="_top" xlink:title="Attempts to recover a lost connection (re&#45;executes OTAA Join if dropped).">
<polygon fill="white" stroke="#666666" points="579.62,-850.95 430.88,-850.95 430.88,-818.95 579.62,-818.95 579.62,-850.95"/>
<text text-anchor="start" x="438.88" y="-837.45" font-family="Helvetica,sans-Serif" font-size="10.00">LSM1x0A_LoRaWAN::recover</text>
<text text-anchor="middle" x="505.25" y="-825.45" font-family="Helvetica,sans-Serif" font-size="10.00">Connection</text>
</a>
</g>
</g>
<!-- Node3&#45;&gt;Node8 -->
<g id="edge7_Node000003_Node000008" class="edge">
<title>Node3&#45;&gt;Node8</title>
<g id="a_edge7_Node000003_Node000008"><a xlink:title=" ">
<path fill="none" stroke="#63b8ff" d="M359.97,-906.53C377.3,-894.07 402.4,-877.07 426,-864.95 432.29,-861.72 439,-858.64 445.76,-855.76"/>
<polygon fill="#63b8ff" stroke="#63b8ff" points="447.03,-859.02 454.96,-851.99 444.38,-852.55 447.03,-859.02"/>
</a>
</g>
</g>
<!-- Node12 -->
<g id="Node000012" class="node">
<title>Node12</title>
<g id="a_Node000012"><a xlink:href="../../d5/d72/classLSM1x0A__LoRaWAN.html#ae3be4ce59dfa200369733317df356e97" target="_top" xlink:title="Pushes the RAM&#45;cached variables back down into the hardware module. Restores the operational state af...">
<polygon fill="white" stroke="#666666" points="578.5,-496.95 432,-496.95 432,-464.95 578.5,-464.95 578.5,-496.95"/>
<text text-anchor="start" x="440" y="-483.45" font-family="Helvetica,sans-Serif" font-size="10.00">LSM1x0A_LoRaWAN::restore</text>
<text text-anchor="middle" x="505.25" y="-471.45" font-family="Helvetica,sans-Serif" font-size="10.00">Config</text>
</a>
</g>
</g>
<!-- Node3&#45;&gt;Node12 -->
<g id="edge16_Node000003_Node000012" class="edge">
<title>Node3&#45;&gt;Node12</title>
<g id="a_edge16_Node000003_Node000012"><a xlink:title=" ">
<path fill="none" stroke="#63b8ff" d="M344.11,-906.69C369.01,-840.5 462.92,-590.84 494.11,-507.91"/>
<polygon fill="#63b8ff" stroke="#63b8ff" points="497.3,-509.36 497.55,-498.77 490.75,-506.9 497.3,-509.36"/>
</a>
</g>
</g>
<!-- Node29 -->
<g id="Node000029" class="node">
<title>Node29</title>
<g id="a_Node000029"><a xlink:href="../../d5/d72/classLSM1x0A__LoRaWAN.html#ace4b04396f1de1f4a54f513f5f378db7" target="_top" xlink:title="Manually overrides the internal joined state tracker.">
<polygon fill="white" stroke="#666666" points="584.5,-976.95 426,-976.95 426,-956.95 584.5,-956.95 584.5,-976.95"/>
<text text-anchor="middle" x="505.25" y="-963.45" font-family="Helvetica,sans-Serif" font-size="10.00">LSM1x0A_LoRaWAN::setJoined</text>
</a>
</g>
</g>
<!-- Node3&#45;&gt;Node29 -->
<g id="edge50_Node000003_Node000029" class="edge">
<title>Node3&#45;&gt;Node29</title>
<g id="a_edge50_Node000003_Node000029"><a xlink:title=" ">
<path fill="none" stroke="#63b8ff" d="M390.49,-938.22C402.16,-941.51 414.48,-944.91 426,-947.95 433.36,-949.89 441.12,-951.86 448.79,-953.76"/>
<polygon fill="#63b8ff" stroke="#63b8ff" points="447.88,-957.14 458.43,-956.13 449.55,-950.35 447.88,-957.14"/>
</a>
</g>
</g>
<!-- Node30 -->
<g id="Node000030" class="node">
<title>Node30</title>
<g id="a_Node000030"><a xlink:href="../../d8/d92/classLSM1x0A__Controller.html#a11ad21cb5ca33ec51346764a23bd485e" target="_top" xlink:title="Performs a software reset (ATZ Command).">
<polygon fill="white" stroke="#666666" points="558.25,-1102.95 452.25,-1102.95 452.25,-1070.95 558.25,-1070.95 558.25,-1102.95"/>
<text text-anchor="start" x="460.25" y="-1089.45" font-family="Helvetica,sans-Serif" font-size="10.00">LSM1x0A_Controller</text>
<text text-anchor="middle" x="505.25" y="-1077.45" font-family="Helvetica,sans-Serif" font-size="10.00">::softwareReset</text>
</a>
</g>
</g>
<!-- Node3&#45;&gt;Node30 -->
<g id="edge51_Node000003_Node000030" class="edge">
<title>Node3&#45;&gt;Node30</title>
<g id="a_edge51_Node000003_Node000030"><a xlink:title=" ">
<path fill="none" stroke="#63b8ff" d="M344.7,-939.34C356.89,-967.25 385.25,-1024.13 426,-1056.95 430.82,-1060.83 436.19,-1064.24 441.8,-1067.25"/>
<polygon fill="#63b8ff" stroke="#63b8ff" points="440.21,-1070.36 450.73,-1071.55 443.25,-1064.06 440.21,-1070.36"/>
</a>
</g>
</g>
<!-- Node6 -->
<g id="Node000006" class="node">
<title>Node6</title>
<g id="a_Node000006"><a xlink:href="../../d6/d3c/classLSM1x0A__AtParser.html#ad2839120da13e56132b95019419be1e5" target="_top" xlink:title="Waits for an event (like BOOTALERT) without sending any command. Useful for hardware reset where the ...">
<polygon fill="white" stroke="#666666" points="787.62,-938.95 647.12,-938.95 647.12,-906.95 787.62,-906.95 787.62,-938.95"/>
<text text-anchor="start" x="655.12" y="-925.45" font-family="Helvetica,sans-Serif" font-size="10.00">LSM1x0A_AtParser::waitFor</text>
<text text-anchor="middle" x="717.38" y="-913.45" font-family="Helvetica,sans-Serif" font-size="10.00">Event</text>
</a>
</g>
</g>
<!-- Node5&#45;&gt;Node6 -->
<g id="edge5_Node000005_Node000006" class="edge">
<title>Node5&#45;&gt;Node6</title>
<g id="a_edge5_Node000005_Node000006"><a xlink:title=" ">
<path fill="none" stroke="#63b8ff" d="M558.73,-922.95C581.92,-922.95 609.72,-922.95 635.46,-922.95"/>
<polygon fill="#63b8ff" stroke="#63b8ff" points="635.22,-926.45 645.22,-922.95 635.22,-919.45 635.22,-926.45"/>
</a>
</g>
</g>
<!-- Node9 -->
<g id="Node000009" class="node">
<title>Node9</title>
<g id="a_Node000009"><a xlink:href="../../d5/d72/classLSM1x0A__LoRaWAN.html#a59f781f3cfd30c11cd3973bcb10a7baa" target="_top" xlink:title="Initiates a LoRaWAN Network Join procedure. This is a blocking function until the module fires an eve...">
<polygon fill="white" stroke="#666666" points="783.12,-844.95 651.62,-844.95 651.62,-824.95 783.12,-824.95 783.12,-844.95"/>
<text text-anchor="middle" x="717.38" y="-831.45" font-family="Helvetica,sans-Serif" font-size="10.00">LSM1x0A_LoRaWAN::join</text>
</a>
</g>
</g>
<!-- Node8&#45;&gt;Node9 -->
<g id="edge8_Node000008_Node000009" class="edge">
<title>Node8&#45;&gt;Node9</title>
<g id="a_edge8_Node000008_Node000009"><a xlink:title=" ">
<path fill="none" stroke="#63b8ff" d="M580.04,-834.95C599.41,-834.95 620.35,-834.95 639.86,-834.95"/>
<polygon fill="#63b8ff" stroke="#63b8ff" points="639.65,-838.45 649.65,-834.95 639.65,-831.45 639.65,-838.45"/>
</a>
</g>
</g>
<!-- Node9&#45;&gt;Node2 -->
<g id="edge11_Node000009_Node000002" class="edge">
<title>Node9&#45;&gt;Node2</title>
<g id="a_edge11_Node000009_Node000002"><a xlink:title=" ">
<path fill="none" stroke="#63b8ff" d="M663.15,-824.5C604.52,-812.53 507.73,-791.38 426,-766.95 361.61,-747.69 331.73,-762.27 284,-714.95 225.73,-657.18 205.53,-557.13 198.95,-508.74"/>
<polygon fill="#63b8ff" stroke="#63b8ff" points="202.43,-508.33 197.72,-498.84 195.48,-509.2 202.43,-508.33"/>
</a>
</g>
</g>
<!-- Node9&#45;&gt;Node3 -->
<g id="edge10_Node000009_Node000003" class="edge">
<title>Node9&#45;&gt;Node3</title>
<g id="a_edge10_Node000009_Node000003"><a xlink:title=" ">
<path fill="none" stroke="#63b8ff" d="M663.15,-845.44C604.74,-857.21 508.32,-877.35 426,-897.95 418.06,-899.94 409.74,-902.14 401.53,-904.39"/>
<polygon fill="#63b8ff" stroke="#63b8ff" points="400.59,-901.01 391.9,-907.06 402.47,-907.76 400.59,-901.01"/>
</a>
</g>
</g>
<!-- Node9&#45;&gt;Node4 -->
<g id="edge9_Node000009_Node000004" class="edge">
<title>Node9&#45;&gt;Node4</title>
<g id="a_edge9_Node000009_Node000004"><a xlink:title=" ">
<path fill="none" stroke="#63b8ff" d="M740.44,-845.4C777.16,-862.79 851.48,-898 899.51,-920.75"/>
<polygon fill="#63b8ff" stroke="#63b8ff" points="897.72,-923.78 908.26,-924.9 900.72,-917.45 897.72,-923.78"/>
</a>
</g>
</g>
<!-- Node10 -->
<g id="Node000010" class="node">
<title>Node10</title>
<g id="a_Node000010"><a xlink:href="../../d5/d72/classLSM1x0A__LoRaWAN.html#a3fdd1ac318a5ad2559323e5d57e36a5e" target="_top" xlink:title="Enables or disables specific sub&#45;bands for regions supporting Channel Masks (e.g.,...">
<polygon fill="white" stroke="#666666" points="1040.25,-654.95 850.25,-654.95 850.25,-634.95 1040.25,-634.95 1040.25,-654.95"/>
<text text-anchor="middle" x="945.25" y="-641.45" font-family="Helvetica,sans-Serif" font-size="10.00">LSM1x0A_LoRaWAN::setChannelMask</text>
</a>
</g>
</g>
<!-- Node9&#45;&gt;Node10 -->
<g id="edge12_Node000009_Node000010" class="edge">
<title>Node9&#45;&gt;Node10</title>
<g id="a_edge12_Node000009_Node000010"><a xlink:title=" ">
<path fill="none" stroke="#63b8ff" d="M777.68,-824.45C790.4,-820.55 803.3,-815.22 814.25,-807.95 871.12,-770.19 914.75,-699.61 933.79,-665.05"/>
<polygon fill="#63b8ff" stroke="#63b8ff" points="936.72,-666.98 938.37,-656.52 930.55,-663.67 936.72,-666.98"/>
</a>
</g>
</g>
<!-- Node11 -->
<g id="Node000011" class="node">
<title>Node11</title>
<g id="a_Node000011"><a xlink:href="../../d8/d92/classLSM1x0A__Controller.html#a62476e30e50c7fe120aeb8df4b828675" target="_top" xlink:title="Synchronously/blockingly waits for an asynchronous event to occur. Useful for wrapping commands like ...">
<polygon fill="white" stroke="#666666" points="998.25,-850.95 892.25,-850.95 892.25,-818.95 998.25,-818.95 998.25,-850.95"/>
<text text-anchor="start" x="900.25" y="-837.45" font-family="Helvetica,sans-Serif" font-size="10.00">LSM1x0A_Controller</text>
<text text-anchor="middle" x="945.25" y="-825.45" font-family="Helvetica,sans-Serif" font-size="10.00">::waitForEvent</text>
</a>
</g>
</g>
<!-- Node9&#45;&gt;Node11 -->
<g id="edge15_Node000009_Node000011" class="edge">
<title>Node9&#45;&gt;Node11</title>
<g id="a_edge15_Node000009_Node000011"><a xlink:title=" ">
<path fill="none" stroke="#63b8ff" d="M783.4,-834.95C813.91,-834.95 850.15,-834.95 880.49,-834.95"/>
<polygon fill="#63b8ff" stroke="#63b8ff" points="880.3,-838.45 890.3,-834.95 880.3,-831.45 880.3,-838.45"/>
</a>
</g>
</g>
<!-- Node10&#45;&gt;Node2 -->
<g id="edge14_Node000010_Node000002" class="edge">
<title>Node10&#45;&gt;Node2</title>
<g id="a_edge14_Node000010_Node000002"><a xlink:title=" ">
<path fill="none" stroke="#63b8ff" d="M943.47,-634.73C938.02,-566.01 903.1,-172.04 814.25,-101.95 629.09,44.11 465.15,29.06 284,-121.95 232.42,-164.95 206.36,-377.61 198.57,-453.76"/>
<polygon fill="#63b8ff" stroke="#63b8ff" points="195.13,-452.96 197.62,-463.26 202.09,-453.65 195.13,-452.96"/>
</a>
</g>
</g>
<!-- Node10&#45;&gt;Node7 -->
<g id="edge13_Node000010_Node000007" class="edge">
<title>Node10&#45;&gt;Node7</title>
<g id="a_edge13_Node000010_Node000007"><a xlink:title=" ">
<path fill="none" stroke="#63b8ff" d="M954.05,-655.28C984.59,-695.76 1096.42,-843.95 1136.82,-897.49"/>
<polygon fill="#63b8ff" stroke="#63b8ff" points="1133.97,-899.52 1142.79,-905.4 1139.56,-895.31 1133.97,-899.52"/>
</a>
</g>
</g>
<!-- Node12&#45;&gt;Node10 -->
<g id="edge21_Node000012_Node000010" class="edge">
<title>Node12&#45;&gt;Node10</title>
<g id="a_edge21_Node000012_Node000010"><a xlink:title=" ">
<path fill="none" stroke="#63b8ff" d="M578.74,-484.29C656.4,-488.81 773.93,-498.64 814.25,-517.95 866.18,-542.82 910.13,-596.76 931.09,-625.7"/>
<polygon fill="#63b8ff" stroke="#63b8ff" points="928.02,-627.41 936.65,-633.56 933.74,-623.37 928.02,-627.41"/>
</a>
</g>
</g>
<!-- Node13 -->
<g id="Node000013" class="node">
<title>Node13</title>
<g id="a_Node000013"><a xlink:href="../../d5/d72/classLSM1x0A__LoRaWAN.html#af0baa3db4c7fab580d6b19a9e92472f6" target="_top" xlink:title="Enables or disables Adaptive Data Rate (ADR).">
<polygon fill="white" stroke="#666666" points="793.25,-798.95 641.5,-798.95 641.5,-778.95 793.25,-778.95 793.25,-798.95"/>
<text text-anchor="middle" x="717.38" y="-785.45" font-family="Helvetica,sans-Serif" font-size="10.00">LSM1x0A_LoRaWAN::setADR</text>
</a>
</g>
</g>
<!-- Node12&#45;&gt;Node13 -->
<g id="edge17_Node000012_Node000013" class="edge">
<title>Node12&#45;&gt;Node13</title>
<g id="a_edge17_Node000012_Node000013"><a xlink:title=" ">
<path fill="none" stroke="#63b8ff" d="M507.43,-497.13C511.95,-546.58 532.65,-696.7 620.5,-769.95 623.75,-772.66 627.29,-775.03 631.01,-777.08"/>
<polygon fill="#63b8ff" stroke="#63b8ff" points="629.34,-780.17 639.88,-781.21 632.29,-773.82 629.34,-780.17"/>
</a>
</g>
</g>
<!-- Node14 -->
<g id="Node000014" class="node">
<title>Node14</title>
<g id="a_Node000014"><a xlink:href="../../d5/d72/classLSM1x0A__LoRaWAN.html#a5365ed1596eb84ebf1e3b33b4a10c788" target="_top" xlink:title="Sets the LoRaWAN operational frequency band.">
<polygon fill="white" stroke="#666666" points="793.62,-760.95 641.12,-760.95 641.12,-740.95 793.62,-740.95 793.62,-760.95"/>
<text text-anchor="middle" x="717.38" y="-747.45" font-family="Helvetica,sans-Serif" font-size="10.00">LSM1x0A_LoRaWAN::setBand</text>
</a>
</g>
</g>
<!-- Node12&#45;&gt;Node14 -->
<g id="edge19_Node000012_Node000014" class="edge">
<title>Node12&#45;&gt;Node14</title>
<g id="a_edge19_Node000012_Node000014"><a xlink:title=" ">
<path fill="none" stroke="#63b8ff" d="M508.51,-497.27C515.67,-542.46 542.23,-669.99 620.5,-731.95 623.66,-734.45 627.05,-736.64 630.61,-738.58"/>
<polygon fill="#63b8ff" stroke="#63b8ff" points="629.1,-741.74 639.65,-742.72 632.02,-735.37 629.1,-741.74"/>
</a>
</g>
</g>
<!-- Node15 -->
<g id="Node000015" class="node">
<title>Node15</title>
<g id="a_Node000015"><a xlink:href="../../d5/d72/classLSM1x0A__LoRaWAN.html#a9d9285c43414337a0ccb3a6cd7ca06e6" target="_top" xlink:title="Configures the number of retries for Confirmed uplinks.">
<polygon fill="white" stroke="#666666" points="799.62,-722.95 635.12,-722.95 635.12,-690.95 799.62,-690.95 799.62,-722.95"/>
<text text-anchor="start" x="643.12" y="-709.45" font-family="Helvetica,sans-Serif" font-size="10.00">LSM1x0A_LoRaWAN::setConfirm</text>
<text text-anchor="middle" x="717.38" y="-697.45" font-family="Helvetica,sans-Serif" font-size="10.00">Retry</text>
</a>
</g>
</g>
<!-- Node12&#45;&gt;Node15 -->
<g id="edge22_Node000012_Node000015" class="edge">
<title>Node12&#45;&gt;Node15</title>
<g id="a_edge22_Node000012_Node000015"><a xlink:title=" ">
<path fill="none" stroke="#63b8ff" d="M510.77,-497.42C522.23,-535.98 556.17,-632.59 620.5,-681.95 621.86,-682.99 623.27,-684 624.71,-684.96"/>
<polygon fill="#63b8ff" stroke="#63b8ff" points="622.93,-687.98 633.34,-689.96 626.44,-681.92 622.93,-687.98"/>
</a>
</g>
</g>
<!-- Node16 -->
<g id="Node000016" class="node">
<title>Node16</title>
<g id="a_Node000016"><a xlink:href="../../d5/d72/classLSM1x0A__LoRaWAN.html#a56345ceeafa0b9059d6de4e69eddc82e" target="_top" xlink:title="Sets the Data Rate (DR) of the module.">
<polygon fill="white" stroke="#666666" points="803.38,-672.95 631.38,-672.95 631.38,-652.95 803.38,-652.95 803.38,-672.95"/>
<text text-anchor="middle" x="717.38" y="-659.45" font-family="Helvetica,sans-Serif" font-size="10.00">LSM1x0A_LoRaWAN::setDataRate</text>
</a>
</g>
</g>
<!-- Node12&#45;&gt;Node16 -->
<g id="edge24_Node000012_Node000016" class="edge">
<title>Node12&#45;&gt;Node16</title>
<g id="a_edge24_Node000012_Node000016"><a xlink:title=" ">
<path fill="none" stroke="#63b8ff" d="M512.68,-497.26C526.74,-530.68 563.61,-606.87 620.5,-643.95 622.64,-645.34 624.85,-646.63 627.13,-647.84"/>
<polygon fill="#63b8ff" stroke="#63b8ff" points="625.55,-650.96 636.1,-651.92 628.45,-644.59 625.55,-650.96"/>
</a>
</g>
</g>
<!-- Node17 -->
<g id="Node000017" class="node">
<title>Node17</title>
<g id="a_Node000017"><a xlink:href="../../d5/d72/classLSM1x0A__LoRaWAN.html#a8494083816ab885cb07fc3b08de029f4" target="_top" xlink:title="Sets the LoRaWAN Device Address (DevAddr) for ABP mode.">
<polygon fill="white" stroke="#666666" points="801.5,-634.95 633.25,-634.95 633.25,-614.95 801.5,-614.95 801.5,-634.95"/>
<text text-anchor="middle" x="717.38" y="-621.45" font-family="Helvetica,sans-Serif" font-size="10.00">LSM1x0A_LoRaWAN::setDevAddr</text>
</a>
</g>
</g>
<!-- Node12&#45;&gt;Node17 -->
<g id="edge26_Node000012_Node000017" class="edge">
<title>Node12&#45;&gt;Node17</title>
<g id="a_edge26_Node000012_Node000017"><a xlink:title=" ">
<path fill="none" stroke="#63b8ff" d="M516.24,-497.41C533.72,-524.7 572.6,-578.97 620.5,-605.95 623.34,-607.55 626.3,-609.02 629.33,-610.36"/>
<polygon fill="#63b8ff" stroke="#63b8ff" points="627.92,-613.57 638.51,-613.93 630.46,-607.04 627.92,-613.57"/>
</a>
</g>
</g>
<!-- Node18 -->
<g id="Node000018" class="node">
<title>Node18</title>
<g id="a_Node000018"><a xlink:href="../../d5/d72/classLSM1x0A__LoRaWAN.html#ad320634e52d7ea907043cc50dd37c5b0" target="_top" xlink:title="Sets the LoRaWAN Device EUI (DevEUI).">
<polygon fill="white" stroke="#666666" points="800,-596.95 634.75,-596.95 634.75,-576.95 800,-576.95 800,-596.95"/>
<text text-anchor="middle" x="717.38" y="-583.45" font-family="Helvetica,sans-Serif" font-size="10.00">LSM1x0A_LoRaWAN::setDevEUI</text>
</a>
</g>
</g>
<!-- Node12&#45;&gt;Node18 -->
<g id="edge28_Node000012_Node000018" class="edge">
<title>Node12&#45;&gt;Node18</title>
<g id="a_edge28_Node000012_Node000018"><a xlink:title=" ">
<path fill="none" stroke="#63b8ff" d="M522.45,-497.21C543.27,-517.12 581.4,-550.34 620.5,-567.95 624.76,-569.87 629.22,-571.6 633.78,-573.15"/>
<polygon fill="#63b8ff" stroke="#63b8ff" points="632.53,-576.43 643.12,-576.02 634.59,-569.74 632.53,-576.43"/>
</a>
</g>
</g>
<!-- Node19 -->
<g id="Node000019" class="node">
<title>Node19</title>
<g id="a_Node000019"><a xlink:href="../../d5/d72/classLSM1x0A__LoRaWAN.html#a031023b0d2dd5db3c51c2db6ae7801cc" target="_top" xlink:title="Enables or disables the Duty Cycle limitation (EU regions mostly).">
<polygon fill="white" stroke="#666666" points="792.88,-558.95 641.88,-558.95 641.88,-526.95 792.88,-526.95 792.88,-558.95"/>
<text text-anchor="start" x="649.88" y="-545.45" font-family="Helvetica,sans-Serif" font-size="10.00">LSM1x0A_LoRaWAN::setDuty</text>
<text text-anchor="middle" x="717.38" y="-533.45" font-family="Helvetica,sans-Serif" font-size="10.00">Cycle</text>
</a>
</g>
</g>
<!-- Node12&#45;&gt;Node19 -->
<g id="edge30_Node000012_Node000019" class="edge">
<title>Node12&#45;&gt;Node19</title>
<g id="a_edge30_Node000012_Node000019"><a xlink:title=" ">
<path fill="none" stroke="#63b8ff" d="M562.01,-497.4C588.95,-505.35 621.48,-514.95 649.73,-523.28"/>
<polygon fill="#63b8ff" stroke="#63b8ff" points="648.69,-526.62 659.27,-526.1 650.67,-519.91 648.69,-526.62"/>
</a>
</g>
</g>
<!-- Node20 -->
<g id="Node000020" class="node">
<title>Node20</title>
<g id="a_Node000020"><a xlink:href="../../d5/d72/classLSM1x0A__LoRaWAN.html#a6b179d5825c49af0f391dfc539912f64" target="_top" xlink:title="Sets the delay for the Join1 receive window.">
<polygon fill="white" stroke="#666666" points="794,-470.95 640.75,-470.95 640.75,-438.95 794,-438.95 794,-470.95"/>
<text text-anchor="start" x="648.75" y="-457.45" font-family="Helvetica,sans-Serif" font-size="10.00">LSM1x0A_LoRaWAN::setJoin1</text>
<text text-anchor="middle" x="717.38" y="-445.45" font-family="Helvetica,sans-Serif" font-size="10.00">Delay</text>
</a>
</g>
</g>
<!-- Node12&#45;&gt;Node20 -->
<g id="edge32_Node000012_Node000020" class="edge">
<title>Node12&#45;&gt;Node20</title>
<g id="a_edge32_Node000012_Node000020"><a xlink:title=" ">
<path fill="none" stroke="#63b8ff" d="M578.86,-471.96C595.21,-469.94 612.72,-467.77 629.58,-465.69"/>
<polygon fill="#63b8ff" stroke="#63b8ff" points="629.55,-469.22 639.05,-464.52 628.69,-462.27 629.55,-469.22"/>
</a>
</g>
</g>
<!-- Node21 -->
<g id="Node000021" class="node">
<title>Node21</title>
<g id="a_Node000021"><a xlink:href="../../d5/d72/classLSM1x0A__LoRaWAN.html#a4545d0caad41558cdb9bae8286b104d8" target="_top" xlink:title="Sets the delay for the Join2 receive window.">
<polygon fill="white" stroke="#666666" points="794,-420.95 640.75,-420.95 640.75,-388.95 794,-388.95 794,-420.95"/>
<text text-anchor="start" x="648.75" y="-407.45" font-family="Helvetica,sans-Serif" font-size="10.00">LSM1x0A_LoRaWAN::setJoin2</text>
<text text-anchor="middle" x="717.38" y="-395.45" font-family="Helvetica,sans-Serif" font-size="10.00">Delay</text>
</a>
</g>
</g>
<!-- Node12&#45;&gt;Node21 -->
<g id="edge34_Node000012_Node000021" class="edge">
<title>Node12&#45;&gt;Node21</title>
<g id="a_edge34_Node000012_Node000021"><a xlink:title=" ">
<path fill="none" stroke="#63b8ff" d="M539.16,-464.52C561.67,-453.71 592.42,-439.8 620.5,-429.95 625.79,-428.09 631.29,-426.3 636.86,-424.59"/>
<polygon fill="#63b8ff" stroke="#63b8ff" points="637.57,-428.03 646.16,-421.84 635.58,-421.32 637.57,-428.03"/>
</a>
</g>
</g>
<!-- Node22 -->
<g id="Node000022" class="node">
<title>Node22</title>
<g id="a_Node000022"><a xlink:href="../../d5/d72/classLSM1x0A__LoRaWAN.html#a06bd50723ec1eb7e144c9141b2ec86fc" target="_top" xlink:title="Sets the LoRaWAN Network ID (NetID).">
<polygon fill="white" stroke="#666666" points="797.75,-370.95 637,-370.95 637,-350.95 797.75,-350.95 797.75,-370.95"/>
<text text-anchor="middle" x="717.38" y="-357.45" font-family="Helvetica,sans-Serif" font-size="10.00">LSM1x0A_LoRaWAN::setNwkID</text>
</a>
</g>
</g>
<!-- Node12&#45;&gt;Node22 -->
<g id="edge36_Node000012_Node000022" class="edge">
<title>Node12&#45;&gt;Node22</title>
<g id="a_edge36_Node000012_Node000022"><a xlink:title=" ">
<path fill="none" stroke="#63b8ff" d="M519.51,-464.74C539.1,-441.98 578.03,-400.98 620.5,-379.95 624.18,-378.13 628.01,-376.48 631.95,-374.99"/>
<polygon fill="#63b8ff" stroke="#63b8ff" points="632.76,-378.41 641.11,-371.9 630.52,-371.78 632.76,-378.41"/>
</a>
</g>
</g>
<!-- Node23 -->
<g id="Node000023" class="node">
<title>Node23</title>
<g id="a_Node000023"><a xlink:href="../../d5/d72/classLSM1x0A__LoRaWAN.html#aa70ada64d28ecca216bb62268e502adf" target="_top" xlink:title="Sets the delay for the RX1 receive window.">
<polygon fill="white" stroke="#666666" points="804.12,-332.95 630.62,-332.95 630.62,-312.95 804.12,-312.95 804.12,-332.95"/>
<text text-anchor="middle" x="717.38" y="-319.45" font-family="Helvetica,sans-Serif" font-size="10.00">LSM1x0A_LoRaWAN::setRx1Delay</text>
</a>
</g>
</g>
<!-- Node12&#45;&gt;Node23 -->
<g id="edge38_Node000012_Node000023" class="edge">
<title>Node12&#45;&gt;Node23</title>
<g id="a_edge38_Node000012_Node000023"><a xlink:title=" ">
<path fill="none" stroke="#63b8ff" d="M514.7,-464.54C530.9,-434.88 569.3,-372.58 620.5,-341.95 622.98,-340.46 625.56,-339.09 628.21,-337.82"/>
<polygon fill="#63b8ff" stroke="#63b8ff" points="629.46,-341.09 637.34,-334.02 626.76,-334.63 629.46,-341.09"/>
</a>
</g>
</g>
<!-- Node24 -->
<g id="Node000024" class="node">
<title>Node24</title>
<g id="a_Node000024"><a xlink:href="../../d5/d72/classLSM1x0A__LoRaWAN.html#a2cf4eff0181b6107d082bccefa24217b" target="_top" xlink:title="Sets the Data Rate (DR) specifically for the RX2 window.">
<polygon fill="white" stroke="#666666" points="812.38,-294.95 622.38,-294.95 622.38,-274.95 812.38,-274.95 812.38,-294.95"/>
<text text-anchor="middle" x="717.38" y="-281.45" font-family="Helvetica,sans-Serif" font-size="10.00">LSM1x0A_LoRaWAN::setRx2DataRate</text>
</a>
</g>
</g>
<!-- Node12&#45;&gt;Node24 -->
<g id="edge40_Node000012_Node000024" class="edge">
<title>Node12&#45;&gt;Node24</title>
<g id="a_edge40_Node000012_Node000024"><a xlink:title=" ">
<path fill="none" stroke="#63b8ff" d="M511.77,-464.61C524.65,-429.11 560.29,-344.84 620.5,-303.95 622.47,-302.61 624.52,-301.36 626.63,-300.19"/>
<polygon fill="#63b8ff" stroke="#63b8ff" points="627.96,-303.43 635.48,-295.97 624.95,-297.11 627.96,-303.43"/>
</a>
</g>
</g>
<!-- Node25 -->
<g id="Node000025" class="node">
<title>Node25</title>
<g id="a_Node000025"><a xlink:href="../../d5/d72/classLSM1x0A__LoRaWAN.html#a42d2137b475b57e19d891a5f1ac93221" target="_top" xlink:title="Sets the delay for the RX2 receive window.">
<polygon fill="white" stroke="#666666" points="804.12,-256.95 630.62,-256.95 630.62,-236.95 804.12,-236.95 804.12,-256.95"/>
<text text-anchor="middle" x="717.38" y="-243.45" font-family="Helvetica,sans-Serif" font-size="10.00">LSM1x0A_LoRaWAN::setRx2Delay</text>
</a>
</g>
</g>
<!-- Node12&#45;&gt;Node25 -->
<g id="edge42_Node000012_Node000025" class="edge">
<title>Node12&#45;&gt;Node25</title>
<g id="a_edge42_Node000012_Node000025"><a xlink:title=" ">
<path fill="none" stroke="#63b8ff" d="M509.84,-464.6C519.68,-423.89 551.11,-317.5 620.5,-265.95 622.09,-264.76 623.74,-263.65 625.43,-262.6"/>
<polygon fill="#63b8ff" stroke="#63b8ff" points="627.01,-265.72 634.23,-257.97 623.75,-259.53 627.01,-265.72"/>
</a>
</g>
</g>
<!-- Node26 -->
<g id="Node000026" class="node">
<title>Node26</title>
<g id="a_Node000026"><a xlink:href="../../d5/d72/classLSM1x0A__LoRaWAN.html#a689f7dfda1dfeae11ea397c2ddf2ad37" target="_top" xlink:title="Sets the precise frequency for the RX2 window.">
<polygon fill="white" stroke="#666666" points="814.25,-218.95 620.5,-218.95 620.5,-198.95 814.25,-198.95 814.25,-218.95"/>
<text text-anchor="middle" x="717.38" y="-205.45" font-family="Helvetica,sans-Serif" font-size="10.00">LSM1x0A_LoRaWAN::setRx2Frequency</text>
</a>
</g>
</g>
<!-- Node12&#45;&gt;Node26 -->
<g id="edge44_Node000012_Node000026" class="edge">
<title>Node12&#45;&gt;Node26</title>
<g id="a_edge44_Node000012_Node000026"><a xlink:title=" ">
<path fill="none" stroke="#63b8ff" d="M508.46,-464.5C515.51,-418.96 541.81,-290.44 620.5,-227.95 621.83,-226.89 623.2,-225.89 624.61,-224.94"/>
<polygon fill="#63b8ff" stroke="#63b8ff" points="626.11,-228.11 633.07,-220.12 622.65,-222.03 626.11,-228.11"/>
</a>
</g>
</g>
<!-- Node27 -->
<g id="Node000027" class="node">
<title>Node27</title>
<g id="a_Node000027"><a xlink:href="../../d5/d72/classLSM1x0A__LoRaWAN.html#a1df10d7ae6bf45b537d28d3d5c4b88d7" target="_top" xlink:title="Sets the transmission power index.">
<polygon fill="white" stroke="#666666" points="801.88,-180.95 632.88,-180.95 632.88,-160.95 801.88,-160.95 801.88,-180.95"/>
<text text-anchor="middle" x="717.38" y="-167.45" font-family="Helvetica,sans-Serif" font-size="10.00">LSM1x0A_LoRaWAN::setTxPower</text>
</a>
</g>
</g>
<!-- Node12&#45;&gt;Node27 -->
<g id="edge46_Node000012_Node000027" class="edge">
<title>Node12&#45;&gt;Node27</title>
<g id="a_edge46_Node000012_Node000027"><a xlink:title=" ">
<path fill="none" stroke="#63b8ff" d="M507.39,-464.65C511.8,-414.88 532.21,-263.73 620.5,-189.95 621.64,-189 622.8,-188.09 624,-187.23"/>
<polygon fill="#63b8ff" stroke="#63b8ff" points="625.68,-190.3 632.43,-182.14 622.06,-184.31 625.68,-190.3"/>
</a>
</g>
</g>
<!-- Node28 -->
<g id="Node000028" class="node">
<title>Node28</title>
<g id="a_Node000028"><a xlink:href="../../d5/d72/classLSM1x0A__LoRaWAN.html#a059fd6a9356c4ecadd5a98294da5952d" target="_top" xlink:title="Configures the number of repetitions for Unconfirmed uplinks.">
<polygon fill="white" stroke="#666666" points="804.88,-142.95 629.88,-142.95 629.88,-110.95 804.88,-110.95 804.88,-142.95"/>
<text text-anchor="start" x="637.88" y="-129.45" font-family="Helvetica,sans-Serif" font-size="10.00">LSM1x0A_LoRaWAN::setUnconfirm</text>
<text text-anchor="middle" x="717.38" y="-117.45" font-family="Helvetica,sans-Serif" font-size="10.00">Retry</text>
</a>
</g>
</g>
<!-- Node12&#45;&gt;Node28 -->
<g id="edge48_Node000012_Node000028" class="edge">
<title>Node12&#45;&gt;Node28</title>
<g id="a_edge48_Node000012_Node000028"><a xlink:title=" ">
<path fill="none" stroke="#63b8ff" d="M506.77,-464.75C509.4,-411.46 525.23,-239.96 620.5,-151.95 621.27,-151.23 622.07,-150.54 622.87,-149.86"/>
<polygon fill="#63b8ff" stroke="#63b8ff" points="624.72,-152.84 630.87,-144.21 620.69,-147.12 624.72,-152.84"/>
</a>
</g>
</g>
<!-- Node13&#45;&gt;Node2 -->
<g id="edge18_Node000013_Node000002" class="edge">
<title>Node13&#45;&gt;Node2</title>
<g id="a_edge18_Node000013_Node000002"><a xlink:title=" ">
<path fill="none" stroke="#63b8ff" d="M642.36,-778.49C533.14,-761.69 336.08,-725.64 284,-677.95 233.35,-631.57 210.12,-550.58 201,-508.34"/>
<polygon fill="#63b8ff" stroke="#63b8ff" points="204.48,-507.86 199.05,-498.76 197.62,-509.26 204.48,-507.86"/>
</a>
</g>
</g>
<!-- Node14&#45;&gt;Node2 -->
<g id="edge20_Node000014_Node000002" class="edge">
<title>Node14&#45;&gt;Node2</title>
<g id="a_edge20_Node000014_Node000002"><a xlink:title=" ">
<path fill="none" stroke="#63b8ff" d="M644.73,-740.46C536.67,-723.42 338.76,-687.03 284,-641.95 240.73,-606.32 215.37,-543.61 203.74,-507.88"/>
<polygon fill="#63b8ff" stroke="#63b8ff" points="207.21,-507.24 200.89,-498.74 200.52,-509.32 207.21,-507.24"/>
</a>
</g>
</g>
<!-- Node15&#45;&gt;Node2 -->
<g id="edge23_Node000015_Node000002" class="edge">
<title>Node15&#45;&gt;Node2</title>
<g id="a_edge23_Node000015_Node000002"><a xlink:title=" ">
<path fill="none" stroke="#63b8ff" d="M634.74,-696.13C525.33,-680.29 338.57,-648.15 284,-606.95 248.88,-580.43 222.49,-535.78 208.15,-507.37"/>
<polygon fill="#63b8ff" stroke="#63b8ff" points="211.46,-506.16 203.92,-498.71 205.17,-509.23 211.46,-506.16"/>
</a>
</g>
</g>
<!-- Node16&#45;&gt;Node2 -->
<g id="edge25_Node000016_Node000002" class="edge">
<title>Node16&#45;&gt;Node2</title>
<g id="a_edge25_Node000016_Node000002"><a xlink:title=" ">
<path fill="none" stroke="#63b8ff" d="M631.27,-660.63C539.56,-654.66 392.21,-634.71 284,-569.95 256.32,-553.38 231.14,-526.09 214.88,-506.09"/>
<polygon fill="#63b8ff" stroke="#63b8ff" points="217.74,-504.06 208.79,-498.39 212.25,-508.41 217.74,-504.06"/>
</a>
</g>
</g>
<!-- Node17&#45;&gt;Node2 -->
<g id="edge27_Node000017_Node000002" class="edge">
<title>Node17&#45;&gt;Node2</title>
<g id="a_edge27_Node000017_Node000002"><a xlink:title=" ">
<path fill="none" stroke="#63b8ff" d="M633.02,-618.09C543.76,-608.52 399.4,-586.49 284,-537.95 263.24,-529.22 241.99,-515.61 225.58,-503.88"/>
<polygon fill="#63b8ff" stroke="#63b8ff" points="227.87,-501.22 217.73,-498.14 223.74,-506.87 227.87,-501.22"/>
</a>
</g>
</g>
<!-- Node18&#45;&gt;Node2 -->
<g id="edge29_Node000018_Node000002" class="edge">
<title>Node18&#45;&gt;Node2</title>
<g id="a_edge29_Node000018_Node000002"><a xlink:title=" ">
<path fill="none" stroke="#63b8ff" d="M634.62,-576.91C547.03,-565.2 404.34,-543.35 284,-511.95 272.48,-508.94 260.32,-505.11 248.84,-501.17"/>
<polygon fill="#63b8ff" stroke="#63b8ff" points="250.1,-497.9 239.51,-497.88 247.78,-504.5 250.1,-497.9"/>
</a>
</g>
</g>
<!-- Node19&#45;&gt;Node2 -->
<g id="edge31_Node000019_Node000002" class="edge">
<title>Node19&#45;&gt;Node2</title>
<g id="a_edge31_Node000019_Node000002"><a xlink:title=" ">
<path fill="none" stroke="#63b8ff" d="M641.64,-534.04C538.96,-521.81 356.06,-500.02 259.6,-488.53"/>
<polygon fill="#63b8ff" stroke="#63b8ff" points="260.12,-485.06 249.78,-487.36 259.3,-492.01 260.12,-485.06"/>
</a>
</g>
</g>
<!-- Node20&#45;&gt;Node2 -->
<g id="edge33_Node000020_Node000002" class="edge">
<title>Node20&#45;&gt;Node2</title>
<g id="a_edge33_Node000020_Node000002"><a xlink:title=" ">
<path fill="none" stroke="#63b8ff" d="M640.5,-453.04C581.87,-452.09 498.73,-451.88 426,-455.95 369.62,-459.1 305.8,-466.33 259.72,-472.21"/>
<polygon fill="#63b8ff" stroke="#63b8ff" points="259.37,-468.72 249.9,-473.48 260.26,-475.67 259.37,-468.72"/>
</a>
</g>
</g>
<!-- Node21&#45;&gt;Node2 -->
<g id="edge35_Node000021_Node000002" class="edge">
<title>Node21&#45;&gt;Node2</title>
<g id="a_edge35_Node000021_Node000002"><a xlink:title=" ">
<path fill="none" stroke="#63b8ff" d="M640.38,-409.76C553.53,-416.18 407.46,-429.77 284,-454.95 275.33,-456.72 266.28,-458.94 257.42,-461.34"/>
<polygon fill="#63b8ff" stroke="#63b8ff" points="256.48,-457.97 247.8,-464.05 258.38,-464.71 256.48,-457.97"/>
</a>
</g>
</g>
<!-- Node22&#45;&gt;Node2 -->
<g id="edge37_Node000022_Node000002" class="edge">
<title>Node22&#45;&gt;Node2</title>
<g id="a_edge37_Node000022_Node000002"><a xlink:title=" ">
<path fill="none" stroke="#63b8ff" d="M636.71,-366.22C548.45,-373.87 402.88,-391.94 284,-432.95 265.51,-439.33 246.3,-449.35 230.56,-458.6"/>
<polygon fill="#63b8ff" stroke="#63b8ff" points="228.8,-455.57 222.05,-463.73 232.42,-461.56 228.8,-455.57"/>
</a>
</g>
</g>
<!-- Node23&#45;&gt;Node2 -->
<g id="edge39_Node000023_Node000002" class="edge">
<title>Node23&#45;&gt;Node2</title>
<g id="a_edge39_Node000023_Node000002"><a xlink:title=" ">
<path fill="none" stroke="#63b8ff" d="M630.24,-323.48C539.29,-327.36 394.1,-343.2 284,-400.95 257.76,-414.71 233.28,-438.19 216.84,-456.16"/>
<polygon fill="#63b8ff" stroke="#63b8ff" points="214.48,-453.54 210.45,-463.34 219.71,-458.2 214.48,-453.54"/>
</a>
</g>
</g>
<!-- Node24&#45;&gt;Node2 -->
<g id="edge41_Node000024_Node000002" class="edge">
<title>Node24&#45;&gt;Node2</title>
<g id="a_edge41_Node000024_Node000002"><a xlink:title=" ">
<path fill="none" stroke="#63b8ff" d="M622.15,-278.72C528.6,-277.21 384.94,-287.94 284,-355.95 247.5,-380.54 221.37,-425.71 207.48,-454.49"/>
<polygon fill="#63b8ff" stroke="#63b8ff" points="204.44,-452.73 203.4,-463.27 210.79,-455.68 204.44,-452.73"/>
</a>
</g>
</g>
<!-- Node25&#45;&gt;Node2 -->
<g id="edge43_Node000025_Node000002" class="edge">
<title>Node25&#45;&gt;Node2</title>
<g id="a_edge43_Node000025_Node000002"><a xlink:title=" ">
<path fill="none" stroke="#63b8ff" d="M646.6,-236.49C553.83,-226.6 389.34,-223.58 284,-304.95 235.36,-342.51 211.63,-414.19 201.81,-453.49"/>
<polygon fill="#63b8ff" stroke="#63b8ff" points="198.44,-452.56 199.55,-463.1 205.25,-454.17 198.44,-452.56"/>
</a>
</g>
</g>
<!-- Node26&#45;&gt;Node2 -->
<g id="edge45_Node000026_Node000002" class="edge">
<title>Node26&#45;&gt;Node2</title>
<g id="a_edge45_Node000026_Node000002"><a xlink:title=" ">
<path fill="none" stroke="#63b8ff" d="M620.17,-205.86C508.72,-204.31 334,-208.72 284,-248.95 220.11,-300.36 202.58,-403.6 197.79,-453.16"/>
<polygon fill="#63b8ff" stroke="#63b8ff" points="194.31,-452.77 196.95,-463.03 201.28,-453.36 194.31,-452.77"/>
</a>
</g>
</g>
<!-- Node27&#45;&gt;Node2 -->
<g id="edge47_Node000027_Node000002" class="edge">
<title>Node27&#45;&gt;Node2</title>
<g id="a_edge47_Node000027_Node000002"><a xlink:title=" ">
<path fill="none" stroke="#63b8ff" d="M669.67,-160.48C583.24,-144.01 396.89,-122.56 284,-212.95 209.19,-272.85 197.33,-397.78 195.9,-453.31"/>
<polygon fill="#63b8ff" stroke="#63b8ff" points="192.4,-453.1 195.75,-463.15 199.4,-453.21 192.4,-453.1"/>
</a>
</g>
</g>
<!-- Node28&#45;&gt;Node2 -->
<g id="edge49_Node000028_Node000002" class="edge">
<title>Node28&#45;&gt;Node2</title>
<g id="a_edge49_Node000028_Node000002"><a xlink:title=" ">
<path fill="none" stroke="#63b8ff" d="M629.49,-121.55C518.4,-116.57 334.37,-115.39 284,-157.95 238.15,-196.69 209,-383.18 199.45,-453.79"/>
<polygon fill="#63b8ff" stroke="#63b8ff" points="196.03,-452.95 198.19,-463.32 202.97,-453.87 196.03,-452.95"/>
</a>
</g>
</g>
<!-- Node30&#45;&gt;Node31 -->
<g id="edge52_Node000030_Node000031" class="edge">
<title>Node30&#45;&gt;Node31</title>
<g id="a_edge52_Node000030_Node000031"><a xlink:title=" ">
<path fill="none" stroke="#63b8ff" d="M558.73,-1092.44C576.89,-1094.34 597.86,-1096.54 618.47,-1098.7"/>
<polygon fill="#63b8ff" stroke="#63b8ff" points="618.04,-1102.17 628.35,-1099.73 618.77,-1095.21 618.04,-1102.17"/>
</a>
</g>
</g>
<!-- Node32 -->
<g id="Node000032" class="node">
<title>Node32</title>
<g id="a_Node000032"><a xlink:href="../../d6/d3c/classLSM1x0A__AtParser.html#a0ba6f927c54fceece22c17773d3f2600" target="_top" xlink:title="Sends a command and extracts a value from the response.">
<polygon fill="white" stroke="#666666" points="1032.38,-1124.95 858.12,-1124.95 858.12,-1092.95 1032.38,-1092.95 1032.38,-1124.95"/>
<text text-anchor="start" x="866.12" y="-1111.45" font-family="Helvetica,sans-Serif" font-size="10.00">LSM1x0A_AtParser::sendCommand</text>
<text text-anchor="middle" x="945.25" y="-1099.45" font-family="Helvetica,sans-Serif" font-size="10.00">WithResponse</text>
</a>
</g>
</g>
<!-- Node31&#45;&gt;Node32 -->
<g id="edge53_Node000031_Node000032" class="edge">
<title>Node31&#45;&gt;Node32</title>
<g id="a_edge53_Node000031_Node000032"><a xlink:title=" ">
<path fill="none" stroke="#63b8ff" d="M804.74,-1108.95C818.49,-1108.95 832.81,-1108.95 846.8,-1108.95"/>
<polygon fill="#63b8ff" stroke="#63b8ff" points="846.42,-1112.45 856.42,-1108.95 846.42,-1105.45 846.42,-1112.45"/>
</a>
</g>
</g>
<!-- Node33 -->
<g id="Node000033" class="node">
<title>Node33</title>
<g id="a_Node000033"><a xlink:href="../../d5/d8b/classUartDriver.html#a5d0f22e8867eebe99273078bb19bd23d" target="_top" xlink:title="Sends data through UART.">
<polygon fill="white" stroke="#666666" points="1207,-1118.95 1098,-1118.95 1098,-1098.95 1207,-1098.95 1207,-1118.95"/>
<text text-anchor="middle" x="1152.5" y="-1105.45" font-family="Helvetica,sans-Serif" font-size="10.00">UartDriver::sendData</text>
</a>
</g>
</g>
<!-- Node32&#45;&gt;Node33 -->
<g id="edge54_Node000032_Node000033" class="edge">
<title>Node32&#45;&gt;Node33</title>
<g id="a_edge54_Node000032_Node000033"><a xlink:title=" ">
<path fill="none" stroke="#63b8ff" d="M1032.7,-1108.95C1050.59,-1108.95 1069.16,-1108.95 1086.14,-1108.95"/>
<polygon fill="#63b8ff" stroke="#63b8ff" points="1086.11,-1112.45 1096.11,-1108.95 1086.11,-1105.45 1086.11,-1112.45"/>
</a>
</g>
</g>
</g>
</svg>
