<?xml version="1.0" encoding="UTF-8" standalone="no"?>
<!DOCTYPE svg PUBLIC "-//W3C//DTD SVG 1.1//EN"
 "http://www.w3.org/Graphics/SVG/1.1/DTD/svg11.dtd">
<!-- Generated by graphviz version 12.2.1 (20241206.2353)
 -->
<!-- Title: LSM1x0A_Controller::recoverModule Pages: 1 -->
<svg width="1475pt" height="1024pt"
 viewBox="0.00 0.00 1474.75 1024.38" xmlns="http://www.w3.org/2000/svg" xmlns:xlink="http://www.w3.org/1999/xlink">
<g id="graph0" class="graph" transform="scale(1 1) rotate(0) translate(4 1020.38)">
<title>LSM1x0A_Controller::recoverModule</title>
<!-- Node1 -->
<g id="Node000001" class="node">
<title>Node1</title>
<g id="a_Node000001"><a xlink:title="Executes the recovery protocol. First Soft&#45;Reset (ATZ), then Hard&#45;Reset if there is a pin.">
<polygon fill="#999999" stroke="#666666" points="106,-821 0,-821 0,-789 106,-789 106,-821"/>
<text text-anchor="start" x="8" y="-807.5" font-family="Helvetica,sans-Serif" font-size="10.00">LSM1x0A_Controller</text>
<text text-anchor="middle" x="53" y="-795.5" font-family="Helvetica,sans-Serif" font-size="10.00">::recoverModule</text>
</a>
</g>
</g>
<!-- Node2 -->
<g id="Node000002" class="node">
<title>Node2</title>
<g id="a_Node000002"><a xlink:href="../../d8/d92/classLSM1x0A__Controller.html#a3f6f25b843fe4fb7042c544deae2ab16" target="_top" xlink:title="Manually clears bits from the internal EventGroup.">
<polygon fill="white" stroke="#666666" points="668.88,-864 562.88,-864 562.88,-832 668.88,-832 668.88,-864"/>
<text text-anchor="start" x="570.88" y="-850.5" font-family="Helvetica,sans-Serif" font-size="10.00">LSM1x0A_Controller</text>
<text text-anchor="middle" x="615.88" y="-838.5" font-family="Helvetica,sans-Serif" font-size="10.00">::clearEvents</text>
</a>
</g>
</g>
<!-- Node1&#45;&gt;Node2 -->
<g id="edge1_Node000001_Node000002" class="edge">
<title>Node1&#45;&gt;Node2</title>
<g id="a_edge1_Node000001_Node000002"><a xlink:title=" ">
<path fill="none" stroke="#63b8ff" d="M103.8,-821.38C116.15,-824.82 129.45,-828.01 142,-830 287.12,-853.04 460.27,-852.67 551.46,-850.36"/>
<polygon fill="#63b8ff" stroke="#63b8ff" points="551.29,-853.86 561.19,-850.09 551.1,-846.87 551.29,-853.86"/>
</a>
</g>
</g>
<!-- Node3 -->
<g id="Node000003" class="node">
<title>Node3</title>
<g id="a_Node000003"><a xlink:href="../../d8/d92/classLSM1x0A__Controller.html#a345d4bd79fa16b18dc33a4ca788fe5f7" target="_top" xlink:title="Performs a hardware reset using the reset pin.">
<polygon fill="white" stroke="#666666" points="274.25,-950 168.25,-950 168.25,-918 274.25,-918 274.25,-950"/>
<text text-anchor="start" x="176.25" y="-936.5" font-family="Helvetica,sans-Serif" font-size="10.00">LSM1x0A_Controller</text>
<text text-anchor="middle" x="221.25" y="-924.5" font-family="Helvetica,sans-Serif" font-size="10.00">::hardwareReset</text>
</a>
</g>
</g>
<!-- Node1&#45;&gt;Node3 -->
<g id="edge2_Node000001_Node000003" class="edge">
<title>Node1&#45;&gt;Node3</title>
<g id="a_edge2_Node000001_Node000003"><a xlink:title=" ">
<path fill="none" stroke="#63b8ff" d="M64.66,-821.22C79.6,-842.82 108.71,-880.98 142,-904 146.94,-907.41 152.31,-910.51 157.86,-913.29"/>
<polygon fill="#63b8ff" stroke="#63b8ff" points="156.05,-916.31 166.6,-917.34 159,-909.96 156.05,-916.31"/>
</a>
</g>
</g>
<!-- Node5 -->
<g id="Node000005" class="node">
<title>Node5</title>
<g id="a_Node000005"><a xlink:href="../../d5/d72/classLSM1x0A__LoRaWAN.html#a1892801e37c8cd67d37c76108d6f7d49" target="_top" xlink:title="Validates if the device is currently Joined to the network. (Either confirmed by OTAA or statically a...">
<polygon fill="white" stroke="#666666" points="901.25,-814 748.75,-814 748.75,-794 901.25,-794 901.25,-814"/>
<text text-anchor="middle" x="825" y="-800.5" font-family="Helvetica,sans-Serif" font-size="10.00">LSM1x0A_LoRaWAN::isJoined</text>
</a>
</g>
</g>
<!-- Node1&#45;&gt;Node5 -->
<g id="edge4_Node000001_Node000005" class="edge">
<title>Node1&#45;&gt;Node5</title>
<g id="a_edge4_Node000001_Node000005"><a xlink:title=" ">
<path fill="none" stroke="#63b8ff" d="M77.83,-821.37C94.88,-832.15 118.84,-845.44 142,-852 264.11,-886.6 590.69,-907.78 712.75,-873 747.82,-863.01 782.62,-838.44 803.72,-821.49"/>
<polygon fill="#63b8ff" stroke="#63b8ff" points="805.76,-824.35 811.24,-815.28 801.3,-818.95 805.76,-824.35"/>
</a>
</g>
</g>
<!-- Node6 -->
<g id="Node000006" class="node">
<title>Node6</title>
<g id="a_Node000006"><a xlink:href="../../d5/d72/classLSM1x0A__LoRaWAN.html#a83e11c0e74ff9e0757db616ab1163424" target="_top" xlink:title="Attempts to recover a lost connection (re&#45;executes OTAA Join if dropped).">
<polygon fill="white" stroke="#666666" points="295.62,-821 146.88,-821 146.88,-789 295.62,-789 295.62,-821"/>
<text text-anchor="start" x="154.88" y="-807.5" font-family="Helvetica,sans-Serif" font-size="10.00">LSM1x0A_LoRaWAN::recover</text>
<text text-anchor="middle" x="221.25" y="-795.5" font-family="Helvetica,sans-Serif" font-size="10.00">Connection</text>
</a>
</g>
</g>
<!-- Node1&#45;&gt;Node6 -->
<g id="edge5_Node000001_Node000006" class="edge">
<title>Node1&#45;&gt;Node6</title>
<g id="a_edge5_Node000001_Node000006"><a xlink:title=" ">
<path fill="none" stroke="#63b8ff" d="M106.15,-805C115.49,-805 125.44,-805 135.42,-805"/>
<polygon fill="#63b8ff" stroke="#63b8ff" points="135.16,-808.5 145.16,-805 135.16,-801.5 135.16,-808.5"/>
</a>
</g>
</g>
<!-- Node14 -->
<g id="Node000014" class="node">
<title>Node14</title>
<g id="a_Node000014"><a xlink:href="../../d5/d72/classLSM1x0A__LoRaWAN.html#ae3be4ce59dfa200369733317df356e97" target="_top" xlink:title="Pushes the RAM&#45;cached variables back down into the hardware module. Restores the operational state af...">
<polygon fill="white" stroke="#666666" points="483,-373 336.5,-373 336.5,-341 483,-341 483,-373"/>
<text text-anchor="start" x="344.5" y="-359.5" font-family="Helvetica,sans-Serif" font-size="10.00">LSM1x0A_LoRaWAN::restore</text>
<text text-anchor="middle" x="409.75" y="-347.5" font-family="Helvetica,sans-Serif" font-size="10.00">Config</text>
</a>
</g>
</g>
<!-- Node1&#45;&gt;Node14 -->
<g id="edge18_Node000001_Node000014" class="edge">
<title>Node1&#45;&gt;Node14</title>
<g id="a_edge18_Node000001_Node000014"><a xlink:title=" ">
<path fill="none" stroke="#63b8ff" d="M62.98,-788.82C78.1,-762.03 110.09,-707.16 142,-664 224.34,-552.64 337.11,-431.69 385.33,-381.23"/>
<polygon fill="#63b8ff" stroke="#63b8ff" points="387.59,-383.93 391.99,-374.29 382.54,-379.09 387.59,-383.93"/>
</a>
</g>
</g>
<!-- Node31 -->
<g id="Node000031" class="node">
<title>Node31</title>
<g id="a_Node000031"><a xlink:href="../../d5/d72/classLSM1x0A__LoRaWAN.html#ace4b04396f1de1f4a54f513f5f378db7" target="_top" xlink:title="Manually overrides the internal joined state tracker.">
<polygon fill="white" stroke="#666666" points="300.5,-771 142,-771 142,-751 300.5,-751 300.5,-771"/>
<text text-anchor="middle" x="221.25" y="-757.5" font-family="Helvetica,sans-Serif" font-size="10.00">LSM1x0A_LoRaWAN::setJoined</text>
</a>
</g>
</g>
<!-- Node1&#45;&gt;Node31 -->
<g id="edge52_Node000001_Node000031" class="edge">
<title>Node1&#45;&gt;Node31</title>
<g id="a_edge52_Node000001_Node000031"><a xlink:title=" ">
<path fill="none" stroke="#63b8ff" d="M106.49,-789.73C118.16,-786.44 130.48,-783.03 142,-780 149.36,-778.06 157.12,-776.09 164.79,-774.19"/>
<polygon fill="#63b8ff" stroke="#63b8ff" points="165.55,-777.6 174.43,-771.82 163.88,-770.81 165.55,-777.6"/>
</a>
</g>
</g>
<!-- Node32 -->
<g id="Node000032" class="node">
<title>Node32</title>
<g id="a_Node000032"><a xlink:href="../../d8/d92/classLSM1x0A__Controller.html#a11ad21cb5ca33ec51346764a23bd485e" target="_top" xlink:title="Performs a software reset (ATZ Command).">
<polygon fill="white" stroke="#666666" points="878,-927 772,-927 772,-895 878,-895 878,-927"/>
<text text-anchor="start" x="780" y="-913.5" font-family="Helvetica,sans-Serif" font-size="10.00">LSM1x0A_Controller</text>
<text text-anchor="middle" x="825" y="-901.5" font-family="Helvetica,sans-Serif" font-size="10.00">::softwareReset</text>
</a>
</g>
</g>
<!-- Node1&#45;&gt;Node32 -->
<g id="edge53_Node000001_Node000032" class="edge">
<title>Node1&#45;&gt;Node32</title>
<g id="a_edge53_Node000001_Node000032"><a xlink:title=" ">
<path fill="none" stroke="#63b8ff" d="M57.63,-821.42C65.95,-854.53 89.8,-928.71 142,-959 350.81,-1080.18 658.34,-978.5 775.9,-931.59"/>
<polygon fill="#63b8ff" stroke="#63b8ff" points="776.99,-934.93 784.94,-927.94 774.36,-928.44 776.99,-934.93"/>
</a>
</g>
</g>
<!-- Node4 -->
<g id="Node000004" class="node">
<title>Node4</title>
<g id="a_Node000004"><a xlink:href="../../d6/d3c/classLSM1x0A__AtParser.html#ad2839120da13e56132b95019419be1e5" target="_top" xlink:title="Waits for an event (like BOOTALERT) without sending any command. Useful for hardware reset where the ...">
<polygon fill="white" stroke="#666666" points="480,-950 339.5,-950 339.5,-918 480,-918 480,-950"/>
<text text-anchor="start" x="347.5" y="-936.5" font-family="Helvetica,sans-Serif" font-size="10.00">LSM1x0A_AtParser::waitFor</text>
<text text-anchor="middle" x="409.75" y="-924.5" font-family="Helvetica,sans-Serif" font-size="10.00">Event</text>
</a>
</g>
</g>
<!-- Node3&#45;&gt;Node4 -->
<g id="edge3_Node000003_Node000004" class="edge">
<title>Node3&#45;&gt;Node4</title>
<g id="a_edge3_Node000003_Node000004"><a xlink:title=" ">
<path fill="none" stroke="#63b8ff" d="M274.7,-934C291.21,-934 309.86,-934 327.87,-934"/>
<polygon fill="#63b8ff" stroke="#63b8ff" points="327.78,-937.5 337.78,-934 327.78,-930.5 327.78,-937.5"/>
</a>
</g>
</g>
<!-- Node7 -->
<g id="Node000007" class="node">
<title>Node7</title>
<g id="a_Node000007"><a xlink:href="../../d5/d72/classLSM1x0A__LoRaWAN.html#a59f781f3cfd30c11cd3973bcb10a7baa" target="_top" xlink:title="Initiates a LoRaWAN Network Join procedure. This is a blocking function until the module fires an eve...">
<polygon fill="white" stroke="#666666" points="475.5,-792 344,-792 344,-772 475.5,-772 475.5,-792"/>
<text text-anchor="middle" x="409.75" y="-778.5" font-family="Helvetica,sans-Serif" font-size="10.00">LSM1x0A_LoRaWAN::join</text>
</a>
</g>
</g>
<!-- Node6&#45;&gt;Node7 -->
<g id="edge6_Node000006_Node000007" class="edge">
<title>Node6&#45;&gt;Node7</title>
<g id="a_edge6_Node000006_Node000007"><a xlink:title=" ">
<path fill="none" stroke="#63b8ff" d="M295.96,-795.91C307.92,-794.43 320.33,-792.9 332.35,-791.42"/>
<polygon fill="#63b8ff" stroke="#63b8ff" points="332.73,-794.9 342.23,-790.2 331.87,-787.95 332.73,-794.9"/>
</a>
</g>
</g>
<!-- Node7&#45;&gt;Node1 -->
<g id="edge8_Node000007_Node000001" class="edge">
<title>Node7&#45;&gt;Node1</title>
<g id="a_edge8_Node000007_Node000001"><a xlink:title=" ">
<path fill="none" stroke="#63b8ff" d="M387.41,-771.54C366.02,-761.68 331.86,-747.61 300.5,-742 231.16,-729.6 209.07,-720.47 142,-742 118,-749.71 94.99,-766.64 78.52,-781.01"/>
<polygon fill="#63b8ff" stroke="#63b8ff" points="76.26,-778.33 71.2,-787.64 80.96,-783.52 76.26,-778.33"/>
</a>
</g>
</g>
<!-- Node7&#45;&gt;Node2 -->
<g id="edge7_Node000007_Node000002" class="edge">
<title>Node7&#45;&gt;Node2</title>
<g id="a_edge7_Node000007_Node000002"><a xlink:title=" ">
<path fill="none" stroke="#63b8ff" d="M441.5,-792.39C463.14,-799.66 492.8,-809.55 519,-818 529.58,-821.41 540.84,-824.99 551.78,-828.43"/>
<polygon fill="#63b8ff" stroke="#63b8ff" points="550.54,-831.71 561.13,-831.37 552.64,-825.03 550.54,-831.71"/>
</a>
</g>
</g>
<!-- Node8 -->
<g id="Node000008" class="node">
<title>Node8</title>
<g id="a_Node000008"><a xlink:href="../../d8/d92/classLSM1x0A__Controller.html#afd7d92e60ed6fdae696a955cdbe0ed8c" target="_top" xlink:title="Sends any AT command to the module, returning error if it fails. Internally uses the LsmAtParser logi...">
<polygon fill="white" stroke="#666666" points="878,-423 772,-423 772,-391 878,-391 878,-423"/>
<text text-anchor="start" x="780" y="-409.5" font-family="Helvetica,sans-Serif" font-size="10.00">LSM1x0A_Controller</text>
<text text-anchor="middle" x="825" y="-397.5" font-family="Helvetica,sans-Serif" font-size="10.00">::sendCommand</text>
</a>
</g>
</g>
<!-- Node7&#45;&gt;Node8 -->
<g id="edge9_Node000007_Node000008" class="edge">
<title>Node7&#45;&gt;Node8</title>
<g id="a_edge9_Node000007_Node000008"><a xlink:title=" ">
<path fill="none" stroke="#63b8ff" d="M438.74,-792.41C496.47,-811.92 630.25,-846.72 712.75,-785 770.45,-741.83 808.53,-513.7 820.2,-434.28"/>
<polygon fill="#63b8ff" stroke="#63b8ff" points="823.61,-435.17 821.57,-424.77 816.68,-434.17 823.61,-435.17"/>
</a>
</g>
</g>
<!-- Node12 -->
<g id="Node000012" class="node">
<title>Node12</title>
<g id="a_Node000012"><a xlink:href="../../d5/d72/classLSM1x0A__LoRaWAN.html#a3fdd1ac318a5ad2559323e5d57e36a5e" target="_top" xlink:title="Enables or disables specific sub&#45;bands for regions supporting Channel Masks (e.g.,...">
<polygon fill="white" stroke="#666666" points="710.88,-726 520.88,-726 520.88,-706 710.88,-706 710.88,-726"/>
<text text-anchor="middle" x="615.88" y="-712.5" font-family="Helvetica,sans-Serif" font-size="10.00">LSM1x0A_LoRaWAN::setChannelMask</text>
</a>
</g>
</g>
<!-- Node7&#45;&gt;Node12 -->
<g id="edge14_Node000007_Node000012" class="edge">
<title>Node7&#45;&gt;Node12</title>
<g id="a_edge14_Node000007_Node000012"><a xlink:title=" ">
<path fill="none" stroke="#63b8ff" d="M431,-771.64C452.38,-761.09 487.32,-744.89 519,-735 526.07,-732.79 533.52,-730.78 541.02,-728.97"/>
<polygon fill="#63b8ff" stroke="#63b8ff" points="541.55,-732.44 550.51,-726.8 539.98,-725.62 541.55,-732.44"/>
</a>
</g>
</g>
<!-- Node13 -->
<g id="Node000013" class="node">
<title>Node13</title>
<g id="a_Node000013"><a xlink:href="../../d8/d92/classLSM1x0A__Controller.html#a62476e30e50c7fe120aeb8df4b828675" target="_top" xlink:title="Synchronously/blockingly waits for an asynchronous event to occur. Useful for wrapping commands like ...">
<polygon fill="white" stroke="#666666" points="668.88,-776 562.88,-776 562.88,-744 668.88,-744 668.88,-776"/>
<text text-anchor="start" x="570.88" y="-762.5" font-family="Helvetica,sans-Serif" font-size="10.00">LSM1x0A_Controller</text>
<text text-anchor="middle" x="615.88" y="-750.5" font-family="Helvetica,sans-Serif" font-size="10.00">::waitForEvent</text>
</a>
</g>
</g>
<!-- Node7&#45;&gt;Node13 -->
<g id="edge17_Node000007_Node000013" class="edge">
<title>Node7&#45;&gt;Node13</title>
<g id="a_edge17_Node000007_Node000013"><a xlink:title=" ">
<path fill="none" stroke="#63b8ff" d="M475.9,-774.98C500.07,-772.37 527.44,-769.42 551.46,-766.84"/>
<polygon fill="#63b8ff" stroke="#63b8ff" points="551.52,-770.35 561.08,-765.8 550.77,-763.39 551.52,-770.35"/>
</a>
</g>
</g>
<!-- Node8&#45;&gt;Node1 -->
<g id="edge10_Node000008_Node000001" class="edge">
<title>Node8&#45;&gt;Node1</title>
<g id="a_edge10_Node000008_Node000001"><a xlink:title=" ">
<path fill="none" stroke="#63b8ff" d="M822.26,-423.37C816.45,-469.26 793.21,-599.7 712.75,-659 661.36,-696.87 200.12,-698.59 142,-725 114.7,-737.4 90.05,-761.48 73.83,-780"/>
<polygon fill="#63b8ff" stroke="#63b8ff" points="71.35,-777.52 67.55,-787.41 76.69,-782.04 71.35,-777.52"/>
</a>
</g>
</g>
<!-- Node9 -->
<g id="Node000009" class="node">
<title>Node9</title>
<g id="a_Node000009"><a xlink:href="../../d6/d3c/classLSM1x0A__AtParser.html#a29b53c521974387ba6c03afadfaffa4a" target="_top" xlink:title="Sends a simple command and waits for OK/ERROR. Example: sendCommand(&quot;AT+JOIN&quot;);.">
<polygon fill="white" stroke="#666666" points="1111.5,-581 937.25,-581 937.25,-561 1111.5,-561 1111.5,-581"/>
<text text-anchor="middle" x="1024.38" y="-567.5" font-family="Helvetica,sans-Serif" font-size="10.00">LSM1x0A_AtParser::sendCommand</text>
</a>
</g>
</g>
<!-- Node8&#45;&gt;Node9 -->
<g id="edge11_Node000008_Node000009" class="edge">
<title>Node8&#45;&gt;Node9</title>
<g id="a_edge11_Node000008_Node000009"><a xlink:title=" ">
<path fill="none" stroke="#63b8ff" d="M845.65,-423.32C882.86,-454.25 963.35,-521.12 1001.92,-553.17"/>
<polygon fill="#63b8ff" stroke="#63b8ff" points="999.68,-555.86 1009.61,-559.56 1004.15,-550.48 999.68,-555.86"/>
</a>
</g>
</g>
<!-- Node10 -->
<g id="Node000010" class="node">
<title>Node10</title>
<g id="a_Node000010"><a xlink:href="../../d6/d3c/classLSM1x0A__AtParser.html#a0ba6f927c54fceece22c17773d3f2600" target="_top" xlink:title="Sends a command and extracts a value from the response.">
<polygon fill="white" stroke="#666666" points="1321.75,-587 1147.5,-587 1147.5,-555 1321.75,-555 1321.75,-587"/>
<text text-anchor="start" x="1155.5" y="-573.5" font-family="Helvetica,sans-Serif" font-size="10.00">LSM1x0A_AtParser::sendCommand</text>
<text text-anchor="middle" x="1234.62" y="-561.5" font-family="Helvetica,sans-Serif" font-size="10.00">WithResponse</text>
</a>
</g>
</g>
<!-- Node9&#45;&gt;Node10 -->
<g id="edge12_Node000009_Node000010" class="edge">
<title>Node9&#45;&gt;Node10</title>
<g id="a_edge12_Node000009_Node000010"><a xlink:title=" ">
<path fill="none" stroke="#63b8ff" d="M1111.88,-571C1119.78,-571 1127.82,-571 1135.81,-571"/>
<polygon fill="#63b8ff" stroke="#63b8ff" points="1135.54,-574.5 1145.54,-571 1135.54,-567.5 1135.54,-574.5"/>
</a>
</g>
</g>
<!-- Node11 -->
<g id="Node000011" class="node">
<title>Node11</title>
<g id="a_Node000011"><a xlink:href="../../d5/d8b/classUartDriver.html#a5d0f22e8867eebe99273078bb19bd23d" target="_top" xlink:title="Sends data through UART.">
<polygon fill="white" stroke="#666666" points="1466.75,-581 1357.75,-581 1357.75,-561 1466.75,-561 1466.75,-581"/>
<text text-anchor="middle" x="1412.25" y="-567.5" font-family="Helvetica,sans-Serif" font-size="10.00">UartDriver::sendData</text>
</a>
</g>
</g>
<!-- Node10&#45;&gt;Node11 -->
<g id="edge13_Node000010_Node000011" class="edge">
<title>Node10&#45;&gt;Node11</title>
<g id="a_edge13_Node000010_Node000011"><a xlink:title=" ">
<path fill="none" stroke="#63b8ff" d="M1322.15,-571C1330.3,-571 1338.45,-571 1346.35,-571"/>
<polygon fill="#63b8ff" stroke="#63b8ff" points="1346.18,-574.5 1356.18,-571 1346.18,-567.5 1346.18,-574.5"/>
</a>
</g>
</g>
<!-- Node12&#45;&gt;Node5 -->
<g id="edge15_Node000012_Node000005" class="edge">
<title>Node12&#45;&gt;Node5</title>
<g id="a_edge15_Node000012_Node000005"><a xlink:title=" ">
<path fill="none" stroke="#63b8ff" d="M685.57,-726.48C694.86,-728.8 704.15,-731.61 712.75,-735 745.94,-748.08 780.25,-771.06 801.83,-786.88"/>
<polygon fill="#63b8ff" stroke="#63b8ff" points="799.49,-789.5 809.59,-792.68 803.68,-783.89 799.49,-789.5"/>
</a>
</g>
</g>
<!-- Node12&#45;&gt;Node8 -->
<g id="edge16_Node000012_Node000008" class="edge">
<title>Node12&#45;&gt;Node8</title>
<g id="a_edge16_Node000012_Node000008"><a xlink:title=" ">
<path fill="none" stroke="#63b8ff" d="M690.22,-705.6C698.43,-702.21 706.18,-697.78 712.75,-692 791.11,-623 814.73,-491.92 821.47,-434.79"/>
<polygon fill="#63b8ff" stroke="#63b8ff" points="824.93,-435.28 822.53,-424.96 817.97,-434.53 824.93,-435.28"/>
</a>
</g>
</g>
<!-- Node14&#45;&gt;Node12 -->
<g id="edge23_Node000014_Node000012" class="edge">
<title>Node14&#45;&gt;Node12</title>
<g id="a_edge23_Node000014_Node000012"><a xlink:title=" ">
<path fill="none" stroke="#63b8ff" d="M412.68,-373.31C419.19,-421.96 444.26,-568.31 519,-659 534.17,-677.41 556.94,-691.3 576.49,-700.76"/>
<polygon fill="#63b8ff" stroke="#63b8ff" points="575.02,-703.94 585.57,-704.93 577.94,-697.57 575.02,-703.94"/>
</a>
</g>
</g>
<!-- Node15 -->
<g id="Node000015" class="node">
<title>Node15</title>
<g id="a_Node000015"><a xlink:href="../../d5/d72/classLSM1x0A__LoRaWAN.html#af0baa3db4c7fab580d6b19a9e92472f6" target="_top" xlink:title="Enables or disables Adaptive Data Rate (ADR).">
<polygon fill="white" stroke="#666666" points="691.75,-20 540,-20 540,0 691.75,0 691.75,-20"/>
<text text-anchor="middle" x="615.88" y="-6.5" font-family="Helvetica,sans-Serif" font-size="10.00">LSM1x0A_LoRaWAN::setADR</text>
</a>
</g>
</g>
<!-- Node14&#45;&gt;Node15 -->
<g id="edge19_Node000014_Node000015" class="edge">
<title>Node14&#45;&gt;Node15</title>
<g id="a_edge19_Node000014_Node000015"><a xlink:title=" ">
<path fill="none" stroke="#63b8ff" d="M410.76,-340.65C411.75,-286.89 422.62,-114.18 519,-29 522.24,-26.13 525.79,-23.65 529.55,-21.5"/>
<polygon fill="#63b8ff" stroke="#63b8ff" points="531.04,-24.67 538.57,-17.21 528.03,-18.35 531.04,-24.67"/>
</a>
</g>
</g>
<!-- Node16 -->
<g id="Node000016" class="node">
<title>Node16</title>
<g id="a_Node000016"><a xlink:href="../../d5/d72/classLSM1x0A__LoRaWAN.html#a5365ed1596eb84ebf1e3b33b4a10c788" target="_top" xlink:title="Sets the LoRaWAN operational frequency band.">
<polygon fill="white" stroke="#666666" points="692.12,-650 539.62,-650 539.62,-630 692.12,-630 692.12,-650"/>
<text text-anchor="middle" x="615.88" y="-636.5" font-family="Helvetica,sans-Serif" font-size="10.00">LSM1x0A_LoRaWAN::setBand</text>
</a>
</g>
</g>
<!-- Node14&#45;&gt;Node16 -->
<g id="edge21_Node000014_Node000016" class="edge">
<title>Node14&#45;&gt;Node16</title>
<g id="a_edge21_Node000014_Node000016"><a xlink:title=" ">
<path fill="none" stroke="#63b8ff" d="M412.24,-373.44C417.39,-420.24 438.87,-555.05 519,-621 522.11,-623.56 525.46,-625.8 528.99,-627.78"/>
<polygon fill="#63b8ff" stroke="#63b8ff" points="527.43,-630.91 537.97,-631.99 530.41,-624.57 527.43,-630.91"/>
</a>
</g>
</g>
<!-- Node17 -->
<g id="Node000017" class="node">
<title>Node17</title>
<g id="a_Node000017"><a xlink:href="../../d5/d72/classLSM1x0A__LoRaWAN.html#a9d9285c43414337a0ccb3a6cd7ca06e6" target="_top" xlink:title="Configures the number of retries for Confirmed uplinks.">
<polygon fill="white" stroke="#666666" points="698.12,-612 533.62,-612 533.62,-580 698.12,-580 698.12,-612"/>
<text text-anchor="start" x="541.62" y="-598.5" font-family="Helvetica,sans-Serif" font-size="10.00">LSM1x0A_LoRaWAN::setConfirm</text>
<text text-anchor="middle" x="615.88" y="-586.5" font-family="Helvetica,sans-Serif" font-size="10.00">Retry</text>
</a>
</g>
</g>
<!-- Node14&#45;&gt;Node17 -->
<g id="edge24_Node000014_Node000017" class="edge">
<title>Node14&#45;&gt;Node17</title>
<g id="a_edge24_Node000014_Node000017"><a xlink:title=" ">
<path fill="none" stroke="#63b8ff" d="M414.15,-373.3C423.4,-413.44 452.89,-517.67 519,-571 520.52,-572.23 522.09,-573.39 523.71,-574.5"/>
<polygon fill="#63b8ff" stroke="#63b8ff" points="521.74,-577.4 532.12,-579.48 525.3,-571.38 521.74,-577.4"/>
</a>
</g>
</g>
<!-- Node18 -->
<g id="Node000018" class="node">
<title>Node18</title>
<g id="a_Node000018"><a xlink:href="../../d5/d72/classLSM1x0A__LoRaWAN.html#a56345ceeafa0b9059d6de4e69eddc82e" target="_top" xlink:title="Sets the Data Rate (DR) of the module.">
<polygon fill="white" stroke="#666666" points="701.88,-562 529.88,-562 529.88,-542 701.88,-542 701.88,-562"/>
<text text-anchor="middle" x="615.88" y="-548.5" font-family="Helvetica,sans-Serif" font-size="10.00">LSM1x0A_LoRaWAN::setDataRate</text>
</a>
</g>
</g>
<!-- Node14&#45;&gt;Node18 -->
<g id="edge26_Node000014_Node000018" class="edge">
<title>Node14&#45;&gt;Node18</title>
<g id="a_edge26_Node000014_Node000018"><a xlink:title=" ">
<path fill="none" stroke="#63b8ff" d="M415.83,-373.5C427.65,-408.92 460.53,-492.35 519,-533 520.83,-534.27 522.72,-535.46 524.67,-536.58"/>
<polygon fill="#63b8ff" stroke="#63b8ff" points="522.91,-539.61 533.43,-540.88 526,-533.33 522.91,-539.61"/>
</a>
</g>
</g>
<!-- Node19 -->
<g id="Node000019" class="node">
<title>Node19</title>
<g id="a_Node000019"><a xlink:href="../../d5/d72/classLSM1x0A__LoRaWAN.html#a8494083816ab885cb07fc3b08de029f4" target="_top" xlink:title="Sets the LoRaWAN Device Address (DevAddr) for ABP mode.">
<polygon fill="white" stroke="#666666" points="700,-524 531.75,-524 531.75,-504 700,-504 700,-524"/>
<text text-anchor="middle" x="615.88" y="-510.5" font-family="Helvetica,sans-Serif" font-size="10.00">LSM1x0A_LoRaWAN::setDevAddr</text>
</a>
</g>
</g>
<!-- Node14&#45;&gt;Node19 -->
<g id="edge28_Node000014_Node000019" class="edge">
<title>Node14&#45;&gt;Node19</title>
<g id="a_edge28_Node000014_Node000019"><a xlink:title=" ">
<path fill="none" stroke="#63b8ff" d="M418.56,-373.29C433.57,-402.73 469.44,-464.57 519,-495 521.47,-496.51 524.03,-497.91 526.67,-499.2"/>
<polygon fill="#63b8ff" stroke="#63b8ff" points="525.19,-502.37 535.76,-503.06 527.92,-495.93 525.19,-502.37"/>
</a>
</g>
</g>
<!-- Node20 -->
<g id="Node000020" class="node">
<title>Node20</title>
<g id="a_Node000020"><a xlink:href="../../d5/d72/classLSM1x0A__LoRaWAN.html#ad320634e52d7ea907043cc50dd37c5b0" target="_top" xlink:title="Sets the LoRaWAN Device EUI (DevEUI).">
<polygon fill="white" stroke="#666666" points="698.5,-486 533.25,-486 533.25,-466 698.5,-466 698.5,-486"/>
<text text-anchor="middle" x="615.88" y="-472.5" font-family="Helvetica,sans-Serif" font-size="10.00">LSM1x0A_LoRaWAN::setDevEUI</text>
</a>
</g>
</g>
<!-- Node14&#45;&gt;Node20 -->
<g id="edge30_Node000014_Node000020" class="edge">
<title>Node14&#45;&gt;Node20</title>
<g id="a_edge30_Node000014_Node000020"><a xlink:title=" ">
<path fill="none" stroke="#63b8ff" d="M423.47,-373.44C441.93,-396.07 478.41,-436.35 519,-457 522.47,-458.77 526.09,-460.37 529.8,-461.82"/>
<polygon fill="#63b8ff" stroke="#63b8ff" points="528.44,-465.05 539.03,-465.04 530.74,-458.44 528.44,-465.05"/>
</a>
</g>
</g>
<!-- Node21 -->
<g id="Node000021" class="node">
<title>Node21</title>
<g id="a_Node000021"><a xlink:href="../../d5/d72/classLSM1x0A__LoRaWAN.html#a031023b0d2dd5db3c51c2db6ae7801cc" target="_top" xlink:title="Enables or disables the Duty Cycle limitation (EU regions mostly).">
<polygon fill="white" stroke="#666666" points="691.38,-448 540.38,-448 540.38,-416 691.38,-416 691.38,-448"/>
<text text-anchor="start" x="548.38" y="-434.5" font-family="Helvetica,sans-Serif" font-size="10.00">LSM1x0A_LoRaWAN::setDuty</text>
<text text-anchor="middle" x="615.88" y="-422.5" font-family="Helvetica,sans-Serif" font-size="10.00">Cycle</text>
</a>
</g>
</g>
<!-- Node14&#45;&gt;Node21 -->
<g id="edge32_Node000014_Node000021" class="edge">
<title>Node14&#45;&gt;Node21</title>
<g id="a_edge32_Node000014_Node000021"><a xlink:title=" ">
<path fill="none" stroke="#63b8ff" d="M442.34,-373.4C463.6,-383.99 492.49,-397.51 519,-407 524.23,-408.87 529.67,-410.67 535.17,-412.38"/>
<polygon fill="#63b8ff" stroke="#63b8ff" points="533.78,-415.62 544.37,-415.14 535.79,-408.92 533.78,-415.62"/>
</a>
</g>
</g>
<!-- Node22 -->
<g id="Node000022" class="node">
<title>Node22</title>
<g id="a_Node000022"><a xlink:href="../../d5/d72/classLSM1x0A__LoRaWAN.html#a6b179d5825c49af0f391dfc539912f64" target="_top" xlink:title="Sets the delay for the Join1 receive window.">
<polygon fill="white" stroke="#666666" points="692.5,-398 539.25,-398 539.25,-366 692.5,-366 692.5,-398"/>
<text text-anchor="start" x="547.25" y="-384.5" font-family="Helvetica,sans-Serif" font-size="10.00">LSM1x0A_LoRaWAN::setJoin1</text>
<text text-anchor="middle" x="615.88" y="-372.5" font-family="Helvetica,sans-Serif" font-size="10.00">Delay</text>
</a>
</g>
</g>
<!-- Node14&#45;&gt;Node22 -->
<g id="edge34_Node000014_Node000022" class="edge">
<title>Node14&#45;&gt;Node22</title>
<g id="a_edge34_Node000014_Node000022"><a xlink:title=" ">
<path fill="none" stroke="#63b8ff" d="M483.29,-365.88C497.63,-367.64 512.82,-369.5 527.58,-371.31"/>
<polygon fill="#63b8ff" stroke="#63b8ff" points="526.92,-374.75 537.27,-372.49 527.77,-367.81 526.92,-374.75"/>
</a>
</g>
</g>
<!-- Node23 -->
<g id="Node000023" class="node">
<title>Node23</title>
<g id="a_Node000023"><a xlink:href="../../d5/d72/classLSM1x0A__LoRaWAN.html#a4545d0caad41558cdb9bae8286b104d8" target="_top" xlink:title="Sets the delay for the Join2 receive window.">
<polygon fill="white" stroke="#666666" points="692.5,-348 539.25,-348 539.25,-316 692.5,-316 692.5,-348"/>
<text text-anchor="start" x="547.25" y="-334.5" font-family="Helvetica,sans-Serif" font-size="10.00">LSM1x0A_LoRaWAN::setJoin2</text>
<text text-anchor="middle" x="615.88" y="-322.5" font-family="Helvetica,sans-Serif" font-size="10.00">Delay</text>
</a>
</g>
</g>
<!-- Node14&#45;&gt;Node23 -->
<g id="edge36_Node000014_Node000023" class="edge">
<title>Node14&#45;&gt;Node23</title>
<g id="a_edge36_Node000014_Node000023"><a xlink:title=" ">
<path fill="none" stroke="#63b8ff" d="M483.29,-348.12C497.63,-346.36 512.82,-344.5 527.58,-342.69"/>
<polygon fill="#63b8ff" stroke="#63b8ff" points="527.77,-346.19 537.27,-341.51 526.92,-339.25 527.77,-346.19"/>
</a>
</g>
</g>
<!-- Node24 -->
<g id="Node000024" class="node">
<title>Node24</title>
<g id="a_Node000024"><a xlink:href="../../d5/d72/classLSM1x0A__LoRaWAN.html#a06bd50723ec1eb7e144c9141b2ec86fc" target="_top" xlink:title="Sets the LoRaWAN Network ID (NetID).">
<polygon fill="white" stroke="#666666" points="696.25,-298 535.5,-298 535.5,-278 696.25,-278 696.25,-298"/>
<text text-anchor="middle" x="615.88" y="-284.5" font-family="Helvetica,sans-Serif" font-size="10.00">LSM1x0A_LoRaWAN::setNwkID</text>
</a>
</g>
</g>
<!-- Node14&#45;&gt;Node24 -->
<g id="edge38_Node000014_Node000024" class="edge">
<title>Node14&#45;&gt;Node24</title>
<g id="a_edge38_Node000014_Node000024"><a xlink:title=" ">
<path fill="none" stroke="#63b8ff" d="M441.23,-340.55C462.5,-329.67 491.83,-315.83 519,-307 525.67,-304.83 532.69,-302.87 539.77,-301.1"/>
<polygon fill="#63b8ff" stroke="#63b8ff" points="540.49,-304.53 549.42,-298.83 538.89,-297.71 540.49,-304.53"/>
</a>
</g>
</g>
<!-- Node25 -->
<g id="Node000025" class="node">
<title>Node25</title>
<g id="a_Node000025"><a xlink:href="../../d5/d72/classLSM1x0A__LoRaWAN.html#aa70ada64d28ecca216bb62268e502adf" target="_top" xlink:title="Sets the delay for the RX1 receive window.">
<polygon fill="white" stroke="#666666" points="702.62,-260 529.12,-260 529.12,-240 702.62,-240 702.62,-260"/>
<text text-anchor="middle" x="615.88" y="-246.5" font-family="Helvetica,sans-Serif" font-size="10.00">LSM1x0A_LoRaWAN::setRx1Delay</text>
</a>
</g>
</g>
<!-- Node14&#45;&gt;Node25 -->
<g id="edge40_Node000014_Node000025" class="edge">
<title>Node14&#45;&gt;Node25</title>
<g id="a_edge40_Node000014_Node000025"><a xlink:title=" ">
<path fill="none" stroke="#63b8ff" d="M425.89,-340.51C445.39,-320.35 481.29,-286.71 519,-269 522.99,-267.13 527.16,-265.44 531.42,-263.91"/>
<polygon fill="#63b8ff" stroke="#63b8ff" points="532.3,-267.31 540.75,-260.92 530.16,-260.64 532.3,-267.31"/>
</a>
</g>
</g>
<!-- Node26 -->
<g id="Node000026" class="node">
<title>Node26</title>
<g id="a_Node000026"><a xlink:href="../../d5/d72/classLSM1x0A__LoRaWAN.html#a2cf4eff0181b6107d082bccefa24217b" target="_top" xlink:title="Sets the Data Rate (DR) specifically for the RX2 window.">
<polygon fill="white" stroke="#666666" points="710.88,-222 520.88,-222 520.88,-202 710.88,-202 710.88,-222"/>
<text text-anchor="middle" x="615.88" y="-208.5" font-family="Helvetica,sans-Serif" font-size="10.00">LSM1x0A_LoRaWAN::setRx2DataRate</text>
</a>
</g>
</g>
<!-- Node14&#45;&gt;Node26 -->
<g id="edge42_Node000014_Node000026" class="edge">
<title>Node14&#45;&gt;Node26</title>
<g id="a_edge42_Node000014_Node000026"><a xlink:title=" ">
<path fill="none" stroke="#63b8ff" d="M419.69,-340.84C435.74,-313.47 472.17,-258.33 519,-231 521.66,-229.45 524.42,-228.02 527.25,-226.71"/>
<polygon fill="#63b8ff" stroke="#63b8ff" points="528.45,-230 536.41,-223.01 525.82,-223.51 528.45,-230"/>
</a>
</g>
</g>
<!-- Node27 -->
<g id="Node000027" class="node">
<title>Node27</title>
<g id="a_Node000027"><a xlink:href="../../d5/d72/classLSM1x0A__LoRaWAN.html#a42d2137b475b57e19d891a5f1ac93221" target="_top" xlink:title="Sets the delay for the RX2 receive window.">
<polygon fill="white" stroke="#666666" points="702.62,-184 529.12,-184 529.12,-164 702.62,-164 702.62,-184"/>
<text text-anchor="middle" x="615.88" y="-170.5" font-family="Helvetica,sans-Serif" font-size="10.00">LSM1x0A_LoRaWAN::setRx2Delay</text>
</a>
</g>
</g>
<!-- Node14&#45;&gt;Node27 -->
<g id="edge44_Node000014_Node000027" class="edge">
<title>Node14&#45;&gt;Node27</title>
<g id="a_edge44_Node000014_Node000027"><a xlink:title=" ">
<path fill="none" stroke="#63b8ff" d="M416.56,-340.6C429.35,-307 463.35,-230.38 519,-193 520.98,-191.67 523.03,-190.43 525.14,-189.27"/>
<polygon fill="#63b8ff" stroke="#63b8ff" points="526.47,-192.51 534.02,-185.08 523.48,-186.18 526.47,-192.51"/>
</a>
</g>
</g>
<!-- Node28 -->
<g id="Node000028" class="node">
<title>Node28</title>
<g id="a_Node000028"><a xlink:href="../../d5/d72/classLSM1x0A__LoRaWAN.html#a689f7dfda1dfeae11ea397c2ddf2ad37" target="_top" xlink:title="Sets the precise frequency for the RX2 window.">
<polygon fill="white" stroke="#666666" points="712.75,-146 519,-146 519,-126 712.75,-126 712.75,-146"/>
<text text-anchor="middle" x="615.88" y="-132.5" font-family="Helvetica,sans-Serif" font-size="10.00">LSM1x0A_LoRaWAN::setRx2Frequency</text>
</a>
</g>
</g>
<!-- Node14&#45;&gt;Node28 -->
<g id="edge46_Node000014_Node000028" class="edge">
<title>Node14&#45;&gt;Node28</title>
<g id="a_edge46_Node000014_Node000028"><a xlink:title=" ">
<path fill="none" stroke="#63b8ff" d="M414.47,-340.5C424.2,-301.43 454.24,-202.94 519,-155 520.59,-153.82 522.24,-152.71 523.94,-151.66"/>
<polygon fill="#63b8ff" stroke="#63b8ff" points="525.51,-154.79 532.75,-147.04 522.26,-148.59 525.51,-154.79"/>
</a>
</g>
</g>
<!-- Node29 -->
<g id="Node000029" class="node">
<title>Node29</title>
<g id="a_Node000029"><a xlink:href="../../d5/d72/classLSM1x0A__LoRaWAN.html#a1df10d7ae6bf45b537d28d3d5c4b88d7" target="_top" xlink:title="Sets the transmission power index.">
<polygon fill="white" stroke="#666666" points="700.38,-108 531.38,-108 531.38,-88 700.38,-88 700.38,-108"/>
<text text-anchor="middle" x="615.88" y="-94.5" font-family="Helvetica,sans-Serif" font-size="10.00">LSM1x0A_LoRaWAN::setTxPower</text>
</a>
</g>
</g>
<!-- Node14&#45;&gt;Node29 -->
<g id="edge48_Node000014_Node000029" class="edge">
<title>Node14&#45;&gt;Node29</title>
<g id="a_edge48_Node000014_Node000029"><a xlink:title=" ">
<path fill="none" stroke="#63b8ff" d="M412.94,-340.77C419.74,-297.03 444.74,-176 519,-117 520.33,-115.94 521.7,-114.94 523.11,-113.99"/>
<polygon fill="#63b8ff" stroke="#63b8ff" points="524.61,-117.16 531.57,-109.17 521.15,-111.08 524.61,-117.16"/>
</a>
</g>
</g>
<!-- Node30 -->
<g id="Node000030" class="node">
<title>Node30</title>
<g id="a_Node000030"><a xlink:href="../../d5/d72/classLSM1x0A__LoRaWAN.html#a059fd6a9356c4ecadd5a98294da5952d" target="_top" xlink:title="Configures the number of repetitions for Unconfirmed uplinks.">
<polygon fill="white" stroke="#666666" points="703.38,-70 528.38,-70 528.38,-38 703.38,-38 703.38,-70"/>
<text text-anchor="start" x="536.38" y="-56.5" font-family="Helvetica,sans-Serif" font-size="10.00">LSM1x0A_LoRaWAN::setUnconfirm</text>
<text text-anchor="middle" x="615.88" y="-44.5" font-family="Helvetica,sans-Serif" font-size="10.00">Retry</text>
</a>
</g>
</g>
<!-- Node14&#45;&gt;Node30 -->
<g id="edge50_Node000014_Node000030" class="edge">
<title>Node14&#45;&gt;Node30</title>
<g id="a_edge50_Node000014_Node000030"><a xlink:title=" ">
<path fill="none" stroke="#63b8ff" d="M412.08,-340.65C416.86,-292.73 437.56,-151.48 519,-79 519.93,-78.17 520.89,-77.37 521.87,-76.59"/>
<polygon fill="#63b8ff" stroke="#63b8ff" points="523.62,-79.63 529.95,-71.13 519.7,-73.83 523.62,-79.63"/>
</a>
</g>
</g>
<!-- Node15&#45;&gt;Node8 -->
<g id="edge20_Node000015_Node000008" class="edge">
<title>Node15&#45;&gt;Node8</title>
<g id="a_edge20_Node000015_Node000008"><a xlink:title=" ">
<path fill="none" stroke="#63b8ff" d="M691.99,-16.37C699.61,-19.41 706.74,-23.51 712.75,-29 816.39,-123.65 825.36,-309.4 824.84,-379.42"/>
<polygon fill="#63b8ff" stroke="#63b8ff" points="821.34,-379.16 824.69,-389.22 828.34,-379.27 821.34,-379.16"/>
</a>
</g>
</g>
<!-- Node16&#45;&gt;Node8 -->
<g id="edge22_Node000016_Node000008" class="edge">
<title>Node16&#45;&gt;Node8</title>
<g id="a_edge22_Node000016_Node000008"><a xlink:title=" ">
<path fill="none" stroke="#63b8ff" d="M692.45,-631.89C699.72,-629.14 706.64,-625.58 712.75,-621 775.77,-573.74 806.24,-480.37 817.98,-434.19"/>
<polygon fill="#63b8ff" stroke="#63b8ff" points="821.31,-435.27 820.27,-424.73 814.51,-433.63 821.31,-435.27"/>
</a>
</g>
</g>
<!-- Node17&#45;&gt;Node8 -->
<g id="edge25_Node000017_Node000008" class="edge">
<title>Node17&#45;&gt;Node8</title>
<g id="a_edge25_Node000017_Node000008"><a xlink:title=" ">
<path fill="none" stroke="#63b8ff" d="M697.83,-579.59C703.08,-577.12 708.11,-574.27 712.75,-571 762.67,-535.75 796.87,-470.46 813.14,-433.79"/>
<polygon fill="#63b8ff" stroke="#63b8ff" points="816.28,-435.35 817.01,-424.78 809.85,-432.59 816.28,-435.35"/>
</a>
</g>
</g>
<!-- Node18&#45;&gt;Node8 -->
<g id="edge27_Node000018_Node000008" class="edge">
<title>Node18&#45;&gt;Node8</title>
<g id="a_edge27_Node000018_Node000008"><a xlink:title=" ">
<path fill="none" stroke="#63b8ff" d="M693.4,-541.64C700.16,-539.31 706.72,-536.47 712.75,-533 755.3,-508.55 789.96,-461.85 808.73,-432.68"/>
<polygon fill="#63b8ff" stroke="#63b8ff" points="811.54,-434.78 813.89,-424.44 805.61,-431.06 811.54,-434.78"/>
</a>
</g>
</g>
<!-- Node19&#45;&gt;Node8 -->
<g id="edge29_Node000019_Node000008" class="edge">
<title>Node19&#45;&gt;Node8</title>
<g id="a_edge29_Node000019_Node000008"><a xlink:title=" ">
<path fill="none" stroke="#63b8ff" d="M689.26,-503.51C697.36,-501.21 705.35,-498.41 712.75,-495 746.55,-479.4 779.23,-451.54 800.32,-431.33"/>
<polygon fill="#63b8ff" stroke="#63b8ff" points="802.57,-434.03 807.27,-424.53 797.67,-429.03 802.57,-434.03"/>
</a>
</g>
</g>
<!-- Node20&#45;&gt;Node8 -->
<g id="edge31_Node000020_Node000008" class="edge">
<title>Node20&#45;&gt;Node8</title>
<g id="a_edge31_Node000020_Node000008"><a xlink:title=" ">
<path fill="none" stroke="#63b8ff" d="M680.31,-465.54C691.24,-463.14 702.4,-460.3 712.75,-457 736.46,-449.43 761.84,-438.28 782.37,-428.42"/>
<polygon fill="#63b8ff" stroke="#63b8ff" points="783.81,-431.61 791.26,-424.08 780.74,-425.32 783.81,-431.61"/>
</a>
</g>
</g>
<!-- Node21&#45;&gt;Node8 -->
<g id="edge33_Node000021_Node000008" class="edge">
<title>Node21&#45;&gt;Node8</title>
<g id="a_edge33_Node000021_Node000008"><a xlink:title=" ">
<path fill="none" stroke="#63b8ff" d="M691.65,-422.97C714.14,-420.26 738.61,-417.31 760.31,-414.69"/>
<polygon fill="#63b8ff" stroke="#63b8ff" points="760.71,-418.17 770.21,-413.49 759.87,-411.22 760.71,-418.17"/>
</a>
</g>
</g>
<!-- Node22&#45;&gt;Node8 -->
<g id="edge35_Node000022_Node000008" class="edge">
<title>Node22&#45;&gt;Node8</title>
<g id="a_edge35_Node000022_Node000008"><a xlink:title=" ">
<path fill="none" stroke="#63b8ff" d="M692.82,-391.17C715.04,-393.85 739.08,-396.75 760.45,-399.33"/>
<polygon fill="#63b8ff" stroke="#63b8ff" points="759.83,-402.78 770.17,-400.5 760.67,-395.83 759.83,-402.78"/>
</a>
</g>
</g>
<!-- Node23&#45;&gt;Node8 -->
<g id="edge37_Node000023_Node000008" class="edge">
<title>Node23&#45;&gt;Node8</title>
<g id="a_edge37_Node000023_Node000008"><a xlink:title=" ">
<path fill="none" stroke="#63b8ff" d="M685.65,-348.44C694.83,-351.07 704.07,-353.94 712.75,-357 735.88,-365.15 760.85,-376.16 781.26,-385.77"/>
<polygon fill="#63b8ff" stroke="#63b8ff" points="779.59,-388.85 790.12,-390 782.6,-382.53 779.59,-388.85"/>
</a>
</g>
</g>
<!-- Node24&#45;&gt;Node8 -->
<g id="edge39_Node000024_Node000008" class="edge">
<title>Node24&#45;&gt;Node8</title>
<g id="a_edge39_Node000024_Node000008"><a xlink:title=" ">
<path fill="none" stroke="#63b8ff" d="M690.99,-298.48C698.53,-300.78 705.92,-303.58 712.75,-307 749.25,-325.26 782.86,-358.78 803.37,-381.95"/>
<polygon fill="#63b8ff" stroke="#63b8ff" points="800.64,-384.15 809.83,-389.42 805.94,-379.57 800.64,-384.15"/>
</a>
</g>
</g>
<!-- Node25&#45;&gt;Node8 -->
<g id="edge41_Node000025_Node000008" class="edge">
<title>Node25&#45;&gt;Node8</title>
<g id="a_edge41_Node000025_Node000008"><a xlink:title=" ">
<path fill="none" stroke="#63b8ff" d="M694.55,-260.43C700.93,-262.75 707.09,-265.58 712.75,-269 757.94,-296.33 792.53,-349.03 810.43,-380.8"/>
<polygon fill="#63b8ff" stroke="#63b8ff" points="807.26,-382.29 815.13,-389.38 813.4,-378.93 807.26,-382.29"/>
</a>
</g>
</g>
<!-- Node26&#45;&gt;Node8 -->
<g id="edge43_Node000026_Node000008" class="edge">
<title>Node26&#45;&gt;Node8</title>
<g id="a_edge43_Node000026_Node000008"><a xlink:title=" ">
<path fill="none" stroke="#63b8ff" d="M696.44,-222.32C702.2,-224.68 707.71,-227.54 712.75,-231 766.74,-268.04 800.02,-340.77 814.87,-380.14"/>
<polygon fill="#63b8ff" stroke="#63b8ff" points="811.51,-381.14 818.21,-389.34 818.09,-378.75 811.51,-381.14"/>
</a>
</g>
</g>
<!-- Node27&#45;&gt;Node8 -->
<g id="edge45_Node000027_Node000008" class="edge">
<title>Node27&#45;&gt;Node8</title>
<g id="a_edge45_Node000027_Node000008"><a xlink:title=" ">
<path fill="none" stroke="#63b8ff" d="M698.18,-184.49C703.35,-186.83 708.27,-189.64 712.75,-193 775.77,-240.26 806.24,-333.63 817.98,-379.81"/>
<polygon fill="#63b8ff" stroke="#63b8ff" points="814.51,-380.37 820.27,-389.27 821.31,-378.73 814.51,-380.37"/>
</a>
</g>
</g>
<!-- Node28&#45;&gt;Node8 -->
<g id="edge47_Node000028_Node000008" class="edge">
<title>Node28&#45;&gt;Node8</title>
<g id="a_edge47_Node000028_Node000008"><a xlink:title=" ">
<path fill="none" stroke="#63b8ff" d="M698.9,-146.39C703.84,-148.76 708.51,-151.61 712.75,-155 784.95,-212.83 811.56,-327.14 820.25,-379.56"/>
<polygon fill="#63b8ff" stroke="#63b8ff" points="816.74,-379.79 821.74,-389.13 823.66,-378.72 816.74,-379.79"/>
</a>
</g>
</g>
<!-- Node29&#45;&gt;Node8 -->
<g id="edge49_Node000029_Node000008" class="edge">
<title>Node29&#45;&gt;Node8</title>
<g id="a_edge49_Node000029_Node000008"><a xlink:title=" ">
<path fill="none" stroke="#63b8ff" d="M699.55,-108.38C704.27,-110.76 708.73,-113.61 712.75,-117 794.38,-185.76 816.28,-321.54 822.02,-379.61"/>
<polygon fill="#63b8ff" stroke="#63b8ff" points="818.51,-379.61 822.88,-389.26 825.48,-378.99 818.51,-379.61"/>
</a>
</g>
</g>
<!-- Node30&#45;&gt;Node8 -->
<g id="edge51_Node000030_Node000008" class="edge">
<title>Node30&#45;&gt;Node8</title>
<g id="a_edge51_Node000030_Node000008"><a xlink:title=" ">
<path fill="none" stroke="#63b8ff" d="M701.17,-70.36C705.32,-72.86 709.22,-75.72 712.75,-79 801.27,-161.37 819.37,-316.73 823.06,-379.58"/>
<polygon fill="#63b8ff" stroke="#63b8ff" points="819.55,-379.54 823.55,-389.35 826.54,-379.19 819.55,-379.54"/>
</a>
</g>
</g>
<!-- Node32&#45;&gt;Node9 -->
<g id="edge54_Node000032_Node000009" class="edge">
<title>Node32&#45;&gt;Node9</title>
<g id="a_edge54_Node000032_Node000009"><a xlink:title=" ">
<path fill="none" stroke="#63b8ff" d="M842.38,-894.51C858.65,-877.56 883.64,-849.91 901.25,-823 953.79,-742.69 997.92,-636.4 1015.37,-591.94"/>
<polygon fill="#63b8ff" stroke="#63b8ff" points="1018.58,-593.34 1018.93,-582.75 1012.05,-590.81 1018.58,-593.34"/>
</a>
</g>
</g>
</g>
</svg>
