<?xml version="1.0" encoding="UTF-8" standalone="no"?>
<!DOCTYPE svg PUBLIC "-//W3C//DTD SVG 1.1//EN"
 "http://www.w3.org/Graphics/SVG/1.1/DTD/svg11.dtd">
<!-- Generated by graphviz version 12.2.1 (20241206.2353)
 -->
<!-- Title: LSM1x0A_Controller::setMode Pages: 1 -->
<svg width="691pt" height="72pt"
 viewBox="0.00 0.00 690.75 72.00" xmlns="http://www.w3.org/2000/svg" xmlns:xlink="http://www.w3.org/1999/xlink">
<g id="graph0" class="graph" transform="scale(1 1) rotate(0) translate(4 68)">
<title>LSM1x0A_Controller::setMode</title>
<!-- Node1 -->
<g id="Node000001" class="node">
<title>Node1</title>
<g id="a_Node000001"><a xlink:title="Sets the communication mode.">
<polygon fill="#999999" stroke="#666666" points="106,-51 0,-51 0,-19 106,-19 106,-51"/>
<text text-anchor="start" x="8" y="-37.5" font-family="Helvetica,sans-Serif" font-size="10.00">LSM1x0A_Controller</text>
<text text-anchor="middle" x="53" y="-25.5" font-family="Helvetica,sans-Serif" font-size="10.00">::setMode</text>
</a>
</g>
</g>
<!-- Node2 -->
<g id="Node000002" class="node">
<title>Node2</title>
<g id="a_Node000002"><a xlink:href="../../d6/d3c/classLSM1x0A__AtParser.html#ab0ead2bfbb725c47bc77068c112dbcf5" target="_top" xlink:title="Obtains the operating mode detected during boot. This is useful to adapt the controller&#39;s behavior to...">
<polygon fill="white" stroke="#666666" points="327.5,-64 142,-64 142,-44 327.5,-44 327.5,-64"/>
<text text-anchor="middle" x="234.75" y="-50.5" font-family="Helvetica,sans-Serif" font-size="10.00">LSM1x0A_AtParser::getDetectedMode</text>
</a>
</g>
</g>
<!-- Node1&#45;&gt;Node2 -->
<g id="edge1_Node000001_Node000002" class="edge">
<title>Node1&#45;&gt;Node2</title>
<g id="a_edge1_Node000001_Node000002"><a xlink:title=" ">
<path fill="none" stroke="#63b8ff" d="M106.47,-40.55C114.1,-41.35 122.16,-42.2 130.37,-43.07"/>
<polygon fill="#63b8ff" stroke="#63b8ff" points="129.82,-46.53 140.14,-44.1 130.56,-39.57 129.82,-46.53"/>
</a>
</g>
</g>
<!-- Node3 -->
<g id="Node000003" class="node">
<title>Node3</title>
<g id="a_Node000003"><a xlink:href="../../d6/d3c/classLSM1x0A__AtParser.html#a29b53c521974387ba6c03afadfaffa4a" target="_top" xlink:title="Sends a simple command and waits for OK/ERROR. Example: sendCommand(&quot;AT+JOIN&quot;);.">
<polygon fill="white" stroke="#666666" points="321.88,-26 147.62,-26 147.62,-6 321.88,-6 321.88,-26"/>
<text text-anchor="middle" x="234.75" y="-12.5" font-family="Helvetica,sans-Serif" font-size="10.00">LSM1x0A_AtParser::sendCommand</text>
</a>
</g>
</g>
<!-- Node1&#45;&gt;Node3 -->
<g id="edge2_Node000001_Node000003" class="edge">
<title>Node1&#45;&gt;Node3</title>
<g id="a_edge2_Node000001_Node000003"><a xlink:title=" ">
<path fill="none" stroke="#63b8ff" d="M106.47,-29.45C115.91,-28.46 126.02,-27.39 136.26,-26.31"/>
<polygon fill="#63b8ff" stroke="#63b8ff" points="136.31,-29.82 145.89,-25.29 135.57,-22.86 136.31,-29.82"/>
</a>
</g>
</g>
<!-- Node4 -->
<g id="Node000004" class="node">
<title>Node4</title>
<g id="a_Node000004"><a xlink:href="../../d6/d3c/classLSM1x0A__AtParser.html#a0ba6f927c54fceece22c17773d3f2600" target="_top" xlink:title="Sends a command and extracts a value from the response.">
<polygon fill="white" stroke="#666666" points="537.75,-32 363.5,-32 363.5,0 537.75,0 537.75,-32"/>
<text text-anchor="start" x="371.5" y="-18.5" font-family="Helvetica,sans-Serif" font-size="10.00">LSM1x0A_AtParser::sendCommand</text>
<text text-anchor="middle" x="450.62" y="-6.5" font-family="Helvetica,sans-Serif" font-size="10.00">WithResponse</text>
</a>
</g>
</g>
<!-- Node3&#45;&gt;Node4 -->
<g id="edge3_Node000003_Node000004" class="edge">
<title>Node3&#45;&gt;Node4</title>
<g id="a_edge3_Node000003_Node000004"><a xlink:title=" ">
<path fill="none" stroke="#63b8ff" d="M322.12,-16C331.98,-16 342.08,-16 352.06,-16"/>
<polygon fill="#63b8ff" stroke="#63b8ff" points="351.76,-19.5 361.76,-16 351.76,-12.5 351.76,-19.5"/>
</a>
</g>
</g>
<!-- Node5 -->
<g id="Node000005" class="node">
<title>Node5</title>
<g id="a_Node000005"><a xlink:href="../../d5/d8b/classUartDriver.html#a5d0f22e8867eebe99273078bb19bd23d" target="_top" xlink:title="Sends data through UART.">
<polygon fill="white" stroke="#666666" points="682.75,-26 573.75,-26 573.75,-6 682.75,-6 682.75,-26"/>
<text text-anchor="middle" x="628.25" y="-12.5" font-family="Helvetica,sans-Serif" font-size="10.00">UartDriver::sendData</text>
</a>
</g>
</g>
<!-- Node4&#45;&gt;Node5 -->
<g id="edge4_Node000004_Node000005" class="edge">
<title>Node4&#45;&gt;Node5</title>
<g id="a_edge4_Node000004_Node000005"><a xlink:title=" ">
<path fill="none" stroke="#63b8ff" d="M538.15,-16C546.3,-16 554.45,-16 562.35,-16"/>
<polygon fill="#63b8ff" stroke="#63b8ff" points="562.18,-19.5 572.18,-16 562.18,-12.5 562.18,-19.5"/>
</a>
</g>
</g>
</g>
</svg>
