<?xml version="1.0" encoding="UTF-8" standalone="no"?>
<!DOCTYPE svg PUBLIC "-//W3C//DTD SVG 1.1//EN"
 "http://www.w3.org/Graphics/SVG/1.1/DTD/svg11.dtd">
<!-- Generated by graphviz version 12.2.1 (20241206.2353)
 -->
<!-- Title: LSM1x0A_Controller::wakeUp Pages: 1 -->
<svg width="860pt" height="72pt"
 viewBox="0.00 0.00 859.75 72.00" xmlns="http://www.w3.org/2000/svg" xmlns:xlink="http://www.w3.org/1999/xlink">
<g id="graph0" class="graph" transform="scale(1 1) rotate(0) translate(4 68)">
<title>LSM1x0A_Controller::wakeUp</title>
<!-- Node1 -->
<g id="Node000001" class="node">
<title>Node1</title>
<g id="a_Node000001"><a xlink:title="Wakes up the module and tries to synchronize its initial state. Sends basic AT commands or &#39;Wake&#45;Up&#39; ...">
<polygon fill="#999999" stroke="#666666" points="106,-51 0,-51 0,-19 106,-19 106,-51"/>
<text text-anchor="start" x="8" y="-37.5" font-family="Helvetica,sans-Serif" font-size="10.00">LSM1x0A_Controller</text>
<text text-anchor="middle" x="53" y="-25.5" font-family="Helvetica,sans-Serif" font-size="10.00">::wakeUp</text>
</a>
</g>
</g>
<!-- Node2 -->
<g id="Node000002" class="node">
<title>Node2</title>
<g id="a_Node000002"><a xlink:href="../../d6/d3c/classLSM1x0A__AtParser.html#aa8806eeffdfb50c84daff85cefab497b" target="_top" xlink:title="Performs a &quot;Ping&quot; activation by sending AT commands until OK is received. Handles the module&#39;s low&#45;po...">
<polygon fill="white" stroke="#666666" points="286.25,-45 142,-45 142,-25 286.25,-25 286.25,-45"/>
<text text-anchor="middle" x="214.12" y="-31.5" font-family="Helvetica,sans-Serif" font-size="10.00">LSM1x0A_AtParser::wakeUp</text>
</a>
</g>
</g>
<!-- Node1&#45;&gt;Node2 -->
<g id="edge1_Node000001_Node000002" class="edge">
<title>Node1&#45;&gt;Node2</title>
<g id="a_edge1_Node000001_Node000002"><a xlink:title=" ">
<path fill="none" stroke="#63b8ff" d="M106.1,-35C113.8,-35 121.9,-35 130.04,-35"/>
<polygon fill="#63b8ff" stroke="#63b8ff" points="130.03,-38.5 140.03,-35 130.03,-31.5 130.03,-38.5"/>
</a>
</g>
</g>
<!-- Node3 -->
<g id="Node000003" class="node">
<title>Node3</title>
<g id="a_Node000003"><a xlink:href="../../d5/d8b/classUartDriver.html#ae036ce1f4cf836ed976a876fc3e584f8" target="_top" xlink:title="Empties the hardware RX buffer and any queued events, discarding all obsolete received data.">
<polygon fill="white" stroke="#666666" points="459.75,-64 359,-64 359,-44 459.75,-44 459.75,-64"/>
<text text-anchor="middle" x="409.38" y="-50.5" font-family="Helvetica,sans-Serif" font-size="10.00">UartDriver::flushRx</text>
</a>
</g>
</g>
<!-- Node2&#45;&gt;Node3 -->
<g id="edge2_Node000002_Node000003" class="edge">
<title>Node2&#45;&gt;Node3</title>
<g id="a_edge2_Node000002_Node000003"><a xlink:title=" ">
<path fill="none" stroke="#63b8ff" d="M286.54,-42.02C306.48,-43.98 327.98,-46.1 347.27,-47.99"/>
<polygon fill="#63b8ff" stroke="#63b8ff" points="346.86,-51.47 357.15,-48.96 347.54,-44.5 346.86,-51.47"/>
</a>
</g>
</g>
<!-- Node4 -->
<g id="Node000004" class="node">
<title>Node4</title>
<g id="a_Node000004"><a xlink:href="../../d6/d3c/classLSM1x0A__AtParser.html#a29b53c521974387ba6c03afadfaffa4a" target="_top" xlink:title="Sends a simple command and waits for OK/ERROR. Example: sendCommand(&quot;AT+JOIN&quot;);.">
<polygon fill="white" stroke="#666666" points="496.5,-26 322.25,-26 322.25,-6 496.5,-6 496.5,-26"/>
<text text-anchor="middle" x="409.38" y="-12.5" font-family="Helvetica,sans-Serif" font-size="10.00">LSM1x0A_AtParser::sendCommand</text>
</a>
</g>
</g>
<!-- Node2&#45;&gt;Node4 -->
<g id="edge3_Node000002_Node000004" class="edge">
<title>Node2&#45;&gt;Node4</title>
<g id="a_edge3_Node000002_Node000004"><a xlink:title=" ">
<path fill="none" stroke="#63b8ff" d="M286.54,-27.98C294.35,-27.21 302.41,-26.42 310.48,-25.62"/>
<polygon fill="#63b8ff" stroke="#63b8ff" points="310.75,-29.11 320.36,-24.65 310.07,-22.15 310.75,-29.11"/>
</a>
</g>
</g>
<!-- Node5 -->
<g id="Node000005" class="node">
<title>Node5</title>
<g id="a_Node000005"><a xlink:href="../../d6/d3c/classLSM1x0A__AtParser.html#a0ba6f927c54fceece22c17773d3f2600" target="_top" xlink:title="Sends a command and extracts a value from the response.">
<polygon fill="white" stroke="#666666" points="706.75,-32 532.5,-32 532.5,0 706.75,0 706.75,-32"/>
<text text-anchor="start" x="540.5" y="-18.5" font-family="Helvetica,sans-Serif" font-size="10.00">LSM1x0A_AtParser::sendCommand</text>
<text text-anchor="middle" x="619.62" y="-6.5" font-family="Helvetica,sans-Serif" font-size="10.00">WithResponse</text>
</a>
</g>
</g>
<!-- Node4&#45;&gt;Node5 -->
<g id="edge4_Node000004_Node000005" class="edge">
<title>Node4&#45;&gt;Node5</title>
<g id="a_edge4_Node000004_Node000005"><a xlink:title=" ">
<path fill="none" stroke="#63b8ff" d="M496.88,-16C504.78,-16 512.82,-16 520.81,-16"/>
<polygon fill="#63b8ff" stroke="#63b8ff" points="520.54,-19.5 530.54,-16 520.54,-12.5 520.54,-19.5"/>
</a>
</g>
</g>
<!-- Node6 -->
<g id="Node000006" class="node">
<title>Node6</title>
<g id="a_Node000006"><a xlink:href="../../d5/d8b/classUartDriver.html#a5d0f22e8867eebe99273078bb19bd23d" target="_top" xlink:title="Sends data through UART.">
<polygon fill="white" stroke="#666666" points="851.75,-26 742.75,-26 742.75,-6 851.75,-6 851.75,-26"/>
<text text-anchor="middle" x="797.25" y="-12.5" font-family="Helvetica,sans-Serif" font-size="10.00">UartDriver::sendData</text>
</a>
</g>
</g>
<!-- Node5&#45;&gt;Node6 -->
<g id="edge5_Node000005_Node000006" class="edge">
<title>Node5&#45;&gt;Node6</title>
<g id="a_edge5_Node000005_Node000006"><a xlink:title=" ">
<path fill="none" stroke="#63b8ff" d="M707.15,-16C715.3,-16 723.45,-16 731.35,-16"/>
<polygon fill="#63b8ff" stroke="#63b8ff" points="731.18,-19.5 741.18,-16 731.18,-12.5 731.18,-19.5"/>
</a>
</g>
</g>
</g>
</svg>
