<?xml version="1.0" encoding="UTF-8" standalone="no"?>
<!DOCTYPE svg PUBLIC "-//W3C//DTD SVG 1.1//EN"
 "http://www.w3.org/Graphics/SVG/1.1/DTD/svg11.dtd">
<!-- Generated by graphviz version 12.2.1 (20241206.2353)
 -->
<!-- Title: LSM1x0A_Controller::getVersion Pages: 1 -->
<!--zoomable 1018 -->

<svg id="main" version="1.1" xmlns="http://www.w3.org/2000/svg" xmlns:xlink="http://www.w3.org/1999/xlink" xml:space="preserve" onload="init(evt)">
<style type="text/css"><![CDATA[
.node, .edge {opacity: 0.7;}
.node.selected, .edge.selected {opacity: 1;}
.edge:hover path { stroke: red; }
.edge:hover polygon { stroke: red; fill: red; }
]]></style>

<defs>
  <circle id="rim" cx="0" cy="0" r="7"/>
  <circle id="rim2" cx="0" cy="0" r="3.5"/>
  <g id="zoomPlus">
    <use xlink:href="#rim" fill="#404040"><set attributeName="fill" to="#808080" begin="zoomplus.mouseover" end="zoomplus.mouseout"/></use>
    <path d="M-4,0h8M0,-4v8" fill="none" stroke="white" stroke-width="1.5" pointer-events="none"/>
  </g>
  <g id="zoomMin">
    <use xlink:href="#rim" fill="#404040"><set attributeName="fill" to="#808080" begin="zoomminus.mouseover" end="zoomminus.mouseout"/></use>
    <path d="M-4,0h8" fill="none" stroke="white" stroke-width="1.5" pointer-events="none"/>
  </g>
  <g id="arrowUp" transform="translate(30 24)">
    <use xlink:href="#rim"/>
    <path pointer-events="none" fill="none" stroke="white" stroke-width="1.5" d="M0,-3.0v7 M-2.5,-0.5L0,-3.0L2.5,-0.5"/>
  </g>
  <g id="arrowRight" transform="rotate(90) translate(36 -43)">
    <use xlink:href="#rim"/>
    <path pointer-events="none" fill="none" stroke="white" stroke-width="1.5" d="M0,-3.0v7 M-2.5,-0.5L0,-3.0L2.5,-0.5"/>
  </g>
  <g id="arrowDown" transform="rotate(180) translate(-30 -48)">
    <use xlink:href="#rim"/>
    <path pointer-events="none" fill="none" stroke="white" stroke-width="1.5" d="M0,-3.0v7 M-2.5,-0.5L0,-3.0L2.5,-0.5"/>
  </g>
  <g id="arrowLeft" transform="rotate(270) translate(-36 17)">
    <use xlink:href="#rim"/>
    <path pointer-events="none" fill="none" stroke="white" stroke-width="1.5" d="M0,-3.0v7 M-2.5,-0.5L0,-3.0L2.5,-0.5"/>
  </g>
  <g id="resetDef">
    <use xlink:href="#rim2" fill="#404040"><set attributeName="fill" to="#808080" begin="reset.mouseover" end="reset.mouseout"/></use>
  </g>
</defs>
<script type="application/ecmascript">
var viewWidth = 1805;
var viewHeight = 1018;
var sectionId = 'dynsection-12';
</script>
<script type="application/ecmascript" xlink:href="../../svg.min.js"/>
<svg id="graph" class="graph">
<g id="viewport">
<title>LSM1x0A_Controller::getVersion</title>
<!-- Node1 -->
<g id="Node000001" class="node">
<title>Node1</title>
<g id="a_Node000001"><a xlink:title="Gets the module firmware version &quot;APP_VERSION&quot;.">
<polygon fill="#999999" stroke="#666666" points="106,-104 0,-104 0,-72 106,-72 106,-104"/>
<text text-anchor="start" x="8" y="-90.5" font-family="Helvetica,sans-Serif" font-size="10.00">LSM1x0A_Controller</text>
<text text-anchor="middle" x="53" y="-78.5" font-family="Helvetica,sans-Serif" font-size="10.00">::getVersion</text>
</a>
</g>
</g>
<!-- Node2 -->
<g id="Node000002" class="node">
<title>Node2</title>
<g id="a_Node000002"><a xlink:href="../../d8/d92/classLSM1x0A__Controller.html#ab00328d1be83aa51bce8c2a4f907c5f4" target="_top" xlink:title="Sends an AT command and captures its response in a text block. Ideal for getters (e....">
<polygon fill="white" stroke="#666666" points="294.5,-104 142,-104 142,-72 294.5,-72 294.5,-104"/>
<text text-anchor="start" x="150" y="-90.5" font-family="Helvetica,sans-Serif" font-size="10.00">LSM1x0A_Controller</text>
<text text-anchor="middle" x="218.25" y="-78.5" font-family="Helvetica,sans-Serif" font-size="10.00">::sendCommandWithResponse</text>
</a>
</g>
</g>
<!-- Node1&#45;&gt;Node2 -->
<g id="edge1_Node000001_Node000002" class="edge">
<title>Node1&#45;&gt;Node2</title>
<g id="a_edge1_Node000001_Node000002"><a xlink:title=" ">
<path fill="none" stroke="#63b8ff" d="M106.1,-88C113.86,-88 122.04,-88 130.29,-88"/>
<polygon fill="#63b8ff" stroke="#63b8ff" points="130.03,-91.5 140.03,-88 130.03,-84.5 130.03,-91.5"/>
</a>
</g>
</g>
<!-- Node3 -->
<g id="Node000003" class="node">
<title>Node3</title>
<g id="a_Node000003"><a xlink:href="../../d8/d92/classLSM1x0A__Controller.html#abb0eb380daa3dfb7acffb483c5db8e2b" target="_top" xlink:title="Executes the recovery protocol. First Soft&#45;Reset (ATZ), then Hard&#45;Reset if there is a pin.">
<polygon fill="white" stroke="#666666" points="436.5,-214 330.5,-214 330.5,-182 436.5,-182 436.5,-214"/>
<text text-anchor="start" x="338.5" y="-200.5" font-family="Helvetica,sans-Serif" font-size="10.00">LSM1x0A_Controller</text>
<text text-anchor="middle" x="383.5" y="-188.5" font-family="Helvetica,sans-Serif" font-size="10.00">::recoverModule</text>
</a>
</g>
</g>
<!-- Node2&#45;&gt;Node3 -->
<g id="edge2_Node000002_Node000003" class="edge">
<title>Node2&#45;&gt;Node3</title>
<g id="a_edge2_Node000002_Node000003"><a xlink:title=" ">
<path fill="none" stroke="#63b8ff" d="M243.69,-104.47C271.66,-123.32 317.64,-154.29 348.95,-175.39"/>
<polygon fill="#63b8ff" stroke="#63b8ff" points="346.66,-178.07 356.9,-180.75 350.57,-172.26 346.66,-178.07"/>
</a>
</g>
</g>
<!-- Node12 -->
<g id="Node000012" class="node">
<title>Node12</title>
<g id="a_Node000012"><a xlink:href="../../d6/d3c/classLSM1x0A__AtParser.html#a0ba6f927c54fceece22c17773d3f2600" target="_top" xlink:title="Sends a command and extracts a value from the response.">
<polygon fill="white" stroke="#666666" points="1652.25,-287 1478,-287 1478,-255 1652.25,-255 1652.25,-287"/>
<text text-anchor="start" x="1486" y="-273.5" font-family="Helvetica,sans-Serif" font-size="10.00">LSM1x0A_AtParser::sendCommand</text>
<text text-anchor="middle" x="1565.12" y="-261.5" font-family="Helvetica,sans-Serif" font-size="10.00">WithResponse</text>
</a>
</g>
</g>
<!-- Node2&#45;&gt;Node12 -->
<g id="edge57_Node000002_Node000012" class="edge">
<title>Node2&#45;&gt;Node12</title>
<g id="a_edge57_Node000002_Node000012"><a xlink:title=" ">
<path fill="none" stroke="#63b8ff" d="M255.69,-71.65C315.86,-46.21 440.29,0 550.75,0 550.75,0 550.75,0 1156.5,0 1333.44,0 1492.2,-179.26 1545.31,-246.19"/>
<polygon fill="#63b8ff" stroke="#63b8ff" points="1542.24,-247.95 1551.16,-253.67 1547.75,-243.64 1542.24,-247.95"/>
</a>
</g>
</g>
<!-- Node4 -->
<g id="Node000004" class="node">
<title>Node4</title>
<g id="a_Node000004"><a xlink:href="../../d8/d92/classLSM1x0A__Controller.html#a3f6f25b843fe4fb7042c544deae2ab16" target="_top" xlink:title="Manually clears bits from the internal EventGroup.">
<polygon fill="white" stroke="#666666" points="999.38,-98 893.38,-98 893.38,-66 999.38,-66 999.38,-98"/>
<text text-anchor="start" x="901.38" y="-84.5" font-family="Helvetica,sans-Serif" font-size="10.00">LSM1x0A_Controller</text>
<text text-anchor="middle" x="946.38" y="-72.5" font-family="Helvetica,sans-Serif" font-size="10.00">::clearEvents</text>
</a>
</g>
</g>
<!-- Node3&#45;&gt;Node4 -->
<g id="edge3_Node000003_Node000004" class="edge">
<title>Node3&#45;&gt;Node4</title>
<g id="a_edge3_Node000003_Node000004"><a xlink:title=" ">
<path fill="none" stroke="#63b8ff" d="M409.18,-181.53C426.23,-171 449.84,-158.03 472.5,-151 618.15,-105.82 663.23,-138.94 813.5,-113 836,-109.12 860.4,-103.72 882.02,-98.52"/>
<polygon fill="#63b8ff" stroke="#63b8ff" points="882.7,-101.96 891.58,-96.18 881.03,-95.16 882.7,-101.96"/>
</a>
</g>
</g>
<!-- Node5 -->
<g id="Node000005" class="node">
<title>Node5</title>
<g id="a_Node000005"><a xlink:href="../../d8/d92/classLSM1x0A__Controller.html#a345d4bd79fa16b18dc33a4ca788fe5f7" target="_top" xlink:title="Performs a hardware reset using the reset pin.">
<polygon fill="white" stroke="#666666" points="604.75,-104 498.75,-104 498.75,-72 604.75,-72 604.75,-104"/>
<text text-anchor="start" x="506.75" y="-90.5" font-family="Helvetica,sans-Serif" font-size="10.00">LSM1x0A_Controller</text>
<text text-anchor="middle" x="551.75" y="-78.5" font-family="Helvetica,sans-Serif" font-size="10.00">::hardwareReset</text>
</a>
</g>
</g>
<!-- Node3&#45;&gt;Node5 -->
<g id="edge4_Node000003_Node000005" class="edge">
<title>Node3&#45;&gt;Node5</title>
<g id="a_edge4_Node000003_Node000005"><a xlink:title=" ">
<path fill="none" stroke="#63b8ff" d="M398.96,-181.63C415.32,-163.93 443.49,-135.86 472.5,-118 477.77,-114.76 483.44,-111.77 489.24,-109.03"/>
<polygon fill="#63b8ff" stroke="#63b8ff" points="490.64,-112.24 498.38,-104.99 487.81,-105.83 490.64,-112.24"/>
</a>
</g>
</g>
<!-- Node7 -->
<g id="Node000007" class="node">
<title>Node7</title>
<g id="a_Node000007"><a xlink:href="../../d5/d72/classLSM1x0A__LoRaWAN.html#a1892801e37c8cd67d37c76108d6f7d49" target="_top" xlink:title="Validates if the device is currently Joined to the network. (Either confirmed by OTAA or statically a...">
<polygon fill="white" stroke="#666666" points="1231.75,-136 1079.25,-136 1079.25,-116 1231.75,-116 1231.75,-136"/>
<text text-anchor="middle" x="1155.5" y="-122.5" font-family="Helvetica,sans-Serif" font-size="10.00">LSM1x0A_LoRaWAN::isJoined</text>
</a>
</g>
</g>
<!-- Node3&#45;&gt;Node7 -->
<g id="edge6_Node000003_Node000007" class="edge">
<title>Node3&#45;&gt;Node7</title>
<g id="a_edge6_Node000003_Node000007"><a xlink:title=" ">
<path fill="none" stroke="#63b8ff" d="M389.43,-181.77C399.49,-151.92 425.48,-88.97 472.5,-63 583.54,-1.69 921.26,-22.24 1043.25,-57 1078.32,-66.99 1113.12,-91.56 1134.22,-108.51"/>
<polygon fill="#63b8ff" stroke="#63b8ff" points="1131.8,-111.05 1141.74,-114.72 1136.26,-105.65 1131.8,-111.05"/>
</a>
</g>
</g>
<!-- Node8 -->
<g id="Node000008" class="node">
<title>Node8</title>
<g id="a_Node000008"><a xlink:href="../../d5/d72/classLSM1x0A__LoRaWAN.html#a83e11c0e74ff9e0757db616ab1163424" target="_top" xlink:title="Attempts to recover a lost connection (re&#45;executes OTAA Join if dropped).">
<polygon fill="white" stroke="#666666" points="626.12,-192 477.38,-192 477.38,-160 626.12,-160 626.12,-192"/>
<text text-anchor="start" x="485.38" y="-178.5" font-family="Helvetica,sans-Serif" font-size="10.00">LSM1x0A_LoRaWAN::recover</text>
<text text-anchor="middle" x="551.75" y="-166.5" font-family="Helvetica,sans-Serif" font-size="10.00">Connection</text>
</a>
</g>
</g>
<!-- Node3&#45;&gt;Node8 -->
<g id="edge7_Node000003_Node000008" class="edge">
<title>Node3&#45;&gt;Node8</title>
<g id="a_edge7_Node000003_Node000008"><a xlink:title=" ">
<path fill="none" stroke="#63b8ff" d="M436.65,-191.1C445.99,-189.86 455.94,-188.55 465.92,-187.23"/>
<polygon fill="#63b8ff" stroke="#63b8ff" points="466.22,-190.72 475.67,-185.94 465.3,-183.78 466.22,-190.72"/>
</a>
</g>
</g>
<!-- Node16 -->
<g id="Node000016" class="node">
<title>Node16</title>
<g id="a_Node000016"><a xlink:href="../../d5/d72/classLSM1x0A__LoRaWAN.html#ae3be4ce59dfa200369733317df356e97" target="_top" xlink:title="Pushes the RAM&#45;cached variables back down into the hardware module. Restores the operational state af...">
<polygon fill="white" stroke="#666666" points="813.5,-539 667,-539 667,-507 813.5,-507 813.5,-539"/>
<text text-anchor="start" x="675" y="-525.5" font-family="Helvetica,sans-Serif" font-size="10.00">LSM1x0A_LoRaWAN::restore</text>
<text text-anchor="middle" x="740.25" y="-513.5" font-family="Helvetica,sans-Serif" font-size="10.00">Config</text>
</a>
</g>
</g>
<!-- Node3&#45;&gt;Node16 -->
<g id="edge20_Node000003_Node000016" class="edge">
<title>Node3&#45;&gt;Node16</title>
<g id="a_edge20_Node000003_Node000016"><a xlink:title=" ">
<path fill="none" stroke="#63b8ff" d="M402.09,-214.12C460.01,-267.18 644.94,-436.6 713.42,-499.34"/>
<polygon fill="#63b8ff" stroke="#63b8ff" points="710.7,-501.59 720.44,-505.76 715.43,-496.43 710.7,-501.59"/>
</a>
</g>
</g>
<!-- Node33 -->
<g id="Node000033" class="node">
<title>Node33</title>
<g id="a_Node000033"><a xlink:href="../../d5/d72/classLSM1x0A__LoRaWAN.html#ace4b04396f1de1f4a54f513f5f378db7" target="_top" xlink:title="Manually overrides the internal joined state tracker.">
<polygon fill="white" stroke="#666666" points="631,-939 472.5,-939 472.5,-919 631,-919 631,-939"/>
<text text-anchor="middle" x="551.75" y="-925.5" font-family="Helvetica,sans-Serif" font-size="10.00">LSM1x0A_LoRaWAN::setJoined</text>
</a>
</g>
</g>
<!-- Node3&#45;&gt;Node33 -->
<g id="edge54_Node000003_Node000033" class="edge">
<title>Node3&#45;&gt;Node33</title>
<g id="a_edge54_Node000003_Node000033"><a xlink:title=" ">
<path fill="none" stroke="#63b8ff" d="M384.22,-214.4C382.9,-310.08 380.83,-795.83 472.5,-905 474.92,-907.88 477.68,-910.43 480.68,-912.67"/>
<polygon fill="#63b8ff" stroke="#63b8ff" points="478.66,-915.54 489.02,-917.75 482.3,-909.56 478.66,-915.54"/>
</a>
</g>
</g>
<!-- Node34 -->
<g id="Node000034" class="node">
<title>Node34</title>
<g id="a_Node000034"><a xlink:href="../../d8/d92/classLSM1x0A__Controller.html#a11ad21cb5ca33ec51346764a23bd485e" target="_top" xlink:title="Performs a software reset (ATZ Command).">
<polygon fill="white" stroke="#666666" points="1208.5,-795 1102.5,-795 1102.5,-763 1208.5,-763 1208.5,-795"/>
<text text-anchor="start" x="1110.5" y="-781.5" font-family="Helvetica,sans-Serif" font-size="10.00">LSM1x0A_Controller</text>
<text text-anchor="middle" x="1155.5" y="-769.5" font-family="Helvetica,sans-Serif" font-size="10.00">::softwareReset</text>
</a>
</g>
</g>
<!-- Node3&#45;&gt;Node34 -->
<g id="edge55_Node000003_Node000034" class="edge">
<title>Node3&#45;&gt;Node34</title>
<g id="a_edge55_Node000003_Node000034"><a xlink:title=" ">
<path fill="none" stroke="#63b8ff" d="M385.14,-214.18C389.41,-318.83 415.5,-897.3 472.5,-948 537.69,-1005.99 805.64,-1058.87 1043.25,-932 1094.71,-904.52 1128.32,-841.52 1144.07,-805.51"/>
<polygon fill="#63b8ff" stroke="#63b8ff" points="1147.14,-807.25 1147.8,-796.67 1140.69,-804.53 1147.14,-807.25"/>
</a>
</g>
</g>
<!-- Node6 -->
<g id="Node000006" class="node">
<title>Node6</title>
<g id="a_Node000006"><a xlink:href="../../d6/d3c/classLSM1x0A__AtParser.html#ad2839120da13e56132b95019419be1e5" target="_top" xlink:title="Waits for an event (like BOOTALERT) without sending any command. Useful for hardware reset where the ...">
<polygon fill="white" stroke="#666666" points="810.5,-104 670,-104 670,-72 810.5,-72 810.5,-104"/>
<text text-anchor="start" x="678" y="-90.5" font-family="Helvetica,sans-Serif" font-size="10.00">LSM1x0A_AtParser::waitFor</text>
<text text-anchor="middle" x="740.25" y="-78.5" font-family="Helvetica,sans-Serif" font-size="10.00">Event</text>
</a>
</g>
</g>
<!-- Node5&#45;&gt;Node6 -->
<g id="edge5_Node000005_Node000006" class="edge">
<title>Node5&#45;&gt;Node6</title>
<g id="a_edge5_Node000005_Node000006"><a xlink:title=" ">
<path fill="none" stroke="#63b8ff" d="M605.2,-88C621.71,-88 640.36,-88 658.37,-88"/>
<polygon fill="#63b8ff" stroke="#63b8ff" points="658.28,-91.5 668.28,-88 658.28,-84.5 658.28,-91.5"/>
</a>
</g>
</g>
<!-- Node9 -->
<g id="Node000009" class="node">
<title>Node9</title>
<g id="a_Node000009"><a xlink:href="../../d5/d72/classLSM1x0A__LoRaWAN.html#a59f781f3cfd30c11cd3973bcb10a7baa" target="_top" xlink:title="Initiates a LoRaWAN Network Join procedure. This is a blocking function until the module fires an eve...">
<polygon fill="white" stroke="#666666" points="806,-186 674.5,-186 674.5,-166 806,-166 806,-186"/>
<text text-anchor="middle" x="740.25" y="-172.5" font-family="Helvetica,sans-Serif" font-size="10.00">LSM1x0A_LoRaWAN::join</text>
</a>
</g>
</g>
<!-- Node8&#45;&gt;Node9 -->
<g id="edge8_Node000008_Node000009" class="edge">
<title>Node8&#45;&gt;Node9</title>
<g id="a_edge8_Node000008_Node000009"><a xlink:title=" ">
<path fill="none" stroke="#63b8ff" d="M626.46,-176C638.42,-176 650.83,-176 662.85,-176"/>
<polygon fill="#63b8ff" stroke="#63b8ff" points="662.72,-179.5 672.72,-176 662.72,-172.5 662.72,-179.5"/>
</a>
</g>
</g>
<!-- Node9&#45;&gt;Node3 -->
<g id="edge10_Node000009_Node000003" class="edge">
<title>Node9&#45;&gt;Node3</title>
<g id="a_edge10_Node000009_Node000003"><a xlink:title=" ">
<path fill="none" stroke="#63b8ff" d="M703.52,-186.4C682.59,-191.95 655.53,-198.2 631,-201 561.01,-208.98 542.93,-202.2 472.5,-201 464.6,-200.87 456.31,-200.66 448.11,-200.43"/>
<polygon fill="#63b8ff" stroke="#63b8ff" points="448.23,-196.93 438.12,-200.12 448.01,-203.92 448.23,-196.93"/>
</a>
</g>
</g>
<!-- Node9&#45;&gt;Node4 -->
<g id="edge9_Node000009_Node000004" class="edge">
<title>Node9&#45;&gt;Node4</title>
<g id="a_edge9_Node000009_Node000004"><a xlink:title=" ">
<path fill="none" stroke="#63b8ff" d="M774.8,-165.52C787.55,-160.68 801.81,-154.16 813.5,-146 832.84,-132.5 829.27,-119.13 849.5,-107 859.45,-101.03 870.81,-96.47 882.15,-93"/>
<polygon fill="#63b8ff" stroke="#63b8ff" points="882.82,-96.45 891.51,-90.39 880.94,-89.7 882.82,-96.45"/>
</a>
</g>
</g>
<!-- Node10 -->
<g id="Node000010" class="node">
<title>Node10</title>
<g id="a_Node000010"><a xlink:href="../../d8/d92/classLSM1x0A__Controller.html#afd7d92e60ed6fdae696a955cdbe0ed8c" target="_top" xlink:title="Sends any AT command to the module, returning error if it fails. Internally uses the LsmAtParser logi...">
<polygon fill="white" stroke="#666666" points="1208.5,-558 1102.5,-558 1102.5,-526 1208.5,-526 1208.5,-558"/>
<text text-anchor="start" x="1110.5" y="-544.5" font-family="Helvetica,sans-Serif" font-size="10.00">LSM1x0A_Controller</text>
<text text-anchor="middle" x="1155.5" y="-532.5" font-family="Helvetica,sans-Serif" font-size="10.00">::sendCommand</text>
</a>
</g>
</g>
<!-- Node9&#45;&gt;Node10 -->
<g id="edge11_Node000009_Node000010" class="edge">
<title>Node9&#45;&gt;Node10</title>
<g id="a_edge11_Node000009_Node000010"><a xlink:title=" ">
<path fill="none" stroke="#63b8ff" d="M806.28,-171.81C883.89,-168.2 1007.66,-167.28 1043.25,-195 1144.98,-274.23 1155.24,-447.25 1155.2,-514.5"/>
<polygon fill="#63b8ff" stroke="#63b8ff" points="1151.7,-514.23 1155.1,-524.26 1158.7,-514.3 1151.7,-514.23"/>
</a>
</g>
</g>
<!-- Node14 -->
<g id="Node000014" class="node">
<title>Node14</title>
<g id="a_Node000014"><a xlink:href="../../d5/d72/classLSM1x0A__LoRaWAN.html#a3fdd1ac318a5ad2559323e5d57e36a5e" target="_top" xlink:title="Enables or disables specific sub&#45;bands for regions supporting Channel Masks (e.g.,...">
<polygon fill="white" stroke="#666666" points="1041.38,-224 851.38,-224 851.38,-204 1041.38,-204 1041.38,-224"/>
<text text-anchor="middle" x="946.38" y="-210.5" font-family="Helvetica,sans-Serif" font-size="10.00">LSM1x0A_LoRaWAN::setChannelMask</text>
</a>
</g>
</g>
<!-- Node9&#45;&gt;Node14 -->
<g id="edge16_Node000009_Node000014" class="edge">
<title>Node9&#45;&gt;Node14</title>
<g id="a_edge16_Node000009_Node000014"><a xlink:title=" ">
<path fill="none" stroke="#63b8ff" d="M797.57,-186.48C822.44,-191.12 851.89,-196.6 877.93,-201.44"/>
<polygon fill="#63b8ff" stroke="#63b8ff" points="877.28,-204.88 887.75,-203.27 878.56,-198 877.28,-204.88"/>
</a>
</g>
</g>
<!-- Node15 -->
<g id="Node000015" class="node">
<title>Node15</title>
<g id="a_Node000015"><a xlink:href="../../d8/d92/classLSM1x0A__Controller.html#a62476e30e50c7fe120aeb8df4b828675" target="_top" xlink:title="Synchronously/blockingly waits for an asynchronous event to occur. Useful for wrapping commands like ...">
<polygon fill="white" stroke="#666666" points="999.38,-148 893.38,-148 893.38,-116 999.38,-116 999.38,-148"/>
<text text-anchor="start" x="901.38" y="-134.5" font-family="Helvetica,sans-Serif" font-size="10.00">LSM1x0A_Controller</text>
<text text-anchor="middle" x="946.38" y="-122.5" font-family="Helvetica,sans-Serif" font-size="10.00">::waitForEvent</text>
</a>
</g>
</g>
<!-- Node9&#45;&gt;Node15 -->
<g id="edge19_Node000009_Node000015" class="edge">
<title>Node9&#45;&gt;Node15</title>
<g id="a_edge19_Node000009_Node000015"><a xlink:title=" ">
<path fill="none" stroke="#63b8ff" d="M789.88,-165.52C817.49,-159.57 852.36,-152.05 882.07,-145.65"/>
<polygon fill="#63b8ff" stroke="#63b8ff" points="882.67,-149.1 891.7,-143.57 881.19,-142.25 882.67,-149.1"/>
</a>
</g>
</g>
<!-- Node10&#45;&gt;Node3 -->
<g id="edge12_Node000010_Node000003" class="edge">
<title>Node10&#45;&gt;Node3</title>
<g id="a_edge12_Node000010_Node000003"><a xlink:title=" ">
<path fill="none" stroke="#63b8ff" d="M1148.07,-558.31C1134.31,-593.61 1101.41,-679.91 1079.25,-754 1059.98,-818.44 1096.17,-859.48 1043.25,-901 975.5,-954.16 925.94,-940.65 849.5,-901 562.18,-751.97 424.22,-335.66 392.02,-225.19"/>
<polygon fill="#63b8ff" stroke="#63b8ff" points="395.45,-224.47 389.33,-215.82 388.72,-226.4 395.45,-224.47"/>
</a>
</g>
</g>
<!-- Node11 -->
<g id="Node000011" class="node">
<title>Node11</title>
<g id="a_Node000011"><a xlink:href="../../d6/d3c/classLSM1x0A__AtParser.html#a29b53c521974387ba6c03afadfaffa4a" target="_top" xlink:title="Sends a simple command and waits for OK/ERROR. Example: sendCommand(&quot;AT+JOIN&quot;);.">
<polygon fill="white" stroke="#666666" points="1442,-552 1267.75,-552 1267.75,-532 1442,-532 1442,-552"/>
<text text-anchor="middle" x="1354.88" y="-538.5" font-family="Helvetica,sans-Serif" font-size="10.00">LSM1x0A_AtParser::sendCommand</text>
</a>
</g>
</g>
<!-- Node10&#45;&gt;Node11 -->
<g id="edge13_Node000010_Node000011" class="edge">
<title>Node10&#45;&gt;Node11</title>
<g id="a_edge13_Node000010_Node000011"><a xlink:title=" ">
<path fill="none" stroke="#63b8ff" d="M1208.87,-542C1223.44,-542 1239.75,-542 1256.03,-542"/>
<polygon fill="#63b8ff" stroke="#63b8ff" points="1255.76,-545.5 1265.76,-542 1255.76,-538.5 1255.76,-545.5"/>
</a>
</g>
</g>
<!-- Node11&#45;&gt;Node12 -->
<g id="edge14_Node000011_Node000012" class="edge">
<title>Node11&#45;&gt;Node12</title>
<g id="a_edge14_Node000011_Node000012"><a xlink:title=" ">
<path fill="none" stroke="#63b8ff" d="M1363.78,-531.71C1393.69,-492.78 1500.43,-353.88 1544.69,-296.3"/>
<polygon fill="#63b8ff" stroke="#63b8ff" points="1547.23,-298.73 1550.55,-288.67 1541.68,-294.46 1547.23,-298.73"/>
</a>
</g>
</g>
<!-- Node13 -->
<g id="Node000013" class="node">
<title>Node13</title>
<g id="a_Node000013"><a xlink:href="../../d5/d8b/classUartDriver.html#a5d0f22e8867eebe99273078bb19bd23d" target="_top" xlink:title="Sends data through UART.">
<polygon fill="white" stroke="#666666" points="1797.25,-281 1688.25,-281 1688.25,-261 1797.25,-261 1797.25,-281"/>
<text text-anchor="middle" x="1742.75" y="-267.5" font-family="Helvetica,sans-Serif" font-size="10.00">UartDriver::sendData</text>
</a>
</g>
</g>
<!-- Node12&#45;&gt;Node13 -->
<g id="edge15_Node000012_Node000013" class="edge">
<title>Node12&#45;&gt;Node13</title>
<g id="a_edge15_Node000012_Node000013"><a xlink:title=" ">
<path fill="none" stroke="#63b8ff" d="M1652.65,-271C1660.8,-271 1668.95,-271 1676.85,-271"/>
<polygon fill="#63b8ff" stroke="#63b8ff" points="1676.68,-274.5 1686.68,-271 1676.68,-267.5 1676.68,-274.5"/>
</a>
</g>
</g>
<!-- Node14&#45;&gt;Node7 -->
<g id="edge17_Node000014_Node000007" class="edge">
<title>Node14&#45;&gt;Node7</title>
<g id="a_edge17_Node000014_Node000007"><a xlink:title=" ">
<path fill="none" stroke="#63b8ff" d="M971.95,-203.56C1008.54,-188.01 1077.53,-158.7 1119.42,-140.9"/>
<polygon fill="#63b8ff" stroke="#63b8ff" points="1120.73,-144.15 1128.57,-137.02 1117.99,-137.71 1120.73,-144.15"/>
</a>
</g>
</g>
<!-- Node14&#45;&gt;Node10 -->
<g id="edge18_Node000014_Node000010" class="edge">
<title>Node14&#45;&gt;Node10</title>
<g id="a_edge18_Node000014_Node000010"><a xlink:title=" ">
<path fill="none" stroke="#63b8ff" d="M1030.13,-224.28C1034.83,-226.69 1039.26,-229.57 1043.25,-233 1129.58,-307.27 1148.92,-453.75 1153.25,-514.55"/>
<polygon fill="#63b8ff" stroke="#63b8ff" points="1149.75,-514.57 1153.86,-524.33 1156.73,-514.13 1149.75,-514.57"/>
</a>
</g>
</g>
<!-- Node16&#45;&gt;Node14 -->
<g id="edge25_Node000016_Node000014" class="edge">
<title>Node16&#45;&gt;Node14</title>
<g id="a_edge25_Node000016_Node000014"><a xlink:title=" ">
<path fill="none" stroke="#63b8ff" d="M742.05,-506.78C745.43,-457.25 762.7,-306.79 849.5,-233 850.63,-232.04 851.79,-231.13 852.98,-230.25"/>
<polygon fill="#63b8ff" stroke="#63b8ff" points="854.67,-233.33 861.37,-225.12 851.02,-227.35 854.67,-233.33"/>
</a>
</g>
</g>
<!-- Node17 -->
<g id="Node000017" class="node">
<title>Node17</title>
<g id="a_Node000017"><a xlink:href="../../d5/d72/classLSM1x0A__LoRaWAN.html#af0baa3db4c7fab580d6b19a9e92472f6" target="_top" xlink:title="Enables or disables Adaptive Data Rate (ADR).">
<polygon fill="white" stroke="#666666" points="1022.25,-350 870.5,-350 870.5,-330 1022.25,-330 1022.25,-350"/>
<text text-anchor="middle" x="946.38" y="-336.5" font-family="Helvetica,sans-Serif" font-size="10.00">LSM1x0A_LoRaWAN::setADR</text>
</a>
</g>
</g>
<!-- Node16&#45;&gt;Node17 -->
<g id="edge21_Node000016_Node000017" class="edge">
<title>Node16&#45;&gt;Node17</title>
<g id="a_edge21_Node000016_Node000017"><a xlink:title=" ">
<path fill="none" stroke="#63b8ff" d="M747.06,-506.6C759.85,-473 793.85,-396.38 849.5,-359 852.77,-356.8 856.23,-354.85 859.83,-353.11"/>
<polygon fill="#63b8ff" stroke="#63b8ff" points="860.98,-356.42 868.87,-349.35 858.29,-349.96 860.98,-356.42"/>
</a>
</g>
</g>
<!-- Node18 -->
<g id="Node000018" class="node">
<title>Node18</title>
<g id="a_Node000018"><a xlink:href="../../d5/d72/classLSM1x0A__LoRaWAN.html#a5365ed1596eb84ebf1e3b33b4a10c788" target="_top" xlink:title="Sets the LoRaWAN operational frequency band.">
<polygon fill="white" stroke="#666666" points="1022.62,-312 870.12,-312 870.12,-292 1022.62,-292 1022.62,-312"/>
<text text-anchor="middle" x="946.38" y="-298.5" font-family="Helvetica,sans-Serif" font-size="10.00">LSM1x0A_LoRaWAN::setBand</text>
</a>
</g>
</g>
<!-- Node16&#45;&gt;Node18 -->
<g id="edge23_Node000016_Node000018" class="edge">
<title>Node16&#45;&gt;Node18</title>
<g id="a_edge23_Node000016_Node000018"><a xlink:title=" ">
<path fill="none" stroke="#63b8ff" d="M744.97,-506.5C754.7,-467.43 784.74,-368.94 849.5,-321 852.66,-318.66 856.04,-316.58 859.57,-314.75"/>
<polygon fill="#63b8ff" stroke="#63b8ff" points="860.75,-318.05 868.47,-310.8 857.91,-311.66 860.75,-318.05"/>
</a>
</g>
</g>
<!-- Node19 -->
<g id="Node000019" class="node">
<title>Node19</title>
<g id="a_Node000019"><a xlink:href="../../d5/d72/classLSM1x0A__LoRaWAN.html#a9d9285c43414337a0ccb3a6cd7ca06e6" target="_top" xlink:title="Configures the number of retries for Confirmed uplinks.">
<polygon fill="white" stroke="#666666" points="1028.62,-274 864.12,-274 864.12,-242 1028.62,-242 1028.62,-274"/>
<text text-anchor="start" x="872.12" y="-260.5" font-family="Helvetica,sans-Serif" font-size="10.00">LSM1x0A_LoRaWAN::setConfirm</text>
<text text-anchor="middle" x="946.38" y="-248.5" font-family="Helvetica,sans-Serif" font-size="10.00">Retry</text>
</a>
</g>
</g>
<!-- Node16&#45;&gt;Node19 -->
<g id="edge26_Node000016_Node000019" class="edge">
<title>Node16&#45;&gt;Node19</title>
<g id="a_edge26_Node000016_Node000019"><a xlink:title=" ">
<path fill="none" stroke="#63b8ff" d="M743.68,-506.7C751.05,-463.28 777.2,-344.03 849.5,-283 850.99,-281.74 852.54,-280.55 854.13,-279.41"/>
<polygon fill="#63b8ff" stroke="#63b8ff" points="855.75,-282.52 862.45,-274.32 852.1,-276.55 855.75,-282.52"/>
</a>
</g>
</g>
<!-- Node20 -->
<g id="Node000020" class="node">
<title>Node20</title>
<g id="a_Node000020"><a xlink:href="../../d5/d72/classLSM1x0A__LoRaWAN.html#a56345ceeafa0b9059d6de4e69eddc82e" target="_top" xlink:title="Sets the Data Rate (DR) of the module.">
<polygon fill="white" stroke="#666666" points="1032.38,-892 860.38,-892 860.38,-872 1032.38,-872 1032.38,-892"/>
<text text-anchor="middle" x="946.38" y="-878.5" font-family="Helvetica,sans-Serif" font-size="10.00">LSM1x0A_LoRaWAN::setDataRate</text>
</a>
</g>
</g>
<!-- Node16&#45;&gt;Node20 -->
<g id="edge28_Node000016_Node000020" class="edge">
<title>Node16&#45;&gt;Node20</title>
<g id="a_edge28_Node000016_Node000020"><a xlink:title=" ">
<path fill="none" stroke="#63b8ff" d="M741.05,-539.16C741.29,-593.93 749.94,-774.06 849.5,-863 850.45,-863.85 851.42,-864.66 852.42,-865.44"/>
<polygon fill="#63b8ff" stroke="#63b8ff" points="850.45,-868.34 860.75,-870.83 854.25,-862.46 850.45,-868.34"/>
</a>
</g>
</g>
<!-- Node21 -->
<g id="Node000021" class="node">
<title>Node21</title>
<g id="a_Node000021"><a xlink:href="../../d5/d72/classLSM1x0A__LoRaWAN.html#a8494083816ab885cb07fc3b08de029f4" target="_top" xlink:title="Sets the LoRaWAN Device Address (DevAddr) for ABP mode.">
<polygon fill="white" stroke="#666666" points="1030.5,-854 862.25,-854 862.25,-834 1030.5,-834 1030.5,-854"/>
<text text-anchor="middle" x="946.38" y="-840.5" font-family="Helvetica,sans-Serif" font-size="10.00">LSM1x0A_LoRaWAN::setDevAddr</text>
</a>
</g>
</g>
<!-- Node16&#45;&gt;Node21 -->
<g id="edge30_Node000016_Node000021" class="edge">
<title>Node16&#45;&gt;Node21</title>
<g id="a_edge30_Node000016_Node000021"><a xlink:title=" ">
<path fill="none" stroke="#63b8ff" d="M741.78,-539.15C744.37,-589.92 759.62,-747.57 849.5,-825 850.62,-825.97 851.78,-826.89 852.96,-827.77"/>
<polygon fill="#63b8ff" stroke="#63b8ff" points="850.98,-830.65 861.32,-832.93 854.65,-824.7 850.98,-830.65"/>
</a>
</g>
</g>
<!-- Node22 -->
<g id="Node000022" class="node">
<title>Node22</title>
<g id="a_Node000022"><a xlink:href="../../d5/d72/classLSM1x0A__LoRaWAN.html#ad320634e52d7ea907043cc50dd37c5b0" target="_top" xlink:title="Sets the LoRaWAN Device EUI (DevEUI).">
<polygon fill="white" stroke="#666666" points="1029,-816 863.75,-816 863.75,-796 1029,-796 1029,-816"/>
<text text-anchor="middle" x="946.38" y="-802.5" font-family="Helvetica,sans-Serif" font-size="10.00">LSM1x0A_LoRaWAN::setDevEUI</text>
</a>
</g>
</g>
<!-- Node16&#45;&gt;Node22 -->
<g id="edge32_Node000016_Node000022" class="edge">
<title>Node16&#45;&gt;Node22</title>
<g id="a_edge32_Node000016_Node000022"><a xlink:title=" ">
<path fill="none" stroke="#63b8ff" d="M742.74,-539.44C747.89,-586.24 769.37,-721.05 849.5,-787 850.99,-788.22 852.53,-789.38 854.12,-790.46"/>
<polygon fill="#63b8ff" stroke="#63b8ff" points="851.98,-793.27 862.4,-795.21 855.47,-787.2 851.98,-793.27"/>
</a>
</g>
</g>
<!-- Node23 -->
<g id="Node000023" class="node">
<title>Node23</title>
<g id="a_Node000023"><a xlink:href="../../d5/d72/classLSM1x0A__LoRaWAN.html#a031023b0d2dd5db3c51c2db6ae7801cc" target="_top" xlink:title="Enables or disables the Duty Cycle limitation (EU regions mostly).">
<polygon fill="white" stroke="#666666" points="1021.88,-778 870.88,-778 870.88,-746 1021.88,-746 1021.88,-778"/>
<text text-anchor="start" x="878.88" y="-764.5" font-family="Helvetica,sans-Serif" font-size="10.00">LSM1x0A_LoRaWAN::setDuty</text>
<text text-anchor="middle" x="946.38" y="-752.5" font-family="Helvetica,sans-Serif" font-size="10.00">Cycle</text>
</a>
</g>
</g>
<!-- Node16&#45;&gt;Node23 -->
<g id="edge34_Node000016_Node000023" class="edge">
<title>Node16&#45;&gt;Node23</title>
<g id="a_edge34_Node000016_Node000023"><a xlink:title=" ">
<path fill="none" stroke="#63b8ff" d="M744.65,-539.3C753.9,-579.44 783.39,-683.67 849.5,-737 852.94,-739.78 856.66,-742.25 860.56,-744.44"/>
<polygon fill="#63b8ff" stroke="#63b8ff" points="858.71,-747.44 869.23,-748.7 861.8,-741.15 858.71,-747.44"/>
</a>
</g>
</g>
<!-- Node24 -->
<g id="Node000024" class="node">
<title>Node24</title>
<g id="a_Node000024"><a xlink:href="../../d5/d72/classLSM1x0A__LoRaWAN.html#a6b179d5825c49af0f391dfc539912f64" target="_top" xlink:title="Sets the delay for the Join1 receive window.">
<polygon fill="white" stroke="#666666" points="1023,-728 869.75,-728 869.75,-696 1023,-696 1023,-728"/>
<text text-anchor="start" x="877.75" y="-714.5" font-family="Helvetica,sans-Serif" font-size="10.00">LSM1x0A_LoRaWAN::setJoin1</text>
<text text-anchor="middle" x="946.38" y="-702.5" font-family="Helvetica,sans-Serif" font-size="10.00">Delay</text>
</a>
</g>
</g>
<!-- Node16&#45;&gt;Node24 -->
<g id="edge36_Node000016_Node000024" class="edge">
<title>Node16&#45;&gt;Node24</title>
<g id="a_edge36_Node000016_Node000024"><a xlink:title=" ">
<path fill="none" stroke="#63b8ff" d="M747.34,-539.39C760.56,-572.62 795.13,-648.08 849.5,-687 852.67,-689.27 856.04,-691.34 859.53,-693.21"/>
<polygon fill="#63b8ff" stroke="#63b8ff" points="857.78,-696.26 868.32,-697.38 860.78,-689.93 857.78,-696.26"/>
</a>
</g>
</g>
<!-- Node25 -->
<g id="Node000025" class="node">
<title>Node25</title>
<g id="a_Node000025"><a xlink:href="../../d5/d72/classLSM1x0A__LoRaWAN.html#a4545d0caad41558cdb9bae8286b104d8" target="_top" xlink:title="Sets the delay for the Join2 receive window.">
<polygon fill="white" stroke="#666666" points="1023,-678 869.75,-678 869.75,-646 1023,-646 1023,-678"/>
<text text-anchor="start" x="877.75" y="-664.5" font-family="Helvetica,sans-Serif" font-size="10.00">LSM1x0A_LoRaWAN::setJoin2</text>
<text text-anchor="middle" x="946.38" y="-652.5" font-family="Helvetica,sans-Serif" font-size="10.00">Delay</text>
</a>
</g>
</g>
<!-- Node16&#45;&gt;Node25 -->
<g id="edge38_Node000016_Node000025" class="edge">
<title>Node16&#45;&gt;Node25</title>
<g id="a_edge38_Node000016_Node000025"><a xlink:title=" ">
<path fill="none" stroke="#63b8ff" d="M752.14,-539.33C769.65,-564.27 806.49,-611.61 849.5,-637 852.51,-638.78 855.65,-640.43 858.88,-641.97"/>
<polygon fill="#63b8ff" stroke="#63b8ff" points="857.48,-645.18 868.05,-645.9 860.24,-638.74 857.48,-645.18"/>
</a>
</g>
</g>
<!-- Node26 -->
<g id="Node000026" class="node">
<title>Node26</title>
<g id="a_Node000026"><a xlink:href="../../d5/d72/classLSM1x0A__LoRaWAN.html#a06bd50723ec1eb7e144c9141b2ec86fc" target="_top" xlink:title="Sets the LoRaWAN Network ID (NetID).">
<polygon fill="white" stroke="#666666" points="1026.75,-628 866,-628 866,-608 1026.75,-608 1026.75,-628"/>
<text text-anchor="middle" x="946.38" y="-614.5" font-family="Helvetica,sans-Serif" font-size="10.00">LSM1x0A_LoRaWAN::setNwkID</text>
</a>
</g>
</g>
<!-- Node16&#45;&gt;Node26 -->
<g id="edge40_Node000016_Node000026" class="edge">
<title>Node16&#45;&gt;Node26</title>
<g id="a_edge40_Node000016_Node000026"><a xlink:title=" ">
<path fill="none" stroke="#63b8ff" d="M759.35,-539.34C779.76,-556.84 814.66,-584.11 849.5,-599 854.1,-600.97 858.91,-602.73 863.83,-604.32"/>
<polygon fill="#63b8ff" stroke="#63b8ff" points="862.67,-607.63 873.26,-607.08 864.64,-600.91 862.67,-607.63"/>
</a>
</g>
</g>
<!-- Node27 -->
<g id="Node000027" class="node">
<title>Node27</title>
<g id="a_Node000027"><a xlink:href="../../d5/d72/classLSM1x0A__LoRaWAN.html#aa70ada64d28ecca216bb62268e502adf" target="_top" xlink:title="Sets the delay for the RX1 receive window.">
<polygon fill="white" stroke="#666666" points="1033.12,-590 859.62,-590 859.62,-570 1033.12,-570 1033.12,-590"/>
<text text-anchor="middle" x="946.38" y="-576.5" font-family="Helvetica,sans-Serif" font-size="10.00">LSM1x0A_LoRaWAN::setRx1Delay</text>
</a>
</g>
</g>
<!-- Node16&#45;&gt;Node27 -->
<g id="edge42_Node000016_Node000027" class="edge">
<title>Node16&#45;&gt;Node27</title>
<g id="a_edge42_Node000016_Node000027"><a xlink:title=" ">
<path fill="none" stroke="#63b8ff" d="M783.74,-539.49C803.52,-546.76 827.5,-554.99 849.5,-561 857.58,-563.21 866.11,-565.27 874.62,-567.16"/>
<polygon fill="#63b8ff" stroke="#63b8ff" points="873.75,-570.55 884.26,-569.23 875.22,-563.71 873.75,-570.55"/>
</a>
</g>
</g>
<!-- Node28 -->
<g id="Node000028" class="node">
<title>Node28</title>
<g id="a_Node000028"><a xlink:href="../../d5/d72/classLSM1x0A__LoRaWAN.html#a2cf4eff0181b6107d082bccefa24217b" target="_top" xlink:title="Sets the Data Rate (DR) specifically for the RX2 window.">
<polygon fill="white" stroke="#666666" points="1041.38,-552 851.38,-552 851.38,-532 1041.38,-532 1041.38,-552"/>
<text text-anchor="middle" x="946.38" y="-538.5" font-family="Helvetica,sans-Serif" font-size="10.00">LSM1x0A_LoRaWAN::setRx2DataRate</text>
</a>
</g>
</g>
<!-- Node16&#45;&gt;Node28 -->
<g id="edge44_Node000016_Node000028" class="edge">
<title>Node16&#45;&gt;Node28</title>
<g id="a_edge44_Node000016_Node000028"><a xlink:title=" ">
<path fill="none" stroke="#63b8ff" d="M813.79,-529.75C822.16,-530.53 830.81,-531.34 839.51,-532.15"/>
<polygon fill="#63b8ff" stroke="#63b8ff" points="839.14,-535.63 849.43,-533.07 839.79,-528.66 839.14,-535.63"/>
</a>
</g>
</g>
<!-- Node29 -->
<g id="Node000029" class="node">
<title>Node29</title>
<g id="a_Node000029"><a xlink:href="../../d5/d72/classLSM1x0A__LoRaWAN.html#a42d2137b475b57e19d891a5f1ac93221" target="_top" xlink:title="Sets the delay for the RX2 receive window.">
<polygon fill="white" stroke="#666666" points="1033.12,-514 859.62,-514 859.62,-494 1033.12,-494 1033.12,-514"/>
<text text-anchor="middle" x="946.38" y="-500.5" font-family="Helvetica,sans-Serif" font-size="10.00">LSM1x0A_LoRaWAN::setRx2Delay</text>
</a>
</g>
</g>
<!-- Node16&#45;&gt;Node29 -->
<g id="edge46_Node000016_Node000029" class="edge">
<title>Node16&#45;&gt;Node29</title>
<g id="a_edge46_Node000016_Node000029"><a xlink:title=" ">
<path fill="none" stroke="#63b8ff" d="M813.79,-516.25C824.99,-515.21 836.72,-514.11 848.35,-513.03"/>
<polygon fill="#63b8ff" stroke="#63b8ff" points="848.32,-516.55 857.95,-512.14 847.67,-509.58 848.32,-516.55"/>
</a>
</g>
</g>
<!-- Node30 -->
<g id="Node000030" class="node">
<title>Node30</title>
<g id="a_Node000030"><a xlink:href="../../d5/d72/classLSM1x0A__LoRaWAN.html#a689f7dfda1dfeae11ea397c2ddf2ad37" target="_top" xlink:title="Sets the precise frequency for the RX2 window.">
<polygon fill="white" stroke="#666666" points="1043.25,-476 849.5,-476 849.5,-456 1043.25,-456 1043.25,-476"/>
<text text-anchor="middle" x="946.38" y="-462.5" font-family="Helvetica,sans-Serif" font-size="10.00">LSM1x0A_LoRaWAN::setRx2Frequency</text>
</a>
</g>
</g>
<!-- Node16&#45;&gt;Node30 -->
<g id="edge48_Node000016_Node000030" class="edge">
<title>Node16&#45;&gt;Node30</title>
<g id="a_edge48_Node000016_Node000030"><a xlink:title=" ">
<path fill="none" stroke="#63b8ff" d="M783.74,-506.51C803.52,-499.24 827.5,-491.01 849.5,-485 857.58,-482.79 866.11,-480.73 874.62,-478.84"/>
<polygon fill="#63b8ff" stroke="#63b8ff" points="875.22,-482.29 884.26,-476.77 873.75,-475.45 875.22,-482.29"/>
</a>
</g>
</g>
<!-- Node31 -->
<g id="Node000031" class="node">
<title>Node31</title>
<g id="a_Node000031"><a xlink:href="../../d5/d72/classLSM1x0A__LoRaWAN.html#a1df10d7ae6bf45b537d28d3d5c4b88d7" target="_top" xlink:title="Sets the transmission power index.">
<polygon fill="white" stroke="#666666" points="1030.88,-438 861.88,-438 861.88,-418 1030.88,-418 1030.88,-438"/>
<text text-anchor="middle" x="946.38" y="-424.5" font-family="Helvetica,sans-Serif" font-size="10.00">LSM1x0A_LoRaWAN::setTxPower</text>
</a>
</g>
</g>
<!-- Node16&#45;&gt;Node31 -->
<g id="edge50_Node000016_Node000031" class="edge">
<title>Node16&#45;&gt;Node31</title>
<g id="a_edge50_Node000016_Node000031"><a xlink:title=" ">
<path fill="none" stroke="#63b8ff" d="M759.35,-506.66C779.76,-489.16 814.66,-461.89 849.5,-447 854.1,-445.03 858.91,-443.27 863.83,-441.68"/>
<polygon fill="#63b8ff" stroke="#63b8ff" points="864.64,-445.09 873.26,-438.92 862.67,-438.37 864.64,-445.09"/>
</a>
</g>
</g>
<!-- Node32 -->
<g id="Node000032" class="node">
<title>Node32</title>
<g id="a_Node000032"><a xlink:href="../../d5/d72/classLSM1x0A__LoRaWAN.html#a059fd6a9356c4ecadd5a98294da5952d" target="_top" xlink:title="Configures the number of repetitions for Unconfirmed uplinks.">
<polygon fill="white" stroke="#666666" points="1033.88,-400 858.88,-400 858.88,-368 1033.88,-368 1033.88,-400"/>
<text text-anchor="start" x="866.88" y="-386.5" font-family="Helvetica,sans-Serif" font-size="10.00">LSM1x0A_LoRaWAN::setUnconfirm</text>
<text text-anchor="middle" x="946.38" y="-374.5" font-family="Helvetica,sans-Serif" font-size="10.00">Retry</text>
</a>
</g>
</g>
<!-- Node16&#45;&gt;Node32 -->
<g id="edge52_Node000016_Node000032" class="edge">
<title>Node16&#45;&gt;Node32</title>
<g id="a_edge52_Node000016_Node000032"><a xlink:title=" ">
<path fill="none" stroke="#63b8ff" d="M752.14,-506.67C769.65,-481.73 806.49,-434.39 849.5,-409 851.81,-407.64 854.2,-406.34 856.64,-405.12"/>
<polygon fill="#63b8ff" stroke="#63b8ff" points="857.9,-408.4 865.58,-401.1 855.03,-402.01 857.9,-408.4"/>
</a>
</g>
</g>
<!-- Node17&#45;&gt;Node10 -->
<g id="edge22_Node000017_Node000010" class="edge">
<title>Node17&#45;&gt;Node10</title>
<g id="a_edge22_Node000017_Node000010"><a xlink:title=" ">
<path fill="none" stroke="#63b8ff" d="M1022.65,-348.53C1029.97,-351.2 1036.99,-354.62 1043.25,-359 1098.84,-397.86 1131.69,-474.26 1145.99,-514.97"/>
<polygon fill="#63b8ff" stroke="#63b8ff" points="1142.61,-515.89 1149.12,-524.24 1149.24,-513.65 1142.61,-515.89"/>
</a>
</g>
</g>
<!-- Node18&#45;&gt;Node10 -->
<g id="edge24_Node000018_Node000010" class="edge">
<title>Node18&#45;&gt;Node10</title>
<g id="a_edge24_Node000018_Node000010"><a xlink:title=" ">
<path fill="none" stroke="#63b8ff" d="M1023.02,-310.03C1030.27,-312.79 1037.17,-316.38 1043.25,-321 1107.87,-370.13 1137.71,-467.16 1148.91,-514.6"/>
<polygon fill="#63b8ff" stroke="#63b8ff" points="1145.42,-515.06 1151.03,-524.05 1152.25,-513.53 1145.42,-515.06"/>
</a>
</g>
</g>
<!-- Node19&#45;&gt;Node10 -->
<g id="edge27_Node000019_Node000010" class="edge">
<title>Node19&#45;&gt;Node10</title>
<g id="a_edge27_Node000019_Node000010"><a xlink:title=" ">
<path fill="none" stroke="#63b8ff" d="M1029.08,-273.44C1034.16,-276.14 1038.95,-279.3 1043.25,-283 1115.2,-344.86 1141.98,-461.59 1150.74,-514.59"/>
<polygon fill="#63b8ff" stroke="#63b8ff" points="1147.25,-514.92 1152.24,-524.26 1154.17,-513.84 1147.25,-514.92"/>
</a>
</g>
</g>
<!-- Node20&#45;&gt;Node10 -->
<g id="edge29_Node000020_Node000010" class="edge">
<title>Node20&#45;&gt;Node10</title>
<g id="a_edge29_Node000020_Node000010"><a xlink:title=" ">
<path fill="none" stroke="#63b8ff" d="M1030.69,-871.6C1035.2,-869.21 1039.44,-866.37 1043.25,-863 1081.48,-829.22 1062.72,-802.26 1079.25,-754 1102.06,-687.42 1130.05,-609.52 1144.62,-569.23"/>
<polygon fill="#63b8ff" stroke="#63b8ff" points="1147.89,-570.47 1148.01,-559.87 1141.31,-568.08 1147.89,-570.47"/>
</a>
</g>
</g>
<!-- Node21&#45;&gt;Node10 -->
<g id="edge31_Node000021_Node000010" class="edge">
<title>Node21&#45;&gt;Node10</title>
<g id="a_edge31_Node000021_Node000010"><a xlink:title=" ">
<path fill="none" stroke="#63b8ff" d="M1030.02,-833.58C1034.75,-831.21 1039.21,-828.37 1043.25,-825 1064.03,-807.64 1122.94,-636.39 1145.53,-569.02"/>
<polygon fill="#63b8ff" stroke="#63b8ff" points="1148.74,-570.45 1148.59,-559.86 1142.1,-568.24 1148.74,-570.45"/>
</a>
</g>
</g>
<!-- Node22&#45;&gt;Node10 -->
<g id="edge33_Node000022_Node000010" class="edge">
<title>Node22&#45;&gt;Node10</title>
<g id="a_edge33_Node000022_Node000010"><a xlink:title=" ">
<path fill="none" stroke="#63b8ff" d="M1029.36,-795.56C1034.3,-793.2 1038.99,-790.37 1043.25,-787 1113.75,-731.13 1141.14,-620.69 1150.38,-569.39"/>
<polygon fill="#63b8ff" stroke="#63b8ff" points="1153.79,-570.18 1152.01,-559.74 1146.89,-569.01 1153.79,-570.18"/>
</a>
</g>
</g>
<!-- Node23&#45;&gt;Node10 -->
<g id="edge35_Node000023_Node000010" class="edge">
<title>Node23&#45;&gt;Node10</title>
<g id="a_edge35_Node000023_Node000010"><a xlink:title=" ">
<path fill="none" stroke="#63b8ff" d="M1021.91,-749.05C1029.54,-745.87 1036.83,-741.92 1043.25,-737 1100.24,-693.34 1132.81,-611.57 1146.6,-569.12"/>
<polygon fill="#63b8ff" stroke="#63b8ff" points="1149.9,-570.29 1149.55,-559.7 1143.22,-568.2 1149.9,-570.29"/>
</a>
</g>
</g>
<!-- Node24&#45;&gt;Node10 -->
<g id="edge37_Node000024_Node000010" class="edge">
<title>Node24&#45;&gt;Node10</title>
<g id="a_edge37_Node000024_Node000010"><a xlink:title=" ">
<path fill="none" stroke="#63b8ff" d="M1023.24,-697.37C1030.29,-694.51 1037.09,-691.09 1043.25,-687 1089.06,-656.61 1123.82,-600.94 1141.5,-568.13"/>
<polygon fill="#63b8ff" stroke="#63b8ff" points="1144.39,-570.16 1145.93,-559.68 1138.19,-566.91 1144.39,-570.16"/>
</a>
</g>
</g>
<!-- Node25&#45;&gt;Node10 -->
<g id="edge39_Node000025_Node000010" class="edge">
<title>Node25&#45;&gt;Node10</title>
<g id="a_edge39_Node000025_Node000010"><a xlink:title=" ">
<path fill="none" stroke="#63b8ff" d="M1023.43,-645.62C1030.29,-643.12 1037,-640.26 1043.25,-637 1078.04,-618.85 1111.35,-588.01 1132.31,-566.4"/>
<polygon fill="#63b8ff" stroke="#63b8ff" points="1134.58,-569.1 1138.93,-559.44 1129.5,-564.27 1134.58,-569.1"/>
</a>
</g>
</g>
<!-- Node26&#45;&gt;Node10 -->
<g id="edge41_Node000026_Node000010" class="edge">
<title>Node26&#45;&gt;Node10</title>
<g id="a_edge41_Node000026_Node000010"><a xlink:title=" ">
<path fill="none" stroke="#63b8ff" d="M1013.01,-607.52C1023.26,-605.16 1033.63,-602.34 1043.25,-599 1069.32,-589.94 1096.95,-575.81 1118.15,-563.89"/>
<polygon fill="#63b8ff" stroke="#63b8ff" points="1119.75,-567 1126.69,-559 1116.27,-560.93 1119.75,-567"/>
</a>
</g>
</g>
<!-- Node27&#45;&gt;Node10 -->
<g id="edge43_Node000027_Node000010" class="edge">
<title>Node27&#45;&gt;Node10</title>
<g id="a_edge43_Node000027_Node000010"><a xlink:title=" ">
<path fill="none" stroke="#63b8ff" d="M1004.52,-569.52C1031.36,-564.59 1063.44,-558.71 1091.03,-553.64"/>
<polygon fill="#63b8ff" stroke="#63b8ff" points="1091.46,-557.12 1100.66,-551.88 1090.19,-550.24 1091.46,-557.12"/>
</a>
</g>
</g>
<!-- Node28&#45;&gt;Node10 -->
<g id="edge45_Node000028_Node000010" class="edge">
<title>Node28&#45;&gt;Node10</title>
<g id="a_edge45_Node000028_Node000010"><a xlink:title=" ">
<path fill="none" stroke="#63b8ff" d="M1041.85,-542C1058.34,-542 1075.14,-542 1090.57,-542"/>
<polygon fill="#63b8ff" stroke="#63b8ff" points="1090.55,-545.5 1100.55,-542 1090.55,-538.5 1090.55,-545.5"/>
</a>
</g>
</g>
<!-- Node29&#45;&gt;Node10 -->
<g id="edge47_Node000029_Node000010" class="edge">
<title>Node29&#45;&gt;Node10</title>
<g id="a_edge47_Node000029_Node000010"><a xlink:title=" ">
<path fill="none" stroke="#63b8ff" d="M1004.52,-514.48C1031.36,-519.41 1063.44,-525.29 1091.03,-530.36"/>
<polygon fill="#63b8ff" stroke="#63b8ff" points="1090.19,-533.76 1100.66,-532.12 1091.46,-526.88 1090.19,-533.76"/>
</a>
</g>
</g>
<!-- Node30&#45;&gt;Node10 -->
<g id="edge49_Node000030_Node000010" class="edge">
<title>Node30&#45;&gt;Node10</title>
<g id="a_edge49_Node000030_Node000010"><a xlink:title=" ">
<path fill="none" stroke="#63b8ff" d="M1013.01,-476.48C1023.26,-478.84 1033.63,-481.66 1043.25,-485 1069.32,-494.06 1096.95,-508.19 1118.15,-520.11"/>
<polygon fill="#63b8ff" stroke="#63b8ff" points="1116.27,-523.07 1126.69,-525 1119.75,-517 1116.27,-523.07"/>
</a>
</g>
</g>
<!-- Node31&#45;&gt;Node10 -->
<g id="edge51_Node000031_Node000010" class="edge">
<title>Node31&#45;&gt;Node10</title>
<g id="a_edge51_Node000031_Node000010"><a xlink:title=" ">
<path fill="none" stroke="#63b8ff" d="M1020.64,-438.43C1028.46,-440.74 1036.15,-443.56 1043.25,-447 1078.76,-464.21 1112.15,-495.52 1132.91,-517.48"/>
<polygon fill="#63b8ff" stroke="#63b8ff" points="1130.1,-519.6 1139.46,-524.57 1135.24,-514.85 1130.1,-519.6"/>
</a>
</g>
</g>
<!-- Node32&#45;&gt;Node10 -->
<g id="edge53_Node000032_Node000010" class="edge">
<title>Node32&#45;&gt;Node10</title>
<g id="a_edge53_Node000032_Node000010"><a xlink:title=" ">
<path fill="none" stroke="#63b8ff" d="M1026.5,-400.31C1032.36,-402.81 1038.02,-405.69 1043.25,-409 1086.24,-436.23 1120.97,-485.5 1139.6,-515.83"/>
<polygon fill="#63b8ff" stroke="#63b8ff" points="1136.59,-517.61 1144.73,-524.4 1142.6,-514.02 1136.59,-517.61"/>
</a>
</g>
</g>
<!-- Node34&#45;&gt;Node11 -->
<g id="edge56_Node000034_Node000011" class="edge">
<title>Node34&#45;&gt;Node11</title>
<g id="a_edge56_Node000034_Node000011"><a xlink:title=" ">
<path fill="none" stroke="#63b8ff" d="M1170.07,-762.71C1205.44,-720.24 1300.34,-606.28 1338.08,-560.97"/>
<polygon fill="#63b8ff" stroke="#63b8ff" points="1340.55,-563.47 1344.26,-553.55 1335.17,-558.99 1340.55,-563.47"/>
</a>
</g>
</g>
</g>
</svg>

<g id="navigator" transform="translate(0 0)" fill="#404254">
  <rect fill="#f2f5e9" fill-opacity="0.5" stroke="#606060" stroke-width=".5" x="0" y="0" width="60" height="60"/>
  <use id="zoomplus" xlink:href="#zoomPlus" x="17" y="9" onmousedown="handleZoom(evt,'in')"/>
  <use id="zoomminus" xlink:href="#zoomMin" x="42" y="9" onmousedown="handleZoom(evt,'out')"/>
  <use id="reset" xlink:href="#resetDef" x="30" y="36" onmousedown="handleReset()"/>
   <use id="arrowup" xlink:href="#arrowUp" x="0" y="0" onmousedown="handlePan(0,-1)"/>
  <use id="arrowright" xlink:href="#arrowRight" x="0" y="0" onmousedown="handlePan(1,0)"/>
  <use id="arrowdown" xlink:href="#arrowDown" x="0" y="0" onmousedown="handlePan(0,1)"/>
  <use id="arrowleft" xlink:href="#arrowLeft" x="0" y="0" onmousedown="handlePan(-1,0)"/>
</g>
<svg viewBox="0 0 15 15" width="100%" height="30px" preserveAspectRatio="xMaxYMin meet">
 <g id="arrow_out" transform="scale(0.3 0.3)">
  <a xlink:href="classLSM1x0A__Controller_a1cd4a3f37fced190f4976b9a25aaf7d2_cgraph_org.svg" target="_base">
   <rect id="button" ry="5" rx="5" y="6" x="6" height="38" width="38"
        fill="#f2f5e9" fill-opacity="0.5" stroke="#606060" stroke-width="1.0"/>
   <path id="arrow"
     d="M 11.500037,31.436501 C 11.940474,20.09759 22.043105,11.32322 32.158766,21.979434 L 37.068811,17.246167 C 37.068811,17.246167 37.088388,32 37.088388,32 L 22.160133,31.978069 C 22.160133,31.978069 26.997745,27.140456 26.997745,27.140456 C 18.528582,18.264221 13.291696,25.230495 11.500037,31.436501 z"
     style="fill:#404040;"/>
  </a>
 </g>
</svg>

<style type='text/css'>
<![CDATA[
[data-mouse-over-selected='false'] { opacity: 0.7; }
[data-mouse-over-selected='true']  { opacity: 1.0; }
]]>
</style>
<script type="application/ecmascript"><![CDATA[
document.addEventListener('DOMContentLoaded', (event) => {
  highlightEdges();
  highlightAdjacentNodes();
});
]]></script>
</svg>
