<?xml version="1.0" encoding="UTF-8" standalone="no"?>
<!DOCTYPE svg PUBLIC "-//W3C//DTD SVG 1.1//EN"
 "http://www.w3.org/Graphics/SVG/1.1/DTD/svg11.dtd">
<!-- Generated by graphviz version 12.2.1 (20241206.2353)
 -->
<!-- Title: LSM1x0A_Controller::sendCommand Pages: 1 -->
<svg width="1095pt" height="1143pt"
 viewBox="0.00 0.00 1094.75 1143.11" xmlns="http://www.w3.org/2000/svg" xmlns:xlink="http://www.w3.org/1999/xlink">
<g id="graph0" class="graph" transform="scale(1 1) rotate(0) translate(4 1139.11)">
<title>LSM1x0A_Controller::sendCommand</title>
<!-- Node1 -->
<g id="Node000001" class="node">
<title>Node1</title>
<g id="a_Node000001"><a xlink:title="Sends any AT command to the module, returning error if it fails. Internally uses the LsmAtParser logi...">
<polygon fill="#999999" stroke="#666666" points="106,-496.95 0,-496.95 0,-464.95 106,-464.95 106,-496.95"/>
<text text-anchor="start" x="8" y="-483.45" font-family="Helvetica,sans-Serif" font-size="10.00">LSM1x0A_Controller</text>
<text text-anchor="middle" x="53" y="-471.45" font-family="Helvetica,sans-Serif" font-size="10.00">::sendCommand</text>
</a>
</g>
</g>
<!-- Node2 -->
<g id="Node000002" class="node">
<title>Node2</title>
<g id="a_Node000002"><a xlink:href="../../d8/d92/classLSM1x0A__Controller.html#abb0eb380daa3dfb7acffb483c5db8e2b" target="_top" xlink:title="Executes the recovery protocol. First Soft&#45;Reset (ATZ), then Hard&#45;Reset if there is a pin.">
<polygon fill="white" stroke="#666666" points="248,-938.95 142,-938.95 142,-906.95 248,-906.95 248,-938.95"/>
<text text-anchor="start" x="150" y="-925.45" font-family="Helvetica,sans-Serif" font-size="10.00">LSM1x0A_Controller</text>
<text text-anchor="middle" x="195" y="-913.45" font-family="Helvetica,sans-Serif" font-size="10.00">::recoverModule</text>
</a>
</g>
</g>
<!-- Node1&#45;&gt;Node2 -->
<g id="edge1_Node000001_Node000002" class="edge">
<title>Node1&#45;&gt;Node2</title>
<g id="a_edge1_Node000001_Node000002"><a xlink:title=" ">
<path fill="none" stroke="#63b8ff" d="M57.55,-497.39C68.11,-545.46 101.16,-689.56 142,-804.95 153.35,-837.01 169.54,-872.58 180.83,-896.2"/>
<polygon fill="#63b8ff" stroke="#63b8ff" points="177.63,-897.62 185.13,-905.1 183.93,-894.57 177.63,-897.62"/>
</a>
</g>
</g>
<!-- Node30 -->
<g id="Node000030" class="node">
<title>Node30</title>
<g id="a_Node000030"><a xlink:href="../../d6/d3c/classLSM1x0A__AtParser.html#a29b53c521974387ba6c03afadfaffa4a" target="_top" xlink:title="Sends a simple command and waits for OK/ERROR. Example: sendCommand(&quot;AT+JOIN&quot;);.">
<polygon fill="white" stroke="#666666" points="662.5,-1118.95 488.25,-1118.95 488.25,-1098.95 662.5,-1098.95 662.5,-1118.95"/>
<text text-anchor="middle" x="575.38" y="-1105.45" font-family="Helvetica,sans-Serif" font-size="10.00">LSM1x0A_AtParser::sendCommand</text>
</a>
</g>
</g>
<!-- Node1&#45;&gt;Node30 -->
<g id="edge54_Node000001_Node000030" class="edge">
<title>Node1&#45;&gt;Node30</title>
<g id="a_edge54_Node000001_Node000030"><a xlink:title=" ">
<path fill="none" stroke="#63b8ff" d="M54.06,-497.2C54.88,-559.15 63.42,-785.25 142,-947.95 183.93,-1034.77 196.31,-1071.88 284,-1111.95 361.76,-1147.48 463.91,-1134.62 524.02,-1121.89"/>
<polygon fill="#63b8ff" stroke="#63b8ff" points="524.61,-1125.34 533.62,-1119.77 523.1,-1118.51 524.61,-1125.34"/>
</a>
</g>
</g>
<!-- Node3 -->
<g id="Node000003" class="node">
<title>Node3</title>
<g id="a_Node000003"><a xlink:href="../../d8/d92/classLSM1x0A__Controller.html#a3f6f25b843fe4fb7042c544deae2ab16" target="_top" xlink:title="Manually clears bits from the internal EventGroup.">
<polygon fill="white" stroke="#666666" points="856.25,-957.95 750.25,-957.95 750.25,-925.95 856.25,-925.95 856.25,-957.95"/>
<text text-anchor="start" x="758.25" y="-944.45" font-family="Helvetica,sans-Serif" font-size="10.00">LSM1x0A_Controller</text>
<text text-anchor="middle" x="803.25" y="-932.45" font-family="Helvetica,sans-Serif" font-size="10.00">::clearEvents</text>
</a>
</g>
</g>
<!-- Node2&#45;&gt;Node3 -->
<g id="edge2_Node000002_Node000003" class="edge">
<title>Node2&#45;&gt;Node3</title>
<g id="a_edge2_Node000002_Node000003"><a xlink:title=" ">
<path fill="none" stroke="#63b8ff" d="M212.08,-939.29C228.5,-954.72 255.56,-976.82 284,-985.95 443.57,-1037.18 644.16,-991 742.43,-961.72"/>
<polygon fill="#63b8ff" stroke="#63b8ff" points="743.32,-965.11 751.87,-958.86 741.29,-958.41 743.32,-965.11"/>
</a>
</g>
</g>
<!-- Node4 -->
<g id="Node000004" class="node">
<title>Node4</title>
<g id="a_Node000004"><a xlink:href="../../d8/d92/classLSM1x0A__Controller.html#a345d4bd79fa16b18dc33a4ca788fe5f7" target="_top" xlink:title="Performs a hardware reset using the reset pin.">
<polygon fill="white" stroke="#666666" points="416.25,-938.95 310.25,-938.95 310.25,-906.95 416.25,-906.95 416.25,-938.95"/>
<text text-anchor="start" x="318.25" y="-925.45" font-family="Helvetica,sans-Serif" font-size="10.00">LSM1x0A_Controller</text>
<text text-anchor="middle" x="363.25" y="-913.45" font-family="Helvetica,sans-Serif" font-size="10.00">::hardwareReset</text>
</a>
</g>
</g>
<!-- Node2&#45;&gt;Node4 -->
<g id="edge3_Node000002_Node000004" class="edge">
<title>Node2&#45;&gt;Node4</title>
<g id="a_edge3_Node000002_Node000004"><a xlink:title=" ">
<path fill="none" stroke="#63b8ff" d="M248.15,-922.95C264.16,-922.95 281.97,-922.95 298.66,-922.95"/>
<polygon fill="#63b8ff" stroke="#63b8ff" points="298.49,-926.45 308.49,-922.95 298.49,-919.45 298.49,-926.45"/>
</a>
</g>
</g>
<!-- Node6 -->
<g id="Node000006" class="node">
<title>Node6</title>
<g id="a_Node000006"><a xlink:href="../../d5/d72/classLSM1x0A__LoRaWAN.html#a1892801e37c8cd67d37c76108d6f7d49" target="_top" xlink:title="Validates if the device is currently Joined to the network. (Either confirmed by OTAA or statically a...">
<polygon fill="white" stroke="#666666" points="1086.75,-926.95 934.25,-926.95 934.25,-906.95 1086.75,-906.95 1086.75,-926.95"/>
<text text-anchor="middle" x="1010.5" y="-913.45" font-family="Helvetica,sans-Serif" font-size="10.00">LSM1x0A_LoRaWAN::isJoined</text>
</a>
</g>
</g>
<!-- Node2&#45;&gt;Node6 -->
<g id="edge5_Node000002_Node000006" class="edge">
<title>Node2&#45;&gt;Node6</title>
<g id="a_edge5_Node000002_Node000006"><a xlink:title=" ">
<path fill="none" stroke="#63b8ff" d="M241.94,-939.25C244.08,-940.7 246.11,-942.26 248,-943.95 273.17,-966.51 254.99,-993.6 284,-1010.95 294.7,-1017.34 610.16,-1014.94 672.25,-1008.95 773.94,-999.13 800.74,-997.44 898.25,-966.95 927.08,-957.93 958.33,-943.44 980.34,-932.37"/>
<polygon fill="#63b8ff" stroke="#63b8ff" points="981.7,-935.61 989.01,-927.94 978.51,-929.38 981.7,-935.61"/>
</a>
</g>
</g>
<!-- Node7 -->
<g id="Node000007" class="node">
<title>Node7</title>
<g id="a_Node000007"><a xlink:href="../../d5/d72/classLSM1x0A__LoRaWAN.html#a83e11c0e74ff9e0757db616ab1163424" target="_top" xlink:title="Attempts to recover a lost connection (re&#45;executes OTAA Join if dropped).">
<polygon fill="white" stroke="#666666" points="437.62,-850.95 288.88,-850.95 288.88,-818.95 437.62,-818.95 437.62,-850.95"/>
<text text-anchor="start" x="296.88" y="-837.45" font-family="Helvetica,sans-Serif" font-size="10.00">LSM1x0A_LoRaWAN::recover</text>
<text text-anchor="middle" x="363.25" y="-825.45" font-family="Helvetica,sans-Serif" font-size="10.00">Connection</text>
</a>
</g>
</g>
<!-- Node2&#45;&gt;Node7 -->
<g id="edge6_Node000002_Node000007" class="edge">
<title>Node2&#45;&gt;Node7</title>
<g id="a_edge6_Node000002_Node000007"><a xlink:title=" ">
<path fill="none" stroke="#63b8ff" d="M217.97,-906.53C235.3,-894.07 260.4,-877.07 284,-864.95 290.29,-861.72 297,-858.64 303.76,-855.76"/>
<polygon fill="#63b8ff" stroke="#63b8ff" points="305.03,-859.02 312.96,-851.99 302.38,-852.55 305.03,-859.02"/>
</a>
</g>
</g>
<!-- Node11 -->
<g id="Node000011" class="node">
<title>Node11</title>
<g id="a_Node000011"><a xlink:href="../../d5/d72/classLSM1x0A__LoRaWAN.html#ae3be4ce59dfa200369733317df356e97" target="_top" xlink:title="Pushes the RAM&#45;cached variables back down into the hardware module. Restores the operational state af...">
<polygon fill="white" stroke="#666666" points="436.5,-496.95 290,-496.95 290,-464.95 436.5,-464.95 436.5,-496.95"/>
<text text-anchor="start" x="298" y="-483.45" font-family="Helvetica,sans-Serif" font-size="10.00">LSM1x0A_LoRaWAN::restore</text>
<text text-anchor="middle" x="363.25" y="-471.45" font-family="Helvetica,sans-Serif" font-size="10.00">Config</text>
</a>
</g>
</g>
<!-- Node2&#45;&gt;Node11 -->
<g id="edge15_Node000002_Node000011" class="edge">
<title>Node2&#45;&gt;Node11</title>
<g id="a_edge15_Node000002_Node000011"><a xlink:title=" ">
<path fill="none" stroke="#63b8ff" d="M202.11,-906.69C227.01,-840.5 320.92,-590.84 352.11,-507.91"/>
<polygon fill="#63b8ff" stroke="#63b8ff" points="355.3,-509.36 355.55,-498.77 348.75,-506.9 355.3,-509.36"/>
</a>
</g>
</g>
<!-- Node28 -->
<g id="Node000028" class="node">
<title>Node28</title>
<g id="a_Node000028"><a xlink:href="../../d5/d72/classLSM1x0A__LoRaWAN.html#ace4b04396f1de1f4a54f513f5f378db7" target="_top" xlink:title="Manually overrides the internal joined state tracker.">
<polygon fill="white" stroke="#666666" points="442.5,-976.95 284,-976.95 284,-956.95 442.5,-956.95 442.5,-976.95"/>
<text text-anchor="middle" x="363.25" y="-963.45" font-family="Helvetica,sans-Serif" font-size="10.00">LSM1x0A_LoRaWAN::setJoined</text>
</a>
</g>
</g>
<!-- Node2&#45;&gt;Node28 -->
<g id="edge49_Node000002_Node000028" class="edge">
<title>Node2&#45;&gt;Node28</title>
<g id="a_edge49_Node000002_Node000028"><a xlink:title=" ">
<path fill="none" stroke="#63b8ff" d="M248.49,-938.22C260.16,-941.51 272.48,-944.91 284,-947.95 291.36,-949.89 299.12,-951.86 306.79,-953.76"/>
<polygon fill="#63b8ff" stroke="#63b8ff" points="305.88,-957.14 316.43,-956.13 307.55,-950.35 305.88,-957.14"/>
</a>
</g>
</g>
<!-- Node29 -->
<g id="Node000029" class="node">
<title>Node29</title>
<g id="a_Node000029"><a xlink:href="../../d8/d92/classLSM1x0A__Controller.html#a11ad21cb5ca33ec51346764a23bd485e" target="_top" xlink:title="Performs a software reset (ATZ Command).">
<polygon fill="white" stroke="#666666" points="416.25,-1102.95 310.25,-1102.95 310.25,-1070.95 416.25,-1070.95 416.25,-1102.95"/>
<text text-anchor="start" x="318.25" y="-1089.45" font-family="Helvetica,sans-Serif" font-size="10.00">LSM1x0A_Controller</text>
<text text-anchor="middle" x="363.25" y="-1077.45" font-family="Helvetica,sans-Serif" font-size="10.00">::softwareReset</text>
</a>
</g>
</g>
<!-- Node2&#45;&gt;Node29 -->
<g id="edge50_Node000002_Node000029" class="edge">
<title>Node2&#45;&gt;Node29</title>
<g id="a_edge50_Node000002_Node000029"><a xlink:title=" ">
<path fill="none" stroke="#63b8ff" d="M202.7,-939.34C214.89,-967.25 243.25,-1024.13 284,-1056.95 288.82,-1060.83 294.19,-1064.24 299.8,-1067.25"/>
<polygon fill="#63b8ff" stroke="#63b8ff" points="298.21,-1070.36 308.73,-1071.55 301.25,-1064.06 298.21,-1070.36"/>
</a>
</g>
</g>
<!-- Node5 -->
<g id="Node000005" class="node">
<title>Node5</title>
<g id="a_Node000005"><a xlink:href="../../d6/d3c/classLSM1x0A__AtParser.html#ad2839120da13e56132b95019419be1e5" target="_top" xlink:title="Waits for an event (like BOOTALERT) without sending any command. Useful for hardware reset where the ...">
<polygon fill="white" stroke="#666666" points="645.62,-938.95 505.12,-938.95 505.12,-906.95 645.62,-906.95 645.62,-938.95"/>
<text text-anchor="start" x="513.12" y="-925.45" font-family="Helvetica,sans-Serif" font-size="10.00">LSM1x0A_AtParser::waitFor</text>
<text text-anchor="middle" x="575.38" y="-913.45" font-family="Helvetica,sans-Serif" font-size="10.00">Event</text>
</a>
</g>
</g>
<!-- Node4&#45;&gt;Node5 -->
<g id="edge4_Node000004_Node000005" class="edge">
<title>Node4&#45;&gt;Node5</title>
<g id="a_edge4_Node000004_Node000005"><a xlink:title=" ">
<path fill="none" stroke="#63b8ff" d="M416.73,-922.95C439.92,-922.95 467.72,-922.95 493.46,-922.95"/>
<polygon fill="#63b8ff" stroke="#63b8ff" points="493.22,-926.45 503.22,-922.95 493.22,-919.45 493.22,-926.45"/>
</a>
</g>
</g>
<!-- Node8 -->
<g id="Node000008" class="node">
<title>Node8</title>
<g id="a_Node000008"><a xlink:href="../../d5/d72/classLSM1x0A__LoRaWAN.html#a59f781f3cfd30c11cd3973bcb10a7baa" target="_top" xlink:title="Initiates a LoRaWAN Network Join procedure. This is a blocking function until the module fires an eve...">
<polygon fill="white" stroke="#666666" points="641.12,-844.95 509.62,-844.95 509.62,-824.95 641.12,-824.95 641.12,-844.95"/>
<text text-anchor="middle" x="575.38" y="-831.45" font-family="Helvetica,sans-Serif" font-size="10.00">LSM1x0A_LoRaWAN::join</text>
</a>
</g>
</g>
<!-- Node7&#45;&gt;Node8 -->
<g id="edge7_Node000007_Node000008" class="edge">
<title>Node7&#45;&gt;Node8</title>
<g id="a_edge7_Node000007_Node000008"><a xlink:title=" ">
<path fill="none" stroke="#63b8ff" d="M438.04,-834.95C457.41,-834.95 478.35,-834.95 497.86,-834.95"/>
<polygon fill="#63b8ff" stroke="#63b8ff" points="497.65,-838.45 507.65,-834.95 497.65,-831.45 497.65,-838.45"/>
</a>
</g>
</g>
<!-- Node8&#45;&gt;Node1 -->
<g id="edge10_Node000008_Node000001" class="edge">
<title>Node8&#45;&gt;Node1</title>
<g id="a_edge10_Node000008_Node000001"><a xlink:title=" ">
<path fill="none" stroke="#63b8ff" d="M521.15,-824.5C462.52,-812.53 365.73,-791.38 284,-766.95 219.61,-747.69 189.73,-762.27 142,-714.95 83.73,-657.18 63.53,-557.13 56.95,-508.74"/>
<polygon fill="#63b8ff" stroke="#63b8ff" points="60.43,-508.33 55.72,-498.84 53.48,-509.2 60.43,-508.33"/>
</a>
</g>
</g>
<!-- Node8&#45;&gt;Node2 -->
<g id="edge9_Node000008_Node000002" class="edge">
<title>Node8&#45;&gt;Node2</title>
<g id="a_edge9_Node000008_Node000002"><a xlink:title=" ">
<path fill="none" stroke="#63b8ff" d="M521.15,-845.44C462.74,-857.21 366.32,-877.35 284,-897.95 276.06,-899.94 267.74,-902.14 259.53,-904.39"/>
<polygon fill="#63b8ff" stroke="#63b8ff" points="258.59,-901.01 249.9,-907.06 260.47,-907.76 258.59,-901.01"/>
</a>
</g>
</g>
<!-- Node8&#45;&gt;Node3 -->
<g id="edge8_Node000008_Node000003" class="edge">
<title>Node8&#45;&gt;Node3</title>
<g id="a_edge8_Node000008_Node000003"><a xlink:title=" ">
<path fill="none" stroke="#63b8ff" d="M598.44,-845.4C635.16,-862.79 709.48,-898 757.51,-920.75"/>
<polygon fill="#63b8ff" stroke="#63b8ff" points="755.72,-923.78 766.26,-924.9 758.72,-917.45 755.72,-923.78"/>
</a>
</g>
</g>
<!-- Node9 -->
<g id="Node000009" class="node">
<title>Node9</title>
<g id="a_Node000009"><a xlink:href="../../d5/d72/classLSM1x0A__LoRaWAN.html#a3fdd1ac318a5ad2559323e5d57e36a5e" target="_top" xlink:title="Enables or disables specific sub&#45;bands for regions supporting Channel Masks (e.g.,...">
<polygon fill="white" stroke="#666666" points="898.25,-654.95 708.25,-654.95 708.25,-634.95 898.25,-634.95 898.25,-654.95"/>
<text text-anchor="middle" x="803.25" y="-641.45" font-family="Helvetica,sans-Serif" font-size="10.00">LSM1x0A_LoRaWAN::setChannelMask</text>
</a>
</g>
</g>
<!-- Node8&#45;&gt;Node9 -->
<g id="edge11_Node000008_Node000009" class="edge">
<title>Node8&#45;&gt;Node9</title>
<g id="a_edge11_Node000008_Node000009"><a xlink:title=" ">
<path fill="none" stroke="#63b8ff" d="M635.68,-824.45C648.4,-820.55 661.3,-815.22 672.25,-807.95 729.12,-770.19 772.75,-699.61 791.79,-665.05"/>
<polygon fill="#63b8ff" stroke="#63b8ff" points="794.72,-666.98 796.37,-656.52 788.55,-663.67 794.72,-666.98"/>
</a>
</g>
</g>
<!-- Node10 -->
<g id="Node000010" class="node">
<title>Node10</title>
<g id="a_Node000010"><a xlink:href="../../d8/d92/classLSM1x0A__Controller.html#a62476e30e50c7fe120aeb8df4b828675" target="_top" xlink:title="Synchronously/blockingly waits for an asynchronous event to occur. Useful for wrapping commands like ...">
<polygon fill="white" stroke="#666666" points="856.25,-850.95 750.25,-850.95 750.25,-818.95 856.25,-818.95 856.25,-850.95"/>
<text text-anchor="start" x="758.25" y="-837.45" font-family="Helvetica,sans-Serif" font-size="10.00">LSM1x0A_Controller</text>
<text text-anchor="middle" x="803.25" y="-825.45" font-family="Helvetica,sans-Serif" font-size="10.00">::waitForEvent</text>
</a>
</g>
</g>
<!-- Node8&#45;&gt;Node10 -->
<g id="edge14_Node000008_Node000010" class="edge">
<title>Node8&#45;&gt;Node10</title>
<g id="a_edge14_Node000008_Node000010"><a xlink:title=" ">
<path fill="none" stroke="#63b8ff" d="M641.4,-834.95C671.91,-834.95 708.15,-834.95 738.49,-834.95"/>
<polygon fill="#63b8ff" stroke="#63b8ff" points="738.3,-838.45 748.3,-834.95 738.3,-831.45 738.3,-838.45"/>
</a>
</g>
</g>
<!-- Node9&#45;&gt;Node1 -->
<g id="edge13_Node000009_Node000001" class="edge">
<title>Node9&#45;&gt;Node1</title>
<g id="a_edge13_Node000009_Node000001"><a xlink:title=" ">
<path fill="none" stroke="#63b8ff" d="M801.47,-634.73C796.02,-566.01 761.1,-172.04 672.25,-101.95 487.09,44.11 323.15,29.06 142,-121.95 90.42,-164.95 64.36,-377.61 56.57,-453.76"/>
<polygon fill="#63b8ff" stroke="#63b8ff" points="53.13,-452.96 55.62,-463.26 60.09,-453.65 53.13,-452.96"/>
</a>
</g>
</g>
<!-- Node9&#45;&gt;Node6 -->
<g id="edge12_Node000009_Node000006" class="edge">
<title>Node9&#45;&gt;Node6</title>
<g id="a_edge12_Node000009_Node000006"><a xlink:title=" ">
<path fill="none" stroke="#63b8ff" d="M812.05,-655.28C842.59,-695.76 954.42,-843.95 994.82,-897.49"/>
<polygon fill="#63b8ff" stroke="#63b8ff" points="991.97,-899.52 1000.79,-905.4 997.56,-895.31 991.97,-899.52"/>
</a>
</g>
</g>
<!-- Node11&#45;&gt;Node9 -->
<g id="edge20_Node000011_Node000009" class="edge">
<title>Node11&#45;&gt;Node9</title>
<g id="a_edge20_Node000011_Node000009"><a xlink:title=" ">
<path fill="none" stroke="#63b8ff" d="M436.74,-484.29C514.4,-488.81 631.93,-498.64 672.25,-517.95 724.18,-542.82 768.13,-596.76 789.09,-625.7"/>
<polygon fill="#63b8ff" stroke="#63b8ff" points="786.02,-627.41 794.65,-633.56 791.74,-623.37 786.02,-627.41"/>
</a>
</g>
</g>
<!-- Node12 -->
<g id="Node000012" class="node">
<title>Node12</title>
<g id="a_Node000012"><a xlink:href="../../d5/d72/classLSM1x0A__LoRaWAN.html#af0baa3db4c7fab580d6b19a9e92472f6" target="_top" xlink:title="Enables or disables Adaptive Data Rate (ADR).">
<polygon fill="white" stroke="#666666" points="651.25,-798.95 499.5,-798.95 499.5,-778.95 651.25,-778.95 651.25,-798.95"/>
<text text-anchor="middle" x="575.38" y="-785.45" font-family="Helvetica,sans-Serif" font-size="10.00">LSM1x0A_LoRaWAN::setADR</text>
</a>
</g>
</g>
<!-- Node11&#45;&gt;Node12 -->
<g id="edge16_Node000011_Node000012" class="edge">
<title>Node11&#45;&gt;Node12</title>
<g id="a_edge16_Node000011_Node000012"><a xlink:title=" ">
<path fill="none" stroke="#63b8ff" d="M365.43,-497.13C369.95,-546.58 390.65,-696.7 478.5,-769.95 481.75,-772.66 485.29,-775.03 489.01,-777.08"/>
<polygon fill="#63b8ff" stroke="#63b8ff" points="487.34,-780.17 497.88,-781.21 490.29,-773.82 487.34,-780.17"/>
</a>
</g>
</g>
<!-- Node13 -->
<g id="Node000013" class="node">
<title>Node13</title>
<g id="a_Node000013"><a xlink:href="../../d5/d72/classLSM1x0A__LoRaWAN.html#a5365ed1596eb84ebf1e3b33b4a10c788" target="_top" xlink:title="Sets the LoRaWAN operational frequency band.">
<polygon fill="white" stroke="#666666" points="651.62,-760.95 499.12,-760.95 499.12,-740.95 651.62,-740.95 651.62,-760.95"/>
<text text-anchor="middle" x="575.38" y="-747.45" font-family="Helvetica,sans-Serif" font-size="10.00">LSM1x0A_LoRaWAN::setBand</text>
</a>
</g>
</g>
<!-- Node11&#45;&gt;Node13 -->
<g id="edge18_Node000011_Node000013" class="edge">
<title>Node11&#45;&gt;Node13</title>
<g id="a_edge18_Node000011_Node000013"><a xlink:title=" ">
<path fill="none" stroke="#63b8ff" d="M366.51,-497.27C373.67,-542.46 400.23,-669.99 478.5,-731.95 481.66,-734.45 485.05,-736.64 488.61,-738.58"/>
<polygon fill="#63b8ff" stroke="#63b8ff" points="487.1,-741.74 497.65,-742.72 490.02,-735.37 487.1,-741.74"/>
</a>
</g>
</g>
<!-- Node14 -->
<g id="Node000014" class="node">
<title>Node14</title>
<g id="a_Node000014"><a xlink:href="../../d5/d72/classLSM1x0A__LoRaWAN.html#a9d9285c43414337a0ccb3a6cd7ca06e6" target="_top" xlink:title="Configures the number of retries for Confirmed uplinks.">
<polygon fill="white" stroke="#666666" points="657.62,-722.95 493.12,-722.95 493.12,-690.95 657.62,-690.95 657.62,-722.95"/>
<text text-anchor="start" x="501.12" y="-709.45" font-family="Helvetica,sans-Serif" font-size="10.00">LSM1x0A_LoRaWAN::setConfirm</text>
<text text-anchor="middle" x="575.38" y="-697.45" font-family="Helvetica,sans-Serif" font-size="10.00">Retry</text>
</a>
</g>
</g>
<!-- Node11&#45;&gt;Node14 -->
<g id="edge21_Node000011_Node000014" class="edge">
<title>Node11&#45;&gt;Node14</title>
<g id="a_edge21_Node000011_Node000014"><a xlink:title=" ">
<path fill="none" stroke="#63b8ff" d="M368.77,-497.42C380.23,-535.98 414.17,-632.59 478.5,-681.95 479.86,-682.99 481.27,-684 482.71,-684.96"/>
<polygon fill="#63b8ff" stroke="#63b8ff" points="480.93,-687.98 491.34,-689.96 484.44,-681.92 480.93,-687.98"/>
</a>
</g>
</g>
<!-- Node15 -->
<g id="Node000015" class="node">
<title>Node15</title>
<g id="a_Node000015"><a xlink:href="../../d5/d72/classLSM1x0A__LoRaWAN.html#a56345ceeafa0b9059d6de4e69eddc82e" target="_top" xlink:title="Sets the Data Rate (DR) of the module.">
<polygon fill="white" stroke="#666666" points="661.38,-672.95 489.38,-672.95 489.38,-652.95 661.38,-652.95 661.38,-672.95"/>
<text text-anchor="middle" x="575.38" y="-659.45" font-family="Helvetica,sans-Serif" font-size="10.00">LSM1x0A_LoRaWAN::setDataRate</text>
</a>
</g>
</g>
<!-- Node11&#45;&gt;Node15 -->
<g id="edge23_Node000011_Node000015" class="edge">
<title>Node11&#45;&gt;Node15</title>
<g id="a_edge23_Node000011_Node000015"><a xlink:title=" ">
<path fill="none" stroke="#63b8ff" d="M370.68,-497.26C384.74,-530.68 421.61,-606.87 478.5,-643.95 480.64,-645.34 482.85,-646.63 485.13,-647.84"/>
<polygon fill="#63b8ff" stroke="#63b8ff" points="483.55,-650.96 494.1,-651.92 486.45,-644.59 483.55,-650.96"/>
</a>
</g>
</g>
<!-- Node16 -->
<g id="Node000016" class="node">
<title>Node16</title>
<g id="a_Node000016"><a xlink:href="../../d5/d72/classLSM1x0A__LoRaWAN.html#a8494083816ab885cb07fc3b08de029f4" target="_top" xlink:title="Sets the LoRaWAN Device Address (DevAddr) for ABP mode.">
<polygon fill="white" stroke="#666666" points="659.5,-634.95 491.25,-634.95 491.25,-614.95 659.5,-614.95 659.5,-634.95"/>
<text text-anchor="middle" x="575.38" y="-621.45" font-family="Helvetica,sans-Serif" font-size="10.00">LSM1x0A_LoRaWAN::setDevAddr</text>
</a>
</g>
</g>
<!-- Node11&#45;&gt;Node16 -->
<g id="edge25_Node000011_Node000016" class="edge">
<title>Node11&#45;&gt;Node16</title>
<g id="a_edge25_Node000011_Node000016"><a xlink:title=" ">
<path fill="none" stroke="#63b8ff" d="M374.24,-497.41C391.72,-524.7 430.6,-578.97 478.5,-605.95 481.34,-607.55 484.3,-609.02 487.33,-610.36"/>
<polygon fill="#63b8ff" stroke="#63b8ff" points="485.92,-613.57 496.51,-613.93 488.46,-607.04 485.92,-613.57"/>
</a>
</g>
</g>
<!-- Node17 -->
<g id="Node000017" class="node">
<title>Node17</title>
<g id="a_Node000017"><a xlink:href="../../d5/d72/classLSM1x0A__LoRaWAN.html#ad320634e52d7ea907043cc50dd37c5b0" target="_top" xlink:title="Sets the LoRaWAN Device EUI (DevEUI).">
<polygon fill="white" stroke="#666666" points="658,-596.95 492.75,-596.95 492.75,-576.95 658,-576.95 658,-596.95"/>
<text text-anchor="middle" x="575.38" y="-583.45" font-family="Helvetica,sans-Serif" font-size="10.00">LSM1x0A_LoRaWAN::setDevEUI</text>
</a>
</g>
</g>
<!-- Node11&#45;&gt;Node17 -->
<g id="edge27_Node000011_Node000017" class="edge">
<title>Node11&#45;&gt;Node17</title>
<g id="a_edge27_Node000011_Node000017"><a xlink:title=" ">
<path fill="none" stroke="#63b8ff" d="M380.45,-497.21C401.27,-517.12 439.4,-550.34 478.5,-567.95 482.76,-569.87 487.22,-571.6 491.78,-573.15"/>
<polygon fill="#63b8ff" stroke="#63b8ff" points="490.53,-576.43 501.12,-576.02 492.59,-569.74 490.53,-576.43"/>
</a>
</g>
</g>
<!-- Node18 -->
<g id="Node000018" class="node">
<title>Node18</title>
<g id="a_Node000018"><a xlink:href="../../d5/d72/classLSM1x0A__LoRaWAN.html#a031023b0d2dd5db3c51c2db6ae7801cc" target="_top" xlink:title="Enables or disables the Duty Cycle limitation (EU regions mostly).">
<polygon fill="white" stroke="#666666" points="650.88,-558.95 499.88,-558.95 499.88,-526.95 650.88,-526.95 650.88,-558.95"/>
<text text-anchor="start" x="507.88" y="-545.45" font-family="Helvetica,sans-Serif" font-size="10.00">LSM1x0A_LoRaWAN::setDuty</text>
<text text-anchor="middle" x="575.38" y="-533.45" font-family="Helvetica,sans-Serif" font-size="10.00">Cycle</text>
</a>
</g>
</g>
<!-- Node11&#45;&gt;Node18 -->
<g id="edge29_Node000011_Node000018" class="edge">
<title>Node11&#45;&gt;Node18</title>
<g id="a_edge29_Node000011_Node000018"><a xlink:title=" ">
<path fill="none" stroke="#63b8ff" d="M420.01,-497.4C446.95,-505.35 479.48,-514.95 507.73,-523.28"/>
<polygon fill="#63b8ff" stroke="#63b8ff" points="506.69,-526.62 517.27,-526.1 508.67,-519.91 506.69,-526.62"/>
</a>
</g>
</g>
<!-- Node19 -->
<g id="Node000019" class="node">
<title>Node19</title>
<g id="a_Node000019"><a xlink:href="../../d5/d72/classLSM1x0A__LoRaWAN.html#a6b179d5825c49af0f391dfc539912f64" target="_top" xlink:title="Sets the delay for the Join1 receive window.">
<polygon fill="white" stroke="#666666" points="652,-470.95 498.75,-470.95 498.75,-438.95 652,-438.95 652,-470.95"/>
<text text-anchor="start" x="506.75" y="-457.45" font-family="Helvetica,sans-Serif" font-size="10.00">LSM1x0A_LoRaWAN::setJoin1</text>
<text text-anchor="middle" x="575.38" y="-445.45" font-family="Helvetica,sans-Serif" font-size="10.00">Delay</text>
</a>
</g>
</g>
<!-- Node11&#45;&gt;Node19 -->
<g id="edge31_Node000011_Node000019" class="edge">
<title>Node11&#45;&gt;Node19</title>
<g id="a_edge31_Node000011_Node000019"><a xlink:title=" ">
<path fill="none" stroke="#63b8ff" d="M436.86,-471.96C453.21,-469.94 470.72,-467.77 487.58,-465.69"/>
<polygon fill="#63b8ff" stroke="#63b8ff" points="487.55,-469.22 497.05,-464.52 486.69,-462.27 487.55,-469.22"/>
</a>
</g>
</g>
<!-- Node20 -->
<g id="Node000020" class="node">
<title>Node20</title>
<g id="a_Node000020"><a xlink:href="../../d5/d72/classLSM1x0A__LoRaWAN.html#a4545d0caad41558cdb9bae8286b104d8" target="_top" xlink:title="Sets the delay for the Join2 receive window.">
<polygon fill="white" stroke="#666666" points="652,-420.95 498.75,-420.95 498.75,-388.95 652,-388.95 652,-420.95"/>
<text text-anchor="start" x="506.75" y="-407.45" font-family="Helvetica,sans-Serif" font-size="10.00">LSM1x0A_LoRaWAN::setJoin2</text>
<text text-anchor="middle" x="575.38" y="-395.45" font-family="Helvetica,sans-Serif" font-size="10.00">Delay</text>
</a>
</g>
</g>
<!-- Node11&#45;&gt;Node20 -->
<g id="edge33_Node000011_Node000020" class="edge">
<title>Node11&#45;&gt;Node20</title>
<g id="a_edge33_Node000011_Node000020"><a xlink:title=" ">
<path fill="none" stroke="#63b8ff" d="M397.16,-464.52C419.67,-453.71 450.42,-439.8 478.5,-429.95 483.79,-428.09 489.29,-426.3 494.86,-424.59"/>
<polygon fill="#63b8ff" stroke="#63b8ff" points="495.57,-428.03 504.16,-421.84 493.58,-421.32 495.57,-428.03"/>
</a>
</g>
</g>
<!-- Node21 -->
<g id="Node000021" class="node">
<title>Node21</title>
<g id="a_Node000021"><a xlink:href="../../d5/d72/classLSM1x0A__LoRaWAN.html#a06bd50723ec1eb7e144c9141b2ec86fc" target="_top" xlink:title="Sets the LoRaWAN Network ID (NetID).">
<polygon fill="white" stroke="#666666" points="655.75,-370.95 495,-370.95 495,-350.95 655.75,-350.95 655.75,-370.95"/>
<text text-anchor="middle" x="575.38" y="-357.45" font-family="Helvetica,sans-Serif" font-size="10.00">LSM1x0A_LoRaWAN::setNwkID</text>
</a>
</g>
</g>
<!-- Node11&#45;&gt;Node21 -->
<g id="edge35_Node000011_Node000021" class="edge">
<title>Node11&#45;&gt;Node21</title>
<g id="a_edge35_Node000011_Node000021"><a xlink:title=" ">
<path fill="none" stroke="#63b8ff" d="M377.51,-464.74C397.1,-441.98 436.03,-400.98 478.5,-379.95 482.18,-378.13 486.01,-376.48 489.95,-374.99"/>
<polygon fill="#63b8ff" stroke="#63b8ff" points="490.76,-378.41 499.11,-371.9 488.52,-371.78 490.76,-378.41"/>
</a>
</g>
</g>
<!-- Node22 -->
<g id="Node000022" class="node">
<title>Node22</title>
<g id="a_Node000022"><a xlink:href="../../d5/d72/classLSM1x0A__LoRaWAN.html#aa70ada64d28ecca216bb62268e502adf" target="_top" xlink:title="Sets the delay for the RX1 receive window.">
<polygon fill="white" stroke="#666666" points="662.12,-332.95 488.62,-332.95 488.62,-312.95 662.12,-312.95 662.12,-332.95"/>
<text text-anchor="middle" x="575.38" y="-319.45" font-family="Helvetica,sans-Serif" font-size="10.00">LSM1x0A_LoRaWAN::setRx1Delay</text>
</a>
</g>
</g>
<!-- Node11&#45;&gt;Node22 -->
<g id="edge37_Node000011_Node000022" class="edge">
<title>Node11&#45;&gt;Node22</title>
<g id="a_edge37_Node000011_Node000022"><a xlink:title=" ">
<path fill="none" stroke="#63b8ff" d="M372.7,-464.54C388.9,-434.88 427.3,-372.58 478.5,-341.95 480.98,-340.46 483.56,-339.09 486.21,-337.82"/>
<polygon fill="#63b8ff" stroke="#63b8ff" points="487.46,-341.09 495.34,-334.02 484.76,-334.63 487.46,-341.09"/>
</a>
</g>
</g>
<!-- Node23 -->
<g id="Node000023" class="node">
<title>Node23</title>
<g id="a_Node000023"><a xlink:href="../../d5/d72/classLSM1x0A__LoRaWAN.html#a2cf4eff0181b6107d082bccefa24217b" target="_top" xlink:title="Sets the Data Rate (DR) specifically for the RX2 window.">
<polygon fill="white" stroke="#666666" points="670.38,-294.95 480.38,-294.95 480.38,-274.95 670.38,-274.95 670.38,-294.95"/>
<text text-anchor="middle" x="575.38" y="-281.45" font-family="Helvetica,sans-Serif" font-size="10.00">LSM1x0A_LoRaWAN::setRx2DataRate</text>
</a>
</g>
</g>
<!-- Node11&#45;&gt;Node23 -->
<g id="edge39_Node000011_Node000023" class="edge">
<title>Node11&#45;&gt;Node23</title>
<g id="a_edge39_Node000011_Node000023"><a xlink:title=" ">
<path fill="none" stroke="#63b8ff" d="M369.77,-464.61C382.65,-429.11 418.29,-344.84 478.5,-303.95 480.47,-302.61 482.52,-301.36 484.63,-300.19"/>
<polygon fill="#63b8ff" stroke="#63b8ff" points="485.96,-303.43 493.48,-295.97 482.95,-297.11 485.96,-303.43"/>
</a>
</g>
</g>
<!-- Node24 -->
<g id="Node000024" class="node">
<title>Node24</title>
<g id="a_Node000024"><a xlink:href="../../d5/d72/classLSM1x0A__LoRaWAN.html#a42d2137b475b57e19d891a5f1ac93221" target="_top" xlink:title="Sets the delay for the RX2 receive window.">
<polygon fill="white" stroke="#666666" points="662.12,-256.95 488.62,-256.95 488.62,-236.95 662.12,-236.95 662.12,-256.95"/>
<text text-anchor="middle" x="575.38" y="-243.45" font-family="Helvetica,sans-Serif" font-size="10.00">LSM1x0A_LoRaWAN::setRx2Delay</text>
</a>
</g>
</g>
<!-- Node11&#45;&gt;Node24 -->
<g id="edge41_Node000011_Node000024" class="edge">
<title>Node11&#45;&gt;Node24</title>
<g id="a_edge41_Node000011_Node000024"><a xlink:title=" ">
<path fill="none" stroke="#63b8ff" d="M367.84,-464.6C377.68,-423.89 409.11,-317.5 478.5,-265.95 480.09,-264.76 481.74,-263.65 483.43,-262.6"/>
<polygon fill="#63b8ff" stroke="#63b8ff" points="485.01,-265.72 492.23,-257.97 481.75,-259.53 485.01,-265.72"/>
</a>
</g>
</g>
<!-- Node25 -->
<g id="Node000025" class="node">
<title>Node25</title>
<g id="a_Node000025"><a xlink:href="../../d5/d72/classLSM1x0A__LoRaWAN.html#a689f7dfda1dfeae11ea397c2ddf2ad37" target="_top" xlink:title="Sets the precise frequency for the RX2 window.">
<polygon fill="white" stroke="#666666" points="672.25,-218.95 478.5,-218.95 478.5,-198.95 672.25,-198.95 672.25,-218.95"/>
<text text-anchor="middle" x="575.38" y="-205.45" font-family="Helvetica,sans-Serif" font-size="10.00">LSM1x0A_LoRaWAN::setRx2Frequency</text>
</a>
</g>
</g>
<!-- Node11&#45;&gt;Node25 -->
<g id="edge43_Node000011_Node000025" class="edge">
<title>Node11&#45;&gt;Node25</title>
<g id="a_edge43_Node000011_Node000025"><a xlink:title=" ">
<path fill="none" stroke="#63b8ff" d="M366.46,-464.5C373.51,-418.96 399.81,-290.44 478.5,-227.95 479.83,-226.89 481.2,-225.89 482.61,-224.94"/>
<polygon fill="#63b8ff" stroke="#63b8ff" points="484.11,-228.11 491.07,-220.12 480.65,-222.03 484.11,-228.11"/>
</a>
</g>
</g>
<!-- Node26 -->
<g id="Node000026" class="node">
<title>Node26</title>
<g id="a_Node000026"><a xlink:href="../../d5/d72/classLSM1x0A__LoRaWAN.html#a1df10d7ae6bf45b537d28d3d5c4b88d7" target="_top" xlink:title="Sets the transmission power index.">
<polygon fill="white" stroke="#666666" points="659.88,-180.95 490.88,-180.95 490.88,-160.95 659.88,-160.95 659.88,-180.95"/>
<text text-anchor="middle" x="575.38" y="-167.45" font-family="Helvetica,sans-Serif" font-size="10.00">LSM1x0A_LoRaWAN::setTxPower</text>
</a>
</g>
</g>
<!-- Node11&#45;&gt;Node26 -->
<g id="edge45_Node000011_Node000026" class="edge">
<title>Node11&#45;&gt;Node26</title>
<g id="a_edge45_Node000011_Node000026"><a xlink:title=" ">
<path fill="none" stroke="#63b8ff" d="M365.39,-464.65C369.8,-414.88 390.21,-263.73 478.5,-189.95 479.64,-189 480.8,-188.09 482,-187.23"/>
<polygon fill="#63b8ff" stroke="#63b8ff" points="483.68,-190.3 490.43,-182.14 480.06,-184.31 483.68,-190.3"/>
</a>
</g>
</g>
<!-- Node27 -->
<g id="Node000027" class="node">
<title>Node27</title>
<g id="a_Node000027"><a xlink:href="../../d5/d72/classLSM1x0A__LoRaWAN.html#a059fd6a9356c4ecadd5a98294da5952d" target="_top" xlink:title="Configures the number of repetitions for Unconfirmed uplinks.">
<polygon fill="white" stroke="#666666" points="662.88,-142.95 487.88,-142.95 487.88,-110.95 662.88,-110.95 662.88,-142.95"/>
<text text-anchor="start" x="495.88" y="-129.45" font-family="Helvetica,sans-Serif" font-size="10.00">LSM1x0A_LoRaWAN::setUnconfirm</text>
<text text-anchor="middle" x="575.38" y="-117.45" font-family="Helvetica,sans-Serif" font-size="10.00">Retry</text>
</a>
</g>
</g>
<!-- Node11&#45;&gt;Node27 -->
<g id="edge47_Node000011_Node000027" class="edge">
<title>Node11&#45;&gt;Node27</title>
<g id="a_edge47_Node000011_Node000027"><a xlink:title=" ">
<path fill="none" stroke="#63b8ff" d="M364.77,-464.75C367.4,-411.46 383.23,-239.96 478.5,-151.95 479.27,-151.23 480.07,-150.54 480.87,-149.86"/>
<polygon fill="#63b8ff" stroke="#63b8ff" points="482.72,-152.84 488.87,-144.21 478.69,-147.12 482.72,-152.84"/>
</a>
</g>
</g>
<!-- Node12&#45;&gt;Node1 -->
<g id="edge17_Node000012_Node000001" class="edge">
<title>Node12&#45;&gt;Node1</title>
<g id="a_edge17_Node000012_Node000001"><a xlink:title=" ">
<path fill="none" stroke="#63b8ff" d="M500.36,-778.49C391.14,-761.69 194.08,-725.64 142,-677.95 91.35,-631.57 68.12,-550.58 59,-508.34"/>
<polygon fill="#63b8ff" stroke="#63b8ff" points="62.48,-507.86 57.05,-498.76 55.62,-509.26 62.48,-507.86"/>
</a>
</g>
</g>
<!-- Node13&#45;&gt;Node1 -->
<g id="edge19_Node000013_Node000001" class="edge">
<title>Node13&#45;&gt;Node1</title>
<g id="a_edge19_Node000013_Node000001"><a xlink:title=" ">
<path fill="none" stroke="#63b8ff" d="M502.73,-740.46C394.67,-723.42 196.76,-687.03 142,-641.95 98.73,-606.32 73.37,-543.61 61.74,-507.88"/>
<polygon fill="#63b8ff" stroke="#63b8ff" points="65.21,-507.24 58.89,-498.74 58.52,-509.32 65.21,-507.24"/>
</a>
</g>
</g>
<!-- Node14&#45;&gt;Node1 -->
<g id="edge22_Node000014_Node000001" class="edge">
<title>Node14&#45;&gt;Node1</title>
<g id="a_edge22_Node000014_Node000001"><a xlink:title=" ">
<path fill="none" stroke="#63b8ff" d="M492.74,-696.13C383.33,-680.29 196.57,-648.15 142,-606.95 106.88,-580.43 80.49,-535.78 66.15,-507.37"/>
<polygon fill="#63b8ff" stroke="#63b8ff" points="69.46,-506.16 61.92,-498.71 63.17,-509.23 69.46,-506.16"/>
</a>
</g>
</g>
<!-- Node15&#45;&gt;Node1 -->
<g id="edge24_Node000015_Node000001" class="edge">
<title>Node15&#45;&gt;Node1</title>
<g id="a_edge24_Node000015_Node000001"><a xlink:title=" ">
<path fill="none" stroke="#63b8ff" d="M489.27,-660.63C397.56,-654.66 250.21,-634.71 142,-569.95 114.32,-553.38 89.14,-526.09 72.88,-506.09"/>
<polygon fill="#63b8ff" stroke="#63b8ff" points="75.74,-504.06 66.79,-498.39 70.25,-508.41 75.74,-504.06"/>
</a>
</g>
</g>
<!-- Node16&#45;&gt;Node1 -->
<g id="edge26_Node000016_Node000001" class="edge">
<title>Node16&#45;&gt;Node1</title>
<g id="a_edge26_Node000016_Node000001"><a xlink:title=" ">
<path fill="none" stroke="#63b8ff" d="M491.02,-618.09C401.76,-608.52 257.4,-586.49 142,-537.95 121.24,-529.22 99.99,-515.61 83.58,-503.88"/>
<polygon fill="#63b8ff" stroke="#63b8ff" points="85.87,-501.22 75.73,-498.14 81.74,-506.87 85.87,-501.22"/>
</a>
</g>
</g>
<!-- Node17&#45;&gt;Node1 -->
<g id="edge28_Node000017_Node000001" class="edge">
<title>Node17&#45;&gt;Node1</title>
<g id="a_edge28_Node000017_Node000001"><a xlink:title=" ">
<path fill="none" stroke="#63b8ff" d="M492.62,-576.91C405.03,-565.2 262.34,-543.35 142,-511.95 130.48,-508.94 118.32,-505.11 106.84,-501.17"/>
<polygon fill="#63b8ff" stroke="#63b8ff" points="108.1,-497.9 97.51,-497.88 105.78,-504.5 108.1,-497.9"/>
</a>
</g>
</g>
<!-- Node18&#45;&gt;Node1 -->
<g id="edge30_Node000018_Node000001" class="edge">
<title>Node18&#45;&gt;Node1</title>
<g id="a_edge30_Node000018_Node000001"><a xlink:title=" ">
<path fill="none" stroke="#63b8ff" d="M499.64,-534.04C396.96,-521.81 214.06,-500.02 117.6,-488.53"/>
<polygon fill="#63b8ff" stroke="#63b8ff" points="118.12,-485.06 107.78,-487.36 117.3,-492.01 118.12,-485.06"/>
</a>
</g>
</g>
<!-- Node19&#45;&gt;Node1 -->
<g id="edge32_Node000019_Node000001" class="edge">
<title>Node19&#45;&gt;Node1</title>
<g id="a_edge32_Node000019_Node000001"><a xlink:title=" ">
<path fill="none" stroke="#63b8ff" d="M498.5,-453.04C439.87,-452.09 356.73,-451.88 284,-455.95 227.62,-459.1 163.8,-466.33 117.72,-472.21"/>
<polygon fill="#63b8ff" stroke="#63b8ff" points="117.37,-468.72 107.9,-473.48 118.26,-475.67 117.37,-468.72"/>
</a>
</g>
</g>
<!-- Node20&#45;&gt;Node1 -->
<g id="edge34_Node000020_Node000001" class="edge">
<title>Node20&#45;&gt;Node1</title>
<g id="a_edge34_Node000020_Node000001"><a xlink:title=" ">
<path fill="none" stroke="#63b8ff" d="M498.38,-409.76C411.53,-416.18 265.46,-429.77 142,-454.95 133.33,-456.72 124.28,-458.94 115.42,-461.34"/>
<polygon fill="#63b8ff" stroke="#63b8ff" points="114.48,-457.97 105.8,-464.05 116.38,-464.71 114.48,-457.97"/>
</a>
</g>
</g>
<!-- Node21&#45;&gt;Node1 -->
<g id="edge36_Node000021_Node000001" class="edge">
<title>Node21&#45;&gt;Node1</title>
<g id="a_edge36_Node000021_Node000001"><a xlink:title=" ">
<path fill="none" stroke="#63b8ff" d="M494.71,-366.22C406.45,-373.87 260.88,-391.94 142,-432.95 123.51,-439.33 104.3,-449.35 88.56,-458.6"/>
<polygon fill="#63b8ff" stroke="#63b8ff" points="86.8,-455.57 80.05,-463.73 90.42,-461.56 86.8,-455.57"/>
</a>
</g>
</g>
<!-- Node22&#45;&gt;Node1 -->
<g id="edge38_Node000022_Node000001" class="edge">
<title>Node22&#45;&gt;Node1</title>
<g id="a_edge38_Node000022_Node000001"><a xlink:title=" ">
<path fill="none" stroke="#63b8ff" d="M488.24,-323.48C397.29,-327.36 252.1,-343.2 142,-400.95 115.76,-414.71 91.28,-438.19 74.84,-456.16"/>
<polygon fill="#63b8ff" stroke="#63b8ff" points="72.48,-453.54 68.45,-463.34 77.71,-458.2 72.48,-453.54"/>
</a>
</g>
</g>
<!-- Node23&#45;&gt;Node1 -->
<g id="edge40_Node000023_Node000001" class="edge">
<title>Node23&#45;&gt;Node1</title>
<g id="a_edge40_Node000023_Node000001"><a xlink:title=" ">
<path fill="none" stroke="#63b8ff" d="M480.15,-278.72C386.6,-277.21 242.94,-287.94 142,-355.95 105.5,-380.54 79.37,-425.71 65.48,-454.49"/>
<polygon fill="#63b8ff" stroke="#63b8ff" points="62.44,-452.73 61.4,-463.27 68.79,-455.68 62.44,-452.73"/>
</a>
</g>
</g>
<!-- Node24&#45;&gt;Node1 -->
<g id="edge42_Node000024_Node000001" class="edge">
<title>Node24&#45;&gt;Node1</title>
<g id="a_edge42_Node000024_Node000001"><a xlink:title=" ">
<path fill="none" stroke="#63b8ff" d="M504.6,-236.49C411.83,-226.6 247.34,-223.58 142,-304.95 93.36,-342.51 69.63,-414.19 59.81,-453.49"/>
<polygon fill="#63b8ff" stroke="#63b8ff" points="56.44,-452.56 57.55,-463.1 63.25,-454.17 56.44,-452.56"/>
</a>
</g>
</g>
<!-- Node25&#45;&gt;Node1 -->
<g id="edge44_Node000025_Node000001" class="edge">
<title>Node25&#45;&gt;Node1</title>
<g id="a_edge44_Node000025_Node000001"><a xlink:title=" ">
<path fill="none" stroke="#63b8ff" d="M478.17,-205.86C366.72,-204.31 192,-208.72 142,-248.95 78.11,-300.36 60.58,-403.6 55.79,-453.16"/>
<polygon fill="#63b8ff" stroke="#63b8ff" points="52.31,-452.77 54.95,-463.03 59.28,-453.36 52.31,-452.77"/>
</a>
</g>
</g>
<!-- Node26&#45;&gt;Node1 -->
<g id="edge46_Node000026_Node000001" class="edge">
<title>Node26&#45;&gt;Node1</title>
<g id="a_edge46_Node000026_Node000001"><a xlink:title=" ">
<path fill="none" stroke="#63b8ff" d="M527.67,-160.48C441.24,-144.01 254.89,-122.56 142,-212.95 67.19,-272.85 55.33,-397.78 53.9,-453.31"/>
<polygon fill="#63b8ff" stroke="#63b8ff" points="50.4,-453.1 53.75,-463.15 57.4,-453.21 50.4,-453.1"/>
</a>
</g>
</g>
<!-- Node27&#45;&gt;Node1 -->
<g id="edge48_Node000027_Node000001" class="edge">
<title>Node27&#45;&gt;Node1</title>
<g id="a_edge48_Node000027_Node000001"><a xlink:title=" ">
<path fill="none" stroke="#63b8ff" d="M487.49,-121.55C376.4,-116.57 192.37,-115.39 142,-157.95 96.15,-196.69 67,-383.18 57.45,-453.79"/>
<polygon fill="#63b8ff" stroke="#63b8ff" points="54.03,-452.95 56.19,-463.32 60.97,-453.87 54.03,-452.95"/>
</a>
</g>
</g>
<!-- Node29&#45;&gt;Node30 -->
<g id="edge51_Node000029_Node000030" class="edge">
<title>Node29&#45;&gt;Node30</title>
<g id="a_edge51_Node000029_Node000030"><a xlink:title=" ">
<path fill="none" stroke="#63b8ff" d="M416.73,-1092.44C434.89,-1094.34 455.86,-1096.54 476.47,-1098.7"/>
<polygon fill="#63b8ff" stroke="#63b8ff" points="476.04,-1102.17 486.35,-1099.73 476.77,-1095.21 476.04,-1102.17"/>
</a>
</g>
</g>
<!-- Node31 -->
<g id="Node000031" class="node">
<title>Node31</title>
<g id="a_Node000031"><a xlink:href="../../d6/d3c/classLSM1x0A__AtParser.html#a0ba6f927c54fceece22c17773d3f2600" target="_top" xlink:title="Sends a command and extracts a value from the response.">
<polygon fill="white" stroke="#666666" points="890.38,-1124.95 716.12,-1124.95 716.12,-1092.95 890.38,-1092.95 890.38,-1124.95"/>
<text text-anchor="start" x="724.12" y="-1111.45" font-family="Helvetica,sans-Serif" font-size="10.00">LSM1x0A_AtParser::sendCommand</text>
<text text-anchor="middle" x="803.25" y="-1099.45" font-family="Helvetica,sans-Serif" font-size="10.00">WithResponse</text>
</a>
</g>
</g>
<!-- Node30&#45;&gt;Node31 -->
<g id="edge52_Node000030_Node000031" class="edge">
<title>Node30&#45;&gt;Node31</title>
<g id="a_edge52_Node000030_Node000031"><a xlink:title=" ">
<path fill="none" stroke="#63b8ff" d="M662.74,-1108.95C676.49,-1108.95 690.81,-1108.95 704.8,-1108.95"/>
<polygon fill="#63b8ff" stroke="#63b8ff" points="704.42,-1112.45 714.42,-1108.95 704.42,-1105.45 704.42,-1112.45"/>
</a>
</g>
</g>
<!-- Node32 -->
<g id="Node000032" class="node">
<title>Node32</title>
<g id="a_Node000032"><a xlink:href="../../d5/d8b/classUartDriver.html#a5d0f22e8867eebe99273078bb19bd23d" target="_top" xlink:title="Sends data through UART.">
<polygon fill="white" stroke="#666666" points="1065,-1118.95 956,-1118.95 956,-1098.95 1065,-1098.95 1065,-1118.95"/>
<text text-anchor="middle" x="1010.5" y="-1105.45" font-family="Helvetica,sans-Serif" font-size="10.00">UartDriver::sendData</text>
</a>
</g>
</g>
<!-- Node31&#45;&gt;Node32 -->
<g id="edge53_Node000031_Node000032" class="edge">
<title>Node31&#45;&gt;Node32</title>
<g id="a_edge53_Node000031_Node000032"><a xlink:title=" ">
<path fill="none" stroke="#63b8ff" d="M890.7,-1108.95C908.59,-1108.95 927.16,-1108.95 944.14,-1108.95"/>
<polygon fill="#63b8ff" stroke="#63b8ff" points="944.11,-1112.45 954.11,-1108.95 944.11,-1105.45 944.11,-1112.45"/>
</a>
</g>
</g>
</g>
</svg>
