<?xml version="1.0" encoding="UTF-8" standalone="no"?>
<!DOCTYPE svg PUBLIC "-//W3C//DTD SVG 1.1//EN"
 "http://www.w3.org/Graphics/SVG/1.1/DTD/svg11.dtd">
<!-- Generated by graphviz version 12.2.1 (20241206.2353)
 -->
<!-- Title: LSM1x0A_AtParser::wakeUp Pages: 1 -->
<svg width="718pt" height="72pt"
 viewBox="0.00 0.00 717.75 72.00" xmlns="http://www.w3.org/2000/svg" xmlns:xlink="http://www.w3.org/1999/xlink">
<g id="graph0" class="graph" transform="scale(1 1) rotate(0) translate(4 68)">
<title>LSM1x0A_AtParser::wakeUp</title>
<!-- Node1 -->
<g id="Node000001" class="node">
<title>Node1</title>
<g id="a_Node000001"><a xlink:title="Performs a &quot;Ping&quot; activation by sending AT commands until OK is received. Handles the module&#39;s low&#45;po...">
<polygon fill="#999999" stroke="#666666" points="144.25,-45 0,-45 0,-25 144.25,-25 144.25,-45"/>
<text text-anchor="middle" x="72.12" y="-31.5" font-family="Helvetica,sans-Serif" font-size="10.00">LSM1x0A_AtParser::wakeUp</text>
</a>
</g>
</g>
<!-- Node2 -->
<g id="Node000002" class="node">
<title>Node2</title>
<g id="a_Node000002"><a xlink:href="../../d5/d8b/classUartDriver.html#ae036ce1f4cf836ed976a876fc3e584f8" target="_top" xlink:title="Empties the hardware RX buffer and any queued events, discarding all obsolete received data.">
<polygon fill="white" stroke="#666666" points="317.75,-64 217,-64 217,-44 317.75,-44 317.75,-64"/>
<text text-anchor="middle" x="267.38" y="-50.5" font-family="Helvetica,sans-Serif" font-size="10.00">UartDriver::flushRx</text>
</a>
</g>
</g>
<!-- Node1&#45;&gt;Node2 -->
<g id="edge1_Node000001_Node000002" class="edge">
<title>Node1&#45;&gt;Node2</title>
<g id="a_edge1_Node000001_Node000002"><a xlink:title=" ">
<path fill="none" stroke="#63b8ff" d="M144.54,-42.02C164.48,-43.98 185.98,-46.1 205.27,-47.99"/>
<polygon fill="#63b8ff" stroke="#63b8ff" points="204.86,-51.47 215.15,-48.96 205.54,-44.5 204.86,-51.47"/>
</a>
</g>
</g>
<!-- Node3 -->
<g id="Node000003" class="node">
<title>Node3</title>
<g id="a_Node000003"><a xlink:href="../../d6/d3c/classLSM1x0A__AtParser.html#a29b53c521974387ba6c03afadfaffa4a" target="_top" xlink:title="Sends a simple command and waits for OK/ERROR. Example: sendCommand(&quot;AT+JOIN&quot;);.">
<polygon fill="white" stroke="#666666" points="354.5,-26 180.25,-26 180.25,-6 354.5,-6 354.5,-26"/>
<text text-anchor="middle" x="267.38" y="-12.5" font-family="Helvetica,sans-Serif" font-size="10.00">LSM1x0A_AtParser::sendCommand</text>
</a>
</g>
</g>
<!-- Node1&#45;&gt;Node3 -->
<g id="edge2_Node000001_Node000003" class="edge">
<title>Node1&#45;&gt;Node3</title>
<g id="a_edge2_Node000001_Node000003"><a xlink:title=" ">
<path fill="none" stroke="#63b8ff" d="M144.54,-27.98C152.35,-27.21 160.41,-26.42 168.48,-25.62"/>
<polygon fill="#63b8ff" stroke="#63b8ff" points="168.75,-29.11 178.36,-24.65 168.07,-22.15 168.75,-29.11"/>
</a>
</g>
</g>
<!-- Node4 -->
<g id="Node000004" class="node">
<title>Node4</title>
<g id="a_Node000004"><a xlink:href="../../d6/d3c/classLSM1x0A__AtParser.html#a0ba6f927c54fceece22c17773d3f2600" target="_top" xlink:title="Sends a command and extracts a value from the response.">
<polygon fill="white" stroke="#666666" points="564.75,-32 390.5,-32 390.5,0 564.75,0 564.75,-32"/>
<text text-anchor="start" x="398.5" y="-18.5" font-family="Helvetica,sans-Serif" font-size="10.00">LSM1x0A_AtParser::sendCommand</text>
<text text-anchor="middle" x="477.62" y="-6.5" font-family="Helvetica,sans-Serif" font-size="10.00">WithResponse</text>
</a>
</g>
</g>
<!-- Node3&#45;&gt;Node4 -->
<g id="edge3_Node000003_Node000004" class="edge">
<title>Node3&#45;&gt;Node4</title>
<g id="a_edge3_Node000003_Node000004"><a xlink:title=" ">
<path fill="none" stroke="#63b8ff" d="M354.88,-16C362.78,-16 370.82,-16 378.81,-16"/>
<polygon fill="#63b8ff" stroke="#63b8ff" points="378.54,-19.5 388.54,-16 378.54,-12.5 378.54,-19.5"/>
</a>
</g>
</g>
<!-- Node5 -->
<g id="Node000005" class="node">
<title>Node5</title>
<g id="a_Node000005"><a xlink:href="../../d5/d8b/classUartDriver.html#a5d0f22e8867eebe99273078bb19bd23d" target="_top" xlink:title="Sends data through UART.">
<polygon fill="white" stroke="#666666" points="709.75,-26 600.75,-26 600.75,-6 709.75,-6 709.75,-26"/>
<text text-anchor="middle" x="655.25" y="-12.5" font-family="Helvetica,sans-Serif" font-size="10.00">UartDriver::sendData</text>
</a>
</g>
</g>
<!-- Node4&#45;&gt;Node5 -->
<g id="edge4_Node000004_Node000005" class="edge">
<title>Node4&#45;&gt;Node5</title>
<g id="a_edge4_Node000004_Node000005"><a xlink:title=" ">
<path fill="none" stroke="#63b8ff" d="M565.15,-16C573.3,-16 581.45,-16 589.35,-16"/>
<polygon fill="#63b8ff" stroke="#63b8ff" points="589.18,-19.5 599.18,-16 589.18,-12.5 589.18,-19.5"/>
</a>
</g>
</g>
</g>
</svg>
