<?xml version="1.0" encoding="UTF-8" standalone="no"?>
<!DOCTYPE svg PUBLIC "-//W3C//DTD SVG 1.1//EN"
 "http://www.w3.org/Graphics/SVG/1.1/DTD/svg11.dtd">
<!-- Generated by graphviz version 12.2.1 (20241206.2353)
 -->
<!-- Title: LSM1x0A_Controller Pages: 1 -->
<svg width="264pt" height="480pt"
 viewBox="0.00 0.00 263.88 480.00" xmlns="http://www.w3.org/2000/svg" xmlns:xlink="http://www.w3.org/1999/xlink">
<g id="graph0" class="graph" transform="scale(1 1) rotate(0) translate(4 476)">
<title>LSM1x0A_Controller</title>
<!-- Node1 -->
<g id="Node000001" class="node">
<title>Node1</title>
<g id="a_Node000001"><a xlink:title="Main class for coordinating the LSM100A/LSM110A module.">
<polygon fill="#999999" stroke="none" points="204.5,-212 50,-212 50,0 204.5,0 204.5,-212"/>
<text text-anchor="start" x="82.25" y="-198.5" font-family="Helvetica,sans-Serif" font-size="10.00">LSM1x0A_Controller</text>
<text text-anchor="start" x="125.75" y="-182.5" font-family="Helvetica,sans-Serif" font-size="10.00"> </text>
<text text-anchor="start" x="54" y="-166.5" font-family="Helvetica,sans-Serif" font-size="10.00">+</text>
<text text-anchor="start" x="64" y="-166.5" font-family="Helvetica,sans-Serif" font-size="10.00">LSM1x0A_Controller()</text>
<text text-anchor="start" x="54" y="-150.5" font-family="Helvetica,sans-Serif" font-size="10.00">+</text>
<text text-anchor="start" x="64" y="-150.5" font-family="Helvetica,sans-Serif" font-size="10.00">~LSM1x0A_Controller()</text>
<text text-anchor="start" x="54" y="-134.5" font-family="Helvetica,sans-Serif" font-size="10.00">+</text>
<text text-anchor="start" x="64" y="-134.5" font-family="Helvetica,sans-Serif" font-size="10.00">begin()</text>
<text text-anchor="start" x="54" y="-118.5" font-family="Helvetica,sans-Serif" font-size="10.00">+</text>
<text text-anchor="start" x="64" y="-118.5" font-family="Helvetica,sans-Serif" font-size="10.00">end()</text>
<text text-anchor="start" x="54" y="-102.5" font-family="Helvetica,sans-Serif" font-size="10.00">+</text>
<text text-anchor="start" x="64" y="-102.5" font-family="Helvetica,sans-Serif" font-size="10.00">wakeUp()</text>
<text text-anchor="start" x="54" y="-86.5" font-family="Helvetica,sans-Serif" font-size="10.00">+</text>
<text text-anchor="start" x="64" y="-86.5" font-family="Helvetica,sans-Serif" font-size="10.00">sendCommand()</text>
<text text-anchor="start" x="54" y="-70.5" font-family="Helvetica,sans-Serif" font-size="10.00">+</text>
<text text-anchor="start" x="64" y="-70.5" font-family="Helvetica,sans-Serif" font-size="10.00">sendCommandWithResponse()</text>
<text text-anchor="start" x="54" y="-54.5" font-family="Helvetica,sans-Serif" font-size="10.00">+</text>
<text text-anchor="start" x="64" y="-54.5" font-family="Helvetica,sans-Serif" font-size="10.00">factoryReset()</text>
<text text-anchor="start" x="54" y="-38.5" font-family="Helvetica,sans-Serif" font-size="10.00">+</text>
<text text-anchor="start" x="64" y="-38.5" font-family="Helvetica,sans-Serif" font-size="10.00">softwareReset()</text>
<text text-anchor="start" x="54" y="-22.5" font-family="Helvetica,sans-Serif" font-size="10.00">+</text>
<text text-anchor="start" x="64" y="-22.5" font-family="Helvetica,sans-Serif" font-size="10.00">hardwareReset()</text>
<text text-anchor="start" x="64" y="-6.5" font-family="Helvetica,sans-Serif" font-size="10.00">and 20 more...</text>
<polygon fill="#666666" stroke="#666666" points="50,-194 50,-194 204.5,-194 204.5,-194 50,-194"/>
<polygon fill="#666666" stroke="#666666" points="50,-178 50,-178 204.5,-178 204.5,-178 50,-178"/>
<polygon fill="none" stroke="#666666" points="50,0 50,-212 204.5,-212 204.5,0 50,0"/>
</a>
</g>
</g>
<!-- Node2 -->
<g id="Node000002" class="node">
<title>Node2</title>
<g id="a_Node000002"><a xlink:href="../../d5/d72/classLSM1x0A__LoRaWAN.html" target="_top" xlink:title="Submódulo de configuración y operación LoRaWAN del LSM1x0A.">
<polygon fill="white" stroke="none" points="118.5,-472 0,-472 0,-260 118.5,-260 118.5,-472"/>
<text text-anchor="start" x="12" y="-458.5" font-family="Helvetica,sans-Serif" font-size="10.00">LSM1x0A_LoRaWAN</text>
<text text-anchor="start" x="57.75" y="-442.5" font-family="Helvetica,sans-Serif" font-size="10.00"> </text>
<text text-anchor="start" x="4" y="-426.5" font-family="Helvetica,sans-Serif" font-size="10.00">+</text>
<text text-anchor="start" x="14" y="-426.5" font-family="Helvetica,sans-Serif" font-size="10.00">LSM1x0A_LoRaWAN()</text>
<text text-anchor="start" x="4" y="-410.5" font-family="Helvetica,sans-Serif" font-size="10.00">+</text>
<text text-anchor="start" x="14" y="-410.5" font-family="Helvetica,sans-Serif" font-size="10.00">setDevEUI()</text>
<text text-anchor="start" x="4" y="-394.5" font-family="Helvetica,sans-Serif" font-size="10.00">+</text>
<text text-anchor="start" x="14" y="-394.5" font-family="Helvetica,sans-Serif" font-size="10.00">setAppEUI()</text>
<text text-anchor="start" x="4" y="-378.5" font-family="Helvetica,sans-Serif" font-size="10.00">+</text>
<text text-anchor="start" x="14" y="-378.5" font-family="Helvetica,sans-Serif" font-size="10.00">setAppKey()</text>
<text text-anchor="start" x="4" y="-362.5" font-family="Helvetica,sans-Serif" font-size="10.00">+</text>
<text text-anchor="start" x="14" y="-362.5" font-family="Helvetica,sans-Serif" font-size="10.00">setNwkKey()</text>
<text text-anchor="start" x="4" y="-346.5" font-family="Helvetica,sans-Serif" font-size="10.00">+</text>
<text text-anchor="start" x="14" y="-346.5" font-family="Helvetica,sans-Serif" font-size="10.00">setDevAddr()</text>
<text text-anchor="start" x="4" y="-330.5" font-family="Helvetica,sans-Serif" font-size="10.00">+</text>
<text text-anchor="start" x="14" y="-330.5" font-family="Helvetica,sans-Serif" font-size="10.00">setAppSKey()</text>
<text text-anchor="start" x="4" y="-314.5" font-family="Helvetica,sans-Serif" font-size="10.00">+</text>
<text text-anchor="start" x="14" y="-314.5" font-family="Helvetica,sans-Serif" font-size="10.00">setNwkSKey()</text>
<text text-anchor="start" x="4" y="-298.5" font-family="Helvetica,sans-Serif" font-size="10.00">+</text>
<text text-anchor="start" x="14" y="-298.5" font-family="Helvetica,sans-Serif" font-size="10.00">setNwkID()</text>
<text text-anchor="start" x="4" y="-282.5" font-family="Helvetica,sans-Serif" font-size="10.00">+</text>
<text text-anchor="start" x="14" y="-282.5" font-family="Helvetica,sans-Serif" font-size="10.00">setBaudrate()</text>
<text text-anchor="start" x="14" y="-266.5" font-family="Helvetica,sans-Serif" font-size="10.00">and 73 more...</text>
<polygon fill="#666666" stroke="#666666" points="0,-454 0,-454 118.5,-454 118.5,-454 0,-454"/>
<polygon fill="#666666" stroke="#666666" points="0,-438 0,-438 118.5,-438 118.5,-438 0,-438"/>
<polygon fill="none" stroke="#666666" points="0,-260 0,-472 118.5,-472 118.5,-260 0,-260"/>
</a>
</g>
</g>
<!-- Node2&#45;&gt;Node1 -->
<g id="edge1_Node000001_Node000002" class="edge">
<title>Node2&#45;&gt;Node1</title>
<g id="a_edge1_Node000001_Node000002"><a xlink:title=" ">
<path fill="none" stroke="#63b8ff" d="M86.91,-260.06C90.02,-248.26 93.2,-236.18 96.35,-224.23"/>
<polygon fill="none" stroke="#63b8ff" points="96.33,-224.32 93.99,-217.5 99.39,-212.72 101.73,-219.54 96.33,-224.32"/>
</a>
</g>
<text text-anchor="middle" x="114.62" y="-232.5" font-family="Helvetica,sans-Serif" font-size="10.00" fill="grey"> +lorawan</text>
</g>
<!-- Node3 -->
<g id="Node000003" class="node">
<title>Node3</title>
<g id="a_Node000003"><a xlink:href="../../dd/dcc/classLSM1x0A__Sigfox.html" target="_top" xlink:title="Submodule handling all Sigfox&#45;specific AT commands and operations.">
<polygon fill="white" stroke="none" points="255.88,-472 136.62,-472 136.62,-260 255.88,-260 255.88,-472"/>
<text text-anchor="start" x="158.38" y="-458.5" font-family="Helvetica,sans-Serif" font-size="10.00">LSM1x0A_Sigfox</text>
<text text-anchor="start" x="194.75" y="-442.5" font-family="Helvetica,sans-Serif" font-size="10.00"> </text>
<text text-anchor="start" x="140.62" y="-426.5" font-family="Helvetica,sans-Serif" font-size="10.00">+</text>
<text text-anchor="start" x="150.62" y="-426.5" font-family="Helvetica,sans-Serif" font-size="10.00">LSM1x0A_Sigfox()</text>
<text text-anchor="start" x="140.62" y="-410.5" font-family="Helvetica,sans-Serif" font-size="10.00">+</text>
<text text-anchor="start" x="150.62" y="-410.5" font-family="Helvetica,sans-Serif" font-size="10.00">getDeviceID()</text>
<text text-anchor="start" x="140.62" y="-394.5" font-family="Helvetica,sans-Serif" font-size="10.00">+</text>
<text text-anchor="start" x="150.62" y="-394.5" font-family="Helvetica,sans-Serif" font-size="10.00">getInitialPAC()</text>
<text text-anchor="start" x="140.62" y="-378.5" font-family="Helvetica,sans-Serif" font-size="10.00">+</text>
<text text-anchor="start" x="150.62" y="-378.5" font-family="Helvetica,sans-Serif" font-size="10.00">getRcChannel()</text>
<text text-anchor="start" x="140.62" y="-362.5" font-family="Helvetica,sans-Serif" font-size="10.00">+</text>
<text text-anchor="start" x="150.62" y="-362.5" font-family="Helvetica,sans-Serif" font-size="10.00">getRadioPower()</text>
<text text-anchor="start" x="140.62" y="-346.5" font-family="Helvetica,sans-Serif" font-size="10.00">+</text>
<text text-anchor="start" x="150.62" y="-346.5" font-family="Helvetica,sans-Serif" font-size="10.00">getPublicKeyMode()</text>
<text text-anchor="start" x="140.62" y="-330.5" font-family="Helvetica,sans-Serif" font-size="10.00">+</text>
<text text-anchor="start" x="150.62" y="-330.5" font-family="Helvetica,sans-Serif" font-size="10.00">getPayloadEncryption()</text>
<text text-anchor="start" x="140.62" y="-314.5" font-family="Helvetica,sans-Serif" font-size="10.00">+</text>
<text text-anchor="start" x="150.62" y="-314.5" font-family="Helvetica,sans-Serif" font-size="10.00">getLastRxRSSI()</text>
<text text-anchor="start" x="140.62" y="-298.5" font-family="Helvetica,sans-Serif" font-size="10.00">+</text>
<text text-anchor="start" x="150.62" y="-298.5" font-family="Helvetica,sans-Serif" font-size="10.00">getLastDownlinkTime()</text>
<text text-anchor="start" x="140.62" y="-282.5" font-family="Helvetica,sans-Serif" font-size="10.00">+</text>
<text text-anchor="start" x="150.62" y="-282.5" font-family="Helvetica,sans-Serif" font-size="10.00">setRcChannel()</text>
<text text-anchor="start" x="150.62" y="-266.5" font-family="Helvetica,sans-Serif" font-size="10.00">and 19 more...</text>
<polygon fill="#666666" stroke="#666666" points="136.62,-454 136.62,-454 255.88,-454 255.88,-454 136.62,-454"/>
<polygon fill="#666666" stroke="#666666" points="136.62,-438 136.62,-438 255.88,-438 255.88,-438 136.62,-438"/>
<polygon fill="none" stroke="#666666" points="136.62,-260 136.62,-472 255.88,-472 255.88,-260 136.62,-260"/>
</a>
</g>
</g>
<!-- Node3&#45;&gt;Node1 -->
<g id="edge2_Node000001_Node000003" class="edge">
<title>Node3&#45;&gt;Node1</title>
<g id="a_edge2_Node000001_Node000003"><a xlink:title=" ">
<path fill="none" stroke="#63b8ff" d="M168.19,-260.06C165.03,-248.26 161.8,-236.18 158.6,-224.23"/>
<polygon fill="none" stroke="#63b8ff" points="158.62,-224.31 153.21,-219.55 155.52,-212.72 160.94,-217.48 158.62,-224.31"/>
</a>
</g>
<text text-anchor="middle" x="179.38" y="-232.5" font-family="Helvetica,sans-Serif" font-size="10.00" fill="grey"> +sigfox</text>
</g>
</g>
</svg>
