<?xml version="1.0" encoding="UTF-8" standalone="no"?>
<!DOCTYPE svg PUBLIC "-//W3C//DTD SVG 1.1//EN"
 "http://www.w3.org/Graphics/SVG/1.1/DTD/svg11.dtd">
<!-- Generated by graphviz version 12.2.1 (20241206.2353)
 -->
<!-- Title: LSM1x0A_Sigfox::getPayloadEncryption Pages: 1 -->
<!--zoomable 1018 -->

<svg id="main" version="1.1" xmlns="http://www.w3.org/2000/svg" xmlns:xlink="http://www.w3.org/1999/xlink" xml:space="preserve" onload="init(evt)">
<style type="text/css"><![CDATA[
.node, .edge {opacity: 0.7;}
.node.selected, .edge.selected {opacity: 1;}
.edge:hover path { stroke: red; }
.edge:hover polygon { stroke: red; fill: red; }
]]></style>

<defs>
  <circle id="rim" cx="0" cy="0" r="7"/>
  <circle id="rim2" cx="0" cy="0" r="3.5"/>
  <g id="zoomPlus">
    <use xlink:href="#rim" fill="#404040"><set attributeName="fill" to="#808080" begin="zoomplus.mouseover" end="zoomplus.mouseout"/></use>
    <path d="M-4,0h8M0,-4v8" fill="none" stroke="white" stroke-width="1.5" pointer-events="none"/>
  </g>
  <g id="zoomMin">
    <use xlink:href="#rim" fill="#404040"><set attributeName="fill" to="#808080" begin="zoomminus.mouseover" end="zoomminus.mouseout"/></use>
    <path d="M-4,0h8" fill="none" stroke="white" stroke-width="1.5" pointer-events="none"/>
  </g>
  <g id="arrowUp" transform="translate(30 24)">
    <use xlink:href="#rim"/>
    <path pointer-events="none" fill="none" stroke="white" stroke-width="1.5" d="M0,-3.0v7 M-2.5,-0.5L0,-3.0L2.5,-0.5"/>
  </g>
  <g id="arrowRight" transform="rotate(90) translate(36 -43)">
    <use xlink:href="#rim"/>
    <path pointer-events="none" fill="none" stroke="white" stroke-width="1.5" d="M0,-3.0v7 M-2.5,-0.5L0,-3.0L2.5,-0.5"/>
  </g>
  <g id="arrowDown" transform="rotate(180) translate(-30 -48)">
    <use xlink:href="#rim"/>
    <path pointer-events="none" fill="none" stroke="white" stroke-width="1.5" d="M0,-3.0v7 M-2.5,-0.5L0,-3.0L2.5,-0.5"/>
  </g>
  <g id="arrowLeft" transform="rotate(270) translate(-36 17)">
    <use xlink:href="#rim"/>
    <path pointer-events="none" fill="none" stroke="white" stroke-width="1.5" d="M0,-3.0v7 M-2.5,-0.5L0,-3.0L2.5,-0.5"/>
  </g>
  <g id="resetDef">
    <use xlink:href="#rim2" fill="#404040"><set attributeName="fill" to="#808080" begin="reset.mouseover" end="reset.mouseout"/></use>
  </g>
</defs>
<script type="application/ecmascript">
var viewWidth = 1846;
var viewHeight = 1018;
var sectionId = 'dynsection-5';
</script>
<script type="application/ecmascript" xlink:href="../../svg.min.js"/>
<svg id="graph" class="graph">
<g id="viewport">
<title>LSM1x0A_Sigfox::getPayloadEncryption</title>
<!-- Node1 -->
<g id="Node000001" class="node">
<title>Node1</title>
<g id="a_Node000001"><a xlink:title="Checks if Payload Encryption is enabled.">
<polygon fill="#999999" stroke="#666666" points="146.5,-104 0,-104 0,-72 146.5,-72 146.5,-104"/>
<text text-anchor="start" x="8" y="-90.5" font-family="Helvetica,sans-Serif" font-size="10.00">LSM1x0A_Sigfox::getPayload</text>
<text text-anchor="middle" x="73.25" y="-78.5" font-family="Helvetica,sans-Serif" font-size="10.00">Encryption</text>
</a>
</g>
</g>
<!-- Node2 -->
<g id="Node000002" class="node">
<title>Node2</title>
<g id="a_Node000002"><a xlink:href="../../d8/d92/classLSM1x0A__Controller.html#ab00328d1be83aa51bce8c2a4f907c5f4" target="_top" xlink:title="Sends an AT command and captures its response in a text block. Ideal for getters (e....">
<polygon fill="white" stroke="#666666" points="335,-104 182.5,-104 182.5,-72 335,-72 335,-104"/>
<text text-anchor="start" x="190.5" y="-90.5" font-family="Helvetica,sans-Serif" font-size="10.00">LSM1x0A_Controller</text>
<text text-anchor="middle" x="258.75" y="-78.5" font-family="Helvetica,sans-Serif" font-size="10.00">::sendCommandWithResponse</text>
</a>
</g>
</g>
<!-- Node1&#45;&gt;Node2 -->
<g id="edge1_Node000001_Node000002" class="edge">
<title>Node1&#45;&gt;Node2</title>
<g id="a_edge1_Node000001_Node000002"><a xlink:title=" ">
<path fill="none" stroke="#63b8ff" d="M146.77,-88C154.67,-88 162.77,-88 170.82,-88"/>
<polygon fill="#63b8ff" stroke="#63b8ff" points="170.62,-91.5 180.62,-88 170.62,-84.5 170.62,-91.5"/>
</a>
</g>
</g>
<!-- Node3 -->
<g id="Node000003" class="node">
<title>Node3</title>
<g id="a_Node000003"><a xlink:href="../../d8/d92/classLSM1x0A__Controller.html#abb0eb380daa3dfb7acffb483c5db8e2b" target="_top" xlink:title="Executes the recovery protocol. First Soft&#45;Reset (ATZ), then Hard&#45;Reset if there is a pin.">
<polygon fill="white" stroke="#666666" points="477,-214 371,-214 371,-182 477,-182 477,-214"/>
<text text-anchor="start" x="379" y="-200.5" font-family="Helvetica,sans-Serif" font-size="10.00">LSM1x0A_Controller</text>
<text text-anchor="middle" x="424" y="-188.5" font-family="Helvetica,sans-Serif" font-size="10.00">::recoverModule</text>
</a>
</g>
</g>
<!-- Node2&#45;&gt;Node3 -->
<g id="edge2_Node000002_Node000003" class="edge">
<title>Node2&#45;&gt;Node3</title>
<g id="a_edge2_Node000002_Node000003"><a xlink:title=" ">
<path fill="none" stroke="#63b8ff" d="M284.19,-104.47C312.16,-123.32 358.14,-154.29 389.45,-175.39"/>
<polygon fill="#63b8ff" stroke="#63b8ff" points="387.16,-178.07 397.4,-180.75 391.07,-172.26 387.16,-178.07"/>
</a>
</g>
</g>
<!-- Node12 -->
<g id="Node000012" class="node">
<title>Node12</title>
<g id="a_Node000012"><a xlink:href="../../d6/d3c/classLSM1x0A__AtParser.html#a0ba6f927c54fceece22c17773d3f2600" target="_top" xlink:title="Sends a command and extracts a value from the response.">
<polygon fill="white" stroke="#666666" points="1692.75,-287 1518.5,-287 1518.5,-255 1692.75,-255 1692.75,-287"/>
<text text-anchor="start" x="1526.5" y="-273.5" font-family="Helvetica,sans-Serif" font-size="10.00">LSM1x0A_AtParser::sendCommand</text>
<text text-anchor="middle" x="1605.62" y="-261.5" font-family="Helvetica,sans-Serif" font-size="10.00">WithResponse</text>
</a>
</g>
</g>
<!-- Node2&#45;&gt;Node12 -->
<g id="edge57_Node000002_Node000012" class="edge">
<title>Node2&#45;&gt;Node12</title>
<g id="a_edge57_Node000002_Node000012"><a xlink:title=" ">
<path fill="none" stroke="#63b8ff" d="M296.19,-71.65C356.36,-46.21 480.79,0 591.25,0 591.25,0 591.25,0 1197,0 1373.94,0 1532.7,-179.26 1585.81,-246.19"/>
<polygon fill="#63b8ff" stroke="#63b8ff" points="1582.74,-247.95 1591.66,-253.67 1588.25,-243.64 1582.74,-247.95"/>
</a>
</g>
</g>
<!-- Node4 -->
<g id="Node000004" class="node">
<title>Node4</title>
<g id="a_Node000004"><a xlink:href="../../d8/d92/classLSM1x0A__Controller.html#a3f6f25b843fe4fb7042c544deae2ab16" target="_top" xlink:title="Manually clears bits from the internal EventGroup.">
<polygon fill="white" stroke="#666666" points="1039.88,-98 933.88,-98 933.88,-66 1039.88,-66 1039.88,-98"/>
<text text-anchor="start" x="941.88" y="-84.5" font-family="Helvetica,sans-Serif" font-size="10.00">LSM1x0A_Controller</text>
<text text-anchor="middle" x="986.88" y="-72.5" font-family="Helvetica,sans-Serif" font-size="10.00">::clearEvents</text>
</a>
</g>
</g>
<!-- Node3&#45;&gt;Node4 -->
<g id="edge3_Node000003_Node000004" class="edge">
<title>Node3&#45;&gt;Node4</title>
<g id="a_edge3_Node000003_Node000004"><a xlink:title=" ">
<path fill="none" stroke="#63b8ff" d="M449.68,-181.53C466.73,-171 490.34,-158.03 513,-151 658.65,-105.82 703.73,-138.94 854,-113 876.5,-109.12 900.9,-103.72 922.52,-98.52"/>
<polygon fill="#63b8ff" stroke="#63b8ff" points="923.2,-101.96 932.08,-96.18 921.53,-95.16 923.2,-101.96"/>
</a>
</g>
</g>
<!-- Node5 -->
<g id="Node000005" class="node">
<title>Node5</title>
<g id="a_Node000005"><a xlink:href="../../d8/d92/classLSM1x0A__Controller.html#a345d4bd79fa16b18dc33a4ca788fe5f7" target="_top" xlink:title="Performs a hardware reset using the reset pin.">
<polygon fill="white" stroke="#666666" points="645.25,-104 539.25,-104 539.25,-72 645.25,-72 645.25,-104"/>
<text text-anchor="start" x="547.25" y="-90.5" font-family="Helvetica,sans-Serif" font-size="10.00">LSM1x0A_Controller</text>
<text text-anchor="middle" x="592.25" y="-78.5" font-family="Helvetica,sans-Serif" font-size="10.00">::hardwareReset</text>
</a>
</g>
</g>
<!-- Node3&#45;&gt;Node5 -->
<g id="edge4_Node000003_Node000005" class="edge">
<title>Node3&#45;&gt;Node5</title>
<g id="a_edge4_Node000003_Node000005"><a xlink:title=" ">
<path fill="none" stroke="#63b8ff" d="M439.46,-181.63C455.82,-163.93 483.99,-135.86 513,-118 518.27,-114.76 523.94,-111.77 529.74,-109.03"/>
<polygon fill="#63b8ff" stroke="#63b8ff" points="531.14,-112.24 538.88,-104.99 528.31,-105.83 531.14,-112.24"/>
</a>
</g>
</g>
<!-- Node7 -->
<g id="Node000007" class="node">
<title>Node7</title>
<g id="a_Node000007"><a xlink:href="../../d5/d72/classLSM1x0A__LoRaWAN.html#a1892801e37c8cd67d37c76108d6f7d49" target="_top" xlink:title="Validates if the device is currently Joined to the network. (Either confirmed by OTAA or statically a...">
<polygon fill="white" stroke="#666666" points="1272.25,-136 1119.75,-136 1119.75,-116 1272.25,-116 1272.25,-136"/>
<text text-anchor="middle" x="1196" y="-122.5" font-family="Helvetica,sans-Serif" font-size="10.00">LSM1x0A_LoRaWAN::isJoined</text>
</a>
</g>
</g>
<!-- Node3&#45;&gt;Node7 -->
<g id="edge6_Node000003_Node000007" class="edge">
<title>Node3&#45;&gt;Node7</title>
<g id="a_edge6_Node000003_Node000007"><a xlink:title=" ">
<path fill="none" stroke="#63b8ff" d="M429.93,-181.77C439.99,-151.92 465.98,-88.97 513,-63 624.04,-1.69 961.76,-22.24 1083.75,-57 1118.82,-66.99 1153.62,-91.56 1174.72,-108.51"/>
<polygon fill="#63b8ff" stroke="#63b8ff" points="1172.3,-111.05 1182.24,-114.72 1176.76,-105.65 1172.3,-111.05"/>
</a>
</g>
</g>
<!-- Node8 -->
<g id="Node000008" class="node">
<title>Node8</title>
<g id="a_Node000008"><a xlink:href="../../d5/d72/classLSM1x0A__LoRaWAN.html#a83e11c0e74ff9e0757db616ab1163424" target="_top" xlink:title="Attempts to recover a lost connection (re&#45;executes OTAA Join if dropped).">
<polygon fill="white" stroke="#666666" points="666.62,-192 517.88,-192 517.88,-160 666.62,-160 666.62,-192"/>
<text text-anchor="start" x="525.88" y="-178.5" font-family="Helvetica,sans-Serif" font-size="10.00">LSM1x0A_LoRaWAN::recover</text>
<text text-anchor="middle" x="592.25" y="-166.5" font-family="Helvetica,sans-Serif" font-size="10.00">Connection</text>
</a>
</g>
</g>
<!-- Node3&#45;&gt;Node8 -->
<g id="edge7_Node000003_Node000008" class="edge">
<title>Node3&#45;&gt;Node8</title>
<g id="a_edge7_Node000003_Node000008"><a xlink:title=" ">
<path fill="none" stroke="#63b8ff" d="M477.15,-191.1C486.49,-189.86 496.44,-188.55 506.42,-187.23"/>
<polygon fill="#63b8ff" stroke="#63b8ff" points="506.72,-190.72 516.17,-185.94 505.8,-183.78 506.72,-190.72"/>
</a>
</g>
</g>
<!-- Node16 -->
<g id="Node000016" class="node">
<title>Node16</title>
<g id="a_Node000016"><a xlink:href="../../d5/d72/classLSM1x0A__LoRaWAN.html#ae3be4ce59dfa200369733317df356e97" target="_top" xlink:title="Pushes the RAM&#45;cached variables back down into the hardware module. Restores the operational state af...">
<polygon fill="white" stroke="#666666" points="854,-539 707.5,-539 707.5,-507 854,-507 854,-539"/>
<text text-anchor="start" x="715.5" y="-525.5" font-family="Helvetica,sans-Serif" font-size="10.00">LSM1x0A_LoRaWAN::restore</text>
<text text-anchor="middle" x="780.75" y="-513.5" font-family="Helvetica,sans-Serif" font-size="10.00">Config</text>
</a>
</g>
</g>
<!-- Node3&#45;&gt;Node16 -->
<g id="edge20_Node000003_Node000016" class="edge">
<title>Node3&#45;&gt;Node16</title>
<g id="a_edge20_Node000003_Node000016"><a xlink:title=" ">
<path fill="none" stroke="#63b8ff" d="M442.59,-214.12C500.51,-267.18 685.44,-436.6 753.92,-499.34"/>
<polygon fill="#63b8ff" stroke="#63b8ff" points="751.2,-501.59 760.94,-505.76 755.93,-496.43 751.2,-501.59"/>
</a>
</g>
</g>
<!-- Node33 -->
<g id="Node000033" class="node">
<title>Node33</title>
<g id="a_Node000033"><a xlink:href="../../d5/d72/classLSM1x0A__LoRaWAN.html#ace4b04396f1de1f4a54f513f5f378db7" target="_top" xlink:title="Manually overrides the internal joined state tracker.">
<polygon fill="white" stroke="#666666" points="671.5,-939 513,-939 513,-919 671.5,-919 671.5,-939"/>
<text text-anchor="middle" x="592.25" y="-925.5" font-family="Helvetica,sans-Serif" font-size="10.00">LSM1x0A_LoRaWAN::setJoined</text>
</a>
</g>
</g>
<!-- Node3&#45;&gt;Node33 -->
<g id="edge54_Node000003_Node000033" class="edge">
<title>Node3&#45;&gt;Node33</title>
<g id="a_edge54_Node000003_Node000033"><a xlink:title=" ">
<path fill="none" stroke="#63b8ff" d="M424.72,-214.4C423.4,-310.08 421.33,-795.83 513,-905 515.42,-907.88 518.18,-910.43 521.18,-912.67"/>
<polygon fill="#63b8ff" stroke="#63b8ff" points="519.16,-915.54 529.52,-917.75 522.8,-909.56 519.16,-915.54"/>
</a>
</g>
</g>
<!-- Node34 -->
<g id="Node000034" class="node">
<title>Node34</title>
<g id="a_Node000034"><a xlink:href="../../d8/d92/classLSM1x0A__Controller.html#a11ad21cb5ca33ec51346764a23bd485e" target="_top" xlink:title="Performs a software reset (ATZ Command).">
<polygon fill="white" stroke="#666666" points="1249,-795 1143,-795 1143,-763 1249,-763 1249,-795"/>
<text text-anchor="start" x="1151" y="-781.5" font-family="Helvetica,sans-Serif" font-size="10.00">LSM1x0A_Controller</text>
<text text-anchor="middle" x="1196" y="-769.5" font-family="Helvetica,sans-Serif" font-size="10.00">::softwareReset</text>
</a>
</g>
</g>
<!-- Node3&#45;&gt;Node34 -->
<g id="edge55_Node000003_Node000034" class="edge">
<title>Node3&#45;&gt;Node34</title>
<g id="a_edge55_Node000003_Node000034"><a xlink:title=" ">
<path fill="none" stroke="#63b8ff" d="M425.64,-214.18C429.91,-318.83 456,-897.3 513,-948 578.19,-1005.99 846.14,-1058.87 1083.75,-932 1135.21,-904.52 1168.82,-841.52 1184.57,-805.51"/>
<polygon fill="#63b8ff" stroke="#63b8ff" points="1187.64,-807.25 1188.3,-796.67 1181.19,-804.53 1187.64,-807.25"/>
</a>
</g>
</g>
<!-- Node6 -->
<g id="Node000006" class="node">
<title>Node6</title>
<g id="a_Node000006"><a xlink:href="../../d6/d3c/classLSM1x0A__AtParser.html#ad2839120da13e56132b95019419be1e5" target="_top" xlink:title="Waits for an event (like BOOTALERT) without sending any command. Useful for hardware reset where the ...">
<polygon fill="white" stroke="#666666" points="851,-104 710.5,-104 710.5,-72 851,-72 851,-104"/>
<text text-anchor="start" x="718.5" y="-90.5" font-family="Helvetica,sans-Serif" font-size="10.00">LSM1x0A_AtParser::waitFor</text>
<text text-anchor="middle" x="780.75" y="-78.5" font-family="Helvetica,sans-Serif" font-size="10.00">Event</text>
</a>
</g>
</g>
<!-- Node5&#45;&gt;Node6 -->
<g id="edge5_Node000005_Node000006" class="edge">
<title>Node5&#45;&gt;Node6</title>
<g id="a_edge5_Node000005_Node000006"><a xlink:title=" ">
<path fill="none" stroke="#63b8ff" d="M645.7,-88C662.21,-88 680.86,-88 698.87,-88"/>
<polygon fill="#63b8ff" stroke="#63b8ff" points="698.78,-91.5 708.78,-88 698.78,-84.5 698.78,-91.5"/>
</a>
</g>
</g>
<!-- Node9 -->
<g id="Node000009" class="node">
<title>Node9</title>
<g id="a_Node000009"><a xlink:href="../../d5/d72/classLSM1x0A__LoRaWAN.html#a59f781f3cfd30c11cd3973bcb10a7baa" target="_top" xlink:title="Initiates a LoRaWAN Network Join procedure. This is a blocking function until the module fires an eve...">
<polygon fill="white" stroke="#666666" points="846.5,-186 715,-186 715,-166 846.5,-166 846.5,-186"/>
<text text-anchor="middle" x="780.75" y="-172.5" font-family="Helvetica,sans-Serif" font-size="10.00">LSM1x0A_LoRaWAN::join</text>
</a>
</g>
</g>
<!-- Node8&#45;&gt;Node9 -->
<g id="edge8_Node000008_Node000009" class="edge">
<title>Node8&#45;&gt;Node9</title>
<g id="a_edge8_Node000008_Node000009"><a xlink:title=" ">
<path fill="none" stroke="#63b8ff" d="M666.96,-176C678.92,-176 691.33,-176 703.35,-176"/>
<polygon fill="#63b8ff" stroke="#63b8ff" points="703.22,-179.5 713.22,-176 703.22,-172.5 703.22,-179.5"/>
</a>
</g>
</g>
<!-- Node9&#45;&gt;Node3 -->
<g id="edge10_Node000009_Node000003" class="edge">
<title>Node9&#45;&gt;Node3</title>
<g id="a_edge10_Node000009_Node000003"><a xlink:title=" ">
<path fill="none" stroke="#63b8ff" d="M744.02,-186.4C723.09,-191.95 696.03,-198.2 671.5,-201 601.51,-208.98 583.43,-202.2 513,-201 505.1,-200.87 496.81,-200.66 488.61,-200.43"/>
<polygon fill="#63b8ff" stroke="#63b8ff" points="488.73,-196.93 478.62,-200.12 488.51,-203.92 488.73,-196.93"/>
</a>
</g>
</g>
<!-- Node9&#45;&gt;Node4 -->
<g id="edge9_Node000009_Node000004" class="edge">
<title>Node9&#45;&gt;Node4</title>
<g id="a_edge9_Node000009_Node000004"><a xlink:title=" ">
<path fill="none" stroke="#63b8ff" d="M815.3,-165.52C828.05,-160.68 842.31,-154.16 854,-146 873.34,-132.5 869.77,-119.13 890,-107 899.95,-101.03 911.31,-96.47 922.65,-93"/>
<polygon fill="#63b8ff" stroke="#63b8ff" points="923.32,-96.45 932.01,-90.39 921.44,-89.7 923.32,-96.45"/>
</a>
</g>
</g>
<!-- Node10 -->
<g id="Node000010" class="node">
<title>Node10</title>
<g id="a_Node000010"><a xlink:href="../../d8/d92/classLSM1x0A__Controller.html#afd7d92e60ed6fdae696a955cdbe0ed8c" target="_top" xlink:title="Sends any AT command to the module, returning error if it fails. Internally uses the LsmAtParser logi...">
<polygon fill="white" stroke="#666666" points="1249,-558 1143,-558 1143,-526 1249,-526 1249,-558"/>
<text text-anchor="start" x="1151" y="-544.5" font-family="Helvetica,sans-Serif" font-size="10.00">LSM1x0A_Controller</text>
<text text-anchor="middle" x="1196" y="-532.5" font-family="Helvetica,sans-Serif" font-size="10.00">::sendCommand</text>
</a>
</g>
</g>
<!-- Node9&#45;&gt;Node10 -->
<g id="edge11_Node000009_Node000010" class="edge">
<title>Node9&#45;&gt;Node10</title>
<g id="a_edge11_Node000009_Node000010"><a xlink:title=" ">
<path fill="none" stroke="#63b8ff" d="M846.78,-171.81C924.39,-168.2 1048.16,-167.28 1083.75,-195 1185.48,-274.23 1195.74,-447.25 1195.7,-514.5"/>
<polygon fill="#63b8ff" stroke="#63b8ff" points="1192.2,-514.23 1195.6,-524.26 1199.2,-514.3 1192.2,-514.23"/>
</a>
</g>
</g>
<!-- Node14 -->
<g id="Node000014" class="node">
<title>Node14</title>
<g id="a_Node000014"><a xlink:href="../../d5/d72/classLSM1x0A__LoRaWAN.html#a3fdd1ac318a5ad2559323e5d57e36a5e" target="_top" xlink:title="Enables or disables specific sub&#45;bands for regions supporting Channel Masks (e.g.,...">
<polygon fill="white" stroke="#666666" points="1081.88,-224 891.88,-224 891.88,-204 1081.88,-204 1081.88,-224"/>
<text text-anchor="middle" x="986.88" y="-210.5" font-family="Helvetica,sans-Serif" font-size="10.00">LSM1x0A_LoRaWAN::setChannelMask</text>
</a>
</g>
</g>
<!-- Node9&#45;&gt;Node14 -->
<g id="edge16_Node000009_Node000014" class="edge">
<title>Node9&#45;&gt;Node14</title>
<g id="a_edge16_Node000009_Node000014"><a xlink:title=" ">
<path fill="none" stroke="#63b8ff" d="M838.07,-186.48C862.94,-191.12 892.39,-196.6 918.43,-201.44"/>
<polygon fill="#63b8ff" stroke="#63b8ff" points="917.78,-204.88 928.25,-203.27 919.06,-198 917.78,-204.88"/>
</a>
</g>
</g>
<!-- Node15 -->
<g id="Node000015" class="node">
<title>Node15</title>
<g id="a_Node000015"><a xlink:href="../../d8/d92/classLSM1x0A__Controller.html#a62476e30e50c7fe120aeb8df4b828675" target="_top" xlink:title="Synchronously/blockingly waits for an asynchronous event to occur. Useful for wrapping commands like ...">
<polygon fill="white" stroke="#666666" points="1039.88,-148 933.88,-148 933.88,-116 1039.88,-116 1039.88,-148"/>
<text text-anchor="start" x="941.88" y="-134.5" font-family="Helvetica,sans-Serif" font-size="10.00">LSM1x0A_Controller</text>
<text text-anchor="middle" x="986.88" y="-122.5" font-family="Helvetica,sans-Serif" font-size="10.00">::waitForEvent</text>
</a>
</g>
</g>
<!-- Node9&#45;&gt;Node15 -->
<g id="edge19_Node000009_Node000015" class="edge">
<title>Node9&#45;&gt;Node15</title>
<g id="a_edge19_Node000009_Node000015"><a xlink:title=" ">
<path fill="none" stroke="#63b8ff" d="M830.38,-165.52C857.99,-159.57 892.86,-152.05 922.57,-145.65"/>
<polygon fill="#63b8ff" stroke="#63b8ff" points="923.17,-149.1 932.2,-143.57 921.69,-142.25 923.17,-149.1"/>
</a>
</g>
</g>
<!-- Node10&#45;&gt;Node3 -->
<g id="edge12_Node000010_Node000003" class="edge">
<title>Node10&#45;&gt;Node3</title>
<g id="a_edge12_Node000010_Node000003"><a xlink:title=" ">
<path fill="none" stroke="#63b8ff" d="M1188.57,-558.31C1174.81,-593.61 1141.91,-679.91 1119.75,-754 1100.48,-818.44 1136.67,-859.48 1083.75,-901 1016,-954.16 966.44,-940.65 890,-901 602.68,-751.97 464.72,-335.66 432.52,-225.19"/>
<polygon fill="#63b8ff" stroke="#63b8ff" points="435.95,-224.47 429.83,-215.82 429.22,-226.4 435.95,-224.47"/>
</a>
</g>
</g>
<!-- Node11 -->
<g id="Node000011" class="node">
<title>Node11</title>
<g id="a_Node000011"><a xlink:href="../../d6/d3c/classLSM1x0A__AtParser.html#a29b53c521974387ba6c03afadfaffa4a" target="_top" xlink:title="Sends a simple command and waits for OK/ERROR. Example: sendCommand(&quot;AT+JOIN&quot;);.">
<polygon fill="white" stroke="#666666" points="1482.5,-552 1308.25,-552 1308.25,-532 1482.5,-532 1482.5,-552"/>
<text text-anchor="middle" x="1395.38" y="-538.5" font-family="Helvetica,sans-Serif" font-size="10.00">LSM1x0A_AtParser::sendCommand</text>
</a>
</g>
</g>
<!-- Node10&#45;&gt;Node11 -->
<g id="edge13_Node000010_Node000011" class="edge">
<title>Node10&#45;&gt;Node11</title>
<g id="a_edge13_Node000010_Node000011"><a xlink:title=" ">
<path fill="none" stroke="#63b8ff" d="M1249.37,-542C1263.94,-542 1280.25,-542 1296.53,-542"/>
<polygon fill="#63b8ff" stroke="#63b8ff" points="1296.26,-545.5 1306.26,-542 1296.26,-538.5 1296.26,-545.5"/>
</a>
</g>
</g>
<!-- Node11&#45;&gt;Node12 -->
<g id="edge14_Node000011_Node000012" class="edge">
<title>Node11&#45;&gt;Node12</title>
<g id="a_edge14_Node000011_Node000012"><a xlink:title=" ">
<path fill="none" stroke="#63b8ff" d="M1404.28,-531.71C1434.19,-492.78 1540.93,-353.88 1585.19,-296.3"/>
<polygon fill="#63b8ff" stroke="#63b8ff" points="1587.73,-298.73 1591.05,-288.67 1582.18,-294.46 1587.73,-298.73"/>
</a>
</g>
</g>
<!-- Node13 -->
<g id="Node000013" class="node">
<title>Node13</title>
<g id="a_Node000013"><a xlink:href="../../d5/d8b/classUartDriver.html#a5d0f22e8867eebe99273078bb19bd23d" target="_top" xlink:title="Sends data through UART.">
<polygon fill="white" stroke="#666666" points="1837.75,-281 1728.75,-281 1728.75,-261 1837.75,-261 1837.75,-281"/>
<text text-anchor="middle" x="1783.25" y="-267.5" font-family="Helvetica,sans-Serif" font-size="10.00">UartDriver::sendData</text>
</a>
</g>
</g>
<!-- Node12&#45;&gt;Node13 -->
<g id="edge15_Node000012_Node000013" class="edge">
<title>Node12&#45;&gt;Node13</title>
<g id="a_edge15_Node000012_Node000013"><a xlink:title=" ">
<path fill="none" stroke="#63b8ff" d="M1693.15,-271C1701.3,-271 1709.45,-271 1717.35,-271"/>
<polygon fill="#63b8ff" stroke="#63b8ff" points="1717.18,-274.5 1727.18,-271 1717.18,-267.5 1717.18,-274.5"/>
</a>
</g>
</g>
<!-- Node14&#45;&gt;Node7 -->
<g id="edge17_Node000014_Node000007" class="edge">
<title>Node14&#45;&gt;Node7</title>
<g id="a_edge17_Node000014_Node000007"><a xlink:title=" ">
<path fill="none" stroke="#63b8ff" d="M1012.45,-203.56C1049.04,-188.01 1118.03,-158.7 1159.92,-140.9"/>
<polygon fill="#63b8ff" stroke="#63b8ff" points="1161.23,-144.15 1169.07,-137.02 1158.49,-137.71 1161.23,-144.15"/>
</a>
</g>
</g>
<!-- Node14&#45;&gt;Node10 -->
<g id="edge18_Node000014_Node000010" class="edge">
<title>Node14&#45;&gt;Node10</title>
<g id="a_edge18_Node000014_Node000010"><a xlink:title=" ">
<path fill="none" stroke="#63b8ff" d="M1070.63,-224.28C1075.33,-226.69 1079.76,-229.57 1083.75,-233 1170.08,-307.27 1189.42,-453.75 1193.75,-514.55"/>
<polygon fill="#63b8ff" stroke="#63b8ff" points="1190.25,-514.57 1194.36,-524.33 1197.23,-514.13 1190.25,-514.57"/>
</a>
</g>
</g>
<!-- Node16&#45;&gt;Node14 -->
<g id="edge25_Node000016_Node000014" class="edge">
<title>Node16&#45;&gt;Node14</title>
<g id="a_edge25_Node000016_Node000014"><a xlink:title=" ">
<path fill="none" stroke="#63b8ff" d="M782.55,-506.78C785.93,-457.25 803.2,-306.79 890,-233 891.13,-232.04 892.29,-231.13 893.48,-230.25"/>
<polygon fill="#63b8ff" stroke="#63b8ff" points="895.17,-233.33 901.87,-225.12 891.52,-227.35 895.17,-233.33"/>
</a>
</g>
</g>
<!-- Node17 -->
<g id="Node000017" class="node">
<title>Node17</title>
<g id="a_Node000017"><a xlink:href="../../d5/d72/classLSM1x0A__LoRaWAN.html#af0baa3db4c7fab580d6b19a9e92472f6" target="_top" xlink:title="Enables or disables Adaptive Data Rate (ADR).">
<polygon fill="white" stroke="#666666" points="1062.75,-350 911,-350 911,-330 1062.75,-330 1062.75,-350"/>
<text text-anchor="middle" x="986.88" y="-336.5" font-family="Helvetica,sans-Serif" font-size="10.00">LSM1x0A_LoRaWAN::setADR</text>
</a>
</g>
</g>
<!-- Node16&#45;&gt;Node17 -->
<g id="edge21_Node000016_Node000017" class="edge">
<title>Node16&#45;&gt;Node17</title>
<g id="a_edge21_Node000016_Node000017"><a xlink:title=" ">
<path fill="none" stroke="#63b8ff" d="M787.56,-506.6C800.35,-473 834.35,-396.38 890,-359 893.27,-356.8 896.73,-354.85 900.33,-353.11"/>
<polygon fill="#63b8ff" stroke="#63b8ff" points="901.48,-356.42 909.37,-349.35 898.79,-349.96 901.48,-356.42"/>
</a>
</g>
</g>
<!-- Node18 -->
<g id="Node000018" class="node">
<title>Node18</title>
<g id="a_Node000018"><a xlink:href="../../d5/d72/classLSM1x0A__LoRaWAN.html#a5365ed1596eb84ebf1e3b33b4a10c788" target="_top" xlink:title="Sets the LoRaWAN operational frequency band.">
<polygon fill="white" stroke="#666666" points="1063.12,-312 910.62,-312 910.62,-292 1063.12,-292 1063.12,-312"/>
<text text-anchor="middle" x="986.88" y="-298.5" font-family="Helvetica,sans-Serif" font-size="10.00">LSM1x0A_LoRaWAN::setBand</text>
</a>
</g>
</g>
<!-- Node16&#45;&gt;Node18 -->
<g id="edge23_Node000016_Node000018" class="edge">
<title>Node16&#45;&gt;Node18</title>
<g id="a_edge23_Node000016_Node000018"><a xlink:title=" ">
<path fill="none" stroke="#63b8ff" d="M785.47,-506.5C795.2,-467.43 825.24,-368.94 890,-321 893.16,-318.66 896.54,-316.58 900.07,-314.75"/>
<polygon fill="#63b8ff" stroke="#63b8ff" points="901.25,-318.05 908.97,-310.8 898.41,-311.66 901.25,-318.05"/>
</a>
</g>
</g>
<!-- Node19 -->
<g id="Node000019" class="node">
<title>Node19</title>
<g id="a_Node000019"><a xlink:href="../../d5/d72/classLSM1x0A__LoRaWAN.html#a9d9285c43414337a0ccb3a6cd7ca06e6" target="_top" xlink:title="Configures the number of retries for Confirmed uplinks.">
<polygon fill="white" stroke="#666666" points="1069.12,-274 904.62,-274 904.62,-242 1069.12,-242 1069.12,-274"/>
<text text-anchor="start" x="912.62" y="-260.5" font-family="Helvetica,sans-Serif" font-size="10.00">LSM1x0A_LoRaWAN::setConfirm</text>
<text text-anchor="middle" x="986.88" y="-248.5" font-family="Helvetica,sans-Serif" font-size="10.00">Retry</text>
</a>
</g>
</g>
<!-- Node16&#45;&gt;Node19 -->
<g id="edge26_Node000016_Node000019" class="edge">
<title>Node16&#45;&gt;Node19</title>
<g id="a_edge26_Node000016_Node000019"><a xlink:title=" ">
<path fill="none" stroke="#63b8ff" d="M784.18,-506.7C791.55,-463.28 817.7,-344.03 890,-283 891.49,-281.74 893.04,-280.55 894.63,-279.41"/>
<polygon fill="#63b8ff" stroke="#63b8ff" points="896.25,-282.52 902.95,-274.32 892.6,-276.55 896.25,-282.52"/>
</a>
</g>
</g>
<!-- Node20 -->
<g id="Node000020" class="node">
<title>Node20</title>
<g id="a_Node000020"><a xlink:href="../../d5/d72/classLSM1x0A__LoRaWAN.html#a56345ceeafa0b9059d6de4e69eddc82e" target="_top" xlink:title="Sets the Data Rate (DR) of the module.">
<polygon fill="white" stroke="#666666" points="1072.88,-892 900.88,-892 900.88,-872 1072.88,-872 1072.88,-892"/>
<text text-anchor="middle" x="986.88" y="-878.5" font-family="Helvetica,sans-Serif" font-size="10.00">LSM1x0A_LoRaWAN::setDataRate</text>
</a>
</g>
</g>
<!-- Node16&#45;&gt;Node20 -->
<g id="edge28_Node000016_Node000020" class="edge">
<title>Node16&#45;&gt;Node20</title>
<g id="a_edge28_Node000016_Node000020"><a xlink:title=" ">
<path fill="none" stroke="#63b8ff" d="M781.55,-539.16C781.79,-593.93 790.44,-774.06 890,-863 890.95,-863.85 891.92,-864.66 892.92,-865.44"/>
<polygon fill="#63b8ff" stroke="#63b8ff" points="890.95,-868.34 901.25,-870.83 894.75,-862.46 890.95,-868.34"/>
</a>
</g>
</g>
<!-- Node21 -->
<g id="Node000021" class="node">
<title>Node21</title>
<g id="a_Node000021"><a xlink:href="../../d5/d72/classLSM1x0A__LoRaWAN.html#a8494083816ab885cb07fc3b08de029f4" target="_top" xlink:title="Sets the LoRaWAN Device Address (DevAddr) for ABP mode.">
<polygon fill="white" stroke="#666666" points="1071,-854 902.75,-854 902.75,-834 1071,-834 1071,-854"/>
<text text-anchor="middle" x="986.88" y="-840.5" font-family="Helvetica,sans-Serif" font-size="10.00">LSM1x0A_LoRaWAN::setDevAddr</text>
</a>
</g>
</g>
<!-- Node16&#45;&gt;Node21 -->
<g id="edge30_Node000016_Node000021" class="edge">
<title>Node16&#45;&gt;Node21</title>
<g id="a_edge30_Node000016_Node000021"><a xlink:title=" ">
<path fill="none" stroke="#63b8ff" d="M782.28,-539.15C784.87,-589.92 800.12,-747.57 890,-825 891.12,-825.97 892.28,-826.89 893.46,-827.77"/>
<polygon fill="#63b8ff" stroke="#63b8ff" points="891.48,-830.65 901.82,-832.93 895.15,-824.7 891.48,-830.65"/>
</a>
</g>
</g>
<!-- Node22 -->
<g id="Node000022" class="node">
<title>Node22</title>
<g id="a_Node000022"><a xlink:href="../../d5/d72/classLSM1x0A__LoRaWAN.html#ad320634e52d7ea907043cc50dd37c5b0" target="_top" xlink:title="Sets the LoRaWAN Device EUI (DevEUI).">
<polygon fill="white" stroke="#666666" points="1069.5,-816 904.25,-816 904.25,-796 1069.5,-796 1069.5,-816"/>
<text text-anchor="middle" x="986.88" y="-802.5" font-family="Helvetica,sans-Serif" font-size="10.00">LSM1x0A_LoRaWAN::setDevEUI</text>
</a>
</g>
</g>
<!-- Node16&#45;&gt;Node22 -->
<g id="edge32_Node000016_Node000022" class="edge">
<title>Node16&#45;&gt;Node22</title>
<g id="a_edge32_Node000016_Node000022"><a xlink:title=" ">
<path fill="none" stroke="#63b8ff" d="M783.24,-539.44C788.39,-586.24 809.87,-721.05 890,-787 891.49,-788.22 893.03,-789.38 894.62,-790.46"/>
<polygon fill="#63b8ff" stroke="#63b8ff" points="892.48,-793.27 902.9,-795.21 895.97,-787.2 892.48,-793.27"/>
</a>
</g>
</g>
<!-- Node23 -->
<g id="Node000023" class="node">
<title>Node23</title>
<g id="a_Node000023"><a xlink:href="../../d5/d72/classLSM1x0A__LoRaWAN.html#a031023b0d2dd5db3c51c2db6ae7801cc" target="_top" xlink:title="Enables or disables the Duty Cycle limitation (EU regions mostly).">
<polygon fill="white" stroke="#666666" points="1062.38,-778 911.38,-778 911.38,-746 1062.38,-746 1062.38,-778"/>
<text text-anchor="start" x="919.38" y="-764.5" font-family="Helvetica,sans-Serif" font-size="10.00">LSM1x0A_LoRaWAN::setDuty</text>
<text text-anchor="middle" x="986.88" y="-752.5" font-family="Helvetica,sans-Serif" font-size="10.00">Cycle</text>
</a>
</g>
</g>
<!-- Node16&#45;&gt;Node23 -->
<g id="edge34_Node000016_Node000023" class="edge">
<title>Node16&#45;&gt;Node23</title>
<g id="a_edge34_Node000016_Node000023"><a xlink:title=" ">
<path fill="none" stroke="#63b8ff" d="M785.15,-539.3C794.4,-579.44 823.89,-683.67 890,-737 893.44,-739.78 897.16,-742.25 901.06,-744.44"/>
<polygon fill="#63b8ff" stroke="#63b8ff" points="899.21,-747.44 909.73,-748.7 902.3,-741.15 899.21,-747.44"/>
</a>
</g>
</g>
<!-- Node24 -->
<g id="Node000024" class="node">
<title>Node24</title>
<g id="a_Node000024"><a xlink:href="../../d5/d72/classLSM1x0A__LoRaWAN.html#a6b179d5825c49af0f391dfc539912f64" target="_top" xlink:title="Sets the delay for the Join1 receive window.">
<polygon fill="white" stroke="#666666" points="1063.5,-728 910.25,-728 910.25,-696 1063.5,-696 1063.5,-728"/>
<text text-anchor="start" x="918.25" y="-714.5" font-family="Helvetica,sans-Serif" font-size="10.00">LSM1x0A_LoRaWAN::setJoin1</text>
<text text-anchor="middle" x="986.88" y="-702.5" font-family="Helvetica,sans-Serif" font-size="10.00">Delay</text>
</a>
</g>
</g>
<!-- Node16&#45;&gt;Node24 -->
<g id="edge36_Node000016_Node000024" class="edge">
<title>Node16&#45;&gt;Node24</title>
<g id="a_edge36_Node000016_Node000024"><a xlink:title=" ">
<path fill="none" stroke="#63b8ff" d="M787.84,-539.39C801.06,-572.62 835.63,-648.08 890,-687 893.17,-689.27 896.54,-691.34 900.03,-693.21"/>
<polygon fill="#63b8ff" stroke="#63b8ff" points="898.28,-696.26 908.82,-697.38 901.28,-689.93 898.28,-696.26"/>
</a>
</g>
</g>
<!-- Node25 -->
<g id="Node000025" class="node">
<title>Node25</title>
<g id="a_Node000025"><a xlink:href="../../d5/d72/classLSM1x0A__LoRaWAN.html#a4545d0caad41558cdb9bae8286b104d8" target="_top" xlink:title="Sets the delay for the Join2 receive window.">
<polygon fill="white" stroke="#666666" points="1063.5,-678 910.25,-678 910.25,-646 1063.5,-646 1063.5,-678"/>
<text text-anchor="start" x="918.25" y="-664.5" font-family="Helvetica,sans-Serif" font-size="10.00">LSM1x0A_LoRaWAN::setJoin2</text>
<text text-anchor="middle" x="986.88" y="-652.5" font-family="Helvetica,sans-Serif" font-size="10.00">Delay</text>
</a>
</g>
</g>
<!-- Node16&#45;&gt;Node25 -->
<g id="edge38_Node000016_Node000025" class="edge">
<title>Node16&#45;&gt;Node25</title>
<g id="a_edge38_Node000016_Node000025"><a xlink:title=" ">
<path fill="none" stroke="#63b8ff" d="M792.64,-539.33C810.15,-564.27 846.99,-611.61 890,-637 893.01,-638.78 896.15,-640.43 899.38,-641.97"/>
<polygon fill="#63b8ff" stroke="#63b8ff" points="897.98,-645.18 908.55,-645.9 900.74,-638.74 897.98,-645.18"/>
</a>
</g>
</g>
<!-- Node26 -->
<g id="Node000026" class="node">
<title>Node26</title>
<g id="a_Node000026"><a xlink:href="../../d5/d72/classLSM1x0A__LoRaWAN.html#a06bd50723ec1eb7e144c9141b2ec86fc" target="_top" xlink:title="Sets the LoRaWAN Network ID (NetID).">
<polygon fill="white" stroke="#666666" points="1067.25,-628 906.5,-628 906.5,-608 1067.25,-608 1067.25,-628"/>
<text text-anchor="middle" x="986.88" y="-614.5" font-family="Helvetica,sans-Serif" font-size="10.00">LSM1x0A_LoRaWAN::setNwkID</text>
</a>
</g>
</g>
<!-- Node16&#45;&gt;Node26 -->
<g id="edge40_Node000016_Node000026" class="edge">
<title>Node16&#45;&gt;Node26</title>
<g id="a_edge40_Node000016_Node000026"><a xlink:title=" ">
<path fill="none" stroke="#63b8ff" d="M799.85,-539.34C820.26,-556.84 855.16,-584.11 890,-599 894.6,-600.97 899.41,-602.73 904.33,-604.32"/>
<polygon fill="#63b8ff" stroke="#63b8ff" points="903.17,-607.63 913.76,-607.08 905.14,-600.91 903.17,-607.63"/>
</a>
</g>
</g>
<!-- Node27 -->
<g id="Node000027" class="node">
<title>Node27</title>
<g id="a_Node000027"><a xlink:href="../../d5/d72/classLSM1x0A__LoRaWAN.html#aa70ada64d28ecca216bb62268e502adf" target="_top" xlink:title="Sets the delay for the RX1 receive window.">
<polygon fill="white" stroke="#666666" points="1073.62,-590 900.12,-590 900.12,-570 1073.62,-570 1073.62,-590"/>
<text text-anchor="middle" x="986.88" y="-576.5" font-family="Helvetica,sans-Serif" font-size="10.00">LSM1x0A_LoRaWAN::setRx1Delay</text>
</a>
</g>
</g>
<!-- Node16&#45;&gt;Node27 -->
<g id="edge42_Node000016_Node000027" class="edge">
<title>Node16&#45;&gt;Node27</title>
<g id="a_edge42_Node000016_Node000027"><a xlink:title=" ">
<path fill="none" stroke="#63b8ff" d="M824.24,-539.49C844.02,-546.76 868,-554.99 890,-561 898.08,-563.21 906.61,-565.27 915.12,-567.16"/>
<polygon fill="#63b8ff" stroke="#63b8ff" points="914.25,-570.55 924.76,-569.23 915.72,-563.71 914.25,-570.55"/>
</a>
</g>
</g>
<!-- Node28 -->
<g id="Node000028" class="node">
<title>Node28</title>
<g id="a_Node000028"><a xlink:href="../../d5/d72/classLSM1x0A__LoRaWAN.html#a2cf4eff0181b6107d082bccefa24217b" target="_top" xlink:title="Sets the Data Rate (DR) specifically for the RX2 window.">
<polygon fill="white" stroke="#666666" points="1081.88,-552 891.88,-552 891.88,-532 1081.88,-532 1081.88,-552"/>
<text text-anchor="middle" x="986.88" y="-538.5" font-family="Helvetica,sans-Serif" font-size="10.00">LSM1x0A_LoRaWAN::setRx2DataRate</text>
</a>
</g>
</g>
<!-- Node16&#45;&gt;Node28 -->
<g id="edge44_Node000016_Node000028" class="edge">
<title>Node16&#45;&gt;Node28</title>
<g id="a_edge44_Node000016_Node000028"><a xlink:title=" ">
<path fill="none" stroke="#63b8ff" d="M854.29,-529.75C862.66,-530.53 871.31,-531.34 880.01,-532.15"/>
<polygon fill="#63b8ff" stroke="#63b8ff" points="879.64,-535.63 889.93,-533.07 880.29,-528.66 879.64,-535.63"/>
</a>
</g>
</g>
<!-- Node29 -->
<g id="Node000029" class="node">
<title>Node29</title>
<g id="a_Node000029"><a xlink:href="../../d5/d72/classLSM1x0A__LoRaWAN.html#a42d2137b475b57e19d891a5f1ac93221" target="_top" xlink:title="Sets the delay for the RX2 receive window.">
<polygon fill="white" stroke="#666666" points="1073.62,-514 900.12,-514 900.12,-494 1073.62,-494 1073.62,-514"/>
<text text-anchor="middle" x="986.88" y="-500.5" font-family="Helvetica,sans-Serif" font-size="10.00">LSM1x0A_LoRaWAN::setRx2Delay</text>
</a>
</g>
</g>
<!-- Node16&#45;&gt;Node29 -->
<g id="edge46_Node000016_Node000029" class="edge">
<title>Node16&#45;&gt;Node29</title>
<g id="a_edge46_Node000016_Node000029"><a xlink:title=" ">
<path fill="none" stroke="#63b8ff" d="M854.29,-516.25C865.49,-515.21 877.22,-514.11 888.85,-513.03"/>
<polygon fill="#63b8ff" stroke="#63b8ff" points="888.82,-516.55 898.45,-512.14 888.17,-509.58 888.82,-516.55"/>
</a>
</g>
</g>
<!-- Node30 -->
<g id="Node000030" class="node">
<title>Node30</title>
<g id="a_Node000030"><a xlink:href="../../d5/d72/classLSM1x0A__LoRaWAN.html#a689f7dfda1dfeae11ea397c2ddf2ad37" target="_top" xlink:title="Sets the precise frequency for the RX2 window.">
<polygon fill="white" stroke="#666666" points="1083.75,-476 890,-476 890,-456 1083.75,-456 1083.75,-476"/>
<text text-anchor="middle" x="986.88" y="-462.5" font-family="Helvetica,sans-Serif" font-size="10.00">LSM1x0A_LoRaWAN::setRx2Frequency</text>
</a>
</g>
</g>
<!-- Node16&#45;&gt;Node30 -->
<g id="edge48_Node000016_Node000030" class="edge">
<title>Node16&#45;&gt;Node30</title>
<g id="a_edge48_Node000016_Node000030"><a xlink:title=" ">
<path fill="none" stroke="#63b8ff" d="M824.24,-506.51C844.02,-499.24 868,-491.01 890,-485 898.08,-482.79 906.61,-480.73 915.12,-478.84"/>
<polygon fill="#63b8ff" stroke="#63b8ff" points="915.72,-482.29 924.76,-476.77 914.25,-475.45 915.72,-482.29"/>
</a>
</g>
</g>
<!-- Node31 -->
<g id="Node000031" class="node">
<title>Node31</title>
<g id="a_Node000031"><a xlink:href="../../d5/d72/classLSM1x0A__LoRaWAN.html#a1df10d7ae6bf45b537d28d3d5c4b88d7" target="_top" xlink:title="Sets the transmission power index.">
<polygon fill="white" stroke="#666666" points="1071.38,-438 902.38,-438 902.38,-418 1071.38,-418 1071.38,-438"/>
<text text-anchor="middle" x="986.88" y="-424.5" font-family="Helvetica,sans-Serif" font-size="10.00">LSM1x0A_LoRaWAN::setTxPower</text>
</a>
</g>
</g>
<!-- Node16&#45;&gt;Node31 -->
<g id="edge50_Node000016_Node000031" class="edge">
<title>Node16&#45;&gt;Node31</title>
<g id="a_edge50_Node000016_Node000031"><a xlink:title=" ">
<path fill="none" stroke="#63b8ff" d="M799.85,-506.66C820.26,-489.16 855.16,-461.89 890,-447 894.6,-445.03 899.41,-443.27 904.33,-441.68"/>
<polygon fill="#63b8ff" stroke="#63b8ff" points="905.14,-445.09 913.76,-438.92 903.17,-438.37 905.14,-445.09"/>
</a>
</g>
</g>
<!-- Node32 -->
<g id="Node000032" class="node">
<title>Node32</title>
<g id="a_Node000032"><a xlink:href="../../d5/d72/classLSM1x0A__LoRaWAN.html#a059fd6a9356c4ecadd5a98294da5952d" target="_top" xlink:title="Configures the number of repetitions for Unconfirmed uplinks.">
<polygon fill="white" stroke="#666666" points="1074.38,-400 899.38,-400 899.38,-368 1074.38,-368 1074.38,-400"/>
<text text-anchor="start" x="907.38" y="-386.5" font-family="Helvetica,sans-Serif" font-size="10.00">LSM1x0A_LoRaWAN::setUnconfirm</text>
<text text-anchor="middle" x="986.88" y="-374.5" font-family="Helvetica,sans-Serif" font-size="10.00">Retry</text>
</a>
</g>
</g>
<!-- Node16&#45;&gt;Node32 -->
<g id="edge52_Node000016_Node000032" class="edge">
<title>Node16&#45;&gt;Node32</title>
<g id="a_edge52_Node000016_Node000032"><a xlink:title=" ">
<path fill="none" stroke="#63b8ff" d="M792.64,-506.67C810.15,-481.73 846.99,-434.39 890,-409 892.31,-407.64 894.7,-406.34 897.14,-405.12"/>
<polygon fill="#63b8ff" stroke="#63b8ff" points="898.4,-408.4 906.08,-401.1 895.53,-402.01 898.4,-408.4"/>
</a>
</g>
</g>
<!-- Node17&#45;&gt;Node10 -->
<g id="edge22_Node000017_Node000010" class="edge">
<title>Node17&#45;&gt;Node10</title>
<g id="a_edge22_Node000017_Node000010"><a xlink:title=" ">
<path fill="none" stroke="#63b8ff" d="M1063.15,-348.53C1070.47,-351.2 1077.49,-354.62 1083.75,-359 1139.34,-397.86 1172.19,-474.26 1186.49,-514.97"/>
<polygon fill="#63b8ff" stroke="#63b8ff" points="1183.11,-515.89 1189.62,-524.24 1189.74,-513.65 1183.11,-515.89"/>
</a>
</g>
</g>
<!-- Node18&#45;&gt;Node10 -->
<g id="edge24_Node000018_Node000010" class="edge">
<title>Node18&#45;&gt;Node10</title>
<g id="a_edge24_Node000018_Node000010"><a xlink:title=" ">
<path fill="none" stroke="#63b8ff" d="M1063.52,-310.03C1070.77,-312.79 1077.67,-316.38 1083.75,-321 1148.37,-370.13 1178.21,-467.16 1189.41,-514.6"/>
<polygon fill="#63b8ff" stroke="#63b8ff" points="1185.92,-515.06 1191.53,-524.05 1192.75,-513.53 1185.92,-515.06"/>
</a>
</g>
</g>
<!-- Node19&#45;&gt;Node10 -->
<g id="edge27_Node000019_Node000010" class="edge">
<title>Node19&#45;&gt;Node10</title>
<g id="a_edge27_Node000019_Node000010"><a xlink:title=" ">
<path fill="none" stroke="#63b8ff" d="M1069.58,-273.44C1074.66,-276.14 1079.45,-279.3 1083.75,-283 1155.7,-344.86 1182.48,-461.59 1191.24,-514.59"/>
<polygon fill="#63b8ff" stroke="#63b8ff" points="1187.75,-514.92 1192.74,-524.26 1194.67,-513.84 1187.75,-514.92"/>
</a>
</g>
</g>
<!-- Node20&#45;&gt;Node10 -->
<g id="edge29_Node000020_Node000010" class="edge">
<title>Node20&#45;&gt;Node10</title>
<g id="a_edge29_Node000020_Node000010"><a xlink:title=" ">
<path fill="none" stroke="#63b8ff" d="M1071.19,-871.6C1075.7,-869.21 1079.94,-866.37 1083.75,-863 1121.98,-829.22 1103.22,-802.26 1119.75,-754 1142.56,-687.42 1170.55,-609.52 1185.12,-569.23"/>
<polygon fill="#63b8ff" stroke="#63b8ff" points="1188.39,-570.47 1188.51,-559.87 1181.81,-568.08 1188.39,-570.47"/>
</a>
</g>
</g>
<!-- Node21&#45;&gt;Node10 -->
<g id="edge31_Node000021_Node000010" class="edge">
<title>Node21&#45;&gt;Node10</title>
<g id="a_edge31_Node000021_Node000010"><a xlink:title=" ">
<path fill="none" stroke="#63b8ff" d="M1070.52,-833.58C1075.25,-831.21 1079.71,-828.37 1083.75,-825 1104.53,-807.64 1163.44,-636.39 1186.03,-569.02"/>
<polygon fill="#63b8ff" stroke="#63b8ff" points="1189.24,-570.45 1189.09,-559.86 1182.6,-568.24 1189.24,-570.45"/>
</a>
</g>
</g>
<!-- Node22&#45;&gt;Node10 -->
<g id="edge33_Node000022_Node000010" class="edge">
<title>Node22&#45;&gt;Node10</title>
<g id="a_edge33_Node000022_Node000010"><a xlink:title=" ">
<path fill="none" stroke="#63b8ff" d="M1069.86,-795.56C1074.8,-793.2 1079.49,-790.37 1083.75,-787 1154.25,-731.13 1181.64,-620.69 1190.88,-569.39"/>
<polygon fill="#63b8ff" stroke="#63b8ff" points="1194.29,-570.18 1192.51,-559.74 1187.39,-569.01 1194.29,-570.18"/>
</a>
</g>
</g>
<!-- Node23&#45;&gt;Node10 -->
<g id="edge35_Node000023_Node000010" class="edge">
<title>Node23&#45;&gt;Node10</title>
<g id="a_edge35_Node000023_Node000010"><a xlink:title=" ">
<path fill="none" stroke="#63b8ff" d="M1062.41,-749.05C1070.04,-745.87 1077.33,-741.92 1083.75,-737 1140.74,-693.34 1173.31,-611.57 1187.1,-569.12"/>
<polygon fill="#63b8ff" stroke="#63b8ff" points="1190.4,-570.29 1190.05,-559.7 1183.72,-568.2 1190.4,-570.29"/>
</a>
</g>
</g>
<!-- Node24&#45;&gt;Node10 -->
<g id="edge37_Node000024_Node000010" class="edge">
<title>Node24&#45;&gt;Node10</title>
<g id="a_edge37_Node000024_Node000010"><a xlink:title=" ">
<path fill="none" stroke="#63b8ff" d="M1063.74,-697.37C1070.79,-694.51 1077.59,-691.09 1083.75,-687 1129.56,-656.61 1164.32,-600.94 1182,-568.13"/>
<polygon fill="#63b8ff" stroke="#63b8ff" points="1184.89,-570.16 1186.43,-559.68 1178.69,-566.91 1184.89,-570.16"/>
</a>
</g>
</g>
<!-- Node25&#45;&gt;Node10 -->
<g id="edge39_Node000025_Node000010" class="edge">
<title>Node25&#45;&gt;Node10</title>
<g id="a_edge39_Node000025_Node000010"><a xlink:title=" ">
<path fill="none" stroke="#63b8ff" d="M1063.93,-645.62C1070.79,-643.12 1077.5,-640.26 1083.75,-637 1118.54,-618.85 1151.85,-588.01 1172.81,-566.4"/>
<polygon fill="#63b8ff" stroke="#63b8ff" points="1175.08,-569.1 1179.43,-559.44 1170,-564.27 1175.08,-569.1"/>
</a>
</g>
</g>
<!-- Node26&#45;&gt;Node10 -->
<g id="edge41_Node000026_Node000010" class="edge">
<title>Node26&#45;&gt;Node10</title>
<g id="a_edge41_Node000026_Node000010"><a xlink:title=" ">
<path fill="none" stroke="#63b8ff" d="M1053.51,-607.52C1063.76,-605.16 1074.13,-602.34 1083.75,-599 1109.82,-589.94 1137.45,-575.81 1158.65,-563.89"/>
<polygon fill="#63b8ff" stroke="#63b8ff" points="1160.25,-567 1167.19,-559 1156.77,-560.93 1160.25,-567"/>
</a>
</g>
</g>
<!-- Node27&#45;&gt;Node10 -->
<g id="edge43_Node000027_Node000010" class="edge">
<title>Node27&#45;&gt;Node10</title>
<g id="a_edge43_Node000027_Node000010"><a xlink:title=" ">
<path fill="none" stroke="#63b8ff" d="M1045.02,-569.52C1071.86,-564.59 1103.94,-558.71 1131.53,-553.64"/>
<polygon fill="#63b8ff" stroke="#63b8ff" points="1131.96,-557.12 1141.16,-551.88 1130.69,-550.24 1131.96,-557.12"/>
</a>
</g>
</g>
<!-- Node28&#45;&gt;Node10 -->
<g id="edge45_Node000028_Node000010" class="edge">
<title>Node28&#45;&gt;Node10</title>
<g id="a_edge45_Node000028_Node000010"><a xlink:title=" ">
<path fill="none" stroke="#63b8ff" d="M1082.35,-542C1098.84,-542 1115.64,-542 1131.07,-542"/>
<polygon fill="#63b8ff" stroke="#63b8ff" points="1131.05,-545.5 1141.05,-542 1131.05,-538.5 1131.05,-545.5"/>
</a>
</g>
</g>
<!-- Node29&#45;&gt;Node10 -->
<g id="edge47_Node000029_Node000010" class="edge">
<title>Node29&#45;&gt;Node10</title>
<g id="a_edge47_Node000029_Node000010"><a xlink:title=" ">
<path fill="none" stroke="#63b8ff" d="M1045.02,-514.48C1071.86,-519.41 1103.94,-525.29 1131.53,-530.36"/>
<polygon fill="#63b8ff" stroke="#63b8ff" points="1130.69,-533.76 1141.16,-532.12 1131.96,-526.88 1130.69,-533.76"/>
</a>
</g>
</g>
<!-- Node30&#45;&gt;Node10 -->
<g id="edge49_Node000030_Node000010" class="edge">
<title>Node30&#45;&gt;Node10</title>
<g id="a_edge49_Node000030_Node000010"><a xlink:title=" ">
<path fill="none" stroke="#63b8ff" d="M1053.51,-476.48C1063.76,-478.84 1074.13,-481.66 1083.75,-485 1109.82,-494.06 1137.45,-508.19 1158.65,-520.11"/>
<polygon fill="#63b8ff" stroke="#63b8ff" points="1156.77,-523.07 1167.19,-525 1160.25,-517 1156.77,-523.07"/>
</a>
</g>
</g>
<!-- Node31&#45;&gt;Node10 -->
<g id="edge51_Node000031_Node000010" class="edge">
<title>Node31&#45;&gt;Node10</title>
<g id="a_edge51_Node000031_Node000010"><a xlink:title=" ">
<path fill="none" stroke="#63b8ff" d="M1061.14,-438.43C1068.96,-440.74 1076.65,-443.56 1083.75,-447 1119.26,-464.21 1152.65,-495.52 1173.41,-517.48"/>
<polygon fill="#63b8ff" stroke="#63b8ff" points="1170.6,-519.6 1179.96,-524.57 1175.74,-514.85 1170.6,-519.6"/>
</a>
</g>
</g>
<!-- Node32&#45;&gt;Node10 -->
<g id="edge53_Node000032_Node000010" class="edge">
<title>Node32&#45;&gt;Node10</title>
<g id="a_edge53_Node000032_Node000010"><a xlink:title=" ">
<path fill="none" stroke="#63b8ff" d="M1067,-400.31C1072.86,-402.81 1078.52,-405.69 1083.75,-409 1126.74,-436.23 1161.47,-485.5 1180.1,-515.83"/>
<polygon fill="#63b8ff" stroke="#63b8ff" points="1177.09,-517.61 1185.23,-524.4 1183.1,-514.02 1177.09,-517.61"/>
</a>
</g>
</g>
<!-- Node34&#45;&gt;Node11 -->
<g id="edge56_Node000034_Node000011" class="edge">
<title>Node34&#45;&gt;Node11</title>
<g id="a_edge56_Node000034_Node000011"><a xlink:title=" ">
<path fill="none" stroke="#63b8ff" d="M1210.57,-762.71C1245.94,-720.24 1340.84,-606.28 1378.58,-560.97"/>
<polygon fill="#63b8ff" stroke="#63b8ff" points="1381.05,-563.47 1384.76,-553.55 1375.67,-558.99 1381.05,-563.47"/>
</a>
</g>
</g>
</g>
</svg>

<g id="navigator" transform="translate(0 0)" fill="#404254">
  <rect fill="#f2f5e9" fill-opacity="0.5" stroke="#606060" stroke-width=".5" x="0" y="0" width="60" height="60"/>
  <use id="zoomplus" xlink:href="#zoomPlus" x="17" y="9" onmousedown="handleZoom(evt,'in')"/>
  <use id="zoomminus" xlink:href="#zoomMin" x="42" y="9" onmousedown="handleZoom(evt,'out')"/>
  <use id="reset" xlink:href="#resetDef" x="30" y="36" onmousedown="handleReset()"/>
   <use id="arrowup" xlink:href="#arrowUp" x="0" y="0" onmousedown="handlePan(0,-1)"/>
  <use id="arrowright" xlink:href="#arrowRight" x="0" y="0" onmousedown="handlePan(1,0)"/>
  <use id="arrowdown" xlink:href="#arrowDown" x="0" y="0" onmousedown="handlePan(0,1)"/>
  <use id="arrowleft" xlink:href="#arrowLeft" x="0" y="0" onmousedown="handlePan(-1,0)"/>
</g>
<svg viewBox="0 0 15 15" width="100%" height="30px" preserveAspectRatio="xMaxYMin meet">
 <g id="arrow_out" transform="scale(0.3 0.3)">
  <a xlink:href="classLSM1x0A__Sigfox_ac88856b29097f0ab339c7c61cb9868f8_cgraph_org.svg" target="_base">
   <rect id="button" ry="5" rx="5" y="6" x="6" height="38" width="38"
        fill="#f2f5e9" fill-opacity="0.5" stroke="#606060" stroke-width="1.0"/>
   <path id="arrow"
     d="M 11.500037,31.436501 C 11.940474,20.09759 22.043105,11.32322 32.158766,21.979434 L 37.068811,17.246167 C 37.068811,17.246167 37.088388,32 37.088388,32 L 22.160133,31.978069 C 22.160133,31.978069 26.997745,27.140456 26.997745,27.140456 C 18.528582,18.264221 13.291696,25.230495 11.500037,31.436501 z"
     style="fill:#404040;"/>
  </a>
 </g>
</svg>

<style type='text/css'>
<![CDATA[
[data-mouse-over-selected='false'] { opacity: 0.7; }
[data-mouse-over-selected='true']  { opacity: 1.0; }
]]>
</style>
<script type="application/ecmascript"><![CDATA[
document.addEventListener('DOMContentLoaded', (event) => {
  highlightEdges();
  highlightAdjacentNodes();
});
]]></script>
</svg>
