<?xml version="1.0" encoding="UTF-8" standalone="no"?>
<!DOCTYPE svg PUBLIC "-//W3C//DTD SVG 1.1//EN"
 "http://www.w3.org/Graphics/SVG/1.1/DTD/svg11.dtd">
<!-- Generated by graphviz version 12.2.1 (20241206.2353)
 -->
<!-- Title: LSM1x0A_Sigfox::testSendP2P Pages: 1 -->
<svg width="1286pt" height="1143pt"
 viewBox="0.00 0.00 1286.25 1143.11" xmlns="http://www.w3.org/2000/svg" xmlns:xlink="http://www.w3.org/1999/xlink">
<g id="graph0" class="graph" transform="scale(1 1) rotate(0) translate(4 1139.11)">
<title>LSM1x0A_Sigfox::testSendP2P</title>
<!-- Node1 -->
<g id="Node000001" class="node">
<title>Node1</title>
<g id="a_Node000001"><a xlink:title="Sends P2P data.">
<polygon fill="#999999" stroke="#666666" points="155.5,-490.95 0,-490.95 0,-470.95 155.5,-470.95 155.5,-490.95"/>
<text text-anchor="middle" x="77.75" y="-477.45" font-family="Helvetica,sans-Serif" font-size="10.00">LSM1x0A_Sigfox::testSendP2P</text>
</a>
</g>
</g>
<!-- Node2 -->
<g id="Node000002" class="node">
<title>Node2</title>
<g id="a_Node000002"><a xlink:href="../../d8/d92/classLSM1x0A__Controller.html#afd7d92e60ed6fdae696a955cdbe0ed8c" target="_top" xlink:title="Sends any AT command to the module, returning error if it fails. Internally uses the LsmAtParser logi...">
<polygon fill="white" stroke="#666666" points="297.5,-496.95 191.5,-496.95 191.5,-464.95 297.5,-464.95 297.5,-496.95"/>
<text text-anchor="start" x="199.5" y="-483.45" font-family="Helvetica,sans-Serif" font-size="10.00">LSM1x0A_Controller</text>
<text text-anchor="middle" x="244.5" y="-471.45" font-family="Helvetica,sans-Serif" font-size="10.00">::sendCommand</text>
</a>
</g>
</g>
<!-- Node1&#45;&gt;Node2 -->
<g id="edge1_Node000001_Node000002" class="edge">
<title>Node1&#45;&gt;Node2</title>
<g id="a_edge1_Node000001_Node000002"><a xlink:title=" ">
<path fill="none" stroke="#63b8ff" d="M155.82,-480.95C163.92,-480.95 172.09,-480.95 180.02,-480.95"/>
<polygon fill="#63b8ff" stroke="#63b8ff" points="179.9,-484.45 189.9,-480.95 179.9,-477.45 179.9,-484.45"/>
</a>
</g>
</g>
<!-- Node3 -->
<g id="Node000003" class="node">
<title>Node3</title>
<g id="a_Node000003"><a xlink:href="../../d8/d92/classLSM1x0A__Controller.html#abb0eb380daa3dfb7acffb483c5db8e2b" target="_top" xlink:title="Executes the recovery protocol. First Soft&#45;Reset (ATZ), then Hard&#45;Reset if there is a pin.">
<polygon fill="white" stroke="#666666" points="439.5,-938.95 333.5,-938.95 333.5,-906.95 439.5,-906.95 439.5,-938.95"/>
<text text-anchor="start" x="341.5" y="-925.45" font-family="Helvetica,sans-Serif" font-size="10.00">LSM1x0A_Controller</text>
<text text-anchor="middle" x="386.5" y="-913.45" font-family="Helvetica,sans-Serif" font-size="10.00">::recoverModule</text>
</a>
</g>
</g>
<!-- Node2&#45;&gt;Node3 -->
<g id="edge2_Node000002_Node000003" class="edge">
<title>Node2&#45;&gt;Node3</title>
<g id="a_edge2_Node000002_Node000003"><a xlink:title=" ">
<path fill="none" stroke="#63b8ff" d="M249.05,-497.39C259.61,-545.46 292.66,-689.56 333.5,-804.95 344.85,-837.01 361.04,-872.58 372.33,-896.2"/>
<polygon fill="#63b8ff" stroke="#63b8ff" points="369.13,-897.62 376.63,-905.1 375.43,-894.57 369.13,-897.62"/>
</a>
</g>
</g>
<!-- Node31 -->
<g id="Node000031" class="node">
<title>Node31</title>
<g id="a_Node000031"><a xlink:href="../../d6/d3c/classLSM1x0A__AtParser.html#a29b53c521974387ba6c03afadfaffa4a" target="_top" xlink:title="Sends a simple command and waits for OK/ERROR. Example: sendCommand(&quot;AT+JOIN&quot;);.">
<polygon fill="white" stroke="#666666" points="854,-1118.95 679.75,-1118.95 679.75,-1098.95 854,-1098.95 854,-1118.95"/>
<text text-anchor="middle" x="766.88" y="-1105.45" font-family="Helvetica,sans-Serif" font-size="10.00">LSM1x0A_AtParser::sendCommand</text>
</a>
</g>
</g>
<!-- Node2&#45;&gt;Node31 -->
<g id="edge55_Node000002_Node000031" class="edge">
<title>Node2&#45;&gt;Node31</title>
<g id="a_edge55_Node000002_Node000031"><a xlink:title=" ">
<path fill="none" stroke="#63b8ff" d="M245.56,-497.2C246.38,-559.15 254.92,-785.25 333.5,-947.95 375.43,-1034.77 387.81,-1071.88 475.5,-1111.95 553.26,-1147.48 655.41,-1134.62 715.52,-1121.89"/>
<polygon fill="#63b8ff" stroke="#63b8ff" points="716.11,-1125.34 725.12,-1119.77 714.6,-1118.51 716.11,-1125.34"/>
</a>
</g>
</g>
<!-- Node4 -->
<g id="Node000004" class="node">
<title>Node4</title>
<g id="a_Node000004"><a xlink:href="../../d8/d92/classLSM1x0A__Controller.html#a3f6f25b843fe4fb7042c544deae2ab16" target="_top" xlink:title="Manually clears bits from the internal EventGroup.">
<polygon fill="white" stroke="#666666" points="1047.75,-957.95 941.75,-957.95 941.75,-925.95 1047.75,-925.95 1047.75,-957.95"/>
<text text-anchor="start" x="949.75" y="-944.45" font-family="Helvetica,sans-Serif" font-size="10.00">LSM1x0A_Controller</text>
<text text-anchor="middle" x="994.75" y="-932.45" font-family="Helvetica,sans-Serif" font-size="10.00">::clearEvents</text>
</a>
</g>
</g>
<!-- Node3&#45;&gt;Node4 -->
<g id="edge3_Node000003_Node000004" class="edge">
<title>Node3&#45;&gt;Node4</title>
<g id="a_edge3_Node000003_Node000004"><a xlink:title=" ">
<path fill="none" stroke="#63b8ff" d="M403.58,-939.29C420,-954.72 447.06,-976.82 475.5,-985.95 635.07,-1037.18 835.66,-991 933.93,-961.72"/>
<polygon fill="#63b8ff" stroke="#63b8ff" points="934.82,-965.11 943.37,-958.86 932.79,-958.41 934.82,-965.11"/>
</a>
</g>
</g>
<!-- Node5 -->
<g id="Node000005" class="node">
<title>Node5</title>
<g id="a_Node000005"><a xlink:href="../../d8/d92/classLSM1x0A__Controller.html#a345d4bd79fa16b18dc33a4ca788fe5f7" target="_top" xlink:title="Performs a hardware reset using the reset pin.">
<polygon fill="white" stroke="#666666" points="607.75,-938.95 501.75,-938.95 501.75,-906.95 607.75,-906.95 607.75,-938.95"/>
<text text-anchor="start" x="509.75" y="-925.45" font-family="Helvetica,sans-Serif" font-size="10.00">LSM1x0A_Controller</text>
<text text-anchor="middle" x="554.75" y="-913.45" font-family="Helvetica,sans-Serif" font-size="10.00">::hardwareReset</text>
</a>
</g>
</g>
<!-- Node3&#45;&gt;Node5 -->
<g id="edge4_Node000003_Node000005" class="edge">
<title>Node3&#45;&gt;Node5</title>
<g id="a_edge4_Node000003_Node000005"><a xlink:title=" ">
<path fill="none" stroke="#63b8ff" d="M439.65,-922.95C455.66,-922.95 473.47,-922.95 490.16,-922.95"/>
<polygon fill="#63b8ff" stroke="#63b8ff" points="489.99,-926.45 499.99,-922.95 489.99,-919.45 489.99,-926.45"/>
</a>
</g>
</g>
<!-- Node7 -->
<g id="Node000007" class="node">
<title>Node7</title>
<g id="a_Node000007"><a xlink:href="../../d5/d72/classLSM1x0A__LoRaWAN.html#a1892801e37c8cd67d37c76108d6f7d49" target="_top" xlink:title="Validates if the device is currently Joined to the network. (Either confirmed by OTAA or statically a...">
<polygon fill="white" stroke="#666666" points="1278.25,-926.95 1125.75,-926.95 1125.75,-906.95 1278.25,-906.95 1278.25,-926.95"/>
<text text-anchor="middle" x="1202" y="-913.45" font-family="Helvetica,sans-Serif" font-size="10.00">LSM1x0A_LoRaWAN::isJoined</text>
</a>
</g>
</g>
<!-- Node3&#45;&gt;Node7 -->
<g id="edge6_Node000003_Node000007" class="edge">
<title>Node3&#45;&gt;Node7</title>
<g id="a_edge6_Node000003_Node000007"><a xlink:title=" ">
<path fill="none" stroke="#63b8ff" d="M433.44,-939.25C435.58,-940.7 437.61,-942.26 439.5,-943.95 464.67,-966.51 446.49,-993.6 475.5,-1010.95 486.2,-1017.34 801.66,-1014.94 863.75,-1008.95 965.44,-999.13 992.24,-997.44 1089.75,-966.95 1118.58,-957.93 1149.83,-943.44 1171.84,-932.37"/>
<polygon fill="#63b8ff" stroke="#63b8ff" points="1173.2,-935.61 1180.51,-927.94 1170.01,-929.38 1173.2,-935.61"/>
</a>
</g>
</g>
<!-- Node8 -->
<g id="Node000008" class="node">
<title>Node8</title>
<g id="a_Node000008"><a xlink:href="../../d5/d72/classLSM1x0A__LoRaWAN.html#a83e11c0e74ff9e0757db616ab1163424" target="_top" xlink:title="Attempts to recover a lost connection (re&#45;executes OTAA Join if dropped).">
<polygon fill="white" stroke="#666666" points="629.12,-850.95 480.38,-850.95 480.38,-818.95 629.12,-818.95 629.12,-850.95"/>
<text text-anchor="start" x="488.38" y="-837.45" font-family="Helvetica,sans-Serif" font-size="10.00">LSM1x0A_LoRaWAN::recover</text>
<text text-anchor="middle" x="554.75" y="-825.45" font-family="Helvetica,sans-Serif" font-size="10.00">Connection</text>
</a>
</g>
</g>
<!-- Node3&#45;&gt;Node8 -->
<g id="edge7_Node000003_Node000008" class="edge">
<title>Node3&#45;&gt;Node8</title>
<g id="a_edge7_Node000003_Node000008"><a xlink:title=" ">
<path fill="none" stroke="#63b8ff" d="M409.47,-906.53C426.8,-894.07 451.9,-877.07 475.5,-864.95 481.79,-861.72 488.5,-858.64 495.26,-855.76"/>
<polygon fill="#63b8ff" stroke="#63b8ff" points="496.53,-859.02 504.46,-851.99 493.88,-852.55 496.53,-859.02"/>
</a>
</g>
</g>
<!-- Node12 -->
<g id="Node000012" class="node">
<title>Node12</title>
<g id="a_Node000012"><a xlink:href="../../d5/d72/classLSM1x0A__LoRaWAN.html#ae3be4ce59dfa200369733317df356e97" target="_top" xlink:title="Pushes the RAM&#45;cached variables back down into the hardware module. Restores the operational state af...">
<polygon fill="white" stroke="#666666" points="628,-496.95 481.5,-496.95 481.5,-464.95 628,-464.95 628,-496.95"/>
<text text-anchor="start" x="489.5" y="-483.45" font-family="Helvetica,sans-Serif" font-size="10.00">LSM1x0A_LoRaWAN::restore</text>
<text text-anchor="middle" x="554.75" y="-471.45" font-family="Helvetica,sans-Serif" font-size="10.00">Config</text>
</a>
</g>
</g>
<!-- Node3&#45;&gt;Node12 -->
<g id="edge16_Node000003_Node000012" class="edge">
<title>Node3&#45;&gt;Node12</title>
<g id="a_edge16_Node000003_Node000012"><a xlink:title=" ">
<path fill="none" stroke="#63b8ff" d="M393.61,-906.69C418.51,-840.5 512.42,-590.84 543.61,-507.91"/>
<polygon fill="#63b8ff" stroke="#63b8ff" points="546.8,-509.36 547.05,-498.77 540.25,-506.9 546.8,-509.36"/>
</a>
</g>
</g>
<!-- Node29 -->
<g id="Node000029" class="node">
<title>Node29</title>
<g id="a_Node000029"><a xlink:href="../../d5/d72/classLSM1x0A__LoRaWAN.html#ace4b04396f1de1f4a54f513f5f378db7" target="_top" xlink:title="Manually overrides the internal joined state tracker.">
<polygon fill="white" stroke="#666666" points="634,-976.95 475.5,-976.95 475.5,-956.95 634,-956.95 634,-976.95"/>
<text text-anchor="middle" x="554.75" y="-963.45" font-family="Helvetica,sans-Serif" font-size="10.00">LSM1x0A_LoRaWAN::setJoined</text>
</a>
</g>
</g>
<!-- Node3&#45;&gt;Node29 -->
<g id="edge50_Node000003_Node000029" class="edge">
<title>Node3&#45;&gt;Node29</title>
<g id="a_edge50_Node000003_Node000029"><a xlink:title=" ">
<path fill="none" stroke="#63b8ff" d="M439.99,-938.22C451.66,-941.51 463.98,-944.91 475.5,-947.95 482.86,-949.89 490.62,-951.86 498.29,-953.76"/>
<polygon fill="#63b8ff" stroke="#63b8ff" points="497.38,-957.14 507.93,-956.13 499.05,-950.35 497.38,-957.14"/>
</a>
</g>
</g>
<!-- Node30 -->
<g id="Node000030" class="node">
<title>Node30</title>
<g id="a_Node000030"><a xlink:href="../../d8/d92/classLSM1x0A__Controller.html#a11ad21cb5ca33ec51346764a23bd485e" target="_top" xlink:title="Performs a software reset (ATZ Command).">
<polygon fill="white" stroke="#666666" points="607.75,-1102.95 501.75,-1102.95 501.75,-1070.95 607.75,-1070.95 607.75,-1102.95"/>
<text text-anchor="start" x="509.75" y="-1089.45" font-family="Helvetica,sans-Serif" font-size="10.00">LSM1x0A_Controller</text>
<text text-anchor="middle" x="554.75" y="-1077.45" font-family="Helvetica,sans-Serif" font-size="10.00">::softwareReset</text>
</a>
</g>
</g>
<!-- Node3&#45;&gt;Node30 -->
<g id="edge51_Node000003_Node000030" class="edge">
<title>Node3&#45;&gt;Node30</title>
<g id="a_edge51_Node000003_Node000030"><a xlink:title=" ">
<path fill="none" stroke="#63b8ff" d="M394.2,-939.34C406.39,-967.25 434.75,-1024.13 475.5,-1056.95 480.32,-1060.83 485.69,-1064.24 491.3,-1067.25"/>
<polygon fill="#63b8ff" stroke="#63b8ff" points="489.71,-1070.36 500.23,-1071.55 492.75,-1064.06 489.71,-1070.36"/>
</a>
</g>
</g>
<!-- Node6 -->
<g id="Node000006" class="node">
<title>Node6</title>
<g id="a_Node000006"><a xlink:href="../../d6/d3c/classLSM1x0A__AtParser.html#ad2839120da13e56132b95019419be1e5" target="_top" xlink:title="Waits for an event (like BOOTALERT) without sending any command. Useful for hardware reset where the ...">
<polygon fill="white" stroke="#666666" points="837.12,-938.95 696.62,-938.95 696.62,-906.95 837.12,-906.95 837.12,-938.95"/>
<text text-anchor="start" x="704.62" y="-925.45" font-family="Helvetica,sans-Serif" font-size="10.00">LSM1x0A_AtParser::waitFor</text>
<text text-anchor="middle" x="766.88" y="-913.45" font-family="Helvetica,sans-Serif" font-size="10.00">Event</text>
</a>
</g>
</g>
<!-- Node5&#45;&gt;Node6 -->
<g id="edge5_Node000005_Node000006" class="edge">
<title>Node5&#45;&gt;Node6</title>
<g id="a_edge5_Node000005_Node000006"><a xlink:title=" ">
<path fill="none" stroke="#63b8ff" d="M608.23,-922.95C631.42,-922.95 659.22,-922.95 684.96,-922.95"/>
<polygon fill="#63b8ff" stroke="#63b8ff" points="684.72,-926.45 694.72,-922.95 684.72,-919.45 684.72,-926.45"/>
</a>
</g>
</g>
<!-- Node9 -->
<g id="Node000009" class="node">
<title>Node9</title>
<g id="a_Node000009"><a xlink:href="../../d5/d72/classLSM1x0A__LoRaWAN.html#a59f781f3cfd30c11cd3973bcb10a7baa" target="_top" xlink:title="Initiates a LoRaWAN Network Join procedure. This is a blocking function until the module fires an eve...">
<polygon fill="white" stroke="#666666" points="832.62,-844.95 701.12,-844.95 701.12,-824.95 832.62,-824.95 832.62,-844.95"/>
<text text-anchor="middle" x="766.88" y="-831.45" font-family="Helvetica,sans-Serif" font-size="10.00">LSM1x0A_LoRaWAN::join</text>
</a>
</g>
</g>
<!-- Node8&#45;&gt;Node9 -->
<g id="edge8_Node000008_Node000009" class="edge">
<title>Node8&#45;&gt;Node9</title>
<g id="a_edge8_Node000008_Node000009"><a xlink:title=" ">
<path fill="none" stroke="#63b8ff" d="M629.54,-834.95C648.91,-834.95 669.85,-834.95 689.36,-834.95"/>
<polygon fill="#63b8ff" stroke="#63b8ff" points="689.15,-838.45 699.15,-834.95 689.15,-831.45 689.15,-838.45"/>
</a>
</g>
</g>
<!-- Node9&#45;&gt;Node2 -->
<g id="edge11_Node000009_Node000002" class="edge">
<title>Node9&#45;&gt;Node2</title>
<g id="a_edge11_Node000009_Node000002"><a xlink:title=" ">
<path fill="none" stroke="#63b8ff" d="M712.65,-824.5C654.02,-812.53 557.23,-791.38 475.5,-766.95 411.11,-747.69 381.23,-762.27 333.5,-714.95 275.23,-657.18 255.03,-557.13 248.45,-508.74"/>
<polygon fill="#63b8ff" stroke="#63b8ff" points="251.93,-508.33 247.22,-498.84 244.98,-509.2 251.93,-508.33"/>
</a>
</g>
</g>
<!-- Node9&#45;&gt;Node3 -->
<g id="edge10_Node000009_Node000003" class="edge">
<title>Node9&#45;&gt;Node3</title>
<g id="a_edge10_Node000009_Node000003"><a xlink:title=" ">
<path fill="none" stroke="#63b8ff" d="M712.65,-845.44C654.24,-857.21 557.82,-877.35 475.5,-897.95 467.56,-899.94 459.24,-902.14 451.03,-904.39"/>
<polygon fill="#63b8ff" stroke="#63b8ff" points="450.09,-901.01 441.4,-907.06 451.97,-907.76 450.09,-901.01"/>
</a>
</g>
</g>
<!-- Node9&#45;&gt;Node4 -->
<g id="edge9_Node000009_Node000004" class="edge">
<title>Node9&#45;&gt;Node4</title>
<g id="a_edge9_Node000009_Node000004"><a xlink:title=" ">
<path fill="none" stroke="#63b8ff" d="M789.94,-845.4C826.66,-862.79 900.98,-898 949.01,-920.75"/>
<polygon fill="#63b8ff" stroke="#63b8ff" points="947.22,-923.78 957.76,-924.9 950.22,-917.45 947.22,-923.78"/>
</a>
</g>
</g>
<!-- Node10 -->
<g id="Node000010" class="node">
<title>Node10</title>
<g id="a_Node000010"><a xlink:href="../../d5/d72/classLSM1x0A__LoRaWAN.html#a3fdd1ac318a5ad2559323e5d57e36a5e" target="_top" xlink:title="Enables or disables specific sub&#45;bands for regions supporting Channel Masks (e.g.,...">
<polygon fill="white" stroke="#666666" points="1089.75,-654.95 899.75,-654.95 899.75,-634.95 1089.75,-634.95 1089.75,-654.95"/>
<text text-anchor="middle" x="994.75" y="-641.45" font-family="Helvetica,sans-Serif" font-size="10.00">LSM1x0A_LoRaWAN::setChannelMask</text>
</a>
</g>
</g>
<!-- Node9&#45;&gt;Node10 -->
<g id="edge12_Node000009_Node000010" class="edge">
<title>Node9&#45;&gt;Node10</title>
<g id="a_edge12_Node000009_Node000010"><a xlink:title=" ">
<path fill="none" stroke="#63b8ff" d="M827.18,-824.45C839.9,-820.55 852.8,-815.22 863.75,-807.95 920.62,-770.19 964.25,-699.61 983.29,-665.05"/>
<polygon fill="#63b8ff" stroke="#63b8ff" points="986.22,-666.98 987.87,-656.52 980.05,-663.67 986.22,-666.98"/>
</a>
</g>
</g>
<!-- Node11 -->
<g id="Node000011" class="node">
<title>Node11</title>
<g id="a_Node000011"><a xlink:href="../../d8/d92/classLSM1x0A__Controller.html#a62476e30e50c7fe120aeb8df4b828675" target="_top" xlink:title="Synchronously/blockingly waits for an asynchronous event to occur. Useful for wrapping commands like ...">
<polygon fill="white" stroke="#666666" points="1047.75,-850.95 941.75,-850.95 941.75,-818.95 1047.75,-818.95 1047.75,-850.95"/>
<text text-anchor="start" x="949.75" y="-837.45" font-family="Helvetica,sans-Serif" font-size="10.00">LSM1x0A_Controller</text>
<text text-anchor="middle" x="994.75" y="-825.45" font-family="Helvetica,sans-Serif" font-size="10.00">::waitForEvent</text>
</a>
</g>
</g>
<!-- Node9&#45;&gt;Node11 -->
<g id="edge15_Node000009_Node000011" class="edge">
<title>Node9&#45;&gt;Node11</title>
<g id="a_edge15_Node000009_Node000011"><a xlink:title=" ">
<path fill="none" stroke="#63b8ff" d="M832.9,-834.95C863.41,-834.95 899.65,-834.95 929.99,-834.95"/>
<polygon fill="#63b8ff" stroke="#63b8ff" points="929.8,-838.45 939.8,-834.95 929.8,-831.45 929.8,-838.45"/>
</a>
</g>
</g>
<!-- Node10&#45;&gt;Node2 -->
<g id="edge14_Node000010_Node000002" class="edge">
<title>Node10&#45;&gt;Node2</title>
<g id="a_edge14_Node000010_Node000002"><a xlink:title=" ">
<path fill="none" stroke="#63b8ff" d="M992.97,-634.73C987.52,-566.01 952.6,-172.04 863.75,-101.95 678.59,44.11 514.65,29.06 333.5,-121.95 281.92,-164.95 255.86,-377.61 248.07,-453.76"/>
<polygon fill="#63b8ff" stroke="#63b8ff" points="244.63,-452.96 247.12,-463.26 251.59,-453.65 244.63,-452.96"/>
</a>
</g>
</g>
<!-- Node10&#45;&gt;Node7 -->
<g id="edge13_Node000010_Node000007" class="edge">
<title>Node10&#45;&gt;Node7</title>
<g id="a_edge13_Node000010_Node000007"><a xlink:title=" ">
<path fill="none" stroke="#63b8ff" d="M1003.55,-655.28C1034.09,-695.76 1145.92,-843.95 1186.32,-897.49"/>
<polygon fill="#63b8ff" stroke="#63b8ff" points="1183.47,-899.52 1192.29,-905.4 1189.06,-895.31 1183.47,-899.52"/>
</a>
</g>
</g>
<!-- Node12&#45;&gt;Node10 -->
<g id="edge21_Node000012_Node000010" class="edge">
<title>Node12&#45;&gt;Node10</title>
<g id="a_edge21_Node000012_Node000010"><a xlink:title=" ">
<path fill="none" stroke="#63b8ff" d="M628.24,-484.29C705.9,-488.81 823.43,-498.64 863.75,-517.95 915.68,-542.82 959.63,-596.76 980.59,-625.7"/>
<polygon fill="#63b8ff" stroke="#63b8ff" points="977.52,-627.41 986.15,-633.56 983.24,-623.37 977.52,-627.41"/>
</a>
</g>
</g>
<!-- Node13 -->
<g id="Node000013" class="node">
<title>Node13</title>
<g id="a_Node000013"><a xlink:href="../../d5/d72/classLSM1x0A__LoRaWAN.html#af0baa3db4c7fab580d6b19a9e92472f6" target="_top" xlink:title="Enables or disables Adaptive Data Rate (ADR).">
<polygon fill="white" stroke="#666666" points="842.75,-798.95 691,-798.95 691,-778.95 842.75,-778.95 842.75,-798.95"/>
<text text-anchor="middle" x="766.88" y="-785.45" font-family="Helvetica,sans-Serif" font-size="10.00">LSM1x0A_LoRaWAN::setADR</text>
</a>
</g>
</g>
<!-- Node12&#45;&gt;Node13 -->
<g id="edge17_Node000012_Node000013" class="edge">
<title>Node12&#45;&gt;Node13</title>
<g id="a_edge17_Node000012_Node000013"><a xlink:title=" ">
<path fill="none" stroke="#63b8ff" d="M556.93,-497.13C561.45,-546.58 582.15,-696.7 670,-769.95 673.25,-772.66 676.79,-775.03 680.51,-777.08"/>
<polygon fill="#63b8ff" stroke="#63b8ff" points="678.84,-780.17 689.38,-781.21 681.79,-773.82 678.84,-780.17"/>
</a>
</g>
</g>
<!-- Node14 -->
<g id="Node000014" class="node">
<title>Node14</title>
<g id="a_Node000014"><a xlink:href="../../d5/d72/classLSM1x0A__LoRaWAN.html#a5365ed1596eb84ebf1e3b33b4a10c788" target="_top" xlink:title="Sets the LoRaWAN operational frequency band.">
<polygon fill="white" stroke="#666666" points="843.12,-760.95 690.62,-760.95 690.62,-740.95 843.12,-740.95 843.12,-760.95"/>
<text text-anchor="middle" x="766.88" y="-747.45" font-family="Helvetica,sans-Serif" font-size="10.00">LSM1x0A_LoRaWAN::setBand</text>
</a>
</g>
</g>
<!-- Node12&#45;&gt;Node14 -->
<g id="edge19_Node000012_Node000014" class="edge">
<title>Node12&#45;&gt;Node14</title>
<g id="a_edge19_Node000012_Node000014"><a xlink:title=" ">
<path fill="none" stroke="#63b8ff" d="M558.01,-497.27C565.17,-542.46 591.73,-669.99 670,-731.95 673.16,-734.45 676.55,-736.64 680.11,-738.58"/>
<polygon fill="#63b8ff" stroke="#63b8ff" points="678.6,-741.74 689.15,-742.72 681.52,-735.37 678.6,-741.74"/>
</a>
</g>
</g>
<!-- Node15 -->
<g id="Node000015" class="node">
<title>Node15</title>
<g id="a_Node000015"><a xlink:href="../../d5/d72/classLSM1x0A__LoRaWAN.html#a9d9285c43414337a0ccb3a6cd7ca06e6" target="_top" xlink:title="Configures the number of retries for Confirmed uplinks.">
<polygon fill="white" stroke="#666666" points="849.12,-722.95 684.62,-722.95 684.62,-690.95 849.12,-690.95 849.12,-722.95"/>
<text text-anchor="start" x="692.62" y="-709.45" font-family="Helvetica,sans-Serif" font-size="10.00">LSM1x0A_LoRaWAN::setConfirm</text>
<text text-anchor="middle" x="766.88" y="-697.45" font-family="Helvetica,sans-Serif" font-size="10.00">Retry</text>
</a>
</g>
</g>
<!-- Node12&#45;&gt;Node15 -->
<g id="edge22_Node000012_Node000015" class="edge">
<title>Node12&#45;&gt;Node15</title>
<g id="a_edge22_Node000012_Node000015"><a xlink:title=" ">
<path fill="none" stroke="#63b8ff" d="M560.27,-497.42C571.73,-535.98 605.67,-632.59 670,-681.95 671.36,-682.99 672.77,-684 674.21,-684.96"/>
<polygon fill="#63b8ff" stroke="#63b8ff" points="672.43,-687.98 682.84,-689.96 675.94,-681.92 672.43,-687.98"/>
</a>
</g>
</g>
<!-- Node16 -->
<g id="Node000016" class="node">
<title>Node16</title>
<g id="a_Node000016"><a xlink:href="../../d5/d72/classLSM1x0A__LoRaWAN.html#a56345ceeafa0b9059d6de4e69eddc82e" target="_top" xlink:title="Sets the Data Rate (DR) of the module.">
<polygon fill="white" stroke="#666666" points="852.88,-672.95 680.88,-672.95 680.88,-652.95 852.88,-652.95 852.88,-672.95"/>
<text text-anchor="middle" x="766.88" y="-659.45" font-family="Helvetica,sans-Serif" font-size="10.00">LSM1x0A_LoRaWAN::setDataRate</text>
</a>
</g>
</g>
<!-- Node12&#45;&gt;Node16 -->
<g id="edge24_Node000012_Node000016" class="edge">
<title>Node12&#45;&gt;Node16</title>
<g id="a_edge24_Node000012_Node000016"><a xlink:title=" ">
<path fill="none" stroke="#63b8ff" d="M562.18,-497.26C576.24,-530.68 613.11,-606.87 670,-643.95 672.14,-645.34 674.35,-646.63 676.63,-647.84"/>
<polygon fill="#63b8ff" stroke="#63b8ff" points="675.05,-650.96 685.6,-651.92 677.95,-644.59 675.05,-650.96"/>
</a>
</g>
</g>
<!-- Node17 -->
<g id="Node000017" class="node">
<title>Node17</title>
<g id="a_Node000017"><a xlink:href="../../d5/d72/classLSM1x0A__LoRaWAN.html#a8494083816ab885cb07fc3b08de029f4" target="_top" xlink:title="Sets the LoRaWAN Device Address (DevAddr) for ABP mode.">
<polygon fill="white" stroke="#666666" points="851,-634.95 682.75,-634.95 682.75,-614.95 851,-614.95 851,-634.95"/>
<text text-anchor="middle" x="766.88" y="-621.45" font-family="Helvetica,sans-Serif" font-size="10.00">LSM1x0A_LoRaWAN::setDevAddr</text>
</a>
</g>
</g>
<!-- Node12&#45;&gt;Node17 -->
<g id="edge26_Node000012_Node000017" class="edge">
<title>Node12&#45;&gt;Node17</title>
<g id="a_edge26_Node000012_Node000017"><a xlink:title=" ">
<path fill="none" stroke="#63b8ff" d="M565.74,-497.41C583.22,-524.7 622.1,-578.97 670,-605.95 672.84,-607.55 675.8,-609.02 678.83,-610.36"/>
<polygon fill="#63b8ff" stroke="#63b8ff" points="677.42,-613.57 688.01,-613.93 679.96,-607.04 677.42,-613.57"/>
</a>
</g>
</g>
<!-- Node18 -->
<g id="Node000018" class="node">
<title>Node18</title>
<g id="a_Node000018"><a xlink:href="../../d5/d72/classLSM1x0A__LoRaWAN.html#ad320634e52d7ea907043cc50dd37c5b0" target="_top" xlink:title="Sets the LoRaWAN Device EUI (DevEUI).">
<polygon fill="white" stroke="#666666" points="849.5,-596.95 684.25,-596.95 684.25,-576.95 849.5,-576.95 849.5,-596.95"/>
<text text-anchor="middle" x="766.88" y="-583.45" font-family="Helvetica,sans-Serif" font-size="10.00">LSM1x0A_LoRaWAN::setDevEUI</text>
</a>
</g>
</g>
<!-- Node12&#45;&gt;Node18 -->
<g id="edge28_Node000012_Node000018" class="edge">
<title>Node12&#45;&gt;Node18</title>
<g id="a_edge28_Node000012_Node000018"><a xlink:title=" ">
<path fill="none" stroke="#63b8ff" d="M571.95,-497.21C592.77,-517.12 630.9,-550.34 670,-567.95 674.26,-569.87 678.72,-571.6 683.28,-573.15"/>
<polygon fill="#63b8ff" stroke="#63b8ff" points="682.03,-576.43 692.62,-576.02 684.09,-569.74 682.03,-576.43"/>
</a>
</g>
</g>
<!-- Node19 -->
<g id="Node000019" class="node">
<title>Node19</title>
<g id="a_Node000019"><a xlink:href="../../d5/d72/classLSM1x0A__LoRaWAN.html#a031023b0d2dd5db3c51c2db6ae7801cc" target="_top" xlink:title="Enables or disables the Duty Cycle limitation (EU regions mostly).">
<polygon fill="white" stroke="#666666" points="842.38,-558.95 691.38,-558.95 691.38,-526.95 842.38,-526.95 842.38,-558.95"/>
<text text-anchor="start" x="699.38" y="-545.45" font-family="Helvetica,sans-Serif" font-size="10.00">LSM1x0A_LoRaWAN::setDuty</text>
<text text-anchor="middle" x="766.88" y="-533.45" font-family="Helvetica,sans-Serif" font-size="10.00">Cycle</text>
</a>
</g>
</g>
<!-- Node12&#45;&gt;Node19 -->
<g id="edge30_Node000012_Node000019" class="edge">
<title>Node12&#45;&gt;Node19</title>
<g id="a_edge30_Node000012_Node000019"><a xlink:title=" ">
<path fill="none" stroke="#63b8ff" d="M611.51,-497.4C638.45,-505.35 670.98,-514.95 699.23,-523.28"/>
<polygon fill="#63b8ff" stroke="#63b8ff" points="698.19,-526.62 708.77,-526.1 700.17,-519.91 698.19,-526.62"/>
</a>
</g>
</g>
<!-- Node20 -->
<g id="Node000020" class="node">
<title>Node20</title>
<g id="a_Node000020"><a xlink:href="../../d5/d72/classLSM1x0A__LoRaWAN.html#a6b179d5825c49af0f391dfc539912f64" target="_top" xlink:title="Sets the delay for the Join1 receive window.">
<polygon fill="white" stroke="#666666" points="843.5,-470.95 690.25,-470.95 690.25,-438.95 843.5,-438.95 843.5,-470.95"/>
<text text-anchor="start" x="698.25" y="-457.45" font-family="Helvetica,sans-Serif" font-size="10.00">LSM1x0A_LoRaWAN::setJoin1</text>
<text text-anchor="middle" x="766.88" y="-445.45" font-family="Helvetica,sans-Serif" font-size="10.00">Delay</text>
</a>
</g>
</g>
<!-- Node12&#45;&gt;Node20 -->
<g id="edge32_Node000012_Node000020" class="edge">
<title>Node12&#45;&gt;Node20</title>
<g id="a_edge32_Node000012_Node000020"><a xlink:title=" ">
<path fill="none" stroke="#63b8ff" d="M628.36,-471.96C644.71,-469.94 662.22,-467.77 679.08,-465.69"/>
<polygon fill="#63b8ff" stroke="#63b8ff" points="679.05,-469.22 688.55,-464.52 678.19,-462.27 679.05,-469.22"/>
</a>
</g>
</g>
<!-- Node21 -->
<g id="Node000021" class="node">
<title>Node21</title>
<g id="a_Node000021"><a xlink:href="../../d5/d72/classLSM1x0A__LoRaWAN.html#a4545d0caad41558cdb9bae8286b104d8" target="_top" xlink:title="Sets the delay for the Join2 receive window.">
<polygon fill="white" stroke="#666666" points="843.5,-420.95 690.25,-420.95 690.25,-388.95 843.5,-388.95 843.5,-420.95"/>
<text text-anchor="start" x="698.25" y="-407.45" font-family="Helvetica,sans-Serif" font-size="10.00">LSM1x0A_LoRaWAN::setJoin2</text>
<text text-anchor="middle" x="766.88" y="-395.45" font-family="Helvetica,sans-Serif" font-size="10.00">Delay</text>
</a>
</g>
</g>
<!-- Node12&#45;&gt;Node21 -->
<g id="edge34_Node000012_Node000021" class="edge">
<title>Node12&#45;&gt;Node21</title>
<g id="a_edge34_Node000012_Node000021"><a xlink:title=" ">
<path fill="none" stroke="#63b8ff" d="M588.66,-464.52C611.17,-453.71 641.92,-439.8 670,-429.95 675.29,-428.09 680.79,-426.3 686.36,-424.59"/>
<polygon fill="#63b8ff" stroke="#63b8ff" points="687.07,-428.03 695.66,-421.84 685.08,-421.32 687.07,-428.03"/>
</a>
</g>
</g>
<!-- Node22 -->
<g id="Node000022" class="node">
<title>Node22</title>
<g id="a_Node000022"><a xlink:href="../../d5/d72/classLSM1x0A__LoRaWAN.html#a06bd50723ec1eb7e144c9141b2ec86fc" target="_top" xlink:title="Sets the LoRaWAN Network ID (NetID).">
<polygon fill="white" stroke="#666666" points="847.25,-370.95 686.5,-370.95 686.5,-350.95 847.25,-350.95 847.25,-370.95"/>
<text text-anchor="middle" x="766.88" y="-357.45" font-family="Helvetica,sans-Serif" font-size="10.00">LSM1x0A_LoRaWAN::setNwkID</text>
</a>
</g>
</g>
<!-- Node12&#45;&gt;Node22 -->
<g id="edge36_Node000012_Node000022" class="edge">
<title>Node12&#45;&gt;Node22</title>
<g id="a_edge36_Node000012_Node000022"><a xlink:title=" ">
<path fill="none" stroke="#63b8ff" d="M569.01,-464.74C588.6,-441.98 627.53,-400.98 670,-379.95 673.68,-378.13 677.51,-376.48 681.45,-374.99"/>
<polygon fill="#63b8ff" stroke="#63b8ff" points="682.26,-378.41 690.61,-371.9 680.02,-371.78 682.26,-378.41"/>
</a>
</g>
</g>
<!-- Node23 -->
<g id="Node000023" class="node">
<title>Node23</title>
<g id="a_Node000023"><a xlink:href="../../d5/d72/classLSM1x0A__LoRaWAN.html#aa70ada64d28ecca216bb62268e502adf" target="_top" xlink:title="Sets the delay for the RX1 receive window.">
<polygon fill="white" stroke="#666666" points="853.62,-332.95 680.12,-332.95 680.12,-312.95 853.62,-312.95 853.62,-332.95"/>
<text text-anchor="middle" x="766.88" y="-319.45" font-family="Helvetica,sans-Serif" font-size="10.00">LSM1x0A_LoRaWAN::setRx1Delay</text>
</a>
</g>
</g>
<!-- Node12&#45;&gt;Node23 -->
<g id="edge38_Node000012_Node000023" class="edge">
<title>Node12&#45;&gt;Node23</title>
<g id="a_edge38_Node000012_Node000023"><a xlink:title=" ">
<path fill="none" stroke="#63b8ff" d="M564.2,-464.54C580.4,-434.88 618.8,-372.58 670,-341.95 672.48,-340.46 675.06,-339.09 677.71,-337.82"/>
<polygon fill="#63b8ff" stroke="#63b8ff" points="678.96,-341.09 686.84,-334.02 676.26,-334.63 678.96,-341.09"/>
</a>
</g>
</g>
<!-- Node24 -->
<g id="Node000024" class="node">
<title>Node24</title>
<g id="a_Node000024"><a xlink:href="../../d5/d72/classLSM1x0A__LoRaWAN.html#a2cf4eff0181b6107d082bccefa24217b" target="_top" xlink:title="Sets the Data Rate (DR) specifically for the RX2 window.">
<polygon fill="white" stroke="#666666" points="861.88,-294.95 671.88,-294.95 671.88,-274.95 861.88,-274.95 861.88,-294.95"/>
<text text-anchor="middle" x="766.88" y="-281.45" font-family="Helvetica,sans-Serif" font-size="10.00">LSM1x0A_LoRaWAN::setRx2DataRate</text>
</a>
</g>
</g>
<!-- Node12&#45;&gt;Node24 -->
<g id="edge40_Node000012_Node000024" class="edge">
<title>Node12&#45;&gt;Node24</title>
<g id="a_edge40_Node000012_Node000024"><a xlink:title=" ">
<path fill="none" stroke="#63b8ff" d="M561.27,-464.61C574.15,-429.11 609.79,-344.84 670,-303.95 671.97,-302.61 674.02,-301.36 676.13,-300.19"/>
<polygon fill="#63b8ff" stroke="#63b8ff" points="677.46,-303.43 684.98,-295.97 674.45,-297.11 677.46,-303.43"/>
</a>
</g>
</g>
<!-- Node25 -->
<g id="Node000025" class="node">
<title>Node25</title>
<g id="a_Node000025"><a xlink:href="../../d5/d72/classLSM1x0A__LoRaWAN.html#a42d2137b475b57e19d891a5f1ac93221" target="_top" xlink:title="Sets the delay for the RX2 receive window.">
<polygon fill="white" stroke="#666666" points="853.62,-256.95 680.12,-256.95 680.12,-236.95 853.62,-236.95 853.62,-256.95"/>
<text text-anchor="middle" x="766.88" y="-243.45" font-family="Helvetica,sans-Serif" font-size="10.00">LSM1x0A_LoRaWAN::setRx2Delay</text>
</a>
</g>
</g>
<!-- Node12&#45;&gt;Node25 -->
<g id="edge42_Node000012_Node000025" class="edge">
<title>Node12&#45;&gt;Node25</title>
<g id="a_edge42_Node000012_Node000025"><a xlink:title=" ">
<path fill="none" stroke="#63b8ff" d="M559.34,-464.6C569.18,-423.89 600.61,-317.5 670,-265.95 671.59,-264.76 673.24,-263.65 674.93,-262.6"/>
<polygon fill="#63b8ff" stroke="#63b8ff" points="676.51,-265.72 683.73,-257.97 673.25,-259.53 676.51,-265.72"/>
</a>
</g>
</g>
<!-- Node26 -->
<g id="Node000026" class="node">
<title>Node26</title>
<g id="a_Node000026"><a xlink:href="../../d5/d72/classLSM1x0A__LoRaWAN.html#a689f7dfda1dfeae11ea397c2ddf2ad37" target="_top" xlink:title="Sets the precise frequency for the RX2 window.">
<polygon fill="white" stroke="#666666" points="863.75,-218.95 670,-218.95 670,-198.95 863.75,-198.95 863.75,-218.95"/>
<text text-anchor="middle" x="766.88" y="-205.45" font-family="Helvetica,sans-Serif" font-size="10.00">LSM1x0A_LoRaWAN::setRx2Frequency</text>
</a>
</g>
</g>
<!-- Node12&#45;&gt;Node26 -->
<g id="edge44_Node000012_Node000026" class="edge">
<title>Node12&#45;&gt;Node26</title>
<g id="a_edge44_Node000012_Node000026"><a xlink:title=" ">
<path fill="none" stroke="#63b8ff" d="M557.96,-464.5C565.01,-418.96 591.31,-290.44 670,-227.95 671.33,-226.89 672.7,-225.89 674.11,-224.94"/>
<polygon fill="#63b8ff" stroke="#63b8ff" points="675.61,-228.11 682.57,-220.12 672.15,-222.03 675.61,-228.11"/>
</a>
</g>
</g>
<!-- Node27 -->
<g id="Node000027" class="node">
<title>Node27</title>
<g id="a_Node000027"><a xlink:href="../../d5/d72/classLSM1x0A__LoRaWAN.html#a1df10d7ae6bf45b537d28d3d5c4b88d7" target="_top" xlink:title="Sets the transmission power index.">
<polygon fill="white" stroke="#666666" points="851.38,-180.95 682.38,-180.95 682.38,-160.95 851.38,-160.95 851.38,-180.95"/>
<text text-anchor="middle" x="766.88" y="-167.45" font-family="Helvetica,sans-Serif" font-size="10.00">LSM1x0A_LoRaWAN::setTxPower</text>
</a>
</g>
</g>
<!-- Node12&#45;&gt;Node27 -->
<g id="edge46_Node000012_Node000027" class="edge">
<title>Node12&#45;&gt;Node27</title>
<g id="a_edge46_Node000012_Node000027"><a xlink:title=" ">
<path fill="none" stroke="#63b8ff" d="M556.89,-464.65C561.3,-414.88 581.71,-263.73 670,-189.95 671.14,-189 672.3,-188.09 673.5,-187.23"/>
<polygon fill="#63b8ff" stroke="#63b8ff" points="675.18,-190.3 681.93,-182.14 671.56,-184.31 675.18,-190.3"/>
</a>
</g>
</g>
<!-- Node28 -->
<g id="Node000028" class="node">
<title>Node28</title>
<g id="a_Node000028"><a xlink:href="../../d5/d72/classLSM1x0A__LoRaWAN.html#a059fd6a9356c4ecadd5a98294da5952d" target="_top" xlink:title="Configures the number of repetitions for Unconfirmed uplinks.">
<polygon fill="white" stroke="#666666" points="854.38,-142.95 679.38,-142.95 679.38,-110.95 854.38,-110.95 854.38,-142.95"/>
<text text-anchor="start" x="687.38" y="-129.45" font-family="Helvetica,sans-Serif" font-size="10.00">LSM1x0A_LoRaWAN::setUnconfirm</text>
<text text-anchor="middle" x="766.88" y="-117.45" font-family="Helvetica,sans-Serif" font-size="10.00">Retry</text>
</a>
</g>
</g>
<!-- Node12&#45;&gt;Node28 -->
<g id="edge48_Node000012_Node000028" class="edge">
<title>Node12&#45;&gt;Node28</title>
<g id="a_edge48_Node000012_Node000028"><a xlink:title=" ">
<path fill="none" stroke="#63b8ff" d="M556.27,-464.75C558.9,-411.46 574.73,-239.96 670,-151.95 670.77,-151.23 671.57,-150.54 672.37,-149.86"/>
<polygon fill="#63b8ff" stroke="#63b8ff" points="674.22,-152.84 680.37,-144.21 670.19,-147.12 674.22,-152.84"/>
</a>
</g>
</g>
<!-- Node13&#45;&gt;Node2 -->
<g id="edge18_Node000013_Node000002" class="edge">
<title>Node13&#45;&gt;Node2</title>
<g id="a_edge18_Node000013_Node000002"><a xlink:title=" ">
<path fill="none" stroke="#63b8ff" d="M691.86,-778.49C582.64,-761.69 385.58,-725.64 333.5,-677.95 282.85,-631.57 259.62,-550.58 250.5,-508.34"/>
<polygon fill="#63b8ff" stroke="#63b8ff" points="253.98,-507.86 248.55,-498.76 247.12,-509.26 253.98,-507.86"/>
</a>
</g>
</g>
<!-- Node14&#45;&gt;Node2 -->
<g id="edge20_Node000014_Node000002" class="edge">
<title>Node14&#45;&gt;Node2</title>
<g id="a_edge20_Node000014_Node000002"><a xlink:title=" ">
<path fill="none" stroke="#63b8ff" d="M694.23,-740.46C586.17,-723.42 388.26,-687.03 333.5,-641.95 290.23,-606.32 264.87,-543.61 253.24,-507.88"/>
<polygon fill="#63b8ff" stroke="#63b8ff" points="256.71,-507.24 250.39,-498.74 250.02,-509.32 256.71,-507.24"/>
</a>
</g>
</g>
<!-- Node15&#45;&gt;Node2 -->
<g id="edge23_Node000015_Node000002" class="edge">
<title>Node15&#45;&gt;Node2</title>
<g id="a_edge23_Node000015_Node000002"><a xlink:title=" ">
<path fill="none" stroke="#63b8ff" d="M684.24,-696.13C574.83,-680.29 388.07,-648.15 333.5,-606.95 298.38,-580.43 271.99,-535.78 257.65,-507.37"/>
<polygon fill="#63b8ff" stroke="#63b8ff" points="260.96,-506.16 253.42,-498.71 254.67,-509.23 260.96,-506.16"/>
</a>
</g>
</g>
<!-- Node16&#45;&gt;Node2 -->
<g id="edge25_Node000016_Node000002" class="edge">
<title>Node16&#45;&gt;Node2</title>
<g id="a_edge25_Node000016_Node000002"><a xlink:title=" ">
<path fill="none" stroke="#63b8ff" d="M680.77,-660.63C589.06,-654.66 441.71,-634.71 333.5,-569.95 305.82,-553.38 280.64,-526.09 264.38,-506.09"/>
<polygon fill="#63b8ff" stroke="#63b8ff" points="267.24,-504.06 258.29,-498.39 261.75,-508.41 267.24,-504.06"/>
</a>
</g>
</g>
<!-- Node17&#45;&gt;Node2 -->
<g id="edge27_Node000017_Node000002" class="edge">
<title>Node17&#45;&gt;Node2</title>
<g id="a_edge27_Node000017_Node000002"><a xlink:title=" ">
<path fill="none" stroke="#63b8ff" d="M682.52,-618.09C593.26,-608.52 448.9,-586.49 333.5,-537.95 312.74,-529.22 291.49,-515.61 275.08,-503.88"/>
<polygon fill="#63b8ff" stroke="#63b8ff" points="277.37,-501.22 267.23,-498.14 273.24,-506.87 277.37,-501.22"/>
</a>
</g>
</g>
<!-- Node18&#45;&gt;Node2 -->
<g id="edge29_Node000018_Node000002" class="edge">
<title>Node18&#45;&gt;Node2</title>
<g id="a_edge29_Node000018_Node000002"><a xlink:title=" ">
<path fill="none" stroke="#63b8ff" d="M684.12,-576.91C596.53,-565.2 453.84,-543.35 333.5,-511.95 321.98,-508.94 309.82,-505.11 298.34,-501.17"/>
<polygon fill="#63b8ff" stroke="#63b8ff" points="299.6,-497.9 289.01,-497.88 297.28,-504.5 299.6,-497.9"/>
</a>
</g>
</g>
<!-- Node19&#45;&gt;Node2 -->
<g id="edge31_Node000019_Node000002" class="edge">
<title>Node19&#45;&gt;Node2</title>
<g id="a_edge31_Node000019_Node000002"><a xlink:title=" ">
<path fill="none" stroke="#63b8ff" d="M691.14,-534.04C588.46,-521.81 405.56,-500.02 309.1,-488.53"/>
<polygon fill="#63b8ff" stroke="#63b8ff" points="309.62,-485.06 299.28,-487.36 308.8,-492.01 309.62,-485.06"/>
</a>
</g>
</g>
<!-- Node20&#45;&gt;Node2 -->
<g id="edge33_Node000020_Node000002" class="edge">
<title>Node20&#45;&gt;Node2</title>
<g id="a_edge33_Node000020_Node000002"><a xlink:title=" ">
<path fill="none" stroke="#63b8ff" d="M690,-453.04C631.37,-452.09 548.23,-451.88 475.5,-455.95 419.12,-459.1 355.3,-466.33 309.22,-472.21"/>
<polygon fill="#63b8ff" stroke="#63b8ff" points="308.87,-468.72 299.4,-473.48 309.76,-475.67 308.87,-468.72"/>
</a>
</g>
</g>
<!-- Node21&#45;&gt;Node2 -->
<g id="edge35_Node000021_Node000002" class="edge">
<title>Node21&#45;&gt;Node2</title>
<g id="a_edge35_Node000021_Node000002"><a xlink:title=" ">
<path fill="none" stroke="#63b8ff" d="M689.88,-409.76C603.03,-416.18 456.96,-429.77 333.5,-454.95 324.83,-456.72 315.78,-458.94 306.92,-461.34"/>
<polygon fill="#63b8ff" stroke="#63b8ff" points="305.98,-457.97 297.3,-464.05 307.88,-464.71 305.98,-457.97"/>
</a>
</g>
</g>
<!-- Node22&#45;&gt;Node2 -->
<g id="edge37_Node000022_Node000002" class="edge">
<title>Node22&#45;&gt;Node2</title>
<g id="a_edge37_Node000022_Node000002"><a xlink:title=" ">
<path fill="none" stroke="#63b8ff" d="M686.21,-366.22C597.95,-373.87 452.38,-391.94 333.5,-432.95 315.01,-439.33 295.8,-449.35 280.06,-458.6"/>
<polygon fill="#63b8ff" stroke="#63b8ff" points="278.3,-455.57 271.55,-463.73 281.92,-461.56 278.3,-455.57"/>
</a>
</g>
</g>
<!-- Node23&#45;&gt;Node2 -->
<g id="edge39_Node000023_Node000002" class="edge">
<title>Node23&#45;&gt;Node2</title>
<g id="a_edge39_Node000023_Node000002"><a xlink:title=" ">
<path fill="none" stroke="#63b8ff" d="M679.74,-323.48C588.79,-327.36 443.6,-343.2 333.5,-400.95 307.26,-414.71 282.78,-438.19 266.34,-456.16"/>
<polygon fill="#63b8ff" stroke="#63b8ff" points="263.98,-453.54 259.95,-463.34 269.21,-458.2 263.98,-453.54"/>
</a>
</g>
</g>
<!-- Node24&#45;&gt;Node2 -->
<g id="edge41_Node000024_Node000002" class="edge">
<title>Node24&#45;&gt;Node2</title>
<g id="a_edge41_Node000024_Node000002"><a xlink:title=" ">
<path fill="none" stroke="#63b8ff" d="M671.65,-278.72C578.1,-277.21 434.44,-287.94 333.5,-355.95 297,-380.54 270.87,-425.71 256.98,-454.49"/>
<polygon fill="#63b8ff" stroke="#63b8ff" points="253.94,-452.73 252.9,-463.27 260.29,-455.68 253.94,-452.73"/>
</a>
</g>
</g>
<!-- Node25&#45;&gt;Node2 -->
<g id="edge43_Node000025_Node000002" class="edge">
<title>Node25&#45;&gt;Node2</title>
<g id="a_edge43_Node000025_Node000002"><a xlink:title=" ">
<path fill="none" stroke="#63b8ff" d="M696.1,-236.49C603.33,-226.6 438.84,-223.58 333.5,-304.95 284.86,-342.51 261.13,-414.19 251.31,-453.49"/>
<polygon fill="#63b8ff" stroke="#63b8ff" points="247.94,-452.56 249.05,-463.1 254.75,-454.17 247.94,-452.56"/>
</a>
</g>
</g>
<!-- Node26&#45;&gt;Node2 -->
<g id="edge45_Node000026_Node000002" class="edge">
<title>Node26&#45;&gt;Node2</title>
<g id="a_edge45_Node000026_Node000002"><a xlink:title=" ">
<path fill="none" stroke="#63b8ff" d="M669.67,-205.86C558.22,-204.31 383.5,-208.72 333.5,-248.95 269.61,-300.36 252.08,-403.6 247.29,-453.16"/>
<polygon fill="#63b8ff" stroke="#63b8ff" points="243.81,-452.77 246.45,-463.03 250.78,-453.36 243.81,-452.77"/>
</a>
</g>
</g>
<!-- Node27&#45;&gt;Node2 -->
<g id="edge47_Node000027_Node000002" class="edge">
<title>Node27&#45;&gt;Node2</title>
<g id="a_edge47_Node000027_Node000002"><a xlink:title=" ">
<path fill="none" stroke="#63b8ff" d="M719.17,-160.48C632.74,-144.01 446.39,-122.56 333.5,-212.95 258.69,-272.85 246.83,-397.78 245.4,-453.31"/>
<polygon fill="#63b8ff" stroke="#63b8ff" points="241.9,-453.1 245.25,-463.15 248.9,-453.21 241.9,-453.1"/>
</a>
</g>
</g>
<!-- Node28&#45;&gt;Node2 -->
<g id="edge49_Node000028_Node000002" class="edge">
<title>Node28&#45;&gt;Node2</title>
<g id="a_edge49_Node000028_Node000002"><a xlink:title=" ">
<path fill="none" stroke="#63b8ff" d="M678.99,-121.55C567.9,-116.57 383.87,-115.39 333.5,-157.95 287.65,-196.69 258.5,-383.18 248.95,-453.79"/>
<polygon fill="#63b8ff" stroke="#63b8ff" points="245.53,-452.95 247.69,-463.32 252.47,-453.87 245.53,-452.95"/>
</a>
</g>
</g>
<!-- Node30&#45;&gt;Node31 -->
<g id="edge52_Node000030_Node000031" class="edge">
<title>Node30&#45;&gt;Node31</title>
<g id="a_edge52_Node000030_Node000031"><a xlink:title=" ">
<path fill="none" stroke="#63b8ff" d="M608.23,-1092.44C626.39,-1094.34 647.36,-1096.54 667.97,-1098.7"/>
<polygon fill="#63b8ff" stroke="#63b8ff" points="667.54,-1102.17 677.85,-1099.73 668.27,-1095.21 667.54,-1102.17"/>
</a>
</g>
</g>
<!-- Node32 -->
<g id="Node000032" class="node">
<title>Node32</title>
<g id="a_Node000032"><a xlink:href="../../d6/d3c/classLSM1x0A__AtParser.html#a0ba6f927c54fceece22c17773d3f2600" target="_top" xlink:title="Sends a command and extracts a value from the response.">
<polygon fill="white" stroke="#666666" points="1081.88,-1124.95 907.62,-1124.95 907.62,-1092.95 1081.88,-1092.95 1081.88,-1124.95"/>
<text text-anchor="start" x="915.62" y="-1111.45" font-family="Helvetica,sans-Serif" font-size="10.00">LSM1x0A_AtParser::sendCommand</text>
<text text-anchor="middle" x="994.75" y="-1099.45" font-family="Helvetica,sans-Serif" font-size="10.00">WithResponse</text>
</a>
</g>
</g>
<!-- Node31&#45;&gt;Node32 -->
<g id="edge53_Node000031_Node000032" class="edge">
<title>Node31&#45;&gt;Node32</title>
<g id="a_edge53_Node000031_Node000032"><a xlink:title=" ">
<path fill="none" stroke="#63b8ff" d="M854.24,-1108.95C867.99,-1108.95 882.31,-1108.95 896.3,-1108.95"/>
<polygon fill="#63b8ff" stroke="#63b8ff" points="895.92,-1112.45 905.92,-1108.95 895.92,-1105.45 895.92,-1112.45"/>
</a>
</g>
</g>
<!-- Node33 -->
<g id="Node000033" class="node">
<title>Node33</title>
<g id="a_Node000033"><a xlink:href="../../d5/d8b/classUartDriver.html#a5d0f22e8867eebe99273078bb19bd23d" target="_top" xlink:title="Sends data through UART.">
<polygon fill="white" stroke="#666666" points="1256.5,-1118.95 1147.5,-1118.95 1147.5,-1098.95 1256.5,-1098.95 1256.5,-1118.95"/>
<text text-anchor="middle" x="1202" y="-1105.45" font-family="Helvetica,sans-Serif" font-size="10.00">UartDriver::sendData</text>
</a>
</g>
</g>
<!-- Node32&#45;&gt;Node33 -->
<g id="edge54_Node000032_Node000033" class="edge">
<title>Node32&#45;&gt;Node33</title>
<g id="a_edge54_Node000032_Node000033"><a xlink:title=" ">
<path fill="none" stroke="#63b8ff" d="M1082.2,-1108.95C1100.09,-1108.95 1118.66,-1108.95 1135.64,-1108.95"/>
<polygon fill="#63b8ff" stroke="#63b8ff" points="1135.61,-1112.45 1145.61,-1108.95 1135.61,-1105.45 1135.61,-1112.45"/>
</a>
</g>
</g>
</g>
</svg>
