<?xml version="1.0" encoding="UTF-8" standalone="no"?>
<!DOCTYPE svg PUBLIC "-//W3C//DTD SVG 1.1//EN"
 "http://www.w3.org/Graphics/SVG/1.1/DTD/svg11.dtd">
<!-- Generated by graphviz version 12.2.1 (20241206.2353)
 -->
<!-- Title: LSM1x0A_Sigfox::setPayloadEncryption Pages: 1 -->
<svg width="1277pt" height="1143pt"
 viewBox="0.00 0.00 1277.25 1143.11" xmlns="http://www.w3.org/2000/svg" xmlns:xlink="http://www.w3.org/1999/xlink">
<g id="graph0" class="graph" transform="scale(1 1) rotate(0) translate(4 1139.11)">
<title>LSM1x0A_Sigfox::setPayloadEncryption</title>
<!-- Node1 -->
<g id="Node000001" class="node">
<title>Node1</title>
<g id="a_Node000001"><a xlink:title="Toggles Payload Encryption.">
<polygon fill="#999999" stroke="#666666" points="146.5,-496.95 0,-496.95 0,-464.95 146.5,-464.95 146.5,-496.95"/>
<text text-anchor="start" x="8" y="-483.45" font-family="Helvetica,sans-Serif" font-size="10.00">LSM1x0A_Sigfox::setPayload</text>
<text text-anchor="middle" x="73.25" y="-471.45" font-family="Helvetica,sans-Serif" font-size="10.00">Encryption</text>
</a>
</g>
</g>
<!-- Node2 -->
<g id="Node000002" class="node">
<title>Node2</title>
<g id="a_Node000002"><a xlink:href="../../d8/d92/classLSM1x0A__Controller.html#afd7d92e60ed6fdae696a955cdbe0ed8c" target="_top" xlink:title="Sends any AT command to the module, returning error if it fails. Internally uses the LsmAtParser logi...">
<polygon fill="white" stroke="#666666" points="288.5,-496.95 182.5,-496.95 182.5,-464.95 288.5,-464.95 288.5,-496.95"/>
<text text-anchor="start" x="190.5" y="-483.45" font-family="Helvetica,sans-Serif" font-size="10.00">LSM1x0A_Controller</text>
<text text-anchor="middle" x="235.5" y="-471.45" font-family="Helvetica,sans-Serif" font-size="10.00">::sendCommand</text>
</a>
</g>
</g>
<!-- Node1&#45;&gt;Node2 -->
<g id="edge1_Node000001_Node000002" class="edge">
<title>Node1&#45;&gt;Node2</title>
<g id="a_edge1_Node000001_Node000002"><a xlink:title=" ">
<path fill="none" stroke="#63b8ff" d="M146.87,-480.95C154.89,-480.95 163,-480.95 170.89,-480.95"/>
<polygon fill="#63b8ff" stroke="#63b8ff" points="170.74,-484.45 180.74,-480.95 170.74,-477.45 170.74,-484.45"/>
</a>
</g>
</g>
<!-- Node3 -->
<g id="Node000003" class="node">
<title>Node3</title>
<g id="a_Node000003"><a xlink:href="../../d8/d92/classLSM1x0A__Controller.html#abb0eb380daa3dfb7acffb483c5db8e2b" target="_top" xlink:title="Executes the recovery protocol. First Soft&#45;Reset (ATZ), then Hard&#45;Reset if there is a pin.">
<polygon fill="white" stroke="#666666" points="430.5,-938.95 324.5,-938.95 324.5,-906.95 430.5,-906.95 430.5,-938.95"/>
<text text-anchor="start" x="332.5" y="-925.45" font-family="Helvetica,sans-Serif" font-size="10.00">LSM1x0A_Controller</text>
<text text-anchor="middle" x="377.5" y="-913.45" font-family="Helvetica,sans-Serif" font-size="10.00">::recoverModule</text>
</a>
</g>
</g>
<!-- Node2&#45;&gt;Node3 -->
<g id="edge2_Node000002_Node000003" class="edge">
<title>Node2&#45;&gt;Node3</title>
<g id="a_edge2_Node000002_Node000003"><a xlink:title=" ">
<path fill="none" stroke="#63b8ff" d="M240.05,-497.39C250.61,-545.46 283.66,-689.56 324.5,-804.95 335.85,-837.01 352.04,-872.58 363.33,-896.2"/>
<polygon fill="#63b8ff" stroke="#63b8ff" points="360.13,-897.62 367.63,-905.1 366.43,-894.57 360.13,-897.62"/>
</a>
</g>
</g>
<!-- Node31 -->
<g id="Node000031" class="node">
<title>Node31</title>
<g id="a_Node000031"><a xlink:href="../../d6/d3c/classLSM1x0A__AtParser.html#a29b53c521974387ba6c03afadfaffa4a" target="_top" xlink:title="Sends a simple command and waits for OK/ERROR. Example: sendCommand(&quot;AT+JOIN&quot;);.">
<polygon fill="white" stroke="#666666" points="845,-1118.95 670.75,-1118.95 670.75,-1098.95 845,-1098.95 845,-1118.95"/>
<text text-anchor="middle" x="757.88" y="-1105.45" font-family="Helvetica,sans-Serif" font-size="10.00">LSM1x0A_AtParser::sendCommand</text>
</a>
</g>
</g>
<!-- Node2&#45;&gt;Node31 -->
<g id="edge55_Node000002_Node000031" class="edge">
<title>Node2&#45;&gt;Node31</title>
<g id="a_edge55_Node000002_Node000031"><a xlink:title=" ">
<path fill="none" stroke="#63b8ff" d="M236.56,-497.2C237.38,-559.15 245.92,-785.25 324.5,-947.95 366.43,-1034.77 378.81,-1071.88 466.5,-1111.95 544.26,-1147.48 646.41,-1134.62 706.52,-1121.89"/>
<polygon fill="#63b8ff" stroke="#63b8ff" points="707.11,-1125.34 716.12,-1119.77 705.6,-1118.51 707.11,-1125.34"/>
</a>
</g>
</g>
<!-- Node4 -->
<g id="Node000004" class="node">
<title>Node4</title>
<g id="a_Node000004"><a xlink:href="../../d8/d92/classLSM1x0A__Controller.html#a3f6f25b843fe4fb7042c544deae2ab16" target="_top" xlink:title="Manually clears bits from the internal EventGroup.">
<polygon fill="white" stroke="#666666" points="1038.75,-957.95 932.75,-957.95 932.75,-925.95 1038.75,-925.95 1038.75,-957.95"/>
<text text-anchor="start" x="940.75" y="-944.45" font-family="Helvetica,sans-Serif" font-size="10.00">LSM1x0A_Controller</text>
<text text-anchor="middle" x="985.75" y="-932.45" font-family="Helvetica,sans-Serif" font-size="10.00">::clearEvents</text>
</a>
</g>
</g>
<!-- Node3&#45;&gt;Node4 -->
<g id="edge3_Node000003_Node000004" class="edge">
<title>Node3&#45;&gt;Node4</title>
<g id="a_edge3_Node000003_Node000004"><a xlink:title=" ">
<path fill="none" stroke="#63b8ff" d="M394.58,-939.29C411,-954.72 438.06,-976.82 466.5,-985.95 626.07,-1037.18 826.66,-991 924.93,-961.72"/>
<polygon fill="#63b8ff" stroke="#63b8ff" points="925.82,-965.11 934.37,-958.86 923.79,-958.41 925.82,-965.11"/>
</a>
</g>
</g>
<!-- Node5 -->
<g id="Node000005" class="node">
<title>Node5</title>
<g id="a_Node000005"><a xlink:href="../../d8/d92/classLSM1x0A__Controller.html#a345d4bd79fa16b18dc33a4ca788fe5f7" target="_top" xlink:title="Performs a hardware reset using the reset pin.">
<polygon fill="white" stroke="#666666" points="598.75,-938.95 492.75,-938.95 492.75,-906.95 598.75,-906.95 598.75,-938.95"/>
<text text-anchor="start" x="500.75" y="-925.45" font-family="Helvetica,sans-Serif" font-size="10.00">LSM1x0A_Controller</text>
<text text-anchor="middle" x="545.75" y="-913.45" font-family="Helvetica,sans-Serif" font-size="10.00">::hardwareReset</text>
</a>
</g>
</g>
<!-- Node3&#45;&gt;Node5 -->
<g id="edge4_Node000003_Node000005" class="edge">
<title>Node3&#45;&gt;Node5</title>
<g id="a_edge4_Node000003_Node000005"><a xlink:title=" ">
<path fill="none" stroke="#63b8ff" d="M430.65,-922.95C446.66,-922.95 464.47,-922.95 481.16,-922.95"/>
<polygon fill="#63b8ff" stroke="#63b8ff" points="480.99,-926.45 490.99,-922.95 480.99,-919.45 480.99,-926.45"/>
</a>
</g>
</g>
<!-- Node7 -->
<g id="Node000007" class="node">
<title>Node7</title>
<g id="a_Node000007"><a xlink:href="../../d5/d72/classLSM1x0A__LoRaWAN.html#a1892801e37c8cd67d37c76108d6f7d49" target="_top" xlink:title="Validates if the device is currently Joined to the network. (Either confirmed by OTAA or statically a...">
<polygon fill="white" stroke="#666666" points="1269.25,-926.95 1116.75,-926.95 1116.75,-906.95 1269.25,-906.95 1269.25,-926.95"/>
<text text-anchor="middle" x="1193" y="-913.45" font-family="Helvetica,sans-Serif" font-size="10.00">LSM1x0A_LoRaWAN::isJoined</text>
</a>
</g>
</g>
<!-- Node3&#45;&gt;Node7 -->
<g id="edge6_Node000003_Node000007" class="edge">
<title>Node3&#45;&gt;Node7</title>
<g id="a_edge6_Node000003_Node000007"><a xlink:title=" ">
<path fill="none" stroke="#63b8ff" d="M424.44,-939.25C426.58,-940.7 428.61,-942.26 430.5,-943.95 455.67,-966.51 437.49,-993.6 466.5,-1010.95 477.2,-1017.34 792.66,-1014.94 854.75,-1008.95 956.44,-999.13 983.24,-997.44 1080.75,-966.95 1109.58,-957.93 1140.83,-943.44 1162.84,-932.37"/>
<polygon fill="#63b8ff" stroke="#63b8ff" points="1164.2,-935.61 1171.51,-927.94 1161.01,-929.38 1164.2,-935.61"/>
</a>
</g>
</g>
<!-- Node8 -->
<g id="Node000008" class="node">
<title>Node8</title>
<g id="a_Node000008"><a xlink:href="../../d5/d72/classLSM1x0A__LoRaWAN.html#a83e11c0e74ff9e0757db616ab1163424" target="_top" xlink:title="Attempts to recover a lost connection (re&#45;executes OTAA Join if dropped).">
<polygon fill="white" stroke="#666666" points="620.12,-850.95 471.38,-850.95 471.38,-818.95 620.12,-818.95 620.12,-850.95"/>
<text text-anchor="start" x="479.38" y="-837.45" font-family="Helvetica,sans-Serif" font-size="10.00">LSM1x0A_LoRaWAN::recover</text>
<text text-anchor="middle" x="545.75" y="-825.45" font-family="Helvetica,sans-Serif" font-size="10.00">Connection</text>
</a>
</g>
</g>
<!-- Node3&#45;&gt;Node8 -->
<g id="edge7_Node000003_Node000008" class="edge">
<title>Node3&#45;&gt;Node8</title>
<g id="a_edge7_Node000003_Node000008"><a xlink:title=" ">
<path fill="none" stroke="#63b8ff" d="M400.47,-906.53C417.8,-894.07 442.9,-877.07 466.5,-864.95 472.79,-861.72 479.5,-858.64 486.26,-855.76"/>
<polygon fill="#63b8ff" stroke="#63b8ff" points="487.53,-859.02 495.46,-851.99 484.88,-852.55 487.53,-859.02"/>
</a>
</g>
</g>
<!-- Node12 -->
<g id="Node000012" class="node">
<title>Node12</title>
<g id="a_Node000012"><a xlink:href="../../d5/d72/classLSM1x0A__LoRaWAN.html#ae3be4ce59dfa200369733317df356e97" target="_top" xlink:title="Pushes the RAM&#45;cached variables back down into the hardware module. Restores the operational state af...">
<polygon fill="white" stroke="#666666" points="619,-496.95 472.5,-496.95 472.5,-464.95 619,-464.95 619,-496.95"/>
<text text-anchor="start" x="480.5" y="-483.45" font-family="Helvetica,sans-Serif" font-size="10.00">LSM1x0A_LoRaWAN::restore</text>
<text text-anchor="middle" x="545.75" y="-471.45" font-family="Helvetica,sans-Serif" font-size="10.00">Config</text>
</a>
</g>
</g>
<!-- Node3&#45;&gt;Node12 -->
<g id="edge16_Node000003_Node000012" class="edge">
<title>Node3&#45;&gt;Node12</title>
<g id="a_edge16_Node000003_Node000012"><a xlink:title=" ">
<path fill="none" stroke="#63b8ff" d="M384.61,-906.69C409.51,-840.5 503.42,-590.84 534.61,-507.91"/>
<polygon fill="#63b8ff" stroke="#63b8ff" points="537.8,-509.36 538.05,-498.77 531.25,-506.9 537.8,-509.36"/>
</a>
</g>
</g>
<!-- Node29 -->
<g id="Node000029" class="node">
<title>Node29</title>
<g id="a_Node000029"><a xlink:href="../../d5/d72/classLSM1x0A__LoRaWAN.html#ace4b04396f1de1f4a54f513f5f378db7" target="_top" xlink:title="Manually overrides the internal joined state tracker.">
<polygon fill="white" stroke="#666666" points="625,-976.95 466.5,-976.95 466.5,-956.95 625,-956.95 625,-976.95"/>
<text text-anchor="middle" x="545.75" y="-963.45" font-family="Helvetica,sans-Serif" font-size="10.00">LSM1x0A_LoRaWAN::setJoined</text>
</a>
</g>
</g>
<!-- Node3&#45;&gt;Node29 -->
<g id="edge50_Node000003_Node000029" class="edge">
<title>Node3&#45;&gt;Node29</title>
<g id="a_edge50_Node000003_Node000029"><a xlink:title=" ">
<path fill="none" stroke="#63b8ff" d="M430.99,-938.22C442.66,-941.51 454.98,-944.91 466.5,-947.95 473.86,-949.89 481.62,-951.86 489.29,-953.76"/>
<polygon fill="#63b8ff" stroke="#63b8ff" points="488.38,-957.14 498.93,-956.13 490.05,-950.35 488.38,-957.14"/>
</a>
</g>
</g>
<!-- Node30 -->
<g id="Node000030" class="node">
<title>Node30</title>
<g id="a_Node000030"><a xlink:href="../../d8/d92/classLSM1x0A__Controller.html#a11ad21cb5ca33ec51346764a23bd485e" target="_top" xlink:title="Performs a software reset (ATZ Command).">
<polygon fill="white" stroke="#666666" points="598.75,-1102.95 492.75,-1102.95 492.75,-1070.95 598.75,-1070.95 598.75,-1102.95"/>
<text text-anchor="start" x="500.75" y="-1089.45" font-family="Helvetica,sans-Serif" font-size="10.00">LSM1x0A_Controller</text>
<text text-anchor="middle" x="545.75" y="-1077.45" font-family="Helvetica,sans-Serif" font-size="10.00">::softwareReset</text>
</a>
</g>
</g>
<!-- Node3&#45;&gt;Node30 -->
<g id="edge51_Node000003_Node000030" class="edge">
<title>Node3&#45;&gt;Node30</title>
<g id="a_edge51_Node000003_Node000030"><a xlink:title=" ">
<path fill="none" stroke="#63b8ff" d="M385.2,-939.34C397.39,-967.25 425.75,-1024.13 466.5,-1056.95 471.32,-1060.83 476.69,-1064.24 482.3,-1067.25"/>
<polygon fill="#63b8ff" stroke="#63b8ff" points="480.71,-1070.36 491.23,-1071.55 483.75,-1064.06 480.71,-1070.36"/>
</a>
</g>
</g>
<!-- Node6 -->
<g id="Node000006" class="node">
<title>Node6</title>
<g id="a_Node000006"><a xlink:href="../../d6/d3c/classLSM1x0A__AtParser.html#ad2839120da13e56132b95019419be1e5" target="_top" xlink:title="Waits for an event (like BOOTALERT) without sending any command. Useful for hardware reset where the ...">
<polygon fill="white" stroke="#666666" points="828.12,-938.95 687.62,-938.95 687.62,-906.95 828.12,-906.95 828.12,-938.95"/>
<text text-anchor="start" x="695.62" y="-925.45" font-family="Helvetica,sans-Serif" font-size="10.00">LSM1x0A_AtParser::waitFor</text>
<text text-anchor="middle" x="757.88" y="-913.45" font-family="Helvetica,sans-Serif" font-size="10.00">Event</text>
</a>
</g>
</g>
<!-- Node5&#45;&gt;Node6 -->
<g id="edge5_Node000005_Node000006" class="edge">
<title>Node5&#45;&gt;Node6</title>
<g id="a_edge5_Node000005_Node000006"><a xlink:title=" ">
<path fill="none" stroke="#63b8ff" d="M599.23,-922.95C622.42,-922.95 650.22,-922.95 675.96,-922.95"/>
<polygon fill="#63b8ff" stroke="#63b8ff" points="675.72,-926.45 685.72,-922.95 675.72,-919.45 675.72,-926.45"/>
</a>
</g>
</g>
<!-- Node9 -->
<g id="Node000009" class="node">
<title>Node9</title>
<g id="a_Node000009"><a xlink:href="../../d5/d72/classLSM1x0A__LoRaWAN.html#a59f781f3cfd30c11cd3973bcb10a7baa" target="_top" xlink:title="Initiates a LoRaWAN Network Join procedure. This is a blocking function until the module fires an eve...">
<polygon fill="white" stroke="#666666" points="823.62,-844.95 692.12,-844.95 692.12,-824.95 823.62,-824.95 823.62,-844.95"/>
<text text-anchor="middle" x="757.88" y="-831.45" font-family="Helvetica,sans-Serif" font-size="10.00">LSM1x0A_LoRaWAN::join</text>
</a>
</g>
</g>
<!-- Node8&#45;&gt;Node9 -->
<g id="edge8_Node000008_Node000009" class="edge">
<title>Node8&#45;&gt;Node9</title>
<g id="a_edge8_Node000008_Node000009"><a xlink:title=" ">
<path fill="none" stroke="#63b8ff" d="M620.54,-834.95C639.91,-834.95 660.85,-834.95 680.36,-834.95"/>
<polygon fill="#63b8ff" stroke="#63b8ff" points="680.15,-838.45 690.15,-834.95 680.15,-831.45 680.15,-838.45"/>
</a>
</g>
</g>
<!-- Node9&#45;&gt;Node2 -->
<g id="edge11_Node000009_Node000002" class="edge">
<title>Node9&#45;&gt;Node2</title>
<g id="a_edge11_Node000009_Node000002"><a xlink:title=" ">
<path fill="none" stroke="#63b8ff" d="M703.65,-824.5C645.02,-812.53 548.23,-791.38 466.5,-766.95 402.11,-747.69 372.23,-762.27 324.5,-714.95 266.23,-657.18 246.03,-557.13 239.45,-508.74"/>
<polygon fill="#63b8ff" stroke="#63b8ff" points="242.93,-508.33 238.22,-498.84 235.98,-509.2 242.93,-508.33"/>
</a>
</g>
</g>
<!-- Node9&#45;&gt;Node3 -->
<g id="edge10_Node000009_Node000003" class="edge">
<title>Node9&#45;&gt;Node3</title>
<g id="a_edge10_Node000009_Node000003"><a xlink:title=" ">
<path fill="none" stroke="#63b8ff" d="M703.65,-845.44C645.24,-857.21 548.82,-877.35 466.5,-897.95 458.56,-899.94 450.24,-902.14 442.03,-904.39"/>
<polygon fill="#63b8ff" stroke="#63b8ff" points="441.09,-901.01 432.4,-907.06 442.97,-907.76 441.09,-901.01"/>
</a>
</g>
</g>
<!-- Node9&#45;&gt;Node4 -->
<g id="edge9_Node000009_Node000004" class="edge">
<title>Node9&#45;&gt;Node4</title>
<g id="a_edge9_Node000009_Node000004"><a xlink:title=" ">
<path fill="none" stroke="#63b8ff" d="M780.94,-845.4C817.66,-862.79 891.98,-898 940.01,-920.75"/>
<polygon fill="#63b8ff" stroke="#63b8ff" points="938.22,-923.78 948.76,-924.9 941.22,-917.45 938.22,-923.78"/>
</a>
</g>
</g>
<!-- Node10 -->
<g id="Node000010" class="node">
<title>Node10</title>
<g id="a_Node000010"><a xlink:href="../../d5/d72/classLSM1x0A__LoRaWAN.html#a3fdd1ac318a5ad2559323e5d57e36a5e" target="_top" xlink:title="Enables or disables specific sub&#45;bands for regions supporting Channel Masks (e.g.,...">
<polygon fill="white" stroke="#666666" points="1080.75,-654.95 890.75,-654.95 890.75,-634.95 1080.75,-634.95 1080.75,-654.95"/>
<text text-anchor="middle" x="985.75" y="-641.45" font-family="Helvetica,sans-Serif" font-size="10.00">LSM1x0A_LoRaWAN::setChannelMask</text>
</a>
</g>
</g>
<!-- Node9&#45;&gt;Node10 -->
<g id="edge12_Node000009_Node000010" class="edge">
<title>Node9&#45;&gt;Node10</title>
<g id="a_edge12_Node000009_Node000010"><a xlink:title=" ">
<path fill="none" stroke="#63b8ff" d="M818.18,-824.45C830.9,-820.55 843.8,-815.22 854.75,-807.95 911.62,-770.19 955.25,-699.61 974.29,-665.05"/>
<polygon fill="#63b8ff" stroke="#63b8ff" points="977.22,-666.98 978.87,-656.52 971.05,-663.67 977.22,-666.98"/>
</a>
</g>
</g>
<!-- Node11 -->
<g id="Node000011" class="node">
<title>Node11</title>
<g id="a_Node000011"><a xlink:href="../../d8/d92/classLSM1x0A__Controller.html#a62476e30e50c7fe120aeb8df4b828675" target="_top" xlink:title="Synchronously/blockingly waits for an asynchronous event to occur. Useful for wrapping commands like ...">
<polygon fill="white" stroke="#666666" points="1038.75,-850.95 932.75,-850.95 932.75,-818.95 1038.75,-818.95 1038.75,-850.95"/>
<text text-anchor="start" x="940.75" y="-837.45" font-family="Helvetica,sans-Serif" font-size="10.00">LSM1x0A_Controller</text>
<text text-anchor="middle" x="985.75" y="-825.45" font-family="Helvetica,sans-Serif" font-size="10.00">::waitForEvent</text>
</a>
</g>
</g>
<!-- Node9&#45;&gt;Node11 -->
<g id="edge15_Node000009_Node000011" class="edge">
<title>Node9&#45;&gt;Node11</title>
<g id="a_edge15_Node000009_Node000011"><a xlink:title=" ">
<path fill="none" stroke="#63b8ff" d="M823.9,-834.95C854.41,-834.95 890.65,-834.95 920.99,-834.95"/>
<polygon fill="#63b8ff" stroke="#63b8ff" points="920.8,-838.45 930.8,-834.95 920.8,-831.45 920.8,-838.45"/>
</a>
</g>
</g>
<!-- Node10&#45;&gt;Node2 -->
<g id="edge14_Node000010_Node000002" class="edge">
<title>Node10&#45;&gt;Node2</title>
<g id="a_edge14_Node000010_Node000002"><a xlink:title=" ">
<path fill="none" stroke="#63b8ff" d="M983.97,-634.73C978.52,-566.01 943.6,-172.04 854.75,-101.95 669.59,44.11 505.65,29.06 324.5,-121.95 272.92,-164.95 246.86,-377.61 239.07,-453.76"/>
<polygon fill="#63b8ff" stroke="#63b8ff" points="235.63,-452.96 238.12,-463.26 242.59,-453.65 235.63,-452.96"/>
</a>
</g>
</g>
<!-- Node10&#45;&gt;Node7 -->
<g id="edge13_Node000010_Node000007" class="edge">
<title>Node10&#45;&gt;Node7</title>
<g id="a_edge13_Node000010_Node000007"><a xlink:title=" ">
<path fill="none" stroke="#63b8ff" d="M994.55,-655.28C1025.09,-695.76 1136.92,-843.95 1177.32,-897.49"/>
<polygon fill="#63b8ff" stroke="#63b8ff" points="1174.47,-899.52 1183.29,-905.4 1180.06,-895.31 1174.47,-899.52"/>
</a>
</g>
</g>
<!-- Node12&#45;&gt;Node10 -->
<g id="edge21_Node000012_Node000010" class="edge">
<title>Node12&#45;&gt;Node10</title>
<g id="a_edge21_Node000012_Node000010"><a xlink:title=" ">
<path fill="none" stroke="#63b8ff" d="M619.24,-484.29C696.9,-488.81 814.43,-498.64 854.75,-517.95 906.68,-542.82 950.63,-596.76 971.59,-625.7"/>
<polygon fill="#63b8ff" stroke="#63b8ff" points="968.52,-627.41 977.15,-633.56 974.24,-623.37 968.52,-627.41"/>
</a>
</g>
</g>
<!-- Node13 -->
<g id="Node000013" class="node">
<title>Node13</title>
<g id="a_Node000013"><a xlink:href="../../d5/d72/classLSM1x0A__LoRaWAN.html#af0baa3db4c7fab580d6b19a9e92472f6" target="_top" xlink:title="Enables or disables Adaptive Data Rate (ADR).">
<polygon fill="white" stroke="#666666" points="833.75,-798.95 682,-798.95 682,-778.95 833.75,-778.95 833.75,-798.95"/>
<text text-anchor="middle" x="757.88" y="-785.45" font-family="Helvetica,sans-Serif" font-size="10.00">LSM1x0A_LoRaWAN::setADR</text>
</a>
</g>
</g>
<!-- Node12&#45;&gt;Node13 -->
<g id="edge17_Node000012_Node000013" class="edge">
<title>Node12&#45;&gt;Node13</title>
<g id="a_edge17_Node000012_Node000013"><a xlink:title=" ">
<path fill="none" stroke="#63b8ff" d="M547.93,-497.13C552.45,-546.58 573.15,-696.7 661,-769.95 664.25,-772.66 667.79,-775.03 671.51,-777.08"/>
<polygon fill="#63b8ff" stroke="#63b8ff" points="669.84,-780.17 680.38,-781.21 672.79,-773.82 669.84,-780.17"/>
</a>
</g>
</g>
<!-- Node14 -->
<g id="Node000014" class="node">
<title>Node14</title>
<g id="a_Node000014"><a xlink:href="../../d5/d72/classLSM1x0A__LoRaWAN.html#a5365ed1596eb84ebf1e3b33b4a10c788" target="_top" xlink:title="Sets the LoRaWAN operational frequency band.">
<polygon fill="white" stroke="#666666" points="834.12,-760.95 681.62,-760.95 681.62,-740.95 834.12,-740.95 834.12,-760.95"/>
<text text-anchor="middle" x="757.88" y="-747.45" font-family="Helvetica,sans-Serif" font-size="10.00">LSM1x0A_LoRaWAN::setBand</text>
</a>
</g>
</g>
<!-- Node12&#45;&gt;Node14 -->
<g id="edge19_Node000012_Node000014" class="edge">
<title>Node12&#45;&gt;Node14</title>
<g id="a_edge19_Node000012_Node000014"><a xlink:title=" ">
<path fill="none" stroke="#63b8ff" d="M549.01,-497.27C556.17,-542.46 582.73,-669.99 661,-731.95 664.16,-734.45 667.55,-736.64 671.11,-738.58"/>
<polygon fill="#63b8ff" stroke="#63b8ff" points="669.6,-741.74 680.15,-742.72 672.52,-735.37 669.6,-741.74"/>
</a>
</g>
</g>
<!-- Node15 -->
<g id="Node000015" class="node">
<title>Node15</title>
<g id="a_Node000015"><a xlink:href="../../d5/d72/classLSM1x0A__LoRaWAN.html#a9d9285c43414337a0ccb3a6cd7ca06e6" target="_top" xlink:title="Configures the number of retries for Confirmed uplinks.">
<polygon fill="white" stroke="#666666" points="840.12,-722.95 675.62,-722.95 675.62,-690.95 840.12,-690.95 840.12,-722.95"/>
<text text-anchor="start" x="683.62" y="-709.45" font-family="Helvetica,sans-Serif" font-size="10.00">LSM1x0A_LoRaWAN::setConfirm</text>
<text text-anchor="middle" x="757.88" y="-697.45" font-family="Helvetica,sans-Serif" font-size="10.00">Retry</text>
</a>
</g>
</g>
<!-- Node12&#45;&gt;Node15 -->
<g id="edge22_Node000012_Node000015" class="edge">
<title>Node12&#45;&gt;Node15</title>
<g id="a_edge22_Node000012_Node000015"><a xlink:title=" ">
<path fill="none" stroke="#63b8ff" d="M551.27,-497.42C562.73,-535.98 596.67,-632.59 661,-681.95 662.36,-682.99 663.77,-684 665.21,-684.96"/>
<polygon fill="#63b8ff" stroke="#63b8ff" points="663.43,-687.98 673.84,-689.96 666.94,-681.92 663.43,-687.98"/>
</a>
</g>
</g>
<!-- Node16 -->
<g id="Node000016" class="node">
<title>Node16</title>
<g id="a_Node000016"><a xlink:href="../../d5/d72/classLSM1x0A__LoRaWAN.html#a56345ceeafa0b9059d6de4e69eddc82e" target="_top" xlink:title="Sets the Data Rate (DR) of the module.">
<polygon fill="white" stroke="#666666" points="843.88,-672.95 671.88,-672.95 671.88,-652.95 843.88,-652.95 843.88,-672.95"/>
<text text-anchor="middle" x="757.88" y="-659.45" font-family="Helvetica,sans-Serif" font-size="10.00">LSM1x0A_LoRaWAN::setDataRate</text>
</a>
</g>
</g>
<!-- Node12&#45;&gt;Node16 -->
<g id="edge24_Node000012_Node000016" class="edge">
<title>Node12&#45;&gt;Node16</title>
<g id="a_edge24_Node000012_Node000016"><a xlink:title=" ">
<path fill="none" stroke="#63b8ff" d="M553.18,-497.26C567.24,-530.68 604.11,-606.87 661,-643.95 663.14,-645.34 665.35,-646.63 667.63,-647.84"/>
<polygon fill="#63b8ff" stroke="#63b8ff" points="666.05,-650.96 676.6,-651.92 668.95,-644.59 666.05,-650.96"/>
</a>
</g>
</g>
<!-- Node17 -->
<g id="Node000017" class="node">
<title>Node17</title>
<g id="a_Node000017"><a xlink:href="../../d5/d72/classLSM1x0A__LoRaWAN.html#a8494083816ab885cb07fc3b08de029f4" target="_top" xlink:title="Sets the LoRaWAN Device Address (DevAddr) for ABP mode.">
<polygon fill="white" stroke="#666666" points="842,-634.95 673.75,-634.95 673.75,-614.95 842,-614.95 842,-634.95"/>
<text text-anchor="middle" x="757.88" y="-621.45" font-family="Helvetica,sans-Serif" font-size="10.00">LSM1x0A_LoRaWAN::setDevAddr</text>
</a>
</g>
</g>
<!-- Node12&#45;&gt;Node17 -->
<g id="edge26_Node000012_Node000017" class="edge">
<title>Node12&#45;&gt;Node17</title>
<g id="a_edge26_Node000012_Node000017"><a xlink:title=" ">
<path fill="none" stroke="#63b8ff" d="M556.74,-497.41C574.22,-524.7 613.1,-578.97 661,-605.95 663.84,-607.55 666.8,-609.02 669.83,-610.36"/>
<polygon fill="#63b8ff" stroke="#63b8ff" points="668.42,-613.57 679.01,-613.93 670.96,-607.04 668.42,-613.57"/>
</a>
</g>
</g>
<!-- Node18 -->
<g id="Node000018" class="node">
<title>Node18</title>
<g id="a_Node000018"><a xlink:href="../../d5/d72/classLSM1x0A__LoRaWAN.html#ad320634e52d7ea907043cc50dd37c5b0" target="_top" xlink:title="Sets the LoRaWAN Device EUI (DevEUI).">
<polygon fill="white" stroke="#666666" points="840.5,-596.95 675.25,-596.95 675.25,-576.95 840.5,-576.95 840.5,-596.95"/>
<text text-anchor="middle" x="757.88" y="-583.45" font-family="Helvetica,sans-Serif" font-size="10.00">LSM1x0A_LoRaWAN::setDevEUI</text>
</a>
</g>
</g>
<!-- Node12&#45;&gt;Node18 -->
<g id="edge28_Node000012_Node000018" class="edge">
<title>Node12&#45;&gt;Node18</title>
<g id="a_edge28_Node000012_Node000018"><a xlink:title=" ">
<path fill="none" stroke="#63b8ff" d="M562.95,-497.21C583.77,-517.12 621.9,-550.34 661,-567.95 665.26,-569.87 669.72,-571.6 674.28,-573.15"/>
<polygon fill="#63b8ff" stroke="#63b8ff" points="673.03,-576.43 683.62,-576.02 675.09,-569.74 673.03,-576.43"/>
</a>
</g>
</g>
<!-- Node19 -->
<g id="Node000019" class="node">
<title>Node19</title>
<g id="a_Node000019"><a xlink:href="../../d5/d72/classLSM1x0A__LoRaWAN.html#a031023b0d2dd5db3c51c2db6ae7801cc" target="_top" xlink:title="Enables or disables the Duty Cycle limitation (EU regions mostly).">
<polygon fill="white" stroke="#666666" points="833.38,-558.95 682.38,-558.95 682.38,-526.95 833.38,-526.95 833.38,-558.95"/>
<text text-anchor="start" x="690.38" y="-545.45" font-family="Helvetica,sans-Serif" font-size="10.00">LSM1x0A_LoRaWAN::setDuty</text>
<text text-anchor="middle" x="757.88" y="-533.45" font-family="Helvetica,sans-Serif" font-size="10.00">Cycle</text>
</a>
</g>
</g>
<!-- Node12&#45;&gt;Node19 -->
<g id="edge30_Node000012_Node000019" class="edge">
<title>Node12&#45;&gt;Node19</title>
<g id="a_edge30_Node000012_Node000019"><a xlink:title=" ">
<path fill="none" stroke="#63b8ff" d="M602.51,-497.4C629.45,-505.35 661.98,-514.95 690.23,-523.28"/>
<polygon fill="#63b8ff" stroke="#63b8ff" points="689.19,-526.62 699.77,-526.1 691.17,-519.91 689.19,-526.62"/>
</a>
</g>
</g>
<!-- Node20 -->
<g id="Node000020" class="node">
<title>Node20</title>
<g id="a_Node000020"><a xlink:href="../../d5/d72/classLSM1x0A__LoRaWAN.html#a6b179d5825c49af0f391dfc539912f64" target="_top" xlink:title="Sets the delay for the Join1 receive window.">
<polygon fill="white" stroke="#666666" points="834.5,-470.95 681.25,-470.95 681.25,-438.95 834.5,-438.95 834.5,-470.95"/>
<text text-anchor="start" x="689.25" y="-457.45" font-family="Helvetica,sans-Serif" font-size="10.00">LSM1x0A_LoRaWAN::setJoin1</text>
<text text-anchor="middle" x="757.88" y="-445.45" font-family="Helvetica,sans-Serif" font-size="10.00">Delay</text>
</a>
</g>
</g>
<!-- Node12&#45;&gt;Node20 -->
<g id="edge32_Node000012_Node000020" class="edge">
<title>Node12&#45;&gt;Node20</title>
<g id="a_edge32_Node000012_Node000020"><a xlink:title=" ">
<path fill="none" stroke="#63b8ff" d="M619.36,-471.96C635.71,-469.94 653.22,-467.77 670.08,-465.69"/>
<polygon fill="#63b8ff" stroke="#63b8ff" points="670.05,-469.22 679.55,-464.52 669.19,-462.27 670.05,-469.22"/>
</a>
</g>
</g>
<!-- Node21 -->
<g id="Node000021" class="node">
<title>Node21</title>
<g id="a_Node000021"><a xlink:href="../../d5/d72/classLSM1x0A__LoRaWAN.html#a4545d0caad41558cdb9bae8286b104d8" target="_top" xlink:title="Sets the delay for the Join2 receive window.">
<polygon fill="white" stroke="#666666" points="834.5,-420.95 681.25,-420.95 681.25,-388.95 834.5,-388.95 834.5,-420.95"/>
<text text-anchor="start" x="689.25" y="-407.45" font-family="Helvetica,sans-Serif" font-size="10.00">LSM1x0A_LoRaWAN::setJoin2</text>
<text text-anchor="middle" x="757.88" y="-395.45" font-family="Helvetica,sans-Serif" font-size="10.00">Delay</text>
</a>
</g>
</g>
<!-- Node12&#45;&gt;Node21 -->
<g id="edge34_Node000012_Node000021" class="edge">
<title>Node12&#45;&gt;Node21</title>
<g id="a_edge34_Node000012_Node000021"><a xlink:title=" ">
<path fill="none" stroke="#63b8ff" d="M579.66,-464.52C602.17,-453.71 632.92,-439.8 661,-429.95 666.29,-428.09 671.79,-426.3 677.36,-424.59"/>
<polygon fill="#63b8ff" stroke="#63b8ff" points="678.07,-428.03 686.66,-421.84 676.08,-421.32 678.07,-428.03"/>
</a>
</g>
</g>
<!-- Node22 -->
<g id="Node000022" class="node">
<title>Node22</title>
<g id="a_Node000022"><a xlink:href="../../d5/d72/classLSM1x0A__LoRaWAN.html#a06bd50723ec1eb7e144c9141b2ec86fc" target="_top" xlink:title="Sets the LoRaWAN Network ID (NetID).">
<polygon fill="white" stroke="#666666" points="838.25,-370.95 677.5,-370.95 677.5,-350.95 838.25,-350.95 838.25,-370.95"/>
<text text-anchor="middle" x="757.88" y="-357.45" font-family="Helvetica,sans-Serif" font-size="10.00">LSM1x0A_LoRaWAN::setNwkID</text>
</a>
</g>
</g>
<!-- Node12&#45;&gt;Node22 -->
<g id="edge36_Node000012_Node000022" class="edge">
<title>Node12&#45;&gt;Node22</title>
<g id="a_edge36_Node000012_Node000022"><a xlink:title=" ">
<path fill="none" stroke="#63b8ff" d="M560.01,-464.74C579.6,-441.98 618.53,-400.98 661,-379.95 664.68,-378.13 668.51,-376.48 672.45,-374.99"/>
<polygon fill="#63b8ff" stroke="#63b8ff" points="673.26,-378.41 681.61,-371.9 671.02,-371.78 673.26,-378.41"/>
</a>
</g>
</g>
<!-- Node23 -->
<g id="Node000023" class="node">
<title>Node23</title>
<g id="a_Node000023"><a xlink:href="../../d5/d72/classLSM1x0A__LoRaWAN.html#aa70ada64d28ecca216bb62268e502adf" target="_top" xlink:title="Sets the delay for the RX1 receive window.">
<polygon fill="white" stroke="#666666" points="844.62,-332.95 671.12,-332.95 671.12,-312.95 844.62,-312.95 844.62,-332.95"/>
<text text-anchor="middle" x="757.88" y="-319.45" font-family="Helvetica,sans-Serif" font-size="10.00">LSM1x0A_LoRaWAN::setRx1Delay</text>
</a>
</g>
</g>
<!-- Node12&#45;&gt;Node23 -->
<g id="edge38_Node000012_Node000023" class="edge">
<title>Node12&#45;&gt;Node23</title>
<g id="a_edge38_Node000012_Node000023"><a xlink:title=" ">
<path fill="none" stroke="#63b8ff" d="M555.2,-464.54C571.4,-434.88 609.8,-372.58 661,-341.95 663.48,-340.46 666.06,-339.09 668.71,-337.82"/>
<polygon fill="#63b8ff" stroke="#63b8ff" points="669.96,-341.09 677.84,-334.02 667.26,-334.63 669.96,-341.09"/>
</a>
</g>
</g>
<!-- Node24 -->
<g id="Node000024" class="node">
<title>Node24</title>
<g id="a_Node000024"><a xlink:href="../../d5/d72/classLSM1x0A__LoRaWAN.html#a2cf4eff0181b6107d082bccefa24217b" target="_top" xlink:title="Sets the Data Rate (DR) specifically for the RX2 window.">
<polygon fill="white" stroke="#666666" points="852.88,-294.95 662.88,-294.95 662.88,-274.95 852.88,-274.95 852.88,-294.95"/>
<text text-anchor="middle" x="757.88" y="-281.45" font-family="Helvetica,sans-Serif" font-size="10.00">LSM1x0A_LoRaWAN::setRx2DataRate</text>
</a>
</g>
</g>
<!-- Node12&#45;&gt;Node24 -->
<g id="edge40_Node000012_Node000024" class="edge">
<title>Node12&#45;&gt;Node24</title>
<g id="a_edge40_Node000012_Node000024"><a xlink:title=" ">
<path fill="none" stroke="#63b8ff" d="M552.27,-464.61C565.15,-429.11 600.79,-344.84 661,-303.95 662.97,-302.61 665.02,-301.36 667.13,-300.19"/>
<polygon fill="#63b8ff" stroke="#63b8ff" points="668.46,-303.43 675.98,-295.97 665.45,-297.11 668.46,-303.43"/>
</a>
</g>
</g>
<!-- Node25 -->
<g id="Node000025" class="node">
<title>Node25</title>
<g id="a_Node000025"><a xlink:href="../../d5/d72/classLSM1x0A__LoRaWAN.html#a42d2137b475b57e19d891a5f1ac93221" target="_top" xlink:title="Sets the delay for the RX2 receive window.">
<polygon fill="white" stroke="#666666" points="844.62,-256.95 671.12,-256.95 671.12,-236.95 844.62,-236.95 844.62,-256.95"/>
<text text-anchor="middle" x="757.88" y="-243.45" font-family="Helvetica,sans-Serif" font-size="10.00">LSM1x0A_LoRaWAN::setRx2Delay</text>
</a>
</g>
</g>
<!-- Node12&#45;&gt;Node25 -->
<g id="edge42_Node000012_Node000025" class="edge">
<title>Node12&#45;&gt;Node25</title>
<g id="a_edge42_Node000012_Node000025"><a xlink:title=" ">
<path fill="none" stroke="#63b8ff" d="M550.34,-464.6C560.18,-423.89 591.61,-317.5 661,-265.95 662.59,-264.76 664.24,-263.65 665.93,-262.6"/>
<polygon fill="#63b8ff" stroke="#63b8ff" points="667.51,-265.72 674.73,-257.97 664.25,-259.53 667.51,-265.72"/>
</a>
</g>
</g>
<!-- Node26 -->
<g id="Node000026" class="node">
<title>Node26</title>
<g id="a_Node000026"><a xlink:href="../../d5/d72/classLSM1x0A__LoRaWAN.html#a689f7dfda1dfeae11ea397c2ddf2ad37" target="_top" xlink:title="Sets the precise frequency for the RX2 window.">
<polygon fill="white" stroke="#666666" points="854.75,-218.95 661,-218.95 661,-198.95 854.75,-198.95 854.75,-218.95"/>
<text text-anchor="middle" x="757.88" y="-205.45" font-family="Helvetica,sans-Serif" font-size="10.00">LSM1x0A_LoRaWAN::setRx2Frequency</text>
</a>
</g>
</g>
<!-- Node12&#45;&gt;Node26 -->
<g id="edge44_Node000012_Node000026" class="edge">
<title>Node12&#45;&gt;Node26</title>
<g id="a_edge44_Node000012_Node000026"><a xlink:title=" ">
<path fill="none" stroke="#63b8ff" d="M548.96,-464.5C556.01,-418.96 582.31,-290.44 661,-227.95 662.33,-226.89 663.7,-225.89 665.11,-224.94"/>
<polygon fill="#63b8ff" stroke="#63b8ff" points="666.61,-228.11 673.57,-220.12 663.15,-222.03 666.61,-228.11"/>
</a>
</g>
</g>
<!-- Node27 -->
<g id="Node000027" class="node">
<title>Node27</title>
<g id="a_Node000027"><a xlink:href="../../d5/d72/classLSM1x0A__LoRaWAN.html#a1df10d7ae6bf45b537d28d3d5c4b88d7" target="_top" xlink:title="Sets the transmission power index.">
<polygon fill="white" stroke="#666666" points="842.38,-180.95 673.38,-180.95 673.38,-160.95 842.38,-160.95 842.38,-180.95"/>
<text text-anchor="middle" x="757.88" y="-167.45" font-family="Helvetica,sans-Serif" font-size="10.00">LSM1x0A_LoRaWAN::setTxPower</text>
</a>
</g>
</g>
<!-- Node12&#45;&gt;Node27 -->
<g id="edge46_Node000012_Node000027" class="edge">
<title>Node12&#45;&gt;Node27</title>
<g id="a_edge46_Node000012_Node000027"><a xlink:title=" ">
<path fill="none" stroke="#63b8ff" d="M547.89,-464.65C552.3,-414.88 572.71,-263.73 661,-189.95 662.14,-189 663.3,-188.09 664.5,-187.23"/>
<polygon fill="#63b8ff" stroke="#63b8ff" points="666.18,-190.3 672.93,-182.14 662.56,-184.31 666.18,-190.3"/>
</a>
</g>
</g>
<!-- Node28 -->
<g id="Node000028" class="node">
<title>Node28</title>
<g id="a_Node000028"><a xlink:href="../../d5/d72/classLSM1x0A__LoRaWAN.html#a059fd6a9356c4ecadd5a98294da5952d" target="_top" xlink:title="Configures the number of repetitions for Unconfirmed uplinks.">
<polygon fill="white" stroke="#666666" points="845.38,-142.95 670.38,-142.95 670.38,-110.95 845.38,-110.95 845.38,-142.95"/>
<text text-anchor="start" x="678.38" y="-129.45" font-family="Helvetica,sans-Serif" font-size="10.00">LSM1x0A_LoRaWAN::setUnconfirm</text>
<text text-anchor="middle" x="757.88" y="-117.45" font-family="Helvetica,sans-Serif" font-size="10.00">Retry</text>
</a>
</g>
</g>
<!-- Node12&#45;&gt;Node28 -->
<g id="edge48_Node000012_Node000028" class="edge">
<title>Node12&#45;&gt;Node28</title>
<g id="a_edge48_Node000012_Node000028"><a xlink:title=" ">
<path fill="none" stroke="#63b8ff" d="M547.27,-464.75C549.9,-411.46 565.73,-239.96 661,-151.95 661.77,-151.23 662.57,-150.54 663.37,-149.86"/>
<polygon fill="#63b8ff" stroke="#63b8ff" points="665.22,-152.84 671.37,-144.21 661.19,-147.12 665.22,-152.84"/>
</a>
</g>
</g>
<!-- Node13&#45;&gt;Node2 -->
<g id="edge18_Node000013_Node000002" class="edge">
<title>Node13&#45;&gt;Node2</title>
<g id="a_edge18_Node000013_Node000002"><a xlink:title=" ">
<path fill="none" stroke="#63b8ff" d="M682.86,-778.49C573.64,-761.69 376.58,-725.64 324.5,-677.95 273.85,-631.57 250.62,-550.58 241.5,-508.34"/>
<polygon fill="#63b8ff" stroke="#63b8ff" points="244.98,-507.86 239.55,-498.76 238.12,-509.26 244.98,-507.86"/>
</a>
</g>
</g>
<!-- Node14&#45;&gt;Node2 -->
<g id="edge20_Node000014_Node000002" class="edge">
<title>Node14&#45;&gt;Node2</title>
<g id="a_edge20_Node000014_Node000002"><a xlink:title=" ">
<path fill="none" stroke="#63b8ff" d="M685.23,-740.46C577.17,-723.42 379.26,-687.03 324.5,-641.95 281.23,-606.32 255.87,-543.61 244.24,-507.88"/>
<polygon fill="#63b8ff" stroke="#63b8ff" points="247.71,-507.24 241.39,-498.74 241.02,-509.32 247.71,-507.24"/>
</a>
</g>
</g>
<!-- Node15&#45;&gt;Node2 -->
<g id="edge23_Node000015_Node000002" class="edge">
<title>Node15&#45;&gt;Node2</title>
<g id="a_edge23_Node000015_Node000002"><a xlink:title=" ">
<path fill="none" stroke="#63b8ff" d="M675.24,-696.13C565.83,-680.29 379.07,-648.15 324.5,-606.95 289.38,-580.43 262.99,-535.78 248.65,-507.37"/>
<polygon fill="#63b8ff" stroke="#63b8ff" points="251.96,-506.16 244.42,-498.71 245.67,-509.23 251.96,-506.16"/>
</a>
</g>
</g>
<!-- Node16&#45;&gt;Node2 -->
<g id="edge25_Node000016_Node000002" class="edge">
<title>Node16&#45;&gt;Node2</title>
<g id="a_edge25_Node000016_Node000002"><a xlink:title=" ">
<path fill="none" stroke="#63b8ff" d="M671.77,-660.63C580.06,-654.66 432.71,-634.71 324.5,-569.95 296.82,-553.38 271.64,-526.09 255.38,-506.09"/>
<polygon fill="#63b8ff" stroke="#63b8ff" points="258.24,-504.06 249.29,-498.39 252.75,-508.41 258.24,-504.06"/>
</a>
</g>
</g>
<!-- Node17&#45;&gt;Node2 -->
<g id="edge27_Node000017_Node000002" class="edge">
<title>Node17&#45;&gt;Node2</title>
<g id="a_edge27_Node000017_Node000002"><a xlink:title=" ">
<path fill="none" stroke="#63b8ff" d="M673.52,-618.09C584.26,-608.52 439.9,-586.49 324.5,-537.95 303.74,-529.22 282.49,-515.61 266.08,-503.88"/>
<polygon fill="#63b8ff" stroke="#63b8ff" points="268.37,-501.22 258.23,-498.14 264.24,-506.87 268.37,-501.22"/>
</a>
</g>
</g>
<!-- Node18&#45;&gt;Node2 -->
<g id="edge29_Node000018_Node000002" class="edge">
<title>Node18&#45;&gt;Node2</title>
<g id="a_edge29_Node000018_Node000002"><a xlink:title=" ">
<path fill="none" stroke="#63b8ff" d="M675.12,-576.91C587.53,-565.2 444.84,-543.35 324.5,-511.95 312.98,-508.94 300.82,-505.11 289.34,-501.17"/>
<polygon fill="#63b8ff" stroke="#63b8ff" points="290.6,-497.9 280.01,-497.88 288.28,-504.5 290.6,-497.9"/>
</a>
</g>
</g>
<!-- Node19&#45;&gt;Node2 -->
<g id="edge31_Node000019_Node000002" class="edge">
<title>Node19&#45;&gt;Node2</title>
<g id="a_edge31_Node000019_Node000002"><a xlink:title=" ">
<path fill="none" stroke="#63b8ff" d="M682.14,-534.04C579.46,-521.81 396.56,-500.02 300.1,-488.53"/>
<polygon fill="#63b8ff" stroke="#63b8ff" points="300.62,-485.06 290.28,-487.36 299.8,-492.01 300.62,-485.06"/>
</a>
</g>
</g>
<!-- Node20&#45;&gt;Node2 -->
<g id="edge33_Node000020_Node000002" class="edge">
<title>Node20&#45;&gt;Node2</title>
<g id="a_edge33_Node000020_Node000002"><a xlink:title=" ">
<path fill="none" stroke="#63b8ff" d="M681,-453.04C622.37,-452.09 539.23,-451.88 466.5,-455.95 410.12,-459.1 346.3,-466.33 300.22,-472.21"/>
<polygon fill="#63b8ff" stroke="#63b8ff" points="299.87,-468.72 290.4,-473.48 300.76,-475.67 299.87,-468.72"/>
</a>
</g>
</g>
<!-- Node21&#45;&gt;Node2 -->
<g id="edge35_Node000021_Node000002" class="edge">
<title>Node21&#45;&gt;Node2</title>
<g id="a_edge35_Node000021_Node000002"><a xlink:title=" ">
<path fill="none" stroke="#63b8ff" d="M680.88,-409.76C594.03,-416.18 447.96,-429.77 324.5,-454.95 315.83,-456.72 306.78,-458.94 297.92,-461.34"/>
<polygon fill="#63b8ff" stroke="#63b8ff" points="296.98,-457.97 288.3,-464.05 298.88,-464.71 296.98,-457.97"/>
</a>
</g>
</g>
<!-- Node22&#45;&gt;Node2 -->
<g id="edge37_Node000022_Node000002" class="edge">
<title>Node22&#45;&gt;Node2</title>
<g id="a_edge37_Node000022_Node000002"><a xlink:title=" ">
<path fill="none" stroke="#63b8ff" d="M677.21,-366.22C588.95,-373.87 443.38,-391.94 324.5,-432.95 306.01,-439.33 286.8,-449.35 271.06,-458.6"/>
<polygon fill="#63b8ff" stroke="#63b8ff" points="269.3,-455.57 262.55,-463.73 272.92,-461.56 269.3,-455.57"/>
</a>
</g>
</g>
<!-- Node23&#45;&gt;Node2 -->
<g id="edge39_Node000023_Node000002" class="edge">
<title>Node23&#45;&gt;Node2</title>
<g id="a_edge39_Node000023_Node000002"><a xlink:title=" ">
<path fill="none" stroke="#63b8ff" d="M670.74,-323.48C579.79,-327.36 434.6,-343.2 324.5,-400.95 298.26,-414.71 273.78,-438.19 257.34,-456.16"/>
<polygon fill="#63b8ff" stroke="#63b8ff" points="254.98,-453.54 250.95,-463.34 260.21,-458.2 254.98,-453.54"/>
</a>
</g>
</g>
<!-- Node24&#45;&gt;Node2 -->
<g id="edge41_Node000024_Node000002" class="edge">
<title>Node24&#45;&gt;Node2</title>
<g id="a_edge41_Node000024_Node000002"><a xlink:title=" ">
<path fill="none" stroke="#63b8ff" d="M662.65,-278.72C569.1,-277.21 425.44,-287.94 324.5,-355.95 288,-380.54 261.87,-425.71 247.98,-454.49"/>
<polygon fill="#63b8ff" stroke="#63b8ff" points="244.94,-452.73 243.9,-463.27 251.29,-455.68 244.94,-452.73"/>
</a>
</g>
</g>
<!-- Node25&#45;&gt;Node2 -->
<g id="edge43_Node000025_Node000002" class="edge">
<title>Node25&#45;&gt;Node2</title>
<g id="a_edge43_Node000025_Node000002"><a xlink:title=" ">
<path fill="none" stroke="#63b8ff" d="M687.1,-236.49C594.33,-226.6 429.84,-223.58 324.5,-304.95 275.86,-342.51 252.13,-414.19 242.31,-453.49"/>
<polygon fill="#63b8ff" stroke="#63b8ff" points="238.94,-452.56 240.05,-463.1 245.75,-454.17 238.94,-452.56"/>
</a>
</g>
</g>
<!-- Node26&#45;&gt;Node2 -->
<g id="edge45_Node000026_Node000002" class="edge">
<title>Node26&#45;&gt;Node2</title>
<g id="a_edge45_Node000026_Node000002"><a xlink:title=" ">
<path fill="none" stroke="#63b8ff" d="M660.67,-205.86C549.22,-204.31 374.5,-208.72 324.5,-248.95 260.61,-300.36 243.08,-403.6 238.29,-453.16"/>
<polygon fill="#63b8ff" stroke="#63b8ff" points="234.81,-452.77 237.45,-463.03 241.78,-453.36 234.81,-452.77"/>
</a>
</g>
</g>
<!-- Node27&#45;&gt;Node2 -->
<g id="edge47_Node000027_Node000002" class="edge">
<title>Node27&#45;&gt;Node2</title>
<g id="a_edge47_Node000027_Node000002"><a xlink:title=" ">
<path fill="none" stroke="#63b8ff" d="M710.17,-160.48C623.74,-144.01 437.39,-122.56 324.5,-212.95 249.69,-272.85 237.83,-397.78 236.4,-453.31"/>
<polygon fill="#63b8ff" stroke="#63b8ff" points="232.9,-453.1 236.25,-463.15 239.9,-453.21 232.9,-453.1"/>
</a>
</g>
</g>
<!-- Node28&#45;&gt;Node2 -->
<g id="edge49_Node000028_Node000002" class="edge">
<title>Node28&#45;&gt;Node2</title>
<g id="a_edge49_Node000028_Node000002"><a xlink:title=" ">
<path fill="none" stroke="#63b8ff" d="M669.99,-121.55C558.9,-116.57 374.87,-115.39 324.5,-157.95 278.65,-196.69 249.5,-383.18 239.95,-453.79"/>
<polygon fill="#63b8ff" stroke="#63b8ff" points="236.53,-452.95 238.69,-463.32 243.47,-453.87 236.53,-452.95"/>
</a>
</g>
</g>
<!-- Node30&#45;&gt;Node31 -->
<g id="edge52_Node000030_Node000031" class="edge">
<title>Node30&#45;&gt;Node31</title>
<g id="a_edge52_Node000030_Node000031"><a xlink:title=" ">
<path fill="none" stroke="#63b8ff" d="M599.23,-1092.44C617.39,-1094.34 638.36,-1096.54 658.97,-1098.7"/>
<polygon fill="#63b8ff" stroke="#63b8ff" points="658.54,-1102.17 668.85,-1099.73 659.27,-1095.21 658.54,-1102.17"/>
</a>
</g>
</g>
<!-- Node32 -->
<g id="Node000032" class="node">
<title>Node32</title>
<g id="a_Node000032"><a xlink:href="../../d6/d3c/classLSM1x0A__AtParser.html#a0ba6f927c54fceece22c17773d3f2600" target="_top" xlink:title="Sends a command and extracts a value from the response.">
<polygon fill="white" stroke="#666666" points="1072.88,-1124.95 898.62,-1124.95 898.62,-1092.95 1072.88,-1092.95 1072.88,-1124.95"/>
<text text-anchor="start" x="906.62" y="-1111.45" font-family="Helvetica,sans-Serif" font-size="10.00">LSM1x0A_AtParser::sendCommand</text>
<text text-anchor="middle" x="985.75" y="-1099.45" font-family="Helvetica,sans-Serif" font-size="10.00">WithResponse</text>
</a>
</g>
</g>
<!-- Node31&#45;&gt;Node32 -->
<g id="edge53_Node000031_Node000032" class="edge">
<title>Node31&#45;&gt;Node32</title>
<g id="a_edge53_Node000031_Node000032"><a xlink:title=" ">
<path fill="none" stroke="#63b8ff" d="M845.24,-1108.95C858.99,-1108.95 873.31,-1108.95 887.3,-1108.95"/>
<polygon fill="#63b8ff" stroke="#63b8ff" points="886.92,-1112.45 896.92,-1108.95 886.92,-1105.45 886.92,-1112.45"/>
</a>
</g>
</g>
<!-- Node33 -->
<g id="Node000033" class="node">
<title>Node33</title>
<g id="a_Node000033"><a xlink:href="../../d5/d8b/classUartDriver.html#a5d0f22e8867eebe99273078bb19bd23d" target="_top" xlink:title="Sends data through UART.">
<polygon fill="white" stroke="#666666" points="1247.5,-1118.95 1138.5,-1118.95 1138.5,-1098.95 1247.5,-1098.95 1247.5,-1118.95"/>
<text text-anchor="middle" x="1193" y="-1105.45" font-family="Helvetica,sans-Serif" font-size="10.00">UartDriver::sendData</text>
</a>
</g>
</g>
<!-- Node32&#45;&gt;Node33 -->
<g id="edge54_Node000032_Node000033" class="edge">
<title>Node32&#45;&gt;Node33</title>
<g id="a_edge54_Node000032_Node000033"><a xlink:title=" ">
<path fill="none" stroke="#63b8ff" d="M1073.2,-1108.95C1091.09,-1108.95 1109.66,-1108.95 1126.64,-1108.95"/>
<polygon fill="#63b8ff" stroke="#63b8ff" points="1126.61,-1112.45 1136.61,-1108.95 1126.61,-1105.45 1126.61,-1112.45"/>
</a>
</g>
</g>
</g>
</svg>
