<?xml version="1.0" encoding="UTF-8" standalone="no"?>
<!DOCTYPE svg PUBLIC "-//W3C//DTD SVG 1.1//EN"
 "http://www.w3.org/Graphics/SVG/1.1/DTD/svg11.dtd">
<!-- Generated by graphviz version 12.2.1 (20241206.2353)
 -->
<!-- Title: LSM1x0A_Sigfox::testListenLoop Pages: 1 -->
<svg width="1292pt" height="1143pt"
 viewBox="0.00 0.00 1292.25 1143.11" xmlns="http://www.w3.org/2000/svg" xmlns:xlink="http://www.w3.org/1999/xlink">
<g id="graph0" class="graph" transform="scale(1 1) rotate(0) translate(4 1139.11)">
<title>LSM1x0A_Sigfox::testListenLoop</title>
<!-- Node1 -->
<g id="Node000001" class="node">
<title>Node1</title>
<g id="a_Node000001"><a xlink:title="Starts Local Loop listening.">
<polygon fill="#999999" stroke="#666666" points="161.5,-490.95 0,-490.95 0,-470.95 161.5,-470.95 161.5,-490.95"/>
<text text-anchor="middle" x="80.75" y="-477.45" font-family="Helvetica,sans-Serif" font-size="10.00">LSM1x0A_Sigfox::testListenLoop</text>
</a>
</g>
</g>
<!-- Node2 -->
<g id="Node000002" class="node">
<title>Node2</title>
<g id="a_Node000002"><a xlink:href="../../d8/d92/classLSM1x0A__Controller.html#afd7d92e60ed6fdae696a955cdbe0ed8c" target="_top" xlink:title="Sends any AT command to the module, returning error if it fails. Internally uses the LsmAtParser logi...">
<polygon fill="white" stroke="#666666" points="303.5,-496.95 197.5,-496.95 197.5,-464.95 303.5,-464.95 303.5,-496.95"/>
<text text-anchor="start" x="205.5" y="-483.45" font-family="Helvetica,sans-Serif" font-size="10.00">LSM1x0A_Controller</text>
<text text-anchor="middle" x="250.5" y="-471.45" font-family="Helvetica,sans-Serif" font-size="10.00">::sendCommand</text>
</a>
</g>
</g>
<!-- Node1&#45;&gt;Node2 -->
<g id="edge1_Node000001_Node000002" class="edge">
<title>Node1&#45;&gt;Node2</title>
<g id="a_edge1_Node000001_Node000002"><a xlink:title=" ">
<path fill="none" stroke="#63b8ff" d="M161.69,-480.95C169.86,-480.95 178.07,-480.95 186.03,-480.95"/>
<polygon fill="#63b8ff" stroke="#63b8ff" points="185.94,-484.45 195.94,-480.95 185.94,-477.45 185.94,-484.45"/>
</a>
</g>
</g>
<!-- Node3 -->
<g id="Node000003" class="node">
<title>Node3</title>
<g id="a_Node000003"><a xlink:href="../../d8/d92/classLSM1x0A__Controller.html#abb0eb380daa3dfb7acffb483c5db8e2b" target="_top" xlink:title="Executes the recovery protocol. First Soft&#45;Reset (ATZ), then Hard&#45;Reset if there is a pin.">
<polygon fill="white" stroke="#666666" points="445.5,-938.95 339.5,-938.95 339.5,-906.95 445.5,-906.95 445.5,-938.95"/>
<text text-anchor="start" x="347.5" y="-925.45" font-family="Helvetica,sans-Serif" font-size="10.00">LSM1x0A_Controller</text>
<text text-anchor="middle" x="392.5" y="-913.45" font-family="Helvetica,sans-Serif" font-size="10.00">::recoverModule</text>
</a>
</g>
</g>
<!-- Node2&#45;&gt;Node3 -->
<g id="edge2_Node000002_Node000003" class="edge">
<title>Node2&#45;&gt;Node3</title>
<g id="a_edge2_Node000002_Node000003"><a xlink:title=" ">
<path fill="none" stroke="#63b8ff" d="M255.05,-497.39C265.61,-545.46 298.66,-689.56 339.5,-804.95 350.85,-837.01 367.04,-872.58 378.33,-896.2"/>
<polygon fill="#63b8ff" stroke="#63b8ff" points="375.13,-897.62 382.63,-905.1 381.43,-894.57 375.13,-897.62"/>
</a>
</g>
</g>
<!-- Node31 -->
<g id="Node000031" class="node">
<title>Node31</title>
<g id="a_Node000031"><a xlink:href="../../d6/d3c/classLSM1x0A__AtParser.html#a29b53c521974387ba6c03afadfaffa4a" target="_top" xlink:title="Sends a simple command and waits for OK/ERROR. Example: sendCommand(&quot;AT+JOIN&quot;);.">
<polygon fill="white" stroke="#666666" points="860,-1118.95 685.75,-1118.95 685.75,-1098.95 860,-1098.95 860,-1118.95"/>
<text text-anchor="middle" x="772.88" y="-1105.45" font-family="Helvetica,sans-Serif" font-size="10.00">LSM1x0A_AtParser::sendCommand</text>
</a>
</g>
</g>
<!-- Node2&#45;&gt;Node31 -->
<g id="edge55_Node000002_Node000031" class="edge">
<title>Node2&#45;&gt;Node31</title>
<g id="a_edge55_Node000002_Node000031"><a xlink:title=" ">
<path fill="none" stroke="#63b8ff" d="M251.56,-497.2C252.38,-559.15 260.92,-785.25 339.5,-947.95 381.43,-1034.77 393.81,-1071.88 481.5,-1111.95 559.26,-1147.48 661.41,-1134.62 721.52,-1121.89"/>
<polygon fill="#63b8ff" stroke="#63b8ff" points="722.11,-1125.34 731.12,-1119.77 720.6,-1118.51 722.11,-1125.34"/>
</a>
</g>
</g>
<!-- Node4 -->
<g id="Node000004" class="node">
<title>Node4</title>
<g id="a_Node000004"><a xlink:href="../../d8/d92/classLSM1x0A__Controller.html#a3f6f25b843fe4fb7042c544deae2ab16" target="_top" xlink:title="Manually clears bits from the internal EventGroup.">
<polygon fill="white" stroke="#666666" points="1053.75,-957.95 947.75,-957.95 947.75,-925.95 1053.75,-925.95 1053.75,-957.95"/>
<text text-anchor="start" x="955.75" y="-944.45" font-family="Helvetica,sans-Serif" font-size="10.00">LSM1x0A_Controller</text>
<text text-anchor="middle" x="1000.75" y="-932.45" font-family="Helvetica,sans-Serif" font-size="10.00">::clearEvents</text>
</a>
</g>
</g>
<!-- Node3&#45;&gt;Node4 -->
<g id="edge3_Node000003_Node000004" class="edge">
<title>Node3&#45;&gt;Node4</title>
<g id="a_edge3_Node000003_Node000004"><a xlink:title=" ">
<path fill="none" stroke="#63b8ff" d="M409.58,-939.29C426,-954.72 453.06,-976.82 481.5,-985.95 641.07,-1037.18 841.66,-991 939.93,-961.72"/>
<polygon fill="#63b8ff" stroke="#63b8ff" points="940.82,-965.11 949.37,-958.86 938.79,-958.41 940.82,-965.11"/>
</a>
</g>
</g>
<!-- Node5 -->
<g id="Node000005" class="node">
<title>Node5</title>
<g id="a_Node000005"><a xlink:href="../../d8/d92/classLSM1x0A__Controller.html#a345d4bd79fa16b18dc33a4ca788fe5f7" target="_top" xlink:title="Performs a hardware reset using the reset pin.">
<polygon fill="white" stroke="#666666" points="613.75,-938.95 507.75,-938.95 507.75,-906.95 613.75,-906.95 613.75,-938.95"/>
<text text-anchor="start" x="515.75" y="-925.45" font-family="Helvetica,sans-Serif" font-size="10.00">LSM1x0A_Controller</text>
<text text-anchor="middle" x="560.75" y="-913.45" font-family="Helvetica,sans-Serif" font-size="10.00">::hardwareReset</text>
</a>
</g>
</g>
<!-- Node3&#45;&gt;Node5 -->
<g id="edge4_Node000003_Node000005" class="edge">
<title>Node3&#45;&gt;Node5</title>
<g id="a_edge4_Node000003_Node000005"><a xlink:title=" ">
<path fill="none" stroke="#63b8ff" d="M445.65,-922.95C461.66,-922.95 479.47,-922.95 496.16,-922.95"/>
<polygon fill="#63b8ff" stroke="#63b8ff" points="495.99,-926.45 505.99,-922.95 495.99,-919.45 495.99,-926.45"/>
</a>
</g>
</g>
<!-- Node7 -->
<g id="Node000007" class="node">
<title>Node7</title>
<g id="a_Node000007"><a xlink:href="../../d5/d72/classLSM1x0A__LoRaWAN.html#a1892801e37c8cd67d37c76108d6f7d49" target="_top" xlink:title="Validates if the device is currently Joined to the network. (Either confirmed by OTAA or statically a...">
<polygon fill="white" stroke="#666666" points="1284.25,-926.95 1131.75,-926.95 1131.75,-906.95 1284.25,-906.95 1284.25,-926.95"/>
<text text-anchor="middle" x="1208" y="-913.45" font-family="Helvetica,sans-Serif" font-size="10.00">LSM1x0A_LoRaWAN::isJoined</text>
</a>
</g>
</g>
<!-- Node3&#45;&gt;Node7 -->
<g id="edge6_Node000003_Node000007" class="edge">
<title>Node3&#45;&gt;Node7</title>
<g id="a_edge6_Node000003_Node000007"><a xlink:title=" ">
<path fill="none" stroke="#63b8ff" d="M439.44,-939.25C441.58,-940.7 443.61,-942.26 445.5,-943.95 470.67,-966.51 452.49,-993.6 481.5,-1010.95 492.2,-1017.34 807.66,-1014.94 869.75,-1008.95 971.44,-999.13 998.24,-997.44 1095.75,-966.95 1124.58,-957.93 1155.83,-943.44 1177.84,-932.37"/>
<polygon fill="#63b8ff" stroke="#63b8ff" points="1179.2,-935.61 1186.51,-927.94 1176.01,-929.38 1179.2,-935.61"/>
</a>
</g>
</g>
<!-- Node8 -->
<g id="Node000008" class="node">
<title>Node8</title>
<g id="a_Node000008"><a xlink:href="../../d5/d72/classLSM1x0A__LoRaWAN.html#a83e11c0e74ff9e0757db616ab1163424" target="_top" xlink:title="Attempts to recover a lost connection (re&#45;executes OTAA Join if dropped).">
<polygon fill="white" stroke="#666666" points="635.12,-850.95 486.38,-850.95 486.38,-818.95 635.12,-818.95 635.12,-850.95"/>
<text text-anchor="start" x="494.38" y="-837.45" font-family="Helvetica,sans-Serif" font-size="10.00">LSM1x0A_LoRaWAN::recover</text>
<text text-anchor="middle" x="560.75" y="-825.45" font-family="Helvetica,sans-Serif" font-size="10.00">Connection</text>
</a>
</g>
</g>
<!-- Node3&#45;&gt;Node8 -->
<g id="edge7_Node000003_Node000008" class="edge">
<title>Node3&#45;&gt;Node8</title>
<g id="a_edge7_Node000003_Node000008"><a xlink:title=" ">
<path fill="none" stroke="#63b8ff" d="M415.47,-906.53C432.8,-894.07 457.9,-877.07 481.5,-864.95 487.79,-861.72 494.5,-858.64 501.26,-855.76"/>
<polygon fill="#63b8ff" stroke="#63b8ff" points="502.53,-859.02 510.46,-851.99 499.88,-852.55 502.53,-859.02"/>
</a>
</g>
</g>
<!-- Node12 -->
<g id="Node000012" class="node">
<title>Node12</title>
<g id="a_Node000012"><a xlink:href="../../d5/d72/classLSM1x0A__LoRaWAN.html#ae3be4ce59dfa200369733317df356e97" target="_top" xlink:title="Pushes the RAM&#45;cached variables back down into the hardware module. Restores the operational state af...">
<polygon fill="white" stroke="#666666" points="634,-496.95 487.5,-496.95 487.5,-464.95 634,-464.95 634,-496.95"/>
<text text-anchor="start" x="495.5" y="-483.45" font-family="Helvetica,sans-Serif" font-size="10.00">LSM1x0A_LoRaWAN::restore</text>
<text text-anchor="middle" x="560.75" y="-471.45" font-family="Helvetica,sans-Serif" font-size="10.00">Config</text>
</a>
</g>
</g>
<!-- Node3&#45;&gt;Node12 -->
<g id="edge16_Node000003_Node000012" class="edge">
<title>Node3&#45;&gt;Node12</title>
<g id="a_edge16_Node000003_Node000012"><a xlink:title=" ">
<path fill="none" stroke="#63b8ff" d="M399.61,-906.69C424.51,-840.5 518.42,-590.84 549.61,-507.91"/>
<polygon fill="#63b8ff" stroke="#63b8ff" points="552.8,-509.36 553.05,-498.77 546.25,-506.9 552.8,-509.36"/>
</a>
</g>
</g>
<!-- Node29 -->
<g id="Node000029" class="node">
<title>Node29</title>
<g id="a_Node000029"><a xlink:href="../../d5/d72/classLSM1x0A__LoRaWAN.html#ace4b04396f1de1f4a54f513f5f378db7" target="_top" xlink:title="Manually overrides the internal joined state tracker.">
<polygon fill="white" stroke="#666666" points="640,-976.95 481.5,-976.95 481.5,-956.95 640,-956.95 640,-976.95"/>
<text text-anchor="middle" x="560.75" y="-963.45" font-family="Helvetica,sans-Serif" font-size="10.00">LSM1x0A_LoRaWAN::setJoined</text>
</a>
</g>
</g>
<!-- Node3&#45;&gt;Node29 -->
<g id="edge50_Node000003_Node000029" class="edge">
<title>Node3&#45;&gt;Node29</title>
<g id="a_edge50_Node000003_Node000029"><a xlink:title=" ">
<path fill="none" stroke="#63b8ff" d="M445.99,-938.22C457.66,-941.51 469.98,-944.91 481.5,-947.95 488.86,-949.89 496.62,-951.86 504.29,-953.76"/>
<polygon fill="#63b8ff" stroke="#63b8ff" points="503.38,-957.14 513.93,-956.13 505.05,-950.35 503.38,-957.14"/>
</a>
</g>
</g>
<!-- Node30 -->
<g id="Node000030" class="node">
<title>Node30</title>
<g id="a_Node000030"><a xlink:href="../../d8/d92/classLSM1x0A__Controller.html#a11ad21cb5ca33ec51346764a23bd485e" target="_top" xlink:title="Performs a software reset (ATZ Command).">
<polygon fill="white" stroke="#666666" points="613.75,-1102.95 507.75,-1102.95 507.75,-1070.95 613.75,-1070.95 613.75,-1102.95"/>
<text text-anchor="start" x="515.75" y="-1089.45" font-family="Helvetica,sans-Serif" font-size="10.00">LSM1x0A_Controller</text>
<text text-anchor="middle" x="560.75" y="-1077.45" font-family="Helvetica,sans-Serif" font-size="10.00">::softwareReset</text>
</a>
</g>
</g>
<!-- Node3&#45;&gt;Node30 -->
<g id="edge51_Node000003_Node000030" class="edge">
<title>Node3&#45;&gt;Node30</title>
<g id="a_edge51_Node000003_Node000030"><a xlink:title=" ">
<path fill="none" stroke="#63b8ff" d="M400.2,-939.34C412.39,-967.25 440.75,-1024.13 481.5,-1056.95 486.32,-1060.83 491.69,-1064.24 497.3,-1067.25"/>
<polygon fill="#63b8ff" stroke="#63b8ff" points="495.71,-1070.36 506.23,-1071.55 498.75,-1064.06 495.71,-1070.36"/>
</a>
</g>
</g>
<!-- Node6 -->
<g id="Node000006" class="node">
<title>Node6</title>
<g id="a_Node000006"><a xlink:href="../../d6/d3c/classLSM1x0A__AtParser.html#ad2839120da13e56132b95019419be1e5" target="_top" xlink:title="Waits for an event (like BOOTALERT) without sending any command. Useful for hardware reset where the ...">
<polygon fill="white" stroke="#666666" points="843.12,-938.95 702.62,-938.95 702.62,-906.95 843.12,-906.95 843.12,-938.95"/>
<text text-anchor="start" x="710.62" y="-925.45" font-family="Helvetica,sans-Serif" font-size="10.00">LSM1x0A_AtParser::waitFor</text>
<text text-anchor="middle" x="772.88" y="-913.45" font-family="Helvetica,sans-Serif" font-size="10.00">Event</text>
</a>
</g>
</g>
<!-- Node5&#45;&gt;Node6 -->
<g id="edge5_Node000005_Node000006" class="edge">
<title>Node5&#45;&gt;Node6</title>
<g id="a_edge5_Node000005_Node000006"><a xlink:title=" ">
<path fill="none" stroke="#63b8ff" d="M614.23,-922.95C637.42,-922.95 665.22,-922.95 690.96,-922.95"/>
<polygon fill="#63b8ff" stroke="#63b8ff" points="690.72,-926.45 700.72,-922.95 690.72,-919.45 690.72,-926.45"/>
</a>
</g>
</g>
<!-- Node9 -->
<g id="Node000009" class="node">
<title>Node9</title>
<g id="a_Node000009"><a xlink:href="../../d5/d72/classLSM1x0A__LoRaWAN.html#a59f781f3cfd30c11cd3973bcb10a7baa" target="_top" xlink:title="Initiates a LoRaWAN Network Join procedure. This is a blocking function until the module fires an eve...">
<polygon fill="white" stroke="#666666" points="838.62,-844.95 707.12,-844.95 707.12,-824.95 838.62,-824.95 838.62,-844.95"/>
<text text-anchor="middle" x="772.88" y="-831.45" font-family="Helvetica,sans-Serif" font-size="10.00">LSM1x0A_LoRaWAN::join</text>
</a>
</g>
</g>
<!-- Node8&#45;&gt;Node9 -->
<g id="edge8_Node000008_Node000009" class="edge">
<title>Node8&#45;&gt;Node9</title>
<g id="a_edge8_Node000008_Node000009"><a xlink:title=" ">
<path fill="none" stroke="#63b8ff" d="M635.54,-834.95C654.91,-834.95 675.85,-834.95 695.36,-834.95"/>
<polygon fill="#63b8ff" stroke="#63b8ff" points="695.15,-838.45 705.15,-834.95 695.15,-831.45 695.15,-838.45"/>
</a>
</g>
</g>
<!-- Node9&#45;&gt;Node2 -->
<g id="edge11_Node000009_Node000002" class="edge">
<title>Node9&#45;&gt;Node2</title>
<g id="a_edge11_Node000009_Node000002"><a xlink:title=" ">
<path fill="none" stroke="#63b8ff" d="M718.65,-824.5C660.02,-812.53 563.23,-791.38 481.5,-766.95 417.11,-747.69 387.23,-762.27 339.5,-714.95 281.23,-657.18 261.03,-557.13 254.45,-508.74"/>
<polygon fill="#63b8ff" stroke="#63b8ff" points="257.93,-508.33 253.22,-498.84 250.98,-509.2 257.93,-508.33"/>
</a>
</g>
</g>
<!-- Node9&#45;&gt;Node3 -->
<g id="edge10_Node000009_Node000003" class="edge">
<title>Node9&#45;&gt;Node3</title>
<g id="a_edge10_Node000009_Node000003"><a xlink:title=" ">
<path fill="none" stroke="#63b8ff" d="M718.65,-845.44C660.24,-857.21 563.82,-877.35 481.5,-897.95 473.56,-899.94 465.24,-902.14 457.03,-904.39"/>
<polygon fill="#63b8ff" stroke="#63b8ff" points="456.09,-901.01 447.4,-907.06 457.97,-907.76 456.09,-901.01"/>
</a>
</g>
</g>
<!-- Node9&#45;&gt;Node4 -->
<g id="edge9_Node000009_Node000004" class="edge">
<title>Node9&#45;&gt;Node4</title>
<g id="a_edge9_Node000009_Node000004"><a xlink:title=" ">
<path fill="none" stroke="#63b8ff" d="M795.94,-845.4C832.66,-862.79 906.98,-898 955.01,-920.75"/>
<polygon fill="#63b8ff" stroke="#63b8ff" points="953.22,-923.78 963.76,-924.9 956.22,-917.45 953.22,-923.78"/>
</a>
</g>
</g>
<!-- Node10 -->
<g id="Node000010" class="node">
<title>Node10</title>
<g id="a_Node000010"><a xlink:href="../../d5/d72/classLSM1x0A__LoRaWAN.html#a3fdd1ac318a5ad2559323e5d57e36a5e" target="_top" xlink:title="Enables or disables specific sub&#45;bands for regions supporting Channel Masks (e.g.,...">
<polygon fill="white" stroke="#666666" points="1095.75,-654.95 905.75,-654.95 905.75,-634.95 1095.75,-634.95 1095.75,-654.95"/>
<text text-anchor="middle" x="1000.75" y="-641.45" font-family="Helvetica,sans-Serif" font-size="10.00">LSM1x0A_LoRaWAN::setChannelMask</text>
</a>
</g>
</g>
<!-- Node9&#45;&gt;Node10 -->
<g id="edge12_Node000009_Node000010" class="edge">
<title>Node9&#45;&gt;Node10</title>
<g id="a_edge12_Node000009_Node000010"><a xlink:title=" ">
<path fill="none" stroke="#63b8ff" d="M833.18,-824.45C845.9,-820.55 858.8,-815.22 869.75,-807.95 926.62,-770.19 970.25,-699.61 989.29,-665.05"/>
<polygon fill="#63b8ff" stroke="#63b8ff" points="992.22,-666.98 993.87,-656.52 986.05,-663.67 992.22,-666.98"/>
</a>
</g>
</g>
<!-- Node11 -->
<g id="Node000011" class="node">
<title>Node11</title>
<g id="a_Node000011"><a xlink:href="../../d8/d92/classLSM1x0A__Controller.html#a62476e30e50c7fe120aeb8df4b828675" target="_top" xlink:title="Synchronously/blockingly waits for an asynchronous event to occur. Useful for wrapping commands like ...">
<polygon fill="white" stroke="#666666" points="1053.75,-850.95 947.75,-850.95 947.75,-818.95 1053.75,-818.95 1053.75,-850.95"/>
<text text-anchor="start" x="955.75" y="-837.45" font-family="Helvetica,sans-Serif" font-size="10.00">LSM1x0A_Controller</text>
<text text-anchor="middle" x="1000.75" y="-825.45" font-family="Helvetica,sans-Serif" font-size="10.00">::waitForEvent</text>
</a>
</g>
</g>
<!-- Node9&#45;&gt;Node11 -->
<g id="edge15_Node000009_Node000011" class="edge">
<title>Node9&#45;&gt;Node11</title>
<g id="a_edge15_Node000009_Node000011"><a xlink:title=" ">
<path fill="none" stroke="#63b8ff" d="M838.9,-834.95C869.41,-834.95 905.65,-834.95 935.99,-834.95"/>
<polygon fill="#63b8ff" stroke="#63b8ff" points="935.8,-838.45 945.8,-834.95 935.8,-831.45 935.8,-838.45"/>
</a>
</g>
</g>
<!-- Node10&#45;&gt;Node2 -->
<g id="edge14_Node000010_Node000002" class="edge">
<title>Node10&#45;&gt;Node2</title>
<g id="a_edge14_Node000010_Node000002"><a xlink:title=" ">
<path fill="none" stroke="#63b8ff" d="M998.97,-634.73C993.52,-566.01 958.6,-172.04 869.75,-101.95 684.59,44.11 520.65,29.06 339.5,-121.95 287.92,-164.95 261.86,-377.61 254.07,-453.76"/>
<polygon fill="#63b8ff" stroke="#63b8ff" points="250.63,-452.96 253.12,-463.26 257.59,-453.65 250.63,-452.96"/>
</a>
</g>
</g>
<!-- Node10&#45;&gt;Node7 -->
<g id="edge13_Node000010_Node000007" class="edge">
<title>Node10&#45;&gt;Node7</title>
<g id="a_edge13_Node000010_Node000007"><a xlink:title=" ">
<path fill="none" stroke="#63b8ff" d="M1009.55,-655.28C1040.09,-695.76 1151.92,-843.95 1192.32,-897.49"/>
<polygon fill="#63b8ff" stroke="#63b8ff" points="1189.47,-899.52 1198.29,-905.4 1195.06,-895.31 1189.47,-899.52"/>
</a>
</g>
</g>
<!-- Node12&#45;&gt;Node10 -->
<g id="edge21_Node000012_Node000010" class="edge">
<title>Node12&#45;&gt;Node10</title>
<g id="a_edge21_Node000012_Node000010"><a xlink:title=" ">
<path fill="none" stroke="#63b8ff" d="M634.24,-484.29C711.9,-488.81 829.43,-498.64 869.75,-517.95 921.68,-542.82 965.63,-596.76 986.59,-625.7"/>
<polygon fill="#63b8ff" stroke="#63b8ff" points="983.52,-627.41 992.15,-633.56 989.24,-623.37 983.52,-627.41"/>
</a>
</g>
</g>
<!-- Node13 -->
<g id="Node000013" class="node">
<title>Node13</title>
<g id="a_Node000013"><a xlink:href="../../d5/d72/classLSM1x0A__LoRaWAN.html#af0baa3db4c7fab580d6b19a9e92472f6" target="_top" xlink:title="Enables or disables Adaptive Data Rate (ADR).">
<polygon fill="white" stroke="#666666" points="848.75,-798.95 697,-798.95 697,-778.95 848.75,-778.95 848.75,-798.95"/>
<text text-anchor="middle" x="772.88" y="-785.45" font-family="Helvetica,sans-Serif" font-size="10.00">LSM1x0A_LoRaWAN::setADR</text>
</a>
</g>
</g>
<!-- Node12&#45;&gt;Node13 -->
<g id="edge17_Node000012_Node000013" class="edge">
<title>Node12&#45;&gt;Node13</title>
<g id="a_edge17_Node000012_Node000013"><a xlink:title=" ">
<path fill="none" stroke="#63b8ff" d="M562.93,-497.13C567.45,-546.58 588.15,-696.7 676,-769.95 679.25,-772.66 682.79,-775.03 686.51,-777.08"/>
<polygon fill="#63b8ff" stroke="#63b8ff" points="684.84,-780.17 695.38,-781.21 687.79,-773.82 684.84,-780.17"/>
</a>
</g>
</g>
<!-- Node14 -->
<g id="Node000014" class="node">
<title>Node14</title>
<g id="a_Node000014"><a xlink:href="../../d5/d72/classLSM1x0A__LoRaWAN.html#a5365ed1596eb84ebf1e3b33b4a10c788" target="_top" xlink:title="Sets the LoRaWAN operational frequency band.">
<polygon fill="white" stroke="#666666" points="849.12,-760.95 696.62,-760.95 696.62,-740.95 849.12,-740.95 849.12,-760.95"/>
<text text-anchor="middle" x="772.88" y="-747.45" font-family="Helvetica,sans-Serif" font-size="10.00">LSM1x0A_LoRaWAN::setBand</text>
</a>
</g>
</g>
<!-- Node12&#45;&gt;Node14 -->
<g id="edge19_Node000012_Node000014" class="edge">
<title>Node12&#45;&gt;Node14</title>
<g id="a_edge19_Node000012_Node000014"><a xlink:title=" ">
<path fill="none" stroke="#63b8ff" d="M564.01,-497.27C571.17,-542.46 597.73,-669.99 676,-731.95 679.16,-734.45 682.55,-736.64 686.11,-738.58"/>
<polygon fill="#63b8ff" stroke="#63b8ff" points="684.6,-741.74 695.15,-742.72 687.52,-735.37 684.6,-741.74"/>
</a>
</g>
</g>
<!-- Node15 -->
<g id="Node000015" class="node">
<title>Node15</title>
<g id="a_Node000015"><a xlink:href="../../d5/d72/classLSM1x0A__LoRaWAN.html#a9d9285c43414337a0ccb3a6cd7ca06e6" target="_top" xlink:title="Configures the number of retries for Confirmed uplinks.">
<polygon fill="white" stroke="#666666" points="855.12,-722.95 690.62,-722.95 690.62,-690.95 855.12,-690.95 855.12,-722.95"/>
<text text-anchor="start" x="698.62" y="-709.45" font-family="Helvetica,sans-Serif" font-size="10.00">LSM1x0A_LoRaWAN::setConfirm</text>
<text text-anchor="middle" x="772.88" y="-697.45" font-family="Helvetica,sans-Serif" font-size="10.00">Retry</text>
</a>
</g>
</g>
<!-- Node12&#45;&gt;Node15 -->
<g id="edge22_Node000012_Node000015" class="edge">
<title>Node12&#45;&gt;Node15</title>
<g id="a_edge22_Node000012_Node000015"><a xlink:title=" ">
<path fill="none" stroke="#63b8ff" d="M566.27,-497.42C577.73,-535.98 611.67,-632.59 676,-681.95 677.36,-682.99 678.77,-684 680.21,-684.96"/>
<polygon fill="#63b8ff" stroke="#63b8ff" points="678.43,-687.98 688.84,-689.96 681.94,-681.92 678.43,-687.98"/>
</a>
</g>
</g>
<!-- Node16 -->
<g id="Node000016" class="node">
<title>Node16</title>
<g id="a_Node000016"><a xlink:href="../../d5/d72/classLSM1x0A__LoRaWAN.html#a56345ceeafa0b9059d6de4e69eddc82e" target="_top" xlink:title="Sets the Data Rate (DR) of the module.">
<polygon fill="white" stroke="#666666" points="858.88,-672.95 686.88,-672.95 686.88,-652.95 858.88,-652.95 858.88,-672.95"/>
<text text-anchor="middle" x="772.88" y="-659.45" font-family="Helvetica,sans-Serif" font-size="10.00">LSM1x0A_LoRaWAN::setDataRate</text>
</a>
</g>
</g>
<!-- Node12&#45;&gt;Node16 -->
<g id="edge24_Node000012_Node000016" class="edge">
<title>Node12&#45;&gt;Node16</title>
<g id="a_edge24_Node000012_Node000016"><a xlink:title=" ">
<path fill="none" stroke="#63b8ff" d="M568.18,-497.26C582.24,-530.68 619.11,-606.87 676,-643.95 678.14,-645.34 680.35,-646.63 682.63,-647.84"/>
<polygon fill="#63b8ff" stroke="#63b8ff" points="681.05,-650.96 691.6,-651.92 683.95,-644.59 681.05,-650.96"/>
</a>
</g>
</g>
<!-- Node17 -->
<g id="Node000017" class="node">
<title>Node17</title>
<g id="a_Node000017"><a xlink:href="../../d5/d72/classLSM1x0A__LoRaWAN.html#a8494083816ab885cb07fc3b08de029f4" target="_top" xlink:title="Sets the LoRaWAN Device Address (DevAddr) for ABP mode.">
<polygon fill="white" stroke="#666666" points="857,-634.95 688.75,-634.95 688.75,-614.95 857,-614.95 857,-634.95"/>
<text text-anchor="middle" x="772.88" y="-621.45" font-family="Helvetica,sans-Serif" font-size="10.00">LSM1x0A_LoRaWAN::setDevAddr</text>
</a>
</g>
</g>
<!-- Node12&#45;&gt;Node17 -->
<g id="edge26_Node000012_Node000017" class="edge">
<title>Node12&#45;&gt;Node17</title>
<g id="a_edge26_Node000012_Node000017"><a xlink:title=" ">
<path fill="none" stroke="#63b8ff" d="M571.74,-497.41C589.22,-524.7 628.1,-578.97 676,-605.95 678.84,-607.55 681.8,-609.02 684.83,-610.36"/>
<polygon fill="#63b8ff" stroke="#63b8ff" points="683.42,-613.57 694.01,-613.93 685.96,-607.04 683.42,-613.57"/>
</a>
</g>
</g>
<!-- Node18 -->
<g id="Node000018" class="node">
<title>Node18</title>
<g id="a_Node000018"><a xlink:href="../../d5/d72/classLSM1x0A__LoRaWAN.html#ad320634e52d7ea907043cc50dd37c5b0" target="_top" xlink:title="Sets the LoRaWAN Device EUI (DevEUI).">
<polygon fill="white" stroke="#666666" points="855.5,-596.95 690.25,-596.95 690.25,-576.95 855.5,-576.95 855.5,-596.95"/>
<text text-anchor="middle" x="772.88" y="-583.45" font-family="Helvetica,sans-Serif" font-size="10.00">LSM1x0A_LoRaWAN::setDevEUI</text>
</a>
</g>
</g>
<!-- Node12&#45;&gt;Node18 -->
<g id="edge28_Node000012_Node000018" class="edge">
<title>Node12&#45;&gt;Node18</title>
<g id="a_edge28_Node000012_Node000018"><a xlink:title=" ">
<path fill="none" stroke="#63b8ff" d="M577.95,-497.21C598.77,-517.12 636.9,-550.34 676,-567.95 680.26,-569.87 684.72,-571.6 689.28,-573.15"/>
<polygon fill="#63b8ff" stroke="#63b8ff" points="688.03,-576.43 698.62,-576.02 690.09,-569.74 688.03,-576.43"/>
</a>
</g>
</g>
<!-- Node19 -->
<g id="Node000019" class="node">
<title>Node19</title>
<g id="a_Node000019"><a xlink:href="../../d5/d72/classLSM1x0A__LoRaWAN.html#a031023b0d2dd5db3c51c2db6ae7801cc" target="_top" xlink:title="Enables or disables the Duty Cycle limitation (EU regions mostly).">
<polygon fill="white" stroke="#666666" points="848.38,-558.95 697.38,-558.95 697.38,-526.95 848.38,-526.95 848.38,-558.95"/>
<text text-anchor="start" x="705.38" y="-545.45" font-family="Helvetica,sans-Serif" font-size="10.00">LSM1x0A_LoRaWAN::setDuty</text>
<text text-anchor="middle" x="772.88" y="-533.45" font-family="Helvetica,sans-Serif" font-size="10.00">Cycle</text>
</a>
</g>
</g>
<!-- Node12&#45;&gt;Node19 -->
<g id="edge30_Node000012_Node000019" class="edge">
<title>Node12&#45;&gt;Node19</title>
<g id="a_edge30_Node000012_Node000019"><a xlink:title=" ">
<path fill="none" stroke="#63b8ff" d="M617.51,-497.4C644.45,-505.35 676.98,-514.95 705.23,-523.28"/>
<polygon fill="#63b8ff" stroke="#63b8ff" points="704.19,-526.62 714.77,-526.1 706.17,-519.91 704.19,-526.62"/>
</a>
</g>
</g>
<!-- Node20 -->
<g id="Node000020" class="node">
<title>Node20</title>
<g id="a_Node000020"><a xlink:href="../../d5/d72/classLSM1x0A__LoRaWAN.html#a6b179d5825c49af0f391dfc539912f64" target="_top" xlink:title="Sets the delay for the Join1 receive window.">
<polygon fill="white" stroke="#666666" points="849.5,-470.95 696.25,-470.95 696.25,-438.95 849.5,-438.95 849.5,-470.95"/>
<text text-anchor="start" x="704.25" y="-457.45" font-family="Helvetica,sans-Serif" font-size="10.00">LSM1x0A_LoRaWAN::setJoin1</text>
<text text-anchor="middle" x="772.88" y="-445.45" font-family="Helvetica,sans-Serif" font-size="10.00">Delay</text>
</a>
</g>
</g>
<!-- Node12&#45;&gt;Node20 -->
<g id="edge32_Node000012_Node000020" class="edge">
<title>Node12&#45;&gt;Node20</title>
<g id="a_edge32_Node000012_Node000020"><a xlink:title=" ">
<path fill="none" stroke="#63b8ff" d="M634.36,-471.96C650.71,-469.94 668.22,-467.77 685.08,-465.69"/>
<polygon fill="#63b8ff" stroke="#63b8ff" points="685.05,-469.22 694.55,-464.52 684.19,-462.27 685.05,-469.22"/>
</a>
</g>
</g>
<!-- Node21 -->
<g id="Node000021" class="node">
<title>Node21</title>
<g id="a_Node000021"><a xlink:href="../../d5/d72/classLSM1x0A__LoRaWAN.html#a4545d0caad41558cdb9bae8286b104d8" target="_top" xlink:title="Sets the delay for the Join2 receive window.">
<polygon fill="white" stroke="#666666" points="849.5,-420.95 696.25,-420.95 696.25,-388.95 849.5,-388.95 849.5,-420.95"/>
<text text-anchor="start" x="704.25" y="-407.45" font-family="Helvetica,sans-Serif" font-size="10.00">LSM1x0A_LoRaWAN::setJoin2</text>
<text text-anchor="middle" x="772.88" y="-395.45" font-family="Helvetica,sans-Serif" font-size="10.00">Delay</text>
</a>
</g>
</g>
<!-- Node12&#45;&gt;Node21 -->
<g id="edge34_Node000012_Node000021" class="edge">
<title>Node12&#45;&gt;Node21</title>
<g id="a_edge34_Node000012_Node000021"><a xlink:title=" ">
<path fill="none" stroke="#63b8ff" d="M594.66,-464.52C617.17,-453.71 647.92,-439.8 676,-429.95 681.29,-428.09 686.79,-426.3 692.36,-424.59"/>
<polygon fill="#63b8ff" stroke="#63b8ff" points="693.07,-428.03 701.66,-421.84 691.08,-421.32 693.07,-428.03"/>
</a>
</g>
</g>
<!-- Node22 -->
<g id="Node000022" class="node">
<title>Node22</title>
<g id="a_Node000022"><a xlink:href="../../d5/d72/classLSM1x0A__LoRaWAN.html#a06bd50723ec1eb7e144c9141b2ec86fc" target="_top" xlink:title="Sets the LoRaWAN Network ID (NetID).">
<polygon fill="white" stroke="#666666" points="853.25,-370.95 692.5,-370.95 692.5,-350.95 853.25,-350.95 853.25,-370.95"/>
<text text-anchor="middle" x="772.88" y="-357.45" font-family="Helvetica,sans-Serif" font-size="10.00">LSM1x0A_LoRaWAN::setNwkID</text>
</a>
</g>
</g>
<!-- Node12&#45;&gt;Node22 -->
<g id="edge36_Node000012_Node000022" class="edge">
<title>Node12&#45;&gt;Node22</title>
<g id="a_edge36_Node000012_Node000022"><a xlink:title=" ">
<path fill="none" stroke="#63b8ff" d="M575.01,-464.74C594.6,-441.98 633.53,-400.98 676,-379.95 679.68,-378.13 683.51,-376.48 687.45,-374.99"/>
<polygon fill="#63b8ff" stroke="#63b8ff" points="688.26,-378.41 696.61,-371.9 686.02,-371.78 688.26,-378.41"/>
</a>
</g>
</g>
<!-- Node23 -->
<g id="Node000023" class="node">
<title>Node23</title>
<g id="a_Node000023"><a xlink:href="../../d5/d72/classLSM1x0A__LoRaWAN.html#aa70ada64d28ecca216bb62268e502adf" target="_top" xlink:title="Sets the delay for the RX1 receive window.">
<polygon fill="white" stroke="#666666" points="859.62,-332.95 686.12,-332.95 686.12,-312.95 859.62,-312.95 859.62,-332.95"/>
<text text-anchor="middle" x="772.88" y="-319.45" font-family="Helvetica,sans-Serif" font-size="10.00">LSM1x0A_LoRaWAN::setRx1Delay</text>
</a>
</g>
</g>
<!-- Node12&#45;&gt;Node23 -->
<g id="edge38_Node000012_Node000023" class="edge">
<title>Node12&#45;&gt;Node23</title>
<g id="a_edge38_Node000012_Node000023"><a xlink:title=" ">
<path fill="none" stroke="#63b8ff" d="M570.2,-464.54C586.4,-434.88 624.8,-372.58 676,-341.95 678.48,-340.46 681.06,-339.09 683.71,-337.82"/>
<polygon fill="#63b8ff" stroke="#63b8ff" points="684.96,-341.09 692.84,-334.02 682.26,-334.63 684.96,-341.09"/>
</a>
</g>
</g>
<!-- Node24 -->
<g id="Node000024" class="node">
<title>Node24</title>
<g id="a_Node000024"><a xlink:href="../../d5/d72/classLSM1x0A__LoRaWAN.html#a2cf4eff0181b6107d082bccefa24217b" target="_top" xlink:title="Sets the Data Rate (DR) specifically for the RX2 window.">
<polygon fill="white" stroke="#666666" points="867.88,-294.95 677.88,-294.95 677.88,-274.95 867.88,-274.95 867.88,-294.95"/>
<text text-anchor="middle" x="772.88" y="-281.45" font-family="Helvetica,sans-Serif" font-size="10.00">LSM1x0A_LoRaWAN::setRx2DataRate</text>
</a>
</g>
</g>
<!-- Node12&#45;&gt;Node24 -->
<g id="edge40_Node000012_Node000024" class="edge">
<title>Node12&#45;&gt;Node24</title>
<g id="a_edge40_Node000012_Node000024"><a xlink:title=" ">
<path fill="none" stroke="#63b8ff" d="M567.27,-464.61C580.15,-429.11 615.79,-344.84 676,-303.95 677.97,-302.61 680.02,-301.36 682.13,-300.19"/>
<polygon fill="#63b8ff" stroke="#63b8ff" points="683.46,-303.43 690.98,-295.97 680.45,-297.11 683.46,-303.43"/>
</a>
</g>
</g>
<!-- Node25 -->
<g id="Node000025" class="node">
<title>Node25</title>
<g id="a_Node000025"><a xlink:href="../../d5/d72/classLSM1x0A__LoRaWAN.html#a42d2137b475b57e19d891a5f1ac93221" target="_top" xlink:title="Sets the delay for the RX2 receive window.">
<polygon fill="white" stroke="#666666" points="859.62,-256.95 686.12,-256.95 686.12,-236.95 859.62,-236.95 859.62,-256.95"/>
<text text-anchor="middle" x="772.88" y="-243.45" font-family="Helvetica,sans-Serif" font-size="10.00">LSM1x0A_LoRaWAN::setRx2Delay</text>
</a>
</g>
</g>
<!-- Node12&#45;&gt;Node25 -->
<g id="edge42_Node000012_Node000025" class="edge">
<title>Node12&#45;&gt;Node25</title>
<g id="a_edge42_Node000012_Node000025"><a xlink:title=" ">
<path fill="none" stroke="#63b8ff" d="M565.34,-464.6C575.18,-423.89 606.61,-317.5 676,-265.95 677.59,-264.76 679.24,-263.65 680.93,-262.6"/>
<polygon fill="#63b8ff" stroke="#63b8ff" points="682.51,-265.72 689.73,-257.97 679.25,-259.53 682.51,-265.72"/>
</a>
</g>
</g>
<!-- Node26 -->
<g id="Node000026" class="node">
<title>Node26</title>
<g id="a_Node000026"><a xlink:href="../../d5/d72/classLSM1x0A__LoRaWAN.html#a689f7dfda1dfeae11ea397c2ddf2ad37" target="_top" xlink:title="Sets the precise frequency for the RX2 window.">
<polygon fill="white" stroke="#666666" points="869.75,-218.95 676,-218.95 676,-198.95 869.75,-198.95 869.75,-218.95"/>
<text text-anchor="middle" x="772.88" y="-205.45" font-family="Helvetica,sans-Serif" font-size="10.00">LSM1x0A_LoRaWAN::setRx2Frequency</text>
</a>
</g>
</g>
<!-- Node12&#45;&gt;Node26 -->
<g id="edge44_Node000012_Node000026" class="edge">
<title>Node12&#45;&gt;Node26</title>
<g id="a_edge44_Node000012_Node000026"><a xlink:title=" ">
<path fill="none" stroke="#63b8ff" d="M563.96,-464.5C571.01,-418.96 597.31,-290.44 676,-227.95 677.33,-226.89 678.7,-225.89 680.11,-224.94"/>
<polygon fill="#63b8ff" stroke="#63b8ff" points="681.61,-228.11 688.57,-220.12 678.15,-222.03 681.61,-228.11"/>
</a>
</g>
</g>
<!-- Node27 -->
<g id="Node000027" class="node">
<title>Node27</title>
<g id="a_Node000027"><a xlink:href="../../d5/d72/classLSM1x0A__LoRaWAN.html#a1df10d7ae6bf45b537d28d3d5c4b88d7" target="_top" xlink:title="Sets the transmission power index.">
<polygon fill="white" stroke="#666666" points="857.38,-180.95 688.38,-180.95 688.38,-160.95 857.38,-160.95 857.38,-180.95"/>
<text text-anchor="middle" x="772.88" y="-167.45" font-family="Helvetica,sans-Serif" font-size="10.00">LSM1x0A_LoRaWAN::setTxPower</text>
</a>
</g>
</g>
<!-- Node12&#45;&gt;Node27 -->
<g id="edge46_Node000012_Node000027" class="edge">
<title>Node12&#45;&gt;Node27</title>
<g id="a_edge46_Node000012_Node000027"><a xlink:title=" ">
<path fill="none" stroke="#63b8ff" d="M562.89,-464.65C567.3,-414.88 587.71,-263.73 676,-189.95 677.14,-189 678.3,-188.09 679.5,-187.23"/>
<polygon fill="#63b8ff" stroke="#63b8ff" points="681.18,-190.3 687.93,-182.14 677.56,-184.31 681.18,-190.3"/>
</a>
</g>
</g>
<!-- Node28 -->
<g id="Node000028" class="node">
<title>Node28</title>
<g id="a_Node000028"><a xlink:href="../../d5/d72/classLSM1x0A__LoRaWAN.html#a059fd6a9356c4ecadd5a98294da5952d" target="_top" xlink:title="Configures the number of repetitions for Unconfirmed uplinks.">
<polygon fill="white" stroke="#666666" points="860.38,-142.95 685.38,-142.95 685.38,-110.95 860.38,-110.95 860.38,-142.95"/>
<text text-anchor="start" x="693.38" y="-129.45" font-family="Helvetica,sans-Serif" font-size="10.00">LSM1x0A_LoRaWAN::setUnconfirm</text>
<text text-anchor="middle" x="772.88" y="-117.45" font-family="Helvetica,sans-Serif" font-size="10.00">Retry</text>
</a>
</g>
</g>
<!-- Node12&#45;&gt;Node28 -->
<g id="edge48_Node000012_Node000028" class="edge">
<title>Node12&#45;&gt;Node28</title>
<g id="a_edge48_Node000012_Node000028"><a xlink:title=" ">
<path fill="none" stroke="#63b8ff" d="M562.27,-464.75C564.9,-411.46 580.73,-239.96 676,-151.95 676.77,-151.23 677.57,-150.54 678.37,-149.86"/>
<polygon fill="#63b8ff" stroke="#63b8ff" points="680.22,-152.84 686.37,-144.21 676.19,-147.12 680.22,-152.84"/>
</a>
</g>
</g>
<!-- Node13&#45;&gt;Node2 -->
<g id="edge18_Node000013_Node000002" class="edge">
<title>Node13&#45;&gt;Node2</title>
<g id="a_edge18_Node000013_Node000002"><a xlink:title=" ">
<path fill="none" stroke="#63b8ff" d="M697.86,-778.49C588.64,-761.69 391.58,-725.64 339.5,-677.95 288.85,-631.57 265.62,-550.58 256.5,-508.34"/>
<polygon fill="#63b8ff" stroke="#63b8ff" points="259.98,-507.86 254.55,-498.76 253.12,-509.26 259.98,-507.86"/>
</a>
</g>
</g>
<!-- Node14&#45;&gt;Node2 -->
<g id="edge20_Node000014_Node000002" class="edge">
<title>Node14&#45;&gt;Node2</title>
<g id="a_edge20_Node000014_Node000002"><a xlink:title=" ">
<path fill="none" stroke="#63b8ff" d="M700.23,-740.46C592.17,-723.42 394.26,-687.03 339.5,-641.95 296.23,-606.32 270.87,-543.61 259.24,-507.88"/>
<polygon fill="#63b8ff" stroke="#63b8ff" points="262.71,-507.24 256.39,-498.74 256.02,-509.32 262.71,-507.24"/>
</a>
</g>
</g>
<!-- Node15&#45;&gt;Node2 -->
<g id="edge23_Node000015_Node000002" class="edge">
<title>Node15&#45;&gt;Node2</title>
<g id="a_edge23_Node000015_Node000002"><a xlink:title=" ">
<path fill="none" stroke="#63b8ff" d="M690.24,-696.13C580.83,-680.29 394.07,-648.15 339.5,-606.95 304.38,-580.43 277.99,-535.78 263.65,-507.37"/>
<polygon fill="#63b8ff" stroke="#63b8ff" points="266.96,-506.16 259.42,-498.71 260.67,-509.23 266.96,-506.16"/>
</a>
</g>
</g>
<!-- Node16&#45;&gt;Node2 -->
<g id="edge25_Node000016_Node000002" class="edge">
<title>Node16&#45;&gt;Node2</title>
<g id="a_edge25_Node000016_Node000002"><a xlink:title=" ">
<path fill="none" stroke="#63b8ff" d="M686.77,-660.63C595.06,-654.66 447.71,-634.71 339.5,-569.95 311.82,-553.38 286.64,-526.09 270.38,-506.09"/>
<polygon fill="#63b8ff" stroke="#63b8ff" points="273.24,-504.06 264.29,-498.39 267.75,-508.41 273.24,-504.06"/>
</a>
</g>
</g>
<!-- Node17&#45;&gt;Node2 -->
<g id="edge27_Node000017_Node000002" class="edge">
<title>Node17&#45;&gt;Node2</title>
<g id="a_edge27_Node000017_Node000002"><a xlink:title=" ">
<path fill="none" stroke="#63b8ff" d="M688.52,-618.09C599.26,-608.52 454.9,-586.49 339.5,-537.95 318.74,-529.22 297.49,-515.61 281.08,-503.88"/>
<polygon fill="#63b8ff" stroke="#63b8ff" points="283.37,-501.22 273.23,-498.14 279.24,-506.87 283.37,-501.22"/>
</a>
</g>
</g>
<!-- Node18&#45;&gt;Node2 -->
<g id="edge29_Node000018_Node000002" class="edge">
<title>Node18&#45;&gt;Node2</title>
<g id="a_edge29_Node000018_Node000002"><a xlink:title=" ">
<path fill="none" stroke="#63b8ff" d="M690.12,-576.91C602.53,-565.2 459.84,-543.35 339.5,-511.95 327.98,-508.94 315.82,-505.11 304.34,-501.17"/>
<polygon fill="#63b8ff" stroke="#63b8ff" points="305.6,-497.9 295.01,-497.88 303.28,-504.5 305.6,-497.9"/>
</a>
</g>
</g>
<!-- Node19&#45;&gt;Node2 -->
<g id="edge31_Node000019_Node000002" class="edge">
<title>Node19&#45;&gt;Node2</title>
<g id="a_edge31_Node000019_Node000002"><a xlink:title=" ">
<path fill="none" stroke="#63b8ff" d="M697.14,-534.04C594.46,-521.81 411.56,-500.02 315.1,-488.53"/>
<polygon fill="#63b8ff" stroke="#63b8ff" points="315.62,-485.06 305.28,-487.36 314.8,-492.01 315.62,-485.06"/>
</a>
</g>
</g>
<!-- Node20&#45;&gt;Node2 -->
<g id="edge33_Node000020_Node000002" class="edge">
<title>Node20&#45;&gt;Node2</title>
<g id="a_edge33_Node000020_Node000002"><a xlink:title=" ">
<path fill="none" stroke="#63b8ff" d="M696,-453.04C637.37,-452.09 554.23,-451.88 481.5,-455.95 425.12,-459.1 361.3,-466.33 315.22,-472.21"/>
<polygon fill="#63b8ff" stroke="#63b8ff" points="314.87,-468.72 305.4,-473.48 315.76,-475.67 314.87,-468.72"/>
</a>
</g>
</g>
<!-- Node21&#45;&gt;Node2 -->
<g id="edge35_Node000021_Node000002" class="edge">
<title>Node21&#45;&gt;Node2</title>
<g id="a_edge35_Node000021_Node000002"><a xlink:title=" ">
<path fill="none" stroke="#63b8ff" d="M695.88,-409.76C609.03,-416.18 462.96,-429.77 339.5,-454.95 330.83,-456.72 321.78,-458.94 312.92,-461.34"/>
<polygon fill="#63b8ff" stroke="#63b8ff" points="311.98,-457.97 303.3,-464.05 313.88,-464.71 311.98,-457.97"/>
</a>
</g>
</g>
<!-- Node22&#45;&gt;Node2 -->
<g id="edge37_Node000022_Node000002" class="edge">
<title>Node22&#45;&gt;Node2</title>
<g id="a_edge37_Node000022_Node000002"><a xlink:title=" ">
<path fill="none" stroke="#63b8ff" d="M692.21,-366.22C603.95,-373.87 458.38,-391.94 339.5,-432.95 321.01,-439.33 301.8,-449.35 286.06,-458.6"/>
<polygon fill="#63b8ff" stroke="#63b8ff" points="284.3,-455.57 277.55,-463.73 287.92,-461.56 284.3,-455.57"/>
</a>
</g>
</g>
<!-- Node23&#45;&gt;Node2 -->
<g id="edge39_Node000023_Node000002" class="edge">
<title>Node23&#45;&gt;Node2</title>
<g id="a_edge39_Node000023_Node000002"><a xlink:title=" ">
<path fill="none" stroke="#63b8ff" d="M685.74,-323.48C594.79,-327.36 449.6,-343.2 339.5,-400.95 313.26,-414.71 288.78,-438.19 272.34,-456.16"/>
<polygon fill="#63b8ff" stroke="#63b8ff" points="269.98,-453.54 265.95,-463.34 275.21,-458.2 269.98,-453.54"/>
</a>
</g>
</g>
<!-- Node24&#45;&gt;Node2 -->
<g id="edge41_Node000024_Node000002" class="edge">
<title>Node24&#45;&gt;Node2</title>
<g id="a_edge41_Node000024_Node000002"><a xlink:title=" ">
<path fill="none" stroke="#63b8ff" d="M677.65,-278.72C584.1,-277.21 440.44,-287.94 339.5,-355.95 303,-380.54 276.87,-425.71 262.98,-454.49"/>
<polygon fill="#63b8ff" stroke="#63b8ff" points="259.94,-452.73 258.9,-463.27 266.29,-455.68 259.94,-452.73"/>
</a>
</g>
</g>
<!-- Node25&#45;&gt;Node2 -->
<g id="edge43_Node000025_Node000002" class="edge">
<title>Node25&#45;&gt;Node2</title>
<g id="a_edge43_Node000025_Node000002"><a xlink:title=" ">
<path fill="none" stroke="#63b8ff" d="M702.1,-236.49C609.33,-226.6 444.84,-223.58 339.5,-304.95 290.86,-342.51 267.13,-414.19 257.31,-453.49"/>
<polygon fill="#63b8ff" stroke="#63b8ff" points="253.94,-452.56 255.05,-463.1 260.75,-454.17 253.94,-452.56"/>
</a>
</g>
</g>
<!-- Node26&#45;&gt;Node2 -->
<g id="edge45_Node000026_Node000002" class="edge">
<title>Node26&#45;&gt;Node2</title>
<g id="a_edge45_Node000026_Node000002"><a xlink:title=" ">
<path fill="none" stroke="#63b8ff" d="M675.67,-205.86C564.22,-204.31 389.5,-208.72 339.5,-248.95 275.61,-300.36 258.08,-403.6 253.29,-453.16"/>
<polygon fill="#63b8ff" stroke="#63b8ff" points="249.81,-452.77 252.45,-463.03 256.78,-453.36 249.81,-452.77"/>
</a>
</g>
</g>
<!-- Node27&#45;&gt;Node2 -->
<g id="edge47_Node000027_Node000002" class="edge">
<title>Node27&#45;&gt;Node2</title>
<g id="a_edge47_Node000027_Node000002"><a xlink:title=" ">
<path fill="none" stroke="#63b8ff" d="M725.17,-160.48C638.74,-144.01 452.39,-122.56 339.5,-212.95 264.69,-272.85 252.83,-397.78 251.4,-453.31"/>
<polygon fill="#63b8ff" stroke="#63b8ff" points="247.9,-453.1 251.25,-463.15 254.9,-453.21 247.9,-453.1"/>
</a>
</g>
</g>
<!-- Node28&#45;&gt;Node2 -->
<g id="edge49_Node000028_Node000002" class="edge">
<title>Node28&#45;&gt;Node2</title>
<g id="a_edge49_Node000028_Node000002"><a xlink:title=" ">
<path fill="none" stroke="#63b8ff" d="M684.99,-121.55C573.9,-116.57 389.87,-115.39 339.5,-157.95 293.65,-196.69 264.5,-383.18 254.95,-453.79"/>
<polygon fill="#63b8ff" stroke="#63b8ff" points="251.53,-452.95 253.69,-463.32 258.47,-453.87 251.53,-452.95"/>
</a>
</g>
</g>
<!-- Node30&#45;&gt;Node31 -->
<g id="edge52_Node000030_Node000031" class="edge">
<title>Node30&#45;&gt;Node31</title>
<g id="a_edge52_Node000030_Node000031"><a xlink:title=" ">
<path fill="none" stroke="#63b8ff" d="M614.23,-1092.44C632.39,-1094.34 653.36,-1096.54 673.97,-1098.7"/>
<polygon fill="#63b8ff" stroke="#63b8ff" points="673.54,-1102.17 683.85,-1099.73 674.27,-1095.21 673.54,-1102.17"/>
</a>
</g>
</g>
<!-- Node32 -->
<g id="Node000032" class="node">
<title>Node32</title>
<g id="a_Node000032"><a xlink:href="../../d6/d3c/classLSM1x0A__AtParser.html#a0ba6f927c54fceece22c17773d3f2600" target="_top" xlink:title="Sends a command and extracts a value from the response.">
<polygon fill="white" stroke="#666666" points="1087.88,-1124.95 913.62,-1124.95 913.62,-1092.95 1087.88,-1092.95 1087.88,-1124.95"/>
<text text-anchor="start" x="921.62" y="-1111.45" font-family="Helvetica,sans-Serif" font-size="10.00">LSM1x0A_AtParser::sendCommand</text>
<text text-anchor="middle" x="1000.75" y="-1099.45" font-family="Helvetica,sans-Serif" font-size="10.00">WithResponse</text>
</a>
</g>
</g>
<!-- Node31&#45;&gt;Node32 -->
<g id="edge53_Node000031_Node000032" class="edge">
<title>Node31&#45;&gt;Node32</title>
<g id="a_edge53_Node000031_Node000032"><a xlink:title=" ">
<path fill="none" stroke="#63b8ff" d="M860.24,-1108.95C873.99,-1108.95 888.31,-1108.95 902.3,-1108.95"/>
<polygon fill="#63b8ff" stroke="#63b8ff" points="901.92,-1112.45 911.92,-1108.95 901.92,-1105.45 901.92,-1112.45"/>
</a>
</g>
</g>
<!-- Node33 -->
<g id="Node000033" class="node">
<title>Node33</title>
<g id="a_Node000033"><a xlink:href="../../d5/d8b/classUartDriver.html#a5d0f22e8867eebe99273078bb19bd23d" target="_top" xlink:title="Sends data through UART.">
<polygon fill="white" stroke="#666666" points="1262.5,-1118.95 1153.5,-1118.95 1153.5,-1098.95 1262.5,-1098.95 1262.5,-1118.95"/>
<text text-anchor="middle" x="1208" y="-1105.45" font-family="Helvetica,sans-Serif" font-size="10.00">UartDriver::sendData</text>
</a>
</g>
</g>
<!-- Node32&#45;&gt;Node33 -->
<g id="edge54_Node000032_Node000033" class="edge">
<title>Node32&#45;&gt;Node33</title>
<g id="a_edge54_Node000032_Node000033"><a xlink:title=" ">
<path fill="none" stroke="#63b8ff" d="M1088.2,-1108.95C1106.09,-1108.95 1124.66,-1108.95 1141.64,-1108.95"/>
<polygon fill="#63b8ff" stroke="#63b8ff" points="1141.61,-1112.45 1151.61,-1108.95 1141.61,-1105.45 1141.61,-1112.45"/>
</a>
</g>
</g>
</g>
</svg>
