<?xml version="1.0" encoding="UTF-8" standalone="no"?>
<!DOCTYPE svg PUBLIC "-//W3C//DTD SVG 1.1//EN"
 "http://www.w3.org/Graphics/SVG/1.1/DTD/svg11.dtd">
<!-- Generated by graphviz version 12.2.1 (20241206.2353)
 -->
<!-- Title: LSM1x0A_Sigfox::testContinuousWave Pages: 1 -->
<!--zoomable 1143 -->

<svg id="main" version="1.1" xmlns="http://www.w3.org/2000/svg" xmlns:xlink="http://www.w3.org/1999/xlink" xml:space="preserve" onload="init(evt)">
<style type="text/css"><![CDATA[
.node, .edge {opacity: 0.7;}
.node.selected, .edge.selected {opacity: 1;}
.edge:hover path { stroke: red; }
.edge:hover polygon { stroke: red; fill: red; }
]]></style>

<defs>
  <circle id="rim" cx="0" cy="0" r="7"/>
  <circle id="rim2" cx="0" cy="0" r="3.5"/>
  <g id="zoomPlus">
    <use xlink:href="#rim" fill="#404040"><set attributeName="fill" to="#808080" begin="zoomplus.mouseover" end="zoomplus.mouseout"/></use>
    <path d="M-4,0h8M0,-4v8" fill="none" stroke="white" stroke-width="1.5" pointer-events="none"/>
  </g>
  <g id="zoomMin">
    <use xlink:href="#rim" fill="#404040"><set attributeName="fill" to="#808080" begin="zoomminus.mouseover" end="zoomminus.mouseout"/></use>
    <path d="M-4,0h8" fill="none" stroke="white" stroke-width="1.5" pointer-events="none"/>
  </g>
  <g id="arrowUp" transform="translate(30 24)">
    <use xlink:href="#rim"/>
    <path pointer-events="none" fill="none" stroke="white" stroke-width="1.5" d="M0,-3.0v7 M-2.5,-0.5L0,-3.0L2.5,-0.5"/>
  </g>
  <g id="arrowRight" transform="rotate(90) translate(36 -43)">
    <use xlink:href="#rim"/>
    <path pointer-events="none" fill="none" stroke="white" stroke-width="1.5" d="M0,-3.0v7 M-2.5,-0.5L0,-3.0L2.5,-0.5"/>
  </g>
  <g id="arrowDown" transform="rotate(180) translate(-30 -48)">
    <use xlink:href="#rim"/>
    <path pointer-events="none" fill="none" stroke="white" stroke-width="1.5" d="M0,-3.0v7 M-2.5,-0.5L0,-3.0L2.5,-0.5"/>
  </g>
  <g id="arrowLeft" transform="rotate(270) translate(-36 17)">
    <use xlink:href="#rim"/>
    <path pointer-events="none" fill="none" stroke="white" stroke-width="1.5" d="M0,-3.0v7 M-2.5,-0.5L0,-3.0L2.5,-0.5"/>
  </g>
  <g id="resetDef">
    <use xlink:href="#rim2" fill="#404040"><set attributeName="fill" to="#808080" begin="reset.mouseover" end="reset.mouseout"/></use>
  </g>
</defs>
<script type="application/ecmascript">
var viewWidth = 1319;
var viewHeight = 1143;
var sectionId = 'dynsection-30';
</script>
<script type="application/ecmascript" xlink:href="../../svg.min.js"/>
<svg id="graph" class="graph">
<g id="viewport">
<title>LSM1x0A_Sigfox::testContinuousWave</title>
<!-- Node1 -->
<g id="Node000001" class="node">
<title>Node1</title>
<g id="a_Node000001"><a xlink:title="Continuous Wave (CW) test.">
<polygon fill="#999999" stroke="#666666" points="188.5,-490.95 0,-490.95 0,-470.95 188.5,-470.95 188.5,-490.95"/>
<text text-anchor="middle" x="94.25" y="-477.45" font-family="Helvetica,sans-Serif" font-size="10.00">LSM1x0A_Sigfox::testContinuousWave</text>
</a>
</g>
</g>
<!-- Node2 -->
<g id="Node000002" class="node">
<title>Node2</title>
<g id="a_Node000002"><a xlink:href="../../d8/d92/classLSM1x0A__Controller.html#afd7d92e60ed6fdae696a955cdbe0ed8c" target="_top" xlink:title="Sends any AT command to the module, returning error if it fails. Internally uses the LsmAtParser logi...">
<polygon fill="white" stroke="#666666" points="330.5,-496.95 224.5,-496.95 224.5,-464.95 330.5,-464.95 330.5,-496.95"/>
<text text-anchor="start" x="232.5" y="-483.45" font-family="Helvetica,sans-Serif" font-size="10.00">LSM1x0A_Controller</text>
<text text-anchor="middle" x="277.5" y="-471.45" font-family="Helvetica,sans-Serif" font-size="10.00">::sendCommand</text>
</a>
</g>
</g>
<!-- Node1&#45;&gt;Node2 -->
<g id="edge1_Node000001_Node000002" class="edge">
<title>Node1&#45;&gt;Node2</title>
<g id="a_edge1_Node000001_Node000002"><a xlink:title=" ">
<path fill="none" stroke="#63b8ff" d="M188.8,-480.95C196.84,-480.95 204.86,-480.95 212.59,-480.95"/>
<polygon fill="#63b8ff" stroke="#63b8ff" points="212.56,-484.45 222.56,-480.95 212.56,-477.45 212.56,-484.45"/>
</a>
</g>
</g>
<!-- Node3 -->
<g id="Node000003" class="node">
<title>Node3</title>
<g id="a_Node000003"><a xlink:href="../../d8/d92/classLSM1x0A__Controller.html#abb0eb380daa3dfb7acffb483c5db8e2b" target="_top" xlink:title="Executes the recovery protocol. First Soft&#45;Reset (ATZ), then Hard&#45;Reset if there is a pin.">
<polygon fill="white" stroke="#666666" points="472.5,-938.95 366.5,-938.95 366.5,-906.95 472.5,-906.95 472.5,-938.95"/>
<text text-anchor="start" x="374.5" y="-925.45" font-family="Helvetica,sans-Serif" font-size="10.00">LSM1x0A_Controller</text>
<text text-anchor="middle" x="419.5" y="-913.45" font-family="Helvetica,sans-Serif" font-size="10.00">::recoverModule</text>
</a>
</g>
</g>
<!-- Node2&#45;&gt;Node3 -->
<g id="edge2_Node000002_Node000003" class="edge">
<title>Node2&#45;&gt;Node3</title>
<g id="a_edge2_Node000002_Node000003"><a xlink:title=" ">
<path fill="none" stroke="#63b8ff" d="M282.05,-497.39C292.61,-545.46 325.66,-689.56 366.5,-804.95 377.85,-837.01 394.04,-872.58 405.33,-896.2"/>
<polygon fill="#63b8ff" stroke="#63b8ff" points="402.13,-897.62 409.63,-905.1 408.43,-894.57 402.13,-897.62"/>
</a>
</g>
</g>
<!-- Node31 -->
<g id="Node000031" class="node">
<title>Node31</title>
<g id="a_Node000031"><a xlink:href="../../d6/d3c/classLSM1x0A__AtParser.html#a29b53c521974387ba6c03afadfaffa4a" target="_top" xlink:title="Sends a simple command and waits for OK/ERROR. Example: sendCommand(&quot;AT+JOIN&quot;);.">
<polygon fill="white" stroke="#666666" points="887,-1118.95 712.75,-1118.95 712.75,-1098.95 887,-1098.95 887,-1118.95"/>
<text text-anchor="middle" x="799.88" y="-1105.45" font-family="Helvetica,sans-Serif" font-size="10.00">LSM1x0A_AtParser::sendCommand</text>
</a>
</g>
</g>
<!-- Node2&#45;&gt;Node31 -->
<g id="edge55_Node000002_Node000031" class="edge">
<title>Node2&#45;&gt;Node31</title>
<g id="a_edge55_Node000002_Node000031"><a xlink:title=" ">
<path fill="none" stroke="#63b8ff" d="M278.56,-497.2C279.38,-559.15 287.92,-785.25 366.5,-947.95 408.43,-1034.77 420.81,-1071.88 508.5,-1111.95 586.26,-1147.48 688.41,-1134.62 748.52,-1121.89"/>
<polygon fill="#63b8ff" stroke="#63b8ff" points="749.11,-1125.34 758.12,-1119.77 747.6,-1118.51 749.11,-1125.34"/>
</a>
</g>
</g>
<!-- Node4 -->
<g id="Node000004" class="node">
<title>Node4</title>
<g id="a_Node000004"><a xlink:href="../../d8/d92/classLSM1x0A__Controller.html#a3f6f25b843fe4fb7042c544deae2ab16" target="_top" xlink:title="Manually clears bits from the internal EventGroup.">
<polygon fill="white" stroke="#666666" points="1080.75,-957.95 974.75,-957.95 974.75,-925.95 1080.75,-925.95 1080.75,-957.95"/>
<text text-anchor="start" x="982.75" y="-944.45" font-family="Helvetica,sans-Serif" font-size="10.00">LSM1x0A_Controller</text>
<text text-anchor="middle" x="1027.75" y="-932.45" font-family="Helvetica,sans-Serif" font-size="10.00">::clearEvents</text>
</a>
</g>
</g>
<!-- Node3&#45;&gt;Node4 -->
<g id="edge3_Node000003_Node000004" class="edge">
<title>Node3&#45;&gt;Node4</title>
<g id="a_edge3_Node000003_Node000004"><a xlink:title=" ">
<path fill="none" stroke="#63b8ff" d="M436.58,-939.29C453,-954.72 480.06,-976.82 508.5,-985.95 668.07,-1037.18 868.66,-991 966.93,-961.72"/>
<polygon fill="#63b8ff" stroke="#63b8ff" points="967.82,-965.11 976.37,-958.86 965.79,-958.41 967.82,-965.11"/>
</a>
</g>
</g>
<!-- Node5 -->
<g id="Node000005" class="node">
<title>Node5</title>
<g id="a_Node000005"><a xlink:href="../../d8/d92/classLSM1x0A__Controller.html#a345d4bd79fa16b18dc33a4ca788fe5f7" target="_top" xlink:title="Performs a hardware reset using the reset pin.">
<polygon fill="white" stroke="#666666" points="640.75,-938.95 534.75,-938.95 534.75,-906.95 640.75,-906.95 640.75,-938.95"/>
<text text-anchor="start" x="542.75" y="-925.45" font-family="Helvetica,sans-Serif" font-size="10.00">LSM1x0A_Controller</text>
<text text-anchor="middle" x="587.75" y="-913.45" font-family="Helvetica,sans-Serif" font-size="10.00">::hardwareReset</text>
</a>
</g>
</g>
<!-- Node3&#45;&gt;Node5 -->
<g id="edge4_Node000003_Node000005" class="edge">
<title>Node3&#45;&gt;Node5</title>
<g id="a_edge4_Node000003_Node000005"><a xlink:title=" ">
<path fill="none" stroke="#63b8ff" d="M472.65,-922.95C488.66,-922.95 506.47,-922.95 523.16,-922.95"/>
<polygon fill="#63b8ff" stroke="#63b8ff" points="522.99,-926.45 532.99,-922.95 522.99,-919.45 522.99,-926.45"/>
</a>
</g>
</g>
<!-- Node7 -->
<g id="Node000007" class="node">
<title>Node7</title>
<g id="a_Node000007"><a xlink:href="../../d5/d72/classLSM1x0A__LoRaWAN.html#a1892801e37c8cd67d37c76108d6f7d49" target="_top" xlink:title="Validates if the device is currently Joined to the network. (Either confirmed by OTAA or statically a...">
<polygon fill="white" stroke="#666666" points="1311.25,-926.95 1158.75,-926.95 1158.75,-906.95 1311.25,-906.95 1311.25,-926.95"/>
<text text-anchor="middle" x="1235" y="-913.45" font-family="Helvetica,sans-Serif" font-size="10.00">LSM1x0A_LoRaWAN::isJoined</text>
</a>
</g>
</g>
<!-- Node3&#45;&gt;Node7 -->
<g id="edge6_Node000003_Node000007" class="edge">
<title>Node3&#45;&gt;Node7</title>
<g id="a_edge6_Node000003_Node000007"><a xlink:title=" ">
<path fill="none" stroke="#63b8ff" d="M466.44,-939.25C468.58,-940.7 470.61,-942.26 472.5,-943.95 497.67,-966.51 479.49,-993.6 508.5,-1010.95 519.2,-1017.34 834.66,-1014.94 896.75,-1008.95 998.44,-999.13 1025.24,-997.44 1122.75,-966.95 1151.58,-957.93 1182.83,-943.44 1204.84,-932.37"/>
<polygon fill="#63b8ff" stroke="#63b8ff" points="1206.2,-935.61 1213.51,-927.94 1203.01,-929.38 1206.2,-935.61"/>
</a>
</g>
</g>
<!-- Node8 -->
<g id="Node000008" class="node">
<title>Node8</title>
<g id="a_Node000008"><a xlink:href="../../d5/d72/classLSM1x0A__LoRaWAN.html#a83e11c0e74ff9e0757db616ab1163424" target="_top" xlink:title="Attempts to recover a lost connection (re&#45;executes OTAA Join if dropped).">
<polygon fill="white" stroke="#666666" points="662.12,-850.95 513.38,-850.95 513.38,-818.95 662.12,-818.95 662.12,-850.95"/>
<text text-anchor="start" x="521.38" y="-837.45" font-family="Helvetica,sans-Serif" font-size="10.00">LSM1x0A_LoRaWAN::recover</text>
<text text-anchor="middle" x="587.75" y="-825.45" font-family="Helvetica,sans-Serif" font-size="10.00">Connection</text>
</a>
</g>
</g>
<!-- Node3&#45;&gt;Node8 -->
<g id="edge7_Node000003_Node000008" class="edge">
<title>Node3&#45;&gt;Node8</title>
<g id="a_edge7_Node000003_Node000008"><a xlink:title=" ">
<path fill="none" stroke="#63b8ff" d="M442.47,-906.53C459.8,-894.07 484.9,-877.07 508.5,-864.95 514.79,-861.72 521.5,-858.64 528.26,-855.76"/>
<polygon fill="#63b8ff" stroke="#63b8ff" points="529.53,-859.02 537.46,-851.99 526.88,-852.55 529.53,-859.02"/>
</a>
</g>
</g>
<!-- Node12 -->
<g id="Node000012" class="node">
<title>Node12</title>
<g id="a_Node000012"><a xlink:href="../../d5/d72/classLSM1x0A__LoRaWAN.html#ae3be4ce59dfa200369733317df356e97" target="_top" xlink:title="Pushes the RAM&#45;cached variables back down into the hardware module. Restores the operational state af...">
<polygon fill="white" stroke="#666666" points="661,-496.95 514.5,-496.95 514.5,-464.95 661,-464.95 661,-496.95"/>
<text text-anchor="start" x="522.5" y="-483.45" font-family="Helvetica,sans-Serif" font-size="10.00">LSM1x0A_LoRaWAN::restore</text>
<text text-anchor="middle" x="587.75" y="-471.45" font-family="Helvetica,sans-Serif" font-size="10.00">Config</text>
</a>
</g>
</g>
<!-- Node3&#45;&gt;Node12 -->
<g id="edge16_Node000003_Node000012" class="edge">
<title>Node3&#45;&gt;Node12</title>
<g id="a_edge16_Node000003_Node000012"><a xlink:title=" ">
<path fill="none" stroke="#63b8ff" d="M426.61,-906.69C451.51,-840.5 545.42,-590.84 576.61,-507.91"/>
<polygon fill="#63b8ff" stroke="#63b8ff" points="579.8,-509.36 580.05,-498.77 573.25,-506.9 579.8,-509.36"/>
</a>
</g>
</g>
<!-- Node29 -->
<g id="Node000029" class="node">
<title>Node29</title>
<g id="a_Node000029"><a xlink:href="../../d5/d72/classLSM1x0A__LoRaWAN.html#ace4b04396f1de1f4a54f513f5f378db7" target="_top" xlink:title="Manually overrides the internal joined state tracker.">
<polygon fill="white" stroke="#666666" points="667,-976.95 508.5,-976.95 508.5,-956.95 667,-956.95 667,-976.95"/>
<text text-anchor="middle" x="587.75" y="-963.45" font-family="Helvetica,sans-Serif" font-size="10.00">LSM1x0A_LoRaWAN::setJoined</text>
</a>
</g>
</g>
<!-- Node3&#45;&gt;Node29 -->
<g id="edge50_Node000003_Node000029" class="edge">
<title>Node3&#45;&gt;Node29</title>
<g id="a_edge50_Node000003_Node000029"><a xlink:title=" ">
<path fill="none" stroke="#63b8ff" d="M472.99,-938.22C484.66,-941.51 496.98,-944.91 508.5,-947.95 515.86,-949.89 523.62,-951.86 531.29,-953.76"/>
<polygon fill="#63b8ff" stroke="#63b8ff" points="530.38,-957.14 540.93,-956.13 532.05,-950.35 530.38,-957.14"/>
</a>
</g>
</g>
<!-- Node30 -->
<g id="Node000030" class="node">
<title>Node30</title>
<g id="a_Node000030"><a xlink:href="../../d8/d92/classLSM1x0A__Controller.html#a11ad21cb5ca33ec51346764a23bd485e" target="_top" xlink:title="Performs a software reset (ATZ Command).">
<polygon fill="white" stroke="#666666" points="640.75,-1102.95 534.75,-1102.95 534.75,-1070.95 640.75,-1070.95 640.75,-1102.95"/>
<text text-anchor="start" x="542.75" y="-1089.45" font-family="Helvetica,sans-Serif" font-size="10.00">LSM1x0A_Controller</text>
<text text-anchor="middle" x="587.75" y="-1077.45" font-family="Helvetica,sans-Serif" font-size="10.00">::softwareReset</text>
</a>
</g>
</g>
<!-- Node3&#45;&gt;Node30 -->
<g id="edge51_Node000003_Node000030" class="edge">
<title>Node3&#45;&gt;Node30</title>
<g id="a_edge51_Node000003_Node000030"><a xlink:title=" ">
<path fill="none" stroke="#63b8ff" d="M427.2,-939.34C439.39,-967.25 467.75,-1024.13 508.5,-1056.95 513.32,-1060.83 518.69,-1064.24 524.3,-1067.25"/>
<polygon fill="#63b8ff" stroke="#63b8ff" points="522.71,-1070.36 533.23,-1071.55 525.75,-1064.06 522.71,-1070.36"/>
</a>
</g>
</g>
<!-- Node6 -->
<g id="Node000006" class="node">
<title>Node6</title>
<g id="a_Node000006"><a xlink:href="../../d6/d3c/classLSM1x0A__AtParser.html#ad2839120da13e56132b95019419be1e5" target="_top" xlink:title="Waits for an event (like BOOTALERT) without sending any command. Useful for hardware reset where the ...">
<polygon fill="white" stroke="#666666" points="870.12,-938.95 729.62,-938.95 729.62,-906.95 870.12,-906.95 870.12,-938.95"/>
<text text-anchor="start" x="737.62" y="-925.45" font-family="Helvetica,sans-Serif" font-size="10.00">LSM1x0A_AtParser::waitFor</text>
<text text-anchor="middle" x="799.88" y="-913.45" font-family="Helvetica,sans-Serif" font-size="10.00">Event</text>
</a>
</g>
</g>
<!-- Node5&#45;&gt;Node6 -->
<g id="edge5_Node000005_Node000006" class="edge">
<title>Node5&#45;&gt;Node6</title>
<g id="a_edge5_Node000005_Node000006"><a xlink:title=" ">
<path fill="none" stroke="#63b8ff" d="M641.23,-922.95C664.42,-922.95 692.22,-922.95 717.96,-922.95"/>
<polygon fill="#63b8ff" stroke="#63b8ff" points="717.72,-926.45 727.72,-922.95 717.72,-919.45 717.72,-926.45"/>
</a>
</g>
</g>
<!-- Node9 -->
<g id="Node000009" class="node">
<title>Node9</title>
<g id="a_Node000009"><a xlink:href="../../d5/d72/classLSM1x0A__LoRaWAN.html#a59f781f3cfd30c11cd3973bcb10a7baa" target="_top" xlink:title="Initiates a LoRaWAN Network Join procedure. This is a blocking function until the module fires an eve...">
<polygon fill="white" stroke="#666666" points="865.62,-844.95 734.12,-844.95 734.12,-824.95 865.62,-824.95 865.62,-844.95"/>
<text text-anchor="middle" x="799.88" y="-831.45" font-family="Helvetica,sans-Serif" font-size="10.00">LSM1x0A_LoRaWAN::join</text>
</a>
</g>
</g>
<!-- Node8&#45;&gt;Node9 -->
<g id="edge8_Node000008_Node000009" class="edge">
<title>Node8&#45;&gt;Node9</title>
<g id="a_edge8_Node000008_Node000009"><a xlink:title=" ">
<path fill="none" stroke="#63b8ff" d="M662.54,-834.95C681.91,-834.95 702.85,-834.95 722.36,-834.95"/>
<polygon fill="#63b8ff" stroke="#63b8ff" points="722.15,-838.45 732.15,-834.95 722.15,-831.45 722.15,-838.45"/>
</a>
</g>
</g>
<!-- Node9&#45;&gt;Node2 -->
<g id="edge11_Node000009_Node000002" class="edge">
<title>Node9&#45;&gt;Node2</title>
<g id="a_edge11_Node000009_Node000002"><a xlink:title=" ">
<path fill="none" stroke="#63b8ff" d="M745.65,-824.5C687.02,-812.53 590.23,-791.38 508.5,-766.95 444.11,-747.69 414.23,-762.27 366.5,-714.95 308.23,-657.18 288.03,-557.13 281.45,-508.74"/>
<polygon fill="#63b8ff" stroke="#63b8ff" points="284.93,-508.33 280.22,-498.84 277.98,-509.2 284.93,-508.33"/>
</a>
</g>
</g>
<!-- Node9&#45;&gt;Node3 -->
<g id="edge10_Node000009_Node000003" class="edge">
<title>Node9&#45;&gt;Node3</title>
<g id="a_edge10_Node000009_Node000003"><a xlink:title=" ">
<path fill="none" stroke="#63b8ff" d="M745.65,-845.44C687.24,-857.21 590.82,-877.35 508.5,-897.95 500.56,-899.94 492.24,-902.14 484.03,-904.39"/>
<polygon fill="#63b8ff" stroke="#63b8ff" points="483.09,-901.01 474.4,-907.06 484.97,-907.76 483.09,-901.01"/>
</a>
</g>
</g>
<!-- Node9&#45;&gt;Node4 -->
<g id="edge9_Node000009_Node000004" class="edge">
<title>Node9&#45;&gt;Node4</title>
<g id="a_edge9_Node000009_Node000004"><a xlink:title=" ">
<path fill="none" stroke="#63b8ff" d="M822.94,-845.4C859.66,-862.79 933.98,-898 982.01,-920.75"/>
<polygon fill="#63b8ff" stroke="#63b8ff" points="980.22,-923.78 990.76,-924.9 983.22,-917.45 980.22,-923.78"/>
</a>
</g>
</g>
<!-- Node10 -->
<g id="Node000010" class="node">
<title>Node10</title>
<g id="a_Node000010"><a xlink:href="../../d5/d72/classLSM1x0A__LoRaWAN.html#a3fdd1ac318a5ad2559323e5d57e36a5e" target="_top" xlink:title="Enables or disables specific sub&#45;bands for regions supporting Channel Masks (e.g.,...">
<polygon fill="white" stroke="#666666" points="1122.75,-654.95 932.75,-654.95 932.75,-634.95 1122.75,-634.95 1122.75,-654.95"/>
<text text-anchor="middle" x="1027.75" y="-641.45" font-family="Helvetica,sans-Serif" font-size="10.00">LSM1x0A_LoRaWAN::setChannelMask</text>
</a>
</g>
</g>
<!-- Node9&#45;&gt;Node10 -->
<g id="edge12_Node000009_Node000010" class="edge">
<title>Node9&#45;&gt;Node10</title>
<g id="a_edge12_Node000009_Node000010"><a xlink:title=" ">
<path fill="none" stroke="#63b8ff" d="M860.18,-824.45C872.9,-820.55 885.8,-815.22 896.75,-807.95 953.62,-770.19 997.25,-699.61 1016.29,-665.05"/>
<polygon fill="#63b8ff" stroke="#63b8ff" points="1019.22,-666.98 1020.87,-656.52 1013.05,-663.67 1019.22,-666.98"/>
</a>
</g>
</g>
<!-- Node11 -->
<g id="Node000011" class="node">
<title>Node11</title>
<g id="a_Node000011"><a xlink:href="../../d8/d92/classLSM1x0A__Controller.html#a62476e30e50c7fe120aeb8df4b828675" target="_top" xlink:title="Synchronously/blockingly waits for an asynchronous event to occur. Useful for wrapping commands like ...">
<polygon fill="white" stroke="#666666" points="1080.75,-850.95 974.75,-850.95 974.75,-818.95 1080.75,-818.95 1080.75,-850.95"/>
<text text-anchor="start" x="982.75" y="-837.45" font-family="Helvetica,sans-Serif" font-size="10.00">LSM1x0A_Controller</text>
<text text-anchor="middle" x="1027.75" y="-825.45" font-family="Helvetica,sans-Serif" font-size="10.00">::waitForEvent</text>
</a>
</g>
</g>
<!-- Node9&#45;&gt;Node11 -->
<g id="edge15_Node000009_Node000011" class="edge">
<title>Node9&#45;&gt;Node11</title>
<g id="a_edge15_Node000009_Node000011"><a xlink:title=" ">
<path fill="none" stroke="#63b8ff" d="M865.9,-834.95C896.41,-834.95 932.65,-834.95 962.99,-834.95"/>
<polygon fill="#63b8ff" stroke="#63b8ff" points="962.8,-838.45 972.8,-834.95 962.8,-831.45 962.8,-838.45"/>
</a>
</g>
</g>
<!-- Node10&#45;&gt;Node2 -->
<g id="edge14_Node000010_Node000002" class="edge">
<title>Node10&#45;&gt;Node2</title>
<g id="a_edge14_Node000010_Node000002"><a xlink:title=" ">
<path fill="none" stroke="#63b8ff" d="M1025.97,-634.73C1020.52,-566.01 985.6,-172.04 896.75,-101.95 711.59,44.11 547.65,29.06 366.5,-121.95 314.92,-164.95 288.86,-377.61 281.07,-453.76"/>
<polygon fill="#63b8ff" stroke="#63b8ff" points="277.63,-452.96 280.12,-463.26 284.59,-453.65 277.63,-452.96"/>
</a>
</g>
</g>
<!-- Node10&#45;&gt;Node7 -->
<g id="edge13_Node000010_Node000007" class="edge">
<title>Node10&#45;&gt;Node7</title>
<g id="a_edge13_Node000010_Node000007"><a xlink:title=" ">
<path fill="none" stroke="#63b8ff" d="M1036.55,-655.28C1067.09,-695.76 1178.92,-843.95 1219.32,-897.49"/>
<polygon fill="#63b8ff" stroke="#63b8ff" points="1216.47,-899.52 1225.29,-905.4 1222.06,-895.31 1216.47,-899.52"/>
</a>
</g>
</g>
<!-- Node12&#45;&gt;Node10 -->
<g id="edge21_Node000012_Node000010" class="edge">
<title>Node12&#45;&gt;Node10</title>
<g id="a_edge21_Node000012_Node000010"><a xlink:title=" ">
<path fill="none" stroke="#63b8ff" d="M661.24,-484.29C738.9,-488.81 856.43,-498.64 896.75,-517.95 948.68,-542.82 992.63,-596.76 1013.59,-625.7"/>
<polygon fill="#63b8ff" stroke="#63b8ff" points="1010.52,-627.41 1019.15,-633.56 1016.24,-623.37 1010.52,-627.41"/>
</a>
</g>
</g>
<!-- Node13 -->
<g id="Node000013" class="node">
<title>Node13</title>
<g id="a_Node000013"><a xlink:href="../../d5/d72/classLSM1x0A__LoRaWAN.html#af0baa3db4c7fab580d6b19a9e92472f6" target="_top" xlink:title="Enables or disables Adaptive Data Rate (ADR).">
<polygon fill="white" stroke="#666666" points="875.75,-798.95 724,-798.95 724,-778.95 875.75,-778.95 875.75,-798.95"/>
<text text-anchor="middle" x="799.88" y="-785.45" font-family="Helvetica,sans-Serif" font-size="10.00">LSM1x0A_LoRaWAN::setADR</text>
</a>
</g>
</g>
<!-- Node12&#45;&gt;Node13 -->
<g id="edge17_Node000012_Node000013" class="edge">
<title>Node12&#45;&gt;Node13</title>
<g id="a_edge17_Node000012_Node000013"><a xlink:title=" ">
<path fill="none" stroke="#63b8ff" d="M589.93,-497.13C594.45,-546.58 615.15,-696.7 703,-769.95 706.25,-772.66 709.79,-775.03 713.51,-777.08"/>
<polygon fill="#63b8ff" stroke="#63b8ff" points="711.84,-780.17 722.38,-781.21 714.79,-773.82 711.84,-780.17"/>
</a>
</g>
</g>
<!-- Node14 -->
<g id="Node000014" class="node">
<title>Node14</title>
<g id="a_Node000014"><a xlink:href="../../d5/d72/classLSM1x0A__LoRaWAN.html#a5365ed1596eb84ebf1e3b33b4a10c788" target="_top" xlink:title="Sets the LoRaWAN operational frequency band.">
<polygon fill="white" stroke="#666666" points="876.12,-760.95 723.62,-760.95 723.62,-740.95 876.12,-740.95 876.12,-760.95"/>
<text text-anchor="middle" x="799.88" y="-747.45" font-family="Helvetica,sans-Serif" font-size="10.00">LSM1x0A_LoRaWAN::setBand</text>
</a>
</g>
</g>
<!-- Node12&#45;&gt;Node14 -->
<g id="edge19_Node000012_Node000014" class="edge">
<title>Node12&#45;&gt;Node14</title>
<g id="a_edge19_Node000012_Node000014"><a xlink:title=" ">
<path fill="none" stroke="#63b8ff" d="M591.01,-497.27C598.17,-542.46 624.73,-669.99 703,-731.95 706.16,-734.45 709.55,-736.64 713.11,-738.58"/>
<polygon fill="#63b8ff" stroke="#63b8ff" points="711.6,-741.74 722.15,-742.72 714.52,-735.37 711.6,-741.74"/>
</a>
</g>
</g>
<!-- Node15 -->
<g id="Node000015" class="node">
<title>Node15</title>
<g id="a_Node000015"><a xlink:href="../../d5/d72/classLSM1x0A__LoRaWAN.html#a9d9285c43414337a0ccb3a6cd7ca06e6" target="_top" xlink:title="Configures the number of retries for Confirmed uplinks.">
<polygon fill="white" stroke="#666666" points="882.12,-722.95 717.62,-722.95 717.62,-690.95 882.12,-690.95 882.12,-722.95"/>
<text text-anchor="start" x="725.62" y="-709.45" font-family="Helvetica,sans-Serif" font-size="10.00">LSM1x0A_LoRaWAN::setConfirm</text>
<text text-anchor="middle" x="799.88" y="-697.45" font-family="Helvetica,sans-Serif" font-size="10.00">Retry</text>
</a>
</g>
</g>
<!-- Node12&#45;&gt;Node15 -->
<g id="edge22_Node000012_Node000015" class="edge">
<title>Node12&#45;&gt;Node15</title>
<g id="a_edge22_Node000012_Node000015"><a xlink:title=" ">
<path fill="none" stroke="#63b8ff" d="M593.27,-497.42C604.73,-535.98 638.67,-632.59 703,-681.95 704.36,-682.99 705.77,-684 707.21,-684.96"/>
<polygon fill="#63b8ff" stroke="#63b8ff" points="705.43,-687.98 715.84,-689.96 708.94,-681.92 705.43,-687.98"/>
</a>
</g>
</g>
<!-- Node16 -->
<g id="Node000016" class="node">
<title>Node16</title>
<g id="a_Node000016"><a xlink:href="../../d5/d72/classLSM1x0A__LoRaWAN.html#a56345ceeafa0b9059d6de4e69eddc82e" target="_top" xlink:title="Sets the Data Rate (DR) of the module.">
<polygon fill="white" stroke="#666666" points="885.88,-672.95 713.88,-672.95 713.88,-652.95 885.88,-652.95 885.88,-672.95"/>
<text text-anchor="middle" x="799.88" y="-659.45" font-family="Helvetica,sans-Serif" font-size="10.00">LSM1x0A_LoRaWAN::setDataRate</text>
</a>
</g>
</g>
<!-- Node12&#45;&gt;Node16 -->
<g id="edge24_Node000012_Node000016" class="edge">
<title>Node12&#45;&gt;Node16</title>
<g id="a_edge24_Node000012_Node000016"><a xlink:title=" ">
<path fill="none" stroke="#63b8ff" d="M595.18,-497.26C609.24,-530.68 646.11,-606.87 703,-643.95 705.14,-645.34 707.35,-646.63 709.63,-647.84"/>
<polygon fill="#63b8ff" stroke="#63b8ff" points="708.05,-650.96 718.6,-651.92 710.95,-644.59 708.05,-650.96"/>
</a>
</g>
</g>
<!-- Node17 -->
<g id="Node000017" class="node">
<title>Node17</title>
<g id="a_Node000017"><a xlink:href="../../d5/d72/classLSM1x0A__LoRaWAN.html#a8494083816ab885cb07fc3b08de029f4" target="_top" xlink:title="Sets the LoRaWAN Device Address (DevAddr) for ABP mode.">
<polygon fill="white" stroke="#666666" points="884,-634.95 715.75,-634.95 715.75,-614.95 884,-614.95 884,-634.95"/>
<text text-anchor="middle" x="799.88" y="-621.45" font-family="Helvetica,sans-Serif" font-size="10.00">LSM1x0A_LoRaWAN::setDevAddr</text>
</a>
</g>
</g>
<!-- Node12&#45;&gt;Node17 -->
<g id="edge26_Node000012_Node000017" class="edge">
<title>Node12&#45;&gt;Node17</title>
<g id="a_edge26_Node000012_Node000017"><a xlink:title=" ">
<path fill="none" stroke="#63b8ff" d="M598.74,-497.41C616.22,-524.7 655.1,-578.97 703,-605.95 705.84,-607.55 708.8,-609.02 711.83,-610.36"/>
<polygon fill="#63b8ff" stroke="#63b8ff" points="710.42,-613.57 721.01,-613.93 712.96,-607.04 710.42,-613.57"/>
</a>
</g>
</g>
<!-- Node18 -->
<g id="Node000018" class="node">
<title>Node18</title>
<g id="a_Node000018"><a xlink:href="../../d5/d72/classLSM1x0A__LoRaWAN.html#ad320634e52d7ea907043cc50dd37c5b0" target="_top" xlink:title="Sets the LoRaWAN Device EUI (DevEUI).">
<polygon fill="white" stroke="#666666" points="882.5,-596.95 717.25,-596.95 717.25,-576.95 882.5,-576.95 882.5,-596.95"/>
<text text-anchor="middle" x="799.88" y="-583.45" font-family="Helvetica,sans-Serif" font-size="10.00">LSM1x0A_LoRaWAN::setDevEUI</text>
</a>
</g>
</g>
<!-- Node12&#45;&gt;Node18 -->
<g id="edge28_Node000012_Node000018" class="edge">
<title>Node12&#45;&gt;Node18</title>
<g id="a_edge28_Node000012_Node000018"><a xlink:title=" ">
<path fill="none" stroke="#63b8ff" d="M604.95,-497.21C625.77,-517.12 663.9,-550.34 703,-567.95 707.26,-569.87 711.72,-571.6 716.28,-573.15"/>
<polygon fill="#63b8ff" stroke="#63b8ff" points="715.03,-576.43 725.62,-576.02 717.09,-569.74 715.03,-576.43"/>
</a>
</g>
</g>
<!-- Node19 -->
<g id="Node000019" class="node">
<title>Node19</title>
<g id="a_Node000019"><a xlink:href="../../d5/d72/classLSM1x0A__LoRaWAN.html#a031023b0d2dd5db3c51c2db6ae7801cc" target="_top" xlink:title="Enables or disables the Duty Cycle limitation (EU regions mostly).">
<polygon fill="white" stroke="#666666" points="875.38,-558.95 724.38,-558.95 724.38,-526.95 875.38,-526.95 875.38,-558.95"/>
<text text-anchor="start" x="732.38" y="-545.45" font-family="Helvetica,sans-Serif" font-size="10.00">LSM1x0A_LoRaWAN::setDuty</text>
<text text-anchor="middle" x="799.88" y="-533.45" font-family="Helvetica,sans-Serif" font-size="10.00">Cycle</text>
</a>
</g>
</g>
<!-- Node12&#45;&gt;Node19 -->
<g id="edge30_Node000012_Node000019" class="edge">
<title>Node12&#45;&gt;Node19</title>
<g id="a_edge30_Node000012_Node000019"><a xlink:title=" ">
<path fill="none" stroke="#63b8ff" d="M644.51,-497.4C671.45,-505.35 703.98,-514.95 732.23,-523.28"/>
<polygon fill="#63b8ff" stroke="#63b8ff" points="731.19,-526.62 741.77,-526.1 733.17,-519.91 731.19,-526.62"/>
</a>
</g>
</g>
<!-- Node20 -->
<g id="Node000020" class="node">
<title>Node20</title>
<g id="a_Node000020"><a xlink:href="../../d5/d72/classLSM1x0A__LoRaWAN.html#a6b179d5825c49af0f391dfc539912f64" target="_top" xlink:title="Sets the delay for the Join1 receive window.">
<polygon fill="white" stroke="#666666" points="876.5,-470.95 723.25,-470.95 723.25,-438.95 876.5,-438.95 876.5,-470.95"/>
<text text-anchor="start" x="731.25" y="-457.45" font-family="Helvetica,sans-Serif" font-size="10.00">LSM1x0A_LoRaWAN::setJoin1</text>
<text text-anchor="middle" x="799.88" y="-445.45" font-family="Helvetica,sans-Serif" font-size="10.00">Delay</text>
</a>
</g>
</g>
<!-- Node12&#45;&gt;Node20 -->
<g id="edge32_Node000012_Node000020" class="edge">
<title>Node12&#45;&gt;Node20</title>
<g id="a_edge32_Node000012_Node000020"><a xlink:title=" ">
<path fill="none" stroke="#63b8ff" d="M661.36,-471.96C677.71,-469.94 695.22,-467.77 712.08,-465.69"/>
<polygon fill="#63b8ff" stroke="#63b8ff" points="712.05,-469.22 721.55,-464.52 711.19,-462.27 712.05,-469.22"/>
</a>
</g>
</g>
<!-- Node21 -->
<g id="Node000021" class="node">
<title>Node21</title>
<g id="a_Node000021"><a xlink:href="../../d5/d72/classLSM1x0A__LoRaWAN.html#a4545d0caad41558cdb9bae8286b104d8" target="_top" xlink:title="Sets the delay for the Join2 receive window.">
<polygon fill="white" stroke="#666666" points="876.5,-420.95 723.25,-420.95 723.25,-388.95 876.5,-388.95 876.5,-420.95"/>
<text text-anchor="start" x="731.25" y="-407.45" font-family="Helvetica,sans-Serif" font-size="10.00">LSM1x0A_LoRaWAN::setJoin2</text>
<text text-anchor="middle" x="799.88" y="-395.45" font-family="Helvetica,sans-Serif" font-size="10.00">Delay</text>
</a>
</g>
</g>
<!-- Node12&#45;&gt;Node21 -->
<g id="edge34_Node000012_Node000021" class="edge">
<title>Node12&#45;&gt;Node21</title>
<g id="a_edge34_Node000012_Node000021"><a xlink:title=" ">
<path fill="none" stroke="#63b8ff" d="M621.66,-464.52C644.17,-453.71 674.92,-439.8 703,-429.95 708.29,-428.09 713.79,-426.3 719.36,-424.59"/>
<polygon fill="#63b8ff" stroke="#63b8ff" points="720.07,-428.03 728.66,-421.84 718.08,-421.32 720.07,-428.03"/>
</a>
</g>
</g>
<!-- Node22 -->
<g id="Node000022" class="node">
<title>Node22</title>
<g id="a_Node000022"><a xlink:href="../../d5/d72/classLSM1x0A__LoRaWAN.html#a06bd50723ec1eb7e144c9141b2ec86fc" target="_top" xlink:title="Sets the LoRaWAN Network ID (NetID).">
<polygon fill="white" stroke="#666666" points="880.25,-370.95 719.5,-370.95 719.5,-350.95 880.25,-350.95 880.25,-370.95"/>
<text text-anchor="middle" x="799.88" y="-357.45" font-family="Helvetica,sans-Serif" font-size="10.00">LSM1x0A_LoRaWAN::setNwkID</text>
</a>
</g>
</g>
<!-- Node12&#45;&gt;Node22 -->
<g id="edge36_Node000012_Node000022" class="edge">
<title>Node12&#45;&gt;Node22</title>
<g id="a_edge36_Node000012_Node000022"><a xlink:title=" ">
<path fill="none" stroke="#63b8ff" d="M602.01,-464.74C621.6,-441.98 660.53,-400.98 703,-379.95 706.68,-378.13 710.51,-376.48 714.45,-374.99"/>
<polygon fill="#63b8ff" stroke="#63b8ff" points="715.26,-378.41 723.61,-371.9 713.02,-371.78 715.26,-378.41"/>
</a>
</g>
</g>
<!-- Node23 -->
<g id="Node000023" class="node">
<title>Node23</title>
<g id="a_Node000023"><a xlink:href="../../d5/d72/classLSM1x0A__LoRaWAN.html#aa70ada64d28ecca216bb62268e502adf" target="_top" xlink:title="Sets the delay for the RX1 receive window.">
<polygon fill="white" stroke="#666666" points="886.62,-332.95 713.12,-332.95 713.12,-312.95 886.62,-312.95 886.62,-332.95"/>
<text text-anchor="middle" x="799.88" y="-319.45" font-family="Helvetica,sans-Serif" font-size="10.00">LSM1x0A_LoRaWAN::setRx1Delay</text>
</a>
</g>
</g>
<!-- Node12&#45;&gt;Node23 -->
<g id="edge38_Node000012_Node000023" class="edge">
<title>Node12&#45;&gt;Node23</title>
<g id="a_edge38_Node000012_Node000023"><a xlink:title=" ">
<path fill="none" stroke="#63b8ff" d="M597.2,-464.54C613.4,-434.88 651.8,-372.58 703,-341.95 705.48,-340.46 708.06,-339.09 710.71,-337.82"/>
<polygon fill="#63b8ff" stroke="#63b8ff" points="711.96,-341.09 719.84,-334.02 709.26,-334.63 711.96,-341.09"/>
</a>
</g>
</g>
<!-- Node24 -->
<g id="Node000024" class="node">
<title>Node24</title>
<g id="a_Node000024"><a xlink:href="../../d5/d72/classLSM1x0A__LoRaWAN.html#a2cf4eff0181b6107d082bccefa24217b" target="_top" xlink:title="Sets the Data Rate (DR) specifically for the RX2 window.">
<polygon fill="white" stroke="#666666" points="894.88,-294.95 704.88,-294.95 704.88,-274.95 894.88,-274.95 894.88,-294.95"/>
<text text-anchor="middle" x="799.88" y="-281.45" font-family="Helvetica,sans-Serif" font-size="10.00">LSM1x0A_LoRaWAN::setRx2DataRate</text>
</a>
</g>
</g>
<!-- Node12&#45;&gt;Node24 -->
<g id="edge40_Node000012_Node000024" class="edge">
<title>Node12&#45;&gt;Node24</title>
<g id="a_edge40_Node000012_Node000024"><a xlink:title=" ">
<path fill="none" stroke="#63b8ff" d="M594.27,-464.61C607.15,-429.11 642.79,-344.84 703,-303.95 704.97,-302.61 707.02,-301.36 709.13,-300.19"/>
<polygon fill="#63b8ff" stroke="#63b8ff" points="710.46,-303.43 717.98,-295.97 707.45,-297.11 710.46,-303.43"/>
</a>
</g>
</g>
<!-- Node25 -->
<g id="Node000025" class="node">
<title>Node25</title>
<g id="a_Node000025"><a xlink:href="../../d5/d72/classLSM1x0A__LoRaWAN.html#a42d2137b475b57e19d891a5f1ac93221" target="_top" xlink:title="Sets the delay for the RX2 receive window.">
<polygon fill="white" stroke="#666666" points="886.62,-256.95 713.12,-256.95 713.12,-236.95 886.62,-236.95 886.62,-256.95"/>
<text text-anchor="middle" x="799.88" y="-243.45" font-family="Helvetica,sans-Serif" font-size="10.00">LSM1x0A_LoRaWAN::setRx2Delay</text>
</a>
</g>
</g>
<!-- Node12&#45;&gt;Node25 -->
<g id="edge42_Node000012_Node000025" class="edge">
<title>Node12&#45;&gt;Node25</title>
<g id="a_edge42_Node000012_Node000025"><a xlink:title=" ">
<path fill="none" stroke="#63b8ff" d="M592.34,-464.6C602.18,-423.89 633.61,-317.5 703,-265.95 704.59,-264.76 706.24,-263.65 707.93,-262.6"/>
<polygon fill="#63b8ff" stroke="#63b8ff" points="709.51,-265.72 716.73,-257.97 706.25,-259.53 709.51,-265.72"/>
</a>
</g>
</g>
<!-- Node26 -->
<g id="Node000026" class="node">
<title>Node26</title>
<g id="a_Node000026"><a xlink:href="../../d5/d72/classLSM1x0A__LoRaWAN.html#a689f7dfda1dfeae11ea397c2ddf2ad37" target="_top" xlink:title="Sets the precise frequency for the RX2 window.">
<polygon fill="white" stroke="#666666" points="896.75,-218.95 703,-218.95 703,-198.95 896.75,-198.95 896.75,-218.95"/>
<text text-anchor="middle" x="799.88" y="-205.45" font-family="Helvetica,sans-Serif" font-size="10.00">LSM1x0A_LoRaWAN::setRx2Frequency</text>
</a>
</g>
</g>
<!-- Node12&#45;&gt;Node26 -->
<g id="edge44_Node000012_Node000026" class="edge">
<title>Node12&#45;&gt;Node26</title>
<g id="a_edge44_Node000012_Node000026"><a xlink:title=" ">
<path fill="none" stroke="#63b8ff" d="M590.96,-464.5C598.01,-418.96 624.31,-290.44 703,-227.95 704.33,-226.89 705.7,-225.89 707.11,-224.94"/>
<polygon fill="#63b8ff" stroke="#63b8ff" points="708.61,-228.11 715.57,-220.12 705.15,-222.03 708.61,-228.11"/>
</a>
</g>
</g>
<!-- Node27 -->
<g id="Node000027" class="node">
<title>Node27</title>
<g id="a_Node000027"><a xlink:href="../../d5/d72/classLSM1x0A__LoRaWAN.html#a1df10d7ae6bf45b537d28d3d5c4b88d7" target="_top" xlink:title="Sets the transmission power index.">
<polygon fill="white" stroke="#666666" points="884.38,-180.95 715.38,-180.95 715.38,-160.95 884.38,-160.95 884.38,-180.95"/>
<text text-anchor="middle" x="799.88" y="-167.45" font-family="Helvetica,sans-Serif" font-size="10.00">LSM1x0A_LoRaWAN::setTxPower</text>
</a>
</g>
</g>
<!-- Node12&#45;&gt;Node27 -->
<g id="edge46_Node000012_Node000027" class="edge">
<title>Node12&#45;&gt;Node27</title>
<g id="a_edge46_Node000012_Node000027"><a xlink:title=" ">
<path fill="none" stroke="#63b8ff" d="M589.89,-464.65C594.3,-414.88 614.71,-263.73 703,-189.95 704.14,-189 705.3,-188.09 706.5,-187.23"/>
<polygon fill="#63b8ff" stroke="#63b8ff" points="708.18,-190.3 714.93,-182.14 704.56,-184.31 708.18,-190.3"/>
</a>
</g>
</g>
<!-- Node28 -->
<g id="Node000028" class="node">
<title>Node28</title>
<g id="a_Node000028"><a xlink:href="../../d5/d72/classLSM1x0A__LoRaWAN.html#a059fd6a9356c4ecadd5a98294da5952d" target="_top" xlink:title="Configures the number of repetitions for Unconfirmed uplinks.">
<polygon fill="white" stroke="#666666" points="887.38,-142.95 712.38,-142.95 712.38,-110.95 887.38,-110.95 887.38,-142.95"/>
<text text-anchor="start" x="720.38" y="-129.45" font-family="Helvetica,sans-Serif" font-size="10.00">LSM1x0A_LoRaWAN::setUnconfirm</text>
<text text-anchor="middle" x="799.88" y="-117.45" font-family="Helvetica,sans-Serif" font-size="10.00">Retry</text>
</a>
</g>
</g>
<!-- Node12&#45;&gt;Node28 -->
<g id="edge48_Node000012_Node000028" class="edge">
<title>Node12&#45;&gt;Node28</title>
<g id="a_edge48_Node000012_Node000028"><a xlink:title=" ">
<path fill="none" stroke="#63b8ff" d="M589.27,-464.75C591.9,-411.46 607.73,-239.96 703,-151.95 703.77,-151.23 704.57,-150.54 705.37,-149.86"/>
<polygon fill="#63b8ff" stroke="#63b8ff" points="707.22,-152.84 713.37,-144.21 703.19,-147.12 707.22,-152.84"/>
</a>
</g>
</g>
<!-- Node13&#45;&gt;Node2 -->
<g id="edge18_Node000013_Node000002" class="edge">
<title>Node13&#45;&gt;Node2</title>
<g id="a_edge18_Node000013_Node000002"><a xlink:title=" ">
<path fill="none" stroke="#63b8ff" d="M724.86,-778.49C615.64,-761.69 418.58,-725.64 366.5,-677.95 315.85,-631.57 292.62,-550.58 283.5,-508.34"/>
<polygon fill="#63b8ff" stroke="#63b8ff" points="286.98,-507.86 281.55,-498.76 280.12,-509.26 286.98,-507.86"/>
</a>
</g>
</g>
<!-- Node14&#45;&gt;Node2 -->
<g id="edge20_Node000014_Node000002" class="edge">
<title>Node14&#45;&gt;Node2</title>
<g id="a_edge20_Node000014_Node000002"><a xlink:title=" ">
<path fill="none" stroke="#63b8ff" d="M727.23,-740.46C619.17,-723.42 421.26,-687.03 366.5,-641.95 323.23,-606.32 297.87,-543.61 286.24,-507.88"/>
<polygon fill="#63b8ff" stroke="#63b8ff" points="289.71,-507.24 283.39,-498.74 283.02,-509.32 289.71,-507.24"/>
</a>
</g>
</g>
<!-- Node15&#45;&gt;Node2 -->
<g id="edge23_Node000015_Node000002" class="edge">
<title>Node15&#45;&gt;Node2</title>
<g id="a_edge23_Node000015_Node000002"><a xlink:title=" ">
<path fill="none" stroke="#63b8ff" d="M717.24,-696.13C607.83,-680.29 421.07,-648.15 366.5,-606.95 331.38,-580.43 304.99,-535.78 290.65,-507.37"/>
<polygon fill="#63b8ff" stroke="#63b8ff" points="293.96,-506.16 286.42,-498.71 287.67,-509.23 293.96,-506.16"/>
</a>
</g>
</g>
<!-- Node16&#45;&gt;Node2 -->
<g id="edge25_Node000016_Node000002" class="edge">
<title>Node16&#45;&gt;Node2</title>
<g id="a_edge25_Node000016_Node000002"><a xlink:title=" ">
<path fill="none" stroke="#63b8ff" d="M713.77,-660.63C622.06,-654.66 474.71,-634.71 366.5,-569.95 338.82,-553.38 313.64,-526.09 297.38,-506.09"/>
<polygon fill="#63b8ff" stroke="#63b8ff" points="300.24,-504.06 291.29,-498.39 294.75,-508.41 300.24,-504.06"/>
</a>
</g>
</g>
<!-- Node17&#45;&gt;Node2 -->
<g id="edge27_Node000017_Node000002" class="edge">
<title>Node17&#45;&gt;Node2</title>
<g id="a_edge27_Node000017_Node000002"><a xlink:title=" ">
<path fill="none" stroke="#63b8ff" d="M715.52,-618.09C626.26,-608.52 481.9,-586.49 366.5,-537.95 345.74,-529.22 324.49,-515.61 308.08,-503.88"/>
<polygon fill="#63b8ff" stroke="#63b8ff" points="310.37,-501.22 300.23,-498.14 306.24,-506.87 310.37,-501.22"/>
</a>
</g>
</g>
<!-- Node18&#45;&gt;Node2 -->
<g id="edge29_Node000018_Node000002" class="edge">
<title>Node18&#45;&gt;Node2</title>
<g id="a_edge29_Node000018_Node000002"><a xlink:title=" ">
<path fill="none" stroke="#63b8ff" d="M717.12,-576.91C629.53,-565.2 486.84,-543.35 366.5,-511.95 354.98,-508.94 342.82,-505.11 331.34,-501.17"/>
<polygon fill="#63b8ff" stroke="#63b8ff" points="332.6,-497.9 322.01,-497.88 330.28,-504.5 332.6,-497.9"/>
</a>
</g>
</g>
<!-- Node19&#45;&gt;Node2 -->
<g id="edge31_Node000019_Node000002" class="edge">
<title>Node19&#45;&gt;Node2</title>
<g id="a_edge31_Node000019_Node000002"><a xlink:title=" ">
<path fill="none" stroke="#63b8ff" d="M724.14,-534.04C621.46,-521.81 438.56,-500.02 342.1,-488.53"/>
<polygon fill="#63b8ff" stroke="#63b8ff" points="342.62,-485.06 332.28,-487.36 341.8,-492.01 342.62,-485.06"/>
</a>
</g>
</g>
<!-- Node20&#45;&gt;Node2 -->
<g id="edge33_Node000020_Node000002" class="edge">
<title>Node20&#45;&gt;Node2</title>
<g id="a_edge33_Node000020_Node000002"><a xlink:title=" ">
<path fill="none" stroke="#63b8ff" d="M723,-453.04C664.37,-452.09 581.23,-451.88 508.5,-455.95 452.12,-459.1 388.3,-466.33 342.22,-472.21"/>
<polygon fill="#63b8ff" stroke="#63b8ff" points="341.87,-468.72 332.4,-473.48 342.76,-475.67 341.87,-468.72"/>
</a>
</g>
</g>
<!-- Node21&#45;&gt;Node2 -->
<g id="edge35_Node000021_Node000002" class="edge">
<title>Node21&#45;&gt;Node2</title>
<g id="a_edge35_Node000021_Node000002"><a xlink:title=" ">
<path fill="none" stroke="#63b8ff" d="M722.88,-409.76C636.03,-416.18 489.96,-429.77 366.5,-454.95 357.83,-456.72 348.78,-458.94 339.92,-461.34"/>
<polygon fill="#63b8ff" stroke="#63b8ff" points="338.98,-457.97 330.3,-464.05 340.88,-464.71 338.98,-457.97"/>
</a>
</g>
</g>
<!-- Node22&#45;&gt;Node2 -->
<g id="edge37_Node000022_Node000002" class="edge">
<title>Node22&#45;&gt;Node2</title>
<g id="a_edge37_Node000022_Node000002"><a xlink:title=" ">
<path fill="none" stroke="#63b8ff" d="M719.21,-366.22C630.95,-373.87 485.38,-391.94 366.5,-432.95 348.01,-439.33 328.8,-449.35 313.06,-458.6"/>
<polygon fill="#63b8ff" stroke="#63b8ff" points="311.3,-455.57 304.55,-463.73 314.92,-461.56 311.3,-455.57"/>
</a>
</g>
</g>
<!-- Node23&#45;&gt;Node2 -->
<g id="edge39_Node000023_Node000002" class="edge">
<title>Node23&#45;&gt;Node2</title>
<g id="a_edge39_Node000023_Node000002"><a xlink:title=" ">
<path fill="none" stroke="#63b8ff" d="M712.74,-323.48C621.79,-327.36 476.6,-343.2 366.5,-400.95 340.26,-414.71 315.78,-438.19 299.34,-456.16"/>
<polygon fill="#63b8ff" stroke="#63b8ff" points="296.98,-453.54 292.95,-463.34 302.21,-458.2 296.98,-453.54"/>
</a>
</g>
</g>
<!-- Node24&#45;&gt;Node2 -->
<g id="edge41_Node000024_Node000002" class="edge">
<title>Node24&#45;&gt;Node2</title>
<g id="a_edge41_Node000024_Node000002"><a xlink:title=" ">
<path fill="none" stroke="#63b8ff" d="M704.65,-278.72C611.1,-277.21 467.44,-287.94 366.5,-355.95 330,-380.54 303.87,-425.71 289.98,-454.49"/>
<polygon fill="#63b8ff" stroke="#63b8ff" points="286.94,-452.73 285.9,-463.27 293.29,-455.68 286.94,-452.73"/>
</a>
</g>
</g>
<!-- Node25&#45;&gt;Node2 -->
<g id="edge43_Node000025_Node000002" class="edge">
<title>Node25&#45;&gt;Node2</title>
<g id="a_edge43_Node000025_Node000002"><a xlink:title=" ">
<path fill="none" stroke="#63b8ff" d="M729.1,-236.49C636.33,-226.6 471.84,-223.58 366.5,-304.95 317.86,-342.51 294.13,-414.19 284.31,-453.49"/>
<polygon fill="#63b8ff" stroke="#63b8ff" points="280.94,-452.56 282.05,-463.1 287.75,-454.17 280.94,-452.56"/>
</a>
</g>
</g>
<!-- Node26&#45;&gt;Node2 -->
<g id="edge45_Node000026_Node000002" class="edge">
<title>Node26&#45;&gt;Node2</title>
<g id="a_edge45_Node000026_Node000002"><a xlink:title=" ">
<path fill="none" stroke="#63b8ff" d="M702.67,-205.86C591.22,-204.31 416.5,-208.72 366.5,-248.95 302.61,-300.36 285.08,-403.6 280.29,-453.16"/>
<polygon fill="#63b8ff" stroke="#63b8ff" points="276.81,-452.77 279.45,-463.03 283.78,-453.36 276.81,-452.77"/>
</a>
</g>
</g>
<!-- Node27&#45;&gt;Node2 -->
<g id="edge47_Node000027_Node000002" class="edge">
<title>Node27&#45;&gt;Node2</title>
<g id="a_edge47_Node000027_Node000002"><a xlink:title=" ">
<path fill="none" stroke="#63b8ff" d="M752.17,-160.48C665.74,-144.01 479.39,-122.56 366.5,-212.95 291.69,-272.85 279.83,-397.78 278.4,-453.31"/>
<polygon fill="#63b8ff" stroke="#63b8ff" points="274.9,-453.1 278.25,-463.15 281.9,-453.21 274.9,-453.1"/>
</a>
</g>
</g>
<!-- Node28&#45;&gt;Node2 -->
<g id="edge49_Node000028_Node000002" class="edge">
<title>Node28&#45;&gt;Node2</title>
<g id="a_edge49_Node000028_Node000002"><a xlink:title=" ">
<path fill="none" stroke="#63b8ff" d="M711.99,-121.55C600.9,-116.57 416.87,-115.39 366.5,-157.95 320.65,-196.69 291.5,-383.18 281.95,-453.79"/>
<polygon fill="#63b8ff" stroke="#63b8ff" points="278.53,-452.95 280.69,-463.32 285.47,-453.87 278.53,-452.95"/>
</a>
</g>
</g>
<!-- Node30&#45;&gt;Node31 -->
<g id="edge52_Node000030_Node000031" class="edge">
<title>Node30&#45;&gt;Node31</title>
<g id="a_edge52_Node000030_Node000031"><a xlink:title=" ">
<path fill="none" stroke="#63b8ff" d="M641.23,-1092.44C659.39,-1094.34 680.36,-1096.54 700.97,-1098.7"/>
<polygon fill="#63b8ff" stroke="#63b8ff" points="700.54,-1102.17 710.85,-1099.73 701.27,-1095.21 700.54,-1102.17"/>
</a>
</g>
</g>
<!-- Node32 -->
<g id="Node000032" class="node">
<title>Node32</title>
<g id="a_Node000032"><a xlink:href="../../d6/d3c/classLSM1x0A__AtParser.html#a0ba6f927c54fceece22c17773d3f2600" target="_top" xlink:title="Sends a command and extracts a value from the response.">
<polygon fill="white" stroke="#666666" points="1114.88,-1124.95 940.62,-1124.95 940.62,-1092.95 1114.88,-1092.95 1114.88,-1124.95"/>
<text text-anchor="start" x="948.62" y="-1111.45" font-family="Helvetica,sans-Serif" font-size="10.00">LSM1x0A_AtParser::sendCommand</text>
<text text-anchor="middle" x="1027.75" y="-1099.45" font-family="Helvetica,sans-Serif" font-size="10.00">WithResponse</text>
</a>
</g>
</g>
<!-- Node31&#45;&gt;Node32 -->
<g id="edge53_Node000031_Node000032" class="edge">
<title>Node31&#45;&gt;Node32</title>
<g id="a_edge53_Node000031_Node000032"><a xlink:title=" ">
<path fill="none" stroke="#63b8ff" d="M887.24,-1108.95C900.99,-1108.95 915.31,-1108.95 929.3,-1108.95"/>
<polygon fill="#63b8ff" stroke="#63b8ff" points="928.92,-1112.45 938.92,-1108.95 928.92,-1105.45 928.92,-1112.45"/>
</a>
</g>
</g>
<!-- Node33 -->
<g id="Node000033" class="node">
<title>Node33</title>
<g id="a_Node000033"><a xlink:href="../../d5/d8b/classUartDriver.html#a5d0f22e8867eebe99273078bb19bd23d" target="_top" xlink:title="Sends data through UART.">
<polygon fill="white" stroke="#666666" points="1289.5,-1118.95 1180.5,-1118.95 1180.5,-1098.95 1289.5,-1098.95 1289.5,-1118.95"/>
<text text-anchor="middle" x="1235" y="-1105.45" font-family="Helvetica,sans-Serif" font-size="10.00">UartDriver::sendData</text>
</a>
</g>
</g>
<!-- Node32&#45;&gt;Node33 -->
<g id="edge54_Node000032_Node000033" class="edge">
<title>Node32&#45;&gt;Node33</title>
<g id="a_edge54_Node000032_Node000033"><a xlink:title=" ">
<path fill="none" stroke="#63b8ff" d="M1115.2,-1108.95C1133.09,-1108.95 1151.66,-1108.95 1168.64,-1108.95"/>
<polygon fill="#63b8ff" stroke="#63b8ff" points="1168.61,-1112.45 1178.61,-1108.95 1168.61,-1105.45 1168.61,-1112.45"/>
</a>
</g>
</g>
</g>
</svg>

<g id="navigator" transform="translate(0 0)" fill="#404254">
  <rect fill="#f2f5e9" fill-opacity="0.5" stroke="#606060" stroke-width=".5" x="0" y="0" width="60" height="60"/>
  <use id="zoomplus" xlink:href="#zoomPlus" x="17" y="9" onmousedown="handleZoom(evt,'in')"/>
  <use id="zoomminus" xlink:href="#zoomMin" x="42" y="9" onmousedown="handleZoom(evt,'out')"/>
  <use id="reset" xlink:href="#resetDef" x="30" y="36" onmousedown="handleReset()"/>
   <use id="arrowup" xlink:href="#arrowUp" x="0" y="0" onmousedown="handlePan(0,-1)"/>
  <use id="arrowright" xlink:href="#arrowRight" x="0" y="0" onmousedown="handlePan(1,0)"/>
  <use id="arrowdown" xlink:href="#arrowDown" x="0" y="0" onmousedown="handlePan(0,1)"/>
  <use id="arrowleft" xlink:href="#arrowLeft" x="0" y="0" onmousedown="handlePan(-1,0)"/>
</g>
<svg viewBox="0 0 15 15" width="100%" height="30px" preserveAspectRatio="xMaxYMin meet">
 <g id="arrow_out" transform="scale(0.3 0.3)">
  <a xlink:href="classLSM1x0A__Sigfox_a31dc755287101550261560611a0ec849_cgraph_org.svg" target="_base">
   <rect id="button" ry="5" rx="5" y="6" x="6" height="38" width="38"
        fill="#f2f5e9" fill-opacity="0.5" stroke="#606060" stroke-width="1.0"/>
   <path id="arrow"
     d="M 11.500037,31.436501 C 11.940474,20.09759 22.043105,11.32322 32.158766,21.979434 L 37.068811,17.246167 C 37.068811,17.246167 37.088388,32 37.088388,32 L 22.160133,31.978069 C 22.160133,31.978069 26.997745,27.140456 26.997745,27.140456 C 18.528582,18.264221 13.291696,25.230495 11.500037,31.436501 z"
     style="fill:#404040;"/>
  </a>
 </g>
</svg>

<style type='text/css'>
<![CDATA[
[data-mouse-over-selected='false'] { opacity: 0.7; }
[data-mouse-over-selected='true']  { opacity: 1.0; }
]]>
</style>
<script type="application/ecmascript"><![CDATA[
document.addEventListener('DOMContentLoaded', (event) => {
  highlightEdges();
  highlightAdjacentNodes();
});
]]></script>
</svg>
