<?xml version="1.0" encoding="UTF-8" standalone="no"?>
<!DOCTYPE svg PUBLIC "-//W3C//DTD SVG 1.1//EN"
 "http://www.w3.org/Graphics/SVG/1.1/DTD/svg11.dtd">
<!-- Generated by graphviz version 12.2.1 (20241206.2353)
 -->
<!-- Title: LSM1x0A_Sigfox::sendBit Pages: 1 -->
<svg width="1308pt" height="1209pt"
 viewBox="0.00 0.00 1308.00 1208.56" xmlns="http://www.w3.org/2000/svg" xmlns:xlink="http://www.w3.org/1999/xlink">
<g id="graph0" class="graph" transform="scale(1 1) rotate(0) translate(4 1204.56)">
<title>LSM1x0A_Sigfox::sendBit</title>
<!-- Node1 -->
<g id="Node000001" class="node">
<title>Node1</title>
<g id="a_Node000001"><a xlink:title="Sends a single bit of information. Frame Type 0.">
<polygon fill="#999999" stroke="#666666" points="130.75,-751.24 0,-751.24 0,-731.24 130.75,-731.24 130.75,-751.24"/>
<text text-anchor="middle" x="65.38" y="-737.74" font-family="Helvetica,sans-Serif" font-size="10.00">LSM1x0A_Sigfox::sendBit</text>
</a>
</g>
</g>
<!-- Node2 -->
<g id="Node000002" class="node">
<title>Node2</title>
<g id="a_Node000002"><a xlink:href="../../d8/d92/classLSM1x0A__Controller.html#afd7d92e60ed6fdae696a955cdbe0ed8c" target="_top" xlink:title="Sends any AT command to the module, returning error if it fails. Internally uses the LsmAtParser logi...">
<polygon fill="white" stroke="#666666" points="296,-561.24 190,-561.24 190,-529.24 296,-529.24 296,-561.24"/>
<text text-anchor="start" x="198" y="-547.74" font-family="Helvetica,sans-Serif" font-size="10.00">LSM1x0A_Controller</text>
<text text-anchor="middle" x="243" y="-535.74" font-family="Helvetica,sans-Serif" font-size="10.00">::sendCommand</text>
</a>
</g>
</g>
<!-- Node1&#45;&gt;Node2 -->
<g id="edge1_Node000001_Node000002" class="edge">
<title>Node1&#45;&gt;Node2</title>
<g id="a_edge1_Node000001_Node000002"><a xlink:title=" ">
<path fill="none" stroke="#63b8ff" d="M75.57,-730.98C102.32,-701.12 180.68,-613.68 219.57,-570.27"/>
<polygon fill="#63b8ff" stroke="#63b8ff" points="222.16,-572.63 226.23,-562.84 216.95,-567.96 222.16,-572.63"/>
</a>
</g>
</g>
<!-- Node34 -->
<g id="Node000034" class="node">
<title>Node34</title>
<g id="a_Node000034"><a xlink:href="../../d8/d92/classLSM1x0A__Controller.html#ab00328d1be83aa51bce8c2a4f907c5f4" target="_top" xlink:title="Sends an AT command and captures its response in a text block. Ideal for getters (e....">
<polygon fill="white" stroke="#666666" points="319.25,-953.24 166.75,-953.24 166.75,-921.24 319.25,-921.24 319.25,-953.24"/>
<text text-anchor="start" x="174.75" y="-939.74" font-family="Helvetica,sans-Serif" font-size="10.00">LSM1x0A_Controller</text>
<text text-anchor="middle" x="243" y="-927.74" font-family="Helvetica,sans-Serif" font-size="10.00">::sendCommandWithResponse</text>
</a>
</g>
</g>
<!-- Node1&#45;&gt;Node34 -->
<g id="edge56_Node000001_Node000034" class="edge">
<title>Node1&#45;&gt;Node34</title>
<g id="a_edge56_Node000001_Node000034"><a xlink:title=" ">
<path fill="none" stroke="#63b8ff" d="M75.57,-751.5C102.32,-781.36 180.68,-868.81 219.57,-912.21"/>
<polygon fill="#63b8ff" stroke="#63b8ff" points="216.95,-914.53 226.23,-919.64 222.16,-909.86 216.95,-914.53"/>
</a>
</g>
</g>
<!-- Node3 -->
<g id="Node000003" class="node">
<title>Node3</title>
<g id="a_Node000003"><a xlink:href="../../d8/d92/classLSM1x0A__Controller.html#abb0eb380daa3dfb7acffb483c5db8e2b" target="_top" xlink:title="Executes the recovery protocol. First Soft&#45;Reset (ATZ), then Hard&#45;Reset if there is a pin.">
<polygon fill="white" stroke="#666666" points="461.25,-953.24 355.25,-953.24 355.25,-921.24 461.25,-921.24 461.25,-953.24"/>
<text text-anchor="start" x="363.25" y="-939.74" font-family="Helvetica,sans-Serif" font-size="10.00">LSM1x0A_Controller</text>
<text text-anchor="middle" x="408.25" y="-927.74" font-family="Helvetica,sans-Serif" font-size="10.00">::recoverModule</text>
</a>
</g>
</g>
<!-- Node2&#45;&gt;Node3 -->
<g id="edge2_Node000002_Node000003" class="edge">
<title>Node2&#45;&gt;Node3</title>
<g id="a_edge2_Node000002_Node000003"><a xlink:title=" ">
<path fill="none" stroke="#63b8ff" d="M247.96,-561.43C260.03,-609.31 298.99,-753.73 355.25,-863.24 364.05,-880.38 376.36,-898.08 386.79,-911.88"/>
<polygon fill="#63b8ff" stroke="#63b8ff" points="383.84,-913.78 392.72,-919.55 389.38,-909.5 383.84,-913.78"/>
</a>
</g>
</g>
<!-- Node31 -->
<g id="Node000031" class="node">
<title>Node31</title>
<g id="a_Node000031"><a xlink:href="../../d6/d3c/classLSM1x0A__AtParser.html#a29b53c521974387ba6c03afadfaffa4a" target="_top" xlink:title="Sends a simple command and waits for OK/ERROR. Example: sendCommand(&quot;AT+JOIN&quot;);.">
<polygon fill="white" stroke="#666666" points="875.75,-1161.24 701.5,-1161.24 701.5,-1141.24 875.75,-1141.24 875.75,-1161.24"/>
<text text-anchor="middle" x="788.62" y="-1147.74" font-family="Helvetica,sans-Serif" font-size="10.00">LSM1x0A_AtParser::sendCommand</text>
</a>
</g>
</g>
<!-- Node2&#45;&gt;Node31 -->
<g id="edge55_Node000002_Node000031" class="edge">
<title>Node2&#45;&gt;Node31</title>
<g id="a_edge55_Node000002_Node000031"><a xlink:title=" ">
<path fill="none" stroke="#63b8ff" d="M245.8,-561.68C252.64,-619.56 280.58,-818.23 355.25,-962.24 400.56,-1049.64 409.48,-1087.65 497.25,-1132.24 561.14,-1164.71 643.39,-1167.03 704.03,-1162.64"/>
<polygon fill="#63b8ff" stroke="#63b8ff" points="704.28,-1166.13 713.96,-1161.84 703.71,-1159.15 704.28,-1166.13"/>
</a>
</g>
</g>
<!-- Node4 -->
<g id="Node000004" class="node">
<title>Node4</title>
<g id="a_Node000004"><a xlink:href="../../d8/d92/classLSM1x0A__Controller.html#a3f6f25b843fe4fb7042c544deae2ab16" target="_top" xlink:title="Manually clears bits from the internal EventGroup.">
<polygon fill="white" stroke="#666666" points="1069.5,-842.24 963.5,-842.24 963.5,-810.24 1069.5,-810.24 1069.5,-842.24"/>
<text text-anchor="start" x="971.5" y="-828.74" font-family="Helvetica,sans-Serif" font-size="10.00">LSM1x0A_Controller</text>
<text text-anchor="middle" x="1016.5" y="-816.74" font-family="Helvetica,sans-Serif" font-size="10.00">::clearEvents</text>
</a>
</g>
</g>
<!-- Node3&#45;&gt;Node4 -->
<g id="edge3_Node000003_Node000004" class="edge">
<title>Node3&#45;&gt;Node4</title>
<g id="a_edge3_Node000003_Node000004"><a xlink:title=" ">
<path fill="none" stroke="#63b8ff" d="M424.3,-920.84C440.53,-904.36 468,-879.79 497.25,-868.24 651.51,-807.33 851.28,-812.22 951.79,-819.83"/>
<polygon fill="#63b8ff" stroke="#63b8ff" points="951.49,-823.32 961.74,-820.62 952.05,-816.34 951.49,-823.32"/>
</a>
</g>
</g>
<!-- Node5 -->
<g id="Node000005" class="node">
<title>Node5</title>
<g id="a_Node000005"><a xlink:href="../../d8/d92/classLSM1x0A__Controller.html#a345d4bd79fa16b18dc33a4ca788fe5f7" target="_top" xlink:title="Performs a hardware reset using the reset pin.">
<polygon fill="white" stroke="#666666" points="629.5,-997.24 523.5,-997.24 523.5,-965.24 629.5,-965.24 629.5,-997.24"/>
<text text-anchor="start" x="531.5" y="-983.74" font-family="Helvetica,sans-Serif" font-size="10.00">LSM1x0A_Controller</text>
<text text-anchor="middle" x="576.5" y="-971.74" font-family="Helvetica,sans-Serif" font-size="10.00">::hardwareReset</text>
</a>
</g>
</g>
<!-- Node3&#45;&gt;Node5 -->
<g id="edge4_Node000003_Node000005" class="edge">
<title>Node3&#45;&gt;Node5</title>
<g id="a_edge4_Node000003_Node000005"><a xlink:title=" ">
<path fill="none" stroke="#63b8ff" d="M461.4,-951.04C477.57,-955.32 495.56,-960.08 512.39,-964.54"/>
<polygon fill="#63b8ff" stroke="#63b8ff" points="511.23,-967.85 521.79,-967.03 513.02,-961.08 511.23,-967.85"/>
</a>
</g>
</g>
<!-- Node7 -->
<g id="Node000007" class="node">
<title>Node7</title>
<g id="a_Node000007"><a xlink:href="../../d5/d72/classLSM1x0A__LoRaWAN.html#a1892801e37c8cd67d37c76108d6f7d49" target="_top" xlink:title="Validates if the device is currently Joined to the network. (Either confirmed by OTAA or statically a...">
<polygon fill="white" stroke="#666666" points="1300,-934.24 1147.5,-934.24 1147.5,-914.24 1300,-914.24 1300,-934.24"/>
<text text-anchor="middle" x="1223.75" y="-920.74" font-family="Helvetica,sans-Serif" font-size="10.00">LSM1x0A_LoRaWAN::isJoined</text>
</a>
</g>
</g>
<!-- Node3&#45;&gt;Node7 -->
<g id="edge6_Node000003_Node000007" class="edge">
<title>Node3&#45;&gt;Node7</title>
<g id="a_edge6_Node000003_Node000007"><a xlink:title=" ">
<path fill="none" stroke="#63b8ff" d="M455.87,-953.68C457.78,-955.08 459.59,-956.6 461.25,-958.24 490.73,-987.36 462.75,-1021.29 497.25,-1044.24 555.9,-1083.27 585.54,-1050.01 655.75,-1044.24 853.05,-1028.03 1082,-965.86 1177.4,-937.94"/>
<polygon fill="#63b8ff" stroke="#63b8ff" points="1178.31,-941.33 1186.91,-935.14 1176.33,-934.61 1178.31,-941.33"/>
</a>
</g>
</g>
<!-- Node8 -->
<g id="Node000008" class="node">
<title>Node8</title>
<g id="a_Node000008"><a xlink:href="../../d5/d72/classLSM1x0A__LoRaWAN.html#a83e11c0e74ff9e0757db616ab1163424" target="_top" xlink:title="Attempts to recover a lost connection (re&#45;executes OTAA Join if dropped).">
<polygon fill="white" stroke="#666666" points="650.88,-909.24 502.12,-909.24 502.12,-877.24 650.88,-877.24 650.88,-909.24"/>
<text text-anchor="start" x="510.12" y="-895.74" font-family="Helvetica,sans-Serif" font-size="10.00">LSM1x0A_LoRaWAN::recover</text>
<text text-anchor="middle" x="576.5" y="-883.74" font-family="Helvetica,sans-Serif" font-size="10.00">Connection</text>
</a>
</g>
</g>
<!-- Node3&#45;&gt;Node8 -->
<g id="edge7_Node000003_Node000008" class="edge">
<title>Node3&#45;&gt;Node8</title>
<g id="a_edge7_Node000003_Node000008"><a xlink:title=" ">
<path fill="none" stroke="#63b8ff" d="M461.4,-923.44C474.4,-920 488.57,-916.25 502.38,-912.59"/>
<polygon fill="#63b8ff" stroke="#63b8ff" points="503.11,-916.02 511.88,-910.08 501.31,-909.26 503.11,-916.02"/>
</a>
</g>
</g>
<!-- Node12 -->
<g id="Node000012" class="node">
<title>Node12</title>
<g id="a_Node000012"><a xlink:href="../../d5/d72/classLSM1x0A__LoRaWAN.html#ae3be4ce59dfa200369733317df356e97" target="_top" xlink:title="Pushes the RAM&#45;cached variables back down into the hardware module. Restores the operational state af...">
<polygon fill="white" stroke="#666666" points="649.75,-517.24 503.25,-517.24 503.25,-485.24 649.75,-485.24 649.75,-517.24"/>
<text text-anchor="start" x="511.25" y="-503.74" font-family="Helvetica,sans-Serif" font-size="10.00">LSM1x0A_LoRaWAN::restore</text>
<text text-anchor="middle" x="576.5" y="-491.74" font-family="Helvetica,sans-Serif" font-size="10.00">Config</text>
</a>
</g>
</g>
<!-- Node3&#45;&gt;Node12 -->
<g id="edge16_Node000003_Node000012" class="edge">
<title>Node3&#45;&gt;Node12</title>
<g id="a_edge16_Node000003_Node000012"><a xlink:title=" ">
<path fill="none" stroke="#63b8ff" d="M415.46,-920.95C440.52,-855.24 534.25,-609.42 565.38,-527.78"/>
<polygon fill="#63b8ff" stroke="#63b8ff" points="568.51,-529.39 568.8,-518.8 561.97,-526.9 568.51,-529.39"/>
</a>
</g>
</g>
<!-- Node29 -->
<g id="Node000029" class="node">
<title>Node29</title>
<g id="a_Node000029"><a xlink:href="../../d5/d72/classLSM1x0A__LoRaWAN.html#ace4b04396f1de1f4a54f513f5f378db7" target="_top" xlink:title="Manually overrides the internal joined state tracker.">
<polygon fill="white" stroke="#666666" points="655.75,-1035.24 497.25,-1035.24 497.25,-1015.24 655.75,-1015.24 655.75,-1035.24"/>
<text text-anchor="middle" x="576.5" y="-1021.74" font-family="Helvetica,sans-Serif" font-size="10.00">LSM1x0A_LoRaWAN::setJoined</text>
</a>
</g>
</g>
<!-- Node3&#45;&gt;Node29 -->
<g id="edge50_Node000003_Node000029" class="edge">
<title>Node3&#45;&gt;Node29</title>
<g id="a_edge50_Node000003_Node000029"><a xlink:title=" ">
<path fill="none" stroke="#63b8ff" d="M425.62,-953.65C442.26,-969.42 469.48,-992.77 497.25,-1006.24 500.99,-1008.06 504.92,-1009.71 508.94,-1011.2"/>
<polygon fill="#63b8ff" stroke="#63b8ff" points="507.71,-1014.48 518.31,-1014.35 509.94,-1007.85 507.71,-1014.48"/>
</a>
</g>
</g>
<!-- Node30 -->
<g id="Node000030" class="node">
<title>Node30</title>
<g id="a_Node000030"><a xlink:href="../../d8/d92/classLSM1x0A__Controller.html#a11ad21cb5ca33ec51346764a23bd485e" target="_top" xlink:title="Performs a software reset (ATZ Command).">
<polygon fill="white" stroke="#666666" points="629.5,-1123.24 523.5,-1123.24 523.5,-1091.24 629.5,-1091.24 629.5,-1123.24"/>
<text text-anchor="start" x="531.5" y="-1109.74" font-family="Helvetica,sans-Serif" font-size="10.00">LSM1x0A_Controller</text>
<text text-anchor="middle" x="576.5" y="-1097.74" font-family="Helvetica,sans-Serif" font-size="10.00">::softwareReset</text>
</a>
</g>
</g>
<!-- Node3&#45;&gt;Node30 -->
<g id="edge51_Node000003_Node000030" class="edge">
<title>Node3&#45;&gt;Node30</title>
<g id="a_edge51_Node000003_Node000030"><a xlink:title=" ">
<path fill="none" stroke="#63b8ff" d="M415.38,-953.45C427.05,-982.27 455.11,-1042.61 497.25,-1077.24 502.03,-1081.17 507.38,-1084.62 512.97,-1087.64"/>
<polygon fill="#63b8ff" stroke="#63b8ff" points="511.36,-1090.75 521.89,-1091.97 514.42,-1084.45 511.36,-1090.75"/>
</a>
</g>
</g>
<!-- Node6 -->
<g id="Node000006" class="node">
<title>Node6</title>
<g id="a_Node000006"><a xlink:href="../../d6/d3c/classLSM1x0A__AtParser.html#ad2839120da13e56132b95019419be1e5" target="_top" xlink:title="Waits for an event (like BOOTALERT) without sending any command. Useful for hardware reset where the ...">
<polygon fill="white" stroke="#666666" points="858.88,-997.24 718.38,-997.24 718.38,-965.24 858.88,-965.24 858.88,-997.24"/>
<text text-anchor="start" x="726.38" y="-983.74" font-family="Helvetica,sans-Serif" font-size="10.00">LSM1x0A_AtParser::waitFor</text>
<text text-anchor="middle" x="788.62" y="-971.74" font-family="Helvetica,sans-Serif" font-size="10.00">Event</text>
</a>
</g>
</g>
<!-- Node5&#45;&gt;Node6 -->
<g id="edge5_Node000005_Node000006" class="edge">
<title>Node5&#45;&gt;Node6</title>
<g id="a_edge5_Node000005_Node000006"><a xlink:title=" ">
<path fill="none" stroke="#63b8ff" d="M629.98,-981.24C653.17,-981.24 680.97,-981.24 706.71,-981.24"/>
<polygon fill="#63b8ff" stroke="#63b8ff" points="706.47,-984.74 716.47,-981.24 706.47,-977.74 706.47,-984.74"/>
</a>
</g>
</g>
<!-- Node9 -->
<g id="Node000009" class="node">
<title>Node9</title>
<g id="a_Node000009"><a xlink:href="../../d5/d72/classLSM1x0A__LoRaWAN.html#a59f781f3cfd30c11cd3973bcb10a7baa" target="_top" xlink:title="Initiates a LoRaWAN Network Join procedure. This is a blocking function until the module fires an eve...">
<polygon fill="white" stroke="#666666" points="854.38,-880.24 722.88,-880.24 722.88,-860.24 854.38,-860.24 854.38,-880.24"/>
<text text-anchor="middle" x="788.62" y="-866.74" font-family="Helvetica,sans-Serif" font-size="10.00">LSM1x0A_LoRaWAN::join</text>
</a>
</g>
</g>
<!-- Node8&#45;&gt;Node9 -->
<g id="edge8_Node000008_Node000009" class="edge">
<title>Node8&#45;&gt;Node9</title>
<g id="a_edge8_Node000008_Node000009"><a xlink:title=" ">
<path fill="none" stroke="#63b8ff" d="M651.29,-885.16C670.66,-883.04 691.6,-880.75 711.11,-878.62"/>
<polygon fill="#63b8ff" stroke="#63b8ff" points="711.35,-882.11 720.91,-877.54 710.59,-875.15 711.35,-882.11"/>
</a>
</g>
</g>
<!-- Node9&#45;&gt;Node2 -->
<g id="edge11_Node000009_Node000002" class="edge">
<title>Node9&#45;&gt;Node2</title>
<g id="a_edge11_Node000009_Node000002"><a xlink:title=" ">
<path fill="none" stroke="#63b8ff" d="M722.62,-865.73C630.88,-856.21 462.66,-826.77 355.25,-736.24 301.72,-691.13 267.99,-613.32 253.02,-572.33"/>
<polygon fill="#63b8ff" stroke="#63b8ff" points="256.35,-571.25 249.72,-562.99 249.75,-573.58 256.35,-571.25"/>
</a>
</g>
</g>
<!-- Node9&#45;&gt;Node3 -->
<g id="edge10_Node000009_Node000003" class="edge">
<title>Node9&#45;&gt;Node3</title>
<g id="a_edge10_Node000009_Node000003"><a xlink:title=" ">
<path fill="none" stroke="#63b8ff" d="M764.85,-880.7C738.99,-892.05 695.28,-909.69 655.75,-918.24 594.45,-931.5 522.82,-935.81 472.63,-937.07"/>
<polygon fill="#63b8ff" stroke="#63b8ff" points="472.74,-933.57 462.81,-937.28 472.89,-940.57 472.74,-933.57"/>
</a>
</g>
</g>
<!-- Node9&#45;&gt;Node4 -->
<g id="edge9_Node000009_Node000004" class="edge">
<title>Node9&#45;&gt;Node4</title>
<g id="a_edge9_Node000009_Node000004"><a xlink:title=" ">
<path fill="none" stroke="#63b8ff" d="M843.44,-859.76C876.03,-853.41 917.77,-845.28 951.98,-838.62"/>
<polygon fill="#63b8ff" stroke="#63b8ff" points="952.63,-842.05 961.78,-836.71 951.29,-835.18 952.63,-842.05"/>
</a>
</g>
</g>
<!-- Node10 -->
<g id="Node000010" class="node">
<title>Node10</title>
<g id="a_Node000010"><a xlink:href="../../d5/d72/classLSM1x0A__LoRaWAN.html#a3fdd1ac318a5ad2559323e5d57e36a5e" target="_top" xlink:title="Enables or disables specific sub&#45;bands for regions supporting Channel Masks (e.g.,...">
<polygon fill="white" stroke="#666666" points="1111.5,-650.24 921.5,-650.24 921.5,-630.24 1111.5,-630.24 1111.5,-650.24"/>
<text text-anchor="middle" x="1016.5" y="-636.74" font-family="Helvetica,sans-Serif" font-size="10.00">LSM1x0A_LoRaWAN::setChannelMask</text>
</a>
</g>
</g>
<!-- Node9&#45;&gt;Node10 -->
<g id="edge12_Node000009_Node000010" class="edge">
<title>Node9&#45;&gt;Node10</title>
<g id="a_edge12_Node000009_Node000010"><a xlink:title=" ">
<path fill="none" stroke="#63b8ff" d="M809.32,-859.85C829.69,-848.54 861.79,-829.12 885.5,-807.24 935.93,-760.7 981.98,-693.17 1003.19,-660.06"/>
<polygon fill="#63b8ff" stroke="#63b8ff" points="1005.98,-662.19 1008.37,-651.86 1000.07,-658.45 1005.98,-662.19"/>
</a>
</g>
</g>
<!-- Node11 -->
<g id="Node000011" class="node">
<title>Node11</title>
<g id="a_Node000011"><a xlink:href="../../d8/d92/classLSM1x0A__Controller.html#a62476e30e50c7fe120aeb8df4b828675" target="_top" xlink:title="Synchronously/blockingly waits for an asynchronous event to occur. Useful for wrapping commands like ...">
<polygon fill="white" stroke="#666666" points="1069.5,-892.24 963.5,-892.24 963.5,-860.24 1069.5,-860.24 1069.5,-892.24"/>
<text text-anchor="start" x="971.5" y="-878.74" font-family="Helvetica,sans-Serif" font-size="10.00">LSM1x0A_Controller</text>
<text text-anchor="middle" x="1016.5" y="-866.74" font-family="Helvetica,sans-Serif" font-size="10.00">::waitForEvent</text>
</a>
</g>
</g>
<!-- Node9&#45;&gt;Node11 -->
<g id="edge15_Node000009_Node000011" class="edge">
<title>Node9&#45;&gt;Node11</title>
<g id="a_edge15_Node000009_Node000011"><a xlink:title=" ">
<path fill="none" stroke="#63b8ff" d="M854.65,-871.97C885.16,-872.78 921.4,-873.74 951.74,-874.55"/>
<polygon fill="#63b8ff" stroke="#63b8ff" points="951.46,-878.04 961.55,-874.81 951.65,-871.04 951.46,-878.04"/>
</a>
</g>
</g>
<!-- Node10&#45;&gt;Node2 -->
<g id="edge14_Node000010_Node000002" class="edge">
<title>Node10&#45;&gt;Node2</title>
<g id="a_edge14_Node000010_Node000002"><a xlink:title=" ">
<path fill="none" stroke="#63b8ff" d="M1014.71,-630.09C1009.17,-561.88 973.79,-170.77 885.5,-101.24 700.21,44.68 536.85,28.24 355.25,-122.24 292.97,-173.85 257.31,-432.47 247.09,-517.84"/>
<polygon fill="#63b8ff" stroke="#63b8ff" points="243.63,-517.3 245.94,-527.63 250.58,-518.11 243.63,-517.3"/>
</a>
</g>
</g>
<!-- Node10&#45;&gt;Node7 -->
<g id="edge13_Node000010_Node000007" class="edge">
<title>Node10&#45;&gt;Node7</title>
<g id="a_edge13_Node000010_Node000007"><a xlink:title=" ">
<path fill="none" stroke="#63b8ff" d="M1025.05,-650.69C1055.41,-692.7 1168.93,-849.77 1208.8,-904.94"/>
<polygon fill="#63b8ff" stroke="#63b8ff" points="1205.77,-906.72 1214.46,-912.77 1211.44,-902.62 1205.77,-906.72"/>
</a>
</g>
</g>
<!-- Node12&#45;&gt;Node10 -->
<g id="edge21_Node000012_Node000010" class="edge">
<title>Node12&#45;&gt;Node10</title>
<g id="a_edge21_Node000012_Node000010"><a xlink:title=" ">
<path fill="none" stroke="#63b8ff" d="M650.07,-491.29C714.58,-485.56 810.08,-484.92 885.5,-517.24 937.36,-539.46 981.06,-592.05 1002.08,-620.74"/>
<polygon fill="#63b8ff" stroke="#63b8ff" points="999.01,-622.46 1007.67,-628.57 1004.71,-618.4 999.01,-622.46"/>
</a>
</g>
</g>
<!-- Node13 -->
<g id="Node000013" class="node">
<title>Node13</title>
<g id="a_Node000013"><a xlink:href="../../d5/d72/classLSM1x0A__LoRaWAN.html#af0baa3db4c7fab580d6b19a9e92472f6" target="_top" xlink:title="Enables or disables Adaptive Data Rate (ADR).">
<polygon fill="white" stroke="#666666" points="864.5,-634.24 712.75,-634.24 712.75,-614.24 864.5,-614.24 864.5,-634.24"/>
<text text-anchor="middle" x="788.62" y="-620.74" font-family="Helvetica,sans-Serif" font-size="10.00">LSM1x0A_LoRaWAN::setADR</text>
</a>
</g>
</g>
<!-- Node12&#45;&gt;Node13 -->
<g id="edge17_Node000012_Node000013" class="edge">
<title>Node12&#45;&gt;Node13</title>
<g id="a_edge17_Node000012_Node000013"><a xlink:title=" ">
<path fill="none" stroke="#63b8ff" d="M590.33,-517.55C609.67,-540.92 648.64,-583.5 691.75,-605.24 695.27,-607.01 698.93,-608.62 702.69,-610.08"/>
<polygon fill="#63b8ff" stroke="#63b8ff" points="701.47,-613.36 712.06,-613.31 703.75,-606.74 701.47,-613.36"/>
</a>
</g>
</g>
<!-- Node14 -->
<g id="Node000014" class="node">
<title>Node14</title>
<g id="a_Node000014"><a xlink:href="../../d5/d72/classLSM1x0A__LoRaWAN.html#a5365ed1596eb84ebf1e3b33b4a10c788" target="_top" xlink:title="Sets the LoRaWAN operational frequency band.">
<polygon fill="white" stroke="#666666" points="864.88,-596.24 712.38,-596.24 712.38,-576.24 864.88,-576.24 864.88,-596.24"/>
<text text-anchor="middle" x="788.62" y="-582.74" font-family="Helvetica,sans-Serif" font-size="10.00">LSM1x0A_LoRaWAN::setBand</text>
</a>
</g>
</g>
<!-- Node12&#45;&gt;Node14 -->
<g id="edge19_Node000012_Node000014" class="edge">
<title>Node12&#45;&gt;Node14</title>
<g id="a_edge19_Node000012_Node000014"><a xlink:title=" ">
<path fill="none" stroke="#63b8ff" d="M600.44,-517.54C622.74,-532.63 658.09,-554.58 691.75,-567.24 697.36,-569.35 703.24,-571.24 709.22,-572.93"/>
<polygon fill="#63b8ff" stroke="#63b8ff" points="708.02,-576.23 718.58,-575.38 709.79,-569.46 708.02,-576.23"/>
</a>
</g>
</g>
<!-- Node15 -->
<g id="Node000015" class="node">
<title>Node15</title>
<g id="a_Node000015"><a xlink:href="../../d5/d72/classLSM1x0A__LoRaWAN.html#a9d9285c43414337a0ccb3a6cd7ca06e6" target="_top" xlink:title="Configures the number of retries for Confirmed uplinks.">
<polygon fill="white" stroke="#666666" points="870.88,-558.24 706.38,-558.24 706.38,-526.24 870.88,-526.24 870.88,-558.24"/>
<text text-anchor="start" x="714.38" y="-544.74" font-family="Helvetica,sans-Serif" font-size="10.00">LSM1x0A_LoRaWAN::setConfirm</text>
<text text-anchor="middle" x="788.62" y="-532.74" font-family="Helvetica,sans-Serif" font-size="10.00">Retry</text>
</a>
</g>
</g>
<!-- Node12&#45;&gt;Node15 -->
<g id="edge22_Node000012_Node000015" class="edge">
<title>Node12&#45;&gt;Node15</title>
<g id="a_edge22_Node000012_Node000015"><a xlink:title=" ">
<path fill="none" stroke="#63b8ff" d="M650.11,-515.41C664.62,-518.24 680.04,-521.25 695.12,-524.19"/>
<polygon fill="#63b8ff" stroke="#63b8ff" points="694.04,-527.55 704.53,-526.03 695.38,-520.68 694.04,-527.55"/>
</a>
</g>
</g>
<!-- Node16 -->
<g id="Node000016" class="node">
<title>Node16</title>
<g id="a_Node000016"><a xlink:href="../../d5/d72/classLSM1x0A__LoRaWAN.html#a56345ceeafa0b9059d6de4e69eddc82e" target="_top" xlink:title="Sets the Data Rate (DR) of the module.">
<polygon fill="white" stroke="#666666" points="874.62,-470.24 702.62,-470.24 702.62,-450.24 874.62,-450.24 874.62,-470.24"/>
<text text-anchor="middle" x="788.62" y="-456.74" font-family="Helvetica,sans-Serif" font-size="10.00">LSM1x0A_LoRaWAN::setDataRate</text>
</a>
</g>
</g>
<!-- Node12&#45;&gt;Node16 -->
<g id="edge24_Node000012_Node000016" class="edge">
<title>Node12&#45;&gt;Node16</title>
<g id="a_edge24_Node000012_Node000016"><a xlink:title=" ">
<path fill="none" stroke="#63b8ff" d="M650.11,-487.07C673.76,-482.46 699.84,-477.37 722.88,-472.88"/>
<polygon fill="#63b8ff" stroke="#63b8ff" points="723.29,-476.36 732.43,-471.01 721.95,-469.49 723.29,-476.36"/>
</a>
</g>
</g>
<!-- Node17 -->
<g id="Node000017" class="node">
<title>Node17</title>
<g id="a_Node000017"><a xlink:href="../../d5/d72/classLSM1x0A__LoRaWAN.html#a8494083816ab885cb07fc3b08de029f4" target="_top" xlink:title="Sets the LoRaWAN Device Address (DevAddr) for ABP mode.">
<polygon fill="white" stroke="#666666" points="872.75,-432.24 704.5,-432.24 704.5,-412.24 872.75,-412.24 872.75,-432.24"/>
<text text-anchor="middle" x="788.62" y="-418.74" font-family="Helvetica,sans-Serif" font-size="10.00">LSM1x0A_LoRaWAN::setDevAddr</text>
</a>
</g>
</g>
<!-- Node12&#45;&gt;Node17 -->
<g id="edge26_Node000012_Node000017" class="edge">
<title>Node12&#45;&gt;Node17</title>
<g id="a_edge26_Node000012_Node000017"><a xlink:title=" ">
<path fill="none" stroke="#63b8ff" d="M603.3,-484.93C625.83,-471.36 659.85,-452.51 691.75,-441.24 697.85,-439.09 704.26,-437.15 710.75,-435.42"/>
<polygon fill="#63b8ff" stroke="#63b8ff" points="711.38,-438.87 720.24,-433.06 709.69,-432.08 711.38,-438.87"/>
</a>
</g>
</g>
<!-- Node18 -->
<g id="Node000018" class="node">
<title>Node18</title>
<g id="a_Node000018"><a xlink:href="../../d5/d72/classLSM1x0A__LoRaWAN.html#ad320634e52d7ea907043cc50dd37c5b0" target="_top" xlink:title="Sets the LoRaWAN Device EUI (DevEUI).">
<polygon fill="white" stroke="#666666" points="871.25,-394.24 706,-394.24 706,-374.24 871.25,-374.24 871.25,-394.24"/>
<text text-anchor="middle" x="788.62" y="-380.74" font-family="Helvetica,sans-Serif" font-size="10.00">LSM1x0A_LoRaWAN::setDevEUI</text>
</a>
</g>
</g>
<!-- Node12&#45;&gt;Node18 -->
<g id="edge28_Node000012_Node000018" class="edge">
<title>Node12&#45;&gt;Node18</title>
<g id="a_edge28_Node000012_Node000018"><a xlink:title=" ">
<path fill="none" stroke="#63b8ff" d="M591.54,-484.78C611.46,-462.57 650.15,-423.46 691.75,-403.24 695.48,-401.43 699.37,-399.79 703.36,-398.31"/>
<polygon fill="#63b8ff" stroke="#63b8ff" points="704.28,-401.69 712.66,-395.21 702.07,-395.05 704.28,-401.69"/>
</a>
</g>
</g>
<!-- Node19 -->
<g id="Node000019" class="node">
<title>Node19</title>
<g id="a_Node000019"><a xlink:href="../../d5/d72/classLSM1x0A__LoRaWAN.html#a031023b0d2dd5db3c51c2db6ae7801cc" target="_top" xlink:title="Enables or disables the Duty Cycle limitation (EU regions mostly).">
<polygon fill="white" stroke="#666666" points="864.12,-356.24 713.12,-356.24 713.12,-324.24 864.12,-324.24 864.12,-356.24"/>
<text text-anchor="start" x="721.12" y="-342.74" font-family="Helvetica,sans-Serif" font-size="10.00">LSM1x0A_LoRaWAN::setDuty</text>
<text text-anchor="middle" x="788.62" y="-330.74" font-family="Helvetica,sans-Serif" font-size="10.00">Cycle</text>
</a>
</g>
</g>
<!-- Node12&#45;&gt;Node19 -->
<g id="edge30_Node000012_Node000019" class="edge">
<title>Node12&#45;&gt;Node19</title>
<g id="a_edge30_Node000012_Node000019"><a xlink:title=" ">
<path fill="none" stroke="#63b8ff" d="M586.49,-485.03C603.28,-456.3 642.22,-396.54 691.75,-365.24 695.23,-363.04 698.89,-361.04 702.67,-359.21"/>
<polygon fill="#63b8ff" stroke="#63b8ff" points="703.76,-362.56 711.54,-355.37 700.98,-356.13 703.76,-362.56"/>
</a>
</g>
</g>
<!-- Node20 -->
<g id="Node000020" class="node">
<title>Node20</title>
<g id="a_Node000020"><a xlink:href="../../d5/d72/classLSM1x0A__LoRaWAN.html#a6b179d5825c49af0f391dfc539912f64" target="_top" xlink:title="Sets the delay for the Join1 receive window.">
<polygon fill="white" stroke="#666666" points="865.25,-306.24 712,-306.24 712,-274.24 865.25,-274.24 865.25,-306.24"/>
<text text-anchor="start" x="720" y="-292.74" font-family="Helvetica,sans-Serif" font-size="10.00">LSM1x0A_LoRaWAN::setJoin1</text>
<text text-anchor="middle" x="788.62" y="-280.74" font-family="Helvetica,sans-Serif" font-size="10.00">Delay</text>
</a>
</g>
</g>
<!-- Node12&#45;&gt;Node20 -->
<g id="edge32_Node000012_Node000020" class="edge">
<title>Node12&#45;&gt;Node20</title>
<g id="a_edge32_Node000012_Node000020"><a xlink:title=" ">
<path fill="none" stroke="#63b8ff" d="M582.77,-484.91C595.37,-448.5 630.84,-360.35 691.75,-315.24 694.89,-312.92 698.22,-310.81 701.69,-308.9"/>
<polygon fill="#63b8ff" stroke="#63b8ff" points="702.95,-312.18 710.42,-304.67 699.9,-305.88 702.95,-312.18"/>
</a>
</g>
</g>
<!-- Node21 -->
<g id="Node000021" class="node">
<title>Node21</title>
<g id="a_Node000021"><a xlink:href="../../d5/d72/classLSM1x0A__LoRaWAN.html#a4545d0caad41558cdb9bae8286b104d8" target="_top" xlink:title="Sets the delay for the Join2 receive window.">
<polygon fill="white" stroke="#666666" points="865.25,-256.24 712,-256.24 712,-224.24 865.25,-224.24 865.25,-256.24"/>
<text text-anchor="start" x="720" y="-242.74" font-family="Helvetica,sans-Serif" font-size="10.00">LSM1x0A_LoRaWAN::setJoin2</text>
<text text-anchor="middle" x="788.62" y="-230.74" font-family="Helvetica,sans-Serif" font-size="10.00">Delay</text>
</a>
</g>
</g>
<!-- Node12&#45;&gt;Node21 -->
<g id="edge34_Node000012_Node000021" class="edge">
<title>Node12&#45;&gt;Node21</title>
<g id="a_edge34_Node000012_Node000021"><a xlink:title=" ">
<path fill="none" stroke="#63b8ff" d="M580.51,-484.87C589.32,-441.87 619.1,-324.9 691.75,-265.24 694.83,-262.71 698.15,-260.43 701.62,-258.38"/>
<polygon fill="#63b8ff" stroke="#63b8ff" points="703.13,-261.54 710.44,-253.87 699.94,-255.31 703.13,-261.54"/>
</a>
</g>
</g>
<!-- Node22 -->
<g id="Node000022" class="node">
<title>Node22</title>
<g id="a_Node000022"><a xlink:href="../../d5/d72/classLSM1x0A__LoRaWAN.html#a06bd50723ec1eb7e144c9141b2ec86fc" target="_top" xlink:title="Sets the LoRaWAN Network ID (NetID).">
<polygon fill="white" stroke="#666666" points="869,-206.24 708.25,-206.24 708.25,-186.24 869,-186.24 869,-206.24"/>
<text text-anchor="middle" x="788.62" y="-192.74" font-family="Helvetica,sans-Serif" font-size="10.00">LSM1x0A_LoRaWAN::setNwkID</text>
</a>
</g>
</g>
<!-- Node12&#45;&gt;Node22 -->
<g id="edge36_Node000012_Node000022" class="edge">
<title>Node12&#45;&gt;Node22</title>
<g id="a_edge36_Node000012_Node000022"><a xlink:title=" ">
<path fill="none" stroke="#63b8ff" d="M578.77,-484.87C583.53,-435.58 604.76,-287.5 691.75,-215.24 693.71,-213.61 695.77,-212.11 697.92,-210.72"/>
<polygon fill="#63b8ff" stroke="#63b8ff" points="699.34,-213.93 706.45,-206.08 696,-207.78 699.34,-213.93"/>
</a>
</g>
</g>
<!-- Node23 -->
<g id="Node000023" class="node">
<title>Node23</title>
<g id="a_Node000023"><a xlink:href="../../d5/d72/classLSM1x0A__LoRaWAN.html#aa70ada64d28ecca216bb62268e502adf" target="_top" xlink:title="Sets the delay for the RX1 receive window.">
<polygon fill="white" stroke="#666666" points="875.38,-168.24 701.88,-168.24 701.88,-148.24 875.38,-148.24 875.38,-168.24"/>
<text text-anchor="middle" x="788.62" y="-154.74" font-family="Helvetica,sans-Serif" font-size="10.00">LSM1x0A_LoRaWAN::setRx1Delay</text>
</a>
</g>
</g>
<!-- Node12&#45;&gt;Node23 -->
<g id="edge38_Node000012_Node000023" class="edge">
<title>Node12&#45;&gt;Node23</title>
<g id="a_edge38_Node000012_Node000023"><a xlink:title=" ">
<path fill="none" stroke="#63b8ff" d="M577.91,-485.06C580.18,-431.86 595.04,-261 691.75,-177.24 692.71,-176.41 693.7,-175.61 694.71,-174.84"/>
<polygon fill="#63b8ff" stroke="#63b8ff" points="696.52,-177.83 703.11,-169.54 692.78,-171.92 696.52,-177.83"/>
</a>
</g>
</g>
<!-- Node24 -->
<g id="Node000024" class="node">
<title>Node24</title>
<g id="a_Node000024"><a xlink:href="../../d5/d72/classLSM1x0A__LoRaWAN.html#a2cf4eff0181b6107d082bccefa24217b" target="_top" xlink:title="Sets the Data Rate (DR) specifically for the RX2 window.">
<polygon fill="white" stroke="#666666" points="883.62,-130.24 693.62,-130.24 693.62,-110.24 883.62,-110.24 883.62,-130.24"/>
<text text-anchor="middle" x="788.62" y="-116.74" font-family="Helvetica,sans-Serif" font-size="10.00">LSM1x0A_LoRaWAN::setRx2DataRate</text>
</a>
</g>
</g>
<!-- Node12&#45;&gt;Node24 -->
<g id="edge40_Node000012_Node000024" class="edge">
<title>Node12&#45;&gt;Node24</title>
<g id="a_edge40_Node000012_Node000024"><a xlink:title=" ">
<path fill="none" stroke="#63b8ff" d="M577.23,-484.84C577.24,-427.52 585.46,-234.43 691.75,-139.24 692.7,-138.39 693.67,-137.58 694.67,-136.79"/>
<polygon fill="#63b8ff" stroke="#63b8ff" points="696.5,-139.78 702.99,-131.4 692.69,-133.91 696.5,-139.78"/>
</a>
</g>
</g>
<!-- Node25 -->
<g id="Node000025" class="node">
<title>Node25</title>
<g id="a_Node000025"><a xlink:href="../../d5/d72/classLSM1x0A__LoRaWAN.html#a42d2137b475b57e19d891a5f1ac93221" target="_top" xlink:title="Sets the delay for the RX2 receive window.">
<polygon fill="white" stroke="#666666" points="875.38,-798.24 701.88,-798.24 701.88,-778.24 875.38,-778.24 875.38,-798.24"/>
<text text-anchor="middle" x="788.62" y="-784.74" font-family="Helvetica,sans-Serif" font-size="10.00">LSM1x0A_LoRaWAN::setRx2Delay</text>
</a>
</g>
</g>
<!-- Node12&#45;&gt;Node25 -->
<g id="edge42_Node000012_Node000025" class="edge">
<title>Node12&#45;&gt;Node25</title>
<g id="a_edge42_Node000012_Node000025"><a xlink:title=" ">
<path fill="none" stroke="#63b8ff" d="M579.25,-517.61C585.23,-564.85 609.27,-702.31 691.75,-769.24 693.07,-770.31 694.43,-771.33 695.83,-772.29"/>
<polygon fill="#63b8ff" stroke="#63b8ff" points="693.84,-775.18 704.24,-777.16 697.34,-769.12 693.84,-775.18"/>
</a>
</g>
</g>
<!-- Node26 -->
<g id="Node000026" class="node">
<title>Node26</title>
<g id="a_Node000026"><a xlink:href="../../d5/d72/classLSM1x0A__LoRaWAN.html#a689f7dfda1dfeae11ea397c2ddf2ad37" target="_top" xlink:title="Sets the precise frequency for the RX2 window.">
<polygon fill="white" stroke="#666666" points="885.5,-760.24 691.75,-760.24 691.75,-740.24 885.5,-740.24 885.5,-760.24"/>
<text text-anchor="middle" x="788.62" y="-746.74" font-family="Helvetica,sans-Serif" font-size="10.00">LSM1x0A_LoRaWAN::setRx2Frequency</text>
</a>
</g>
</g>
<!-- Node12&#45;&gt;Node26 -->
<g id="edge44_Node000012_Node000026" class="edge">
<title>Node12&#45;&gt;Node26</title>
<g id="a_edge44_Node000012_Node000026"><a xlink:title=" ">
<path fill="none" stroke="#63b8ff" d="M580.46,-517.44C589.12,-559.96 618.61,-675.32 691.75,-731.24 693.28,-732.41 694.86,-733.51 696.49,-734.55"/>
<polygon fill="#63b8ff" stroke="#63b8ff" points="694.46,-737.43 704.92,-739.13 697.8,-731.28 694.46,-737.43"/>
</a>
</g>
</g>
<!-- Node27 -->
<g id="Node000027" class="node">
<title>Node27</title>
<g id="a_Node000027"><a xlink:href="../../d5/d72/classLSM1x0A__LoRaWAN.html#a1df10d7ae6bf45b537d28d3d5c4b88d7" target="_top" xlink:title="Sets the transmission power index.">
<polygon fill="white" stroke="#666666" points="873.12,-722.24 704.12,-722.24 704.12,-702.24 873.12,-702.24 873.12,-722.24"/>
<text text-anchor="middle" x="788.62" y="-708.74" font-family="Helvetica,sans-Serif" font-size="10.00">LSM1x0A_LoRaWAN::setTxPower</text>
</a>
</g>
</g>
<!-- Node12&#45;&gt;Node27 -->
<g id="edge46_Node000012_Node000027" class="edge">
<title>Node12&#45;&gt;Node27</title>
<g id="a_edge46_Node000012_Node000027"><a xlink:title=" ">
<path fill="none" stroke="#63b8ff" d="M582.15,-517.51C593.78,-555.09 627.9,-648.16 691.75,-693.24 693.57,-694.53 695.45,-695.73 697.39,-696.86"/>
<polygon fill="#63b8ff" stroke="#63b8ff" points="695.61,-699.88 706.13,-701.2 698.73,-693.61 695.61,-699.88"/>
</a>
</g>
</g>
<!-- Node28 -->
<g id="Node000028" class="node">
<title>Node28</title>
<g id="a_Node000028"><a xlink:href="../../d5/d72/classLSM1x0A__LoRaWAN.html#a059fd6a9356c4ecadd5a98294da5952d" target="_top" xlink:title="Configures the number of repetitions for Unconfirmed uplinks.">
<polygon fill="white" stroke="#666666" points="876.12,-684.24 701.12,-684.24 701.12,-652.24 876.12,-652.24 876.12,-684.24"/>
<text text-anchor="start" x="709.12" y="-670.74" font-family="Helvetica,sans-Serif" font-size="10.00">LSM1x0A_LoRaWAN::setUnconfirm</text>
<text text-anchor="middle" x="788.62" y="-658.74" font-family="Helvetica,sans-Serif" font-size="10.00">Retry</text>
</a>
</g>
</g>
<!-- Node12&#45;&gt;Node28 -->
<g id="edge48_Node000012_Node000028" class="edge">
<title>Node12&#45;&gt;Node28</title>
<g id="a_edge48_Node000012_Node000028"><a xlink:title=" ">
<path fill="none" stroke="#63b8ff" d="M586.04,-517.71C602.38,-547.53 641.01,-610.42 691.75,-643.24 693.72,-644.52 695.76,-645.73 697.85,-646.88"/>
<polygon fill="#63b8ff" stroke="#63b8ff" points="696.06,-649.9 706.58,-651.16 699.14,-643.62 696.06,-649.9"/>
</a>
</g>
</g>
<!-- Node13&#45;&gt;Node2 -->
<g id="edge18_Node000013_Node000002" class="edge">
<title>Node13&#45;&gt;Node2</title>
<g id="a_edge18_Node000013_Node000002"><a xlink:title=" ">
<path fill="none" stroke="#63b8ff" d="M712.47,-619.59C625.79,-613.37 479.27,-600.24 355.25,-576.24 339.42,-573.18 322.55,-568.98 306.86,-564.66"/>
<polygon fill="#63b8ff" stroke="#63b8ff" points="308.25,-561.41 297.67,-562.07 306.35,-568.15 308.25,-561.41"/>
</a>
</g>
</g>
<!-- Node14&#45;&gt;Node2 -->
<g id="edge20_Node000014_Node000002" class="edge">
<title>Node14&#45;&gt;Node2</title>
<g id="a_edge20_Node000014_Node000002"><a xlink:title=" ">
<path fill="none" stroke="#63b8ff" d="M712.16,-582.54C625.8,-578.03 480.17,-569.58 355.25,-558.24 339.74,-556.83 323.06,-555.04 307.44,-553.23"/>
<polygon fill="#63b8ff" stroke="#63b8ff" points="308.14,-549.79 297.8,-552.09 307.32,-556.74 308.14,-549.79"/>
</a>
</g>
</g>
<!-- Node15&#45;&gt;Node2 -->
<g id="edge23_Node000015_Node000002" class="edge">
<title>Node15&#45;&gt;Node2</title>
<g id="a_edge23_Node000015_Node000002"><a xlink:title=" ">
<path fill="none" stroke="#63b8ff" d="M706.32,-542.69C597.4,-543.29 406.39,-544.35 307.43,-544.89"/>
<polygon fill="#63b8ff" stroke="#63b8ff" points="307.62,-541.39 297.64,-544.95 307.66,-548.39 307.62,-541.39"/>
</a>
</g>
</g>
<!-- Node16&#45;&gt;Node2 -->
<g id="edge25_Node000016_Node000002" class="edge">
<title>Node16&#45;&gt;Node2</title>
<g id="a_edge25_Node000016_Node000002"><a xlink:title=" ">
<path fill="none" stroke="#63b8ff" d="M702.3,-460.23C644.18,-461.37 565.65,-465.17 497.25,-476.24 429.57,-487.2 353.96,-509.11 303.13,-525.32"/>
<polygon fill="#63b8ff" stroke="#63b8ff" points="302.24,-521.93 293.79,-528.32 304.38,-528.59 302.24,-521.93"/>
</a>
</g>
</g>
<!-- Node17&#45;&gt;Node2 -->
<g id="edge27_Node000017_Node000002" class="edge">
<title>Node17&#45;&gt;Node2</title>
<g id="a_edge27_Node000017_Node000002"><a xlink:title=" ">
<path fill="none" stroke="#63b8ff" d="M704.31,-423.11C615.4,-426.38 471.62,-438.46 355.25,-480.24 326.59,-490.53 296.94,-508.26 275.47,-522.61"/>
<polygon fill="#63b8ff" stroke="#63b8ff" points="273.75,-519.54 267.47,-528.07 277.7,-525.33 273.75,-519.54"/>
</a>
</g>
</g>
<!-- Node18&#45;&gt;Node2 -->
<g id="edge29_Node000018_Node000002" class="edge">
<title>Node18&#45;&gt;Node2</title>
<g id="a_edge29_Node000018_Node000002"><a xlink:title=" ">
<path fill="none" stroke="#63b8ff" d="M705.66,-382C615.37,-382.7 468.03,-393.42 355.25,-448.24 319.24,-465.75 285.74,-498.02 265.1,-520.51"/>
<polygon fill="#63b8ff" stroke="#63b8ff" points="262.67,-517.99 258.6,-527.77 267.88,-522.66 262.67,-517.99"/>
</a>
</g>
</g>
<!-- Node19&#45;&gt;Node2 -->
<g id="edge31_Node000019_Node000002" class="edge">
<title>Node19&#45;&gt;Node2</title>
<g id="a_edge31_Node000019_Node000002"><a xlink:title=" ">
<path fill="none" stroke="#63b8ff" d="M712.65,-335.27C621.54,-332.76 466.26,-340.17 355.25,-407.24 310.05,-434.55 275.46,-487.26 257.56,-519.04"/>
<polygon fill="#63b8ff" stroke="#63b8ff" points="254.6,-517.17 252.87,-527.62 260.74,-520.53 254.6,-517.17"/>
</a>
</g>
</g>
<!-- Node20&#45;&gt;Node2 -->
<g id="edge33_Node000020_Node000002" class="edge">
<title>Node20&#45;&gt;Node2</title>
<g id="a_edge33_Node000020_Node000002"><a xlink:title=" ">
<path fill="none" stroke="#63b8ff" d="M711.8,-283.46C619.14,-279.14 461.58,-285.06 355.25,-360.24 299.43,-399.71 266.67,-476.87 252.45,-517.96"/>
<polygon fill="#63b8ff" stroke="#63b8ff" points="249.17,-516.74 249.33,-527.33 255.81,-518.95 249.17,-516.74"/>
</a>
</g>
</g>
<!-- Node21&#45;&gt;Node2 -->
<g id="edge35_Node000021_Node000002" class="edge">
<title>Node21&#45;&gt;Node2</title>
<g id="a_edge35_Node000021_Node000002"><a xlink:title=" ">
<path fill="none" stroke="#63b8ff" d="M711.61,-231.18C617.66,-224.28 457.69,-227.07 355.25,-308.24 287.12,-362.22 258.7,-467.8 248.68,-517.77"/>
<polygon fill="#63b8ff" stroke="#63b8ff" points="245.27,-516.98 246.84,-527.45 252.14,-518.28 245.27,-516.98"/>
</a>
</g>
</g>
<!-- Node22&#45;&gt;Node2 -->
<g id="edge37_Node000022_Node000002" class="edge">
<title>Node22&#45;&gt;Node2</title>
<g id="a_edge37_Node000022_Node000002"><a xlink:title=" ">
<path fill="none" stroke="#63b8ff" d="M730.37,-185.79C639.73,-172.73 462.47,-161.83 355.25,-251.24 272.1,-320.58 251.01,-459.01 245.73,-517.81"/>
<polygon fill="#63b8ff" stroke="#63b8ff" points="242.26,-517.34 244.95,-527.58 249.24,-517.9 242.26,-517.34"/>
</a>
</g>
</g>
<!-- Node23&#45;&gt;Node2 -->
<g id="edge39_Node000023_Node000002" class="edge">
<title>Node23&#45;&gt;Node2</title>
<g id="a_edge39_Node000023_Node000002"><a xlink:title=" ">
<path fill="none" stroke="#63b8ff" d="M701.79,-154.14C590.91,-150.7 406.09,-151.85 355.25,-194.24 255.18,-277.67 243.93,-450.74 243.51,-517.83"/>
<polygon fill="#63b8ff" stroke="#63b8ff" points="240.01,-517.58 243.53,-527.57 247.01,-517.56 240.01,-517.58"/>
</a>
</g>
</g>
<!-- Node24&#45;&gt;Node2 -->
<g id="edge41_Node000024_Node000002" class="edge">
<title>Node24&#45;&gt;Node2</title>
<g id="a_edge41_Node000024_Node000002"><a xlink:title=" ">
<path fill="none" stroke="#63b8ff" d="M693.21,-116.49C581.7,-114.07 405.04,-117.21 355.25,-158.24 298.29,-205.18 259.61,-437.99 247.8,-518.1"/>
<polygon fill="#63b8ff" stroke="#63b8ff" points="244.38,-517.29 246.41,-527.69 251.31,-518.29 244.38,-517.29"/>
</a>
</g>
</g>
<!-- Node25&#45;&gt;Node2 -->
<g id="edge43_Node000025_Node000002" class="edge">
<title>Node25&#45;&gt;Node2</title>
<g id="a_edge43_Node000025_Node000002"><a xlink:title=" ">
<path fill="none" stroke="#63b8ff" d="M701.73,-789.74C607.97,-787.17 457.59,-770.25 355.25,-695.24 309.71,-661.86 274.64,-604.48 256.88,-571.2"/>
<polygon fill="#63b8ff" stroke="#63b8ff" points="260.15,-569.9 252.43,-562.65 253.94,-573.13 260.15,-569.9"/>
</a>
</g>
</g>
<!-- Node26&#45;&gt;Node2 -->
<g id="edge45_Node000026_Node000002" class="edge">
<title>Node26&#45;&gt;Node2</title>
<g id="a_edge45_Node000026_Node000002"><a xlink:title=" ">
<path fill="none" stroke="#63b8ff" d="M691.67,-747.69C599.41,-741.31 459.03,-720.96 355.25,-658.24 317.23,-635.26 282.93,-596.35 262.77,-570.72"/>
<polygon fill="#63b8ff" stroke="#63b8ff" points="265.56,-568.6 256.69,-562.81 260.01,-572.87 265.56,-568.6"/>
</a>
</g>
</g>
<!-- Node27&#45;&gt;Node2 -->
<g id="edge47_Node000027_Node000002" class="edge">
<title>Node27&#45;&gt;Node2</title>
<g id="a_edge47_Node000027_Node000002"><a xlink:title=" ">
<path fill="none" stroke="#63b8ff" d="M703.66,-706.78C613.88,-698.38 469.09,-677.34 355.25,-625.24 323.64,-610.77 291.87,-586.76 270.42,-568.81"/>
<polygon fill="#63b8ff" stroke="#63b8ff" points="272.92,-566.34 263.04,-562.51 268.38,-571.67 272.92,-566.34"/>
</a>
</g>
</g>
<!-- Node28&#45;&gt;Node2 -->
<g id="edge49_Node000028_Node000002" class="edge">
<title>Node28&#45;&gt;Node2</title>
<g id="a_edge49_Node000028_Node000002"><a xlink:title=" ">
<path fill="none" stroke="#63b8ff" d="M700.64,-661.47C612.13,-652.89 471.75,-634.61 355.25,-598.24 330.09,-590.39 303.39,-577.82 282.45,-566.89"/>
<polygon fill="#63b8ff" stroke="#63b8ff" points="284.17,-563.85 273.7,-562.24 280.88,-570.03 284.17,-563.85"/>
</a>
</g>
</g>
<!-- Node30&#45;&gt;Node31 -->
<g id="edge52_Node000030_Node000031" class="edge">
<title>Node30&#45;&gt;Node31</title>
<g id="a_edge52_Node000030_Node000031"><a xlink:title=" ">
<path fill="none" stroke="#63b8ff" d="M629.98,-1118.23C659.32,-1124.37 696.03,-1132.06 726.64,-1138.47"/>
<polygon fill="#63b8ff" stroke="#63b8ff" points="725.63,-1141.84 736.14,-1140.46 727.07,-1134.98 725.63,-1141.84"/>
</a>
</g>
</g>
<!-- Node32 -->
<g id="Node000032" class="node">
<title>Node32</title>
<g id="a_Node000032"><a xlink:href="../../d6/d3c/classLSM1x0A__AtParser.html#a0ba6f927c54fceece22c17773d3f2600" target="_top" xlink:title="Sends a command and extracts a value from the response.">
<polygon fill="white" stroke="#666666" points="1103.62,-1186.24 929.38,-1186.24 929.38,-1154.24 1103.62,-1154.24 1103.62,-1186.24"/>
<text text-anchor="start" x="937.38" y="-1172.74" font-family="Helvetica,sans-Serif" font-size="10.00">LSM1x0A_AtParser::sendCommand</text>
<text text-anchor="middle" x="1016.5" y="-1160.74" font-family="Helvetica,sans-Serif" font-size="10.00">WithResponse</text>
</a>
</g>
</g>
<!-- Node31&#45;&gt;Node32 -->
<g id="edge53_Node000031_Node000032" class="edge">
<title>Node31&#45;&gt;Node32</title>
<g id="a_edge53_Node000031_Node000032"><a xlink:title=" ">
<path fill="none" stroke="#63b8ff" d="M875.99,-1158.51C889.74,-1159.66 904.06,-1160.87 918.05,-1162.04"/>
<polygon fill="#63b8ff" stroke="#63b8ff" points="917.42,-1165.5 927.68,-1162.85 918.01,-1158.53 917.42,-1165.5"/>
</a>
</g>
</g>
<!-- Node33 -->
<g id="Node000033" class="node">
<title>Node33</title>
<g id="a_Node000033"><a xlink:href="../../d5/d8b/classUartDriver.html#a5d0f22e8867eebe99273078bb19bd23d" target="_top" xlink:title="Sends data through UART.">
<polygon fill="white" stroke="#666666" points="1278.25,-1180.24 1169.25,-1180.24 1169.25,-1160.24 1278.25,-1160.24 1278.25,-1180.24"/>
<text text-anchor="middle" x="1223.75" y="-1166.74" font-family="Helvetica,sans-Serif" font-size="10.00">UartDriver::sendData</text>
</a>
</g>
</g>
<!-- Node32&#45;&gt;Node33 -->
<g id="edge54_Node000032_Node000033" class="edge">
<title>Node32&#45;&gt;Node33</title>
<g id="a_edge54_Node000032_Node000033"><a xlink:title=" ">
<path fill="none" stroke="#63b8ff" d="M1103.95,-1170.24C1121.84,-1170.24 1140.41,-1170.24 1157.39,-1170.24"/>
<polygon fill="#63b8ff" stroke="#63b8ff" points="1157.36,-1173.74 1167.36,-1170.24 1157.36,-1166.74 1157.36,-1173.74"/>
</a>
</g>
</g>
<!-- Node34&#45;&gt;Node3 -->
<g id="edge57_Node000034_Node000003" class="edge">
<title>Node34&#45;&gt;Node3</title>
<g id="a_edge57_Node000034_Node000003"><a xlink:title=" ">
<path fill="none" stroke="#63b8ff" d="M319.41,-937.24C327.5,-937.24 335.66,-937.24 343.59,-937.24"/>
<polygon fill="#63b8ff" stroke="#63b8ff" points="343.48,-940.74 353.48,-937.24 343.48,-933.74 343.48,-940.74"/>
</a>
</g>
</g>
<!-- Node34&#45;&gt;Node32 -->
<g id="edge58_Node000034_Node000032" class="edge">
<title>Node34&#45;&gt;Node32</title>
<g id="a_edge58_Node000034_Node000032"><a xlink:title=" ">
<path fill="none" stroke="#63b8ff" d="M255.27,-953.53C287.04,-997.78 382.52,-1119.78 497.25,-1162.24 636.42,-1213.75 811.35,-1202.21 918.22,-1187.49"/>
<polygon fill="#63b8ff" stroke="#63b8ff" points="918.39,-1191 927.8,-1186.13 917.41,-1184.07 918.39,-1191"/>
</a>
</g>
</g>
</g>
</svg>
