<?xml version="1.0" encoding="UTF-8" standalone="no"?>
<!DOCTYPE svg PUBLIC "-//W3C//DTD SVG 1.1//EN"
 "http://www.w3.org/Graphics/SVG/1.1/DTD/svg11.dtd">
<!-- Generated by graphviz version 12.2.1 (20241206.2353)
 -->
<!-- Title: LSM1x0A_Sigfox::getRadioPower Pages: 1 -->
<svg width="1836pt" height="1018pt"
 viewBox="0.00 0.00 1836.00 1018.48" xmlns="http://www.w3.org/2000/svg" xmlns:xlink="http://www.w3.org/1999/xlink">
<g id="graph0" class="graph" transform="scale(1 1) rotate(0) translate(4 1014.48)">
<title>LSM1x0A_Sigfox::getRadioPower</title>
<!-- Node1 -->
<g id="Node000001" class="node">
<title>Node1</title>
<g id="a_Node000001"><a xlink:title="Gets the configured TX power for Sigfox.">
<polygon fill="#999999" stroke="#666666" points="136.75,-104 0,-104 0,-72 136.75,-72 136.75,-104"/>
<text text-anchor="start" x="8" y="-90.5" font-family="Helvetica,sans-Serif" font-size="10.00">LSM1x0A_Sigfox::getRadio</text>
<text text-anchor="middle" x="68.38" y="-78.5" font-family="Helvetica,sans-Serif" font-size="10.00">Power</text>
</a>
</g>
</g>
<!-- Node2 -->
<g id="Node000002" class="node">
<title>Node2</title>
<g id="a_Node000002"><a xlink:href="../../d8/d92/classLSM1x0A__Controller.html#ab00328d1be83aa51bce8c2a4f907c5f4" target="_top" xlink:title="Sends an AT command and captures its response in a text block. Ideal for getters (e....">
<polygon fill="white" stroke="#666666" points="325.25,-104 172.75,-104 172.75,-72 325.25,-72 325.25,-104"/>
<text text-anchor="start" x="180.75" y="-90.5" font-family="Helvetica,sans-Serif" font-size="10.00">LSM1x0A_Controller</text>
<text text-anchor="middle" x="249" y="-78.5" font-family="Helvetica,sans-Serif" font-size="10.00">::sendCommandWithResponse</text>
</a>
</g>
</g>
<!-- Node1&#45;&gt;Node2 -->
<g id="edge1_Node000001_Node000002" class="edge">
<title>Node1&#45;&gt;Node2</title>
<g id="a_edge1_Node000001_Node000002"><a xlink:title=" ">
<path fill="none" stroke="#63b8ff" d="M137.16,-88C145.01,-88 153.09,-88 161.15,-88"/>
<polygon fill="#63b8ff" stroke="#63b8ff" points="160.98,-91.5 170.98,-88 160.98,-84.5 160.98,-91.5"/>
</a>
</g>
</g>
<!-- Node3 -->
<g id="Node000003" class="node">
<title>Node3</title>
<g id="a_Node000003"><a xlink:href="../../d8/d92/classLSM1x0A__Controller.html#abb0eb380daa3dfb7acffb483c5db8e2b" target="_top" xlink:title="Executes the recovery protocol. First Soft&#45;Reset (ATZ), then Hard&#45;Reset if there is a pin.">
<polygon fill="white" stroke="#666666" points="467.25,-214 361.25,-214 361.25,-182 467.25,-182 467.25,-214"/>
<text text-anchor="start" x="369.25" y="-200.5" font-family="Helvetica,sans-Serif" font-size="10.00">LSM1x0A_Controller</text>
<text text-anchor="middle" x="414.25" y="-188.5" font-family="Helvetica,sans-Serif" font-size="10.00">::recoverModule</text>
</a>
</g>
</g>
<!-- Node2&#45;&gt;Node3 -->
<g id="edge2_Node000002_Node000003" class="edge">
<title>Node2&#45;&gt;Node3</title>
<g id="a_edge2_Node000002_Node000003"><a xlink:title=" ">
<path fill="none" stroke="#63b8ff" d="M274.44,-104.47C302.41,-123.32 348.39,-154.29 379.7,-175.39"/>
<polygon fill="#63b8ff" stroke="#63b8ff" points="377.41,-178.07 387.65,-180.75 381.32,-172.26 377.41,-178.07"/>
</a>
</g>
</g>
<!-- Node12 -->
<g id="Node000012" class="node">
<title>Node12</title>
<g id="a_Node000012"><a xlink:href="../../d6/d3c/classLSM1x0A__AtParser.html#a0ba6f927c54fceece22c17773d3f2600" target="_top" xlink:title="Sends a command and extracts a value from the response.">
<polygon fill="white" stroke="#666666" points="1683,-287 1508.75,-287 1508.75,-255 1683,-255 1683,-287"/>
<text text-anchor="start" x="1516.75" y="-273.5" font-family="Helvetica,sans-Serif" font-size="10.00">LSM1x0A_AtParser::sendCommand</text>
<text text-anchor="middle" x="1595.88" y="-261.5" font-family="Helvetica,sans-Serif" font-size="10.00">WithResponse</text>
</a>
</g>
</g>
<!-- Node2&#45;&gt;Node12 -->
<g id="edge57_Node000002_Node000012" class="edge">
<title>Node2&#45;&gt;Node12</title>
<g id="a_edge57_Node000002_Node000012"><a xlink:title=" ">
<path fill="none" stroke="#63b8ff" d="M286.44,-71.65C346.61,-46.21 471.04,0 581.5,0 581.5,0 581.5,0 1187.25,0 1364.19,0 1522.95,-179.26 1576.06,-246.19"/>
<polygon fill="#63b8ff" stroke="#63b8ff" points="1572.99,-247.95 1581.91,-253.67 1578.5,-243.64 1572.99,-247.95"/>
</a>
</g>
</g>
<!-- Node4 -->
<g id="Node000004" class="node">
<title>Node4</title>
<g id="a_Node000004"><a xlink:href="../../d8/d92/classLSM1x0A__Controller.html#a3f6f25b843fe4fb7042c544deae2ab16" target="_top" xlink:title="Manually clears bits from the internal EventGroup.">
<polygon fill="white" stroke="#666666" points="1030.12,-98 924.12,-98 924.12,-66 1030.12,-66 1030.12,-98"/>
<text text-anchor="start" x="932.12" y="-84.5" font-family="Helvetica,sans-Serif" font-size="10.00">LSM1x0A_Controller</text>
<text text-anchor="middle" x="977.12" y="-72.5" font-family="Helvetica,sans-Serif" font-size="10.00">::clearEvents</text>
</a>
</g>
</g>
<!-- Node3&#45;&gt;Node4 -->
<g id="edge3_Node000003_Node000004" class="edge">
<title>Node3&#45;&gt;Node4</title>
<g id="a_edge3_Node000003_Node000004"><a xlink:title=" ">
<path fill="none" stroke="#63b8ff" d="M439.93,-181.53C456.98,-171 480.59,-158.03 503.25,-151 648.9,-105.82 693.98,-138.94 844.25,-113 866.75,-109.12 891.15,-103.72 912.77,-98.52"/>
<polygon fill="#63b8ff" stroke="#63b8ff" points="913.45,-101.96 922.33,-96.18 911.78,-95.16 913.45,-101.96"/>
</a>
</g>
</g>
<!-- Node5 -->
<g id="Node000005" class="node">
<title>Node5</title>
<g id="a_Node000005"><a xlink:href="../../d8/d92/classLSM1x0A__Controller.html#a345d4bd79fa16b18dc33a4ca788fe5f7" target="_top" xlink:title="Performs a hardware reset using the reset pin.">
<polygon fill="white" stroke="#666666" points="635.5,-104 529.5,-104 529.5,-72 635.5,-72 635.5,-104"/>
<text text-anchor="start" x="537.5" y="-90.5" font-family="Helvetica,sans-Serif" font-size="10.00">LSM1x0A_Controller</text>
<text text-anchor="middle" x="582.5" y="-78.5" font-family="Helvetica,sans-Serif" font-size="10.00">::hardwareReset</text>
</a>
</g>
</g>
<!-- Node3&#45;&gt;Node5 -->
<g id="edge4_Node000003_Node000005" class="edge">
<title>Node3&#45;&gt;Node5</title>
<g id="a_edge4_Node000003_Node000005"><a xlink:title=" ">
<path fill="none" stroke="#63b8ff" d="M429.71,-181.63C446.07,-163.93 474.24,-135.86 503.25,-118 508.52,-114.76 514.19,-111.77 519.99,-109.03"/>
<polygon fill="#63b8ff" stroke="#63b8ff" points="521.39,-112.24 529.13,-104.99 518.56,-105.83 521.39,-112.24"/>
</a>
</g>
</g>
<!-- Node7 -->
<g id="Node000007" class="node">
<title>Node7</title>
<g id="a_Node000007"><a xlink:href="../../d5/d72/classLSM1x0A__LoRaWAN.html#a1892801e37c8cd67d37c76108d6f7d49" target="_top" xlink:title="Validates if the device is currently Joined to the network. (Either confirmed by OTAA or statically a...">
<polygon fill="white" stroke="#666666" points="1262.5,-136 1110,-136 1110,-116 1262.5,-116 1262.5,-136"/>
<text text-anchor="middle" x="1186.25" y="-122.5" font-family="Helvetica,sans-Serif" font-size="10.00">LSM1x0A_LoRaWAN::isJoined</text>
</a>
</g>
</g>
<!-- Node3&#45;&gt;Node7 -->
<g id="edge6_Node000003_Node000007" class="edge">
<title>Node3&#45;&gt;Node7</title>
<g id="a_edge6_Node000003_Node000007"><a xlink:title=" ">
<path fill="none" stroke="#63b8ff" d="M420.18,-181.77C430.24,-151.92 456.23,-88.97 503.25,-63 614.29,-1.69 952.01,-22.24 1074,-57 1109.07,-66.99 1143.87,-91.56 1164.97,-108.51"/>
<polygon fill="#63b8ff" stroke="#63b8ff" points="1162.55,-111.05 1172.49,-114.72 1167.01,-105.65 1162.55,-111.05"/>
</a>
</g>
</g>
<!-- Node8 -->
<g id="Node000008" class="node">
<title>Node8</title>
<g id="a_Node000008"><a xlink:href="../../d5/d72/classLSM1x0A__LoRaWAN.html#a83e11c0e74ff9e0757db616ab1163424" target="_top" xlink:title="Attempts to recover a lost connection (re&#45;executes OTAA Join if dropped).">
<polygon fill="white" stroke="#666666" points="656.88,-192 508.12,-192 508.12,-160 656.88,-160 656.88,-192"/>
<text text-anchor="start" x="516.12" y="-178.5" font-family="Helvetica,sans-Serif" font-size="10.00">LSM1x0A_LoRaWAN::recover</text>
<text text-anchor="middle" x="582.5" y="-166.5" font-family="Helvetica,sans-Serif" font-size="10.00">Connection</text>
</a>
</g>
</g>
<!-- Node3&#45;&gt;Node8 -->
<g id="edge7_Node000003_Node000008" class="edge">
<title>Node3&#45;&gt;Node8</title>
<g id="a_edge7_Node000003_Node000008"><a xlink:title=" ">
<path fill="none" stroke="#63b8ff" d="M467.4,-191.1C476.74,-189.86 486.69,-188.55 496.67,-187.23"/>
<polygon fill="#63b8ff" stroke="#63b8ff" points="496.97,-190.72 506.42,-185.94 496.05,-183.78 496.97,-190.72"/>
</a>
</g>
</g>
<!-- Node16 -->
<g id="Node000016" class="node">
<title>Node16</title>
<g id="a_Node000016"><a xlink:href="../../d5/d72/classLSM1x0A__LoRaWAN.html#ae3be4ce59dfa200369733317df356e97" target="_top" xlink:title="Pushes the RAM&#45;cached variables back down into the hardware module. Restores the operational state af...">
<polygon fill="white" stroke="#666666" points="844.25,-539 697.75,-539 697.75,-507 844.25,-507 844.25,-539"/>
<text text-anchor="start" x="705.75" y="-525.5" font-family="Helvetica,sans-Serif" font-size="10.00">LSM1x0A_LoRaWAN::restore</text>
<text text-anchor="middle" x="771" y="-513.5" font-family="Helvetica,sans-Serif" font-size="10.00">Config</text>
</a>
</g>
</g>
<!-- Node3&#45;&gt;Node16 -->
<g id="edge20_Node000003_Node000016" class="edge">
<title>Node3&#45;&gt;Node16</title>
<g id="a_edge20_Node000003_Node000016"><a xlink:title=" ">
<path fill="none" stroke="#63b8ff" d="M432.84,-214.12C490.76,-267.18 675.69,-436.6 744.17,-499.34"/>
<polygon fill="#63b8ff" stroke="#63b8ff" points="741.45,-501.59 751.19,-505.76 746.18,-496.43 741.45,-501.59"/>
</a>
</g>
</g>
<!-- Node33 -->
<g id="Node000033" class="node">
<title>Node33</title>
<g id="a_Node000033"><a xlink:href="../../d5/d72/classLSM1x0A__LoRaWAN.html#ace4b04396f1de1f4a54f513f5f378db7" target="_top" xlink:title="Manually overrides the internal joined state tracker.">
<polygon fill="white" stroke="#666666" points="661.75,-939 503.25,-939 503.25,-919 661.75,-919 661.75,-939"/>
<text text-anchor="middle" x="582.5" y="-925.5" font-family="Helvetica,sans-Serif" font-size="10.00">LSM1x0A_LoRaWAN::setJoined</text>
</a>
</g>
</g>
<!-- Node3&#45;&gt;Node33 -->
<g id="edge54_Node000003_Node000033" class="edge">
<title>Node3&#45;&gt;Node33</title>
<g id="a_edge54_Node000003_Node000033"><a xlink:title=" ">
<path fill="none" stroke="#63b8ff" d="M414.97,-214.4C413.65,-310.08 411.58,-795.83 503.25,-905 505.67,-907.88 508.43,-910.43 511.43,-912.67"/>
<polygon fill="#63b8ff" stroke="#63b8ff" points="509.41,-915.54 519.77,-917.75 513.05,-909.56 509.41,-915.54"/>
</a>
</g>
</g>
<!-- Node34 -->
<g id="Node000034" class="node">
<title>Node34</title>
<g id="a_Node000034"><a xlink:href="../../d8/d92/classLSM1x0A__Controller.html#a11ad21cb5ca33ec51346764a23bd485e" target="_top" xlink:title="Performs a software reset (ATZ Command).">
<polygon fill="white" stroke="#666666" points="1239.25,-795 1133.25,-795 1133.25,-763 1239.25,-763 1239.25,-795"/>
<text text-anchor="start" x="1141.25" y="-781.5" font-family="Helvetica,sans-Serif" font-size="10.00">LSM1x0A_Controller</text>
<text text-anchor="middle" x="1186.25" y="-769.5" font-family="Helvetica,sans-Serif" font-size="10.00">::softwareReset</text>
</a>
</g>
</g>
<!-- Node3&#45;&gt;Node34 -->
<g id="edge55_Node000003_Node000034" class="edge">
<title>Node3&#45;&gt;Node34</title>
<g id="a_edge55_Node000003_Node000034"><a xlink:title=" ">
<path fill="none" stroke="#63b8ff" d="M415.89,-214.18C420.16,-318.83 446.25,-897.3 503.25,-948 568.44,-1005.99 836.39,-1058.87 1074,-932 1125.46,-904.52 1159.07,-841.52 1174.82,-805.51"/>
<polygon fill="#63b8ff" stroke="#63b8ff" points="1177.89,-807.25 1178.55,-796.67 1171.44,-804.53 1177.89,-807.25"/>
</a>
</g>
</g>
<!-- Node6 -->
<g id="Node000006" class="node">
<title>Node6</title>
<g id="a_Node000006"><a xlink:href="../../d6/d3c/classLSM1x0A__AtParser.html#ad2839120da13e56132b95019419be1e5" target="_top" xlink:title="Waits for an event (like BOOTALERT) without sending any command. Useful for hardware reset where the ...">
<polygon fill="white" stroke="#666666" points="841.25,-104 700.75,-104 700.75,-72 841.25,-72 841.25,-104"/>
<text text-anchor="start" x="708.75" y="-90.5" font-family="Helvetica,sans-Serif" font-size="10.00">LSM1x0A_AtParser::waitFor</text>
<text text-anchor="middle" x="771" y="-78.5" font-family="Helvetica,sans-Serif" font-size="10.00">Event</text>
</a>
</g>
</g>
<!-- Node5&#45;&gt;Node6 -->
<g id="edge5_Node000005_Node000006" class="edge">
<title>Node5&#45;&gt;Node6</title>
<g id="a_edge5_Node000005_Node000006"><a xlink:title=" ">
<path fill="none" stroke="#63b8ff" d="M635.95,-88C652.46,-88 671.11,-88 689.12,-88"/>
<polygon fill="#63b8ff" stroke="#63b8ff" points="689.03,-91.5 699.03,-88 689.03,-84.5 689.03,-91.5"/>
</a>
</g>
</g>
<!-- Node9 -->
<g id="Node000009" class="node">
<title>Node9</title>
<g id="a_Node000009"><a xlink:href="../../d5/d72/classLSM1x0A__LoRaWAN.html#a59f781f3cfd30c11cd3973bcb10a7baa" target="_top" xlink:title="Initiates a LoRaWAN Network Join procedure. This is a blocking function until the module fires an eve...">
<polygon fill="white" stroke="#666666" points="836.75,-186 705.25,-186 705.25,-166 836.75,-166 836.75,-186"/>
<text text-anchor="middle" x="771" y="-172.5" font-family="Helvetica,sans-Serif" font-size="10.00">LSM1x0A_LoRaWAN::join</text>
</a>
</g>
</g>
<!-- Node8&#45;&gt;Node9 -->
<g id="edge8_Node000008_Node000009" class="edge">
<title>Node8&#45;&gt;Node9</title>
<g id="a_edge8_Node000008_Node000009"><a xlink:title=" ">
<path fill="none" stroke="#63b8ff" d="M657.21,-176C669.17,-176 681.58,-176 693.6,-176"/>
<polygon fill="#63b8ff" stroke="#63b8ff" points="693.47,-179.5 703.47,-176 693.47,-172.5 693.47,-179.5"/>
</a>
</g>
</g>
<!-- Node9&#45;&gt;Node3 -->
<g id="edge10_Node000009_Node000003" class="edge">
<title>Node9&#45;&gt;Node3</title>
<g id="a_edge10_Node000009_Node000003"><a xlink:title=" ">
<path fill="none" stroke="#63b8ff" d="M734.27,-186.4C713.34,-191.95 686.28,-198.2 661.75,-201 591.76,-208.98 573.68,-202.2 503.25,-201 495.35,-200.87 487.06,-200.66 478.86,-200.43"/>
<polygon fill="#63b8ff" stroke="#63b8ff" points="478.98,-196.93 468.87,-200.12 478.76,-203.92 478.98,-196.93"/>
</a>
</g>
</g>
<!-- Node9&#45;&gt;Node4 -->
<g id="edge9_Node000009_Node000004" class="edge">
<title>Node9&#45;&gt;Node4</title>
<g id="a_edge9_Node000009_Node000004"><a xlink:title=" ">
<path fill="none" stroke="#63b8ff" d="M805.55,-165.52C818.3,-160.68 832.56,-154.16 844.25,-146 863.59,-132.5 860.02,-119.13 880.25,-107 890.2,-101.03 901.56,-96.47 912.9,-93"/>
<polygon fill="#63b8ff" stroke="#63b8ff" points="913.57,-96.45 922.26,-90.39 911.69,-89.7 913.57,-96.45"/>
</a>
</g>
</g>
<!-- Node10 -->
<g id="Node000010" class="node">
<title>Node10</title>
<g id="a_Node000010"><a xlink:href="../../d8/d92/classLSM1x0A__Controller.html#afd7d92e60ed6fdae696a955cdbe0ed8c" target="_top" xlink:title="Sends any AT command to the module, returning error if it fails. Internally uses the LsmAtParser logi...">
<polygon fill="white" stroke="#666666" points="1239.25,-558 1133.25,-558 1133.25,-526 1239.25,-526 1239.25,-558"/>
<text text-anchor="start" x="1141.25" y="-544.5" font-family="Helvetica,sans-Serif" font-size="10.00">LSM1x0A_Controller</text>
<text text-anchor="middle" x="1186.25" y="-532.5" font-family="Helvetica,sans-Serif" font-size="10.00">::sendCommand</text>
</a>
</g>
</g>
<!-- Node9&#45;&gt;Node10 -->
<g id="edge11_Node000009_Node000010" class="edge">
<title>Node9&#45;&gt;Node10</title>
<g id="a_edge11_Node000009_Node000010"><a xlink:title=" ">
<path fill="none" stroke="#63b8ff" d="M837.03,-171.81C914.64,-168.2 1038.41,-167.28 1074,-195 1175.73,-274.23 1185.99,-447.25 1185.95,-514.5"/>
<polygon fill="#63b8ff" stroke="#63b8ff" points="1182.45,-514.23 1185.85,-524.26 1189.45,-514.3 1182.45,-514.23"/>
</a>
</g>
</g>
<!-- Node14 -->
<g id="Node000014" class="node">
<title>Node14</title>
<g id="a_Node000014"><a xlink:href="../../d5/d72/classLSM1x0A__LoRaWAN.html#a3fdd1ac318a5ad2559323e5d57e36a5e" target="_top" xlink:title="Enables or disables specific sub&#45;bands for regions supporting Channel Masks (e.g.,...">
<polygon fill="white" stroke="#666666" points="1072.12,-224 882.12,-224 882.12,-204 1072.12,-204 1072.12,-224"/>
<text text-anchor="middle" x="977.12" y="-210.5" font-family="Helvetica,sans-Serif" font-size="10.00">LSM1x0A_LoRaWAN::setChannelMask</text>
</a>
</g>
</g>
<!-- Node9&#45;&gt;Node14 -->
<g id="edge16_Node000009_Node000014" class="edge">
<title>Node9&#45;&gt;Node14</title>
<g id="a_edge16_Node000009_Node000014"><a xlink:title=" ">
<path fill="none" stroke="#63b8ff" d="M828.32,-186.48C853.19,-191.12 882.64,-196.6 908.68,-201.44"/>
<polygon fill="#63b8ff" stroke="#63b8ff" points="908.03,-204.88 918.5,-203.27 909.31,-198 908.03,-204.88"/>
</a>
</g>
</g>
<!-- Node15 -->
<g id="Node000015" class="node">
<title>Node15</title>
<g id="a_Node000015"><a xlink:href="../../d8/d92/classLSM1x0A__Controller.html#a62476e30e50c7fe120aeb8df4b828675" target="_top" xlink:title="Synchronously/blockingly waits for an asynchronous event to occur. Useful for wrapping commands like ...">
<polygon fill="white" stroke="#666666" points="1030.12,-148 924.12,-148 924.12,-116 1030.12,-116 1030.12,-148"/>
<text text-anchor="start" x="932.12" y="-134.5" font-family="Helvetica,sans-Serif" font-size="10.00">LSM1x0A_Controller</text>
<text text-anchor="middle" x="977.12" y="-122.5" font-family="Helvetica,sans-Serif" font-size="10.00">::waitForEvent</text>
</a>
</g>
</g>
<!-- Node9&#45;&gt;Node15 -->
<g id="edge19_Node000009_Node000015" class="edge">
<title>Node9&#45;&gt;Node15</title>
<g id="a_edge19_Node000009_Node000015"><a xlink:title=" ">
<path fill="none" stroke="#63b8ff" d="M820.63,-165.52C848.24,-159.57 883.11,-152.05 912.82,-145.65"/>
<polygon fill="#63b8ff" stroke="#63b8ff" points="913.42,-149.1 922.45,-143.57 911.94,-142.25 913.42,-149.1"/>
</a>
</g>
</g>
<!-- Node10&#45;&gt;Node3 -->
<g id="edge12_Node000010_Node000003" class="edge">
<title>Node10&#45;&gt;Node3</title>
<g id="a_edge12_Node000010_Node000003"><a xlink:title=" ">
<path fill="none" stroke="#63b8ff" d="M1178.82,-558.31C1165.06,-593.61 1132.16,-679.91 1110,-754 1090.73,-818.44 1126.92,-859.48 1074,-901 1006.25,-954.16 956.69,-940.65 880.25,-901 592.93,-751.97 454.97,-335.66 422.77,-225.19"/>
<polygon fill="#63b8ff" stroke="#63b8ff" points="426.2,-224.47 420.08,-215.82 419.47,-226.4 426.2,-224.47"/>
</a>
</g>
</g>
<!-- Node11 -->
<g id="Node000011" class="node">
<title>Node11</title>
<g id="a_Node000011"><a xlink:href="../../d6/d3c/classLSM1x0A__AtParser.html#a29b53c521974387ba6c03afadfaffa4a" target="_top" xlink:title="Sends a simple command and waits for OK/ERROR. Example: sendCommand(&quot;AT+JOIN&quot;);.">
<polygon fill="white" stroke="#666666" points="1472.75,-552 1298.5,-552 1298.5,-532 1472.75,-532 1472.75,-552"/>
<text text-anchor="middle" x="1385.62" y="-538.5" font-family="Helvetica,sans-Serif" font-size="10.00">LSM1x0A_AtParser::sendCommand</text>
</a>
</g>
</g>
<!-- Node10&#45;&gt;Node11 -->
<g id="edge13_Node000010_Node000011" class="edge">
<title>Node10&#45;&gt;Node11</title>
<g id="a_edge13_Node000010_Node000011"><a xlink:title=" ">
<path fill="none" stroke="#63b8ff" d="M1239.62,-542C1254.19,-542 1270.5,-542 1286.78,-542"/>
<polygon fill="#63b8ff" stroke="#63b8ff" points="1286.51,-545.5 1296.51,-542 1286.51,-538.5 1286.51,-545.5"/>
</a>
</g>
</g>
<!-- Node11&#45;&gt;Node12 -->
<g id="edge14_Node000011_Node000012" class="edge">
<title>Node11&#45;&gt;Node12</title>
<g id="a_edge14_Node000011_Node000012"><a xlink:title=" ">
<path fill="none" stroke="#63b8ff" d="M1394.53,-531.71C1424.44,-492.78 1531.18,-353.88 1575.44,-296.3"/>
<polygon fill="#63b8ff" stroke="#63b8ff" points="1577.98,-298.73 1581.3,-288.67 1572.43,-294.46 1577.98,-298.73"/>
</a>
</g>
</g>
<!-- Node13 -->
<g id="Node000013" class="node">
<title>Node13</title>
<g id="a_Node000013"><a xlink:href="../../d5/d8b/classUartDriver.html#a5d0f22e8867eebe99273078bb19bd23d" target="_top" xlink:title="Sends data through UART.">
<polygon fill="white" stroke="#666666" points="1828,-281 1719,-281 1719,-261 1828,-261 1828,-281"/>
<text text-anchor="middle" x="1773.5" y="-267.5" font-family="Helvetica,sans-Serif" font-size="10.00">UartDriver::sendData</text>
</a>
</g>
</g>
<!-- Node12&#45;&gt;Node13 -->
<g id="edge15_Node000012_Node000013" class="edge">
<title>Node12&#45;&gt;Node13</title>
<g id="a_edge15_Node000012_Node000013"><a xlink:title=" ">
<path fill="none" stroke="#63b8ff" d="M1683.4,-271C1691.55,-271 1699.7,-271 1707.6,-271"/>
<polygon fill="#63b8ff" stroke="#63b8ff" points="1707.43,-274.5 1717.43,-271 1707.43,-267.5 1707.43,-274.5"/>
</a>
</g>
</g>
<!-- Node14&#45;&gt;Node7 -->
<g id="edge17_Node000014_Node000007" class="edge">
<title>Node14&#45;&gt;Node7</title>
<g id="a_edge17_Node000014_Node000007"><a xlink:title=" ">
<path fill="none" stroke="#63b8ff" d="M1002.7,-203.56C1039.29,-188.01 1108.28,-158.7 1150.17,-140.9"/>
<polygon fill="#63b8ff" stroke="#63b8ff" points="1151.48,-144.15 1159.32,-137.02 1148.74,-137.71 1151.48,-144.15"/>
</a>
</g>
</g>
<!-- Node14&#45;&gt;Node10 -->
<g id="edge18_Node000014_Node000010" class="edge">
<title>Node14&#45;&gt;Node10</title>
<g id="a_edge18_Node000014_Node000010"><a xlink:title=" ">
<path fill="none" stroke="#63b8ff" d="M1060.88,-224.28C1065.58,-226.69 1070.01,-229.57 1074,-233 1160.33,-307.27 1179.67,-453.75 1184,-514.55"/>
<polygon fill="#63b8ff" stroke="#63b8ff" points="1180.5,-514.57 1184.61,-524.33 1187.48,-514.13 1180.5,-514.57"/>
</a>
</g>
</g>
<!-- Node16&#45;&gt;Node14 -->
<g id="edge25_Node000016_Node000014" class="edge">
<title>Node16&#45;&gt;Node14</title>
<g id="a_edge25_Node000016_Node000014"><a xlink:title=" ">
<path fill="none" stroke="#63b8ff" d="M772.8,-506.78C776.18,-457.25 793.45,-306.79 880.25,-233 881.38,-232.04 882.54,-231.13 883.73,-230.25"/>
<polygon fill="#63b8ff" stroke="#63b8ff" points="885.42,-233.33 892.12,-225.12 881.77,-227.35 885.42,-233.33"/>
</a>
</g>
</g>
<!-- Node17 -->
<g id="Node000017" class="node">
<title>Node17</title>
<g id="a_Node000017"><a xlink:href="../../d5/d72/classLSM1x0A__LoRaWAN.html#af0baa3db4c7fab580d6b19a9e92472f6" target="_top" xlink:title="Enables or disables Adaptive Data Rate (ADR).">
<polygon fill="white" stroke="#666666" points="1053,-350 901.25,-350 901.25,-330 1053,-330 1053,-350"/>
<text text-anchor="middle" x="977.12" y="-336.5" font-family="Helvetica,sans-Serif" font-size="10.00">LSM1x0A_LoRaWAN::setADR</text>
</a>
</g>
</g>
<!-- Node16&#45;&gt;Node17 -->
<g id="edge21_Node000016_Node000017" class="edge">
<title>Node16&#45;&gt;Node17</title>
<g id="a_edge21_Node000016_Node000017"><a xlink:title=" ">
<path fill="none" stroke="#63b8ff" d="M777.81,-506.6C790.6,-473 824.6,-396.38 880.25,-359 883.52,-356.8 886.98,-354.85 890.58,-353.11"/>
<polygon fill="#63b8ff" stroke="#63b8ff" points="891.73,-356.42 899.62,-349.35 889.04,-349.96 891.73,-356.42"/>
</a>
</g>
</g>
<!-- Node18 -->
<g id="Node000018" class="node">
<title>Node18</title>
<g id="a_Node000018"><a xlink:href="../../d5/d72/classLSM1x0A__LoRaWAN.html#a5365ed1596eb84ebf1e3b33b4a10c788" target="_top" xlink:title="Sets the LoRaWAN operational frequency band.">
<polygon fill="white" stroke="#666666" points="1053.38,-312 900.88,-312 900.88,-292 1053.38,-292 1053.38,-312"/>
<text text-anchor="middle" x="977.12" y="-298.5" font-family="Helvetica,sans-Serif" font-size="10.00">LSM1x0A_LoRaWAN::setBand</text>
</a>
</g>
</g>
<!-- Node16&#45;&gt;Node18 -->
<g id="edge23_Node000016_Node000018" class="edge">
<title>Node16&#45;&gt;Node18</title>
<g id="a_edge23_Node000016_Node000018"><a xlink:title=" ">
<path fill="none" stroke="#63b8ff" d="M775.72,-506.5C785.45,-467.43 815.49,-368.94 880.25,-321 883.41,-318.66 886.79,-316.58 890.32,-314.75"/>
<polygon fill="#63b8ff" stroke="#63b8ff" points="891.5,-318.05 899.22,-310.8 888.66,-311.66 891.5,-318.05"/>
</a>
</g>
</g>
<!-- Node19 -->
<g id="Node000019" class="node">
<title>Node19</title>
<g id="a_Node000019"><a xlink:href="../../d5/d72/classLSM1x0A__LoRaWAN.html#a9d9285c43414337a0ccb3a6cd7ca06e6" target="_top" xlink:title="Configures the number of retries for Confirmed uplinks.">
<polygon fill="white" stroke="#666666" points="1059.38,-274 894.88,-274 894.88,-242 1059.38,-242 1059.38,-274"/>
<text text-anchor="start" x="902.88" y="-260.5" font-family="Helvetica,sans-Serif" font-size="10.00">LSM1x0A_LoRaWAN::setConfirm</text>
<text text-anchor="middle" x="977.12" y="-248.5" font-family="Helvetica,sans-Serif" font-size="10.00">Retry</text>
</a>
</g>
</g>
<!-- Node16&#45;&gt;Node19 -->
<g id="edge26_Node000016_Node000019" class="edge">
<title>Node16&#45;&gt;Node19</title>
<g id="a_edge26_Node000016_Node000019"><a xlink:title=" ">
<path fill="none" stroke="#63b8ff" d="M774.43,-506.7C781.8,-463.28 807.95,-344.03 880.25,-283 881.74,-281.74 883.29,-280.55 884.88,-279.41"/>
<polygon fill="#63b8ff" stroke="#63b8ff" points="886.5,-282.52 893.2,-274.32 882.85,-276.55 886.5,-282.52"/>
</a>
</g>
</g>
<!-- Node20 -->
<g id="Node000020" class="node">
<title>Node20</title>
<g id="a_Node000020"><a xlink:href="../../d5/d72/classLSM1x0A__LoRaWAN.html#a56345ceeafa0b9059d6de4e69eddc82e" target="_top" xlink:title="Sets the Data Rate (DR) of the module.">
<polygon fill="white" stroke="#666666" points="1063.12,-892 891.12,-892 891.12,-872 1063.12,-872 1063.12,-892"/>
<text text-anchor="middle" x="977.12" y="-878.5" font-family="Helvetica,sans-Serif" font-size="10.00">LSM1x0A_LoRaWAN::setDataRate</text>
</a>
</g>
</g>
<!-- Node16&#45;&gt;Node20 -->
<g id="edge28_Node000016_Node000020" class="edge">
<title>Node16&#45;&gt;Node20</title>
<g id="a_edge28_Node000016_Node000020"><a xlink:title=" ">
<path fill="none" stroke="#63b8ff" d="M771.8,-539.16C772.04,-593.93 780.69,-774.06 880.25,-863 881.2,-863.85 882.17,-864.66 883.17,-865.44"/>
<polygon fill="#63b8ff" stroke="#63b8ff" points="881.2,-868.34 891.5,-870.83 885,-862.46 881.2,-868.34"/>
</a>
</g>
</g>
<!-- Node21 -->
<g id="Node000021" class="node">
<title>Node21</title>
<g id="a_Node000021"><a xlink:href="../../d5/d72/classLSM1x0A__LoRaWAN.html#a8494083816ab885cb07fc3b08de029f4" target="_top" xlink:title="Sets the LoRaWAN Device Address (DevAddr) for ABP mode.">
<polygon fill="white" stroke="#666666" points="1061.25,-854 893,-854 893,-834 1061.25,-834 1061.25,-854"/>
<text text-anchor="middle" x="977.12" y="-840.5" font-family="Helvetica,sans-Serif" font-size="10.00">LSM1x0A_LoRaWAN::setDevAddr</text>
</a>
</g>
</g>
<!-- Node16&#45;&gt;Node21 -->
<g id="edge30_Node000016_Node000021" class="edge">
<title>Node16&#45;&gt;Node21</title>
<g id="a_edge30_Node000016_Node000021"><a xlink:title=" ">
<path fill="none" stroke="#63b8ff" d="M772.53,-539.15C775.12,-589.92 790.37,-747.57 880.25,-825 881.37,-825.97 882.53,-826.89 883.71,-827.77"/>
<polygon fill="#63b8ff" stroke="#63b8ff" points="881.73,-830.65 892.07,-832.93 885.4,-824.7 881.73,-830.65"/>
</a>
</g>
</g>
<!-- Node22 -->
<g id="Node000022" class="node">
<title>Node22</title>
<g id="a_Node000022"><a xlink:href="../../d5/d72/classLSM1x0A__LoRaWAN.html#ad320634e52d7ea907043cc50dd37c5b0" target="_top" xlink:title="Sets the LoRaWAN Device EUI (DevEUI).">
<polygon fill="white" stroke="#666666" points="1059.75,-816 894.5,-816 894.5,-796 1059.75,-796 1059.75,-816"/>
<text text-anchor="middle" x="977.12" y="-802.5" font-family="Helvetica,sans-Serif" font-size="10.00">LSM1x0A_LoRaWAN::setDevEUI</text>
</a>
</g>
</g>
<!-- Node16&#45;&gt;Node22 -->
<g id="edge32_Node000016_Node000022" class="edge">
<title>Node16&#45;&gt;Node22</title>
<g id="a_edge32_Node000016_Node000022"><a xlink:title=" ">
<path fill="none" stroke="#63b8ff" d="M773.49,-539.44C778.64,-586.24 800.12,-721.05 880.25,-787 881.74,-788.22 883.28,-789.38 884.87,-790.46"/>
<polygon fill="#63b8ff" stroke="#63b8ff" points="882.73,-793.27 893.15,-795.21 886.22,-787.2 882.73,-793.27"/>
</a>
</g>
</g>
<!-- Node23 -->
<g id="Node000023" class="node">
<title>Node23</title>
<g id="a_Node000023"><a xlink:href="../../d5/d72/classLSM1x0A__LoRaWAN.html#a031023b0d2dd5db3c51c2db6ae7801cc" target="_top" xlink:title="Enables or disables the Duty Cycle limitation (EU regions mostly).">
<polygon fill="white" stroke="#666666" points="1052.62,-778 901.62,-778 901.62,-746 1052.62,-746 1052.62,-778"/>
<text text-anchor="start" x="909.62" y="-764.5" font-family="Helvetica,sans-Serif" font-size="10.00">LSM1x0A_LoRaWAN::setDuty</text>
<text text-anchor="middle" x="977.12" y="-752.5" font-family="Helvetica,sans-Serif" font-size="10.00">Cycle</text>
</a>
</g>
</g>
<!-- Node16&#45;&gt;Node23 -->
<g id="edge34_Node000016_Node000023" class="edge">
<title>Node16&#45;&gt;Node23</title>
<g id="a_edge34_Node000016_Node000023"><a xlink:title=" ">
<path fill="none" stroke="#63b8ff" d="M775.4,-539.3C784.65,-579.44 814.14,-683.67 880.25,-737 883.69,-739.78 887.41,-742.25 891.31,-744.44"/>
<polygon fill="#63b8ff" stroke="#63b8ff" points="889.46,-747.44 899.98,-748.7 892.55,-741.15 889.46,-747.44"/>
</a>
</g>
</g>
<!-- Node24 -->
<g id="Node000024" class="node">
<title>Node24</title>
<g id="a_Node000024"><a xlink:href="../../d5/d72/classLSM1x0A__LoRaWAN.html#a6b179d5825c49af0f391dfc539912f64" target="_top" xlink:title="Sets the delay for the Join1 receive window.">
<polygon fill="white" stroke="#666666" points="1053.75,-728 900.5,-728 900.5,-696 1053.75,-696 1053.75,-728"/>
<text text-anchor="start" x="908.5" y="-714.5" font-family="Helvetica,sans-Serif" font-size="10.00">LSM1x0A_LoRaWAN::setJoin1</text>
<text text-anchor="middle" x="977.12" y="-702.5" font-family="Helvetica,sans-Serif" font-size="10.00">Delay</text>
</a>
</g>
</g>
<!-- Node16&#45;&gt;Node24 -->
<g id="edge36_Node000016_Node000024" class="edge">
<title>Node16&#45;&gt;Node24</title>
<g id="a_edge36_Node000016_Node000024"><a xlink:title=" ">
<path fill="none" stroke="#63b8ff" d="M778.09,-539.39C791.31,-572.62 825.88,-648.08 880.25,-687 883.42,-689.27 886.79,-691.34 890.28,-693.21"/>
<polygon fill="#63b8ff" stroke="#63b8ff" points="888.53,-696.26 899.07,-697.38 891.53,-689.93 888.53,-696.26"/>
</a>
</g>
</g>
<!-- Node25 -->
<g id="Node000025" class="node">
<title>Node25</title>
<g id="a_Node000025"><a xlink:href="../../d5/d72/classLSM1x0A__LoRaWAN.html#a4545d0caad41558cdb9bae8286b104d8" target="_top" xlink:title="Sets the delay for the Join2 receive window.">
<polygon fill="white" stroke="#666666" points="1053.75,-678 900.5,-678 900.5,-646 1053.75,-646 1053.75,-678"/>
<text text-anchor="start" x="908.5" y="-664.5" font-family="Helvetica,sans-Serif" font-size="10.00">LSM1x0A_LoRaWAN::setJoin2</text>
<text text-anchor="middle" x="977.12" y="-652.5" font-family="Helvetica,sans-Serif" font-size="10.00">Delay</text>
</a>
</g>
</g>
<!-- Node16&#45;&gt;Node25 -->
<g id="edge38_Node000016_Node000025" class="edge">
<title>Node16&#45;&gt;Node25</title>
<g id="a_edge38_Node000016_Node000025"><a xlink:title=" ">
<path fill="none" stroke="#63b8ff" d="M782.89,-539.33C800.4,-564.27 837.24,-611.61 880.25,-637 883.26,-638.78 886.4,-640.43 889.63,-641.97"/>
<polygon fill="#63b8ff" stroke="#63b8ff" points="888.23,-645.18 898.8,-645.9 890.99,-638.74 888.23,-645.18"/>
</a>
</g>
</g>
<!-- Node26 -->
<g id="Node000026" class="node">
<title>Node26</title>
<g id="a_Node000026"><a xlink:href="../../d5/d72/classLSM1x0A__LoRaWAN.html#a06bd50723ec1eb7e144c9141b2ec86fc" target="_top" xlink:title="Sets the LoRaWAN Network ID (NetID).">
<polygon fill="white" stroke="#666666" points="1057.5,-628 896.75,-628 896.75,-608 1057.5,-608 1057.5,-628"/>
<text text-anchor="middle" x="977.12" y="-614.5" font-family="Helvetica,sans-Serif" font-size="10.00">LSM1x0A_LoRaWAN::setNwkID</text>
</a>
</g>
</g>
<!-- Node16&#45;&gt;Node26 -->
<g id="edge40_Node000016_Node000026" class="edge">
<title>Node16&#45;&gt;Node26</title>
<g id="a_edge40_Node000016_Node000026"><a xlink:title=" ">
<path fill="none" stroke="#63b8ff" d="M790.1,-539.34C810.51,-556.84 845.41,-584.11 880.25,-599 884.85,-600.97 889.66,-602.73 894.58,-604.32"/>
<polygon fill="#63b8ff" stroke="#63b8ff" points="893.42,-607.63 904.01,-607.08 895.39,-600.91 893.42,-607.63"/>
</a>
</g>
</g>
<!-- Node27 -->
<g id="Node000027" class="node">
<title>Node27</title>
<g id="a_Node000027"><a xlink:href="../../d5/d72/classLSM1x0A__LoRaWAN.html#aa70ada64d28ecca216bb62268e502adf" target="_top" xlink:title="Sets the delay for the RX1 receive window.">
<polygon fill="white" stroke="#666666" points="1063.88,-590 890.38,-590 890.38,-570 1063.88,-570 1063.88,-590"/>
<text text-anchor="middle" x="977.12" y="-576.5" font-family="Helvetica,sans-Serif" font-size="10.00">LSM1x0A_LoRaWAN::setRx1Delay</text>
</a>
</g>
</g>
<!-- Node16&#45;&gt;Node27 -->
<g id="edge42_Node000016_Node000027" class="edge">
<title>Node16&#45;&gt;Node27</title>
<g id="a_edge42_Node000016_Node000027"><a xlink:title=" ">
<path fill="none" stroke="#63b8ff" d="M814.49,-539.49C834.27,-546.76 858.25,-554.99 880.25,-561 888.33,-563.21 896.86,-565.27 905.37,-567.16"/>
<polygon fill="#63b8ff" stroke="#63b8ff" points="904.5,-570.55 915.01,-569.23 905.97,-563.71 904.5,-570.55"/>
</a>
</g>
</g>
<!-- Node28 -->
<g id="Node000028" class="node">
<title>Node28</title>
<g id="a_Node000028"><a xlink:href="../../d5/d72/classLSM1x0A__LoRaWAN.html#a2cf4eff0181b6107d082bccefa24217b" target="_top" xlink:title="Sets the Data Rate (DR) specifically for the RX2 window.">
<polygon fill="white" stroke="#666666" points="1072.12,-552 882.12,-552 882.12,-532 1072.12,-532 1072.12,-552"/>
<text text-anchor="middle" x="977.12" y="-538.5" font-family="Helvetica,sans-Serif" font-size="10.00">LSM1x0A_LoRaWAN::setRx2DataRate</text>
</a>
</g>
</g>
<!-- Node16&#45;&gt;Node28 -->
<g id="edge44_Node000016_Node000028" class="edge">
<title>Node16&#45;&gt;Node28</title>
<g id="a_edge44_Node000016_Node000028"><a xlink:title=" ">
<path fill="none" stroke="#63b8ff" d="M844.54,-529.75C852.91,-530.53 861.56,-531.34 870.26,-532.15"/>
<polygon fill="#63b8ff" stroke="#63b8ff" points="869.89,-535.63 880.18,-533.07 870.54,-528.66 869.89,-535.63"/>
</a>
</g>
</g>
<!-- Node29 -->
<g id="Node000029" class="node">
<title>Node29</title>
<g id="a_Node000029"><a xlink:href="../../d5/d72/classLSM1x0A__LoRaWAN.html#a42d2137b475b57e19d891a5f1ac93221" target="_top" xlink:title="Sets the delay for the RX2 receive window.">
<polygon fill="white" stroke="#666666" points="1063.88,-514 890.38,-514 890.38,-494 1063.88,-494 1063.88,-514"/>
<text text-anchor="middle" x="977.12" y="-500.5" font-family="Helvetica,sans-Serif" font-size="10.00">LSM1x0A_LoRaWAN::setRx2Delay</text>
</a>
</g>
</g>
<!-- Node16&#45;&gt;Node29 -->
<g id="edge46_Node000016_Node000029" class="edge">
<title>Node16&#45;&gt;Node29</title>
<g id="a_edge46_Node000016_Node000029"><a xlink:title=" ">
<path fill="none" stroke="#63b8ff" d="M844.54,-516.25C855.74,-515.21 867.47,-514.11 879.1,-513.03"/>
<polygon fill="#63b8ff" stroke="#63b8ff" points="879.07,-516.55 888.7,-512.14 878.42,-509.58 879.07,-516.55"/>
</a>
</g>
</g>
<!-- Node30 -->
<g id="Node000030" class="node">
<title>Node30</title>
<g id="a_Node000030"><a xlink:href="../../d5/d72/classLSM1x0A__LoRaWAN.html#a689f7dfda1dfeae11ea397c2ddf2ad37" target="_top" xlink:title="Sets the precise frequency for the RX2 window.">
<polygon fill="white" stroke="#666666" points="1074,-476 880.25,-476 880.25,-456 1074,-456 1074,-476"/>
<text text-anchor="middle" x="977.12" y="-462.5" font-family="Helvetica,sans-Serif" font-size="10.00">LSM1x0A_LoRaWAN::setRx2Frequency</text>
</a>
</g>
</g>
<!-- Node16&#45;&gt;Node30 -->
<g id="edge48_Node000016_Node000030" class="edge">
<title>Node16&#45;&gt;Node30</title>
<g id="a_edge48_Node000016_Node000030"><a xlink:title=" ">
<path fill="none" stroke="#63b8ff" d="M814.49,-506.51C834.27,-499.24 858.25,-491.01 880.25,-485 888.33,-482.79 896.86,-480.73 905.37,-478.84"/>
<polygon fill="#63b8ff" stroke="#63b8ff" points="905.97,-482.29 915.01,-476.77 904.5,-475.45 905.97,-482.29"/>
</a>
</g>
</g>
<!-- Node31 -->
<g id="Node000031" class="node">
<title>Node31</title>
<g id="a_Node000031"><a xlink:href="../../d5/d72/classLSM1x0A__LoRaWAN.html#a1df10d7ae6bf45b537d28d3d5c4b88d7" target="_top" xlink:title="Sets the transmission power index.">
<polygon fill="white" stroke="#666666" points="1061.62,-438 892.62,-438 892.62,-418 1061.62,-418 1061.62,-438"/>
<text text-anchor="middle" x="977.12" y="-424.5" font-family="Helvetica,sans-Serif" font-size="10.00">LSM1x0A_LoRaWAN::setTxPower</text>
</a>
</g>
</g>
<!-- Node16&#45;&gt;Node31 -->
<g id="edge50_Node000016_Node000031" class="edge">
<title>Node16&#45;&gt;Node31</title>
<g id="a_edge50_Node000016_Node000031"><a xlink:title=" ">
<path fill="none" stroke="#63b8ff" d="M790.1,-506.66C810.51,-489.16 845.41,-461.89 880.25,-447 884.85,-445.03 889.66,-443.27 894.58,-441.68"/>
<polygon fill="#63b8ff" stroke="#63b8ff" points="895.39,-445.09 904.01,-438.92 893.42,-438.37 895.39,-445.09"/>
</a>
</g>
</g>
<!-- Node32 -->
<g id="Node000032" class="node">
<title>Node32</title>
<g id="a_Node000032"><a xlink:href="../../d5/d72/classLSM1x0A__LoRaWAN.html#a059fd6a9356c4ecadd5a98294da5952d" target="_top" xlink:title="Configures the number of repetitions for Unconfirmed uplinks.">
<polygon fill="white" stroke="#666666" points="1064.62,-400 889.62,-400 889.62,-368 1064.62,-368 1064.62,-400"/>
<text text-anchor="start" x="897.62" y="-386.5" font-family="Helvetica,sans-Serif" font-size="10.00">LSM1x0A_LoRaWAN::setUnconfirm</text>
<text text-anchor="middle" x="977.12" y="-374.5" font-family="Helvetica,sans-Serif" font-size="10.00">Retry</text>
</a>
</g>
</g>
<!-- Node16&#45;&gt;Node32 -->
<g id="edge52_Node000016_Node000032" class="edge">
<title>Node16&#45;&gt;Node32</title>
<g id="a_edge52_Node000016_Node000032"><a xlink:title=" ">
<path fill="none" stroke="#63b8ff" d="M782.89,-506.67C800.4,-481.73 837.24,-434.39 880.25,-409 882.56,-407.64 884.95,-406.34 887.39,-405.12"/>
<polygon fill="#63b8ff" stroke="#63b8ff" points="888.65,-408.4 896.33,-401.1 885.78,-402.01 888.65,-408.4"/>
</a>
</g>
</g>
<!-- Node17&#45;&gt;Node10 -->
<g id="edge22_Node000017_Node000010" class="edge">
<title>Node17&#45;&gt;Node10</title>
<g id="a_edge22_Node000017_Node000010"><a xlink:title=" ">
<path fill="none" stroke="#63b8ff" d="M1053.4,-348.53C1060.72,-351.2 1067.74,-354.62 1074,-359 1129.59,-397.86 1162.44,-474.26 1176.74,-514.97"/>
<polygon fill="#63b8ff" stroke="#63b8ff" points="1173.36,-515.89 1179.87,-524.24 1179.99,-513.65 1173.36,-515.89"/>
</a>
</g>
</g>
<!-- Node18&#45;&gt;Node10 -->
<g id="edge24_Node000018_Node000010" class="edge">
<title>Node18&#45;&gt;Node10</title>
<g id="a_edge24_Node000018_Node000010"><a xlink:title=" ">
<path fill="none" stroke="#63b8ff" d="M1053.77,-310.03C1061.02,-312.79 1067.92,-316.38 1074,-321 1138.62,-370.13 1168.46,-467.16 1179.66,-514.6"/>
<polygon fill="#63b8ff" stroke="#63b8ff" points="1176.17,-515.06 1181.78,-524.05 1183,-513.53 1176.17,-515.06"/>
</a>
</g>
</g>
<!-- Node19&#45;&gt;Node10 -->
<g id="edge27_Node000019_Node000010" class="edge">
<title>Node19&#45;&gt;Node10</title>
<g id="a_edge27_Node000019_Node000010"><a xlink:title=" ">
<path fill="none" stroke="#63b8ff" d="M1059.83,-273.44C1064.91,-276.14 1069.7,-279.3 1074,-283 1145.95,-344.86 1172.73,-461.59 1181.49,-514.59"/>
<polygon fill="#63b8ff" stroke="#63b8ff" points="1178,-514.92 1182.99,-524.26 1184.92,-513.84 1178,-514.92"/>
</a>
</g>
</g>
<!-- Node20&#45;&gt;Node10 -->
<g id="edge29_Node000020_Node000010" class="edge">
<title>Node20&#45;&gt;Node10</title>
<g id="a_edge29_Node000020_Node000010"><a xlink:title=" ">
<path fill="none" stroke="#63b8ff" d="M1061.44,-871.6C1065.95,-869.21 1070.19,-866.37 1074,-863 1112.23,-829.22 1093.47,-802.26 1110,-754 1132.81,-687.42 1160.8,-609.52 1175.37,-569.23"/>
<polygon fill="#63b8ff" stroke="#63b8ff" points="1178.64,-570.47 1178.76,-559.87 1172.06,-568.08 1178.64,-570.47"/>
</a>
</g>
</g>
<!-- Node21&#45;&gt;Node10 -->
<g id="edge31_Node000021_Node000010" class="edge">
<title>Node21&#45;&gt;Node10</title>
<g id="a_edge31_Node000021_Node000010"><a xlink:title=" ">
<path fill="none" stroke="#63b8ff" d="M1060.77,-833.58C1065.5,-831.21 1069.96,-828.37 1074,-825 1094.78,-807.64 1153.69,-636.39 1176.28,-569.02"/>
<polygon fill="#63b8ff" stroke="#63b8ff" points="1179.49,-570.45 1179.34,-559.86 1172.85,-568.24 1179.49,-570.45"/>
</a>
</g>
</g>
<!-- Node22&#45;&gt;Node10 -->
<g id="edge33_Node000022_Node000010" class="edge">
<title>Node22&#45;&gt;Node10</title>
<g id="a_edge33_Node000022_Node000010"><a xlink:title=" ">
<path fill="none" stroke="#63b8ff" d="M1060.11,-795.56C1065.05,-793.2 1069.74,-790.37 1074,-787 1144.5,-731.13 1171.89,-620.69 1181.13,-569.39"/>
<polygon fill="#63b8ff" stroke="#63b8ff" points="1184.54,-570.18 1182.76,-559.74 1177.64,-569.01 1184.54,-570.18"/>
</a>
</g>
</g>
<!-- Node23&#45;&gt;Node10 -->
<g id="edge35_Node000023_Node000010" class="edge">
<title>Node23&#45;&gt;Node10</title>
<g id="a_edge35_Node000023_Node000010"><a xlink:title=" ">
<path fill="none" stroke="#63b8ff" d="M1052.66,-749.05C1060.29,-745.87 1067.58,-741.92 1074,-737 1130.99,-693.34 1163.56,-611.57 1177.35,-569.12"/>
<polygon fill="#63b8ff" stroke="#63b8ff" points="1180.65,-570.29 1180.3,-559.7 1173.97,-568.2 1180.65,-570.29"/>
</a>
</g>
</g>
<!-- Node24&#45;&gt;Node10 -->
<g id="edge37_Node000024_Node000010" class="edge">
<title>Node24&#45;&gt;Node10</title>
<g id="a_edge37_Node000024_Node000010"><a xlink:title=" ">
<path fill="none" stroke="#63b8ff" d="M1053.99,-697.37C1061.04,-694.51 1067.84,-691.09 1074,-687 1119.81,-656.61 1154.57,-600.94 1172.25,-568.13"/>
<polygon fill="#63b8ff" stroke="#63b8ff" points="1175.14,-570.16 1176.68,-559.68 1168.94,-566.91 1175.14,-570.16"/>
</a>
</g>
</g>
<!-- Node25&#45;&gt;Node10 -->
<g id="edge39_Node000025_Node000010" class="edge">
<title>Node25&#45;&gt;Node10</title>
<g id="a_edge39_Node000025_Node000010"><a xlink:title=" ">
<path fill="none" stroke="#63b8ff" d="M1054.18,-645.62C1061.04,-643.12 1067.75,-640.26 1074,-637 1108.79,-618.85 1142.1,-588.01 1163.06,-566.4"/>
<polygon fill="#63b8ff" stroke="#63b8ff" points="1165.33,-569.1 1169.68,-559.44 1160.25,-564.27 1165.33,-569.1"/>
</a>
</g>
</g>
<!-- Node26&#45;&gt;Node10 -->
<g id="edge41_Node000026_Node000010" class="edge">
<title>Node26&#45;&gt;Node10</title>
<g id="a_edge41_Node000026_Node000010"><a xlink:title=" ">
<path fill="none" stroke="#63b8ff" d="M1043.76,-607.52C1054.01,-605.16 1064.38,-602.34 1074,-599 1100.07,-589.94 1127.7,-575.81 1148.9,-563.89"/>
<polygon fill="#63b8ff" stroke="#63b8ff" points="1150.5,-567 1157.44,-559 1147.02,-560.93 1150.5,-567"/>
</a>
</g>
</g>
<!-- Node27&#45;&gt;Node10 -->
<g id="edge43_Node000027_Node000010" class="edge">
<title>Node27&#45;&gt;Node10</title>
<g id="a_edge43_Node000027_Node000010"><a xlink:title=" ">
<path fill="none" stroke="#63b8ff" d="M1035.27,-569.52C1062.11,-564.59 1094.19,-558.71 1121.78,-553.64"/>
<polygon fill="#63b8ff" stroke="#63b8ff" points="1122.21,-557.12 1131.41,-551.88 1120.94,-550.24 1122.21,-557.12"/>
</a>
</g>
</g>
<!-- Node28&#45;&gt;Node10 -->
<g id="edge45_Node000028_Node000010" class="edge">
<title>Node28&#45;&gt;Node10</title>
<g id="a_edge45_Node000028_Node000010"><a xlink:title=" ">
<path fill="none" stroke="#63b8ff" d="M1072.6,-542C1089.09,-542 1105.89,-542 1121.32,-542"/>
<polygon fill="#63b8ff" stroke="#63b8ff" points="1121.3,-545.5 1131.3,-542 1121.3,-538.5 1121.3,-545.5"/>
</a>
</g>
</g>
<!-- Node29&#45;&gt;Node10 -->
<g id="edge47_Node000029_Node000010" class="edge">
<title>Node29&#45;&gt;Node10</title>
<g id="a_edge47_Node000029_Node000010"><a xlink:title=" ">
<path fill="none" stroke="#63b8ff" d="M1035.27,-514.48C1062.11,-519.41 1094.19,-525.29 1121.78,-530.36"/>
<polygon fill="#63b8ff" stroke="#63b8ff" points="1120.94,-533.76 1131.41,-532.12 1122.21,-526.88 1120.94,-533.76"/>
</a>
</g>
</g>
<!-- Node30&#45;&gt;Node10 -->
<g id="edge49_Node000030_Node000010" class="edge">
<title>Node30&#45;&gt;Node10</title>
<g id="a_edge49_Node000030_Node000010"><a xlink:title=" ">
<path fill="none" stroke="#63b8ff" d="M1043.76,-476.48C1054.01,-478.84 1064.38,-481.66 1074,-485 1100.07,-494.06 1127.7,-508.19 1148.9,-520.11"/>
<polygon fill="#63b8ff" stroke="#63b8ff" points="1147.02,-523.07 1157.44,-525 1150.5,-517 1147.02,-523.07"/>
</a>
</g>
</g>
<!-- Node31&#45;&gt;Node10 -->
<g id="edge51_Node000031_Node000010" class="edge">
<title>Node31&#45;&gt;Node10</title>
<g id="a_edge51_Node000031_Node000010"><a xlink:title=" ">
<path fill="none" stroke="#63b8ff" d="M1051.39,-438.43C1059.21,-440.74 1066.9,-443.56 1074,-447 1109.51,-464.21 1142.9,-495.52 1163.66,-517.48"/>
<polygon fill="#63b8ff" stroke="#63b8ff" points="1160.85,-519.6 1170.21,-524.57 1165.99,-514.85 1160.85,-519.6"/>
</a>
</g>
</g>
<!-- Node32&#45;&gt;Node10 -->
<g id="edge53_Node000032_Node000010" class="edge">
<title>Node32&#45;&gt;Node10</title>
<g id="a_edge53_Node000032_Node000010"><a xlink:title=" ">
<path fill="none" stroke="#63b8ff" d="M1057.25,-400.31C1063.11,-402.81 1068.77,-405.69 1074,-409 1116.99,-436.23 1151.72,-485.5 1170.35,-515.83"/>
<polygon fill="#63b8ff" stroke="#63b8ff" points="1167.34,-517.61 1175.48,-524.4 1173.35,-514.02 1167.34,-517.61"/>
</a>
</g>
</g>
<!-- Node34&#45;&gt;Node11 -->
<g id="edge56_Node000034_Node000011" class="edge">
<title>Node34&#45;&gt;Node11</title>
<g id="a_edge56_Node000034_Node000011"><a xlink:title=" ">
<path fill="none" stroke="#63b8ff" d="M1200.82,-762.71C1236.19,-720.24 1331.09,-606.28 1368.83,-560.97"/>
<polygon fill="#63b8ff" stroke="#63b8ff" points="1371.3,-563.47 1375.01,-553.55 1365.92,-558.99 1371.3,-563.47"/>
</a>
</g>
</g>
</g>
</svg>
