<?xml version="1.0" encoding="UTF-8" standalone="no"?>
<!DOCTYPE svg PUBLIC "-//W3C//DTD SVG 1.1//EN"
 "http://www.w3.org/Graphics/SVG/1.1/DTD/svg11.dtd">
<!-- Generated by graphviz version 12.2.1 (20241206.2353)
 -->
<!-- Title: LSM1x0A_Sigfox::getInitialPAC Pages: 1 -->
<svg width="1854pt" height="1018pt"
 viewBox="0.00 0.00 1854.00 1018.48" xmlns="http://www.w3.org/2000/svg" xmlns:xlink="http://www.w3.org/1999/xlink">
<g id="graph0" class="graph" transform="scale(1 1) rotate(0) translate(4 1014.48)">
<title>LSM1x0A_Sigfox::getInitialPAC</title>
<!-- Node1 -->
<g id="Node000001" class="node">
<title>Node1</title>
<g id="a_Node000001"><a xlink:title="Reads the Sigfox Initial Porting Authorization Code (PAC).">
<polygon fill="#999999" stroke="#666666" points="154.75,-98 0,-98 0,-78 154.75,-78 154.75,-98"/>
<text text-anchor="middle" x="77.38" y="-84.5" font-family="Helvetica,sans-Serif" font-size="10.00">LSM1x0A_Sigfox::getInitialPAC</text>
</a>
</g>
</g>
<!-- Node2 -->
<g id="Node000002" class="node">
<title>Node2</title>
<g id="a_Node000002"><a xlink:href="../../d8/d92/classLSM1x0A__Controller.html#ab00328d1be83aa51bce8c2a4f907c5f4" target="_top" xlink:title="Sends an AT command and captures its response in a text block. Ideal for getters (e....">
<polygon fill="white" stroke="#666666" points="343.25,-104 190.75,-104 190.75,-72 343.25,-72 343.25,-104"/>
<text text-anchor="start" x="198.75" y="-90.5" font-family="Helvetica,sans-Serif" font-size="10.00">LSM1x0A_Controller</text>
<text text-anchor="middle" x="267" y="-78.5" font-family="Helvetica,sans-Serif" font-size="10.00">::sendCommandWithResponse</text>
</a>
</g>
</g>
<!-- Node1&#45;&gt;Node2 -->
<g id="edge1_Node000001_Node000002" class="edge">
<title>Node1&#45;&gt;Node2</title>
<g id="a_edge1_Node000001_Node000002"><a xlink:title=" ">
<path fill="none" stroke="#63b8ff" d="M155.23,-88C163.14,-88 171.22,-88 179.23,-88"/>
<polygon fill="#63b8ff" stroke="#63b8ff" points="178.96,-91.5 188.96,-88 178.96,-84.5 178.96,-91.5"/>
</a>
</g>
</g>
<!-- Node3 -->
<g id="Node000003" class="node">
<title>Node3</title>
<g id="a_Node000003"><a xlink:href="../../d8/d92/classLSM1x0A__Controller.html#abb0eb380daa3dfb7acffb483c5db8e2b" target="_top" xlink:title="Executes the recovery protocol. First Soft&#45;Reset (ATZ), then Hard&#45;Reset if there is a pin.">
<polygon fill="white" stroke="#666666" points="485.25,-214 379.25,-214 379.25,-182 485.25,-182 485.25,-214"/>
<text text-anchor="start" x="387.25" y="-200.5" font-family="Helvetica,sans-Serif" font-size="10.00">LSM1x0A_Controller</text>
<text text-anchor="middle" x="432.25" y="-188.5" font-family="Helvetica,sans-Serif" font-size="10.00">::recoverModule</text>
</a>
</g>
</g>
<!-- Node2&#45;&gt;Node3 -->
<g id="edge2_Node000002_Node000003" class="edge">
<title>Node2&#45;&gt;Node3</title>
<g id="a_edge2_Node000002_Node000003"><a xlink:title=" ">
<path fill="none" stroke="#63b8ff" d="M292.44,-104.47C320.41,-123.32 366.39,-154.29 397.7,-175.39"/>
<polygon fill="#63b8ff" stroke="#63b8ff" points="395.41,-178.07 405.65,-180.75 399.32,-172.26 395.41,-178.07"/>
</a>
</g>
</g>
<!-- Node12 -->
<g id="Node000012" class="node">
<title>Node12</title>
<g id="a_Node000012"><a xlink:href="../../d6/d3c/classLSM1x0A__AtParser.html#a0ba6f927c54fceece22c17773d3f2600" target="_top" xlink:title="Sends a command and extracts a value from the response.">
<polygon fill="white" stroke="#666666" points="1701,-287 1526.75,-287 1526.75,-255 1701,-255 1701,-287"/>
<text text-anchor="start" x="1534.75" y="-273.5" font-family="Helvetica,sans-Serif" font-size="10.00">LSM1x0A_AtParser::sendCommand</text>
<text text-anchor="middle" x="1613.88" y="-261.5" font-family="Helvetica,sans-Serif" font-size="10.00">WithResponse</text>
</a>
</g>
</g>
<!-- Node2&#45;&gt;Node12 -->
<g id="edge57_Node000002_Node000012" class="edge">
<title>Node2&#45;&gt;Node12</title>
<g id="a_edge57_Node000002_Node000012"><a xlink:title=" ">
<path fill="none" stroke="#63b8ff" d="M304.44,-71.65C364.61,-46.21 489.04,0 599.5,0 599.5,0 599.5,0 1205.25,0 1382.19,0 1540.95,-179.26 1594.06,-246.19"/>
<polygon fill="#63b8ff" stroke="#63b8ff" points="1590.99,-247.95 1599.91,-253.67 1596.5,-243.64 1590.99,-247.95"/>
</a>
</g>
</g>
<!-- Node4 -->
<g id="Node000004" class="node">
<title>Node4</title>
<g id="a_Node000004"><a xlink:href="../../d8/d92/classLSM1x0A__Controller.html#a3f6f25b843fe4fb7042c544deae2ab16" target="_top" xlink:title="Manually clears bits from the internal EventGroup.">
<polygon fill="white" stroke="#666666" points="1048.12,-98 942.12,-98 942.12,-66 1048.12,-66 1048.12,-98"/>
<text text-anchor="start" x="950.12" y="-84.5" font-family="Helvetica,sans-Serif" font-size="10.00">LSM1x0A_Controller</text>
<text text-anchor="middle" x="995.12" y="-72.5" font-family="Helvetica,sans-Serif" font-size="10.00">::clearEvents</text>
</a>
</g>
</g>
<!-- Node3&#45;&gt;Node4 -->
<g id="edge3_Node000003_Node000004" class="edge">
<title>Node3&#45;&gt;Node4</title>
<g id="a_edge3_Node000003_Node000004"><a xlink:title=" ">
<path fill="none" stroke="#63b8ff" d="M457.93,-181.53C474.98,-171 498.59,-158.03 521.25,-151 666.9,-105.82 711.98,-138.94 862.25,-113 884.75,-109.12 909.15,-103.72 930.77,-98.52"/>
<polygon fill="#63b8ff" stroke="#63b8ff" points="931.45,-101.96 940.33,-96.18 929.78,-95.16 931.45,-101.96"/>
</a>
</g>
</g>
<!-- Node5 -->
<g id="Node000005" class="node">
<title>Node5</title>
<g id="a_Node000005"><a xlink:href="../../d8/d92/classLSM1x0A__Controller.html#a345d4bd79fa16b18dc33a4ca788fe5f7" target="_top" xlink:title="Performs a hardware reset using the reset pin.">
<polygon fill="white" stroke="#666666" points="653.5,-104 547.5,-104 547.5,-72 653.5,-72 653.5,-104"/>
<text text-anchor="start" x="555.5" y="-90.5" font-family="Helvetica,sans-Serif" font-size="10.00">LSM1x0A_Controller</text>
<text text-anchor="middle" x="600.5" y="-78.5" font-family="Helvetica,sans-Serif" font-size="10.00">::hardwareReset</text>
</a>
</g>
</g>
<!-- Node3&#45;&gt;Node5 -->
<g id="edge4_Node000003_Node000005" class="edge">
<title>Node3&#45;&gt;Node5</title>
<g id="a_edge4_Node000003_Node000005"><a xlink:title=" ">
<path fill="none" stroke="#63b8ff" d="M447.71,-181.63C464.07,-163.93 492.24,-135.86 521.25,-118 526.52,-114.76 532.19,-111.77 537.99,-109.03"/>
<polygon fill="#63b8ff" stroke="#63b8ff" points="539.39,-112.24 547.13,-104.99 536.56,-105.83 539.39,-112.24"/>
</a>
</g>
</g>
<!-- Node7 -->
<g id="Node000007" class="node">
<title>Node7</title>
<g id="a_Node000007"><a xlink:href="../../d5/d72/classLSM1x0A__LoRaWAN.html#a1892801e37c8cd67d37c76108d6f7d49" target="_top" xlink:title="Validates if the device is currently Joined to the network. (Either confirmed by OTAA or statically a...">
<polygon fill="white" stroke="#666666" points="1280.5,-136 1128,-136 1128,-116 1280.5,-116 1280.5,-136"/>
<text text-anchor="middle" x="1204.25" y="-122.5" font-family="Helvetica,sans-Serif" font-size="10.00">LSM1x0A_LoRaWAN::isJoined</text>
</a>
</g>
</g>
<!-- Node3&#45;&gt;Node7 -->
<g id="edge6_Node000003_Node000007" class="edge">
<title>Node3&#45;&gt;Node7</title>
<g id="a_edge6_Node000003_Node000007"><a xlink:title=" ">
<path fill="none" stroke="#63b8ff" d="M438.18,-181.77C448.24,-151.92 474.23,-88.97 521.25,-63 632.29,-1.69 970.01,-22.24 1092,-57 1127.07,-66.99 1161.87,-91.56 1182.97,-108.51"/>
<polygon fill="#63b8ff" stroke="#63b8ff" points="1180.55,-111.05 1190.49,-114.72 1185.01,-105.65 1180.55,-111.05"/>
</a>
</g>
</g>
<!-- Node8 -->
<g id="Node000008" class="node">
<title>Node8</title>
<g id="a_Node000008"><a xlink:href="../../d5/d72/classLSM1x0A__LoRaWAN.html#a83e11c0e74ff9e0757db616ab1163424" target="_top" xlink:title="Attempts to recover a lost connection (re&#45;executes OTAA Join if dropped).">
<polygon fill="white" stroke="#666666" points="674.88,-192 526.12,-192 526.12,-160 674.88,-160 674.88,-192"/>
<text text-anchor="start" x="534.12" y="-178.5" font-family="Helvetica,sans-Serif" font-size="10.00">LSM1x0A_LoRaWAN::recover</text>
<text text-anchor="middle" x="600.5" y="-166.5" font-family="Helvetica,sans-Serif" font-size="10.00">Connection</text>
</a>
</g>
</g>
<!-- Node3&#45;&gt;Node8 -->
<g id="edge7_Node000003_Node000008" class="edge">
<title>Node3&#45;&gt;Node8</title>
<g id="a_edge7_Node000003_Node000008"><a xlink:title=" ">
<path fill="none" stroke="#63b8ff" d="M485.4,-191.1C494.74,-189.86 504.69,-188.55 514.67,-187.23"/>
<polygon fill="#63b8ff" stroke="#63b8ff" points="514.97,-190.72 524.42,-185.94 514.05,-183.78 514.97,-190.72"/>
</a>
</g>
</g>
<!-- Node16 -->
<g id="Node000016" class="node">
<title>Node16</title>
<g id="a_Node000016"><a xlink:href="../../d5/d72/classLSM1x0A__LoRaWAN.html#ae3be4ce59dfa200369733317df356e97" target="_top" xlink:title="Pushes the RAM&#45;cached variables back down into the hardware module. Restores the operational state af...">
<polygon fill="white" stroke="#666666" points="862.25,-539 715.75,-539 715.75,-507 862.25,-507 862.25,-539"/>
<text text-anchor="start" x="723.75" y="-525.5" font-family="Helvetica,sans-Serif" font-size="10.00">LSM1x0A_LoRaWAN::restore</text>
<text text-anchor="middle" x="789" y="-513.5" font-family="Helvetica,sans-Serif" font-size="10.00">Config</text>
</a>
</g>
</g>
<!-- Node3&#45;&gt;Node16 -->
<g id="edge20_Node000003_Node000016" class="edge">
<title>Node3&#45;&gt;Node16</title>
<g id="a_edge20_Node000003_Node000016"><a xlink:title=" ">
<path fill="none" stroke="#63b8ff" d="M450.84,-214.12C508.76,-267.18 693.69,-436.6 762.17,-499.34"/>
<polygon fill="#63b8ff" stroke="#63b8ff" points="759.45,-501.59 769.19,-505.76 764.18,-496.43 759.45,-501.59"/>
</a>
</g>
</g>
<!-- Node33 -->
<g id="Node000033" class="node">
<title>Node33</title>
<g id="a_Node000033"><a xlink:href="../../d5/d72/classLSM1x0A__LoRaWAN.html#ace4b04396f1de1f4a54f513f5f378db7" target="_top" xlink:title="Manually overrides the internal joined state tracker.">
<polygon fill="white" stroke="#666666" points="679.75,-939 521.25,-939 521.25,-919 679.75,-919 679.75,-939"/>
<text text-anchor="middle" x="600.5" y="-925.5" font-family="Helvetica,sans-Serif" font-size="10.00">LSM1x0A_LoRaWAN::setJoined</text>
</a>
</g>
</g>
<!-- Node3&#45;&gt;Node33 -->
<g id="edge54_Node000003_Node000033" class="edge">
<title>Node3&#45;&gt;Node33</title>
<g id="a_edge54_Node000003_Node000033"><a xlink:title=" ">
<path fill="none" stroke="#63b8ff" d="M432.97,-214.4C431.65,-310.08 429.58,-795.83 521.25,-905 523.67,-907.88 526.43,-910.43 529.43,-912.67"/>
<polygon fill="#63b8ff" stroke="#63b8ff" points="527.41,-915.54 537.77,-917.75 531.05,-909.56 527.41,-915.54"/>
</a>
</g>
</g>
<!-- Node34 -->
<g id="Node000034" class="node">
<title>Node34</title>
<g id="a_Node000034"><a xlink:href="../../d8/d92/classLSM1x0A__Controller.html#a11ad21cb5ca33ec51346764a23bd485e" target="_top" xlink:title="Performs a software reset (ATZ Command).">
<polygon fill="white" stroke="#666666" points="1257.25,-795 1151.25,-795 1151.25,-763 1257.25,-763 1257.25,-795"/>
<text text-anchor="start" x="1159.25" y="-781.5" font-family="Helvetica,sans-Serif" font-size="10.00">LSM1x0A_Controller</text>
<text text-anchor="middle" x="1204.25" y="-769.5" font-family="Helvetica,sans-Serif" font-size="10.00">::softwareReset</text>
</a>
</g>
</g>
<!-- Node3&#45;&gt;Node34 -->
<g id="edge55_Node000003_Node000034" class="edge">
<title>Node3&#45;&gt;Node34</title>
<g id="a_edge55_Node000003_Node000034"><a xlink:title=" ">
<path fill="none" stroke="#63b8ff" d="M433.89,-214.18C438.16,-318.83 464.25,-897.3 521.25,-948 586.44,-1005.99 854.39,-1058.87 1092,-932 1143.46,-904.52 1177.07,-841.52 1192.82,-805.51"/>
<polygon fill="#63b8ff" stroke="#63b8ff" points="1195.89,-807.25 1196.55,-796.67 1189.44,-804.53 1195.89,-807.25"/>
</a>
</g>
</g>
<!-- Node6 -->
<g id="Node000006" class="node">
<title>Node6</title>
<g id="a_Node000006"><a xlink:href="../../d6/d3c/classLSM1x0A__AtParser.html#ad2839120da13e56132b95019419be1e5" target="_top" xlink:title="Waits for an event (like BOOTALERT) without sending any command. Useful for hardware reset where the ...">
<polygon fill="white" stroke="#666666" points="859.25,-104 718.75,-104 718.75,-72 859.25,-72 859.25,-104"/>
<text text-anchor="start" x="726.75" y="-90.5" font-family="Helvetica,sans-Serif" font-size="10.00">LSM1x0A_AtParser::waitFor</text>
<text text-anchor="middle" x="789" y="-78.5" font-family="Helvetica,sans-Serif" font-size="10.00">Event</text>
</a>
</g>
</g>
<!-- Node5&#45;&gt;Node6 -->
<g id="edge5_Node000005_Node000006" class="edge">
<title>Node5&#45;&gt;Node6</title>
<g id="a_edge5_Node000005_Node000006"><a xlink:title=" ">
<path fill="none" stroke="#63b8ff" d="M653.95,-88C670.46,-88 689.11,-88 707.12,-88"/>
<polygon fill="#63b8ff" stroke="#63b8ff" points="707.03,-91.5 717.03,-88 707.03,-84.5 707.03,-91.5"/>
</a>
</g>
</g>
<!-- Node9 -->
<g id="Node000009" class="node">
<title>Node9</title>
<g id="a_Node000009"><a xlink:href="../../d5/d72/classLSM1x0A__LoRaWAN.html#a59f781f3cfd30c11cd3973bcb10a7baa" target="_top" xlink:title="Initiates a LoRaWAN Network Join procedure. This is a blocking function until the module fires an eve...">
<polygon fill="white" stroke="#666666" points="854.75,-186 723.25,-186 723.25,-166 854.75,-166 854.75,-186"/>
<text text-anchor="middle" x="789" y="-172.5" font-family="Helvetica,sans-Serif" font-size="10.00">LSM1x0A_LoRaWAN::join</text>
</a>
</g>
</g>
<!-- Node8&#45;&gt;Node9 -->
<g id="edge8_Node000008_Node000009" class="edge">
<title>Node8&#45;&gt;Node9</title>
<g id="a_edge8_Node000008_Node000009"><a xlink:title=" ">
<path fill="none" stroke="#63b8ff" d="M675.21,-176C687.17,-176 699.58,-176 711.6,-176"/>
<polygon fill="#63b8ff" stroke="#63b8ff" points="711.47,-179.5 721.47,-176 711.47,-172.5 711.47,-179.5"/>
</a>
</g>
</g>
<!-- Node9&#45;&gt;Node3 -->
<g id="edge10_Node000009_Node000003" class="edge">
<title>Node9&#45;&gt;Node3</title>
<g id="a_edge10_Node000009_Node000003"><a xlink:title=" ">
<path fill="none" stroke="#63b8ff" d="M752.27,-186.4C731.34,-191.95 704.28,-198.2 679.75,-201 609.76,-208.98 591.68,-202.2 521.25,-201 513.35,-200.87 505.06,-200.66 496.86,-200.43"/>
<polygon fill="#63b8ff" stroke="#63b8ff" points="496.98,-196.93 486.87,-200.12 496.76,-203.92 496.98,-196.93"/>
</a>
</g>
</g>
<!-- Node9&#45;&gt;Node4 -->
<g id="edge9_Node000009_Node000004" class="edge">
<title>Node9&#45;&gt;Node4</title>
<g id="a_edge9_Node000009_Node000004"><a xlink:title=" ">
<path fill="none" stroke="#63b8ff" d="M823.55,-165.52C836.3,-160.68 850.56,-154.16 862.25,-146 881.59,-132.5 878.02,-119.13 898.25,-107 908.2,-101.03 919.56,-96.47 930.9,-93"/>
<polygon fill="#63b8ff" stroke="#63b8ff" points="931.57,-96.45 940.26,-90.39 929.69,-89.7 931.57,-96.45"/>
</a>
</g>
</g>
<!-- Node10 -->
<g id="Node000010" class="node">
<title>Node10</title>
<g id="a_Node000010"><a xlink:href="../../d8/d92/classLSM1x0A__Controller.html#afd7d92e60ed6fdae696a955cdbe0ed8c" target="_top" xlink:title="Sends any AT command to the module, returning error if it fails. Internally uses the LsmAtParser logi...">
<polygon fill="white" stroke="#666666" points="1257.25,-558 1151.25,-558 1151.25,-526 1257.25,-526 1257.25,-558"/>
<text text-anchor="start" x="1159.25" y="-544.5" font-family="Helvetica,sans-Serif" font-size="10.00">LSM1x0A_Controller</text>
<text text-anchor="middle" x="1204.25" y="-532.5" font-family="Helvetica,sans-Serif" font-size="10.00">::sendCommand</text>
</a>
</g>
</g>
<!-- Node9&#45;&gt;Node10 -->
<g id="edge11_Node000009_Node000010" class="edge">
<title>Node9&#45;&gt;Node10</title>
<g id="a_edge11_Node000009_Node000010"><a xlink:title=" ">
<path fill="none" stroke="#63b8ff" d="M855.03,-171.81C932.64,-168.2 1056.41,-167.28 1092,-195 1193.73,-274.23 1203.99,-447.25 1203.95,-514.5"/>
<polygon fill="#63b8ff" stroke="#63b8ff" points="1200.45,-514.23 1203.85,-524.26 1207.45,-514.3 1200.45,-514.23"/>
</a>
</g>
</g>
<!-- Node14 -->
<g id="Node000014" class="node">
<title>Node14</title>
<g id="a_Node000014"><a xlink:href="../../d5/d72/classLSM1x0A__LoRaWAN.html#a3fdd1ac318a5ad2559323e5d57e36a5e" target="_top" xlink:title="Enables or disables specific sub&#45;bands for regions supporting Channel Masks (e.g.,...">
<polygon fill="white" stroke="#666666" points="1090.12,-224 900.12,-224 900.12,-204 1090.12,-204 1090.12,-224"/>
<text text-anchor="middle" x="995.12" y="-210.5" font-family="Helvetica,sans-Serif" font-size="10.00">LSM1x0A_LoRaWAN::setChannelMask</text>
</a>
</g>
</g>
<!-- Node9&#45;&gt;Node14 -->
<g id="edge16_Node000009_Node000014" class="edge">
<title>Node9&#45;&gt;Node14</title>
<g id="a_edge16_Node000009_Node000014"><a xlink:title=" ">
<path fill="none" stroke="#63b8ff" d="M846.32,-186.48C871.19,-191.12 900.64,-196.6 926.68,-201.44"/>
<polygon fill="#63b8ff" stroke="#63b8ff" points="926.03,-204.88 936.5,-203.27 927.31,-198 926.03,-204.88"/>
</a>
</g>
</g>
<!-- Node15 -->
<g id="Node000015" class="node">
<title>Node15</title>
<g id="a_Node000015"><a xlink:href="../../d8/d92/classLSM1x0A__Controller.html#a62476e30e50c7fe120aeb8df4b828675" target="_top" xlink:title="Synchronously/blockingly waits for an asynchronous event to occur. Useful for wrapping commands like ...">
<polygon fill="white" stroke="#666666" points="1048.12,-148 942.12,-148 942.12,-116 1048.12,-116 1048.12,-148"/>
<text text-anchor="start" x="950.12" y="-134.5" font-family="Helvetica,sans-Serif" font-size="10.00">LSM1x0A_Controller</text>
<text text-anchor="middle" x="995.12" y="-122.5" font-family="Helvetica,sans-Serif" font-size="10.00">::waitForEvent</text>
</a>
</g>
</g>
<!-- Node9&#45;&gt;Node15 -->
<g id="edge19_Node000009_Node000015" class="edge">
<title>Node9&#45;&gt;Node15</title>
<g id="a_edge19_Node000009_Node000015"><a xlink:title=" ">
<path fill="none" stroke="#63b8ff" d="M838.63,-165.52C866.24,-159.57 901.11,-152.05 930.82,-145.65"/>
<polygon fill="#63b8ff" stroke="#63b8ff" points="931.42,-149.1 940.45,-143.57 929.94,-142.25 931.42,-149.1"/>
</a>
</g>
</g>
<!-- Node10&#45;&gt;Node3 -->
<g id="edge12_Node000010_Node000003" class="edge">
<title>Node10&#45;&gt;Node3</title>
<g id="a_edge12_Node000010_Node000003"><a xlink:title=" ">
<path fill="none" stroke="#63b8ff" d="M1196.82,-558.31C1183.06,-593.61 1150.16,-679.91 1128,-754 1108.73,-818.44 1144.92,-859.48 1092,-901 1024.25,-954.16 974.69,-940.65 898.25,-901 610.93,-751.97 472.97,-335.66 440.77,-225.19"/>
<polygon fill="#63b8ff" stroke="#63b8ff" points="444.2,-224.47 438.08,-215.82 437.47,-226.4 444.2,-224.47"/>
</a>
</g>
</g>
<!-- Node11 -->
<g id="Node000011" class="node">
<title>Node11</title>
<g id="a_Node000011"><a xlink:href="../../d6/d3c/classLSM1x0A__AtParser.html#a29b53c521974387ba6c03afadfaffa4a" target="_top" xlink:title="Sends a simple command and waits for OK/ERROR. Example: sendCommand(&quot;AT+JOIN&quot;);.">
<polygon fill="white" stroke="#666666" points="1490.75,-552 1316.5,-552 1316.5,-532 1490.75,-532 1490.75,-552"/>
<text text-anchor="middle" x="1403.62" y="-538.5" font-family="Helvetica,sans-Serif" font-size="10.00">LSM1x0A_AtParser::sendCommand</text>
</a>
</g>
</g>
<!-- Node10&#45;&gt;Node11 -->
<g id="edge13_Node000010_Node000011" class="edge">
<title>Node10&#45;&gt;Node11</title>
<g id="a_edge13_Node000010_Node000011"><a xlink:title=" ">
<path fill="none" stroke="#63b8ff" d="M1257.62,-542C1272.19,-542 1288.5,-542 1304.78,-542"/>
<polygon fill="#63b8ff" stroke="#63b8ff" points="1304.51,-545.5 1314.51,-542 1304.51,-538.5 1304.51,-545.5"/>
</a>
</g>
</g>
<!-- Node11&#45;&gt;Node12 -->
<g id="edge14_Node000011_Node000012" class="edge">
<title>Node11&#45;&gt;Node12</title>
<g id="a_edge14_Node000011_Node000012"><a xlink:title=" ">
<path fill="none" stroke="#63b8ff" d="M1412.53,-531.71C1442.44,-492.78 1549.18,-353.88 1593.44,-296.3"/>
<polygon fill="#63b8ff" stroke="#63b8ff" points="1595.98,-298.73 1599.3,-288.67 1590.43,-294.46 1595.98,-298.73"/>
</a>
</g>
</g>
<!-- Node13 -->
<g id="Node000013" class="node">
<title>Node13</title>
<g id="a_Node000013"><a xlink:href="../../d5/d8b/classUartDriver.html#a5d0f22e8867eebe99273078bb19bd23d" target="_top" xlink:title="Sends data through UART.">
<polygon fill="white" stroke="#666666" points="1846,-281 1737,-281 1737,-261 1846,-261 1846,-281"/>
<text text-anchor="middle" x="1791.5" y="-267.5" font-family="Helvetica,sans-Serif" font-size="10.00">UartDriver::sendData</text>
</a>
</g>
</g>
<!-- Node12&#45;&gt;Node13 -->
<g id="edge15_Node000012_Node000013" class="edge">
<title>Node12&#45;&gt;Node13</title>
<g id="a_edge15_Node000012_Node000013"><a xlink:title=" ">
<path fill="none" stroke="#63b8ff" d="M1701.4,-271C1709.55,-271 1717.7,-271 1725.6,-271"/>
<polygon fill="#63b8ff" stroke="#63b8ff" points="1725.43,-274.5 1735.43,-271 1725.43,-267.5 1725.43,-274.5"/>
</a>
</g>
</g>
<!-- Node14&#45;&gt;Node7 -->
<g id="edge17_Node000014_Node000007" class="edge">
<title>Node14&#45;&gt;Node7</title>
<g id="a_edge17_Node000014_Node000007"><a xlink:title=" ">
<path fill="none" stroke="#63b8ff" d="M1020.7,-203.56C1057.29,-188.01 1126.28,-158.7 1168.17,-140.9"/>
<polygon fill="#63b8ff" stroke="#63b8ff" points="1169.48,-144.15 1177.32,-137.02 1166.74,-137.71 1169.48,-144.15"/>
</a>
</g>
</g>
<!-- Node14&#45;&gt;Node10 -->
<g id="edge18_Node000014_Node000010" class="edge">
<title>Node14&#45;&gt;Node10</title>
<g id="a_edge18_Node000014_Node000010"><a xlink:title=" ">
<path fill="none" stroke="#63b8ff" d="M1078.88,-224.28C1083.58,-226.69 1088.01,-229.57 1092,-233 1178.33,-307.27 1197.67,-453.75 1202,-514.55"/>
<polygon fill="#63b8ff" stroke="#63b8ff" points="1198.5,-514.57 1202.61,-524.33 1205.48,-514.13 1198.5,-514.57"/>
</a>
</g>
</g>
<!-- Node16&#45;&gt;Node14 -->
<g id="edge25_Node000016_Node000014" class="edge">
<title>Node16&#45;&gt;Node14</title>
<g id="a_edge25_Node000016_Node000014"><a xlink:title=" ">
<path fill="none" stroke="#63b8ff" d="M790.8,-506.78C794.18,-457.25 811.45,-306.79 898.25,-233 899.38,-232.04 900.54,-231.13 901.73,-230.25"/>
<polygon fill="#63b8ff" stroke="#63b8ff" points="903.42,-233.33 910.12,-225.12 899.77,-227.35 903.42,-233.33"/>
</a>
</g>
</g>
<!-- Node17 -->
<g id="Node000017" class="node">
<title>Node17</title>
<g id="a_Node000017"><a xlink:href="../../d5/d72/classLSM1x0A__LoRaWAN.html#af0baa3db4c7fab580d6b19a9e92472f6" target="_top" xlink:title="Enables or disables Adaptive Data Rate (ADR).">
<polygon fill="white" stroke="#666666" points="1071,-350 919.25,-350 919.25,-330 1071,-330 1071,-350"/>
<text text-anchor="middle" x="995.12" y="-336.5" font-family="Helvetica,sans-Serif" font-size="10.00">LSM1x0A_LoRaWAN::setADR</text>
</a>
</g>
</g>
<!-- Node16&#45;&gt;Node17 -->
<g id="edge21_Node000016_Node000017" class="edge">
<title>Node16&#45;&gt;Node17</title>
<g id="a_edge21_Node000016_Node000017"><a xlink:title=" ">
<path fill="none" stroke="#63b8ff" d="M795.81,-506.6C808.6,-473 842.6,-396.38 898.25,-359 901.52,-356.8 904.98,-354.85 908.58,-353.11"/>
<polygon fill="#63b8ff" stroke="#63b8ff" points="909.73,-356.42 917.62,-349.35 907.04,-349.96 909.73,-356.42"/>
</a>
</g>
</g>
<!-- Node18 -->
<g id="Node000018" class="node">
<title>Node18</title>
<g id="a_Node000018"><a xlink:href="../../d5/d72/classLSM1x0A__LoRaWAN.html#a5365ed1596eb84ebf1e3b33b4a10c788" target="_top" xlink:title="Sets the LoRaWAN operational frequency band.">
<polygon fill="white" stroke="#666666" points="1071.38,-312 918.88,-312 918.88,-292 1071.38,-292 1071.38,-312"/>
<text text-anchor="middle" x="995.12" y="-298.5" font-family="Helvetica,sans-Serif" font-size="10.00">LSM1x0A_LoRaWAN::setBand</text>
</a>
</g>
</g>
<!-- Node16&#45;&gt;Node18 -->
<g id="edge23_Node000016_Node000018" class="edge">
<title>Node16&#45;&gt;Node18</title>
<g id="a_edge23_Node000016_Node000018"><a xlink:title=" ">
<path fill="none" stroke="#63b8ff" d="M793.72,-506.5C803.45,-467.43 833.49,-368.94 898.25,-321 901.41,-318.66 904.79,-316.58 908.32,-314.75"/>
<polygon fill="#63b8ff" stroke="#63b8ff" points="909.5,-318.05 917.22,-310.8 906.66,-311.66 909.5,-318.05"/>
</a>
</g>
</g>
<!-- Node19 -->
<g id="Node000019" class="node">
<title>Node19</title>
<g id="a_Node000019"><a xlink:href="../../d5/d72/classLSM1x0A__LoRaWAN.html#a9d9285c43414337a0ccb3a6cd7ca06e6" target="_top" xlink:title="Configures the number of retries for Confirmed uplinks.">
<polygon fill="white" stroke="#666666" points="1077.38,-274 912.88,-274 912.88,-242 1077.38,-242 1077.38,-274"/>
<text text-anchor="start" x="920.88" y="-260.5" font-family="Helvetica,sans-Serif" font-size="10.00">LSM1x0A_LoRaWAN::setConfirm</text>
<text text-anchor="middle" x="995.12" y="-248.5" font-family="Helvetica,sans-Serif" font-size="10.00">Retry</text>
</a>
</g>
</g>
<!-- Node16&#45;&gt;Node19 -->
<g id="edge26_Node000016_Node000019" class="edge">
<title>Node16&#45;&gt;Node19</title>
<g id="a_edge26_Node000016_Node000019"><a xlink:title=" ">
<path fill="none" stroke="#63b8ff" d="M792.43,-506.7C799.8,-463.28 825.95,-344.03 898.25,-283 899.74,-281.74 901.29,-280.55 902.88,-279.41"/>
<polygon fill="#63b8ff" stroke="#63b8ff" points="904.5,-282.52 911.2,-274.32 900.85,-276.55 904.5,-282.52"/>
</a>
</g>
</g>
<!-- Node20 -->
<g id="Node000020" class="node">
<title>Node20</title>
<g id="a_Node000020"><a xlink:href="../../d5/d72/classLSM1x0A__LoRaWAN.html#a56345ceeafa0b9059d6de4e69eddc82e" target="_top" xlink:title="Sets the Data Rate (DR) of the module.">
<polygon fill="white" stroke="#666666" points="1081.12,-892 909.12,-892 909.12,-872 1081.12,-872 1081.12,-892"/>
<text text-anchor="middle" x="995.12" y="-878.5" font-family="Helvetica,sans-Serif" font-size="10.00">LSM1x0A_LoRaWAN::setDataRate</text>
</a>
</g>
</g>
<!-- Node16&#45;&gt;Node20 -->
<g id="edge28_Node000016_Node000020" class="edge">
<title>Node16&#45;&gt;Node20</title>
<g id="a_edge28_Node000016_Node000020"><a xlink:title=" ">
<path fill="none" stroke="#63b8ff" d="M789.8,-539.16C790.04,-593.93 798.69,-774.06 898.25,-863 899.2,-863.85 900.17,-864.66 901.17,-865.44"/>
<polygon fill="#63b8ff" stroke="#63b8ff" points="899.2,-868.34 909.5,-870.83 903,-862.46 899.2,-868.34"/>
</a>
</g>
</g>
<!-- Node21 -->
<g id="Node000021" class="node">
<title>Node21</title>
<g id="a_Node000021"><a xlink:href="../../d5/d72/classLSM1x0A__LoRaWAN.html#a8494083816ab885cb07fc3b08de029f4" target="_top" xlink:title="Sets the LoRaWAN Device Address (DevAddr) for ABP mode.">
<polygon fill="white" stroke="#666666" points="1079.25,-854 911,-854 911,-834 1079.25,-834 1079.25,-854"/>
<text text-anchor="middle" x="995.12" y="-840.5" font-family="Helvetica,sans-Serif" font-size="10.00">LSM1x0A_LoRaWAN::setDevAddr</text>
</a>
</g>
</g>
<!-- Node16&#45;&gt;Node21 -->
<g id="edge30_Node000016_Node000021" class="edge">
<title>Node16&#45;&gt;Node21</title>
<g id="a_edge30_Node000016_Node000021"><a xlink:title=" ">
<path fill="none" stroke="#63b8ff" d="M790.53,-539.15C793.12,-589.92 808.37,-747.57 898.25,-825 899.37,-825.97 900.53,-826.89 901.71,-827.77"/>
<polygon fill="#63b8ff" stroke="#63b8ff" points="899.73,-830.65 910.07,-832.93 903.4,-824.7 899.73,-830.65"/>
</a>
</g>
</g>
<!-- Node22 -->
<g id="Node000022" class="node">
<title>Node22</title>
<g id="a_Node000022"><a xlink:href="../../d5/d72/classLSM1x0A__LoRaWAN.html#ad320634e52d7ea907043cc50dd37c5b0" target="_top" xlink:title="Sets the LoRaWAN Device EUI (DevEUI).">
<polygon fill="white" stroke="#666666" points="1077.75,-816 912.5,-816 912.5,-796 1077.75,-796 1077.75,-816"/>
<text text-anchor="middle" x="995.12" y="-802.5" font-family="Helvetica,sans-Serif" font-size="10.00">LSM1x0A_LoRaWAN::setDevEUI</text>
</a>
</g>
</g>
<!-- Node16&#45;&gt;Node22 -->
<g id="edge32_Node000016_Node000022" class="edge">
<title>Node16&#45;&gt;Node22</title>
<g id="a_edge32_Node000016_Node000022"><a xlink:title=" ">
<path fill="none" stroke="#63b8ff" d="M791.49,-539.44C796.64,-586.24 818.12,-721.05 898.25,-787 899.74,-788.22 901.28,-789.38 902.87,-790.46"/>
<polygon fill="#63b8ff" stroke="#63b8ff" points="900.73,-793.27 911.15,-795.21 904.22,-787.2 900.73,-793.27"/>
</a>
</g>
</g>
<!-- Node23 -->
<g id="Node000023" class="node">
<title>Node23</title>
<g id="a_Node000023"><a xlink:href="../../d5/d72/classLSM1x0A__LoRaWAN.html#a031023b0d2dd5db3c51c2db6ae7801cc" target="_top" xlink:title="Enables or disables the Duty Cycle limitation (EU regions mostly).">
<polygon fill="white" stroke="#666666" points="1070.62,-778 919.62,-778 919.62,-746 1070.62,-746 1070.62,-778"/>
<text text-anchor="start" x="927.62" y="-764.5" font-family="Helvetica,sans-Serif" font-size="10.00">LSM1x0A_LoRaWAN::setDuty</text>
<text text-anchor="middle" x="995.12" y="-752.5" font-family="Helvetica,sans-Serif" font-size="10.00">Cycle</text>
</a>
</g>
</g>
<!-- Node16&#45;&gt;Node23 -->
<g id="edge34_Node000016_Node000023" class="edge">
<title>Node16&#45;&gt;Node23</title>
<g id="a_edge34_Node000016_Node000023"><a xlink:title=" ">
<path fill="none" stroke="#63b8ff" d="M793.4,-539.3C802.65,-579.44 832.14,-683.67 898.25,-737 901.69,-739.78 905.41,-742.25 909.31,-744.44"/>
<polygon fill="#63b8ff" stroke="#63b8ff" points="907.46,-747.44 917.98,-748.7 910.55,-741.15 907.46,-747.44"/>
</a>
</g>
</g>
<!-- Node24 -->
<g id="Node000024" class="node">
<title>Node24</title>
<g id="a_Node000024"><a xlink:href="../../d5/d72/classLSM1x0A__LoRaWAN.html#a6b179d5825c49af0f391dfc539912f64" target="_top" xlink:title="Sets the delay for the Join1 receive window.">
<polygon fill="white" stroke="#666666" points="1071.75,-728 918.5,-728 918.5,-696 1071.75,-696 1071.75,-728"/>
<text text-anchor="start" x="926.5" y="-714.5" font-family="Helvetica,sans-Serif" font-size="10.00">LSM1x0A_LoRaWAN::setJoin1</text>
<text text-anchor="middle" x="995.12" y="-702.5" font-family="Helvetica,sans-Serif" font-size="10.00">Delay</text>
</a>
</g>
</g>
<!-- Node16&#45;&gt;Node24 -->
<g id="edge36_Node000016_Node000024" class="edge">
<title>Node16&#45;&gt;Node24</title>
<g id="a_edge36_Node000016_Node000024"><a xlink:title=" ">
<path fill="none" stroke="#63b8ff" d="M796.09,-539.39C809.31,-572.62 843.88,-648.08 898.25,-687 901.42,-689.27 904.79,-691.34 908.28,-693.21"/>
<polygon fill="#63b8ff" stroke="#63b8ff" points="906.53,-696.26 917.07,-697.38 909.53,-689.93 906.53,-696.26"/>
</a>
</g>
</g>
<!-- Node25 -->
<g id="Node000025" class="node">
<title>Node25</title>
<g id="a_Node000025"><a xlink:href="../../d5/d72/classLSM1x0A__LoRaWAN.html#a4545d0caad41558cdb9bae8286b104d8" target="_top" xlink:title="Sets the delay for the Join2 receive window.">
<polygon fill="white" stroke="#666666" points="1071.75,-678 918.5,-678 918.5,-646 1071.75,-646 1071.75,-678"/>
<text text-anchor="start" x="926.5" y="-664.5" font-family="Helvetica,sans-Serif" font-size="10.00">LSM1x0A_LoRaWAN::setJoin2</text>
<text text-anchor="middle" x="995.12" y="-652.5" font-family="Helvetica,sans-Serif" font-size="10.00">Delay</text>
</a>
</g>
</g>
<!-- Node16&#45;&gt;Node25 -->
<g id="edge38_Node000016_Node000025" class="edge">
<title>Node16&#45;&gt;Node25</title>
<g id="a_edge38_Node000016_Node000025"><a xlink:title=" ">
<path fill="none" stroke="#63b8ff" d="M800.89,-539.33C818.4,-564.27 855.24,-611.61 898.25,-637 901.26,-638.78 904.4,-640.43 907.63,-641.97"/>
<polygon fill="#63b8ff" stroke="#63b8ff" points="906.23,-645.18 916.8,-645.9 908.99,-638.74 906.23,-645.18"/>
</a>
</g>
</g>
<!-- Node26 -->
<g id="Node000026" class="node">
<title>Node26</title>
<g id="a_Node000026"><a xlink:href="../../d5/d72/classLSM1x0A__LoRaWAN.html#a06bd50723ec1eb7e144c9141b2ec86fc" target="_top" xlink:title="Sets the LoRaWAN Network ID (NetID).">
<polygon fill="white" stroke="#666666" points="1075.5,-628 914.75,-628 914.75,-608 1075.5,-608 1075.5,-628"/>
<text text-anchor="middle" x="995.12" y="-614.5" font-family="Helvetica,sans-Serif" font-size="10.00">LSM1x0A_LoRaWAN::setNwkID</text>
</a>
</g>
</g>
<!-- Node16&#45;&gt;Node26 -->
<g id="edge40_Node000016_Node000026" class="edge">
<title>Node16&#45;&gt;Node26</title>
<g id="a_edge40_Node000016_Node000026"><a xlink:title=" ">
<path fill="none" stroke="#63b8ff" d="M808.1,-539.34C828.51,-556.84 863.41,-584.11 898.25,-599 902.85,-600.97 907.66,-602.73 912.58,-604.32"/>
<polygon fill="#63b8ff" stroke="#63b8ff" points="911.42,-607.63 922.01,-607.08 913.39,-600.91 911.42,-607.63"/>
</a>
</g>
</g>
<!-- Node27 -->
<g id="Node000027" class="node">
<title>Node27</title>
<g id="a_Node000027"><a xlink:href="../../d5/d72/classLSM1x0A__LoRaWAN.html#aa70ada64d28ecca216bb62268e502adf" target="_top" xlink:title="Sets the delay for the RX1 receive window.">
<polygon fill="white" stroke="#666666" points="1081.88,-590 908.38,-590 908.38,-570 1081.88,-570 1081.88,-590"/>
<text text-anchor="middle" x="995.12" y="-576.5" font-family="Helvetica,sans-Serif" font-size="10.00">LSM1x0A_LoRaWAN::setRx1Delay</text>
</a>
</g>
</g>
<!-- Node16&#45;&gt;Node27 -->
<g id="edge42_Node000016_Node000027" class="edge">
<title>Node16&#45;&gt;Node27</title>
<g id="a_edge42_Node000016_Node000027"><a xlink:title=" ">
<path fill="none" stroke="#63b8ff" d="M832.49,-539.49C852.27,-546.76 876.25,-554.99 898.25,-561 906.33,-563.21 914.86,-565.27 923.37,-567.16"/>
<polygon fill="#63b8ff" stroke="#63b8ff" points="922.5,-570.55 933.01,-569.23 923.97,-563.71 922.5,-570.55"/>
</a>
</g>
</g>
<!-- Node28 -->
<g id="Node000028" class="node">
<title>Node28</title>
<g id="a_Node000028"><a xlink:href="../../d5/d72/classLSM1x0A__LoRaWAN.html#a2cf4eff0181b6107d082bccefa24217b" target="_top" xlink:title="Sets the Data Rate (DR) specifically for the RX2 window.">
<polygon fill="white" stroke="#666666" points="1090.12,-552 900.12,-552 900.12,-532 1090.12,-532 1090.12,-552"/>
<text text-anchor="middle" x="995.12" y="-538.5" font-family="Helvetica,sans-Serif" font-size="10.00">LSM1x0A_LoRaWAN::setRx2DataRate</text>
</a>
</g>
</g>
<!-- Node16&#45;&gt;Node28 -->
<g id="edge44_Node000016_Node000028" class="edge">
<title>Node16&#45;&gt;Node28</title>
<g id="a_edge44_Node000016_Node000028"><a xlink:title=" ">
<path fill="none" stroke="#63b8ff" d="M862.54,-529.75C870.91,-530.53 879.56,-531.34 888.26,-532.15"/>
<polygon fill="#63b8ff" stroke="#63b8ff" points="887.89,-535.63 898.18,-533.07 888.54,-528.66 887.89,-535.63"/>
</a>
</g>
</g>
<!-- Node29 -->
<g id="Node000029" class="node">
<title>Node29</title>
<g id="a_Node000029"><a xlink:href="../../d5/d72/classLSM1x0A__LoRaWAN.html#a42d2137b475b57e19d891a5f1ac93221" target="_top" xlink:title="Sets the delay for the RX2 receive window.">
<polygon fill="white" stroke="#666666" points="1081.88,-514 908.38,-514 908.38,-494 1081.88,-494 1081.88,-514"/>
<text text-anchor="middle" x="995.12" y="-500.5" font-family="Helvetica,sans-Serif" font-size="10.00">LSM1x0A_LoRaWAN::setRx2Delay</text>
</a>
</g>
</g>
<!-- Node16&#45;&gt;Node29 -->
<g id="edge46_Node000016_Node000029" class="edge">
<title>Node16&#45;&gt;Node29</title>
<g id="a_edge46_Node000016_Node000029"><a xlink:title=" ">
<path fill="none" stroke="#63b8ff" d="M862.54,-516.25C873.74,-515.21 885.47,-514.11 897.1,-513.03"/>
<polygon fill="#63b8ff" stroke="#63b8ff" points="897.07,-516.55 906.7,-512.14 896.42,-509.58 897.07,-516.55"/>
</a>
</g>
</g>
<!-- Node30 -->
<g id="Node000030" class="node">
<title>Node30</title>
<g id="a_Node000030"><a xlink:href="../../d5/d72/classLSM1x0A__LoRaWAN.html#a689f7dfda1dfeae11ea397c2ddf2ad37" target="_top" xlink:title="Sets the precise frequency for the RX2 window.">
<polygon fill="white" stroke="#666666" points="1092,-476 898.25,-476 898.25,-456 1092,-456 1092,-476"/>
<text text-anchor="middle" x="995.12" y="-462.5" font-family="Helvetica,sans-Serif" font-size="10.00">LSM1x0A_LoRaWAN::setRx2Frequency</text>
</a>
</g>
</g>
<!-- Node16&#45;&gt;Node30 -->
<g id="edge48_Node000016_Node000030" class="edge">
<title>Node16&#45;&gt;Node30</title>
<g id="a_edge48_Node000016_Node000030"><a xlink:title=" ">
<path fill="none" stroke="#63b8ff" d="M832.49,-506.51C852.27,-499.24 876.25,-491.01 898.25,-485 906.33,-482.79 914.86,-480.73 923.37,-478.84"/>
<polygon fill="#63b8ff" stroke="#63b8ff" points="923.97,-482.29 933.01,-476.77 922.5,-475.45 923.97,-482.29"/>
</a>
</g>
</g>
<!-- Node31 -->
<g id="Node000031" class="node">
<title>Node31</title>
<g id="a_Node000031"><a xlink:href="../../d5/d72/classLSM1x0A__LoRaWAN.html#a1df10d7ae6bf45b537d28d3d5c4b88d7" target="_top" xlink:title="Sets the transmission power index.">
<polygon fill="white" stroke="#666666" points="1079.62,-438 910.62,-438 910.62,-418 1079.62,-418 1079.62,-438"/>
<text text-anchor="middle" x="995.12" y="-424.5" font-family="Helvetica,sans-Serif" font-size="10.00">LSM1x0A_LoRaWAN::setTxPower</text>
</a>
</g>
</g>
<!-- Node16&#45;&gt;Node31 -->
<g id="edge50_Node000016_Node000031" class="edge">
<title>Node16&#45;&gt;Node31</title>
<g id="a_edge50_Node000016_Node000031"><a xlink:title=" ">
<path fill="none" stroke="#63b8ff" d="M808.1,-506.66C828.51,-489.16 863.41,-461.89 898.25,-447 902.85,-445.03 907.66,-443.27 912.58,-441.68"/>
<polygon fill="#63b8ff" stroke="#63b8ff" points="913.39,-445.09 922.01,-438.92 911.42,-438.37 913.39,-445.09"/>
</a>
</g>
</g>
<!-- Node32 -->
<g id="Node000032" class="node">
<title>Node32</title>
<g id="a_Node000032"><a xlink:href="../../d5/d72/classLSM1x0A__LoRaWAN.html#a059fd6a9356c4ecadd5a98294da5952d" target="_top" xlink:title="Configures the number of repetitions for Unconfirmed uplinks.">
<polygon fill="white" stroke="#666666" points="1082.62,-400 907.62,-400 907.62,-368 1082.62,-368 1082.62,-400"/>
<text text-anchor="start" x="915.62" y="-386.5" font-family="Helvetica,sans-Serif" font-size="10.00">LSM1x0A_LoRaWAN::setUnconfirm</text>
<text text-anchor="middle" x="995.12" y="-374.5" font-family="Helvetica,sans-Serif" font-size="10.00">Retry</text>
</a>
</g>
</g>
<!-- Node16&#45;&gt;Node32 -->
<g id="edge52_Node000016_Node000032" class="edge">
<title>Node16&#45;&gt;Node32</title>
<g id="a_edge52_Node000016_Node000032"><a xlink:title=" ">
<path fill="none" stroke="#63b8ff" d="M800.89,-506.67C818.4,-481.73 855.24,-434.39 898.25,-409 900.56,-407.64 902.95,-406.34 905.39,-405.12"/>
<polygon fill="#63b8ff" stroke="#63b8ff" points="906.65,-408.4 914.33,-401.1 903.78,-402.01 906.65,-408.4"/>
</a>
</g>
</g>
<!-- Node17&#45;&gt;Node10 -->
<g id="edge22_Node000017_Node000010" class="edge">
<title>Node17&#45;&gt;Node10</title>
<g id="a_edge22_Node000017_Node000010"><a xlink:title=" ">
<path fill="none" stroke="#63b8ff" d="M1071.4,-348.53C1078.72,-351.2 1085.74,-354.62 1092,-359 1147.59,-397.86 1180.44,-474.26 1194.74,-514.97"/>
<polygon fill="#63b8ff" stroke="#63b8ff" points="1191.36,-515.89 1197.87,-524.24 1197.99,-513.65 1191.36,-515.89"/>
</a>
</g>
</g>
<!-- Node18&#45;&gt;Node10 -->
<g id="edge24_Node000018_Node000010" class="edge">
<title>Node18&#45;&gt;Node10</title>
<g id="a_edge24_Node000018_Node000010"><a xlink:title=" ">
<path fill="none" stroke="#63b8ff" d="M1071.77,-310.03C1079.02,-312.79 1085.92,-316.38 1092,-321 1156.62,-370.13 1186.46,-467.16 1197.66,-514.6"/>
<polygon fill="#63b8ff" stroke="#63b8ff" points="1194.17,-515.06 1199.78,-524.05 1201,-513.53 1194.17,-515.06"/>
</a>
</g>
</g>
<!-- Node19&#45;&gt;Node10 -->
<g id="edge27_Node000019_Node000010" class="edge">
<title>Node19&#45;&gt;Node10</title>
<g id="a_edge27_Node000019_Node000010"><a xlink:title=" ">
<path fill="none" stroke="#63b8ff" d="M1077.83,-273.44C1082.91,-276.14 1087.7,-279.3 1092,-283 1163.95,-344.86 1190.73,-461.59 1199.49,-514.59"/>
<polygon fill="#63b8ff" stroke="#63b8ff" points="1196,-514.92 1200.99,-524.26 1202.92,-513.84 1196,-514.92"/>
</a>
</g>
</g>
<!-- Node20&#45;&gt;Node10 -->
<g id="edge29_Node000020_Node000010" class="edge">
<title>Node20&#45;&gt;Node10</title>
<g id="a_edge29_Node000020_Node000010"><a xlink:title=" ">
<path fill="none" stroke="#63b8ff" d="M1079.44,-871.6C1083.95,-869.21 1088.19,-866.37 1092,-863 1130.23,-829.22 1111.47,-802.26 1128,-754 1150.81,-687.42 1178.8,-609.52 1193.37,-569.23"/>
<polygon fill="#63b8ff" stroke="#63b8ff" points="1196.64,-570.47 1196.76,-559.87 1190.06,-568.08 1196.64,-570.47"/>
</a>
</g>
</g>
<!-- Node21&#45;&gt;Node10 -->
<g id="edge31_Node000021_Node000010" class="edge">
<title>Node21&#45;&gt;Node10</title>
<g id="a_edge31_Node000021_Node000010"><a xlink:title=" ">
<path fill="none" stroke="#63b8ff" d="M1078.77,-833.58C1083.5,-831.21 1087.96,-828.37 1092,-825 1112.78,-807.64 1171.69,-636.39 1194.28,-569.02"/>
<polygon fill="#63b8ff" stroke="#63b8ff" points="1197.49,-570.45 1197.34,-559.86 1190.85,-568.24 1197.49,-570.45"/>
</a>
</g>
</g>
<!-- Node22&#45;&gt;Node10 -->
<g id="edge33_Node000022_Node000010" class="edge">
<title>Node22&#45;&gt;Node10</title>
<g id="a_edge33_Node000022_Node000010"><a xlink:title=" ">
<path fill="none" stroke="#63b8ff" d="M1078.11,-795.56C1083.05,-793.2 1087.74,-790.37 1092,-787 1162.5,-731.13 1189.89,-620.69 1199.13,-569.39"/>
<polygon fill="#63b8ff" stroke="#63b8ff" points="1202.54,-570.18 1200.76,-559.74 1195.64,-569.01 1202.54,-570.18"/>
</a>
</g>
</g>
<!-- Node23&#45;&gt;Node10 -->
<g id="edge35_Node000023_Node000010" class="edge">
<title>Node23&#45;&gt;Node10</title>
<g id="a_edge35_Node000023_Node000010"><a xlink:title=" ">
<path fill="none" stroke="#63b8ff" d="M1070.66,-749.05C1078.29,-745.87 1085.58,-741.92 1092,-737 1148.99,-693.34 1181.56,-611.57 1195.35,-569.12"/>
<polygon fill="#63b8ff" stroke="#63b8ff" points="1198.65,-570.29 1198.3,-559.7 1191.97,-568.2 1198.65,-570.29"/>
</a>
</g>
</g>
<!-- Node24&#45;&gt;Node10 -->
<g id="edge37_Node000024_Node000010" class="edge">
<title>Node24&#45;&gt;Node10</title>
<g id="a_edge37_Node000024_Node000010"><a xlink:title=" ">
<path fill="none" stroke="#63b8ff" d="M1071.99,-697.37C1079.04,-694.51 1085.84,-691.09 1092,-687 1137.81,-656.61 1172.57,-600.94 1190.25,-568.13"/>
<polygon fill="#63b8ff" stroke="#63b8ff" points="1193.14,-570.16 1194.68,-559.68 1186.94,-566.91 1193.14,-570.16"/>
</a>
</g>
</g>
<!-- Node25&#45;&gt;Node10 -->
<g id="edge39_Node000025_Node000010" class="edge">
<title>Node25&#45;&gt;Node10</title>
<g id="a_edge39_Node000025_Node000010"><a xlink:title=" ">
<path fill="none" stroke="#63b8ff" d="M1072.18,-645.62C1079.04,-643.12 1085.75,-640.26 1092,-637 1126.79,-618.85 1160.1,-588.01 1181.06,-566.4"/>
<polygon fill="#63b8ff" stroke="#63b8ff" points="1183.33,-569.1 1187.68,-559.44 1178.25,-564.27 1183.33,-569.1"/>
</a>
</g>
</g>
<!-- Node26&#45;&gt;Node10 -->
<g id="edge41_Node000026_Node000010" class="edge">
<title>Node26&#45;&gt;Node10</title>
<g id="a_edge41_Node000026_Node000010"><a xlink:title=" ">
<path fill="none" stroke="#63b8ff" d="M1061.76,-607.52C1072.01,-605.16 1082.38,-602.34 1092,-599 1118.07,-589.94 1145.7,-575.81 1166.9,-563.89"/>
<polygon fill="#63b8ff" stroke="#63b8ff" points="1168.5,-567 1175.44,-559 1165.02,-560.93 1168.5,-567"/>
</a>
</g>
</g>
<!-- Node27&#45;&gt;Node10 -->
<g id="edge43_Node000027_Node000010" class="edge">
<title>Node27&#45;&gt;Node10</title>
<g id="a_edge43_Node000027_Node000010"><a xlink:title=" ">
<path fill="none" stroke="#63b8ff" d="M1053.27,-569.52C1080.11,-564.59 1112.19,-558.71 1139.78,-553.64"/>
<polygon fill="#63b8ff" stroke="#63b8ff" points="1140.21,-557.12 1149.41,-551.88 1138.94,-550.24 1140.21,-557.12"/>
</a>
</g>
</g>
<!-- Node28&#45;&gt;Node10 -->
<g id="edge45_Node000028_Node000010" class="edge">
<title>Node28&#45;&gt;Node10</title>
<g id="a_edge45_Node000028_Node000010"><a xlink:title=" ">
<path fill="none" stroke="#63b8ff" d="M1090.6,-542C1107.09,-542 1123.89,-542 1139.32,-542"/>
<polygon fill="#63b8ff" stroke="#63b8ff" points="1139.3,-545.5 1149.3,-542 1139.3,-538.5 1139.3,-545.5"/>
</a>
</g>
</g>
<!-- Node29&#45;&gt;Node10 -->
<g id="edge47_Node000029_Node000010" class="edge">
<title>Node29&#45;&gt;Node10</title>
<g id="a_edge47_Node000029_Node000010"><a xlink:title=" ">
<path fill="none" stroke="#63b8ff" d="M1053.27,-514.48C1080.11,-519.41 1112.19,-525.29 1139.78,-530.36"/>
<polygon fill="#63b8ff" stroke="#63b8ff" points="1138.94,-533.76 1149.41,-532.12 1140.21,-526.88 1138.94,-533.76"/>
</a>
</g>
</g>
<!-- Node30&#45;&gt;Node10 -->
<g id="edge49_Node000030_Node000010" class="edge">
<title>Node30&#45;&gt;Node10</title>
<g id="a_edge49_Node000030_Node000010"><a xlink:title=" ">
<path fill="none" stroke="#63b8ff" d="M1061.76,-476.48C1072.01,-478.84 1082.38,-481.66 1092,-485 1118.07,-494.06 1145.7,-508.19 1166.9,-520.11"/>
<polygon fill="#63b8ff" stroke="#63b8ff" points="1165.02,-523.07 1175.44,-525 1168.5,-517 1165.02,-523.07"/>
</a>
</g>
</g>
<!-- Node31&#45;&gt;Node10 -->
<g id="edge51_Node000031_Node000010" class="edge">
<title>Node31&#45;&gt;Node10</title>
<g id="a_edge51_Node000031_Node000010"><a xlink:title=" ">
<path fill="none" stroke="#63b8ff" d="M1069.39,-438.43C1077.21,-440.74 1084.9,-443.56 1092,-447 1127.51,-464.21 1160.9,-495.52 1181.66,-517.48"/>
<polygon fill="#63b8ff" stroke="#63b8ff" points="1178.85,-519.6 1188.21,-524.57 1183.99,-514.85 1178.85,-519.6"/>
</a>
</g>
</g>
<!-- Node32&#45;&gt;Node10 -->
<g id="edge53_Node000032_Node000010" class="edge">
<title>Node32&#45;&gt;Node10</title>
<g id="a_edge53_Node000032_Node000010"><a xlink:title=" ">
<path fill="none" stroke="#63b8ff" d="M1075.25,-400.31C1081.11,-402.81 1086.77,-405.69 1092,-409 1134.99,-436.23 1169.72,-485.5 1188.35,-515.83"/>
<polygon fill="#63b8ff" stroke="#63b8ff" points="1185.34,-517.61 1193.48,-524.4 1191.35,-514.02 1185.34,-517.61"/>
</a>
</g>
</g>
<!-- Node34&#45;&gt;Node11 -->
<g id="edge56_Node000034_Node000011" class="edge">
<title>Node34&#45;&gt;Node11</title>
<g id="a_edge56_Node000034_Node000011"><a xlink:title=" ">
<path fill="none" stroke="#63b8ff" d="M1218.82,-762.71C1254.19,-720.24 1349.09,-606.28 1386.83,-560.97"/>
<polygon fill="#63b8ff" stroke="#63b8ff" points="1389.3,-563.47 1393.01,-553.55 1383.92,-558.99 1389.3,-563.47"/>
</a>
</g>
</g>
</g>
</svg>
