<?xml version="1.0" encoding="UTF-8" standalone="no"?>
<!DOCTYPE svg PUBLIC "-//W3C//DTD SVG 1.1//EN"
 "http://www.w3.org/Graphics/SVG/1.1/DTD/svg11.dtd">
<!-- Generated by graphviz version 12.2.1 (20241206.2353)
 -->
<!-- Title: LSM1x0A_Sigfox::testSendLoop Pages: 1 -->
<svg width="1289pt" height="1143pt"
 viewBox="0.00 0.00 1288.50 1143.11" xmlns="http://www.w3.org/2000/svg" xmlns:xlink="http://www.w3.org/1999/xlink">
<g id="graph0" class="graph" transform="scale(1 1) rotate(0) translate(4 1139.11)">
<title>LSM1x0A_Sigfox::testSendLoop</title>
<!-- Node1 -->
<g id="Node000001" class="node">
<title>Node1</title>
<g id="a_Node000001"><a xlink:title="Sends a Local Loop TX packet.">
<polygon fill="#999999" stroke="#666666" points="157.75,-490.95 0,-490.95 0,-470.95 157.75,-470.95 157.75,-490.95"/>
<text text-anchor="middle" x="78.88" y="-477.45" font-family="Helvetica,sans-Serif" font-size="10.00">LSM1x0A_Sigfox::testSendLoop</text>
</a>
</g>
</g>
<!-- Node2 -->
<g id="Node000002" class="node">
<title>Node2</title>
<g id="a_Node000002"><a xlink:href="../../d8/d92/classLSM1x0A__Controller.html#afd7d92e60ed6fdae696a955cdbe0ed8c" target="_top" xlink:title="Sends any AT command to the module, returning error if it fails. Internally uses the LsmAtParser logi...">
<polygon fill="white" stroke="#666666" points="299.75,-496.95 193.75,-496.95 193.75,-464.95 299.75,-464.95 299.75,-496.95"/>
<text text-anchor="start" x="201.75" y="-483.45" font-family="Helvetica,sans-Serif" font-size="10.00">LSM1x0A_Controller</text>
<text text-anchor="middle" x="246.75" y="-471.45" font-family="Helvetica,sans-Serif" font-size="10.00">::sendCommand</text>
</a>
</g>
</g>
<!-- Node1&#45;&gt;Node2 -->
<g id="edge1_Node000001_Node000002" class="edge">
<title>Node1&#45;&gt;Node2</title>
<g id="a_edge1_Node000001_Node000002"><a xlink:title=" ">
<path fill="none" stroke="#63b8ff" d="M157.96,-480.95C166.09,-480.95 174.28,-480.95 182.22,-480.95"/>
<polygon fill="#63b8ff" stroke="#63b8ff" points="182.12,-484.45 192.12,-480.95 182.12,-477.45 182.12,-484.45"/>
</a>
</g>
</g>
<!-- Node3 -->
<g id="Node000003" class="node">
<title>Node3</title>
<g id="a_Node000003"><a xlink:href="../../d8/d92/classLSM1x0A__Controller.html#abb0eb380daa3dfb7acffb483c5db8e2b" target="_top" xlink:title="Executes the recovery protocol. First Soft&#45;Reset (ATZ), then Hard&#45;Reset if there is a pin.">
<polygon fill="white" stroke="#666666" points="441.75,-938.95 335.75,-938.95 335.75,-906.95 441.75,-906.95 441.75,-938.95"/>
<text text-anchor="start" x="343.75" y="-925.45" font-family="Helvetica,sans-Serif" font-size="10.00">LSM1x0A_Controller</text>
<text text-anchor="middle" x="388.75" y="-913.45" font-family="Helvetica,sans-Serif" font-size="10.00">::recoverModule</text>
</a>
</g>
</g>
<!-- Node2&#45;&gt;Node3 -->
<g id="edge2_Node000002_Node000003" class="edge">
<title>Node2&#45;&gt;Node3</title>
<g id="a_edge2_Node000002_Node000003"><a xlink:title=" ">
<path fill="none" stroke="#63b8ff" d="M251.3,-497.39C261.86,-545.46 294.91,-689.56 335.75,-804.95 347.1,-837.01 363.29,-872.58 374.58,-896.2"/>
<polygon fill="#63b8ff" stroke="#63b8ff" points="371.38,-897.62 378.88,-905.1 377.68,-894.57 371.38,-897.62"/>
</a>
</g>
</g>
<!-- Node31 -->
<g id="Node000031" class="node">
<title>Node31</title>
<g id="a_Node000031"><a xlink:href="../../d6/d3c/classLSM1x0A__AtParser.html#a29b53c521974387ba6c03afadfaffa4a" target="_top" xlink:title="Sends a simple command and waits for OK/ERROR. Example: sendCommand(&quot;AT+JOIN&quot;);.">
<polygon fill="white" stroke="#666666" points="856.25,-1118.95 682,-1118.95 682,-1098.95 856.25,-1098.95 856.25,-1118.95"/>
<text text-anchor="middle" x="769.12" y="-1105.45" font-family="Helvetica,sans-Serif" font-size="10.00">LSM1x0A_AtParser::sendCommand</text>
</a>
</g>
</g>
<!-- Node2&#45;&gt;Node31 -->
<g id="edge55_Node000002_Node000031" class="edge">
<title>Node2&#45;&gt;Node31</title>
<g id="a_edge55_Node000002_Node000031"><a xlink:title=" ">
<path fill="none" stroke="#63b8ff" d="M247.81,-497.2C248.63,-559.15 257.17,-785.25 335.75,-947.95 377.68,-1034.77 390.06,-1071.88 477.75,-1111.95 555.51,-1147.48 657.66,-1134.62 717.77,-1121.89"/>
<polygon fill="#63b8ff" stroke="#63b8ff" points="718.36,-1125.34 727.37,-1119.77 716.85,-1118.51 718.36,-1125.34"/>
</a>
</g>
</g>
<!-- Node4 -->
<g id="Node000004" class="node">
<title>Node4</title>
<g id="a_Node000004"><a xlink:href="../../d8/d92/classLSM1x0A__Controller.html#a3f6f25b843fe4fb7042c544deae2ab16" target="_top" xlink:title="Manually clears bits from the internal EventGroup.">
<polygon fill="white" stroke="#666666" points="1050,-957.95 944,-957.95 944,-925.95 1050,-925.95 1050,-957.95"/>
<text text-anchor="start" x="952" y="-944.45" font-family="Helvetica,sans-Serif" font-size="10.00">LSM1x0A_Controller</text>
<text text-anchor="middle" x="997" y="-932.45" font-family="Helvetica,sans-Serif" font-size="10.00">::clearEvents</text>
</a>
</g>
</g>
<!-- Node3&#45;&gt;Node4 -->
<g id="edge3_Node000003_Node000004" class="edge">
<title>Node3&#45;&gt;Node4</title>
<g id="a_edge3_Node000003_Node000004"><a xlink:title=" ">
<path fill="none" stroke="#63b8ff" d="M405.83,-939.29C422.25,-954.72 449.31,-976.82 477.75,-985.95 637.32,-1037.18 837.91,-991 936.18,-961.72"/>
<polygon fill="#63b8ff" stroke="#63b8ff" points="937.07,-965.11 945.62,-958.86 935.04,-958.41 937.07,-965.11"/>
</a>
</g>
</g>
<!-- Node5 -->
<g id="Node000005" class="node">
<title>Node5</title>
<g id="a_Node000005"><a xlink:href="../../d8/d92/classLSM1x0A__Controller.html#a345d4bd79fa16b18dc33a4ca788fe5f7" target="_top" xlink:title="Performs a hardware reset using the reset pin.">
<polygon fill="white" stroke="#666666" points="610,-938.95 504,-938.95 504,-906.95 610,-906.95 610,-938.95"/>
<text text-anchor="start" x="512" y="-925.45" font-family="Helvetica,sans-Serif" font-size="10.00">LSM1x0A_Controller</text>
<text text-anchor="middle" x="557" y="-913.45" font-family="Helvetica,sans-Serif" font-size="10.00">::hardwareReset</text>
</a>
</g>
</g>
<!-- Node3&#45;&gt;Node5 -->
<g id="edge4_Node000003_Node000005" class="edge">
<title>Node3&#45;&gt;Node5</title>
<g id="a_edge4_Node000003_Node000005"><a xlink:title=" ">
<path fill="none" stroke="#63b8ff" d="M441.9,-922.95C457.91,-922.95 475.72,-922.95 492.41,-922.95"/>
<polygon fill="#63b8ff" stroke="#63b8ff" points="492.24,-926.45 502.24,-922.95 492.24,-919.45 492.24,-926.45"/>
</a>
</g>
</g>
<!-- Node7 -->
<g id="Node000007" class="node">
<title>Node7</title>
<g id="a_Node000007"><a xlink:href="../../d5/d72/classLSM1x0A__LoRaWAN.html#a1892801e37c8cd67d37c76108d6f7d49" target="_top" xlink:title="Validates if the device is currently Joined to the network. (Either confirmed by OTAA or statically a...">
<polygon fill="white" stroke="#666666" points="1280.5,-926.95 1128,-926.95 1128,-906.95 1280.5,-906.95 1280.5,-926.95"/>
<text text-anchor="middle" x="1204.25" y="-913.45" font-family="Helvetica,sans-Serif" font-size="10.00">LSM1x0A_LoRaWAN::isJoined</text>
</a>
</g>
</g>
<!-- Node3&#45;&gt;Node7 -->
<g id="edge6_Node000003_Node000007" class="edge">
<title>Node3&#45;&gt;Node7</title>
<g id="a_edge6_Node000003_Node000007"><a xlink:title=" ">
<path fill="none" stroke="#63b8ff" d="M435.69,-939.25C437.83,-940.7 439.86,-942.26 441.75,-943.95 466.92,-966.51 448.74,-993.6 477.75,-1010.95 488.45,-1017.34 803.91,-1014.94 866,-1008.95 967.69,-999.13 994.49,-997.44 1092,-966.95 1120.83,-957.93 1152.08,-943.44 1174.09,-932.37"/>
<polygon fill="#63b8ff" stroke="#63b8ff" points="1175.45,-935.61 1182.76,-927.94 1172.26,-929.38 1175.45,-935.61"/>
</a>
</g>
</g>
<!-- Node8 -->
<g id="Node000008" class="node">
<title>Node8</title>
<g id="a_Node000008"><a xlink:href="../../d5/d72/classLSM1x0A__LoRaWAN.html#a83e11c0e74ff9e0757db616ab1163424" target="_top" xlink:title="Attempts to recover a lost connection (re&#45;executes OTAA Join if dropped).">
<polygon fill="white" stroke="#666666" points="631.38,-850.95 482.62,-850.95 482.62,-818.95 631.38,-818.95 631.38,-850.95"/>
<text text-anchor="start" x="490.62" y="-837.45" font-family="Helvetica,sans-Serif" font-size="10.00">LSM1x0A_LoRaWAN::recover</text>
<text text-anchor="middle" x="557" y="-825.45" font-family="Helvetica,sans-Serif" font-size="10.00">Connection</text>
</a>
</g>
</g>
<!-- Node3&#45;&gt;Node8 -->
<g id="edge7_Node000003_Node000008" class="edge">
<title>Node3&#45;&gt;Node8</title>
<g id="a_edge7_Node000003_Node000008"><a xlink:title=" ">
<path fill="none" stroke="#63b8ff" d="M411.72,-906.53C429.05,-894.07 454.15,-877.07 477.75,-864.95 484.04,-861.72 490.75,-858.64 497.51,-855.76"/>
<polygon fill="#63b8ff" stroke="#63b8ff" points="498.78,-859.02 506.71,-851.99 496.13,-852.55 498.78,-859.02"/>
</a>
</g>
</g>
<!-- Node12 -->
<g id="Node000012" class="node">
<title>Node12</title>
<g id="a_Node000012"><a xlink:href="../../d5/d72/classLSM1x0A__LoRaWAN.html#ae3be4ce59dfa200369733317df356e97" target="_top" xlink:title="Pushes the RAM&#45;cached variables back down into the hardware module. Restores the operational state af...">
<polygon fill="white" stroke="#666666" points="630.25,-496.95 483.75,-496.95 483.75,-464.95 630.25,-464.95 630.25,-496.95"/>
<text text-anchor="start" x="491.75" y="-483.45" font-family="Helvetica,sans-Serif" font-size="10.00">LSM1x0A_LoRaWAN::restore</text>
<text text-anchor="middle" x="557" y="-471.45" font-family="Helvetica,sans-Serif" font-size="10.00">Config</text>
</a>
</g>
</g>
<!-- Node3&#45;&gt;Node12 -->
<g id="edge16_Node000003_Node000012" class="edge">
<title>Node3&#45;&gt;Node12</title>
<g id="a_edge16_Node000003_Node000012"><a xlink:title=" ">
<path fill="none" stroke="#63b8ff" d="M395.86,-906.69C420.76,-840.5 514.67,-590.84 545.86,-507.91"/>
<polygon fill="#63b8ff" stroke="#63b8ff" points="549.05,-509.36 549.3,-498.77 542.5,-506.9 549.05,-509.36"/>
</a>
</g>
</g>
<!-- Node29 -->
<g id="Node000029" class="node">
<title>Node29</title>
<g id="a_Node000029"><a xlink:href="../../d5/d72/classLSM1x0A__LoRaWAN.html#ace4b04396f1de1f4a54f513f5f378db7" target="_top" xlink:title="Manually overrides the internal joined state tracker.">
<polygon fill="white" stroke="#666666" points="636.25,-976.95 477.75,-976.95 477.75,-956.95 636.25,-956.95 636.25,-976.95"/>
<text text-anchor="middle" x="557" y="-963.45" font-family="Helvetica,sans-Serif" font-size="10.00">LSM1x0A_LoRaWAN::setJoined</text>
</a>
</g>
</g>
<!-- Node3&#45;&gt;Node29 -->
<g id="edge50_Node000003_Node000029" class="edge">
<title>Node3&#45;&gt;Node29</title>
<g id="a_edge50_Node000003_Node000029"><a xlink:title=" ">
<path fill="none" stroke="#63b8ff" d="M442.24,-938.22C453.91,-941.51 466.23,-944.91 477.75,-947.95 485.11,-949.89 492.87,-951.86 500.54,-953.76"/>
<polygon fill="#63b8ff" stroke="#63b8ff" points="499.63,-957.14 510.18,-956.13 501.3,-950.35 499.63,-957.14"/>
</a>
</g>
</g>
<!-- Node30 -->
<g id="Node000030" class="node">
<title>Node30</title>
<g id="a_Node000030"><a xlink:href="../../d8/d92/classLSM1x0A__Controller.html#a11ad21cb5ca33ec51346764a23bd485e" target="_top" xlink:title="Performs a software reset (ATZ Command).">
<polygon fill="white" stroke="#666666" points="610,-1102.95 504,-1102.95 504,-1070.95 610,-1070.95 610,-1102.95"/>
<text text-anchor="start" x="512" y="-1089.45" font-family="Helvetica,sans-Serif" font-size="10.00">LSM1x0A_Controller</text>
<text text-anchor="middle" x="557" y="-1077.45" font-family="Helvetica,sans-Serif" font-size="10.00">::softwareReset</text>
</a>
</g>
</g>
<!-- Node3&#45;&gt;Node30 -->
<g id="edge51_Node000003_Node000030" class="edge">
<title>Node3&#45;&gt;Node30</title>
<g id="a_edge51_Node000003_Node000030"><a xlink:title=" ">
<path fill="none" stroke="#63b8ff" d="M396.45,-939.34C408.64,-967.25 437,-1024.13 477.75,-1056.95 482.57,-1060.83 487.94,-1064.24 493.55,-1067.25"/>
<polygon fill="#63b8ff" stroke="#63b8ff" points="491.96,-1070.36 502.48,-1071.55 495,-1064.06 491.96,-1070.36"/>
</a>
</g>
</g>
<!-- Node6 -->
<g id="Node000006" class="node">
<title>Node6</title>
<g id="a_Node000006"><a xlink:href="../../d6/d3c/classLSM1x0A__AtParser.html#ad2839120da13e56132b95019419be1e5" target="_top" xlink:title="Waits for an event (like BOOTALERT) without sending any command. Useful for hardware reset where the ...">
<polygon fill="white" stroke="#666666" points="839.38,-938.95 698.88,-938.95 698.88,-906.95 839.38,-906.95 839.38,-938.95"/>
<text text-anchor="start" x="706.88" y="-925.45" font-family="Helvetica,sans-Serif" font-size="10.00">LSM1x0A_AtParser::waitFor</text>
<text text-anchor="middle" x="769.12" y="-913.45" font-family="Helvetica,sans-Serif" font-size="10.00">Event</text>
</a>
</g>
</g>
<!-- Node5&#45;&gt;Node6 -->
<g id="edge5_Node000005_Node000006" class="edge">
<title>Node5&#45;&gt;Node6</title>
<g id="a_edge5_Node000005_Node000006"><a xlink:title=" ">
<path fill="none" stroke="#63b8ff" d="M610.48,-922.95C633.67,-922.95 661.47,-922.95 687.21,-922.95"/>
<polygon fill="#63b8ff" stroke="#63b8ff" points="686.97,-926.45 696.97,-922.95 686.97,-919.45 686.97,-926.45"/>
</a>
</g>
</g>
<!-- Node9 -->
<g id="Node000009" class="node">
<title>Node9</title>
<g id="a_Node000009"><a xlink:href="../../d5/d72/classLSM1x0A__LoRaWAN.html#a59f781f3cfd30c11cd3973bcb10a7baa" target="_top" xlink:title="Initiates a LoRaWAN Network Join procedure. This is a blocking function until the module fires an eve...">
<polygon fill="white" stroke="#666666" points="834.88,-844.95 703.38,-844.95 703.38,-824.95 834.88,-824.95 834.88,-844.95"/>
<text text-anchor="middle" x="769.12" y="-831.45" font-family="Helvetica,sans-Serif" font-size="10.00">LSM1x0A_LoRaWAN::join</text>
</a>
</g>
</g>
<!-- Node8&#45;&gt;Node9 -->
<g id="edge8_Node000008_Node000009" class="edge">
<title>Node8&#45;&gt;Node9</title>
<g id="a_edge8_Node000008_Node000009"><a xlink:title=" ">
<path fill="none" stroke="#63b8ff" d="M631.79,-834.95C651.16,-834.95 672.1,-834.95 691.61,-834.95"/>
<polygon fill="#63b8ff" stroke="#63b8ff" points="691.4,-838.45 701.4,-834.95 691.4,-831.45 691.4,-838.45"/>
</a>
</g>
</g>
<!-- Node9&#45;&gt;Node2 -->
<g id="edge11_Node000009_Node000002" class="edge">
<title>Node9&#45;&gt;Node2</title>
<g id="a_edge11_Node000009_Node000002"><a xlink:title=" ">
<path fill="none" stroke="#63b8ff" d="M714.9,-824.5C656.27,-812.53 559.48,-791.38 477.75,-766.95 413.36,-747.69 383.48,-762.27 335.75,-714.95 277.48,-657.18 257.28,-557.13 250.7,-508.74"/>
<polygon fill="#63b8ff" stroke="#63b8ff" points="254.18,-508.33 249.47,-498.84 247.23,-509.2 254.18,-508.33"/>
</a>
</g>
</g>
<!-- Node9&#45;&gt;Node3 -->
<g id="edge10_Node000009_Node000003" class="edge">
<title>Node9&#45;&gt;Node3</title>
<g id="a_edge10_Node000009_Node000003"><a xlink:title=" ">
<path fill="none" stroke="#63b8ff" d="M714.9,-845.44C656.49,-857.21 560.07,-877.35 477.75,-897.95 469.81,-899.94 461.49,-902.14 453.28,-904.39"/>
<polygon fill="#63b8ff" stroke="#63b8ff" points="452.34,-901.01 443.65,-907.06 454.22,-907.76 452.34,-901.01"/>
</a>
</g>
</g>
<!-- Node9&#45;&gt;Node4 -->
<g id="edge9_Node000009_Node000004" class="edge">
<title>Node9&#45;&gt;Node4</title>
<g id="a_edge9_Node000009_Node000004"><a xlink:title=" ">
<path fill="none" stroke="#63b8ff" d="M792.19,-845.4C828.91,-862.79 903.23,-898 951.26,-920.75"/>
<polygon fill="#63b8ff" stroke="#63b8ff" points="949.47,-923.78 960.01,-924.9 952.47,-917.45 949.47,-923.78"/>
</a>
</g>
</g>
<!-- Node10 -->
<g id="Node000010" class="node">
<title>Node10</title>
<g id="a_Node000010"><a xlink:href="../../d5/d72/classLSM1x0A__LoRaWAN.html#a3fdd1ac318a5ad2559323e5d57e36a5e" target="_top" xlink:title="Enables or disables specific sub&#45;bands for regions supporting Channel Masks (e.g.,...">
<polygon fill="white" stroke="#666666" points="1092,-654.95 902,-654.95 902,-634.95 1092,-634.95 1092,-654.95"/>
<text text-anchor="middle" x="997" y="-641.45" font-family="Helvetica,sans-Serif" font-size="10.00">LSM1x0A_LoRaWAN::setChannelMask</text>
</a>
</g>
</g>
<!-- Node9&#45;&gt;Node10 -->
<g id="edge12_Node000009_Node000010" class="edge">
<title>Node9&#45;&gt;Node10</title>
<g id="a_edge12_Node000009_Node000010"><a xlink:title=" ">
<path fill="none" stroke="#63b8ff" d="M829.43,-824.45C842.15,-820.55 855.05,-815.22 866,-807.95 922.87,-770.19 966.5,-699.61 985.54,-665.05"/>
<polygon fill="#63b8ff" stroke="#63b8ff" points="988.47,-666.98 990.12,-656.52 982.3,-663.67 988.47,-666.98"/>
</a>
</g>
</g>
<!-- Node11 -->
<g id="Node000011" class="node">
<title>Node11</title>
<g id="a_Node000011"><a xlink:href="../../d8/d92/classLSM1x0A__Controller.html#a62476e30e50c7fe120aeb8df4b828675" target="_top" xlink:title="Synchronously/blockingly waits for an asynchronous event to occur. Useful for wrapping commands like ...">
<polygon fill="white" stroke="#666666" points="1050,-850.95 944,-850.95 944,-818.95 1050,-818.95 1050,-850.95"/>
<text text-anchor="start" x="952" y="-837.45" font-family="Helvetica,sans-Serif" font-size="10.00">LSM1x0A_Controller</text>
<text text-anchor="middle" x="997" y="-825.45" font-family="Helvetica,sans-Serif" font-size="10.00">::waitForEvent</text>
</a>
</g>
</g>
<!-- Node9&#45;&gt;Node11 -->
<g id="edge15_Node000009_Node000011" class="edge">
<title>Node9&#45;&gt;Node11</title>
<g id="a_edge15_Node000009_Node000011"><a xlink:title=" ">
<path fill="none" stroke="#63b8ff" d="M835.15,-834.95C865.66,-834.95 901.9,-834.95 932.24,-834.95"/>
<polygon fill="#63b8ff" stroke="#63b8ff" points="932.05,-838.45 942.05,-834.95 932.05,-831.45 932.05,-838.45"/>
</a>
</g>
</g>
<!-- Node10&#45;&gt;Node2 -->
<g id="edge14_Node000010_Node000002" class="edge">
<title>Node10&#45;&gt;Node2</title>
<g id="a_edge14_Node000010_Node000002"><a xlink:title=" ">
<path fill="none" stroke="#63b8ff" d="M995.22,-634.73C989.77,-566.01 954.85,-172.04 866,-101.95 680.84,44.11 516.9,29.06 335.75,-121.95 284.17,-164.95 258.11,-377.61 250.32,-453.76"/>
<polygon fill="#63b8ff" stroke="#63b8ff" points="246.88,-452.96 249.37,-463.26 253.84,-453.65 246.88,-452.96"/>
</a>
</g>
</g>
<!-- Node10&#45;&gt;Node7 -->
<g id="edge13_Node000010_Node000007" class="edge">
<title>Node10&#45;&gt;Node7</title>
<g id="a_edge13_Node000010_Node000007"><a xlink:title=" ">
<path fill="none" stroke="#63b8ff" d="M1005.8,-655.28C1036.34,-695.76 1148.17,-843.95 1188.57,-897.49"/>
<polygon fill="#63b8ff" stroke="#63b8ff" points="1185.72,-899.52 1194.54,-905.4 1191.31,-895.31 1185.72,-899.52"/>
</a>
</g>
</g>
<!-- Node12&#45;&gt;Node10 -->
<g id="edge21_Node000012_Node000010" class="edge">
<title>Node12&#45;&gt;Node10</title>
<g id="a_edge21_Node000012_Node000010"><a xlink:title=" ">
<path fill="none" stroke="#63b8ff" d="M630.49,-484.29C708.15,-488.81 825.68,-498.64 866,-517.95 917.93,-542.82 961.88,-596.76 982.84,-625.7"/>
<polygon fill="#63b8ff" stroke="#63b8ff" points="979.77,-627.41 988.4,-633.56 985.49,-623.37 979.77,-627.41"/>
</a>
</g>
</g>
<!-- Node13 -->
<g id="Node000013" class="node">
<title>Node13</title>
<g id="a_Node000013"><a xlink:href="../../d5/d72/classLSM1x0A__LoRaWAN.html#af0baa3db4c7fab580d6b19a9e92472f6" target="_top" xlink:title="Enables or disables Adaptive Data Rate (ADR).">
<polygon fill="white" stroke="#666666" points="845,-798.95 693.25,-798.95 693.25,-778.95 845,-778.95 845,-798.95"/>
<text text-anchor="middle" x="769.12" y="-785.45" font-family="Helvetica,sans-Serif" font-size="10.00">LSM1x0A_LoRaWAN::setADR</text>
</a>
</g>
</g>
<!-- Node12&#45;&gt;Node13 -->
<g id="edge17_Node000012_Node000013" class="edge">
<title>Node12&#45;&gt;Node13</title>
<g id="a_edge17_Node000012_Node000013"><a xlink:title=" ">
<path fill="none" stroke="#63b8ff" d="M559.18,-497.13C563.7,-546.58 584.4,-696.7 672.25,-769.95 675.5,-772.66 679.04,-775.03 682.76,-777.08"/>
<polygon fill="#63b8ff" stroke="#63b8ff" points="681.09,-780.17 691.63,-781.21 684.04,-773.82 681.09,-780.17"/>
</a>
</g>
</g>
<!-- Node14 -->
<g id="Node000014" class="node">
<title>Node14</title>
<g id="a_Node000014"><a xlink:href="../../d5/d72/classLSM1x0A__LoRaWAN.html#a5365ed1596eb84ebf1e3b33b4a10c788" target="_top" xlink:title="Sets the LoRaWAN operational frequency band.">
<polygon fill="white" stroke="#666666" points="845.38,-760.95 692.88,-760.95 692.88,-740.95 845.38,-740.95 845.38,-760.95"/>
<text text-anchor="middle" x="769.12" y="-747.45" font-family="Helvetica,sans-Serif" font-size="10.00">LSM1x0A_LoRaWAN::setBand</text>
</a>
</g>
</g>
<!-- Node12&#45;&gt;Node14 -->
<g id="edge19_Node000012_Node000014" class="edge">
<title>Node12&#45;&gt;Node14</title>
<g id="a_edge19_Node000012_Node000014"><a xlink:title=" ">
<path fill="none" stroke="#63b8ff" d="M560.26,-497.27C567.42,-542.46 593.98,-669.99 672.25,-731.95 675.41,-734.45 678.8,-736.64 682.36,-738.58"/>
<polygon fill="#63b8ff" stroke="#63b8ff" points="680.85,-741.74 691.4,-742.72 683.77,-735.37 680.85,-741.74"/>
</a>
</g>
</g>
<!-- Node15 -->
<g id="Node000015" class="node">
<title>Node15</title>
<g id="a_Node000015"><a xlink:href="../../d5/d72/classLSM1x0A__LoRaWAN.html#a9d9285c43414337a0ccb3a6cd7ca06e6" target="_top" xlink:title="Configures the number of retries for Confirmed uplinks.">
<polygon fill="white" stroke="#666666" points="851.38,-722.95 686.88,-722.95 686.88,-690.95 851.38,-690.95 851.38,-722.95"/>
<text text-anchor="start" x="694.88" y="-709.45" font-family="Helvetica,sans-Serif" font-size="10.00">LSM1x0A_LoRaWAN::setConfirm</text>
<text text-anchor="middle" x="769.12" y="-697.45" font-family="Helvetica,sans-Serif" font-size="10.00">Retry</text>
</a>
</g>
</g>
<!-- Node12&#45;&gt;Node15 -->
<g id="edge22_Node000012_Node000015" class="edge">
<title>Node12&#45;&gt;Node15</title>
<g id="a_edge22_Node000012_Node000015"><a xlink:title=" ">
<path fill="none" stroke="#63b8ff" d="M562.52,-497.42C573.98,-535.98 607.92,-632.59 672.25,-681.95 673.61,-682.99 675.02,-684 676.46,-684.96"/>
<polygon fill="#63b8ff" stroke="#63b8ff" points="674.68,-687.98 685.09,-689.96 678.19,-681.92 674.68,-687.98"/>
</a>
</g>
</g>
<!-- Node16 -->
<g id="Node000016" class="node">
<title>Node16</title>
<g id="a_Node000016"><a xlink:href="../../d5/d72/classLSM1x0A__LoRaWAN.html#a56345ceeafa0b9059d6de4e69eddc82e" target="_top" xlink:title="Sets the Data Rate (DR) of the module.">
<polygon fill="white" stroke="#666666" points="855.12,-672.95 683.12,-672.95 683.12,-652.95 855.12,-652.95 855.12,-672.95"/>
<text text-anchor="middle" x="769.12" y="-659.45" font-family="Helvetica,sans-Serif" font-size="10.00">LSM1x0A_LoRaWAN::setDataRate</text>
</a>
</g>
</g>
<!-- Node12&#45;&gt;Node16 -->
<g id="edge24_Node000012_Node000016" class="edge">
<title>Node12&#45;&gt;Node16</title>
<g id="a_edge24_Node000012_Node000016"><a xlink:title=" ">
<path fill="none" stroke="#63b8ff" d="M564.43,-497.26C578.49,-530.68 615.36,-606.87 672.25,-643.95 674.39,-645.34 676.6,-646.63 678.88,-647.84"/>
<polygon fill="#63b8ff" stroke="#63b8ff" points="677.3,-650.96 687.85,-651.92 680.2,-644.59 677.3,-650.96"/>
</a>
</g>
</g>
<!-- Node17 -->
<g id="Node000017" class="node">
<title>Node17</title>
<g id="a_Node000017"><a xlink:href="../../d5/d72/classLSM1x0A__LoRaWAN.html#a8494083816ab885cb07fc3b08de029f4" target="_top" xlink:title="Sets the LoRaWAN Device Address (DevAddr) for ABP mode.">
<polygon fill="white" stroke="#666666" points="853.25,-634.95 685,-634.95 685,-614.95 853.25,-614.95 853.25,-634.95"/>
<text text-anchor="middle" x="769.12" y="-621.45" font-family="Helvetica,sans-Serif" font-size="10.00">LSM1x0A_LoRaWAN::setDevAddr</text>
</a>
</g>
</g>
<!-- Node12&#45;&gt;Node17 -->
<g id="edge26_Node000012_Node000017" class="edge">
<title>Node12&#45;&gt;Node17</title>
<g id="a_edge26_Node000012_Node000017"><a xlink:title=" ">
<path fill="none" stroke="#63b8ff" d="M567.99,-497.41C585.47,-524.7 624.35,-578.97 672.25,-605.95 675.09,-607.55 678.05,-609.02 681.08,-610.36"/>
<polygon fill="#63b8ff" stroke="#63b8ff" points="679.67,-613.57 690.26,-613.93 682.21,-607.04 679.67,-613.57"/>
</a>
</g>
</g>
<!-- Node18 -->
<g id="Node000018" class="node">
<title>Node18</title>
<g id="a_Node000018"><a xlink:href="../../d5/d72/classLSM1x0A__LoRaWAN.html#ad320634e52d7ea907043cc50dd37c5b0" target="_top" xlink:title="Sets the LoRaWAN Device EUI (DevEUI).">
<polygon fill="white" stroke="#666666" points="851.75,-596.95 686.5,-596.95 686.5,-576.95 851.75,-576.95 851.75,-596.95"/>
<text text-anchor="middle" x="769.12" y="-583.45" font-family="Helvetica,sans-Serif" font-size="10.00">LSM1x0A_LoRaWAN::setDevEUI</text>
</a>
</g>
</g>
<!-- Node12&#45;&gt;Node18 -->
<g id="edge28_Node000012_Node000018" class="edge">
<title>Node12&#45;&gt;Node18</title>
<g id="a_edge28_Node000012_Node000018"><a xlink:title=" ">
<path fill="none" stroke="#63b8ff" d="M574.2,-497.21C595.02,-517.12 633.15,-550.34 672.25,-567.95 676.51,-569.87 680.97,-571.6 685.53,-573.15"/>
<polygon fill="#63b8ff" stroke="#63b8ff" points="684.28,-576.43 694.87,-576.02 686.34,-569.74 684.28,-576.43"/>
</a>
</g>
</g>
<!-- Node19 -->
<g id="Node000019" class="node">
<title>Node19</title>
<g id="a_Node000019"><a xlink:href="../../d5/d72/classLSM1x0A__LoRaWAN.html#a031023b0d2dd5db3c51c2db6ae7801cc" target="_top" xlink:title="Enables or disables the Duty Cycle limitation (EU regions mostly).">
<polygon fill="white" stroke="#666666" points="844.62,-558.95 693.62,-558.95 693.62,-526.95 844.62,-526.95 844.62,-558.95"/>
<text text-anchor="start" x="701.62" y="-545.45" font-family="Helvetica,sans-Serif" font-size="10.00">LSM1x0A_LoRaWAN::setDuty</text>
<text text-anchor="middle" x="769.12" y="-533.45" font-family="Helvetica,sans-Serif" font-size="10.00">Cycle</text>
</a>
</g>
</g>
<!-- Node12&#45;&gt;Node19 -->
<g id="edge30_Node000012_Node000019" class="edge">
<title>Node12&#45;&gt;Node19</title>
<g id="a_edge30_Node000012_Node000019"><a xlink:title=" ">
<path fill="none" stroke="#63b8ff" d="M613.76,-497.4C640.7,-505.35 673.23,-514.95 701.48,-523.28"/>
<polygon fill="#63b8ff" stroke="#63b8ff" points="700.44,-526.62 711.02,-526.1 702.42,-519.91 700.44,-526.62"/>
</a>
</g>
</g>
<!-- Node20 -->
<g id="Node000020" class="node">
<title>Node20</title>
<g id="a_Node000020"><a xlink:href="../../d5/d72/classLSM1x0A__LoRaWAN.html#a6b179d5825c49af0f391dfc539912f64" target="_top" xlink:title="Sets the delay for the Join1 receive window.">
<polygon fill="white" stroke="#666666" points="845.75,-470.95 692.5,-470.95 692.5,-438.95 845.75,-438.95 845.75,-470.95"/>
<text text-anchor="start" x="700.5" y="-457.45" font-family="Helvetica,sans-Serif" font-size="10.00">LSM1x0A_LoRaWAN::setJoin1</text>
<text text-anchor="middle" x="769.12" y="-445.45" font-family="Helvetica,sans-Serif" font-size="10.00">Delay</text>
</a>
</g>
</g>
<!-- Node12&#45;&gt;Node20 -->
<g id="edge32_Node000012_Node000020" class="edge">
<title>Node12&#45;&gt;Node20</title>
<g id="a_edge32_Node000012_Node000020"><a xlink:title=" ">
<path fill="none" stroke="#63b8ff" d="M630.61,-471.96C646.96,-469.94 664.47,-467.77 681.33,-465.69"/>
<polygon fill="#63b8ff" stroke="#63b8ff" points="681.3,-469.22 690.8,-464.52 680.44,-462.27 681.3,-469.22"/>
</a>
</g>
</g>
<!-- Node21 -->
<g id="Node000021" class="node">
<title>Node21</title>
<g id="a_Node000021"><a xlink:href="../../d5/d72/classLSM1x0A__LoRaWAN.html#a4545d0caad41558cdb9bae8286b104d8" target="_top" xlink:title="Sets the delay for the Join2 receive window.">
<polygon fill="white" stroke="#666666" points="845.75,-420.95 692.5,-420.95 692.5,-388.95 845.75,-388.95 845.75,-420.95"/>
<text text-anchor="start" x="700.5" y="-407.45" font-family="Helvetica,sans-Serif" font-size="10.00">LSM1x0A_LoRaWAN::setJoin2</text>
<text text-anchor="middle" x="769.12" y="-395.45" font-family="Helvetica,sans-Serif" font-size="10.00">Delay</text>
</a>
</g>
</g>
<!-- Node12&#45;&gt;Node21 -->
<g id="edge34_Node000012_Node000021" class="edge">
<title>Node12&#45;&gt;Node21</title>
<g id="a_edge34_Node000012_Node000021"><a xlink:title=" ">
<path fill="none" stroke="#63b8ff" d="M590.91,-464.52C613.42,-453.71 644.17,-439.8 672.25,-429.95 677.54,-428.09 683.04,-426.3 688.61,-424.59"/>
<polygon fill="#63b8ff" stroke="#63b8ff" points="689.32,-428.03 697.91,-421.84 687.33,-421.32 689.32,-428.03"/>
</a>
</g>
</g>
<!-- Node22 -->
<g id="Node000022" class="node">
<title>Node22</title>
<g id="a_Node000022"><a xlink:href="../../d5/d72/classLSM1x0A__LoRaWAN.html#a06bd50723ec1eb7e144c9141b2ec86fc" target="_top" xlink:title="Sets the LoRaWAN Network ID (NetID).">
<polygon fill="white" stroke="#666666" points="849.5,-370.95 688.75,-370.95 688.75,-350.95 849.5,-350.95 849.5,-370.95"/>
<text text-anchor="middle" x="769.12" y="-357.45" font-family="Helvetica,sans-Serif" font-size="10.00">LSM1x0A_LoRaWAN::setNwkID</text>
</a>
</g>
</g>
<!-- Node12&#45;&gt;Node22 -->
<g id="edge36_Node000012_Node000022" class="edge">
<title>Node12&#45;&gt;Node22</title>
<g id="a_edge36_Node000012_Node000022"><a xlink:title=" ">
<path fill="none" stroke="#63b8ff" d="M571.26,-464.74C590.85,-441.98 629.78,-400.98 672.25,-379.95 675.93,-378.13 679.76,-376.48 683.7,-374.99"/>
<polygon fill="#63b8ff" stroke="#63b8ff" points="684.51,-378.41 692.86,-371.9 682.27,-371.78 684.51,-378.41"/>
</a>
</g>
</g>
<!-- Node23 -->
<g id="Node000023" class="node">
<title>Node23</title>
<g id="a_Node000023"><a xlink:href="../../d5/d72/classLSM1x0A__LoRaWAN.html#aa70ada64d28ecca216bb62268e502adf" target="_top" xlink:title="Sets the delay for the RX1 receive window.">
<polygon fill="white" stroke="#666666" points="855.88,-332.95 682.38,-332.95 682.38,-312.95 855.88,-312.95 855.88,-332.95"/>
<text text-anchor="middle" x="769.12" y="-319.45" font-family="Helvetica,sans-Serif" font-size="10.00">LSM1x0A_LoRaWAN::setRx1Delay</text>
</a>
</g>
</g>
<!-- Node12&#45;&gt;Node23 -->
<g id="edge38_Node000012_Node000023" class="edge">
<title>Node12&#45;&gt;Node23</title>
<g id="a_edge38_Node000012_Node000023"><a xlink:title=" ">
<path fill="none" stroke="#63b8ff" d="M566.45,-464.54C582.65,-434.88 621.05,-372.58 672.25,-341.95 674.73,-340.46 677.31,-339.09 679.96,-337.82"/>
<polygon fill="#63b8ff" stroke="#63b8ff" points="681.21,-341.09 689.09,-334.02 678.51,-334.63 681.21,-341.09"/>
</a>
</g>
</g>
<!-- Node24 -->
<g id="Node000024" class="node">
<title>Node24</title>
<g id="a_Node000024"><a xlink:href="../../d5/d72/classLSM1x0A__LoRaWAN.html#a2cf4eff0181b6107d082bccefa24217b" target="_top" xlink:title="Sets the Data Rate (DR) specifically for the RX2 window.">
<polygon fill="white" stroke="#666666" points="864.12,-294.95 674.12,-294.95 674.12,-274.95 864.12,-274.95 864.12,-294.95"/>
<text text-anchor="middle" x="769.12" y="-281.45" font-family="Helvetica,sans-Serif" font-size="10.00">LSM1x0A_LoRaWAN::setRx2DataRate</text>
</a>
</g>
</g>
<!-- Node12&#45;&gt;Node24 -->
<g id="edge40_Node000012_Node000024" class="edge">
<title>Node12&#45;&gt;Node24</title>
<g id="a_edge40_Node000012_Node000024"><a xlink:title=" ">
<path fill="none" stroke="#63b8ff" d="M563.52,-464.61C576.4,-429.11 612.04,-344.84 672.25,-303.95 674.22,-302.61 676.27,-301.36 678.38,-300.19"/>
<polygon fill="#63b8ff" stroke="#63b8ff" points="679.71,-303.43 687.23,-295.97 676.7,-297.11 679.71,-303.43"/>
</a>
</g>
</g>
<!-- Node25 -->
<g id="Node000025" class="node">
<title>Node25</title>
<g id="a_Node000025"><a xlink:href="../../d5/d72/classLSM1x0A__LoRaWAN.html#a42d2137b475b57e19d891a5f1ac93221" target="_top" xlink:title="Sets the delay for the RX2 receive window.">
<polygon fill="white" stroke="#666666" points="855.88,-256.95 682.38,-256.95 682.38,-236.95 855.88,-236.95 855.88,-256.95"/>
<text text-anchor="middle" x="769.12" y="-243.45" font-family="Helvetica,sans-Serif" font-size="10.00">LSM1x0A_LoRaWAN::setRx2Delay</text>
</a>
</g>
</g>
<!-- Node12&#45;&gt;Node25 -->
<g id="edge42_Node000012_Node000025" class="edge">
<title>Node12&#45;&gt;Node25</title>
<g id="a_edge42_Node000012_Node000025"><a xlink:title=" ">
<path fill="none" stroke="#63b8ff" d="M561.59,-464.6C571.43,-423.89 602.86,-317.5 672.25,-265.95 673.84,-264.76 675.49,-263.65 677.18,-262.6"/>
<polygon fill="#63b8ff" stroke="#63b8ff" points="678.76,-265.72 685.98,-257.97 675.5,-259.53 678.76,-265.72"/>
</a>
</g>
</g>
<!-- Node26 -->
<g id="Node000026" class="node">
<title>Node26</title>
<g id="a_Node000026"><a xlink:href="../../d5/d72/classLSM1x0A__LoRaWAN.html#a689f7dfda1dfeae11ea397c2ddf2ad37" target="_top" xlink:title="Sets the precise frequency for the RX2 window.">
<polygon fill="white" stroke="#666666" points="866,-218.95 672.25,-218.95 672.25,-198.95 866,-198.95 866,-218.95"/>
<text text-anchor="middle" x="769.12" y="-205.45" font-family="Helvetica,sans-Serif" font-size="10.00">LSM1x0A_LoRaWAN::setRx2Frequency</text>
</a>
</g>
</g>
<!-- Node12&#45;&gt;Node26 -->
<g id="edge44_Node000012_Node000026" class="edge">
<title>Node12&#45;&gt;Node26</title>
<g id="a_edge44_Node000012_Node000026"><a xlink:title=" ">
<path fill="none" stroke="#63b8ff" d="M560.21,-464.5C567.26,-418.96 593.56,-290.44 672.25,-227.95 673.58,-226.89 674.95,-225.89 676.36,-224.94"/>
<polygon fill="#63b8ff" stroke="#63b8ff" points="677.86,-228.11 684.82,-220.12 674.4,-222.03 677.86,-228.11"/>
</a>
</g>
</g>
<!-- Node27 -->
<g id="Node000027" class="node">
<title>Node27</title>
<g id="a_Node000027"><a xlink:href="../../d5/d72/classLSM1x0A__LoRaWAN.html#a1df10d7ae6bf45b537d28d3d5c4b88d7" target="_top" xlink:title="Sets the transmission power index.">
<polygon fill="white" stroke="#666666" points="853.62,-180.95 684.62,-180.95 684.62,-160.95 853.62,-160.95 853.62,-180.95"/>
<text text-anchor="middle" x="769.12" y="-167.45" font-family="Helvetica,sans-Serif" font-size="10.00">LSM1x0A_LoRaWAN::setTxPower</text>
</a>
</g>
</g>
<!-- Node12&#45;&gt;Node27 -->
<g id="edge46_Node000012_Node000027" class="edge">
<title>Node12&#45;&gt;Node27</title>
<g id="a_edge46_Node000012_Node000027"><a xlink:title=" ">
<path fill="none" stroke="#63b8ff" d="M559.14,-464.65C563.55,-414.88 583.96,-263.73 672.25,-189.95 673.39,-189 674.55,-188.09 675.75,-187.23"/>
<polygon fill="#63b8ff" stroke="#63b8ff" points="677.43,-190.3 684.18,-182.14 673.81,-184.31 677.43,-190.3"/>
</a>
</g>
</g>
<!-- Node28 -->
<g id="Node000028" class="node">
<title>Node28</title>
<g id="a_Node000028"><a xlink:href="../../d5/d72/classLSM1x0A__LoRaWAN.html#a059fd6a9356c4ecadd5a98294da5952d" target="_top" xlink:title="Configures the number of repetitions for Unconfirmed uplinks.">
<polygon fill="white" stroke="#666666" points="856.62,-142.95 681.62,-142.95 681.62,-110.95 856.62,-110.95 856.62,-142.95"/>
<text text-anchor="start" x="689.62" y="-129.45" font-family="Helvetica,sans-Serif" font-size="10.00">LSM1x0A_LoRaWAN::setUnconfirm</text>
<text text-anchor="middle" x="769.12" y="-117.45" font-family="Helvetica,sans-Serif" font-size="10.00">Retry</text>
</a>
</g>
</g>
<!-- Node12&#45;&gt;Node28 -->
<g id="edge48_Node000012_Node000028" class="edge">
<title>Node12&#45;&gt;Node28</title>
<g id="a_edge48_Node000012_Node000028"><a xlink:title=" ">
<path fill="none" stroke="#63b8ff" d="M558.52,-464.75C561.15,-411.46 576.98,-239.96 672.25,-151.95 673.02,-151.23 673.82,-150.54 674.62,-149.86"/>
<polygon fill="#63b8ff" stroke="#63b8ff" points="676.47,-152.84 682.62,-144.21 672.44,-147.12 676.47,-152.84"/>
</a>
</g>
</g>
<!-- Node13&#45;&gt;Node2 -->
<g id="edge18_Node000013_Node000002" class="edge">
<title>Node13&#45;&gt;Node2</title>
<g id="a_edge18_Node000013_Node000002"><a xlink:title=" ">
<path fill="none" stroke="#63b8ff" d="M694.11,-778.49C584.89,-761.69 387.83,-725.64 335.75,-677.95 285.1,-631.57 261.87,-550.58 252.75,-508.34"/>
<polygon fill="#63b8ff" stroke="#63b8ff" points="256.23,-507.86 250.8,-498.76 249.37,-509.26 256.23,-507.86"/>
</a>
</g>
</g>
<!-- Node14&#45;&gt;Node2 -->
<g id="edge20_Node000014_Node000002" class="edge">
<title>Node14&#45;&gt;Node2</title>
<g id="a_edge20_Node000014_Node000002"><a xlink:title=" ">
<path fill="none" stroke="#63b8ff" d="M696.48,-740.46C588.42,-723.42 390.51,-687.03 335.75,-641.95 292.48,-606.32 267.12,-543.61 255.49,-507.88"/>
<polygon fill="#63b8ff" stroke="#63b8ff" points="258.96,-507.24 252.64,-498.74 252.27,-509.32 258.96,-507.24"/>
</a>
</g>
</g>
<!-- Node15&#45;&gt;Node2 -->
<g id="edge23_Node000015_Node000002" class="edge">
<title>Node15&#45;&gt;Node2</title>
<g id="a_edge23_Node000015_Node000002"><a xlink:title=" ">
<path fill="none" stroke="#63b8ff" d="M686.49,-696.13C577.08,-680.29 390.32,-648.15 335.75,-606.95 300.63,-580.43 274.24,-535.78 259.9,-507.37"/>
<polygon fill="#63b8ff" stroke="#63b8ff" points="263.21,-506.16 255.67,-498.71 256.92,-509.23 263.21,-506.16"/>
</a>
</g>
</g>
<!-- Node16&#45;&gt;Node2 -->
<g id="edge25_Node000016_Node000002" class="edge">
<title>Node16&#45;&gt;Node2</title>
<g id="a_edge25_Node000016_Node000002"><a xlink:title=" ">
<path fill="none" stroke="#63b8ff" d="M683.02,-660.63C591.31,-654.66 443.96,-634.71 335.75,-569.95 308.07,-553.38 282.89,-526.09 266.63,-506.09"/>
<polygon fill="#63b8ff" stroke="#63b8ff" points="269.49,-504.06 260.54,-498.39 264,-508.41 269.49,-504.06"/>
</a>
</g>
</g>
<!-- Node17&#45;&gt;Node2 -->
<g id="edge27_Node000017_Node000002" class="edge">
<title>Node17&#45;&gt;Node2</title>
<g id="a_edge27_Node000017_Node000002"><a xlink:title=" ">
<path fill="none" stroke="#63b8ff" d="M684.77,-618.09C595.51,-608.52 451.15,-586.49 335.75,-537.95 314.99,-529.22 293.74,-515.61 277.33,-503.88"/>
<polygon fill="#63b8ff" stroke="#63b8ff" points="279.62,-501.22 269.48,-498.14 275.49,-506.87 279.62,-501.22"/>
</a>
</g>
</g>
<!-- Node18&#45;&gt;Node2 -->
<g id="edge29_Node000018_Node000002" class="edge">
<title>Node18&#45;&gt;Node2</title>
<g id="a_edge29_Node000018_Node000002"><a xlink:title=" ">
<path fill="none" stroke="#63b8ff" d="M686.37,-576.91C598.78,-565.2 456.09,-543.35 335.75,-511.95 324.23,-508.94 312.07,-505.11 300.59,-501.17"/>
<polygon fill="#63b8ff" stroke="#63b8ff" points="301.85,-497.9 291.26,-497.88 299.53,-504.5 301.85,-497.9"/>
</a>
</g>
</g>
<!-- Node19&#45;&gt;Node2 -->
<g id="edge31_Node000019_Node000002" class="edge">
<title>Node19&#45;&gt;Node2</title>
<g id="a_edge31_Node000019_Node000002"><a xlink:title=" ">
<path fill="none" stroke="#63b8ff" d="M693.39,-534.04C590.71,-521.81 407.81,-500.02 311.35,-488.53"/>
<polygon fill="#63b8ff" stroke="#63b8ff" points="311.87,-485.06 301.53,-487.36 311.05,-492.01 311.87,-485.06"/>
</a>
</g>
</g>
<!-- Node20&#45;&gt;Node2 -->
<g id="edge33_Node000020_Node000002" class="edge">
<title>Node20&#45;&gt;Node2</title>
<g id="a_edge33_Node000020_Node000002"><a xlink:title=" ">
<path fill="none" stroke="#63b8ff" d="M692.25,-453.04C633.62,-452.09 550.48,-451.88 477.75,-455.95 421.37,-459.1 357.55,-466.33 311.47,-472.21"/>
<polygon fill="#63b8ff" stroke="#63b8ff" points="311.12,-468.72 301.65,-473.48 312.01,-475.67 311.12,-468.72"/>
</a>
</g>
</g>
<!-- Node21&#45;&gt;Node2 -->
<g id="edge35_Node000021_Node000002" class="edge">
<title>Node21&#45;&gt;Node2</title>
<g id="a_edge35_Node000021_Node000002"><a xlink:title=" ">
<path fill="none" stroke="#63b8ff" d="M692.13,-409.76C605.28,-416.18 459.21,-429.77 335.75,-454.95 327.08,-456.72 318.03,-458.94 309.17,-461.34"/>
<polygon fill="#63b8ff" stroke="#63b8ff" points="308.23,-457.97 299.55,-464.05 310.13,-464.71 308.23,-457.97"/>
</a>
</g>
</g>
<!-- Node22&#45;&gt;Node2 -->
<g id="edge37_Node000022_Node000002" class="edge">
<title>Node22&#45;&gt;Node2</title>
<g id="a_edge37_Node000022_Node000002"><a xlink:title=" ">
<path fill="none" stroke="#63b8ff" d="M688.46,-366.22C600.2,-373.87 454.63,-391.94 335.75,-432.95 317.26,-439.33 298.05,-449.35 282.31,-458.6"/>
<polygon fill="#63b8ff" stroke="#63b8ff" points="280.55,-455.57 273.8,-463.73 284.17,-461.56 280.55,-455.57"/>
</a>
</g>
</g>
<!-- Node23&#45;&gt;Node2 -->
<g id="edge39_Node000023_Node000002" class="edge">
<title>Node23&#45;&gt;Node2</title>
<g id="a_edge39_Node000023_Node000002"><a xlink:title=" ">
<path fill="none" stroke="#63b8ff" d="M681.99,-323.48C591.04,-327.36 445.85,-343.2 335.75,-400.95 309.51,-414.71 285.03,-438.19 268.59,-456.16"/>
<polygon fill="#63b8ff" stroke="#63b8ff" points="266.23,-453.54 262.2,-463.34 271.46,-458.2 266.23,-453.54"/>
</a>
</g>
</g>
<!-- Node24&#45;&gt;Node2 -->
<g id="edge41_Node000024_Node000002" class="edge">
<title>Node24&#45;&gt;Node2</title>
<g id="a_edge41_Node000024_Node000002"><a xlink:title=" ">
<path fill="none" stroke="#63b8ff" d="M673.9,-278.72C580.35,-277.21 436.69,-287.94 335.75,-355.95 299.25,-380.54 273.12,-425.71 259.23,-454.49"/>
<polygon fill="#63b8ff" stroke="#63b8ff" points="256.19,-452.73 255.15,-463.27 262.54,-455.68 256.19,-452.73"/>
</a>
</g>
</g>
<!-- Node25&#45;&gt;Node2 -->
<g id="edge43_Node000025_Node000002" class="edge">
<title>Node25&#45;&gt;Node2</title>
<g id="a_edge43_Node000025_Node000002"><a xlink:title=" ">
<path fill="none" stroke="#63b8ff" d="M698.35,-236.49C605.58,-226.6 441.09,-223.58 335.75,-304.95 287.11,-342.51 263.38,-414.19 253.56,-453.49"/>
<polygon fill="#63b8ff" stroke="#63b8ff" points="250.19,-452.56 251.3,-463.1 257,-454.17 250.19,-452.56"/>
</a>
</g>
</g>
<!-- Node26&#45;&gt;Node2 -->
<g id="edge45_Node000026_Node000002" class="edge">
<title>Node26&#45;&gt;Node2</title>
<g id="a_edge45_Node000026_Node000002"><a xlink:title=" ">
<path fill="none" stroke="#63b8ff" d="M671.92,-205.86C560.47,-204.31 385.75,-208.72 335.75,-248.95 271.86,-300.36 254.33,-403.6 249.54,-453.16"/>
<polygon fill="#63b8ff" stroke="#63b8ff" points="246.06,-452.77 248.7,-463.03 253.03,-453.36 246.06,-452.77"/>
</a>
</g>
</g>
<!-- Node27&#45;&gt;Node2 -->
<g id="edge47_Node000027_Node000002" class="edge">
<title>Node27&#45;&gt;Node2</title>
<g id="a_edge47_Node000027_Node000002"><a xlink:title=" ">
<path fill="none" stroke="#63b8ff" d="M721.42,-160.48C634.99,-144.01 448.64,-122.56 335.75,-212.95 260.94,-272.85 249.08,-397.78 247.65,-453.31"/>
<polygon fill="#63b8ff" stroke="#63b8ff" points="244.15,-453.1 247.5,-463.15 251.15,-453.21 244.15,-453.1"/>
</a>
</g>
</g>
<!-- Node28&#45;&gt;Node2 -->
<g id="edge49_Node000028_Node000002" class="edge">
<title>Node28&#45;&gt;Node2</title>
<g id="a_edge49_Node000028_Node000002"><a xlink:title=" ">
<path fill="none" stroke="#63b8ff" d="M681.24,-121.55C570.15,-116.57 386.12,-115.39 335.75,-157.95 289.9,-196.69 260.75,-383.18 251.2,-453.79"/>
<polygon fill="#63b8ff" stroke="#63b8ff" points="247.78,-452.95 249.94,-463.32 254.72,-453.87 247.78,-452.95"/>
</a>
</g>
</g>
<!-- Node30&#45;&gt;Node31 -->
<g id="edge52_Node000030_Node000031" class="edge">
<title>Node30&#45;&gt;Node31</title>
<g id="a_edge52_Node000030_Node000031"><a xlink:title=" ">
<path fill="none" stroke="#63b8ff" d="M610.48,-1092.44C628.64,-1094.34 649.61,-1096.54 670.22,-1098.7"/>
<polygon fill="#63b8ff" stroke="#63b8ff" points="669.79,-1102.17 680.1,-1099.73 670.52,-1095.21 669.79,-1102.17"/>
</a>
</g>
</g>
<!-- Node32 -->
<g id="Node000032" class="node">
<title>Node32</title>
<g id="a_Node000032"><a xlink:href="../../d6/d3c/classLSM1x0A__AtParser.html#a0ba6f927c54fceece22c17773d3f2600" target="_top" xlink:title="Sends a command and extracts a value from the response.">
<polygon fill="white" stroke="#666666" points="1084.12,-1124.95 909.88,-1124.95 909.88,-1092.95 1084.12,-1092.95 1084.12,-1124.95"/>
<text text-anchor="start" x="917.88" y="-1111.45" font-family="Helvetica,sans-Serif" font-size="10.00">LSM1x0A_AtParser::sendCommand</text>
<text text-anchor="middle" x="997" y="-1099.45" font-family="Helvetica,sans-Serif" font-size="10.00">WithResponse</text>
</a>
</g>
</g>
<!-- Node31&#45;&gt;Node32 -->
<g id="edge53_Node000031_Node000032" class="edge">
<title>Node31&#45;&gt;Node32</title>
<g id="a_edge53_Node000031_Node000032"><a xlink:title=" ">
<path fill="none" stroke="#63b8ff" d="M856.49,-1108.95C870.24,-1108.95 884.56,-1108.95 898.55,-1108.95"/>
<polygon fill="#63b8ff" stroke="#63b8ff" points="898.17,-1112.45 908.17,-1108.95 898.17,-1105.45 898.17,-1112.45"/>
</a>
</g>
</g>
<!-- Node33 -->
<g id="Node000033" class="node">
<title>Node33</title>
<g id="a_Node000033"><a xlink:href="../../d5/d8b/classUartDriver.html#a5d0f22e8867eebe99273078bb19bd23d" target="_top" xlink:title="Sends data through UART.">
<polygon fill="white" stroke="#666666" points="1258.75,-1118.95 1149.75,-1118.95 1149.75,-1098.95 1258.75,-1098.95 1258.75,-1118.95"/>
<text text-anchor="middle" x="1204.25" y="-1105.45" font-family="Helvetica,sans-Serif" font-size="10.00">UartDriver::sendData</text>
</a>
</g>
</g>
<!-- Node32&#45;&gt;Node33 -->
<g id="edge54_Node000032_Node000033" class="edge">
<title>Node32&#45;&gt;Node33</title>
<g id="a_edge54_Node000032_Node000033"><a xlink:title=" ">
<path fill="none" stroke="#63b8ff" d="M1084.45,-1108.95C1102.34,-1108.95 1120.91,-1108.95 1137.89,-1108.95"/>
<polygon fill="#63b8ff" stroke="#63b8ff" points="1137.86,-1112.45 1147.86,-1108.95 1137.86,-1105.45 1137.86,-1112.45"/>
</a>
</g>
</g>
</g>
</svg>
