<?xml version="1.0" encoding="UTF-8" standalone="no"?>
<!DOCTYPE svg PUBLIC "-//W3C//DTD SVG 1.1//EN"
 "http://www.w3.org/Graphics/SVG/1.1/DTD/svg11.dtd">
<!-- Generated by graphviz version 12.2.1 (20241206.2353)
 -->
<!-- Title: LSM1x0A_Sigfox::setRadioPower Pages: 1 -->
<!--zoomable 1143 -->

<svg id="main" version="1.1" xmlns="http://www.w3.org/2000/svg" xmlns:xlink="http://www.w3.org/1999/xlink" xml:space="preserve" onload="init(evt)">
<style type="text/css"><![CDATA[
.node, .edge {opacity: 0.7;}
.node.selected, .edge.selected {opacity: 1;}
.edge:hover path { stroke: red; }
.edge:hover polygon { stroke: red; fill: red; }
]]></style>

<defs>
  <circle id="rim" cx="0" cy="0" r="7"/>
  <circle id="rim2" cx="0" cy="0" r="3.5"/>
  <g id="zoomPlus">
    <use xlink:href="#rim" fill="#404040"><set attributeName="fill" to="#808080" begin="zoomplus.mouseover" end="zoomplus.mouseout"/></use>
    <path d="M-4,0h8M0,-4v8" fill="none" stroke="white" stroke-width="1.5" pointer-events="none"/>
  </g>
  <g id="zoomMin">
    <use xlink:href="#rim" fill="#404040"><set attributeName="fill" to="#808080" begin="zoomminus.mouseover" end="zoomminus.mouseout"/></use>
    <path d="M-4,0h8" fill="none" stroke="white" stroke-width="1.5" pointer-events="none"/>
  </g>
  <g id="arrowUp" transform="translate(30 24)">
    <use xlink:href="#rim"/>
    <path pointer-events="none" fill="none" stroke="white" stroke-width="1.5" d="M0,-3.0v7 M-2.5,-0.5L0,-3.0L2.5,-0.5"/>
  </g>
  <g id="arrowRight" transform="rotate(90) translate(36 -43)">
    <use xlink:href="#rim"/>
    <path pointer-events="none" fill="none" stroke="white" stroke-width="1.5" d="M0,-3.0v7 M-2.5,-0.5L0,-3.0L2.5,-0.5"/>
  </g>
  <g id="arrowDown" transform="rotate(180) translate(-30 -48)">
    <use xlink:href="#rim"/>
    <path pointer-events="none" fill="none" stroke="white" stroke-width="1.5" d="M0,-3.0v7 M-2.5,-0.5L0,-3.0L2.5,-0.5"/>
  </g>
  <g id="arrowLeft" transform="rotate(270) translate(-36 17)">
    <use xlink:href="#rim"/>
    <path pointer-events="none" fill="none" stroke="white" stroke-width="1.5" d="M0,-3.0v7 M-2.5,-0.5L0,-3.0L2.5,-0.5"/>
  </g>
  <g id="resetDef">
    <use xlink:href="#rim2" fill="#404040"><set attributeName="fill" to="#808080" begin="reset.mouseover" end="reset.mouseout"/></use>
  </g>
</defs>
<script type="application/ecmascript">
var viewWidth = 1268;
var viewHeight = 1143;
var sectionId = 'dynsection-26';
</script>
<script type="application/ecmascript" xlink:href="../../svg.min.js"/>
<svg id="graph" class="graph">
<g id="viewport">
<title>LSM1x0A_Sigfox::setRadioPower</title>
<!-- Node1 -->
<g id="Node000001" class="node">
<title>Node1</title>
<g id="a_Node000001"><a xlink:title="Configures the Radio TX Power for Sigfox.">
<polygon fill="#999999" stroke="#666666" points="136.75,-496.95 0,-496.95 0,-464.95 136.75,-464.95 136.75,-496.95"/>
<text text-anchor="start" x="8" y="-483.45" font-family="Helvetica,sans-Serif" font-size="10.00">LSM1x0A_Sigfox::setRadio</text>
<text text-anchor="middle" x="68.38" y="-471.45" font-family="Helvetica,sans-Serif" font-size="10.00">Power</text>
</a>
</g>
</g>
<!-- Node2 -->
<g id="Node000002" class="node">
<title>Node2</title>
<g id="a_Node000002"><a xlink:href="../../d8/d92/classLSM1x0A__Controller.html#afd7d92e60ed6fdae696a955cdbe0ed8c" target="_top" xlink:title="Sends any AT command to the module, returning error if it fails. Internally uses the LsmAtParser logi...">
<polygon fill="white" stroke="#666666" points="278.75,-496.95 172.75,-496.95 172.75,-464.95 278.75,-464.95 278.75,-496.95"/>
<text text-anchor="start" x="180.75" y="-483.45" font-family="Helvetica,sans-Serif" font-size="10.00">LSM1x0A_Controller</text>
<text text-anchor="middle" x="225.75" y="-471.45" font-family="Helvetica,sans-Serif" font-size="10.00">::sendCommand</text>
</a>
</g>
</g>
<!-- Node1&#45;&gt;Node2 -->
<g id="edge1_Node000001_Node000002" class="edge">
<title>Node1&#45;&gt;Node2</title>
<g id="a_edge1_Node000001_Node000002"><a xlink:title=" ">
<path fill="none" stroke="#63b8ff" d="M137.07,-480.95C145.09,-480.95 153.26,-480.95 161.22,-480.95"/>
<polygon fill="#63b8ff" stroke="#63b8ff" points="161.18,-484.45 171.18,-480.95 161.18,-477.45 161.18,-484.45"/>
</a>
</g>
</g>
<!-- Node3 -->
<g id="Node000003" class="node">
<title>Node3</title>
<g id="a_Node000003"><a xlink:href="../../d8/d92/classLSM1x0A__Controller.html#abb0eb380daa3dfb7acffb483c5db8e2b" target="_top" xlink:title="Executes the recovery protocol. First Soft&#45;Reset (ATZ), then Hard&#45;Reset if there is a pin.">
<polygon fill="white" stroke="#666666" points="420.75,-938.95 314.75,-938.95 314.75,-906.95 420.75,-906.95 420.75,-938.95"/>
<text text-anchor="start" x="322.75" y="-925.45" font-family="Helvetica,sans-Serif" font-size="10.00">LSM1x0A_Controller</text>
<text text-anchor="middle" x="367.75" y="-913.45" font-family="Helvetica,sans-Serif" font-size="10.00">::recoverModule</text>
</a>
</g>
</g>
<!-- Node2&#45;&gt;Node3 -->
<g id="edge2_Node000002_Node000003" class="edge">
<title>Node2&#45;&gt;Node3</title>
<g id="a_edge2_Node000002_Node000003"><a xlink:title=" ">
<path fill="none" stroke="#63b8ff" d="M230.3,-497.39C240.86,-545.46 273.91,-689.56 314.75,-804.95 326.1,-837.01 342.29,-872.58 353.58,-896.2"/>
<polygon fill="#63b8ff" stroke="#63b8ff" points="350.38,-897.62 357.88,-905.1 356.68,-894.57 350.38,-897.62"/>
</a>
</g>
</g>
<!-- Node31 -->
<g id="Node000031" class="node">
<title>Node31</title>
<g id="a_Node000031"><a xlink:href="../../d6/d3c/classLSM1x0A__AtParser.html#a29b53c521974387ba6c03afadfaffa4a" target="_top" xlink:title="Sends a simple command and waits for OK/ERROR. Example: sendCommand(&quot;AT+JOIN&quot;);.">
<polygon fill="white" stroke="#666666" points="835.25,-1118.95 661,-1118.95 661,-1098.95 835.25,-1098.95 835.25,-1118.95"/>
<text text-anchor="middle" x="748.12" y="-1105.45" font-family="Helvetica,sans-Serif" font-size="10.00">LSM1x0A_AtParser::sendCommand</text>
</a>
</g>
</g>
<!-- Node2&#45;&gt;Node31 -->
<g id="edge55_Node000002_Node000031" class="edge">
<title>Node2&#45;&gt;Node31</title>
<g id="a_edge55_Node000002_Node000031"><a xlink:title=" ">
<path fill="none" stroke="#63b8ff" d="M226.81,-497.2C227.63,-559.15 236.17,-785.25 314.75,-947.95 356.68,-1034.77 369.06,-1071.88 456.75,-1111.95 534.51,-1147.48 636.66,-1134.62 696.77,-1121.89"/>
<polygon fill="#63b8ff" stroke="#63b8ff" points="697.36,-1125.34 706.37,-1119.77 695.85,-1118.51 697.36,-1125.34"/>
</a>
</g>
</g>
<!-- Node4 -->
<g id="Node000004" class="node">
<title>Node4</title>
<g id="a_Node000004"><a xlink:href="../../d8/d92/classLSM1x0A__Controller.html#a3f6f25b843fe4fb7042c544deae2ab16" target="_top" xlink:title="Manually clears bits from the internal EventGroup.">
<polygon fill="white" stroke="#666666" points="1029,-957.95 923,-957.95 923,-925.95 1029,-925.95 1029,-957.95"/>
<text text-anchor="start" x="931" y="-944.45" font-family="Helvetica,sans-Serif" font-size="10.00">LSM1x0A_Controller</text>
<text text-anchor="middle" x="976" y="-932.45" font-family="Helvetica,sans-Serif" font-size="10.00">::clearEvents</text>
</a>
</g>
</g>
<!-- Node3&#45;&gt;Node4 -->
<g id="edge3_Node000003_Node000004" class="edge">
<title>Node3&#45;&gt;Node4</title>
<g id="a_edge3_Node000003_Node000004"><a xlink:title=" ">
<path fill="none" stroke="#63b8ff" d="M384.83,-939.29C401.25,-954.72 428.31,-976.82 456.75,-985.95 616.32,-1037.18 816.91,-991 915.18,-961.72"/>
<polygon fill="#63b8ff" stroke="#63b8ff" points="916.07,-965.11 924.62,-958.86 914.04,-958.41 916.07,-965.11"/>
</a>
</g>
</g>
<!-- Node5 -->
<g id="Node000005" class="node">
<title>Node5</title>
<g id="a_Node000005"><a xlink:href="../../d8/d92/classLSM1x0A__Controller.html#a345d4bd79fa16b18dc33a4ca788fe5f7" target="_top" xlink:title="Performs a hardware reset using the reset pin.">
<polygon fill="white" stroke="#666666" points="589,-938.95 483,-938.95 483,-906.95 589,-906.95 589,-938.95"/>
<text text-anchor="start" x="491" y="-925.45" font-family="Helvetica,sans-Serif" font-size="10.00">LSM1x0A_Controller</text>
<text text-anchor="middle" x="536" y="-913.45" font-family="Helvetica,sans-Serif" font-size="10.00">::hardwareReset</text>
</a>
</g>
</g>
<!-- Node3&#45;&gt;Node5 -->
<g id="edge4_Node000003_Node000005" class="edge">
<title>Node3&#45;&gt;Node5</title>
<g id="a_edge4_Node000003_Node000005"><a xlink:title=" ">
<path fill="none" stroke="#63b8ff" d="M420.9,-922.95C436.91,-922.95 454.72,-922.95 471.41,-922.95"/>
<polygon fill="#63b8ff" stroke="#63b8ff" points="471.24,-926.45 481.24,-922.95 471.24,-919.45 471.24,-926.45"/>
</a>
</g>
</g>
<!-- Node7 -->
<g id="Node000007" class="node">
<title>Node7</title>
<g id="a_Node000007"><a xlink:href="../../d5/d72/classLSM1x0A__LoRaWAN.html#a1892801e37c8cd67d37c76108d6f7d49" target="_top" xlink:title="Validates if the device is currently Joined to the network. (Either confirmed by OTAA or statically a...">
<polygon fill="white" stroke="#666666" points="1259.5,-926.95 1107,-926.95 1107,-906.95 1259.5,-906.95 1259.5,-926.95"/>
<text text-anchor="middle" x="1183.25" y="-913.45" font-family="Helvetica,sans-Serif" font-size="10.00">LSM1x0A_LoRaWAN::isJoined</text>
</a>
</g>
</g>
<!-- Node3&#45;&gt;Node7 -->
<g id="edge6_Node000003_Node000007" class="edge">
<title>Node3&#45;&gt;Node7</title>
<g id="a_edge6_Node000003_Node000007"><a xlink:title=" ">
<path fill="none" stroke="#63b8ff" d="M414.69,-939.25C416.83,-940.7 418.86,-942.26 420.75,-943.95 445.92,-966.51 427.74,-993.6 456.75,-1010.95 467.45,-1017.34 782.91,-1014.94 845,-1008.95 946.69,-999.13 973.49,-997.44 1071,-966.95 1099.83,-957.93 1131.08,-943.44 1153.09,-932.37"/>
<polygon fill="#63b8ff" stroke="#63b8ff" points="1154.45,-935.61 1161.76,-927.94 1151.26,-929.38 1154.45,-935.61"/>
</a>
</g>
</g>
<!-- Node8 -->
<g id="Node000008" class="node">
<title>Node8</title>
<g id="a_Node000008"><a xlink:href="../../d5/d72/classLSM1x0A__LoRaWAN.html#a83e11c0e74ff9e0757db616ab1163424" target="_top" xlink:title="Attempts to recover a lost connection (re&#45;executes OTAA Join if dropped).">
<polygon fill="white" stroke="#666666" points="610.38,-850.95 461.62,-850.95 461.62,-818.95 610.38,-818.95 610.38,-850.95"/>
<text text-anchor="start" x="469.62" y="-837.45" font-family="Helvetica,sans-Serif" font-size="10.00">LSM1x0A_LoRaWAN::recover</text>
<text text-anchor="middle" x="536" y="-825.45" font-family="Helvetica,sans-Serif" font-size="10.00">Connection</text>
</a>
</g>
</g>
<!-- Node3&#45;&gt;Node8 -->
<g id="edge7_Node000003_Node000008" class="edge">
<title>Node3&#45;&gt;Node8</title>
<g id="a_edge7_Node000003_Node000008"><a xlink:title=" ">
<path fill="none" stroke="#63b8ff" d="M390.72,-906.53C408.05,-894.07 433.15,-877.07 456.75,-864.95 463.04,-861.72 469.75,-858.64 476.51,-855.76"/>
<polygon fill="#63b8ff" stroke="#63b8ff" points="477.78,-859.02 485.71,-851.99 475.13,-852.55 477.78,-859.02"/>
</a>
</g>
</g>
<!-- Node12 -->
<g id="Node000012" class="node">
<title>Node12</title>
<g id="a_Node000012"><a xlink:href="../../d5/d72/classLSM1x0A__LoRaWAN.html#ae3be4ce59dfa200369733317df356e97" target="_top" xlink:title="Pushes the RAM&#45;cached variables back down into the hardware module. Restores the operational state af...">
<polygon fill="white" stroke="#666666" points="609.25,-496.95 462.75,-496.95 462.75,-464.95 609.25,-464.95 609.25,-496.95"/>
<text text-anchor="start" x="470.75" y="-483.45" font-family="Helvetica,sans-Serif" font-size="10.00">LSM1x0A_LoRaWAN::restore</text>
<text text-anchor="middle" x="536" y="-471.45" font-family="Helvetica,sans-Serif" font-size="10.00">Config</text>
</a>
</g>
</g>
<!-- Node3&#45;&gt;Node12 -->
<g id="edge16_Node000003_Node000012" class="edge">
<title>Node3&#45;&gt;Node12</title>
<g id="a_edge16_Node000003_Node000012"><a xlink:title=" ">
<path fill="none" stroke="#63b8ff" d="M374.86,-906.69C399.76,-840.5 493.67,-590.84 524.86,-507.91"/>
<polygon fill="#63b8ff" stroke="#63b8ff" points="528.05,-509.36 528.3,-498.77 521.5,-506.9 528.05,-509.36"/>
</a>
</g>
</g>
<!-- Node29 -->
<g id="Node000029" class="node">
<title>Node29</title>
<g id="a_Node000029"><a xlink:href="../../d5/d72/classLSM1x0A__LoRaWAN.html#ace4b04396f1de1f4a54f513f5f378db7" target="_top" xlink:title="Manually overrides the internal joined state tracker.">
<polygon fill="white" stroke="#666666" points="615.25,-976.95 456.75,-976.95 456.75,-956.95 615.25,-956.95 615.25,-976.95"/>
<text text-anchor="middle" x="536" y="-963.45" font-family="Helvetica,sans-Serif" font-size="10.00">LSM1x0A_LoRaWAN::setJoined</text>
</a>
</g>
</g>
<!-- Node3&#45;&gt;Node29 -->
<g id="edge50_Node000003_Node000029" class="edge">
<title>Node3&#45;&gt;Node29</title>
<g id="a_edge50_Node000003_Node000029"><a xlink:title=" ">
<path fill="none" stroke="#63b8ff" d="M421.24,-938.22C432.91,-941.51 445.23,-944.91 456.75,-947.95 464.11,-949.89 471.87,-951.86 479.54,-953.76"/>
<polygon fill="#63b8ff" stroke="#63b8ff" points="478.63,-957.14 489.18,-956.13 480.3,-950.35 478.63,-957.14"/>
</a>
</g>
</g>
<!-- Node30 -->
<g id="Node000030" class="node">
<title>Node30</title>
<g id="a_Node000030"><a xlink:href="../../d8/d92/classLSM1x0A__Controller.html#a11ad21cb5ca33ec51346764a23bd485e" target="_top" xlink:title="Performs a software reset (ATZ Command).">
<polygon fill="white" stroke="#666666" points="589,-1102.95 483,-1102.95 483,-1070.95 589,-1070.95 589,-1102.95"/>
<text text-anchor="start" x="491" y="-1089.45" font-family="Helvetica,sans-Serif" font-size="10.00">LSM1x0A_Controller</text>
<text text-anchor="middle" x="536" y="-1077.45" font-family="Helvetica,sans-Serif" font-size="10.00">::softwareReset</text>
</a>
</g>
</g>
<!-- Node3&#45;&gt;Node30 -->
<g id="edge51_Node000003_Node000030" class="edge">
<title>Node3&#45;&gt;Node30</title>
<g id="a_edge51_Node000003_Node000030"><a xlink:title=" ">
<path fill="none" stroke="#63b8ff" d="M375.45,-939.34C387.64,-967.25 416,-1024.13 456.75,-1056.95 461.57,-1060.83 466.94,-1064.24 472.55,-1067.25"/>
<polygon fill="#63b8ff" stroke="#63b8ff" points="470.96,-1070.36 481.48,-1071.55 474,-1064.06 470.96,-1070.36"/>
</a>
</g>
</g>
<!-- Node6 -->
<g id="Node000006" class="node">
<title>Node6</title>
<g id="a_Node000006"><a xlink:href="../../d6/d3c/classLSM1x0A__AtParser.html#ad2839120da13e56132b95019419be1e5" target="_top" xlink:title="Waits for an event (like BOOTALERT) without sending any command. Useful for hardware reset where the ...">
<polygon fill="white" stroke="#666666" points="818.38,-938.95 677.88,-938.95 677.88,-906.95 818.38,-906.95 818.38,-938.95"/>
<text text-anchor="start" x="685.88" y="-925.45" font-family="Helvetica,sans-Serif" font-size="10.00">LSM1x0A_AtParser::waitFor</text>
<text text-anchor="middle" x="748.12" y="-913.45" font-family="Helvetica,sans-Serif" font-size="10.00">Event</text>
</a>
</g>
</g>
<!-- Node5&#45;&gt;Node6 -->
<g id="edge5_Node000005_Node000006" class="edge">
<title>Node5&#45;&gt;Node6</title>
<g id="a_edge5_Node000005_Node000006"><a xlink:title=" ">
<path fill="none" stroke="#63b8ff" d="M589.48,-922.95C612.67,-922.95 640.47,-922.95 666.21,-922.95"/>
<polygon fill="#63b8ff" stroke="#63b8ff" points="665.97,-926.45 675.97,-922.95 665.97,-919.45 665.97,-926.45"/>
</a>
</g>
</g>
<!-- Node9 -->
<g id="Node000009" class="node">
<title>Node9</title>
<g id="a_Node000009"><a xlink:href="../../d5/d72/classLSM1x0A__LoRaWAN.html#a59f781f3cfd30c11cd3973bcb10a7baa" target="_top" xlink:title="Initiates a LoRaWAN Network Join procedure. This is a blocking function until the module fires an eve...">
<polygon fill="white" stroke="#666666" points="813.88,-844.95 682.38,-844.95 682.38,-824.95 813.88,-824.95 813.88,-844.95"/>
<text text-anchor="middle" x="748.12" y="-831.45" font-family="Helvetica,sans-Serif" font-size="10.00">LSM1x0A_LoRaWAN::join</text>
</a>
</g>
</g>
<!-- Node8&#45;&gt;Node9 -->
<g id="edge8_Node000008_Node000009" class="edge">
<title>Node8&#45;&gt;Node9</title>
<g id="a_edge8_Node000008_Node000009"><a xlink:title=" ">
<path fill="none" stroke="#63b8ff" d="M610.79,-834.95C630.16,-834.95 651.1,-834.95 670.61,-834.95"/>
<polygon fill="#63b8ff" stroke="#63b8ff" points="670.4,-838.45 680.4,-834.95 670.4,-831.45 670.4,-838.45"/>
</a>
</g>
</g>
<!-- Node9&#45;&gt;Node2 -->
<g id="edge11_Node000009_Node000002" class="edge">
<title>Node9&#45;&gt;Node2</title>
<g id="a_edge11_Node000009_Node000002"><a xlink:title=" ">
<path fill="none" stroke="#63b8ff" d="M693.9,-824.5C635.27,-812.53 538.48,-791.38 456.75,-766.95 392.36,-747.69 362.48,-762.27 314.75,-714.95 256.48,-657.18 236.28,-557.13 229.7,-508.74"/>
<polygon fill="#63b8ff" stroke="#63b8ff" points="233.18,-508.33 228.47,-498.84 226.23,-509.2 233.18,-508.33"/>
</a>
</g>
</g>
<!-- Node9&#45;&gt;Node3 -->
<g id="edge10_Node000009_Node000003" class="edge">
<title>Node9&#45;&gt;Node3</title>
<g id="a_edge10_Node000009_Node000003"><a xlink:title=" ">
<path fill="none" stroke="#63b8ff" d="M693.9,-845.44C635.49,-857.21 539.07,-877.35 456.75,-897.95 448.81,-899.94 440.49,-902.14 432.28,-904.39"/>
<polygon fill="#63b8ff" stroke="#63b8ff" points="431.34,-901.01 422.65,-907.06 433.22,-907.76 431.34,-901.01"/>
</a>
</g>
</g>
<!-- Node9&#45;&gt;Node4 -->
<g id="edge9_Node000009_Node000004" class="edge">
<title>Node9&#45;&gt;Node4</title>
<g id="a_edge9_Node000009_Node000004"><a xlink:title=" ">
<path fill="none" stroke="#63b8ff" d="M771.19,-845.4C807.91,-862.79 882.23,-898 930.26,-920.75"/>
<polygon fill="#63b8ff" stroke="#63b8ff" points="928.47,-923.78 939.01,-924.9 931.47,-917.45 928.47,-923.78"/>
</a>
</g>
</g>
<!-- Node10 -->
<g id="Node000010" class="node">
<title>Node10</title>
<g id="a_Node000010"><a xlink:href="../../d5/d72/classLSM1x0A__LoRaWAN.html#a3fdd1ac318a5ad2559323e5d57e36a5e" target="_top" xlink:title="Enables or disables specific sub&#45;bands for regions supporting Channel Masks (e.g.,...">
<polygon fill="white" stroke="#666666" points="1071,-654.95 881,-654.95 881,-634.95 1071,-634.95 1071,-654.95"/>
<text text-anchor="middle" x="976" y="-641.45" font-family="Helvetica,sans-Serif" font-size="10.00">LSM1x0A_LoRaWAN::setChannelMask</text>
</a>
</g>
</g>
<!-- Node9&#45;&gt;Node10 -->
<g id="edge12_Node000009_Node000010" class="edge">
<title>Node9&#45;&gt;Node10</title>
<g id="a_edge12_Node000009_Node000010"><a xlink:title=" ">
<path fill="none" stroke="#63b8ff" d="M808.43,-824.45C821.15,-820.55 834.05,-815.22 845,-807.95 901.87,-770.19 945.5,-699.61 964.54,-665.05"/>
<polygon fill="#63b8ff" stroke="#63b8ff" points="967.47,-666.98 969.12,-656.52 961.3,-663.67 967.47,-666.98"/>
</a>
</g>
</g>
<!-- Node11 -->
<g id="Node000011" class="node">
<title>Node11</title>
<g id="a_Node000011"><a xlink:href="../../d8/d92/classLSM1x0A__Controller.html#a62476e30e50c7fe120aeb8df4b828675" target="_top" xlink:title="Synchronously/blockingly waits for an asynchronous event to occur. Useful for wrapping commands like ...">
<polygon fill="white" stroke="#666666" points="1029,-850.95 923,-850.95 923,-818.95 1029,-818.95 1029,-850.95"/>
<text text-anchor="start" x="931" y="-837.45" font-family="Helvetica,sans-Serif" font-size="10.00">LSM1x0A_Controller</text>
<text text-anchor="middle" x="976" y="-825.45" font-family="Helvetica,sans-Serif" font-size="10.00">::waitForEvent</text>
</a>
</g>
</g>
<!-- Node9&#45;&gt;Node11 -->
<g id="edge15_Node000009_Node000011" class="edge">
<title>Node9&#45;&gt;Node11</title>
<g id="a_edge15_Node000009_Node000011"><a xlink:title=" ">
<path fill="none" stroke="#63b8ff" d="M814.15,-834.95C844.66,-834.95 880.9,-834.95 911.24,-834.95"/>
<polygon fill="#63b8ff" stroke="#63b8ff" points="911.05,-838.45 921.05,-834.95 911.05,-831.45 911.05,-838.45"/>
</a>
</g>
</g>
<!-- Node10&#45;&gt;Node2 -->
<g id="edge14_Node000010_Node000002" class="edge">
<title>Node10&#45;&gt;Node2</title>
<g id="a_edge14_Node000010_Node000002"><a xlink:title=" ">
<path fill="none" stroke="#63b8ff" d="M974.22,-634.73C968.77,-566.01 933.85,-172.04 845,-101.95 659.84,44.11 495.9,29.06 314.75,-121.95 263.17,-164.95 237.11,-377.61 229.32,-453.76"/>
<polygon fill="#63b8ff" stroke="#63b8ff" points="225.88,-452.96 228.37,-463.26 232.84,-453.65 225.88,-452.96"/>
</a>
</g>
</g>
<!-- Node10&#45;&gt;Node7 -->
<g id="edge13_Node000010_Node000007" class="edge">
<title>Node10&#45;&gt;Node7</title>
<g id="a_edge13_Node000010_Node000007"><a xlink:title=" ">
<path fill="none" stroke="#63b8ff" d="M984.8,-655.28C1015.34,-695.76 1127.17,-843.95 1167.57,-897.49"/>
<polygon fill="#63b8ff" stroke="#63b8ff" points="1164.72,-899.52 1173.54,-905.4 1170.31,-895.31 1164.72,-899.52"/>
</a>
</g>
</g>
<!-- Node12&#45;&gt;Node10 -->
<g id="edge21_Node000012_Node000010" class="edge">
<title>Node12&#45;&gt;Node10</title>
<g id="a_edge21_Node000012_Node000010"><a xlink:title=" ">
<path fill="none" stroke="#63b8ff" d="M609.49,-484.29C687.15,-488.81 804.68,-498.64 845,-517.95 896.93,-542.82 940.88,-596.76 961.84,-625.7"/>
<polygon fill="#63b8ff" stroke="#63b8ff" points="958.77,-627.41 967.4,-633.56 964.49,-623.37 958.77,-627.41"/>
</a>
</g>
</g>
<!-- Node13 -->
<g id="Node000013" class="node">
<title>Node13</title>
<g id="a_Node000013"><a xlink:href="../../d5/d72/classLSM1x0A__LoRaWAN.html#af0baa3db4c7fab580d6b19a9e92472f6" target="_top" xlink:title="Enables or disables Adaptive Data Rate (ADR).">
<polygon fill="white" stroke="#666666" points="824,-798.95 672.25,-798.95 672.25,-778.95 824,-778.95 824,-798.95"/>
<text text-anchor="middle" x="748.12" y="-785.45" font-family="Helvetica,sans-Serif" font-size="10.00">LSM1x0A_LoRaWAN::setADR</text>
</a>
</g>
</g>
<!-- Node12&#45;&gt;Node13 -->
<g id="edge17_Node000012_Node000013" class="edge">
<title>Node12&#45;&gt;Node13</title>
<g id="a_edge17_Node000012_Node000013"><a xlink:title=" ">
<path fill="none" stroke="#63b8ff" d="M538.18,-497.13C542.7,-546.58 563.4,-696.7 651.25,-769.95 654.5,-772.66 658.04,-775.03 661.76,-777.08"/>
<polygon fill="#63b8ff" stroke="#63b8ff" points="660.09,-780.17 670.63,-781.21 663.04,-773.82 660.09,-780.17"/>
</a>
</g>
</g>
<!-- Node14 -->
<g id="Node000014" class="node">
<title>Node14</title>
<g id="a_Node000014"><a xlink:href="../../d5/d72/classLSM1x0A__LoRaWAN.html#a5365ed1596eb84ebf1e3b33b4a10c788" target="_top" xlink:title="Sets the LoRaWAN operational frequency band.">
<polygon fill="white" stroke="#666666" points="824.38,-760.95 671.88,-760.95 671.88,-740.95 824.38,-740.95 824.38,-760.95"/>
<text text-anchor="middle" x="748.12" y="-747.45" font-family="Helvetica,sans-Serif" font-size="10.00">LSM1x0A_LoRaWAN::setBand</text>
</a>
</g>
</g>
<!-- Node12&#45;&gt;Node14 -->
<g id="edge19_Node000012_Node000014" class="edge">
<title>Node12&#45;&gt;Node14</title>
<g id="a_edge19_Node000012_Node000014"><a xlink:title=" ">
<path fill="none" stroke="#63b8ff" d="M539.26,-497.27C546.42,-542.46 572.98,-669.99 651.25,-731.95 654.41,-734.45 657.8,-736.64 661.36,-738.58"/>
<polygon fill="#63b8ff" stroke="#63b8ff" points="659.85,-741.74 670.4,-742.72 662.77,-735.37 659.85,-741.74"/>
</a>
</g>
</g>
<!-- Node15 -->
<g id="Node000015" class="node">
<title>Node15</title>
<g id="a_Node000015"><a xlink:href="../../d5/d72/classLSM1x0A__LoRaWAN.html#a9d9285c43414337a0ccb3a6cd7ca06e6" target="_top" xlink:title="Configures the number of retries for Confirmed uplinks.">
<polygon fill="white" stroke="#666666" points="830.38,-722.95 665.88,-722.95 665.88,-690.95 830.38,-690.95 830.38,-722.95"/>
<text text-anchor="start" x="673.88" y="-709.45" font-family="Helvetica,sans-Serif" font-size="10.00">LSM1x0A_LoRaWAN::setConfirm</text>
<text text-anchor="middle" x="748.12" y="-697.45" font-family="Helvetica,sans-Serif" font-size="10.00">Retry</text>
</a>
</g>
</g>
<!-- Node12&#45;&gt;Node15 -->
<g id="edge22_Node000012_Node000015" class="edge">
<title>Node12&#45;&gt;Node15</title>
<g id="a_edge22_Node000012_Node000015"><a xlink:title=" ">
<path fill="none" stroke="#63b8ff" d="M541.52,-497.42C552.98,-535.98 586.92,-632.59 651.25,-681.95 652.61,-682.99 654.02,-684 655.46,-684.96"/>
<polygon fill="#63b8ff" stroke="#63b8ff" points="653.68,-687.98 664.09,-689.96 657.19,-681.92 653.68,-687.98"/>
</a>
</g>
</g>
<!-- Node16 -->
<g id="Node000016" class="node">
<title>Node16</title>
<g id="a_Node000016"><a xlink:href="../../d5/d72/classLSM1x0A__LoRaWAN.html#a56345ceeafa0b9059d6de4e69eddc82e" target="_top" xlink:title="Sets the Data Rate (DR) of the module.">
<polygon fill="white" stroke="#666666" points="834.12,-672.95 662.12,-672.95 662.12,-652.95 834.12,-652.95 834.12,-672.95"/>
<text text-anchor="middle" x="748.12" y="-659.45" font-family="Helvetica,sans-Serif" font-size="10.00">LSM1x0A_LoRaWAN::setDataRate</text>
</a>
</g>
</g>
<!-- Node12&#45;&gt;Node16 -->
<g id="edge24_Node000012_Node000016" class="edge">
<title>Node12&#45;&gt;Node16</title>
<g id="a_edge24_Node000012_Node000016"><a xlink:title=" ">
<path fill="none" stroke="#63b8ff" d="M543.43,-497.26C557.49,-530.68 594.36,-606.87 651.25,-643.95 653.39,-645.34 655.6,-646.63 657.88,-647.84"/>
<polygon fill="#63b8ff" stroke="#63b8ff" points="656.3,-650.96 666.85,-651.92 659.2,-644.59 656.3,-650.96"/>
</a>
</g>
</g>
<!-- Node17 -->
<g id="Node000017" class="node">
<title>Node17</title>
<g id="a_Node000017"><a xlink:href="../../d5/d72/classLSM1x0A__LoRaWAN.html#a8494083816ab885cb07fc3b08de029f4" target="_top" xlink:title="Sets the LoRaWAN Device Address (DevAddr) for ABP mode.">
<polygon fill="white" stroke="#666666" points="832.25,-634.95 664,-634.95 664,-614.95 832.25,-614.95 832.25,-634.95"/>
<text text-anchor="middle" x="748.12" y="-621.45" font-family="Helvetica,sans-Serif" font-size="10.00">LSM1x0A_LoRaWAN::setDevAddr</text>
</a>
</g>
</g>
<!-- Node12&#45;&gt;Node17 -->
<g id="edge26_Node000012_Node000017" class="edge">
<title>Node12&#45;&gt;Node17</title>
<g id="a_edge26_Node000012_Node000017"><a xlink:title=" ">
<path fill="none" stroke="#63b8ff" d="M546.99,-497.41C564.47,-524.7 603.35,-578.97 651.25,-605.95 654.09,-607.55 657.05,-609.02 660.08,-610.36"/>
<polygon fill="#63b8ff" stroke="#63b8ff" points="658.67,-613.57 669.26,-613.93 661.21,-607.04 658.67,-613.57"/>
</a>
</g>
</g>
<!-- Node18 -->
<g id="Node000018" class="node">
<title>Node18</title>
<g id="a_Node000018"><a xlink:href="../../d5/d72/classLSM1x0A__LoRaWAN.html#ad320634e52d7ea907043cc50dd37c5b0" target="_top" xlink:title="Sets the LoRaWAN Device EUI (DevEUI).">
<polygon fill="white" stroke="#666666" points="830.75,-596.95 665.5,-596.95 665.5,-576.95 830.75,-576.95 830.75,-596.95"/>
<text text-anchor="middle" x="748.12" y="-583.45" font-family="Helvetica,sans-Serif" font-size="10.00">LSM1x0A_LoRaWAN::setDevEUI</text>
</a>
</g>
</g>
<!-- Node12&#45;&gt;Node18 -->
<g id="edge28_Node000012_Node000018" class="edge">
<title>Node12&#45;&gt;Node18</title>
<g id="a_edge28_Node000012_Node000018"><a xlink:title=" ">
<path fill="none" stroke="#63b8ff" d="M553.2,-497.21C574.02,-517.12 612.15,-550.34 651.25,-567.95 655.51,-569.87 659.97,-571.6 664.53,-573.15"/>
<polygon fill="#63b8ff" stroke="#63b8ff" points="663.28,-576.43 673.87,-576.02 665.34,-569.74 663.28,-576.43"/>
</a>
</g>
</g>
<!-- Node19 -->
<g id="Node000019" class="node">
<title>Node19</title>
<g id="a_Node000019"><a xlink:href="../../d5/d72/classLSM1x0A__LoRaWAN.html#a031023b0d2dd5db3c51c2db6ae7801cc" target="_top" xlink:title="Enables or disables the Duty Cycle limitation (EU regions mostly).">
<polygon fill="white" stroke="#666666" points="823.62,-558.95 672.62,-558.95 672.62,-526.95 823.62,-526.95 823.62,-558.95"/>
<text text-anchor="start" x="680.62" y="-545.45" font-family="Helvetica,sans-Serif" font-size="10.00">LSM1x0A_LoRaWAN::setDuty</text>
<text text-anchor="middle" x="748.12" y="-533.45" font-family="Helvetica,sans-Serif" font-size="10.00">Cycle</text>
</a>
</g>
</g>
<!-- Node12&#45;&gt;Node19 -->
<g id="edge30_Node000012_Node000019" class="edge">
<title>Node12&#45;&gt;Node19</title>
<g id="a_edge30_Node000012_Node000019"><a xlink:title=" ">
<path fill="none" stroke="#63b8ff" d="M592.76,-497.4C619.7,-505.35 652.23,-514.95 680.48,-523.28"/>
<polygon fill="#63b8ff" stroke="#63b8ff" points="679.44,-526.62 690.02,-526.1 681.42,-519.91 679.44,-526.62"/>
</a>
</g>
</g>
<!-- Node20 -->
<g id="Node000020" class="node">
<title>Node20</title>
<g id="a_Node000020"><a xlink:href="../../d5/d72/classLSM1x0A__LoRaWAN.html#a6b179d5825c49af0f391dfc539912f64" target="_top" xlink:title="Sets the delay for the Join1 receive window.">
<polygon fill="white" stroke="#666666" points="824.75,-470.95 671.5,-470.95 671.5,-438.95 824.75,-438.95 824.75,-470.95"/>
<text text-anchor="start" x="679.5" y="-457.45" font-family="Helvetica,sans-Serif" font-size="10.00">LSM1x0A_LoRaWAN::setJoin1</text>
<text text-anchor="middle" x="748.12" y="-445.45" font-family="Helvetica,sans-Serif" font-size="10.00">Delay</text>
</a>
</g>
</g>
<!-- Node12&#45;&gt;Node20 -->
<g id="edge32_Node000012_Node000020" class="edge">
<title>Node12&#45;&gt;Node20</title>
<g id="a_edge32_Node000012_Node000020"><a xlink:title=" ">
<path fill="none" stroke="#63b8ff" d="M609.61,-471.96C625.96,-469.94 643.47,-467.77 660.33,-465.69"/>
<polygon fill="#63b8ff" stroke="#63b8ff" points="660.3,-469.22 669.8,-464.52 659.44,-462.27 660.3,-469.22"/>
</a>
</g>
</g>
<!-- Node21 -->
<g id="Node000021" class="node">
<title>Node21</title>
<g id="a_Node000021"><a xlink:href="../../d5/d72/classLSM1x0A__LoRaWAN.html#a4545d0caad41558cdb9bae8286b104d8" target="_top" xlink:title="Sets the delay for the Join2 receive window.">
<polygon fill="white" stroke="#666666" points="824.75,-420.95 671.5,-420.95 671.5,-388.95 824.75,-388.95 824.75,-420.95"/>
<text text-anchor="start" x="679.5" y="-407.45" font-family="Helvetica,sans-Serif" font-size="10.00">LSM1x0A_LoRaWAN::setJoin2</text>
<text text-anchor="middle" x="748.12" y="-395.45" font-family="Helvetica,sans-Serif" font-size="10.00">Delay</text>
</a>
</g>
</g>
<!-- Node12&#45;&gt;Node21 -->
<g id="edge34_Node000012_Node000021" class="edge">
<title>Node12&#45;&gt;Node21</title>
<g id="a_edge34_Node000012_Node000021"><a xlink:title=" ">
<path fill="none" stroke="#63b8ff" d="M569.91,-464.52C592.42,-453.71 623.17,-439.8 651.25,-429.95 656.54,-428.09 662.04,-426.3 667.61,-424.59"/>
<polygon fill="#63b8ff" stroke="#63b8ff" points="668.32,-428.03 676.91,-421.84 666.33,-421.32 668.32,-428.03"/>
</a>
</g>
</g>
<!-- Node22 -->
<g id="Node000022" class="node">
<title>Node22</title>
<g id="a_Node000022"><a xlink:href="../../d5/d72/classLSM1x0A__LoRaWAN.html#a06bd50723ec1eb7e144c9141b2ec86fc" target="_top" xlink:title="Sets the LoRaWAN Network ID (NetID).">
<polygon fill="white" stroke="#666666" points="828.5,-370.95 667.75,-370.95 667.75,-350.95 828.5,-350.95 828.5,-370.95"/>
<text text-anchor="middle" x="748.12" y="-357.45" font-family="Helvetica,sans-Serif" font-size="10.00">LSM1x0A_LoRaWAN::setNwkID</text>
</a>
</g>
</g>
<!-- Node12&#45;&gt;Node22 -->
<g id="edge36_Node000012_Node000022" class="edge">
<title>Node12&#45;&gt;Node22</title>
<g id="a_edge36_Node000012_Node000022"><a xlink:title=" ">
<path fill="none" stroke="#63b8ff" d="M550.26,-464.74C569.85,-441.98 608.78,-400.98 651.25,-379.95 654.93,-378.13 658.76,-376.48 662.7,-374.99"/>
<polygon fill="#63b8ff" stroke="#63b8ff" points="663.51,-378.41 671.86,-371.9 661.27,-371.78 663.51,-378.41"/>
</a>
</g>
</g>
<!-- Node23 -->
<g id="Node000023" class="node">
<title>Node23</title>
<g id="a_Node000023"><a xlink:href="../../d5/d72/classLSM1x0A__LoRaWAN.html#aa70ada64d28ecca216bb62268e502adf" target="_top" xlink:title="Sets the delay for the RX1 receive window.">
<polygon fill="white" stroke="#666666" points="834.88,-332.95 661.38,-332.95 661.38,-312.95 834.88,-312.95 834.88,-332.95"/>
<text text-anchor="middle" x="748.12" y="-319.45" font-family="Helvetica,sans-Serif" font-size="10.00">LSM1x0A_LoRaWAN::setRx1Delay</text>
</a>
</g>
</g>
<!-- Node12&#45;&gt;Node23 -->
<g id="edge38_Node000012_Node000023" class="edge">
<title>Node12&#45;&gt;Node23</title>
<g id="a_edge38_Node000012_Node000023"><a xlink:title=" ">
<path fill="none" stroke="#63b8ff" d="M545.45,-464.54C561.65,-434.88 600.05,-372.58 651.25,-341.95 653.73,-340.46 656.31,-339.09 658.96,-337.82"/>
<polygon fill="#63b8ff" stroke="#63b8ff" points="660.21,-341.09 668.09,-334.02 657.51,-334.63 660.21,-341.09"/>
</a>
</g>
</g>
<!-- Node24 -->
<g id="Node000024" class="node">
<title>Node24</title>
<g id="a_Node000024"><a xlink:href="../../d5/d72/classLSM1x0A__LoRaWAN.html#a2cf4eff0181b6107d082bccefa24217b" target="_top" xlink:title="Sets the Data Rate (DR) specifically for the RX2 window.">
<polygon fill="white" stroke="#666666" points="843.12,-294.95 653.12,-294.95 653.12,-274.95 843.12,-274.95 843.12,-294.95"/>
<text text-anchor="middle" x="748.12" y="-281.45" font-family="Helvetica,sans-Serif" font-size="10.00">LSM1x0A_LoRaWAN::setRx2DataRate</text>
</a>
</g>
</g>
<!-- Node12&#45;&gt;Node24 -->
<g id="edge40_Node000012_Node000024" class="edge">
<title>Node12&#45;&gt;Node24</title>
<g id="a_edge40_Node000012_Node000024"><a xlink:title=" ">
<path fill="none" stroke="#63b8ff" d="M542.52,-464.61C555.4,-429.11 591.04,-344.84 651.25,-303.95 653.22,-302.61 655.27,-301.36 657.38,-300.19"/>
<polygon fill="#63b8ff" stroke="#63b8ff" points="658.71,-303.43 666.23,-295.97 655.7,-297.11 658.71,-303.43"/>
</a>
</g>
</g>
<!-- Node25 -->
<g id="Node000025" class="node">
<title>Node25</title>
<g id="a_Node000025"><a xlink:href="../../d5/d72/classLSM1x0A__LoRaWAN.html#a42d2137b475b57e19d891a5f1ac93221" target="_top" xlink:title="Sets the delay for the RX2 receive window.">
<polygon fill="white" stroke="#666666" points="834.88,-256.95 661.38,-256.95 661.38,-236.95 834.88,-236.95 834.88,-256.95"/>
<text text-anchor="middle" x="748.12" y="-243.45" font-family="Helvetica,sans-Serif" font-size="10.00">LSM1x0A_LoRaWAN::setRx2Delay</text>
</a>
</g>
</g>
<!-- Node12&#45;&gt;Node25 -->
<g id="edge42_Node000012_Node000025" class="edge">
<title>Node12&#45;&gt;Node25</title>
<g id="a_edge42_Node000012_Node000025"><a xlink:title=" ">
<path fill="none" stroke="#63b8ff" d="M540.59,-464.6C550.43,-423.89 581.86,-317.5 651.25,-265.95 652.84,-264.76 654.49,-263.65 656.18,-262.6"/>
<polygon fill="#63b8ff" stroke="#63b8ff" points="657.76,-265.72 664.98,-257.97 654.5,-259.53 657.76,-265.72"/>
</a>
</g>
</g>
<!-- Node26 -->
<g id="Node000026" class="node">
<title>Node26</title>
<g id="a_Node000026"><a xlink:href="../../d5/d72/classLSM1x0A__LoRaWAN.html#a689f7dfda1dfeae11ea397c2ddf2ad37" target="_top" xlink:title="Sets the precise frequency for the RX2 window.">
<polygon fill="white" stroke="#666666" points="845,-218.95 651.25,-218.95 651.25,-198.95 845,-198.95 845,-218.95"/>
<text text-anchor="middle" x="748.12" y="-205.45" font-family="Helvetica,sans-Serif" font-size="10.00">LSM1x0A_LoRaWAN::setRx2Frequency</text>
</a>
</g>
</g>
<!-- Node12&#45;&gt;Node26 -->
<g id="edge44_Node000012_Node000026" class="edge">
<title>Node12&#45;&gt;Node26</title>
<g id="a_edge44_Node000012_Node000026"><a xlink:title=" ">
<path fill="none" stroke="#63b8ff" d="M539.21,-464.5C546.26,-418.96 572.56,-290.44 651.25,-227.95 652.58,-226.89 653.95,-225.89 655.36,-224.94"/>
<polygon fill="#63b8ff" stroke="#63b8ff" points="656.86,-228.11 663.82,-220.12 653.4,-222.03 656.86,-228.11"/>
</a>
</g>
</g>
<!-- Node27 -->
<g id="Node000027" class="node">
<title>Node27</title>
<g id="a_Node000027"><a xlink:href="../../d5/d72/classLSM1x0A__LoRaWAN.html#a1df10d7ae6bf45b537d28d3d5c4b88d7" target="_top" xlink:title="Sets the transmission power index.">
<polygon fill="white" stroke="#666666" points="832.62,-180.95 663.62,-180.95 663.62,-160.95 832.62,-160.95 832.62,-180.95"/>
<text text-anchor="middle" x="748.12" y="-167.45" font-family="Helvetica,sans-Serif" font-size="10.00">LSM1x0A_LoRaWAN::setTxPower</text>
</a>
</g>
</g>
<!-- Node12&#45;&gt;Node27 -->
<g id="edge46_Node000012_Node000027" class="edge">
<title>Node12&#45;&gt;Node27</title>
<g id="a_edge46_Node000012_Node000027"><a xlink:title=" ">
<path fill="none" stroke="#63b8ff" d="M538.14,-464.65C542.55,-414.88 562.96,-263.73 651.25,-189.95 652.39,-189 653.55,-188.09 654.75,-187.23"/>
<polygon fill="#63b8ff" stroke="#63b8ff" points="656.43,-190.3 663.18,-182.14 652.81,-184.31 656.43,-190.3"/>
</a>
</g>
</g>
<!-- Node28 -->
<g id="Node000028" class="node">
<title>Node28</title>
<g id="a_Node000028"><a xlink:href="../../d5/d72/classLSM1x0A__LoRaWAN.html#a059fd6a9356c4ecadd5a98294da5952d" target="_top" xlink:title="Configures the number of repetitions for Unconfirmed uplinks.">
<polygon fill="white" stroke="#666666" points="835.62,-142.95 660.62,-142.95 660.62,-110.95 835.62,-110.95 835.62,-142.95"/>
<text text-anchor="start" x="668.62" y="-129.45" font-family="Helvetica,sans-Serif" font-size="10.00">LSM1x0A_LoRaWAN::setUnconfirm</text>
<text text-anchor="middle" x="748.12" y="-117.45" font-family="Helvetica,sans-Serif" font-size="10.00">Retry</text>
</a>
</g>
</g>
<!-- Node12&#45;&gt;Node28 -->
<g id="edge48_Node000012_Node000028" class="edge">
<title>Node12&#45;&gt;Node28</title>
<g id="a_edge48_Node000012_Node000028"><a xlink:title=" ">
<path fill="none" stroke="#63b8ff" d="M537.52,-464.75C540.15,-411.46 555.98,-239.96 651.25,-151.95 652.02,-151.23 652.82,-150.54 653.62,-149.86"/>
<polygon fill="#63b8ff" stroke="#63b8ff" points="655.47,-152.84 661.62,-144.21 651.44,-147.12 655.47,-152.84"/>
</a>
</g>
</g>
<!-- Node13&#45;&gt;Node2 -->
<g id="edge18_Node000013_Node000002" class="edge">
<title>Node13&#45;&gt;Node2</title>
<g id="a_edge18_Node000013_Node000002"><a xlink:title=" ">
<path fill="none" stroke="#63b8ff" d="M673.11,-778.49C563.89,-761.69 366.83,-725.64 314.75,-677.95 264.1,-631.57 240.87,-550.58 231.75,-508.34"/>
<polygon fill="#63b8ff" stroke="#63b8ff" points="235.23,-507.86 229.8,-498.76 228.37,-509.26 235.23,-507.86"/>
</a>
</g>
</g>
<!-- Node14&#45;&gt;Node2 -->
<g id="edge20_Node000014_Node000002" class="edge">
<title>Node14&#45;&gt;Node2</title>
<g id="a_edge20_Node000014_Node000002"><a xlink:title=" ">
<path fill="none" stroke="#63b8ff" d="M675.48,-740.46C567.42,-723.42 369.51,-687.03 314.75,-641.95 271.48,-606.32 246.12,-543.61 234.49,-507.88"/>
<polygon fill="#63b8ff" stroke="#63b8ff" points="237.96,-507.24 231.64,-498.74 231.27,-509.32 237.96,-507.24"/>
</a>
</g>
</g>
<!-- Node15&#45;&gt;Node2 -->
<g id="edge23_Node000015_Node000002" class="edge">
<title>Node15&#45;&gt;Node2</title>
<g id="a_edge23_Node000015_Node000002"><a xlink:title=" ">
<path fill="none" stroke="#63b8ff" d="M665.49,-696.13C556.08,-680.29 369.32,-648.15 314.75,-606.95 279.63,-580.43 253.24,-535.78 238.9,-507.37"/>
<polygon fill="#63b8ff" stroke="#63b8ff" points="242.21,-506.16 234.67,-498.71 235.92,-509.23 242.21,-506.16"/>
</a>
</g>
</g>
<!-- Node16&#45;&gt;Node2 -->
<g id="edge25_Node000016_Node000002" class="edge">
<title>Node16&#45;&gt;Node2</title>
<g id="a_edge25_Node000016_Node000002"><a xlink:title=" ">
<path fill="none" stroke="#63b8ff" d="M662.02,-660.63C570.31,-654.66 422.96,-634.71 314.75,-569.95 287.07,-553.38 261.89,-526.09 245.63,-506.09"/>
<polygon fill="#63b8ff" stroke="#63b8ff" points="248.49,-504.06 239.54,-498.39 243,-508.41 248.49,-504.06"/>
</a>
</g>
</g>
<!-- Node17&#45;&gt;Node2 -->
<g id="edge27_Node000017_Node000002" class="edge">
<title>Node17&#45;&gt;Node2</title>
<g id="a_edge27_Node000017_Node000002"><a xlink:title=" ">
<path fill="none" stroke="#63b8ff" d="M663.77,-618.09C574.51,-608.52 430.15,-586.49 314.75,-537.95 293.99,-529.22 272.74,-515.61 256.33,-503.88"/>
<polygon fill="#63b8ff" stroke="#63b8ff" points="258.62,-501.22 248.48,-498.14 254.49,-506.87 258.62,-501.22"/>
</a>
</g>
</g>
<!-- Node18&#45;&gt;Node2 -->
<g id="edge29_Node000018_Node000002" class="edge">
<title>Node18&#45;&gt;Node2</title>
<g id="a_edge29_Node000018_Node000002"><a xlink:title=" ">
<path fill="none" stroke="#63b8ff" d="M665.37,-576.91C577.78,-565.2 435.09,-543.35 314.75,-511.95 303.23,-508.94 291.07,-505.11 279.59,-501.17"/>
<polygon fill="#63b8ff" stroke="#63b8ff" points="280.85,-497.9 270.26,-497.88 278.53,-504.5 280.85,-497.9"/>
</a>
</g>
</g>
<!-- Node19&#45;&gt;Node2 -->
<g id="edge31_Node000019_Node000002" class="edge">
<title>Node19&#45;&gt;Node2</title>
<g id="a_edge31_Node000019_Node000002"><a xlink:title=" ">
<path fill="none" stroke="#63b8ff" d="M672.39,-534.04C569.71,-521.81 386.81,-500.02 290.35,-488.53"/>
<polygon fill="#63b8ff" stroke="#63b8ff" points="290.87,-485.06 280.53,-487.36 290.05,-492.01 290.87,-485.06"/>
</a>
</g>
</g>
<!-- Node20&#45;&gt;Node2 -->
<g id="edge33_Node000020_Node000002" class="edge">
<title>Node20&#45;&gt;Node2</title>
<g id="a_edge33_Node000020_Node000002"><a xlink:title=" ">
<path fill="none" stroke="#63b8ff" d="M671.25,-453.04C612.62,-452.09 529.48,-451.88 456.75,-455.95 400.37,-459.1 336.55,-466.33 290.47,-472.21"/>
<polygon fill="#63b8ff" stroke="#63b8ff" points="290.12,-468.72 280.65,-473.48 291.01,-475.67 290.12,-468.72"/>
</a>
</g>
</g>
<!-- Node21&#45;&gt;Node2 -->
<g id="edge35_Node000021_Node000002" class="edge">
<title>Node21&#45;&gt;Node2</title>
<g id="a_edge35_Node000021_Node000002"><a xlink:title=" ">
<path fill="none" stroke="#63b8ff" d="M671.13,-409.76C584.28,-416.18 438.21,-429.77 314.75,-454.95 306.08,-456.72 297.03,-458.94 288.17,-461.34"/>
<polygon fill="#63b8ff" stroke="#63b8ff" points="287.23,-457.97 278.55,-464.05 289.13,-464.71 287.23,-457.97"/>
</a>
</g>
</g>
<!-- Node22&#45;&gt;Node2 -->
<g id="edge37_Node000022_Node000002" class="edge">
<title>Node22&#45;&gt;Node2</title>
<g id="a_edge37_Node000022_Node000002"><a xlink:title=" ">
<path fill="none" stroke="#63b8ff" d="M667.46,-366.22C579.2,-373.87 433.63,-391.94 314.75,-432.95 296.26,-439.33 277.05,-449.35 261.31,-458.6"/>
<polygon fill="#63b8ff" stroke="#63b8ff" points="259.55,-455.57 252.8,-463.73 263.17,-461.56 259.55,-455.57"/>
</a>
</g>
</g>
<!-- Node23&#45;&gt;Node2 -->
<g id="edge39_Node000023_Node000002" class="edge">
<title>Node23&#45;&gt;Node2</title>
<g id="a_edge39_Node000023_Node000002"><a xlink:title=" ">
<path fill="none" stroke="#63b8ff" d="M660.99,-323.48C570.04,-327.36 424.85,-343.2 314.75,-400.95 288.51,-414.71 264.03,-438.19 247.59,-456.16"/>
<polygon fill="#63b8ff" stroke="#63b8ff" points="245.23,-453.54 241.2,-463.34 250.46,-458.2 245.23,-453.54"/>
</a>
</g>
</g>
<!-- Node24&#45;&gt;Node2 -->
<g id="edge41_Node000024_Node000002" class="edge">
<title>Node24&#45;&gt;Node2</title>
<g id="a_edge41_Node000024_Node000002"><a xlink:title=" ">
<path fill="none" stroke="#63b8ff" d="M652.9,-278.72C559.35,-277.21 415.69,-287.94 314.75,-355.95 278.25,-380.54 252.12,-425.71 238.23,-454.49"/>
<polygon fill="#63b8ff" stroke="#63b8ff" points="235.19,-452.73 234.15,-463.27 241.54,-455.68 235.19,-452.73"/>
</a>
</g>
</g>
<!-- Node25&#45;&gt;Node2 -->
<g id="edge43_Node000025_Node000002" class="edge">
<title>Node25&#45;&gt;Node2</title>
<g id="a_edge43_Node000025_Node000002"><a xlink:title=" ">
<path fill="none" stroke="#63b8ff" d="M677.35,-236.49C584.58,-226.6 420.09,-223.58 314.75,-304.95 266.11,-342.51 242.38,-414.19 232.56,-453.49"/>
<polygon fill="#63b8ff" stroke="#63b8ff" points="229.19,-452.56 230.3,-463.1 236,-454.17 229.19,-452.56"/>
</a>
</g>
</g>
<!-- Node26&#45;&gt;Node2 -->
<g id="edge45_Node000026_Node000002" class="edge">
<title>Node26&#45;&gt;Node2</title>
<g id="a_edge45_Node000026_Node000002"><a xlink:title=" ">
<path fill="none" stroke="#63b8ff" d="M650.92,-205.86C539.47,-204.31 364.75,-208.72 314.75,-248.95 250.86,-300.36 233.33,-403.6 228.54,-453.16"/>
<polygon fill="#63b8ff" stroke="#63b8ff" points="225.06,-452.77 227.7,-463.03 232.03,-453.36 225.06,-452.77"/>
</a>
</g>
</g>
<!-- Node27&#45;&gt;Node2 -->
<g id="edge47_Node000027_Node000002" class="edge">
<title>Node27&#45;&gt;Node2</title>
<g id="a_edge47_Node000027_Node000002"><a xlink:title=" ">
<path fill="none" stroke="#63b8ff" d="M700.42,-160.48C613.99,-144.01 427.64,-122.56 314.75,-212.95 239.94,-272.85 228.08,-397.78 226.65,-453.31"/>
<polygon fill="#63b8ff" stroke="#63b8ff" points="223.15,-453.1 226.5,-463.15 230.15,-453.21 223.15,-453.1"/>
</a>
</g>
</g>
<!-- Node28&#45;&gt;Node2 -->
<g id="edge49_Node000028_Node000002" class="edge">
<title>Node28&#45;&gt;Node2</title>
<g id="a_edge49_Node000028_Node000002"><a xlink:title=" ">
<path fill="none" stroke="#63b8ff" d="M660.24,-121.55C549.15,-116.57 365.12,-115.39 314.75,-157.95 268.9,-196.69 239.75,-383.18 230.2,-453.79"/>
<polygon fill="#63b8ff" stroke="#63b8ff" points="226.78,-452.95 228.94,-463.32 233.72,-453.87 226.78,-452.95"/>
</a>
</g>
</g>
<!-- Node30&#45;&gt;Node31 -->
<g id="edge52_Node000030_Node000031" class="edge">
<title>Node30&#45;&gt;Node31</title>
<g id="a_edge52_Node000030_Node000031"><a xlink:title=" ">
<path fill="none" stroke="#63b8ff" d="M589.48,-1092.44C607.64,-1094.34 628.61,-1096.54 649.22,-1098.7"/>
<polygon fill="#63b8ff" stroke="#63b8ff" points="648.79,-1102.17 659.1,-1099.73 649.52,-1095.21 648.79,-1102.17"/>
</a>
</g>
</g>
<!-- Node32 -->
<g id="Node000032" class="node">
<title>Node32</title>
<g id="a_Node000032"><a xlink:href="../../d6/d3c/classLSM1x0A__AtParser.html#a0ba6f927c54fceece22c17773d3f2600" target="_top" xlink:title="Sends a command and extracts a value from the response.">
<polygon fill="white" stroke="#666666" points="1063.12,-1124.95 888.88,-1124.95 888.88,-1092.95 1063.12,-1092.95 1063.12,-1124.95"/>
<text text-anchor="start" x="896.88" y="-1111.45" font-family="Helvetica,sans-Serif" font-size="10.00">LSM1x0A_AtParser::sendCommand</text>
<text text-anchor="middle" x="976" y="-1099.45" font-family="Helvetica,sans-Serif" font-size="10.00">WithResponse</text>
</a>
</g>
</g>
<!-- Node31&#45;&gt;Node32 -->
<g id="edge53_Node000031_Node000032" class="edge">
<title>Node31&#45;&gt;Node32</title>
<g id="a_edge53_Node000031_Node000032"><a xlink:title=" ">
<path fill="none" stroke="#63b8ff" d="M835.49,-1108.95C849.24,-1108.95 863.56,-1108.95 877.55,-1108.95"/>
<polygon fill="#63b8ff" stroke="#63b8ff" points="877.17,-1112.45 887.17,-1108.95 877.17,-1105.45 877.17,-1112.45"/>
</a>
</g>
</g>
<!-- Node33 -->
<g id="Node000033" class="node">
<title>Node33</title>
<g id="a_Node000033"><a xlink:href="../../d5/d8b/classUartDriver.html#a5d0f22e8867eebe99273078bb19bd23d" target="_top" xlink:title="Sends data through UART.">
<polygon fill="white" stroke="#666666" points="1237.75,-1118.95 1128.75,-1118.95 1128.75,-1098.95 1237.75,-1098.95 1237.75,-1118.95"/>
<text text-anchor="middle" x="1183.25" y="-1105.45" font-family="Helvetica,sans-Serif" font-size="10.00">UartDriver::sendData</text>
</a>
</g>
</g>
<!-- Node32&#45;&gt;Node33 -->
<g id="edge54_Node000032_Node000033" class="edge">
<title>Node32&#45;&gt;Node33</title>
<g id="a_edge54_Node000032_Node000033"><a xlink:title=" ">
<path fill="none" stroke="#63b8ff" d="M1063.45,-1108.95C1081.34,-1108.95 1099.91,-1108.95 1116.89,-1108.95"/>
<polygon fill="#63b8ff" stroke="#63b8ff" points="1116.86,-1112.45 1126.86,-1108.95 1116.86,-1105.45 1116.86,-1112.45"/>
</a>
</g>
</g>
</g>
</svg>

<g id="navigator" transform="translate(0 0)" fill="#404254">
  <rect fill="#f2f5e9" fill-opacity="0.5" stroke="#606060" stroke-width=".5" x="0" y="0" width="60" height="60"/>
  <use id="zoomplus" xlink:href="#zoomPlus" x="17" y="9" onmousedown="handleZoom(evt,'in')"/>
  <use id="zoomminus" xlink:href="#zoomMin" x="42" y="9" onmousedown="handleZoom(evt,'out')"/>
  <use id="reset" xlink:href="#resetDef" x="30" y="36" onmousedown="handleReset()"/>
   <use id="arrowup" xlink:href="#arrowUp" x="0" y="0" onmousedown="handlePan(0,-1)"/>
  <use id="arrowright" xlink:href="#arrowRight" x="0" y="0" onmousedown="handlePan(1,0)"/>
  <use id="arrowdown" xlink:href="#arrowDown" x="0" y="0" onmousedown="handlePan(0,1)"/>
  <use id="arrowleft" xlink:href="#arrowLeft" x="0" y="0" onmousedown="handlePan(-1,0)"/>
</g>
<svg viewBox="0 0 15 15" width="100%" height="30px" preserveAspectRatio="xMaxYMin meet">
 <g id="arrow_out" transform="scale(0.3 0.3)">
  <a xlink:href="classLSM1x0A__Sigfox_aa7a6b9262babd27d9df0c0a6f2a4a304_cgraph_org.svg" target="_base">
   <rect id="button" ry="5" rx="5" y="6" x="6" height="38" width="38"
        fill="#f2f5e9" fill-opacity="0.5" stroke="#606060" stroke-width="1.0"/>
   <path id="arrow"
     d="M 11.500037,31.436501 C 11.940474,20.09759 22.043105,11.32322 32.158766,21.979434 L 37.068811,17.246167 C 37.068811,17.246167 37.088388,32 37.088388,32 L 22.160133,31.978069 C 22.160133,31.978069 26.997745,27.140456 26.997745,27.140456 C 18.528582,18.264221 13.291696,25.230495 11.500037,31.436501 z"
     style="fill:#404040;"/>
  </a>
 </g>
</svg>

<style type='text/css'>
<![CDATA[
[data-mouse-over-selected='false'] { opacity: 0.7; }
[data-mouse-over-selected='true']  { opacity: 1.0; }
]]>
</style>
<script type="application/ecmascript"><![CDATA[
document.addEventListener('DOMContentLoaded', (event) => {
  highlightEdges();
  highlightAdjacentNodes();
});
]]></script>
</svg>
