<?xml version="1.0" encoding="UTF-8" standalone="no"?>
<!DOCTYPE svg PUBLIC "-//W3C//DTD SVG 1.1//EN"
 "http://www.w3.org/Graphics/SVG/1.1/DTD/svg11.dtd">
<!-- Generated by graphviz version 12.2.1 (20241206.2353)
 -->
<!-- Title: LSM1x0A_Sigfox::testMonarchScan Pages: 1 -->
<!--zoomable 1143 -->

<svg id="main" version="1.1" xmlns="http://www.w3.org/2000/svg" xmlns:xlink="http://www.w3.org/1999/xlink" xml:space="preserve" onload="init(evt)">
<style type="text/css"><![CDATA[
.node, .edge {opacity: 0.7;}
.node.selected, .edge.selected {opacity: 1;}
.edge:hover path { stroke: red; }
.edge:hover polygon { stroke: red; fill: red; }
]]></style>

<defs>
  <circle id="rim" cx="0" cy="0" r="7"/>
  <circle id="rim2" cx="0" cy="0" r="3.5"/>
  <g id="zoomPlus">
    <use xlink:href="#rim" fill="#404040"><set attributeName="fill" to="#808080" begin="zoomplus.mouseover" end="zoomplus.mouseout"/></use>
    <path d="M-4,0h8M0,-4v8" fill="none" stroke="white" stroke-width="1.5" pointer-events="none"/>
  </g>
  <g id="zoomMin">
    <use xlink:href="#rim" fill="#404040"><set attributeName="fill" to="#808080" begin="zoomminus.mouseover" end="zoomminus.mouseout"/></use>
    <path d="M-4,0h8" fill="none" stroke="white" stroke-width="1.5" pointer-events="none"/>
  </g>
  <g id="arrowUp" transform="translate(30 24)">
    <use xlink:href="#rim"/>
    <path pointer-events="none" fill="none" stroke="white" stroke-width="1.5" d="M0,-3.0v7 M-2.5,-0.5L0,-3.0L2.5,-0.5"/>
  </g>
  <g id="arrowRight" transform="rotate(90) translate(36 -43)">
    <use xlink:href="#rim"/>
    <path pointer-events="none" fill="none" stroke="white" stroke-width="1.5" d="M0,-3.0v7 M-2.5,-0.5L0,-3.0L2.5,-0.5"/>
  </g>
  <g id="arrowDown" transform="rotate(180) translate(-30 -48)">
    <use xlink:href="#rim"/>
    <path pointer-events="none" fill="none" stroke="white" stroke-width="1.5" d="M0,-3.0v7 M-2.5,-0.5L0,-3.0L2.5,-0.5"/>
  </g>
  <g id="arrowLeft" transform="rotate(270) translate(-36 17)">
    <use xlink:href="#rim"/>
    <path pointer-events="none" fill="none" stroke="white" stroke-width="1.5" d="M0,-3.0v7 M-2.5,-0.5L0,-3.0L2.5,-0.5"/>
  </g>
  <g id="resetDef">
    <use xlink:href="#rim2" fill="#404040"><set attributeName="fill" to="#808080" begin="reset.mouseover" end="reset.mouseout"/></use>
  </g>
</defs>
<script type="application/ecmascript">
var viewWidth = 1305;
var viewHeight = 1143;
var sectionId = 'dynsection-33';
</script>
<script type="application/ecmascript" xlink:href="../../svg.min.js"/>
<svg id="graph" class="graph">
<g id="viewport">
<title>LSM1x0A_Sigfox::testMonarchScan</title>
<!-- Node1 -->
<g id="Node000001" class="node">
<title>Node1</title>
<g id="a_Node000001"><a xlink:title="Monarch pattern scan.">
<polygon fill="#999999" stroke="#666666" points="174.25,-490.95 0,-490.95 0,-470.95 174.25,-470.95 174.25,-490.95"/>
<text text-anchor="middle" x="87.12" y="-477.45" font-family="Helvetica,sans-Serif" font-size="10.00">LSM1x0A_Sigfox::testMonarchScan</text>
</a>
</g>
</g>
<!-- Node2 -->
<g id="Node000002" class="node">
<title>Node2</title>
<g id="a_Node000002"><a xlink:href="../../d8/d92/classLSM1x0A__Controller.html#afd7d92e60ed6fdae696a955cdbe0ed8c" target="_top" xlink:title="Sends any AT command to the module, returning error if it fails. Internally uses the LsmAtParser logi...">
<polygon fill="white" stroke="#666666" points="316.25,-496.95 210.25,-496.95 210.25,-464.95 316.25,-464.95 316.25,-496.95"/>
<text text-anchor="start" x="218.25" y="-483.45" font-family="Helvetica,sans-Serif" font-size="10.00">LSM1x0A_Controller</text>
<text text-anchor="middle" x="263.25" y="-471.45" font-family="Helvetica,sans-Serif" font-size="10.00">::sendCommand</text>
</a>
</g>
</g>
<!-- Node1&#45;&gt;Node2 -->
<g id="edge1_Node000001_Node000002" class="edge">
<title>Node1&#45;&gt;Node2</title>
<g id="a_edge1_Node000001_Node000002"><a xlink:title=" ">
<path fill="none" stroke="#63b8ff" d="M174.68,-480.95C182.82,-480.95 190.97,-480.95 198.84,-480.95"/>
<polygon fill="#63b8ff" stroke="#63b8ff" points="198.62,-484.45 208.62,-480.95 198.62,-477.45 198.62,-484.45"/>
</a>
</g>
</g>
<!-- Node3 -->
<g id="Node000003" class="node">
<title>Node3</title>
<g id="a_Node000003"><a xlink:href="../../d8/d92/classLSM1x0A__Controller.html#abb0eb380daa3dfb7acffb483c5db8e2b" target="_top" xlink:title="Executes the recovery protocol. First Soft&#45;Reset (ATZ), then Hard&#45;Reset if there is a pin.">
<polygon fill="white" stroke="#666666" points="458.25,-938.95 352.25,-938.95 352.25,-906.95 458.25,-906.95 458.25,-938.95"/>
<text text-anchor="start" x="360.25" y="-925.45" font-family="Helvetica,sans-Serif" font-size="10.00">LSM1x0A_Controller</text>
<text text-anchor="middle" x="405.25" y="-913.45" font-family="Helvetica,sans-Serif" font-size="10.00">::recoverModule</text>
</a>
</g>
</g>
<!-- Node2&#45;&gt;Node3 -->
<g id="edge2_Node000002_Node000003" class="edge">
<title>Node2&#45;&gt;Node3</title>
<g id="a_edge2_Node000002_Node000003"><a xlink:title=" ">
<path fill="none" stroke="#63b8ff" d="M267.8,-497.39C278.36,-545.46 311.41,-689.56 352.25,-804.95 363.6,-837.01 379.79,-872.58 391.08,-896.2"/>
<polygon fill="#63b8ff" stroke="#63b8ff" points="387.88,-897.62 395.38,-905.1 394.18,-894.57 387.88,-897.62"/>
</a>
</g>
</g>
<!-- Node31 -->
<g id="Node000031" class="node">
<title>Node31</title>
<g id="a_Node000031"><a xlink:href="../../d6/d3c/classLSM1x0A__AtParser.html#a29b53c521974387ba6c03afadfaffa4a" target="_top" xlink:title="Sends a simple command and waits for OK/ERROR. Example: sendCommand(&quot;AT+JOIN&quot;);.">
<polygon fill="white" stroke="#666666" points="872.75,-1118.95 698.5,-1118.95 698.5,-1098.95 872.75,-1098.95 872.75,-1118.95"/>
<text text-anchor="middle" x="785.62" y="-1105.45" font-family="Helvetica,sans-Serif" font-size="10.00">LSM1x0A_AtParser::sendCommand</text>
</a>
</g>
</g>
<!-- Node2&#45;&gt;Node31 -->
<g id="edge55_Node000002_Node000031" class="edge">
<title>Node2&#45;&gt;Node31</title>
<g id="a_edge55_Node000002_Node000031"><a xlink:title=" ">
<path fill="none" stroke="#63b8ff" d="M264.31,-497.2C265.13,-559.15 273.67,-785.25 352.25,-947.95 394.18,-1034.77 406.56,-1071.88 494.25,-1111.95 572.01,-1147.48 674.16,-1134.62 734.27,-1121.89"/>
<polygon fill="#63b8ff" stroke="#63b8ff" points="734.86,-1125.34 743.87,-1119.77 733.35,-1118.51 734.86,-1125.34"/>
</a>
</g>
</g>
<!-- Node4 -->
<g id="Node000004" class="node">
<title>Node4</title>
<g id="a_Node000004"><a xlink:href="../../d8/d92/classLSM1x0A__Controller.html#a3f6f25b843fe4fb7042c544deae2ab16" target="_top" xlink:title="Manually clears bits from the internal EventGroup.">
<polygon fill="white" stroke="#666666" points="1066.5,-957.95 960.5,-957.95 960.5,-925.95 1066.5,-925.95 1066.5,-957.95"/>
<text text-anchor="start" x="968.5" y="-944.45" font-family="Helvetica,sans-Serif" font-size="10.00">LSM1x0A_Controller</text>
<text text-anchor="middle" x="1013.5" y="-932.45" font-family="Helvetica,sans-Serif" font-size="10.00">::clearEvents</text>
</a>
</g>
</g>
<!-- Node3&#45;&gt;Node4 -->
<g id="edge3_Node000003_Node000004" class="edge">
<title>Node3&#45;&gt;Node4</title>
<g id="a_edge3_Node000003_Node000004"><a xlink:title=" ">
<path fill="none" stroke="#63b8ff" d="M422.33,-939.29C438.75,-954.72 465.81,-976.82 494.25,-985.95 653.82,-1037.18 854.41,-991 952.68,-961.72"/>
<polygon fill="#63b8ff" stroke="#63b8ff" points="953.57,-965.11 962.12,-958.86 951.54,-958.41 953.57,-965.11"/>
</a>
</g>
</g>
<!-- Node5 -->
<g id="Node000005" class="node">
<title>Node5</title>
<g id="a_Node000005"><a xlink:href="../../d8/d92/classLSM1x0A__Controller.html#a345d4bd79fa16b18dc33a4ca788fe5f7" target="_top" xlink:title="Performs a hardware reset using the reset pin.">
<polygon fill="white" stroke="#666666" points="626.5,-938.95 520.5,-938.95 520.5,-906.95 626.5,-906.95 626.5,-938.95"/>
<text text-anchor="start" x="528.5" y="-925.45" font-family="Helvetica,sans-Serif" font-size="10.00">LSM1x0A_Controller</text>
<text text-anchor="middle" x="573.5" y="-913.45" font-family="Helvetica,sans-Serif" font-size="10.00">::hardwareReset</text>
</a>
</g>
</g>
<!-- Node3&#45;&gt;Node5 -->
<g id="edge4_Node000003_Node000005" class="edge">
<title>Node3&#45;&gt;Node5</title>
<g id="a_edge4_Node000003_Node000005"><a xlink:title=" ">
<path fill="none" stroke="#63b8ff" d="M458.4,-922.95C474.41,-922.95 492.22,-922.95 508.91,-922.95"/>
<polygon fill="#63b8ff" stroke="#63b8ff" points="508.74,-926.45 518.74,-922.95 508.74,-919.45 508.74,-926.45"/>
</a>
</g>
</g>
<!-- Node7 -->
<g id="Node000007" class="node">
<title>Node7</title>
<g id="a_Node000007"><a xlink:href="../../d5/d72/classLSM1x0A__LoRaWAN.html#a1892801e37c8cd67d37c76108d6f7d49" target="_top" xlink:title="Validates if the device is currently Joined to the network. (Either confirmed by OTAA or statically a...">
<polygon fill="white" stroke="#666666" points="1297,-926.95 1144.5,-926.95 1144.5,-906.95 1297,-906.95 1297,-926.95"/>
<text text-anchor="middle" x="1220.75" y="-913.45" font-family="Helvetica,sans-Serif" font-size="10.00">LSM1x0A_LoRaWAN::isJoined</text>
</a>
</g>
</g>
<!-- Node3&#45;&gt;Node7 -->
<g id="edge6_Node000003_Node000007" class="edge">
<title>Node3&#45;&gt;Node7</title>
<g id="a_edge6_Node000003_Node000007"><a xlink:title=" ">
<path fill="none" stroke="#63b8ff" d="M452.19,-939.25C454.33,-940.7 456.36,-942.26 458.25,-943.95 483.42,-966.51 465.24,-993.6 494.25,-1010.95 504.95,-1017.34 820.41,-1014.94 882.5,-1008.95 984.19,-999.13 1010.99,-997.44 1108.5,-966.95 1137.33,-957.93 1168.58,-943.44 1190.59,-932.37"/>
<polygon fill="#63b8ff" stroke="#63b8ff" points="1191.95,-935.61 1199.26,-927.94 1188.76,-929.38 1191.95,-935.61"/>
</a>
</g>
</g>
<!-- Node8 -->
<g id="Node000008" class="node">
<title>Node8</title>
<g id="a_Node000008"><a xlink:href="../../d5/d72/classLSM1x0A__LoRaWAN.html#a83e11c0e74ff9e0757db616ab1163424" target="_top" xlink:title="Attempts to recover a lost connection (re&#45;executes OTAA Join if dropped).">
<polygon fill="white" stroke="#666666" points="647.88,-850.95 499.12,-850.95 499.12,-818.95 647.88,-818.95 647.88,-850.95"/>
<text text-anchor="start" x="507.12" y="-837.45" font-family="Helvetica,sans-Serif" font-size="10.00">LSM1x0A_LoRaWAN::recover</text>
<text text-anchor="middle" x="573.5" y="-825.45" font-family="Helvetica,sans-Serif" font-size="10.00">Connection</text>
</a>
</g>
</g>
<!-- Node3&#45;&gt;Node8 -->
<g id="edge7_Node000003_Node000008" class="edge">
<title>Node3&#45;&gt;Node8</title>
<g id="a_edge7_Node000003_Node000008"><a xlink:title=" ">
<path fill="none" stroke="#63b8ff" d="M428.22,-906.53C445.55,-894.07 470.65,-877.07 494.25,-864.95 500.54,-861.72 507.25,-858.64 514.01,-855.76"/>
<polygon fill="#63b8ff" stroke="#63b8ff" points="515.28,-859.02 523.21,-851.99 512.63,-852.55 515.28,-859.02"/>
</a>
</g>
</g>
<!-- Node12 -->
<g id="Node000012" class="node">
<title>Node12</title>
<g id="a_Node000012"><a xlink:href="../../d5/d72/classLSM1x0A__LoRaWAN.html#ae3be4ce59dfa200369733317df356e97" target="_top" xlink:title="Pushes the RAM&#45;cached variables back down into the hardware module. Restores the operational state af...">
<polygon fill="white" stroke="#666666" points="646.75,-496.95 500.25,-496.95 500.25,-464.95 646.75,-464.95 646.75,-496.95"/>
<text text-anchor="start" x="508.25" y="-483.45" font-family="Helvetica,sans-Serif" font-size="10.00">LSM1x0A_LoRaWAN::restore</text>
<text text-anchor="middle" x="573.5" y="-471.45" font-family="Helvetica,sans-Serif" font-size="10.00">Config</text>
</a>
</g>
</g>
<!-- Node3&#45;&gt;Node12 -->
<g id="edge16_Node000003_Node000012" class="edge">
<title>Node3&#45;&gt;Node12</title>
<g id="a_edge16_Node000003_Node000012"><a xlink:title=" ">
<path fill="none" stroke="#63b8ff" d="M412.36,-906.69C437.26,-840.5 531.17,-590.84 562.36,-507.91"/>
<polygon fill="#63b8ff" stroke="#63b8ff" points="565.55,-509.36 565.8,-498.77 559,-506.9 565.55,-509.36"/>
</a>
</g>
</g>
<!-- Node29 -->
<g id="Node000029" class="node">
<title>Node29</title>
<g id="a_Node000029"><a xlink:href="../../d5/d72/classLSM1x0A__LoRaWAN.html#ace4b04396f1de1f4a54f513f5f378db7" target="_top" xlink:title="Manually overrides the internal joined state tracker.">
<polygon fill="white" stroke="#666666" points="652.75,-976.95 494.25,-976.95 494.25,-956.95 652.75,-956.95 652.75,-976.95"/>
<text text-anchor="middle" x="573.5" y="-963.45" font-family="Helvetica,sans-Serif" font-size="10.00">LSM1x0A_LoRaWAN::setJoined</text>
</a>
</g>
</g>
<!-- Node3&#45;&gt;Node29 -->
<g id="edge50_Node000003_Node000029" class="edge">
<title>Node3&#45;&gt;Node29</title>
<g id="a_edge50_Node000003_Node000029"><a xlink:title=" ">
<path fill="none" stroke="#63b8ff" d="M458.74,-938.22C470.41,-941.51 482.73,-944.91 494.25,-947.95 501.61,-949.89 509.37,-951.86 517.04,-953.76"/>
<polygon fill="#63b8ff" stroke="#63b8ff" points="516.13,-957.14 526.68,-956.13 517.8,-950.35 516.13,-957.14"/>
</a>
</g>
</g>
<!-- Node30 -->
<g id="Node000030" class="node">
<title>Node30</title>
<g id="a_Node000030"><a xlink:href="../../d8/d92/classLSM1x0A__Controller.html#a11ad21cb5ca33ec51346764a23bd485e" target="_top" xlink:title="Performs a software reset (ATZ Command).">
<polygon fill="white" stroke="#666666" points="626.5,-1102.95 520.5,-1102.95 520.5,-1070.95 626.5,-1070.95 626.5,-1102.95"/>
<text text-anchor="start" x="528.5" y="-1089.45" font-family="Helvetica,sans-Serif" font-size="10.00">LSM1x0A_Controller</text>
<text text-anchor="middle" x="573.5" y="-1077.45" font-family="Helvetica,sans-Serif" font-size="10.00">::softwareReset</text>
</a>
</g>
</g>
<!-- Node3&#45;&gt;Node30 -->
<g id="edge51_Node000003_Node000030" class="edge">
<title>Node3&#45;&gt;Node30</title>
<g id="a_edge51_Node000003_Node000030"><a xlink:title=" ">
<path fill="none" stroke="#63b8ff" d="M412.95,-939.34C425.14,-967.25 453.5,-1024.13 494.25,-1056.95 499.07,-1060.83 504.44,-1064.24 510.05,-1067.25"/>
<polygon fill="#63b8ff" stroke="#63b8ff" points="508.46,-1070.36 518.98,-1071.55 511.5,-1064.06 508.46,-1070.36"/>
</a>
</g>
</g>
<!-- Node6 -->
<g id="Node000006" class="node">
<title>Node6</title>
<g id="a_Node000006"><a xlink:href="../../d6/d3c/classLSM1x0A__AtParser.html#ad2839120da13e56132b95019419be1e5" target="_top" xlink:title="Waits for an event (like BOOTALERT) without sending any command. Useful for hardware reset where the ...">
<polygon fill="white" stroke="#666666" points="855.88,-938.95 715.38,-938.95 715.38,-906.95 855.88,-906.95 855.88,-938.95"/>
<text text-anchor="start" x="723.38" y="-925.45" font-family="Helvetica,sans-Serif" font-size="10.00">LSM1x0A_AtParser::waitFor</text>
<text text-anchor="middle" x="785.62" y="-913.45" font-family="Helvetica,sans-Serif" font-size="10.00">Event</text>
</a>
</g>
</g>
<!-- Node5&#45;&gt;Node6 -->
<g id="edge5_Node000005_Node000006" class="edge">
<title>Node5&#45;&gt;Node6</title>
<g id="a_edge5_Node000005_Node000006"><a xlink:title=" ">
<path fill="none" stroke="#63b8ff" d="M626.98,-922.95C650.17,-922.95 677.97,-922.95 703.71,-922.95"/>
<polygon fill="#63b8ff" stroke="#63b8ff" points="703.47,-926.45 713.47,-922.95 703.47,-919.45 703.47,-926.45"/>
</a>
</g>
</g>
<!-- Node9 -->
<g id="Node000009" class="node">
<title>Node9</title>
<g id="a_Node000009"><a xlink:href="../../d5/d72/classLSM1x0A__LoRaWAN.html#a59f781f3cfd30c11cd3973bcb10a7baa" target="_top" xlink:title="Initiates a LoRaWAN Network Join procedure. This is a blocking function until the module fires an eve...">
<polygon fill="white" stroke="#666666" points="851.38,-844.95 719.88,-844.95 719.88,-824.95 851.38,-824.95 851.38,-844.95"/>
<text text-anchor="middle" x="785.62" y="-831.45" font-family="Helvetica,sans-Serif" font-size="10.00">LSM1x0A_LoRaWAN::join</text>
</a>
</g>
</g>
<!-- Node8&#45;&gt;Node9 -->
<g id="edge8_Node000008_Node000009" class="edge">
<title>Node8&#45;&gt;Node9</title>
<g id="a_edge8_Node000008_Node000009"><a xlink:title=" ">
<path fill="none" stroke="#63b8ff" d="M648.29,-834.95C667.66,-834.95 688.6,-834.95 708.11,-834.95"/>
<polygon fill="#63b8ff" stroke="#63b8ff" points="707.9,-838.45 717.9,-834.95 707.9,-831.45 707.9,-838.45"/>
</a>
</g>
</g>
<!-- Node9&#45;&gt;Node2 -->
<g id="edge11_Node000009_Node000002" class="edge">
<title>Node9&#45;&gt;Node2</title>
<g id="a_edge11_Node000009_Node000002"><a xlink:title=" ">
<path fill="none" stroke="#63b8ff" d="M731.4,-824.5C672.77,-812.53 575.98,-791.38 494.25,-766.95 429.86,-747.69 399.98,-762.27 352.25,-714.95 293.98,-657.18 273.78,-557.13 267.2,-508.74"/>
<polygon fill="#63b8ff" stroke="#63b8ff" points="270.68,-508.33 265.97,-498.84 263.73,-509.2 270.68,-508.33"/>
</a>
</g>
</g>
<!-- Node9&#45;&gt;Node3 -->
<g id="edge10_Node000009_Node000003" class="edge">
<title>Node9&#45;&gt;Node3</title>
<g id="a_edge10_Node000009_Node000003"><a xlink:title=" ">
<path fill="none" stroke="#63b8ff" d="M731.4,-845.44C672.99,-857.21 576.57,-877.35 494.25,-897.95 486.31,-899.94 477.99,-902.14 469.78,-904.39"/>
<polygon fill="#63b8ff" stroke="#63b8ff" points="468.84,-901.01 460.15,-907.06 470.72,-907.76 468.84,-901.01"/>
</a>
</g>
</g>
<!-- Node9&#45;&gt;Node4 -->
<g id="edge9_Node000009_Node000004" class="edge">
<title>Node9&#45;&gt;Node4</title>
<g id="a_edge9_Node000009_Node000004"><a xlink:title=" ">
<path fill="none" stroke="#63b8ff" d="M808.69,-845.4C845.41,-862.79 919.73,-898 967.76,-920.75"/>
<polygon fill="#63b8ff" stroke="#63b8ff" points="965.97,-923.78 976.51,-924.9 968.97,-917.45 965.97,-923.78"/>
</a>
</g>
</g>
<!-- Node10 -->
<g id="Node000010" class="node">
<title>Node10</title>
<g id="a_Node000010"><a xlink:href="../../d5/d72/classLSM1x0A__LoRaWAN.html#a3fdd1ac318a5ad2559323e5d57e36a5e" target="_top" xlink:title="Enables or disables specific sub&#45;bands for regions supporting Channel Masks (e.g.,...">
<polygon fill="white" stroke="#666666" points="1108.5,-654.95 918.5,-654.95 918.5,-634.95 1108.5,-634.95 1108.5,-654.95"/>
<text text-anchor="middle" x="1013.5" y="-641.45" font-family="Helvetica,sans-Serif" font-size="10.00">LSM1x0A_LoRaWAN::setChannelMask</text>
</a>
</g>
</g>
<!-- Node9&#45;&gt;Node10 -->
<g id="edge12_Node000009_Node000010" class="edge">
<title>Node9&#45;&gt;Node10</title>
<g id="a_edge12_Node000009_Node000010"><a xlink:title=" ">
<path fill="none" stroke="#63b8ff" d="M845.93,-824.45C858.65,-820.55 871.55,-815.22 882.5,-807.95 939.37,-770.19 983,-699.61 1002.04,-665.05"/>
<polygon fill="#63b8ff" stroke="#63b8ff" points="1004.97,-666.98 1006.62,-656.52 998.8,-663.67 1004.97,-666.98"/>
</a>
</g>
</g>
<!-- Node11 -->
<g id="Node000011" class="node">
<title>Node11</title>
<g id="a_Node000011"><a xlink:href="../../d8/d92/classLSM1x0A__Controller.html#a62476e30e50c7fe120aeb8df4b828675" target="_top" xlink:title="Synchronously/blockingly waits for an asynchronous event to occur. Useful for wrapping commands like ...">
<polygon fill="white" stroke="#666666" points="1066.5,-850.95 960.5,-850.95 960.5,-818.95 1066.5,-818.95 1066.5,-850.95"/>
<text text-anchor="start" x="968.5" y="-837.45" font-family="Helvetica,sans-Serif" font-size="10.00">LSM1x0A_Controller</text>
<text text-anchor="middle" x="1013.5" y="-825.45" font-family="Helvetica,sans-Serif" font-size="10.00">::waitForEvent</text>
</a>
</g>
</g>
<!-- Node9&#45;&gt;Node11 -->
<g id="edge15_Node000009_Node000011" class="edge">
<title>Node9&#45;&gt;Node11</title>
<g id="a_edge15_Node000009_Node000011"><a xlink:title=" ">
<path fill="none" stroke="#63b8ff" d="M851.65,-834.95C882.16,-834.95 918.4,-834.95 948.74,-834.95"/>
<polygon fill="#63b8ff" stroke="#63b8ff" points="948.55,-838.45 958.55,-834.95 948.55,-831.45 948.55,-838.45"/>
</a>
</g>
</g>
<!-- Node10&#45;&gt;Node2 -->
<g id="edge14_Node000010_Node000002" class="edge">
<title>Node10&#45;&gt;Node2</title>
<g id="a_edge14_Node000010_Node000002"><a xlink:title=" ">
<path fill="none" stroke="#63b8ff" d="M1011.72,-634.73C1006.27,-566.01 971.35,-172.04 882.5,-101.95 697.34,44.11 533.4,29.06 352.25,-121.95 300.67,-164.95 274.61,-377.61 266.82,-453.76"/>
<polygon fill="#63b8ff" stroke="#63b8ff" points="263.38,-452.96 265.87,-463.26 270.34,-453.65 263.38,-452.96"/>
</a>
</g>
</g>
<!-- Node10&#45;&gt;Node7 -->
<g id="edge13_Node000010_Node000007" class="edge">
<title>Node10&#45;&gt;Node7</title>
<g id="a_edge13_Node000010_Node000007"><a xlink:title=" ">
<path fill="none" stroke="#63b8ff" d="M1022.3,-655.28C1052.84,-695.76 1164.67,-843.95 1205.07,-897.49"/>
<polygon fill="#63b8ff" stroke="#63b8ff" points="1202.22,-899.52 1211.04,-905.4 1207.81,-895.31 1202.22,-899.52"/>
</a>
</g>
</g>
<!-- Node12&#45;&gt;Node10 -->
<g id="edge21_Node000012_Node000010" class="edge">
<title>Node12&#45;&gt;Node10</title>
<g id="a_edge21_Node000012_Node000010"><a xlink:title=" ">
<path fill="none" stroke="#63b8ff" d="M646.99,-484.29C724.65,-488.81 842.18,-498.64 882.5,-517.95 934.43,-542.82 978.38,-596.76 999.34,-625.7"/>
<polygon fill="#63b8ff" stroke="#63b8ff" points="996.27,-627.41 1004.9,-633.56 1001.99,-623.37 996.27,-627.41"/>
</a>
</g>
</g>
<!-- Node13 -->
<g id="Node000013" class="node">
<title>Node13</title>
<g id="a_Node000013"><a xlink:href="../../d5/d72/classLSM1x0A__LoRaWAN.html#af0baa3db4c7fab580d6b19a9e92472f6" target="_top" xlink:title="Enables or disables Adaptive Data Rate (ADR).">
<polygon fill="white" stroke="#666666" points="861.5,-798.95 709.75,-798.95 709.75,-778.95 861.5,-778.95 861.5,-798.95"/>
<text text-anchor="middle" x="785.62" y="-785.45" font-family="Helvetica,sans-Serif" font-size="10.00">LSM1x0A_LoRaWAN::setADR</text>
</a>
</g>
</g>
<!-- Node12&#45;&gt;Node13 -->
<g id="edge17_Node000012_Node000013" class="edge">
<title>Node12&#45;&gt;Node13</title>
<g id="a_edge17_Node000012_Node000013"><a xlink:title=" ">
<path fill="none" stroke="#63b8ff" d="M575.68,-497.13C580.2,-546.58 600.9,-696.7 688.75,-769.95 692,-772.66 695.54,-775.03 699.26,-777.08"/>
<polygon fill="#63b8ff" stroke="#63b8ff" points="697.59,-780.17 708.13,-781.21 700.54,-773.82 697.59,-780.17"/>
</a>
</g>
</g>
<!-- Node14 -->
<g id="Node000014" class="node">
<title>Node14</title>
<g id="a_Node000014"><a xlink:href="../../d5/d72/classLSM1x0A__LoRaWAN.html#a5365ed1596eb84ebf1e3b33b4a10c788" target="_top" xlink:title="Sets the LoRaWAN operational frequency band.">
<polygon fill="white" stroke="#666666" points="861.88,-760.95 709.38,-760.95 709.38,-740.95 861.88,-740.95 861.88,-760.95"/>
<text text-anchor="middle" x="785.62" y="-747.45" font-family="Helvetica,sans-Serif" font-size="10.00">LSM1x0A_LoRaWAN::setBand</text>
</a>
</g>
</g>
<!-- Node12&#45;&gt;Node14 -->
<g id="edge19_Node000012_Node000014" class="edge">
<title>Node12&#45;&gt;Node14</title>
<g id="a_edge19_Node000012_Node000014"><a xlink:title=" ">
<path fill="none" stroke="#63b8ff" d="M576.76,-497.27C583.92,-542.46 610.48,-669.99 688.75,-731.95 691.91,-734.45 695.3,-736.64 698.86,-738.58"/>
<polygon fill="#63b8ff" stroke="#63b8ff" points="697.35,-741.74 707.9,-742.72 700.27,-735.37 697.35,-741.74"/>
</a>
</g>
</g>
<!-- Node15 -->
<g id="Node000015" class="node">
<title>Node15</title>
<g id="a_Node000015"><a xlink:href="../../d5/d72/classLSM1x0A__LoRaWAN.html#a9d9285c43414337a0ccb3a6cd7ca06e6" target="_top" xlink:title="Configures the number of retries for Confirmed uplinks.">
<polygon fill="white" stroke="#666666" points="867.88,-722.95 703.38,-722.95 703.38,-690.95 867.88,-690.95 867.88,-722.95"/>
<text text-anchor="start" x="711.38" y="-709.45" font-family="Helvetica,sans-Serif" font-size="10.00">LSM1x0A_LoRaWAN::setConfirm</text>
<text text-anchor="middle" x="785.62" y="-697.45" font-family="Helvetica,sans-Serif" font-size="10.00">Retry</text>
</a>
</g>
</g>
<!-- Node12&#45;&gt;Node15 -->
<g id="edge22_Node000012_Node000015" class="edge">
<title>Node12&#45;&gt;Node15</title>
<g id="a_edge22_Node000012_Node000015"><a xlink:title=" ">
<path fill="none" stroke="#63b8ff" d="M579.02,-497.42C590.48,-535.98 624.42,-632.59 688.75,-681.95 690.11,-682.99 691.52,-684 692.96,-684.96"/>
<polygon fill="#63b8ff" stroke="#63b8ff" points="691.18,-687.98 701.59,-689.96 694.69,-681.92 691.18,-687.98"/>
</a>
</g>
</g>
<!-- Node16 -->
<g id="Node000016" class="node">
<title>Node16</title>
<g id="a_Node000016"><a xlink:href="../../d5/d72/classLSM1x0A__LoRaWAN.html#a56345ceeafa0b9059d6de4e69eddc82e" target="_top" xlink:title="Sets the Data Rate (DR) of the module.">
<polygon fill="white" stroke="#666666" points="871.62,-672.95 699.62,-672.95 699.62,-652.95 871.62,-652.95 871.62,-672.95"/>
<text text-anchor="middle" x="785.62" y="-659.45" font-family="Helvetica,sans-Serif" font-size="10.00">LSM1x0A_LoRaWAN::setDataRate</text>
</a>
</g>
</g>
<!-- Node12&#45;&gt;Node16 -->
<g id="edge24_Node000012_Node000016" class="edge">
<title>Node12&#45;&gt;Node16</title>
<g id="a_edge24_Node000012_Node000016"><a xlink:title=" ">
<path fill="none" stroke="#63b8ff" d="M580.93,-497.26C594.99,-530.68 631.86,-606.87 688.75,-643.95 690.89,-645.34 693.1,-646.63 695.38,-647.84"/>
<polygon fill="#63b8ff" stroke="#63b8ff" points="693.8,-650.96 704.35,-651.92 696.7,-644.59 693.8,-650.96"/>
</a>
</g>
</g>
<!-- Node17 -->
<g id="Node000017" class="node">
<title>Node17</title>
<g id="a_Node000017"><a xlink:href="../../d5/d72/classLSM1x0A__LoRaWAN.html#a8494083816ab885cb07fc3b08de029f4" target="_top" xlink:title="Sets the LoRaWAN Device Address (DevAddr) for ABP mode.">
<polygon fill="white" stroke="#666666" points="869.75,-634.95 701.5,-634.95 701.5,-614.95 869.75,-614.95 869.75,-634.95"/>
<text text-anchor="middle" x="785.62" y="-621.45" font-family="Helvetica,sans-Serif" font-size="10.00">LSM1x0A_LoRaWAN::setDevAddr</text>
</a>
</g>
</g>
<!-- Node12&#45;&gt;Node17 -->
<g id="edge26_Node000012_Node000017" class="edge">
<title>Node12&#45;&gt;Node17</title>
<g id="a_edge26_Node000012_Node000017"><a xlink:title=" ">
<path fill="none" stroke="#63b8ff" d="M584.49,-497.41C601.97,-524.7 640.85,-578.97 688.75,-605.95 691.59,-607.55 694.55,-609.02 697.58,-610.36"/>
<polygon fill="#63b8ff" stroke="#63b8ff" points="696.17,-613.57 706.76,-613.93 698.71,-607.04 696.17,-613.57"/>
</a>
</g>
</g>
<!-- Node18 -->
<g id="Node000018" class="node">
<title>Node18</title>
<g id="a_Node000018"><a xlink:href="../../d5/d72/classLSM1x0A__LoRaWAN.html#ad320634e52d7ea907043cc50dd37c5b0" target="_top" xlink:title="Sets the LoRaWAN Device EUI (DevEUI).">
<polygon fill="white" stroke="#666666" points="868.25,-596.95 703,-596.95 703,-576.95 868.25,-576.95 868.25,-596.95"/>
<text text-anchor="middle" x="785.62" y="-583.45" font-family="Helvetica,sans-Serif" font-size="10.00">LSM1x0A_LoRaWAN::setDevEUI</text>
</a>
</g>
</g>
<!-- Node12&#45;&gt;Node18 -->
<g id="edge28_Node000012_Node000018" class="edge">
<title>Node12&#45;&gt;Node18</title>
<g id="a_edge28_Node000012_Node000018"><a xlink:title=" ">
<path fill="none" stroke="#63b8ff" d="M590.7,-497.21C611.52,-517.12 649.65,-550.34 688.75,-567.95 693.01,-569.87 697.47,-571.6 702.03,-573.15"/>
<polygon fill="#63b8ff" stroke="#63b8ff" points="700.78,-576.43 711.37,-576.02 702.84,-569.74 700.78,-576.43"/>
</a>
</g>
</g>
<!-- Node19 -->
<g id="Node000019" class="node">
<title>Node19</title>
<g id="a_Node000019"><a xlink:href="../../d5/d72/classLSM1x0A__LoRaWAN.html#a031023b0d2dd5db3c51c2db6ae7801cc" target="_top" xlink:title="Enables or disables the Duty Cycle limitation (EU regions mostly).">
<polygon fill="white" stroke="#666666" points="861.12,-558.95 710.12,-558.95 710.12,-526.95 861.12,-526.95 861.12,-558.95"/>
<text text-anchor="start" x="718.12" y="-545.45" font-family="Helvetica,sans-Serif" font-size="10.00">LSM1x0A_LoRaWAN::setDuty</text>
<text text-anchor="middle" x="785.62" y="-533.45" font-family="Helvetica,sans-Serif" font-size="10.00">Cycle</text>
</a>
</g>
</g>
<!-- Node12&#45;&gt;Node19 -->
<g id="edge30_Node000012_Node000019" class="edge">
<title>Node12&#45;&gt;Node19</title>
<g id="a_edge30_Node000012_Node000019"><a xlink:title=" ">
<path fill="none" stroke="#63b8ff" d="M630.26,-497.4C657.2,-505.35 689.73,-514.95 717.98,-523.28"/>
<polygon fill="#63b8ff" stroke="#63b8ff" points="716.94,-526.62 727.52,-526.1 718.92,-519.91 716.94,-526.62"/>
</a>
</g>
</g>
<!-- Node20 -->
<g id="Node000020" class="node">
<title>Node20</title>
<g id="a_Node000020"><a xlink:href="../../d5/d72/classLSM1x0A__LoRaWAN.html#a6b179d5825c49af0f391dfc539912f64" target="_top" xlink:title="Sets the delay for the Join1 receive window.">
<polygon fill="white" stroke="#666666" points="862.25,-470.95 709,-470.95 709,-438.95 862.25,-438.95 862.25,-470.95"/>
<text text-anchor="start" x="717" y="-457.45" font-family="Helvetica,sans-Serif" font-size="10.00">LSM1x0A_LoRaWAN::setJoin1</text>
<text text-anchor="middle" x="785.62" y="-445.45" font-family="Helvetica,sans-Serif" font-size="10.00">Delay</text>
</a>
</g>
</g>
<!-- Node12&#45;&gt;Node20 -->
<g id="edge32_Node000012_Node000020" class="edge">
<title>Node12&#45;&gt;Node20</title>
<g id="a_edge32_Node000012_Node000020"><a xlink:title=" ">
<path fill="none" stroke="#63b8ff" d="M647.11,-471.96C663.46,-469.94 680.97,-467.77 697.83,-465.69"/>
<polygon fill="#63b8ff" stroke="#63b8ff" points="697.8,-469.22 707.3,-464.52 696.94,-462.27 697.8,-469.22"/>
</a>
</g>
</g>
<!-- Node21 -->
<g id="Node000021" class="node">
<title>Node21</title>
<g id="a_Node000021"><a xlink:href="../../d5/d72/classLSM1x0A__LoRaWAN.html#a4545d0caad41558cdb9bae8286b104d8" target="_top" xlink:title="Sets the delay for the Join2 receive window.">
<polygon fill="white" stroke="#666666" points="862.25,-420.95 709,-420.95 709,-388.95 862.25,-388.95 862.25,-420.95"/>
<text text-anchor="start" x="717" y="-407.45" font-family="Helvetica,sans-Serif" font-size="10.00">LSM1x0A_LoRaWAN::setJoin2</text>
<text text-anchor="middle" x="785.62" y="-395.45" font-family="Helvetica,sans-Serif" font-size="10.00">Delay</text>
</a>
</g>
</g>
<!-- Node12&#45;&gt;Node21 -->
<g id="edge34_Node000012_Node000021" class="edge">
<title>Node12&#45;&gt;Node21</title>
<g id="a_edge34_Node000012_Node000021"><a xlink:title=" ">
<path fill="none" stroke="#63b8ff" d="M607.41,-464.52C629.92,-453.71 660.67,-439.8 688.75,-429.95 694.04,-428.09 699.54,-426.3 705.11,-424.59"/>
<polygon fill="#63b8ff" stroke="#63b8ff" points="705.82,-428.03 714.41,-421.84 703.83,-421.32 705.82,-428.03"/>
</a>
</g>
</g>
<!-- Node22 -->
<g id="Node000022" class="node">
<title>Node22</title>
<g id="a_Node000022"><a xlink:href="../../d5/d72/classLSM1x0A__LoRaWAN.html#a06bd50723ec1eb7e144c9141b2ec86fc" target="_top" xlink:title="Sets the LoRaWAN Network ID (NetID).">
<polygon fill="white" stroke="#666666" points="866,-370.95 705.25,-370.95 705.25,-350.95 866,-350.95 866,-370.95"/>
<text text-anchor="middle" x="785.62" y="-357.45" font-family="Helvetica,sans-Serif" font-size="10.00">LSM1x0A_LoRaWAN::setNwkID</text>
</a>
</g>
</g>
<!-- Node12&#45;&gt;Node22 -->
<g id="edge36_Node000012_Node000022" class="edge">
<title>Node12&#45;&gt;Node22</title>
<g id="a_edge36_Node000012_Node000022"><a xlink:title=" ">
<path fill="none" stroke="#63b8ff" d="M587.76,-464.74C607.35,-441.98 646.28,-400.98 688.75,-379.95 692.43,-378.13 696.26,-376.48 700.2,-374.99"/>
<polygon fill="#63b8ff" stroke="#63b8ff" points="701.01,-378.41 709.36,-371.9 698.77,-371.78 701.01,-378.41"/>
</a>
</g>
</g>
<!-- Node23 -->
<g id="Node000023" class="node">
<title>Node23</title>
<g id="a_Node000023"><a xlink:href="../../d5/d72/classLSM1x0A__LoRaWAN.html#aa70ada64d28ecca216bb62268e502adf" target="_top" xlink:title="Sets the delay for the RX1 receive window.">
<polygon fill="white" stroke="#666666" points="872.38,-332.95 698.88,-332.95 698.88,-312.95 872.38,-312.95 872.38,-332.95"/>
<text text-anchor="middle" x="785.62" y="-319.45" font-family="Helvetica,sans-Serif" font-size="10.00">LSM1x0A_LoRaWAN::setRx1Delay</text>
</a>
</g>
</g>
<!-- Node12&#45;&gt;Node23 -->
<g id="edge38_Node000012_Node000023" class="edge">
<title>Node12&#45;&gt;Node23</title>
<g id="a_edge38_Node000012_Node000023"><a xlink:title=" ">
<path fill="none" stroke="#63b8ff" d="M582.95,-464.54C599.15,-434.88 637.55,-372.58 688.75,-341.95 691.23,-340.46 693.81,-339.09 696.46,-337.82"/>
<polygon fill="#63b8ff" stroke="#63b8ff" points="697.71,-341.09 705.59,-334.02 695.01,-334.63 697.71,-341.09"/>
</a>
</g>
</g>
<!-- Node24 -->
<g id="Node000024" class="node">
<title>Node24</title>
<g id="a_Node000024"><a xlink:href="../../d5/d72/classLSM1x0A__LoRaWAN.html#a2cf4eff0181b6107d082bccefa24217b" target="_top" xlink:title="Sets the Data Rate (DR) specifically for the RX2 window.">
<polygon fill="white" stroke="#666666" points="880.62,-294.95 690.62,-294.95 690.62,-274.95 880.62,-274.95 880.62,-294.95"/>
<text text-anchor="middle" x="785.62" y="-281.45" font-family="Helvetica,sans-Serif" font-size="10.00">LSM1x0A_LoRaWAN::setRx2DataRate</text>
</a>
</g>
</g>
<!-- Node12&#45;&gt;Node24 -->
<g id="edge40_Node000012_Node000024" class="edge">
<title>Node12&#45;&gt;Node24</title>
<g id="a_edge40_Node000012_Node000024"><a xlink:title=" ">
<path fill="none" stroke="#63b8ff" d="M580.02,-464.61C592.9,-429.11 628.54,-344.84 688.75,-303.95 690.72,-302.61 692.77,-301.36 694.88,-300.19"/>
<polygon fill="#63b8ff" stroke="#63b8ff" points="696.21,-303.43 703.73,-295.97 693.2,-297.11 696.21,-303.43"/>
</a>
</g>
</g>
<!-- Node25 -->
<g id="Node000025" class="node">
<title>Node25</title>
<g id="a_Node000025"><a xlink:href="../../d5/d72/classLSM1x0A__LoRaWAN.html#a42d2137b475b57e19d891a5f1ac93221" target="_top" xlink:title="Sets the delay for the RX2 receive window.">
<polygon fill="white" stroke="#666666" points="872.38,-256.95 698.88,-256.95 698.88,-236.95 872.38,-236.95 872.38,-256.95"/>
<text text-anchor="middle" x="785.62" y="-243.45" font-family="Helvetica,sans-Serif" font-size="10.00">LSM1x0A_LoRaWAN::setRx2Delay</text>
</a>
</g>
</g>
<!-- Node12&#45;&gt;Node25 -->
<g id="edge42_Node000012_Node000025" class="edge">
<title>Node12&#45;&gt;Node25</title>
<g id="a_edge42_Node000012_Node000025"><a xlink:title=" ">
<path fill="none" stroke="#63b8ff" d="M578.09,-464.6C587.93,-423.89 619.36,-317.5 688.75,-265.95 690.34,-264.76 691.99,-263.65 693.68,-262.6"/>
<polygon fill="#63b8ff" stroke="#63b8ff" points="695.26,-265.72 702.48,-257.97 692,-259.53 695.26,-265.72"/>
</a>
</g>
</g>
<!-- Node26 -->
<g id="Node000026" class="node">
<title>Node26</title>
<g id="a_Node000026"><a xlink:href="../../d5/d72/classLSM1x0A__LoRaWAN.html#a689f7dfda1dfeae11ea397c2ddf2ad37" target="_top" xlink:title="Sets the precise frequency for the RX2 window.">
<polygon fill="white" stroke="#666666" points="882.5,-218.95 688.75,-218.95 688.75,-198.95 882.5,-198.95 882.5,-218.95"/>
<text text-anchor="middle" x="785.62" y="-205.45" font-family="Helvetica,sans-Serif" font-size="10.00">LSM1x0A_LoRaWAN::setRx2Frequency</text>
</a>
</g>
</g>
<!-- Node12&#45;&gt;Node26 -->
<g id="edge44_Node000012_Node000026" class="edge">
<title>Node12&#45;&gt;Node26</title>
<g id="a_edge44_Node000012_Node000026"><a xlink:title=" ">
<path fill="none" stroke="#63b8ff" d="M576.71,-464.5C583.76,-418.96 610.06,-290.44 688.75,-227.95 690.08,-226.89 691.45,-225.89 692.86,-224.94"/>
<polygon fill="#63b8ff" stroke="#63b8ff" points="694.36,-228.11 701.32,-220.12 690.9,-222.03 694.36,-228.11"/>
</a>
</g>
</g>
<!-- Node27 -->
<g id="Node000027" class="node">
<title>Node27</title>
<g id="a_Node000027"><a xlink:href="../../d5/d72/classLSM1x0A__LoRaWAN.html#a1df10d7ae6bf45b537d28d3d5c4b88d7" target="_top" xlink:title="Sets the transmission power index.">
<polygon fill="white" stroke="#666666" points="870.12,-180.95 701.12,-180.95 701.12,-160.95 870.12,-160.95 870.12,-180.95"/>
<text text-anchor="middle" x="785.62" y="-167.45" font-family="Helvetica,sans-Serif" font-size="10.00">LSM1x0A_LoRaWAN::setTxPower</text>
</a>
</g>
</g>
<!-- Node12&#45;&gt;Node27 -->
<g id="edge46_Node000012_Node000027" class="edge">
<title>Node12&#45;&gt;Node27</title>
<g id="a_edge46_Node000012_Node000027"><a xlink:title=" ">
<path fill="none" stroke="#63b8ff" d="M575.64,-464.65C580.05,-414.88 600.46,-263.73 688.75,-189.95 689.89,-189 691.05,-188.09 692.25,-187.23"/>
<polygon fill="#63b8ff" stroke="#63b8ff" points="693.93,-190.3 700.68,-182.14 690.31,-184.31 693.93,-190.3"/>
</a>
</g>
</g>
<!-- Node28 -->
<g id="Node000028" class="node">
<title>Node28</title>
<g id="a_Node000028"><a xlink:href="../../d5/d72/classLSM1x0A__LoRaWAN.html#a059fd6a9356c4ecadd5a98294da5952d" target="_top" xlink:title="Configures the number of repetitions for Unconfirmed uplinks.">
<polygon fill="white" stroke="#666666" points="873.12,-142.95 698.12,-142.95 698.12,-110.95 873.12,-110.95 873.12,-142.95"/>
<text text-anchor="start" x="706.12" y="-129.45" font-family="Helvetica,sans-Serif" font-size="10.00">LSM1x0A_LoRaWAN::setUnconfirm</text>
<text text-anchor="middle" x="785.62" y="-117.45" font-family="Helvetica,sans-Serif" font-size="10.00">Retry</text>
</a>
</g>
</g>
<!-- Node12&#45;&gt;Node28 -->
<g id="edge48_Node000012_Node000028" class="edge">
<title>Node12&#45;&gt;Node28</title>
<g id="a_edge48_Node000012_Node000028"><a xlink:title=" ">
<path fill="none" stroke="#63b8ff" d="M575.02,-464.75C577.65,-411.46 593.48,-239.96 688.75,-151.95 689.52,-151.23 690.32,-150.54 691.12,-149.86"/>
<polygon fill="#63b8ff" stroke="#63b8ff" points="692.97,-152.84 699.12,-144.21 688.94,-147.12 692.97,-152.84"/>
</a>
</g>
</g>
<!-- Node13&#45;&gt;Node2 -->
<g id="edge18_Node000013_Node000002" class="edge">
<title>Node13&#45;&gt;Node2</title>
<g id="a_edge18_Node000013_Node000002"><a xlink:title=" ">
<path fill="none" stroke="#63b8ff" d="M710.61,-778.49C601.39,-761.69 404.33,-725.64 352.25,-677.95 301.6,-631.57 278.37,-550.58 269.25,-508.34"/>
<polygon fill="#63b8ff" stroke="#63b8ff" points="272.73,-507.86 267.3,-498.76 265.87,-509.26 272.73,-507.86"/>
</a>
</g>
</g>
<!-- Node14&#45;&gt;Node2 -->
<g id="edge20_Node000014_Node000002" class="edge">
<title>Node14&#45;&gt;Node2</title>
<g id="a_edge20_Node000014_Node000002"><a xlink:title=" ">
<path fill="none" stroke="#63b8ff" d="M712.98,-740.46C604.92,-723.42 407.01,-687.03 352.25,-641.95 308.98,-606.32 283.62,-543.61 271.99,-507.88"/>
<polygon fill="#63b8ff" stroke="#63b8ff" points="275.46,-507.24 269.14,-498.74 268.77,-509.32 275.46,-507.24"/>
</a>
</g>
</g>
<!-- Node15&#45;&gt;Node2 -->
<g id="edge23_Node000015_Node000002" class="edge">
<title>Node15&#45;&gt;Node2</title>
<g id="a_edge23_Node000015_Node000002"><a xlink:title=" ">
<path fill="none" stroke="#63b8ff" d="M702.99,-696.13C593.58,-680.29 406.82,-648.15 352.25,-606.95 317.13,-580.43 290.74,-535.78 276.4,-507.37"/>
<polygon fill="#63b8ff" stroke="#63b8ff" points="279.71,-506.16 272.17,-498.71 273.42,-509.23 279.71,-506.16"/>
</a>
</g>
</g>
<!-- Node16&#45;&gt;Node2 -->
<g id="edge25_Node000016_Node000002" class="edge">
<title>Node16&#45;&gt;Node2</title>
<g id="a_edge25_Node000016_Node000002"><a xlink:title=" ">
<path fill="none" stroke="#63b8ff" d="M699.52,-660.63C607.81,-654.66 460.46,-634.71 352.25,-569.95 324.57,-553.38 299.39,-526.09 283.13,-506.09"/>
<polygon fill="#63b8ff" stroke="#63b8ff" points="285.99,-504.06 277.04,-498.39 280.5,-508.41 285.99,-504.06"/>
</a>
</g>
</g>
<!-- Node17&#45;&gt;Node2 -->
<g id="edge27_Node000017_Node000002" class="edge">
<title>Node17&#45;&gt;Node2</title>
<g id="a_edge27_Node000017_Node000002"><a xlink:title=" ">
<path fill="none" stroke="#63b8ff" d="M701.27,-618.09C612.01,-608.52 467.65,-586.49 352.25,-537.95 331.49,-529.22 310.24,-515.61 293.83,-503.88"/>
<polygon fill="#63b8ff" stroke="#63b8ff" points="296.12,-501.22 285.98,-498.14 291.99,-506.87 296.12,-501.22"/>
</a>
</g>
</g>
<!-- Node18&#45;&gt;Node2 -->
<g id="edge29_Node000018_Node000002" class="edge">
<title>Node18&#45;&gt;Node2</title>
<g id="a_edge29_Node000018_Node000002"><a xlink:title=" ">
<path fill="none" stroke="#63b8ff" d="M702.87,-576.91C615.28,-565.2 472.59,-543.35 352.25,-511.95 340.73,-508.94 328.57,-505.11 317.09,-501.17"/>
<polygon fill="#63b8ff" stroke="#63b8ff" points="318.35,-497.9 307.76,-497.88 316.03,-504.5 318.35,-497.9"/>
</a>
</g>
</g>
<!-- Node19&#45;&gt;Node2 -->
<g id="edge31_Node000019_Node000002" class="edge">
<title>Node19&#45;&gt;Node2</title>
<g id="a_edge31_Node000019_Node000002"><a xlink:title=" ">
<path fill="none" stroke="#63b8ff" d="M709.89,-534.04C607.21,-521.81 424.31,-500.02 327.85,-488.53"/>
<polygon fill="#63b8ff" stroke="#63b8ff" points="328.37,-485.06 318.03,-487.36 327.55,-492.01 328.37,-485.06"/>
</a>
</g>
</g>
<!-- Node20&#45;&gt;Node2 -->
<g id="edge33_Node000020_Node000002" class="edge">
<title>Node20&#45;&gt;Node2</title>
<g id="a_edge33_Node000020_Node000002"><a xlink:title=" ">
<path fill="none" stroke="#63b8ff" d="M708.75,-453.04C650.12,-452.09 566.98,-451.88 494.25,-455.95 437.87,-459.1 374.05,-466.33 327.97,-472.21"/>
<polygon fill="#63b8ff" stroke="#63b8ff" points="327.62,-468.72 318.15,-473.48 328.51,-475.67 327.62,-468.72"/>
</a>
</g>
</g>
<!-- Node21&#45;&gt;Node2 -->
<g id="edge35_Node000021_Node000002" class="edge">
<title>Node21&#45;&gt;Node2</title>
<g id="a_edge35_Node000021_Node000002"><a xlink:title=" ">
<path fill="none" stroke="#63b8ff" d="M708.63,-409.76C621.78,-416.18 475.71,-429.77 352.25,-454.95 343.58,-456.72 334.53,-458.94 325.67,-461.34"/>
<polygon fill="#63b8ff" stroke="#63b8ff" points="324.73,-457.97 316.05,-464.05 326.63,-464.71 324.73,-457.97"/>
</a>
</g>
</g>
<!-- Node22&#45;&gt;Node2 -->
<g id="edge37_Node000022_Node000002" class="edge">
<title>Node22&#45;&gt;Node2</title>
<g id="a_edge37_Node000022_Node000002"><a xlink:title=" ">
<path fill="none" stroke="#63b8ff" d="M704.96,-366.22C616.7,-373.87 471.13,-391.94 352.25,-432.95 333.76,-439.33 314.55,-449.35 298.81,-458.6"/>
<polygon fill="#63b8ff" stroke="#63b8ff" points="297.05,-455.57 290.3,-463.73 300.67,-461.56 297.05,-455.57"/>
</a>
</g>
</g>
<!-- Node23&#45;&gt;Node2 -->
<g id="edge39_Node000023_Node000002" class="edge">
<title>Node23&#45;&gt;Node2</title>
<g id="a_edge39_Node000023_Node000002"><a xlink:title=" ">
<path fill="none" stroke="#63b8ff" d="M698.49,-323.48C607.54,-327.36 462.35,-343.2 352.25,-400.95 326.01,-414.71 301.53,-438.19 285.09,-456.16"/>
<polygon fill="#63b8ff" stroke="#63b8ff" points="282.73,-453.54 278.7,-463.34 287.96,-458.2 282.73,-453.54"/>
</a>
</g>
</g>
<!-- Node24&#45;&gt;Node2 -->
<g id="edge41_Node000024_Node000002" class="edge">
<title>Node24&#45;&gt;Node2</title>
<g id="a_edge41_Node000024_Node000002"><a xlink:title=" ">
<path fill="none" stroke="#63b8ff" d="M690.4,-278.72C596.85,-277.21 453.19,-287.94 352.25,-355.95 315.75,-380.54 289.62,-425.71 275.73,-454.49"/>
<polygon fill="#63b8ff" stroke="#63b8ff" points="272.69,-452.73 271.65,-463.27 279.04,-455.68 272.69,-452.73"/>
</a>
</g>
</g>
<!-- Node25&#45;&gt;Node2 -->
<g id="edge43_Node000025_Node000002" class="edge">
<title>Node25&#45;&gt;Node2</title>
<g id="a_edge43_Node000025_Node000002"><a xlink:title=" ">
<path fill="none" stroke="#63b8ff" d="M714.85,-236.49C622.08,-226.6 457.59,-223.58 352.25,-304.95 303.61,-342.51 279.88,-414.19 270.06,-453.49"/>
<polygon fill="#63b8ff" stroke="#63b8ff" points="266.69,-452.56 267.8,-463.1 273.5,-454.17 266.69,-452.56"/>
</a>
</g>
</g>
<!-- Node26&#45;&gt;Node2 -->
<g id="edge45_Node000026_Node000002" class="edge">
<title>Node26&#45;&gt;Node2</title>
<g id="a_edge45_Node000026_Node000002"><a xlink:title=" ">
<path fill="none" stroke="#63b8ff" d="M688.42,-205.86C576.97,-204.31 402.25,-208.72 352.25,-248.95 288.36,-300.36 270.83,-403.6 266.04,-453.16"/>
<polygon fill="#63b8ff" stroke="#63b8ff" points="262.56,-452.77 265.2,-463.03 269.53,-453.36 262.56,-452.77"/>
</a>
</g>
</g>
<!-- Node27&#45;&gt;Node2 -->
<g id="edge47_Node000027_Node000002" class="edge">
<title>Node27&#45;&gt;Node2</title>
<g id="a_edge47_Node000027_Node000002"><a xlink:title=" ">
<path fill="none" stroke="#63b8ff" d="M737.92,-160.48C651.49,-144.01 465.14,-122.56 352.25,-212.95 277.44,-272.85 265.58,-397.78 264.15,-453.31"/>
<polygon fill="#63b8ff" stroke="#63b8ff" points="260.65,-453.1 264,-463.15 267.65,-453.21 260.65,-453.1"/>
</a>
</g>
</g>
<!-- Node28&#45;&gt;Node2 -->
<g id="edge49_Node000028_Node000002" class="edge">
<title>Node28&#45;&gt;Node2</title>
<g id="a_edge49_Node000028_Node000002"><a xlink:title=" ">
<path fill="none" stroke="#63b8ff" d="M697.74,-121.55C586.65,-116.57 402.62,-115.39 352.25,-157.95 306.4,-196.69 277.25,-383.18 267.7,-453.79"/>
<polygon fill="#63b8ff" stroke="#63b8ff" points="264.28,-452.95 266.44,-463.32 271.22,-453.87 264.28,-452.95"/>
</a>
</g>
</g>
<!-- Node30&#45;&gt;Node31 -->
<g id="edge52_Node000030_Node000031" class="edge">
<title>Node30&#45;&gt;Node31</title>
<g id="a_edge52_Node000030_Node000031"><a xlink:title=" ">
<path fill="none" stroke="#63b8ff" d="M626.98,-1092.44C645.14,-1094.34 666.11,-1096.54 686.72,-1098.7"/>
<polygon fill="#63b8ff" stroke="#63b8ff" points="686.29,-1102.17 696.6,-1099.73 687.02,-1095.21 686.29,-1102.17"/>
</a>
</g>
</g>
<!-- Node32 -->
<g id="Node000032" class="node">
<title>Node32</title>
<g id="a_Node000032"><a xlink:href="../../d6/d3c/classLSM1x0A__AtParser.html#a0ba6f927c54fceece22c17773d3f2600" target="_top" xlink:title="Sends a command and extracts a value from the response.">
<polygon fill="white" stroke="#666666" points="1100.62,-1124.95 926.38,-1124.95 926.38,-1092.95 1100.62,-1092.95 1100.62,-1124.95"/>
<text text-anchor="start" x="934.38" y="-1111.45" font-family="Helvetica,sans-Serif" font-size="10.00">LSM1x0A_AtParser::sendCommand</text>
<text text-anchor="middle" x="1013.5" y="-1099.45" font-family="Helvetica,sans-Serif" font-size="10.00">WithResponse</text>
</a>
</g>
</g>
<!-- Node31&#45;&gt;Node32 -->
<g id="edge53_Node000031_Node000032" class="edge">
<title>Node31&#45;&gt;Node32</title>
<g id="a_edge53_Node000031_Node000032"><a xlink:title=" ">
<path fill="none" stroke="#63b8ff" d="M872.99,-1108.95C886.74,-1108.95 901.06,-1108.95 915.05,-1108.95"/>
<polygon fill="#63b8ff" stroke="#63b8ff" points="914.67,-1112.45 924.67,-1108.95 914.67,-1105.45 914.67,-1112.45"/>
</a>
</g>
</g>
<!-- Node33 -->
<g id="Node000033" class="node">
<title>Node33</title>
<g id="a_Node000033"><a xlink:href="../../d5/d8b/classUartDriver.html#a5d0f22e8867eebe99273078bb19bd23d" target="_top" xlink:title="Sends data through UART.">
<polygon fill="white" stroke="#666666" points="1275.25,-1118.95 1166.25,-1118.95 1166.25,-1098.95 1275.25,-1098.95 1275.25,-1118.95"/>
<text text-anchor="middle" x="1220.75" y="-1105.45" font-family="Helvetica,sans-Serif" font-size="10.00">UartDriver::sendData</text>
</a>
</g>
</g>
<!-- Node32&#45;&gt;Node33 -->
<g id="edge54_Node000032_Node000033" class="edge">
<title>Node32&#45;&gt;Node33</title>
<g id="a_edge54_Node000032_Node000033"><a xlink:title=" ">
<path fill="none" stroke="#63b8ff" d="M1100.95,-1108.95C1118.84,-1108.95 1137.41,-1108.95 1154.39,-1108.95"/>
<polygon fill="#63b8ff" stroke="#63b8ff" points="1154.36,-1112.45 1164.36,-1108.95 1154.36,-1105.45 1154.36,-1112.45"/>
</a>
</g>
</g>
</g>
</svg>

<g id="navigator" transform="translate(0 0)" fill="#404254">
  <rect fill="#f2f5e9" fill-opacity="0.5" stroke="#606060" stroke-width=".5" x="0" y="0" width="60" height="60"/>
  <use id="zoomplus" xlink:href="#zoomPlus" x="17" y="9" onmousedown="handleZoom(evt,'in')"/>
  <use id="zoomminus" xlink:href="#zoomMin" x="42" y="9" onmousedown="handleZoom(evt,'out')"/>
  <use id="reset" xlink:href="#resetDef" x="30" y="36" onmousedown="handleReset()"/>
   <use id="arrowup" xlink:href="#arrowUp" x="0" y="0" onmousedown="handlePan(0,-1)"/>
  <use id="arrowright" xlink:href="#arrowRight" x="0" y="0" onmousedown="handlePan(1,0)"/>
  <use id="arrowdown" xlink:href="#arrowDown" x="0" y="0" onmousedown="handlePan(0,1)"/>
  <use id="arrowleft" xlink:href="#arrowLeft" x="0" y="0" onmousedown="handlePan(-1,0)"/>
</g>
<svg viewBox="0 0 15 15" width="100%" height="30px" preserveAspectRatio="xMaxYMin meet">
 <g id="arrow_out" transform="scale(0.3 0.3)">
  <a xlink:href="classLSM1x0A__Sigfox_af65e23153fe55f18a02dd502082b720c_cgraph_org.svg" target="_base">
   <rect id="button" ry="5" rx="5" y="6" x="6" height="38" width="38"
        fill="#f2f5e9" fill-opacity="0.5" stroke="#606060" stroke-width="1.0"/>
   <path id="arrow"
     d="M 11.500037,31.436501 C 11.940474,20.09759 22.043105,11.32322 32.158766,21.979434 L 37.068811,17.246167 C 37.068811,17.246167 37.088388,32 37.088388,32 L 22.160133,31.978069 C 22.160133,31.978069 26.997745,27.140456 26.997745,27.140456 C 18.528582,18.264221 13.291696,25.230495 11.500037,31.436501 z"
     style="fill:#404040;"/>
  </a>
 </g>
</svg>

<style type='text/css'>
<![CDATA[
[data-mouse-over-selected='false'] { opacity: 0.7; }
[data-mouse-over-selected='true']  { opacity: 1.0; }
]]>
</style>
<script type="application/ecmascript"><![CDATA[
document.addEventListener('DOMContentLoaded', (event) => {
  highlightEdges();
  highlightAdjacentNodes();
});
]]></script>
</svg>
