<?xml version="1.0" encoding="UTF-8" standalone="no"?>
<!DOCTYPE svg PUBLIC "-//W3C//DTD SVG 1.1//EN"
 "http://www.w3.org/Graphics/SVG/1.1/DTD/svg11.dtd">
<!-- Generated by graphviz version 12.2.1 (20241206.2353)
 -->
<!-- Title: LSM1x0A_Sigfox::getPublicKeyMode Pages: 1 -->
<svg width="1838pt" height="1018pt"
 viewBox="0.00 0.00 1837.50 1018.48" xmlns="http://www.w3.org/2000/svg" xmlns:xlink="http://www.w3.org/1999/xlink">
<g id="graph0" class="graph" transform="scale(1 1) rotate(0) translate(4 1014.48)">
<title>LSM1x0A_Sigfox::getPublicKeyMode</title>
<!-- Node1 -->
<g id="Node000001" class="node">
<title>Node1</title>
<g id="a_Node000001"><a xlink:title="Checks if Public Key mode is active.">
<polygon fill="#999999" stroke="#666666" points="138.25,-104 0,-104 0,-72 138.25,-72 138.25,-104"/>
<text text-anchor="start" x="8" y="-90.5" font-family="Helvetica,sans-Serif" font-size="10.00">LSM1x0A_Sigfox::getPublic</text>
<text text-anchor="middle" x="69.12" y="-78.5" font-family="Helvetica,sans-Serif" font-size="10.00">KeyMode</text>
</a>
</g>
</g>
<!-- Node2 -->
<g id="Node000002" class="node">
<title>Node2</title>
<g id="a_Node000002"><a xlink:href="../../d8/d92/classLSM1x0A__Controller.html#ab00328d1be83aa51bce8c2a4f907c5f4" target="_top" xlink:title="Sends an AT command and captures its response in a text block. Ideal for getters (e....">
<polygon fill="white" stroke="#666666" points="326.75,-104 174.25,-104 174.25,-72 326.75,-72 326.75,-104"/>
<text text-anchor="start" x="182.25" y="-90.5" font-family="Helvetica,sans-Serif" font-size="10.00">LSM1x0A_Controller</text>
<text text-anchor="middle" x="250.5" y="-78.5" font-family="Helvetica,sans-Serif" font-size="10.00">::sendCommandWithResponse</text>
</a>
</g>
</g>
<!-- Node1&#45;&gt;Node2 -->
<g id="edge1_Node000001_Node000002" class="edge">
<title>Node1&#45;&gt;Node2</title>
<g id="a_edge1_Node000001_Node000002"><a xlink:title=" ">
<path fill="none" stroke="#63b8ff" d="M138.71,-88C146.5,-88 154.53,-88 162.52,-88"/>
<polygon fill="#63b8ff" stroke="#63b8ff" points="162.27,-91.5 172.27,-88 162.27,-84.5 162.27,-91.5"/>
</a>
</g>
</g>
<!-- Node3 -->
<g id="Node000003" class="node">
<title>Node3</title>
<g id="a_Node000003"><a xlink:href="../../d8/d92/classLSM1x0A__Controller.html#abb0eb380daa3dfb7acffb483c5db8e2b" target="_top" xlink:title="Executes the recovery protocol. First Soft&#45;Reset (ATZ), then Hard&#45;Reset if there is a pin.">
<polygon fill="white" stroke="#666666" points="468.75,-214 362.75,-214 362.75,-182 468.75,-182 468.75,-214"/>
<text text-anchor="start" x="370.75" y="-200.5" font-family="Helvetica,sans-Serif" font-size="10.00">LSM1x0A_Controller</text>
<text text-anchor="middle" x="415.75" y="-188.5" font-family="Helvetica,sans-Serif" font-size="10.00">::recoverModule</text>
</a>
</g>
</g>
<!-- Node2&#45;&gt;Node3 -->
<g id="edge2_Node000002_Node000003" class="edge">
<title>Node2&#45;&gt;Node3</title>
<g id="a_edge2_Node000002_Node000003"><a xlink:title=" ">
<path fill="none" stroke="#63b8ff" d="M275.94,-104.47C303.91,-123.32 349.89,-154.29 381.2,-175.39"/>
<polygon fill="#63b8ff" stroke="#63b8ff" points="378.91,-178.07 389.15,-180.75 382.82,-172.26 378.91,-178.07"/>
</a>
</g>
</g>
<!-- Node12 -->
<g id="Node000012" class="node">
<title>Node12</title>
<g id="a_Node000012"><a xlink:href="../../d6/d3c/classLSM1x0A__AtParser.html#a0ba6f927c54fceece22c17773d3f2600" target="_top" xlink:title="Sends a command and extracts a value from the response.">
<polygon fill="white" stroke="#666666" points="1684.5,-287 1510.25,-287 1510.25,-255 1684.5,-255 1684.5,-287"/>
<text text-anchor="start" x="1518.25" y="-273.5" font-family="Helvetica,sans-Serif" font-size="10.00">LSM1x0A_AtParser::sendCommand</text>
<text text-anchor="middle" x="1597.38" y="-261.5" font-family="Helvetica,sans-Serif" font-size="10.00">WithResponse</text>
</a>
</g>
</g>
<!-- Node2&#45;&gt;Node12 -->
<g id="edge57_Node000002_Node000012" class="edge">
<title>Node2&#45;&gt;Node12</title>
<g id="a_edge57_Node000002_Node000012"><a xlink:title=" ">
<path fill="none" stroke="#63b8ff" d="M287.94,-71.65C348.11,-46.21 472.54,0 583,0 583,0 583,0 1188.75,0 1365.69,0 1524.45,-179.26 1577.56,-246.19"/>
<polygon fill="#63b8ff" stroke="#63b8ff" points="1574.49,-247.95 1583.41,-253.67 1580,-243.64 1574.49,-247.95"/>
</a>
</g>
</g>
<!-- Node4 -->
<g id="Node000004" class="node">
<title>Node4</title>
<g id="a_Node000004"><a xlink:href="../../d8/d92/classLSM1x0A__Controller.html#a3f6f25b843fe4fb7042c544deae2ab16" target="_top" xlink:title="Manually clears bits from the internal EventGroup.">
<polygon fill="white" stroke="#666666" points="1031.62,-98 925.62,-98 925.62,-66 1031.62,-66 1031.62,-98"/>
<text text-anchor="start" x="933.62" y="-84.5" font-family="Helvetica,sans-Serif" font-size="10.00">LSM1x0A_Controller</text>
<text text-anchor="middle" x="978.62" y="-72.5" font-family="Helvetica,sans-Serif" font-size="10.00">::clearEvents</text>
</a>
</g>
</g>
<!-- Node3&#45;&gt;Node4 -->
<g id="edge3_Node000003_Node000004" class="edge">
<title>Node3&#45;&gt;Node4</title>
<g id="a_edge3_Node000003_Node000004"><a xlink:title=" ">
<path fill="none" stroke="#63b8ff" d="M441.43,-181.53C458.48,-171 482.09,-158.03 504.75,-151 650.4,-105.82 695.48,-138.94 845.75,-113 868.25,-109.12 892.65,-103.72 914.27,-98.52"/>
<polygon fill="#63b8ff" stroke="#63b8ff" points="914.95,-101.96 923.83,-96.18 913.28,-95.16 914.95,-101.96"/>
</a>
</g>
</g>
<!-- Node5 -->
<g id="Node000005" class="node">
<title>Node5</title>
<g id="a_Node000005"><a xlink:href="../../d8/d92/classLSM1x0A__Controller.html#a345d4bd79fa16b18dc33a4ca788fe5f7" target="_top" xlink:title="Performs a hardware reset using the reset pin.">
<polygon fill="white" stroke="#666666" points="637,-104 531,-104 531,-72 637,-72 637,-104"/>
<text text-anchor="start" x="539" y="-90.5" font-family="Helvetica,sans-Serif" font-size="10.00">LSM1x0A_Controller</text>
<text text-anchor="middle" x="584" y="-78.5" font-family="Helvetica,sans-Serif" font-size="10.00">::hardwareReset</text>
</a>
</g>
</g>
<!-- Node3&#45;&gt;Node5 -->
<g id="edge4_Node000003_Node000005" class="edge">
<title>Node3&#45;&gt;Node5</title>
<g id="a_edge4_Node000003_Node000005"><a xlink:title=" ">
<path fill="none" stroke="#63b8ff" d="M431.21,-181.63C447.57,-163.93 475.74,-135.86 504.75,-118 510.02,-114.76 515.69,-111.77 521.49,-109.03"/>
<polygon fill="#63b8ff" stroke="#63b8ff" points="522.89,-112.24 530.63,-104.99 520.06,-105.83 522.89,-112.24"/>
</a>
</g>
</g>
<!-- Node7 -->
<g id="Node000007" class="node">
<title>Node7</title>
<g id="a_Node000007"><a xlink:href="../../d5/d72/classLSM1x0A__LoRaWAN.html#a1892801e37c8cd67d37c76108d6f7d49" target="_top" xlink:title="Validates if the device is currently Joined to the network. (Either confirmed by OTAA or statically a...">
<polygon fill="white" stroke="#666666" points="1264,-136 1111.5,-136 1111.5,-116 1264,-116 1264,-136"/>
<text text-anchor="middle" x="1187.75" y="-122.5" font-family="Helvetica,sans-Serif" font-size="10.00">LSM1x0A_LoRaWAN::isJoined</text>
</a>
</g>
</g>
<!-- Node3&#45;&gt;Node7 -->
<g id="edge6_Node000003_Node000007" class="edge">
<title>Node3&#45;&gt;Node7</title>
<g id="a_edge6_Node000003_Node000007"><a xlink:title=" ">
<path fill="none" stroke="#63b8ff" d="M421.68,-181.77C431.74,-151.92 457.73,-88.97 504.75,-63 615.79,-1.69 953.51,-22.24 1075.5,-57 1110.57,-66.99 1145.37,-91.56 1166.47,-108.51"/>
<polygon fill="#63b8ff" stroke="#63b8ff" points="1164.05,-111.05 1173.99,-114.72 1168.51,-105.65 1164.05,-111.05"/>
</a>
</g>
</g>
<!-- Node8 -->
<g id="Node000008" class="node">
<title>Node8</title>
<g id="a_Node000008"><a xlink:href="../../d5/d72/classLSM1x0A__LoRaWAN.html#a83e11c0e74ff9e0757db616ab1163424" target="_top" xlink:title="Attempts to recover a lost connection (re&#45;executes OTAA Join if dropped).">
<polygon fill="white" stroke="#666666" points="658.38,-192 509.62,-192 509.62,-160 658.38,-160 658.38,-192"/>
<text text-anchor="start" x="517.62" y="-178.5" font-family="Helvetica,sans-Serif" font-size="10.00">LSM1x0A_LoRaWAN::recover</text>
<text text-anchor="middle" x="584" y="-166.5" font-family="Helvetica,sans-Serif" font-size="10.00">Connection</text>
</a>
</g>
</g>
<!-- Node3&#45;&gt;Node8 -->
<g id="edge7_Node000003_Node000008" class="edge">
<title>Node3&#45;&gt;Node8</title>
<g id="a_edge7_Node000003_Node000008"><a xlink:title=" ">
<path fill="none" stroke="#63b8ff" d="M468.9,-191.1C478.24,-189.86 488.19,-188.55 498.17,-187.23"/>
<polygon fill="#63b8ff" stroke="#63b8ff" points="498.47,-190.72 507.92,-185.94 497.55,-183.78 498.47,-190.72"/>
</a>
</g>
</g>
<!-- Node16 -->
<g id="Node000016" class="node">
<title>Node16</title>
<g id="a_Node000016"><a xlink:href="../../d5/d72/classLSM1x0A__LoRaWAN.html#ae3be4ce59dfa200369733317df356e97" target="_top" xlink:title="Pushes the RAM&#45;cached variables back down into the hardware module. Restores the operational state af...">
<polygon fill="white" stroke="#666666" points="845.75,-539 699.25,-539 699.25,-507 845.75,-507 845.75,-539"/>
<text text-anchor="start" x="707.25" y="-525.5" font-family="Helvetica,sans-Serif" font-size="10.00">LSM1x0A_LoRaWAN::restore</text>
<text text-anchor="middle" x="772.5" y="-513.5" font-family="Helvetica,sans-Serif" font-size="10.00">Config</text>
</a>
</g>
</g>
<!-- Node3&#45;&gt;Node16 -->
<g id="edge20_Node000003_Node000016" class="edge">
<title>Node3&#45;&gt;Node16</title>
<g id="a_edge20_Node000003_Node000016"><a xlink:title=" ">
<path fill="none" stroke="#63b8ff" d="M434.34,-214.12C492.26,-267.18 677.19,-436.6 745.67,-499.34"/>
<polygon fill="#63b8ff" stroke="#63b8ff" points="742.95,-501.59 752.69,-505.76 747.68,-496.43 742.95,-501.59"/>
</a>
</g>
</g>
<!-- Node33 -->
<g id="Node000033" class="node">
<title>Node33</title>
<g id="a_Node000033"><a xlink:href="../../d5/d72/classLSM1x0A__LoRaWAN.html#ace4b04396f1de1f4a54f513f5f378db7" target="_top" xlink:title="Manually overrides the internal joined state tracker.">
<polygon fill="white" stroke="#666666" points="663.25,-939 504.75,-939 504.75,-919 663.25,-919 663.25,-939"/>
<text text-anchor="middle" x="584" y="-925.5" font-family="Helvetica,sans-Serif" font-size="10.00">LSM1x0A_LoRaWAN::setJoined</text>
</a>
</g>
</g>
<!-- Node3&#45;&gt;Node33 -->
<g id="edge54_Node000003_Node000033" class="edge">
<title>Node3&#45;&gt;Node33</title>
<g id="a_edge54_Node000003_Node000033"><a xlink:title=" ">
<path fill="none" stroke="#63b8ff" d="M416.47,-214.4C415.15,-310.08 413.08,-795.83 504.75,-905 507.17,-907.88 509.93,-910.43 512.93,-912.67"/>
<polygon fill="#63b8ff" stroke="#63b8ff" points="510.91,-915.54 521.27,-917.75 514.55,-909.56 510.91,-915.54"/>
</a>
</g>
</g>
<!-- Node34 -->
<g id="Node000034" class="node">
<title>Node34</title>
<g id="a_Node000034"><a xlink:href="../../d8/d92/classLSM1x0A__Controller.html#a11ad21cb5ca33ec51346764a23bd485e" target="_top" xlink:title="Performs a software reset (ATZ Command).">
<polygon fill="white" stroke="#666666" points="1240.75,-795 1134.75,-795 1134.75,-763 1240.75,-763 1240.75,-795"/>
<text text-anchor="start" x="1142.75" y="-781.5" font-family="Helvetica,sans-Serif" font-size="10.00">LSM1x0A_Controller</text>
<text text-anchor="middle" x="1187.75" y="-769.5" font-family="Helvetica,sans-Serif" font-size="10.00">::softwareReset</text>
</a>
</g>
</g>
<!-- Node3&#45;&gt;Node34 -->
<g id="edge55_Node000003_Node000034" class="edge">
<title>Node3&#45;&gt;Node34</title>
<g id="a_edge55_Node000003_Node000034"><a xlink:title=" ">
<path fill="none" stroke="#63b8ff" d="M417.39,-214.18C421.66,-318.83 447.75,-897.3 504.75,-948 569.94,-1005.99 837.89,-1058.87 1075.5,-932 1126.96,-904.52 1160.57,-841.52 1176.32,-805.51"/>
<polygon fill="#63b8ff" stroke="#63b8ff" points="1179.39,-807.25 1180.05,-796.67 1172.94,-804.53 1179.39,-807.25"/>
</a>
</g>
</g>
<!-- Node6 -->
<g id="Node000006" class="node">
<title>Node6</title>
<g id="a_Node000006"><a xlink:href="../../d6/d3c/classLSM1x0A__AtParser.html#ad2839120da13e56132b95019419be1e5" target="_top" xlink:title="Waits for an event (like BOOTALERT) without sending any command. Useful for hardware reset where the ...">
<polygon fill="white" stroke="#666666" points="842.75,-104 702.25,-104 702.25,-72 842.75,-72 842.75,-104"/>
<text text-anchor="start" x="710.25" y="-90.5" font-family="Helvetica,sans-Serif" font-size="10.00">LSM1x0A_AtParser::waitFor</text>
<text text-anchor="middle" x="772.5" y="-78.5" font-family="Helvetica,sans-Serif" font-size="10.00">Event</text>
</a>
</g>
</g>
<!-- Node5&#45;&gt;Node6 -->
<g id="edge5_Node000005_Node000006" class="edge">
<title>Node5&#45;&gt;Node6</title>
<g id="a_edge5_Node000005_Node000006"><a xlink:title=" ">
<path fill="none" stroke="#63b8ff" d="M637.45,-88C653.96,-88 672.61,-88 690.62,-88"/>
<polygon fill="#63b8ff" stroke="#63b8ff" points="690.53,-91.5 700.53,-88 690.53,-84.5 690.53,-91.5"/>
</a>
</g>
</g>
<!-- Node9 -->
<g id="Node000009" class="node">
<title>Node9</title>
<g id="a_Node000009"><a xlink:href="../../d5/d72/classLSM1x0A__LoRaWAN.html#a59f781f3cfd30c11cd3973bcb10a7baa" target="_top" xlink:title="Initiates a LoRaWAN Network Join procedure. This is a blocking function until the module fires an eve...">
<polygon fill="white" stroke="#666666" points="838.25,-186 706.75,-186 706.75,-166 838.25,-166 838.25,-186"/>
<text text-anchor="middle" x="772.5" y="-172.5" font-family="Helvetica,sans-Serif" font-size="10.00">LSM1x0A_LoRaWAN::join</text>
</a>
</g>
</g>
<!-- Node8&#45;&gt;Node9 -->
<g id="edge8_Node000008_Node000009" class="edge">
<title>Node8&#45;&gt;Node9</title>
<g id="a_edge8_Node000008_Node000009"><a xlink:title=" ">
<path fill="none" stroke="#63b8ff" d="M658.71,-176C670.67,-176 683.08,-176 695.1,-176"/>
<polygon fill="#63b8ff" stroke="#63b8ff" points="694.97,-179.5 704.97,-176 694.97,-172.5 694.97,-179.5"/>
</a>
</g>
</g>
<!-- Node9&#45;&gt;Node3 -->
<g id="edge10_Node000009_Node000003" class="edge">
<title>Node9&#45;&gt;Node3</title>
<g id="a_edge10_Node000009_Node000003"><a xlink:title=" ">
<path fill="none" stroke="#63b8ff" d="M735.77,-186.4C714.84,-191.95 687.78,-198.2 663.25,-201 593.26,-208.98 575.18,-202.2 504.75,-201 496.85,-200.87 488.56,-200.66 480.36,-200.43"/>
<polygon fill="#63b8ff" stroke="#63b8ff" points="480.48,-196.93 470.37,-200.12 480.26,-203.92 480.48,-196.93"/>
</a>
</g>
</g>
<!-- Node9&#45;&gt;Node4 -->
<g id="edge9_Node000009_Node000004" class="edge">
<title>Node9&#45;&gt;Node4</title>
<g id="a_edge9_Node000009_Node000004"><a xlink:title=" ">
<path fill="none" stroke="#63b8ff" d="M807.05,-165.52C819.8,-160.68 834.06,-154.16 845.75,-146 865.09,-132.5 861.52,-119.13 881.75,-107 891.7,-101.03 903.06,-96.47 914.4,-93"/>
<polygon fill="#63b8ff" stroke="#63b8ff" points="915.07,-96.45 923.76,-90.39 913.19,-89.7 915.07,-96.45"/>
</a>
</g>
</g>
<!-- Node10 -->
<g id="Node000010" class="node">
<title>Node10</title>
<g id="a_Node000010"><a xlink:href="../../d8/d92/classLSM1x0A__Controller.html#afd7d92e60ed6fdae696a955cdbe0ed8c" target="_top" xlink:title="Sends any AT command to the module, returning error if it fails. Internally uses the LsmAtParser logi...">
<polygon fill="white" stroke="#666666" points="1240.75,-558 1134.75,-558 1134.75,-526 1240.75,-526 1240.75,-558"/>
<text text-anchor="start" x="1142.75" y="-544.5" font-family="Helvetica,sans-Serif" font-size="10.00">LSM1x0A_Controller</text>
<text text-anchor="middle" x="1187.75" y="-532.5" font-family="Helvetica,sans-Serif" font-size="10.00">::sendCommand</text>
</a>
</g>
</g>
<!-- Node9&#45;&gt;Node10 -->
<g id="edge11_Node000009_Node000010" class="edge">
<title>Node9&#45;&gt;Node10</title>
<g id="a_edge11_Node000009_Node000010"><a xlink:title=" ">
<path fill="none" stroke="#63b8ff" d="M838.53,-171.81C916.14,-168.2 1039.91,-167.28 1075.5,-195 1177.23,-274.23 1187.49,-447.25 1187.45,-514.5"/>
<polygon fill="#63b8ff" stroke="#63b8ff" points="1183.95,-514.23 1187.35,-524.26 1190.95,-514.3 1183.95,-514.23"/>
</a>
</g>
</g>
<!-- Node14 -->
<g id="Node000014" class="node">
<title>Node14</title>
<g id="a_Node000014"><a xlink:href="../../d5/d72/classLSM1x0A__LoRaWAN.html#a3fdd1ac318a5ad2559323e5d57e36a5e" target="_top" xlink:title="Enables or disables specific sub&#45;bands for regions supporting Channel Masks (e.g.,...">
<polygon fill="white" stroke="#666666" points="1073.62,-224 883.62,-224 883.62,-204 1073.62,-204 1073.62,-224"/>
<text text-anchor="middle" x="978.62" y="-210.5" font-family="Helvetica,sans-Serif" font-size="10.00">LSM1x0A_LoRaWAN::setChannelMask</text>
</a>
</g>
</g>
<!-- Node9&#45;&gt;Node14 -->
<g id="edge16_Node000009_Node000014" class="edge">
<title>Node9&#45;&gt;Node14</title>
<g id="a_edge16_Node000009_Node000014"><a xlink:title=" ">
<path fill="none" stroke="#63b8ff" d="M829.82,-186.48C854.69,-191.12 884.14,-196.6 910.18,-201.44"/>
<polygon fill="#63b8ff" stroke="#63b8ff" points="909.53,-204.88 920,-203.27 910.81,-198 909.53,-204.88"/>
</a>
</g>
</g>
<!-- Node15 -->
<g id="Node000015" class="node">
<title>Node15</title>
<g id="a_Node000015"><a xlink:href="../../d8/d92/classLSM1x0A__Controller.html#a62476e30e50c7fe120aeb8df4b828675" target="_top" xlink:title="Synchronously/blockingly waits for an asynchronous event to occur. Useful for wrapping commands like ...">
<polygon fill="white" stroke="#666666" points="1031.62,-148 925.62,-148 925.62,-116 1031.62,-116 1031.62,-148"/>
<text text-anchor="start" x="933.62" y="-134.5" font-family="Helvetica,sans-Serif" font-size="10.00">LSM1x0A_Controller</text>
<text text-anchor="middle" x="978.62" y="-122.5" font-family="Helvetica,sans-Serif" font-size="10.00">::waitForEvent</text>
</a>
</g>
</g>
<!-- Node9&#45;&gt;Node15 -->
<g id="edge19_Node000009_Node000015" class="edge">
<title>Node9&#45;&gt;Node15</title>
<g id="a_edge19_Node000009_Node000015"><a xlink:title=" ">
<path fill="none" stroke="#63b8ff" d="M822.13,-165.52C849.74,-159.57 884.61,-152.05 914.32,-145.65"/>
<polygon fill="#63b8ff" stroke="#63b8ff" points="914.92,-149.1 923.95,-143.57 913.44,-142.25 914.92,-149.1"/>
</a>
</g>
</g>
<!-- Node10&#45;&gt;Node3 -->
<g id="edge12_Node000010_Node000003" class="edge">
<title>Node10&#45;&gt;Node3</title>
<g id="a_edge12_Node000010_Node000003"><a xlink:title=" ">
<path fill="none" stroke="#63b8ff" d="M1180.32,-558.31C1166.56,-593.61 1133.66,-679.91 1111.5,-754 1092.23,-818.44 1128.42,-859.48 1075.5,-901 1007.75,-954.16 958.19,-940.65 881.75,-901 594.43,-751.97 456.47,-335.66 424.27,-225.19"/>
<polygon fill="#63b8ff" stroke="#63b8ff" points="427.7,-224.47 421.58,-215.82 420.97,-226.4 427.7,-224.47"/>
</a>
</g>
</g>
<!-- Node11 -->
<g id="Node000011" class="node">
<title>Node11</title>
<g id="a_Node000011"><a xlink:href="../../d6/d3c/classLSM1x0A__AtParser.html#a29b53c521974387ba6c03afadfaffa4a" target="_top" xlink:title="Sends a simple command and waits for OK/ERROR. Example: sendCommand(&quot;AT+JOIN&quot;);.">
<polygon fill="white" stroke="#666666" points="1474.25,-552 1300,-552 1300,-532 1474.25,-532 1474.25,-552"/>
<text text-anchor="middle" x="1387.12" y="-538.5" font-family="Helvetica,sans-Serif" font-size="10.00">LSM1x0A_AtParser::sendCommand</text>
</a>
</g>
</g>
<!-- Node10&#45;&gt;Node11 -->
<g id="edge13_Node000010_Node000011" class="edge">
<title>Node10&#45;&gt;Node11</title>
<g id="a_edge13_Node000010_Node000011"><a xlink:title=" ">
<path fill="none" stroke="#63b8ff" d="M1241.12,-542C1255.69,-542 1272,-542 1288.28,-542"/>
<polygon fill="#63b8ff" stroke="#63b8ff" points="1288.01,-545.5 1298.01,-542 1288.01,-538.5 1288.01,-545.5"/>
</a>
</g>
</g>
<!-- Node11&#45;&gt;Node12 -->
<g id="edge14_Node000011_Node000012" class="edge">
<title>Node11&#45;&gt;Node12</title>
<g id="a_edge14_Node000011_Node000012"><a xlink:title=" ">
<path fill="none" stroke="#63b8ff" d="M1396.03,-531.71C1425.94,-492.78 1532.68,-353.88 1576.94,-296.3"/>
<polygon fill="#63b8ff" stroke="#63b8ff" points="1579.48,-298.73 1582.8,-288.67 1573.93,-294.46 1579.48,-298.73"/>
</a>
</g>
</g>
<!-- Node13 -->
<g id="Node000013" class="node">
<title>Node13</title>
<g id="a_Node000013"><a xlink:href="../../d5/d8b/classUartDriver.html#a5d0f22e8867eebe99273078bb19bd23d" target="_top" xlink:title="Sends data through UART.">
<polygon fill="white" stroke="#666666" points="1829.5,-281 1720.5,-281 1720.5,-261 1829.5,-261 1829.5,-281"/>
<text text-anchor="middle" x="1775" y="-267.5" font-family="Helvetica,sans-Serif" font-size="10.00">UartDriver::sendData</text>
</a>
</g>
</g>
<!-- Node12&#45;&gt;Node13 -->
<g id="edge15_Node000012_Node000013" class="edge">
<title>Node12&#45;&gt;Node13</title>
<g id="a_edge15_Node000012_Node000013"><a xlink:title=" ">
<path fill="none" stroke="#63b8ff" d="M1684.9,-271C1693.05,-271 1701.2,-271 1709.1,-271"/>
<polygon fill="#63b8ff" stroke="#63b8ff" points="1708.93,-274.5 1718.93,-271 1708.93,-267.5 1708.93,-274.5"/>
</a>
</g>
</g>
<!-- Node14&#45;&gt;Node7 -->
<g id="edge17_Node000014_Node000007" class="edge">
<title>Node14&#45;&gt;Node7</title>
<g id="a_edge17_Node000014_Node000007"><a xlink:title=" ">
<path fill="none" stroke="#63b8ff" d="M1004.2,-203.56C1040.79,-188.01 1109.78,-158.7 1151.67,-140.9"/>
<polygon fill="#63b8ff" stroke="#63b8ff" points="1152.98,-144.15 1160.82,-137.02 1150.24,-137.71 1152.98,-144.15"/>
</a>
</g>
</g>
<!-- Node14&#45;&gt;Node10 -->
<g id="edge18_Node000014_Node000010" class="edge">
<title>Node14&#45;&gt;Node10</title>
<g id="a_edge18_Node000014_Node000010"><a xlink:title=" ">
<path fill="none" stroke="#63b8ff" d="M1062.38,-224.28C1067.08,-226.69 1071.51,-229.57 1075.5,-233 1161.83,-307.27 1181.17,-453.75 1185.5,-514.55"/>
<polygon fill="#63b8ff" stroke="#63b8ff" points="1182,-514.57 1186.11,-524.33 1188.98,-514.13 1182,-514.57"/>
</a>
</g>
</g>
<!-- Node16&#45;&gt;Node14 -->
<g id="edge25_Node000016_Node000014" class="edge">
<title>Node16&#45;&gt;Node14</title>
<g id="a_edge25_Node000016_Node000014"><a xlink:title=" ">
<path fill="none" stroke="#63b8ff" d="M774.3,-506.78C777.68,-457.25 794.95,-306.79 881.75,-233 882.88,-232.04 884.04,-231.13 885.23,-230.25"/>
<polygon fill="#63b8ff" stroke="#63b8ff" points="886.92,-233.33 893.62,-225.12 883.27,-227.35 886.92,-233.33"/>
</a>
</g>
</g>
<!-- Node17 -->
<g id="Node000017" class="node">
<title>Node17</title>
<g id="a_Node000017"><a xlink:href="../../d5/d72/classLSM1x0A__LoRaWAN.html#af0baa3db4c7fab580d6b19a9e92472f6" target="_top" xlink:title="Enables or disables Adaptive Data Rate (ADR).">
<polygon fill="white" stroke="#666666" points="1054.5,-350 902.75,-350 902.75,-330 1054.5,-330 1054.5,-350"/>
<text text-anchor="middle" x="978.62" y="-336.5" font-family="Helvetica,sans-Serif" font-size="10.00">LSM1x0A_LoRaWAN::setADR</text>
</a>
</g>
</g>
<!-- Node16&#45;&gt;Node17 -->
<g id="edge21_Node000016_Node000017" class="edge">
<title>Node16&#45;&gt;Node17</title>
<g id="a_edge21_Node000016_Node000017"><a xlink:title=" ">
<path fill="none" stroke="#63b8ff" d="M779.31,-506.6C792.1,-473 826.1,-396.38 881.75,-359 885.02,-356.8 888.48,-354.85 892.08,-353.11"/>
<polygon fill="#63b8ff" stroke="#63b8ff" points="893.23,-356.42 901.12,-349.35 890.54,-349.96 893.23,-356.42"/>
</a>
</g>
</g>
<!-- Node18 -->
<g id="Node000018" class="node">
<title>Node18</title>
<g id="a_Node000018"><a xlink:href="../../d5/d72/classLSM1x0A__LoRaWAN.html#a5365ed1596eb84ebf1e3b33b4a10c788" target="_top" xlink:title="Sets the LoRaWAN operational frequency band.">
<polygon fill="white" stroke="#666666" points="1054.88,-312 902.38,-312 902.38,-292 1054.88,-292 1054.88,-312"/>
<text text-anchor="middle" x="978.62" y="-298.5" font-family="Helvetica,sans-Serif" font-size="10.00">LSM1x0A_LoRaWAN::setBand</text>
</a>
</g>
</g>
<!-- Node16&#45;&gt;Node18 -->
<g id="edge23_Node000016_Node000018" class="edge">
<title>Node16&#45;&gt;Node18</title>
<g id="a_edge23_Node000016_Node000018"><a xlink:title=" ">
<path fill="none" stroke="#63b8ff" d="M777.22,-506.5C786.95,-467.43 816.99,-368.94 881.75,-321 884.91,-318.66 888.29,-316.58 891.82,-314.75"/>
<polygon fill="#63b8ff" stroke="#63b8ff" points="893,-318.05 900.72,-310.8 890.16,-311.66 893,-318.05"/>
</a>
</g>
</g>
<!-- Node19 -->
<g id="Node000019" class="node">
<title>Node19</title>
<g id="a_Node000019"><a xlink:href="../../d5/d72/classLSM1x0A__LoRaWAN.html#a9d9285c43414337a0ccb3a6cd7ca06e6" target="_top" xlink:title="Configures the number of retries for Confirmed uplinks.">
<polygon fill="white" stroke="#666666" points="1060.88,-274 896.38,-274 896.38,-242 1060.88,-242 1060.88,-274"/>
<text text-anchor="start" x="904.38" y="-260.5" font-family="Helvetica,sans-Serif" font-size="10.00">LSM1x0A_LoRaWAN::setConfirm</text>
<text text-anchor="middle" x="978.62" y="-248.5" font-family="Helvetica,sans-Serif" font-size="10.00">Retry</text>
</a>
</g>
</g>
<!-- Node16&#45;&gt;Node19 -->
<g id="edge26_Node000016_Node000019" class="edge">
<title>Node16&#45;&gt;Node19</title>
<g id="a_edge26_Node000016_Node000019"><a xlink:title=" ">
<path fill="none" stroke="#63b8ff" d="M775.93,-506.7C783.3,-463.28 809.45,-344.03 881.75,-283 883.24,-281.74 884.79,-280.55 886.38,-279.41"/>
<polygon fill="#63b8ff" stroke="#63b8ff" points="888,-282.52 894.7,-274.32 884.35,-276.55 888,-282.52"/>
</a>
</g>
</g>
<!-- Node20 -->
<g id="Node000020" class="node">
<title>Node20</title>
<g id="a_Node000020"><a xlink:href="../../d5/d72/classLSM1x0A__LoRaWAN.html#a56345ceeafa0b9059d6de4e69eddc82e" target="_top" xlink:title="Sets the Data Rate (DR) of the module.">
<polygon fill="white" stroke="#666666" points="1064.62,-892 892.62,-892 892.62,-872 1064.62,-872 1064.62,-892"/>
<text text-anchor="middle" x="978.62" y="-878.5" font-family="Helvetica,sans-Serif" font-size="10.00">LSM1x0A_LoRaWAN::setDataRate</text>
</a>
</g>
</g>
<!-- Node16&#45;&gt;Node20 -->
<g id="edge28_Node000016_Node000020" class="edge">
<title>Node16&#45;&gt;Node20</title>
<g id="a_edge28_Node000016_Node000020"><a xlink:title=" ">
<path fill="none" stroke="#63b8ff" d="M773.3,-539.16C773.54,-593.93 782.19,-774.06 881.75,-863 882.7,-863.85 883.67,-864.66 884.67,-865.44"/>
<polygon fill="#63b8ff" stroke="#63b8ff" points="882.7,-868.34 893,-870.83 886.5,-862.46 882.7,-868.34"/>
</a>
</g>
</g>
<!-- Node21 -->
<g id="Node000021" class="node">
<title>Node21</title>
<g id="a_Node000021"><a xlink:href="../../d5/d72/classLSM1x0A__LoRaWAN.html#a8494083816ab885cb07fc3b08de029f4" target="_top" xlink:title="Sets the LoRaWAN Device Address (DevAddr) for ABP mode.">
<polygon fill="white" stroke="#666666" points="1062.75,-854 894.5,-854 894.5,-834 1062.75,-834 1062.75,-854"/>
<text text-anchor="middle" x="978.62" y="-840.5" font-family="Helvetica,sans-Serif" font-size="10.00">LSM1x0A_LoRaWAN::setDevAddr</text>
</a>
</g>
</g>
<!-- Node16&#45;&gt;Node21 -->
<g id="edge30_Node000016_Node000021" class="edge">
<title>Node16&#45;&gt;Node21</title>
<g id="a_edge30_Node000016_Node000021"><a xlink:title=" ">
<path fill="none" stroke="#63b8ff" d="M774.03,-539.15C776.62,-589.92 791.87,-747.57 881.75,-825 882.87,-825.97 884.03,-826.89 885.21,-827.77"/>
<polygon fill="#63b8ff" stroke="#63b8ff" points="883.23,-830.65 893.57,-832.93 886.9,-824.7 883.23,-830.65"/>
</a>
</g>
</g>
<!-- Node22 -->
<g id="Node000022" class="node">
<title>Node22</title>
<g id="a_Node000022"><a xlink:href="../../d5/d72/classLSM1x0A__LoRaWAN.html#ad320634e52d7ea907043cc50dd37c5b0" target="_top" xlink:title="Sets the LoRaWAN Device EUI (DevEUI).">
<polygon fill="white" stroke="#666666" points="1061.25,-816 896,-816 896,-796 1061.25,-796 1061.25,-816"/>
<text text-anchor="middle" x="978.62" y="-802.5" font-family="Helvetica,sans-Serif" font-size="10.00">LSM1x0A_LoRaWAN::setDevEUI</text>
</a>
</g>
</g>
<!-- Node16&#45;&gt;Node22 -->
<g id="edge32_Node000016_Node000022" class="edge">
<title>Node16&#45;&gt;Node22</title>
<g id="a_edge32_Node000016_Node000022"><a xlink:title=" ">
<path fill="none" stroke="#63b8ff" d="M774.99,-539.44C780.14,-586.24 801.62,-721.05 881.75,-787 883.24,-788.22 884.78,-789.38 886.37,-790.46"/>
<polygon fill="#63b8ff" stroke="#63b8ff" points="884.23,-793.27 894.65,-795.21 887.72,-787.2 884.23,-793.27"/>
</a>
</g>
</g>
<!-- Node23 -->
<g id="Node000023" class="node">
<title>Node23</title>
<g id="a_Node000023"><a xlink:href="../../d5/d72/classLSM1x0A__LoRaWAN.html#a031023b0d2dd5db3c51c2db6ae7801cc" target="_top" xlink:title="Enables or disables the Duty Cycle limitation (EU regions mostly).">
<polygon fill="white" stroke="#666666" points="1054.12,-778 903.12,-778 903.12,-746 1054.12,-746 1054.12,-778"/>
<text text-anchor="start" x="911.12" y="-764.5" font-family="Helvetica,sans-Serif" font-size="10.00">LSM1x0A_LoRaWAN::setDuty</text>
<text text-anchor="middle" x="978.62" y="-752.5" font-family="Helvetica,sans-Serif" font-size="10.00">Cycle</text>
</a>
</g>
</g>
<!-- Node16&#45;&gt;Node23 -->
<g id="edge34_Node000016_Node000023" class="edge">
<title>Node16&#45;&gt;Node23</title>
<g id="a_edge34_Node000016_Node000023"><a xlink:title=" ">
<path fill="none" stroke="#63b8ff" d="M776.9,-539.3C786.15,-579.44 815.64,-683.67 881.75,-737 885.19,-739.78 888.91,-742.25 892.81,-744.44"/>
<polygon fill="#63b8ff" stroke="#63b8ff" points="890.96,-747.44 901.48,-748.7 894.05,-741.15 890.96,-747.44"/>
</a>
</g>
</g>
<!-- Node24 -->
<g id="Node000024" class="node">
<title>Node24</title>
<g id="a_Node000024"><a xlink:href="../../d5/d72/classLSM1x0A__LoRaWAN.html#a6b179d5825c49af0f391dfc539912f64" target="_top" xlink:title="Sets the delay for the Join1 receive window.">
<polygon fill="white" stroke="#666666" points="1055.25,-728 902,-728 902,-696 1055.25,-696 1055.25,-728"/>
<text text-anchor="start" x="910" y="-714.5" font-family="Helvetica,sans-Serif" font-size="10.00">LSM1x0A_LoRaWAN::setJoin1</text>
<text text-anchor="middle" x="978.62" y="-702.5" font-family="Helvetica,sans-Serif" font-size="10.00">Delay</text>
</a>
</g>
</g>
<!-- Node16&#45;&gt;Node24 -->
<g id="edge36_Node000016_Node000024" class="edge">
<title>Node16&#45;&gt;Node24</title>
<g id="a_edge36_Node000016_Node000024"><a xlink:title=" ">
<path fill="none" stroke="#63b8ff" d="M779.59,-539.39C792.81,-572.62 827.38,-648.08 881.75,-687 884.92,-689.27 888.29,-691.34 891.78,-693.21"/>
<polygon fill="#63b8ff" stroke="#63b8ff" points="890.03,-696.26 900.57,-697.38 893.03,-689.93 890.03,-696.26"/>
</a>
</g>
</g>
<!-- Node25 -->
<g id="Node000025" class="node">
<title>Node25</title>
<g id="a_Node000025"><a xlink:href="../../d5/d72/classLSM1x0A__LoRaWAN.html#a4545d0caad41558cdb9bae8286b104d8" target="_top" xlink:title="Sets the delay for the Join2 receive window.">
<polygon fill="white" stroke="#666666" points="1055.25,-678 902,-678 902,-646 1055.25,-646 1055.25,-678"/>
<text text-anchor="start" x="910" y="-664.5" font-family="Helvetica,sans-Serif" font-size="10.00">LSM1x0A_LoRaWAN::setJoin2</text>
<text text-anchor="middle" x="978.62" y="-652.5" font-family="Helvetica,sans-Serif" font-size="10.00">Delay</text>
</a>
</g>
</g>
<!-- Node16&#45;&gt;Node25 -->
<g id="edge38_Node000016_Node000025" class="edge">
<title>Node16&#45;&gt;Node25</title>
<g id="a_edge38_Node000016_Node000025"><a xlink:title=" ">
<path fill="none" stroke="#63b8ff" d="M784.39,-539.33C801.9,-564.27 838.74,-611.61 881.75,-637 884.76,-638.78 887.9,-640.43 891.13,-641.97"/>
<polygon fill="#63b8ff" stroke="#63b8ff" points="889.73,-645.18 900.3,-645.9 892.49,-638.74 889.73,-645.18"/>
</a>
</g>
</g>
<!-- Node26 -->
<g id="Node000026" class="node">
<title>Node26</title>
<g id="a_Node000026"><a xlink:href="../../d5/d72/classLSM1x0A__LoRaWAN.html#a06bd50723ec1eb7e144c9141b2ec86fc" target="_top" xlink:title="Sets the LoRaWAN Network ID (NetID).">
<polygon fill="white" stroke="#666666" points="1059,-628 898.25,-628 898.25,-608 1059,-608 1059,-628"/>
<text text-anchor="middle" x="978.62" y="-614.5" font-family="Helvetica,sans-Serif" font-size="10.00">LSM1x0A_LoRaWAN::setNwkID</text>
</a>
</g>
</g>
<!-- Node16&#45;&gt;Node26 -->
<g id="edge40_Node000016_Node000026" class="edge">
<title>Node16&#45;&gt;Node26</title>
<g id="a_edge40_Node000016_Node000026"><a xlink:title=" ">
<path fill="none" stroke="#63b8ff" d="M791.6,-539.34C812.01,-556.84 846.91,-584.11 881.75,-599 886.35,-600.97 891.16,-602.73 896.08,-604.32"/>
<polygon fill="#63b8ff" stroke="#63b8ff" points="894.92,-607.63 905.51,-607.08 896.89,-600.91 894.92,-607.63"/>
</a>
</g>
</g>
<!-- Node27 -->
<g id="Node000027" class="node">
<title>Node27</title>
<g id="a_Node000027"><a xlink:href="../../d5/d72/classLSM1x0A__LoRaWAN.html#aa70ada64d28ecca216bb62268e502adf" target="_top" xlink:title="Sets the delay for the RX1 receive window.">
<polygon fill="white" stroke="#666666" points="1065.38,-590 891.88,-590 891.88,-570 1065.38,-570 1065.38,-590"/>
<text text-anchor="middle" x="978.62" y="-576.5" font-family="Helvetica,sans-Serif" font-size="10.00">LSM1x0A_LoRaWAN::setRx1Delay</text>
</a>
</g>
</g>
<!-- Node16&#45;&gt;Node27 -->
<g id="edge42_Node000016_Node000027" class="edge">
<title>Node16&#45;&gt;Node27</title>
<g id="a_edge42_Node000016_Node000027"><a xlink:title=" ">
<path fill="none" stroke="#63b8ff" d="M815.99,-539.49C835.77,-546.76 859.75,-554.99 881.75,-561 889.83,-563.21 898.36,-565.27 906.87,-567.16"/>
<polygon fill="#63b8ff" stroke="#63b8ff" points="906,-570.55 916.51,-569.23 907.47,-563.71 906,-570.55"/>
</a>
</g>
</g>
<!-- Node28 -->
<g id="Node000028" class="node">
<title>Node28</title>
<g id="a_Node000028"><a xlink:href="../../d5/d72/classLSM1x0A__LoRaWAN.html#a2cf4eff0181b6107d082bccefa24217b" target="_top" xlink:title="Sets the Data Rate (DR) specifically for the RX2 window.">
<polygon fill="white" stroke="#666666" points="1073.62,-552 883.62,-552 883.62,-532 1073.62,-532 1073.62,-552"/>
<text text-anchor="middle" x="978.62" y="-538.5" font-family="Helvetica,sans-Serif" font-size="10.00">LSM1x0A_LoRaWAN::setRx2DataRate</text>
</a>
</g>
</g>
<!-- Node16&#45;&gt;Node28 -->
<g id="edge44_Node000016_Node000028" class="edge">
<title>Node16&#45;&gt;Node28</title>
<g id="a_edge44_Node000016_Node000028"><a xlink:title=" ">
<path fill="none" stroke="#63b8ff" d="M846.04,-529.75C854.41,-530.53 863.06,-531.34 871.76,-532.15"/>
<polygon fill="#63b8ff" stroke="#63b8ff" points="871.39,-535.63 881.68,-533.07 872.04,-528.66 871.39,-535.63"/>
</a>
</g>
</g>
<!-- Node29 -->
<g id="Node000029" class="node">
<title>Node29</title>
<g id="a_Node000029"><a xlink:href="../../d5/d72/classLSM1x0A__LoRaWAN.html#a42d2137b475b57e19d891a5f1ac93221" target="_top" xlink:title="Sets the delay for the RX2 receive window.">
<polygon fill="white" stroke="#666666" points="1065.38,-514 891.88,-514 891.88,-494 1065.38,-494 1065.38,-514"/>
<text text-anchor="middle" x="978.62" y="-500.5" font-family="Helvetica,sans-Serif" font-size="10.00">LSM1x0A_LoRaWAN::setRx2Delay</text>
</a>
</g>
</g>
<!-- Node16&#45;&gt;Node29 -->
<g id="edge46_Node000016_Node000029" class="edge">
<title>Node16&#45;&gt;Node29</title>
<g id="a_edge46_Node000016_Node000029"><a xlink:title=" ">
<path fill="none" stroke="#63b8ff" d="M846.04,-516.25C857.24,-515.21 868.97,-514.11 880.6,-513.03"/>
<polygon fill="#63b8ff" stroke="#63b8ff" points="880.57,-516.55 890.2,-512.14 879.92,-509.58 880.57,-516.55"/>
</a>
</g>
</g>
<!-- Node30 -->
<g id="Node000030" class="node">
<title>Node30</title>
<g id="a_Node000030"><a xlink:href="../../d5/d72/classLSM1x0A__LoRaWAN.html#a689f7dfda1dfeae11ea397c2ddf2ad37" target="_top" xlink:title="Sets the precise frequency for the RX2 window.">
<polygon fill="white" stroke="#666666" points="1075.5,-476 881.75,-476 881.75,-456 1075.5,-456 1075.5,-476"/>
<text text-anchor="middle" x="978.62" y="-462.5" font-family="Helvetica,sans-Serif" font-size="10.00">LSM1x0A_LoRaWAN::setRx2Frequency</text>
</a>
</g>
</g>
<!-- Node16&#45;&gt;Node30 -->
<g id="edge48_Node000016_Node000030" class="edge">
<title>Node16&#45;&gt;Node30</title>
<g id="a_edge48_Node000016_Node000030"><a xlink:title=" ">
<path fill="none" stroke="#63b8ff" d="M815.99,-506.51C835.77,-499.24 859.75,-491.01 881.75,-485 889.83,-482.79 898.36,-480.73 906.87,-478.84"/>
<polygon fill="#63b8ff" stroke="#63b8ff" points="907.47,-482.29 916.51,-476.77 906,-475.45 907.47,-482.29"/>
</a>
</g>
</g>
<!-- Node31 -->
<g id="Node000031" class="node">
<title>Node31</title>
<g id="a_Node000031"><a xlink:href="../../d5/d72/classLSM1x0A__LoRaWAN.html#a1df10d7ae6bf45b537d28d3d5c4b88d7" target="_top" xlink:title="Sets the transmission power index.">
<polygon fill="white" stroke="#666666" points="1063.12,-438 894.12,-438 894.12,-418 1063.12,-418 1063.12,-438"/>
<text text-anchor="middle" x="978.62" y="-424.5" font-family="Helvetica,sans-Serif" font-size="10.00">LSM1x0A_LoRaWAN::setTxPower</text>
</a>
</g>
</g>
<!-- Node16&#45;&gt;Node31 -->
<g id="edge50_Node000016_Node000031" class="edge">
<title>Node16&#45;&gt;Node31</title>
<g id="a_edge50_Node000016_Node000031"><a xlink:title=" ">
<path fill="none" stroke="#63b8ff" d="M791.6,-506.66C812.01,-489.16 846.91,-461.89 881.75,-447 886.35,-445.03 891.16,-443.27 896.08,-441.68"/>
<polygon fill="#63b8ff" stroke="#63b8ff" points="896.89,-445.09 905.51,-438.92 894.92,-438.37 896.89,-445.09"/>
</a>
</g>
</g>
<!-- Node32 -->
<g id="Node000032" class="node">
<title>Node32</title>
<g id="a_Node000032"><a xlink:href="../../d5/d72/classLSM1x0A__LoRaWAN.html#a059fd6a9356c4ecadd5a98294da5952d" target="_top" xlink:title="Configures the number of repetitions for Unconfirmed uplinks.">
<polygon fill="white" stroke="#666666" points="1066.12,-400 891.12,-400 891.12,-368 1066.12,-368 1066.12,-400"/>
<text text-anchor="start" x="899.12" y="-386.5" font-family="Helvetica,sans-Serif" font-size="10.00">LSM1x0A_LoRaWAN::setUnconfirm</text>
<text text-anchor="middle" x="978.62" y="-374.5" font-family="Helvetica,sans-Serif" font-size="10.00">Retry</text>
</a>
</g>
</g>
<!-- Node16&#45;&gt;Node32 -->
<g id="edge52_Node000016_Node000032" class="edge">
<title>Node16&#45;&gt;Node32</title>
<g id="a_edge52_Node000016_Node000032"><a xlink:title=" ">
<path fill="none" stroke="#63b8ff" d="M784.39,-506.67C801.9,-481.73 838.74,-434.39 881.75,-409 884.06,-407.64 886.45,-406.34 888.89,-405.12"/>
<polygon fill="#63b8ff" stroke="#63b8ff" points="890.15,-408.4 897.83,-401.1 887.28,-402.01 890.15,-408.4"/>
</a>
</g>
</g>
<!-- Node17&#45;&gt;Node10 -->
<g id="edge22_Node000017_Node000010" class="edge">
<title>Node17&#45;&gt;Node10</title>
<g id="a_edge22_Node000017_Node000010"><a xlink:title=" ">
<path fill="none" stroke="#63b8ff" d="M1054.9,-348.53C1062.22,-351.2 1069.24,-354.62 1075.5,-359 1131.09,-397.86 1163.94,-474.26 1178.24,-514.97"/>
<polygon fill="#63b8ff" stroke="#63b8ff" points="1174.86,-515.89 1181.37,-524.24 1181.49,-513.65 1174.86,-515.89"/>
</a>
</g>
</g>
<!-- Node18&#45;&gt;Node10 -->
<g id="edge24_Node000018_Node000010" class="edge">
<title>Node18&#45;&gt;Node10</title>
<g id="a_edge24_Node000018_Node000010"><a xlink:title=" ">
<path fill="none" stroke="#63b8ff" d="M1055.27,-310.03C1062.52,-312.79 1069.42,-316.38 1075.5,-321 1140.12,-370.13 1169.96,-467.16 1181.16,-514.6"/>
<polygon fill="#63b8ff" stroke="#63b8ff" points="1177.67,-515.06 1183.28,-524.05 1184.5,-513.53 1177.67,-515.06"/>
</a>
</g>
</g>
<!-- Node19&#45;&gt;Node10 -->
<g id="edge27_Node000019_Node000010" class="edge">
<title>Node19&#45;&gt;Node10</title>
<g id="a_edge27_Node000019_Node000010"><a xlink:title=" ">
<path fill="none" stroke="#63b8ff" d="M1061.33,-273.44C1066.41,-276.14 1071.2,-279.3 1075.5,-283 1147.45,-344.86 1174.23,-461.59 1182.99,-514.59"/>
<polygon fill="#63b8ff" stroke="#63b8ff" points="1179.5,-514.92 1184.49,-524.26 1186.42,-513.84 1179.5,-514.92"/>
</a>
</g>
</g>
<!-- Node20&#45;&gt;Node10 -->
<g id="edge29_Node000020_Node000010" class="edge">
<title>Node20&#45;&gt;Node10</title>
<g id="a_edge29_Node000020_Node000010"><a xlink:title=" ">
<path fill="none" stroke="#63b8ff" d="M1062.94,-871.6C1067.45,-869.21 1071.69,-866.37 1075.5,-863 1113.73,-829.22 1094.97,-802.26 1111.5,-754 1134.31,-687.42 1162.3,-609.52 1176.87,-569.23"/>
<polygon fill="#63b8ff" stroke="#63b8ff" points="1180.14,-570.47 1180.26,-559.87 1173.56,-568.08 1180.14,-570.47"/>
</a>
</g>
</g>
<!-- Node21&#45;&gt;Node10 -->
<g id="edge31_Node000021_Node000010" class="edge">
<title>Node21&#45;&gt;Node10</title>
<g id="a_edge31_Node000021_Node000010"><a xlink:title=" ">
<path fill="none" stroke="#63b8ff" d="M1062.27,-833.58C1067,-831.21 1071.46,-828.37 1075.5,-825 1096.28,-807.64 1155.19,-636.39 1177.78,-569.02"/>
<polygon fill="#63b8ff" stroke="#63b8ff" points="1180.99,-570.45 1180.84,-559.86 1174.35,-568.24 1180.99,-570.45"/>
</a>
</g>
</g>
<!-- Node22&#45;&gt;Node10 -->
<g id="edge33_Node000022_Node000010" class="edge">
<title>Node22&#45;&gt;Node10</title>
<g id="a_edge33_Node000022_Node000010"><a xlink:title=" ">
<path fill="none" stroke="#63b8ff" d="M1061.61,-795.56C1066.55,-793.2 1071.24,-790.37 1075.5,-787 1146,-731.13 1173.39,-620.69 1182.63,-569.39"/>
<polygon fill="#63b8ff" stroke="#63b8ff" points="1186.04,-570.18 1184.26,-559.74 1179.14,-569.01 1186.04,-570.18"/>
</a>
</g>
</g>
<!-- Node23&#45;&gt;Node10 -->
<g id="edge35_Node000023_Node000010" class="edge">
<title>Node23&#45;&gt;Node10</title>
<g id="a_edge35_Node000023_Node000010"><a xlink:title=" ">
<path fill="none" stroke="#63b8ff" d="M1054.16,-749.05C1061.79,-745.87 1069.08,-741.92 1075.5,-737 1132.49,-693.34 1165.06,-611.57 1178.85,-569.12"/>
<polygon fill="#63b8ff" stroke="#63b8ff" points="1182.15,-570.29 1181.8,-559.7 1175.47,-568.2 1182.15,-570.29"/>
</a>
</g>
</g>
<!-- Node24&#45;&gt;Node10 -->
<g id="edge37_Node000024_Node000010" class="edge">
<title>Node24&#45;&gt;Node10</title>
<g id="a_edge37_Node000024_Node000010"><a xlink:title=" ">
<path fill="none" stroke="#63b8ff" d="M1055.49,-697.37C1062.54,-694.51 1069.34,-691.09 1075.5,-687 1121.31,-656.61 1156.07,-600.94 1173.75,-568.13"/>
<polygon fill="#63b8ff" stroke="#63b8ff" points="1176.64,-570.16 1178.18,-559.68 1170.44,-566.91 1176.64,-570.16"/>
</a>
</g>
</g>
<!-- Node25&#45;&gt;Node10 -->
<g id="edge39_Node000025_Node000010" class="edge">
<title>Node25&#45;&gt;Node10</title>
<g id="a_edge39_Node000025_Node000010"><a xlink:title=" ">
<path fill="none" stroke="#63b8ff" d="M1055.68,-645.62C1062.54,-643.12 1069.25,-640.26 1075.5,-637 1110.29,-618.85 1143.6,-588.01 1164.56,-566.4"/>
<polygon fill="#63b8ff" stroke="#63b8ff" points="1166.83,-569.1 1171.18,-559.44 1161.75,-564.27 1166.83,-569.1"/>
</a>
</g>
</g>
<!-- Node26&#45;&gt;Node10 -->
<g id="edge41_Node000026_Node000010" class="edge">
<title>Node26&#45;&gt;Node10</title>
<g id="a_edge41_Node000026_Node000010"><a xlink:title=" ">
<path fill="none" stroke="#63b8ff" d="M1045.26,-607.52C1055.51,-605.16 1065.88,-602.34 1075.5,-599 1101.57,-589.94 1129.2,-575.81 1150.4,-563.89"/>
<polygon fill="#63b8ff" stroke="#63b8ff" points="1152,-567 1158.94,-559 1148.52,-560.93 1152,-567"/>
</a>
</g>
</g>
<!-- Node27&#45;&gt;Node10 -->
<g id="edge43_Node000027_Node000010" class="edge">
<title>Node27&#45;&gt;Node10</title>
<g id="a_edge43_Node000027_Node000010"><a xlink:title=" ">
<path fill="none" stroke="#63b8ff" d="M1036.77,-569.52C1063.61,-564.59 1095.69,-558.71 1123.28,-553.64"/>
<polygon fill="#63b8ff" stroke="#63b8ff" points="1123.71,-557.12 1132.91,-551.88 1122.44,-550.24 1123.71,-557.12"/>
</a>
</g>
</g>
<!-- Node28&#45;&gt;Node10 -->
<g id="edge45_Node000028_Node000010" class="edge">
<title>Node28&#45;&gt;Node10</title>
<g id="a_edge45_Node000028_Node000010"><a xlink:title=" ">
<path fill="none" stroke="#63b8ff" d="M1074.1,-542C1090.59,-542 1107.39,-542 1122.82,-542"/>
<polygon fill="#63b8ff" stroke="#63b8ff" points="1122.8,-545.5 1132.8,-542 1122.8,-538.5 1122.8,-545.5"/>
</a>
</g>
</g>
<!-- Node29&#45;&gt;Node10 -->
<g id="edge47_Node000029_Node000010" class="edge">
<title>Node29&#45;&gt;Node10</title>
<g id="a_edge47_Node000029_Node000010"><a xlink:title=" ">
<path fill="none" stroke="#63b8ff" d="M1036.77,-514.48C1063.61,-519.41 1095.69,-525.29 1123.28,-530.36"/>
<polygon fill="#63b8ff" stroke="#63b8ff" points="1122.44,-533.76 1132.91,-532.12 1123.71,-526.88 1122.44,-533.76"/>
</a>
</g>
</g>
<!-- Node30&#45;&gt;Node10 -->
<g id="edge49_Node000030_Node000010" class="edge">
<title>Node30&#45;&gt;Node10</title>
<g id="a_edge49_Node000030_Node000010"><a xlink:title=" ">
<path fill="none" stroke="#63b8ff" d="M1045.26,-476.48C1055.51,-478.84 1065.88,-481.66 1075.5,-485 1101.57,-494.06 1129.2,-508.19 1150.4,-520.11"/>
<polygon fill="#63b8ff" stroke="#63b8ff" points="1148.52,-523.07 1158.94,-525 1152,-517 1148.52,-523.07"/>
</a>
</g>
</g>
<!-- Node31&#45;&gt;Node10 -->
<g id="edge51_Node000031_Node000010" class="edge">
<title>Node31&#45;&gt;Node10</title>
<g id="a_edge51_Node000031_Node000010"><a xlink:title=" ">
<path fill="none" stroke="#63b8ff" d="M1052.89,-438.43C1060.71,-440.74 1068.4,-443.56 1075.5,-447 1111.01,-464.21 1144.4,-495.52 1165.16,-517.48"/>
<polygon fill="#63b8ff" stroke="#63b8ff" points="1162.35,-519.6 1171.71,-524.57 1167.49,-514.85 1162.35,-519.6"/>
</a>
</g>
</g>
<!-- Node32&#45;&gt;Node10 -->
<g id="edge53_Node000032_Node000010" class="edge">
<title>Node32&#45;&gt;Node10</title>
<g id="a_edge53_Node000032_Node000010"><a xlink:title=" ">
<path fill="none" stroke="#63b8ff" d="M1058.75,-400.31C1064.61,-402.81 1070.27,-405.69 1075.5,-409 1118.49,-436.23 1153.22,-485.5 1171.85,-515.83"/>
<polygon fill="#63b8ff" stroke="#63b8ff" points="1168.84,-517.61 1176.98,-524.4 1174.85,-514.02 1168.84,-517.61"/>
</a>
</g>
</g>
<!-- Node34&#45;&gt;Node11 -->
<g id="edge56_Node000034_Node000011" class="edge">
<title>Node34&#45;&gt;Node11</title>
<g id="a_edge56_Node000034_Node000011"><a xlink:title=" ">
<path fill="none" stroke="#63b8ff" d="M1202.32,-762.71C1237.69,-720.24 1332.59,-606.28 1370.33,-560.97"/>
<polygon fill="#63b8ff" stroke="#63b8ff" points="1372.8,-563.47 1376.51,-553.55 1367.42,-558.99 1372.8,-563.47"/>
</a>
</g>
</g>
</g>
</svg>
