<?xml version="1.0" encoding="UTF-8" standalone="no"?>
<!DOCTYPE svg PUBLIC "-//W3C//DTD SVG 1.1//EN"
 "http://www.w3.org/Graphics/SVG/1.1/DTD/svg11.dtd">
<!-- Generated by graphviz version 12.2.1 (20241206.2353)
 -->
<!-- Title: LSM1x0A_Sigfox::getPayloadEncryption Pages: 1 -->
<svg width="481pt" height="40pt"
 viewBox="0.00 0.00 481.25 40.00" xmlns="http://www.w3.org/2000/svg" xmlns:xlink="http://www.w3.org/1999/xlink">
<g id="graph0" class="graph" transform="scale(1 1) rotate(0) translate(4 36)">
<title>LSM1x0A_Sigfox::getPayloadEncryption</title>
<!-- Node1 -->
<g id="Node000001" class="node">
<title>Node1</title>
<g id="a_Node000001"><a xlink:title="Checks if Payload Encryption is enabled.">
<polygon fill="#999999" stroke="#666666" points="473.25,-32 326.75,-32 326.75,0 473.25,0 473.25,-32"/>
<text text-anchor="start" x="334.75" y="-18.5" font-family="Helvetica,sans-Serif" font-size="10.00">LSM1x0A_Sigfox::getPayload</text>
<text text-anchor="middle" x="400" y="-6.5" font-family="Helvetica,sans-Serif" font-size="10.00">Encryption</text>
</a>
</g>
</g>
<!-- Node2 -->
<g id="Node000002" class="node">
<title>Node2</title>
<g id="a_Node000002"><a xlink:href="../../dd/dcc/classLSM1x0A__Sigfox.html#a799f1a89db839066883e78d0c9cb0a49" target="_top" xlink:title="Downloads variables from the module and caches them locally.">
<polygon fill="white" stroke="#666666" points="290.75,-32 146.5,-32 146.5,0 290.75,0 290.75,-32"/>
<text text-anchor="start" x="154.5" y="-18.5" font-family="Helvetica,sans-Serif" font-size="10.00">LSM1x0A_Sigfox::loadConfig</text>
<text text-anchor="middle" x="218.62" y="-6.5" font-family="Helvetica,sans-Serif" font-size="10.00">FromModule</text>
</a>
</g>
</g>
<!-- Node1&#45;&gt;Node2 -->
<g id="edge1_Node000001_Node000002" class="edge">
<title>Node1&#45;&gt;Node2</title>
<g id="a_edge1_Node000001_Node000002"><a xlink:title=" ">
<path fill="none" stroke="#63b8ff" d="M315.01,-16C306.97,-16 298.87,-16 290.97,-16"/>
<polygon fill="#63b8ff" stroke="#63b8ff" points="314.79,-19.5 324.79,-16 314.79,-12.5 314.79,-19.5"/>
</a>
</g>
</g>
<!-- Node3 -->
<g id="Node000003" class="node">
<title>Node3</title>
<g id="a_Node000003"><a xlink:href="../../d8/d92/classLSM1x0A__Controller.html#abdd8a00eb5697bbd25cd0330c11c919e" target="_top" xlink:title="Synchronizes the internal RAM cache by reading the key operational parameters from the module&#39;s firmw...">
<polygon fill="white" stroke="#666666" points="110.5,-32 0,-32 0,0 110.5,0 110.5,-32"/>
<text text-anchor="start" x="8" y="-18.5" font-family="Helvetica,sans-Serif" font-size="10.00">LSM1x0A_Controller</text>
<text text-anchor="middle" x="55.25" y="-6.5" font-family="Helvetica,sans-Serif" font-size="10.00">::syncConfigToCache</text>
</a>
</g>
</g>
<!-- Node2&#45;&gt;Node3 -->
<g id="edge2_Node000002_Node000003" class="edge">
<title>Node2&#45;&gt;Node3</title>
<g id="a_edge2_Node000002_Node000003"><a xlink:title=" ">
<path fill="none" stroke="#63b8ff" d="M135.08,-16C126.79,-16 118.53,-16 110.64,-16"/>
<polygon fill="#63b8ff" stroke="#63b8ff" points="134.86,-19.5 144.86,-16 134.86,-12.5 134.86,-19.5"/>
</a>
</g>
</g>
</g>
</svg>
