<?xml version="1.0" encoding="UTF-8" standalone="no"?>
<!DOCTYPE svg PUBLIC "-//W3C//DTD SVG 1.1//EN"
 "http://www.w3.org/Graphics/SVG/1.1/DTD/svg11.dtd">
<!-- Generated by graphviz version 12.2.1 (20241206.2353)
 -->
<!-- Title: LSM1x0A_Sigfox::testPRBS9 Pages: 1 -->
<!--zoomable 1143 -->

<svg id="main" version="1.1" xmlns="http://www.w3.org/2000/svg" xmlns:xlink="http://www.w3.org/1999/xlink" xml:space="preserve" onload="init(evt)">
<style type="text/css"><![CDATA[
.node, .edge {opacity: 0.7;}
.node.selected, .edge.selected {opacity: 1;}
.edge:hover path { stroke: red; }
.edge:hover polygon { stroke: red; fill: red; }
]]></style>

<defs>
  <circle id="rim" cx="0" cy="0" r="7"/>
  <circle id="rim2" cx="0" cy="0" r="3.5"/>
  <g id="zoomPlus">
    <use xlink:href="#rim" fill="#404040"><set attributeName="fill" to="#808080" begin="zoomplus.mouseover" end="zoomplus.mouseout"/></use>
    <path d="M-4,0h8M0,-4v8" fill="none" stroke="white" stroke-width="1.5" pointer-events="none"/>
  </g>
  <g id="zoomMin">
    <use xlink:href="#rim" fill="#404040"><set attributeName="fill" to="#808080" begin="zoomminus.mouseover" end="zoomminus.mouseout"/></use>
    <path d="M-4,0h8" fill="none" stroke="white" stroke-width="1.5" pointer-events="none"/>
  </g>
  <g id="arrowUp" transform="translate(30 24)">
    <use xlink:href="#rim"/>
    <path pointer-events="none" fill="none" stroke="white" stroke-width="1.5" d="M0,-3.0v7 M-2.5,-0.5L0,-3.0L2.5,-0.5"/>
  </g>
  <g id="arrowRight" transform="rotate(90) translate(36 -43)">
    <use xlink:href="#rim"/>
    <path pointer-events="none" fill="none" stroke="white" stroke-width="1.5" d="M0,-3.0v7 M-2.5,-0.5L0,-3.0L2.5,-0.5"/>
  </g>
  <g id="arrowDown" transform="rotate(180) translate(-30 -48)">
    <use xlink:href="#rim"/>
    <path pointer-events="none" fill="none" stroke="white" stroke-width="1.5" d="M0,-3.0v7 M-2.5,-0.5L0,-3.0L2.5,-0.5"/>
  </g>
  <g id="arrowLeft" transform="rotate(270) translate(-36 17)">
    <use xlink:href="#rim"/>
    <path pointer-events="none" fill="none" stroke="white" stroke-width="1.5" d="M0,-3.0v7 M-2.5,-0.5L0,-3.0L2.5,-0.5"/>
  </g>
  <g id="resetDef">
    <use xlink:href="#rim2" fill="#404040"><set attributeName="fill" to="#808080" begin="reset.mouseover" end="reset.mouseout"/></use>
  </g>
</defs>
<script type="application/ecmascript">
var viewWidth = 1278;
var viewHeight = 1143;
var sectionId = 'dynsection-34';
</script>
<script type="application/ecmascript" xlink:href="../../svg.min.js"/>
<svg id="graph" class="graph">
<g id="viewport">
<title>LSM1x0A_Sigfox::testPRBS9</title>
<!-- Node1 -->
<g id="Node000001" class="node">
<title>Node1</title>
<g id="a_Node000001"><a xlink:title="BPSK pseudo&#45;random PRBS9 test.">
<polygon fill="#999999" stroke="#666666" points="147.25,-490.95 0,-490.95 0,-470.95 147.25,-470.95 147.25,-490.95"/>
<text text-anchor="middle" x="73.62" y="-477.45" font-family="Helvetica,sans-Serif" font-size="10.00">LSM1x0A_Sigfox::testPRBS9</text>
</a>
</g>
</g>
<!-- Node2 -->
<g id="Node000002" class="node">
<title>Node2</title>
<g id="a_Node000002"><a xlink:href="../../d8/d92/classLSM1x0A__Controller.html#afd7d92e60ed6fdae696a955cdbe0ed8c" target="_top" xlink:title="Sends any AT command to the module, returning error if it fails. Internally uses the LsmAtParser logi...">
<polygon fill="white" stroke="#666666" points="289.25,-496.95 183.25,-496.95 183.25,-464.95 289.25,-464.95 289.25,-496.95"/>
<text text-anchor="start" x="191.25" y="-483.45" font-family="Helvetica,sans-Serif" font-size="10.00">LSM1x0A_Controller</text>
<text text-anchor="middle" x="236.25" y="-471.45" font-family="Helvetica,sans-Serif" font-size="10.00">::sendCommand</text>
</a>
</g>
</g>
<!-- Node1&#45;&gt;Node2 -->
<g id="edge1_Node000001_Node000002" class="edge">
<title>Node1&#45;&gt;Node2</title>
<g id="a_edge1_Node000001_Node000002"><a xlink:title=" ">
<path fill="none" stroke="#63b8ff" d="M147.42,-480.95C155.45,-480.95 163.58,-480.95 171.49,-480.95"/>
<polygon fill="#63b8ff" stroke="#63b8ff" points="171.36,-484.45 181.36,-480.95 171.36,-477.45 171.36,-484.45"/>
</a>
</g>
</g>
<!-- Node3 -->
<g id="Node000003" class="node">
<title>Node3</title>
<g id="a_Node000003"><a xlink:href="../../d8/d92/classLSM1x0A__Controller.html#abb0eb380daa3dfb7acffb483c5db8e2b" target="_top" xlink:title="Executes the recovery protocol. First Soft&#45;Reset (ATZ), then Hard&#45;Reset if there is a pin.">
<polygon fill="white" stroke="#666666" points="431.25,-938.95 325.25,-938.95 325.25,-906.95 431.25,-906.95 431.25,-938.95"/>
<text text-anchor="start" x="333.25" y="-925.45" font-family="Helvetica,sans-Serif" font-size="10.00">LSM1x0A_Controller</text>
<text text-anchor="middle" x="378.25" y="-913.45" font-family="Helvetica,sans-Serif" font-size="10.00">::recoverModule</text>
</a>
</g>
</g>
<!-- Node2&#45;&gt;Node3 -->
<g id="edge2_Node000002_Node000003" class="edge">
<title>Node2&#45;&gt;Node3</title>
<g id="a_edge2_Node000002_Node000003"><a xlink:title=" ">
<path fill="none" stroke="#63b8ff" d="M240.8,-497.39C251.36,-545.46 284.41,-689.56 325.25,-804.95 336.6,-837.01 352.79,-872.58 364.08,-896.2"/>
<polygon fill="#63b8ff" stroke="#63b8ff" points="360.88,-897.62 368.38,-905.1 367.18,-894.57 360.88,-897.62"/>
</a>
</g>
</g>
<!-- Node31 -->
<g id="Node000031" class="node">
<title>Node31</title>
<g id="a_Node000031"><a xlink:href="../../d6/d3c/classLSM1x0A__AtParser.html#a29b53c521974387ba6c03afadfaffa4a" target="_top" xlink:title="Sends a simple command and waits for OK/ERROR. Example: sendCommand(&quot;AT+JOIN&quot;);.">
<polygon fill="white" stroke="#666666" points="845.75,-1118.95 671.5,-1118.95 671.5,-1098.95 845.75,-1098.95 845.75,-1118.95"/>
<text text-anchor="middle" x="758.62" y="-1105.45" font-family="Helvetica,sans-Serif" font-size="10.00">LSM1x0A_AtParser::sendCommand</text>
</a>
</g>
</g>
<!-- Node2&#45;&gt;Node31 -->
<g id="edge55_Node000002_Node000031" class="edge">
<title>Node2&#45;&gt;Node31</title>
<g id="a_edge55_Node000002_Node000031"><a xlink:title=" ">
<path fill="none" stroke="#63b8ff" d="M237.31,-497.2C238.13,-559.15 246.67,-785.25 325.25,-947.95 367.18,-1034.77 379.56,-1071.88 467.25,-1111.95 545.01,-1147.48 647.16,-1134.62 707.27,-1121.89"/>
<polygon fill="#63b8ff" stroke="#63b8ff" points="707.86,-1125.34 716.87,-1119.77 706.35,-1118.51 707.86,-1125.34"/>
</a>
</g>
</g>
<!-- Node4 -->
<g id="Node000004" class="node">
<title>Node4</title>
<g id="a_Node000004"><a xlink:href="../../d8/d92/classLSM1x0A__Controller.html#a3f6f25b843fe4fb7042c544deae2ab16" target="_top" xlink:title="Manually clears bits from the internal EventGroup.">
<polygon fill="white" stroke="#666666" points="1039.5,-957.95 933.5,-957.95 933.5,-925.95 1039.5,-925.95 1039.5,-957.95"/>
<text text-anchor="start" x="941.5" y="-944.45" font-family="Helvetica,sans-Serif" font-size="10.00">LSM1x0A_Controller</text>
<text text-anchor="middle" x="986.5" y="-932.45" font-family="Helvetica,sans-Serif" font-size="10.00">::clearEvents</text>
</a>
</g>
</g>
<!-- Node3&#45;&gt;Node4 -->
<g id="edge3_Node000003_Node000004" class="edge">
<title>Node3&#45;&gt;Node4</title>
<g id="a_edge3_Node000003_Node000004"><a xlink:title=" ">
<path fill="none" stroke="#63b8ff" d="M395.33,-939.29C411.75,-954.72 438.81,-976.82 467.25,-985.95 626.82,-1037.18 827.41,-991 925.68,-961.72"/>
<polygon fill="#63b8ff" stroke="#63b8ff" points="926.57,-965.11 935.12,-958.86 924.54,-958.41 926.57,-965.11"/>
</a>
</g>
</g>
<!-- Node5 -->
<g id="Node000005" class="node">
<title>Node5</title>
<g id="a_Node000005"><a xlink:href="../../d8/d92/classLSM1x0A__Controller.html#a345d4bd79fa16b18dc33a4ca788fe5f7" target="_top" xlink:title="Performs a hardware reset using the reset pin.">
<polygon fill="white" stroke="#666666" points="599.5,-938.95 493.5,-938.95 493.5,-906.95 599.5,-906.95 599.5,-938.95"/>
<text text-anchor="start" x="501.5" y="-925.45" font-family="Helvetica,sans-Serif" font-size="10.00">LSM1x0A_Controller</text>
<text text-anchor="middle" x="546.5" y="-913.45" font-family="Helvetica,sans-Serif" font-size="10.00">::hardwareReset</text>
</a>
</g>
</g>
<!-- Node3&#45;&gt;Node5 -->
<g id="edge4_Node000003_Node000005" class="edge">
<title>Node3&#45;&gt;Node5</title>
<g id="a_edge4_Node000003_Node000005"><a xlink:title=" ">
<path fill="none" stroke="#63b8ff" d="M431.4,-922.95C447.41,-922.95 465.22,-922.95 481.91,-922.95"/>
<polygon fill="#63b8ff" stroke="#63b8ff" points="481.74,-926.45 491.74,-922.95 481.74,-919.45 481.74,-926.45"/>
</a>
</g>
</g>
<!-- Node7 -->
<g id="Node000007" class="node">
<title>Node7</title>
<g id="a_Node000007"><a xlink:href="../../d5/d72/classLSM1x0A__LoRaWAN.html#a1892801e37c8cd67d37c76108d6f7d49" target="_top" xlink:title="Validates if the device is currently Joined to the network. (Either confirmed by OTAA or statically a...">
<polygon fill="white" stroke="#666666" points="1270,-926.95 1117.5,-926.95 1117.5,-906.95 1270,-906.95 1270,-926.95"/>
<text text-anchor="middle" x="1193.75" y="-913.45" font-family="Helvetica,sans-Serif" font-size="10.00">LSM1x0A_LoRaWAN::isJoined</text>
</a>
</g>
</g>
<!-- Node3&#45;&gt;Node7 -->
<g id="edge6_Node000003_Node000007" class="edge">
<title>Node3&#45;&gt;Node7</title>
<g id="a_edge6_Node000003_Node000007"><a xlink:title=" ">
<path fill="none" stroke="#63b8ff" d="M425.19,-939.25C427.33,-940.7 429.36,-942.26 431.25,-943.95 456.42,-966.51 438.24,-993.6 467.25,-1010.95 477.95,-1017.34 793.41,-1014.94 855.5,-1008.95 957.19,-999.13 983.99,-997.44 1081.5,-966.95 1110.33,-957.93 1141.58,-943.44 1163.59,-932.37"/>
<polygon fill="#63b8ff" stroke="#63b8ff" points="1164.95,-935.61 1172.26,-927.94 1161.76,-929.38 1164.95,-935.61"/>
</a>
</g>
</g>
<!-- Node8 -->
<g id="Node000008" class="node">
<title>Node8</title>
<g id="a_Node000008"><a xlink:href="../../d5/d72/classLSM1x0A__LoRaWAN.html#a83e11c0e74ff9e0757db616ab1163424" target="_top" xlink:title="Attempts to recover a lost connection (re&#45;executes OTAA Join if dropped).">
<polygon fill="white" stroke="#666666" points="620.88,-850.95 472.12,-850.95 472.12,-818.95 620.88,-818.95 620.88,-850.95"/>
<text text-anchor="start" x="480.12" y="-837.45" font-family="Helvetica,sans-Serif" font-size="10.00">LSM1x0A_LoRaWAN::recover</text>
<text text-anchor="middle" x="546.5" y="-825.45" font-family="Helvetica,sans-Serif" font-size="10.00">Connection</text>
</a>
</g>
</g>
<!-- Node3&#45;&gt;Node8 -->
<g id="edge7_Node000003_Node000008" class="edge">
<title>Node3&#45;&gt;Node8</title>
<g id="a_edge7_Node000003_Node000008"><a xlink:title=" ">
<path fill="none" stroke="#63b8ff" d="M401.22,-906.53C418.55,-894.07 443.65,-877.07 467.25,-864.95 473.54,-861.72 480.25,-858.64 487.01,-855.76"/>
<polygon fill="#63b8ff" stroke="#63b8ff" points="488.28,-859.02 496.21,-851.99 485.63,-852.55 488.28,-859.02"/>
</a>
</g>
</g>
<!-- Node12 -->
<g id="Node000012" class="node">
<title>Node12</title>
<g id="a_Node000012"><a xlink:href="../../d5/d72/classLSM1x0A__LoRaWAN.html#ae3be4ce59dfa200369733317df356e97" target="_top" xlink:title="Pushes the RAM&#45;cached variables back down into the hardware module. Restores the operational state af...">
<polygon fill="white" stroke="#666666" points="619.75,-496.95 473.25,-496.95 473.25,-464.95 619.75,-464.95 619.75,-496.95"/>
<text text-anchor="start" x="481.25" y="-483.45" font-family="Helvetica,sans-Serif" font-size="10.00">LSM1x0A_LoRaWAN::restore</text>
<text text-anchor="middle" x="546.5" y="-471.45" font-family="Helvetica,sans-Serif" font-size="10.00">Config</text>
</a>
</g>
</g>
<!-- Node3&#45;&gt;Node12 -->
<g id="edge16_Node000003_Node000012" class="edge">
<title>Node3&#45;&gt;Node12</title>
<g id="a_edge16_Node000003_Node000012"><a xlink:title=" ">
<path fill="none" stroke="#63b8ff" d="M385.36,-906.69C410.26,-840.5 504.17,-590.84 535.36,-507.91"/>
<polygon fill="#63b8ff" stroke="#63b8ff" points="538.55,-509.36 538.8,-498.77 532,-506.9 538.55,-509.36"/>
</a>
</g>
</g>
<!-- Node29 -->
<g id="Node000029" class="node">
<title>Node29</title>
<g id="a_Node000029"><a xlink:href="../../d5/d72/classLSM1x0A__LoRaWAN.html#ace4b04396f1de1f4a54f513f5f378db7" target="_top" xlink:title="Manually overrides the internal joined state tracker.">
<polygon fill="white" stroke="#666666" points="625.75,-976.95 467.25,-976.95 467.25,-956.95 625.75,-956.95 625.75,-976.95"/>
<text text-anchor="middle" x="546.5" y="-963.45" font-family="Helvetica,sans-Serif" font-size="10.00">LSM1x0A_LoRaWAN::setJoined</text>
</a>
</g>
</g>
<!-- Node3&#45;&gt;Node29 -->
<g id="edge50_Node000003_Node000029" class="edge">
<title>Node3&#45;&gt;Node29</title>
<g id="a_edge50_Node000003_Node000029"><a xlink:title=" ">
<path fill="none" stroke="#63b8ff" d="M431.74,-938.22C443.41,-941.51 455.73,-944.91 467.25,-947.95 474.61,-949.89 482.37,-951.86 490.04,-953.76"/>
<polygon fill="#63b8ff" stroke="#63b8ff" points="489.13,-957.14 499.68,-956.13 490.8,-950.35 489.13,-957.14"/>
</a>
</g>
</g>
<!-- Node30 -->
<g id="Node000030" class="node">
<title>Node30</title>
<g id="a_Node000030"><a xlink:href="../../d8/d92/classLSM1x0A__Controller.html#a11ad21cb5ca33ec51346764a23bd485e" target="_top" xlink:title="Performs a software reset (ATZ Command).">
<polygon fill="white" stroke="#666666" points="599.5,-1102.95 493.5,-1102.95 493.5,-1070.95 599.5,-1070.95 599.5,-1102.95"/>
<text text-anchor="start" x="501.5" y="-1089.45" font-family="Helvetica,sans-Serif" font-size="10.00">LSM1x0A_Controller</text>
<text text-anchor="middle" x="546.5" y="-1077.45" font-family="Helvetica,sans-Serif" font-size="10.00">::softwareReset</text>
</a>
</g>
</g>
<!-- Node3&#45;&gt;Node30 -->
<g id="edge51_Node000003_Node000030" class="edge">
<title>Node3&#45;&gt;Node30</title>
<g id="a_edge51_Node000003_Node000030"><a xlink:title=" ">
<path fill="none" stroke="#63b8ff" d="M385.95,-939.34C398.14,-967.25 426.5,-1024.13 467.25,-1056.95 472.07,-1060.83 477.44,-1064.24 483.05,-1067.25"/>
<polygon fill="#63b8ff" stroke="#63b8ff" points="481.46,-1070.36 491.98,-1071.55 484.5,-1064.06 481.46,-1070.36"/>
</a>
</g>
</g>
<!-- Node6 -->
<g id="Node000006" class="node">
<title>Node6</title>
<g id="a_Node000006"><a xlink:href="../../d6/d3c/classLSM1x0A__AtParser.html#ad2839120da13e56132b95019419be1e5" target="_top" xlink:title="Waits for an event (like BOOTALERT) without sending any command. Useful for hardware reset where the ...">
<polygon fill="white" stroke="#666666" points="828.88,-938.95 688.38,-938.95 688.38,-906.95 828.88,-906.95 828.88,-938.95"/>
<text text-anchor="start" x="696.38" y="-925.45" font-family="Helvetica,sans-Serif" font-size="10.00">LSM1x0A_AtParser::waitFor</text>
<text text-anchor="middle" x="758.62" y="-913.45" font-family="Helvetica,sans-Serif" font-size="10.00">Event</text>
</a>
</g>
</g>
<!-- Node5&#45;&gt;Node6 -->
<g id="edge5_Node000005_Node000006" class="edge">
<title>Node5&#45;&gt;Node6</title>
<g id="a_edge5_Node000005_Node000006"><a xlink:title=" ">
<path fill="none" stroke="#63b8ff" d="M599.98,-922.95C623.17,-922.95 650.97,-922.95 676.71,-922.95"/>
<polygon fill="#63b8ff" stroke="#63b8ff" points="676.47,-926.45 686.47,-922.95 676.47,-919.45 676.47,-926.45"/>
</a>
</g>
</g>
<!-- Node9 -->
<g id="Node000009" class="node">
<title>Node9</title>
<g id="a_Node000009"><a xlink:href="../../d5/d72/classLSM1x0A__LoRaWAN.html#a59f781f3cfd30c11cd3973bcb10a7baa" target="_top" xlink:title="Initiates a LoRaWAN Network Join procedure. This is a blocking function until the module fires an eve...">
<polygon fill="white" stroke="#666666" points="824.38,-844.95 692.88,-844.95 692.88,-824.95 824.38,-824.95 824.38,-844.95"/>
<text text-anchor="middle" x="758.62" y="-831.45" font-family="Helvetica,sans-Serif" font-size="10.00">LSM1x0A_LoRaWAN::join</text>
</a>
</g>
</g>
<!-- Node8&#45;&gt;Node9 -->
<g id="edge8_Node000008_Node000009" class="edge">
<title>Node8&#45;&gt;Node9</title>
<g id="a_edge8_Node000008_Node000009"><a xlink:title=" ">
<path fill="none" stroke="#63b8ff" d="M621.29,-834.95C640.66,-834.95 661.6,-834.95 681.11,-834.95"/>
<polygon fill="#63b8ff" stroke="#63b8ff" points="680.9,-838.45 690.9,-834.95 680.9,-831.45 680.9,-838.45"/>
</a>
</g>
</g>
<!-- Node9&#45;&gt;Node2 -->
<g id="edge11_Node000009_Node000002" class="edge">
<title>Node9&#45;&gt;Node2</title>
<g id="a_edge11_Node000009_Node000002"><a xlink:title=" ">
<path fill="none" stroke="#63b8ff" d="M704.4,-824.5C645.77,-812.53 548.98,-791.38 467.25,-766.95 402.86,-747.69 372.98,-762.27 325.25,-714.95 266.98,-657.18 246.78,-557.13 240.2,-508.74"/>
<polygon fill="#63b8ff" stroke="#63b8ff" points="243.68,-508.33 238.97,-498.84 236.73,-509.2 243.68,-508.33"/>
</a>
</g>
</g>
<!-- Node9&#45;&gt;Node3 -->
<g id="edge10_Node000009_Node000003" class="edge">
<title>Node9&#45;&gt;Node3</title>
<g id="a_edge10_Node000009_Node000003"><a xlink:title=" ">
<path fill="none" stroke="#63b8ff" d="M704.4,-845.44C645.99,-857.21 549.57,-877.35 467.25,-897.95 459.31,-899.94 450.99,-902.14 442.78,-904.39"/>
<polygon fill="#63b8ff" stroke="#63b8ff" points="441.84,-901.01 433.15,-907.06 443.72,-907.76 441.84,-901.01"/>
</a>
</g>
</g>
<!-- Node9&#45;&gt;Node4 -->
<g id="edge9_Node000009_Node000004" class="edge">
<title>Node9&#45;&gt;Node4</title>
<g id="a_edge9_Node000009_Node000004"><a xlink:title=" ">
<path fill="none" stroke="#63b8ff" d="M781.69,-845.4C818.41,-862.79 892.73,-898 940.76,-920.75"/>
<polygon fill="#63b8ff" stroke="#63b8ff" points="938.97,-923.78 949.51,-924.9 941.97,-917.45 938.97,-923.78"/>
</a>
</g>
</g>
<!-- Node10 -->
<g id="Node000010" class="node">
<title>Node10</title>
<g id="a_Node000010"><a xlink:href="../../d5/d72/classLSM1x0A__LoRaWAN.html#a3fdd1ac318a5ad2559323e5d57e36a5e" target="_top" xlink:title="Enables or disables specific sub&#45;bands for regions supporting Channel Masks (e.g.,...">
<polygon fill="white" stroke="#666666" points="1081.5,-654.95 891.5,-654.95 891.5,-634.95 1081.5,-634.95 1081.5,-654.95"/>
<text text-anchor="middle" x="986.5" y="-641.45" font-family="Helvetica,sans-Serif" font-size="10.00">LSM1x0A_LoRaWAN::setChannelMask</text>
</a>
</g>
</g>
<!-- Node9&#45;&gt;Node10 -->
<g id="edge12_Node000009_Node000010" class="edge">
<title>Node9&#45;&gt;Node10</title>
<g id="a_edge12_Node000009_Node000010"><a xlink:title=" ">
<path fill="none" stroke="#63b8ff" d="M818.93,-824.45C831.65,-820.55 844.55,-815.22 855.5,-807.95 912.37,-770.19 956,-699.61 975.04,-665.05"/>
<polygon fill="#63b8ff" stroke="#63b8ff" points="977.97,-666.98 979.62,-656.52 971.8,-663.67 977.97,-666.98"/>
</a>
</g>
</g>
<!-- Node11 -->
<g id="Node000011" class="node">
<title>Node11</title>
<g id="a_Node000011"><a xlink:href="../../d8/d92/classLSM1x0A__Controller.html#a62476e30e50c7fe120aeb8df4b828675" target="_top" xlink:title="Synchronously/blockingly waits for an asynchronous event to occur. Useful for wrapping commands like ...">
<polygon fill="white" stroke="#666666" points="1039.5,-850.95 933.5,-850.95 933.5,-818.95 1039.5,-818.95 1039.5,-850.95"/>
<text text-anchor="start" x="941.5" y="-837.45" font-family="Helvetica,sans-Serif" font-size="10.00">LSM1x0A_Controller</text>
<text text-anchor="middle" x="986.5" y="-825.45" font-family="Helvetica,sans-Serif" font-size="10.00">::waitForEvent</text>
</a>
</g>
</g>
<!-- Node9&#45;&gt;Node11 -->
<g id="edge15_Node000009_Node000011" class="edge">
<title>Node9&#45;&gt;Node11</title>
<g id="a_edge15_Node000009_Node000011"><a xlink:title=" ">
<path fill="none" stroke="#63b8ff" d="M824.65,-834.95C855.16,-834.95 891.4,-834.95 921.74,-834.95"/>
<polygon fill="#63b8ff" stroke="#63b8ff" points="921.55,-838.45 931.55,-834.95 921.55,-831.45 921.55,-838.45"/>
</a>
</g>
</g>
<!-- Node10&#45;&gt;Node2 -->
<g id="edge14_Node000010_Node000002" class="edge">
<title>Node10&#45;&gt;Node2</title>
<g id="a_edge14_Node000010_Node000002"><a xlink:title=" ">
<path fill="none" stroke="#63b8ff" d="M984.72,-634.73C979.27,-566.01 944.35,-172.04 855.5,-101.95 670.34,44.11 506.4,29.06 325.25,-121.95 273.67,-164.95 247.61,-377.61 239.82,-453.76"/>
<polygon fill="#63b8ff" stroke="#63b8ff" points="236.38,-452.96 238.87,-463.26 243.34,-453.65 236.38,-452.96"/>
</a>
</g>
</g>
<!-- Node10&#45;&gt;Node7 -->
<g id="edge13_Node000010_Node000007" class="edge">
<title>Node10&#45;&gt;Node7</title>
<g id="a_edge13_Node000010_Node000007"><a xlink:title=" ">
<path fill="none" stroke="#63b8ff" d="M995.3,-655.28C1025.84,-695.76 1137.67,-843.95 1178.07,-897.49"/>
<polygon fill="#63b8ff" stroke="#63b8ff" points="1175.22,-899.52 1184.04,-905.4 1180.81,-895.31 1175.22,-899.52"/>
</a>
</g>
</g>
<!-- Node12&#45;&gt;Node10 -->
<g id="edge21_Node000012_Node000010" class="edge">
<title>Node12&#45;&gt;Node10</title>
<g id="a_edge21_Node000012_Node000010"><a xlink:title=" ">
<path fill="none" stroke="#63b8ff" d="M619.99,-484.29C697.65,-488.81 815.18,-498.64 855.5,-517.95 907.43,-542.82 951.38,-596.76 972.34,-625.7"/>
<polygon fill="#63b8ff" stroke="#63b8ff" points="969.27,-627.41 977.9,-633.56 974.99,-623.37 969.27,-627.41"/>
</a>
</g>
</g>
<!-- Node13 -->
<g id="Node000013" class="node">
<title>Node13</title>
<g id="a_Node000013"><a xlink:href="../../d5/d72/classLSM1x0A__LoRaWAN.html#af0baa3db4c7fab580d6b19a9e92472f6" target="_top" xlink:title="Enables or disables Adaptive Data Rate (ADR).">
<polygon fill="white" stroke="#666666" points="834.5,-798.95 682.75,-798.95 682.75,-778.95 834.5,-778.95 834.5,-798.95"/>
<text text-anchor="middle" x="758.62" y="-785.45" font-family="Helvetica,sans-Serif" font-size="10.00">LSM1x0A_LoRaWAN::setADR</text>
</a>
</g>
</g>
<!-- Node12&#45;&gt;Node13 -->
<g id="edge17_Node000012_Node000013" class="edge">
<title>Node12&#45;&gt;Node13</title>
<g id="a_edge17_Node000012_Node000013"><a xlink:title=" ">
<path fill="none" stroke="#63b8ff" d="M548.68,-497.13C553.2,-546.58 573.9,-696.7 661.75,-769.95 665,-772.66 668.54,-775.03 672.26,-777.08"/>
<polygon fill="#63b8ff" stroke="#63b8ff" points="670.59,-780.17 681.13,-781.21 673.54,-773.82 670.59,-780.17"/>
</a>
</g>
</g>
<!-- Node14 -->
<g id="Node000014" class="node">
<title>Node14</title>
<g id="a_Node000014"><a xlink:href="../../d5/d72/classLSM1x0A__LoRaWAN.html#a5365ed1596eb84ebf1e3b33b4a10c788" target="_top" xlink:title="Sets the LoRaWAN operational frequency band.">
<polygon fill="white" stroke="#666666" points="834.88,-760.95 682.38,-760.95 682.38,-740.95 834.88,-740.95 834.88,-760.95"/>
<text text-anchor="middle" x="758.62" y="-747.45" font-family="Helvetica,sans-Serif" font-size="10.00">LSM1x0A_LoRaWAN::setBand</text>
</a>
</g>
</g>
<!-- Node12&#45;&gt;Node14 -->
<g id="edge19_Node000012_Node000014" class="edge">
<title>Node12&#45;&gt;Node14</title>
<g id="a_edge19_Node000012_Node000014"><a xlink:title=" ">
<path fill="none" stroke="#63b8ff" d="M549.76,-497.27C556.92,-542.46 583.48,-669.99 661.75,-731.95 664.91,-734.45 668.3,-736.64 671.86,-738.58"/>
<polygon fill="#63b8ff" stroke="#63b8ff" points="670.35,-741.74 680.9,-742.72 673.27,-735.37 670.35,-741.74"/>
</a>
</g>
</g>
<!-- Node15 -->
<g id="Node000015" class="node">
<title>Node15</title>
<g id="a_Node000015"><a xlink:href="../../d5/d72/classLSM1x0A__LoRaWAN.html#a9d9285c43414337a0ccb3a6cd7ca06e6" target="_top" xlink:title="Configures the number of retries for Confirmed uplinks.">
<polygon fill="white" stroke="#666666" points="840.88,-722.95 676.38,-722.95 676.38,-690.95 840.88,-690.95 840.88,-722.95"/>
<text text-anchor="start" x="684.38" y="-709.45" font-family="Helvetica,sans-Serif" font-size="10.00">LSM1x0A_LoRaWAN::setConfirm</text>
<text text-anchor="middle" x="758.62" y="-697.45" font-family="Helvetica,sans-Serif" font-size="10.00">Retry</text>
</a>
</g>
</g>
<!-- Node12&#45;&gt;Node15 -->
<g id="edge22_Node000012_Node000015" class="edge">
<title>Node12&#45;&gt;Node15</title>
<g id="a_edge22_Node000012_Node000015"><a xlink:title=" ">
<path fill="none" stroke="#63b8ff" d="M552.02,-497.42C563.48,-535.98 597.42,-632.59 661.75,-681.95 663.11,-682.99 664.52,-684 665.96,-684.96"/>
<polygon fill="#63b8ff" stroke="#63b8ff" points="664.18,-687.98 674.59,-689.96 667.69,-681.92 664.18,-687.98"/>
</a>
</g>
</g>
<!-- Node16 -->
<g id="Node000016" class="node">
<title>Node16</title>
<g id="a_Node000016"><a xlink:href="../../d5/d72/classLSM1x0A__LoRaWAN.html#a56345ceeafa0b9059d6de4e69eddc82e" target="_top" xlink:title="Sets the Data Rate (DR) of the module.">
<polygon fill="white" stroke="#666666" points="844.62,-672.95 672.62,-672.95 672.62,-652.95 844.62,-652.95 844.62,-672.95"/>
<text text-anchor="middle" x="758.62" y="-659.45" font-family="Helvetica,sans-Serif" font-size="10.00">LSM1x0A_LoRaWAN::setDataRate</text>
</a>
</g>
</g>
<!-- Node12&#45;&gt;Node16 -->
<g id="edge24_Node000012_Node000016" class="edge">
<title>Node12&#45;&gt;Node16</title>
<g id="a_edge24_Node000012_Node000016"><a xlink:title=" ">
<path fill="none" stroke="#63b8ff" d="M553.93,-497.26C567.99,-530.68 604.86,-606.87 661.75,-643.95 663.89,-645.34 666.1,-646.63 668.38,-647.84"/>
<polygon fill="#63b8ff" stroke="#63b8ff" points="666.8,-650.96 677.35,-651.92 669.7,-644.59 666.8,-650.96"/>
</a>
</g>
</g>
<!-- Node17 -->
<g id="Node000017" class="node">
<title>Node17</title>
<g id="a_Node000017"><a xlink:href="../../d5/d72/classLSM1x0A__LoRaWAN.html#a8494083816ab885cb07fc3b08de029f4" target="_top" xlink:title="Sets the LoRaWAN Device Address (DevAddr) for ABP mode.">
<polygon fill="white" stroke="#666666" points="842.75,-634.95 674.5,-634.95 674.5,-614.95 842.75,-614.95 842.75,-634.95"/>
<text text-anchor="middle" x="758.62" y="-621.45" font-family="Helvetica,sans-Serif" font-size="10.00">LSM1x0A_LoRaWAN::setDevAddr</text>
</a>
</g>
</g>
<!-- Node12&#45;&gt;Node17 -->
<g id="edge26_Node000012_Node000017" class="edge">
<title>Node12&#45;&gt;Node17</title>
<g id="a_edge26_Node000012_Node000017"><a xlink:title=" ">
<path fill="none" stroke="#63b8ff" d="M557.49,-497.41C574.97,-524.7 613.85,-578.97 661.75,-605.95 664.59,-607.55 667.55,-609.02 670.58,-610.36"/>
<polygon fill="#63b8ff" stroke="#63b8ff" points="669.17,-613.57 679.76,-613.93 671.71,-607.04 669.17,-613.57"/>
</a>
</g>
</g>
<!-- Node18 -->
<g id="Node000018" class="node">
<title>Node18</title>
<g id="a_Node000018"><a xlink:href="../../d5/d72/classLSM1x0A__LoRaWAN.html#ad320634e52d7ea907043cc50dd37c5b0" target="_top" xlink:title="Sets the LoRaWAN Device EUI (DevEUI).">
<polygon fill="white" stroke="#666666" points="841.25,-596.95 676,-596.95 676,-576.95 841.25,-576.95 841.25,-596.95"/>
<text text-anchor="middle" x="758.62" y="-583.45" font-family="Helvetica,sans-Serif" font-size="10.00">LSM1x0A_LoRaWAN::setDevEUI</text>
</a>
</g>
</g>
<!-- Node12&#45;&gt;Node18 -->
<g id="edge28_Node000012_Node000018" class="edge">
<title>Node12&#45;&gt;Node18</title>
<g id="a_edge28_Node000012_Node000018"><a xlink:title=" ">
<path fill="none" stroke="#63b8ff" d="M563.7,-497.21C584.52,-517.12 622.65,-550.34 661.75,-567.95 666.01,-569.87 670.47,-571.6 675.03,-573.15"/>
<polygon fill="#63b8ff" stroke="#63b8ff" points="673.78,-576.43 684.37,-576.02 675.84,-569.74 673.78,-576.43"/>
</a>
</g>
</g>
<!-- Node19 -->
<g id="Node000019" class="node">
<title>Node19</title>
<g id="a_Node000019"><a xlink:href="../../d5/d72/classLSM1x0A__LoRaWAN.html#a031023b0d2dd5db3c51c2db6ae7801cc" target="_top" xlink:title="Enables or disables the Duty Cycle limitation (EU regions mostly).">
<polygon fill="white" stroke="#666666" points="834.12,-558.95 683.12,-558.95 683.12,-526.95 834.12,-526.95 834.12,-558.95"/>
<text text-anchor="start" x="691.12" y="-545.45" font-family="Helvetica,sans-Serif" font-size="10.00">LSM1x0A_LoRaWAN::setDuty</text>
<text text-anchor="middle" x="758.62" y="-533.45" font-family="Helvetica,sans-Serif" font-size="10.00">Cycle</text>
</a>
</g>
</g>
<!-- Node12&#45;&gt;Node19 -->
<g id="edge30_Node000012_Node000019" class="edge">
<title>Node12&#45;&gt;Node19</title>
<g id="a_edge30_Node000012_Node000019"><a xlink:title=" ">
<path fill="none" stroke="#63b8ff" d="M603.26,-497.4C630.2,-505.35 662.73,-514.95 690.98,-523.28"/>
<polygon fill="#63b8ff" stroke="#63b8ff" points="689.94,-526.62 700.52,-526.1 691.92,-519.91 689.94,-526.62"/>
</a>
</g>
</g>
<!-- Node20 -->
<g id="Node000020" class="node">
<title>Node20</title>
<g id="a_Node000020"><a xlink:href="../../d5/d72/classLSM1x0A__LoRaWAN.html#a6b179d5825c49af0f391dfc539912f64" target="_top" xlink:title="Sets the delay for the Join1 receive window.">
<polygon fill="white" stroke="#666666" points="835.25,-470.95 682,-470.95 682,-438.95 835.25,-438.95 835.25,-470.95"/>
<text text-anchor="start" x="690" y="-457.45" font-family="Helvetica,sans-Serif" font-size="10.00">LSM1x0A_LoRaWAN::setJoin1</text>
<text text-anchor="middle" x="758.62" y="-445.45" font-family="Helvetica,sans-Serif" font-size="10.00">Delay</text>
</a>
</g>
</g>
<!-- Node12&#45;&gt;Node20 -->
<g id="edge32_Node000012_Node000020" class="edge">
<title>Node12&#45;&gt;Node20</title>
<g id="a_edge32_Node000012_Node000020"><a xlink:title=" ">
<path fill="none" stroke="#63b8ff" d="M620.11,-471.96C636.46,-469.94 653.97,-467.77 670.83,-465.69"/>
<polygon fill="#63b8ff" stroke="#63b8ff" points="670.8,-469.22 680.3,-464.52 669.94,-462.27 670.8,-469.22"/>
</a>
</g>
</g>
<!-- Node21 -->
<g id="Node000021" class="node">
<title>Node21</title>
<g id="a_Node000021"><a xlink:href="../../d5/d72/classLSM1x0A__LoRaWAN.html#a4545d0caad41558cdb9bae8286b104d8" target="_top" xlink:title="Sets the delay for the Join2 receive window.">
<polygon fill="white" stroke="#666666" points="835.25,-420.95 682,-420.95 682,-388.95 835.25,-388.95 835.25,-420.95"/>
<text text-anchor="start" x="690" y="-407.45" font-family="Helvetica,sans-Serif" font-size="10.00">LSM1x0A_LoRaWAN::setJoin2</text>
<text text-anchor="middle" x="758.62" y="-395.45" font-family="Helvetica,sans-Serif" font-size="10.00">Delay</text>
</a>
</g>
</g>
<!-- Node12&#45;&gt;Node21 -->
<g id="edge34_Node000012_Node000021" class="edge">
<title>Node12&#45;&gt;Node21</title>
<g id="a_edge34_Node000012_Node000021"><a xlink:title=" ">
<path fill="none" stroke="#63b8ff" d="M580.41,-464.52C602.92,-453.71 633.67,-439.8 661.75,-429.95 667.04,-428.09 672.54,-426.3 678.11,-424.59"/>
<polygon fill="#63b8ff" stroke="#63b8ff" points="678.82,-428.03 687.41,-421.84 676.83,-421.32 678.82,-428.03"/>
</a>
</g>
</g>
<!-- Node22 -->
<g id="Node000022" class="node">
<title>Node22</title>
<g id="a_Node000022"><a xlink:href="../../d5/d72/classLSM1x0A__LoRaWAN.html#a06bd50723ec1eb7e144c9141b2ec86fc" target="_top" xlink:title="Sets the LoRaWAN Network ID (NetID).">
<polygon fill="white" stroke="#666666" points="839,-370.95 678.25,-370.95 678.25,-350.95 839,-350.95 839,-370.95"/>
<text text-anchor="middle" x="758.62" y="-357.45" font-family="Helvetica,sans-Serif" font-size="10.00">LSM1x0A_LoRaWAN::setNwkID</text>
</a>
</g>
</g>
<!-- Node12&#45;&gt;Node22 -->
<g id="edge36_Node000012_Node000022" class="edge">
<title>Node12&#45;&gt;Node22</title>
<g id="a_edge36_Node000012_Node000022"><a xlink:title=" ">
<path fill="none" stroke="#63b8ff" d="M560.76,-464.74C580.35,-441.98 619.28,-400.98 661.75,-379.95 665.43,-378.13 669.26,-376.48 673.2,-374.99"/>
<polygon fill="#63b8ff" stroke="#63b8ff" points="674.01,-378.41 682.36,-371.9 671.77,-371.78 674.01,-378.41"/>
</a>
</g>
</g>
<!-- Node23 -->
<g id="Node000023" class="node">
<title>Node23</title>
<g id="a_Node000023"><a xlink:href="../../d5/d72/classLSM1x0A__LoRaWAN.html#aa70ada64d28ecca216bb62268e502adf" target="_top" xlink:title="Sets the delay for the RX1 receive window.">
<polygon fill="white" stroke="#666666" points="845.38,-332.95 671.88,-332.95 671.88,-312.95 845.38,-312.95 845.38,-332.95"/>
<text text-anchor="middle" x="758.62" y="-319.45" font-family="Helvetica,sans-Serif" font-size="10.00">LSM1x0A_LoRaWAN::setRx1Delay</text>
</a>
</g>
</g>
<!-- Node12&#45;&gt;Node23 -->
<g id="edge38_Node000012_Node000023" class="edge">
<title>Node12&#45;&gt;Node23</title>
<g id="a_edge38_Node000012_Node000023"><a xlink:title=" ">
<path fill="none" stroke="#63b8ff" d="M555.95,-464.54C572.15,-434.88 610.55,-372.58 661.75,-341.95 664.23,-340.46 666.81,-339.09 669.46,-337.82"/>
<polygon fill="#63b8ff" stroke="#63b8ff" points="670.71,-341.09 678.59,-334.02 668.01,-334.63 670.71,-341.09"/>
</a>
</g>
</g>
<!-- Node24 -->
<g id="Node000024" class="node">
<title>Node24</title>
<g id="a_Node000024"><a xlink:href="../../d5/d72/classLSM1x0A__LoRaWAN.html#a2cf4eff0181b6107d082bccefa24217b" target="_top" xlink:title="Sets the Data Rate (DR) specifically for the RX2 window.">
<polygon fill="white" stroke="#666666" points="853.62,-294.95 663.62,-294.95 663.62,-274.95 853.62,-274.95 853.62,-294.95"/>
<text text-anchor="middle" x="758.62" y="-281.45" font-family="Helvetica,sans-Serif" font-size="10.00">LSM1x0A_LoRaWAN::setRx2DataRate</text>
</a>
</g>
</g>
<!-- Node12&#45;&gt;Node24 -->
<g id="edge40_Node000012_Node000024" class="edge">
<title>Node12&#45;&gt;Node24</title>
<g id="a_edge40_Node000012_Node000024"><a xlink:title=" ">
<path fill="none" stroke="#63b8ff" d="M553.02,-464.61C565.9,-429.11 601.54,-344.84 661.75,-303.95 663.72,-302.61 665.77,-301.36 667.88,-300.19"/>
<polygon fill="#63b8ff" stroke="#63b8ff" points="669.21,-303.43 676.73,-295.97 666.2,-297.11 669.21,-303.43"/>
</a>
</g>
</g>
<!-- Node25 -->
<g id="Node000025" class="node">
<title>Node25</title>
<g id="a_Node000025"><a xlink:href="../../d5/d72/classLSM1x0A__LoRaWAN.html#a42d2137b475b57e19d891a5f1ac93221" target="_top" xlink:title="Sets the delay for the RX2 receive window.">
<polygon fill="white" stroke="#666666" points="845.38,-256.95 671.88,-256.95 671.88,-236.95 845.38,-236.95 845.38,-256.95"/>
<text text-anchor="middle" x="758.62" y="-243.45" font-family="Helvetica,sans-Serif" font-size="10.00">LSM1x0A_LoRaWAN::setRx2Delay</text>
</a>
</g>
</g>
<!-- Node12&#45;&gt;Node25 -->
<g id="edge42_Node000012_Node000025" class="edge">
<title>Node12&#45;&gt;Node25</title>
<g id="a_edge42_Node000012_Node000025"><a xlink:title=" ">
<path fill="none" stroke="#63b8ff" d="M551.09,-464.6C560.93,-423.89 592.36,-317.5 661.75,-265.95 663.34,-264.76 664.99,-263.65 666.68,-262.6"/>
<polygon fill="#63b8ff" stroke="#63b8ff" points="668.26,-265.72 675.48,-257.97 665,-259.53 668.26,-265.72"/>
</a>
</g>
</g>
<!-- Node26 -->
<g id="Node000026" class="node">
<title>Node26</title>
<g id="a_Node000026"><a xlink:href="../../d5/d72/classLSM1x0A__LoRaWAN.html#a689f7dfda1dfeae11ea397c2ddf2ad37" target="_top" xlink:title="Sets the precise frequency for the RX2 window.">
<polygon fill="white" stroke="#666666" points="855.5,-218.95 661.75,-218.95 661.75,-198.95 855.5,-198.95 855.5,-218.95"/>
<text text-anchor="middle" x="758.62" y="-205.45" font-family="Helvetica,sans-Serif" font-size="10.00">LSM1x0A_LoRaWAN::setRx2Frequency</text>
</a>
</g>
</g>
<!-- Node12&#45;&gt;Node26 -->
<g id="edge44_Node000012_Node000026" class="edge">
<title>Node12&#45;&gt;Node26</title>
<g id="a_edge44_Node000012_Node000026"><a xlink:title=" ">
<path fill="none" stroke="#63b8ff" d="M549.71,-464.5C556.76,-418.96 583.06,-290.44 661.75,-227.95 663.08,-226.89 664.45,-225.89 665.86,-224.94"/>
<polygon fill="#63b8ff" stroke="#63b8ff" points="667.36,-228.11 674.32,-220.12 663.9,-222.03 667.36,-228.11"/>
</a>
</g>
</g>
<!-- Node27 -->
<g id="Node000027" class="node">
<title>Node27</title>
<g id="a_Node000027"><a xlink:href="../../d5/d72/classLSM1x0A__LoRaWAN.html#a1df10d7ae6bf45b537d28d3d5c4b88d7" target="_top" xlink:title="Sets the transmission power index.">
<polygon fill="white" stroke="#666666" points="843.12,-180.95 674.12,-180.95 674.12,-160.95 843.12,-160.95 843.12,-180.95"/>
<text text-anchor="middle" x="758.62" y="-167.45" font-family="Helvetica,sans-Serif" font-size="10.00">LSM1x0A_LoRaWAN::setTxPower</text>
</a>
</g>
</g>
<!-- Node12&#45;&gt;Node27 -->
<g id="edge46_Node000012_Node000027" class="edge">
<title>Node12&#45;&gt;Node27</title>
<g id="a_edge46_Node000012_Node000027"><a xlink:title=" ">
<path fill="none" stroke="#63b8ff" d="M548.64,-464.65C553.05,-414.88 573.46,-263.73 661.75,-189.95 662.89,-189 664.05,-188.09 665.25,-187.23"/>
<polygon fill="#63b8ff" stroke="#63b8ff" points="666.93,-190.3 673.68,-182.14 663.31,-184.31 666.93,-190.3"/>
</a>
</g>
</g>
<!-- Node28 -->
<g id="Node000028" class="node">
<title>Node28</title>
<g id="a_Node000028"><a xlink:href="../../d5/d72/classLSM1x0A__LoRaWAN.html#a059fd6a9356c4ecadd5a98294da5952d" target="_top" xlink:title="Configures the number of repetitions for Unconfirmed uplinks.">
<polygon fill="white" stroke="#666666" points="846.12,-142.95 671.12,-142.95 671.12,-110.95 846.12,-110.95 846.12,-142.95"/>
<text text-anchor="start" x="679.12" y="-129.45" font-family="Helvetica,sans-Serif" font-size="10.00">LSM1x0A_LoRaWAN::setUnconfirm</text>
<text text-anchor="middle" x="758.62" y="-117.45" font-family="Helvetica,sans-Serif" font-size="10.00">Retry</text>
</a>
</g>
</g>
<!-- Node12&#45;&gt;Node28 -->
<g id="edge48_Node000012_Node000028" class="edge">
<title>Node12&#45;&gt;Node28</title>
<g id="a_edge48_Node000012_Node000028"><a xlink:title=" ">
<path fill="none" stroke="#63b8ff" d="M548.02,-464.75C550.65,-411.46 566.48,-239.96 661.75,-151.95 662.52,-151.23 663.32,-150.54 664.12,-149.86"/>
<polygon fill="#63b8ff" stroke="#63b8ff" points="665.97,-152.84 672.12,-144.21 661.94,-147.12 665.97,-152.84"/>
</a>
</g>
</g>
<!-- Node13&#45;&gt;Node2 -->
<g id="edge18_Node000013_Node000002" class="edge">
<title>Node13&#45;&gt;Node2</title>
<g id="a_edge18_Node000013_Node000002"><a xlink:title=" ">
<path fill="none" stroke="#63b8ff" d="M683.61,-778.49C574.39,-761.69 377.33,-725.64 325.25,-677.95 274.6,-631.57 251.37,-550.58 242.25,-508.34"/>
<polygon fill="#63b8ff" stroke="#63b8ff" points="245.73,-507.86 240.3,-498.76 238.87,-509.26 245.73,-507.86"/>
</a>
</g>
</g>
<!-- Node14&#45;&gt;Node2 -->
<g id="edge20_Node000014_Node000002" class="edge">
<title>Node14&#45;&gt;Node2</title>
<g id="a_edge20_Node000014_Node000002"><a xlink:title=" ">
<path fill="none" stroke="#63b8ff" d="M685.98,-740.46C577.92,-723.42 380.01,-687.03 325.25,-641.95 281.98,-606.32 256.62,-543.61 244.99,-507.88"/>
<polygon fill="#63b8ff" stroke="#63b8ff" points="248.46,-507.24 242.14,-498.74 241.77,-509.32 248.46,-507.24"/>
</a>
</g>
</g>
<!-- Node15&#45;&gt;Node2 -->
<g id="edge23_Node000015_Node000002" class="edge">
<title>Node15&#45;&gt;Node2</title>
<g id="a_edge23_Node000015_Node000002"><a xlink:title=" ">
<path fill="none" stroke="#63b8ff" d="M675.99,-696.13C566.58,-680.29 379.82,-648.15 325.25,-606.95 290.13,-580.43 263.74,-535.78 249.4,-507.37"/>
<polygon fill="#63b8ff" stroke="#63b8ff" points="252.71,-506.16 245.17,-498.71 246.42,-509.23 252.71,-506.16"/>
</a>
</g>
</g>
<!-- Node16&#45;&gt;Node2 -->
<g id="edge25_Node000016_Node000002" class="edge">
<title>Node16&#45;&gt;Node2</title>
<g id="a_edge25_Node000016_Node000002"><a xlink:title=" ">
<path fill="none" stroke="#63b8ff" d="M672.52,-660.63C580.81,-654.66 433.46,-634.71 325.25,-569.95 297.57,-553.38 272.39,-526.09 256.13,-506.09"/>
<polygon fill="#63b8ff" stroke="#63b8ff" points="258.99,-504.06 250.04,-498.39 253.5,-508.41 258.99,-504.06"/>
</a>
</g>
</g>
<!-- Node17&#45;&gt;Node2 -->
<g id="edge27_Node000017_Node000002" class="edge">
<title>Node17&#45;&gt;Node2</title>
<g id="a_edge27_Node000017_Node000002"><a xlink:title=" ">
<path fill="none" stroke="#63b8ff" d="M674.27,-618.09C585.01,-608.52 440.65,-586.49 325.25,-537.95 304.49,-529.22 283.24,-515.61 266.83,-503.88"/>
<polygon fill="#63b8ff" stroke="#63b8ff" points="269.12,-501.22 258.98,-498.14 264.99,-506.87 269.12,-501.22"/>
</a>
</g>
</g>
<!-- Node18&#45;&gt;Node2 -->
<g id="edge29_Node000018_Node000002" class="edge">
<title>Node18&#45;&gt;Node2</title>
<g id="a_edge29_Node000018_Node000002"><a xlink:title=" ">
<path fill="none" stroke="#63b8ff" d="M675.87,-576.91C588.28,-565.2 445.59,-543.35 325.25,-511.95 313.73,-508.94 301.57,-505.11 290.09,-501.17"/>
<polygon fill="#63b8ff" stroke="#63b8ff" points="291.35,-497.9 280.76,-497.88 289.03,-504.5 291.35,-497.9"/>
</a>
</g>
</g>
<!-- Node19&#45;&gt;Node2 -->
<g id="edge31_Node000019_Node000002" class="edge">
<title>Node19&#45;&gt;Node2</title>
<g id="a_edge31_Node000019_Node000002"><a xlink:title=" ">
<path fill="none" stroke="#63b8ff" d="M682.89,-534.04C580.21,-521.81 397.31,-500.02 300.85,-488.53"/>
<polygon fill="#63b8ff" stroke="#63b8ff" points="301.37,-485.06 291.03,-487.36 300.55,-492.01 301.37,-485.06"/>
</a>
</g>
</g>
<!-- Node20&#45;&gt;Node2 -->
<g id="edge33_Node000020_Node000002" class="edge">
<title>Node20&#45;&gt;Node2</title>
<g id="a_edge33_Node000020_Node000002"><a xlink:title=" ">
<path fill="none" stroke="#63b8ff" d="M681.75,-453.04C623.12,-452.09 539.98,-451.88 467.25,-455.95 410.87,-459.1 347.05,-466.33 300.97,-472.21"/>
<polygon fill="#63b8ff" stroke="#63b8ff" points="300.62,-468.72 291.15,-473.48 301.51,-475.67 300.62,-468.72"/>
</a>
</g>
</g>
<!-- Node21&#45;&gt;Node2 -->
<g id="edge35_Node000021_Node000002" class="edge">
<title>Node21&#45;&gt;Node2</title>
<g id="a_edge35_Node000021_Node000002"><a xlink:title=" ">
<path fill="none" stroke="#63b8ff" d="M681.63,-409.76C594.78,-416.18 448.71,-429.77 325.25,-454.95 316.58,-456.72 307.53,-458.94 298.67,-461.34"/>
<polygon fill="#63b8ff" stroke="#63b8ff" points="297.73,-457.97 289.05,-464.05 299.63,-464.71 297.73,-457.97"/>
</a>
</g>
</g>
<!-- Node22&#45;&gt;Node2 -->
<g id="edge37_Node000022_Node000002" class="edge">
<title>Node22&#45;&gt;Node2</title>
<g id="a_edge37_Node000022_Node000002"><a xlink:title=" ">
<path fill="none" stroke="#63b8ff" d="M677.96,-366.22C589.7,-373.87 444.13,-391.94 325.25,-432.95 306.76,-439.33 287.55,-449.35 271.81,-458.6"/>
<polygon fill="#63b8ff" stroke="#63b8ff" points="270.05,-455.57 263.3,-463.73 273.67,-461.56 270.05,-455.57"/>
</a>
</g>
</g>
<!-- Node23&#45;&gt;Node2 -->
<g id="edge39_Node000023_Node000002" class="edge">
<title>Node23&#45;&gt;Node2</title>
<g id="a_edge39_Node000023_Node000002"><a xlink:title=" ">
<path fill="none" stroke="#63b8ff" d="M671.49,-323.48C580.54,-327.36 435.35,-343.2 325.25,-400.95 299.01,-414.71 274.53,-438.19 258.09,-456.16"/>
<polygon fill="#63b8ff" stroke="#63b8ff" points="255.73,-453.54 251.7,-463.34 260.96,-458.2 255.73,-453.54"/>
</a>
</g>
</g>
<!-- Node24&#45;&gt;Node2 -->
<g id="edge41_Node000024_Node000002" class="edge">
<title>Node24&#45;&gt;Node2</title>
<g id="a_edge41_Node000024_Node000002"><a xlink:title=" ">
<path fill="none" stroke="#63b8ff" d="M663.4,-278.72C569.85,-277.21 426.19,-287.94 325.25,-355.95 288.75,-380.54 262.62,-425.71 248.73,-454.49"/>
<polygon fill="#63b8ff" stroke="#63b8ff" points="245.69,-452.73 244.65,-463.27 252.04,-455.68 245.69,-452.73"/>
</a>
</g>
</g>
<!-- Node25&#45;&gt;Node2 -->
<g id="edge43_Node000025_Node000002" class="edge">
<title>Node25&#45;&gt;Node2</title>
<g id="a_edge43_Node000025_Node000002"><a xlink:title=" ">
<path fill="none" stroke="#63b8ff" d="M687.85,-236.49C595.08,-226.6 430.59,-223.58 325.25,-304.95 276.61,-342.51 252.88,-414.19 243.06,-453.49"/>
<polygon fill="#63b8ff" stroke="#63b8ff" points="239.69,-452.56 240.8,-463.1 246.5,-454.17 239.69,-452.56"/>
</a>
</g>
</g>
<!-- Node26&#45;&gt;Node2 -->
<g id="edge45_Node000026_Node000002" class="edge">
<title>Node26&#45;&gt;Node2</title>
<g id="a_edge45_Node000026_Node000002"><a xlink:title=" ">
<path fill="none" stroke="#63b8ff" d="M661.42,-205.86C549.97,-204.31 375.25,-208.72 325.25,-248.95 261.36,-300.36 243.83,-403.6 239.04,-453.16"/>
<polygon fill="#63b8ff" stroke="#63b8ff" points="235.56,-452.77 238.2,-463.03 242.53,-453.36 235.56,-452.77"/>
</a>
</g>
</g>
<!-- Node27&#45;&gt;Node2 -->
<g id="edge47_Node000027_Node000002" class="edge">
<title>Node27&#45;&gt;Node2</title>
<g id="a_edge47_Node000027_Node000002"><a xlink:title=" ">
<path fill="none" stroke="#63b8ff" d="M710.92,-160.48C624.49,-144.01 438.14,-122.56 325.25,-212.95 250.44,-272.85 238.58,-397.78 237.15,-453.31"/>
<polygon fill="#63b8ff" stroke="#63b8ff" points="233.65,-453.1 237,-463.15 240.65,-453.21 233.65,-453.1"/>
</a>
</g>
</g>
<!-- Node28&#45;&gt;Node2 -->
<g id="edge49_Node000028_Node000002" class="edge">
<title>Node28&#45;&gt;Node2</title>
<g id="a_edge49_Node000028_Node000002"><a xlink:title=" ">
<path fill="none" stroke="#63b8ff" d="M670.74,-121.55C559.65,-116.57 375.62,-115.39 325.25,-157.95 279.4,-196.69 250.25,-383.18 240.7,-453.79"/>
<polygon fill="#63b8ff" stroke="#63b8ff" points="237.28,-452.95 239.44,-463.32 244.22,-453.87 237.28,-452.95"/>
</a>
</g>
</g>
<!-- Node30&#45;&gt;Node31 -->
<g id="edge52_Node000030_Node000031" class="edge">
<title>Node30&#45;&gt;Node31</title>
<g id="a_edge52_Node000030_Node000031"><a xlink:title=" ">
<path fill="none" stroke="#63b8ff" d="M599.98,-1092.44C618.14,-1094.34 639.11,-1096.54 659.72,-1098.7"/>
<polygon fill="#63b8ff" stroke="#63b8ff" points="659.29,-1102.17 669.6,-1099.73 660.02,-1095.21 659.29,-1102.17"/>
</a>
</g>
</g>
<!-- Node32 -->
<g id="Node000032" class="node">
<title>Node32</title>
<g id="a_Node000032"><a xlink:href="../../d6/d3c/classLSM1x0A__AtParser.html#a0ba6f927c54fceece22c17773d3f2600" target="_top" xlink:title="Sends a command and extracts a value from the response.">
<polygon fill="white" stroke="#666666" points="1073.62,-1124.95 899.38,-1124.95 899.38,-1092.95 1073.62,-1092.95 1073.62,-1124.95"/>
<text text-anchor="start" x="907.38" y="-1111.45" font-family="Helvetica,sans-Serif" font-size="10.00">LSM1x0A_AtParser::sendCommand</text>
<text text-anchor="middle" x="986.5" y="-1099.45" font-family="Helvetica,sans-Serif" font-size="10.00">WithResponse</text>
</a>
</g>
</g>
<!-- Node31&#45;&gt;Node32 -->
<g id="edge53_Node000031_Node000032" class="edge">
<title>Node31&#45;&gt;Node32</title>
<g id="a_edge53_Node000031_Node000032"><a xlink:title=" ">
<path fill="none" stroke="#63b8ff" d="M845.99,-1108.95C859.74,-1108.95 874.06,-1108.95 888.05,-1108.95"/>
<polygon fill="#63b8ff" stroke="#63b8ff" points="887.67,-1112.45 897.67,-1108.95 887.67,-1105.45 887.67,-1112.45"/>
</a>
</g>
</g>
<!-- Node33 -->
<g id="Node000033" class="node">
<title>Node33</title>
<g id="a_Node000033"><a xlink:href="../../d5/d8b/classUartDriver.html#a5d0f22e8867eebe99273078bb19bd23d" target="_top" xlink:title="Sends data through UART.">
<polygon fill="white" stroke="#666666" points="1248.25,-1118.95 1139.25,-1118.95 1139.25,-1098.95 1248.25,-1098.95 1248.25,-1118.95"/>
<text text-anchor="middle" x="1193.75" y="-1105.45" font-family="Helvetica,sans-Serif" font-size="10.00">UartDriver::sendData</text>
</a>
</g>
</g>
<!-- Node32&#45;&gt;Node33 -->
<g id="edge54_Node000032_Node000033" class="edge">
<title>Node32&#45;&gt;Node33</title>
<g id="a_edge54_Node000032_Node000033"><a xlink:title=" ">
<path fill="none" stroke="#63b8ff" d="M1073.95,-1108.95C1091.84,-1108.95 1110.41,-1108.95 1127.39,-1108.95"/>
<polygon fill="#63b8ff" stroke="#63b8ff" points="1127.36,-1112.45 1137.36,-1108.95 1127.36,-1105.45 1127.36,-1112.45"/>
</a>
</g>
</g>
</g>
</svg>

<g id="navigator" transform="translate(0 0)" fill="#404254">
  <rect fill="#f2f5e9" fill-opacity="0.5" stroke="#606060" stroke-width=".5" x="0" y="0" width="60" height="60"/>
  <use id="zoomplus" xlink:href="#zoomPlus" x="17" y="9" onmousedown="handleZoom(evt,'in')"/>
  <use id="zoomminus" xlink:href="#zoomMin" x="42" y="9" onmousedown="handleZoom(evt,'out')"/>
  <use id="reset" xlink:href="#resetDef" x="30" y="36" onmousedown="handleReset()"/>
   <use id="arrowup" xlink:href="#arrowUp" x="0" y="0" onmousedown="handlePan(0,-1)"/>
  <use id="arrowright" xlink:href="#arrowRight" x="0" y="0" onmousedown="handlePan(1,0)"/>
  <use id="arrowdown" xlink:href="#arrowDown" x="0" y="0" onmousedown="handlePan(0,1)"/>
  <use id="arrowleft" xlink:href="#arrowLeft" x="0" y="0" onmousedown="handlePan(-1,0)"/>
</g>
<svg viewBox="0 0 15 15" width="100%" height="30px" preserveAspectRatio="xMaxYMin meet">
 <g id="arrow_out" transform="scale(0.3 0.3)">
  <a xlink:href="classLSM1x0A__Sigfox_a9097d5727de0e3b63808befb347429a5_cgraph_org.svg" target="_base">
   <rect id="button" ry="5" rx="5" y="6" x="6" height="38" width="38"
        fill="#f2f5e9" fill-opacity="0.5" stroke="#606060" stroke-width="1.0"/>
   <path id="arrow"
     d="M 11.500037,31.436501 C 11.940474,20.09759 22.043105,11.32322 32.158766,21.979434 L 37.068811,17.246167 C 37.068811,17.246167 37.088388,32 37.088388,32 L 22.160133,31.978069 C 22.160133,31.978069 26.997745,27.140456 26.997745,27.140456 C 18.528582,18.264221 13.291696,25.230495 11.500037,31.436501 z"
     style="fill:#404040;"/>
  </a>
 </g>
</svg>

<style type='text/css'>
<![CDATA[
[data-mouse-over-selected='false'] { opacity: 0.7; }
[data-mouse-over-selected='true']  { opacity: 1.0; }
]]>
</style>
<script type="application/ecmascript"><![CDATA[
document.addEventListener('DOMContentLoaded', (event) => {
  highlightEdges();
  highlightAdjacentNodes();
});
]]></script>
</svg>
