<?xml version="1.0" encoding="UTF-8" standalone="no"?>
<!DOCTYPE svg PUBLIC "-//W3C//DTD SVG 1.1//EN"
 "http://www.w3.org/Graphics/SVG/1.1/DTD/svg11.dtd">
<!-- Generated by graphviz version 12.2.1 (20241206.2353)
 -->
<!-- Title: LSM1x0A_Sigfox::getRcChannel Pages: 1 -->
<!--zoomable 1018 -->

<svg id="main" version="1.1" xmlns="http://www.w3.org/2000/svg" xmlns:xlink="http://www.w3.org/1999/xlink" xml:space="preserve" onload="init(evt)">
<style type="text/css"><![CDATA[
.node, .edge {opacity: 0.7;}
.node.selected, .edge.selected {opacity: 1;}
.edge:hover path { stroke: red; }
.edge:hover polygon { stroke: red; fill: red; }
]]></style>

<defs>
  <circle id="rim" cx="0" cy="0" r="7"/>
  <circle id="rim2" cx="0" cy="0" r="3.5"/>
  <g id="zoomPlus">
    <use xlink:href="#rim" fill="#404040"><set attributeName="fill" to="#808080" begin="zoomplus.mouseover" end="zoomplus.mouseout"/></use>
    <path d="M-4,0h8M0,-4v8" fill="none" stroke="white" stroke-width="1.5" pointer-events="none"/>
  </g>
  <g id="zoomMin">
    <use xlink:href="#rim" fill="#404040"><set attributeName="fill" to="#808080" begin="zoomminus.mouseover" end="zoomminus.mouseout"/></use>
    <path d="M-4,0h8" fill="none" stroke="white" stroke-width="1.5" pointer-events="none"/>
  </g>
  <g id="arrowUp" transform="translate(30 24)">
    <use xlink:href="#rim"/>
    <path pointer-events="none" fill="none" stroke="white" stroke-width="1.5" d="M0,-3.0v7 M-2.5,-0.5L0,-3.0L2.5,-0.5"/>
  </g>
  <g id="arrowRight" transform="rotate(90) translate(36 -43)">
    <use xlink:href="#rim"/>
    <path pointer-events="none" fill="none" stroke="white" stroke-width="1.5" d="M0,-3.0v7 M-2.5,-0.5L0,-3.0L2.5,-0.5"/>
  </g>
  <g id="arrowDown" transform="rotate(180) translate(-30 -48)">
    <use xlink:href="#rim"/>
    <path pointer-events="none" fill="none" stroke="white" stroke-width="1.5" d="M0,-3.0v7 M-2.5,-0.5L0,-3.0L2.5,-0.5"/>
  </g>
  <g id="arrowLeft" transform="rotate(270) translate(-36 17)">
    <use xlink:href="#rim"/>
    <path pointer-events="none" fill="none" stroke="white" stroke-width="1.5" d="M0,-3.0v7 M-2.5,-0.5L0,-3.0L2.5,-0.5"/>
  </g>
  <g id="resetDef">
    <use xlink:href="#rim2" fill="#404040"><set attributeName="fill" to="#808080" begin="reset.mouseover" end="reset.mouseout"/></use>
  </g>
</defs>
<script type="application/ecmascript">
var viewWidth = 1859;
var viewHeight = 1018;
var sectionId = 'dynsection-11';
</script>
<script type="application/ecmascript" xlink:href="../../svg.min.js"/>
<svg id="graph" class="graph">
<g id="viewport">
<title>LSM1x0A_Sigfox::getRcChannel</title>
<!-- Node1 -->
<g id="Node000001" class="node">
<title>Node1</title>
<g id="a_Node000001"><a xlink:title="Checks the currently active Regional Macro&#45;Channel (RC).">
<polygon fill="#999999" stroke="#666666" points="160,-98 0,-98 0,-78 160,-78 160,-98"/>
<text text-anchor="middle" x="80" y="-84.5" font-family="Helvetica,sans-Serif" font-size="10.00">LSM1x0A_Sigfox::getRcChannel</text>
</a>
</g>
</g>
<!-- Node2 -->
<g id="Node000002" class="node">
<title>Node2</title>
<g id="a_Node000002"><a xlink:href="../../d8/d92/classLSM1x0A__Controller.html#ab00328d1be83aa51bce8c2a4f907c5f4" target="_top" xlink:title="Sends an AT command and captures its response in a text block. Ideal for getters (e....">
<polygon fill="white" stroke="#666666" points="348.5,-104 196,-104 196,-72 348.5,-72 348.5,-104"/>
<text text-anchor="start" x="204" y="-90.5" font-family="Helvetica,sans-Serif" font-size="10.00">LSM1x0A_Controller</text>
<text text-anchor="middle" x="272.25" y="-78.5" font-family="Helvetica,sans-Serif" font-size="10.00">::sendCommandWithResponse</text>
</a>
</g>
</g>
<!-- Node1&#45;&gt;Node2 -->
<g id="edge1_Node000001_Node000002" class="edge">
<title>Node1&#45;&gt;Node2</title>
<g id="a_edge1_Node000001_Node000002"><a xlink:title=" ">
<path fill="none" stroke="#63b8ff" d="M160.31,-88C168.27,-88 176.4,-88 184.44,-88"/>
<polygon fill="#63b8ff" stroke="#63b8ff" points="184.22,-91.5 194.22,-88 184.22,-84.5 184.22,-91.5"/>
</a>
</g>
</g>
<!-- Node3 -->
<g id="Node000003" class="node">
<title>Node3</title>
<g id="a_Node000003"><a xlink:href="../../d8/d92/classLSM1x0A__Controller.html#abb0eb380daa3dfb7acffb483c5db8e2b" target="_top" xlink:title="Executes the recovery protocol. First Soft&#45;Reset (ATZ), then Hard&#45;Reset if there is a pin.">
<polygon fill="white" stroke="#666666" points="490.5,-214 384.5,-214 384.5,-182 490.5,-182 490.5,-214"/>
<text text-anchor="start" x="392.5" y="-200.5" font-family="Helvetica,sans-Serif" font-size="10.00">LSM1x0A_Controller</text>
<text text-anchor="middle" x="437.5" y="-188.5" font-family="Helvetica,sans-Serif" font-size="10.00">::recoverModule</text>
</a>
</g>
</g>
<!-- Node2&#45;&gt;Node3 -->
<g id="edge2_Node000002_Node000003" class="edge">
<title>Node2&#45;&gt;Node3</title>
<g id="a_edge2_Node000002_Node000003"><a xlink:title=" ">
<path fill="none" stroke="#63b8ff" d="M297.69,-104.47C325.66,-123.32 371.64,-154.29 402.95,-175.39"/>
<polygon fill="#63b8ff" stroke="#63b8ff" points="400.66,-178.07 410.9,-180.75 404.57,-172.26 400.66,-178.07"/>
</a>
</g>
</g>
<!-- Node12 -->
<g id="Node000012" class="node">
<title>Node12</title>
<g id="a_Node000012"><a xlink:href="../../d6/d3c/classLSM1x0A__AtParser.html#a0ba6f927c54fceece22c17773d3f2600" target="_top" xlink:title="Sends a command and extracts a value from the response.">
<polygon fill="white" stroke="#666666" points="1706.25,-287 1532,-287 1532,-255 1706.25,-255 1706.25,-287"/>
<text text-anchor="start" x="1540" y="-273.5" font-family="Helvetica,sans-Serif" font-size="10.00">LSM1x0A_AtParser::sendCommand</text>
<text text-anchor="middle" x="1619.12" y="-261.5" font-family="Helvetica,sans-Serif" font-size="10.00">WithResponse</text>
</a>
</g>
</g>
<!-- Node2&#45;&gt;Node12 -->
<g id="edge57_Node000002_Node000012" class="edge">
<title>Node2&#45;&gt;Node12</title>
<g id="a_edge57_Node000002_Node000012"><a xlink:title=" ">
<path fill="none" stroke="#63b8ff" d="M309.69,-71.65C369.86,-46.21 494.29,0 604.75,0 604.75,0 604.75,0 1210.5,0 1387.44,0 1546.2,-179.26 1599.31,-246.19"/>
<polygon fill="#63b8ff" stroke="#63b8ff" points="1596.24,-247.95 1605.16,-253.67 1601.75,-243.64 1596.24,-247.95"/>
</a>
</g>
</g>
<!-- Node4 -->
<g id="Node000004" class="node">
<title>Node4</title>
<g id="a_Node000004"><a xlink:href="../../d8/d92/classLSM1x0A__Controller.html#a3f6f25b843fe4fb7042c544deae2ab16" target="_top" xlink:title="Manually clears bits from the internal EventGroup.">
<polygon fill="white" stroke="#666666" points="1053.38,-98 947.38,-98 947.38,-66 1053.38,-66 1053.38,-98"/>
<text text-anchor="start" x="955.38" y="-84.5" font-family="Helvetica,sans-Serif" font-size="10.00">LSM1x0A_Controller</text>
<text text-anchor="middle" x="1000.38" y="-72.5" font-family="Helvetica,sans-Serif" font-size="10.00">::clearEvents</text>
</a>
</g>
</g>
<!-- Node3&#45;&gt;Node4 -->
<g id="edge3_Node000003_Node000004" class="edge">
<title>Node3&#45;&gt;Node4</title>
<g id="a_edge3_Node000003_Node000004"><a xlink:title=" ">
<path fill="none" stroke="#63b8ff" d="M463.18,-181.53C480.23,-171 503.84,-158.03 526.5,-151 672.15,-105.82 717.23,-138.94 867.5,-113 890,-109.12 914.4,-103.72 936.02,-98.52"/>
<polygon fill="#63b8ff" stroke="#63b8ff" points="936.7,-101.96 945.58,-96.18 935.03,-95.16 936.7,-101.96"/>
</a>
</g>
</g>
<!-- Node5 -->
<g id="Node000005" class="node">
<title>Node5</title>
<g id="a_Node000005"><a xlink:href="../../d8/d92/classLSM1x0A__Controller.html#a345d4bd79fa16b18dc33a4ca788fe5f7" target="_top" xlink:title="Performs a hardware reset using the reset pin.">
<polygon fill="white" stroke="#666666" points="658.75,-104 552.75,-104 552.75,-72 658.75,-72 658.75,-104"/>
<text text-anchor="start" x="560.75" y="-90.5" font-family="Helvetica,sans-Serif" font-size="10.00">LSM1x0A_Controller</text>
<text text-anchor="middle" x="605.75" y="-78.5" font-family="Helvetica,sans-Serif" font-size="10.00">::hardwareReset</text>
</a>
</g>
</g>
<!-- Node3&#45;&gt;Node5 -->
<g id="edge4_Node000003_Node000005" class="edge">
<title>Node3&#45;&gt;Node5</title>
<g id="a_edge4_Node000003_Node000005"><a xlink:title=" ">
<path fill="none" stroke="#63b8ff" d="M452.96,-181.63C469.32,-163.93 497.49,-135.86 526.5,-118 531.77,-114.76 537.44,-111.77 543.24,-109.03"/>
<polygon fill="#63b8ff" stroke="#63b8ff" points="544.64,-112.24 552.38,-104.99 541.81,-105.83 544.64,-112.24"/>
</a>
</g>
</g>
<!-- Node7 -->
<g id="Node000007" class="node">
<title>Node7</title>
<g id="a_Node000007"><a xlink:href="../../d5/d72/classLSM1x0A__LoRaWAN.html#a1892801e37c8cd67d37c76108d6f7d49" target="_top" xlink:title="Validates if the device is currently Joined to the network. (Either confirmed by OTAA or statically a...">
<polygon fill="white" stroke="#666666" points="1285.75,-136 1133.25,-136 1133.25,-116 1285.75,-116 1285.75,-136"/>
<text text-anchor="middle" x="1209.5" y="-122.5" font-family="Helvetica,sans-Serif" font-size="10.00">LSM1x0A_LoRaWAN::isJoined</text>
</a>
</g>
</g>
<!-- Node3&#45;&gt;Node7 -->
<g id="edge6_Node000003_Node000007" class="edge">
<title>Node3&#45;&gt;Node7</title>
<g id="a_edge6_Node000003_Node000007"><a xlink:title=" ">
<path fill="none" stroke="#63b8ff" d="M443.43,-181.77C453.49,-151.92 479.48,-88.97 526.5,-63 637.54,-1.69 975.26,-22.24 1097.25,-57 1132.32,-66.99 1167.12,-91.56 1188.22,-108.51"/>
<polygon fill="#63b8ff" stroke="#63b8ff" points="1185.8,-111.05 1195.74,-114.72 1190.26,-105.65 1185.8,-111.05"/>
</a>
</g>
</g>
<!-- Node8 -->
<g id="Node000008" class="node">
<title>Node8</title>
<g id="a_Node000008"><a xlink:href="../../d5/d72/classLSM1x0A__LoRaWAN.html#a83e11c0e74ff9e0757db616ab1163424" target="_top" xlink:title="Attempts to recover a lost connection (re&#45;executes OTAA Join if dropped).">
<polygon fill="white" stroke="#666666" points="680.12,-192 531.38,-192 531.38,-160 680.12,-160 680.12,-192"/>
<text text-anchor="start" x="539.38" y="-178.5" font-family="Helvetica,sans-Serif" font-size="10.00">LSM1x0A_LoRaWAN::recover</text>
<text text-anchor="middle" x="605.75" y="-166.5" font-family="Helvetica,sans-Serif" font-size="10.00">Connection</text>
</a>
</g>
</g>
<!-- Node3&#45;&gt;Node8 -->
<g id="edge7_Node000003_Node000008" class="edge">
<title>Node3&#45;&gt;Node8</title>
<g id="a_edge7_Node000003_Node000008"><a xlink:title=" ">
<path fill="none" stroke="#63b8ff" d="M490.65,-191.1C499.99,-189.86 509.94,-188.55 519.92,-187.23"/>
<polygon fill="#63b8ff" stroke="#63b8ff" points="520.22,-190.72 529.67,-185.94 519.3,-183.78 520.22,-190.72"/>
</a>
</g>
</g>
<!-- Node16 -->
<g id="Node000016" class="node">
<title>Node16</title>
<g id="a_Node000016"><a xlink:href="../../d5/d72/classLSM1x0A__LoRaWAN.html#ae3be4ce59dfa200369733317df356e97" target="_top" xlink:title="Pushes the RAM&#45;cached variables back down into the hardware module. Restores the operational state af...">
<polygon fill="white" stroke="#666666" points="867.5,-539 721,-539 721,-507 867.5,-507 867.5,-539"/>
<text text-anchor="start" x="729" y="-525.5" font-family="Helvetica,sans-Serif" font-size="10.00">LSM1x0A_LoRaWAN::restore</text>
<text text-anchor="middle" x="794.25" y="-513.5" font-family="Helvetica,sans-Serif" font-size="10.00">Config</text>
</a>
</g>
</g>
<!-- Node3&#45;&gt;Node16 -->
<g id="edge20_Node000003_Node000016" class="edge">
<title>Node3&#45;&gt;Node16</title>
<g id="a_edge20_Node000003_Node000016"><a xlink:title=" ">
<path fill="none" stroke="#63b8ff" d="M456.09,-214.12C514.01,-267.18 698.94,-436.6 767.42,-499.34"/>
<polygon fill="#63b8ff" stroke="#63b8ff" points="764.7,-501.59 774.44,-505.76 769.43,-496.43 764.7,-501.59"/>
</a>
</g>
</g>
<!-- Node33 -->
<g id="Node000033" class="node">
<title>Node33</title>
<g id="a_Node000033"><a xlink:href="../../d5/d72/classLSM1x0A__LoRaWAN.html#ace4b04396f1de1f4a54f513f5f378db7" target="_top" xlink:title="Manually overrides the internal joined state tracker.">
<polygon fill="white" stroke="#666666" points="685,-939 526.5,-939 526.5,-919 685,-919 685,-939"/>
<text text-anchor="middle" x="605.75" y="-925.5" font-family="Helvetica,sans-Serif" font-size="10.00">LSM1x0A_LoRaWAN::setJoined</text>
</a>
</g>
</g>
<!-- Node3&#45;&gt;Node33 -->
<g id="edge54_Node000003_Node000033" class="edge">
<title>Node3&#45;&gt;Node33</title>
<g id="a_edge54_Node000003_Node000033"><a xlink:title=" ">
<path fill="none" stroke="#63b8ff" d="M438.22,-214.4C436.9,-310.08 434.83,-795.83 526.5,-905 528.92,-907.88 531.68,-910.43 534.68,-912.67"/>
<polygon fill="#63b8ff" stroke="#63b8ff" points="532.66,-915.54 543.02,-917.75 536.3,-909.56 532.66,-915.54"/>
</a>
</g>
</g>
<!-- Node34 -->
<g id="Node000034" class="node">
<title>Node34</title>
<g id="a_Node000034"><a xlink:href="../../d8/d92/classLSM1x0A__Controller.html#a11ad21cb5ca33ec51346764a23bd485e" target="_top" xlink:title="Performs a software reset (ATZ Command).">
<polygon fill="white" stroke="#666666" points="1262.5,-795 1156.5,-795 1156.5,-763 1262.5,-763 1262.5,-795"/>
<text text-anchor="start" x="1164.5" y="-781.5" font-family="Helvetica,sans-Serif" font-size="10.00">LSM1x0A_Controller</text>
<text text-anchor="middle" x="1209.5" y="-769.5" font-family="Helvetica,sans-Serif" font-size="10.00">::softwareReset</text>
</a>
</g>
</g>
<!-- Node3&#45;&gt;Node34 -->
<g id="edge55_Node000003_Node000034" class="edge">
<title>Node3&#45;&gt;Node34</title>
<g id="a_edge55_Node000003_Node000034"><a xlink:title=" ">
<path fill="none" stroke="#63b8ff" d="M439.14,-214.18C443.41,-318.83 469.5,-897.3 526.5,-948 591.69,-1005.99 859.64,-1058.87 1097.25,-932 1148.71,-904.52 1182.32,-841.52 1198.07,-805.51"/>
<polygon fill="#63b8ff" stroke="#63b8ff" points="1201.14,-807.25 1201.8,-796.67 1194.69,-804.53 1201.14,-807.25"/>
</a>
</g>
</g>
<!-- Node6 -->
<g id="Node000006" class="node">
<title>Node6</title>
<g id="a_Node000006"><a xlink:href="../../d6/d3c/classLSM1x0A__AtParser.html#ad2839120da13e56132b95019419be1e5" target="_top" xlink:title="Waits for an event (like BOOTALERT) without sending any command. Useful for hardware reset where the ...">
<polygon fill="white" stroke="#666666" points="864.5,-104 724,-104 724,-72 864.5,-72 864.5,-104"/>
<text text-anchor="start" x="732" y="-90.5" font-family="Helvetica,sans-Serif" font-size="10.00">LSM1x0A_AtParser::waitFor</text>
<text text-anchor="middle" x="794.25" y="-78.5" font-family="Helvetica,sans-Serif" font-size="10.00">Event</text>
</a>
</g>
</g>
<!-- Node5&#45;&gt;Node6 -->
<g id="edge5_Node000005_Node000006" class="edge">
<title>Node5&#45;&gt;Node6</title>
<g id="a_edge5_Node000005_Node000006"><a xlink:title=" ">
<path fill="none" stroke="#63b8ff" d="M659.2,-88C675.71,-88 694.36,-88 712.37,-88"/>
<polygon fill="#63b8ff" stroke="#63b8ff" points="712.28,-91.5 722.28,-88 712.28,-84.5 712.28,-91.5"/>
</a>
</g>
</g>
<!-- Node9 -->
<g id="Node000009" class="node">
<title>Node9</title>
<g id="a_Node000009"><a xlink:href="../../d5/d72/classLSM1x0A__LoRaWAN.html#a59f781f3cfd30c11cd3973bcb10a7baa" target="_top" xlink:title="Initiates a LoRaWAN Network Join procedure. This is a blocking function until the module fires an eve...">
<polygon fill="white" stroke="#666666" points="860,-186 728.5,-186 728.5,-166 860,-166 860,-186"/>
<text text-anchor="middle" x="794.25" y="-172.5" font-family="Helvetica,sans-Serif" font-size="10.00">LSM1x0A_LoRaWAN::join</text>
</a>
</g>
</g>
<!-- Node8&#45;&gt;Node9 -->
<g id="edge8_Node000008_Node000009" class="edge">
<title>Node8&#45;&gt;Node9</title>
<g id="a_edge8_Node000008_Node000009"><a xlink:title=" ">
<path fill="none" stroke="#63b8ff" d="M680.46,-176C692.42,-176 704.83,-176 716.85,-176"/>
<polygon fill="#63b8ff" stroke="#63b8ff" points="716.72,-179.5 726.72,-176 716.72,-172.5 716.72,-179.5"/>
</a>
</g>
</g>
<!-- Node9&#45;&gt;Node3 -->
<g id="edge10_Node000009_Node000003" class="edge">
<title>Node9&#45;&gt;Node3</title>
<g id="a_edge10_Node000009_Node000003"><a xlink:title=" ">
<path fill="none" stroke="#63b8ff" d="M757.52,-186.4C736.59,-191.95 709.53,-198.2 685,-201 615.01,-208.98 596.93,-202.2 526.5,-201 518.6,-200.87 510.31,-200.66 502.11,-200.43"/>
<polygon fill="#63b8ff" stroke="#63b8ff" points="502.23,-196.93 492.12,-200.12 502.01,-203.92 502.23,-196.93"/>
</a>
</g>
</g>
<!-- Node9&#45;&gt;Node4 -->
<g id="edge9_Node000009_Node000004" class="edge">
<title>Node9&#45;&gt;Node4</title>
<g id="a_edge9_Node000009_Node000004"><a xlink:title=" ">
<path fill="none" stroke="#63b8ff" d="M828.8,-165.52C841.55,-160.68 855.81,-154.16 867.5,-146 886.84,-132.5 883.27,-119.13 903.5,-107 913.45,-101.03 924.81,-96.47 936.15,-93"/>
<polygon fill="#63b8ff" stroke="#63b8ff" points="936.82,-96.45 945.51,-90.39 934.94,-89.7 936.82,-96.45"/>
</a>
</g>
</g>
<!-- Node10 -->
<g id="Node000010" class="node">
<title>Node10</title>
<g id="a_Node000010"><a xlink:href="../../d8/d92/classLSM1x0A__Controller.html#afd7d92e60ed6fdae696a955cdbe0ed8c" target="_top" xlink:title="Sends any AT command to the module, returning error if it fails. Internally uses the LsmAtParser logi...">
<polygon fill="white" stroke="#666666" points="1262.5,-558 1156.5,-558 1156.5,-526 1262.5,-526 1262.5,-558"/>
<text text-anchor="start" x="1164.5" y="-544.5" font-family="Helvetica,sans-Serif" font-size="10.00">LSM1x0A_Controller</text>
<text text-anchor="middle" x="1209.5" y="-532.5" font-family="Helvetica,sans-Serif" font-size="10.00">::sendCommand</text>
</a>
</g>
</g>
<!-- Node9&#45;&gt;Node10 -->
<g id="edge11_Node000009_Node000010" class="edge">
<title>Node9&#45;&gt;Node10</title>
<g id="a_edge11_Node000009_Node000010"><a xlink:title=" ">
<path fill="none" stroke="#63b8ff" d="M860.28,-171.81C937.89,-168.2 1061.66,-167.28 1097.25,-195 1198.98,-274.23 1209.24,-447.25 1209.2,-514.5"/>
<polygon fill="#63b8ff" stroke="#63b8ff" points="1205.7,-514.23 1209.1,-524.26 1212.7,-514.3 1205.7,-514.23"/>
</a>
</g>
</g>
<!-- Node14 -->
<g id="Node000014" class="node">
<title>Node14</title>
<g id="a_Node000014"><a xlink:href="../../d5/d72/classLSM1x0A__LoRaWAN.html#a3fdd1ac318a5ad2559323e5d57e36a5e" target="_top" xlink:title="Enables or disables specific sub&#45;bands for regions supporting Channel Masks (e.g.,...">
<polygon fill="white" stroke="#666666" points="1095.38,-224 905.38,-224 905.38,-204 1095.38,-204 1095.38,-224"/>
<text text-anchor="middle" x="1000.38" y="-210.5" font-family="Helvetica,sans-Serif" font-size="10.00">LSM1x0A_LoRaWAN::setChannelMask</text>
</a>
</g>
</g>
<!-- Node9&#45;&gt;Node14 -->
<g id="edge16_Node000009_Node000014" class="edge">
<title>Node9&#45;&gt;Node14</title>
<g id="a_edge16_Node000009_Node000014"><a xlink:title=" ">
<path fill="none" stroke="#63b8ff" d="M851.57,-186.48C876.44,-191.12 905.89,-196.6 931.93,-201.44"/>
<polygon fill="#63b8ff" stroke="#63b8ff" points="931.28,-204.88 941.75,-203.27 932.56,-198 931.28,-204.88"/>
</a>
</g>
</g>
<!-- Node15 -->
<g id="Node000015" class="node">
<title>Node15</title>
<g id="a_Node000015"><a xlink:href="../../d8/d92/classLSM1x0A__Controller.html#a62476e30e50c7fe120aeb8df4b828675" target="_top" xlink:title="Synchronously/blockingly waits for an asynchronous event to occur. Useful for wrapping commands like ...">
<polygon fill="white" stroke="#666666" points="1053.38,-148 947.38,-148 947.38,-116 1053.38,-116 1053.38,-148"/>
<text text-anchor="start" x="955.38" y="-134.5" font-family="Helvetica,sans-Serif" font-size="10.00">LSM1x0A_Controller</text>
<text text-anchor="middle" x="1000.38" y="-122.5" font-family="Helvetica,sans-Serif" font-size="10.00">::waitForEvent</text>
</a>
</g>
</g>
<!-- Node9&#45;&gt;Node15 -->
<g id="edge19_Node000009_Node000015" class="edge">
<title>Node9&#45;&gt;Node15</title>
<g id="a_edge19_Node000009_Node000015"><a xlink:title=" ">
<path fill="none" stroke="#63b8ff" d="M843.88,-165.52C871.49,-159.57 906.36,-152.05 936.07,-145.65"/>
<polygon fill="#63b8ff" stroke="#63b8ff" points="936.67,-149.1 945.7,-143.57 935.19,-142.25 936.67,-149.1"/>
</a>
</g>
</g>
<!-- Node10&#45;&gt;Node3 -->
<g id="edge12_Node000010_Node000003" class="edge">
<title>Node10&#45;&gt;Node3</title>
<g id="a_edge12_Node000010_Node000003"><a xlink:title=" ">
<path fill="none" stroke="#63b8ff" d="M1202.07,-558.31C1188.31,-593.61 1155.41,-679.91 1133.25,-754 1113.98,-818.44 1150.17,-859.48 1097.25,-901 1029.5,-954.16 979.94,-940.65 903.5,-901 616.18,-751.97 478.22,-335.66 446.02,-225.19"/>
<polygon fill="#63b8ff" stroke="#63b8ff" points="449.45,-224.47 443.33,-215.82 442.72,-226.4 449.45,-224.47"/>
</a>
</g>
</g>
<!-- Node11 -->
<g id="Node000011" class="node">
<title>Node11</title>
<g id="a_Node000011"><a xlink:href="../../d6/d3c/classLSM1x0A__AtParser.html#a29b53c521974387ba6c03afadfaffa4a" target="_top" xlink:title="Sends a simple command and waits for OK/ERROR. Example: sendCommand(&quot;AT+JOIN&quot;);.">
<polygon fill="white" stroke="#666666" points="1496,-552 1321.75,-552 1321.75,-532 1496,-532 1496,-552"/>
<text text-anchor="middle" x="1408.88" y="-538.5" font-family="Helvetica,sans-Serif" font-size="10.00">LSM1x0A_AtParser::sendCommand</text>
</a>
</g>
</g>
<!-- Node10&#45;&gt;Node11 -->
<g id="edge13_Node000010_Node000011" class="edge">
<title>Node10&#45;&gt;Node11</title>
<g id="a_edge13_Node000010_Node000011"><a xlink:title=" ">
<path fill="none" stroke="#63b8ff" d="M1262.87,-542C1277.44,-542 1293.75,-542 1310.03,-542"/>
<polygon fill="#63b8ff" stroke="#63b8ff" points="1309.76,-545.5 1319.76,-542 1309.76,-538.5 1309.76,-545.5"/>
</a>
</g>
</g>
<!-- Node11&#45;&gt;Node12 -->
<g id="edge14_Node000011_Node000012" class="edge">
<title>Node11&#45;&gt;Node12</title>
<g id="a_edge14_Node000011_Node000012"><a xlink:title=" ">
<path fill="none" stroke="#63b8ff" d="M1417.78,-531.71C1447.69,-492.78 1554.43,-353.88 1598.69,-296.3"/>
<polygon fill="#63b8ff" stroke="#63b8ff" points="1601.23,-298.73 1604.55,-288.67 1595.68,-294.46 1601.23,-298.73"/>
</a>
</g>
</g>
<!-- Node13 -->
<g id="Node000013" class="node">
<title>Node13</title>
<g id="a_Node000013"><a xlink:href="../../d5/d8b/classUartDriver.html#a5d0f22e8867eebe99273078bb19bd23d" target="_top" xlink:title="Sends data through UART.">
<polygon fill="white" stroke="#666666" points="1851.25,-281 1742.25,-281 1742.25,-261 1851.25,-261 1851.25,-281"/>
<text text-anchor="middle" x="1796.75" y="-267.5" font-family="Helvetica,sans-Serif" font-size="10.00">UartDriver::sendData</text>
</a>
</g>
</g>
<!-- Node12&#45;&gt;Node13 -->
<g id="edge15_Node000012_Node000013" class="edge">
<title>Node12&#45;&gt;Node13</title>
<g id="a_edge15_Node000012_Node000013"><a xlink:title=" ">
<path fill="none" stroke="#63b8ff" d="M1706.65,-271C1714.8,-271 1722.95,-271 1730.85,-271"/>
<polygon fill="#63b8ff" stroke="#63b8ff" points="1730.68,-274.5 1740.68,-271 1730.68,-267.5 1730.68,-274.5"/>
</a>
</g>
</g>
<!-- Node14&#45;&gt;Node7 -->
<g id="edge17_Node000014_Node000007" class="edge">
<title>Node14&#45;&gt;Node7</title>
<g id="a_edge17_Node000014_Node000007"><a xlink:title=" ">
<path fill="none" stroke="#63b8ff" d="M1025.95,-203.56C1062.54,-188.01 1131.53,-158.7 1173.42,-140.9"/>
<polygon fill="#63b8ff" stroke="#63b8ff" points="1174.73,-144.15 1182.57,-137.02 1171.99,-137.71 1174.73,-144.15"/>
</a>
</g>
</g>
<!-- Node14&#45;&gt;Node10 -->
<g id="edge18_Node000014_Node000010" class="edge">
<title>Node14&#45;&gt;Node10</title>
<g id="a_edge18_Node000014_Node000010"><a xlink:title=" ">
<path fill="none" stroke="#63b8ff" d="M1084.13,-224.28C1088.83,-226.69 1093.26,-229.57 1097.25,-233 1183.58,-307.27 1202.92,-453.75 1207.25,-514.55"/>
<polygon fill="#63b8ff" stroke="#63b8ff" points="1203.75,-514.57 1207.86,-524.33 1210.73,-514.13 1203.75,-514.57"/>
</a>
</g>
</g>
<!-- Node16&#45;&gt;Node14 -->
<g id="edge25_Node000016_Node000014" class="edge">
<title>Node16&#45;&gt;Node14</title>
<g id="a_edge25_Node000016_Node000014"><a xlink:title=" ">
<path fill="none" stroke="#63b8ff" d="M796.05,-506.78C799.43,-457.25 816.7,-306.79 903.5,-233 904.63,-232.04 905.79,-231.13 906.98,-230.25"/>
<polygon fill="#63b8ff" stroke="#63b8ff" points="908.67,-233.33 915.37,-225.12 905.02,-227.35 908.67,-233.33"/>
</a>
</g>
</g>
<!-- Node17 -->
<g id="Node000017" class="node">
<title>Node17</title>
<g id="a_Node000017"><a xlink:href="../../d5/d72/classLSM1x0A__LoRaWAN.html#af0baa3db4c7fab580d6b19a9e92472f6" target="_top" xlink:title="Enables or disables Adaptive Data Rate (ADR).">
<polygon fill="white" stroke="#666666" points="1076.25,-350 924.5,-350 924.5,-330 1076.25,-330 1076.25,-350"/>
<text text-anchor="middle" x="1000.38" y="-336.5" font-family="Helvetica,sans-Serif" font-size="10.00">LSM1x0A_LoRaWAN::setADR</text>
</a>
</g>
</g>
<!-- Node16&#45;&gt;Node17 -->
<g id="edge21_Node000016_Node000017" class="edge">
<title>Node16&#45;&gt;Node17</title>
<g id="a_edge21_Node000016_Node000017"><a xlink:title=" ">
<path fill="none" stroke="#63b8ff" d="M801.06,-506.6C813.85,-473 847.85,-396.38 903.5,-359 906.77,-356.8 910.23,-354.85 913.83,-353.11"/>
<polygon fill="#63b8ff" stroke="#63b8ff" points="914.98,-356.42 922.87,-349.35 912.29,-349.96 914.98,-356.42"/>
</a>
</g>
</g>
<!-- Node18 -->
<g id="Node000018" class="node">
<title>Node18</title>
<g id="a_Node000018"><a xlink:href="../../d5/d72/classLSM1x0A__LoRaWAN.html#a5365ed1596eb84ebf1e3b33b4a10c788" target="_top" xlink:title="Sets the LoRaWAN operational frequency band.">
<polygon fill="white" stroke="#666666" points="1076.62,-312 924.12,-312 924.12,-292 1076.62,-292 1076.62,-312"/>
<text text-anchor="middle" x="1000.38" y="-298.5" font-family="Helvetica,sans-Serif" font-size="10.00">LSM1x0A_LoRaWAN::setBand</text>
</a>
</g>
</g>
<!-- Node16&#45;&gt;Node18 -->
<g id="edge23_Node000016_Node000018" class="edge">
<title>Node16&#45;&gt;Node18</title>
<g id="a_edge23_Node000016_Node000018"><a xlink:title=" ">
<path fill="none" stroke="#63b8ff" d="M798.97,-506.5C808.7,-467.43 838.74,-368.94 903.5,-321 906.66,-318.66 910.04,-316.58 913.57,-314.75"/>
<polygon fill="#63b8ff" stroke="#63b8ff" points="914.75,-318.05 922.47,-310.8 911.91,-311.66 914.75,-318.05"/>
</a>
</g>
</g>
<!-- Node19 -->
<g id="Node000019" class="node">
<title>Node19</title>
<g id="a_Node000019"><a xlink:href="../../d5/d72/classLSM1x0A__LoRaWAN.html#a9d9285c43414337a0ccb3a6cd7ca06e6" target="_top" xlink:title="Configures the number of retries for Confirmed uplinks.">
<polygon fill="white" stroke="#666666" points="1082.62,-274 918.12,-274 918.12,-242 1082.62,-242 1082.62,-274"/>
<text text-anchor="start" x="926.12" y="-260.5" font-family="Helvetica,sans-Serif" font-size="10.00">LSM1x0A_LoRaWAN::setConfirm</text>
<text text-anchor="middle" x="1000.38" y="-248.5" font-family="Helvetica,sans-Serif" font-size="10.00">Retry</text>
</a>
</g>
</g>
<!-- Node16&#45;&gt;Node19 -->
<g id="edge26_Node000016_Node000019" class="edge">
<title>Node16&#45;&gt;Node19</title>
<g id="a_edge26_Node000016_Node000019"><a xlink:title=" ">
<path fill="none" stroke="#63b8ff" d="M797.68,-506.7C805.05,-463.28 831.2,-344.03 903.5,-283 904.99,-281.74 906.54,-280.55 908.13,-279.41"/>
<polygon fill="#63b8ff" stroke="#63b8ff" points="909.75,-282.52 916.45,-274.32 906.1,-276.55 909.75,-282.52"/>
</a>
</g>
</g>
<!-- Node20 -->
<g id="Node000020" class="node">
<title>Node20</title>
<g id="a_Node000020"><a xlink:href="../../d5/d72/classLSM1x0A__LoRaWAN.html#a56345ceeafa0b9059d6de4e69eddc82e" target="_top" xlink:title="Sets the Data Rate (DR) of the module.">
<polygon fill="white" stroke="#666666" points="1086.38,-892 914.38,-892 914.38,-872 1086.38,-872 1086.38,-892"/>
<text text-anchor="middle" x="1000.38" y="-878.5" font-family="Helvetica,sans-Serif" font-size="10.00">LSM1x0A_LoRaWAN::setDataRate</text>
</a>
</g>
</g>
<!-- Node16&#45;&gt;Node20 -->
<g id="edge28_Node000016_Node000020" class="edge">
<title>Node16&#45;&gt;Node20</title>
<g id="a_edge28_Node000016_Node000020"><a xlink:title=" ">
<path fill="none" stroke="#63b8ff" d="M795.05,-539.16C795.29,-593.93 803.94,-774.06 903.5,-863 904.45,-863.85 905.42,-864.66 906.42,-865.44"/>
<polygon fill="#63b8ff" stroke="#63b8ff" points="904.45,-868.34 914.75,-870.83 908.25,-862.46 904.45,-868.34"/>
</a>
</g>
</g>
<!-- Node21 -->
<g id="Node000021" class="node">
<title>Node21</title>
<g id="a_Node000021"><a xlink:href="../../d5/d72/classLSM1x0A__LoRaWAN.html#a8494083816ab885cb07fc3b08de029f4" target="_top" xlink:title="Sets the LoRaWAN Device Address (DevAddr) for ABP mode.">
<polygon fill="white" stroke="#666666" points="1084.5,-854 916.25,-854 916.25,-834 1084.5,-834 1084.5,-854"/>
<text text-anchor="middle" x="1000.38" y="-840.5" font-family="Helvetica,sans-Serif" font-size="10.00">LSM1x0A_LoRaWAN::setDevAddr</text>
</a>
</g>
</g>
<!-- Node16&#45;&gt;Node21 -->
<g id="edge30_Node000016_Node000021" class="edge">
<title>Node16&#45;&gt;Node21</title>
<g id="a_edge30_Node000016_Node000021"><a xlink:title=" ">
<path fill="none" stroke="#63b8ff" d="M795.78,-539.15C798.37,-589.92 813.62,-747.57 903.5,-825 904.62,-825.97 905.78,-826.89 906.96,-827.77"/>
<polygon fill="#63b8ff" stroke="#63b8ff" points="904.98,-830.65 915.32,-832.93 908.65,-824.7 904.98,-830.65"/>
</a>
</g>
</g>
<!-- Node22 -->
<g id="Node000022" class="node">
<title>Node22</title>
<g id="a_Node000022"><a xlink:href="../../d5/d72/classLSM1x0A__LoRaWAN.html#ad320634e52d7ea907043cc50dd37c5b0" target="_top" xlink:title="Sets the LoRaWAN Device EUI (DevEUI).">
<polygon fill="white" stroke="#666666" points="1083,-816 917.75,-816 917.75,-796 1083,-796 1083,-816"/>
<text text-anchor="middle" x="1000.38" y="-802.5" font-family="Helvetica,sans-Serif" font-size="10.00">LSM1x0A_LoRaWAN::setDevEUI</text>
</a>
</g>
</g>
<!-- Node16&#45;&gt;Node22 -->
<g id="edge32_Node000016_Node000022" class="edge">
<title>Node16&#45;&gt;Node22</title>
<g id="a_edge32_Node000016_Node000022"><a xlink:title=" ">
<path fill="none" stroke="#63b8ff" d="M796.74,-539.44C801.89,-586.24 823.37,-721.05 903.5,-787 904.99,-788.22 906.53,-789.38 908.12,-790.46"/>
<polygon fill="#63b8ff" stroke="#63b8ff" points="905.98,-793.27 916.4,-795.21 909.47,-787.2 905.98,-793.27"/>
</a>
</g>
</g>
<!-- Node23 -->
<g id="Node000023" class="node">
<title>Node23</title>
<g id="a_Node000023"><a xlink:href="../../d5/d72/classLSM1x0A__LoRaWAN.html#a031023b0d2dd5db3c51c2db6ae7801cc" target="_top" xlink:title="Enables or disables the Duty Cycle limitation (EU regions mostly).">
<polygon fill="white" stroke="#666666" points="1075.88,-778 924.88,-778 924.88,-746 1075.88,-746 1075.88,-778"/>
<text text-anchor="start" x="932.88" y="-764.5" font-family="Helvetica,sans-Serif" font-size="10.00">LSM1x0A_LoRaWAN::setDuty</text>
<text text-anchor="middle" x="1000.38" y="-752.5" font-family="Helvetica,sans-Serif" font-size="10.00">Cycle</text>
</a>
</g>
</g>
<!-- Node16&#45;&gt;Node23 -->
<g id="edge34_Node000016_Node000023" class="edge">
<title>Node16&#45;&gt;Node23</title>
<g id="a_edge34_Node000016_Node000023"><a xlink:title=" ">
<path fill="none" stroke="#63b8ff" d="M798.65,-539.3C807.9,-579.44 837.39,-683.67 903.5,-737 906.94,-739.78 910.66,-742.25 914.56,-744.44"/>
<polygon fill="#63b8ff" stroke="#63b8ff" points="912.71,-747.44 923.23,-748.7 915.8,-741.15 912.71,-747.44"/>
</a>
</g>
</g>
<!-- Node24 -->
<g id="Node000024" class="node">
<title>Node24</title>
<g id="a_Node000024"><a xlink:href="../../d5/d72/classLSM1x0A__LoRaWAN.html#a6b179d5825c49af0f391dfc539912f64" target="_top" xlink:title="Sets the delay for the Join1 receive window.">
<polygon fill="white" stroke="#666666" points="1077,-728 923.75,-728 923.75,-696 1077,-696 1077,-728"/>
<text text-anchor="start" x="931.75" y="-714.5" font-family="Helvetica,sans-Serif" font-size="10.00">LSM1x0A_LoRaWAN::setJoin1</text>
<text text-anchor="middle" x="1000.38" y="-702.5" font-family="Helvetica,sans-Serif" font-size="10.00">Delay</text>
</a>
</g>
</g>
<!-- Node16&#45;&gt;Node24 -->
<g id="edge36_Node000016_Node000024" class="edge">
<title>Node16&#45;&gt;Node24</title>
<g id="a_edge36_Node000016_Node000024"><a xlink:title=" ">
<path fill="none" stroke="#63b8ff" d="M801.34,-539.39C814.56,-572.62 849.13,-648.08 903.5,-687 906.67,-689.27 910.04,-691.34 913.53,-693.21"/>
<polygon fill="#63b8ff" stroke="#63b8ff" points="911.78,-696.26 922.32,-697.38 914.78,-689.93 911.78,-696.26"/>
</a>
</g>
</g>
<!-- Node25 -->
<g id="Node000025" class="node">
<title>Node25</title>
<g id="a_Node000025"><a xlink:href="../../d5/d72/classLSM1x0A__LoRaWAN.html#a4545d0caad41558cdb9bae8286b104d8" target="_top" xlink:title="Sets the delay for the Join2 receive window.">
<polygon fill="white" stroke="#666666" points="1077,-678 923.75,-678 923.75,-646 1077,-646 1077,-678"/>
<text text-anchor="start" x="931.75" y="-664.5" font-family="Helvetica,sans-Serif" font-size="10.00">LSM1x0A_LoRaWAN::setJoin2</text>
<text text-anchor="middle" x="1000.38" y="-652.5" font-family="Helvetica,sans-Serif" font-size="10.00">Delay</text>
</a>
</g>
</g>
<!-- Node16&#45;&gt;Node25 -->
<g id="edge38_Node000016_Node000025" class="edge">
<title>Node16&#45;&gt;Node25</title>
<g id="a_edge38_Node000016_Node000025"><a xlink:title=" ">
<path fill="none" stroke="#63b8ff" d="M806.14,-539.33C823.65,-564.27 860.49,-611.61 903.5,-637 906.51,-638.78 909.65,-640.43 912.88,-641.97"/>
<polygon fill="#63b8ff" stroke="#63b8ff" points="911.48,-645.18 922.05,-645.9 914.24,-638.74 911.48,-645.18"/>
</a>
</g>
</g>
<!-- Node26 -->
<g id="Node000026" class="node">
<title>Node26</title>
<g id="a_Node000026"><a xlink:href="../../d5/d72/classLSM1x0A__LoRaWAN.html#a06bd50723ec1eb7e144c9141b2ec86fc" target="_top" xlink:title="Sets the LoRaWAN Network ID (NetID).">
<polygon fill="white" stroke="#666666" points="1080.75,-628 920,-628 920,-608 1080.75,-608 1080.75,-628"/>
<text text-anchor="middle" x="1000.38" y="-614.5" font-family="Helvetica,sans-Serif" font-size="10.00">LSM1x0A_LoRaWAN::setNwkID</text>
</a>
</g>
</g>
<!-- Node16&#45;&gt;Node26 -->
<g id="edge40_Node000016_Node000026" class="edge">
<title>Node16&#45;&gt;Node26</title>
<g id="a_edge40_Node000016_Node000026"><a xlink:title=" ">
<path fill="none" stroke="#63b8ff" d="M813.35,-539.34C833.76,-556.84 868.66,-584.11 903.5,-599 908.1,-600.97 912.91,-602.73 917.83,-604.32"/>
<polygon fill="#63b8ff" stroke="#63b8ff" points="916.67,-607.63 927.26,-607.08 918.64,-600.91 916.67,-607.63"/>
</a>
</g>
</g>
<!-- Node27 -->
<g id="Node000027" class="node">
<title>Node27</title>
<g id="a_Node000027"><a xlink:href="../../d5/d72/classLSM1x0A__LoRaWAN.html#aa70ada64d28ecca216bb62268e502adf" target="_top" xlink:title="Sets the delay for the RX1 receive window.">
<polygon fill="white" stroke="#666666" points="1087.12,-590 913.62,-590 913.62,-570 1087.12,-570 1087.12,-590"/>
<text text-anchor="middle" x="1000.38" y="-576.5" font-family="Helvetica,sans-Serif" font-size="10.00">LSM1x0A_LoRaWAN::setRx1Delay</text>
</a>
</g>
</g>
<!-- Node16&#45;&gt;Node27 -->
<g id="edge42_Node000016_Node000027" class="edge">
<title>Node16&#45;&gt;Node27</title>
<g id="a_edge42_Node000016_Node000027"><a xlink:title=" ">
<path fill="none" stroke="#63b8ff" d="M837.74,-539.49C857.52,-546.76 881.5,-554.99 903.5,-561 911.58,-563.21 920.11,-565.27 928.62,-567.16"/>
<polygon fill="#63b8ff" stroke="#63b8ff" points="927.75,-570.55 938.26,-569.23 929.22,-563.71 927.75,-570.55"/>
</a>
</g>
</g>
<!-- Node28 -->
<g id="Node000028" class="node">
<title>Node28</title>
<g id="a_Node000028"><a xlink:href="../../d5/d72/classLSM1x0A__LoRaWAN.html#a2cf4eff0181b6107d082bccefa24217b" target="_top" xlink:title="Sets the Data Rate (DR) specifically for the RX2 window.">
<polygon fill="white" stroke="#666666" points="1095.38,-552 905.38,-552 905.38,-532 1095.38,-532 1095.38,-552"/>
<text text-anchor="middle" x="1000.38" y="-538.5" font-family="Helvetica,sans-Serif" font-size="10.00">LSM1x0A_LoRaWAN::setRx2DataRate</text>
</a>
</g>
</g>
<!-- Node16&#45;&gt;Node28 -->
<g id="edge44_Node000016_Node000028" class="edge">
<title>Node16&#45;&gt;Node28</title>
<g id="a_edge44_Node000016_Node000028"><a xlink:title=" ">
<path fill="none" stroke="#63b8ff" d="M867.79,-529.75C876.16,-530.53 884.81,-531.34 893.51,-532.15"/>
<polygon fill="#63b8ff" stroke="#63b8ff" points="893.14,-535.63 903.43,-533.07 893.79,-528.66 893.14,-535.63"/>
</a>
</g>
</g>
<!-- Node29 -->
<g id="Node000029" class="node">
<title>Node29</title>
<g id="a_Node000029"><a xlink:href="../../d5/d72/classLSM1x0A__LoRaWAN.html#a42d2137b475b57e19d891a5f1ac93221" target="_top" xlink:title="Sets the delay for the RX2 receive window.">
<polygon fill="white" stroke="#666666" points="1087.12,-514 913.62,-514 913.62,-494 1087.12,-494 1087.12,-514"/>
<text text-anchor="middle" x="1000.38" y="-500.5" font-family="Helvetica,sans-Serif" font-size="10.00">LSM1x0A_LoRaWAN::setRx2Delay</text>
</a>
</g>
</g>
<!-- Node16&#45;&gt;Node29 -->
<g id="edge46_Node000016_Node000029" class="edge">
<title>Node16&#45;&gt;Node29</title>
<g id="a_edge46_Node000016_Node000029"><a xlink:title=" ">
<path fill="none" stroke="#63b8ff" d="M867.79,-516.25C878.99,-515.21 890.72,-514.11 902.35,-513.03"/>
<polygon fill="#63b8ff" stroke="#63b8ff" points="902.32,-516.55 911.95,-512.14 901.67,-509.58 902.32,-516.55"/>
</a>
</g>
</g>
<!-- Node30 -->
<g id="Node000030" class="node">
<title>Node30</title>
<g id="a_Node000030"><a xlink:href="../../d5/d72/classLSM1x0A__LoRaWAN.html#a689f7dfda1dfeae11ea397c2ddf2ad37" target="_top" xlink:title="Sets the precise frequency for the RX2 window.">
<polygon fill="white" stroke="#666666" points="1097.25,-476 903.5,-476 903.5,-456 1097.25,-456 1097.25,-476"/>
<text text-anchor="middle" x="1000.38" y="-462.5" font-family="Helvetica,sans-Serif" font-size="10.00">LSM1x0A_LoRaWAN::setRx2Frequency</text>
</a>
</g>
</g>
<!-- Node16&#45;&gt;Node30 -->
<g id="edge48_Node000016_Node000030" class="edge">
<title>Node16&#45;&gt;Node30</title>
<g id="a_edge48_Node000016_Node000030"><a xlink:title=" ">
<path fill="none" stroke="#63b8ff" d="M837.74,-506.51C857.52,-499.24 881.5,-491.01 903.5,-485 911.58,-482.79 920.11,-480.73 928.62,-478.84"/>
<polygon fill="#63b8ff" stroke="#63b8ff" points="929.22,-482.29 938.26,-476.77 927.75,-475.45 929.22,-482.29"/>
</a>
</g>
</g>
<!-- Node31 -->
<g id="Node000031" class="node">
<title>Node31</title>
<g id="a_Node000031"><a xlink:href="../../d5/d72/classLSM1x0A__LoRaWAN.html#a1df10d7ae6bf45b537d28d3d5c4b88d7" target="_top" xlink:title="Sets the transmission power index.">
<polygon fill="white" stroke="#666666" points="1084.88,-438 915.88,-438 915.88,-418 1084.88,-418 1084.88,-438"/>
<text text-anchor="middle" x="1000.38" y="-424.5" font-family="Helvetica,sans-Serif" font-size="10.00">LSM1x0A_LoRaWAN::setTxPower</text>
</a>
</g>
</g>
<!-- Node16&#45;&gt;Node31 -->
<g id="edge50_Node000016_Node000031" class="edge">
<title>Node16&#45;&gt;Node31</title>
<g id="a_edge50_Node000016_Node000031"><a xlink:title=" ">
<path fill="none" stroke="#63b8ff" d="M813.35,-506.66C833.76,-489.16 868.66,-461.89 903.5,-447 908.1,-445.03 912.91,-443.27 917.83,-441.68"/>
<polygon fill="#63b8ff" stroke="#63b8ff" points="918.64,-445.09 927.26,-438.92 916.67,-438.37 918.64,-445.09"/>
</a>
</g>
</g>
<!-- Node32 -->
<g id="Node000032" class="node">
<title>Node32</title>
<g id="a_Node000032"><a xlink:href="../../d5/d72/classLSM1x0A__LoRaWAN.html#a059fd6a9356c4ecadd5a98294da5952d" target="_top" xlink:title="Configures the number of repetitions for Unconfirmed uplinks.">
<polygon fill="white" stroke="#666666" points="1087.88,-400 912.88,-400 912.88,-368 1087.88,-368 1087.88,-400"/>
<text text-anchor="start" x="920.88" y="-386.5" font-family="Helvetica,sans-Serif" font-size="10.00">LSM1x0A_LoRaWAN::setUnconfirm</text>
<text text-anchor="middle" x="1000.38" y="-374.5" font-family="Helvetica,sans-Serif" font-size="10.00">Retry</text>
</a>
</g>
</g>
<!-- Node16&#45;&gt;Node32 -->
<g id="edge52_Node000016_Node000032" class="edge">
<title>Node16&#45;&gt;Node32</title>
<g id="a_edge52_Node000016_Node000032"><a xlink:title=" ">
<path fill="none" stroke="#63b8ff" d="M806.14,-506.67C823.65,-481.73 860.49,-434.39 903.5,-409 905.81,-407.64 908.2,-406.34 910.64,-405.12"/>
<polygon fill="#63b8ff" stroke="#63b8ff" points="911.9,-408.4 919.58,-401.1 909.03,-402.01 911.9,-408.4"/>
</a>
</g>
</g>
<!-- Node17&#45;&gt;Node10 -->
<g id="edge22_Node000017_Node000010" class="edge">
<title>Node17&#45;&gt;Node10</title>
<g id="a_edge22_Node000017_Node000010"><a xlink:title=" ">
<path fill="none" stroke="#63b8ff" d="M1076.65,-348.53C1083.97,-351.2 1090.99,-354.62 1097.25,-359 1152.84,-397.86 1185.69,-474.26 1199.99,-514.97"/>
<polygon fill="#63b8ff" stroke="#63b8ff" points="1196.61,-515.89 1203.12,-524.24 1203.24,-513.65 1196.61,-515.89"/>
</a>
</g>
</g>
<!-- Node18&#45;&gt;Node10 -->
<g id="edge24_Node000018_Node000010" class="edge">
<title>Node18&#45;&gt;Node10</title>
<g id="a_edge24_Node000018_Node000010"><a xlink:title=" ">
<path fill="none" stroke="#63b8ff" d="M1077.02,-310.03C1084.27,-312.79 1091.17,-316.38 1097.25,-321 1161.87,-370.13 1191.71,-467.16 1202.91,-514.6"/>
<polygon fill="#63b8ff" stroke="#63b8ff" points="1199.42,-515.06 1205.03,-524.05 1206.25,-513.53 1199.42,-515.06"/>
</a>
</g>
</g>
<!-- Node19&#45;&gt;Node10 -->
<g id="edge27_Node000019_Node000010" class="edge">
<title>Node19&#45;&gt;Node10</title>
<g id="a_edge27_Node000019_Node000010"><a xlink:title=" ">
<path fill="none" stroke="#63b8ff" d="M1083.08,-273.44C1088.16,-276.14 1092.95,-279.3 1097.25,-283 1169.2,-344.86 1195.98,-461.59 1204.74,-514.59"/>
<polygon fill="#63b8ff" stroke="#63b8ff" points="1201.25,-514.92 1206.24,-524.26 1208.17,-513.84 1201.25,-514.92"/>
</a>
</g>
</g>
<!-- Node20&#45;&gt;Node10 -->
<g id="edge29_Node000020_Node000010" class="edge">
<title>Node20&#45;&gt;Node10</title>
<g id="a_edge29_Node000020_Node000010"><a xlink:title=" ">
<path fill="none" stroke="#63b8ff" d="M1084.69,-871.6C1089.2,-869.21 1093.44,-866.37 1097.25,-863 1135.48,-829.22 1116.72,-802.26 1133.25,-754 1156.06,-687.42 1184.05,-609.52 1198.62,-569.23"/>
<polygon fill="#63b8ff" stroke="#63b8ff" points="1201.89,-570.47 1202.01,-559.87 1195.31,-568.08 1201.89,-570.47"/>
</a>
</g>
</g>
<!-- Node21&#45;&gt;Node10 -->
<g id="edge31_Node000021_Node000010" class="edge">
<title>Node21&#45;&gt;Node10</title>
<g id="a_edge31_Node000021_Node000010"><a xlink:title=" ">
<path fill="none" stroke="#63b8ff" d="M1084.02,-833.58C1088.75,-831.21 1093.21,-828.37 1097.25,-825 1118.03,-807.64 1176.94,-636.39 1199.53,-569.02"/>
<polygon fill="#63b8ff" stroke="#63b8ff" points="1202.74,-570.45 1202.59,-559.86 1196.1,-568.24 1202.74,-570.45"/>
</a>
</g>
</g>
<!-- Node22&#45;&gt;Node10 -->
<g id="edge33_Node000022_Node000010" class="edge">
<title>Node22&#45;&gt;Node10</title>
<g id="a_edge33_Node000022_Node000010"><a xlink:title=" ">
<path fill="none" stroke="#63b8ff" d="M1083.36,-795.56C1088.3,-793.2 1092.99,-790.37 1097.25,-787 1167.75,-731.13 1195.14,-620.69 1204.38,-569.39"/>
<polygon fill="#63b8ff" stroke="#63b8ff" points="1207.79,-570.18 1206.01,-559.74 1200.89,-569.01 1207.79,-570.18"/>
</a>
</g>
</g>
<!-- Node23&#45;&gt;Node10 -->
<g id="edge35_Node000023_Node000010" class="edge">
<title>Node23&#45;&gt;Node10</title>
<g id="a_edge35_Node000023_Node000010"><a xlink:title=" ">
<path fill="none" stroke="#63b8ff" d="M1075.91,-749.05C1083.54,-745.87 1090.83,-741.92 1097.25,-737 1154.24,-693.34 1186.81,-611.57 1200.6,-569.12"/>
<polygon fill="#63b8ff" stroke="#63b8ff" points="1203.9,-570.29 1203.55,-559.7 1197.22,-568.2 1203.9,-570.29"/>
</a>
</g>
</g>
<!-- Node24&#45;&gt;Node10 -->
<g id="edge37_Node000024_Node000010" class="edge">
<title>Node24&#45;&gt;Node10</title>
<g id="a_edge37_Node000024_Node000010"><a xlink:title=" ">
<path fill="none" stroke="#63b8ff" d="M1077.24,-697.37C1084.29,-694.51 1091.09,-691.09 1097.25,-687 1143.06,-656.61 1177.82,-600.94 1195.5,-568.13"/>
<polygon fill="#63b8ff" stroke="#63b8ff" points="1198.39,-570.16 1199.93,-559.68 1192.19,-566.91 1198.39,-570.16"/>
</a>
</g>
</g>
<!-- Node25&#45;&gt;Node10 -->
<g id="edge39_Node000025_Node000010" class="edge">
<title>Node25&#45;&gt;Node10</title>
<g id="a_edge39_Node000025_Node000010"><a xlink:title=" ">
<path fill="none" stroke="#63b8ff" d="M1077.43,-645.62C1084.29,-643.12 1091,-640.26 1097.25,-637 1132.04,-618.85 1165.35,-588.01 1186.31,-566.4"/>
<polygon fill="#63b8ff" stroke="#63b8ff" points="1188.58,-569.1 1192.93,-559.44 1183.5,-564.27 1188.58,-569.1"/>
</a>
</g>
</g>
<!-- Node26&#45;&gt;Node10 -->
<g id="edge41_Node000026_Node000010" class="edge">
<title>Node26&#45;&gt;Node10</title>
<g id="a_edge41_Node000026_Node000010"><a xlink:title=" ">
<path fill="none" stroke="#63b8ff" d="M1067.01,-607.52C1077.26,-605.16 1087.63,-602.34 1097.25,-599 1123.32,-589.94 1150.95,-575.81 1172.15,-563.89"/>
<polygon fill="#63b8ff" stroke="#63b8ff" points="1173.75,-567 1180.69,-559 1170.27,-560.93 1173.75,-567"/>
</a>
</g>
</g>
<!-- Node27&#45;&gt;Node10 -->
<g id="edge43_Node000027_Node000010" class="edge">
<title>Node27&#45;&gt;Node10</title>
<g id="a_edge43_Node000027_Node000010"><a xlink:title=" ">
<path fill="none" stroke="#63b8ff" d="M1058.52,-569.52C1085.36,-564.59 1117.44,-558.71 1145.03,-553.64"/>
<polygon fill="#63b8ff" stroke="#63b8ff" points="1145.46,-557.12 1154.66,-551.88 1144.19,-550.24 1145.46,-557.12"/>
</a>
</g>
</g>
<!-- Node28&#45;&gt;Node10 -->
<g id="edge45_Node000028_Node000010" class="edge">
<title>Node28&#45;&gt;Node10</title>
<g id="a_edge45_Node000028_Node000010"><a xlink:title=" ">
<path fill="none" stroke="#63b8ff" d="M1095.85,-542C1112.34,-542 1129.14,-542 1144.57,-542"/>
<polygon fill="#63b8ff" stroke="#63b8ff" points="1144.55,-545.5 1154.55,-542 1144.55,-538.5 1144.55,-545.5"/>
</a>
</g>
</g>
<!-- Node29&#45;&gt;Node10 -->
<g id="edge47_Node000029_Node000010" class="edge">
<title>Node29&#45;&gt;Node10</title>
<g id="a_edge47_Node000029_Node000010"><a xlink:title=" ">
<path fill="none" stroke="#63b8ff" d="M1058.52,-514.48C1085.36,-519.41 1117.44,-525.29 1145.03,-530.36"/>
<polygon fill="#63b8ff" stroke="#63b8ff" points="1144.19,-533.76 1154.66,-532.12 1145.46,-526.88 1144.19,-533.76"/>
</a>
</g>
</g>
<!-- Node30&#45;&gt;Node10 -->
<g id="edge49_Node000030_Node000010" class="edge">
<title>Node30&#45;&gt;Node10</title>
<g id="a_edge49_Node000030_Node000010"><a xlink:title=" ">
<path fill="none" stroke="#63b8ff" d="M1067.01,-476.48C1077.26,-478.84 1087.63,-481.66 1097.25,-485 1123.32,-494.06 1150.95,-508.19 1172.15,-520.11"/>
<polygon fill="#63b8ff" stroke="#63b8ff" points="1170.27,-523.07 1180.69,-525 1173.75,-517 1170.27,-523.07"/>
</a>
</g>
</g>
<!-- Node31&#45;&gt;Node10 -->
<g id="edge51_Node000031_Node000010" class="edge">
<title>Node31&#45;&gt;Node10</title>
<g id="a_edge51_Node000031_Node000010"><a xlink:title=" ">
<path fill="none" stroke="#63b8ff" d="M1074.64,-438.43C1082.46,-440.74 1090.15,-443.56 1097.25,-447 1132.76,-464.21 1166.15,-495.52 1186.91,-517.48"/>
<polygon fill="#63b8ff" stroke="#63b8ff" points="1184.1,-519.6 1193.46,-524.57 1189.24,-514.85 1184.1,-519.6"/>
</a>
</g>
</g>
<!-- Node32&#45;&gt;Node10 -->
<g id="edge53_Node000032_Node000010" class="edge">
<title>Node32&#45;&gt;Node10</title>
<g id="a_edge53_Node000032_Node000010"><a xlink:title=" ">
<path fill="none" stroke="#63b8ff" d="M1080.5,-400.31C1086.36,-402.81 1092.02,-405.69 1097.25,-409 1140.24,-436.23 1174.97,-485.5 1193.6,-515.83"/>
<polygon fill="#63b8ff" stroke="#63b8ff" points="1190.59,-517.61 1198.73,-524.4 1196.6,-514.02 1190.59,-517.61"/>
</a>
</g>
</g>
<!-- Node34&#45;&gt;Node11 -->
<g id="edge56_Node000034_Node000011" class="edge">
<title>Node34&#45;&gt;Node11</title>
<g id="a_edge56_Node000034_Node000011"><a xlink:title=" ">
<path fill="none" stroke="#63b8ff" d="M1224.07,-762.71C1259.44,-720.24 1354.34,-606.28 1392.08,-560.97"/>
<polygon fill="#63b8ff" stroke="#63b8ff" points="1394.55,-563.47 1398.26,-553.55 1389.17,-558.99 1394.55,-563.47"/>
</a>
</g>
</g>
</g>
</svg>

<g id="navigator" transform="translate(0 0)" fill="#404254">
  <rect fill="#f2f5e9" fill-opacity="0.5" stroke="#606060" stroke-width=".5" x="0" y="0" width="60" height="60"/>
  <use id="zoomplus" xlink:href="#zoomPlus" x="17" y="9" onmousedown="handleZoom(evt,'in')"/>
  <use id="zoomminus" xlink:href="#zoomMin" x="42" y="9" onmousedown="handleZoom(evt,'out')"/>
  <use id="reset" xlink:href="#resetDef" x="30" y="36" onmousedown="handleReset()"/>
   <use id="arrowup" xlink:href="#arrowUp" x="0" y="0" onmousedown="handlePan(0,-1)"/>
  <use id="arrowright" xlink:href="#arrowRight" x="0" y="0" onmousedown="handlePan(1,0)"/>
  <use id="arrowdown" xlink:href="#arrowDown" x="0" y="0" onmousedown="handlePan(0,1)"/>
  <use id="arrowleft" xlink:href="#arrowLeft" x="0" y="0" onmousedown="handlePan(-1,0)"/>
</g>
<svg viewBox="0 0 15 15" width="100%" height="30px" preserveAspectRatio="xMaxYMin meet">
 <g id="arrow_out" transform="scale(0.3 0.3)">
  <a xlink:href="classLSM1x0A__Sigfox_aa61e396f62a7b7332299bf2ac561f28c_cgraph_org.svg" target="_base">
   <rect id="button" ry="5" rx="5" y="6" x="6" height="38" width="38"
        fill="#f2f5e9" fill-opacity="0.5" stroke="#606060" stroke-width="1.0"/>
   <path id="arrow"
     d="M 11.500037,31.436501 C 11.940474,20.09759 22.043105,11.32322 32.158766,21.979434 L 37.068811,17.246167 C 37.068811,17.246167 37.088388,32 37.088388,32 L 22.160133,31.978069 C 22.160133,31.978069 26.997745,27.140456 26.997745,27.140456 C 18.528582,18.264221 13.291696,25.230495 11.500037,31.436501 z"
     style="fill:#404040;"/>
  </a>
 </g>
</svg>

<style type='text/css'>
<![CDATA[
[data-mouse-over-selected='false'] { opacity: 0.7; }
[data-mouse-over-selected='true']  { opacity: 1.0; }
]]>
</style>
<script type="application/ecmascript"><![CDATA[
document.addEventListener('DOMContentLoaded', (event) => {
  highlightEdges();
  highlightAdjacentNodes();
});
]]></script>
</svg>
