<?xml version="1.0" encoding="UTF-8" standalone="no"?>
<!DOCTYPE svg PUBLIC "-//W3C//DTD SVG 1.1//EN"
 "http://www.w3.org/Graphics/SVG/1.1/DTD/svg11.dtd">
<!-- Generated by graphviz version 12.2.1 (20241206.2353)
 -->
<!-- Title: LSM1x0A_Sigfox::setRcChannel Pages: 1 -->
<svg width="1291pt" height="1143pt"
 viewBox="0.00 0.00 1290.75 1143.11" xmlns="http://www.w3.org/2000/svg" xmlns:xlink="http://www.w3.org/1999/xlink">
<g id="graph0" class="graph" transform="scale(1 1) rotate(0) translate(4 1139.11)">
<title>LSM1x0A_Sigfox::setRcChannel</title>
<!-- Node1 -->
<g id="Node000001" class="node">
<title>Node1</title>
<g id="a_Node000001"><a xlink:title="Configures the Regional Macro&#45;Channel (RC).">
<polygon fill="#999999" stroke="#666666" points="160,-490.95 0,-490.95 0,-470.95 160,-470.95 160,-490.95"/>
<text text-anchor="middle" x="80" y="-477.45" font-family="Helvetica,sans-Serif" font-size="10.00">LSM1x0A_Sigfox::setRcChannel</text>
</a>
</g>
</g>
<!-- Node2 -->
<g id="Node000002" class="node">
<title>Node2</title>
<g id="a_Node000002"><a xlink:href="../../d8/d92/classLSM1x0A__Controller.html#afd7d92e60ed6fdae696a955cdbe0ed8c" target="_top" xlink:title="Sends any AT command to the module, returning error if it fails. Internally uses the LsmAtParser logi...">
<polygon fill="white" stroke="#666666" points="302,-496.95 196,-496.95 196,-464.95 302,-464.95 302,-496.95"/>
<text text-anchor="start" x="204" y="-483.45" font-family="Helvetica,sans-Serif" font-size="10.00">LSM1x0A_Controller</text>
<text text-anchor="middle" x="249" y="-471.45" font-family="Helvetica,sans-Serif" font-size="10.00">::sendCommand</text>
</a>
</g>
</g>
<!-- Node1&#45;&gt;Node2 -->
<g id="edge1_Node000001_Node000002" class="edge">
<title>Node1&#45;&gt;Node2</title>
<g id="a_edge1_Node000001_Node000002"><a xlink:title=" ">
<path fill="none" stroke="#63b8ff" d="M160.1,-480.95C168.26,-480.95 176.47,-480.95 184.42,-480.95"/>
<polygon fill="#63b8ff" stroke="#63b8ff" points="184.35,-484.45 194.35,-480.95 184.35,-477.45 184.35,-484.45"/>
</a>
</g>
</g>
<!-- Node3 -->
<g id="Node000003" class="node">
<title>Node3</title>
<g id="a_Node000003"><a xlink:href="../../d8/d92/classLSM1x0A__Controller.html#abb0eb380daa3dfb7acffb483c5db8e2b" target="_top" xlink:title="Executes the recovery protocol. First Soft&#45;Reset (ATZ), then Hard&#45;Reset if there is a pin.">
<polygon fill="white" stroke="#666666" points="444,-938.95 338,-938.95 338,-906.95 444,-906.95 444,-938.95"/>
<text text-anchor="start" x="346" y="-925.45" font-family="Helvetica,sans-Serif" font-size="10.00">LSM1x0A_Controller</text>
<text text-anchor="middle" x="391" y="-913.45" font-family="Helvetica,sans-Serif" font-size="10.00">::recoverModule</text>
</a>
</g>
</g>
<!-- Node2&#45;&gt;Node3 -->
<g id="edge2_Node000002_Node000003" class="edge">
<title>Node2&#45;&gt;Node3</title>
<g id="a_edge2_Node000002_Node000003"><a xlink:title=" ">
<path fill="none" stroke="#63b8ff" d="M253.55,-497.39C264.11,-545.46 297.16,-689.56 338,-804.95 349.35,-837.01 365.54,-872.58 376.83,-896.2"/>
<polygon fill="#63b8ff" stroke="#63b8ff" points="373.63,-897.62 381.13,-905.1 379.93,-894.57 373.63,-897.62"/>
</a>
</g>
</g>
<!-- Node31 -->
<g id="Node000031" class="node">
<title>Node31</title>
<g id="a_Node000031"><a xlink:href="../../d6/d3c/classLSM1x0A__AtParser.html#a29b53c521974387ba6c03afadfaffa4a" target="_top" xlink:title="Sends a simple command and waits for OK/ERROR. Example: sendCommand(&quot;AT+JOIN&quot;);.">
<polygon fill="white" stroke="#666666" points="858.5,-1118.95 684.25,-1118.95 684.25,-1098.95 858.5,-1098.95 858.5,-1118.95"/>
<text text-anchor="middle" x="771.38" y="-1105.45" font-family="Helvetica,sans-Serif" font-size="10.00">LSM1x0A_AtParser::sendCommand</text>
</a>
</g>
</g>
<!-- Node2&#45;&gt;Node31 -->
<g id="edge55_Node000002_Node000031" class="edge">
<title>Node2&#45;&gt;Node31</title>
<g id="a_edge55_Node000002_Node000031"><a xlink:title=" ">
<path fill="none" stroke="#63b8ff" d="M250.06,-497.2C250.88,-559.15 259.42,-785.25 338,-947.95 379.93,-1034.77 392.31,-1071.88 480,-1111.95 557.76,-1147.48 659.91,-1134.62 720.02,-1121.89"/>
<polygon fill="#63b8ff" stroke="#63b8ff" points="720.61,-1125.34 729.62,-1119.77 719.1,-1118.51 720.61,-1125.34"/>
</a>
</g>
</g>
<!-- Node4 -->
<g id="Node000004" class="node">
<title>Node4</title>
<g id="a_Node000004"><a xlink:href="../../d8/d92/classLSM1x0A__Controller.html#a3f6f25b843fe4fb7042c544deae2ab16" target="_top" xlink:title="Manually clears bits from the internal EventGroup.">
<polygon fill="white" stroke="#666666" points="1052.25,-957.95 946.25,-957.95 946.25,-925.95 1052.25,-925.95 1052.25,-957.95"/>
<text text-anchor="start" x="954.25" y="-944.45" font-family="Helvetica,sans-Serif" font-size="10.00">LSM1x0A_Controller</text>
<text text-anchor="middle" x="999.25" y="-932.45" font-family="Helvetica,sans-Serif" font-size="10.00">::clearEvents</text>
</a>
</g>
</g>
<!-- Node3&#45;&gt;Node4 -->
<g id="edge3_Node000003_Node000004" class="edge">
<title>Node3&#45;&gt;Node4</title>
<g id="a_edge3_Node000003_Node000004"><a xlink:title=" ">
<path fill="none" stroke="#63b8ff" d="M408.08,-939.29C424.5,-954.72 451.56,-976.82 480,-985.95 639.57,-1037.18 840.16,-991 938.43,-961.72"/>
<polygon fill="#63b8ff" stroke="#63b8ff" points="939.32,-965.11 947.87,-958.86 937.29,-958.41 939.32,-965.11"/>
</a>
</g>
</g>
<!-- Node5 -->
<g id="Node000005" class="node">
<title>Node5</title>
<g id="a_Node000005"><a xlink:href="../../d8/d92/classLSM1x0A__Controller.html#a345d4bd79fa16b18dc33a4ca788fe5f7" target="_top" xlink:title="Performs a hardware reset using the reset pin.">
<polygon fill="white" stroke="#666666" points="612.25,-938.95 506.25,-938.95 506.25,-906.95 612.25,-906.95 612.25,-938.95"/>
<text text-anchor="start" x="514.25" y="-925.45" font-family="Helvetica,sans-Serif" font-size="10.00">LSM1x0A_Controller</text>
<text text-anchor="middle" x="559.25" y="-913.45" font-family="Helvetica,sans-Serif" font-size="10.00">::hardwareReset</text>
</a>
</g>
</g>
<!-- Node3&#45;&gt;Node5 -->
<g id="edge4_Node000003_Node000005" class="edge">
<title>Node3&#45;&gt;Node5</title>
<g id="a_edge4_Node000003_Node000005"><a xlink:title=" ">
<path fill="none" stroke="#63b8ff" d="M444.15,-922.95C460.16,-922.95 477.97,-922.95 494.66,-922.95"/>
<polygon fill="#63b8ff" stroke="#63b8ff" points="494.49,-926.45 504.49,-922.95 494.49,-919.45 494.49,-926.45"/>
</a>
</g>
</g>
<!-- Node7 -->
<g id="Node000007" class="node">
<title>Node7</title>
<g id="a_Node000007"><a xlink:href="../../d5/d72/classLSM1x0A__LoRaWAN.html#a1892801e37c8cd67d37c76108d6f7d49" target="_top" xlink:title="Validates if the device is currently Joined to the network. (Either confirmed by OTAA or statically a...">
<polygon fill="white" stroke="#666666" points="1282.75,-926.95 1130.25,-926.95 1130.25,-906.95 1282.75,-906.95 1282.75,-926.95"/>
<text text-anchor="middle" x="1206.5" y="-913.45" font-family="Helvetica,sans-Serif" font-size="10.00">LSM1x0A_LoRaWAN::isJoined</text>
</a>
</g>
</g>
<!-- Node3&#45;&gt;Node7 -->
<g id="edge6_Node000003_Node000007" class="edge">
<title>Node3&#45;&gt;Node7</title>
<g id="a_edge6_Node000003_Node000007"><a xlink:title=" ">
<path fill="none" stroke="#63b8ff" d="M437.94,-939.25C440.08,-940.7 442.11,-942.26 444,-943.95 469.17,-966.51 450.99,-993.6 480,-1010.95 490.7,-1017.34 806.16,-1014.94 868.25,-1008.95 969.94,-999.13 996.74,-997.44 1094.25,-966.95 1123.08,-957.93 1154.33,-943.44 1176.34,-932.37"/>
<polygon fill="#63b8ff" stroke="#63b8ff" points="1177.7,-935.61 1185.01,-927.94 1174.51,-929.38 1177.7,-935.61"/>
</a>
</g>
</g>
<!-- Node8 -->
<g id="Node000008" class="node">
<title>Node8</title>
<g id="a_Node000008"><a xlink:href="../../d5/d72/classLSM1x0A__LoRaWAN.html#a83e11c0e74ff9e0757db616ab1163424" target="_top" xlink:title="Attempts to recover a lost connection (re&#45;executes OTAA Join if dropped).">
<polygon fill="white" stroke="#666666" points="633.62,-850.95 484.88,-850.95 484.88,-818.95 633.62,-818.95 633.62,-850.95"/>
<text text-anchor="start" x="492.88" y="-837.45" font-family="Helvetica,sans-Serif" font-size="10.00">LSM1x0A_LoRaWAN::recover</text>
<text text-anchor="middle" x="559.25" y="-825.45" font-family="Helvetica,sans-Serif" font-size="10.00">Connection</text>
</a>
</g>
</g>
<!-- Node3&#45;&gt;Node8 -->
<g id="edge7_Node000003_Node000008" class="edge">
<title>Node3&#45;&gt;Node8</title>
<g id="a_edge7_Node000003_Node000008"><a xlink:title=" ">
<path fill="none" stroke="#63b8ff" d="M413.97,-906.53C431.3,-894.07 456.4,-877.07 480,-864.95 486.29,-861.72 493,-858.64 499.76,-855.76"/>
<polygon fill="#63b8ff" stroke="#63b8ff" points="501.03,-859.02 508.96,-851.99 498.38,-852.55 501.03,-859.02"/>
</a>
</g>
</g>
<!-- Node12 -->
<g id="Node000012" class="node">
<title>Node12</title>
<g id="a_Node000012"><a xlink:href="../../d5/d72/classLSM1x0A__LoRaWAN.html#ae3be4ce59dfa200369733317df356e97" target="_top" xlink:title="Pushes the RAM&#45;cached variables back down into the hardware module. Restores the operational state af...">
<polygon fill="white" stroke="#666666" points="632.5,-496.95 486,-496.95 486,-464.95 632.5,-464.95 632.5,-496.95"/>
<text text-anchor="start" x="494" y="-483.45" font-family="Helvetica,sans-Serif" font-size="10.00">LSM1x0A_LoRaWAN::restore</text>
<text text-anchor="middle" x="559.25" y="-471.45" font-family="Helvetica,sans-Serif" font-size="10.00">Config</text>
</a>
</g>
</g>
<!-- Node3&#45;&gt;Node12 -->
<g id="edge16_Node000003_Node000012" class="edge">
<title>Node3&#45;&gt;Node12</title>
<g id="a_edge16_Node000003_Node000012"><a xlink:title=" ">
<path fill="none" stroke="#63b8ff" d="M398.11,-906.69C423.01,-840.5 516.92,-590.84 548.11,-507.91"/>
<polygon fill="#63b8ff" stroke="#63b8ff" points="551.3,-509.36 551.55,-498.77 544.75,-506.9 551.3,-509.36"/>
</a>
</g>
</g>
<!-- Node29 -->
<g id="Node000029" class="node">
<title>Node29</title>
<g id="a_Node000029"><a xlink:href="../../d5/d72/classLSM1x0A__LoRaWAN.html#ace4b04396f1de1f4a54f513f5f378db7" target="_top" xlink:title="Manually overrides the internal joined state tracker.">
<polygon fill="white" stroke="#666666" points="638.5,-976.95 480,-976.95 480,-956.95 638.5,-956.95 638.5,-976.95"/>
<text text-anchor="middle" x="559.25" y="-963.45" font-family="Helvetica,sans-Serif" font-size="10.00">LSM1x0A_LoRaWAN::setJoined</text>
</a>
</g>
</g>
<!-- Node3&#45;&gt;Node29 -->
<g id="edge50_Node000003_Node000029" class="edge">
<title>Node3&#45;&gt;Node29</title>
<g id="a_edge50_Node000003_Node000029"><a xlink:title=" ">
<path fill="none" stroke="#63b8ff" d="M444.49,-938.22C456.16,-941.51 468.48,-944.91 480,-947.95 487.36,-949.89 495.12,-951.86 502.79,-953.76"/>
<polygon fill="#63b8ff" stroke="#63b8ff" points="501.88,-957.14 512.43,-956.13 503.55,-950.35 501.88,-957.14"/>
</a>
</g>
</g>
<!-- Node30 -->
<g id="Node000030" class="node">
<title>Node30</title>
<g id="a_Node000030"><a xlink:href="../../d8/d92/classLSM1x0A__Controller.html#a11ad21cb5ca33ec51346764a23bd485e" target="_top" xlink:title="Performs a software reset (ATZ Command).">
<polygon fill="white" stroke="#666666" points="612.25,-1102.95 506.25,-1102.95 506.25,-1070.95 612.25,-1070.95 612.25,-1102.95"/>
<text text-anchor="start" x="514.25" y="-1089.45" font-family="Helvetica,sans-Serif" font-size="10.00">LSM1x0A_Controller</text>
<text text-anchor="middle" x="559.25" y="-1077.45" font-family="Helvetica,sans-Serif" font-size="10.00">::softwareReset</text>
</a>
</g>
</g>
<!-- Node3&#45;&gt;Node30 -->
<g id="edge51_Node000003_Node000030" class="edge">
<title>Node3&#45;&gt;Node30</title>
<g id="a_edge51_Node000003_Node000030"><a xlink:title=" ">
<path fill="none" stroke="#63b8ff" d="M398.7,-939.34C410.89,-967.25 439.25,-1024.13 480,-1056.95 484.82,-1060.83 490.19,-1064.24 495.8,-1067.25"/>
<polygon fill="#63b8ff" stroke="#63b8ff" points="494.21,-1070.36 504.73,-1071.55 497.25,-1064.06 494.21,-1070.36"/>
</a>
</g>
</g>
<!-- Node6 -->
<g id="Node000006" class="node">
<title>Node6</title>
<g id="a_Node000006"><a xlink:href="../../d6/d3c/classLSM1x0A__AtParser.html#ad2839120da13e56132b95019419be1e5" target="_top" xlink:title="Waits for an event (like BOOTALERT) without sending any command. Useful for hardware reset where the ...">
<polygon fill="white" stroke="#666666" points="841.62,-938.95 701.12,-938.95 701.12,-906.95 841.62,-906.95 841.62,-938.95"/>
<text text-anchor="start" x="709.12" y="-925.45" font-family="Helvetica,sans-Serif" font-size="10.00">LSM1x0A_AtParser::waitFor</text>
<text text-anchor="middle" x="771.38" y="-913.45" font-family="Helvetica,sans-Serif" font-size="10.00">Event</text>
</a>
</g>
</g>
<!-- Node5&#45;&gt;Node6 -->
<g id="edge5_Node000005_Node000006" class="edge">
<title>Node5&#45;&gt;Node6</title>
<g id="a_edge5_Node000005_Node000006"><a xlink:title=" ">
<path fill="none" stroke="#63b8ff" d="M612.73,-922.95C635.92,-922.95 663.72,-922.95 689.46,-922.95"/>
<polygon fill="#63b8ff" stroke="#63b8ff" points="689.22,-926.45 699.22,-922.95 689.22,-919.45 689.22,-926.45"/>
</a>
</g>
</g>
<!-- Node9 -->
<g id="Node000009" class="node">
<title>Node9</title>
<g id="a_Node000009"><a xlink:href="../../d5/d72/classLSM1x0A__LoRaWAN.html#a59f781f3cfd30c11cd3973bcb10a7baa" target="_top" xlink:title="Initiates a LoRaWAN Network Join procedure. This is a blocking function until the module fires an eve...">
<polygon fill="white" stroke="#666666" points="837.12,-844.95 705.62,-844.95 705.62,-824.95 837.12,-824.95 837.12,-844.95"/>
<text text-anchor="middle" x="771.38" y="-831.45" font-family="Helvetica,sans-Serif" font-size="10.00">LSM1x0A_LoRaWAN::join</text>
</a>
</g>
</g>
<!-- Node8&#45;&gt;Node9 -->
<g id="edge8_Node000008_Node000009" class="edge">
<title>Node8&#45;&gt;Node9</title>
<g id="a_edge8_Node000008_Node000009"><a xlink:title=" ">
<path fill="none" stroke="#63b8ff" d="M634.04,-834.95C653.41,-834.95 674.35,-834.95 693.86,-834.95"/>
<polygon fill="#63b8ff" stroke="#63b8ff" points="693.65,-838.45 703.65,-834.95 693.65,-831.45 693.65,-838.45"/>
</a>
</g>
</g>
<!-- Node9&#45;&gt;Node2 -->
<g id="edge11_Node000009_Node000002" class="edge">
<title>Node9&#45;&gt;Node2</title>
<g id="a_edge11_Node000009_Node000002"><a xlink:title=" ">
<path fill="none" stroke="#63b8ff" d="M717.15,-824.5C658.52,-812.53 561.73,-791.38 480,-766.95 415.61,-747.69 385.73,-762.27 338,-714.95 279.73,-657.18 259.53,-557.13 252.95,-508.74"/>
<polygon fill="#63b8ff" stroke="#63b8ff" points="256.43,-508.33 251.72,-498.84 249.48,-509.2 256.43,-508.33"/>
</a>
</g>
</g>
<!-- Node9&#45;&gt;Node3 -->
<g id="edge10_Node000009_Node000003" class="edge">
<title>Node9&#45;&gt;Node3</title>
<g id="a_edge10_Node000009_Node000003"><a xlink:title=" ">
<path fill="none" stroke="#63b8ff" d="M717.15,-845.44C658.74,-857.21 562.32,-877.35 480,-897.95 472.06,-899.94 463.74,-902.14 455.53,-904.39"/>
<polygon fill="#63b8ff" stroke="#63b8ff" points="454.59,-901.01 445.9,-907.06 456.47,-907.76 454.59,-901.01"/>
</a>
</g>
</g>
<!-- Node9&#45;&gt;Node4 -->
<g id="edge9_Node000009_Node000004" class="edge">
<title>Node9&#45;&gt;Node4</title>
<g id="a_edge9_Node000009_Node000004"><a xlink:title=" ">
<path fill="none" stroke="#63b8ff" d="M794.44,-845.4C831.16,-862.79 905.48,-898 953.51,-920.75"/>
<polygon fill="#63b8ff" stroke="#63b8ff" points="951.72,-923.78 962.26,-924.9 954.72,-917.45 951.72,-923.78"/>
</a>
</g>
</g>
<!-- Node10 -->
<g id="Node000010" class="node">
<title>Node10</title>
<g id="a_Node000010"><a xlink:href="../../d5/d72/classLSM1x0A__LoRaWAN.html#a3fdd1ac318a5ad2559323e5d57e36a5e" target="_top" xlink:title="Enables or disables specific sub&#45;bands for regions supporting Channel Masks (e.g.,...">
<polygon fill="white" stroke="#666666" points="1094.25,-654.95 904.25,-654.95 904.25,-634.95 1094.25,-634.95 1094.25,-654.95"/>
<text text-anchor="middle" x="999.25" y="-641.45" font-family="Helvetica,sans-Serif" font-size="10.00">LSM1x0A_LoRaWAN::setChannelMask</text>
</a>
</g>
</g>
<!-- Node9&#45;&gt;Node10 -->
<g id="edge12_Node000009_Node000010" class="edge">
<title>Node9&#45;&gt;Node10</title>
<g id="a_edge12_Node000009_Node000010"><a xlink:title=" ">
<path fill="none" stroke="#63b8ff" d="M831.68,-824.45C844.4,-820.55 857.3,-815.22 868.25,-807.95 925.12,-770.19 968.75,-699.61 987.79,-665.05"/>
<polygon fill="#63b8ff" stroke="#63b8ff" points="990.72,-666.98 992.37,-656.52 984.55,-663.67 990.72,-666.98"/>
</a>
</g>
</g>
<!-- Node11 -->
<g id="Node000011" class="node">
<title>Node11</title>
<g id="a_Node000011"><a xlink:href="../../d8/d92/classLSM1x0A__Controller.html#a62476e30e50c7fe120aeb8df4b828675" target="_top" xlink:title="Synchronously/blockingly waits for an asynchronous event to occur. Useful for wrapping commands like ...">
<polygon fill="white" stroke="#666666" points="1052.25,-850.95 946.25,-850.95 946.25,-818.95 1052.25,-818.95 1052.25,-850.95"/>
<text text-anchor="start" x="954.25" y="-837.45" font-family="Helvetica,sans-Serif" font-size="10.00">LSM1x0A_Controller</text>
<text text-anchor="middle" x="999.25" y="-825.45" font-family="Helvetica,sans-Serif" font-size="10.00">::waitForEvent</text>
</a>
</g>
</g>
<!-- Node9&#45;&gt;Node11 -->
<g id="edge15_Node000009_Node000011" class="edge">
<title>Node9&#45;&gt;Node11</title>
<g id="a_edge15_Node000009_Node000011"><a xlink:title=" ">
<path fill="none" stroke="#63b8ff" d="M837.4,-834.95C867.91,-834.95 904.15,-834.95 934.49,-834.95"/>
<polygon fill="#63b8ff" stroke="#63b8ff" points="934.3,-838.45 944.3,-834.95 934.3,-831.45 934.3,-838.45"/>
</a>
</g>
</g>
<!-- Node10&#45;&gt;Node2 -->
<g id="edge14_Node000010_Node000002" class="edge">
<title>Node10&#45;&gt;Node2</title>
<g id="a_edge14_Node000010_Node000002"><a xlink:title=" ">
<path fill="none" stroke="#63b8ff" d="M997.47,-634.73C992.02,-566.01 957.1,-172.04 868.25,-101.95 683.09,44.11 519.15,29.06 338,-121.95 286.42,-164.95 260.36,-377.61 252.57,-453.76"/>
<polygon fill="#63b8ff" stroke="#63b8ff" points="249.13,-452.96 251.62,-463.26 256.09,-453.65 249.13,-452.96"/>
</a>
</g>
</g>
<!-- Node10&#45;&gt;Node7 -->
<g id="edge13_Node000010_Node000007" class="edge">
<title>Node10&#45;&gt;Node7</title>
<g id="a_edge13_Node000010_Node000007"><a xlink:title=" ">
<path fill="none" stroke="#63b8ff" d="M1008.05,-655.28C1038.59,-695.76 1150.42,-843.95 1190.82,-897.49"/>
<polygon fill="#63b8ff" stroke="#63b8ff" points="1187.97,-899.52 1196.79,-905.4 1193.56,-895.31 1187.97,-899.52"/>
</a>
</g>
</g>
<!-- Node12&#45;&gt;Node10 -->
<g id="edge21_Node000012_Node000010" class="edge">
<title>Node12&#45;&gt;Node10</title>
<g id="a_edge21_Node000012_Node000010"><a xlink:title=" ">
<path fill="none" stroke="#63b8ff" d="M632.74,-484.29C710.4,-488.81 827.93,-498.64 868.25,-517.95 920.18,-542.82 964.13,-596.76 985.09,-625.7"/>
<polygon fill="#63b8ff" stroke="#63b8ff" points="982.02,-627.41 990.65,-633.56 987.74,-623.37 982.02,-627.41"/>
</a>
</g>
</g>
<!-- Node13 -->
<g id="Node000013" class="node">
<title>Node13</title>
<g id="a_Node000013"><a xlink:href="../../d5/d72/classLSM1x0A__LoRaWAN.html#af0baa3db4c7fab580d6b19a9e92472f6" target="_top" xlink:title="Enables or disables Adaptive Data Rate (ADR).">
<polygon fill="white" stroke="#666666" points="847.25,-798.95 695.5,-798.95 695.5,-778.95 847.25,-778.95 847.25,-798.95"/>
<text text-anchor="middle" x="771.38" y="-785.45" font-family="Helvetica,sans-Serif" font-size="10.00">LSM1x0A_LoRaWAN::setADR</text>
</a>
</g>
</g>
<!-- Node12&#45;&gt;Node13 -->
<g id="edge17_Node000012_Node000013" class="edge">
<title>Node12&#45;&gt;Node13</title>
<g id="a_edge17_Node000012_Node000013"><a xlink:title=" ">
<path fill="none" stroke="#63b8ff" d="M561.43,-497.13C565.95,-546.58 586.65,-696.7 674.5,-769.95 677.75,-772.66 681.29,-775.03 685.01,-777.08"/>
<polygon fill="#63b8ff" stroke="#63b8ff" points="683.34,-780.17 693.88,-781.21 686.29,-773.82 683.34,-780.17"/>
</a>
</g>
</g>
<!-- Node14 -->
<g id="Node000014" class="node">
<title>Node14</title>
<g id="a_Node000014"><a xlink:href="../../d5/d72/classLSM1x0A__LoRaWAN.html#a5365ed1596eb84ebf1e3b33b4a10c788" target="_top" xlink:title="Sets the LoRaWAN operational frequency band.">
<polygon fill="white" stroke="#666666" points="847.62,-760.95 695.12,-760.95 695.12,-740.95 847.62,-740.95 847.62,-760.95"/>
<text text-anchor="middle" x="771.38" y="-747.45" font-family="Helvetica,sans-Serif" font-size="10.00">LSM1x0A_LoRaWAN::setBand</text>
</a>
</g>
</g>
<!-- Node12&#45;&gt;Node14 -->
<g id="edge19_Node000012_Node000014" class="edge">
<title>Node12&#45;&gt;Node14</title>
<g id="a_edge19_Node000012_Node000014"><a xlink:title=" ">
<path fill="none" stroke="#63b8ff" d="M562.51,-497.27C569.67,-542.46 596.23,-669.99 674.5,-731.95 677.66,-734.45 681.05,-736.64 684.61,-738.58"/>
<polygon fill="#63b8ff" stroke="#63b8ff" points="683.1,-741.74 693.65,-742.72 686.02,-735.37 683.1,-741.74"/>
</a>
</g>
</g>
<!-- Node15 -->
<g id="Node000015" class="node">
<title>Node15</title>
<g id="a_Node000015"><a xlink:href="../../d5/d72/classLSM1x0A__LoRaWAN.html#a9d9285c43414337a0ccb3a6cd7ca06e6" target="_top" xlink:title="Configures the number of retries for Confirmed uplinks.">
<polygon fill="white" stroke="#666666" points="853.62,-722.95 689.12,-722.95 689.12,-690.95 853.62,-690.95 853.62,-722.95"/>
<text text-anchor="start" x="697.12" y="-709.45" font-family="Helvetica,sans-Serif" font-size="10.00">LSM1x0A_LoRaWAN::setConfirm</text>
<text text-anchor="middle" x="771.38" y="-697.45" font-family="Helvetica,sans-Serif" font-size="10.00">Retry</text>
</a>
</g>
</g>
<!-- Node12&#45;&gt;Node15 -->
<g id="edge22_Node000012_Node000015" class="edge">
<title>Node12&#45;&gt;Node15</title>
<g id="a_edge22_Node000012_Node000015"><a xlink:title=" ">
<path fill="none" stroke="#63b8ff" d="M564.77,-497.42C576.23,-535.98 610.17,-632.59 674.5,-681.95 675.86,-682.99 677.27,-684 678.71,-684.96"/>
<polygon fill="#63b8ff" stroke="#63b8ff" points="676.93,-687.98 687.34,-689.96 680.44,-681.92 676.93,-687.98"/>
</a>
</g>
</g>
<!-- Node16 -->
<g id="Node000016" class="node">
<title>Node16</title>
<g id="a_Node000016"><a xlink:href="../../d5/d72/classLSM1x0A__LoRaWAN.html#a56345ceeafa0b9059d6de4e69eddc82e" target="_top" xlink:title="Sets the Data Rate (DR) of the module.">
<polygon fill="white" stroke="#666666" points="857.38,-672.95 685.38,-672.95 685.38,-652.95 857.38,-652.95 857.38,-672.95"/>
<text text-anchor="middle" x="771.38" y="-659.45" font-family="Helvetica,sans-Serif" font-size="10.00">LSM1x0A_LoRaWAN::setDataRate</text>
</a>
</g>
</g>
<!-- Node12&#45;&gt;Node16 -->
<g id="edge24_Node000012_Node000016" class="edge">
<title>Node12&#45;&gt;Node16</title>
<g id="a_edge24_Node000012_Node000016"><a xlink:title=" ">
<path fill="none" stroke="#63b8ff" d="M566.68,-497.26C580.74,-530.68 617.61,-606.87 674.5,-643.95 676.64,-645.34 678.85,-646.63 681.13,-647.84"/>
<polygon fill="#63b8ff" stroke="#63b8ff" points="679.55,-650.96 690.1,-651.92 682.45,-644.59 679.55,-650.96"/>
</a>
</g>
</g>
<!-- Node17 -->
<g id="Node000017" class="node">
<title>Node17</title>
<g id="a_Node000017"><a xlink:href="../../d5/d72/classLSM1x0A__LoRaWAN.html#a8494083816ab885cb07fc3b08de029f4" target="_top" xlink:title="Sets the LoRaWAN Device Address (DevAddr) for ABP mode.">
<polygon fill="white" stroke="#666666" points="855.5,-634.95 687.25,-634.95 687.25,-614.95 855.5,-614.95 855.5,-634.95"/>
<text text-anchor="middle" x="771.38" y="-621.45" font-family="Helvetica,sans-Serif" font-size="10.00">LSM1x0A_LoRaWAN::setDevAddr</text>
</a>
</g>
</g>
<!-- Node12&#45;&gt;Node17 -->
<g id="edge26_Node000012_Node000017" class="edge">
<title>Node12&#45;&gt;Node17</title>
<g id="a_edge26_Node000012_Node000017"><a xlink:title=" ">
<path fill="none" stroke="#63b8ff" d="M570.24,-497.41C587.72,-524.7 626.6,-578.97 674.5,-605.95 677.34,-607.55 680.3,-609.02 683.33,-610.36"/>
<polygon fill="#63b8ff" stroke="#63b8ff" points="681.92,-613.57 692.51,-613.93 684.46,-607.04 681.92,-613.57"/>
</a>
</g>
</g>
<!-- Node18 -->
<g id="Node000018" class="node">
<title>Node18</title>
<g id="a_Node000018"><a xlink:href="../../d5/d72/classLSM1x0A__LoRaWAN.html#ad320634e52d7ea907043cc50dd37c5b0" target="_top" xlink:title="Sets the LoRaWAN Device EUI (DevEUI).">
<polygon fill="white" stroke="#666666" points="854,-596.95 688.75,-596.95 688.75,-576.95 854,-576.95 854,-596.95"/>
<text text-anchor="middle" x="771.38" y="-583.45" font-family="Helvetica,sans-Serif" font-size="10.00">LSM1x0A_LoRaWAN::setDevEUI</text>
</a>
</g>
</g>
<!-- Node12&#45;&gt;Node18 -->
<g id="edge28_Node000012_Node000018" class="edge">
<title>Node12&#45;&gt;Node18</title>
<g id="a_edge28_Node000012_Node000018"><a xlink:title=" ">
<path fill="none" stroke="#63b8ff" d="M576.45,-497.21C597.27,-517.12 635.4,-550.34 674.5,-567.95 678.76,-569.87 683.22,-571.6 687.78,-573.15"/>
<polygon fill="#63b8ff" stroke="#63b8ff" points="686.53,-576.43 697.12,-576.02 688.59,-569.74 686.53,-576.43"/>
</a>
</g>
</g>
<!-- Node19 -->
<g id="Node000019" class="node">
<title>Node19</title>
<g id="a_Node000019"><a xlink:href="../../d5/d72/classLSM1x0A__LoRaWAN.html#a031023b0d2dd5db3c51c2db6ae7801cc" target="_top" xlink:title="Enables or disables the Duty Cycle limitation (EU regions mostly).">
<polygon fill="white" stroke="#666666" points="846.88,-558.95 695.88,-558.95 695.88,-526.95 846.88,-526.95 846.88,-558.95"/>
<text text-anchor="start" x="703.88" y="-545.45" font-family="Helvetica,sans-Serif" font-size="10.00">LSM1x0A_LoRaWAN::setDuty</text>
<text text-anchor="middle" x="771.38" y="-533.45" font-family="Helvetica,sans-Serif" font-size="10.00">Cycle</text>
</a>
</g>
</g>
<!-- Node12&#45;&gt;Node19 -->
<g id="edge30_Node000012_Node000019" class="edge">
<title>Node12&#45;&gt;Node19</title>
<g id="a_edge30_Node000012_Node000019"><a xlink:title=" ">
<path fill="none" stroke="#63b8ff" d="M616.01,-497.4C642.95,-505.35 675.48,-514.95 703.73,-523.28"/>
<polygon fill="#63b8ff" stroke="#63b8ff" points="702.69,-526.62 713.27,-526.1 704.67,-519.91 702.69,-526.62"/>
</a>
</g>
</g>
<!-- Node20 -->
<g id="Node000020" class="node">
<title>Node20</title>
<g id="a_Node000020"><a xlink:href="../../d5/d72/classLSM1x0A__LoRaWAN.html#a6b179d5825c49af0f391dfc539912f64" target="_top" xlink:title="Sets the delay for the Join1 receive window.">
<polygon fill="white" stroke="#666666" points="848,-470.95 694.75,-470.95 694.75,-438.95 848,-438.95 848,-470.95"/>
<text text-anchor="start" x="702.75" y="-457.45" font-family="Helvetica,sans-Serif" font-size="10.00">LSM1x0A_LoRaWAN::setJoin1</text>
<text text-anchor="middle" x="771.38" y="-445.45" font-family="Helvetica,sans-Serif" font-size="10.00">Delay</text>
</a>
</g>
</g>
<!-- Node12&#45;&gt;Node20 -->
<g id="edge32_Node000012_Node000020" class="edge">
<title>Node12&#45;&gt;Node20</title>
<g id="a_edge32_Node000012_Node000020"><a xlink:title=" ">
<path fill="none" stroke="#63b8ff" d="M632.86,-471.96C649.21,-469.94 666.72,-467.77 683.58,-465.69"/>
<polygon fill="#63b8ff" stroke="#63b8ff" points="683.55,-469.22 693.05,-464.52 682.69,-462.27 683.55,-469.22"/>
</a>
</g>
</g>
<!-- Node21 -->
<g id="Node000021" class="node">
<title>Node21</title>
<g id="a_Node000021"><a xlink:href="../../d5/d72/classLSM1x0A__LoRaWAN.html#a4545d0caad41558cdb9bae8286b104d8" target="_top" xlink:title="Sets the delay for the Join2 receive window.">
<polygon fill="white" stroke="#666666" points="848,-420.95 694.75,-420.95 694.75,-388.95 848,-388.95 848,-420.95"/>
<text text-anchor="start" x="702.75" y="-407.45" font-family="Helvetica,sans-Serif" font-size="10.00">LSM1x0A_LoRaWAN::setJoin2</text>
<text text-anchor="middle" x="771.38" y="-395.45" font-family="Helvetica,sans-Serif" font-size="10.00">Delay</text>
</a>
</g>
</g>
<!-- Node12&#45;&gt;Node21 -->
<g id="edge34_Node000012_Node000021" class="edge">
<title>Node12&#45;&gt;Node21</title>
<g id="a_edge34_Node000012_Node000021"><a xlink:title=" ">
<path fill="none" stroke="#63b8ff" d="M593.16,-464.52C615.67,-453.71 646.42,-439.8 674.5,-429.95 679.79,-428.09 685.29,-426.3 690.86,-424.59"/>
<polygon fill="#63b8ff" stroke="#63b8ff" points="691.57,-428.03 700.16,-421.84 689.58,-421.32 691.57,-428.03"/>
</a>
</g>
</g>
<!-- Node22 -->
<g id="Node000022" class="node">
<title>Node22</title>
<g id="a_Node000022"><a xlink:href="../../d5/d72/classLSM1x0A__LoRaWAN.html#a06bd50723ec1eb7e144c9141b2ec86fc" target="_top" xlink:title="Sets the LoRaWAN Network ID (NetID).">
<polygon fill="white" stroke="#666666" points="851.75,-370.95 691,-370.95 691,-350.95 851.75,-350.95 851.75,-370.95"/>
<text text-anchor="middle" x="771.38" y="-357.45" font-family="Helvetica,sans-Serif" font-size="10.00">LSM1x0A_LoRaWAN::setNwkID</text>
</a>
</g>
</g>
<!-- Node12&#45;&gt;Node22 -->
<g id="edge36_Node000012_Node000022" class="edge">
<title>Node12&#45;&gt;Node22</title>
<g id="a_edge36_Node000012_Node000022"><a xlink:title=" ">
<path fill="none" stroke="#63b8ff" d="M573.51,-464.74C593.1,-441.98 632.03,-400.98 674.5,-379.95 678.18,-378.13 682.01,-376.48 685.95,-374.99"/>
<polygon fill="#63b8ff" stroke="#63b8ff" points="686.76,-378.41 695.11,-371.9 684.52,-371.78 686.76,-378.41"/>
</a>
</g>
</g>
<!-- Node23 -->
<g id="Node000023" class="node">
<title>Node23</title>
<g id="a_Node000023"><a xlink:href="../../d5/d72/classLSM1x0A__LoRaWAN.html#aa70ada64d28ecca216bb62268e502adf" target="_top" xlink:title="Sets the delay for the RX1 receive window.">
<polygon fill="white" stroke="#666666" points="858.12,-332.95 684.62,-332.95 684.62,-312.95 858.12,-312.95 858.12,-332.95"/>
<text text-anchor="middle" x="771.38" y="-319.45" font-family="Helvetica,sans-Serif" font-size="10.00">LSM1x0A_LoRaWAN::setRx1Delay</text>
</a>
</g>
</g>
<!-- Node12&#45;&gt;Node23 -->
<g id="edge38_Node000012_Node000023" class="edge">
<title>Node12&#45;&gt;Node23</title>
<g id="a_edge38_Node000012_Node000023"><a xlink:title=" ">
<path fill="none" stroke="#63b8ff" d="M568.7,-464.54C584.9,-434.88 623.3,-372.58 674.5,-341.95 676.98,-340.46 679.56,-339.09 682.21,-337.82"/>
<polygon fill="#63b8ff" stroke="#63b8ff" points="683.46,-341.09 691.34,-334.02 680.76,-334.63 683.46,-341.09"/>
</a>
</g>
</g>
<!-- Node24 -->
<g id="Node000024" class="node">
<title>Node24</title>
<g id="a_Node000024"><a xlink:href="../../d5/d72/classLSM1x0A__LoRaWAN.html#a2cf4eff0181b6107d082bccefa24217b" target="_top" xlink:title="Sets the Data Rate (DR) specifically for the RX2 window.">
<polygon fill="white" stroke="#666666" points="866.38,-294.95 676.38,-294.95 676.38,-274.95 866.38,-274.95 866.38,-294.95"/>
<text text-anchor="middle" x="771.38" y="-281.45" font-family="Helvetica,sans-Serif" font-size="10.00">LSM1x0A_LoRaWAN::setRx2DataRate</text>
</a>
</g>
</g>
<!-- Node12&#45;&gt;Node24 -->
<g id="edge40_Node000012_Node000024" class="edge">
<title>Node12&#45;&gt;Node24</title>
<g id="a_edge40_Node000012_Node000024"><a xlink:title=" ">
<path fill="none" stroke="#63b8ff" d="M565.77,-464.61C578.65,-429.11 614.29,-344.84 674.5,-303.95 676.47,-302.61 678.52,-301.36 680.63,-300.19"/>
<polygon fill="#63b8ff" stroke="#63b8ff" points="681.96,-303.43 689.48,-295.97 678.95,-297.11 681.96,-303.43"/>
</a>
</g>
</g>
<!-- Node25 -->
<g id="Node000025" class="node">
<title>Node25</title>
<g id="a_Node000025"><a xlink:href="../../d5/d72/classLSM1x0A__LoRaWAN.html#a42d2137b475b57e19d891a5f1ac93221" target="_top" xlink:title="Sets the delay for the RX2 receive window.">
<polygon fill="white" stroke="#666666" points="858.12,-256.95 684.62,-256.95 684.62,-236.95 858.12,-236.95 858.12,-256.95"/>
<text text-anchor="middle" x="771.38" y="-243.45" font-family="Helvetica,sans-Serif" font-size="10.00">LSM1x0A_LoRaWAN::setRx2Delay</text>
</a>
</g>
</g>
<!-- Node12&#45;&gt;Node25 -->
<g id="edge42_Node000012_Node000025" class="edge">
<title>Node12&#45;&gt;Node25</title>
<g id="a_edge42_Node000012_Node000025"><a xlink:title=" ">
<path fill="none" stroke="#63b8ff" d="M563.84,-464.6C573.68,-423.89 605.11,-317.5 674.5,-265.95 676.09,-264.76 677.74,-263.65 679.43,-262.6"/>
<polygon fill="#63b8ff" stroke="#63b8ff" points="681.01,-265.72 688.23,-257.97 677.75,-259.53 681.01,-265.72"/>
</a>
</g>
</g>
<!-- Node26 -->
<g id="Node000026" class="node">
<title>Node26</title>
<g id="a_Node000026"><a xlink:href="../../d5/d72/classLSM1x0A__LoRaWAN.html#a689f7dfda1dfeae11ea397c2ddf2ad37" target="_top" xlink:title="Sets the precise frequency for the RX2 window.">
<polygon fill="white" stroke="#666666" points="868.25,-218.95 674.5,-218.95 674.5,-198.95 868.25,-198.95 868.25,-218.95"/>
<text text-anchor="middle" x="771.38" y="-205.45" font-family="Helvetica,sans-Serif" font-size="10.00">LSM1x0A_LoRaWAN::setRx2Frequency</text>
</a>
</g>
</g>
<!-- Node12&#45;&gt;Node26 -->
<g id="edge44_Node000012_Node000026" class="edge">
<title>Node12&#45;&gt;Node26</title>
<g id="a_edge44_Node000012_Node000026"><a xlink:title=" ">
<path fill="none" stroke="#63b8ff" d="M562.46,-464.5C569.51,-418.96 595.81,-290.44 674.5,-227.95 675.83,-226.89 677.2,-225.89 678.61,-224.94"/>
<polygon fill="#63b8ff" stroke="#63b8ff" points="680.11,-228.11 687.07,-220.12 676.65,-222.03 680.11,-228.11"/>
</a>
</g>
</g>
<!-- Node27 -->
<g id="Node000027" class="node">
<title>Node27</title>
<g id="a_Node000027"><a xlink:href="../../d5/d72/classLSM1x0A__LoRaWAN.html#a1df10d7ae6bf45b537d28d3d5c4b88d7" target="_top" xlink:title="Sets the transmission power index.">
<polygon fill="white" stroke="#666666" points="855.88,-180.95 686.88,-180.95 686.88,-160.95 855.88,-160.95 855.88,-180.95"/>
<text text-anchor="middle" x="771.38" y="-167.45" font-family="Helvetica,sans-Serif" font-size="10.00">LSM1x0A_LoRaWAN::setTxPower</text>
</a>
</g>
</g>
<!-- Node12&#45;&gt;Node27 -->
<g id="edge46_Node000012_Node000027" class="edge">
<title>Node12&#45;&gt;Node27</title>
<g id="a_edge46_Node000012_Node000027"><a xlink:title=" ">
<path fill="none" stroke="#63b8ff" d="M561.39,-464.65C565.8,-414.88 586.21,-263.73 674.5,-189.95 675.64,-189 676.8,-188.09 678,-187.23"/>
<polygon fill="#63b8ff" stroke="#63b8ff" points="679.68,-190.3 686.43,-182.14 676.06,-184.31 679.68,-190.3"/>
</a>
</g>
</g>
<!-- Node28 -->
<g id="Node000028" class="node">
<title>Node28</title>
<g id="a_Node000028"><a xlink:href="../../d5/d72/classLSM1x0A__LoRaWAN.html#a059fd6a9356c4ecadd5a98294da5952d" target="_top" xlink:title="Configures the number of repetitions for Unconfirmed uplinks.">
<polygon fill="white" stroke="#666666" points="858.88,-142.95 683.88,-142.95 683.88,-110.95 858.88,-110.95 858.88,-142.95"/>
<text text-anchor="start" x="691.88" y="-129.45" font-family="Helvetica,sans-Serif" font-size="10.00">LSM1x0A_LoRaWAN::setUnconfirm</text>
<text text-anchor="middle" x="771.38" y="-117.45" font-family="Helvetica,sans-Serif" font-size="10.00">Retry</text>
</a>
</g>
</g>
<!-- Node12&#45;&gt;Node28 -->
<g id="edge48_Node000012_Node000028" class="edge">
<title>Node12&#45;&gt;Node28</title>
<g id="a_edge48_Node000012_Node000028"><a xlink:title=" ">
<path fill="none" stroke="#63b8ff" d="M560.77,-464.75C563.4,-411.46 579.23,-239.96 674.5,-151.95 675.27,-151.23 676.07,-150.54 676.87,-149.86"/>
<polygon fill="#63b8ff" stroke="#63b8ff" points="678.72,-152.84 684.87,-144.21 674.69,-147.12 678.72,-152.84"/>
</a>
</g>
</g>
<!-- Node13&#45;&gt;Node2 -->
<g id="edge18_Node000013_Node000002" class="edge">
<title>Node13&#45;&gt;Node2</title>
<g id="a_edge18_Node000013_Node000002"><a xlink:title=" ">
<path fill="none" stroke="#63b8ff" d="M696.36,-778.49C587.14,-761.69 390.08,-725.64 338,-677.95 287.35,-631.57 264.12,-550.58 255,-508.34"/>
<polygon fill="#63b8ff" stroke="#63b8ff" points="258.48,-507.86 253.05,-498.76 251.62,-509.26 258.48,-507.86"/>
</a>
</g>
</g>
<!-- Node14&#45;&gt;Node2 -->
<g id="edge20_Node000014_Node000002" class="edge">
<title>Node14&#45;&gt;Node2</title>
<g id="a_edge20_Node000014_Node000002"><a xlink:title=" ">
<path fill="none" stroke="#63b8ff" d="M698.73,-740.46C590.67,-723.42 392.76,-687.03 338,-641.95 294.73,-606.32 269.37,-543.61 257.74,-507.88"/>
<polygon fill="#63b8ff" stroke="#63b8ff" points="261.21,-507.24 254.89,-498.74 254.52,-509.32 261.21,-507.24"/>
</a>
</g>
</g>
<!-- Node15&#45;&gt;Node2 -->
<g id="edge23_Node000015_Node000002" class="edge">
<title>Node15&#45;&gt;Node2</title>
<g id="a_edge23_Node000015_Node000002"><a xlink:title=" ">
<path fill="none" stroke="#63b8ff" d="M688.74,-696.13C579.33,-680.29 392.57,-648.15 338,-606.95 302.88,-580.43 276.49,-535.78 262.15,-507.37"/>
<polygon fill="#63b8ff" stroke="#63b8ff" points="265.46,-506.16 257.92,-498.71 259.17,-509.23 265.46,-506.16"/>
</a>
</g>
</g>
<!-- Node16&#45;&gt;Node2 -->
<g id="edge25_Node000016_Node000002" class="edge">
<title>Node16&#45;&gt;Node2</title>
<g id="a_edge25_Node000016_Node000002"><a xlink:title=" ">
<path fill="none" stroke="#63b8ff" d="M685.27,-660.63C593.56,-654.66 446.21,-634.71 338,-569.95 310.32,-553.38 285.14,-526.09 268.88,-506.09"/>
<polygon fill="#63b8ff" stroke="#63b8ff" points="271.74,-504.06 262.79,-498.39 266.25,-508.41 271.74,-504.06"/>
</a>
</g>
</g>
<!-- Node17&#45;&gt;Node2 -->
<g id="edge27_Node000017_Node000002" class="edge">
<title>Node17&#45;&gt;Node2</title>
<g id="a_edge27_Node000017_Node000002"><a xlink:title=" ">
<path fill="none" stroke="#63b8ff" d="M687.02,-618.09C597.76,-608.52 453.4,-586.49 338,-537.95 317.24,-529.22 295.99,-515.61 279.58,-503.88"/>
<polygon fill="#63b8ff" stroke="#63b8ff" points="281.87,-501.22 271.73,-498.14 277.74,-506.87 281.87,-501.22"/>
</a>
</g>
</g>
<!-- Node18&#45;&gt;Node2 -->
<g id="edge29_Node000018_Node000002" class="edge">
<title>Node18&#45;&gt;Node2</title>
<g id="a_edge29_Node000018_Node000002"><a xlink:title=" ">
<path fill="none" stroke="#63b8ff" d="M688.62,-576.91C601.03,-565.2 458.34,-543.35 338,-511.95 326.48,-508.94 314.32,-505.11 302.84,-501.17"/>
<polygon fill="#63b8ff" stroke="#63b8ff" points="304.1,-497.9 293.51,-497.88 301.78,-504.5 304.1,-497.9"/>
</a>
</g>
</g>
<!-- Node19&#45;&gt;Node2 -->
<g id="edge31_Node000019_Node000002" class="edge">
<title>Node19&#45;&gt;Node2</title>
<g id="a_edge31_Node000019_Node000002"><a xlink:title=" ">
<path fill="none" stroke="#63b8ff" d="M695.64,-534.04C592.96,-521.81 410.06,-500.02 313.6,-488.53"/>
<polygon fill="#63b8ff" stroke="#63b8ff" points="314.12,-485.06 303.78,-487.36 313.3,-492.01 314.12,-485.06"/>
</a>
</g>
</g>
<!-- Node20&#45;&gt;Node2 -->
<g id="edge33_Node000020_Node000002" class="edge">
<title>Node20&#45;&gt;Node2</title>
<g id="a_edge33_Node000020_Node000002"><a xlink:title=" ">
<path fill="none" stroke="#63b8ff" d="M694.5,-453.04C635.87,-452.09 552.73,-451.88 480,-455.95 423.62,-459.1 359.8,-466.33 313.72,-472.21"/>
<polygon fill="#63b8ff" stroke="#63b8ff" points="313.37,-468.72 303.9,-473.48 314.26,-475.67 313.37,-468.72"/>
</a>
</g>
</g>
<!-- Node21&#45;&gt;Node2 -->
<g id="edge35_Node000021_Node000002" class="edge">
<title>Node21&#45;&gt;Node2</title>
<g id="a_edge35_Node000021_Node000002"><a xlink:title=" ">
<path fill="none" stroke="#63b8ff" d="M694.38,-409.76C607.53,-416.18 461.46,-429.77 338,-454.95 329.33,-456.72 320.28,-458.94 311.42,-461.34"/>
<polygon fill="#63b8ff" stroke="#63b8ff" points="310.48,-457.97 301.8,-464.05 312.38,-464.71 310.48,-457.97"/>
</a>
</g>
</g>
<!-- Node22&#45;&gt;Node2 -->
<g id="edge37_Node000022_Node000002" class="edge">
<title>Node22&#45;&gt;Node2</title>
<g id="a_edge37_Node000022_Node000002"><a xlink:title=" ">
<path fill="none" stroke="#63b8ff" d="M690.71,-366.22C602.45,-373.87 456.88,-391.94 338,-432.95 319.51,-439.33 300.3,-449.35 284.56,-458.6"/>
<polygon fill="#63b8ff" stroke="#63b8ff" points="282.8,-455.57 276.05,-463.73 286.42,-461.56 282.8,-455.57"/>
</a>
</g>
</g>
<!-- Node23&#45;&gt;Node2 -->
<g id="edge39_Node000023_Node000002" class="edge">
<title>Node23&#45;&gt;Node2</title>
<g id="a_edge39_Node000023_Node000002"><a xlink:title=" ">
<path fill="none" stroke="#63b8ff" d="M684.24,-323.48C593.29,-327.36 448.1,-343.2 338,-400.95 311.76,-414.71 287.28,-438.19 270.84,-456.16"/>
<polygon fill="#63b8ff" stroke="#63b8ff" points="268.48,-453.54 264.45,-463.34 273.71,-458.2 268.48,-453.54"/>
</a>
</g>
</g>
<!-- Node24&#45;&gt;Node2 -->
<g id="edge41_Node000024_Node000002" class="edge">
<title>Node24&#45;&gt;Node2</title>
<g id="a_edge41_Node000024_Node000002"><a xlink:title=" ">
<path fill="none" stroke="#63b8ff" d="M676.15,-278.72C582.6,-277.21 438.94,-287.94 338,-355.95 301.5,-380.54 275.37,-425.71 261.48,-454.49"/>
<polygon fill="#63b8ff" stroke="#63b8ff" points="258.44,-452.73 257.4,-463.27 264.79,-455.68 258.44,-452.73"/>
</a>
</g>
</g>
<!-- Node25&#45;&gt;Node2 -->
<g id="edge43_Node000025_Node000002" class="edge">
<title>Node25&#45;&gt;Node2</title>
<g id="a_edge43_Node000025_Node000002"><a xlink:title=" ">
<path fill="none" stroke="#63b8ff" d="M700.6,-236.49C607.83,-226.6 443.34,-223.58 338,-304.95 289.36,-342.51 265.63,-414.19 255.81,-453.49"/>
<polygon fill="#63b8ff" stroke="#63b8ff" points="252.44,-452.56 253.55,-463.1 259.25,-454.17 252.44,-452.56"/>
</a>
</g>
</g>
<!-- Node26&#45;&gt;Node2 -->
<g id="edge45_Node000026_Node000002" class="edge">
<title>Node26&#45;&gt;Node2</title>
<g id="a_edge45_Node000026_Node000002"><a xlink:title=" ">
<path fill="none" stroke="#63b8ff" d="M674.17,-205.86C562.72,-204.31 388,-208.72 338,-248.95 274.11,-300.36 256.58,-403.6 251.79,-453.16"/>
<polygon fill="#63b8ff" stroke="#63b8ff" points="248.31,-452.77 250.95,-463.03 255.28,-453.36 248.31,-452.77"/>
</a>
</g>
</g>
<!-- Node27&#45;&gt;Node2 -->
<g id="edge47_Node000027_Node000002" class="edge">
<title>Node27&#45;&gt;Node2</title>
<g id="a_edge47_Node000027_Node000002"><a xlink:title=" ">
<path fill="none" stroke="#63b8ff" d="M723.67,-160.48C637.24,-144.01 450.89,-122.56 338,-212.95 263.19,-272.85 251.33,-397.78 249.9,-453.31"/>
<polygon fill="#63b8ff" stroke="#63b8ff" points="246.4,-453.1 249.75,-463.15 253.4,-453.21 246.4,-453.1"/>
</a>
</g>
</g>
<!-- Node28&#45;&gt;Node2 -->
<g id="edge49_Node000028_Node000002" class="edge">
<title>Node28&#45;&gt;Node2</title>
<g id="a_edge49_Node000028_Node000002"><a xlink:title=" ">
<path fill="none" stroke="#63b8ff" d="M683.49,-121.55C572.4,-116.57 388.37,-115.39 338,-157.95 292.15,-196.69 263,-383.18 253.45,-453.79"/>
<polygon fill="#63b8ff" stroke="#63b8ff" points="250.03,-452.95 252.19,-463.32 256.97,-453.87 250.03,-452.95"/>
</a>
</g>
</g>
<!-- Node30&#45;&gt;Node31 -->
<g id="edge52_Node000030_Node000031" class="edge">
<title>Node30&#45;&gt;Node31</title>
<g id="a_edge52_Node000030_Node000031"><a xlink:title=" ">
<path fill="none" stroke="#63b8ff" d="M612.73,-1092.44C630.89,-1094.34 651.86,-1096.54 672.47,-1098.7"/>
<polygon fill="#63b8ff" stroke="#63b8ff" points="672.04,-1102.17 682.35,-1099.73 672.77,-1095.21 672.04,-1102.17"/>
</a>
</g>
</g>
<!-- Node32 -->
<g id="Node000032" class="node">
<title>Node32</title>
<g id="a_Node000032"><a xlink:href="../../d6/d3c/classLSM1x0A__AtParser.html#a0ba6f927c54fceece22c17773d3f2600" target="_top" xlink:title="Sends a command and extracts a value from the response.">
<polygon fill="white" stroke="#666666" points="1086.38,-1124.95 912.12,-1124.95 912.12,-1092.95 1086.38,-1092.95 1086.38,-1124.95"/>
<text text-anchor="start" x="920.12" y="-1111.45" font-family="Helvetica,sans-Serif" font-size="10.00">LSM1x0A_AtParser::sendCommand</text>
<text text-anchor="middle" x="999.25" y="-1099.45" font-family="Helvetica,sans-Serif" font-size="10.00">WithResponse</text>
</a>
</g>
</g>
<!-- Node31&#45;&gt;Node32 -->
<g id="edge53_Node000031_Node000032" class="edge">
<title>Node31&#45;&gt;Node32</title>
<g id="a_edge53_Node000031_Node000032"><a xlink:title=" ">
<path fill="none" stroke="#63b8ff" d="M858.74,-1108.95C872.49,-1108.95 886.81,-1108.95 900.8,-1108.95"/>
<polygon fill="#63b8ff" stroke="#63b8ff" points="900.42,-1112.45 910.42,-1108.95 900.42,-1105.45 900.42,-1112.45"/>
</a>
</g>
</g>
<!-- Node33 -->
<g id="Node000033" class="node">
<title>Node33</title>
<g id="a_Node000033"><a xlink:href="../../d5/d8b/classUartDriver.html#a5d0f22e8867eebe99273078bb19bd23d" target="_top" xlink:title="Sends data through UART.">
<polygon fill="white" stroke="#666666" points="1261,-1118.95 1152,-1118.95 1152,-1098.95 1261,-1098.95 1261,-1118.95"/>
<text text-anchor="middle" x="1206.5" y="-1105.45" font-family="Helvetica,sans-Serif" font-size="10.00">UartDriver::sendData</text>
</a>
</g>
</g>
<!-- Node32&#45;&gt;Node33 -->
<g id="edge54_Node000032_Node000033" class="edge">
<title>Node32&#45;&gt;Node33</title>
<g id="a_edge54_Node000032_Node000033"><a xlink:title=" ">
<path fill="none" stroke="#63b8ff" d="M1086.7,-1108.95C1104.59,-1108.95 1123.16,-1108.95 1140.14,-1108.95"/>
<polygon fill="#63b8ff" stroke="#63b8ff" points="1140.11,-1112.45 1150.11,-1108.95 1140.11,-1105.45 1140.11,-1112.45"/>
</a>
</g>
</g>
</g>
</svg>
