<?xml version="1.0" encoding="UTF-8" standalone="no"?>
<!DOCTYPE svg PUBLIC "-//W3C//DTD SVG 1.1//EN"
 "http://www.w3.org/Graphics/SVG/1.1/DTD/svg11.dtd">
<!-- Generated by graphviz version 12.2.1 (20241206.2353)
 -->
<!-- Title: LSM1x0A_Sigfox::sendString Pages: 1 -->
<svg width="1322pt" height="1209pt"
 viewBox="0.00 0.00 1321.50 1208.56" xmlns="http://www.w3.org/2000/svg" xmlns:xlink="http://www.w3.org/1999/xlink">
<g id="graph0" class="graph" transform="scale(1 1) rotate(0) translate(4 1204.56)">
<title>LSM1x0A_Sigfox::sendString</title>
<!-- Node1 -->
<g id="Node000001" class="node">
<title>Node1</title>
<g id="a_Node000001"><a xlink:title="Sends standard ASCII string literal.">
<polygon fill="#999999" stroke="#666666" points="144.25,-751.24 0,-751.24 0,-731.24 144.25,-731.24 144.25,-751.24"/>
<text text-anchor="middle" x="72.12" y="-737.74" font-family="Helvetica,sans-Serif" font-size="10.00">LSM1x0A_Sigfox::sendString</text>
</a>
</g>
</g>
<!-- Node2 -->
<g id="Node000002" class="node">
<title>Node2</title>
<g id="a_Node000002"><a xlink:href="../../d8/d92/classLSM1x0A__Controller.html#afd7d92e60ed6fdae696a955cdbe0ed8c" target="_top" xlink:title="Sends any AT command to the module, returning error if it fails. Internally uses the LsmAtParser logi...">
<polygon fill="white" stroke="#666666" points="309.5,-561.24 203.5,-561.24 203.5,-529.24 309.5,-529.24 309.5,-561.24"/>
<text text-anchor="start" x="211.5" y="-547.74" font-family="Helvetica,sans-Serif" font-size="10.00">LSM1x0A_Controller</text>
<text text-anchor="middle" x="256.5" y="-535.74" font-family="Helvetica,sans-Serif" font-size="10.00">::sendCommand</text>
</a>
</g>
</g>
<!-- Node1&#45;&gt;Node2 -->
<g id="edge1_Node000001_Node000002" class="edge">
<title>Node1&#45;&gt;Node2</title>
<g id="a_edge1_Node000001_Node000002"><a xlink:title=" ">
<path fill="none" stroke="#63b8ff" d="M82.67,-730.98C110.51,-701.06 192.16,-613.31 232.46,-570"/>
<polygon fill="#63b8ff" stroke="#63b8ff" points="234.89,-572.53 239.14,-562.82 229.76,-567.76 234.89,-572.53"/>
</a>
</g>
</g>
<!-- Node34 -->
<g id="Node000034" class="node">
<title>Node34</title>
<g id="a_Node000034"><a xlink:href="../../d8/d92/classLSM1x0A__Controller.html#ab00328d1be83aa51bce8c2a4f907c5f4" target="_top" xlink:title="Sends an AT command and captures its response in a text block. Ideal for getters (e....">
<polygon fill="white" stroke="#666666" points="332.75,-953.24 180.25,-953.24 180.25,-921.24 332.75,-921.24 332.75,-953.24"/>
<text text-anchor="start" x="188.25" y="-939.74" font-family="Helvetica,sans-Serif" font-size="10.00">LSM1x0A_Controller</text>
<text text-anchor="middle" x="256.5" y="-927.74" font-family="Helvetica,sans-Serif" font-size="10.00">::sendCommandWithResponse</text>
</a>
</g>
</g>
<!-- Node1&#45;&gt;Node34 -->
<g id="edge56_Node000001_Node000034" class="edge">
<title>Node1&#45;&gt;Node34</title>
<g id="a_edge56_Node000001_Node000034"><a xlink:title=" ">
<path fill="none" stroke="#63b8ff" d="M82.67,-751.5C110.51,-781.42 192.16,-869.17 232.46,-912.48"/>
<polygon fill="#63b8ff" stroke="#63b8ff" points="229.76,-914.72 239.14,-919.66 234.89,-909.95 229.76,-914.72"/>
</a>
</g>
</g>
<!-- Node3 -->
<g id="Node000003" class="node">
<title>Node3</title>
<g id="a_Node000003"><a xlink:href="../../d8/d92/classLSM1x0A__Controller.html#abb0eb380daa3dfb7acffb483c5db8e2b" target="_top" xlink:title="Executes the recovery protocol. First Soft&#45;Reset (ATZ), then Hard&#45;Reset if there is a pin.">
<polygon fill="white" stroke="#666666" points="474.75,-953.24 368.75,-953.24 368.75,-921.24 474.75,-921.24 474.75,-953.24"/>
<text text-anchor="start" x="376.75" y="-939.74" font-family="Helvetica,sans-Serif" font-size="10.00">LSM1x0A_Controller</text>
<text text-anchor="middle" x="421.75" y="-927.74" font-family="Helvetica,sans-Serif" font-size="10.00">::recoverModule</text>
</a>
</g>
</g>
<!-- Node2&#45;&gt;Node3 -->
<g id="edge2_Node000002_Node000003" class="edge">
<title>Node2&#45;&gt;Node3</title>
<g id="a_edge2_Node000002_Node000003"><a xlink:title=" ">
<path fill="none" stroke="#63b8ff" d="M261.46,-561.43C273.53,-609.31 312.49,-753.73 368.75,-863.24 377.55,-880.38 389.86,-898.08 400.29,-911.88"/>
<polygon fill="#63b8ff" stroke="#63b8ff" points="397.34,-913.78 406.22,-919.55 402.88,-909.5 397.34,-913.78"/>
</a>
</g>
</g>
<!-- Node31 -->
<g id="Node000031" class="node">
<title>Node31</title>
<g id="a_Node000031"><a xlink:href="../../d6/d3c/classLSM1x0A__AtParser.html#a29b53c521974387ba6c03afadfaffa4a" target="_top" xlink:title="Sends a simple command and waits for OK/ERROR. Example: sendCommand(&quot;AT+JOIN&quot;);.">
<polygon fill="white" stroke="#666666" points="889.25,-1161.24 715,-1161.24 715,-1141.24 889.25,-1141.24 889.25,-1161.24"/>
<text text-anchor="middle" x="802.12" y="-1147.74" font-family="Helvetica,sans-Serif" font-size="10.00">LSM1x0A_AtParser::sendCommand</text>
</a>
</g>
</g>
<!-- Node2&#45;&gt;Node31 -->
<g id="edge55_Node000002_Node000031" class="edge">
<title>Node2&#45;&gt;Node31</title>
<g id="a_edge55_Node000002_Node000031"><a xlink:title=" ">
<path fill="none" stroke="#63b8ff" d="M259.3,-561.68C266.14,-619.56 294.08,-818.23 368.75,-962.24 414.06,-1049.64 422.98,-1087.65 510.75,-1132.24 574.64,-1164.71 656.89,-1167.03 717.53,-1162.64"/>
<polygon fill="#63b8ff" stroke="#63b8ff" points="717.78,-1166.13 727.46,-1161.84 717.21,-1159.15 717.78,-1166.13"/>
</a>
</g>
</g>
<!-- Node4 -->
<g id="Node000004" class="node">
<title>Node4</title>
<g id="a_Node000004"><a xlink:href="../../d8/d92/classLSM1x0A__Controller.html#a3f6f25b843fe4fb7042c544deae2ab16" target="_top" xlink:title="Manually clears bits from the internal EventGroup.">
<polygon fill="white" stroke="#666666" points="1083,-842.24 977,-842.24 977,-810.24 1083,-810.24 1083,-842.24"/>
<text text-anchor="start" x="985" y="-828.74" font-family="Helvetica,sans-Serif" font-size="10.00">LSM1x0A_Controller</text>
<text text-anchor="middle" x="1030" y="-816.74" font-family="Helvetica,sans-Serif" font-size="10.00">::clearEvents</text>
</a>
</g>
</g>
<!-- Node3&#45;&gt;Node4 -->
<g id="edge3_Node000003_Node000004" class="edge">
<title>Node3&#45;&gt;Node4</title>
<g id="a_edge3_Node000003_Node000004"><a xlink:title=" ">
<path fill="none" stroke="#63b8ff" d="M437.8,-920.84C454.03,-904.36 481.5,-879.79 510.75,-868.24 665.01,-807.33 864.78,-812.22 965.29,-819.83"/>
<polygon fill="#63b8ff" stroke="#63b8ff" points="964.99,-823.32 975.24,-820.62 965.55,-816.34 964.99,-823.32"/>
</a>
</g>
</g>
<!-- Node5 -->
<g id="Node000005" class="node">
<title>Node5</title>
<g id="a_Node000005"><a xlink:href="../../d8/d92/classLSM1x0A__Controller.html#a345d4bd79fa16b18dc33a4ca788fe5f7" target="_top" xlink:title="Performs a hardware reset using the reset pin.">
<polygon fill="white" stroke="#666666" points="643,-997.24 537,-997.24 537,-965.24 643,-965.24 643,-997.24"/>
<text text-anchor="start" x="545" y="-983.74" font-family="Helvetica,sans-Serif" font-size="10.00">LSM1x0A_Controller</text>
<text text-anchor="middle" x="590" y="-971.74" font-family="Helvetica,sans-Serif" font-size="10.00">::hardwareReset</text>
</a>
</g>
</g>
<!-- Node3&#45;&gt;Node5 -->
<g id="edge4_Node000003_Node000005" class="edge">
<title>Node3&#45;&gt;Node5</title>
<g id="a_edge4_Node000003_Node000005"><a xlink:title=" ">
<path fill="none" stroke="#63b8ff" d="M474.9,-951.04C491.07,-955.32 509.06,-960.08 525.89,-964.54"/>
<polygon fill="#63b8ff" stroke="#63b8ff" points="524.73,-967.85 535.29,-967.03 526.52,-961.08 524.73,-967.85"/>
</a>
</g>
</g>
<!-- Node7 -->
<g id="Node000007" class="node">
<title>Node7</title>
<g id="a_Node000007"><a xlink:href="../../d5/d72/classLSM1x0A__LoRaWAN.html#a1892801e37c8cd67d37c76108d6f7d49" target="_top" xlink:title="Validates if the device is currently Joined to the network. (Either confirmed by OTAA or statically a...">
<polygon fill="white" stroke="#666666" points="1313.5,-934.24 1161,-934.24 1161,-914.24 1313.5,-914.24 1313.5,-934.24"/>
<text text-anchor="middle" x="1237.25" y="-920.74" font-family="Helvetica,sans-Serif" font-size="10.00">LSM1x0A_LoRaWAN::isJoined</text>
</a>
</g>
</g>
<!-- Node3&#45;&gt;Node7 -->
<g id="edge6_Node000003_Node000007" class="edge">
<title>Node3&#45;&gt;Node7</title>
<g id="a_edge6_Node000003_Node000007"><a xlink:title=" ">
<path fill="none" stroke="#63b8ff" d="M469.37,-953.68C471.28,-955.08 473.09,-956.6 474.75,-958.24 504.23,-987.36 476.25,-1021.29 510.75,-1044.24 569.4,-1083.27 599.04,-1050.01 669.25,-1044.24 866.55,-1028.03 1095.5,-965.86 1190.9,-937.94"/>
<polygon fill="#63b8ff" stroke="#63b8ff" points="1191.81,-941.33 1200.41,-935.14 1189.83,-934.61 1191.81,-941.33"/>
</a>
</g>
</g>
<!-- Node8 -->
<g id="Node000008" class="node">
<title>Node8</title>
<g id="a_Node000008"><a xlink:href="../../d5/d72/classLSM1x0A__LoRaWAN.html#a83e11c0e74ff9e0757db616ab1163424" target="_top" xlink:title="Attempts to recover a lost connection (re&#45;executes OTAA Join if dropped).">
<polygon fill="white" stroke="#666666" points="664.38,-909.24 515.62,-909.24 515.62,-877.24 664.38,-877.24 664.38,-909.24"/>
<text text-anchor="start" x="523.62" y="-895.74" font-family="Helvetica,sans-Serif" font-size="10.00">LSM1x0A_LoRaWAN::recover</text>
<text text-anchor="middle" x="590" y="-883.74" font-family="Helvetica,sans-Serif" font-size="10.00">Connection</text>
</a>
</g>
</g>
<!-- Node3&#45;&gt;Node8 -->
<g id="edge7_Node000003_Node000008" class="edge">
<title>Node3&#45;&gt;Node8</title>
<g id="a_edge7_Node000003_Node000008"><a xlink:title=" ">
<path fill="none" stroke="#63b8ff" d="M474.9,-923.44C487.9,-920 502.07,-916.25 515.88,-912.59"/>
<polygon fill="#63b8ff" stroke="#63b8ff" points="516.61,-916.02 525.38,-910.08 514.81,-909.26 516.61,-916.02"/>
</a>
</g>
</g>
<!-- Node12 -->
<g id="Node000012" class="node">
<title>Node12</title>
<g id="a_Node000012"><a xlink:href="../../d5/d72/classLSM1x0A__LoRaWAN.html#ae3be4ce59dfa200369733317df356e97" target="_top" xlink:title="Pushes the RAM&#45;cached variables back down into the hardware module. Restores the operational state af...">
<polygon fill="white" stroke="#666666" points="663.25,-517.24 516.75,-517.24 516.75,-485.24 663.25,-485.24 663.25,-517.24"/>
<text text-anchor="start" x="524.75" y="-503.74" font-family="Helvetica,sans-Serif" font-size="10.00">LSM1x0A_LoRaWAN::restore</text>
<text text-anchor="middle" x="590" y="-491.74" font-family="Helvetica,sans-Serif" font-size="10.00">Config</text>
</a>
</g>
</g>
<!-- Node3&#45;&gt;Node12 -->
<g id="edge16_Node000003_Node000012" class="edge">
<title>Node3&#45;&gt;Node12</title>
<g id="a_edge16_Node000003_Node000012"><a xlink:title=" ">
<path fill="none" stroke="#63b8ff" d="M428.96,-920.95C454.02,-855.24 547.75,-609.42 578.88,-527.78"/>
<polygon fill="#63b8ff" stroke="#63b8ff" points="582.01,-529.39 582.3,-518.8 575.47,-526.9 582.01,-529.39"/>
</a>
</g>
</g>
<!-- Node29 -->
<g id="Node000029" class="node">
<title>Node29</title>
<g id="a_Node000029"><a xlink:href="../../d5/d72/classLSM1x0A__LoRaWAN.html#ace4b04396f1de1f4a54f513f5f378db7" target="_top" xlink:title="Manually overrides the internal joined state tracker.">
<polygon fill="white" stroke="#666666" points="669.25,-1035.24 510.75,-1035.24 510.75,-1015.24 669.25,-1015.24 669.25,-1035.24"/>
<text text-anchor="middle" x="590" y="-1021.74" font-family="Helvetica,sans-Serif" font-size="10.00">LSM1x0A_LoRaWAN::setJoined</text>
</a>
</g>
</g>
<!-- Node3&#45;&gt;Node29 -->
<g id="edge50_Node000003_Node000029" class="edge">
<title>Node3&#45;&gt;Node29</title>
<g id="a_edge50_Node000003_Node000029"><a xlink:title=" ">
<path fill="none" stroke="#63b8ff" d="M439.12,-953.65C455.76,-969.42 482.98,-992.77 510.75,-1006.24 514.49,-1008.06 518.42,-1009.71 522.44,-1011.2"/>
<polygon fill="#63b8ff" stroke="#63b8ff" points="521.21,-1014.48 531.81,-1014.35 523.44,-1007.85 521.21,-1014.48"/>
</a>
</g>
</g>
<!-- Node30 -->
<g id="Node000030" class="node">
<title>Node30</title>
<g id="a_Node000030"><a xlink:href="../../d8/d92/classLSM1x0A__Controller.html#a11ad21cb5ca33ec51346764a23bd485e" target="_top" xlink:title="Performs a software reset (ATZ Command).">
<polygon fill="white" stroke="#666666" points="643,-1123.24 537,-1123.24 537,-1091.24 643,-1091.24 643,-1123.24"/>
<text text-anchor="start" x="545" y="-1109.74" font-family="Helvetica,sans-Serif" font-size="10.00">LSM1x0A_Controller</text>
<text text-anchor="middle" x="590" y="-1097.74" font-family="Helvetica,sans-Serif" font-size="10.00">::softwareReset</text>
</a>
</g>
</g>
<!-- Node3&#45;&gt;Node30 -->
<g id="edge51_Node000003_Node000030" class="edge">
<title>Node3&#45;&gt;Node30</title>
<g id="a_edge51_Node000003_Node000030"><a xlink:title=" ">
<path fill="none" stroke="#63b8ff" d="M428.88,-953.45C440.55,-982.27 468.61,-1042.61 510.75,-1077.24 515.53,-1081.17 520.88,-1084.62 526.47,-1087.64"/>
<polygon fill="#63b8ff" stroke="#63b8ff" points="524.86,-1090.75 535.39,-1091.97 527.92,-1084.45 524.86,-1090.75"/>
</a>
</g>
</g>
<!-- Node6 -->
<g id="Node000006" class="node">
<title>Node6</title>
<g id="a_Node000006"><a xlink:href="../../d6/d3c/classLSM1x0A__AtParser.html#ad2839120da13e56132b95019419be1e5" target="_top" xlink:title="Waits for an event (like BOOTALERT) without sending any command. Useful for hardware reset where the ...">
<polygon fill="white" stroke="#666666" points="872.38,-997.24 731.88,-997.24 731.88,-965.24 872.38,-965.24 872.38,-997.24"/>
<text text-anchor="start" x="739.88" y="-983.74" font-family="Helvetica,sans-Serif" font-size="10.00">LSM1x0A_AtParser::waitFor</text>
<text text-anchor="middle" x="802.12" y="-971.74" font-family="Helvetica,sans-Serif" font-size="10.00">Event</text>
</a>
</g>
</g>
<!-- Node5&#45;&gt;Node6 -->
<g id="edge5_Node000005_Node000006" class="edge">
<title>Node5&#45;&gt;Node6</title>
<g id="a_edge5_Node000005_Node000006"><a xlink:title=" ">
<path fill="none" stroke="#63b8ff" d="M643.48,-981.24C666.67,-981.24 694.47,-981.24 720.21,-981.24"/>
<polygon fill="#63b8ff" stroke="#63b8ff" points="719.97,-984.74 729.97,-981.24 719.97,-977.74 719.97,-984.74"/>
</a>
</g>
</g>
<!-- Node9 -->
<g id="Node000009" class="node">
<title>Node9</title>
<g id="a_Node000009"><a xlink:href="../../d5/d72/classLSM1x0A__LoRaWAN.html#a59f781f3cfd30c11cd3973bcb10a7baa" target="_top" xlink:title="Initiates a LoRaWAN Network Join procedure. This is a blocking function until the module fires an eve...">
<polygon fill="white" stroke="#666666" points="867.88,-880.24 736.38,-880.24 736.38,-860.24 867.88,-860.24 867.88,-880.24"/>
<text text-anchor="middle" x="802.12" y="-866.74" font-family="Helvetica,sans-Serif" font-size="10.00">LSM1x0A_LoRaWAN::join</text>
</a>
</g>
</g>
<!-- Node8&#45;&gt;Node9 -->
<g id="edge8_Node000008_Node000009" class="edge">
<title>Node8&#45;&gt;Node9</title>
<g id="a_edge8_Node000008_Node000009"><a xlink:title=" ">
<path fill="none" stroke="#63b8ff" d="M664.79,-885.16C684.16,-883.04 705.1,-880.75 724.61,-878.62"/>
<polygon fill="#63b8ff" stroke="#63b8ff" points="724.85,-882.11 734.41,-877.54 724.09,-875.15 724.85,-882.11"/>
</a>
</g>
</g>
<!-- Node9&#45;&gt;Node2 -->
<g id="edge11_Node000009_Node000002" class="edge">
<title>Node9&#45;&gt;Node2</title>
<g id="a_edge11_Node000009_Node000002"><a xlink:title=" ">
<path fill="none" stroke="#63b8ff" d="M736.12,-865.73C644.38,-856.21 476.16,-826.77 368.75,-736.24 315.22,-691.13 281.49,-613.32 266.52,-572.33"/>
<polygon fill="#63b8ff" stroke="#63b8ff" points="269.85,-571.25 263.22,-562.99 263.25,-573.58 269.85,-571.25"/>
</a>
</g>
</g>
<!-- Node9&#45;&gt;Node3 -->
<g id="edge10_Node000009_Node000003" class="edge">
<title>Node9&#45;&gt;Node3</title>
<g id="a_edge10_Node000009_Node000003"><a xlink:title=" ">
<path fill="none" stroke="#63b8ff" d="M778.35,-880.7C752.49,-892.05 708.78,-909.69 669.25,-918.24 607.95,-931.5 536.32,-935.81 486.13,-937.07"/>
<polygon fill="#63b8ff" stroke="#63b8ff" points="486.24,-933.57 476.31,-937.28 486.39,-940.57 486.24,-933.57"/>
</a>
</g>
</g>
<!-- Node9&#45;&gt;Node4 -->
<g id="edge9_Node000009_Node000004" class="edge">
<title>Node9&#45;&gt;Node4</title>
<g id="a_edge9_Node000009_Node000004"><a xlink:title=" ">
<path fill="none" stroke="#63b8ff" d="M856.94,-859.76C889.53,-853.41 931.27,-845.28 965.48,-838.62"/>
<polygon fill="#63b8ff" stroke="#63b8ff" points="966.13,-842.05 975.28,-836.71 964.79,-835.18 966.13,-842.05"/>
</a>
</g>
</g>
<!-- Node10 -->
<g id="Node000010" class="node">
<title>Node10</title>
<g id="a_Node000010"><a xlink:href="../../d5/d72/classLSM1x0A__LoRaWAN.html#a3fdd1ac318a5ad2559323e5d57e36a5e" target="_top" xlink:title="Enables or disables specific sub&#45;bands for regions supporting Channel Masks (e.g.,...">
<polygon fill="white" stroke="#666666" points="1125,-650.24 935,-650.24 935,-630.24 1125,-630.24 1125,-650.24"/>
<text text-anchor="middle" x="1030" y="-636.74" font-family="Helvetica,sans-Serif" font-size="10.00">LSM1x0A_LoRaWAN::setChannelMask</text>
</a>
</g>
</g>
<!-- Node9&#45;&gt;Node10 -->
<g id="edge12_Node000009_Node000010" class="edge">
<title>Node9&#45;&gt;Node10</title>
<g id="a_edge12_Node000009_Node000010"><a xlink:title=" ">
<path fill="none" stroke="#63b8ff" d="M822.82,-859.85C843.19,-848.54 875.29,-829.12 899,-807.24 949.43,-760.7 995.48,-693.17 1016.69,-660.06"/>
<polygon fill="#63b8ff" stroke="#63b8ff" points="1019.48,-662.19 1021.87,-651.86 1013.57,-658.45 1019.48,-662.19"/>
</a>
</g>
</g>
<!-- Node11 -->
<g id="Node000011" class="node">
<title>Node11</title>
<g id="a_Node000011"><a xlink:href="../../d8/d92/classLSM1x0A__Controller.html#a62476e30e50c7fe120aeb8df4b828675" target="_top" xlink:title="Synchronously/blockingly waits for an asynchronous event to occur. Useful for wrapping commands like ...">
<polygon fill="white" stroke="#666666" points="1083,-892.24 977,-892.24 977,-860.24 1083,-860.24 1083,-892.24"/>
<text text-anchor="start" x="985" y="-878.74" font-family="Helvetica,sans-Serif" font-size="10.00">LSM1x0A_Controller</text>
<text text-anchor="middle" x="1030" y="-866.74" font-family="Helvetica,sans-Serif" font-size="10.00">::waitForEvent</text>
</a>
</g>
</g>
<!-- Node9&#45;&gt;Node11 -->
<g id="edge15_Node000009_Node000011" class="edge">
<title>Node9&#45;&gt;Node11</title>
<g id="a_edge15_Node000009_Node000011"><a xlink:title=" ">
<path fill="none" stroke="#63b8ff" d="M868.15,-871.97C898.66,-872.78 934.9,-873.74 965.24,-874.55"/>
<polygon fill="#63b8ff" stroke="#63b8ff" points="964.96,-878.04 975.05,-874.81 965.15,-871.04 964.96,-878.04"/>
</a>
</g>
</g>
<!-- Node10&#45;&gt;Node2 -->
<g id="edge14_Node000010_Node000002" class="edge">
<title>Node10&#45;&gt;Node2</title>
<g id="a_edge14_Node000010_Node000002"><a xlink:title=" ">
<path fill="none" stroke="#63b8ff" d="M1028.21,-630.09C1022.67,-561.88 987.29,-170.77 899,-101.24 713.71,44.68 550.35,28.24 368.75,-122.24 306.47,-173.85 270.81,-432.47 260.59,-517.84"/>
<polygon fill="#63b8ff" stroke="#63b8ff" points="257.13,-517.3 259.44,-527.63 264.08,-518.11 257.13,-517.3"/>
</a>
</g>
</g>
<!-- Node10&#45;&gt;Node7 -->
<g id="edge13_Node000010_Node000007" class="edge">
<title>Node10&#45;&gt;Node7</title>
<g id="a_edge13_Node000010_Node000007"><a xlink:title=" ">
<path fill="none" stroke="#63b8ff" d="M1038.55,-650.69C1068.91,-692.7 1182.43,-849.77 1222.3,-904.94"/>
<polygon fill="#63b8ff" stroke="#63b8ff" points="1219.27,-906.72 1227.96,-912.77 1224.94,-902.62 1219.27,-906.72"/>
</a>
</g>
</g>
<!-- Node12&#45;&gt;Node10 -->
<g id="edge21_Node000012_Node000010" class="edge">
<title>Node12&#45;&gt;Node10</title>
<g id="a_edge21_Node000012_Node000010"><a xlink:title=" ">
<path fill="none" stroke="#63b8ff" d="M663.57,-491.29C728.08,-485.56 823.58,-484.92 899,-517.24 950.86,-539.46 994.56,-592.05 1015.58,-620.74"/>
<polygon fill="#63b8ff" stroke="#63b8ff" points="1012.51,-622.46 1021.17,-628.57 1018.21,-618.4 1012.51,-622.46"/>
</a>
</g>
</g>
<!-- Node13 -->
<g id="Node000013" class="node">
<title>Node13</title>
<g id="a_Node000013"><a xlink:href="../../d5/d72/classLSM1x0A__LoRaWAN.html#af0baa3db4c7fab580d6b19a9e92472f6" target="_top" xlink:title="Enables or disables Adaptive Data Rate (ADR).">
<polygon fill="white" stroke="#666666" points="878,-634.24 726.25,-634.24 726.25,-614.24 878,-614.24 878,-634.24"/>
<text text-anchor="middle" x="802.12" y="-620.74" font-family="Helvetica,sans-Serif" font-size="10.00">LSM1x0A_LoRaWAN::setADR</text>
</a>
</g>
</g>
<!-- Node12&#45;&gt;Node13 -->
<g id="edge17_Node000012_Node000013" class="edge">
<title>Node12&#45;&gt;Node13</title>
<g id="a_edge17_Node000012_Node000013"><a xlink:title=" ">
<path fill="none" stroke="#63b8ff" d="M603.83,-517.55C623.17,-540.92 662.14,-583.5 705.25,-605.24 708.77,-607.01 712.43,-608.62 716.19,-610.08"/>
<polygon fill="#63b8ff" stroke="#63b8ff" points="714.97,-613.36 725.56,-613.31 717.25,-606.74 714.97,-613.36"/>
</a>
</g>
</g>
<!-- Node14 -->
<g id="Node000014" class="node">
<title>Node14</title>
<g id="a_Node000014"><a xlink:href="../../d5/d72/classLSM1x0A__LoRaWAN.html#a5365ed1596eb84ebf1e3b33b4a10c788" target="_top" xlink:title="Sets the LoRaWAN operational frequency band.">
<polygon fill="white" stroke="#666666" points="878.38,-596.24 725.88,-596.24 725.88,-576.24 878.38,-576.24 878.38,-596.24"/>
<text text-anchor="middle" x="802.12" y="-582.74" font-family="Helvetica,sans-Serif" font-size="10.00">LSM1x0A_LoRaWAN::setBand</text>
</a>
</g>
</g>
<!-- Node12&#45;&gt;Node14 -->
<g id="edge19_Node000012_Node000014" class="edge">
<title>Node12&#45;&gt;Node14</title>
<g id="a_edge19_Node000012_Node000014"><a xlink:title=" ">
<path fill="none" stroke="#63b8ff" d="M613.94,-517.54C636.24,-532.63 671.59,-554.58 705.25,-567.24 710.86,-569.35 716.74,-571.24 722.72,-572.93"/>
<polygon fill="#63b8ff" stroke="#63b8ff" points="721.52,-576.23 732.08,-575.38 723.29,-569.46 721.52,-576.23"/>
</a>
</g>
</g>
<!-- Node15 -->
<g id="Node000015" class="node">
<title>Node15</title>
<g id="a_Node000015"><a xlink:href="../../d5/d72/classLSM1x0A__LoRaWAN.html#a9d9285c43414337a0ccb3a6cd7ca06e6" target="_top" xlink:title="Configures the number of retries for Confirmed uplinks.">
<polygon fill="white" stroke="#666666" points="884.38,-558.24 719.88,-558.24 719.88,-526.24 884.38,-526.24 884.38,-558.24"/>
<text text-anchor="start" x="727.88" y="-544.74" font-family="Helvetica,sans-Serif" font-size="10.00">LSM1x0A_LoRaWAN::setConfirm</text>
<text text-anchor="middle" x="802.12" y="-532.74" font-family="Helvetica,sans-Serif" font-size="10.00">Retry</text>
</a>
</g>
</g>
<!-- Node12&#45;&gt;Node15 -->
<g id="edge22_Node000012_Node000015" class="edge">
<title>Node12&#45;&gt;Node15</title>
<g id="a_edge22_Node000012_Node000015"><a xlink:title=" ">
<path fill="none" stroke="#63b8ff" d="M663.61,-515.41C678.12,-518.24 693.54,-521.25 708.62,-524.19"/>
<polygon fill="#63b8ff" stroke="#63b8ff" points="707.54,-527.55 718.03,-526.03 708.88,-520.68 707.54,-527.55"/>
</a>
</g>
</g>
<!-- Node16 -->
<g id="Node000016" class="node">
<title>Node16</title>
<g id="a_Node000016"><a xlink:href="../../d5/d72/classLSM1x0A__LoRaWAN.html#a56345ceeafa0b9059d6de4e69eddc82e" target="_top" xlink:title="Sets the Data Rate (DR) of the module.">
<polygon fill="white" stroke="#666666" points="888.12,-470.24 716.12,-470.24 716.12,-450.24 888.12,-450.24 888.12,-470.24"/>
<text text-anchor="middle" x="802.12" y="-456.74" font-family="Helvetica,sans-Serif" font-size="10.00">LSM1x0A_LoRaWAN::setDataRate</text>
</a>
</g>
</g>
<!-- Node12&#45;&gt;Node16 -->
<g id="edge24_Node000012_Node000016" class="edge">
<title>Node12&#45;&gt;Node16</title>
<g id="a_edge24_Node000012_Node000016"><a xlink:title=" ">
<path fill="none" stroke="#63b8ff" d="M663.61,-487.07C687.26,-482.46 713.34,-477.37 736.38,-472.88"/>
<polygon fill="#63b8ff" stroke="#63b8ff" points="736.79,-476.36 745.93,-471.01 735.45,-469.49 736.79,-476.36"/>
</a>
</g>
</g>
<!-- Node17 -->
<g id="Node000017" class="node">
<title>Node17</title>
<g id="a_Node000017"><a xlink:href="../../d5/d72/classLSM1x0A__LoRaWAN.html#a8494083816ab885cb07fc3b08de029f4" target="_top" xlink:title="Sets the LoRaWAN Device Address (DevAddr) for ABP mode.">
<polygon fill="white" stroke="#666666" points="886.25,-432.24 718,-432.24 718,-412.24 886.25,-412.24 886.25,-432.24"/>
<text text-anchor="middle" x="802.12" y="-418.74" font-family="Helvetica,sans-Serif" font-size="10.00">LSM1x0A_LoRaWAN::setDevAddr</text>
</a>
</g>
</g>
<!-- Node12&#45;&gt;Node17 -->
<g id="edge26_Node000012_Node000017" class="edge">
<title>Node12&#45;&gt;Node17</title>
<g id="a_edge26_Node000012_Node000017"><a xlink:title=" ">
<path fill="none" stroke="#63b8ff" d="M616.8,-484.93C639.33,-471.36 673.35,-452.51 705.25,-441.24 711.35,-439.09 717.76,-437.15 724.25,-435.42"/>
<polygon fill="#63b8ff" stroke="#63b8ff" points="724.88,-438.87 733.74,-433.06 723.19,-432.08 724.88,-438.87"/>
</a>
</g>
</g>
<!-- Node18 -->
<g id="Node000018" class="node">
<title>Node18</title>
<g id="a_Node000018"><a xlink:href="../../d5/d72/classLSM1x0A__LoRaWAN.html#ad320634e52d7ea907043cc50dd37c5b0" target="_top" xlink:title="Sets the LoRaWAN Device EUI (DevEUI).">
<polygon fill="white" stroke="#666666" points="884.75,-394.24 719.5,-394.24 719.5,-374.24 884.75,-374.24 884.75,-394.24"/>
<text text-anchor="middle" x="802.12" y="-380.74" font-family="Helvetica,sans-Serif" font-size="10.00">LSM1x0A_LoRaWAN::setDevEUI</text>
</a>
</g>
</g>
<!-- Node12&#45;&gt;Node18 -->
<g id="edge28_Node000012_Node000018" class="edge">
<title>Node12&#45;&gt;Node18</title>
<g id="a_edge28_Node000012_Node000018"><a xlink:title=" ">
<path fill="none" stroke="#63b8ff" d="M605.04,-484.78C624.96,-462.57 663.65,-423.46 705.25,-403.24 708.98,-401.43 712.87,-399.79 716.86,-398.31"/>
<polygon fill="#63b8ff" stroke="#63b8ff" points="717.78,-401.69 726.16,-395.21 715.57,-395.05 717.78,-401.69"/>
</a>
</g>
</g>
<!-- Node19 -->
<g id="Node000019" class="node">
<title>Node19</title>
<g id="a_Node000019"><a xlink:href="../../d5/d72/classLSM1x0A__LoRaWAN.html#a031023b0d2dd5db3c51c2db6ae7801cc" target="_top" xlink:title="Enables or disables the Duty Cycle limitation (EU regions mostly).">
<polygon fill="white" stroke="#666666" points="877.62,-356.24 726.62,-356.24 726.62,-324.24 877.62,-324.24 877.62,-356.24"/>
<text text-anchor="start" x="734.62" y="-342.74" font-family="Helvetica,sans-Serif" font-size="10.00">LSM1x0A_LoRaWAN::setDuty</text>
<text text-anchor="middle" x="802.12" y="-330.74" font-family="Helvetica,sans-Serif" font-size="10.00">Cycle</text>
</a>
</g>
</g>
<!-- Node12&#45;&gt;Node19 -->
<g id="edge30_Node000012_Node000019" class="edge">
<title>Node12&#45;&gt;Node19</title>
<g id="a_edge30_Node000012_Node000019"><a xlink:title=" ">
<path fill="none" stroke="#63b8ff" d="M599.99,-485.03C616.78,-456.3 655.72,-396.54 705.25,-365.24 708.73,-363.04 712.39,-361.04 716.17,-359.21"/>
<polygon fill="#63b8ff" stroke="#63b8ff" points="717.26,-362.56 725.04,-355.37 714.48,-356.13 717.26,-362.56"/>
</a>
</g>
</g>
<!-- Node20 -->
<g id="Node000020" class="node">
<title>Node20</title>
<g id="a_Node000020"><a xlink:href="../../d5/d72/classLSM1x0A__LoRaWAN.html#a6b179d5825c49af0f391dfc539912f64" target="_top" xlink:title="Sets the delay for the Join1 receive window.">
<polygon fill="white" stroke="#666666" points="878.75,-306.24 725.5,-306.24 725.5,-274.24 878.75,-274.24 878.75,-306.24"/>
<text text-anchor="start" x="733.5" y="-292.74" font-family="Helvetica,sans-Serif" font-size="10.00">LSM1x0A_LoRaWAN::setJoin1</text>
<text text-anchor="middle" x="802.12" y="-280.74" font-family="Helvetica,sans-Serif" font-size="10.00">Delay</text>
</a>
</g>
</g>
<!-- Node12&#45;&gt;Node20 -->
<g id="edge32_Node000012_Node000020" class="edge">
<title>Node12&#45;&gt;Node20</title>
<g id="a_edge32_Node000012_Node000020"><a xlink:title=" ">
<path fill="none" stroke="#63b8ff" d="M596.27,-484.91C608.87,-448.5 644.34,-360.35 705.25,-315.24 708.39,-312.92 711.72,-310.81 715.19,-308.9"/>
<polygon fill="#63b8ff" stroke="#63b8ff" points="716.45,-312.18 723.92,-304.67 713.4,-305.88 716.45,-312.18"/>
</a>
</g>
</g>
<!-- Node21 -->
<g id="Node000021" class="node">
<title>Node21</title>
<g id="a_Node000021"><a xlink:href="../../d5/d72/classLSM1x0A__LoRaWAN.html#a4545d0caad41558cdb9bae8286b104d8" target="_top" xlink:title="Sets the delay for the Join2 receive window.">
<polygon fill="white" stroke="#666666" points="878.75,-256.24 725.5,-256.24 725.5,-224.24 878.75,-224.24 878.75,-256.24"/>
<text text-anchor="start" x="733.5" y="-242.74" font-family="Helvetica,sans-Serif" font-size="10.00">LSM1x0A_LoRaWAN::setJoin2</text>
<text text-anchor="middle" x="802.12" y="-230.74" font-family="Helvetica,sans-Serif" font-size="10.00">Delay</text>
</a>
</g>
</g>
<!-- Node12&#45;&gt;Node21 -->
<g id="edge34_Node000012_Node000021" class="edge">
<title>Node12&#45;&gt;Node21</title>
<g id="a_edge34_Node000012_Node000021"><a xlink:title=" ">
<path fill="none" stroke="#63b8ff" d="M594.01,-484.87C602.82,-441.87 632.6,-324.9 705.25,-265.24 708.33,-262.71 711.65,-260.43 715.12,-258.38"/>
<polygon fill="#63b8ff" stroke="#63b8ff" points="716.63,-261.54 723.94,-253.87 713.44,-255.31 716.63,-261.54"/>
</a>
</g>
</g>
<!-- Node22 -->
<g id="Node000022" class="node">
<title>Node22</title>
<g id="a_Node000022"><a xlink:href="../../d5/d72/classLSM1x0A__LoRaWAN.html#a06bd50723ec1eb7e144c9141b2ec86fc" target="_top" xlink:title="Sets the LoRaWAN Network ID (NetID).">
<polygon fill="white" stroke="#666666" points="882.5,-206.24 721.75,-206.24 721.75,-186.24 882.5,-186.24 882.5,-206.24"/>
<text text-anchor="middle" x="802.12" y="-192.74" font-family="Helvetica,sans-Serif" font-size="10.00">LSM1x0A_LoRaWAN::setNwkID</text>
</a>
</g>
</g>
<!-- Node12&#45;&gt;Node22 -->
<g id="edge36_Node000012_Node000022" class="edge">
<title>Node12&#45;&gt;Node22</title>
<g id="a_edge36_Node000012_Node000022"><a xlink:title=" ">
<path fill="none" stroke="#63b8ff" d="M592.27,-484.87C597.03,-435.58 618.26,-287.5 705.25,-215.24 707.21,-213.61 709.27,-212.11 711.42,-210.72"/>
<polygon fill="#63b8ff" stroke="#63b8ff" points="712.84,-213.93 719.95,-206.08 709.5,-207.78 712.84,-213.93"/>
</a>
</g>
</g>
<!-- Node23 -->
<g id="Node000023" class="node">
<title>Node23</title>
<g id="a_Node000023"><a xlink:href="../../d5/d72/classLSM1x0A__LoRaWAN.html#aa70ada64d28ecca216bb62268e502adf" target="_top" xlink:title="Sets the delay for the RX1 receive window.">
<polygon fill="white" stroke="#666666" points="888.88,-168.24 715.38,-168.24 715.38,-148.24 888.88,-148.24 888.88,-168.24"/>
<text text-anchor="middle" x="802.12" y="-154.74" font-family="Helvetica,sans-Serif" font-size="10.00">LSM1x0A_LoRaWAN::setRx1Delay</text>
</a>
</g>
</g>
<!-- Node12&#45;&gt;Node23 -->
<g id="edge38_Node000012_Node000023" class="edge">
<title>Node12&#45;&gt;Node23</title>
<g id="a_edge38_Node000012_Node000023"><a xlink:title=" ">
<path fill="none" stroke="#63b8ff" d="M591.41,-485.06C593.68,-431.86 608.54,-261 705.25,-177.24 706.21,-176.41 707.2,-175.61 708.21,-174.84"/>
<polygon fill="#63b8ff" stroke="#63b8ff" points="710.02,-177.83 716.61,-169.54 706.28,-171.92 710.02,-177.83"/>
</a>
</g>
</g>
<!-- Node24 -->
<g id="Node000024" class="node">
<title>Node24</title>
<g id="a_Node000024"><a xlink:href="../../d5/d72/classLSM1x0A__LoRaWAN.html#a2cf4eff0181b6107d082bccefa24217b" target="_top" xlink:title="Sets the Data Rate (DR) specifically for the RX2 window.">
<polygon fill="white" stroke="#666666" points="897.12,-130.24 707.12,-130.24 707.12,-110.24 897.12,-110.24 897.12,-130.24"/>
<text text-anchor="middle" x="802.12" y="-116.74" font-family="Helvetica,sans-Serif" font-size="10.00">LSM1x0A_LoRaWAN::setRx2DataRate</text>
</a>
</g>
</g>
<!-- Node12&#45;&gt;Node24 -->
<g id="edge40_Node000012_Node000024" class="edge">
<title>Node12&#45;&gt;Node24</title>
<g id="a_edge40_Node000012_Node000024"><a xlink:title=" ">
<path fill="none" stroke="#63b8ff" d="M590.73,-484.84C590.74,-427.52 598.96,-234.43 705.25,-139.24 706.2,-138.39 707.17,-137.58 708.17,-136.79"/>
<polygon fill="#63b8ff" stroke="#63b8ff" points="710,-139.78 716.49,-131.4 706.19,-133.91 710,-139.78"/>
</a>
</g>
</g>
<!-- Node25 -->
<g id="Node000025" class="node">
<title>Node25</title>
<g id="a_Node000025"><a xlink:href="../../d5/d72/classLSM1x0A__LoRaWAN.html#a42d2137b475b57e19d891a5f1ac93221" target="_top" xlink:title="Sets the delay for the RX2 receive window.">
<polygon fill="white" stroke="#666666" points="888.88,-798.24 715.38,-798.24 715.38,-778.24 888.88,-778.24 888.88,-798.24"/>
<text text-anchor="middle" x="802.12" y="-784.74" font-family="Helvetica,sans-Serif" font-size="10.00">LSM1x0A_LoRaWAN::setRx2Delay</text>
</a>
</g>
</g>
<!-- Node12&#45;&gt;Node25 -->
<g id="edge42_Node000012_Node000025" class="edge">
<title>Node12&#45;&gt;Node25</title>
<g id="a_edge42_Node000012_Node000025"><a xlink:title=" ">
<path fill="none" stroke="#63b8ff" d="M592.75,-517.61C598.73,-564.85 622.77,-702.31 705.25,-769.24 706.57,-770.31 707.93,-771.33 709.33,-772.29"/>
<polygon fill="#63b8ff" stroke="#63b8ff" points="707.34,-775.18 717.74,-777.16 710.84,-769.12 707.34,-775.18"/>
</a>
</g>
</g>
<!-- Node26 -->
<g id="Node000026" class="node">
<title>Node26</title>
<g id="a_Node000026"><a xlink:href="../../d5/d72/classLSM1x0A__LoRaWAN.html#a689f7dfda1dfeae11ea397c2ddf2ad37" target="_top" xlink:title="Sets the precise frequency for the RX2 window.">
<polygon fill="white" stroke="#666666" points="899,-760.24 705.25,-760.24 705.25,-740.24 899,-740.24 899,-760.24"/>
<text text-anchor="middle" x="802.12" y="-746.74" font-family="Helvetica,sans-Serif" font-size="10.00">LSM1x0A_LoRaWAN::setRx2Frequency</text>
</a>
</g>
</g>
<!-- Node12&#45;&gt;Node26 -->
<g id="edge44_Node000012_Node000026" class="edge">
<title>Node12&#45;&gt;Node26</title>
<g id="a_edge44_Node000012_Node000026"><a xlink:title=" ">
<path fill="none" stroke="#63b8ff" d="M593.96,-517.44C602.62,-559.96 632.11,-675.32 705.25,-731.24 706.78,-732.41 708.36,-733.51 709.99,-734.55"/>
<polygon fill="#63b8ff" stroke="#63b8ff" points="707.96,-737.43 718.42,-739.13 711.3,-731.28 707.96,-737.43"/>
</a>
</g>
</g>
<!-- Node27 -->
<g id="Node000027" class="node">
<title>Node27</title>
<g id="a_Node000027"><a xlink:href="../../d5/d72/classLSM1x0A__LoRaWAN.html#a1df10d7ae6bf45b537d28d3d5c4b88d7" target="_top" xlink:title="Sets the transmission power index.">
<polygon fill="white" stroke="#666666" points="886.62,-722.24 717.62,-722.24 717.62,-702.24 886.62,-702.24 886.62,-722.24"/>
<text text-anchor="middle" x="802.12" y="-708.74" font-family="Helvetica,sans-Serif" font-size="10.00">LSM1x0A_LoRaWAN::setTxPower</text>
</a>
</g>
</g>
<!-- Node12&#45;&gt;Node27 -->
<g id="edge46_Node000012_Node000027" class="edge">
<title>Node12&#45;&gt;Node27</title>
<g id="a_edge46_Node000012_Node000027"><a xlink:title=" ">
<path fill="none" stroke="#63b8ff" d="M595.65,-517.51C607.28,-555.09 641.4,-648.16 705.25,-693.24 707.07,-694.53 708.95,-695.73 710.89,-696.86"/>
<polygon fill="#63b8ff" stroke="#63b8ff" points="709.11,-699.88 719.63,-701.2 712.23,-693.61 709.11,-699.88"/>
</a>
</g>
</g>
<!-- Node28 -->
<g id="Node000028" class="node">
<title>Node28</title>
<g id="a_Node000028"><a xlink:href="../../d5/d72/classLSM1x0A__LoRaWAN.html#a059fd6a9356c4ecadd5a98294da5952d" target="_top" xlink:title="Configures the number of repetitions for Unconfirmed uplinks.">
<polygon fill="white" stroke="#666666" points="889.62,-684.24 714.62,-684.24 714.62,-652.24 889.62,-652.24 889.62,-684.24"/>
<text text-anchor="start" x="722.62" y="-670.74" font-family="Helvetica,sans-Serif" font-size="10.00">LSM1x0A_LoRaWAN::setUnconfirm</text>
<text text-anchor="middle" x="802.12" y="-658.74" font-family="Helvetica,sans-Serif" font-size="10.00">Retry</text>
</a>
</g>
</g>
<!-- Node12&#45;&gt;Node28 -->
<g id="edge48_Node000012_Node000028" class="edge">
<title>Node12&#45;&gt;Node28</title>
<g id="a_edge48_Node000012_Node000028"><a xlink:title=" ">
<path fill="none" stroke="#63b8ff" d="M599.54,-517.71C615.88,-547.53 654.51,-610.42 705.25,-643.24 707.22,-644.52 709.26,-645.73 711.35,-646.88"/>
<polygon fill="#63b8ff" stroke="#63b8ff" points="709.56,-649.9 720.08,-651.16 712.64,-643.62 709.56,-649.9"/>
</a>
</g>
</g>
<!-- Node13&#45;&gt;Node2 -->
<g id="edge18_Node000013_Node000002" class="edge">
<title>Node13&#45;&gt;Node2</title>
<g id="a_edge18_Node000013_Node000002"><a xlink:title=" ">
<path fill="none" stroke="#63b8ff" d="M725.97,-619.59C639.29,-613.37 492.77,-600.24 368.75,-576.24 352.92,-573.18 336.05,-568.98 320.36,-564.66"/>
<polygon fill="#63b8ff" stroke="#63b8ff" points="321.75,-561.41 311.17,-562.07 319.85,-568.15 321.75,-561.41"/>
</a>
</g>
</g>
<!-- Node14&#45;&gt;Node2 -->
<g id="edge20_Node000014_Node000002" class="edge">
<title>Node14&#45;&gt;Node2</title>
<g id="a_edge20_Node000014_Node000002"><a xlink:title=" ">
<path fill="none" stroke="#63b8ff" d="M725.66,-582.54C639.3,-578.03 493.67,-569.58 368.75,-558.24 353.24,-556.83 336.56,-555.04 320.94,-553.23"/>
<polygon fill="#63b8ff" stroke="#63b8ff" points="321.64,-549.79 311.3,-552.09 320.82,-556.74 321.64,-549.79"/>
</a>
</g>
</g>
<!-- Node15&#45;&gt;Node2 -->
<g id="edge23_Node000015_Node000002" class="edge">
<title>Node15&#45;&gt;Node2</title>
<g id="a_edge23_Node000015_Node000002"><a xlink:title=" ">
<path fill="none" stroke="#63b8ff" d="M719.82,-542.69C610.9,-543.29 419.89,-544.35 320.93,-544.89"/>
<polygon fill="#63b8ff" stroke="#63b8ff" points="321.12,-541.39 311.14,-544.95 321.16,-548.39 321.12,-541.39"/>
</a>
</g>
</g>
<!-- Node16&#45;&gt;Node2 -->
<g id="edge25_Node000016_Node000002" class="edge">
<title>Node16&#45;&gt;Node2</title>
<g id="a_edge25_Node000016_Node000002"><a xlink:title=" ">
<path fill="none" stroke="#63b8ff" d="M715.8,-460.23C657.68,-461.37 579.15,-465.17 510.75,-476.24 443.07,-487.2 367.46,-509.11 316.63,-525.32"/>
<polygon fill="#63b8ff" stroke="#63b8ff" points="315.74,-521.93 307.29,-528.32 317.88,-528.59 315.74,-521.93"/>
</a>
</g>
</g>
<!-- Node17&#45;&gt;Node2 -->
<g id="edge27_Node000017_Node000002" class="edge">
<title>Node17&#45;&gt;Node2</title>
<g id="a_edge27_Node000017_Node000002"><a xlink:title=" ">
<path fill="none" stroke="#63b8ff" d="M717.81,-423.11C628.9,-426.38 485.12,-438.46 368.75,-480.24 340.09,-490.53 310.44,-508.26 288.97,-522.61"/>
<polygon fill="#63b8ff" stroke="#63b8ff" points="287.25,-519.54 280.97,-528.07 291.2,-525.33 287.25,-519.54"/>
</a>
</g>
</g>
<!-- Node18&#45;&gt;Node2 -->
<g id="edge29_Node000018_Node000002" class="edge">
<title>Node18&#45;&gt;Node2</title>
<g id="a_edge29_Node000018_Node000002"><a xlink:title=" ">
<path fill="none" stroke="#63b8ff" d="M719.16,-382C628.87,-382.7 481.53,-393.42 368.75,-448.24 332.74,-465.75 299.24,-498.02 278.6,-520.51"/>
<polygon fill="#63b8ff" stroke="#63b8ff" points="276.17,-517.99 272.1,-527.77 281.38,-522.66 276.17,-517.99"/>
</a>
</g>
</g>
<!-- Node19&#45;&gt;Node2 -->
<g id="edge31_Node000019_Node000002" class="edge">
<title>Node19&#45;&gt;Node2</title>
<g id="a_edge31_Node000019_Node000002"><a xlink:title=" ">
<path fill="none" stroke="#63b8ff" d="M726.15,-335.27C635.04,-332.76 479.76,-340.17 368.75,-407.24 323.55,-434.55 288.96,-487.26 271.06,-519.04"/>
<polygon fill="#63b8ff" stroke="#63b8ff" points="268.1,-517.17 266.37,-527.62 274.24,-520.53 268.1,-517.17"/>
</a>
</g>
</g>
<!-- Node20&#45;&gt;Node2 -->
<g id="edge33_Node000020_Node000002" class="edge">
<title>Node20&#45;&gt;Node2</title>
<g id="a_edge33_Node000020_Node000002"><a xlink:title=" ">
<path fill="none" stroke="#63b8ff" d="M725.3,-283.46C632.64,-279.14 475.08,-285.06 368.75,-360.24 312.93,-399.71 280.17,-476.87 265.95,-517.96"/>
<polygon fill="#63b8ff" stroke="#63b8ff" points="262.67,-516.74 262.83,-527.33 269.31,-518.95 262.67,-516.74"/>
</a>
</g>
</g>
<!-- Node21&#45;&gt;Node2 -->
<g id="edge35_Node000021_Node000002" class="edge">
<title>Node21&#45;&gt;Node2</title>
<g id="a_edge35_Node000021_Node000002"><a xlink:title=" ">
<path fill="none" stroke="#63b8ff" d="M725.11,-231.18C631.16,-224.28 471.19,-227.07 368.75,-308.24 300.62,-362.22 272.2,-467.8 262.18,-517.77"/>
<polygon fill="#63b8ff" stroke="#63b8ff" points="258.77,-516.98 260.34,-527.45 265.64,-518.28 258.77,-516.98"/>
</a>
</g>
</g>
<!-- Node22&#45;&gt;Node2 -->
<g id="edge37_Node000022_Node000002" class="edge">
<title>Node22&#45;&gt;Node2</title>
<g id="a_edge37_Node000022_Node000002"><a xlink:title=" ">
<path fill="none" stroke="#63b8ff" d="M743.87,-185.79C653.23,-172.73 475.97,-161.83 368.75,-251.24 285.6,-320.58 264.51,-459.01 259.23,-517.81"/>
<polygon fill="#63b8ff" stroke="#63b8ff" points="255.76,-517.34 258.45,-527.58 262.74,-517.9 255.76,-517.34"/>
</a>
</g>
</g>
<!-- Node23&#45;&gt;Node2 -->
<g id="edge39_Node000023_Node000002" class="edge">
<title>Node23&#45;&gt;Node2</title>
<g id="a_edge39_Node000023_Node000002"><a xlink:title=" ">
<path fill="none" stroke="#63b8ff" d="M715.29,-154.14C604.41,-150.7 419.59,-151.85 368.75,-194.24 268.68,-277.67 257.43,-450.74 257.01,-517.83"/>
<polygon fill="#63b8ff" stroke="#63b8ff" points="253.51,-517.58 257.03,-527.57 260.51,-517.56 253.51,-517.58"/>
</a>
</g>
</g>
<!-- Node24&#45;&gt;Node2 -->
<g id="edge41_Node000024_Node000002" class="edge">
<title>Node24&#45;&gt;Node2</title>
<g id="a_edge41_Node000024_Node000002"><a xlink:title=" ">
<path fill="none" stroke="#63b8ff" d="M706.71,-116.49C595.2,-114.07 418.54,-117.21 368.75,-158.24 311.79,-205.18 273.11,-437.99 261.3,-518.1"/>
<polygon fill="#63b8ff" stroke="#63b8ff" points="257.88,-517.29 259.91,-527.69 264.81,-518.29 257.88,-517.29"/>
</a>
</g>
</g>
<!-- Node25&#45;&gt;Node2 -->
<g id="edge43_Node000025_Node000002" class="edge">
<title>Node25&#45;&gt;Node2</title>
<g id="a_edge43_Node000025_Node000002"><a xlink:title=" ">
<path fill="none" stroke="#63b8ff" d="M715.23,-789.74C621.47,-787.17 471.09,-770.25 368.75,-695.24 323.21,-661.86 288.14,-604.48 270.38,-571.2"/>
<polygon fill="#63b8ff" stroke="#63b8ff" points="273.65,-569.9 265.93,-562.65 267.44,-573.13 273.65,-569.9"/>
</a>
</g>
</g>
<!-- Node26&#45;&gt;Node2 -->
<g id="edge45_Node000026_Node000002" class="edge">
<title>Node26&#45;&gt;Node2</title>
<g id="a_edge45_Node000026_Node000002"><a xlink:title=" ">
<path fill="none" stroke="#63b8ff" d="M705.17,-747.69C612.91,-741.31 472.53,-720.96 368.75,-658.24 330.73,-635.26 296.43,-596.35 276.27,-570.72"/>
<polygon fill="#63b8ff" stroke="#63b8ff" points="279.06,-568.6 270.19,-562.81 273.51,-572.87 279.06,-568.6"/>
</a>
</g>
</g>
<!-- Node27&#45;&gt;Node2 -->
<g id="edge47_Node000027_Node000002" class="edge">
<title>Node27&#45;&gt;Node2</title>
<g id="a_edge47_Node000027_Node000002"><a xlink:title=" ">
<path fill="none" stroke="#63b8ff" d="M717.16,-706.78C627.38,-698.38 482.59,-677.34 368.75,-625.24 337.14,-610.77 305.37,-586.76 283.92,-568.81"/>
<polygon fill="#63b8ff" stroke="#63b8ff" points="286.42,-566.34 276.54,-562.51 281.88,-571.67 286.42,-566.34"/>
</a>
</g>
</g>
<!-- Node28&#45;&gt;Node2 -->
<g id="edge49_Node000028_Node000002" class="edge">
<title>Node28&#45;&gt;Node2</title>
<g id="a_edge49_Node000028_Node000002"><a xlink:title=" ">
<path fill="none" stroke="#63b8ff" d="M714.14,-661.47C625.63,-652.89 485.25,-634.61 368.75,-598.24 343.59,-590.39 316.89,-577.82 295.95,-566.89"/>
<polygon fill="#63b8ff" stroke="#63b8ff" points="297.67,-563.85 287.2,-562.24 294.38,-570.03 297.67,-563.85"/>
</a>
</g>
</g>
<!-- Node30&#45;&gt;Node31 -->
<g id="edge52_Node000030_Node000031" class="edge">
<title>Node30&#45;&gt;Node31</title>
<g id="a_edge52_Node000030_Node000031"><a xlink:title=" ">
<path fill="none" stroke="#63b8ff" d="M643.48,-1118.23C672.82,-1124.37 709.53,-1132.06 740.14,-1138.47"/>
<polygon fill="#63b8ff" stroke="#63b8ff" points="739.13,-1141.84 749.64,-1140.46 740.57,-1134.98 739.13,-1141.84"/>
</a>
</g>
</g>
<!-- Node32 -->
<g id="Node000032" class="node">
<title>Node32</title>
<g id="a_Node000032"><a xlink:href="../../d6/d3c/classLSM1x0A__AtParser.html#a0ba6f927c54fceece22c17773d3f2600" target="_top" xlink:title="Sends a command and extracts a value from the response.">
<polygon fill="white" stroke="#666666" points="1117.12,-1186.24 942.88,-1186.24 942.88,-1154.24 1117.12,-1154.24 1117.12,-1186.24"/>
<text text-anchor="start" x="950.88" y="-1172.74" font-family="Helvetica,sans-Serif" font-size="10.00">LSM1x0A_AtParser::sendCommand</text>
<text text-anchor="middle" x="1030" y="-1160.74" font-family="Helvetica,sans-Serif" font-size="10.00">WithResponse</text>
</a>
</g>
</g>
<!-- Node31&#45;&gt;Node32 -->
<g id="edge53_Node000031_Node000032" class="edge">
<title>Node31&#45;&gt;Node32</title>
<g id="a_edge53_Node000031_Node000032"><a xlink:title=" ">
<path fill="none" stroke="#63b8ff" d="M889.49,-1158.51C903.24,-1159.66 917.56,-1160.87 931.55,-1162.04"/>
<polygon fill="#63b8ff" stroke="#63b8ff" points="930.92,-1165.5 941.18,-1162.85 931.51,-1158.53 930.92,-1165.5"/>
</a>
</g>
</g>
<!-- Node33 -->
<g id="Node000033" class="node">
<title>Node33</title>
<g id="a_Node000033"><a xlink:href="../../d5/d8b/classUartDriver.html#a5d0f22e8867eebe99273078bb19bd23d" target="_top" xlink:title="Sends data through UART.">
<polygon fill="white" stroke="#666666" points="1291.75,-1180.24 1182.75,-1180.24 1182.75,-1160.24 1291.75,-1160.24 1291.75,-1180.24"/>
<text text-anchor="middle" x="1237.25" y="-1166.74" font-family="Helvetica,sans-Serif" font-size="10.00">UartDriver::sendData</text>
</a>
</g>
</g>
<!-- Node32&#45;&gt;Node33 -->
<g id="edge54_Node000032_Node000033" class="edge">
<title>Node32&#45;&gt;Node33</title>
<g id="a_edge54_Node000032_Node000033"><a xlink:title=" ">
<path fill="none" stroke="#63b8ff" d="M1117.45,-1170.24C1135.34,-1170.24 1153.91,-1170.24 1170.89,-1170.24"/>
<polygon fill="#63b8ff" stroke="#63b8ff" points="1170.86,-1173.74 1180.86,-1170.24 1170.86,-1166.74 1170.86,-1173.74"/>
</a>
</g>
</g>
<!-- Node34&#45;&gt;Node3 -->
<g id="edge57_Node000034_Node000003" class="edge">
<title>Node34&#45;&gt;Node3</title>
<g id="a_edge57_Node000034_Node000003"><a xlink:title=" ">
<path fill="none" stroke="#63b8ff" d="M332.91,-937.24C341,-937.24 349.16,-937.24 357.09,-937.24"/>
<polygon fill="#63b8ff" stroke="#63b8ff" points="356.98,-940.74 366.98,-937.24 356.98,-933.74 356.98,-940.74"/>
</a>
</g>
</g>
<!-- Node34&#45;&gt;Node32 -->
<g id="edge58_Node000034_Node000032" class="edge">
<title>Node34&#45;&gt;Node32</title>
<g id="a_edge58_Node000034_Node000032"><a xlink:title=" ">
<path fill="none" stroke="#63b8ff" d="M268.77,-953.53C300.54,-997.78 396.02,-1119.78 510.75,-1162.24 649.92,-1213.75 824.85,-1202.21 931.72,-1187.49"/>
<polygon fill="#63b8ff" stroke="#63b8ff" points="931.89,-1191 941.3,-1186.13 930.91,-1184.07 931.89,-1191"/>
</a>
</g>
</g>
</g>
</svg>
