<?xml version="1.0" encoding="UTF-8" standalone="no"?>
<!DOCTYPE svg PUBLIC "-//W3C//DTD SVG 1.1//EN"
 "http://www.w3.org/Graphics/SVG/1.1/DTD/svg11.dtd">
<!-- Generated by graphviz version 12.2.1 (20241206.2353)
 -->
<!-- Title: UartDriver::flushRx Pages: 1 -->
<svg width="431pt" height="40pt"
 viewBox="0.00 0.00 431.00 40.00" xmlns="http://www.w3.org/2000/svg" xmlns:xlink="http://www.w3.org/1999/xlink">
<g id="graph0" class="graph" transform="scale(1 1) rotate(0) translate(4 36)">
<title>UartDriver::flushRx</title>
<!-- Node1 -->
<g id="Node000001" class="node">
<title>Node1</title>
<g id="a_Node000001"><a xlink:title="Empties the hardware RX buffer and any queued events, discarding all obsolete received data.">
<polygon fill="#999999" stroke="#666666" points="423,-26 322.25,-26 322.25,-6 423,-6 423,-26"/>
<text text-anchor="middle" x="372.62" y="-12.5" font-family="Helvetica,sans-Serif" font-size="10.00">UartDriver::flushRx</text>
</a>
</g>
</g>
<!-- Node2 -->
<g id="Node000002" class="node">
<title>Node2</title>
<g id="a_Node000002"><a xlink:href="../../d6/d3c/classLSM1x0A__AtParser.html#aa8806eeffdfb50c84daff85cefab497b" target="_top" xlink:title="Performs a &quot;Ping&quot; activation by sending AT commands until OK is received. Handles the module&#39;s low&#45;po...">
<polygon fill="white" stroke="#666666" points="286.25,-26 142,-26 142,-6 286.25,-6 286.25,-26"/>
<text text-anchor="middle" x="214.12" y="-12.5" font-family="Helvetica,sans-Serif" font-size="10.00">LSM1x0A_AtParser::wakeUp</text>
</a>
</g>
</g>
<!-- Node1&#45;&gt;Node2 -->
<g id="edge1_Node000001_Node000002" class="edge">
<title>Node1&#45;&gt;Node2</title>
<g id="a_edge1_Node000001_Node000002"><a xlink:title=" ">
<path fill="none" stroke="#63b8ff" d="M310.74,-16C302.84,-16 294.68,-16 286.62,-16"/>
<polygon fill="#63b8ff" stroke="#63b8ff" points="310.59,-19.5 320.59,-16 310.59,-12.5 310.59,-19.5"/>
</a>
</g>
</g>
<!-- Node3 -->
<g id="Node000003" class="node">
<title>Node3</title>
<g id="a_Node000003"><a xlink:href="../../d8/d92/classLSM1x0A__Controller.html#a3a8bd660f73d714060fa7259f46d9feb" target="_top" xlink:title="Wakes up the module and tries to synchronize its initial state. Sends basic AT commands or &#39;Wake&#45;Up&#39; ...">
<polygon fill="white" stroke="#666666" points="106,-32 0,-32 0,0 106,0 106,-32"/>
<text text-anchor="start" x="8" y="-18.5" font-family="Helvetica,sans-Serif" font-size="10.00">LSM1x0A_Controller</text>
<text text-anchor="middle" x="53" y="-6.5" font-family="Helvetica,sans-Serif" font-size="10.00">::wakeUp</text>
</a>
</g>
</g>
<!-- Node2&#45;&gt;Node3 -->
<g id="edge2_Node000002_Node000003" class="edge">
<title>Node2&#45;&gt;Node3</title>
<g id="a_edge2_Node000002_Node000003"><a xlink:title=" ">
<path fill="none" stroke="#63b8ff" d="M130.57,-16C122.23,-16 113.93,-16 106.04,-16"/>
<polygon fill="#63b8ff" stroke="#63b8ff" points="130.43,-19.5 140.43,-16 130.43,-12.5 130.43,-19.5"/>
</a>
</g>
</g>
</g>
</svg>
