<?xml version="1.0" encoding="UTF-8" standalone="no"?>
<!DOCTYPE svg PUBLIC "-//W3C//DTD SVG 1.1//EN"
 "http://www.w3.org/Graphics/SVG/1.1/DTD/svg11.dtd">
<!-- Generated by graphviz version 12.2.1 (20241206.2353)
 -->
<!-- Title: UartDriver::init Pages: 1 -->
<svg width="387pt" height="40pt"
 viewBox="0.00 0.00 386.75 40.00" xmlns="http://www.w3.org/2000/svg" xmlns:xlink="http://www.w3.org/1999/xlink">
<g id="graph0" class="graph" transform="scale(1 1) rotate(0) translate(4 36)">
<title>UartDriver::init</title>
<!-- Node1 -->
<g id="Node000001" class="node">
<title>Node1</title>
<g id="a_Node000001"><a xlink:title="Initializes the UART driver.">
<polygon fill="#999999" stroke="#666666" points="378.75,-26 299,-26 299,-6 378.75,-6 378.75,-26"/>
<text text-anchor="middle" x="338.88" y="-12.5" font-family="Helvetica,sans-Serif" font-size="10.00">UartDriver::init</text>
</a>
</g>
</g>
<!-- Node2 -->
<g id="Node000002" class="node">
<title>Node2</title>
<g id="a_Node000002"><a xlink:href="../../d6/d3c/classLSM1x0A__AtParser.html#a6a46441d480f9beec79a6e5f484e51aa" target="_top" xlink:title="Initializes the AT Parser with a UART driver and an optional asynchronous event callback.">
<polygon fill="white" stroke="#666666" points="263,-26 142,-26 142,-6 263,-6 263,-26"/>
<text text-anchor="middle" x="202.5" y="-12.5" font-family="Helvetica,sans-Serif" font-size="10.00">LSM1x0A_AtParser::init</text>
</a>
</g>
</g>
<!-- Node1&#45;&gt;Node2 -->
<g id="edge1_Node000001_Node000002" class="edge">
<title>Node1&#45;&gt;Node2</title>
<g id="a_edge1_Node000001_Node000002"><a xlink:title=" ">
<path fill="none" stroke="#63b8ff" d="M287.4,-16C279.52,-16 271.32,-16 263.26,-16"/>
<polygon fill="#63b8ff" stroke="#63b8ff" points="287.13,-19.5 297.13,-16 287.13,-12.5 287.13,-19.5"/>
</a>
</g>
</g>
<!-- Node3 -->
<g id="Node000003" class="node">
<title>Node3</title>
<g id="a_Node000003"><a xlink:href="../../d8/d92/classLSM1x0A__Controller.html#a24e57dda949a86da2bbe37ab939afbce" target="_top" xlink:title="Initializes the driver, AT parser, and internal EventGroup.">
<polygon fill="white" stroke="#666666" points="106,-32 0,-32 0,0 106,0 106,-32"/>
<text text-anchor="start" x="8" y="-18.5" font-family="Helvetica,sans-Serif" font-size="10.00">LSM1x0A_Controller</text>
<text text-anchor="middle" x="53" y="-6.5" font-family="Helvetica,sans-Serif" font-size="10.00">::begin</text>
</a>
</g>
</g>
<!-- Node2&#45;&gt;Node3 -->
<g id="edge2_Node000002_Node000003" class="edge">
<title>Node2&#45;&gt;Node3</title>
<g id="a_edge2_Node000002_Node000003"><a xlink:title=" ">
<path fill="none" stroke="#63b8ff" d="M130.21,-16C122.17,-16 114.1,-16 106.37,-16"/>
<polygon fill="#63b8ff" stroke="#63b8ff" points="129.99,-19.5 139.99,-16 129.99,-12.5 129.99,-19.5"/>
</a>
</g>
</g>
</g>
</svg>
