<?xml version="1.0" encoding="UTF-8" standalone="no"?>
<!DOCTYPE svg PUBLIC "-//W3C//DTD SVG 1.1//EN"
 "http://www.w3.org/Graphics/SVG/1.1/DTD/svg11.dtd">
<!-- Generated by graphviz version 12.2.1 (20241206.2353)
 -->
<!-- Title: LSM1x0A_LoRaWAN::setRx2Frequency Pages: 1 -->
<svg width="1321pt" height="1067pt"
 viewBox="0.00 0.00 1320.75 1066.73" xmlns="http://www.w3.org/2000/svg" xmlns:xlink="http://www.w3.org/1999/xlink">
<g id="graph0" class="graph" transform="scale(1 1) rotate(0) translate(4 1062.73)">
<title>LSM1x0A_LoRaWAN::setRx2Frequency</title>
<!-- Node1 -->
<g id="Node000001" class="node">
<title>Node1</title>
<g id="a_Node000001"><a xlink:title="Sets the precise frequency for the RX2 window.">
<polygon fill="#999999" stroke="#666666" points="193.75,-350.61 0,-350.61 0,-330.61 193.75,-330.61 193.75,-350.61"/>
<text text-anchor="middle" x="96.88" y="-337.11" font-family="Helvetica,sans-Serif" font-size="10.00">LSM1x0A_LoRaWAN::setRx2Frequency</text>
</a>
</g>
</g>
<!-- Node2 -->
<g id="Node000002" class="node">
<title>Node2</title>
<g id="a_Node000002"><a xlink:href="../../d8/d92/classLSM1x0A__Controller.html#afd7d92e60ed6fdae696a955cdbe0ed8c" target="_top" xlink:title="Sends any AT command to the module, returning error if it fails. Internally uses the LsmAtParser logi...">
<polygon fill="white" stroke="#666666" points="335.75,-450.61 229.75,-450.61 229.75,-418.61 335.75,-418.61 335.75,-450.61"/>
<text text-anchor="start" x="237.75" y="-437.11" font-family="Helvetica,sans-Serif" font-size="10.00">LSM1x0A_Controller</text>
<text text-anchor="middle" x="282.75" y="-425.11" font-family="Helvetica,sans-Serif" font-size="10.00">::sendCommand</text>
</a>
</g>
</g>
<!-- Node1&#45;&gt;Node2 -->
<g id="edge1_Node000001_Node000002" class="edge">
<title>Node1&#45;&gt;Node2</title>
<g id="a_edge1_Node000001_Node000002"><a xlink:title=" ">
<path fill="none" stroke="#63b8ff" d="M118.26,-351.02C147.31,-365.88 201.33,-393.5 239.31,-412.91"/>
<polygon fill="#63b8ff" stroke="#63b8ff" points="237.71,-416.02 248.21,-417.46 240.9,-409.79 237.71,-416.02"/>
</a>
</g>
</g>
<!-- Node3 -->
<g id="Node000003" class="node">
<title>Node3</title>
<g id="a_Node000003"><a xlink:href="../../d8/d92/classLSM1x0A__Controller.html#abb0eb380daa3dfb7acffb483c5db8e2b" target="_top" xlink:title="Executes the recovery protocol. First Soft&#45;Reset (ATZ), then Hard&#45;Reset if there is a pin.">
<polygon fill="white" stroke="#666666" points="477.75,-867.61 371.75,-867.61 371.75,-835.61 477.75,-835.61 477.75,-867.61"/>
<text text-anchor="start" x="379.75" y="-854.11" font-family="Helvetica,sans-Serif" font-size="10.00">LSM1x0A_Controller</text>
<text text-anchor="middle" x="424.75" y="-842.11" font-family="Helvetica,sans-Serif" font-size="10.00">::recoverModule</text>
</a>
</g>
</g>
<!-- Node2&#45;&gt;Node3 -->
<g id="edge2_Node000002_Node000003" class="edge">
<title>Node2&#45;&gt;Node3</title>
<g id="a_edge2_Node000002_Node000003"><a xlink:title=" ">
<path fill="none" stroke="#63b8ff" d="M287.79,-451.05C299.16,-496.58 333.09,-627.9 371.75,-733.61 383.5,-765.73 399.75,-801.55 410.94,-825.2"/>
<polygon fill="#63b8ff" stroke="#63b8ff" points="407.72,-826.58 415.19,-834.1 414.04,-823.56 407.72,-826.58"/>
</a>
</g>
</g>
<!-- Node30 -->
<g id="Node000030" class="node">
<title>Node30</title>
<g id="a_Node000030"><a xlink:href="../../d6/d3c/classLSM1x0A__AtParser.html#a29b53c521974387ba6c03afadfaffa4a" target="_top" xlink:title="Sends a simple command and waits for OK/ERROR. Example: sendCommand(&quot;AT+JOIN&quot;);.">
<polygon fill="white" stroke="#666666" points="890.38,-703.61 716.12,-703.61 716.12,-683.61 890.38,-683.61 890.38,-703.61"/>
<text text-anchor="middle" x="803.25" y="-690.11" font-family="Helvetica,sans-Serif" font-size="10.00">LSM1x0A_AtParser::sendCommand</text>
</a>
</g>
</g>
<!-- Node2&#45;&gt;Node30 -->
<g id="edge54_Node000002_Node000030" class="edge">
<title>Node2&#45;&gt;Node30</title>
<g id="a_edge54_Node000002_Node000030"><a xlink:title=" ">
<path fill="none" stroke="#63b8ff" d="M287.65,-451.04C296.6,-485.21 321.78,-564.45 371.75,-608.61 463.09,-689.31 608.41,-702.34 704.57,-700.76"/>
<polygon fill="#63b8ff" stroke="#63b8ff" points="704.61,-704.26 714.53,-700.53 704.45,-697.26 704.61,-704.26"/>
</a>
</g>
</g>
<!-- Node4 -->
<g id="Node000004" class="node">
<title>Node4</title>
<g id="a_Node000004"><a xlink:href="../../d8/d92/classLSM1x0A__Controller.html#a3f6f25b843fe4fb7042c544deae2ab16" target="_top" xlink:title="Manually clears bits from the internal EventGroup.">
<polygon fill="white" stroke="#666666" points="1082.25,-924.61 976.25,-924.61 976.25,-892.61 1082.25,-892.61 1082.25,-924.61"/>
<text text-anchor="start" x="984.25" y="-911.11" font-family="Helvetica,sans-Serif" font-size="10.00">LSM1x0A_Controller</text>
<text text-anchor="middle" x="1029.25" y="-899.11" font-family="Helvetica,sans-Serif" font-size="10.00">::clearEvents</text>
</a>
</g>
</g>
<!-- Node3&#45;&gt;Node4 -->
<g id="edge3_Node000003_Node000004" class="edge">
<title>Node3&#45;&gt;Node4</title>
<g id="a_edge3_Node000003_Node000004"><a xlink:title=" ">
<path fill="none" stroke="#63b8ff" d="M476.51,-868.03C488.6,-871.38 501.54,-874.52 513.75,-876.61 674.38,-904.09 866.82,-908.67 964.54,-909.02"/>
<polygon fill="#63b8ff" stroke="#63b8ff" points="964.45,-912.52 974.46,-909.04 964.47,-905.52 964.45,-912.52"/>
</a>
</g>
</g>
<!-- Node5 -->
<g id="Node000005" class="node">
<title>Node5</title>
<g id="a_Node000005"><a xlink:href="../../d8/d92/classLSM1x0A__Controller.html#a345d4bd79fa16b18dc33a4ca788fe5f7" target="_top" xlink:title="Performs a hardware reset using the reset pin.">
<polygon fill="white" stroke="#666666" points="646,-867.61 540,-867.61 540,-835.61 646,-835.61 646,-867.61"/>
<text text-anchor="start" x="548" y="-854.11" font-family="Helvetica,sans-Serif" font-size="10.00">LSM1x0A_Controller</text>
<text text-anchor="middle" x="593" y="-842.11" font-family="Helvetica,sans-Serif" font-size="10.00">::hardwareReset</text>
</a>
</g>
</g>
<!-- Node3&#45;&gt;Node5 -->
<g id="edge4_Node000003_Node000005" class="edge">
<title>Node3&#45;&gt;Node5</title>
<g id="a_edge4_Node000003_Node000005"><a xlink:title=" ">
<path fill="none" stroke="#63b8ff" d="M477.9,-851.61C493.91,-851.61 511.72,-851.61 528.41,-851.61"/>
<polygon fill="#63b8ff" stroke="#63b8ff" points="528.24,-855.11 538.24,-851.61 528.24,-848.11 528.24,-855.11"/>
</a>
</g>
</g>
<!-- Node7 -->
<g id="Node000007" class="node">
<title>Node7</title>
<g id="a_Node000007"><a xlink:href="../../d5/d72/classLSM1x0A__LoRaWAN.html#a1892801e37c8cd67d37c76108d6f7d49" target="_top" xlink:title="Validates if the device is currently Joined to the network. (Either confirmed by OTAA or statically a...">
<polygon fill="white" stroke="#666666" points="1312.75,-790.61 1160.25,-790.61 1160.25,-770.61 1312.75,-770.61 1312.75,-790.61"/>
<text text-anchor="middle" x="1236.5" y="-777.11" font-family="Helvetica,sans-Serif" font-size="10.00">LSM1x0A_LoRaWAN::isJoined</text>
</a>
</g>
</g>
<!-- Node3&#45;&gt;Node7 -->
<g id="edge6_Node000003_Node000007" class="edge">
<title>Node3&#45;&gt;Node7</title>
<g id="a_edge6_Node000003_Node000007"><a xlink:title=" ">
<path fill="none" stroke="#63b8ff" d="M476.51,-835.2C488.6,-831.85 501.54,-828.7 513.75,-826.61 740.48,-787.63 1012.38,-780.88 1148.65,-780.2"/>
<polygon fill="#63b8ff" stroke="#63b8ff" points="1148.31,-783.7 1158.3,-780.16 1148.29,-776.7 1148.31,-783.7"/>
</a>
</g>
</g>
<!-- Node8 -->
<g id="Node000008" class="node">
<title>Node8</title>
<g id="a_Node000008"><a xlink:href="../../d5/d72/classLSM1x0A__LoRaWAN.html#a83e11c0e74ff9e0757db616ab1163424" target="_top" xlink:title="Attempts to recover a lost connection (re&#45;executes OTAA Join if dropped).">
<polygon fill="white" stroke="#666666" points="667.38,-1031.61 518.62,-1031.61 518.62,-999.61 667.38,-999.61 667.38,-1031.61"/>
<text text-anchor="start" x="526.62" y="-1018.11" font-family="Helvetica,sans-Serif" font-size="10.00">LSM1x0A_LoRaWAN::recover</text>
<text text-anchor="middle" x="593" y="-1006.11" font-family="Helvetica,sans-Serif" font-size="10.00">Connection</text>
</a>
</g>
</g>
<!-- Node3&#45;&gt;Node8 -->
<g id="edge7_Node000003_Node000008" class="edge">
<title>Node3&#45;&gt;Node8</title>
<g id="a_edge7_Node000003_Node000008"><a xlink:title=" ">
<path fill="none" stroke="#63b8ff" d="M432.45,-868C444.64,-895.91 473,-952.79 513.75,-985.61 517.62,-988.72 521.84,-991.53 526.26,-994.08"/>
<polygon fill="#63b8ff" stroke="#63b8ff" points="524.35,-997.03 534.84,-998.52 527.57,-990.81 524.35,-997.03"/>
</a>
</g>
</g>
<!-- Node12 -->
<g id="Node000012" class="node">
<title>Node12</title>
<g id="a_Node000012"><a xlink:href="../../d5/d72/classLSM1x0A__LoRaWAN.html#ae3be4ce59dfa200369733317df356e97" target="_top" xlink:title="Pushes the RAM&#45;cached variables back down into the hardware module. Restores the operational state af...">
<polygon fill="white" stroke="#666666" points="666.25,-387.61 519.75,-387.61 519.75,-355.61 666.25,-355.61 666.25,-387.61"/>
<text text-anchor="start" x="527.75" y="-374.11" font-family="Helvetica,sans-Serif" font-size="10.00">LSM1x0A_LoRaWAN::restore</text>
<text text-anchor="middle" x="593" y="-362.11" font-family="Helvetica,sans-Serif" font-size="10.00">Config</text>
</a>
</g>
</g>
<!-- Node3&#45;&gt;Node12 -->
<g id="edge16_Node000003_Node000012" class="edge">
<title>Node3&#45;&gt;Node12</title>
<g id="a_edge16_Node000003_Node000012"><a xlink:title=" ">
<path fill="none" stroke="#63b8ff" d="M431.38,-835.36C455.7,-765.15 551.92,-487.32 582.57,-398.83"/>
<polygon fill="#63b8ff" stroke="#63b8ff" points="585.83,-400.12 585.79,-389.52 579.21,-397.83 585.83,-400.12"/>
</a>
</g>
</g>
<!-- Node28 -->
<g id="Node000028" class="node">
<title>Node28</title>
<g id="a_Node000028"><a xlink:href="../../d5/d72/classLSM1x0A__LoRaWAN.html#ace4b04396f1de1f4a54f513f5f378db7" target="_top" xlink:title="Manually overrides the internal joined state tracker.">
<polygon fill="white" stroke="#666666" points="672.25,-943.61 513.75,-943.61 513.75,-923.61 672.25,-923.61 672.25,-943.61"/>
<text text-anchor="middle" x="593" y="-930.11" font-family="Helvetica,sans-Serif" font-size="10.00">LSM1x0A_LoRaWAN::setJoined</text>
</a>
</g>
</g>
<!-- Node3&#45;&gt;Node28 -->
<g id="edge49_Node000003_Node000028" class="edge">
<title>Node3&#45;&gt;Node28</title>
<g id="a_edge49_Node000003_Node000028"><a xlink:title=" ">
<path fill="none" stroke="#63b8ff" d="M446.79,-867.96C464.01,-880.72 489.42,-898.14 513.75,-909.61 521.79,-913.39 530.58,-916.77 539.27,-919.7"/>
<polygon fill="#63b8ff" stroke="#63b8ff" points="538.12,-923 548.71,-922.71 540.25,-916.33 538.12,-923"/>
</a>
</g>
</g>
<!-- Node29 -->
<g id="Node000029" class="node">
<title>Node29</title>
<g id="a_Node000029"><a xlink:href="../../d8/d92/classLSM1x0A__Controller.html#a11ad21cb5ca33ec51346764a23bd485e" target="_top" xlink:title="Performs a software reset (ATZ Command).">
<polygon fill="white" stroke="#666666" points="646,-779.61 540,-779.61 540,-747.61 646,-747.61 646,-779.61"/>
<text text-anchor="start" x="548" y="-766.11" font-family="Helvetica,sans-Serif" font-size="10.00">LSM1x0A_Controller</text>
<text text-anchor="middle" x="593" y="-754.11" font-family="Helvetica,sans-Serif" font-size="10.00">::softwareReset</text>
</a>
</g>
</g>
<!-- Node3&#45;&gt;Node29 -->
<g id="edge50_Node000003_Node000029" class="edge">
<title>Node3&#45;&gt;Node29</title>
<g id="a_edge50_Node000003_Node000029"><a xlink:title=" ">
<path fill="none" stroke="#63b8ff" d="M447.72,-835.19C465.05,-822.72 490.15,-805.73 513.75,-793.61 520.04,-790.38 526.75,-787.3 533.51,-784.42"/>
<polygon fill="#63b8ff" stroke="#63b8ff" points="534.78,-787.68 542.71,-780.65 532.13,-781.2 534.78,-787.68"/>
</a>
</g>
</g>
<!-- Node6 -->
<g id="Node000006" class="node">
<title>Node6</title>
<g id="a_Node000006"><a xlink:href="../../d6/d3c/classLSM1x0A__AtParser.html#ad2839120da13e56132b95019419be1e5" target="_top" xlink:title="Waits for an event (like BOOTALERT) without sending any command. Useful for hardware reset where the ...">
<polygon fill="white" stroke="#666666" points="873.5,-867.61 733,-867.61 733,-835.61 873.5,-835.61 873.5,-867.61"/>
<text text-anchor="start" x="741" y="-854.11" font-family="Helvetica,sans-Serif" font-size="10.00">LSM1x0A_AtParser::waitFor</text>
<text text-anchor="middle" x="803.25" y="-842.11" font-family="Helvetica,sans-Serif" font-size="10.00">Event</text>
</a>
</g>
</g>
<!-- Node5&#45;&gt;Node6 -->
<g id="edge5_Node000005_Node000006" class="edge">
<title>Node5&#45;&gt;Node6</title>
<g id="a_edge5_Node000005_Node000006"><a xlink:title=" ">
<path fill="none" stroke="#63b8ff" d="M646.28,-851.61C668.95,-851.61 696.03,-851.61 721.21,-851.61"/>
<polygon fill="#63b8ff" stroke="#63b8ff" points="721.11,-855.11 731.11,-851.61 721.11,-848.11 721.11,-855.11"/>
</a>
</g>
</g>
<!-- Node9 -->
<g id="Node000009" class="node">
<title>Node9</title>
<g id="a_Node000009"><a xlink:href="../../d5/d72/classLSM1x0A__LoRaWAN.html#a59f781f3cfd30c11cd3973bcb10a7baa" target="_top" xlink:title="Initiates a LoRaWAN Network Join procedure. This is a blocking function until the module fires an eve...">
<polygon fill="white" stroke="#666666" points="869,-981.61 737.5,-981.61 737.5,-961.61 869,-961.61 869,-981.61"/>
<text text-anchor="middle" x="803.25" y="-968.11" font-family="Helvetica,sans-Serif" font-size="10.00">LSM1x0A_LoRaWAN::join</text>
</a>
</g>
</g>
<!-- Node8&#45;&gt;Node9 -->
<g id="edge8_Node000008_Node000009" class="edge">
<title>Node8&#45;&gt;Node9</title>
<g id="a_edge8_Node000008_Node000009"><a xlink:title=" ">
<path fill="none" stroke="#63b8ff" d="M667.71,-1000.03C691.95,-994.91 718.59,-989.28 741.73,-984.39"/>
<polygon fill="#63b8ff" stroke="#63b8ff" points="742.24,-987.86 751.3,-982.37 740.79,-981.01 742.24,-987.86"/>
</a>
</g>
</g>
<!-- Node9&#45;&gt;Node2 -->
<g id="edge11_Node000009_Node000002" class="edge">
<title>Node9&#45;&gt;Node2</title>
<g id="a_edge11_Node000009_Node000002"><a xlink:title=" ">
<path fill="none" stroke="#63b8ff" d="M788.38,-981.95C765.58,-998.24 718.12,-1029.19 672.25,-1040.61 603.89,-1057.62 577.82,-1069.88 513.75,-1040.61 426.06,-1000.54 414.13,-963.21 371.75,-876.61 300.88,-731.78 287.08,-533.7 284.4,-461.95"/>
<polygon fill="#63b8ff" stroke="#63b8ff" points="287.91,-462.2 284.09,-452.32 280.91,-462.43 287.91,-462.2"/>
</a>
</g>
</g>
<!-- Node9&#45;&gt;Node3 -->
<g id="edge10_Node000009_Node000003" class="edge">
<title>Node9&#45;&gt;Node3</title>
<g id="a_edge10_Node000009_Node000003"><a xlink:title=" ">
<path fill="none" stroke="#63b8ff" d="M737.28,-981.03C676.29,-986.81 584.14,-987.47 513.75,-952.61 480.74,-936.26 454.9,-901.48 439.98,-877.33"/>
<polygon fill="#63b8ff" stroke="#63b8ff" points="443.16,-875.83 435.04,-869.02 437.14,-879.41 443.16,-875.83"/>
</a>
</g>
</g>
<!-- Node9&#45;&gt;Node4 -->
<g id="edge9_Node000009_Node000004" class="edge">
<title>Node9&#45;&gt;Node4</title>
<g id="a_edge9_Node000009_Node000004"><a xlink:title=" ">
<path fill="none" stroke="#63b8ff" d="M841.49,-961.13C875.04,-951.7 925.05,-937.63 964.88,-926.43"/>
<polygon fill="#63b8ff" stroke="#63b8ff" points="965.69,-929.84 974.36,-923.76 963.79,-923.1 965.69,-929.84"/>
</a>
</g>
</g>
<!-- Node10 -->
<g id="Node000010" class="node">
<title>Node10</title>
<g id="a_Node000010"><a xlink:href="../../d5/d72/classLSM1x0A__LoRaWAN.html#a3fdd1ac318a5ad2559323e5d57e36a5e" target="_top" xlink:title="Enables or disables specific sub&#45;bands for regions supporting Channel Masks (e.g.,...">
<polygon fill="white" stroke="#666666" points="1124.25,-763.61 934.25,-763.61 934.25,-743.61 1124.25,-743.61 1124.25,-763.61"/>
<text text-anchor="middle" x="1029.25" y="-750.11" font-family="Helvetica,sans-Serif" font-size="10.00">LSM1x0A_LoRaWAN::setChannelMask</text>
</a>
</g>
</g>
<!-- Node9&#45;&gt;Node10 -->
<g id="edge12_Node000009_Node000010" class="edge">
<title>Node9&#45;&gt;Node10</title>
<g id="a_edge12_Node000009_Node000010"><a xlink:title=" ">
<path fill="none" stroke="#63b8ff" d="M814.75,-961.38C849.95,-927.13 964.03,-816.1 1009.4,-771.96"/>
<polygon fill="#63b8ff" stroke="#63b8ff" points="1011.7,-774.6 1016.42,-765.12 1006.82,-769.58 1011.7,-774.6"/>
</a>
</g>
</g>
<!-- Node11 -->
<g id="Node000011" class="node">
<title>Node11</title>
<g id="a_Node000011"><a xlink:href="../../d8/d92/classLSM1x0A__Controller.html#a62476e30e50c7fe120aeb8df4b828675" target="_top" xlink:title="Synchronously/blockingly waits for an asynchronous event to occur. Useful for wrapping commands like ...">
<polygon fill="white" stroke="#666666" points="1082.25,-987.61 976.25,-987.61 976.25,-955.61 1082.25,-955.61 1082.25,-987.61"/>
<text text-anchor="start" x="984.25" y="-974.11" font-family="Helvetica,sans-Serif" font-size="10.00">LSM1x0A_Controller</text>
<text text-anchor="middle" x="1029.25" y="-962.11" font-family="Helvetica,sans-Serif" font-size="10.00">::waitForEvent</text>
</a>
</g>
</g>
<!-- Node9&#45;&gt;Node11 -->
<g id="edge15_Node000009_Node000011" class="edge">
<title>Node9&#45;&gt;Node11</title>
<g id="a_edge15_Node000009_Node000011"><a xlink:title=" ">
<path fill="none" stroke="#63b8ff" d="M869.34,-971.61C899.35,-971.61 934.84,-971.61 964.67,-971.61"/>
<polygon fill="#63b8ff" stroke="#63b8ff" points="964.28,-975.11 974.28,-971.61 964.28,-968.11 964.28,-975.11"/>
</a>
</g>
</g>
<!-- Node10&#45;&gt;Node2 -->
<g id="edge14_Node000010_Node000002" class="edge">
<title>Node10&#45;&gt;Node2</title>
<g id="a_edge14_Node000010_Node000002"><a xlink:title=" ">
<path fill="none" stroke="#63b8ff" d="M933.86,-752C771.64,-747.18 449.82,-727.98 371.75,-651.61 317.58,-598.61 295.64,-507.74 287.71,-462.25"/>
<polygon fill="#63b8ff" stroke="#63b8ff" points="291.18,-461.74 286.12,-452.44 284.27,-462.87 291.18,-461.74"/>
</a>
</g>
</g>
<!-- Node10&#45;&gt;Node7 -->
<g id="edge13_Node000010_Node000007" class="edge">
<title>Node10&#45;&gt;Node7</title>
<g id="a_edge13_Node000010_Node000007"><a xlink:title=" ">
<path fill="none" stroke="#63b8ff" d="M1109.9,-764.08C1122.62,-765.76 1135.84,-767.5 1148.72,-769.19"/>
<polygon fill="#63b8ff" stroke="#63b8ff" points="1148.06,-772.63 1158.43,-770.47 1148.98,-765.69 1148.06,-772.63"/>
</a>
</g>
</g>
<!-- Node12&#45;&gt;Node1 -->
<g id="edge44_Node000012_Node000001" class="edge">
<title>Node12&#45;&gt;Node1</title>
<g id="a_edge44_Node000012_Node000001"><a xlink:title=" ">
<path fill="none" stroke="#63b8ff" d="M519.38,-367.05C436.6,-361.86 300.5,-353.32 205.41,-347.35"/>
<polygon fill="#63b8ff" stroke="#63b8ff" points="205.74,-343.87 195.54,-346.73 205.3,-350.85 205.74,-343.87"/>
</a>
</g>
</g>
<!-- Node12&#45;&gt;Node10 -->
<g id="edge21_Node000012_Node000010" class="edge">
<title>Node12&#45;&gt;Node10</title>
<g id="a_edge21_Node000012_Node000010"><a xlink:title=" ">
<path fill="none" stroke="#63b8ff" d="M666.72,-364.31C746.02,-358.09 865.99,-354.37 898.25,-384.61 952.72,-435.66 888.43,-659.67 934.25,-718.61 940.99,-727.28 950.12,-733.8 960.05,-738.71"/>
<polygon fill="#63b8ff" stroke="#63b8ff" points="958.66,-741.92 969.23,-742.66 961.43,-735.49 958.66,-741.92"/>
</a>
</g>
</g>
<!-- Node13 -->
<g id="Node000013" class="node">
<title>Node13</title>
<g id="a_Node000013"><a xlink:href="../../d5/d72/classLSM1x0A__LoRaWAN.html#af0baa3db4c7fab580d6b19a9e92472f6" target="_top" xlink:title="Enables or disables Adaptive Data Rate (ADR).">
<polygon fill="white" stroke="#666666" points="879.12,-539.61 727.38,-539.61 727.38,-519.61 879.12,-519.61 879.12,-539.61"/>
<text text-anchor="middle" x="803.25" y="-526.11" font-family="Helvetica,sans-Serif" font-size="10.00">LSM1x0A_LoRaWAN::setADR</text>
</a>
</g>
</g>
<!-- Node12&#45;&gt;Node13 -->
<g id="edge17_Node000012_Node000013" class="edge">
<title>Node12&#45;&gt;Node13</title>
<g id="a_edge17_Node000012_Node000013"><a xlink:title=" ">
<path fill="none" stroke="#63b8ff" d="M602.47,-387.99C618.68,-417.62 657.11,-479.87 708.25,-510.61 710.9,-512.2 713.66,-513.66 716.5,-515"/>
<polygon fill="#63b8ff" stroke="#63b8ff" points="715.11,-518.21 725.69,-518.78 717.77,-511.74 715.11,-518.21"/>
</a>
</g>
</g>
<!-- Node14 -->
<g id="Node000014" class="node">
<title>Node14</title>
<g id="a_Node000014"><a xlink:href="../../d5/d72/classLSM1x0A__LoRaWAN.html#a5365ed1596eb84ebf1e3b33b4a10c788" target="_top" xlink:title="Sets the LoRaWAN operational frequency band.">
<polygon fill="white" stroke="#666666" points="879.5,-501.61 727,-501.61 727,-481.61 879.5,-481.61 879.5,-501.61"/>
<text text-anchor="middle" x="803.25" y="-488.11" font-family="Helvetica,sans-Serif" font-size="10.00">LSM1x0A_LoRaWAN::setBand</text>
</a>
</g>
</g>
<!-- Node12&#45;&gt;Node14 -->
<g id="edge19_Node000012_Node000014" class="edge">
<title>Node12&#45;&gt;Node14</title>
<g id="a_edge19_Node000012_Node000014"><a xlink:title=" ">
<path fill="none" stroke="#63b8ff" d="M607.28,-387.79C626.87,-410.53 665.82,-451.5 708.25,-472.61 711.79,-474.36 715.47,-475.96 719.25,-477.41"/>
<polygon fill="#63b8ff" stroke="#63b8ff" points="718.08,-480.71 728.67,-480.62 720.34,-474.08 718.08,-480.71"/>
</a>
</g>
</g>
<!-- Node15 -->
<g id="Node000015" class="node">
<title>Node15</title>
<g id="a_Node000015"><a xlink:href="../../d5/d72/classLSM1x0A__LoRaWAN.html#a9d9285c43414337a0ccb3a6cd7ca06e6" target="_top" xlink:title="Configures the number of retries for Confirmed uplinks.">
<polygon fill="white" stroke="#666666" points="885.5,-463.61 721,-463.61 721,-431.61 885.5,-431.61 885.5,-463.61"/>
<text text-anchor="start" x="729" y="-450.11" font-family="Helvetica,sans-Serif" font-size="10.00">LSM1x0A_LoRaWAN::setConfirm</text>
<text text-anchor="middle" x="803.25" y="-438.11" font-family="Helvetica,sans-Serif" font-size="10.00">Retry</text>
</a>
</g>
</g>
<!-- Node12&#45;&gt;Node15 -->
<g id="edge22_Node000012_Node000015" class="edge">
<title>Node12&#45;&gt;Node15</title>
<g id="a_edge22_Node000012_Node000015"><a xlink:title=" ">
<path fill="none" stroke="#63b8ff" d="M626.92,-387.99C649.45,-398.78 680.19,-412.68 708.25,-422.61 713.49,-424.46 718.93,-426.25 724.45,-427.96"/>
<polygon fill="#63b8ff" stroke="#63b8ff" points="723.06,-431.2 733.64,-430.72 725.07,-424.49 723.06,-431.2"/>
</a>
</g>
</g>
<!-- Node16 -->
<g id="Node000016" class="node">
<title>Node16</title>
<g id="a_Node000016"><a xlink:href="../../d5/d72/classLSM1x0A__LoRaWAN.html#a56345ceeafa0b9059d6de4e69eddc82e" target="_top" xlink:title="Sets the Data Rate (DR) of the module.">
<polygon fill="white" stroke="#666666" points="889.25,-413.61 717.25,-413.61 717.25,-393.61 889.25,-393.61 889.25,-413.61"/>
<text text-anchor="middle" x="803.25" y="-400.11" font-family="Helvetica,sans-Serif" font-size="10.00">LSM1x0A_LoRaWAN::setDataRate</text>
</a>
</g>
</g>
<!-- Node12&#45;&gt;Node16 -->
<g id="edge24_Node000012_Node000016" class="edge">
<title>Node12&#45;&gt;Node16</title>
<g id="a_edge24_Node000012_Node000016"><a xlink:title=" ">
<path fill="none" stroke="#63b8ff" d="M666.54,-382.75C684.72,-385.55 704.32,-388.56 722.81,-391.4"/>
<polygon fill="#63b8ff" stroke="#63b8ff" points="722.25,-394.85 732.67,-392.91 723.31,-387.94 722.25,-394.85"/>
</a>
</g>
</g>
<!-- Node17 -->
<g id="Node000017" class="node">
<title>Node17</title>
<g id="a_Node000017"><a xlink:href="../../d5/d72/classLSM1x0A__LoRaWAN.html#a8494083816ab885cb07fc3b08de029f4" target="_top" xlink:title="Sets the LoRaWAN Device Address (DevAddr) for ABP mode.">
<polygon fill="white" stroke="#666666" points="887.38,-337.61 719.12,-337.61 719.12,-317.61 887.38,-317.61 887.38,-337.61"/>
<text text-anchor="middle" x="803.25" y="-324.11" font-family="Helvetica,sans-Serif" font-size="10.00">LSM1x0A_LoRaWAN::setDevAddr</text>
</a>
</g>
</g>
<!-- Node12&#45;&gt;Node17 -->
<g id="edge26_Node000012_Node000017" class="edge">
<title>Node12&#45;&gt;Node17</title>
<g id="a_edge26_Node000012_Node000017"><a xlink:title=" ">
<path fill="none" stroke="#63b8ff" d="M666.54,-356.28C691.06,-351.1 718.15,-345.38 741.64,-340.41"/>
<polygon fill="#63b8ff" stroke="#63b8ff" points="742.31,-343.85 751.37,-338.36 740.87,-337 742.31,-343.85"/>
</a>
</g>
</g>
<!-- Node18 -->
<g id="Node000018" class="node">
<title>Node18</title>
<g id="a_Node000018"><a xlink:href="../../d5/d72/classLSM1x0A__LoRaWAN.html#ad320634e52d7ea907043cc50dd37c5b0" target="_top" xlink:title="Sets the LoRaWAN Device EUI (DevEUI).">
<polygon fill="white" stroke="#666666" points="885.88,-299.61 720.62,-299.61 720.62,-279.61 885.88,-279.61 885.88,-299.61"/>
<text text-anchor="middle" x="803.25" y="-286.11" font-family="Helvetica,sans-Serif" font-size="10.00">LSM1x0A_LoRaWAN::setDevEUI</text>
</a>
</g>
</g>
<!-- Node12&#45;&gt;Node18 -->
<g id="edge28_Node000012_Node000018" class="edge">
<title>Node12&#45;&gt;Node18</title>
<g id="a_edge28_Node000012_Node000018"><a xlink:title=" ">
<path fill="none" stroke="#63b8ff" d="M618.36,-355.29C640.81,-340.98 675.5,-320.62 708.25,-308.61 713.96,-306.51 719.96,-304.62 726.05,-302.93"/>
<polygon fill="#63b8ff" stroke="#63b8ff" points="726.79,-306.36 735.59,-300.47 725.04,-299.58 726.79,-306.36"/>
</a>
</g>
</g>
<!-- Node19 -->
<g id="Node000019" class="node">
<title>Node19</title>
<g id="a_Node000019"><a xlink:href="../../d5/d72/classLSM1x0A__LoRaWAN.html#a031023b0d2dd5db3c51c2db6ae7801cc" target="_top" xlink:title="Enables or disables the Duty Cycle limitation (EU regions mostly).">
<polygon fill="white" stroke="#666666" points="878.75,-261.61 727.75,-261.61 727.75,-229.61 878.75,-229.61 878.75,-261.61"/>
<text text-anchor="start" x="735.75" y="-248.11" font-family="Helvetica,sans-Serif" font-size="10.00">LSM1x0A_LoRaWAN::setDuty</text>
<text text-anchor="middle" x="803.25" y="-236.11" font-family="Helvetica,sans-Serif" font-size="10.00">Cycle</text>
</a>
</g>
</g>
<!-- Node12&#45;&gt;Node19 -->
<g id="edge30_Node000012_Node000019" class="edge">
<title>Node12&#45;&gt;Node19</title>
<g id="a_edge30_Node000012_Node000019"><a xlink:title=" ">
<path fill="none" stroke="#63b8ff" d="M607.79,-355.39C627.7,-333 666.71,-292.86 708.25,-270.61 711.11,-269.07 714.07,-267.63 717.1,-266.27"/>
<polygon fill="#63b8ff" stroke="#63b8ff" points="718.29,-269.56 726.22,-262.54 715.64,-263.09 718.29,-269.56"/>
</a>
</g>
</g>
<!-- Node20 -->
<g id="Node000020" class="node">
<title>Node20</title>
<g id="a_Node000020"><a xlink:href="../../d5/d72/classLSM1x0A__LoRaWAN.html#a6b179d5825c49af0f391dfc539912f64" target="_top" xlink:title="Sets the delay for the Join1 receive window.">
<polygon fill="white" stroke="#666666" points="879.88,-211.61 726.62,-211.61 726.62,-179.61 879.88,-179.61 879.88,-211.61"/>
<text text-anchor="start" x="734.62" y="-198.11" font-family="Helvetica,sans-Serif" font-size="10.00">LSM1x0A_LoRaWAN::setJoin1</text>
<text text-anchor="middle" x="803.25" y="-186.11" font-family="Helvetica,sans-Serif" font-size="10.00">Delay</text>
</a>
</g>
</g>
<!-- Node12&#45;&gt;Node20 -->
<g id="edge32_Node000012_Node000020" class="edge">
<title>Node12&#45;&gt;Node20</title>
<g id="a_edge32_Node000012_Node000020"><a xlink:title=" ">
<path fill="none" stroke="#63b8ff" d="M601.54,-355.58C617,-324.55 655.31,-256.17 708.25,-220.61 710.79,-218.9 713.44,-217.31 716.18,-215.83"/>
<polygon fill="#63b8ff" stroke="#63b8ff" points="717.53,-219.06 725.03,-211.58 714.5,-212.75 717.53,-219.06"/>
</a>
</g>
</g>
<!-- Node21 -->
<g id="Node000021" class="node">
<title>Node21</title>
<g id="a_Node000021"><a xlink:href="../../d5/d72/classLSM1x0A__LoRaWAN.html#a4545d0caad41558cdb9bae8286b104d8" target="_top" xlink:title="Sets the delay for the Join2 receive window.">
<polygon fill="white" stroke="#666666" points="879.88,-161.61 726.62,-161.61 726.62,-129.61 879.88,-129.61 879.88,-161.61"/>
<text text-anchor="start" x="734.62" y="-148.11" font-family="Helvetica,sans-Serif" font-size="10.00">LSM1x0A_LoRaWAN::setJoin2</text>
<text text-anchor="middle" x="803.25" y="-136.11" font-family="Helvetica,sans-Serif" font-size="10.00">Delay</text>
</a>
</g>
</g>
<!-- Node12&#45;&gt;Node21 -->
<g id="edge34_Node000012_Node000021" class="edge">
<title>Node12&#45;&gt;Node21</title>
<g id="a_edge34_Node000012_Node000021"><a xlink:title=" ">
<path fill="none" stroke="#63b8ff" d="M598.54,-355.16C610.03,-316.64 644.04,-220.12 708.25,-170.61 710.82,-168.62 713.53,-166.8 716.36,-165.12"/>
<polygon fill="#63b8ff" stroke="#63b8ff" points="717.71,-168.36 724.97,-160.64 714.48,-162.15 717.71,-168.36"/>
</a>
</g>
</g>
<!-- Node22 -->
<g id="Node000022" class="node">
<title>Node22</title>
<g id="a_Node000022"><a xlink:href="../../d5/d72/classLSM1x0A__LoRaWAN.html#a06bd50723ec1eb7e144c9141b2ec86fc" target="_top" xlink:title="Sets the LoRaWAN Network ID (NetID).">
<polygon fill="white" stroke="#666666" points="883.62,-111.61 722.88,-111.61 722.88,-91.61 883.62,-91.61 883.62,-111.61"/>
<text text-anchor="middle" x="803.25" y="-98.11" font-family="Helvetica,sans-Serif" font-size="10.00">LSM1x0A_LoRaWAN::setNwkID</text>
</a>
</g>
</g>
<!-- Node12&#45;&gt;Node22 -->
<g id="edge36_Node000012_Node000022" class="edge">
<title>Node12&#45;&gt;Node22</title>
<g id="a_edge36_Node000012_Node000022"><a xlink:title=" ">
<path fill="none" stroke="#63b8ff" d="M596.27,-355.3C603.46,-310.15 630.1,-182.72 708.25,-120.61 709.77,-119.4 711.35,-118.26 712.98,-117.18"/>
<polygon fill="#63b8ff" stroke="#63b8ff" points="714.41,-120.39 721.46,-112.48 711.02,-114.27 714.41,-120.39"/>
</a>
</g>
</g>
<!-- Node23 -->
<g id="Node000023" class="node">
<title>Node23</title>
<g id="a_Node000023"><a xlink:href="../../d5/d72/classLSM1x0A__LoRaWAN.html#aa70ada64d28ecca216bb62268e502adf" target="_top" xlink:title="Sets the delay for the RX1 receive window.">
<polygon fill="white" stroke="#666666" points="890,-73.61 716.5,-73.61 716.5,-53.61 890,-53.61 890,-73.61"/>
<text text-anchor="middle" x="803.25" y="-60.11" font-family="Helvetica,sans-Serif" font-size="10.00">LSM1x0A_LoRaWAN::setRx1Delay</text>
</a>
</g>
</g>
<!-- Node12&#45;&gt;Node23 -->
<g id="edge38_Node000012_Node000023" class="edge">
<title>Node12&#45;&gt;Node23</title>
<g id="a_edge38_Node000012_Node000023"><a xlink:title=" ">
<path fill="none" stroke="#63b8ff" d="M595.19,-355.43C599.75,-306.03 620.54,-156.02 708.25,-82.61 709.4,-81.64 710.58,-80.73 711.8,-79.85"/>
<polygon fill="#63b8ff" stroke="#63b8ff" points="713.6,-82.86 720.37,-74.71 710,-76.85 713.6,-82.86"/>
</a>
</g>
</g>
<!-- Node24 -->
<g id="Node000024" class="node">
<title>Node24</title>
<g id="a_Node000024"><a xlink:href="../../d5/d72/classLSM1x0A__LoRaWAN.html#a2cf4eff0181b6107d082bccefa24217b" target="_top" xlink:title="Sets the Data Rate (DR) specifically for the RX2 window.">
<polygon fill="white" stroke="#666666" points="898.25,-35.61 708.25,-35.61 708.25,-15.61 898.25,-15.61 898.25,-35.61"/>
<text text-anchor="middle" x="803.25" y="-22.11" font-family="Helvetica,sans-Serif" font-size="10.00">LSM1x0A_LoRaWAN::setRx2DataRate</text>
</a>
</g>
</g>
<!-- Node12&#45;&gt;Node24 -->
<g id="edge40_Node000012_Node000024" class="edge">
<title>Node12&#45;&gt;Node24</title>
<g id="a_edge40_Node000012_Node000024"><a xlink:title=" ">
<path fill="none" stroke="#63b8ff" d="M594.37,-355.29C596.52,-301.66 611.02,-129.38 708.25,-44.61 709.34,-43.65 710.47,-42.74 711.63,-41.87"/>
<polygon fill="#63b8ff" stroke="#63b8ff" points="713.16,-45.05 719.78,-36.78 709.45,-39.11 713.16,-45.05"/>
</a>
</g>
</g>
<!-- Node25 -->
<g id="Node000025" class="node">
<title>Node25</title>
<g id="a_Node000025"><a xlink:href="../../d5/d72/classLSM1x0A__LoRaWAN.html#a42d2137b475b57e19d891a5f1ac93221" target="_top" xlink:title="Sets the delay for the RX2 receive window.">
<polygon fill="white" stroke="#666666" points="890,-665.61 716.5,-665.61 716.5,-645.61 890,-645.61 890,-665.61"/>
<text text-anchor="middle" x="803.25" y="-652.11" font-family="Helvetica,sans-Serif" font-size="10.00">LSM1x0A_LoRaWAN::setRx2Delay</text>
</a>
</g>
</g>
<!-- Node12&#45;&gt;Node25 -->
<g id="edge42_Node000012_Node000025" class="edge">
<title>Node12&#45;&gt;Node25</title>
<g id="a_edge42_Node000012_Node000025"><a xlink:title=" ">
<path fill="none" stroke="#63b8ff" d="M595.83,-387.78C602.01,-434.46 626.55,-570.32 708.25,-636.61 709.54,-637.65 710.88,-638.65 712.25,-639.6"/>
<polygon fill="#63b8ff" stroke="#63b8ff" points="710.08,-642.38 720.48,-644.37 713.59,-636.33 710.08,-642.38"/>
</a>
</g>
</g>
<!-- Node26 -->
<g id="Node000026" class="node">
<title>Node26</title>
<g id="a_Node000026"><a xlink:href="../../d5/d72/classLSM1x0A__LoRaWAN.html#a1df10d7ae6bf45b537d28d3d5c4b88d7" target="_top" xlink:title="Sets the transmission power index.">
<polygon fill="white" stroke="#666666" points="887.75,-627.61 718.75,-627.61 718.75,-607.61 887.75,-607.61 887.75,-627.61"/>
<text text-anchor="middle" x="803.25" y="-614.11" font-family="Helvetica,sans-Serif" font-size="10.00">LSM1x0A_LoRaWAN::setTxPower</text>
</a>
</g>
</g>
<!-- Node12&#45;&gt;Node26 -->
<g id="edge45_Node000012_Node000026" class="edge">
<title>Node12&#45;&gt;Node26</title>
<g id="a_edge45_Node000012_Node000026"><a xlink:title=" ">
<path fill="none" stroke="#63b8ff" d="M597.1,-387.89C606.05,-430.08 636.01,-543.46 708.25,-598.61 709.8,-599.79 711.4,-600.9 713.05,-601.95"/>
<polygon fill="#63b8ff" stroke="#63b8ff" points="711.14,-604.89 721.6,-606.55 714.46,-598.73 711.14,-604.89"/>
</a>
</g>
</g>
<!-- Node27 -->
<g id="Node000027" class="node">
<title>Node27</title>
<g id="a_Node000027"><a xlink:href="../../d5/d72/classLSM1x0A__LoRaWAN.html#a059fd6a9356c4ecadd5a98294da5952d" target="_top" xlink:title="Configures the number of repetitions for Unconfirmed uplinks.">
<polygon fill="white" stroke="#666666" points="890.75,-589.61 715.75,-589.61 715.75,-557.61 890.75,-557.61 890.75,-589.61"/>
<text text-anchor="start" x="723.75" y="-576.11" font-family="Helvetica,sans-Serif" font-size="10.00">LSM1x0A_LoRaWAN::setUnconfirm</text>
<text text-anchor="middle" x="803.25" y="-564.11" font-family="Helvetica,sans-Serif" font-size="10.00">Retry</text>
</a>
</g>
</g>
<!-- Node12&#45;&gt;Node27 -->
<g id="edge47_Node000012_Node000027" class="edge">
<title>Node12&#45;&gt;Node27</title>
<g id="a_edge47_Node000012_Node000027"><a xlink:title=" ">
<path fill="none" stroke="#63b8ff" d="M599.82,-387.92C613.18,-423.01 649.53,-505.91 708.25,-548.61 709.8,-549.73 711.4,-550.81 713.03,-551.84"/>
<polygon fill="#63b8ff" stroke="#63b8ff" points="711.02,-554.72 721.47,-556.48 714.39,-548.59 711.02,-554.72"/>
</a>
</g>
</g>
<!-- Node13&#45;&gt;Node2 -->
<g id="edge18_Node000013_Node000002" class="edge">
<title>Node13&#45;&gt;Node2</title>
<g id="a_edge18_Node000013_Node000002"><a xlink:title=" ">
<path fill="none" stroke="#63b8ff" d="M727.11,-525.94C640.21,-520.27 493.47,-506.24 371.75,-472.61 356.54,-468.4 340.52,-462.1 326.38,-455.83"/>
<polygon fill="#63b8ff" stroke="#63b8ff" points="327.91,-452.68 317.36,-451.7 325,-459.04 327.91,-452.68"/>
</a>
</g>
</g>
<!-- Node14&#45;&gt;Node2 -->
<g id="edge20_Node000014_Node000002" class="edge">
<title>Node14&#45;&gt;Node2</title>
<g id="a_edge20_Node000014_Node000002"><a xlink:title=" ">
<path fill="none" stroke="#63b8ff" d="M726.52,-487.31C640.29,-481.82 495.37,-470.79 371.75,-452.61 363.79,-451.44 355.47,-450.01 347.26,-448.47"/>
<polygon fill="#63b8ff" stroke="#63b8ff" points="348.13,-445.07 337.65,-446.61 346.8,-451.95 348.13,-445.07"/>
</a>
</g>
</g>
<!-- Node15&#45;&gt;Node2 -->
<g id="edge23_Node000015_Node000002" class="edge">
<title>Node15&#45;&gt;Node2</title>
<g id="a_edge23_Node000015_Node000002"><a xlink:title=" ">
<path fill="none" stroke="#63b8ff" d="M720.56,-445.56C617.1,-442.96 441.05,-438.55 347.15,-436.2"/>
<polygon fill="#63b8ff" stroke="#63b8ff" points="347.44,-432.7 337.35,-435.95 347.26,-439.7 347.44,-432.7"/>
</a>
</g>
</g>
<!-- Node16&#45;&gt;Node2 -->
<g id="edge25_Node000016_Node000002" class="edge">
<title>Node16&#45;&gt;Node2</title>
<g id="a_edge25_Node000016_Node000002"><a xlink:title=" ">
<path fill="none" stroke="#63b8ff" d="M716.85,-408.71C613,-414.92 440.12,-425.26 347.3,-430.81"/>
<polygon fill="#63b8ff" stroke="#63b8ff" points="347.12,-427.31 337.35,-431.4 347.54,-434.3 347.12,-427.31"/>
</a>
</g>
</g>
<!-- Node17&#45;&gt;Node2 -->
<g id="edge27_Node000017_Node000002" class="edge">
<title>Node17&#45;&gt;Node2</title>
<g id="a_edge27_Node000017_Node000002"><a xlink:title=" ">
<path fill="none" stroke="#63b8ff" d="M718.63,-326.54C660.53,-327.39 581.66,-331.73 513.75,-346.61 446.47,-361.34 372.8,-392.37 327.41,-413.36"/>
<polygon fill="#63b8ff" stroke="#63b8ff" points="326.01,-410.15 318.43,-417.56 328.97,-416.5 326.01,-410.15"/>
</a>
</g>
</g>
<!-- Node18&#45;&gt;Node2 -->
<g id="edge29_Node000018_Node000002" class="edge">
<title>Node18&#45;&gt;Node2</title>
<g id="a_edge29_Node000018_Node000002"><a xlink:title=" ">
<path fill="none" stroke="#63b8ff" d="M720.13,-285.92C629.79,-285.28 482.69,-294.49 371.75,-351.61 344.47,-365.65 319.67,-390.7 303.4,-409.61"/>
<polygon fill="#63b8ff" stroke="#63b8ff" points="300.81,-407.25 297.09,-417.17 306.19,-411.73 300.81,-407.25"/>
</a>
</g>
</g>
<!-- Node19&#45;&gt;Node2 -->
<g id="edge31_Node000019_Node000002" class="edge">
<title>Node19&#45;&gt;Node2</title>
<g id="a_edge31_Node000019_Node000002"><a xlink:title=" ">
<path fill="none" stroke="#63b8ff" d="M727.3,-238.93C635.95,-234.56 480.35,-239.59 371.75,-309.61 334.76,-333.45 308.77,-378.85 295.05,-407.88"/>
<polygon fill="#63b8ff" stroke="#63b8ff" points="291.97,-406.19 291.02,-416.74 298.34,-409.09 291.97,-406.19"/>
</a>
</g>
</g>
<!-- Node20&#45;&gt;Node2 -->
<g id="edge33_Node000020_Node000002" class="edge">
<title>Node20&#45;&gt;Node2</title>
<g id="a_edge33_Node000020_Node000002"><a xlink:title=" ">
<path fill="none" stroke="#63b8ff" d="M726.36,-186.7C633.33,-179.97 475.32,-182.65 371.75,-260.61 323.1,-297.23 299.37,-368.3 289.56,-407.32"/>
<polygon fill="#63b8ff" stroke="#63b8ff" points="286.2,-406.32 287.3,-416.86 293.01,-407.93 286.2,-406.32"/>
</a>
</g>
</g>
<!-- Node21&#45;&gt;Node2 -->
<g id="edge35_Node000021_Node000002" class="edge">
<title>Node21&#45;&gt;Node2</title>
<g id="a_edge35_Node000021_Node000002"><a xlink:title=" ">
<path fill="none" stroke="#63b8ff" d="M726.38,-134.13C632.29,-124.37 472.07,-122.96 371.75,-205.61 309.32,-257.03 291.09,-358.18 285.83,-406.98"/>
<polygon fill="#63b8ff" stroke="#63b8ff" points="282.37,-406.4 284.9,-416.69 289.34,-407.07 282.37,-406.4"/>
</a>
</g>
</g>
<!-- Node22&#45;&gt;Node2 -->
<g id="edge37_Node000022_Node000002" class="edge">
<title>Node22&#45;&gt;Node2</title>
<g id="a_edge37_Node000022_Node000002"><a xlink:title=" ">
<path fill="none" stroke="#63b8ff" d="M722.61,-99.81C612.75,-99.04 422.5,-104.42 371.75,-148.61 294.55,-215.83 284.06,-349 283.32,-406.78"/>
<polygon fill="#63b8ff" stroke="#63b8ff" points="279.82,-406.7 283.3,-416.71 286.82,-406.72 279.82,-406.7"/>
</a>
</g>
</g>
<!-- Node23&#45;&gt;Node2 -->
<g id="edge39_Node000023_Node000002" class="edge">
<title>Node23&#45;&gt;Node2</title>
<g id="a_edge39_Node000023_Node000002"><a xlink:title=" ">
<path fill="none" stroke="#63b8ff" d="M716.2,-61.69C605.63,-61.06 421.92,-66.79 371.75,-109.61 325.83,-148.79 296.72,-336.32 287.19,-407.3"/>
<polygon fill="#63b8ff" stroke="#63b8ff" points="283.76,-406.52 285.93,-416.9 290.7,-407.44 283.76,-406.52"/>
</a>
</g>
</g>
<!-- Node24&#45;&gt;Node2 -->
<g id="edge41_Node000024_Node000002" class="edge">
<title>Node24&#45;&gt;Node2</title>
<g id="a_edge41_Node000024_Node000002"><a xlink:title=" ">
<path fill="none" stroke="#63b8ff" d="M756.35,-15.15C669.64,1.66 480.7,23.89 371.75,-71.61 320.72,-116.34 294.31,-330.57 286.37,-407.24"/>
<polygon fill="#63b8ff" stroke="#63b8ff" points="282.93,-406.51 285.41,-416.81 289.89,-407.21 282.93,-406.51"/>
</a>
</g>
</g>
<!-- Node25&#45;&gt;Node2 -->
<g id="edge43_Node000025_Node000002" class="edge">
<title>Node25&#45;&gt;Node2</title>
<g id="a_edge43_Node000025_Node000002"><a xlink:title=" ">
<path fill="none" stroke="#63b8ff" d="M716.37,-659.04C622.36,-658.38 471.72,-643.8 371.75,-566.61 335.41,-538.54 309.08,-491.06 295.14,-461.34"/>
<polygon fill="#63b8ff" stroke="#63b8ff" points="298.35,-459.94 291.03,-452.28 291.97,-462.83 298.35,-459.94"/>
</a>
</g>
</g>
<!-- Node26&#45;&gt;Node2 -->
<g id="edge46_Node000026_Node000002" class="edge">
<title>Node26&#45;&gt;Node2</title>
<g id="a_edge46_Node000026_Node000002"><a xlink:title=" ">
<path fill="none" stroke="#63b8ff" d="M718.51,-616.92C627.07,-612.62 479.33,-594.95 371.75,-529.61 342.59,-511.89 317.08,-481.8 301.14,-460.22"/>
<polygon fill="#63b8ff" stroke="#63b8ff" points="304.06,-458.3 295.39,-452.21 298.38,-462.38 304.06,-458.3"/>
</a>
</g>
</g>
<!-- Node27&#45;&gt;Node2 -->
<g id="edge48_Node000027_Node000002" class="edge">
<title>Node27&#45;&gt;Node2</title>
<g id="a_edge48_Node000027_Node000002"><a xlink:title=" ">
<path fill="none" stroke="#63b8ff" d="M715.5,-570.22C626.02,-564.04 484.09,-546.62 371.75,-497.61 349.23,-487.78 326.75,-471.55 310.15,-458.03"/>
<polygon fill="#63b8ff" stroke="#63b8ff" points="312.65,-455.55 302.73,-451.82 308.16,-460.92 312.65,-455.55"/>
</a>
</g>
</g>
<!-- Node29&#45;&gt;Node30 -->
<g id="edge51_Node000029_Node000030" class="edge">
<title>Node29&#45;&gt;Node30</title>
<g id="a_edge51_Node000029_Node000030"><a xlink:title=" ">
<path fill="none" stroke="#63b8ff" d="M642.83,-747.19C678.62,-735.16 726.71,-719 760.68,-707.58"/>
<polygon fill="#63b8ff" stroke="#63b8ff" points="761.38,-711.04 769.74,-704.53 759.15,-704.4 761.38,-711.04"/>
</a>
</g>
</g>
<!-- Node31 -->
<g id="Node000031" class="node">
<title>Node31</title>
<g id="a_Node000031"><a xlink:href="../../d6/d3c/classLSM1x0A__AtParser.html#a0ba6f927c54fceece22c17773d3f2600" target="_top" xlink:title="Sends a command and extracts a value from the response.">
<polygon fill="white" stroke="#666666" points="1116.38,-709.61 942.12,-709.61 942.12,-677.61 1116.38,-677.61 1116.38,-709.61"/>
<text text-anchor="start" x="950.12" y="-696.11" font-family="Helvetica,sans-Serif" font-size="10.00">LSM1x0A_AtParser::sendCommand</text>
<text text-anchor="middle" x="1029.25" y="-684.11" font-family="Helvetica,sans-Serif" font-size="10.00">WithResponse</text>
</a>
</g>
</g>
<!-- Node30&#45;&gt;Node31 -->
<g id="edge52_Node000030_Node000031" class="edge">
<title>Node30&#45;&gt;Node31</title>
<g id="a_edge52_Node000030_Node000031"><a xlink:title=" ">
<path fill="none" stroke="#63b8ff" d="M890.85,-693.61C903.8,-693.61 917.23,-693.61 930.4,-693.61"/>
<polygon fill="#63b8ff" stroke="#63b8ff" points="930.36,-697.11 940.36,-693.61 930.36,-690.11 930.36,-697.11"/>
</a>
</g>
</g>
<!-- Node32 -->
<g id="Node000032" class="node">
<title>Node32</title>
<g id="a_Node000032"><a xlink:href="../../d5/d8b/classUartDriver.html#a5d0f22e8867eebe99273078bb19bd23d" target="_top" xlink:title="Sends data through UART.">
<polygon fill="white" stroke="#666666" points="1291,-703.61 1182,-703.61 1182,-683.61 1291,-683.61 1291,-703.61"/>
<text text-anchor="middle" x="1236.5" y="-690.11" font-family="Helvetica,sans-Serif" font-size="10.00">UartDriver::sendData</text>
</a>
</g>
</g>
<!-- Node31&#45;&gt;Node32 -->
<g id="edge53_Node000031_Node000032" class="edge">
<title>Node31&#45;&gt;Node32</title>
<g id="a_edge53_Node000031_Node000032"><a xlink:title=" ">
<path fill="none" stroke="#63b8ff" d="M1116.7,-693.61C1134.59,-693.61 1153.16,-693.61 1170.14,-693.61"/>
<polygon fill="#63b8ff" stroke="#63b8ff" points="1170.11,-697.11 1180.11,-693.61 1170.11,-690.11 1170.11,-697.11"/>
</a>
</g>
</g>
</g>
</svg>
