<?xml version="1.0" encoding="UTF-8" standalone="no"?>
<!DOCTYPE svg PUBLIC "-//W3C//DTD SVG 1.1//EN"
 "http://www.w3.org/Graphics/SVG/1.1/DTD/svg11.dtd">
<!-- Generated by graphviz version 12.2.1 (20241206.2353)
 -->
<!-- Title: LSM1x0A_LoRaWAN::getJoin1Delay Pages: 1 -->
<!--zoomable 1018 -->

<svg id="main" version="1.1" xmlns="http://www.w3.org/2000/svg" xmlns:xlink="http://www.w3.org/1999/xlink" xml:space="preserve" onload="init(evt)">
<style type="text/css"><![CDATA[
.node, .edge {opacity: 0.7;}
.node.selected, .edge.selected {opacity: 1;}
.edge:hover path { stroke: red; }
.edge:hover polygon { stroke: red; fill: red; }
]]></style>

<defs>
  <circle id="rim" cx="0" cy="0" r="7"/>
  <circle id="rim2" cx="0" cy="0" r="3.5"/>
  <g id="zoomPlus">
    <use xlink:href="#rim" fill="#404040"><set attributeName="fill" to="#808080" begin="zoomplus.mouseover" end="zoomplus.mouseout"/></use>
    <path d="M-4,0h8M0,-4v8" fill="none" stroke="white" stroke-width="1.5" pointer-events="none"/>
  </g>
  <g id="zoomMin">
    <use xlink:href="#rim" fill="#404040"><set attributeName="fill" to="#808080" begin="zoomminus.mouseover" end="zoomminus.mouseout"/></use>
    <path d="M-4,0h8" fill="none" stroke="white" stroke-width="1.5" pointer-events="none"/>
  </g>
  <g id="arrowUp" transform="translate(30 24)">
    <use xlink:href="#rim"/>
    <path pointer-events="none" fill="none" stroke="white" stroke-width="1.5" d="M0,-3.0v7 M-2.5,-0.5L0,-3.0L2.5,-0.5"/>
  </g>
  <g id="arrowRight" transform="rotate(90) translate(36 -43)">
    <use xlink:href="#rim"/>
    <path pointer-events="none" fill="none" stroke="white" stroke-width="1.5" d="M0,-3.0v7 M-2.5,-0.5L0,-3.0L2.5,-0.5"/>
  </g>
  <g id="arrowDown" transform="rotate(180) translate(-30 -48)">
    <use xlink:href="#rim"/>
    <path pointer-events="none" fill="none" stroke="white" stroke-width="1.5" d="M0,-3.0v7 M-2.5,-0.5L0,-3.0L2.5,-0.5"/>
  </g>
  <g id="arrowLeft" transform="rotate(270) translate(-36 17)">
    <use xlink:href="#rim"/>
    <path pointer-events="none" fill="none" stroke="white" stroke-width="1.5" d="M0,-3.0v7 M-2.5,-0.5L0,-3.0L2.5,-0.5"/>
  </g>
  <g id="resetDef">
    <use xlink:href="#rim2" fill="#404040"><set attributeName="fill" to="#808080" begin="reset.mouseover" end="reset.mouseout"/></use>
  </g>
</defs>
<script type="application/ecmascript">
var viewWidth = 1853;
var viewHeight = 1018;
var sectionId = 'dynsection-23';
</script>
<script type="application/ecmascript" xlink:href="../../svg.min.js"/>
<svg id="graph" class="graph">
<g id="viewport">
<title>LSM1x0A_LoRaWAN::getJoin1Delay</title>
<!-- Node1 -->
<g id="Node000001" class="node">
<title>Node1</title>
<g id="a_Node000001"><a xlink:title="Retrieves the Join1 receive window delay.">
<polygon fill="#999999" stroke="#666666" points="153.25,-104 0,-104 0,-72 153.25,-72 153.25,-104"/>
<text text-anchor="start" x="8" y="-90.5" font-family="Helvetica,sans-Serif" font-size="10.00">LSM1x0A_LoRaWAN::getJoin1</text>
<text text-anchor="middle" x="76.62" y="-78.5" font-family="Helvetica,sans-Serif" font-size="10.00">Delay</text>
</a>
</g>
</g>
<!-- Node2 -->
<g id="Node000002" class="node">
<title>Node2</title>
<g id="a_Node000002"><a xlink:href="../../d8/d92/classLSM1x0A__Controller.html#ab00328d1be83aa51bce8c2a4f907c5f4" target="_top" xlink:title="Sends an AT command and captures its response in a text block. Ideal for getters (e....">
<polygon fill="white" stroke="#666666" points="341.75,-104 189.25,-104 189.25,-72 341.75,-72 341.75,-104"/>
<text text-anchor="start" x="197.25" y="-90.5" font-family="Helvetica,sans-Serif" font-size="10.00">LSM1x0A_Controller</text>
<text text-anchor="middle" x="265.5" y="-78.5" font-family="Helvetica,sans-Serif" font-size="10.00">::sendCommandWithResponse</text>
</a>
</g>
</g>
<!-- Node1&#45;&gt;Node2 -->
<g id="edge1_Node000001_Node000002" class="edge">
<title>Node1&#45;&gt;Node2</title>
<g id="a_edge1_Node000001_Node000002"><a xlink:title=" ">
<path fill="none" stroke="#63b8ff" d="M153.63,-88C161.53,-88 169.6,-88 177.61,-88"/>
<polygon fill="#63b8ff" stroke="#63b8ff" points="177.35,-91.5 187.35,-88 177.35,-84.5 177.35,-91.5"/>
</a>
</g>
</g>
<!-- Node3 -->
<g id="Node000003" class="node">
<title>Node3</title>
<g id="a_Node000003"><a xlink:href="../../d8/d92/classLSM1x0A__Controller.html#abb0eb380daa3dfb7acffb483c5db8e2b" target="_top" xlink:title="Executes the recovery protocol. First Soft&#45;Reset (ATZ), then Hard&#45;Reset if there is a pin.">
<polygon fill="white" stroke="#666666" points="483.75,-214 377.75,-214 377.75,-182 483.75,-182 483.75,-214"/>
<text text-anchor="start" x="385.75" y="-200.5" font-family="Helvetica,sans-Serif" font-size="10.00">LSM1x0A_Controller</text>
<text text-anchor="middle" x="430.75" y="-188.5" font-family="Helvetica,sans-Serif" font-size="10.00">::recoverModule</text>
</a>
</g>
</g>
<!-- Node2&#45;&gt;Node3 -->
<g id="edge2_Node000002_Node000003" class="edge">
<title>Node2&#45;&gt;Node3</title>
<g id="a_edge2_Node000002_Node000003"><a xlink:title=" ">
<path fill="none" stroke="#63b8ff" d="M290.94,-104.47C318.91,-123.32 364.89,-154.29 396.2,-175.39"/>
<polygon fill="#63b8ff" stroke="#63b8ff" points="393.91,-178.07 404.15,-180.75 397.82,-172.26 393.91,-178.07"/>
</a>
</g>
</g>
<!-- Node12 -->
<g id="Node000012" class="node">
<title>Node12</title>
<g id="a_Node000012"><a xlink:href="../../d6/d3c/classLSM1x0A__AtParser.html#a0ba6f927c54fceece22c17773d3f2600" target="_top" xlink:title="Sends a command and extracts a value from the response.">
<polygon fill="white" stroke="#666666" points="1699.5,-287 1525.25,-287 1525.25,-255 1699.5,-255 1699.5,-287"/>
<text text-anchor="start" x="1533.25" y="-273.5" font-family="Helvetica,sans-Serif" font-size="10.00">LSM1x0A_AtParser::sendCommand</text>
<text text-anchor="middle" x="1612.38" y="-261.5" font-family="Helvetica,sans-Serif" font-size="10.00">WithResponse</text>
</a>
</g>
</g>
<!-- Node2&#45;&gt;Node12 -->
<g id="edge57_Node000002_Node000012" class="edge">
<title>Node2&#45;&gt;Node12</title>
<g id="a_edge57_Node000002_Node000012"><a xlink:title=" ">
<path fill="none" stroke="#63b8ff" d="M302.94,-71.65C363.11,-46.21 487.54,0 598,0 598,0 598,0 1203.75,0 1380.69,0 1539.45,-179.26 1592.56,-246.19"/>
<polygon fill="#63b8ff" stroke="#63b8ff" points="1589.49,-247.95 1598.41,-253.67 1595,-243.64 1589.49,-247.95"/>
</a>
</g>
</g>
<!-- Node4 -->
<g id="Node000004" class="node">
<title>Node4</title>
<g id="a_Node000004"><a xlink:href="../../d8/d92/classLSM1x0A__Controller.html#a3f6f25b843fe4fb7042c544deae2ab16" target="_top" xlink:title="Manually clears bits from the internal EventGroup.">
<polygon fill="white" stroke="#666666" points="1046.62,-98 940.62,-98 940.62,-66 1046.62,-66 1046.62,-98"/>
<text text-anchor="start" x="948.62" y="-84.5" font-family="Helvetica,sans-Serif" font-size="10.00">LSM1x0A_Controller</text>
<text text-anchor="middle" x="993.62" y="-72.5" font-family="Helvetica,sans-Serif" font-size="10.00">::clearEvents</text>
</a>
</g>
</g>
<!-- Node3&#45;&gt;Node4 -->
<g id="edge3_Node000003_Node000004" class="edge">
<title>Node3&#45;&gt;Node4</title>
<g id="a_edge3_Node000003_Node000004"><a xlink:title=" ">
<path fill="none" stroke="#63b8ff" d="M456.43,-181.53C473.48,-171 497.09,-158.03 519.75,-151 665.4,-105.82 710.48,-138.94 860.75,-113 883.25,-109.12 907.65,-103.72 929.27,-98.52"/>
<polygon fill="#63b8ff" stroke="#63b8ff" points="929.95,-101.96 938.83,-96.18 928.28,-95.16 929.95,-101.96"/>
</a>
</g>
</g>
<!-- Node5 -->
<g id="Node000005" class="node">
<title>Node5</title>
<g id="a_Node000005"><a xlink:href="../../d8/d92/classLSM1x0A__Controller.html#a345d4bd79fa16b18dc33a4ca788fe5f7" target="_top" xlink:title="Performs a hardware reset using the reset pin.">
<polygon fill="white" stroke="#666666" points="652,-104 546,-104 546,-72 652,-72 652,-104"/>
<text text-anchor="start" x="554" y="-90.5" font-family="Helvetica,sans-Serif" font-size="10.00">LSM1x0A_Controller</text>
<text text-anchor="middle" x="599" y="-78.5" font-family="Helvetica,sans-Serif" font-size="10.00">::hardwareReset</text>
</a>
</g>
</g>
<!-- Node3&#45;&gt;Node5 -->
<g id="edge4_Node000003_Node000005" class="edge">
<title>Node3&#45;&gt;Node5</title>
<g id="a_edge4_Node000003_Node000005"><a xlink:title=" ">
<path fill="none" stroke="#63b8ff" d="M446.21,-181.63C462.57,-163.93 490.74,-135.86 519.75,-118 525.02,-114.76 530.69,-111.77 536.49,-109.03"/>
<polygon fill="#63b8ff" stroke="#63b8ff" points="537.89,-112.24 545.63,-104.99 535.06,-105.83 537.89,-112.24"/>
</a>
</g>
</g>
<!-- Node7 -->
<g id="Node000007" class="node">
<title>Node7</title>
<g id="a_Node000007"><a xlink:href="../../d5/d72/classLSM1x0A__LoRaWAN.html#a1892801e37c8cd67d37c76108d6f7d49" target="_top" xlink:title="Validates if the device is currently Joined to the network. (Either confirmed by OTAA or statically a...">
<polygon fill="white" stroke="#666666" points="1279,-136 1126.5,-136 1126.5,-116 1279,-116 1279,-136"/>
<text text-anchor="middle" x="1202.75" y="-122.5" font-family="Helvetica,sans-Serif" font-size="10.00">LSM1x0A_LoRaWAN::isJoined</text>
</a>
</g>
</g>
<!-- Node3&#45;&gt;Node7 -->
<g id="edge6_Node000003_Node000007" class="edge">
<title>Node3&#45;&gt;Node7</title>
<g id="a_edge6_Node000003_Node000007"><a xlink:title=" ">
<path fill="none" stroke="#63b8ff" d="M436.68,-181.77C446.74,-151.92 472.73,-88.97 519.75,-63 630.79,-1.69 968.51,-22.24 1090.5,-57 1125.57,-66.99 1160.37,-91.56 1181.47,-108.51"/>
<polygon fill="#63b8ff" stroke="#63b8ff" points="1179.05,-111.05 1188.99,-114.72 1183.51,-105.65 1179.05,-111.05"/>
</a>
</g>
</g>
<!-- Node8 -->
<g id="Node000008" class="node">
<title>Node8</title>
<g id="a_Node000008"><a xlink:href="../../d5/d72/classLSM1x0A__LoRaWAN.html#a83e11c0e74ff9e0757db616ab1163424" target="_top" xlink:title="Attempts to recover a lost connection (re&#45;executes OTAA Join if dropped).">
<polygon fill="white" stroke="#666666" points="673.38,-192 524.62,-192 524.62,-160 673.38,-160 673.38,-192"/>
<text text-anchor="start" x="532.62" y="-178.5" font-family="Helvetica,sans-Serif" font-size="10.00">LSM1x0A_LoRaWAN::recover</text>
<text text-anchor="middle" x="599" y="-166.5" font-family="Helvetica,sans-Serif" font-size="10.00">Connection</text>
</a>
</g>
</g>
<!-- Node3&#45;&gt;Node8 -->
<g id="edge7_Node000003_Node000008" class="edge">
<title>Node3&#45;&gt;Node8</title>
<g id="a_edge7_Node000003_Node000008"><a xlink:title=" ">
<path fill="none" stroke="#63b8ff" d="M483.9,-191.1C493.24,-189.86 503.19,-188.55 513.17,-187.23"/>
<polygon fill="#63b8ff" stroke="#63b8ff" points="513.47,-190.72 522.92,-185.94 512.55,-183.78 513.47,-190.72"/>
</a>
</g>
</g>
<!-- Node16 -->
<g id="Node000016" class="node">
<title>Node16</title>
<g id="a_Node000016"><a xlink:href="../../d5/d72/classLSM1x0A__LoRaWAN.html#ae3be4ce59dfa200369733317df356e97" target="_top" xlink:title="Pushes the RAM&#45;cached variables back down into the hardware module. Restores the operational state af...">
<polygon fill="white" stroke="#666666" points="860.75,-539 714.25,-539 714.25,-507 860.75,-507 860.75,-539"/>
<text text-anchor="start" x="722.25" y="-525.5" font-family="Helvetica,sans-Serif" font-size="10.00">LSM1x0A_LoRaWAN::restore</text>
<text text-anchor="middle" x="787.5" y="-513.5" font-family="Helvetica,sans-Serif" font-size="10.00">Config</text>
</a>
</g>
</g>
<!-- Node3&#45;&gt;Node16 -->
<g id="edge20_Node000003_Node000016" class="edge">
<title>Node3&#45;&gt;Node16</title>
<g id="a_edge20_Node000003_Node000016"><a xlink:title=" ">
<path fill="none" stroke="#63b8ff" d="M449.34,-214.12C507.26,-267.18 692.19,-436.6 760.67,-499.34"/>
<polygon fill="#63b8ff" stroke="#63b8ff" points="757.95,-501.59 767.69,-505.76 762.68,-496.43 757.95,-501.59"/>
</a>
</g>
</g>
<!-- Node33 -->
<g id="Node000033" class="node">
<title>Node33</title>
<g id="a_Node000033"><a xlink:href="../../d5/d72/classLSM1x0A__LoRaWAN.html#ace4b04396f1de1f4a54f513f5f378db7" target="_top" xlink:title="Manually overrides the internal joined state tracker.">
<polygon fill="white" stroke="#666666" points="678.25,-939 519.75,-939 519.75,-919 678.25,-919 678.25,-939"/>
<text text-anchor="middle" x="599" y="-925.5" font-family="Helvetica,sans-Serif" font-size="10.00">LSM1x0A_LoRaWAN::setJoined</text>
</a>
</g>
</g>
<!-- Node3&#45;&gt;Node33 -->
<g id="edge54_Node000003_Node000033" class="edge">
<title>Node3&#45;&gt;Node33</title>
<g id="a_edge54_Node000003_Node000033"><a xlink:title=" ">
<path fill="none" stroke="#63b8ff" d="M431.47,-214.4C430.15,-310.08 428.08,-795.83 519.75,-905 522.17,-907.88 524.93,-910.43 527.93,-912.67"/>
<polygon fill="#63b8ff" stroke="#63b8ff" points="525.91,-915.54 536.27,-917.75 529.55,-909.56 525.91,-915.54"/>
</a>
</g>
</g>
<!-- Node34 -->
<g id="Node000034" class="node">
<title>Node34</title>
<g id="a_Node000034"><a xlink:href="../../d8/d92/classLSM1x0A__Controller.html#a11ad21cb5ca33ec51346764a23bd485e" target="_top" xlink:title="Performs a software reset (ATZ Command).">
<polygon fill="white" stroke="#666666" points="1255.75,-795 1149.75,-795 1149.75,-763 1255.75,-763 1255.75,-795"/>
<text text-anchor="start" x="1157.75" y="-781.5" font-family="Helvetica,sans-Serif" font-size="10.00">LSM1x0A_Controller</text>
<text text-anchor="middle" x="1202.75" y="-769.5" font-family="Helvetica,sans-Serif" font-size="10.00">::softwareReset</text>
</a>
</g>
</g>
<!-- Node3&#45;&gt;Node34 -->
<g id="edge55_Node000003_Node000034" class="edge">
<title>Node3&#45;&gt;Node34</title>
<g id="a_edge55_Node000003_Node000034"><a xlink:title=" ">
<path fill="none" stroke="#63b8ff" d="M432.39,-214.18C436.66,-318.83 462.75,-897.3 519.75,-948 584.94,-1005.99 852.89,-1058.87 1090.5,-932 1141.96,-904.52 1175.57,-841.52 1191.32,-805.51"/>
<polygon fill="#63b8ff" stroke="#63b8ff" points="1194.39,-807.25 1195.05,-796.67 1187.94,-804.53 1194.39,-807.25"/>
</a>
</g>
</g>
<!-- Node6 -->
<g id="Node000006" class="node">
<title>Node6</title>
<g id="a_Node000006"><a xlink:href="../../d6/d3c/classLSM1x0A__AtParser.html#ad2839120da13e56132b95019419be1e5" target="_top" xlink:title="Waits for an event (like BOOTALERT) without sending any command. Useful for hardware reset where the ...">
<polygon fill="white" stroke="#666666" points="857.75,-104 717.25,-104 717.25,-72 857.75,-72 857.75,-104"/>
<text text-anchor="start" x="725.25" y="-90.5" font-family="Helvetica,sans-Serif" font-size="10.00">LSM1x0A_AtParser::waitFor</text>
<text text-anchor="middle" x="787.5" y="-78.5" font-family="Helvetica,sans-Serif" font-size="10.00">Event</text>
</a>
</g>
</g>
<!-- Node5&#45;&gt;Node6 -->
<g id="edge5_Node000005_Node000006" class="edge">
<title>Node5&#45;&gt;Node6</title>
<g id="a_edge5_Node000005_Node000006"><a xlink:title=" ">
<path fill="none" stroke="#63b8ff" d="M652.45,-88C668.96,-88 687.61,-88 705.62,-88"/>
<polygon fill="#63b8ff" stroke="#63b8ff" points="705.53,-91.5 715.53,-88 705.53,-84.5 705.53,-91.5"/>
</a>
</g>
</g>
<!-- Node9 -->
<g id="Node000009" class="node">
<title>Node9</title>
<g id="a_Node000009"><a xlink:href="../../d5/d72/classLSM1x0A__LoRaWAN.html#a59f781f3cfd30c11cd3973bcb10a7baa" target="_top" xlink:title="Initiates a LoRaWAN Network Join procedure. This is a blocking function until the module fires an eve...">
<polygon fill="white" stroke="#666666" points="853.25,-186 721.75,-186 721.75,-166 853.25,-166 853.25,-186"/>
<text text-anchor="middle" x="787.5" y="-172.5" font-family="Helvetica,sans-Serif" font-size="10.00">LSM1x0A_LoRaWAN::join</text>
</a>
</g>
</g>
<!-- Node8&#45;&gt;Node9 -->
<g id="edge8_Node000008_Node000009" class="edge">
<title>Node8&#45;&gt;Node9</title>
<g id="a_edge8_Node000008_Node000009"><a xlink:title=" ">
<path fill="none" stroke="#63b8ff" d="M673.71,-176C685.67,-176 698.08,-176 710.1,-176"/>
<polygon fill="#63b8ff" stroke="#63b8ff" points="709.97,-179.5 719.97,-176 709.97,-172.5 709.97,-179.5"/>
</a>
</g>
</g>
<!-- Node9&#45;&gt;Node3 -->
<g id="edge10_Node000009_Node000003" class="edge">
<title>Node9&#45;&gt;Node3</title>
<g id="a_edge10_Node000009_Node000003"><a xlink:title=" ">
<path fill="none" stroke="#63b8ff" d="M750.77,-186.4C729.84,-191.95 702.78,-198.2 678.25,-201 608.26,-208.98 590.18,-202.2 519.75,-201 511.85,-200.87 503.56,-200.66 495.36,-200.43"/>
<polygon fill="#63b8ff" stroke="#63b8ff" points="495.48,-196.93 485.37,-200.12 495.26,-203.92 495.48,-196.93"/>
</a>
</g>
</g>
<!-- Node9&#45;&gt;Node4 -->
<g id="edge9_Node000009_Node000004" class="edge">
<title>Node9&#45;&gt;Node4</title>
<g id="a_edge9_Node000009_Node000004"><a xlink:title=" ">
<path fill="none" stroke="#63b8ff" d="M822.05,-165.52C834.8,-160.68 849.06,-154.16 860.75,-146 880.09,-132.5 876.52,-119.13 896.75,-107 906.7,-101.03 918.06,-96.47 929.4,-93"/>
<polygon fill="#63b8ff" stroke="#63b8ff" points="930.07,-96.45 938.76,-90.39 928.19,-89.7 930.07,-96.45"/>
</a>
</g>
</g>
<!-- Node10 -->
<g id="Node000010" class="node">
<title>Node10</title>
<g id="a_Node000010"><a xlink:href="../../d8/d92/classLSM1x0A__Controller.html#afd7d92e60ed6fdae696a955cdbe0ed8c" target="_top" xlink:title="Sends any AT command to the module, returning error if it fails. Internally uses the LsmAtParser logi...">
<polygon fill="white" stroke="#666666" points="1255.75,-558 1149.75,-558 1149.75,-526 1255.75,-526 1255.75,-558"/>
<text text-anchor="start" x="1157.75" y="-544.5" font-family="Helvetica,sans-Serif" font-size="10.00">LSM1x0A_Controller</text>
<text text-anchor="middle" x="1202.75" y="-532.5" font-family="Helvetica,sans-Serif" font-size="10.00">::sendCommand</text>
</a>
</g>
</g>
<!-- Node9&#45;&gt;Node10 -->
<g id="edge11_Node000009_Node000010" class="edge">
<title>Node9&#45;&gt;Node10</title>
<g id="a_edge11_Node000009_Node000010"><a xlink:title=" ">
<path fill="none" stroke="#63b8ff" d="M853.53,-171.81C931.14,-168.2 1054.91,-167.28 1090.5,-195 1192.23,-274.23 1202.49,-447.25 1202.45,-514.5"/>
<polygon fill="#63b8ff" stroke="#63b8ff" points="1198.95,-514.23 1202.35,-524.26 1205.95,-514.3 1198.95,-514.23"/>
</a>
</g>
</g>
<!-- Node14 -->
<g id="Node000014" class="node">
<title>Node14</title>
<g id="a_Node000014"><a xlink:href="../../d5/d72/classLSM1x0A__LoRaWAN.html#a3fdd1ac318a5ad2559323e5d57e36a5e" target="_top" xlink:title="Enables or disables specific sub&#45;bands for regions supporting Channel Masks (e.g.,...">
<polygon fill="white" stroke="#666666" points="1088.62,-224 898.62,-224 898.62,-204 1088.62,-204 1088.62,-224"/>
<text text-anchor="middle" x="993.62" y="-210.5" font-family="Helvetica,sans-Serif" font-size="10.00">LSM1x0A_LoRaWAN::setChannelMask</text>
</a>
</g>
</g>
<!-- Node9&#45;&gt;Node14 -->
<g id="edge16_Node000009_Node000014" class="edge">
<title>Node9&#45;&gt;Node14</title>
<g id="a_edge16_Node000009_Node000014"><a xlink:title=" ">
<path fill="none" stroke="#63b8ff" d="M844.82,-186.48C869.69,-191.12 899.14,-196.6 925.18,-201.44"/>
<polygon fill="#63b8ff" stroke="#63b8ff" points="924.53,-204.88 935,-203.27 925.81,-198 924.53,-204.88"/>
</a>
</g>
</g>
<!-- Node15 -->
<g id="Node000015" class="node">
<title>Node15</title>
<g id="a_Node000015"><a xlink:href="../../d8/d92/classLSM1x0A__Controller.html#a62476e30e50c7fe120aeb8df4b828675" target="_top" xlink:title="Synchronously/blockingly waits for an asynchronous event to occur. Useful for wrapping commands like ...">
<polygon fill="white" stroke="#666666" points="1046.62,-148 940.62,-148 940.62,-116 1046.62,-116 1046.62,-148"/>
<text text-anchor="start" x="948.62" y="-134.5" font-family="Helvetica,sans-Serif" font-size="10.00">LSM1x0A_Controller</text>
<text text-anchor="middle" x="993.62" y="-122.5" font-family="Helvetica,sans-Serif" font-size="10.00">::waitForEvent</text>
</a>
</g>
</g>
<!-- Node9&#45;&gt;Node15 -->
<g id="edge19_Node000009_Node000015" class="edge">
<title>Node9&#45;&gt;Node15</title>
<g id="a_edge19_Node000009_Node000015"><a xlink:title=" ">
<path fill="none" stroke="#63b8ff" d="M837.13,-165.52C864.74,-159.57 899.61,-152.05 929.32,-145.65"/>
<polygon fill="#63b8ff" stroke="#63b8ff" points="929.92,-149.1 938.95,-143.57 928.44,-142.25 929.92,-149.1"/>
</a>
</g>
</g>
<!-- Node10&#45;&gt;Node3 -->
<g id="edge12_Node000010_Node000003" class="edge">
<title>Node10&#45;&gt;Node3</title>
<g id="a_edge12_Node000010_Node000003"><a xlink:title=" ">
<path fill="none" stroke="#63b8ff" d="M1195.32,-558.31C1181.56,-593.61 1148.66,-679.91 1126.5,-754 1107.23,-818.44 1143.42,-859.48 1090.5,-901 1022.75,-954.16 973.19,-940.65 896.75,-901 609.43,-751.97 471.47,-335.66 439.27,-225.19"/>
<polygon fill="#63b8ff" stroke="#63b8ff" points="442.7,-224.47 436.58,-215.82 435.97,-226.4 442.7,-224.47"/>
</a>
</g>
</g>
<!-- Node11 -->
<g id="Node000011" class="node">
<title>Node11</title>
<g id="a_Node000011"><a xlink:href="../../d6/d3c/classLSM1x0A__AtParser.html#a29b53c521974387ba6c03afadfaffa4a" target="_top" xlink:title="Sends a simple command and waits for OK/ERROR. Example: sendCommand(&quot;AT+JOIN&quot;);.">
<polygon fill="white" stroke="#666666" points="1489.25,-552 1315,-552 1315,-532 1489.25,-532 1489.25,-552"/>
<text text-anchor="middle" x="1402.12" y="-538.5" font-family="Helvetica,sans-Serif" font-size="10.00">LSM1x0A_AtParser::sendCommand</text>
</a>
</g>
</g>
<!-- Node10&#45;&gt;Node11 -->
<g id="edge13_Node000010_Node000011" class="edge">
<title>Node10&#45;&gt;Node11</title>
<g id="a_edge13_Node000010_Node000011"><a xlink:title=" ">
<path fill="none" stroke="#63b8ff" d="M1256.12,-542C1270.69,-542 1287,-542 1303.28,-542"/>
<polygon fill="#63b8ff" stroke="#63b8ff" points="1303.01,-545.5 1313.01,-542 1303.01,-538.5 1303.01,-545.5"/>
</a>
</g>
</g>
<!-- Node11&#45;&gt;Node12 -->
<g id="edge14_Node000011_Node000012" class="edge">
<title>Node11&#45;&gt;Node12</title>
<g id="a_edge14_Node000011_Node000012"><a xlink:title=" ">
<path fill="none" stroke="#63b8ff" d="M1411.03,-531.71C1440.94,-492.78 1547.68,-353.88 1591.94,-296.3"/>
<polygon fill="#63b8ff" stroke="#63b8ff" points="1594.48,-298.73 1597.8,-288.67 1588.93,-294.46 1594.48,-298.73"/>
</a>
</g>
</g>
<!-- Node13 -->
<g id="Node000013" class="node">
<title>Node13</title>
<g id="a_Node000013"><a xlink:href="../../d5/d8b/classUartDriver.html#a5d0f22e8867eebe99273078bb19bd23d" target="_top" xlink:title="Sends data through UART.">
<polygon fill="white" stroke="#666666" points="1844.5,-281 1735.5,-281 1735.5,-261 1844.5,-261 1844.5,-281"/>
<text text-anchor="middle" x="1790" y="-267.5" font-family="Helvetica,sans-Serif" font-size="10.00">UartDriver::sendData</text>
</a>
</g>
</g>
<!-- Node12&#45;&gt;Node13 -->
<g id="edge15_Node000012_Node000013" class="edge">
<title>Node12&#45;&gt;Node13</title>
<g id="a_edge15_Node000012_Node000013"><a xlink:title=" ">
<path fill="none" stroke="#63b8ff" d="M1699.9,-271C1708.05,-271 1716.2,-271 1724.1,-271"/>
<polygon fill="#63b8ff" stroke="#63b8ff" points="1723.93,-274.5 1733.93,-271 1723.93,-267.5 1723.93,-274.5"/>
</a>
</g>
</g>
<!-- Node14&#45;&gt;Node7 -->
<g id="edge17_Node000014_Node000007" class="edge">
<title>Node14&#45;&gt;Node7</title>
<g id="a_edge17_Node000014_Node000007"><a xlink:title=" ">
<path fill="none" stroke="#63b8ff" d="M1019.2,-203.56C1055.79,-188.01 1124.78,-158.7 1166.67,-140.9"/>
<polygon fill="#63b8ff" stroke="#63b8ff" points="1167.98,-144.15 1175.82,-137.02 1165.24,-137.71 1167.98,-144.15"/>
</a>
</g>
</g>
<!-- Node14&#45;&gt;Node10 -->
<g id="edge18_Node000014_Node000010" class="edge">
<title>Node14&#45;&gt;Node10</title>
<g id="a_edge18_Node000014_Node000010"><a xlink:title=" ">
<path fill="none" stroke="#63b8ff" d="M1077.38,-224.28C1082.08,-226.69 1086.51,-229.57 1090.5,-233 1176.83,-307.27 1196.17,-453.75 1200.5,-514.55"/>
<polygon fill="#63b8ff" stroke="#63b8ff" points="1197,-514.57 1201.11,-524.33 1203.98,-514.13 1197,-514.57"/>
</a>
</g>
</g>
<!-- Node16&#45;&gt;Node14 -->
<g id="edge25_Node000016_Node000014" class="edge">
<title>Node16&#45;&gt;Node14</title>
<g id="a_edge25_Node000016_Node000014"><a xlink:title=" ">
<path fill="none" stroke="#63b8ff" d="M789.3,-506.78C792.68,-457.25 809.95,-306.79 896.75,-233 897.88,-232.04 899.04,-231.13 900.23,-230.25"/>
<polygon fill="#63b8ff" stroke="#63b8ff" points="901.92,-233.33 908.62,-225.12 898.27,-227.35 901.92,-233.33"/>
</a>
</g>
</g>
<!-- Node17 -->
<g id="Node000017" class="node">
<title>Node17</title>
<g id="a_Node000017"><a xlink:href="../../d5/d72/classLSM1x0A__LoRaWAN.html#af0baa3db4c7fab580d6b19a9e92472f6" target="_top" xlink:title="Enables or disables Adaptive Data Rate (ADR).">
<polygon fill="white" stroke="#666666" points="1069.5,-350 917.75,-350 917.75,-330 1069.5,-330 1069.5,-350"/>
<text text-anchor="middle" x="993.62" y="-336.5" font-family="Helvetica,sans-Serif" font-size="10.00">LSM1x0A_LoRaWAN::setADR</text>
</a>
</g>
</g>
<!-- Node16&#45;&gt;Node17 -->
<g id="edge21_Node000016_Node000017" class="edge">
<title>Node16&#45;&gt;Node17</title>
<g id="a_edge21_Node000016_Node000017"><a xlink:title=" ">
<path fill="none" stroke="#63b8ff" d="M794.31,-506.6C807.1,-473 841.1,-396.38 896.75,-359 900.02,-356.8 903.48,-354.85 907.08,-353.11"/>
<polygon fill="#63b8ff" stroke="#63b8ff" points="908.23,-356.42 916.12,-349.35 905.54,-349.96 908.23,-356.42"/>
</a>
</g>
</g>
<!-- Node18 -->
<g id="Node000018" class="node">
<title>Node18</title>
<g id="a_Node000018"><a xlink:href="../../d5/d72/classLSM1x0A__LoRaWAN.html#a5365ed1596eb84ebf1e3b33b4a10c788" target="_top" xlink:title="Sets the LoRaWAN operational frequency band.">
<polygon fill="white" stroke="#666666" points="1069.88,-312 917.38,-312 917.38,-292 1069.88,-292 1069.88,-312"/>
<text text-anchor="middle" x="993.62" y="-298.5" font-family="Helvetica,sans-Serif" font-size="10.00">LSM1x0A_LoRaWAN::setBand</text>
</a>
</g>
</g>
<!-- Node16&#45;&gt;Node18 -->
<g id="edge23_Node000016_Node000018" class="edge">
<title>Node16&#45;&gt;Node18</title>
<g id="a_edge23_Node000016_Node000018"><a xlink:title=" ">
<path fill="none" stroke="#63b8ff" d="M792.22,-506.5C801.95,-467.43 831.99,-368.94 896.75,-321 899.91,-318.66 903.29,-316.58 906.82,-314.75"/>
<polygon fill="#63b8ff" stroke="#63b8ff" points="908,-318.05 915.72,-310.8 905.16,-311.66 908,-318.05"/>
</a>
</g>
</g>
<!-- Node19 -->
<g id="Node000019" class="node">
<title>Node19</title>
<g id="a_Node000019"><a xlink:href="../../d5/d72/classLSM1x0A__LoRaWAN.html#a9d9285c43414337a0ccb3a6cd7ca06e6" target="_top" xlink:title="Configures the number of retries for Confirmed uplinks.">
<polygon fill="white" stroke="#666666" points="1075.88,-274 911.38,-274 911.38,-242 1075.88,-242 1075.88,-274"/>
<text text-anchor="start" x="919.38" y="-260.5" font-family="Helvetica,sans-Serif" font-size="10.00">LSM1x0A_LoRaWAN::setConfirm</text>
<text text-anchor="middle" x="993.62" y="-248.5" font-family="Helvetica,sans-Serif" font-size="10.00">Retry</text>
</a>
</g>
</g>
<!-- Node16&#45;&gt;Node19 -->
<g id="edge26_Node000016_Node000019" class="edge">
<title>Node16&#45;&gt;Node19</title>
<g id="a_edge26_Node000016_Node000019"><a xlink:title=" ">
<path fill="none" stroke="#63b8ff" d="M790.93,-506.7C798.3,-463.28 824.45,-344.03 896.75,-283 898.24,-281.74 899.79,-280.55 901.38,-279.41"/>
<polygon fill="#63b8ff" stroke="#63b8ff" points="903,-282.52 909.7,-274.32 899.35,-276.55 903,-282.52"/>
</a>
</g>
</g>
<!-- Node20 -->
<g id="Node000020" class="node">
<title>Node20</title>
<g id="a_Node000020"><a xlink:href="../../d5/d72/classLSM1x0A__LoRaWAN.html#a56345ceeafa0b9059d6de4e69eddc82e" target="_top" xlink:title="Sets the Data Rate (DR) of the module.">
<polygon fill="white" stroke="#666666" points="1079.62,-892 907.62,-892 907.62,-872 1079.62,-872 1079.62,-892"/>
<text text-anchor="middle" x="993.62" y="-878.5" font-family="Helvetica,sans-Serif" font-size="10.00">LSM1x0A_LoRaWAN::setDataRate</text>
</a>
</g>
</g>
<!-- Node16&#45;&gt;Node20 -->
<g id="edge28_Node000016_Node000020" class="edge">
<title>Node16&#45;&gt;Node20</title>
<g id="a_edge28_Node000016_Node000020"><a xlink:title=" ">
<path fill="none" stroke="#63b8ff" d="M788.3,-539.16C788.54,-593.93 797.19,-774.06 896.75,-863 897.7,-863.85 898.67,-864.66 899.67,-865.44"/>
<polygon fill="#63b8ff" stroke="#63b8ff" points="897.7,-868.34 908,-870.83 901.5,-862.46 897.7,-868.34"/>
</a>
</g>
</g>
<!-- Node21 -->
<g id="Node000021" class="node">
<title>Node21</title>
<g id="a_Node000021"><a xlink:href="../../d5/d72/classLSM1x0A__LoRaWAN.html#a8494083816ab885cb07fc3b08de029f4" target="_top" xlink:title="Sets the LoRaWAN Device Address (DevAddr) for ABP mode.">
<polygon fill="white" stroke="#666666" points="1077.75,-854 909.5,-854 909.5,-834 1077.75,-834 1077.75,-854"/>
<text text-anchor="middle" x="993.62" y="-840.5" font-family="Helvetica,sans-Serif" font-size="10.00">LSM1x0A_LoRaWAN::setDevAddr</text>
</a>
</g>
</g>
<!-- Node16&#45;&gt;Node21 -->
<g id="edge30_Node000016_Node000021" class="edge">
<title>Node16&#45;&gt;Node21</title>
<g id="a_edge30_Node000016_Node000021"><a xlink:title=" ">
<path fill="none" stroke="#63b8ff" d="M789.03,-539.15C791.62,-589.92 806.87,-747.57 896.75,-825 897.87,-825.97 899.03,-826.89 900.21,-827.77"/>
<polygon fill="#63b8ff" stroke="#63b8ff" points="898.23,-830.65 908.57,-832.93 901.9,-824.7 898.23,-830.65"/>
</a>
</g>
</g>
<!-- Node22 -->
<g id="Node000022" class="node">
<title>Node22</title>
<g id="a_Node000022"><a xlink:href="../../d5/d72/classLSM1x0A__LoRaWAN.html#ad320634e52d7ea907043cc50dd37c5b0" target="_top" xlink:title="Sets the LoRaWAN Device EUI (DevEUI).">
<polygon fill="white" stroke="#666666" points="1076.25,-816 911,-816 911,-796 1076.25,-796 1076.25,-816"/>
<text text-anchor="middle" x="993.62" y="-802.5" font-family="Helvetica,sans-Serif" font-size="10.00">LSM1x0A_LoRaWAN::setDevEUI</text>
</a>
</g>
</g>
<!-- Node16&#45;&gt;Node22 -->
<g id="edge32_Node000016_Node000022" class="edge">
<title>Node16&#45;&gt;Node22</title>
<g id="a_edge32_Node000016_Node000022"><a xlink:title=" ">
<path fill="none" stroke="#63b8ff" d="M789.99,-539.44C795.14,-586.24 816.62,-721.05 896.75,-787 898.24,-788.22 899.78,-789.38 901.37,-790.46"/>
<polygon fill="#63b8ff" stroke="#63b8ff" points="899.23,-793.27 909.65,-795.21 902.72,-787.2 899.23,-793.27"/>
</a>
</g>
</g>
<!-- Node23 -->
<g id="Node000023" class="node">
<title>Node23</title>
<g id="a_Node000023"><a xlink:href="../../d5/d72/classLSM1x0A__LoRaWAN.html#a031023b0d2dd5db3c51c2db6ae7801cc" target="_top" xlink:title="Enables or disables the Duty Cycle limitation (EU regions mostly).">
<polygon fill="white" stroke="#666666" points="1069.12,-778 918.12,-778 918.12,-746 1069.12,-746 1069.12,-778"/>
<text text-anchor="start" x="926.12" y="-764.5" font-family="Helvetica,sans-Serif" font-size="10.00">LSM1x0A_LoRaWAN::setDuty</text>
<text text-anchor="middle" x="993.62" y="-752.5" font-family="Helvetica,sans-Serif" font-size="10.00">Cycle</text>
</a>
</g>
</g>
<!-- Node16&#45;&gt;Node23 -->
<g id="edge34_Node000016_Node000023" class="edge">
<title>Node16&#45;&gt;Node23</title>
<g id="a_edge34_Node000016_Node000023"><a xlink:title=" ">
<path fill="none" stroke="#63b8ff" d="M791.9,-539.3C801.15,-579.44 830.64,-683.67 896.75,-737 900.19,-739.78 903.91,-742.25 907.81,-744.44"/>
<polygon fill="#63b8ff" stroke="#63b8ff" points="905.96,-747.44 916.48,-748.7 909.05,-741.15 905.96,-747.44"/>
</a>
</g>
</g>
<!-- Node24 -->
<g id="Node000024" class="node">
<title>Node24</title>
<g id="a_Node000024"><a xlink:href="../../d5/d72/classLSM1x0A__LoRaWAN.html#a6b179d5825c49af0f391dfc539912f64" target="_top" xlink:title="Sets the delay for the Join1 receive window.">
<polygon fill="white" stroke="#666666" points="1070.25,-728 917,-728 917,-696 1070.25,-696 1070.25,-728"/>
<text text-anchor="start" x="925" y="-714.5" font-family="Helvetica,sans-Serif" font-size="10.00">LSM1x0A_LoRaWAN::setJoin1</text>
<text text-anchor="middle" x="993.62" y="-702.5" font-family="Helvetica,sans-Serif" font-size="10.00">Delay</text>
</a>
</g>
</g>
<!-- Node16&#45;&gt;Node24 -->
<g id="edge36_Node000016_Node000024" class="edge">
<title>Node16&#45;&gt;Node24</title>
<g id="a_edge36_Node000016_Node000024"><a xlink:title=" ">
<path fill="none" stroke="#63b8ff" d="M794.59,-539.39C807.81,-572.62 842.38,-648.08 896.75,-687 899.92,-689.27 903.29,-691.34 906.78,-693.21"/>
<polygon fill="#63b8ff" stroke="#63b8ff" points="905.03,-696.26 915.57,-697.38 908.03,-689.93 905.03,-696.26"/>
</a>
</g>
</g>
<!-- Node25 -->
<g id="Node000025" class="node">
<title>Node25</title>
<g id="a_Node000025"><a xlink:href="../../d5/d72/classLSM1x0A__LoRaWAN.html#a4545d0caad41558cdb9bae8286b104d8" target="_top" xlink:title="Sets the delay for the Join2 receive window.">
<polygon fill="white" stroke="#666666" points="1070.25,-678 917,-678 917,-646 1070.25,-646 1070.25,-678"/>
<text text-anchor="start" x="925" y="-664.5" font-family="Helvetica,sans-Serif" font-size="10.00">LSM1x0A_LoRaWAN::setJoin2</text>
<text text-anchor="middle" x="993.62" y="-652.5" font-family="Helvetica,sans-Serif" font-size="10.00">Delay</text>
</a>
</g>
</g>
<!-- Node16&#45;&gt;Node25 -->
<g id="edge38_Node000016_Node000025" class="edge">
<title>Node16&#45;&gt;Node25</title>
<g id="a_edge38_Node000016_Node000025"><a xlink:title=" ">
<path fill="none" stroke="#63b8ff" d="M799.39,-539.33C816.9,-564.27 853.74,-611.61 896.75,-637 899.76,-638.78 902.9,-640.43 906.13,-641.97"/>
<polygon fill="#63b8ff" stroke="#63b8ff" points="904.73,-645.18 915.3,-645.9 907.49,-638.74 904.73,-645.18"/>
</a>
</g>
</g>
<!-- Node26 -->
<g id="Node000026" class="node">
<title>Node26</title>
<g id="a_Node000026"><a xlink:href="../../d5/d72/classLSM1x0A__LoRaWAN.html#a06bd50723ec1eb7e144c9141b2ec86fc" target="_top" xlink:title="Sets the LoRaWAN Network ID (NetID).">
<polygon fill="white" stroke="#666666" points="1074,-628 913.25,-628 913.25,-608 1074,-608 1074,-628"/>
<text text-anchor="middle" x="993.62" y="-614.5" font-family="Helvetica,sans-Serif" font-size="10.00">LSM1x0A_LoRaWAN::setNwkID</text>
</a>
</g>
</g>
<!-- Node16&#45;&gt;Node26 -->
<g id="edge40_Node000016_Node000026" class="edge">
<title>Node16&#45;&gt;Node26</title>
<g id="a_edge40_Node000016_Node000026"><a xlink:title=" ">
<path fill="none" stroke="#63b8ff" d="M806.6,-539.34C827.01,-556.84 861.91,-584.11 896.75,-599 901.35,-600.97 906.16,-602.73 911.08,-604.32"/>
<polygon fill="#63b8ff" stroke="#63b8ff" points="909.92,-607.63 920.51,-607.08 911.89,-600.91 909.92,-607.63"/>
</a>
</g>
</g>
<!-- Node27 -->
<g id="Node000027" class="node">
<title>Node27</title>
<g id="a_Node000027"><a xlink:href="../../d5/d72/classLSM1x0A__LoRaWAN.html#aa70ada64d28ecca216bb62268e502adf" target="_top" xlink:title="Sets the delay for the RX1 receive window.">
<polygon fill="white" stroke="#666666" points="1080.38,-590 906.88,-590 906.88,-570 1080.38,-570 1080.38,-590"/>
<text text-anchor="middle" x="993.62" y="-576.5" font-family="Helvetica,sans-Serif" font-size="10.00">LSM1x0A_LoRaWAN::setRx1Delay</text>
</a>
</g>
</g>
<!-- Node16&#45;&gt;Node27 -->
<g id="edge42_Node000016_Node000027" class="edge">
<title>Node16&#45;&gt;Node27</title>
<g id="a_edge42_Node000016_Node000027"><a xlink:title=" ">
<path fill="none" stroke="#63b8ff" d="M830.99,-539.49C850.77,-546.76 874.75,-554.99 896.75,-561 904.83,-563.21 913.36,-565.27 921.87,-567.16"/>
<polygon fill="#63b8ff" stroke="#63b8ff" points="921,-570.55 931.51,-569.23 922.47,-563.71 921,-570.55"/>
</a>
</g>
</g>
<!-- Node28 -->
<g id="Node000028" class="node">
<title>Node28</title>
<g id="a_Node000028"><a xlink:href="../../d5/d72/classLSM1x0A__LoRaWAN.html#a2cf4eff0181b6107d082bccefa24217b" target="_top" xlink:title="Sets the Data Rate (DR) specifically for the RX2 window.">
<polygon fill="white" stroke="#666666" points="1088.62,-552 898.62,-552 898.62,-532 1088.62,-532 1088.62,-552"/>
<text text-anchor="middle" x="993.62" y="-538.5" font-family="Helvetica,sans-Serif" font-size="10.00">LSM1x0A_LoRaWAN::setRx2DataRate</text>
</a>
</g>
</g>
<!-- Node16&#45;&gt;Node28 -->
<g id="edge44_Node000016_Node000028" class="edge">
<title>Node16&#45;&gt;Node28</title>
<g id="a_edge44_Node000016_Node000028"><a xlink:title=" ">
<path fill="none" stroke="#63b8ff" d="M861.04,-529.75C869.41,-530.53 878.06,-531.34 886.76,-532.15"/>
<polygon fill="#63b8ff" stroke="#63b8ff" points="886.39,-535.63 896.68,-533.07 887.04,-528.66 886.39,-535.63"/>
</a>
</g>
</g>
<!-- Node29 -->
<g id="Node000029" class="node">
<title>Node29</title>
<g id="a_Node000029"><a xlink:href="../../d5/d72/classLSM1x0A__LoRaWAN.html#a42d2137b475b57e19d891a5f1ac93221" target="_top" xlink:title="Sets the delay for the RX2 receive window.">
<polygon fill="white" stroke="#666666" points="1080.38,-514 906.88,-514 906.88,-494 1080.38,-494 1080.38,-514"/>
<text text-anchor="middle" x="993.62" y="-500.5" font-family="Helvetica,sans-Serif" font-size="10.00">LSM1x0A_LoRaWAN::setRx2Delay</text>
</a>
</g>
</g>
<!-- Node16&#45;&gt;Node29 -->
<g id="edge46_Node000016_Node000029" class="edge">
<title>Node16&#45;&gt;Node29</title>
<g id="a_edge46_Node000016_Node000029"><a xlink:title=" ">
<path fill="none" stroke="#63b8ff" d="M861.04,-516.25C872.24,-515.21 883.97,-514.11 895.6,-513.03"/>
<polygon fill="#63b8ff" stroke="#63b8ff" points="895.57,-516.55 905.2,-512.14 894.92,-509.58 895.57,-516.55"/>
</a>
</g>
</g>
<!-- Node30 -->
<g id="Node000030" class="node">
<title>Node30</title>
<g id="a_Node000030"><a xlink:href="../../d5/d72/classLSM1x0A__LoRaWAN.html#a689f7dfda1dfeae11ea397c2ddf2ad37" target="_top" xlink:title="Sets the precise frequency for the RX2 window.">
<polygon fill="white" stroke="#666666" points="1090.5,-476 896.75,-476 896.75,-456 1090.5,-456 1090.5,-476"/>
<text text-anchor="middle" x="993.62" y="-462.5" font-family="Helvetica,sans-Serif" font-size="10.00">LSM1x0A_LoRaWAN::setRx2Frequency</text>
</a>
</g>
</g>
<!-- Node16&#45;&gt;Node30 -->
<g id="edge48_Node000016_Node000030" class="edge">
<title>Node16&#45;&gt;Node30</title>
<g id="a_edge48_Node000016_Node000030"><a xlink:title=" ">
<path fill="none" stroke="#63b8ff" d="M830.99,-506.51C850.77,-499.24 874.75,-491.01 896.75,-485 904.83,-482.79 913.36,-480.73 921.87,-478.84"/>
<polygon fill="#63b8ff" stroke="#63b8ff" points="922.47,-482.29 931.51,-476.77 921,-475.45 922.47,-482.29"/>
</a>
</g>
</g>
<!-- Node31 -->
<g id="Node000031" class="node">
<title>Node31</title>
<g id="a_Node000031"><a xlink:href="../../d5/d72/classLSM1x0A__LoRaWAN.html#a1df10d7ae6bf45b537d28d3d5c4b88d7" target="_top" xlink:title="Sets the transmission power index.">
<polygon fill="white" stroke="#666666" points="1078.12,-438 909.12,-438 909.12,-418 1078.12,-418 1078.12,-438"/>
<text text-anchor="middle" x="993.62" y="-424.5" font-family="Helvetica,sans-Serif" font-size="10.00">LSM1x0A_LoRaWAN::setTxPower</text>
</a>
</g>
</g>
<!-- Node16&#45;&gt;Node31 -->
<g id="edge50_Node000016_Node000031" class="edge">
<title>Node16&#45;&gt;Node31</title>
<g id="a_edge50_Node000016_Node000031"><a xlink:title=" ">
<path fill="none" stroke="#63b8ff" d="M806.6,-506.66C827.01,-489.16 861.91,-461.89 896.75,-447 901.35,-445.03 906.16,-443.27 911.08,-441.68"/>
<polygon fill="#63b8ff" stroke="#63b8ff" points="911.89,-445.09 920.51,-438.92 909.92,-438.37 911.89,-445.09"/>
</a>
</g>
</g>
<!-- Node32 -->
<g id="Node000032" class="node">
<title>Node32</title>
<g id="a_Node000032"><a xlink:href="../../d5/d72/classLSM1x0A__LoRaWAN.html#a059fd6a9356c4ecadd5a98294da5952d" target="_top" xlink:title="Configures the number of repetitions for Unconfirmed uplinks.">
<polygon fill="white" stroke="#666666" points="1081.12,-400 906.12,-400 906.12,-368 1081.12,-368 1081.12,-400"/>
<text text-anchor="start" x="914.12" y="-386.5" font-family="Helvetica,sans-Serif" font-size="10.00">LSM1x0A_LoRaWAN::setUnconfirm</text>
<text text-anchor="middle" x="993.62" y="-374.5" font-family="Helvetica,sans-Serif" font-size="10.00">Retry</text>
</a>
</g>
</g>
<!-- Node16&#45;&gt;Node32 -->
<g id="edge52_Node000016_Node000032" class="edge">
<title>Node16&#45;&gt;Node32</title>
<g id="a_edge52_Node000016_Node000032"><a xlink:title=" ">
<path fill="none" stroke="#63b8ff" d="M799.39,-506.67C816.9,-481.73 853.74,-434.39 896.75,-409 899.06,-407.64 901.45,-406.34 903.89,-405.12"/>
<polygon fill="#63b8ff" stroke="#63b8ff" points="905.15,-408.4 912.83,-401.1 902.28,-402.01 905.15,-408.4"/>
</a>
</g>
</g>
<!-- Node17&#45;&gt;Node10 -->
<g id="edge22_Node000017_Node000010" class="edge">
<title>Node17&#45;&gt;Node10</title>
<g id="a_edge22_Node000017_Node000010"><a xlink:title=" ">
<path fill="none" stroke="#63b8ff" d="M1069.9,-348.53C1077.22,-351.2 1084.24,-354.62 1090.5,-359 1146.09,-397.86 1178.94,-474.26 1193.24,-514.97"/>
<polygon fill="#63b8ff" stroke="#63b8ff" points="1189.86,-515.89 1196.37,-524.24 1196.49,-513.65 1189.86,-515.89"/>
</a>
</g>
</g>
<!-- Node18&#45;&gt;Node10 -->
<g id="edge24_Node000018_Node000010" class="edge">
<title>Node18&#45;&gt;Node10</title>
<g id="a_edge24_Node000018_Node000010"><a xlink:title=" ">
<path fill="none" stroke="#63b8ff" d="M1070.27,-310.03C1077.52,-312.79 1084.42,-316.38 1090.5,-321 1155.12,-370.13 1184.96,-467.16 1196.16,-514.6"/>
<polygon fill="#63b8ff" stroke="#63b8ff" points="1192.67,-515.06 1198.28,-524.05 1199.5,-513.53 1192.67,-515.06"/>
</a>
</g>
</g>
<!-- Node19&#45;&gt;Node10 -->
<g id="edge27_Node000019_Node000010" class="edge">
<title>Node19&#45;&gt;Node10</title>
<g id="a_edge27_Node000019_Node000010"><a xlink:title=" ">
<path fill="none" stroke="#63b8ff" d="M1076.33,-273.44C1081.41,-276.14 1086.2,-279.3 1090.5,-283 1162.45,-344.86 1189.23,-461.59 1197.99,-514.59"/>
<polygon fill="#63b8ff" stroke="#63b8ff" points="1194.5,-514.92 1199.49,-524.26 1201.42,-513.84 1194.5,-514.92"/>
</a>
</g>
</g>
<!-- Node20&#45;&gt;Node10 -->
<g id="edge29_Node000020_Node000010" class="edge">
<title>Node20&#45;&gt;Node10</title>
<g id="a_edge29_Node000020_Node000010"><a xlink:title=" ">
<path fill="none" stroke="#63b8ff" d="M1077.94,-871.6C1082.45,-869.21 1086.69,-866.37 1090.5,-863 1128.73,-829.22 1109.97,-802.26 1126.5,-754 1149.31,-687.42 1177.3,-609.52 1191.87,-569.23"/>
<polygon fill="#63b8ff" stroke="#63b8ff" points="1195.14,-570.47 1195.26,-559.87 1188.56,-568.08 1195.14,-570.47"/>
</a>
</g>
</g>
<!-- Node21&#45;&gt;Node10 -->
<g id="edge31_Node000021_Node000010" class="edge">
<title>Node21&#45;&gt;Node10</title>
<g id="a_edge31_Node000021_Node000010"><a xlink:title=" ">
<path fill="none" stroke="#63b8ff" d="M1077.27,-833.58C1082,-831.21 1086.46,-828.37 1090.5,-825 1111.28,-807.64 1170.19,-636.39 1192.78,-569.02"/>
<polygon fill="#63b8ff" stroke="#63b8ff" points="1195.99,-570.45 1195.84,-559.86 1189.35,-568.24 1195.99,-570.45"/>
</a>
</g>
</g>
<!-- Node22&#45;&gt;Node10 -->
<g id="edge33_Node000022_Node000010" class="edge">
<title>Node22&#45;&gt;Node10</title>
<g id="a_edge33_Node000022_Node000010"><a xlink:title=" ">
<path fill="none" stroke="#63b8ff" d="M1076.61,-795.56C1081.55,-793.2 1086.24,-790.37 1090.5,-787 1161,-731.13 1188.39,-620.69 1197.63,-569.39"/>
<polygon fill="#63b8ff" stroke="#63b8ff" points="1201.04,-570.18 1199.26,-559.74 1194.14,-569.01 1201.04,-570.18"/>
</a>
</g>
</g>
<!-- Node23&#45;&gt;Node10 -->
<g id="edge35_Node000023_Node000010" class="edge">
<title>Node23&#45;&gt;Node10</title>
<g id="a_edge35_Node000023_Node000010"><a xlink:title=" ">
<path fill="none" stroke="#63b8ff" d="M1069.16,-749.05C1076.79,-745.87 1084.08,-741.92 1090.5,-737 1147.49,-693.34 1180.06,-611.57 1193.85,-569.12"/>
<polygon fill="#63b8ff" stroke="#63b8ff" points="1197.15,-570.29 1196.8,-559.7 1190.47,-568.2 1197.15,-570.29"/>
</a>
</g>
</g>
<!-- Node24&#45;&gt;Node10 -->
<g id="edge37_Node000024_Node000010" class="edge">
<title>Node24&#45;&gt;Node10</title>
<g id="a_edge37_Node000024_Node000010"><a xlink:title=" ">
<path fill="none" stroke="#63b8ff" d="M1070.49,-697.37C1077.54,-694.51 1084.34,-691.09 1090.5,-687 1136.31,-656.61 1171.07,-600.94 1188.75,-568.13"/>
<polygon fill="#63b8ff" stroke="#63b8ff" points="1191.64,-570.16 1193.18,-559.68 1185.44,-566.91 1191.64,-570.16"/>
</a>
</g>
</g>
<!-- Node25&#45;&gt;Node10 -->
<g id="edge39_Node000025_Node000010" class="edge">
<title>Node25&#45;&gt;Node10</title>
<g id="a_edge39_Node000025_Node000010"><a xlink:title=" ">
<path fill="none" stroke="#63b8ff" d="M1070.68,-645.62C1077.54,-643.12 1084.25,-640.26 1090.5,-637 1125.29,-618.85 1158.6,-588.01 1179.56,-566.4"/>
<polygon fill="#63b8ff" stroke="#63b8ff" points="1181.83,-569.1 1186.18,-559.44 1176.75,-564.27 1181.83,-569.1"/>
</a>
</g>
</g>
<!-- Node26&#45;&gt;Node10 -->
<g id="edge41_Node000026_Node000010" class="edge">
<title>Node26&#45;&gt;Node10</title>
<g id="a_edge41_Node000026_Node000010"><a xlink:title=" ">
<path fill="none" stroke="#63b8ff" d="M1060.26,-607.52C1070.51,-605.16 1080.88,-602.34 1090.5,-599 1116.57,-589.94 1144.2,-575.81 1165.4,-563.89"/>
<polygon fill="#63b8ff" stroke="#63b8ff" points="1167,-567 1173.94,-559 1163.52,-560.93 1167,-567"/>
</a>
</g>
</g>
<!-- Node27&#45;&gt;Node10 -->
<g id="edge43_Node000027_Node000010" class="edge">
<title>Node27&#45;&gt;Node10</title>
<g id="a_edge43_Node000027_Node000010"><a xlink:title=" ">
<path fill="none" stroke="#63b8ff" d="M1051.77,-569.52C1078.61,-564.59 1110.69,-558.71 1138.28,-553.64"/>
<polygon fill="#63b8ff" stroke="#63b8ff" points="1138.71,-557.12 1147.91,-551.88 1137.44,-550.24 1138.71,-557.12"/>
</a>
</g>
</g>
<!-- Node28&#45;&gt;Node10 -->
<g id="edge45_Node000028_Node000010" class="edge">
<title>Node28&#45;&gt;Node10</title>
<g id="a_edge45_Node000028_Node000010"><a xlink:title=" ">
<path fill="none" stroke="#63b8ff" d="M1089.1,-542C1105.59,-542 1122.39,-542 1137.82,-542"/>
<polygon fill="#63b8ff" stroke="#63b8ff" points="1137.8,-545.5 1147.8,-542 1137.8,-538.5 1137.8,-545.5"/>
</a>
</g>
</g>
<!-- Node29&#45;&gt;Node10 -->
<g id="edge47_Node000029_Node000010" class="edge">
<title>Node29&#45;&gt;Node10</title>
<g id="a_edge47_Node000029_Node000010"><a xlink:title=" ">
<path fill="none" stroke="#63b8ff" d="M1051.77,-514.48C1078.61,-519.41 1110.69,-525.29 1138.28,-530.36"/>
<polygon fill="#63b8ff" stroke="#63b8ff" points="1137.44,-533.76 1147.91,-532.12 1138.71,-526.88 1137.44,-533.76"/>
</a>
</g>
</g>
<!-- Node30&#45;&gt;Node10 -->
<g id="edge49_Node000030_Node000010" class="edge">
<title>Node30&#45;&gt;Node10</title>
<g id="a_edge49_Node000030_Node000010"><a xlink:title=" ">
<path fill="none" stroke="#63b8ff" d="M1060.26,-476.48C1070.51,-478.84 1080.88,-481.66 1090.5,-485 1116.57,-494.06 1144.2,-508.19 1165.4,-520.11"/>
<polygon fill="#63b8ff" stroke="#63b8ff" points="1163.52,-523.07 1173.94,-525 1167,-517 1163.52,-523.07"/>
</a>
</g>
</g>
<!-- Node31&#45;&gt;Node10 -->
<g id="edge51_Node000031_Node000010" class="edge">
<title>Node31&#45;&gt;Node10</title>
<g id="a_edge51_Node000031_Node000010"><a xlink:title=" ">
<path fill="none" stroke="#63b8ff" d="M1067.89,-438.43C1075.71,-440.74 1083.4,-443.56 1090.5,-447 1126.01,-464.21 1159.4,-495.52 1180.16,-517.48"/>
<polygon fill="#63b8ff" stroke="#63b8ff" points="1177.35,-519.6 1186.71,-524.57 1182.49,-514.85 1177.35,-519.6"/>
</a>
</g>
</g>
<!-- Node32&#45;&gt;Node10 -->
<g id="edge53_Node000032_Node000010" class="edge">
<title>Node32&#45;&gt;Node10</title>
<g id="a_edge53_Node000032_Node000010"><a xlink:title=" ">
<path fill="none" stroke="#63b8ff" d="M1073.75,-400.31C1079.61,-402.81 1085.27,-405.69 1090.5,-409 1133.49,-436.23 1168.22,-485.5 1186.85,-515.83"/>
<polygon fill="#63b8ff" stroke="#63b8ff" points="1183.84,-517.61 1191.98,-524.4 1189.85,-514.02 1183.84,-517.61"/>
</a>
</g>
</g>
<!-- Node34&#45;&gt;Node11 -->
<g id="edge56_Node000034_Node000011" class="edge">
<title>Node34&#45;&gt;Node11</title>
<g id="a_edge56_Node000034_Node000011"><a xlink:title=" ">
<path fill="none" stroke="#63b8ff" d="M1217.32,-762.71C1252.69,-720.24 1347.59,-606.28 1385.33,-560.97"/>
<polygon fill="#63b8ff" stroke="#63b8ff" points="1387.8,-563.47 1391.51,-553.55 1382.42,-558.99 1387.8,-563.47"/>
</a>
</g>
</g>
</g>
</svg>

<g id="navigator" transform="translate(0 0)" fill="#404254">
  <rect fill="#f2f5e9" fill-opacity="0.5" stroke="#606060" stroke-width=".5" x="0" y="0" width="60" height="60"/>
  <use id="zoomplus" xlink:href="#zoomPlus" x="17" y="9" onmousedown="handleZoom(evt,'in')"/>
  <use id="zoomminus" xlink:href="#zoomMin" x="42" y="9" onmousedown="handleZoom(evt,'out')"/>
  <use id="reset" xlink:href="#resetDef" x="30" y="36" onmousedown="handleReset()"/>
   <use id="arrowup" xlink:href="#arrowUp" x="0" y="0" onmousedown="handlePan(0,-1)"/>
  <use id="arrowright" xlink:href="#arrowRight" x="0" y="0" onmousedown="handlePan(1,0)"/>
  <use id="arrowdown" xlink:href="#arrowDown" x="0" y="0" onmousedown="handlePan(0,1)"/>
  <use id="arrowleft" xlink:href="#arrowLeft" x="0" y="0" onmousedown="handlePan(-1,0)"/>
</g>
<svg viewBox="0 0 15 15" width="100%" height="30px" preserveAspectRatio="xMaxYMin meet">
 <g id="arrow_out" transform="scale(0.3 0.3)">
  <a xlink:href="classLSM1x0A__LoRaWAN_a2544591721a3bee5ec85d6a4efec545b_cgraph_org.svg" target="_base">
   <rect id="button" ry="5" rx="5" y="6" x="6" height="38" width="38"
        fill="#f2f5e9" fill-opacity="0.5" stroke="#606060" stroke-width="1.0"/>
   <path id="arrow"
     d="M 11.500037,31.436501 C 11.940474,20.09759 22.043105,11.32322 32.158766,21.979434 L 37.068811,17.246167 C 37.068811,17.246167 37.088388,32 37.088388,32 L 22.160133,31.978069 C 22.160133,31.978069 26.997745,27.140456 26.997745,27.140456 C 18.528582,18.264221 13.291696,25.230495 11.500037,31.436501 z"
     style="fill:#404040;"/>
  </a>
 </g>
</svg>

<style type='text/css'>
<![CDATA[
[data-mouse-over-selected='false'] { opacity: 0.7; }
[data-mouse-over-selected='true']  { opacity: 1.0; }
]]>
</style>
<script type="application/ecmascript"><![CDATA[
document.addEventListener('DOMContentLoaded', (event) => {
  highlightEdges();
  highlightAdjacentNodes();
});
]]></script>
</svg>
