<?xml version="1.0" encoding="UTF-8" standalone="no"?>
<!DOCTYPE svg PUBLIC "-//W3C//DTD SVG 1.1//EN"
 "http://www.w3.org/Graphics/SVG/1.1/DTD/svg11.dtd">
<!-- Generated by graphviz version 12.2.1 (20241206.2353)
 -->
<!-- Title: LSM1x0A_LoRaWAN::setAppSKey Pages: 1 -->
<svg width="1302pt" height="1143pt"
 viewBox="0.00 0.00 1302.00 1143.11" xmlns="http://www.w3.org/2000/svg" xmlns:xlink="http://www.w3.org/1999/xlink">
<g id="graph0" class="graph" transform="scale(1 1) rotate(0) translate(4 1139.11)">
<title>LSM1x0A_LoRaWAN::setAppSKey</title>
<!-- Node1 -->
<g id="Node000001" class="node">
<title>Node1</title>
<g id="a_Node000001"><a xlink:title="Sets the Application Session Key (AppSKey) for ABP mode.">
<polygon fill="#999999" stroke="#666666" points="171.25,-490.95 0,-490.95 0,-470.95 171.25,-470.95 171.25,-490.95"/>
<text text-anchor="middle" x="85.62" y="-477.45" font-family="Helvetica,sans-Serif" font-size="10.00">LSM1x0A_LoRaWAN::setAppSKey</text>
</a>
</g>
</g>
<!-- Node2 -->
<g id="Node000002" class="node">
<title>Node2</title>
<g id="a_Node000002"><a xlink:href="../../d8/d92/classLSM1x0A__Controller.html#afd7d92e60ed6fdae696a955cdbe0ed8c" target="_top" xlink:title="Sends any AT command to the module, returning error if it fails. Internally uses the LsmAtParser logi...">
<polygon fill="white" stroke="#666666" points="313.25,-496.95 207.25,-496.95 207.25,-464.95 313.25,-464.95 313.25,-496.95"/>
<text text-anchor="start" x="215.25" y="-483.45" font-family="Helvetica,sans-Serif" font-size="10.00">LSM1x0A_Controller</text>
<text text-anchor="middle" x="260.25" y="-471.45" font-family="Helvetica,sans-Serif" font-size="10.00">::sendCommand</text>
</a>
</g>
</g>
<!-- Node1&#45;&gt;Node2 -->
<g id="edge1_Node000001_Node000002" class="edge">
<title>Node1&#45;&gt;Node2</title>
<g id="a_edge1_Node000001_Node000002"><a xlink:title=" ">
<path fill="none" stroke="#63b8ff" d="M171.67,-480.95C179.79,-480.95 187.93,-480.95 195.79,-480.95"/>
<polygon fill="#63b8ff" stroke="#63b8ff" points="195.57,-484.45 205.57,-480.95 195.57,-477.45 195.57,-484.45"/>
</a>
</g>
</g>
<!-- Node3 -->
<g id="Node000003" class="node">
<title>Node3</title>
<g id="a_Node000003"><a xlink:href="../../d8/d92/classLSM1x0A__Controller.html#abb0eb380daa3dfb7acffb483c5db8e2b" target="_top" xlink:title="Executes the recovery protocol. First Soft&#45;Reset (ATZ), then Hard&#45;Reset if there is a pin.">
<polygon fill="white" stroke="#666666" points="455.25,-938.95 349.25,-938.95 349.25,-906.95 455.25,-906.95 455.25,-938.95"/>
<text text-anchor="start" x="357.25" y="-925.45" font-family="Helvetica,sans-Serif" font-size="10.00">LSM1x0A_Controller</text>
<text text-anchor="middle" x="402.25" y="-913.45" font-family="Helvetica,sans-Serif" font-size="10.00">::recoverModule</text>
</a>
</g>
</g>
<!-- Node2&#45;&gt;Node3 -->
<g id="edge2_Node000002_Node000003" class="edge">
<title>Node2&#45;&gt;Node3</title>
<g id="a_edge2_Node000002_Node000003"><a xlink:title=" ">
<path fill="none" stroke="#63b8ff" d="M264.8,-497.39C275.36,-545.46 308.41,-689.56 349.25,-804.95 360.6,-837.01 376.79,-872.58 388.08,-896.2"/>
<polygon fill="#63b8ff" stroke="#63b8ff" points="384.88,-897.62 392.38,-905.1 391.18,-894.57 384.88,-897.62"/>
</a>
</g>
</g>
<!-- Node31 -->
<g id="Node000031" class="node">
<title>Node31</title>
<g id="a_Node000031"><a xlink:href="../../d6/d3c/classLSM1x0A__AtParser.html#a29b53c521974387ba6c03afadfaffa4a" target="_top" xlink:title="Sends a simple command and waits for OK/ERROR. Example: sendCommand(&quot;AT+JOIN&quot;);.">
<polygon fill="white" stroke="#666666" points="869.75,-1118.95 695.5,-1118.95 695.5,-1098.95 869.75,-1098.95 869.75,-1118.95"/>
<text text-anchor="middle" x="782.62" y="-1105.45" font-family="Helvetica,sans-Serif" font-size="10.00">LSM1x0A_AtParser::sendCommand</text>
</a>
</g>
</g>
<!-- Node2&#45;&gt;Node31 -->
<g id="edge55_Node000002_Node000031" class="edge">
<title>Node2&#45;&gt;Node31</title>
<g id="a_edge55_Node000002_Node000031"><a xlink:title=" ">
<path fill="none" stroke="#63b8ff" d="M261.31,-497.2C262.13,-559.15 270.67,-785.25 349.25,-947.95 391.18,-1034.77 403.56,-1071.88 491.25,-1111.95 569.01,-1147.48 671.16,-1134.62 731.27,-1121.89"/>
<polygon fill="#63b8ff" stroke="#63b8ff" points="731.86,-1125.34 740.87,-1119.77 730.35,-1118.51 731.86,-1125.34"/>
</a>
</g>
</g>
<!-- Node4 -->
<g id="Node000004" class="node">
<title>Node4</title>
<g id="a_Node000004"><a xlink:href="../../d8/d92/classLSM1x0A__Controller.html#a3f6f25b843fe4fb7042c544deae2ab16" target="_top" xlink:title="Manually clears bits from the internal EventGroup.">
<polygon fill="white" stroke="#666666" points="1063.5,-957.95 957.5,-957.95 957.5,-925.95 1063.5,-925.95 1063.5,-957.95"/>
<text text-anchor="start" x="965.5" y="-944.45" font-family="Helvetica,sans-Serif" font-size="10.00">LSM1x0A_Controller</text>
<text text-anchor="middle" x="1010.5" y="-932.45" font-family="Helvetica,sans-Serif" font-size="10.00">::clearEvents</text>
</a>
</g>
</g>
<!-- Node3&#45;&gt;Node4 -->
<g id="edge3_Node000003_Node000004" class="edge">
<title>Node3&#45;&gt;Node4</title>
<g id="a_edge3_Node000003_Node000004"><a xlink:title=" ">
<path fill="none" stroke="#63b8ff" d="M419.33,-939.29C435.75,-954.72 462.81,-976.82 491.25,-985.95 650.82,-1037.18 851.41,-991 949.68,-961.72"/>
<polygon fill="#63b8ff" stroke="#63b8ff" points="950.57,-965.11 959.12,-958.86 948.54,-958.41 950.57,-965.11"/>
</a>
</g>
</g>
<!-- Node5 -->
<g id="Node000005" class="node">
<title>Node5</title>
<g id="a_Node000005"><a xlink:href="../../d8/d92/classLSM1x0A__Controller.html#a345d4bd79fa16b18dc33a4ca788fe5f7" target="_top" xlink:title="Performs a hardware reset using the reset pin.">
<polygon fill="white" stroke="#666666" points="623.5,-938.95 517.5,-938.95 517.5,-906.95 623.5,-906.95 623.5,-938.95"/>
<text text-anchor="start" x="525.5" y="-925.45" font-family="Helvetica,sans-Serif" font-size="10.00">LSM1x0A_Controller</text>
<text text-anchor="middle" x="570.5" y="-913.45" font-family="Helvetica,sans-Serif" font-size="10.00">::hardwareReset</text>
</a>
</g>
</g>
<!-- Node3&#45;&gt;Node5 -->
<g id="edge4_Node000003_Node000005" class="edge">
<title>Node3&#45;&gt;Node5</title>
<g id="a_edge4_Node000003_Node000005"><a xlink:title=" ">
<path fill="none" stroke="#63b8ff" d="M455.4,-922.95C471.41,-922.95 489.22,-922.95 505.91,-922.95"/>
<polygon fill="#63b8ff" stroke="#63b8ff" points="505.74,-926.45 515.74,-922.95 505.74,-919.45 505.74,-926.45"/>
</a>
</g>
</g>
<!-- Node7 -->
<g id="Node000007" class="node">
<title>Node7</title>
<g id="a_Node000007"><a xlink:href="../../d5/d72/classLSM1x0A__LoRaWAN.html#a1892801e37c8cd67d37c76108d6f7d49" target="_top" xlink:title="Validates if the device is currently Joined to the network. (Either confirmed by OTAA or statically a...">
<polygon fill="white" stroke="#666666" points="1294,-926.95 1141.5,-926.95 1141.5,-906.95 1294,-906.95 1294,-926.95"/>
<text text-anchor="middle" x="1217.75" y="-913.45" font-family="Helvetica,sans-Serif" font-size="10.00">LSM1x0A_LoRaWAN::isJoined</text>
</a>
</g>
</g>
<!-- Node3&#45;&gt;Node7 -->
<g id="edge6_Node000003_Node000007" class="edge">
<title>Node3&#45;&gt;Node7</title>
<g id="a_edge6_Node000003_Node000007"><a xlink:title=" ">
<path fill="none" stroke="#63b8ff" d="M449.19,-939.25C451.33,-940.7 453.36,-942.26 455.25,-943.95 480.42,-966.51 462.24,-993.6 491.25,-1010.95 501.95,-1017.34 817.41,-1014.94 879.5,-1008.95 981.19,-999.13 1007.99,-997.44 1105.5,-966.95 1134.33,-957.93 1165.58,-943.44 1187.59,-932.37"/>
<polygon fill="#63b8ff" stroke="#63b8ff" points="1188.95,-935.61 1196.26,-927.94 1185.76,-929.38 1188.95,-935.61"/>
</a>
</g>
</g>
<!-- Node8 -->
<g id="Node000008" class="node">
<title>Node8</title>
<g id="a_Node000008"><a xlink:href="../../d5/d72/classLSM1x0A__LoRaWAN.html#a83e11c0e74ff9e0757db616ab1163424" target="_top" xlink:title="Attempts to recover a lost connection (re&#45;executes OTAA Join if dropped).">
<polygon fill="white" stroke="#666666" points="644.88,-850.95 496.12,-850.95 496.12,-818.95 644.88,-818.95 644.88,-850.95"/>
<text text-anchor="start" x="504.12" y="-837.45" font-family="Helvetica,sans-Serif" font-size="10.00">LSM1x0A_LoRaWAN::recover</text>
<text text-anchor="middle" x="570.5" y="-825.45" font-family="Helvetica,sans-Serif" font-size="10.00">Connection</text>
</a>
</g>
</g>
<!-- Node3&#45;&gt;Node8 -->
<g id="edge7_Node000003_Node000008" class="edge">
<title>Node3&#45;&gt;Node8</title>
<g id="a_edge7_Node000003_Node000008"><a xlink:title=" ">
<path fill="none" stroke="#63b8ff" d="M425.22,-906.53C442.55,-894.07 467.65,-877.07 491.25,-864.95 497.54,-861.72 504.25,-858.64 511.01,-855.76"/>
<polygon fill="#63b8ff" stroke="#63b8ff" points="512.28,-859.02 520.21,-851.99 509.63,-852.55 512.28,-859.02"/>
</a>
</g>
</g>
<!-- Node12 -->
<g id="Node000012" class="node">
<title>Node12</title>
<g id="a_Node000012"><a xlink:href="../../d5/d72/classLSM1x0A__LoRaWAN.html#ae3be4ce59dfa200369733317df356e97" target="_top" xlink:title="Pushes the RAM&#45;cached variables back down into the hardware module. Restores the operational state af...">
<polygon fill="white" stroke="#666666" points="643.75,-496.95 497.25,-496.95 497.25,-464.95 643.75,-464.95 643.75,-496.95"/>
<text text-anchor="start" x="505.25" y="-483.45" font-family="Helvetica,sans-Serif" font-size="10.00">LSM1x0A_LoRaWAN::restore</text>
<text text-anchor="middle" x="570.5" y="-471.45" font-family="Helvetica,sans-Serif" font-size="10.00">Config</text>
</a>
</g>
</g>
<!-- Node3&#45;&gt;Node12 -->
<g id="edge16_Node000003_Node000012" class="edge">
<title>Node3&#45;&gt;Node12</title>
<g id="a_edge16_Node000003_Node000012"><a xlink:title=" ">
<path fill="none" stroke="#63b8ff" d="M409.36,-906.69C434.26,-840.5 528.17,-590.84 559.36,-507.91"/>
<polygon fill="#63b8ff" stroke="#63b8ff" points="562.55,-509.36 562.8,-498.77 556,-506.9 562.55,-509.36"/>
</a>
</g>
</g>
<!-- Node29 -->
<g id="Node000029" class="node">
<title>Node29</title>
<g id="a_Node000029"><a xlink:href="../../d5/d72/classLSM1x0A__LoRaWAN.html#ace4b04396f1de1f4a54f513f5f378db7" target="_top" xlink:title="Manually overrides the internal joined state tracker.">
<polygon fill="white" stroke="#666666" points="649.75,-976.95 491.25,-976.95 491.25,-956.95 649.75,-956.95 649.75,-976.95"/>
<text text-anchor="middle" x="570.5" y="-963.45" font-family="Helvetica,sans-Serif" font-size="10.00">LSM1x0A_LoRaWAN::setJoined</text>
</a>
</g>
</g>
<!-- Node3&#45;&gt;Node29 -->
<g id="edge50_Node000003_Node000029" class="edge">
<title>Node3&#45;&gt;Node29</title>
<g id="a_edge50_Node000003_Node000029"><a xlink:title=" ">
<path fill="none" stroke="#63b8ff" d="M455.74,-938.22C467.41,-941.51 479.73,-944.91 491.25,-947.95 498.61,-949.89 506.37,-951.86 514.04,-953.76"/>
<polygon fill="#63b8ff" stroke="#63b8ff" points="513.13,-957.14 523.68,-956.13 514.8,-950.35 513.13,-957.14"/>
</a>
</g>
</g>
<!-- Node30 -->
<g id="Node000030" class="node">
<title>Node30</title>
<g id="a_Node000030"><a xlink:href="../../d8/d92/classLSM1x0A__Controller.html#a11ad21cb5ca33ec51346764a23bd485e" target="_top" xlink:title="Performs a software reset (ATZ Command).">
<polygon fill="white" stroke="#666666" points="623.5,-1102.95 517.5,-1102.95 517.5,-1070.95 623.5,-1070.95 623.5,-1102.95"/>
<text text-anchor="start" x="525.5" y="-1089.45" font-family="Helvetica,sans-Serif" font-size="10.00">LSM1x0A_Controller</text>
<text text-anchor="middle" x="570.5" y="-1077.45" font-family="Helvetica,sans-Serif" font-size="10.00">::softwareReset</text>
</a>
</g>
</g>
<!-- Node3&#45;&gt;Node30 -->
<g id="edge51_Node000003_Node000030" class="edge">
<title>Node3&#45;&gt;Node30</title>
<g id="a_edge51_Node000003_Node000030"><a xlink:title=" ">
<path fill="none" stroke="#63b8ff" d="M409.95,-939.34C422.14,-967.25 450.5,-1024.13 491.25,-1056.95 496.07,-1060.83 501.44,-1064.24 507.05,-1067.25"/>
<polygon fill="#63b8ff" stroke="#63b8ff" points="505.46,-1070.36 515.98,-1071.55 508.5,-1064.06 505.46,-1070.36"/>
</a>
</g>
</g>
<!-- Node6 -->
<g id="Node000006" class="node">
<title>Node6</title>
<g id="a_Node000006"><a xlink:href="../../d6/d3c/classLSM1x0A__AtParser.html#ad2839120da13e56132b95019419be1e5" target="_top" xlink:title="Waits for an event (like BOOTALERT) without sending any command. Useful for hardware reset where the ...">
<polygon fill="white" stroke="#666666" points="852.88,-938.95 712.38,-938.95 712.38,-906.95 852.88,-906.95 852.88,-938.95"/>
<text text-anchor="start" x="720.38" y="-925.45" font-family="Helvetica,sans-Serif" font-size="10.00">LSM1x0A_AtParser::waitFor</text>
<text text-anchor="middle" x="782.62" y="-913.45" font-family="Helvetica,sans-Serif" font-size="10.00">Event</text>
</a>
</g>
</g>
<!-- Node5&#45;&gt;Node6 -->
<g id="edge5_Node000005_Node000006" class="edge">
<title>Node5&#45;&gt;Node6</title>
<g id="a_edge5_Node000005_Node000006"><a xlink:title=" ">
<path fill="none" stroke="#63b8ff" d="M623.98,-922.95C647.17,-922.95 674.97,-922.95 700.71,-922.95"/>
<polygon fill="#63b8ff" stroke="#63b8ff" points="700.47,-926.45 710.47,-922.95 700.47,-919.45 700.47,-926.45"/>
</a>
</g>
</g>
<!-- Node9 -->
<g id="Node000009" class="node">
<title>Node9</title>
<g id="a_Node000009"><a xlink:href="../../d5/d72/classLSM1x0A__LoRaWAN.html#a59f781f3cfd30c11cd3973bcb10a7baa" target="_top" xlink:title="Initiates a LoRaWAN Network Join procedure. This is a blocking function until the module fires an eve...">
<polygon fill="white" stroke="#666666" points="848.38,-844.95 716.88,-844.95 716.88,-824.95 848.38,-824.95 848.38,-844.95"/>
<text text-anchor="middle" x="782.62" y="-831.45" font-family="Helvetica,sans-Serif" font-size="10.00">LSM1x0A_LoRaWAN::join</text>
</a>
</g>
</g>
<!-- Node8&#45;&gt;Node9 -->
<g id="edge8_Node000008_Node000009" class="edge">
<title>Node8&#45;&gt;Node9</title>
<g id="a_edge8_Node000008_Node000009"><a xlink:title=" ">
<path fill="none" stroke="#63b8ff" d="M645.29,-834.95C664.66,-834.95 685.6,-834.95 705.11,-834.95"/>
<polygon fill="#63b8ff" stroke="#63b8ff" points="704.9,-838.45 714.9,-834.95 704.9,-831.45 704.9,-838.45"/>
</a>
</g>
</g>
<!-- Node9&#45;&gt;Node2 -->
<g id="edge11_Node000009_Node000002" class="edge">
<title>Node9&#45;&gt;Node2</title>
<g id="a_edge11_Node000009_Node000002"><a xlink:title=" ">
<path fill="none" stroke="#63b8ff" d="M728.4,-824.5C669.77,-812.53 572.98,-791.38 491.25,-766.95 426.86,-747.69 396.98,-762.27 349.25,-714.95 290.98,-657.18 270.78,-557.13 264.2,-508.74"/>
<polygon fill="#63b8ff" stroke="#63b8ff" points="267.68,-508.33 262.97,-498.84 260.73,-509.2 267.68,-508.33"/>
</a>
</g>
</g>
<!-- Node9&#45;&gt;Node3 -->
<g id="edge10_Node000009_Node000003" class="edge">
<title>Node9&#45;&gt;Node3</title>
<g id="a_edge10_Node000009_Node000003"><a xlink:title=" ">
<path fill="none" stroke="#63b8ff" d="M728.4,-845.44C669.99,-857.21 573.57,-877.35 491.25,-897.95 483.31,-899.94 474.99,-902.14 466.78,-904.39"/>
<polygon fill="#63b8ff" stroke="#63b8ff" points="465.84,-901.01 457.15,-907.06 467.72,-907.76 465.84,-901.01"/>
</a>
</g>
</g>
<!-- Node9&#45;&gt;Node4 -->
<g id="edge9_Node000009_Node000004" class="edge">
<title>Node9&#45;&gt;Node4</title>
<g id="a_edge9_Node000009_Node000004"><a xlink:title=" ">
<path fill="none" stroke="#63b8ff" d="M805.69,-845.4C842.41,-862.79 916.73,-898 964.76,-920.75"/>
<polygon fill="#63b8ff" stroke="#63b8ff" points="962.97,-923.78 973.51,-924.9 965.97,-917.45 962.97,-923.78"/>
</a>
</g>
</g>
<!-- Node10 -->
<g id="Node000010" class="node">
<title>Node10</title>
<g id="a_Node000010"><a xlink:href="../../d5/d72/classLSM1x0A__LoRaWAN.html#a3fdd1ac318a5ad2559323e5d57e36a5e" target="_top" xlink:title="Enables or disables specific sub&#45;bands for regions supporting Channel Masks (e.g.,...">
<polygon fill="white" stroke="#666666" points="1105.5,-654.95 915.5,-654.95 915.5,-634.95 1105.5,-634.95 1105.5,-654.95"/>
<text text-anchor="middle" x="1010.5" y="-641.45" font-family="Helvetica,sans-Serif" font-size="10.00">LSM1x0A_LoRaWAN::setChannelMask</text>
</a>
</g>
</g>
<!-- Node9&#45;&gt;Node10 -->
<g id="edge12_Node000009_Node000010" class="edge">
<title>Node9&#45;&gt;Node10</title>
<g id="a_edge12_Node000009_Node000010"><a xlink:title=" ">
<path fill="none" stroke="#63b8ff" d="M842.93,-824.45C855.65,-820.55 868.55,-815.22 879.5,-807.95 936.37,-770.19 980,-699.61 999.04,-665.05"/>
<polygon fill="#63b8ff" stroke="#63b8ff" points="1001.97,-666.98 1003.62,-656.52 995.8,-663.67 1001.97,-666.98"/>
</a>
</g>
</g>
<!-- Node11 -->
<g id="Node000011" class="node">
<title>Node11</title>
<g id="a_Node000011"><a xlink:href="../../d8/d92/classLSM1x0A__Controller.html#a62476e30e50c7fe120aeb8df4b828675" target="_top" xlink:title="Synchronously/blockingly waits for an asynchronous event to occur. Useful for wrapping commands like ...">
<polygon fill="white" stroke="#666666" points="1063.5,-850.95 957.5,-850.95 957.5,-818.95 1063.5,-818.95 1063.5,-850.95"/>
<text text-anchor="start" x="965.5" y="-837.45" font-family="Helvetica,sans-Serif" font-size="10.00">LSM1x0A_Controller</text>
<text text-anchor="middle" x="1010.5" y="-825.45" font-family="Helvetica,sans-Serif" font-size="10.00">::waitForEvent</text>
</a>
</g>
</g>
<!-- Node9&#45;&gt;Node11 -->
<g id="edge15_Node000009_Node000011" class="edge">
<title>Node9&#45;&gt;Node11</title>
<g id="a_edge15_Node000009_Node000011"><a xlink:title=" ">
<path fill="none" stroke="#63b8ff" d="M848.65,-834.95C879.16,-834.95 915.4,-834.95 945.74,-834.95"/>
<polygon fill="#63b8ff" stroke="#63b8ff" points="945.55,-838.45 955.55,-834.95 945.55,-831.45 945.55,-838.45"/>
</a>
</g>
</g>
<!-- Node10&#45;&gt;Node2 -->
<g id="edge14_Node000010_Node000002" class="edge">
<title>Node10&#45;&gt;Node2</title>
<g id="a_edge14_Node000010_Node000002"><a xlink:title=" ">
<path fill="none" stroke="#63b8ff" d="M1008.72,-634.73C1003.27,-566.01 968.35,-172.04 879.5,-101.95 694.34,44.11 530.4,29.06 349.25,-121.95 297.67,-164.95 271.61,-377.61 263.82,-453.76"/>
<polygon fill="#63b8ff" stroke="#63b8ff" points="260.38,-452.96 262.87,-463.26 267.34,-453.65 260.38,-452.96"/>
</a>
</g>
</g>
<!-- Node10&#45;&gt;Node7 -->
<g id="edge13_Node000010_Node000007" class="edge">
<title>Node10&#45;&gt;Node7</title>
<g id="a_edge13_Node000010_Node000007"><a xlink:title=" ">
<path fill="none" stroke="#63b8ff" d="M1019.3,-655.28C1049.84,-695.76 1161.67,-843.95 1202.07,-897.49"/>
<polygon fill="#63b8ff" stroke="#63b8ff" points="1199.22,-899.52 1208.04,-905.4 1204.81,-895.31 1199.22,-899.52"/>
</a>
</g>
</g>
<!-- Node12&#45;&gt;Node10 -->
<g id="edge21_Node000012_Node000010" class="edge">
<title>Node12&#45;&gt;Node10</title>
<g id="a_edge21_Node000012_Node000010"><a xlink:title=" ">
<path fill="none" stroke="#63b8ff" d="M643.99,-484.29C721.65,-488.81 839.18,-498.64 879.5,-517.95 931.43,-542.82 975.38,-596.76 996.34,-625.7"/>
<polygon fill="#63b8ff" stroke="#63b8ff" points="993.27,-627.41 1001.9,-633.56 998.99,-623.37 993.27,-627.41"/>
</a>
</g>
</g>
<!-- Node13 -->
<g id="Node000013" class="node">
<title>Node13</title>
<g id="a_Node000013"><a xlink:href="../../d5/d72/classLSM1x0A__LoRaWAN.html#af0baa3db4c7fab580d6b19a9e92472f6" target="_top" xlink:title="Enables or disables Adaptive Data Rate (ADR).">
<polygon fill="white" stroke="#666666" points="858.5,-798.95 706.75,-798.95 706.75,-778.95 858.5,-778.95 858.5,-798.95"/>
<text text-anchor="middle" x="782.62" y="-785.45" font-family="Helvetica,sans-Serif" font-size="10.00">LSM1x0A_LoRaWAN::setADR</text>
</a>
</g>
</g>
<!-- Node12&#45;&gt;Node13 -->
<g id="edge17_Node000012_Node000013" class="edge">
<title>Node12&#45;&gt;Node13</title>
<g id="a_edge17_Node000012_Node000013"><a xlink:title=" ">
<path fill="none" stroke="#63b8ff" d="M572.68,-497.13C577.2,-546.58 597.9,-696.7 685.75,-769.95 689,-772.66 692.54,-775.03 696.26,-777.08"/>
<polygon fill="#63b8ff" stroke="#63b8ff" points="694.59,-780.17 705.13,-781.21 697.54,-773.82 694.59,-780.17"/>
</a>
</g>
</g>
<!-- Node14 -->
<g id="Node000014" class="node">
<title>Node14</title>
<g id="a_Node000014"><a xlink:href="../../d5/d72/classLSM1x0A__LoRaWAN.html#a5365ed1596eb84ebf1e3b33b4a10c788" target="_top" xlink:title="Sets the LoRaWAN operational frequency band.">
<polygon fill="white" stroke="#666666" points="858.88,-760.95 706.38,-760.95 706.38,-740.95 858.88,-740.95 858.88,-760.95"/>
<text text-anchor="middle" x="782.62" y="-747.45" font-family="Helvetica,sans-Serif" font-size="10.00">LSM1x0A_LoRaWAN::setBand</text>
</a>
</g>
</g>
<!-- Node12&#45;&gt;Node14 -->
<g id="edge19_Node000012_Node000014" class="edge">
<title>Node12&#45;&gt;Node14</title>
<g id="a_edge19_Node000012_Node000014"><a xlink:title=" ">
<path fill="none" stroke="#63b8ff" d="M573.76,-497.27C580.92,-542.46 607.48,-669.99 685.75,-731.95 688.91,-734.45 692.3,-736.64 695.86,-738.58"/>
<polygon fill="#63b8ff" stroke="#63b8ff" points="694.35,-741.74 704.9,-742.72 697.27,-735.37 694.35,-741.74"/>
</a>
</g>
</g>
<!-- Node15 -->
<g id="Node000015" class="node">
<title>Node15</title>
<g id="a_Node000015"><a xlink:href="../../d5/d72/classLSM1x0A__LoRaWAN.html#a9d9285c43414337a0ccb3a6cd7ca06e6" target="_top" xlink:title="Configures the number of retries for Confirmed uplinks.">
<polygon fill="white" stroke="#666666" points="864.88,-722.95 700.38,-722.95 700.38,-690.95 864.88,-690.95 864.88,-722.95"/>
<text text-anchor="start" x="708.38" y="-709.45" font-family="Helvetica,sans-Serif" font-size="10.00">LSM1x0A_LoRaWAN::setConfirm</text>
<text text-anchor="middle" x="782.62" y="-697.45" font-family="Helvetica,sans-Serif" font-size="10.00">Retry</text>
</a>
</g>
</g>
<!-- Node12&#45;&gt;Node15 -->
<g id="edge22_Node000012_Node000015" class="edge">
<title>Node12&#45;&gt;Node15</title>
<g id="a_edge22_Node000012_Node000015"><a xlink:title=" ">
<path fill="none" stroke="#63b8ff" d="M576.02,-497.42C587.48,-535.98 621.42,-632.59 685.75,-681.95 687.11,-682.99 688.52,-684 689.96,-684.96"/>
<polygon fill="#63b8ff" stroke="#63b8ff" points="688.18,-687.98 698.59,-689.96 691.69,-681.92 688.18,-687.98"/>
</a>
</g>
</g>
<!-- Node16 -->
<g id="Node000016" class="node">
<title>Node16</title>
<g id="a_Node000016"><a xlink:href="../../d5/d72/classLSM1x0A__LoRaWAN.html#a56345ceeafa0b9059d6de4e69eddc82e" target="_top" xlink:title="Sets the Data Rate (DR) of the module.">
<polygon fill="white" stroke="#666666" points="868.62,-672.95 696.62,-672.95 696.62,-652.95 868.62,-652.95 868.62,-672.95"/>
<text text-anchor="middle" x="782.62" y="-659.45" font-family="Helvetica,sans-Serif" font-size="10.00">LSM1x0A_LoRaWAN::setDataRate</text>
</a>
</g>
</g>
<!-- Node12&#45;&gt;Node16 -->
<g id="edge24_Node000012_Node000016" class="edge">
<title>Node12&#45;&gt;Node16</title>
<g id="a_edge24_Node000012_Node000016"><a xlink:title=" ">
<path fill="none" stroke="#63b8ff" d="M577.93,-497.26C591.99,-530.68 628.86,-606.87 685.75,-643.95 687.89,-645.34 690.1,-646.63 692.38,-647.84"/>
<polygon fill="#63b8ff" stroke="#63b8ff" points="690.8,-650.96 701.35,-651.92 693.7,-644.59 690.8,-650.96"/>
</a>
</g>
</g>
<!-- Node17 -->
<g id="Node000017" class="node">
<title>Node17</title>
<g id="a_Node000017"><a xlink:href="../../d5/d72/classLSM1x0A__LoRaWAN.html#a8494083816ab885cb07fc3b08de029f4" target="_top" xlink:title="Sets the LoRaWAN Device Address (DevAddr) for ABP mode.">
<polygon fill="white" stroke="#666666" points="866.75,-634.95 698.5,-634.95 698.5,-614.95 866.75,-614.95 866.75,-634.95"/>
<text text-anchor="middle" x="782.62" y="-621.45" font-family="Helvetica,sans-Serif" font-size="10.00">LSM1x0A_LoRaWAN::setDevAddr</text>
</a>
</g>
</g>
<!-- Node12&#45;&gt;Node17 -->
<g id="edge26_Node000012_Node000017" class="edge">
<title>Node12&#45;&gt;Node17</title>
<g id="a_edge26_Node000012_Node000017"><a xlink:title=" ">
<path fill="none" stroke="#63b8ff" d="M581.49,-497.41C598.97,-524.7 637.85,-578.97 685.75,-605.95 688.59,-607.55 691.55,-609.02 694.58,-610.36"/>
<polygon fill="#63b8ff" stroke="#63b8ff" points="693.17,-613.57 703.76,-613.93 695.71,-607.04 693.17,-613.57"/>
</a>
</g>
</g>
<!-- Node18 -->
<g id="Node000018" class="node">
<title>Node18</title>
<g id="a_Node000018"><a xlink:href="../../d5/d72/classLSM1x0A__LoRaWAN.html#ad320634e52d7ea907043cc50dd37c5b0" target="_top" xlink:title="Sets the LoRaWAN Device EUI (DevEUI).">
<polygon fill="white" stroke="#666666" points="865.25,-596.95 700,-596.95 700,-576.95 865.25,-576.95 865.25,-596.95"/>
<text text-anchor="middle" x="782.62" y="-583.45" font-family="Helvetica,sans-Serif" font-size="10.00">LSM1x0A_LoRaWAN::setDevEUI</text>
</a>
</g>
</g>
<!-- Node12&#45;&gt;Node18 -->
<g id="edge28_Node000012_Node000018" class="edge">
<title>Node12&#45;&gt;Node18</title>
<g id="a_edge28_Node000012_Node000018"><a xlink:title=" ">
<path fill="none" stroke="#63b8ff" d="M587.7,-497.21C608.52,-517.12 646.65,-550.34 685.75,-567.95 690.01,-569.87 694.47,-571.6 699.03,-573.15"/>
<polygon fill="#63b8ff" stroke="#63b8ff" points="697.78,-576.43 708.37,-576.02 699.84,-569.74 697.78,-576.43"/>
</a>
</g>
</g>
<!-- Node19 -->
<g id="Node000019" class="node">
<title>Node19</title>
<g id="a_Node000019"><a xlink:href="../../d5/d72/classLSM1x0A__LoRaWAN.html#a031023b0d2dd5db3c51c2db6ae7801cc" target="_top" xlink:title="Enables or disables the Duty Cycle limitation (EU regions mostly).">
<polygon fill="white" stroke="#666666" points="858.12,-558.95 707.12,-558.95 707.12,-526.95 858.12,-526.95 858.12,-558.95"/>
<text text-anchor="start" x="715.12" y="-545.45" font-family="Helvetica,sans-Serif" font-size="10.00">LSM1x0A_LoRaWAN::setDuty</text>
<text text-anchor="middle" x="782.62" y="-533.45" font-family="Helvetica,sans-Serif" font-size="10.00">Cycle</text>
</a>
</g>
</g>
<!-- Node12&#45;&gt;Node19 -->
<g id="edge30_Node000012_Node000019" class="edge">
<title>Node12&#45;&gt;Node19</title>
<g id="a_edge30_Node000012_Node000019"><a xlink:title=" ">
<path fill="none" stroke="#63b8ff" d="M627.26,-497.4C654.2,-505.35 686.73,-514.95 714.98,-523.28"/>
<polygon fill="#63b8ff" stroke="#63b8ff" points="713.94,-526.62 724.52,-526.1 715.92,-519.91 713.94,-526.62"/>
</a>
</g>
</g>
<!-- Node20 -->
<g id="Node000020" class="node">
<title>Node20</title>
<g id="a_Node000020"><a xlink:href="../../d5/d72/classLSM1x0A__LoRaWAN.html#a6b179d5825c49af0f391dfc539912f64" target="_top" xlink:title="Sets the delay for the Join1 receive window.">
<polygon fill="white" stroke="#666666" points="859.25,-470.95 706,-470.95 706,-438.95 859.25,-438.95 859.25,-470.95"/>
<text text-anchor="start" x="714" y="-457.45" font-family="Helvetica,sans-Serif" font-size="10.00">LSM1x0A_LoRaWAN::setJoin1</text>
<text text-anchor="middle" x="782.62" y="-445.45" font-family="Helvetica,sans-Serif" font-size="10.00">Delay</text>
</a>
</g>
</g>
<!-- Node12&#45;&gt;Node20 -->
<g id="edge32_Node000012_Node000020" class="edge">
<title>Node12&#45;&gt;Node20</title>
<g id="a_edge32_Node000012_Node000020"><a xlink:title=" ">
<path fill="none" stroke="#63b8ff" d="M644.11,-471.96C660.46,-469.94 677.97,-467.77 694.83,-465.69"/>
<polygon fill="#63b8ff" stroke="#63b8ff" points="694.8,-469.22 704.3,-464.52 693.94,-462.27 694.8,-469.22"/>
</a>
</g>
</g>
<!-- Node21 -->
<g id="Node000021" class="node">
<title>Node21</title>
<g id="a_Node000021"><a xlink:href="../../d5/d72/classLSM1x0A__LoRaWAN.html#a4545d0caad41558cdb9bae8286b104d8" target="_top" xlink:title="Sets the delay for the Join2 receive window.">
<polygon fill="white" stroke="#666666" points="859.25,-420.95 706,-420.95 706,-388.95 859.25,-388.95 859.25,-420.95"/>
<text text-anchor="start" x="714" y="-407.45" font-family="Helvetica,sans-Serif" font-size="10.00">LSM1x0A_LoRaWAN::setJoin2</text>
<text text-anchor="middle" x="782.62" y="-395.45" font-family="Helvetica,sans-Serif" font-size="10.00">Delay</text>
</a>
</g>
</g>
<!-- Node12&#45;&gt;Node21 -->
<g id="edge34_Node000012_Node000021" class="edge">
<title>Node12&#45;&gt;Node21</title>
<g id="a_edge34_Node000012_Node000021"><a xlink:title=" ">
<path fill="none" stroke="#63b8ff" d="M604.41,-464.52C626.92,-453.71 657.67,-439.8 685.75,-429.95 691.04,-428.09 696.54,-426.3 702.11,-424.59"/>
<polygon fill="#63b8ff" stroke="#63b8ff" points="702.82,-428.03 711.41,-421.84 700.83,-421.32 702.82,-428.03"/>
</a>
</g>
</g>
<!-- Node22 -->
<g id="Node000022" class="node">
<title>Node22</title>
<g id="a_Node000022"><a xlink:href="../../d5/d72/classLSM1x0A__LoRaWAN.html#a06bd50723ec1eb7e144c9141b2ec86fc" target="_top" xlink:title="Sets the LoRaWAN Network ID (NetID).">
<polygon fill="white" stroke="#666666" points="863,-370.95 702.25,-370.95 702.25,-350.95 863,-350.95 863,-370.95"/>
<text text-anchor="middle" x="782.62" y="-357.45" font-family="Helvetica,sans-Serif" font-size="10.00">LSM1x0A_LoRaWAN::setNwkID</text>
</a>
</g>
</g>
<!-- Node12&#45;&gt;Node22 -->
<g id="edge36_Node000012_Node000022" class="edge">
<title>Node12&#45;&gt;Node22</title>
<g id="a_edge36_Node000012_Node000022"><a xlink:title=" ">
<path fill="none" stroke="#63b8ff" d="M584.76,-464.74C604.35,-441.98 643.28,-400.98 685.75,-379.95 689.43,-378.13 693.26,-376.48 697.2,-374.99"/>
<polygon fill="#63b8ff" stroke="#63b8ff" points="698.01,-378.41 706.36,-371.9 695.77,-371.78 698.01,-378.41"/>
</a>
</g>
</g>
<!-- Node23 -->
<g id="Node000023" class="node">
<title>Node23</title>
<g id="a_Node000023"><a xlink:href="../../d5/d72/classLSM1x0A__LoRaWAN.html#aa70ada64d28ecca216bb62268e502adf" target="_top" xlink:title="Sets the delay for the RX1 receive window.">
<polygon fill="white" stroke="#666666" points="869.38,-332.95 695.88,-332.95 695.88,-312.95 869.38,-312.95 869.38,-332.95"/>
<text text-anchor="middle" x="782.62" y="-319.45" font-family="Helvetica,sans-Serif" font-size="10.00">LSM1x0A_LoRaWAN::setRx1Delay</text>
</a>
</g>
</g>
<!-- Node12&#45;&gt;Node23 -->
<g id="edge38_Node000012_Node000023" class="edge">
<title>Node12&#45;&gt;Node23</title>
<g id="a_edge38_Node000012_Node000023"><a xlink:title=" ">
<path fill="none" stroke="#63b8ff" d="M579.95,-464.54C596.15,-434.88 634.55,-372.58 685.75,-341.95 688.23,-340.46 690.81,-339.09 693.46,-337.82"/>
<polygon fill="#63b8ff" stroke="#63b8ff" points="694.71,-341.09 702.59,-334.02 692.01,-334.63 694.71,-341.09"/>
</a>
</g>
</g>
<!-- Node24 -->
<g id="Node000024" class="node">
<title>Node24</title>
<g id="a_Node000024"><a xlink:href="../../d5/d72/classLSM1x0A__LoRaWAN.html#a2cf4eff0181b6107d082bccefa24217b" target="_top" xlink:title="Sets the Data Rate (DR) specifically for the RX2 window.">
<polygon fill="white" stroke="#666666" points="877.62,-294.95 687.62,-294.95 687.62,-274.95 877.62,-274.95 877.62,-294.95"/>
<text text-anchor="middle" x="782.62" y="-281.45" font-family="Helvetica,sans-Serif" font-size="10.00">LSM1x0A_LoRaWAN::setRx2DataRate</text>
</a>
</g>
</g>
<!-- Node12&#45;&gt;Node24 -->
<g id="edge40_Node000012_Node000024" class="edge">
<title>Node12&#45;&gt;Node24</title>
<g id="a_edge40_Node000012_Node000024"><a xlink:title=" ">
<path fill="none" stroke="#63b8ff" d="M577.02,-464.61C589.9,-429.11 625.54,-344.84 685.75,-303.95 687.72,-302.61 689.77,-301.36 691.88,-300.19"/>
<polygon fill="#63b8ff" stroke="#63b8ff" points="693.21,-303.43 700.73,-295.97 690.2,-297.11 693.21,-303.43"/>
</a>
</g>
</g>
<!-- Node25 -->
<g id="Node000025" class="node">
<title>Node25</title>
<g id="a_Node000025"><a xlink:href="../../d5/d72/classLSM1x0A__LoRaWAN.html#a42d2137b475b57e19d891a5f1ac93221" target="_top" xlink:title="Sets the delay for the RX2 receive window.">
<polygon fill="white" stroke="#666666" points="869.38,-256.95 695.88,-256.95 695.88,-236.95 869.38,-236.95 869.38,-256.95"/>
<text text-anchor="middle" x="782.62" y="-243.45" font-family="Helvetica,sans-Serif" font-size="10.00">LSM1x0A_LoRaWAN::setRx2Delay</text>
</a>
</g>
</g>
<!-- Node12&#45;&gt;Node25 -->
<g id="edge42_Node000012_Node000025" class="edge">
<title>Node12&#45;&gt;Node25</title>
<g id="a_edge42_Node000012_Node000025"><a xlink:title=" ">
<path fill="none" stroke="#63b8ff" d="M575.09,-464.6C584.93,-423.89 616.36,-317.5 685.75,-265.95 687.34,-264.76 688.99,-263.65 690.68,-262.6"/>
<polygon fill="#63b8ff" stroke="#63b8ff" points="692.26,-265.72 699.48,-257.97 689,-259.53 692.26,-265.72"/>
</a>
</g>
</g>
<!-- Node26 -->
<g id="Node000026" class="node">
<title>Node26</title>
<g id="a_Node000026"><a xlink:href="../../d5/d72/classLSM1x0A__LoRaWAN.html#a689f7dfda1dfeae11ea397c2ddf2ad37" target="_top" xlink:title="Sets the precise frequency for the RX2 window.">
<polygon fill="white" stroke="#666666" points="879.5,-218.95 685.75,-218.95 685.75,-198.95 879.5,-198.95 879.5,-218.95"/>
<text text-anchor="middle" x="782.62" y="-205.45" font-family="Helvetica,sans-Serif" font-size="10.00">LSM1x0A_LoRaWAN::setRx2Frequency</text>
</a>
</g>
</g>
<!-- Node12&#45;&gt;Node26 -->
<g id="edge44_Node000012_Node000026" class="edge">
<title>Node12&#45;&gt;Node26</title>
<g id="a_edge44_Node000012_Node000026"><a xlink:title=" ">
<path fill="none" stroke="#63b8ff" d="M573.71,-464.5C580.76,-418.96 607.06,-290.44 685.75,-227.95 687.08,-226.89 688.45,-225.89 689.86,-224.94"/>
<polygon fill="#63b8ff" stroke="#63b8ff" points="691.36,-228.11 698.32,-220.12 687.9,-222.03 691.36,-228.11"/>
</a>
</g>
</g>
<!-- Node27 -->
<g id="Node000027" class="node">
<title>Node27</title>
<g id="a_Node000027"><a xlink:href="../../d5/d72/classLSM1x0A__LoRaWAN.html#a1df10d7ae6bf45b537d28d3d5c4b88d7" target="_top" xlink:title="Sets the transmission power index.">
<polygon fill="white" stroke="#666666" points="867.12,-180.95 698.12,-180.95 698.12,-160.95 867.12,-160.95 867.12,-180.95"/>
<text text-anchor="middle" x="782.62" y="-167.45" font-family="Helvetica,sans-Serif" font-size="10.00">LSM1x0A_LoRaWAN::setTxPower</text>
</a>
</g>
</g>
<!-- Node12&#45;&gt;Node27 -->
<g id="edge46_Node000012_Node000027" class="edge">
<title>Node12&#45;&gt;Node27</title>
<g id="a_edge46_Node000012_Node000027"><a xlink:title=" ">
<path fill="none" stroke="#63b8ff" d="M572.64,-464.65C577.05,-414.88 597.46,-263.73 685.75,-189.95 686.89,-189 688.05,-188.09 689.25,-187.23"/>
<polygon fill="#63b8ff" stroke="#63b8ff" points="690.93,-190.3 697.68,-182.14 687.31,-184.31 690.93,-190.3"/>
</a>
</g>
</g>
<!-- Node28 -->
<g id="Node000028" class="node">
<title>Node28</title>
<g id="a_Node000028"><a xlink:href="../../d5/d72/classLSM1x0A__LoRaWAN.html#a059fd6a9356c4ecadd5a98294da5952d" target="_top" xlink:title="Configures the number of repetitions for Unconfirmed uplinks.">
<polygon fill="white" stroke="#666666" points="870.12,-142.95 695.12,-142.95 695.12,-110.95 870.12,-110.95 870.12,-142.95"/>
<text text-anchor="start" x="703.12" y="-129.45" font-family="Helvetica,sans-Serif" font-size="10.00">LSM1x0A_LoRaWAN::setUnconfirm</text>
<text text-anchor="middle" x="782.62" y="-117.45" font-family="Helvetica,sans-Serif" font-size="10.00">Retry</text>
</a>
</g>
</g>
<!-- Node12&#45;&gt;Node28 -->
<g id="edge48_Node000012_Node000028" class="edge">
<title>Node12&#45;&gt;Node28</title>
<g id="a_edge48_Node000012_Node000028"><a xlink:title=" ">
<path fill="none" stroke="#63b8ff" d="M572.02,-464.75C574.65,-411.46 590.48,-239.96 685.75,-151.95 686.52,-151.23 687.32,-150.54 688.12,-149.86"/>
<polygon fill="#63b8ff" stroke="#63b8ff" points="689.97,-152.84 696.12,-144.21 685.94,-147.12 689.97,-152.84"/>
</a>
</g>
</g>
<!-- Node13&#45;&gt;Node2 -->
<g id="edge18_Node000013_Node000002" class="edge">
<title>Node13&#45;&gt;Node2</title>
<g id="a_edge18_Node000013_Node000002"><a xlink:title=" ">
<path fill="none" stroke="#63b8ff" d="M707.61,-778.49C598.39,-761.69 401.33,-725.64 349.25,-677.95 298.6,-631.57 275.37,-550.58 266.25,-508.34"/>
<polygon fill="#63b8ff" stroke="#63b8ff" points="269.73,-507.86 264.3,-498.76 262.87,-509.26 269.73,-507.86"/>
</a>
</g>
</g>
<!-- Node14&#45;&gt;Node2 -->
<g id="edge20_Node000014_Node000002" class="edge">
<title>Node14&#45;&gt;Node2</title>
<g id="a_edge20_Node000014_Node000002"><a xlink:title=" ">
<path fill="none" stroke="#63b8ff" d="M709.98,-740.46C601.92,-723.42 404.01,-687.03 349.25,-641.95 305.98,-606.32 280.62,-543.61 268.99,-507.88"/>
<polygon fill="#63b8ff" stroke="#63b8ff" points="272.46,-507.24 266.14,-498.74 265.77,-509.32 272.46,-507.24"/>
</a>
</g>
</g>
<!-- Node15&#45;&gt;Node2 -->
<g id="edge23_Node000015_Node000002" class="edge">
<title>Node15&#45;&gt;Node2</title>
<g id="a_edge23_Node000015_Node000002"><a xlink:title=" ">
<path fill="none" stroke="#63b8ff" d="M699.99,-696.13C590.58,-680.29 403.82,-648.15 349.25,-606.95 314.13,-580.43 287.74,-535.78 273.4,-507.37"/>
<polygon fill="#63b8ff" stroke="#63b8ff" points="276.71,-506.16 269.17,-498.71 270.42,-509.23 276.71,-506.16"/>
</a>
</g>
</g>
<!-- Node16&#45;&gt;Node2 -->
<g id="edge25_Node000016_Node000002" class="edge">
<title>Node16&#45;&gt;Node2</title>
<g id="a_edge25_Node000016_Node000002"><a xlink:title=" ">
<path fill="none" stroke="#63b8ff" d="M696.52,-660.63C604.81,-654.66 457.46,-634.71 349.25,-569.95 321.57,-553.38 296.39,-526.09 280.13,-506.09"/>
<polygon fill="#63b8ff" stroke="#63b8ff" points="282.99,-504.06 274.04,-498.39 277.5,-508.41 282.99,-504.06"/>
</a>
</g>
</g>
<!-- Node17&#45;&gt;Node2 -->
<g id="edge27_Node000017_Node000002" class="edge">
<title>Node17&#45;&gt;Node2</title>
<g id="a_edge27_Node000017_Node000002"><a xlink:title=" ">
<path fill="none" stroke="#63b8ff" d="M698.27,-618.09C609.01,-608.52 464.65,-586.49 349.25,-537.95 328.49,-529.22 307.24,-515.61 290.83,-503.88"/>
<polygon fill="#63b8ff" stroke="#63b8ff" points="293.12,-501.22 282.98,-498.14 288.99,-506.87 293.12,-501.22"/>
</a>
</g>
</g>
<!-- Node18&#45;&gt;Node2 -->
<g id="edge29_Node000018_Node000002" class="edge">
<title>Node18&#45;&gt;Node2</title>
<g id="a_edge29_Node000018_Node000002"><a xlink:title=" ">
<path fill="none" stroke="#63b8ff" d="M699.87,-576.91C612.28,-565.2 469.59,-543.35 349.25,-511.95 337.73,-508.94 325.57,-505.11 314.09,-501.17"/>
<polygon fill="#63b8ff" stroke="#63b8ff" points="315.35,-497.9 304.76,-497.88 313.03,-504.5 315.35,-497.9"/>
</a>
</g>
</g>
<!-- Node19&#45;&gt;Node2 -->
<g id="edge31_Node000019_Node000002" class="edge">
<title>Node19&#45;&gt;Node2</title>
<g id="a_edge31_Node000019_Node000002"><a xlink:title=" ">
<path fill="none" stroke="#63b8ff" d="M706.89,-534.04C604.21,-521.81 421.31,-500.02 324.85,-488.53"/>
<polygon fill="#63b8ff" stroke="#63b8ff" points="325.37,-485.06 315.03,-487.36 324.55,-492.01 325.37,-485.06"/>
</a>
</g>
</g>
<!-- Node20&#45;&gt;Node2 -->
<g id="edge33_Node000020_Node000002" class="edge">
<title>Node20&#45;&gt;Node2</title>
<g id="a_edge33_Node000020_Node000002"><a xlink:title=" ">
<path fill="none" stroke="#63b8ff" d="M705.75,-453.04C647.12,-452.09 563.98,-451.88 491.25,-455.95 434.87,-459.1 371.05,-466.33 324.97,-472.21"/>
<polygon fill="#63b8ff" stroke="#63b8ff" points="324.62,-468.72 315.15,-473.48 325.51,-475.67 324.62,-468.72"/>
</a>
</g>
</g>
<!-- Node21&#45;&gt;Node2 -->
<g id="edge35_Node000021_Node000002" class="edge">
<title>Node21&#45;&gt;Node2</title>
<g id="a_edge35_Node000021_Node000002"><a xlink:title=" ">
<path fill="none" stroke="#63b8ff" d="M705.63,-409.76C618.78,-416.18 472.71,-429.77 349.25,-454.95 340.58,-456.72 331.53,-458.94 322.67,-461.34"/>
<polygon fill="#63b8ff" stroke="#63b8ff" points="321.73,-457.97 313.05,-464.05 323.63,-464.71 321.73,-457.97"/>
</a>
</g>
</g>
<!-- Node22&#45;&gt;Node2 -->
<g id="edge37_Node000022_Node000002" class="edge">
<title>Node22&#45;&gt;Node2</title>
<g id="a_edge37_Node000022_Node000002"><a xlink:title=" ">
<path fill="none" stroke="#63b8ff" d="M701.96,-366.22C613.7,-373.87 468.13,-391.94 349.25,-432.95 330.76,-439.33 311.55,-449.35 295.81,-458.6"/>
<polygon fill="#63b8ff" stroke="#63b8ff" points="294.05,-455.57 287.3,-463.73 297.67,-461.56 294.05,-455.57"/>
</a>
</g>
</g>
<!-- Node23&#45;&gt;Node2 -->
<g id="edge39_Node000023_Node000002" class="edge">
<title>Node23&#45;&gt;Node2</title>
<g id="a_edge39_Node000023_Node000002"><a xlink:title=" ">
<path fill="none" stroke="#63b8ff" d="M695.49,-323.48C604.54,-327.36 459.35,-343.2 349.25,-400.95 323.01,-414.71 298.53,-438.19 282.09,-456.16"/>
<polygon fill="#63b8ff" stroke="#63b8ff" points="279.73,-453.54 275.7,-463.34 284.96,-458.2 279.73,-453.54"/>
</a>
</g>
</g>
<!-- Node24&#45;&gt;Node2 -->
<g id="edge41_Node000024_Node000002" class="edge">
<title>Node24&#45;&gt;Node2</title>
<g id="a_edge41_Node000024_Node000002"><a xlink:title=" ">
<path fill="none" stroke="#63b8ff" d="M687.4,-278.72C593.85,-277.21 450.19,-287.94 349.25,-355.95 312.75,-380.54 286.62,-425.71 272.73,-454.49"/>
<polygon fill="#63b8ff" stroke="#63b8ff" points="269.69,-452.73 268.65,-463.27 276.04,-455.68 269.69,-452.73"/>
</a>
</g>
</g>
<!-- Node25&#45;&gt;Node2 -->
<g id="edge43_Node000025_Node000002" class="edge">
<title>Node25&#45;&gt;Node2</title>
<g id="a_edge43_Node000025_Node000002"><a xlink:title=" ">
<path fill="none" stroke="#63b8ff" d="M711.85,-236.49C619.08,-226.6 454.59,-223.58 349.25,-304.95 300.61,-342.51 276.88,-414.19 267.06,-453.49"/>
<polygon fill="#63b8ff" stroke="#63b8ff" points="263.69,-452.56 264.8,-463.1 270.5,-454.17 263.69,-452.56"/>
</a>
</g>
</g>
<!-- Node26&#45;&gt;Node2 -->
<g id="edge45_Node000026_Node000002" class="edge">
<title>Node26&#45;&gt;Node2</title>
<g id="a_edge45_Node000026_Node000002"><a xlink:title=" ">
<path fill="none" stroke="#63b8ff" d="M685.42,-205.86C573.97,-204.31 399.25,-208.72 349.25,-248.95 285.36,-300.36 267.83,-403.6 263.04,-453.16"/>
<polygon fill="#63b8ff" stroke="#63b8ff" points="259.56,-452.77 262.2,-463.03 266.53,-453.36 259.56,-452.77"/>
</a>
</g>
</g>
<!-- Node27&#45;&gt;Node2 -->
<g id="edge47_Node000027_Node000002" class="edge">
<title>Node27&#45;&gt;Node2</title>
<g id="a_edge47_Node000027_Node000002"><a xlink:title=" ">
<path fill="none" stroke="#63b8ff" d="M734.92,-160.48C648.49,-144.01 462.14,-122.56 349.25,-212.95 274.44,-272.85 262.58,-397.78 261.15,-453.31"/>
<polygon fill="#63b8ff" stroke="#63b8ff" points="257.65,-453.1 261,-463.15 264.65,-453.21 257.65,-453.1"/>
</a>
</g>
</g>
<!-- Node28&#45;&gt;Node2 -->
<g id="edge49_Node000028_Node000002" class="edge">
<title>Node28&#45;&gt;Node2</title>
<g id="a_edge49_Node000028_Node000002"><a xlink:title=" ">
<path fill="none" stroke="#63b8ff" d="M694.74,-121.55C583.65,-116.57 399.62,-115.39 349.25,-157.95 303.4,-196.69 274.25,-383.18 264.7,-453.79"/>
<polygon fill="#63b8ff" stroke="#63b8ff" points="261.28,-452.95 263.44,-463.32 268.22,-453.87 261.28,-452.95"/>
</a>
</g>
</g>
<!-- Node30&#45;&gt;Node31 -->
<g id="edge52_Node000030_Node000031" class="edge">
<title>Node30&#45;&gt;Node31</title>
<g id="a_edge52_Node000030_Node000031"><a xlink:title=" ">
<path fill="none" stroke="#63b8ff" d="M623.98,-1092.44C642.14,-1094.34 663.11,-1096.54 683.72,-1098.7"/>
<polygon fill="#63b8ff" stroke="#63b8ff" points="683.29,-1102.17 693.6,-1099.73 684.02,-1095.21 683.29,-1102.17"/>
</a>
</g>
</g>
<!-- Node32 -->
<g id="Node000032" class="node">
<title>Node32</title>
<g id="a_Node000032"><a xlink:href="../../d6/d3c/classLSM1x0A__AtParser.html#a0ba6f927c54fceece22c17773d3f2600" target="_top" xlink:title="Sends a command and extracts a value from the response.">
<polygon fill="white" stroke="#666666" points="1097.62,-1124.95 923.38,-1124.95 923.38,-1092.95 1097.62,-1092.95 1097.62,-1124.95"/>
<text text-anchor="start" x="931.38" y="-1111.45" font-family="Helvetica,sans-Serif" font-size="10.00">LSM1x0A_AtParser::sendCommand</text>
<text text-anchor="middle" x="1010.5" y="-1099.45" font-family="Helvetica,sans-Serif" font-size="10.00">WithResponse</text>
</a>
</g>
</g>
<!-- Node31&#45;&gt;Node32 -->
<g id="edge53_Node000031_Node000032" class="edge">
<title>Node31&#45;&gt;Node32</title>
<g id="a_edge53_Node000031_Node000032"><a xlink:title=" ">
<path fill="none" stroke="#63b8ff" d="M869.99,-1108.95C883.74,-1108.95 898.06,-1108.95 912.05,-1108.95"/>
<polygon fill="#63b8ff" stroke="#63b8ff" points="911.67,-1112.45 921.67,-1108.95 911.67,-1105.45 911.67,-1112.45"/>
</a>
</g>
</g>
<!-- Node33 -->
<g id="Node000033" class="node">
<title>Node33</title>
<g id="a_Node000033"><a xlink:href="../../d5/d8b/classUartDriver.html#a5d0f22e8867eebe99273078bb19bd23d" target="_top" xlink:title="Sends data through UART.">
<polygon fill="white" stroke="#666666" points="1272.25,-1118.95 1163.25,-1118.95 1163.25,-1098.95 1272.25,-1098.95 1272.25,-1118.95"/>
<text text-anchor="middle" x="1217.75" y="-1105.45" font-family="Helvetica,sans-Serif" font-size="10.00">UartDriver::sendData</text>
</a>
</g>
</g>
<!-- Node32&#45;&gt;Node33 -->
<g id="edge54_Node000032_Node000033" class="edge">
<title>Node32&#45;&gt;Node33</title>
<g id="a_edge54_Node000032_Node000033"><a xlink:title=" ">
<path fill="none" stroke="#63b8ff" d="M1097.95,-1108.95C1115.84,-1108.95 1134.41,-1108.95 1151.39,-1108.95"/>
<polygon fill="#63b8ff" stroke="#63b8ff" points="1151.36,-1112.45 1161.36,-1108.95 1151.36,-1105.45 1151.36,-1112.45"/>
</a>
</g>
</g>
</g>
</svg>
