<?xml version="1.0" encoding="UTF-8" standalone="no"?>
<!DOCTYPE svg PUBLIC "-//W3C//DTD SVG 1.1//EN"
 "http://www.w3.org/Graphics/SVG/1.1/DTD/svg11.dtd">
<!-- Generated by graphviz version 12.2.1 (20241206.2353)
 -->
<!-- Title: LSM1x0A_LoRaWAN::setADR Pages: 1 -->
<svg width="1283pt" height="1064pt"
 viewBox="0.00 0.00 1282.50 1064.06" xmlns="http://www.w3.org/2000/svg" xmlns:xlink="http://www.w3.org/1999/xlink">
<g id="graph0" class="graph" transform="scale(1 1) rotate(0) translate(4 1060.06)">
<title>LSM1x0A_LoRaWAN::setADR</title>
<!-- Node1 -->
<g id="Node000001" class="node">
<title>Node1</title>
<g id="a_Node000001"><a xlink:title="Enables or disables Adaptive Data Rate (ADR).">
<polygon fill="#999999" stroke="#666666" points="151.75,-347.99 0,-347.99 0,-327.99 151.75,-327.99 151.75,-347.99"/>
<text text-anchor="middle" x="75.88" y="-334.49" font-family="Helvetica,sans-Serif" font-size="10.00">LSM1x0A_LoRaWAN::setADR</text>
</a>
</g>
</g>
<!-- Node2 -->
<g id="Node000002" class="node">
<title>Node2</title>
<g id="a_Node000002"><a xlink:href="../../d8/d92/classLSM1x0A__Controller.html#afd7d92e60ed6fdae696a955cdbe0ed8c" target="_top" xlink:title="Sends any AT command to the module, returning error if it fails. Internally uses the LsmAtParser logi...">
<polygon fill="white" stroke="#666666" points="293.75,-447.99 187.75,-447.99 187.75,-415.99 293.75,-415.99 293.75,-447.99"/>
<text text-anchor="start" x="195.75" y="-434.49" font-family="Helvetica,sans-Serif" font-size="10.00">LSM1x0A_Controller</text>
<text text-anchor="middle" x="240.75" y="-422.49" font-family="Helvetica,sans-Serif" font-size="10.00">::sendCommand</text>
</a>
</g>
</g>
<!-- Node1&#45;&gt;Node2 -->
<g id="edge1_Node000001_Node000002" class="edge">
<title>Node1&#45;&gt;Node2</title>
<g id="a_edge1_Node000001_Node000002"><a xlink:title=" ">
<path fill="none" stroke="#63b8ff" d="M94.93,-348.41C120.45,-363.14 167.7,-390.41 201.29,-409.8"/>
<polygon fill="#63b8ff" stroke="#63b8ff" points="199.51,-412.81 209.92,-414.78 203.01,-406.75 199.51,-412.81"/>
</a>
</g>
</g>
<!-- Node3 -->
<g id="Node000003" class="node">
<title>Node3</title>
<g id="a_Node000003"><a xlink:href="../../d8/d92/classLSM1x0A__Controller.html#abb0eb380daa3dfb7acffb483c5db8e2b" target="_top" xlink:title="Executes the recovery protocol. First Soft&#45;Reset (ATZ), then Hard&#45;Reset if there is a pin.">
<polygon fill="white" stroke="#666666" points="435.75,-864.99 329.75,-864.99 329.75,-832.99 435.75,-832.99 435.75,-864.99"/>
<text text-anchor="start" x="337.75" y="-851.49" font-family="Helvetica,sans-Serif" font-size="10.00">LSM1x0A_Controller</text>
<text text-anchor="middle" x="382.75" y="-839.49" font-family="Helvetica,sans-Serif" font-size="10.00">::recoverModule</text>
</a>
</g>
</g>
<!-- Node2&#45;&gt;Node3 -->
<g id="edge2_Node000002_Node000003" class="edge">
<title>Node2&#45;&gt;Node3</title>
<g id="a_edge2_Node000002_Node000003"><a xlink:title=" ">
<path fill="none" stroke="#63b8ff" d="M245.79,-448.44C257.16,-493.97 291.09,-625.29 329.75,-730.99 341.5,-763.12 357.75,-798.93 368.94,-822.59"/>
<polygon fill="#63b8ff" stroke="#63b8ff" points="365.72,-823.97 373.19,-831.48 372.04,-820.95 365.72,-823.97"/>
</a>
</g>
</g>
<!-- Node30 -->
<g id="Node000030" class="node">
<title>Node30</title>
<g id="a_Node000030"><a xlink:href="../../d6/d3c/classLSM1x0A__AtParser.html#a29b53c521974387ba6c03afadfaffa4a" target="_top" xlink:title="Sends a simple command and waits for OK/ERROR. Example: sendCommand(&quot;AT+JOIN&quot;);.">
<polygon fill="white" stroke="#666666" points="850.25,-706.99 676,-706.99 676,-686.99 850.25,-686.99 850.25,-706.99"/>
<text text-anchor="middle" x="763.12" y="-693.49" font-family="Helvetica,sans-Serif" font-size="10.00">LSM1x0A_AtParser::sendCommand</text>
</a>
</g>
</g>
<!-- Node2&#45;&gt;Node30 -->
<g id="edge54_Node000002_Node000030" class="edge">
<title>Node2&#45;&gt;Node30</title>
<g id="a_edge54_Node000002_Node000030"><a xlink:title=" ">
<path fill="none" stroke="#63b8ff" d="M245.69,-448.44C254.71,-482.67 280.01,-562.11 329.75,-606.99 421.06,-689.38 567.68,-703.86 664.47,-703.18"/>
<polygon fill="#63b8ff" stroke="#63b8ff" points="664.25,-706.69 674.21,-703.06 664.16,-699.69 664.25,-706.69"/>
</a>
</g>
</g>
<!-- Node4 -->
<g id="Node000004" class="node">
<title>Node4</title>
<g id="a_Node000004"><a xlink:href="../../d8/d92/classLSM1x0A__Controller.html#a3f6f25b843fe4fb7042c544deae2ab16" target="_top" xlink:title="Manually clears bits from the internal EventGroup.">
<polygon fill="white" stroke="#666666" points="1044,-921.99 938,-921.99 938,-889.99 1044,-889.99 1044,-921.99"/>
<text text-anchor="start" x="946" y="-908.49" font-family="Helvetica,sans-Serif" font-size="10.00">LSM1x0A_Controller</text>
<text text-anchor="middle" x="991" y="-896.49" font-family="Helvetica,sans-Serif" font-size="10.00">::clearEvents</text>
</a>
</g>
</g>
<!-- Node3&#45;&gt;Node4 -->
<g id="edge3_Node000003_Node000004" class="edge">
<title>Node3&#45;&gt;Node4</title>
<g id="a_edge3_Node000003_Node000004"><a xlink:title=" ">
<path fill="none" stroke="#63b8ff" d="M434.51,-865.42C446.6,-868.77 459.54,-871.91 471.75,-873.99 633.77,-901.68 827.9,-906.16 926.21,-906.45"/>
<polygon fill="#63b8ff" stroke="#63b8ff" points="926.2,-909.95 936.2,-906.46 926.21,-902.95 926.2,-909.95"/>
</a>
</g>
</g>
<!-- Node5 -->
<g id="Node000005" class="node">
<title>Node5</title>
<g id="a_Node000005"><a xlink:href="../../d8/d92/classLSM1x0A__Controller.html#a345d4bd79fa16b18dc33a4ca788fe5f7" target="_top" xlink:title="Performs a hardware reset using the reset pin.">
<polygon fill="white" stroke="#666666" points="604,-864.99 498,-864.99 498,-832.99 604,-832.99 604,-864.99"/>
<text text-anchor="start" x="506" y="-851.49" font-family="Helvetica,sans-Serif" font-size="10.00">LSM1x0A_Controller</text>
<text text-anchor="middle" x="551" y="-839.49" font-family="Helvetica,sans-Serif" font-size="10.00">::hardwareReset</text>
</a>
</g>
</g>
<!-- Node3&#45;&gt;Node5 -->
<g id="edge4_Node000003_Node000005" class="edge">
<title>Node3&#45;&gt;Node5</title>
<g id="a_edge4_Node000003_Node000005"><a xlink:title=" ">
<path fill="none" stroke="#63b8ff" d="M435.9,-848.99C451.91,-848.99 469.72,-848.99 486.41,-848.99"/>
<polygon fill="#63b8ff" stroke="#63b8ff" points="486.24,-852.49 496.24,-848.99 486.24,-845.49 486.24,-852.49"/>
</a>
</g>
</g>
<!-- Node7 -->
<g id="Node000007" class="node">
<title>Node7</title>
<g id="a_Node000007"><a xlink:href="../../d5/d72/classLSM1x0A__LoRaWAN.html#a1892801e37c8cd67d37c76108d6f7d49" target="_top" xlink:title="Validates if the device is currently Joined to the network. (Either confirmed by OTAA or statically a...">
<polygon fill="white" stroke="#666666" points="1274.5,-788.99 1122,-788.99 1122,-768.99 1274.5,-768.99 1274.5,-788.99"/>
<text text-anchor="middle" x="1198.25" y="-775.49" font-family="Helvetica,sans-Serif" font-size="10.00">LSM1x0A_LoRaWAN::isJoined</text>
</a>
</g>
</g>
<!-- Node3&#45;&gt;Node7 -->
<g id="edge6_Node000003_Node000007" class="edge">
<title>Node3&#45;&gt;Node7</title>
<g id="a_edge6_Node000003_Node000007"><a xlink:title=" ">
<path fill="none" stroke="#63b8ff" d="M434.51,-832.57C446.6,-829.22 459.54,-826.08 471.75,-823.99 699.97,-784.96 973.7,-778.76 1110.49,-778.38"/>
<polygon fill="#63b8ff" stroke="#63b8ff" points="1110.19,-781.88 1120.19,-778.37 1110.18,-774.88 1110.19,-781.88"/>
</a>
</g>
</g>
<!-- Node8 -->
<g id="Node000008" class="node">
<title>Node8</title>
<g id="a_Node000008"><a xlink:href="../../d5/d72/classLSM1x0A__LoRaWAN.html#a83e11c0e74ff9e0757db616ab1163424" target="_top" xlink:title="Attempts to recover a lost connection (re&#45;executes OTAA Join if dropped).">
<polygon fill="white" stroke="#666666" points="625.38,-1028.99 476.62,-1028.99 476.62,-996.99 625.38,-996.99 625.38,-1028.99"/>
<text text-anchor="start" x="484.62" y="-1015.49" font-family="Helvetica,sans-Serif" font-size="10.00">LSM1x0A_LoRaWAN::recover</text>
<text text-anchor="middle" x="551" y="-1003.49" font-family="Helvetica,sans-Serif" font-size="10.00">Connection</text>
</a>
</g>
</g>
<!-- Node3&#45;&gt;Node8 -->
<g id="edge7_Node000003_Node000008" class="edge">
<title>Node3&#45;&gt;Node8</title>
<g id="a_edge7_Node000003_Node000008"><a xlink:title=" ">
<path fill="none" stroke="#63b8ff" d="M390.45,-865.39C402.64,-893.29 431,-950.18 471.75,-982.99 475.62,-986.1 479.84,-988.92 484.26,-991.46"/>
<polygon fill="#63b8ff" stroke="#63b8ff" points="482.35,-994.41 492.84,-995.91 485.57,-988.2 482.35,-994.41"/>
</a>
</g>
</g>
<!-- Node12 -->
<g id="Node000012" class="node">
<title>Node12</title>
<g id="a_Node000012"><a xlink:href="../../d5/d72/classLSM1x0A__LoRaWAN.html#ae3be4ce59dfa200369733317df356e97" target="_top" xlink:title="Pushes the RAM&#45;cached variables back down into the hardware module. Restores the operational state af...">
<polygon fill="white" stroke="#666666" points="624.25,-384.99 477.75,-384.99 477.75,-352.99 624.25,-352.99 624.25,-384.99"/>
<text text-anchor="start" x="485.75" y="-371.49" font-family="Helvetica,sans-Serif" font-size="10.00">LSM1x0A_LoRaWAN::restore</text>
<text text-anchor="middle" x="551" y="-359.49" font-family="Helvetica,sans-Serif" font-size="10.00">Config</text>
</a>
</g>
</g>
<!-- Node3&#45;&gt;Node12 -->
<g id="edge16_Node000003_Node000012" class="edge">
<title>Node3&#45;&gt;Node12</title>
<g id="a_edge16_Node000003_Node000012"><a xlink:title=" ">
<path fill="none" stroke="#63b8ff" d="M389.38,-832.75C413.7,-762.53 509.92,-484.71 540.57,-396.22"/>
<polygon fill="#63b8ff" stroke="#63b8ff" points="543.83,-397.51 543.79,-386.91 537.21,-395.21 543.83,-397.51"/>
</a>
</g>
</g>
<!-- Node28 -->
<g id="Node000028" class="node">
<title>Node28</title>
<g id="a_Node000028"><a xlink:href="../../d5/d72/classLSM1x0A__LoRaWAN.html#ace4b04396f1de1f4a54f513f5f378db7" target="_top" xlink:title="Manually overrides the internal joined state tracker.">
<polygon fill="white" stroke="#666666" points="630.25,-940.99 471.75,-940.99 471.75,-920.99 630.25,-920.99 630.25,-940.99"/>
<text text-anchor="middle" x="551" y="-927.49" font-family="Helvetica,sans-Serif" font-size="10.00">LSM1x0A_LoRaWAN::setJoined</text>
</a>
</g>
</g>
<!-- Node3&#45;&gt;Node28 -->
<g id="edge49_Node000003_Node000028" class="edge">
<title>Node3&#45;&gt;Node28</title>
<g id="a_edge49_Node000003_Node000028"><a xlink:title=" ">
<path fill="none" stroke="#63b8ff" d="M404.79,-865.35C422.01,-878.11 447.42,-895.53 471.75,-906.99 479.79,-910.78 488.58,-914.15 497.27,-917.08"/>
<polygon fill="#63b8ff" stroke="#63b8ff" points="496.12,-920.39 506.71,-920.1 498.25,-913.72 496.12,-920.39"/>
</a>
</g>
</g>
<!-- Node29 -->
<g id="Node000029" class="node">
<title>Node29</title>
<g id="a_Node000029"><a xlink:href="../../d8/d92/classLSM1x0A__Controller.html#a11ad21cb5ca33ec51346764a23bd485e" target="_top" xlink:title="Performs a software reset (ATZ Command).">
<polygon fill="white" stroke="#666666" points="604,-776.99 498,-776.99 498,-744.99 604,-744.99 604,-776.99"/>
<text text-anchor="start" x="506" y="-763.49" font-family="Helvetica,sans-Serif" font-size="10.00">LSM1x0A_Controller</text>
<text text-anchor="middle" x="551" y="-751.49" font-family="Helvetica,sans-Serif" font-size="10.00">::softwareReset</text>
</a>
</g>
</g>
<!-- Node3&#45;&gt;Node29 -->
<g id="edge50_Node000003_Node000029" class="edge">
<title>Node3&#45;&gt;Node29</title>
<g id="a_edge50_Node000003_Node000029"><a xlink:title=" ">
<path fill="none" stroke="#63b8ff" d="M405.72,-832.57C423.05,-820.11 448.15,-803.11 471.75,-790.99 478.04,-787.76 484.75,-784.68 491.51,-781.81"/>
<polygon fill="#63b8ff" stroke="#63b8ff" points="492.78,-785.07 500.71,-778.04 490.13,-778.59 492.78,-785.07"/>
</a>
</g>
</g>
<!-- Node6 -->
<g id="Node000006" class="node">
<title>Node6</title>
<g id="a_Node000006"><a xlink:href="../../d6/d3c/classLSM1x0A__AtParser.html#ad2839120da13e56132b95019419be1e5" target="_top" xlink:title="Waits for an event (like BOOTALERT) without sending any command. Useful for hardware reset where the ...">
<polygon fill="white" stroke="#666666" points="833.38,-864.99 692.88,-864.99 692.88,-832.99 833.38,-832.99 833.38,-864.99"/>
<text text-anchor="start" x="700.88" y="-851.49" font-family="Helvetica,sans-Serif" font-size="10.00">LSM1x0A_AtParser::waitFor</text>
<text text-anchor="middle" x="763.12" y="-839.49" font-family="Helvetica,sans-Serif" font-size="10.00">Event</text>
</a>
</g>
</g>
<!-- Node5&#45;&gt;Node6 -->
<g id="edge5_Node000005_Node000006" class="edge">
<title>Node5&#45;&gt;Node6</title>
<g id="a_edge5_Node000005_Node000006"><a xlink:title=" ">
<path fill="none" stroke="#63b8ff" d="M604.48,-848.99C627.67,-848.99 655.47,-848.99 681.21,-848.99"/>
<polygon fill="#63b8ff" stroke="#63b8ff" points="680.97,-852.49 690.97,-848.99 680.97,-845.49 680.97,-852.49"/>
</a>
</g>
</g>
<!-- Node9 -->
<g id="Node000009" class="node">
<title>Node9</title>
<g id="a_Node000009"><a xlink:href="../../d5/d72/classLSM1x0A__LoRaWAN.html#a59f781f3cfd30c11cd3973bcb10a7baa" target="_top" xlink:title="Initiates a LoRaWAN Network Join procedure. This is a blocking function until the module fires an eve...">
<polygon fill="white" stroke="#666666" points="828.88,-978.99 697.38,-978.99 697.38,-958.99 828.88,-958.99 828.88,-978.99"/>
<text text-anchor="middle" x="763.12" y="-965.49" font-family="Helvetica,sans-Serif" font-size="10.00">LSM1x0A_LoRaWAN::join</text>
</a>
</g>
</g>
<!-- Node8&#45;&gt;Node9 -->
<g id="edge8_Node000008_Node000009" class="edge">
<title>Node8&#45;&gt;Node9</title>
<g id="a_edge8_Node000008_Node000009"><a xlink:title=" ">
<path fill="none" stroke="#63b8ff" d="M625.79,-997.54C650.38,-992.39 677.49,-986.72 701.01,-981.79"/>
<polygon fill="#63b8ff" stroke="#63b8ff" points="701.69,-985.22 710.76,-979.75 700.26,-978.37 701.69,-985.22"/>
</a>
</g>
</g>
<!-- Node9&#45;&gt;Node2 -->
<g id="edge11_Node000009_Node000002" class="edge">
<title>Node9&#45;&gt;Node2</title>
<g id="a_edge11_Node000009_Node000002"><a xlink:title=" ">
<path fill="none" stroke="#63b8ff" d="M748.03,-979.34C724.87,-995.63 676.67,-1026.58 630.25,-1037.99 561.84,-1054.81 535.82,-1067.27 471.75,-1037.99 384.06,-997.92 372.13,-960.59 329.75,-873.99 258.88,-729.16 245.08,-531.08 242.4,-459.34"/>
<polygon fill="#63b8ff" stroke="#63b8ff" points="245.91,-459.58 242.09,-449.7 238.91,-459.81 245.91,-459.58"/>
</a>
</g>
</g>
<!-- Node9&#45;&gt;Node3 -->
<g id="edge10_Node000009_Node000003" class="edge">
<title>Node9&#45;&gt;Node3</title>
<g id="a_edge10_Node000009_Node000003"><a xlink:title=" ">
<path fill="none" stroke="#63b8ff" d="M697.03,-978.48C635.65,-984.36 542.72,-985.13 471.75,-949.99 438.74,-933.65 412.89,-898.87 397.98,-874.72"/>
<polygon fill="#63b8ff" stroke="#63b8ff" points="401.16,-873.22 393.04,-866.41 395.14,-876.8 401.16,-873.22"/>
</a>
</g>
</g>
<!-- Node9&#45;&gt;Node4 -->
<g id="edge9_Node000009_Node000004" class="edge">
<title>Node9&#45;&gt;Node4</title>
<g id="a_edge9_Node000009_Node000004"><a xlink:title=" ">
<path fill="none" stroke="#63b8ff" d="M801.68,-958.52C835.62,-949.05 886.28,-934.92 926.51,-923.7"/>
<polygon fill="#63b8ff" stroke="#63b8ff" points="927.4,-927.08 936.1,-921.03 925.52,-920.34 927.4,-927.08"/>
</a>
</g>
</g>
<!-- Node10 -->
<g id="Node000010" class="node">
<title>Node10</title>
<g id="a_Node000010"><a xlink:href="../../d5/d72/classLSM1x0A__LoRaWAN.html#a3fdd1ac318a5ad2559323e5d57e36a5e" target="_top" xlink:title="Enables or disables specific sub&#45;bands for regions supporting Channel Masks (e.g.,...">
<polygon fill="white" stroke="#666666" points="1086,-763.99 896,-763.99 896,-743.99 1086,-743.99 1086,-763.99"/>
<text text-anchor="middle" x="991" y="-750.49" font-family="Helvetica,sans-Serif" font-size="10.00">LSM1x0A_LoRaWAN::setChannelMask</text>
</a>
</g>
</g>
<!-- Node9&#45;&gt;Node10 -->
<g id="edge12_Node000009_Node000010" class="edge">
<title>Node9&#45;&gt;Node10</title>
<g id="a_edge12_Node000009_Node000010"><a xlink:title=" ">
<path fill="none" stroke="#63b8ff" d="M775.02,-958.62C810.87,-924.49 925.51,-815.38 971.07,-772.01"/>
<polygon fill="#63b8ff" stroke="#63b8ff" points="973.29,-774.73 978.12,-765.3 968.46,-769.66 973.29,-774.73"/>
</a>
</g>
</g>
<!-- Node11 -->
<g id="Node000011" class="node">
<title>Node11</title>
<g id="a_Node000011"><a xlink:href="../../d8/d92/classLSM1x0A__Controller.html#a62476e30e50c7fe120aeb8df4b828675" target="_top" xlink:title="Synchronously/blockingly waits for an asynchronous event to occur. Useful for wrapping commands like ...">
<polygon fill="white" stroke="#666666" points="1044,-984.99 938,-984.99 938,-952.99 1044,-952.99 1044,-984.99"/>
<text text-anchor="start" x="946" y="-971.49" font-family="Helvetica,sans-Serif" font-size="10.00">LSM1x0A_Controller</text>
<text text-anchor="middle" x="991" y="-959.49" font-family="Helvetica,sans-Serif" font-size="10.00">::waitForEvent</text>
</a>
</g>
</g>
<!-- Node9&#45;&gt;Node11 -->
<g id="edge15_Node000009_Node000011" class="edge">
<title>Node9&#45;&gt;Node11</title>
<g id="a_edge15_Node000009_Node000011"><a xlink:title=" ">
<path fill="none" stroke="#63b8ff" d="M829.15,-968.99C859.66,-968.99 895.9,-968.99 926.24,-968.99"/>
<polygon fill="#63b8ff" stroke="#63b8ff" points="926.05,-972.49 936.05,-968.99 926.05,-965.49 926.05,-972.49"/>
</a>
</g>
</g>
<!-- Node10&#45;&gt;Node2 -->
<g id="edge14_Node000010_Node000002" class="edge">
<title>Node10&#45;&gt;Node2</title>
<g id="a_edge14_Node000010_Node000002"><a xlink:title=" ">
<path fill="none" stroke="#63b8ff" d="M895.79,-752.25C732.96,-747.21 408.73,-727.55 329.75,-650.99 274.66,-597.58 253.08,-505.12 245.46,-459.33"/>
<polygon fill="#63b8ff" stroke="#63b8ff" points="248.96,-459.07 243.97,-449.72 242.04,-460.14 248.96,-459.07"/>
</a>
</g>
</g>
<!-- Node10&#45;&gt;Node7 -->
<g id="edge13_Node000010_Node000007" class="edge">
<title>Node10&#45;&gt;Node7</title>
<g id="a_edge13_Node000010_Node000007"><a xlink:title=" ">
<path fill="none" stroke="#63b8ff" d="M1078.15,-764.49C1088.9,-765.8 1099.9,-767.13 1110.65,-768.44"/>
<polygon fill="#63b8ff" stroke="#63b8ff" points="1109.9,-771.88 1120.25,-769.61 1110.74,-764.93 1109.9,-771.88"/>
</a>
</g>
</g>
<!-- Node12&#45;&gt;Node1 -->
<g id="edge17_Node000012_Node000001" class="edge">
<title>Node12&#45;&gt;Node1</title>
<g id="a_edge17_Node000012_Node000001"><a xlink:title=" ">
<path fill="none" stroke="#63b8ff" d="M477.41,-364.24C392.9,-358.7 253.43,-349.56 163.38,-343.66"/>
<polygon fill="#63b8ff" stroke="#63b8ff" points="163.82,-340.18 153.61,-343.02 163.36,-347.17 163.82,-340.18"/>
</a>
</g>
</g>
<!-- Node12&#45;&gt;Node10 -->
<g id="edge20_Node000012_Node000010" class="edge">
<title>Node12&#45;&gt;Node10</title>
<g id="a_edge20_Node000012_Node000010"><a xlink:title=" ">
<path fill="none" stroke="#63b8ff" d="M624.63,-363.16C704.98,-358.44 827.46,-356.91 860,-387.99 913.98,-439.56 849.35,-663.71 896,-721.99 901.61,-729 908.82,-734.47 916.75,-738.76"/>
<polygon fill="#63b8ff" stroke="#63b8ff" points="915.19,-741.89 925.74,-742.93 918.14,-735.55 915.19,-741.89"/>
</a>
</g>
</g>
<!-- Node13 -->
<g id="Node000013" class="node">
<title>Node13</title>
<g id="a_Node000013"><a xlink:href="../../d5/d72/classLSM1x0A__LoRaWAN.html#a5365ed1596eb84ebf1e3b33b4a10c788" target="_top" xlink:title="Sets the LoRaWAN operational frequency band.">
<polygon fill="white" stroke="#666666" points="839.38,-542.99 686.88,-542.99 686.88,-522.99 839.38,-522.99 839.38,-542.99"/>
<text text-anchor="middle" x="763.12" y="-529.49" font-family="Helvetica,sans-Serif" font-size="10.00">LSM1x0A_LoRaWAN::setBand</text>
</a>
</g>
</g>
<!-- Node12&#45;&gt;Node13 -->
<g id="edge18_Node000012_Node000013" class="edge">
<title>Node12&#45;&gt;Node13</title>
<g id="a_edge18_Node000012_Node000013"><a xlink:title=" ">
<path fill="none" stroke="#63b8ff" d="M559.77,-385.15C575.35,-415.68 613.5,-481.69 666.25,-513.99 669.36,-515.9 672.63,-517.62 676,-519.17"/>
<polygon fill="#63b8ff" stroke="#63b8ff" points="674.39,-522.3 684.97,-522.77 677,-515.8 674.39,-522.3"/>
</a>
</g>
</g>
<!-- Node14 -->
<g id="Node000014" class="node">
<title>Node14</title>
<g id="a_Node000014"><a xlink:href="../../d5/d72/classLSM1x0A__LoRaWAN.html#a9d9285c43414337a0ccb3a6cd7ca06e6" target="_top" xlink:title="Configures the number of retries for Confirmed uplinks.">
<polygon fill="white" stroke="#666666" points="845.38,-504.99 680.88,-504.99 680.88,-472.99 845.38,-472.99 845.38,-504.99"/>
<text text-anchor="start" x="688.88" y="-491.49" font-family="Helvetica,sans-Serif" font-size="10.00">LSM1x0A_LoRaWAN::setConfirm</text>
<text text-anchor="middle" x="763.12" y="-479.49" font-family="Helvetica,sans-Serif" font-size="10.00">Retry</text>
</a>
</g>
</g>
<!-- Node12&#45;&gt;Node14 -->
<g id="edge21_Node000012_Node000014" class="edge">
<title>Node12&#45;&gt;Node14</title>
<g id="a_edge21_Node000012_Node000014"><a xlink:title=" ">
<path fill="none" stroke="#63b8ff" d="M567.01,-385.31C587.45,-406.55 626.09,-443.37 666.25,-463.99 669.29,-465.55 672.43,-467.02 675.65,-468.4"/>
<polygon fill="#63b8ff" stroke="#63b8ff" points="674.12,-471.56 684.71,-471.97 676.69,-465.05 674.12,-471.56"/>
</a>
</g>
</g>
<!-- Node15 -->
<g id="Node000015" class="node">
<title>Node15</title>
<g id="a_Node000015"><a xlink:href="../../d5/d72/classLSM1x0A__LoRaWAN.html#a56345ceeafa0b9059d6de4e69eddc82e" target="_top" xlink:title="Sets the Data Rate (DR) of the module.">
<polygon fill="white" stroke="#666666" points="849.12,-454.99 677.12,-454.99 677.12,-434.99 849.12,-434.99 849.12,-454.99"/>
<text text-anchor="middle" x="763.12" y="-441.49" font-family="Helvetica,sans-Serif" font-size="10.00">LSM1x0A_LoRaWAN::setDataRate</text>
</a>
</g>
</g>
<!-- Node12&#45;&gt;Node15 -->
<g id="edge23_Node000012_Node000015" class="edge">
<title>Node12&#45;&gt;Node15</title>
<g id="a_edge23_Node000012_Node000015"><a xlink:title=" ">
<path fill="none" stroke="#63b8ff" d="M579.73,-385.46C602.32,-398.23 635.41,-415.46 666.25,-425.99 672.68,-428.19 679.44,-430.16 686.27,-431.93"/>
<polygon fill="#63b8ff" stroke="#63b8ff" points="685.02,-435.23 695.57,-434.18 686.67,-428.42 685.02,-435.23"/>
</a>
</g>
</g>
<!-- Node16 -->
<g id="Node000016" class="node">
<title>Node16</title>
<g id="a_Node000016"><a xlink:href="../../d5/d72/classLSM1x0A__LoRaWAN.html#a8494083816ab885cb07fc3b08de029f4" target="_top" xlink:title="Sets the LoRaWAN Device Address (DevAddr) for ABP mode.">
<polygon fill="white" stroke="#666666" points="847.25,-416.99 679,-416.99 679,-396.99 847.25,-396.99 847.25,-416.99"/>
<text text-anchor="middle" x="763.12" y="-403.49" font-family="Helvetica,sans-Serif" font-size="10.00">LSM1x0A_LoRaWAN::setDevAddr</text>
</a>
</g>
</g>
<!-- Node12&#45;&gt;Node16 -->
<g id="edge25_Node000012_Node000016" class="edge">
<title>Node12&#45;&gt;Node16</title>
<g id="a_edge25_Node000012_Node000016"><a xlink:title=" ">
<path fill="none" stroke="#63b8ff" d="M624.61,-382.12C646.73,-386.12 670.98,-390.51 692.88,-394.47"/>
<polygon fill="#63b8ff" stroke="#63b8ff" points="692.13,-397.89 702.6,-396.23 693.38,-391 692.13,-397.89"/>
</a>
</g>
</g>
<!-- Node17 -->
<g id="Node000017" class="node">
<title>Node17</title>
<g id="a_Node000017"><a xlink:href="../../d5/d72/classLSM1x0A__LoRaWAN.html#ad320634e52d7ea907043cc50dd37c5b0" target="_top" xlink:title="Sets the LoRaWAN Device EUI (DevEUI).">
<polygon fill="white" stroke="#666666" points="845.75,-340.99 680.5,-340.99 680.5,-320.99 845.75,-320.99 845.75,-340.99"/>
<text text-anchor="middle" x="763.12" y="-327.49" font-family="Helvetica,sans-Serif" font-size="10.00">LSM1x0A_LoRaWAN::setDevEUI</text>
</a>
</g>
</g>
<!-- Node12&#45;&gt;Node17 -->
<g id="edge27_Node000012_Node000017" class="edge">
<title>Node12&#45;&gt;Node17</title>
<g id="a_edge27_Node000012_Node000017"><a xlink:title=" ">
<path fill="none" stroke="#63b8ff" d="M624.61,-355.86C646.73,-351.86 670.98,-347.48 692.88,-343.52"/>
<polygon fill="#63b8ff" stroke="#63b8ff" points="693.38,-346.98 702.6,-341.76 692.13,-340.09 693.38,-346.98"/>
</a>
</g>
</g>
<!-- Node18 -->
<g id="Node000018" class="node">
<title>Node18</title>
<g id="a_Node000018"><a xlink:href="../../d5/d72/classLSM1x0A__LoRaWAN.html#a031023b0d2dd5db3c51c2db6ae7801cc" target="_top" xlink:title="Enables or disables the Duty Cycle limitation (EU regions mostly).">
<polygon fill="white" stroke="#666666" points="838.62,-302.99 687.62,-302.99 687.62,-270.99 838.62,-270.99 838.62,-302.99"/>
<text text-anchor="start" x="695.62" y="-289.49" font-family="Helvetica,sans-Serif" font-size="10.00">LSM1x0A_LoRaWAN::setDuty</text>
<text text-anchor="middle" x="763.12" y="-277.49" font-family="Helvetica,sans-Serif" font-size="10.00">Cycle</text>
</a>
</g>
</g>
<!-- Node12&#45;&gt;Node18 -->
<g id="edge29_Node000012_Node000018" class="edge">
<title>Node12&#45;&gt;Node18</title>
<g id="a_edge29_Node000012_Node000018"><a xlink:title=" ">
<path fill="none" stroke="#63b8ff" d="M580.84,-352.5C603.5,-340.07 636.16,-323.28 666.25,-311.99 671.13,-310.16 676.19,-308.42 681.33,-306.76"/>
<polygon fill="#63b8ff" stroke="#63b8ff" points="681.98,-310.22 690.5,-303.93 679.92,-303.53 681.98,-310.22"/>
</a>
</g>
</g>
<!-- Node19 -->
<g id="Node000019" class="node">
<title>Node19</title>
<g id="a_Node000019"><a xlink:href="../../d5/d72/classLSM1x0A__LoRaWAN.html#a6b179d5825c49af0f391dfc539912f64" target="_top" xlink:title="Sets the delay for the Join1 receive window.">
<polygon fill="white" stroke="#666666" points="839.75,-252.99 686.5,-252.99 686.5,-220.99 839.75,-220.99 839.75,-252.99"/>
<text text-anchor="start" x="694.5" y="-239.49" font-family="Helvetica,sans-Serif" font-size="10.00">LSM1x0A_LoRaWAN::setJoin1</text>
<text text-anchor="middle" x="763.12" y="-227.49" font-family="Helvetica,sans-Serif" font-size="10.00">Delay</text>
</a>
</g>
</g>
<!-- Node12&#45;&gt;Node19 -->
<g id="edge31_Node000012_Node000019" class="edge">
<title>Node12&#45;&gt;Node19</title>
<g id="a_edge31_Node000012_Node000019"><a xlink:title=" ">
<path fill="none" stroke="#63b8ff" d="M564.9,-352.54C584.33,-328.91 623.41,-285.61 666.25,-261.99 669.31,-260.3 672.5,-258.72 675.76,-257.25"/>
<polygon fill="#63b8ff" stroke="#63b8ff" points="677.08,-260.49 685.01,-253.46 674.43,-254.01 677.08,-260.49"/>
</a>
</g>
</g>
<!-- Node20 -->
<g id="Node000020" class="node">
<title>Node20</title>
<g id="a_Node000020"><a xlink:href="../../d5/d72/classLSM1x0A__LoRaWAN.html#a4545d0caad41558cdb9bae8286b104d8" target="_top" xlink:title="Sets the delay for the Join2 receive window.">
<polygon fill="white" stroke="#666666" points="839.75,-202.99 686.5,-202.99 686.5,-170.99 839.75,-170.99 839.75,-202.99"/>
<text text-anchor="start" x="694.5" y="-189.49" font-family="Helvetica,sans-Serif" font-size="10.00">LSM1x0A_LoRaWAN::setJoin2</text>
<text text-anchor="middle" x="763.12" y="-177.49" font-family="Helvetica,sans-Serif" font-size="10.00">Delay</text>
</a>
</g>
</g>
<!-- Node12&#45;&gt;Node20 -->
<g id="edge33_Node000012_Node000020" class="edge">
<title>Node12&#45;&gt;Node20</title>
<g id="a_edge33_Node000012_Node000020"><a xlink:title=" ">
<path fill="none" stroke="#63b8ff" d="M559.12,-352.81C574.08,-320.73 611.94,-249.02 666.25,-211.99 669.31,-209.91 672.52,-208 675.86,-206.25"/>
<polygon fill="#63b8ff" stroke="#63b8ff" points="677.19,-209.49 684.78,-202.1 674.23,-203.14 677.19,-209.49"/>
</a>
</g>
</g>
<!-- Node21 -->
<g id="Node000021" class="node">
<title>Node21</title>
<g id="a_Node000021"><a xlink:href="../../d5/d72/classLSM1x0A__LoRaWAN.html#a06bd50723ec1eb7e144c9141b2ec86fc" target="_top" xlink:title="Sets the LoRaWAN Network ID (NetID).">
<polygon fill="white" stroke="#666666" points="843.5,-152.99 682.75,-152.99 682.75,-132.99 843.5,-132.99 843.5,-152.99"/>
<text text-anchor="middle" x="763.12" y="-139.49" font-family="Helvetica,sans-Serif" font-size="10.00">LSM1x0A_LoRaWAN::setNwkID</text>
</a>
</g>
</g>
<!-- Node12&#45;&gt;Node21 -->
<g id="edge35_Node000012_Node000021" class="edge">
<title>Node12&#45;&gt;Node21</title>
<g id="a_edge35_Node000012_Node000021"><a xlink:title=" ">
<path fill="none" stroke="#63b8ff" d="M555.93,-352.66C566.39,-313.01 598.81,-211.28 666.25,-161.99 668.25,-160.53 670.34,-159.17 672.5,-157.91"/>
<polygon fill="#63b8ff" stroke="#63b8ff" points="673.6,-161.27 680.98,-153.66 670.47,-155.01 673.6,-161.27"/>
</a>
</g>
</g>
<!-- Node22 -->
<g id="Node000022" class="node">
<title>Node22</title>
<g id="a_Node000022"><a xlink:href="../../d5/d72/classLSM1x0A__LoRaWAN.html#aa70ada64d28ecca216bb62268e502adf" target="_top" xlink:title="Sets the delay for the RX1 receive window.">
<polygon fill="white" stroke="#666666" points="849.88,-114.99 676.38,-114.99 676.38,-94.99 849.88,-94.99 849.88,-114.99"/>
<text text-anchor="middle" x="763.12" y="-101.49" font-family="Helvetica,sans-Serif" font-size="10.00">LSM1x0A_LoRaWAN::setRx1Delay</text>
</a>
</g>
</g>
<!-- Node12&#45;&gt;Node22 -->
<g id="edge37_Node000012_Node000022" class="edge">
<title>Node12&#45;&gt;Node22</title>
<g id="a_edge37_Node000012_Node000022"><a xlink:title=" ">
<path fill="none" stroke="#63b8ff" d="M554.44,-352.74C562.02,-308.32 589.43,-184.23 666.25,-123.99 667.59,-122.95 668.96,-121.95 670.38,-121.01"/>
<polygon fill="#63b8ff" stroke="#63b8ff" points="671.87,-124.18 678.87,-116.22 668.43,-118.08 671.87,-124.18"/>
</a>
</g>
</g>
<!-- Node23 -->
<g id="Node000023" class="node">
<title>Node23</title>
<g id="a_Node000023"><a xlink:href="../../d5/d72/classLSM1x0A__LoRaWAN.html#a2cf4eff0181b6107d082bccefa24217b" target="_top" xlink:title="Sets the Data Rate (DR) specifically for the RX2 window.">
<polygon fill="white" stroke="#666666" points="858.12,-76.99 668.12,-76.99 668.12,-56.99 858.12,-56.99 858.12,-76.99"/>
<text text-anchor="middle" x="763.12" y="-63.49" font-family="Helvetica,sans-Serif" font-size="10.00">LSM1x0A_LoRaWAN::setRx2DataRate</text>
</a>
</g>
</g>
<!-- Node12&#45;&gt;Node23 -->
<g id="edge39_Node000012_Node000023" class="edge">
<title>Node12&#45;&gt;Node23</title>
<g id="a_edge39_Node000012_Node000023"><a xlink:title=" ">
<path fill="none" stroke="#63b8ff" d="M553.33,-352.79C558.25,-304 579.92,-157.44 666.25,-85.99 667.39,-85.05 668.56,-84.15 669.77,-83.29"/>
<polygon fill="#63b8ff" stroke="#63b8ff" points="671.44,-86.37 678.22,-78.23 667.84,-80.36 671.44,-86.37"/>
</a>
</g>
</g>
<!-- Node24 -->
<g id="Node000024" class="node">
<title>Node24</title>
<g id="a_Node000024"><a xlink:href="../../d5/d72/classLSM1x0A__LoRaWAN.html#a42d2137b475b57e19d891a5f1ac93221" target="_top" xlink:title="Sets the delay for the RX2 receive window.">
<polygon fill="white" stroke="#666666" points="849.88,-38.99 676.38,-38.99 676.38,-18.99 849.88,-18.99 849.88,-38.99"/>
<text text-anchor="middle" x="763.12" y="-25.49" font-family="Helvetica,sans-Serif" font-size="10.00">LSM1x0A_LoRaWAN::setRx2Delay</text>
</a>
</g>
</g>
<!-- Node12&#45;&gt;Node24 -->
<g id="edge41_Node000012_Node000024" class="edge">
<title>Node12&#45;&gt;Node24</title>
<g id="a_edge41_Node000012_Node000024"><a xlink:title=" ">
<path fill="none" stroke="#63b8ff" d="M552.48,-352.59C554.97,-299.45 570.44,-130.72 666.25,-47.99 667.21,-47.16 668.2,-46.36 669.21,-45.59"/>
<polygon fill="#63b8ff" stroke="#63b8ff" points="671.02,-48.59 677.62,-40.3 667.29,-42.67 671.02,-48.59"/>
</a>
</g>
</g>
<!-- Node25 -->
<g id="Node000025" class="node">
<title>Node25</title>
<g id="a_Node000025"><a xlink:href="../../d5/d72/classLSM1x0A__LoRaWAN.html#a689f7dfda1dfeae11ea397c2ddf2ad37" target="_top" xlink:title="Sets the precise frequency for the RX2 window.">
<polygon fill="white" stroke="#666666" points="860,-668.99 666.25,-668.99 666.25,-648.99 860,-648.99 860,-668.99"/>
<text text-anchor="middle" x="763.12" y="-655.49" font-family="Helvetica,sans-Serif" font-size="10.00">LSM1x0A_LoRaWAN::setRx2Frequency</text>
</a>
</g>
</g>
<!-- Node12&#45;&gt;Node25 -->
<g id="edge43_Node000012_Node000025" class="edge">
<title>Node12&#45;&gt;Node25</title>
<g id="a_edge43_Node000012_Node000025"><a xlink:title=" ">
<path fill="none" stroke="#63b8ff" d="M553.65,-385.2C559.39,-432.63 582.93,-572.1 666.25,-639.99 667.57,-641.06 668.92,-642.08 670.32,-643.05"/>
<polygon fill="#63b8ff" stroke="#63b8ff" points="668.32,-645.93 678.73,-647.93 671.84,-639.88 668.32,-645.93"/>
</a>
</g>
</g>
<!-- Node26 -->
<g id="Node000026" class="node">
<title>Node26</title>
<g id="a_Node000026"><a xlink:href="../../d5/d72/classLSM1x0A__LoRaWAN.html#a1df10d7ae6bf45b537d28d3d5c4b88d7" target="_top" xlink:title="Sets the transmission power index.">
<polygon fill="white" stroke="#666666" points="847.62,-630.99 678.62,-630.99 678.62,-610.99 847.62,-610.99 847.62,-630.99"/>
<text text-anchor="middle" x="763.12" y="-617.49" font-family="Helvetica,sans-Serif" font-size="10.00">LSM1x0A_LoRaWAN::setTxPower</text>
</a>
</g>
</g>
<!-- Node12&#45;&gt;Node26 -->
<g id="edge45_Node000012_Node000026" class="edge">
<title>Node12&#45;&gt;Node26</title>
<g id="a_edge45_Node000012_Node000026"><a xlink:title=" ">
<path fill="none" stroke="#63b8ff" d="M554.89,-385.4C563.38,-428.46 592.49,-545.3 666.25,-601.99 667.78,-603.17 669.36,-604.27 670.98,-605.32"/>
<polygon fill="#63b8ff" stroke="#63b8ff" points="668.94,-608.19 679.4,-609.9 672.29,-602.04 668.94,-608.19"/>
</a>
</g>
</g>
<!-- Node27 -->
<g id="Node000027" class="node">
<title>Node27</title>
<g id="a_Node000027"><a xlink:href="../../d5/d72/classLSM1x0A__LoRaWAN.html#a059fd6a9356c4ecadd5a98294da5952d" target="_top" xlink:title="Configures the number of repetitions for Unconfirmed uplinks.">
<polygon fill="white" stroke="#666666" points="850.62,-592.99 675.62,-592.99 675.62,-560.99 850.62,-560.99 850.62,-592.99"/>
<text text-anchor="start" x="683.62" y="-579.49" font-family="Helvetica,sans-Serif" font-size="10.00">LSM1x0A_LoRaWAN::setUnconfirm</text>
<text text-anchor="middle" x="763.12" y="-567.49" font-family="Helvetica,sans-Serif" font-size="10.00">Retry</text>
</a>
</g>
</g>
<!-- Node12&#45;&gt;Node27 -->
<g id="edge47_Node000012_Node000027" class="edge">
<title>Node12&#45;&gt;Node27</title>
<g id="a_edge47_Node000012_Node000027"><a xlink:title=" ">
<path fill="none" stroke="#63b8ff" d="M557.44,-385.33C570.29,-421.32 606.04,-507.74 666.25,-551.99 667.64,-553.01 669.06,-553.99 670.52,-554.93"/>
<polygon fill="#63b8ff" stroke="#63b8ff" points="668.8,-557.98 679.24,-559.81 672.23,-551.87 668.8,-557.98"/>
</a>
</g>
</g>
<!-- Node13&#45;&gt;Node2 -->
<g id="edge19_Node000013_Node000002" class="edge">
<title>Node13&#45;&gt;Node2</title>
<g id="a_edge19_Node000013_Node000002"><a xlink:title=" ">
<path fill="none" stroke="#63b8ff" d="M686.66,-528.03C599.37,-520.92 452,-504.64 329.75,-469.99 314.57,-465.69 298.56,-459.36 284.42,-453.1"/>
<polygon fill="#63b8ff" stroke="#63b8ff" points="285.94,-449.94 275.39,-448.98 283.04,-456.31 285.94,-449.94"/>
</a>
</g>
</g>
<!-- Node14&#45;&gt;Node2 -->
<g id="edge22_Node000014_Node000002" class="edge">
<title>Node14&#45;&gt;Node2</title>
<g id="a_edge22_Node000014_Node000002"><a xlink:title=" ">
<path fill="none" stroke="#63b8ff" d="M680.52,-484.36C593.35,-478.78 451.3,-467.85 329.75,-449.99 321.79,-448.82 313.47,-447.4 305.26,-445.86"/>
<polygon fill="#63b8ff" stroke="#63b8ff" points="306.13,-442.46 295.65,-444 304.8,-449.34 306.13,-442.46"/>
</a>
</g>
</g>
<!-- Node15&#45;&gt;Node2 -->
<g id="edge24_Node000015_Node000002" class="edge">
<title>Node15&#45;&gt;Node2</title>
<g id="a_edge24_Node000015_Node000002"><a xlink:title=" ">
<path fill="none" stroke="#63b8ff" d="M676.89,-442.86C572.61,-440.26 398.49,-435.91 305.26,-433.58"/>
<polygon fill="#63b8ff" stroke="#63b8ff" points="305.63,-430.09 295.54,-433.34 305.45,-437.08 305.63,-430.09"/>
</a>
</g>
</g>
<!-- Node16&#45;&gt;Node2 -->
<g id="edge26_Node000016_Node000002" class="edge">
<title>Node16&#45;&gt;Node2</title>
<g id="a_edge26_Node000016_Node000002"><a xlink:title=" ">
<path fill="none" stroke="#63b8ff" d="M678.75,-411C574.72,-416 399.14,-424.43 305.33,-428.94"/>
<polygon fill="#63b8ff" stroke="#63b8ff" points="305.36,-425.43 295.54,-429.41 305.7,-432.42 305.36,-425.43"/>
</a>
</g>
</g>
<!-- Node17&#45;&gt;Node2 -->
<g id="edge28_Node000017_Node000002" class="edge">
<title>Node17&#45;&gt;Node2</title>
<g id="a_edge28_Node000017_Node000002"><a xlink:title=" ">
<path fill="none" stroke="#63b8ff" d="M680.21,-327.72C621.56,-327.06 541.04,-329.58 471.75,-343.99 404.13,-358.06 330.26,-389.42 284.96,-410.64"/>
<polygon fill="#63b8ff" stroke="#63b8ff" points="283.54,-407.44 276,-414.89 286.53,-413.76 283.54,-407.44"/>
</a>
</g>
</g>
<!-- Node18&#45;&gt;Node2 -->
<g id="edge30_Node000018_Node000002" class="edge">
<title>Node18&#45;&gt;Node2</title>
<g id="a_edge30_Node000018_Node000002"><a xlink:title=" ">
<path fill="none" stroke="#63b8ff" d="M687.13,-283.7C597.38,-282.82 444.8,-291.24 329.75,-348.99 302.33,-362.76 277.55,-387.84 261.32,-406.84"/>
<polygon fill="#63b8ff" stroke="#63b8ff" points="258.71,-404.51 255.03,-414.44 264.11,-408.97 258.71,-404.51"/>
</a>
</g>
</g>
<!-- Node19&#45;&gt;Node2 -->
<g id="edge32_Node000019_Node000002" class="edge">
<title>Node19&#45;&gt;Node2</title>
<g id="a_edge32_Node000019_Node000002"><a xlink:title=" ">
<path fill="none" stroke="#63b8ff" d="M686.2,-231.82C594.49,-229.26 438.96,-237.11 329.75,-306.99 292.48,-330.84 266.44,-376.63 252.8,-405.68"/>
<polygon fill="#63b8ff" stroke="#63b8ff" points="249.73,-403.98 248.81,-414.53 256.11,-406.86 249.73,-403.98"/>
</a>
</g>
</g>
<!-- Node20&#45;&gt;Node2 -->
<g id="edge34_Node000020_Node000002" class="edge">
<title>Node20&#45;&gt;Node2</title>
<g id="a_edge34_Node000020_Node000002"><a xlink:title=" ">
<path fill="none" stroke="#63b8ff" d="M686.12,-179.13C592.54,-173.62 433.33,-178.37 329.75,-257.99 281.59,-295.01 257.71,-365.62 247.73,-404.55"/>
<polygon fill="#63b8ff" stroke="#63b8ff" points="244.38,-403.52 245.43,-414.06 251.18,-405.17 244.38,-403.52"/>
</a>
</g>
</g>
<!-- Node21&#45;&gt;Node2 -->
<g id="edge36_Node000021_Node000002" class="edge">
<title>Node21&#45;&gt;Node2</title>
<g id="a_edge36_Node000021_Node000002"><a xlink:title=" ">
<path fill="none" stroke="#63b8ff" d="M701.11,-132.54C609.37,-120.5 435.41,-112.47 329.75,-200.99 267.28,-253.33 249.07,-355.14 243.83,-404.22"/>
<polygon fill="#63b8ff" stroke="#63b8ff" points="240.36,-403.7 242.9,-413.99 247.33,-404.37 240.36,-403.7"/>
</a>
</g>
</g>
<!-- Node22&#45;&gt;Node2 -->
<g id="edge38_Node000022_Node000002" class="edge">
<title>Node22&#45;&gt;Node2</title>
<g id="a_edge38_Node000022_Node000002"><a xlink:title=" ">
<path fill="none" stroke="#63b8ff" d="M676.05,-101.06C564.9,-97.88 379.77,-99.61 329.75,-142.99 251.33,-211.01 241.57,-346.6 241.17,-404.62"/>
<polygon fill="#63b8ff" stroke="#63b8ff" points="237.67,-404.27 241.21,-414.26 244.67,-404.25 237.67,-404.27"/>
</a>
</g>
</g>
<!-- Node23&#45;&gt;Node2 -->
<g id="edge40_Node000023_Node000002" class="edge">
<title>Node23&#45;&gt;Node2</title>
<g id="a_edge40_Node000023_Node000002"><a xlink:title=" ">
<path fill="none" stroke="#63b8ff" d="M668.08,-63.35C556.47,-61.05 379.24,-64.43 329.75,-105.99 283.39,-144.93 254.55,-333.26 245.14,-404.56"/>
<polygon fill="#63b8ff" stroke="#63b8ff" points="241.71,-403.84 243.9,-414.21 248.65,-404.74 241.71,-403.84"/>
</a>
</g>
</g>
<!-- Node24&#45;&gt;Node2 -->
<g id="edge42_Node000024_Node000002" class="edge">
<title>Node24&#45;&gt;Node2</title>
<g id="a_edge42_Node000024_Node000002"><a xlink:title=" ">
<path fill="none" stroke="#63b8ff" d="M719.78,-18.49C634.62,-0.12 441.27,27.36 329.75,-68.99 278.4,-113.36 252.19,-327.83 244.34,-404.59"/>
<polygon fill="#63b8ff" stroke="#63b8ff" points="240.89,-403.88 243.39,-414.18 247.86,-404.57 240.89,-403.88"/>
</a>
</g>
</g>
<!-- Node25&#45;&gt;Node2 -->
<g id="edge44_Node000025_Node000002" class="edge">
<title>Node25&#45;&gt;Node2</title>
<g id="a_edge44_Node000025_Node000002"><a xlink:title=" ">
<path fill="none" stroke="#63b8ff" d="M665.76,-661.13C570.88,-658.35 426.51,-640.47 329.75,-564.99 293.2,-536.48 266.81,-488.37 252.93,-458.49"/>
<polygon fill="#63b8ff" stroke="#63b8ff" points="256.3,-457.45 249.01,-449.76 249.92,-460.32 256.3,-457.45"/>
</a>
</g>
</g>
<!-- Node26&#45;&gt;Node2 -->
<g id="edge46_Node000026_Node000002" class="edge">
<title>Node26&#45;&gt;Node2</title>
<g id="a_edge46_Node000026_Node000002"><a xlink:title=" ">
<path fill="none" stroke="#63b8ff" d="M678.22,-619.55C586.21,-614.39 437.37,-595.2 329.75,-527.99 300.65,-509.82 275.12,-479.46 259.16,-457.74"/>
<polygon fill="#63b8ff" stroke="#63b8ff" points="262.07,-455.78 253.41,-449.68 256.37,-459.85 262.07,-455.78"/>
</a>
</g>
</g>
<!-- Node27&#45;&gt;Node2 -->
<g id="edge48_Node000027_Node000002" class="edge">
<title>Node27&#45;&gt;Node2</title>
<g id="a_edge48_Node000027_Node000002"><a xlink:title=" ">
<path fill="none" stroke="#63b8ff" d="M675.36,-572.55C585.47,-565.29 442.62,-546.19 329.75,-495.99 307.18,-485.95 284.7,-469.47 268.11,-455.74"/>
<polygon fill="#63b8ff" stroke="#63b8ff" points="270.58,-453.25 260.69,-449.44 266.05,-458.58 270.58,-453.25"/>
</a>
</g>
</g>
<!-- Node29&#45;&gt;Node30 -->
<g id="edge51_Node000029_Node000030" class="edge">
<title>Node29&#45;&gt;Node30</title>
<g id="a_edge51_Node000029_Node000030"><a xlink:title=" ">
<path fill="none" stroke="#63b8ff" d="M604.48,-745.01C639.1,-734.46 683.98,-720.79 717,-710.74"/>
<polygon fill="#63b8ff" stroke="#63b8ff" points="717.72,-714.18 726.26,-707.92 715.68,-707.48 717.72,-714.18"/>
</a>
</g>
</g>
<!-- Node31 -->
<g id="Node000031" class="node">
<title>Node31</title>
<g id="a_Node000031"><a xlink:href="../../d6/d3c/classLSM1x0A__AtParser.html#a0ba6f927c54fceece22c17773d3f2600" target="_top" xlink:title="Sends a command and extracts a value from the response.">
<polygon fill="white" stroke="#666666" points="1078.12,-712.99 903.88,-712.99 903.88,-680.99 1078.12,-680.99 1078.12,-712.99"/>
<text text-anchor="start" x="911.88" y="-699.49" font-family="Helvetica,sans-Serif" font-size="10.00">LSM1x0A_AtParser::sendCommand</text>
<text text-anchor="middle" x="991" y="-687.49" font-family="Helvetica,sans-Serif" font-size="10.00">WithResponse</text>
</a>
</g>
</g>
<!-- Node30&#45;&gt;Node31 -->
<g id="edge52_Node000030_Node000031" class="edge">
<title>Node30&#45;&gt;Node31</title>
<g id="a_edge52_Node000030_Node000031"><a xlink:title=" ">
<path fill="none" stroke="#63b8ff" d="M850.49,-696.99C864.24,-696.99 878.56,-696.99 892.55,-696.99"/>
<polygon fill="#63b8ff" stroke="#63b8ff" points="892.17,-700.49 902.17,-696.99 892.17,-693.49 892.17,-700.49"/>
</a>
</g>
</g>
<!-- Node32 -->
<g id="Node000032" class="node">
<title>Node32</title>
<g id="a_Node000032"><a xlink:href="../../d5/d8b/classUartDriver.html#a5d0f22e8867eebe99273078bb19bd23d" target="_top" xlink:title="Sends data through UART.">
<polygon fill="white" stroke="#666666" points="1252.75,-706.99 1143.75,-706.99 1143.75,-686.99 1252.75,-686.99 1252.75,-706.99"/>
<text text-anchor="middle" x="1198.25" y="-693.49" font-family="Helvetica,sans-Serif" font-size="10.00">UartDriver::sendData</text>
</a>
</g>
</g>
<!-- Node31&#45;&gt;Node32 -->
<g id="edge53_Node000031_Node000032" class="edge">
<title>Node31&#45;&gt;Node32</title>
<g id="a_edge53_Node000031_Node000032"><a xlink:title=" ">
<path fill="none" stroke="#63b8ff" d="M1078.45,-696.99C1096.34,-696.99 1114.91,-696.99 1131.89,-696.99"/>
<polygon fill="#63b8ff" stroke="#63b8ff" points="1131.86,-700.49 1141.86,-696.99 1131.86,-693.49 1131.86,-700.49"/>
</a>
</g>
</g>
</g>
</svg>
