<?xml version="1.0" encoding="UTF-8" standalone="no"?>
<!DOCTYPE svg PUBLIC "-//W3C//DTD SVG 1.1//EN"
 "http://www.w3.org/Graphics/SVG/1.1/DTD/svg11.dtd">
<!-- Generated by graphviz version 12.2.1 (20241206.2353)
 -->
<!-- Title: LSM1x0A_LoRaWAN::getDevNonce Pages: 1 -->
<svg width="1876pt" height="1018pt"
 viewBox="0.00 0.00 1875.75 1018.48" xmlns="http://www.w3.org/2000/svg" xmlns:xlink="http://www.w3.org/1999/xlink">
<g id="graph0" class="graph" transform="scale(1 1) rotate(0) translate(4 1014.48)">
<title>LSM1x0A_LoRaWAN::getDevNonce</title>
<!-- Node1 -->
<g id="Node000001" class="node">
<title>Node1</title>
<g id="a_Node000001"><a xlink:title="Retrieves the current Device Nonce.">
<polygon fill="#999999" stroke="#666666" points="176.5,-98 0,-98 0,-78 176.5,-78 176.5,-98"/>
<text text-anchor="middle" x="88.25" y="-84.5" font-family="Helvetica,sans-Serif" font-size="10.00">LSM1x0A_LoRaWAN::getDevNonce</text>
</a>
</g>
</g>
<!-- Node2 -->
<g id="Node000002" class="node">
<title>Node2</title>
<g id="a_Node000002"><a xlink:href="../../d8/d92/classLSM1x0A__Controller.html#ab00328d1be83aa51bce8c2a4f907c5f4" target="_top" xlink:title="Sends an AT command and captures its response in a text block. Ideal for getters (e....">
<polygon fill="white" stroke="#666666" points="365,-104 212.5,-104 212.5,-72 365,-72 365,-104"/>
<text text-anchor="start" x="220.5" y="-90.5" font-family="Helvetica,sans-Serif" font-size="10.00">LSM1x0A_Controller</text>
<text text-anchor="middle" x="288.75" y="-78.5" font-family="Helvetica,sans-Serif" font-size="10.00">::sendCommandWithResponse</text>
</a>
</g>
</g>
<!-- Node1&#45;&gt;Node2 -->
<g id="edge1_Node000001_Node000002" class="edge">
<title>Node1&#45;&gt;Node2</title>
<g id="a_edge1_Node000001_Node000002"><a xlink:title=" ">
<path fill="none" stroke="#63b8ff" d="M176.89,-88C184.78,-88 192.76,-88 200.64,-88"/>
<polygon fill="#63b8ff" stroke="#63b8ff" points="200.58,-91.5 210.58,-88 200.58,-84.5 200.58,-91.5"/>
</a>
</g>
</g>
<!-- Node3 -->
<g id="Node000003" class="node">
<title>Node3</title>
<g id="a_Node000003"><a xlink:href="../../d8/d92/classLSM1x0A__Controller.html#abb0eb380daa3dfb7acffb483c5db8e2b" target="_top" xlink:title="Executes the recovery protocol. First Soft&#45;Reset (ATZ), then Hard&#45;Reset if there is a pin.">
<polygon fill="white" stroke="#666666" points="507,-214 401,-214 401,-182 507,-182 507,-214"/>
<text text-anchor="start" x="409" y="-200.5" font-family="Helvetica,sans-Serif" font-size="10.00">LSM1x0A_Controller</text>
<text text-anchor="middle" x="454" y="-188.5" font-family="Helvetica,sans-Serif" font-size="10.00">::recoverModule</text>
</a>
</g>
</g>
<!-- Node2&#45;&gt;Node3 -->
<g id="edge2_Node000002_Node000003" class="edge">
<title>Node2&#45;&gt;Node3</title>
<g id="a_edge2_Node000002_Node000003"><a xlink:title=" ">
<path fill="none" stroke="#63b8ff" d="M314.19,-104.47C342.16,-123.32 388.14,-154.29 419.45,-175.39"/>
<polygon fill="#63b8ff" stroke="#63b8ff" points="417.16,-178.07 427.4,-180.75 421.07,-172.26 417.16,-178.07"/>
</a>
</g>
</g>
<!-- Node12 -->
<g id="Node000012" class="node">
<title>Node12</title>
<g id="a_Node000012"><a xlink:href="../../d6/d3c/classLSM1x0A__AtParser.html#a0ba6f927c54fceece22c17773d3f2600" target="_top" xlink:title="Sends a command and extracts a value from the response.">
<polygon fill="white" stroke="#666666" points="1722.75,-287 1548.5,-287 1548.5,-255 1722.75,-255 1722.75,-287"/>
<text text-anchor="start" x="1556.5" y="-273.5" font-family="Helvetica,sans-Serif" font-size="10.00">LSM1x0A_AtParser::sendCommand</text>
<text text-anchor="middle" x="1635.62" y="-261.5" font-family="Helvetica,sans-Serif" font-size="10.00">WithResponse</text>
</a>
</g>
</g>
<!-- Node2&#45;&gt;Node12 -->
<g id="edge57_Node000002_Node000012" class="edge">
<title>Node2&#45;&gt;Node12</title>
<g id="a_edge57_Node000002_Node000012"><a xlink:title=" ">
<path fill="none" stroke="#63b8ff" d="M326.19,-71.65C386.36,-46.21 510.79,0 621.25,0 621.25,0 621.25,0 1227,0 1403.94,0 1562.7,-179.26 1615.81,-246.19"/>
<polygon fill="#63b8ff" stroke="#63b8ff" points="1612.74,-247.95 1621.66,-253.67 1618.25,-243.64 1612.74,-247.95"/>
</a>
</g>
</g>
<!-- Node4 -->
<g id="Node000004" class="node">
<title>Node4</title>
<g id="a_Node000004"><a xlink:href="../../d8/d92/classLSM1x0A__Controller.html#a3f6f25b843fe4fb7042c544deae2ab16" target="_top" xlink:title="Manually clears bits from the internal EventGroup.">
<polygon fill="white" stroke="#666666" points="1069.88,-98 963.88,-98 963.88,-66 1069.88,-66 1069.88,-98"/>
<text text-anchor="start" x="971.88" y="-84.5" font-family="Helvetica,sans-Serif" font-size="10.00">LSM1x0A_Controller</text>
<text text-anchor="middle" x="1016.88" y="-72.5" font-family="Helvetica,sans-Serif" font-size="10.00">::clearEvents</text>
</a>
</g>
</g>
<!-- Node3&#45;&gt;Node4 -->
<g id="edge3_Node000003_Node000004" class="edge">
<title>Node3&#45;&gt;Node4</title>
<g id="a_edge3_Node000003_Node000004"><a xlink:title=" ">
<path fill="none" stroke="#63b8ff" d="M479.68,-181.53C496.73,-171 520.34,-158.03 543,-151 688.65,-105.82 733.73,-138.94 884,-113 906.5,-109.12 930.9,-103.72 952.52,-98.52"/>
<polygon fill="#63b8ff" stroke="#63b8ff" points="953.2,-101.96 962.08,-96.18 951.53,-95.16 953.2,-101.96"/>
</a>
</g>
</g>
<!-- Node5 -->
<g id="Node000005" class="node">
<title>Node5</title>
<g id="a_Node000005"><a xlink:href="../../d8/d92/classLSM1x0A__Controller.html#a345d4bd79fa16b18dc33a4ca788fe5f7" target="_top" xlink:title="Performs a hardware reset using the reset pin.">
<polygon fill="white" stroke="#666666" points="675.25,-104 569.25,-104 569.25,-72 675.25,-72 675.25,-104"/>
<text text-anchor="start" x="577.25" y="-90.5" font-family="Helvetica,sans-Serif" font-size="10.00">LSM1x0A_Controller</text>
<text text-anchor="middle" x="622.25" y="-78.5" font-family="Helvetica,sans-Serif" font-size="10.00">::hardwareReset</text>
</a>
</g>
</g>
<!-- Node3&#45;&gt;Node5 -->
<g id="edge4_Node000003_Node000005" class="edge">
<title>Node3&#45;&gt;Node5</title>
<g id="a_edge4_Node000003_Node000005"><a xlink:title=" ">
<path fill="none" stroke="#63b8ff" d="M469.46,-181.63C485.82,-163.93 513.99,-135.86 543,-118 548.27,-114.76 553.94,-111.77 559.74,-109.03"/>
<polygon fill="#63b8ff" stroke="#63b8ff" points="561.14,-112.24 568.88,-104.99 558.31,-105.83 561.14,-112.24"/>
</a>
</g>
</g>
<!-- Node7 -->
<g id="Node000007" class="node">
<title>Node7</title>
<g id="a_Node000007"><a xlink:href="../../d5/d72/classLSM1x0A__LoRaWAN.html#a1892801e37c8cd67d37c76108d6f7d49" target="_top" xlink:title="Validates if the device is currently Joined to the network. (Either confirmed by OTAA or statically a...">
<polygon fill="white" stroke="#666666" points="1302.25,-136 1149.75,-136 1149.75,-116 1302.25,-116 1302.25,-136"/>
<text text-anchor="middle" x="1226" y="-122.5" font-family="Helvetica,sans-Serif" font-size="10.00">LSM1x0A_LoRaWAN::isJoined</text>
</a>
</g>
</g>
<!-- Node3&#45;&gt;Node7 -->
<g id="edge6_Node000003_Node000007" class="edge">
<title>Node3&#45;&gt;Node7</title>
<g id="a_edge6_Node000003_Node000007"><a xlink:title=" ">
<path fill="none" stroke="#63b8ff" d="M459.93,-181.77C469.99,-151.92 495.98,-88.97 543,-63 654.04,-1.69 991.76,-22.24 1113.75,-57 1148.82,-66.99 1183.62,-91.56 1204.72,-108.51"/>
<polygon fill="#63b8ff" stroke="#63b8ff" points="1202.3,-111.05 1212.24,-114.72 1206.76,-105.65 1202.3,-111.05"/>
</a>
</g>
</g>
<!-- Node8 -->
<g id="Node000008" class="node">
<title>Node8</title>
<g id="a_Node000008"><a xlink:href="../../d5/d72/classLSM1x0A__LoRaWAN.html#a83e11c0e74ff9e0757db616ab1163424" target="_top" xlink:title="Attempts to recover a lost connection (re&#45;executes OTAA Join if dropped).">
<polygon fill="white" stroke="#666666" points="696.62,-192 547.88,-192 547.88,-160 696.62,-160 696.62,-192"/>
<text text-anchor="start" x="555.88" y="-178.5" font-family="Helvetica,sans-Serif" font-size="10.00">LSM1x0A_LoRaWAN::recover</text>
<text text-anchor="middle" x="622.25" y="-166.5" font-family="Helvetica,sans-Serif" font-size="10.00">Connection</text>
</a>
</g>
</g>
<!-- Node3&#45;&gt;Node8 -->
<g id="edge7_Node000003_Node000008" class="edge">
<title>Node3&#45;&gt;Node8</title>
<g id="a_edge7_Node000003_Node000008"><a xlink:title=" ">
<path fill="none" stroke="#63b8ff" d="M507.15,-191.1C516.49,-189.86 526.44,-188.55 536.42,-187.23"/>
<polygon fill="#63b8ff" stroke="#63b8ff" points="536.72,-190.72 546.17,-185.94 535.8,-183.78 536.72,-190.72"/>
</a>
</g>
</g>
<!-- Node16 -->
<g id="Node000016" class="node">
<title>Node16</title>
<g id="a_Node000016"><a xlink:href="../../d5/d72/classLSM1x0A__LoRaWAN.html#ae3be4ce59dfa200369733317df356e97" target="_top" xlink:title="Pushes the RAM&#45;cached variables back down into the hardware module. Restores the operational state af...">
<polygon fill="white" stroke="#666666" points="884,-539 737.5,-539 737.5,-507 884,-507 884,-539"/>
<text text-anchor="start" x="745.5" y="-525.5" font-family="Helvetica,sans-Serif" font-size="10.00">LSM1x0A_LoRaWAN::restore</text>
<text text-anchor="middle" x="810.75" y="-513.5" font-family="Helvetica,sans-Serif" font-size="10.00">Config</text>
</a>
</g>
</g>
<!-- Node3&#45;&gt;Node16 -->
<g id="edge20_Node000003_Node000016" class="edge">
<title>Node3&#45;&gt;Node16</title>
<g id="a_edge20_Node000003_Node000016"><a xlink:title=" ">
<path fill="none" stroke="#63b8ff" d="M472.59,-214.12C530.51,-267.18 715.44,-436.6 783.92,-499.34"/>
<polygon fill="#63b8ff" stroke="#63b8ff" points="781.2,-501.59 790.94,-505.76 785.93,-496.43 781.2,-501.59"/>
</a>
</g>
</g>
<!-- Node33 -->
<g id="Node000033" class="node">
<title>Node33</title>
<g id="a_Node000033"><a xlink:href="../../d5/d72/classLSM1x0A__LoRaWAN.html#ace4b04396f1de1f4a54f513f5f378db7" target="_top" xlink:title="Manually overrides the internal joined state tracker.">
<polygon fill="white" stroke="#666666" points="701.5,-939 543,-939 543,-919 701.5,-919 701.5,-939"/>
<text text-anchor="middle" x="622.25" y="-925.5" font-family="Helvetica,sans-Serif" font-size="10.00">LSM1x0A_LoRaWAN::setJoined</text>
</a>
</g>
</g>
<!-- Node3&#45;&gt;Node33 -->
<g id="edge54_Node000003_Node000033" class="edge">
<title>Node3&#45;&gt;Node33</title>
<g id="a_edge54_Node000003_Node000033"><a xlink:title=" ">
<path fill="none" stroke="#63b8ff" d="M454.72,-214.4C453.4,-310.08 451.33,-795.83 543,-905 545.42,-907.88 548.18,-910.43 551.18,-912.67"/>
<polygon fill="#63b8ff" stroke="#63b8ff" points="549.16,-915.54 559.52,-917.75 552.8,-909.56 549.16,-915.54"/>
</a>
</g>
</g>
<!-- Node34 -->
<g id="Node000034" class="node">
<title>Node34</title>
<g id="a_Node000034"><a xlink:href="../../d8/d92/classLSM1x0A__Controller.html#a11ad21cb5ca33ec51346764a23bd485e" target="_top" xlink:title="Performs a software reset (ATZ Command).">
<polygon fill="white" stroke="#666666" points="1279,-795 1173,-795 1173,-763 1279,-763 1279,-795"/>
<text text-anchor="start" x="1181" y="-781.5" font-family="Helvetica,sans-Serif" font-size="10.00">LSM1x0A_Controller</text>
<text text-anchor="middle" x="1226" y="-769.5" font-family="Helvetica,sans-Serif" font-size="10.00">::softwareReset</text>
</a>
</g>
</g>
<!-- Node3&#45;&gt;Node34 -->
<g id="edge55_Node000003_Node000034" class="edge">
<title>Node3&#45;&gt;Node34</title>
<g id="a_edge55_Node000003_Node000034"><a xlink:title=" ">
<path fill="none" stroke="#63b8ff" d="M455.64,-214.18C459.91,-318.83 486,-897.3 543,-948 608.19,-1005.99 876.14,-1058.87 1113.75,-932 1165.21,-904.52 1198.82,-841.52 1214.57,-805.51"/>
<polygon fill="#63b8ff" stroke="#63b8ff" points="1217.64,-807.25 1218.3,-796.67 1211.19,-804.53 1217.64,-807.25"/>
</a>
</g>
</g>
<!-- Node6 -->
<g id="Node000006" class="node">
<title>Node6</title>
<g id="a_Node000006"><a xlink:href="../../d6/d3c/classLSM1x0A__AtParser.html#ad2839120da13e56132b95019419be1e5" target="_top" xlink:title="Waits for an event (like BOOTALERT) without sending any command. Useful for hardware reset where the ...">
<polygon fill="white" stroke="#666666" points="881,-104 740.5,-104 740.5,-72 881,-72 881,-104"/>
<text text-anchor="start" x="748.5" y="-90.5" font-family="Helvetica,sans-Serif" font-size="10.00">LSM1x0A_AtParser::waitFor</text>
<text text-anchor="middle" x="810.75" y="-78.5" font-family="Helvetica,sans-Serif" font-size="10.00">Event</text>
</a>
</g>
</g>
<!-- Node5&#45;&gt;Node6 -->
<g id="edge5_Node000005_Node000006" class="edge">
<title>Node5&#45;&gt;Node6</title>
<g id="a_edge5_Node000005_Node000006"><a xlink:title=" ">
<path fill="none" stroke="#63b8ff" d="M675.7,-88C692.21,-88 710.86,-88 728.87,-88"/>
<polygon fill="#63b8ff" stroke="#63b8ff" points="728.78,-91.5 738.78,-88 728.78,-84.5 728.78,-91.5"/>
</a>
</g>
</g>
<!-- Node9 -->
<g id="Node000009" class="node">
<title>Node9</title>
<g id="a_Node000009"><a xlink:href="../../d5/d72/classLSM1x0A__LoRaWAN.html#a59f781f3cfd30c11cd3973bcb10a7baa" target="_top" xlink:title="Initiates a LoRaWAN Network Join procedure. This is a blocking function until the module fires an eve...">
<polygon fill="white" stroke="#666666" points="876.5,-186 745,-186 745,-166 876.5,-166 876.5,-186"/>
<text text-anchor="middle" x="810.75" y="-172.5" font-family="Helvetica,sans-Serif" font-size="10.00">LSM1x0A_LoRaWAN::join</text>
</a>
</g>
</g>
<!-- Node8&#45;&gt;Node9 -->
<g id="edge8_Node000008_Node000009" class="edge">
<title>Node8&#45;&gt;Node9</title>
<g id="a_edge8_Node000008_Node000009"><a xlink:title=" ">
<path fill="none" stroke="#63b8ff" d="M696.96,-176C708.92,-176 721.33,-176 733.35,-176"/>
<polygon fill="#63b8ff" stroke="#63b8ff" points="733.22,-179.5 743.22,-176 733.22,-172.5 733.22,-179.5"/>
</a>
</g>
</g>
<!-- Node9&#45;&gt;Node3 -->
<g id="edge10_Node000009_Node000003" class="edge">
<title>Node9&#45;&gt;Node3</title>
<g id="a_edge10_Node000009_Node000003"><a xlink:title=" ">
<path fill="none" stroke="#63b8ff" d="M774.02,-186.4C753.09,-191.95 726.03,-198.2 701.5,-201 631.51,-208.98 613.43,-202.2 543,-201 535.1,-200.87 526.81,-200.66 518.61,-200.43"/>
<polygon fill="#63b8ff" stroke="#63b8ff" points="518.73,-196.93 508.62,-200.12 518.51,-203.92 518.73,-196.93"/>
</a>
</g>
</g>
<!-- Node9&#45;&gt;Node4 -->
<g id="edge9_Node000009_Node000004" class="edge">
<title>Node9&#45;&gt;Node4</title>
<g id="a_edge9_Node000009_Node000004"><a xlink:title=" ">
<path fill="none" stroke="#63b8ff" d="M845.3,-165.52C858.05,-160.68 872.31,-154.16 884,-146 903.34,-132.5 899.77,-119.13 920,-107 929.95,-101.03 941.31,-96.47 952.65,-93"/>
<polygon fill="#63b8ff" stroke="#63b8ff" points="953.32,-96.45 962.01,-90.39 951.44,-89.7 953.32,-96.45"/>
</a>
</g>
</g>
<!-- Node10 -->
<g id="Node000010" class="node">
<title>Node10</title>
<g id="a_Node000010"><a xlink:href="../../d8/d92/classLSM1x0A__Controller.html#afd7d92e60ed6fdae696a955cdbe0ed8c" target="_top" xlink:title="Sends any AT command to the module, returning error if it fails. Internally uses the LsmAtParser logi...">
<polygon fill="white" stroke="#666666" points="1279,-558 1173,-558 1173,-526 1279,-526 1279,-558"/>
<text text-anchor="start" x="1181" y="-544.5" font-family="Helvetica,sans-Serif" font-size="10.00">LSM1x0A_Controller</text>
<text text-anchor="middle" x="1226" y="-532.5" font-family="Helvetica,sans-Serif" font-size="10.00">::sendCommand</text>
</a>
</g>
</g>
<!-- Node9&#45;&gt;Node10 -->
<g id="edge11_Node000009_Node000010" class="edge">
<title>Node9&#45;&gt;Node10</title>
<g id="a_edge11_Node000009_Node000010"><a xlink:title=" ">
<path fill="none" stroke="#63b8ff" d="M876.78,-171.81C954.39,-168.2 1078.16,-167.28 1113.75,-195 1215.48,-274.23 1225.74,-447.25 1225.7,-514.5"/>
<polygon fill="#63b8ff" stroke="#63b8ff" points="1222.2,-514.23 1225.6,-524.26 1229.2,-514.3 1222.2,-514.23"/>
</a>
</g>
</g>
<!-- Node14 -->
<g id="Node000014" class="node">
<title>Node14</title>
<g id="a_Node000014"><a xlink:href="../../d5/d72/classLSM1x0A__LoRaWAN.html#a3fdd1ac318a5ad2559323e5d57e36a5e" target="_top" xlink:title="Enables or disables specific sub&#45;bands for regions supporting Channel Masks (e.g.,...">
<polygon fill="white" stroke="#666666" points="1111.88,-224 921.88,-224 921.88,-204 1111.88,-204 1111.88,-224"/>
<text text-anchor="middle" x="1016.88" y="-210.5" font-family="Helvetica,sans-Serif" font-size="10.00">LSM1x0A_LoRaWAN::setChannelMask</text>
</a>
</g>
</g>
<!-- Node9&#45;&gt;Node14 -->
<g id="edge16_Node000009_Node000014" class="edge">
<title>Node9&#45;&gt;Node14</title>
<g id="a_edge16_Node000009_Node000014"><a xlink:title=" ">
<path fill="none" stroke="#63b8ff" d="M868.07,-186.48C892.94,-191.12 922.39,-196.6 948.43,-201.44"/>
<polygon fill="#63b8ff" stroke="#63b8ff" points="947.78,-204.88 958.25,-203.27 949.06,-198 947.78,-204.88"/>
</a>
</g>
</g>
<!-- Node15 -->
<g id="Node000015" class="node">
<title>Node15</title>
<g id="a_Node000015"><a xlink:href="../../d8/d92/classLSM1x0A__Controller.html#a62476e30e50c7fe120aeb8df4b828675" target="_top" xlink:title="Synchronously/blockingly waits for an asynchronous event to occur. Useful for wrapping commands like ...">
<polygon fill="white" stroke="#666666" points="1069.88,-148 963.88,-148 963.88,-116 1069.88,-116 1069.88,-148"/>
<text text-anchor="start" x="971.88" y="-134.5" font-family="Helvetica,sans-Serif" font-size="10.00">LSM1x0A_Controller</text>
<text text-anchor="middle" x="1016.88" y="-122.5" font-family="Helvetica,sans-Serif" font-size="10.00">::waitForEvent</text>
</a>
</g>
</g>
<!-- Node9&#45;&gt;Node15 -->
<g id="edge19_Node000009_Node000015" class="edge">
<title>Node9&#45;&gt;Node15</title>
<g id="a_edge19_Node000009_Node000015"><a xlink:title=" ">
<path fill="none" stroke="#63b8ff" d="M860.38,-165.52C887.99,-159.57 922.86,-152.05 952.57,-145.65"/>
<polygon fill="#63b8ff" stroke="#63b8ff" points="953.17,-149.1 962.2,-143.57 951.69,-142.25 953.17,-149.1"/>
</a>
</g>
</g>
<!-- Node10&#45;&gt;Node3 -->
<g id="edge12_Node000010_Node000003" class="edge">
<title>Node10&#45;&gt;Node3</title>
<g id="a_edge12_Node000010_Node000003"><a xlink:title=" ">
<path fill="none" stroke="#63b8ff" d="M1218.57,-558.31C1204.81,-593.61 1171.91,-679.91 1149.75,-754 1130.48,-818.44 1166.67,-859.48 1113.75,-901 1046,-954.16 996.44,-940.65 920,-901 632.68,-751.97 494.72,-335.66 462.52,-225.19"/>
<polygon fill="#63b8ff" stroke="#63b8ff" points="465.95,-224.47 459.83,-215.82 459.22,-226.4 465.95,-224.47"/>
</a>
</g>
</g>
<!-- Node11 -->
<g id="Node000011" class="node">
<title>Node11</title>
<g id="a_Node000011"><a xlink:href="../../d6/d3c/classLSM1x0A__AtParser.html#a29b53c521974387ba6c03afadfaffa4a" target="_top" xlink:title="Sends a simple command and waits for OK/ERROR. Example: sendCommand(&quot;AT+JOIN&quot;);.">
<polygon fill="white" stroke="#666666" points="1512.5,-552 1338.25,-552 1338.25,-532 1512.5,-532 1512.5,-552"/>
<text text-anchor="middle" x="1425.38" y="-538.5" font-family="Helvetica,sans-Serif" font-size="10.00">LSM1x0A_AtParser::sendCommand</text>
</a>
</g>
</g>
<!-- Node10&#45;&gt;Node11 -->
<g id="edge13_Node000010_Node000011" class="edge">
<title>Node10&#45;&gt;Node11</title>
<g id="a_edge13_Node000010_Node000011"><a xlink:title=" ">
<path fill="none" stroke="#63b8ff" d="M1279.37,-542C1293.94,-542 1310.25,-542 1326.53,-542"/>
<polygon fill="#63b8ff" stroke="#63b8ff" points="1326.26,-545.5 1336.26,-542 1326.26,-538.5 1326.26,-545.5"/>
</a>
</g>
</g>
<!-- Node11&#45;&gt;Node12 -->
<g id="edge14_Node000011_Node000012" class="edge">
<title>Node11&#45;&gt;Node12</title>
<g id="a_edge14_Node000011_Node000012"><a xlink:title=" ">
<path fill="none" stroke="#63b8ff" d="M1434.28,-531.71C1464.19,-492.78 1570.93,-353.88 1615.19,-296.3"/>
<polygon fill="#63b8ff" stroke="#63b8ff" points="1617.73,-298.73 1621.05,-288.67 1612.18,-294.46 1617.73,-298.73"/>
</a>
</g>
</g>
<!-- Node13 -->
<g id="Node000013" class="node">
<title>Node13</title>
<g id="a_Node000013"><a xlink:href="../../d5/d8b/classUartDriver.html#a5d0f22e8867eebe99273078bb19bd23d" target="_top" xlink:title="Sends data through UART.">
<polygon fill="white" stroke="#666666" points="1867.75,-281 1758.75,-281 1758.75,-261 1867.75,-261 1867.75,-281"/>
<text text-anchor="middle" x="1813.25" y="-267.5" font-family="Helvetica,sans-Serif" font-size="10.00">UartDriver::sendData</text>
</a>
</g>
</g>
<!-- Node12&#45;&gt;Node13 -->
<g id="edge15_Node000012_Node000013" class="edge">
<title>Node12&#45;&gt;Node13</title>
<g id="a_edge15_Node000012_Node000013"><a xlink:title=" ">
<path fill="none" stroke="#63b8ff" d="M1723.15,-271C1731.3,-271 1739.45,-271 1747.35,-271"/>
<polygon fill="#63b8ff" stroke="#63b8ff" points="1747.18,-274.5 1757.18,-271 1747.18,-267.5 1747.18,-274.5"/>
</a>
</g>
</g>
<!-- Node14&#45;&gt;Node7 -->
<g id="edge17_Node000014_Node000007" class="edge">
<title>Node14&#45;&gt;Node7</title>
<g id="a_edge17_Node000014_Node000007"><a xlink:title=" ">
<path fill="none" stroke="#63b8ff" d="M1042.45,-203.56C1079.04,-188.01 1148.03,-158.7 1189.92,-140.9"/>
<polygon fill="#63b8ff" stroke="#63b8ff" points="1191.23,-144.15 1199.07,-137.02 1188.49,-137.71 1191.23,-144.15"/>
</a>
</g>
</g>
<!-- Node14&#45;&gt;Node10 -->
<g id="edge18_Node000014_Node000010" class="edge">
<title>Node14&#45;&gt;Node10</title>
<g id="a_edge18_Node000014_Node000010"><a xlink:title=" ">
<path fill="none" stroke="#63b8ff" d="M1100.63,-224.28C1105.33,-226.69 1109.76,-229.57 1113.75,-233 1200.08,-307.27 1219.42,-453.75 1223.75,-514.55"/>
<polygon fill="#63b8ff" stroke="#63b8ff" points="1220.25,-514.57 1224.36,-524.33 1227.23,-514.13 1220.25,-514.57"/>
</a>
</g>
</g>
<!-- Node16&#45;&gt;Node14 -->
<g id="edge25_Node000016_Node000014" class="edge">
<title>Node16&#45;&gt;Node14</title>
<g id="a_edge25_Node000016_Node000014"><a xlink:title=" ">
<path fill="none" stroke="#63b8ff" d="M812.55,-506.78C815.93,-457.25 833.2,-306.79 920,-233 921.13,-232.04 922.29,-231.13 923.48,-230.25"/>
<polygon fill="#63b8ff" stroke="#63b8ff" points="925.17,-233.33 931.87,-225.12 921.52,-227.35 925.17,-233.33"/>
</a>
</g>
</g>
<!-- Node17 -->
<g id="Node000017" class="node">
<title>Node17</title>
<g id="a_Node000017"><a xlink:href="../../d5/d72/classLSM1x0A__LoRaWAN.html#af0baa3db4c7fab580d6b19a9e92472f6" target="_top" xlink:title="Enables or disables Adaptive Data Rate (ADR).">
<polygon fill="white" stroke="#666666" points="1092.75,-350 941,-350 941,-330 1092.75,-330 1092.75,-350"/>
<text text-anchor="middle" x="1016.88" y="-336.5" font-family="Helvetica,sans-Serif" font-size="10.00">LSM1x0A_LoRaWAN::setADR</text>
</a>
</g>
</g>
<!-- Node16&#45;&gt;Node17 -->
<g id="edge21_Node000016_Node000017" class="edge">
<title>Node16&#45;&gt;Node17</title>
<g id="a_edge21_Node000016_Node000017"><a xlink:title=" ">
<path fill="none" stroke="#63b8ff" d="M817.56,-506.6C830.35,-473 864.35,-396.38 920,-359 923.27,-356.8 926.73,-354.85 930.33,-353.11"/>
<polygon fill="#63b8ff" stroke="#63b8ff" points="931.48,-356.42 939.37,-349.35 928.79,-349.96 931.48,-356.42"/>
</a>
</g>
</g>
<!-- Node18 -->
<g id="Node000018" class="node">
<title>Node18</title>
<g id="a_Node000018"><a xlink:href="../../d5/d72/classLSM1x0A__LoRaWAN.html#a5365ed1596eb84ebf1e3b33b4a10c788" target="_top" xlink:title="Sets the LoRaWAN operational frequency band.">
<polygon fill="white" stroke="#666666" points="1093.12,-312 940.62,-312 940.62,-292 1093.12,-292 1093.12,-312"/>
<text text-anchor="middle" x="1016.88" y="-298.5" font-family="Helvetica,sans-Serif" font-size="10.00">LSM1x0A_LoRaWAN::setBand</text>
</a>
</g>
</g>
<!-- Node16&#45;&gt;Node18 -->
<g id="edge23_Node000016_Node000018" class="edge">
<title>Node16&#45;&gt;Node18</title>
<g id="a_edge23_Node000016_Node000018"><a xlink:title=" ">
<path fill="none" stroke="#63b8ff" d="M815.47,-506.5C825.2,-467.43 855.24,-368.94 920,-321 923.16,-318.66 926.54,-316.58 930.07,-314.75"/>
<polygon fill="#63b8ff" stroke="#63b8ff" points="931.25,-318.05 938.97,-310.8 928.41,-311.66 931.25,-318.05"/>
</a>
</g>
</g>
<!-- Node19 -->
<g id="Node000019" class="node">
<title>Node19</title>
<g id="a_Node000019"><a xlink:href="../../d5/d72/classLSM1x0A__LoRaWAN.html#a9d9285c43414337a0ccb3a6cd7ca06e6" target="_top" xlink:title="Configures the number of retries for Confirmed uplinks.">
<polygon fill="white" stroke="#666666" points="1099.12,-274 934.62,-274 934.62,-242 1099.12,-242 1099.12,-274"/>
<text text-anchor="start" x="942.62" y="-260.5" font-family="Helvetica,sans-Serif" font-size="10.00">LSM1x0A_LoRaWAN::setConfirm</text>
<text text-anchor="middle" x="1016.88" y="-248.5" font-family="Helvetica,sans-Serif" font-size="10.00">Retry</text>
</a>
</g>
</g>
<!-- Node16&#45;&gt;Node19 -->
<g id="edge26_Node000016_Node000019" class="edge">
<title>Node16&#45;&gt;Node19</title>
<g id="a_edge26_Node000016_Node000019"><a xlink:title=" ">
<path fill="none" stroke="#63b8ff" d="M814.18,-506.7C821.55,-463.28 847.7,-344.03 920,-283 921.49,-281.74 923.04,-280.55 924.63,-279.41"/>
<polygon fill="#63b8ff" stroke="#63b8ff" points="926.25,-282.52 932.95,-274.32 922.6,-276.55 926.25,-282.52"/>
</a>
</g>
</g>
<!-- Node20 -->
<g id="Node000020" class="node">
<title>Node20</title>
<g id="a_Node000020"><a xlink:href="../../d5/d72/classLSM1x0A__LoRaWAN.html#a56345ceeafa0b9059d6de4e69eddc82e" target="_top" xlink:title="Sets the Data Rate (DR) of the module.">
<polygon fill="white" stroke="#666666" points="1102.88,-892 930.88,-892 930.88,-872 1102.88,-872 1102.88,-892"/>
<text text-anchor="middle" x="1016.88" y="-878.5" font-family="Helvetica,sans-Serif" font-size="10.00">LSM1x0A_LoRaWAN::setDataRate</text>
</a>
</g>
</g>
<!-- Node16&#45;&gt;Node20 -->
<g id="edge28_Node000016_Node000020" class="edge">
<title>Node16&#45;&gt;Node20</title>
<g id="a_edge28_Node000016_Node000020"><a xlink:title=" ">
<path fill="none" stroke="#63b8ff" d="M811.55,-539.16C811.79,-593.93 820.44,-774.06 920,-863 920.95,-863.85 921.92,-864.66 922.92,-865.44"/>
<polygon fill="#63b8ff" stroke="#63b8ff" points="920.95,-868.34 931.25,-870.83 924.75,-862.46 920.95,-868.34"/>
</a>
</g>
</g>
<!-- Node21 -->
<g id="Node000021" class="node">
<title>Node21</title>
<g id="a_Node000021"><a xlink:href="../../d5/d72/classLSM1x0A__LoRaWAN.html#a8494083816ab885cb07fc3b08de029f4" target="_top" xlink:title="Sets the LoRaWAN Device Address (DevAddr) for ABP mode.">
<polygon fill="white" stroke="#666666" points="1101,-854 932.75,-854 932.75,-834 1101,-834 1101,-854"/>
<text text-anchor="middle" x="1016.88" y="-840.5" font-family="Helvetica,sans-Serif" font-size="10.00">LSM1x0A_LoRaWAN::setDevAddr</text>
</a>
</g>
</g>
<!-- Node16&#45;&gt;Node21 -->
<g id="edge30_Node000016_Node000021" class="edge">
<title>Node16&#45;&gt;Node21</title>
<g id="a_edge30_Node000016_Node000021"><a xlink:title=" ">
<path fill="none" stroke="#63b8ff" d="M812.28,-539.15C814.87,-589.92 830.12,-747.57 920,-825 921.12,-825.97 922.28,-826.89 923.46,-827.77"/>
<polygon fill="#63b8ff" stroke="#63b8ff" points="921.48,-830.65 931.82,-832.93 925.15,-824.7 921.48,-830.65"/>
</a>
</g>
</g>
<!-- Node22 -->
<g id="Node000022" class="node">
<title>Node22</title>
<g id="a_Node000022"><a xlink:href="../../d5/d72/classLSM1x0A__LoRaWAN.html#ad320634e52d7ea907043cc50dd37c5b0" target="_top" xlink:title="Sets the LoRaWAN Device EUI (DevEUI).">
<polygon fill="white" stroke="#666666" points="1099.5,-816 934.25,-816 934.25,-796 1099.5,-796 1099.5,-816"/>
<text text-anchor="middle" x="1016.88" y="-802.5" font-family="Helvetica,sans-Serif" font-size="10.00">LSM1x0A_LoRaWAN::setDevEUI</text>
</a>
</g>
</g>
<!-- Node16&#45;&gt;Node22 -->
<g id="edge32_Node000016_Node000022" class="edge">
<title>Node16&#45;&gt;Node22</title>
<g id="a_edge32_Node000016_Node000022"><a xlink:title=" ">
<path fill="none" stroke="#63b8ff" d="M813.24,-539.44C818.39,-586.24 839.87,-721.05 920,-787 921.49,-788.22 923.03,-789.38 924.62,-790.46"/>
<polygon fill="#63b8ff" stroke="#63b8ff" points="922.48,-793.27 932.9,-795.21 925.97,-787.2 922.48,-793.27"/>
</a>
</g>
</g>
<!-- Node23 -->
<g id="Node000023" class="node">
<title>Node23</title>
<g id="a_Node000023"><a xlink:href="../../d5/d72/classLSM1x0A__LoRaWAN.html#a031023b0d2dd5db3c51c2db6ae7801cc" target="_top" xlink:title="Enables or disables the Duty Cycle limitation (EU regions mostly).">
<polygon fill="white" stroke="#666666" points="1092.38,-778 941.38,-778 941.38,-746 1092.38,-746 1092.38,-778"/>
<text text-anchor="start" x="949.38" y="-764.5" font-family="Helvetica,sans-Serif" font-size="10.00">LSM1x0A_LoRaWAN::setDuty</text>
<text text-anchor="middle" x="1016.88" y="-752.5" font-family="Helvetica,sans-Serif" font-size="10.00">Cycle</text>
</a>
</g>
</g>
<!-- Node16&#45;&gt;Node23 -->
<g id="edge34_Node000016_Node000023" class="edge">
<title>Node16&#45;&gt;Node23</title>
<g id="a_edge34_Node000016_Node000023"><a xlink:title=" ">
<path fill="none" stroke="#63b8ff" d="M815.15,-539.3C824.4,-579.44 853.89,-683.67 920,-737 923.44,-739.78 927.16,-742.25 931.06,-744.44"/>
<polygon fill="#63b8ff" stroke="#63b8ff" points="929.21,-747.44 939.73,-748.7 932.3,-741.15 929.21,-747.44"/>
</a>
</g>
</g>
<!-- Node24 -->
<g id="Node000024" class="node">
<title>Node24</title>
<g id="a_Node000024"><a xlink:href="../../d5/d72/classLSM1x0A__LoRaWAN.html#a6b179d5825c49af0f391dfc539912f64" target="_top" xlink:title="Sets the delay for the Join1 receive window.">
<polygon fill="white" stroke="#666666" points="1093.5,-728 940.25,-728 940.25,-696 1093.5,-696 1093.5,-728"/>
<text text-anchor="start" x="948.25" y="-714.5" font-family="Helvetica,sans-Serif" font-size="10.00">LSM1x0A_LoRaWAN::setJoin1</text>
<text text-anchor="middle" x="1016.88" y="-702.5" font-family="Helvetica,sans-Serif" font-size="10.00">Delay</text>
</a>
</g>
</g>
<!-- Node16&#45;&gt;Node24 -->
<g id="edge36_Node000016_Node000024" class="edge">
<title>Node16&#45;&gt;Node24</title>
<g id="a_edge36_Node000016_Node000024"><a xlink:title=" ">
<path fill="none" stroke="#63b8ff" d="M817.84,-539.39C831.06,-572.62 865.63,-648.08 920,-687 923.17,-689.27 926.54,-691.34 930.03,-693.21"/>
<polygon fill="#63b8ff" stroke="#63b8ff" points="928.28,-696.26 938.82,-697.38 931.28,-689.93 928.28,-696.26"/>
</a>
</g>
</g>
<!-- Node25 -->
<g id="Node000025" class="node">
<title>Node25</title>
<g id="a_Node000025"><a xlink:href="../../d5/d72/classLSM1x0A__LoRaWAN.html#a4545d0caad41558cdb9bae8286b104d8" target="_top" xlink:title="Sets the delay for the Join2 receive window.">
<polygon fill="white" stroke="#666666" points="1093.5,-678 940.25,-678 940.25,-646 1093.5,-646 1093.5,-678"/>
<text text-anchor="start" x="948.25" y="-664.5" font-family="Helvetica,sans-Serif" font-size="10.00">LSM1x0A_LoRaWAN::setJoin2</text>
<text text-anchor="middle" x="1016.88" y="-652.5" font-family="Helvetica,sans-Serif" font-size="10.00">Delay</text>
</a>
</g>
</g>
<!-- Node16&#45;&gt;Node25 -->
<g id="edge38_Node000016_Node000025" class="edge">
<title>Node16&#45;&gt;Node25</title>
<g id="a_edge38_Node000016_Node000025"><a xlink:title=" ">
<path fill="none" stroke="#63b8ff" d="M822.64,-539.33C840.15,-564.27 876.99,-611.61 920,-637 923.01,-638.78 926.15,-640.43 929.38,-641.97"/>
<polygon fill="#63b8ff" stroke="#63b8ff" points="927.98,-645.18 938.55,-645.9 930.74,-638.74 927.98,-645.18"/>
</a>
</g>
</g>
<!-- Node26 -->
<g id="Node000026" class="node">
<title>Node26</title>
<g id="a_Node000026"><a xlink:href="../../d5/d72/classLSM1x0A__LoRaWAN.html#a06bd50723ec1eb7e144c9141b2ec86fc" target="_top" xlink:title="Sets the LoRaWAN Network ID (NetID).">
<polygon fill="white" stroke="#666666" points="1097.25,-628 936.5,-628 936.5,-608 1097.25,-608 1097.25,-628"/>
<text text-anchor="middle" x="1016.88" y="-614.5" font-family="Helvetica,sans-Serif" font-size="10.00">LSM1x0A_LoRaWAN::setNwkID</text>
</a>
</g>
</g>
<!-- Node16&#45;&gt;Node26 -->
<g id="edge40_Node000016_Node000026" class="edge">
<title>Node16&#45;&gt;Node26</title>
<g id="a_edge40_Node000016_Node000026"><a xlink:title=" ">
<path fill="none" stroke="#63b8ff" d="M829.85,-539.34C850.26,-556.84 885.16,-584.11 920,-599 924.6,-600.97 929.41,-602.73 934.33,-604.32"/>
<polygon fill="#63b8ff" stroke="#63b8ff" points="933.17,-607.63 943.76,-607.08 935.14,-600.91 933.17,-607.63"/>
</a>
</g>
</g>
<!-- Node27 -->
<g id="Node000027" class="node">
<title>Node27</title>
<g id="a_Node000027"><a xlink:href="../../d5/d72/classLSM1x0A__LoRaWAN.html#aa70ada64d28ecca216bb62268e502adf" target="_top" xlink:title="Sets the delay for the RX1 receive window.">
<polygon fill="white" stroke="#666666" points="1103.62,-590 930.12,-590 930.12,-570 1103.62,-570 1103.62,-590"/>
<text text-anchor="middle" x="1016.88" y="-576.5" font-family="Helvetica,sans-Serif" font-size="10.00">LSM1x0A_LoRaWAN::setRx1Delay</text>
</a>
</g>
</g>
<!-- Node16&#45;&gt;Node27 -->
<g id="edge42_Node000016_Node000027" class="edge">
<title>Node16&#45;&gt;Node27</title>
<g id="a_edge42_Node000016_Node000027"><a xlink:title=" ">
<path fill="none" stroke="#63b8ff" d="M854.24,-539.49C874.02,-546.76 898,-554.99 920,-561 928.08,-563.21 936.61,-565.27 945.12,-567.16"/>
<polygon fill="#63b8ff" stroke="#63b8ff" points="944.25,-570.55 954.76,-569.23 945.72,-563.71 944.25,-570.55"/>
</a>
</g>
</g>
<!-- Node28 -->
<g id="Node000028" class="node">
<title>Node28</title>
<g id="a_Node000028"><a xlink:href="../../d5/d72/classLSM1x0A__LoRaWAN.html#a2cf4eff0181b6107d082bccefa24217b" target="_top" xlink:title="Sets the Data Rate (DR) specifically for the RX2 window.">
<polygon fill="white" stroke="#666666" points="1111.88,-552 921.88,-552 921.88,-532 1111.88,-532 1111.88,-552"/>
<text text-anchor="middle" x="1016.88" y="-538.5" font-family="Helvetica,sans-Serif" font-size="10.00">LSM1x0A_LoRaWAN::setRx2DataRate</text>
</a>
</g>
</g>
<!-- Node16&#45;&gt;Node28 -->
<g id="edge44_Node000016_Node000028" class="edge">
<title>Node16&#45;&gt;Node28</title>
<g id="a_edge44_Node000016_Node000028"><a xlink:title=" ">
<path fill="none" stroke="#63b8ff" d="M884.29,-529.75C892.66,-530.53 901.31,-531.34 910.01,-532.15"/>
<polygon fill="#63b8ff" stroke="#63b8ff" points="909.64,-535.63 919.93,-533.07 910.29,-528.66 909.64,-535.63"/>
</a>
</g>
</g>
<!-- Node29 -->
<g id="Node000029" class="node">
<title>Node29</title>
<g id="a_Node000029"><a xlink:href="../../d5/d72/classLSM1x0A__LoRaWAN.html#a42d2137b475b57e19d891a5f1ac93221" target="_top" xlink:title="Sets the delay for the RX2 receive window.">
<polygon fill="white" stroke="#666666" points="1103.62,-514 930.12,-514 930.12,-494 1103.62,-494 1103.62,-514"/>
<text text-anchor="middle" x="1016.88" y="-500.5" font-family="Helvetica,sans-Serif" font-size="10.00">LSM1x0A_LoRaWAN::setRx2Delay</text>
</a>
</g>
</g>
<!-- Node16&#45;&gt;Node29 -->
<g id="edge46_Node000016_Node000029" class="edge">
<title>Node16&#45;&gt;Node29</title>
<g id="a_edge46_Node000016_Node000029"><a xlink:title=" ">
<path fill="none" stroke="#63b8ff" d="M884.29,-516.25C895.49,-515.21 907.22,-514.11 918.85,-513.03"/>
<polygon fill="#63b8ff" stroke="#63b8ff" points="918.82,-516.55 928.45,-512.14 918.17,-509.58 918.82,-516.55"/>
</a>
</g>
</g>
<!-- Node30 -->
<g id="Node000030" class="node">
<title>Node30</title>
<g id="a_Node000030"><a xlink:href="../../d5/d72/classLSM1x0A__LoRaWAN.html#a689f7dfda1dfeae11ea397c2ddf2ad37" target="_top" xlink:title="Sets the precise frequency for the RX2 window.">
<polygon fill="white" stroke="#666666" points="1113.75,-476 920,-476 920,-456 1113.75,-456 1113.75,-476"/>
<text text-anchor="middle" x="1016.88" y="-462.5" font-family="Helvetica,sans-Serif" font-size="10.00">LSM1x0A_LoRaWAN::setRx2Frequency</text>
</a>
</g>
</g>
<!-- Node16&#45;&gt;Node30 -->
<g id="edge48_Node000016_Node000030" class="edge">
<title>Node16&#45;&gt;Node30</title>
<g id="a_edge48_Node000016_Node000030"><a xlink:title=" ">
<path fill="none" stroke="#63b8ff" d="M854.24,-506.51C874.02,-499.24 898,-491.01 920,-485 928.08,-482.79 936.61,-480.73 945.12,-478.84"/>
<polygon fill="#63b8ff" stroke="#63b8ff" points="945.72,-482.29 954.76,-476.77 944.25,-475.45 945.72,-482.29"/>
</a>
</g>
</g>
<!-- Node31 -->
<g id="Node000031" class="node">
<title>Node31</title>
<g id="a_Node000031"><a xlink:href="../../d5/d72/classLSM1x0A__LoRaWAN.html#a1df10d7ae6bf45b537d28d3d5c4b88d7" target="_top" xlink:title="Sets the transmission power index.">
<polygon fill="white" stroke="#666666" points="1101.38,-438 932.38,-438 932.38,-418 1101.38,-418 1101.38,-438"/>
<text text-anchor="middle" x="1016.88" y="-424.5" font-family="Helvetica,sans-Serif" font-size="10.00">LSM1x0A_LoRaWAN::setTxPower</text>
</a>
</g>
</g>
<!-- Node16&#45;&gt;Node31 -->
<g id="edge50_Node000016_Node000031" class="edge">
<title>Node16&#45;&gt;Node31</title>
<g id="a_edge50_Node000016_Node000031"><a xlink:title=" ">
<path fill="none" stroke="#63b8ff" d="M829.85,-506.66C850.26,-489.16 885.16,-461.89 920,-447 924.6,-445.03 929.41,-443.27 934.33,-441.68"/>
<polygon fill="#63b8ff" stroke="#63b8ff" points="935.14,-445.09 943.76,-438.92 933.17,-438.37 935.14,-445.09"/>
</a>
</g>
</g>
<!-- Node32 -->
<g id="Node000032" class="node">
<title>Node32</title>
<g id="a_Node000032"><a xlink:href="../../d5/d72/classLSM1x0A__LoRaWAN.html#a059fd6a9356c4ecadd5a98294da5952d" target="_top" xlink:title="Configures the number of repetitions for Unconfirmed uplinks.">
<polygon fill="white" stroke="#666666" points="1104.38,-400 929.38,-400 929.38,-368 1104.38,-368 1104.38,-400"/>
<text text-anchor="start" x="937.38" y="-386.5" font-family="Helvetica,sans-Serif" font-size="10.00">LSM1x0A_LoRaWAN::setUnconfirm</text>
<text text-anchor="middle" x="1016.88" y="-374.5" font-family="Helvetica,sans-Serif" font-size="10.00">Retry</text>
</a>
</g>
</g>
<!-- Node16&#45;&gt;Node32 -->
<g id="edge52_Node000016_Node000032" class="edge">
<title>Node16&#45;&gt;Node32</title>
<g id="a_edge52_Node000016_Node000032"><a xlink:title=" ">
<path fill="none" stroke="#63b8ff" d="M822.64,-506.67C840.15,-481.73 876.99,-434.39 920,-409 922.31,-407.64 924.7,-406.34 927.14,-405.12"/>
<polygon fill="#63b8ff" stroke="#63b8ff" points="928.4,-408.4 936.08,-401.1 925.53,-402.01 928.4,-408.4"/>
</a>
</g>
</g>
<!-- Node17&#45;&gt;Node10 -->
<g id="edge22_Node000017_Node000010" class="edge">
<title>Node17&#45;&gt;Node10</title>
<g id="a_edge22_Node000017_Node000010"><a xlink:title=" ">
<path fill="none" stroke="#63b8ff" d="M1093.15,-348.53C1100.47,-351.2 1107.49,-354.62 1113.75,-359 1169.34,-397.86 1202.19,-474.26 1216.49,-514.97"/>
<polygon fill="#63b8ff" stroke="#63b8ff" points="1213.11,-515.89 1219.62,-524.24 1219.74,-513.65 1213.11,-515.89"/>
</a>
</g>
</g>
<!-- Node18&#45;&gt;Node10 -->
<g id="edge24_Node000018_Node000010" class="edge">
<title>Node18&#45;&gt;Node10</title>
<g id="a_edge24_Node000018_Node000010"><a xlink:title=" ">
<path fill="none" stroke="#63b8ff" d="M1093.52,-310.03C1100.77,-312.79 1107.67,-316.38 1113.75,-321 1178.37,-370.13 1208.21,-467.16 1219.41,-514.6"/>
<polygon fill="#63b8ff" stroke="#63b8ff" points="1215.92,-515.06 1221.53,-524.05 1222.75,-513.53 1215.92,-515.06"/>
</a>
</g>
</g>
<!-- Node19&#45;&gt;Node10 -->
<g id="edge27_Node000019_Node000010" class="edge">
<title>Node19&#45;&gt;Node10</title>
<g id="a_edge27_Node000019_Node000010"><a xlink:title=" ">
<path fill="none" stroke="#63b8ff" d="M1099.58,-273.44C1104.66,-276.14 1109.45,-279.3 1113.75,-283 1185.7,-344.86 1212.48,-461.59 1221.24,-514.59"/>
<polygon fill="#63b8ff" stroke="#63b8ff" points="1217.75,-514.92 1222.74,-524.26 1224.67,-513.84 1217.75,-514.92"/>
</a>
</g>
</g>
<!-- Node20&#45;&gt;Node10 -->
<g id="edge29_Node000020_Node000010" class="edge">
<title>Node20&#45;&gt;Node10</title>
<g id="a_edge29_Node000020_Node000010"><a xlink:title=" ">
<path fill="none" stroke="#63b8ff" d="M1101.19,-871.6C1105.7,-869.21 1109.94,-866.37 1113.75,-863 1151.98,-829.22 1133.22,-802.26 1149.75,-754 1172.56,-687.42 1200.55,-609.52 1215.12,-569.23"/>
<polygon fill="#63b8ff" stroke="#63b8ff" points="1218.39,-570.47 1218.51,-559.87 1211.81,-568.08 1218.39,-570.47"/>
</a>
</g>
</g>
<!-- Node21&#45;&gt;Node10 -->
<g id="edge31_Node000021_Node000010" class="edge">
<title>Node21&#45;&gt;Node10</title>
<g id="a_edge31_Node000021_Node000010"><a xlink:title=" ">
<path fill="none" stroke="#63b8ff" d="M1100.52,-833.58C1105.25,-831.21 1109.71,-828.37 1113.75,-825 1134.53,-807.64 1193.44,-636.39 1216.03,-569.02"/>
<polygon fill="#63b8ff" stroke="#63b8ff" points="1219.24,-570.45 1219.09,-559.86 1212.6,-568.24 1219.24,-570.45"/>
</a>
</g>
</g>
<!-- Node22&#45;&gt;Node10 -->
<g id="edge33_Node000022_Node000010" class="edge">
<title>Node22&#45;&gt;Node10</title>
<g id="a_edge33_Node000022_Node000010"><a xlink:title=" ">
<path fill="none" stroke="#63b8ff" d="M1099.86,-795.56C1104.8,-793.2 1109.49,-790.37 1113.75,-787 1184.25,-731.13 1211.64,-620.69 1220.88,-569.39"/>
<polygon fill="#63b8ff" stroke="#63b8ff" points="1224.29,-570.18 1222.51,-559.74 1217.39,-569.01 1224.29,-570.18"/>
</a>
</g>
</g>
<!-- Node23&#45;&gt;Node10 -->
<g id="edge35_Node000023_Node000010" class="edge">
<title>Node23&#45;&gt;Node10</title>
<g id="a_edge35_Node000023_Node000010"><a xlink:title=" ">
<path fill="none" stroke="#63b8ff" d="M1092.41,-749.05C1100.04,-745.87 1107.33,-741.92 1113.75,-737 1170.74,-693.34 1203.31,-611.57 1217.1,-569.12"/>
<polygon fill="#63b8ff" stroke="#63b8ff" points="1220.4,-570.29 1220.05,-559.7 1213.72,-568.2 1220.4,-570.29"/>
</a>
</g>
</g>
<!-- Node24&#45;&gt;Node10 -->
<g id="edge37_Node000024_Node000010" class="edge">
<title>Node24&#45;&gt;Node10</title>
<g id="a_edge37_Node000024_Node000010"><a xlink:title=" ">
<path fill="none" stroke="#63b8ff" d="M1093.74,-697.37C1100.79,-694.51 1107.59,-691.09 1113.75,-687 1159.56,-656.61 1194.32,-600.94 1212,-568.13"/>
<polygon fill="#63b8ff" stroke="#63b8ff" points="1214.89,-570.16 1216.43,-559.68 1208.69,-566.91 1214.89,-570.16"/>
</a>
</g>
</g>
<!-- Node25&#45;&gt;Node10 -->
<g id="edge39_Node000025_Node000010" class="edge">
<title>Node25&#45;&gt;Node10</title>
<g id="a_edge39_Node000025_Node000010"><a xlink:title=" ">
<path fill="none" stroke="#63b8ff" d="M1093.93,-645.62C1100.79,-643.12 1107.5,-640.26 1113.75,-637 1148.54,-618.85 1181.85,-588.01 1202.81,-566.4"/>
<polygon fill="#63b8ff" stroke="#63b8ff" points="1205.08,-569.1 1209.43,-559.44 1200,-564.27 1205.08,-569.1"/>
</a>
</g>
</g>
<!-- Node26&#45;&gt;Node10 -->
<g id="edge41_Node000026_Node000010" class="edge">
<title>Node26&#45;&gt;Node10</title>
<g id="a_edge41_Node000026_Node000010"><a xlink:title=" ">
<path fill="none" stroke="#63b8ff" d="M1083.51,-607.52C1093.76,-605.16 1104.13,-602.34 1113.75,-599 1139.82,-589.94 1167.45,-575.81 1188.65,-563.89"/>
<polygon fill="#63b8ff" stroke="#63b8ff" points="1190.25,-567 1197.19,-559 1186.77,-560.93 1190.25,-567"/>
</a>
</g>
</g>
<!-- Node27&#45;&gt;Node10 -->
<g id="edge43_Node000027_Node000010" class="edge">
<title>Node27&#45;&gt;Node10</title>
<g id="a_edge43_Node000027_Node000010"><a xlink:title=" ">
<path fill="none" stroke="#63b8ff" d="M1075.02,-569.52C1101.86,-564.59 1133.94,-558.71 1161.53,-553.64"/>
<polygon fill="#63b8ff" stroke="#63b8ff" points="1161.96,-557.12 1171.16,-551.88 1160.69,-550.24 1161.96,-557.12"/>
</a>
</g>
</g>
<!-- Node28&#45;&gt;Node10 -->
<g id="edge45_Node000028_Node000010" class="edge">
<title>Node28&#45;&gt;Node10</title>
<g id="a_edge45_Node000028_Node000010"><a xlink:title=" ">
<path fill="none" stroke="#63b8ff" d="M1112.35,-542C1128.84,-542 1145.64,-542 1161.07,-542"/>
<polygon fill="#63b8ff" stroke="#63b8ff" points="1161.05,-545.5 1171.05,-542 1161.05,-538.5 1161.05,-545.5"/>
</a>
</g>
</g>
<!-- Node29&#45;&gt;Node10 -->
<g id="edge47_Node000029_Node000010" class="edge">
<title>Node29&#45;&gt;Node10</title>
<g id="a_edge47_Node000029_Node000010"><a xlink:title=" ">
<path fill="none" stroke="#63b8ff" d="M1075.02,-514.48C1101.86,-519.41 1133.94,-525.29 1161.53,-530.36"/>
<polygon fill="#63b8ff" stroke="#63b8ff" points="1160.69,-533.76 1171.16,-532.12 1161.96,-526.88 1160.69,-533.76"/>
</a>
</g>
</g>
<!-- Node30&#45;&gt;Node10 -->
<g id="edge49_Node000030_Node000010" class="edge">
<title>Node30&#45;&gt;Node10</title>
<g id="a_edge49_Node000030_Node000010"><a xlink:title=" ">
<path fill="none" stroke="#63b8ff" d="M1083.51,-476.48C1093.76,-478.84 1104.13,-481.66 1113.75,-485 1139.82,-494.06 1167.45,-508.19 1188.65,-520.11"/>
<polygon fill="#63b8ff" stroke="#63b8ff" points="1186.77,-523.07 1197.19,-525 1190.25,-517 1186.77,-523.07"/>
</a>
</g>
</g>
<!-- Node31&#45;&gt;Node10 -->
<g id="edge51_Node000031_Node000010" class="edge">
<title>Node31&#45;&gt;Node10</title>
<g id="a_edge51_Node000031_Node000010"><a xlink:title=" ">
<path fill="none" stroke="#63b8ff" d="M1091.14,-438.43C1098.96,-440.74 1106.65,-443.56 1113.75,-447 1149.26,-464.21 1182.65,-495.52 1203.41,-517.48"/>
<polygon fill="#63b8ff" stroke="#63b8ff" points="1200.6,-519.6 1209.96,-524.57 1205.74,-514.85 1200.6,-519.6"/>
</a>
</g>
</g>
<!-- Node32&#45;&gt;Node10 -->
<g id="edge53_Node000032_Node000010" class="edge">
<title>Node32&#45;&gt;Node10</title>
<g id="a_edge53_Node000032_Node000010"><a xlink:title=" ">
<path fill="none" stroke="#63b8ff" d="M1097,-400.31C1102.86,-402.81 1108.52,-405.69 1113.75,-409 1156.74,-436.23 1191.47,-485.5 1210.1,-515.83"/>
<polygon fill="#63b8ff" stroke="#63b8ff" points="1207.09,-517.61 1215.23,-524.4 1213.1,-514.02 1207.09,-517.61"/>
</a>
</g>
</g>
<!-- Node34&#45;&gt;Node11 -->
<g id="edge56_Node000034_Node000011" class="edge">
<title>Node34&#45;&gt;Node11</title>
<g id="a_edge56_Node000034_Node000011"><a xlink:title=" ">
<path fill="none" stroke="#63b8ff" d="M1240.57,-762.71C1275.94,-720.24 1370.84,-606.28 1408.58,-560.97"/>
<polygon fill="#63b8ff" stroke="#63b8ff" points="1411.05,-563.47 1414.76,-553.55 1405.67,-558.99 1411.05,-563.47"/>
</a>
</g>
</g>
</g>
</svg>
