<?xml version="1.0" encoding="UTF-8" standalone="no"?>
<!DOCTYPE svg PUBLIC "-//W3C//DTD SVG 1.1//EN"
 "http://www.w3.org/Graphics/SVG/1.1/DTD/svg11.dtd">
<!-- Generated by graphviz version 12.2.1 (20241206.2353)
 -->
<!-- Title: LSM1x0A_LoRaWAN::getBand Pages: 1 -->
<svg width="1852pt" height="1018pt"
 viewBox="0.00 0.00 1851.75 1018.48" xmlns="http://www.w3.org/2000/svg" xmlns:xlink="http://www.w3.org/1999/xlink">
<g id="graph0" class="graph" transform="scale(1 1) rotate(0) translate(4 1014.48)">
<title>LSM1x0A_LoRaWAN::getBand</title>
<!-- Node1 -->
<g id="Node000001" class="node">
<title>Node1</title>
<g id="a_Node000001"><a xlink:title="Retrieves the active regional Frequency Band.">
<polygon fill="#999999" stroke="#666666" points="152.5,-98 0,-98 0,-78 152.5,-78 152.5,-98"/>
<text text-anchor="middle" x="76.25" y="-84.5" font-family="Helvetica,sans-Serif" font-size="10.00">LSM1x0A_LoRaWAN::getBand</text>
</a>
</g>
</g>
<!-- Node2 -->
<g id="Node000002" class="node">
<title>Node2</title>
<g id="a_Node000002"><a xlink:href="../../d8/d92/classLSM1x0A__Controller.html#ab00328d1be83aa51bce8c2a4f907c5f4" target="_top" xlink:title="Sends an AT command and captures its response in a text block. Ideal for getters (e....">
<polygon fill="white" stroke="#666666" points="341,-104 188.5,-104 188.5,-72 341,-72 341,-104"/>
<text text-anchor="start" x="196.5" y="-90.5" font-family="Helvetica,sans-Serif" font-size="10.00">LSM1x0A_Controller</text>
<text text-anchor="middle" x="264.75" y="-78.5" font-family="Helvetica,sans-Serif" font-size="10.00">::sendCommandWithResponse</text>
</a>
</g>
</g>
<!-- Node1&#45;&gt;Node2 -->
<g id="edge1_Node000001_Node000002" class="edge">
<title>Node1&#45;&gt;Node2</title>
<g id="a_edge1_Node000001_Node000002"><a xlink:title=" ">
<path fill="none" stroke="#63b8ff" d="M152.84,-88C160.73,-88 168.8,-88 176.8,-88"/>
<polygon fill="#63b8ff" stroke="#63b8ff" points="176.54,-91.5 186.54,-88 176.54,-84.5 176.54,-91.5"/>
</a>
</g>
</g>
<!-- Node3 -->
<g id="Node000003" class="node">
<title>Node3</title>
<g id="a_Node000003"><a xlink:href="../../d8/d92/classLSM1x0A__Controller.html#abb0eb380daa3dfb7acffb483c5db8e2b" target="_top" xlink:title="Executes the recovery protocol. First Soft&#45;Reset (ATZ), then Hard&#45;Reset if there is a pin.">
<polygon fill="white" stroke="#666666" points="483,-214 377,-214 377,-182 483,-182 483,-214"/>
<text text-anchor="start" x="385" y="-200.5" font-family="Helvetica,sans-Serif" font-size="10.00">LSM1x0A_Controller</text>
<text text-anchor="middle" x="430" y="-188.5" font-family="Helvetica,sans-Serif" font-size="10.00">::recoverModule</text>
</a>
</g>
</g>
<!-- Node2&#45;&gt;Node3 -->
<g id="edge2_Node000002_Node000003" class="edge">
<title>Node2&#45;&gt;Node3</title>
<g id="a_edge2_Node000002_Node000003"><a xlink:title=" ">
<path fill="none" stroke="#63b8ff" d="M290.19,-104.47C318.16,-123.32 364.14,-154.29 395.45,-175.39"/>
<polygon fill="#63b8ff" stroke="#63b8ff" points="393.16,-178.07 403.4,-180.75 397.07,-172.26 393.16,-178.07"/>
</a>
</g>
</g>
<!-- Node12 -->
<g id="Node000012" class="node">
<title>Node12</title>
<g id="a_Node000012"><a xlink:href="../../d6/d3c/classLSM1x0A__AtParser.html#a0ba6f927c54fceece22c17773d3f2600" target="_top" xlink:title="Sends a command and extracts a value from the response.">
<polygon fill="white" stroke="#666666" points="1698.75,-287 1524.5,-287 1524.5,-255 1698.75,-255 1698.75,-287"/>
<text text-anchor="start" x="1532.5" y="-273.5" font-family="Helvetica,sans-Serif" font-size="10.00">LSM1x0A_AtParser::sendCommand</text>
<text text-anchor="middle" x="1611.62" y="-261.5" font-family="Helvetica,sans-Serif" font-size="10.00">WithResponse</text>
</a>
</g>
</g>
<!-- Node2&#45;&gt;Node12 -->
<g id="edge57_Node000002_Node000012" class="edge">
<title>Node2&#45;&gt;Node12</title>
<g id="a_edge57_Node000002_Node000012"><a xlink:title=" ">
<path fill="none" stroke="#63b8ff" d="M302.19,-71.65C362.36,-46.21 486.79,0 597.25,0 597.25,0 597.25,0 1203,0 1379.94,0 1538.7,-179.26 1591.81,-246.19"/>
<polygon fill="#63b8ff" stroke="#63b8ff" points="1588.74,-247.95 1597.66,-253.67 1594.25,-243.64 1588.74,-247.95"/>
</a>
</g>
</g>
<!-- Node4 -->
<g id="Node000004" class="node">
<title>Node4</title>
<g id="a_Node000004"><a xlink:href="../../d8/d92/classLSM1x0A__Controller.html#a3f6f25b843fe4fb7042c544deae2ab16" target="_top" xlink:title="Manually clears bits from the internal EventGroup.">
<polygon fill="white" stroke="#666666" points="1045.88,-98 939.88,-98 939.88,-66 1045.88,-66 1045.88,-98"/>
<text text-anchor="start" x="947.88" y="-84.5" font-family="Helvetica,sans-Serif" font-size="10.00">LSM1x0A_Controller</text>
<text text-anchor="middle" x="992.88" y="-72.5" font-family="Helvetica,sans-Serif" font-size="10.00">::clearEvents</text>
</a>
</g>
</g>
<!-- Node3&#45;&gt;Node4 -->
<g id="edge3_Node000003_Node000004" class="edge">
<title>Node3&#45;&gt;Node4</title>
<g id="a_edge3_Node000003_Node000004"><a xlink:title=" ">
<path fill="none" stroke="#63b8ff" d="M455.68,-181.53C472.73,-171 496.34,-158.03 519,-151 664.65,-105.82 709.73,-138.94 860,-113 882.5,-109.12 906.9,-103.72 928.52,-98.52"/>
<polygon fill="#63b8ff" stroke="#63b8ff" points="929.2,-101.96 938.08,-96.18 927.53,-95.16 929.2,-101.96"/>
</a>
</g>
</g>
<!-- Node5 -->
<g id="Node000005" class="node">
<title>Node5</title>
<g id="a_Node000005"><a xlink:href="../../d8/d92/classLSM1x0A__Controller.html#a345d4bd79fa16b18dc33a4ca788fe5f7" target="_top" xlink:title="Performs a hardware reset using the reset pin.">
<polygon fill="white" stroke="#666666" points="651.25,-104 545.25,-104 545.25,-72 651.25,-72 651.25,-104"/>
<text text-anchor="start" x="553.25" y="-90.5" font-family="Helvetica,sans-Serif" font-size="10.00">LSM1x0A_Controller</text>
<text text-anchor="middle" x="598.25" y="-78.5" font-family="Helvetica,sans-Serif" font-size="10.00">::hardwareReset</text>
</a>
</g>
</g>
<!-- Node3&#45;&gt;Node5 -->
<g id="edge4_Node000003_Node000005" class="edge">
<title>Node3&#45;&gt;Node5</title>
<g id="a_edge4_Node000003_Node000005"><a xlink:title=" ">
<path fill="none" stroke="#63b8ff" d="M445.46,-181.63C461.82,-163.93 489.99,-135.86 519,-118 524.27,-114.76 529.94,-111.77 535.74,-109.03"/>
<polygon fill="#63b8ff" stroke="#63b8ff" points="537.14,-112.24 544.88,-104.99 534.31,-105.83 537.14,-112.24"/>
</a>
</g>
</g>
<!-- Node7 -->
<g id="Node000007" class="node">
<title>Node7</title>
<g id="a_Node000007"><a xlink:href="../../d5/d72/classLSM1x0A__LoRaWAN.html#a1892801e37c8cd67d37c76108d6f7d49" target="_top" xlink:title="Validates if the device is currently Joined to the network. (Either confirmed by OTAA or statically a...">
<polygon fill="white" stroke="#666666" points="1278.25,-136 1125.75,-136 1125.75,-116 1278.25,-116 1278.25,-136"/>
<text text-anchor="middle" x="1202" y="-122.5" font-family="Helvetica,sans-Serif" font-size="10.00">LSM1x0A_LoRaWAN::isJoined</text>
</a>
</g>
</g>
<!-- Node3&#45;&gt;Node7 -->
<g id="edge6_Node000003_Node000007" class="edge">
<title>Node3&#45;&gt;Node7</title>
<g id="a_edge6_Node000003_Node000007"><a xlink:title=" ">
<path fill="none" stroke="#63b8ff" d="M435.93,-181.77C445.99,-151.92 471.98,-88.97 519,-63 630.04,-1.69 967.76,-22.24 1089.75,-57 1124.82,-66.99 1159.62,-91.56 1180.72,-108.51"/>
<polygon fill="#63b8ff" stroke="#63b8ff" points="1178.3,-111.05 1188.24,-114.72 1182.76,-105.65 1178.3,-111.05"/>
</a>
</g>
</g>
<!-- Node8 -->
<g id="Node000008" class="node">
<title>Node8</title>
<g id="a_Node000008"><a xlink:href="../../d5/d72/classLSM1x0A__LoRaWAN.html#a83e11c0e74ff9e0757db616ab1163424" target="_top" xlink:title="Attempts to recover a lost connection (re&#45;executes OTAA Join if dropped).">
<polygon fill="white" stroke="#666666" points="672.62,-192 523.88,-192 523.88,-160 672.62,-160 672.62,-192"/>
<text text-anchor="start" x="531.88" y="-178.5" font-family="Helvetica,sans-Serif" font-size="10.00">LSM1x0A_LoRaWAN::recover</text>
<text text-anchor="middle" x="598.25" y="-166.5" font-family="Helvetica,sans-Serif" font-size="10.00">Connection</text>
</a>
</g>
</g>
<!-- Node3&#45;&gt;Node8 -->
<g id="edge7_Node000003_Node000008" class="edge">
<title>Node3&#45;&gt;Node8</title>
<g id="a_edge7_Node000003_Node000008"><a xlink:title=" ">
<path fill="none" stroke="#63b8ff" d="M483.15,-191.1C492.49,-189.86 502.44,-188.55 512.42,-187.23"/>
<polygon fill="#63b8ff" stroke="#63b8ff" points="512.72,-190.72 522.17,-185.94 511.8,-183.78 512.72,-190.72"/>
</a>
</g>
</g>
<!-- Node16 -->
<g id="Node000016" class="node">
<title>Node16</title>
<g id="a_Node000016"><a xlink:href="../../d5/d72/classLSM1x0A__LoRaWAN.html#ae3be4ce59dfa200369733317df356e97" target="_top" xlink:title="Pushes the RAM&#45;cached variables back down into the hardware module. Restores the operational state af...">
<polygon fill="white" stroke="#666666" points="860,-539 713.5,-539 713.5,-507 860,-507 860,-539"/>
<text text-anchor="start" x="721.5" y="-525.5" font-family="Helvetica,sans-Serif" font-size="10.00">LSM1x0A_LoRaWAN::restore</text>
<text text-anchor="middle" x="786.75" y="-513.5" font-family="Helvetica,sans-Serif" font-size="10.00">Config</text>
</a>
</g>
</g>
<!-- Node3&#45;&gt;Node16 -->
<g id="edge20_Node000003_Node000016" class="edge">
<title>Node3&#45;&gt;Node16</title>
<g id="a_edge20_Node000003_Node000016"><a xlink:title=" ">
<path fill="none" stroke="#63b8ff" d="M448.59,-214.12C506.51,-267.18 691.44,-436.6 759.92,-499.34"/>
<polygon fill="#63b8ff" stroke="#63b8ff" points="757.2,-501.59 766.94,-505.76 761.93,-496.43 757.2,-501.59"/>
</a>
</g>
</g>
<!-- Node33 -->
<g id="Node000033" class="node">
<title>Node33</title>
<g id="a_Node000033"><a xlink:href="../../d5/d72/classLSM1x0A__LoRaWAN.html#ace4b04396f1de1f4a54f513f5f378db7" target="_top" xlink:title="Manually overrides the internal joined state tracker.">
<polygon fill="white" stroke="#666666" points="677.5,-939 519,-939 519,-919 677.5,-919 677.5,-939"/>
<text text-anchor="middle" x="598.25" y="-925.5" font-family="Helvetica,sans-Serif" font-size="10.00">LSM1x0A_LoRaWAN::setJoined</text>
</a>
</g>
</g>
<!-- Node3&#45;&gt;Node33 -->
<g id="edge54_Node000003_Node000033" class="edge">
<title>Node3&#45;&gt;Node33</title>
<g id="a_edge54_Node000003_Node000033"><a xlink:title=" ">
<path fill="none" stroke="#63b8ff" d="M430.72,-214.4C429.4,-310.08 427.33,-795.83 519,-905 521.42,-907.88 524.18,-910.43 527.18,-912.67"/>
<polygon fill="#63b8ff" stroke="#63b8ff" points="525.16,-915.54 535.52,-917.75 528.8,-909.56 525.16,-915.54"/>
</a>
</g>
</g>
<!-- Node34 -->
<g id="Node000034" class="node">
<title>Node34</title>
<g id="a_Node000034"><a xlink:href="../../d8/d92/classLSM1x0A__Controller.html#a11ad21cb5ca33ec51346764a23bd485e" target="_top" xlink:title="Performs a software reset (ATZ Command).">
<polygon fill="white" stroke="#666666" points="1255,-795 1149,-795 1149,-763 1255,-763 1255,-795"/>
<text text-anchor="start" x="1157" y="-781.5" font-family="Helvetica,sans-Serif" font-size="10.00">LSM1x0A_Controller</text>
<text text-anchor="middle" x="1202" y="-769.5" font-family="Helvetica,sans-Serif" font-size="10.00">::softwareReset</text>
</a>
</g>
</g>
<!-- Node3&#45;&gt;Node34 -->
<g id="edge55_Node000003_Node000034" class="edge">
<title>Node3&#45;&gt;Node34</title>
<g id="a_edge55_Node000003_Node000034"><a xlink:title=" ">
<path fill="none" stroke="#63b8ff" d="M431.64,-214.18C435.91,-318.83 462,-897.3 519,-948 584.19,-1005.99 852.14,-1058.87 1089.75,-932 1141.21,-904.52 1174.82,-841.52 1190.57,-805.51"/>
<polygon fill="#63b8ff" stroke="#63b8ff" points="1193.64,-807.25 1194.3,-796.67 1187.19,-804.53 1193.64,-807.25"/>
</a>
</g>
</g>
<!-- Node6 -->
<g id="Node000006" class="node">
<title>Node6</title>
<g id="a_Node000006"><a xlink:href="../../d6/d3c/classLSM1x0A__AtParser.html#ad2839120da13e56132b95019419be1e5" target="_top" xlink:title="Waits for an event (like BOOTALERT) without sending any command. Useful for hardware reset where the ...">
<polygon fill="white" stroke="#666666" points="857,-104 716.5,-104 716.5,-72 857,-72 857,-104"/>
<text text-anchor="start" x="724.5" y="-90.5" font-family="Helvetica,sans-Serif" font-size="10.00">LSM1x0A_AtParser::waitFor</text>
<text text-anchor="middle" x="786.75" y="-78.5" font-family="Helvetica,sans-Serif" font-size="10.00">Event</text>
</a>
</g>
</g>
<!-- Node5&#45;&gt;Node6 -->
<g id="edge5_Node000005_Node000006" class="edge">
<title>Node5&#45;&gt;Node6</title>
<g id="a_edge5_Node000005_Node000006"><a xlink:title=" ">
<path fill="none" stroke="#63b8ff" d="M651.7,-88C668.21,-88 686.86,-88 704.87,-88"/>
<polygon fill="#63b8ff" stroke="#63b8ff" points="704.78,-91.5 714.78,-88 704.78,-84.5 704.78,-91.5"/>
</a>
</g>
</g>
<!-- Node9 -->
<g id="Node000009" class="node">
<title>Node9</title>
<g id="a_Node000009"><a xlink:href="../../d5/d72/classLSM1x0A__LoRaWAN.html#a59f781f3cfd30c11cd3973bcb10a7baa" target="_top" xlink:title="Initiates a LoRaWAN Network Join procedure. This is a blocking function until the module fires an eve...">
<polygon fill="white" stroke="#666666" points="852.5,-186 721,-186 721,-166 852.5,-166 852.5,-186"/>
<text text-anchor="middle" x="786.75" y="-172.5" font-family="Helvetica,sans-Serif" font-size="10.00">LSM1x0A_LoRaWAN::join</text>
</a>
</g>
</g>
<!-- Node8&#45;&gt;Node9 -->
<g id="edge8_Node000008_Node000009" class="edge">
<title>Node8&#45;&gt;Node9</title>
<g id="a_edge8_Node000008_Node000009"><a xlink:title=" ">
<path fill="none" stroke="#63b8ff" d="M672.96,-176C684.92,-176 697.33,-176 709.35,-176"/>
<polygon fill="#63b8ff" stroke="#63b8ff" points="709.22,-179.5 719.22,-176 709.22,-172.5 709.22,-179.5"/>
</a>
</g>
</g>
<!-- Node9&#45;&gt;Node3 -->
<g id="edge10_Node000009_Node000003" class="edge">
<title>Node9&#45;&gt;Node3</title>
<g id="a_edge10_Node000009_Node000003"><a xlink:title=" ">
<path fill="none" stroke="#63b8ff" d="M750.02,-186.4C729.09,-191.95 702.03,-198.2 677.5,-201 607.51,-208.98 589.43,-202.2 519,-201 511.1,-200.87 502.81,-200.66 494.61,-200.43"/>
<polygon fill="#63b8ff" stroke="#63b8ff" points="494.73,-196.93 484.62,-200.12 494.51,-203.92 494.73,-196.93"/>
</a>
</g>
</g>
<!-- Node9&#45;&gt;Node4 -->
<g id="edge9_Node000009_Node000004" class="edge">
<title>Node9&#45;&gt;Node4</title>
<g id="a_edge9_Node000009_Node000004"><a xlink:title=" ">
<path fill="none" stroke="#63b8ff" d="M821.3,-165.52C834.05,-160.68 848.31,-154.16 860,-146 879.34,-132.5 875.77,-119.13 896,-107 905.95,-101.03 917.31,-96.47 928.65,-93"/>
<polygon fill="#63b8ff" stroke="#63b8ff" points="929.32,-96.45 938.01,-90.39 927.44,-89.7 929.32,-96.45"/>
</a>
</g>
</g>
<!-- Node10 -->
<g id="Node000010" class="node">
<title>Node10</title>
<g id="a_Node000010"><a xlink:href="../../d8/d92/classLSM1x0A__Controller.html#afd7d92e60ed6fdae696a955cdbe0ed8c" target="_top" xlink:title="Sends any AT command to the module, returning error if it fails. Internally uses the LsmAtParser logi...">
<polygon fill="white" stroke="#666666" points="1255,-558 1149,-558 1149,-526 1255,-526 1255,-558"/>
<text text-anchor="start" x="1157" y="-544.5" font-family="Helvetica,sans-Serif" font-size="10.00">LSM1x0A_Controller</text>
<text text-anchor="middle" x="1202" y="-532.5" font-family="Helvetica,sans-Serif" font-size="10.00">::sendCommand</text>
</a>
</g>
</g>
<!-- Node9&#45;&gt;Node10 -->
<g id="edge11_Node000009_Node000010" class="edge">
<title>Node9&#45;&gt;Node10</title>
<g id="a_edge11_Node000009_Node000010"><a xlink:title=" ">
<path fill="none" stroke="#63b8ff" d="M852.78,-171.81C930.39,-168.2 1054.16,-167.28 1089.75,-195 1191.48,-274.23 1201.74,-447.25 1201.7,-514.5"/>
<polygon fill="#63b8ff" stroke="#63b8ff" points="1198.2,-514.23 1201.6,-524.26 1205.2,-514.3 1198.2,-514.23"/>
</a>
</g>
</g>
<!-- Node14 -->
<g id="Node000014" class="node">
<title>Node14</title>
<g id="a_Node000014"><a xlink:href="../../d5/d72/classLSM1x0A__LoRaWAN.html#a3fdd1ac318a5ad2559323e5d57e36a5e" target="_top" xlink:title="Enables or disables specific sub&#45;bands for regions supporting Channel Masks (e.g.,...">
<polygon fill="white" stroke="#666666" points="1087.88,-224 897.88,-224 897.88,-204 1087.88,-204 1087.88,-224"/>
<text text-anchor="middle" x="992.88" y="-210.5" font-family="Helvetica,sans-Serif" font-size="10.00">LSM1x0A_LoRaWAN::setChannelMask</text>
</a>
</g>
</g>
<!-- Node9&#45;&gt;Node14 -->
<g id="edge16_Node000009_Node000014" class="edge">
<title>Node9&#45;&gt;Node14</title>
<g id="a_edge16_Node000009_Node000014"><a xlink:title=" ">
<path fill="none" stroke="#63b8ff" d="M844.07,-186.48C868.94,-191.12 898.39,-196.6 924.43,-201.44"/>
<polygon fill="#63b8ff" stroke="#63b8ff" points="923.78,-204.88 934.25,-203.27 925.06,-198 923.78,-204.88"/>
</a>
</g>
</g>
<!-- Node15 -->
<g id="Node000015" class="node">
<title>Node15</title>
<g id="a_Node000015"><a xlink:href="../../d8/d92/classLSM1x0A__Controller.html#a62476e30e50c7fe120aeb8df4b828675" target="_top" xlink:title="Synchronously/blockingly waits for an asynchronous event to occur. Useful for wrapping commands like ...">
<polygon fill="white" stroke="#666666" points="1045.88,-148 939.88,-148 939.88,-116 1045.88,-116 1045.88,-148"/>
<text text-anchor="start" x="947.88" y="-134.5" font-family="Helvetica,sans-Serif" font-size="10.00">LSM1x0A_Controller</text>
<text text-anchor="middle" x="992.88" y="-122.5" font-family="Helvetica,sans-Serif" font-size="10.00">::waitForEvent</text>
</a>
</g>
</g>
<!-- Node9&#45;&gt;Node15 -->
<g id="edge19_Node000009_Node000015" class="edge">
<title>Node9&#45;&gt;Node15</title>
<g id="a_edge19_Node000009_Node000015"><a xlink:title=" ">
<path fill="none" stroke="#63b8ff" d="M836.38,-165.52C863.99,-159.57 898.86,-152.05 928.57,-145.65"/>
<polygon fill="#63b8ff" stroke="#63b8ff" points="929.17,-149.1 938.2,-143.57 927.69,-142.25 929.17,-149.1"/>
</a>
</g>
</g>
<!-- Node10&#45;&gt;Node3 -->
<g id="edge12_Node000010_Node000003" class="edge">
<title>Node10&#45;&gt;Node3</title>
<g id="a_edge12_Node000010_Node000003"><a xlink:title=" ">
<path fill="none" stroke="#63b8ff" d="M1194.57,-558.31C1180.81,-593.61 1147.91,-679.91 1125.75,-754 1106.48,-818.44 1142.67,-859.48 1089.75,-901 1022,-954.16 972.44,-940.65 896,-901 608.68,-751.97 470.72,-335.66 438.52,-225.19"/>
<polygon fill="#63b8ff" stroke="#63b8ff" points="441.95,-224.47 435.83,-215.82 435.22,-226.4 441.95,-224.47"/>
</a>
</g>
</g>
<!-- Node11 -->
<g id="Node000011" class="node">
<title>Node11</title>
<g id="a_Node000011"><a xlink:href="../../d6/d3c/classLSM1x0A__AtParser.html#a29b53c521974387ba6c03afadfaffa4a" target="_top" xlink:title="Sends a simple command and waits for OK/ERROR. Example: sendCommand(&quot;AT+JOIN&quot;);.">
<polygon fill="white" stroke="#666666" points="1488.5,-552 1314.25,-552 1314.25,-532 1488.5,-532 1488.5,-552"/>
<text text-anchor="middle" x="1401.38" y="-538.5" font-family="Helvetica,sans-Serif" font-size="10.00">LSM1x0A_AtParser::sendCommand</text>
</a>
</g>
</g>
<!-- Node10&#45;&gt;Node11 -->
<g id="edge13_Node000010_Node000011" class="edge">
<title>Node10&#45;&gt;Node11</title>
<g id="a_edge13_Node000010_Node000011"><a xlink:title=" ">
<path fill="none" stroke="#63b8ff" d="M1255.37,-542C1269.94,-542 1286.25,-542 1302.53,-542"/>
<polygon fill="#63b8ff" stroke="#63b8ff" points="1302.26,-545.5 1312.26,-542 1302.26,-538.5 1302.26,-545.5"/>
</a>
</g>
</g>
<!-- Node11&#45;&gt;Node12 -->
<g id="edge14_Node000011_Node000012" class="edge">
<title>Node11&#45;&gt;Node12</title>
<g id="a_edge14_Node000011_Node000012"><a xlink:title=" ">
<path fill="none" stroke="#63b8ff" d="M1410.28,-531.71C1440.19,-492.78 1546.93,-353.88 1591.19,-296.3"/>
<polygon fill="#63b8ff" stroke="#63b8ff" points="1593.73,-298.73 1597.05,-288.67 1588.18,-294.46 1593.73,-298.73"/>
</a>
</g>
</g>
<!-- Node13 -->
<g id="Node000013" class="node">
<title>Node13</title>
<g id="a_Node000013"><a xlink:href="../../d5/d8b/classUartDriver.html#a5d0f22e8867eebe99273078bb19bd23d" target="_top" xlink:title="Sends data through UART.">
<polygon fill="white" stroke="#666666" points="1843.75,-281 1734.75,-281 1734.75,-261 1843.75,-261 1843.75,-281"/>
<text text-anchor="middle" x="1789.25" y="-267.5" font-family="Helvetica,sans-Serif" font-size="10.00">UartDriver::sendData</text>
</a>
</g>
</g>
<!-- Node12&#45;&gt;Node13 -->
<g id="edge15_Node000012_Node000013" class="edge">
<title>Node12&#45;&gt;Node13</title>
<g id="a_edge15_Node000012_Node000013"><a xlink:title=" ">
<path fill="none" stroke="#63b8ff" d="M1699.15,-271C1707.3,-271 1715.45,-271 1723.35,-271"/>
<polygon fill="#63b8ff" stroke="#63b8ff" points="1723.18,-274.5 1733.18,-271 1723.18,-267.5 1723.18,-274.5"/>
</a>
</g>
</g>
<!-- Node14&#45;&gt;Node7 -->
<g id="edge17_Node000014_Node000007" class="edge">
<title>Node14&#45;&gt;Node7</title>
<g id="a_edge17_Node000014_Node000007"><a xlink:title=" ">
<path fill="none" stroke="#63b8ff" d="M1018.45,-203.56C1055.04,-188.01 1124.03,-158.7 1165.92,-140.9"/>
<polygon fill="#63b8ff" stroke="#63b8ff" points="1167.23,-144.15 1175.07,-137.02 1164.49,-137.71 1167.23,-144.15"/>
</a>
</g>
</g>
<!-- Node14&#45;&gt;Node10 -->
<g id="edge18_Node000014_Node000010" class="edge">
<title>Node14&#45;&gt;Node10</title>
<g id="a_edge18_Node000014_Node000010"><a xlink:title=" ">
<path fill="none" stroke="#63b8ff" d="M1076.63,-224.28C1081.33,-226.69 1085.76,-229.57 1089.75,-233 1176.08,-307.27 1195.42,-453.75 1199.75,-514.55"/>
<polygon fill="#63b8ff" stroke="#63b8ff" points="1196.25,-514.57 1200.36,-524.33 1203.23,-514.13 1196.25,-514.57"/>
</a>
</g>
</g>
<!-- Node16&#45;&gt;Node14 -->
<g id="edge25_Node000016_Node000014" class="edge">
<title>Node16&#45;&gt;Node14</title>
<g id="a_edge25_Node000016_Node000014"><a xlink:title=" ">
<path fill="none" stroke="#63b8ff" d="M788.55,-506.78C791.93,-457.25 809.2,-306.79 896,-233 897.13,-232.04 898.29,-231.13 899.48,-230.25"/>
<polygon fill="#63b8ff" stroke="#63b8ff" points="901.17,-233.33 907.87,-225.12 897.52,-227.35 901.17,-233.33"/>
</a>
</g>
</g>
<!-- Node17 -->
<g id="Node000017" class="node">
<title>Node17</title>
<g id="a_Node000017"><a xlink:href="../../d5/d72/classLSM1x0A__LoRaWAN.html#af0baa3db4c7fab580d6b19a9e92472f6" target="_top" xlink:title="Enables or disables Adaptive Data Rate (ADR).">
<polygon fill="white" stroke="#666666" points="1068.75,-350 917,-350 917,-330 1068.75,-330 1068.75,-350"/>
<text text-anchor="middle" x="992.88" y="-336.5" font-family="Helvetica,sans-Serif" font-size="10.00">LSM1x0A_LoRaWAN::setADR</text>
</a>
</g>
</g>
<!-- Node16&#45;&gt;Node17 -->
<g id="edge21_Node000016_Node000017" class="edge">
<title>Node16&#45;&gt;Node17</title>
<g id="a_edge21_Node000016_Node000017"><a xlink:title=" ">
<path fill="none" stroke="#63b8ff" d="M793.56,-506.6C806.35,-473 840.35,-396.38 896,-359 899.27,-356.8 902.73,-354.85 906.33,-353.11"/>
<polygon fill="#63b8ff" stroke="#63b8ff" points="907.48,-356.42 915.37,-349.35 904.79,-349.96 907.48,-356.42"/>
</a>
</g>
</g>
<!-- Node18 -->
<g id="Node000018" class="node">
<title>Node18</title>
<g id="a_Node000018"><a xlink:href="../../d5/d72/classLSM1x0A__LoRaWAN.html#a5365ed1596eb84ebf1e3b33b4a10c788" target="_top" xlink:title="Sets the LoRaWAN operational frequency band.">
<polygon fill="white" stroke="#666666" points="1069.12,-312 916.62,-312 916.62,-292 1069.12,-292 1069.12,-312"/>
<text text-anchor="middle" x="992.88" y="-298.5" font-family="Helvetica,sans-Serif" font-size="10.00">LSM1x0A_LoRaWAN::setBand</text>
</a>
</g>
</g>
<!-- Node16&#45;&gt;Node18 -->
<g id="edge23_Node000016_Node000018" class="edge">
<title>Node16&#45;&gt;Node18</title>
<g id="a_edge23_Node000016_Node000018"><a xlink:title=" ">
<path fill="none" stroke="#63b8ff" d="M791.47,-506.5C801.2,-467.43 831.24,-368.94 896,-321 899.16,-318.66 902.54,-316.58 906.07,-314.75"/>
<polygon fill="#63b8ff" stroke="#63b8ff" points="907.25,-318.05 914.97,-310.8 904.41,-311.66 907.25,-318.05"/>
</a>
</g>
</g>
<!-- Node19 -->
<g id="Node000019" class="node">
<title>Node19</title>
<g id="a_Node000019"><a xlink:href="../../d5/d72/classLSM1x0A__LoRaWAN.html#a9d9285c43414337a0ccb3a6cd7ca06e6" target="_top" xlink:title="Configures the number of retries for Confirmed uplinks.">
<polygon fill="white" stroke="#666666" points="1075.12,-274 910.62,-274 910.62,-242 1075.12,-242 1075.12,-274"/>
<text text-anchor="start" x="918.62" y="-260.5" font-family="Helvetica,sans-Serif" font-size="10.00">LSM1x0A_LoRaWAN::setConfirm</text>
<text text-anchor="middle" x="992.88" y="-248.5" font-family="Helvetica,sans-Serif" font-size="10.00">Retry</text>
</a>
</g>
</g>
<!-- Node16&#45;&gt;Node19 -->
<g id="edge26_Node000016_Node000019" class="edge">
<title>Node16&#45;&gt;Node19</title>
<g id="a_edge26_Node000016_Node000019"><a xlink:title=" ">
<path fill="none" stroke="#63b8ff" d="M790.18,-506.7C797.55,-463.28 823.7,-344.03 896,-283 897.49,-281.74 899.04,-280.55 900.63,-279.41"/>
<polygon fill="#63b8ff" stroke="#63b8ff" points="902.25,-282.52 908.95,-274.32 898.6,-276.55 902.25,-282.52"/>
</a>
</g>
</g>
<!-- Node20 -->
<g id="Node000020" class="node">
<title>Node20</title>
<g id="a_Node000020"><a xlink:href="../../d5/d72/classLSM1x0A__LoRaWAN.html#a56345ceeafa0b9059d6de4e69eddc82e" target="_top" xlink:title="Sets the Data Rate (DR) of the module.">
<polygon fill="white" stroke="#666666" points="1078.88,-892 906.88,-892 906.88,-872 1078.88,-872 1078.88,-892"/>
<text text-anchor="middle" x="992.88" y="-878.5" font-family="Helvetica,sans-Serif" font-size="10.00">LSM1x0A_LoRaWAN::setDataRate</text>
</a>
</g>
</g>
<!-- Node16&#45;&gt;Node20 -->
<g id="edge28_Node000016_Node000020" class="edge">
<title>Node16&#45;&gt;Node20</title>
<g id="a_edge28_Node000016_Node000020"><a xlink:title=" ">
<path fill="none" stroke="#63b8ff" d="M787.55,-539.16C787.79,-593.93 796.44,-774.06 896,-863 896.95,-863.85 897.92,-864.66 898.92,-865.44"/>
<polygon fill="#63b8ff" stroke="#63b8ff" points="896.95,-868.34 907.25,-870.83 900.75,-862.46 896.95,-868.34"/>
</a>
</g>
</g>
<!-- Node21 -->
<g id="Node000021" class="node">
<title>Node21</title>
<g id="a_Node000021"><a xlink:href="../../d5/d72/classLSM1x0A__LoRaWAN.html#a8494083816ab885cb07fc3b08de029f4" target="_top" xlink:title="Sets the LoRaWAN Device Address (DevAddr) for ABP mode.">
<polygon fill="white" stroke="#666666" points="1077,-854 908.75,-854 908.75,-834 1077,-834 1077,-854"/>
<text text-anchor="middle" x="992.88" y="-840.5" font-family="Helvetica,sans-Serif" font-size="10.00">LSM1x0A_LoRaWAN::setDevAddr</text>
</a>
</g>
</g>
<!-- Node16&#45;&gt;Node21 -->
<g id="edge30_Node000016_Node000021" class="edge">
<title>Node16&#45;&gt;Node21</title>
<g id="a_edge30_Node000016_Node000021"><a xlink:title=" ">
<path fill="none" stroke="#63b8ff" d="M788.28,-539.15C790.87,-589.92 806.12,-747.57 896,-825 897.12,-825.97 898.28,-826.89 899.46,-827.77"/>
<polygon fill="#63b8ff" stroke="#63b8ff" points="897.48,-830.65 907.82,-832.93 901.15,-824.7 897.48,-830.65"/>
</a>
</g>
</g>
<!-- Node22 -->
<g id="Node000022" class="node">
<title>Node22</title>
<g id="a_Node000022"><a xlink:href="../../d5/d72/classLSM1x0A__LoRaWAN.html#ad320634e52d7ea907043cc50dd37c5b0" target="_top" xlink:title="Sets the LoRaWAN Device EUI (DevEUI).">
<polygon fill="white" stroke="#666666" points="1075.5,-816 910.25,-816 910.25,-796 1075.5,-796 1075.5,-816"/>
<text text-anchor="middle" x="992.88" y="-802.5" font-family="Helvetica,sans-Serif" font-size="10.00">LSM1x0A_LoRaWAN::setDevEUI</text>
</a>
</g>
</g>
<!-- Node16&#45;&gt;Node22 -->
<g id="edge32_Node000016_Node000022" class="edge">
<title>Node16&#45;&gt;Node22</title>
<g id="a_edge32_Node000016_Node000022"><a xlink:title=" ">
<path fill="none" stroke="#63b8ff" d="M789.24,-539.44C794.39,-586.24 815.87,-721.05 896,-787 897.49,-788.22 899.03,-789.38 900.62,-790.46"/>
<polygon fill="#63b8ff" stroke="#63b8ff" points="898.48,-793.27 908.9,-795.21 901.97,-787.2 898.48,-793.27"/>
</a>
</g>
</g>
<!-- Node23 -->
<g id="Node000023" class="node">
<title>Node23</title>
<g id="a_Node000023"><a xlink:href="../../d5/d72/classLSM1x0A__LoRaWAN.html#a031023b0d2dd5db3c51c2db6ae7801cc" target="_top" xlink:title="Enables or disables the Duty Cycle limitation (EU regions mostly).">
<polygon fill="white" stroke="#666666" points="1068.38,-778 917.38,-778 917.38,-746 1068.38,-746 1068.38,-778"/>
<text text-anchor="start" x="925.38" y="-764.5" font-family="Helvetica,sans-Serif" font-size="10.00">LSM1x0A_LoRaWAN::setDuty</text>
<text text-anchor="middle" x="992.88" y="-752.5" font-family="Helvetica,sans-Serif" font-size="10.00">Cycle</text>
</a>
</g>
</g>
<!-- Node16&#45;&gt;Node23 -->
<g id="edge34_Node000016_Node000023" class="edge">
<title>Node16&#45;&gt;Node23</title>
<g id="a_edge34_Node000016_Node000023"><a xlink:title=" ">
<path fill="none" stroke="#63b8ff" d="M791.15,-539.3C800.4,-579.44 829.89,-683.67 896,-737 899.44,-739.78 903.16,-742.25 907.06,-744.44"/>
<polygon fill="#63b8ff" stroke="#63b8ff" points="905.21,-747.44 915.73,-748.7 908.3,-741.15 905.21,-747.44"/>
</a>
</g>
</g>
<!-- Node24 -->
<g id="Node000024" class="node">
<title>Node24</title>
<g id="a_Node000024"><a xlink:href="../../d5/d72/classLSM1x0A__LoRaWAN.html#a6b179d5825c49af0f391dfc539912f64" target="_top" xlink:title="Sets the delay for the Join1 receive window.">
<polygon fill="white" stroke="#666666" points="1069.5,-728 916.25,-728 916.25,-696 1069.5,-696 1069.5,-728"/>
<text text-anchor="start" x="924.25" y="-714.5" font-family="Helvetica,sans-Serif" font-size="10.00">LSM1x0A_LoRaWAN::setJoin1</text>
<text text-anchor="middle" x="992.88" y="-702.5" font-family="Helvetica,sans-Serif" font-size="10.00">Delay</text>
</a>
</g>
</g>
<!-- Node16&#45;&gt;Node24 -->
<g id="edge36_Node000016_Node000024" class="edge">
<title>Node16&#45;&gt;Node24</title>
<g id="a_edge36_Node000016_Node000024"><a xlink:title=" ">
<path fill="none" stroke="#63b8ff" d="M793.84,-539.39C807.06,-572.62 841.63,-648.08 896,-687 899.17,-689.27 902.54,-691.34 906.03,-693.21"/>
<polygon fill="#63b8ff" stroke="#63b8ff" points="904.28,-696.26 914.82,-697.38 907.28,-689.93 904.28,-696.26"/>
</a>
</g>
</g>
<!-- Node25 -->
<g id="Node000025" class="node">
<title>Node25</title>
<g id="a_Node000025"><a xlink:href="../../d5/d72/classLSM1x0A__LoRaWAN.html#a4545d0caad41558cdb9bae8286b104d8" target="_top" xlink:title="Sets the delay for the Join2 receive window.">
<polygon fill="white" stroke="#666666" points="1069.5,-678 916.25,-678 916.25,-646 1069.5,-646 1069.5,-678"/>
<text text-anchor="start" x="924.25" y="-664.5" font-family="Helvetica,sans-Serif" font-size="10.00">LSM1x0A_LoRaWAN::setJoin2</text>
<text text-anchor="middle" x="992.88" y="-652.5" font-family="Helvetica,sans-Serif" font-size="10.00">Delay</text>
</a>
</g>
</g>
<!-- Node16&#45;&gt;Node25 -->
<g id="edge38_Node000016_Node000025" class="edge">
<title>Node16&#45;&gt;Node25</title>
<g id="a_edge38_Node000016_Node000025"><a xlink:title=" ">
<path fill="none" stroke="#63b8ff" d="M798.64,-539.33C816.15,-564.27 852.99,-611.61 896,-637 899.01,-638.78 902.15,-640.43 905.38,-641.97"/>
<polygon fill="#63b8ff" stroke="#63b8ff" points="903.98,-645.18 914.55,-645.9 906.74,-638.74 903.98,-645.18"/>
</a>
</g>
</g>
<!-- Node26 -->
<g id="Node000026" class="node">
<title>Node26</title>
<g id="a_Node000026"><a xlink:href="../../d5/d72/classLSM1x0A__LoRaWAN.html#a06bd50723ec1eb7e144c9141b2ec86fc" target="_top" xlink:title="Sets the LoRaWAN Network ID (NetID).">
<polygon fill="white" stroke="#666666" points="1073.25,-628 912.5,-628 912.5,-608 1073.25,-608 1073.25,-628"/>
<text text-anchor="middle" x="992.88" y="-614.5" font-family="Helvetica,sans-Serif" font-size="10.00">LSM1x0A_LoRaWAN::setNwkID</text>
</a>
</g>
</g>
<!-- Node16&#45;&gt;Node26 -->
<g id="edge40_Node000016_Node000026" class="edge">
<title>Node16&#45;&gt;Node26</title>
<g id="a_edge40_Node000016_Node000026"><a xlink:title=" ">
<path fill="none" stroke="#63b8ff" d="M805.85,-539.34C826.26,-556.84 861.16,-584.11 896,-599 900.6,-600.97 905.41,-602.73 910.33,-604.32"/>
<polygon fill="#63b8ff" stroke="#63b8ff" points="909.17,-607.63 919.76,-607.08 911.14,-600.91 909.17,-607.63"/>
</a>
</g>
</g>
<!-- Node27 -->
<g id="Node000027" class="node">
<title>Node27</title>
<g id="a_Node000027"><a xlink:href="../../d5/d72/classLSM1x0A__LoRaWAN.html#aa70ada64d28ecca216bb62268e502adf" target="_top" xlink:title="Sets the delay for the RX1 receive window.">
<polygon fill="white" stroke="#666666" points="1079.62,-590 906.12,-590 906.12,-570 1079.62,-570 1079.62,-590"/>
<text text-anchor="middle" x="992.88" y="-576.5" font-family="Helvetica,sans-Serif" font-size="10.00">LSM1x0A_LoRaWAN::setRx1Delay</text>
</a>
</g>
</g>
<!-- Node16&#45;&gt;Node27 -->
<g id="edge42_Node000016_Node000027" class="edge">
<title>Node16&#45;&gt;Node27</title>
<g id="a_edge42_Node000016_Node000027"><a xlink:title=" ">
<path fill="none" stroke="#63b8ff" d="M830.24,-539.49C850.02,-546.76 874,-554.99 896,-561 904.08,-563.21 912.61,-565.27 921.12,-567.16"/>
<polygon fill="#63b8ff" stroke="#63b8ff" points="920.25,-570.55 930.76,-569.23 921.72,-563.71 920.25,-570.55"/>
</a>
</g>
</g>
<!-- Node28 -->
<g id="Node000028" class="node">
<title>Node28</title>
<g id="a_Node000028"><a xlink:href="../../d5/d72/classLSM1x0A__LoRaWAN.html#a2cf4eff0181b6107d082bccefa24217b" target="_top" xlink:title="Sets the Data Rate (DR) specifically for the RX2 window.">
<polygon fill="white" stroke="#666666" points="1087.88,-552 897.88,-552 897.88,-532 1087.88,-532 1087.88,-552"/>
<text text-anchor="middle" x="992.88" y="-538.5" font-family="Helvetica,sans-Serif" font-size="10.00">LSM1x0A_LoRaWAN::setRx2DataRate</text>
</a>
</g>
</g>
<!-- Node16&#45;&gt;Node28 -->
<g id="edge44_Node000016_Node000028" class="edge">
<title>Node16&#45;&gt;Node28</title>
<g id="a_edge44_Node000016_Node000028"><a xlink:title=" ">
<path fill="none" stroke="#63b8ff" d="M860.29,-529.75C868.66,-530.53 877.31,-531.34 886.01,-532.15"/>
<polygon fill="#63b8ff" stroke="#63b8ff" points="885.64,-535.63 895.93,-533.07 886.29,-528.66 885.64,-535.63"/>
</a>
</g>
</g>
<!-- Node29 -->
<g id="Node000029" class="node">
<title>Node29</title>
<g id="a_Node000029"><a xlink:href="../../d5/d72/classLSM1x0A__LoRaWAN.html#a42d2137b475b57e19d891a5f1ac93221" target="_top" xlink:title="Sets the delay for the RX2 receive window.">
<polygon fill="white" stroke="#666666" points="1079.62,-514 906.12,-514 906.12,-494 1079.62,-494 1079.62,-514"/>
<text text-anchor="middle" x="992.88" y="-500.5" font-family="Helvetica,sans-Serif" font-size="10.00">LSM1x0A_LoRaWAN::setRx2Delay</text>
</a>
</g>
</g>
<!-- Node16&#45;&gt;Node29 -->
<g id="edge46_Node000016_Node000029" class="edge">
<title>Node16&#45;&gt;Node29</title>
<g id="a_edge46_Node000016_Node000029"><a xlink:title=" ">
<path fill="none" stroke="#63b8ff" d="M860.29,-516.25C871.49,-515.21 883.22,-514.11 894.85,-513.03"/>
<polygon fill="#63b8ff" stroke="#63b8ff" points="894.82,-516.55 904.45,-512.14 894.17,-509.58 894.82,-516.55"/>
</a>
</g>
</g>
<!-- Node30 -->
<g id="Node000030" class="node">
<title>Node30</title>
<g id="a_Node000030"><a xlink:href="../../d5/d72/classLSM1x0A__LoRaWAN.html#a689f7dfda1dfeae11ea397c2ddf2ad37" target="_top" xlink:title="Sets the precise frequency for the RX2 window.">
<polygon fill="white" stroke="#666666" points="1089.75,-476 896,-476 896,-456 1089.75,-456 1089.75,-476"/>
<text text-anchor="middle" x="992.88" y="-462.5" font-family="Helvetica,sans-Serif" font-size="10.00">LSM1x0A_LoRaWAN::setRx2Frequency</text>
</a>
</g>
</g>
<!-- Node16&#45;&gt;Node30 -->
<g id="edge48_Node000016_Node000030" class="edge">
<title>Node16&#45;&gt;Node30</title>
<g id="a_edge48_Node000016_Node000030"><a xlink:title=" ">
<path fill="none" stroke="#63b8ff" d="M830.24,-506.51C850.02,-499.24 874,-491.01 896,-485 904.08,-482.79 912.61,-480.73 921.12,-478.84"/>
<polygon fill="#63b8ff" stroke="#63b8ff" points="921.72,-482.29 930.76,-476.77 920.25,-475.45 921.72,-482.29"/>
</a>
</g>
</g>
<!-- Node31 -->
<g id="Node000031" class="node">
<title>Node31</title>
<g id="a_Node000031"><a xlink:href="../../d5/d72/classLSM1x0A__LoRaWAN.html#a1df10d7ae6bf45b537d28d3d5c4b88d7" target="_top" xlink:title="Sets the transmission power index.">
<polygon fill="white" stroke="#666666" points="1077.38,-438 908.38,-438 908.38,-418 1077.38,-418 1077.38,-438"/>
<text text-anchor="middle" x="992.88" y="-424.5" font-family="Helvetica,sans-Serif" font-size="10.00">LSM1x0A_LoRaWAN::setTxPower</text>
</a>
</g>
</g>
<!-- Node16&#45;&gt;Node31 -->
<g id="edge50_Node000016_Node000031" class="edge">
<title>Node16&#45;&gt;Node31</title>
<g id="a_edge50_Node000016_Node000031"><a xlink:title=" ">
<path fill="none" stroke="#63b8ff" d="M805.85,-506.66C826.26,-489.16 861.16,-461.89 896,-447 900.6,-445.03 905.41,-443.27 910.33,-441.68"/>
<polygon fill="#63b8ff" stroke="#63b8ff" points="911.14,-445.09 919.76,-438.92 909.17,-438.37 911.14,-445.09"/>
</a>
</g>
</g>
<!-- Node32 -->
<g id="Node000032" class="node">
<title>Node32</title>
<g id="a_Node000032"><a xlink:href="../../d5/d72/classLSM1x0A__LoRaWAN.html#a059fd6a9356c4ecadd5a98294da5952d" target="_top" xlink:title="Configures the number of repetitions for Unconfirmed uplinks.">
<polygon fill="white" stroke="#666666" points="1080.38,-400 905.38,-400 905.38,-368 1080.38,-368 1080.38,-400"/>
<text text-anchor="start" x="913.38" y="-386.5" font-family="Helvetica,sans-Serif" font-size="10.00">LSM1x0A_LoRaWAN::setUnconfirm</text>
<text text-anchor="middle" x="992.88" y="-374.5" font-family="Helvetica,sans-Serif" font-size="10.00">Retry</text>
</a>
</g>
</g>
<!-- Node16&#45;&gt;Node32 -->
<g id="edge52_Node000016_Node000032" class="edge">
<title>Node16&#45;&gt;Node32</title>
<g id="a_edge52_Node000016_Node000032"><a xlink:title=" ">
<path fill="none" stroke="#63b8ff" d="M798.64,-506.67C816.15,-481.73 852.99,-434.39 896,-409 898.31,-407.64 900.7,-406.34 903.14,-405.12"/>
<polygon fill="#63b8ff" stroke="#63b8ff" points="904.4,-408.4 912.08,-401.1 901.53,-402.01 904.4,-408.4"/>
</a>
</g>
</g>
<!-- Node17&#45;&gt;Node10 -->
<g id="edge22_Node000017_Node000010" class="edge">
<title>Node17&#45;&gt;Node10</title>
<g id="a_edge22_Node000017_Node000010"><a xlink:title=" ">
<path fill="none" stroke="#63b8ff" d="M1069.15,-348.53C1076.47,-351.2 1083.49,-354.62 1089.75,-359 1145.34,-397.86 1178.19,-474.26 1192.49,-514.97"/>
<polygon fill="#63b8ff" stroke="#63b8ff" points="1189.11,-515.89 1195.62,-524.24 1195.74,-513.65 1189.11,-515.89"/>
</a>
</g>
</g>
<!-- Node18&#45;&gt;Node10 -->
<g id="edge24_Node000018_Node000010" class="edge">
<title>Node18&#45;&gt;Node10</title>
<g id="a_edge24_Node000018_Node000010"><a xlink:title=" ">
<path fill="none" stroke="#63b8ff" d="M1069.52,-310.03C1076.77,-312.79 1083.67,-316.38 1089.75,-321 1154.37,-370.13 1184.21,-467.16 1195.41,-514.6"/>
<polygon fill="#63b8ff" stroke="#63b8ff" points="1191.92,-515.06 1197.53,-524.05 1198.75,-513.53 1191.92,-515.06"/>
</a>
</g>
</g>
<!-- Node19&#45;&gt;Node10 -->
<g id="edge27_Node000019_Node000010" class="edge">
<title>Node19&#45;&gt;Node10</title>
<g id="a_edge27_Node000019_Node000010"><a xlink:title=" ">
<path fill="none" stroke="#63b8ff" d="M1075.58,-273.44C1080.66,-276.14 1085.45,-279.3 1089.75,-283 1161.7,-344.86 1188.48,-461.59 1197.24,-514.59"/>
<polygon fill="#63b8ff" stroke="#63b8ff" points="1193.75,-514.92 1198.74,-524.26 1200.67,-513.84 1193.75,-514.92"/>
</a>
</g>
</g>
<!-- Node20&#45;&gt;Node10 -->
<g id="edge29_Node000020_Node000010" class="edge">
<title>Node20&#45;&gt;Node10</title>
<g id="a_edge29_Node000020_Node000010"><a xlink:title=" ">
<path fill="none" stroke="#63b8ff" d="M1077.19,-871.6C1081.7,-869.21 1085.94,-866.37 1089.75,-863 1127.98,-829.22 1109.22,-802.26 1125.75,-754 1148.56,-687.42 1176.55,-609.52 1191.12,-569.23"/>
<polygon fill="#63b8ff" stroke="#63b8ff" points="1194.39,-570.47 1194.51,-559.87 1187.81,-568.08 1194.39,-570.47"/>
</a>
</g>
</g>
<!-- Node21&#45;&gt;Node10 -->
<g id="edge31_Node000021_Node000010" class="edge">
<title>Node21&#45;&gt;Node10</title>
<g id="a_edge31_Node000021_Node000010"><a xlink:title=" ">
<path fill="none" stroke="#63b8ff" d="M1076.52,-833.58C1081.25,-831.21 1085.71,-828.37 1089.75,-825 1110.53,-807.64 1169.44,-636.39 1192.03,-569.02"/>
<polygon fill="#63b8ff" stroke="#63b8ff" points="1195.24,-570.45 1195.09,-559.86 1188.6,-568.24 1195.24,-570.45"/>
</a>
</g>
</g>
<!-- Node22&#45;&gt;Node10 -->
<g id="edge33_Node000022_Node000010" class="edge">
<title>Node22&#45;&gt;Node10</title>
<g id="a_edge33_Node000022_Node000010"><a xlink:title=" ">
<path fill="none" stroke="#63b8ff" d="M1075.86,-795.56C1080.8,-793.2 1085.49,-790.37 1089.75,-787 1160.25,-731.13 1187.64,-620.69 1196.88,-569.39"/>
<polygon fill="#63b8ff" stroke="#63b8ff" points="1200.29,-570.18 1198.51,-559.74 1193.39,-569.01 1200.29,-570.18"/>
</a>
</g>
</g>
<!-- Node23&#45;&gt;Node10 -->
<g id="edge35_Node000023_Node000010" class="edge">
<title>Node23&#45;&gt;Node10</title>
<g id="a_edge35_Node000023_Node000010"><a xlink:title=" ">
<path fill="none" stroke="#63b8ff" d="M1068.41,-749.05C1076.04,-745.87 1083.33,-741.92 1089.75,-737 1146.74,-693.34 1179.31,-611.57 1193.1,-569.12"/>
<polygon fill="#63b8ff" stroke="#63b8ff" points="1196.4,-570.29 1196.05,-559.7 1189.72,-568.2 1196.4,-570.29"/>
</a>
</g>
</g>
<!-- Node24&#45;&gt;Node10 -->
<g id="edge37_Node000024_Node000010" class="edge">
<title>Node24&#45;&gt;Node10</title>
<g id="a_edge37_Node000024_Node000010"><a xlink:title=" ">
<path fill="none" stroke="#63b8ff" d="M1069.74,-697.37C1076.79,-694.51 1083.59,-691.09 1089.75,-687 1135.56,-656.61 1170.32,-600.94 1188,-568.13"/>
<polygon fill="#63b8ff" stroke="#63b8ff" points="1190.89,-570.16 1192.43,-559.68 1184.69,-566.91 1190.89,-570.16"/>
</a>
</g>
</g>
<!-- Node25&#45;&gt;Node10 -->
<g id="edge39_Node000025_Node000010" class="edge">
<title>Node25&#45;&gt;Node10</title>
<g id="a_edge39_Node000025_Node000010"><a xlink:title=" ">
<path fill="none" stroke="#63b8ff" d="M1069.93,-645.62C1076.79,-643.12 1083.5,-640.26 1089.75,-637 1124.54,-618.85 1157.85,-588.01 1178.81,-566.4"/>
<polygon fill="#63b8ff" stroke="#63b8ff" points="1181.08,-569.1 1185.43,-559.44 1176,-564.27 1181.08,-569.1"/>
</a>
</g>
</g>
<!-- Node26&#45;&gt;Node10 -->
<g id="edge41_Node000026_Node000010" class="edge">
<title>Node26&#45;&gt;Node10</title>
<g id="a_edge41_Node000026_Node000010"><a xlink:title=" ">
<path fill="none" stroke="#63b8ff" d="M1059.51,-607.52C1069.76,-605.16 1080.13,-602.34 1089.75,-599 1115.82,-589.94 1143.45,-575.81 1164.65,-563.89"/>
<polygon fill="#63b8ff" stroke="#63b8ff" points="1166.25,-567 1173.19,-559 1162.77,-560.93 1166.25,-567"/>
</a>
</g>
</g>
<!-- Node27&#45;&gt;Node10 -->
<g id="edge43_Node000027_Node000010" class="edge">
<title>Node27&#45;&gt;Node10</title>
<g id="a_edge43_Node000027_Node000010"><a xlink:title=" ">
<path fill="none" stroke="#63b8ff" d="M1051.02,-569.52C1077.86,-564.59 1109.94,-558.71 1137.53,-553.64"/>
<polygon fill="#63b8ff" stroke="#63b8ff" points="1137.96,-557.12 1147.16,-551.88 1136.69,-550.24 1137.96,-557.12"/>
</a>
</g>
</g>
<!-- Node28&#45;&gt;Node10 -->
<g id="edge45_Node000028_Node000010" class="edge">
<title>Node28&#45;&gt;Node10</title>
<g id="a_edge45_Node000028_Node000010"><a xlink:title=" ">
<path fill="none" stroke="#63b8ff" d="M1088.35,-542C1104.84,-542 1121.64,-542 1137.07,-542"/>
<polygon fill="#63b8ff" stroke="#63b8ff" points="1137.05,-545.5 1147.05,-542 1137.05,-538.5 1137.05,-545.5"/>
</a>
</g>
</g>
<!-- Node29&#45;&gt;Node10 -->
<g id="edge47_Node000029_Node000010" class="edge">
<title>Node29&#45;&gt;Node10</title>
<g id="a_edge47_Node000029_Node000010"><a xlink:title=" ">
<path fill="none" stroke="#63b8ff" d="M1051.02,-514.48C1077.86,-519.41 1109.94,-525.29 1137.53,-530.36"/>
<polygon fill="#63b8ff" stroke="#63b8ff" points="1136.69,-533.76 1147.16,-532.12 1137.96,-526.88 1136.69,-533.76"/>
</a>
</g>
</g>
<!-- Node30&#45;&gt;Node10 -->
<g id="edge49_Node000030_Node000010" class="edge">
<title>Node30&#45;&gt;Node10</title>
<g id="a_edge49_Node000030_Node000010"><a xlink:title=" ">
<path fill="none" stroke="#63b8ff" d="M1059.51,-476.48C1069.76,-478.84 1080.13,-481.66 1089.75,-485 1115.82,-494.06 1143.45,-508.19 1164.65,-520.11"/>
<polygon fill="#63b8ff" stroke="#63b8ff" points="1162.77,-523.07 1173.19,-525 1166.25,-517 1162.77,-523.07"/>
</a>
</g>
</g>
<!-- Node31&#45;&gt;Node10 -->
<g id="edge51_Node000031_Node000010" class="edge">
<title>Node31&#45;&gt;Node10</title>
<g id="a_edge51_Node000031_Node000010"><a xlink:title=" ">
<path fill="none" stroke="#63b8ff" d="M1067.14,-438.43C1074.96,-440.74 1082.65,-443.56 1089.75,-447 1125.26,-464.21 1158.65,-495.52 1179.41,-517.48"/>
<polygon fill="#63b8ff" stroke="#63b8ff" points="1176.6,-519.6 1185.96,-524.57 1181.74,-514.85 1176.6,-519.6"/>
</a>
</g>
</g>
<!-- Node32&#45;&gt;Node10 -->
<g id="edge53_Node000032_Node000010" class="edge">
<title>Node32&#45;&gt;Node10</title>
<g id="a_edge53_Node000032_Node000010"><a xlink:title=" ">
<path fill="none" stroke="#63b8ff" d="M1073,-400.31C1078.86,-402.81 1084.52,-405.69 1089.75,-409 1132.74,-436.23 1167.47,-485.5 1186.1,-515.83"/>
<polygon fill="#63b8ff" stroke="#63b8ff" points="1183.09,-517.61 1191.23,-524.4 1189.1,-514.02 1183.09,-517.61"/>
</a>
</g>
</g>
<!-- Node34&#45;&gt;Node11 -->
<g id="edge56_Node000034_Node000011" class="edge">
<title>Node34&#45;&gt;Node11</title>
<g id="a_edge56_Node000034_Node000011"><a xlink:title=" ">
<path fill="none" stroke="#63b8ff" d="M1216.57,-762.71C1251.94,-720.24 1346.84,-606.28 1384.58,-560.97"/>
<polygon fill="#63b8ff" stroke="#63b8ff" points="1387.05,-563.47 1390.76,-553.55 1381.67,-558.99 1387.05,-563.47"/>
</a>
</g>
</g>
</g>
</svg>
