<?xml version="1.0" encoding="UTF-8" standalone="no"?>
<!DOCTYPE svg PUBLIC "-//W3C//DTD SVG 1.1//EN"
 "http://www.w3.org/Graphics/SVG/1.1/DTD/svg11.dtd">
<!-- Generated by graphviz version 12.2.1 (20241206.2353)
 -->
<!-- Title: LSM1x0A_LoRaWAN::getAppEUI Pages: 1 -->
<!--zoomable 1018 -->

<svg id="main" version="1.1" xmlns="http://www.w3.org/2000/svg" xmlns:xlink="http://www.w3.org/1999/xlink" xml:space="preserve" onload="init(evt)">
<style type="text/css"><![CDATA[
.node, .edge {opacity: 0.7;}
.node.selected, .edge.selected {opacity: 1;}
.edge:hover path { stroke: red; }
.edge:hover polygon { stroke: red; fill: red; }
]]></style>

<defs>
  <circle id="rim" cx="0" cy="0" r="7"/>
  <circle id="rim2" cx="0" cy="0" r="3.5"/>
  <g id="zoomPlus">
    <use xlink:href="#rim" fill="#404040"><set attributeName="fill" to="#808080" begin="zoomplus.mouseover" end="zoomplus.mouseout"/></use>
    <path d="M-4,0h8M0,-4v8" fill="none" stroke="white" stroke-width="1.5" pointer-events="none"/>
  </g>
  <g id="zoomMin">
    <use xlink:href="#rim" fill="#404040"><set attributeName="fill" to="#808080" begin="zoomminus.mouseover" end="zoomminus.mouseout"/></use>
    <path d="M-4,0h8" fill="none" stroke="white" stroke-width="1.5" pointer-events="none"/>
  </g>
  <g id="arrowUp" transform="translate(30 24)">
    <use xlink:href="#rim"/>
    <path pointer-events="none" fill="none" stroke="white" stroke-width="1.5" d="M0,-3.0v7 M-2.5,-0.5L0,-3.0L2.5,-0.5"/>
  </g>
  <g id="arrowRight" transform="rotate(90) translate(36 -43)">
    <use xlink:href="#rim"/>
    <path pointer-events="none" fill="none" stroke="white" stroke-width="1.5" d="M0,-3.0v7 M-2.5,-0.5L0,-3.0L2.5,-0.5"/>
  </g>
  <g id="arrowDown" transform="rotate(180) translate(-30 -48)">
    <use xlink:href="#rim"/>
    <path pointer-events="none" fill="none" stroke="white" stroke-width="1.5" d="M0,-3.0v7 M-2.5,-0.5L0,-3.0L2.5,-0.5"/>
  </g>
  <g id="arrowLeft" transform="rotate(270) translate(-36 17)">
    <use xlink:href="#rim"/>
    <path pointer-events="none" fill="none" stroke="white" stroke-width="1.5" d="M0,-3.0v7 M-2.5,-0.5L0,-3.0L2.5,-0.5"/>
  </g>
  <g id="resetDef">
    <use xlink:href="#rim2" fill="#404040"><set attributeName="fill" to="#808080" begin="reset.mouseover" end="reset.mouseout"/></use>
  </g>
</defs>
<script type="application/ecmascript">
var viewWidth = 1864;
var viewHeight = 1018;
var sectionId = 'dynsection-4';
</script>
<script type="application/ecmascript" xlink:href="../../svg.min.js"/>
<svg id="graph" class="graph">
<g id="viewport">
<title>LSM1x0A_LoRaWAN::getAppEUI</title>
<!-- Node1 -->
<g id="Node000001" class="node">
<title>Node1</title>
<g id="a_Node000001"><a xlink:title="Retrieves the Application EUI.">
<polygon fill="#999999" stroke="#666666" points="164.5,-98 0,-98 0,-78 164.5,-78 164.5,-98"/>
<text text-anchor="middle" x="82.25" y="-84.5" font-family="Helvetica,sans-Serif" font-size="10.00">LSM1x0A_LoRaWAN::getAppEUI</text>
</a>
</g>
</g>
<!-- Node2 -->
<g id="Node000002" class="node">
<title>Node2</title>
<g id="a_Node000002"><a xlink:href="../../d8/d92/classLSM1x0A__Controller.html#ab00328d1be83aa51bce8c2a4f907c5f4" target="_top" xlink:title="Sends an AT command and captures its response in a text block. Ideal for getters (e....">
<polygon fill="white" stroke="#666666" points="353,-104 200.5,-104 200.5,-72 353,-72 353,-104"/>
<text text-anchor="start" x="208.5" y="-90.5" font-family="Helvetica,sans-Serif" font-size="10.00">LSM1x0A_Controller</text>
<text text-anchor="middle" x="276.75" y="-78.5" font-family="Helvetica,sans-Serif" font-size="10.00">::sendCommandWithResponse</text>
</a>
</g>
</g>
<!-- Node1&#45;&gt;Node2 -->
<g id="edge1_Node000001_Node000002" class="edge">
<title>Node1&#45;&gt;Node2</title>
<g id="a_edge1_Node000001_Node000002"><a xlink:title=" ">
<path fill="none" stroke="#63b8ff" d="M164.89,-88C172.74,-88 180.72,-88 188.62,-88"/>
<polygon fill="#63b8ff" stroke="#63b8ff" points="188.59,-91.5 198.59,-88 188.59,-84.5 188.59,-91.5"/>
</a>
</g>
</g>
<!-- Node3 -->
<g id="Node000003" class="node">
<title>Node3</title>
<g id="a_Node000003"><a xlink:href="../../d8/d92/classLSM1x0A__Controller.html#abb0eb380daa3dfb7acffb483c5db8e2b" target="_top" xlink:title="Executes the recovery protocol. First Soft&#45;Reset (ATZ), then Hard&#45;Reset if there is a pin.">
<polygon fill="white" stroke="#666666" points="495,-214 389,-214 389,-182 495,-182 495,-214"/>
<text text-anchor="start" x="397" y="-200.5" font-family="Helvetica,sans-Serif" font-size="10.00">LSM1x0A_Controller</text>
<text text-anchor="middle" x="442" y="-188.5" font-family="Helvetica,sans-Serif" font-size="10.00">::recoverModule</text>
</a>
</g>
</g>
<!-- Node2&#45;&gt;Node3 -->
<g id="edge2_Node000002_Node000003" class="edge">
<title>Node2&#45;&gt;Node3</title>
<g id="a_edge2_Node000002_Node000003"><a xlink:title=" ">
<path fill="none" stroke="#63b8ff" d="M302.19,-104.47C330.16,-123.32 376.14,-154.29 407.45,-175.39"/>
<polygon fill="#63b8ff" stroke="#63b8ff" points="405.16,-178.07 415.4,-180.75 409.07,-172.26 405.16,-178.07"/>
</a>
</g>
</g>
<!-- Node12 -->
<g id="Node000012" class="node">
<title>Node12</title>
<g id="a_Node000012"><a xlink:href="../../d6/d3c/classLSM1x0A__AtParser.html#a0ba6f927c54fceece22c17773d3f2600" target="_top" xlink:title="Sends a command and extracts a value from the response.">
<polygon fill="white" stroke="#666666" points="1710.75,-287 1536.5,-287 1536.5,-255 1710.75,-255 1710.75,-287"/>
<text text-anchor="start" x="1544.5" y="-273.5" font-family="Helvetica,sans-Serif" font-size="10.00">LSM1x0A_AtParser::sendCommand</text>
<text text-anchor="middle" x="1623.62" y="-261.5" font-family="Helvetica,sans-Serif" font-size="10.00">WithResponse</text>
</a>
</g>
</g>
<!-- Node2&#45;&gt;Node12 -->
<g id="edge57_Node000002_Node000012" class="edge">
<title>Node2&#45;&gt;Node12</title>
<g id="a_edge57_Node000002_Node000012"><a xlink:title=" ">
<path fill="none" stroke="#63b8ff" d="M314.19,-71.65C374.36,-46.21 498.79,0 609.25,0 609.25,0 609.25,0 1215,0 1391.94,0 1550.7,-179.26 1603.81,-246.19"/>
<polygon fill="#63b8ff" stroke="#63b8ff" points="1600.74,-247.95 1609.66,-253.67 1606.25,-243.64 1600.74,-247.95"/>
</a>
</g>
</g>
<!-- Node4 -->
<g id="Node000004" class="node">
<title>Node4</title>
<g id="a_Node000004"><a xlink:href="../../d8/d92/classLSM1x0A__Controller.html#a3f6f25b843fe4fb7042c544deae2ab16" target="_top" xlink:title="Manually clears bits from the internal EventGroup.">
<polygon fill="white" stroke="#666666" points="1057.88,-98 951.88,-98 951.88,-66 1057.88,-66 1057.88,-98"/>
<text text-anchor="start" x="959.88" y="-84.5" font-family="Helvetica,sans-Serif" font-size="10.00">LSM1x0A_Controller</text>
<text text-anchor="middle" x="1004.88" y="-72.5" font-family="Helvetica,sans-Serif" font-size="10.00">::clearEvents</text>
</a>
</g>
</g>
<!-- Node3&#45;&gt;Node4 -->
<g id="edge3_Node000003_Node000004" class="edge">
<title>Node3&#45;&gt;Node4</title>
<g id="a_edge3_Node000003_Node000004"><a xlink:title=" ">
<path fill="none" stroke="#63b8ff" d="M467.68,-181.53C484.73,-171 508.34,-158.03 531,-151 676.65,-105.82 721.73,-138.94 872,-113 894.5,-109.12 918.9,-103.72 940.52,-98.52"/>
<polygon fill="#63b8ff" stroke="#63b8ff" points="941.2,-101.96 950.08,-96.18 939.53,-95.16 941.2,-101.96"/>
</a>
</g>
</g>
<!-- Node5 -->
<g id="Node000005" class="node">
<title>Node5</title>
<g id="a_Node000005"><a xlink:href="../../d8/d92/classLSM1x0A__Controller.html#a345d4bd79fa16b18dc33a4ca788fe5f7" target="_top" xlink:title="Performs a hardware reset using the reset pin.">
<polygon fill="white" stroke="#666666" points="663.25,-104 557.25,-104 557.25,-72 663.25,-72 663.25,-104"/>
<text text-anchor="start" x="565.25" y="-90.5" font-family="Helvetica,sans-Serif" font-size="10.00">LSM1x0A_Controller</text>
<text text-anchor="middle" x="610.25" y="-78.5" font-family="Helvetica,sans-Serif" font-size="10.00">::hardwareReset</text>
</a>
</g>
</g>
<!-- Node3&#45;&gt;Node5 -->
<g id="edge4_Node000003_Node000005" class="edge">
<title>Node3&#45;&gt;Node5</title>
<g id="a_edge4_Node000003_Node000005"><a xlink:title=" ">
<path fill="none" stroke="#63b8ff" d="M457.46,-181.63C473.82,-163.93 501.99,-135.86 531,-118 536.27,-114.76 541.94,-111.77 547.74,-109.03"/>
<polygon fill="#63b8ff" stroke="#63b8ff" points="549.14,-112.24 556.88,-104.99 546.31,-105.83 549.14,-112.24"/>
</a>
</g>
</g>
<!-- Node7 -->
<g id="Node000007" class="node">
<title>Node7</title>
<g id="a_Node000007"><a xlink:href="../../d5/d72/classLSM1x0A__LoRaWAN.html#a1892801e37c8cd67d37c76108d6f7d49" target="_top" xlink:title="Validates if the device is currently Joined to the network. (Either confirmed by OTAA or statically a...">
<polygon fill="white" stroke="#666666" points="1290.25,-136 1137.75,-136 1137.75,-116 1290.25,-116 1290.25,-136"/>
<text text-anchor="middle" x="1214" y="-122.5" font-family="Helvetica,sans-Serif" font-size="10.00">LSM1x0A_LoRaWAN::isJoined</text>
</a>
</g>
</g>
<!-- Node3&#45;&gt;Node7 -->
<g id="edge6_Node000003_Node000007" class="edge">
<title>Node3&#45;&gt;Node7</title>
<g id="a_edge6_Node000003_Node000007"><a xlink:title=" ">
<path fill="none" stroke="#63b8ff" d="M447.93,-181.77C457.99,-151.92 483.98,-88.97 531,-63 642.04,-1.69 979.76,-22.24 1101.75,-57 1136.82,-66.99 1171.62,-91.56 1192.72,-108.51"/>
<polygon fill="#63b8ff" stroke="#63b8ff" points="1190.3,-111.05 1200.24,-114.72 1194.76,-105.65 1190.3,-111.05"/>
</a>
</g>
</g>
<!-- Node8 -->
<g id="Node000008" class="node">
<title>Node8</title>
<g id="a_Node000008"><a xlink:href="../../d5/d72/classLSM1x0A__LoRaWAN.html#a83e11c0e74ff9e0757db616ab1163424" target="_top" xlink:title="Attempts to recover a lost connection (re&#45;executes OTAA Join if dropped).">
<polygon fill="white" stroke="#666666" points="684.62,-192 535.88,-192 535.88,-160 684.62,-160 684.62,-192"/>
<text text-anchor="start" x="543.88" y="-178.5" font-family="Helvetica,sans-Serif" font-size="10.00">LSM1x0A_LoRaWAN::recover</text>
<text text-anchor="middle" x="610.25" y="-166.5" font-family="Helvetica,sans-Serif" font-size="10.00">Connection</text>
</a>
</g>
</g>
<!-- Node3&#45;&gt;Node8 -->
<g id="edge7_Node000003_Node000008" class="edge">
<title>Node3&#45;&gt;Node8</title>
<g id="a_edge7_Node000003_Node000008"><a xlink:title=" ">
<path fill="none" stroke="#63b8ff" d="M495.15,-191.1C504.49,-189.86 514.44,-188.55 524.42,-187.23"/>
<polygon fill="#63b8ff" stroke="#63b8ff" points="524.72,-190.72 534.17,-185.94 523.8,-183.78 524.72,-190.72"/>
</a>
</g>
</g>
<!-- Node16 -->
<g id="Node000016" class="node">
<title>Node16</title>
<g id="a_Node000016"><a xlink:href="../../d5/d72/classLSM1x0A__LoRaWAN.html#ae3be4ce59dfa200369733317df356e97" target="_top" xlink:title="Pushes the RAM&#45;cached variables back down into the hardware module. Restores the operational state af...">
<polygon fill="white" stroke="#666666" points="872,-539 725.5,-539 725.5,-507 872,-507 872,-539"/>
<text text-anchor="start" x="733.5" y="-525.5" font-family="Helvetica,sans-Serif" font-size="10.00">LSM1x0A_LoRaWAN::restore</text>
<text text-anchor="middle" x="798.75" y="-513.5" font-family="Helvetica,sans-Serif" font-size="10.00">Config</text>
</a>
</g>
</g>
<!-- Node3&#45;&gt;Node16 -->
<g id="edge20_Node000003_Node000016" class="edge">
<title>Node3&#45;&gt;Node16</title>
<g id="a_edge20_Node000003_Node000016"><a xlink:title=" ">
<path fill="none" stroke="#63b8ff" d="M460.59,-214.12C518.51,-267.18 703.44,-436.6 771.92,-499.34"/>
<polygon fill="#63b8ff" stroke="#63b8ff" points="769.2,-501.59 778.94,-505.76 773.93,-496.43 769.2,-501.59"/>
</a>
</g>
</g>
<!-- Node33 -->
<g id="Node000033" class="node">
<title>Node33</title>
<g id="a_Node000033"><a xlink:href="../../d5/d72/classLSM1x0A__LoRaWAN.html#ace4b04396f1de1f4a54f513f5f378db7" target="_top" xlink:title="Manually overrides the internal joined state tracker.">
<polygon fill="white" stroke="#666666" points="689.5,-939 531,-939 531,-919 689.5,-919 689.5,-939"/>
<text text-anchor="middle" x="610.25" y="-925.5" font-family="Helvetica,sans-Serif" font-size="10.00">LSM1x0A_LoRaWAN::setJoined</text>
</a>
</g>
</g>
<!-- Node3&#45;&gt;Node33 -->
<g id="edge54_Node000003_Node000033" class="edge">
<title>Node3&#45;&gt;Node33</title>
<g id="a_edge54_Node000003_Node000033"><a xlink:title=" ">
<path fill="none" stroke="#63b8ff" d="M442.72,-214.4C441.4,-310.08 439.33,-795.83 531,-905 533.42,-907.88 536.18,-910.43 539.18,-912.67"/>
<polygon fill="#63b8ff" stroke="#63b8ff" points="537.16,-915.54 547.52,-917.75 540.8,-909.56 537.16,-915.54"/>
</a>
</g>
</g>
<!-- Node34 -->
<g id="Node000034" class="node">
<title>Node34</title>
<g id="a_Node000034"><a xlink:href="../../d8/d92/classLSM1x0A__Controller.html#a11ad21cb5ca33ec51346764a23bd485e" target="_top" xlink:title="Performs a software reset (ATZ Command).">
<polygon fill="white" stroke="#666666" points="1267,-795 1161,-795 1161,-763 1267,-763 1267,-795"/>
<text text-anchor="start" x="1169" y="-781.5" font-family="Helvetica,sans-Serif" font-size="10.00">LSM1x0A_Controller</text>
<text text-anchor="middle" x="1214" y="-769.5" font-family="Helvetica,sans-Serif" font-size="10.00">::softwareReset</text>
</a>
</g>
</g>
<!-- Node3&#45;&gt;Node34 -->
<g id="edge55_Node000003_Node000034" class="edge">
<title>Node3&#45;&gt;Node34</title>
<g id="a_edge55_Node000003_Node000034"><a xlink:title=" ">
<path fill="none" stroke="#63b8ff" d="M443.64,-214.18C447.91,-318.83 474,-897.3 531,-948 596.19,-1005.99 864.14,-1058.87 1101.75,-932 1153.21,-904.52 1186.82,-841.52 1202.57,-805.51"/>
<polygon fill="#63b8ff" stroke="#63b8ff" points="1205.64,-807.25 1206.3,-796.67 1199.19,-804.53 1205.64,-807.25"/>
</a>
</g>
</g>
<!-- Node6 -->
<g id="Node000006" class="node">
<title>Node6</title>
<g id="a_Node000006"><a xlink:href="../../d6/d3c/classLSM1x0A__AtParser.html#ad2839120da13e56132b95019419be1e5" target="_top" xlink:title="Waits for an event (like BOOTALERT) without sending any command. Useful for hardware reset where the ...">
<polygon fill="white" stroke="#666666" points="869,-104 728.5,-104 728.5,-72 869,-72 869,-104"/>
<text text-anchor="start" x="736.5" y="-90.5" font-family="Helvetica,sans-Serif" font-size="10.00">LSM1x0A_AtParser::waitFor</text>
<text text-anchor="middle" x="798.75" y="-78.5" font-family="Helvetica,sans-Serif" font-size="10.00">Event</text>
</a>
</g>
</g>
<!-- Node5&#45;&gt;Node6 -->
<g id="edge5_Node000005_Node000006" class="edge">
<title>Node5&#45;&gt;Node6</title>
<g id="a_edge5_Node000005_Node000006"><a xlink:title=" ">
<path fill="none" stroke="#63b8ff" d="M663.7,-88C680.21,-88 698.86,-88 716.87,-88"/>
<polygon fill="#63b8ff" stroke="#63b8ff" points="716.78,-91.5 726.78,-88 716.78,-84.5 716.78,-91.5"/>
</a>
</g>
</g>
<!-- Node9 -->
<g id="Node000009" class="node">
<title>Node9</title>
<g id="a_Node000009"><a xlink:href="../../d5/d72/classLSM1x0A__LoRaWAN.html#a59f781f3cfd30c11cd3973bcb10a7baa" target="_top" xlink:title="Initiates a LoRaWAN Network Join procedure. This is a blocking function until the module fires an eve...">
<polygon fill="white" stroke="#666666" points="864.5,-186 733,-186 733,-166 864.5,-166 864.5,-186"/>
<text text-anchor="middle" x="798.75" y="-172.5" font-family="Helvetica,sans-Serif" font-size="10.00">LSM1x0A_LoRaWAN::join</text>
</a>
</g>
</g>
<!-- Node8&#45;&gt;Node9 -->
<g id="edge8_Node000008_Node000009" class="edge">
<title>Node8&#45;&gt;Node9</title>
<g id="a_edge8_Node000008_Node000009"><a xlink:title=" ">
<path fill="none" stroke="#63b8ff" d="M684.96,-176C696.92,-176 709.33,-176 721.35,-176"/>
<polygon fill="#63b8ff" stroke="#63b8ff" points="721.22,-179.5 731.22,-176 721.22,-172.5 721.22,-179.5"/>
</a>
</g>
</g>
<!-- Node9&#45;&gt;Node3 -->
<g id="edge10_Node000009_Node000003" class="edge">
<title>Node9&#45;&gt;Node3</title>
<g id="a_edge10_Node000009_Node000003"><a xlink:title=" ">
<path fill="none" stroke="#63b8ff" d="M762.02,-186.4C741.09,-191.95 714.03,-198.2 689.5,-201 619.51,-208.98 601.43,-202.2 531,-201 523.1,-200.87 514.81,-200.66 506.61,-200.43"/>
<polygon fill="#63b8ff" stroke="#63b8ff" points="506.73,-196.93 496.62,-200.12 506.51,-203.92 506.73,-196.93"/>
</a>
</g>
</g>
<!-- Node9&#45;&gt;Node4 -->
<g id="edge9_Node000009_Node000004" class="edge">
<title>Node9&#45;&gt;Node4</title>
<g id="a_edge9_Node000009_Node000004"><a xlink:title=" ">
<path fill="none" stroke="#63b8ff" d="M833.3,-165.52C846.05,-160.68 860.31,-154.16 872,-146 891.34,-132.5 887.77,-119.13 908,-107 917.95,-101.03 929.31,-96.47 940.65,-93"/>
<polygon fill="#63b8ff" stroke="#63b8ff" points="941.32,-96.45 950.01,-90.39 939.44,-89.7 941.32,-96.45"/>
</a>
</g>
</g>
<!-- Node10 -->
<g id="Node000010" class="node">
<title>Node10</title>
<g id="a_Node000010"><a xlink:href="../../d8/d92/classLSM1x0A__Controller.html#afd7d92e60ed6fdae696a955cdbe0ed8c" target="_top" xlink:title="Sends any AT command to the module, returning error if it fails. Internally uses the LsmAtParser logi...">
<polygon fill="white" stroke="#666666" points="1267,-558 1161,-558 1161,-526 1267,-526 1267,-558"/>
<text text-anchor="start" x="1169" y="-544.5" font-family="Helvetica,sans-Serif" font-size="10.00">LSM1x0A_Controller</text>
<text text-anchor="middle" x="1214" y="-532.5" font-family="Helvetica,sans-Serif" font-size="10.00">::sendCommand</text>
</a>
</g>
</g>
<!-- Node9&#45;&gt;Node10 -->
<g id="edge11_Node000009_Node000010" class="edge">
<title>Node9&#45;&gt;Node10</title>
<g id="a_edge11_Node000009_Node000010"><a xlink:title=" ">
<path fill="none" stroke="#63b8ff" d="M864.78,-171.81C942.39,-168.2 1066.16,-167.28 1101.75,-195 1203.48,-274.23 1213.74,-447.25 1213.7,-514.5"/>
<polygon fill="#63b8ff" stroke="#63b8ff" points="1210.2,-514.23 1213.6,-524.26 1217.2,-514.3 1210.2,-514.23"/>
</a>
</g>
</g>
<!-- Node14 -->
<g id="Node000014" class="node">
<title>Node14</title>
<g id="a_Node000014"><a xlink:href="../../d5/d72/classLSM1x0A__LoRaWAN.html#a3fdd1ac318a5ad2559323e5d57e36a5e" target="_top" xlink:title="Enables or disables specific sub&#45;bands for regions supporting Channel Masks (e.g.,...">
<polygon fill="white" stroke="#666666" points="1099.88,-224 909.88,-224 909.88,-204 1099.88,-204 1099.88,-224"/>
<text text-anchor="middle" x="1004.88" y="-210.5" font-family="Helvetica,sans-Serif" font-size="10.00">LSM1x0A_LoRaWAN::setChannelMask</text>
</a>
</g>
</g>
<!-- Node9&#45;&gt;Node14 -->
<g id="edge16_Node000009_Node000014" class="edge">
<title>Node9&#45;&gt;Node14</title>
<g id="a_edge16_Node000009_Node000014"><a xlink:title=" ">
<path fill="none" stroke="#63b8ff" d="M856.07,-186.48C880.94,-191.12 910.39,-196.6 936.43,-201.44"/>
<polygon fill="#63b8ff" stroke="#63b8ff" points="935.78,-204.88 946.25,-203.27 937.06,-198 935.78,-204.88"/>
</a>
</g>
</g>
<!-- Node15 -->
<g id="Node000015" class="node">
<title>Node15</title>
<g id="a_Node000015"><a xlink:href="../../d8/d92/classLSM1x0A__Controller.html#a62476e30e50c7fe120aeb8df4b828675" target="_top" xlink:title="Synchronously/blockingly waits for an asynchronous event to occur. Useful for wrapping commands like ...">
<polygon fill="white" stroke="#666666" points="1057.88,-148 951.88,-148 951.88,-116 1057.88,-116 1057.88,-148"/>
<text text-anchor="start" x="959.88" y="-134.5" font-family="Helvetica,sans-Serif" font-size="10.00">LSM1x0A_Controller</text>
<text text-anchor="middle" x="1004.88" y="-122.5" font-family="Helvetica,sans-Serif" font-size="10.00">::waitForEvent</text>
</a>
</g>
</g>
<!-- Node9&#45;&gt;Node15 -->
<g id="edge19_Node000009_Node000015" class="edge">
<title>Node9&#45;&gt;Node15</title>
<g id="a_edge19_Node000009_Node000015"><a xlink:title=" ">
<path fill="none" stroke="#63b8ff" d="M848.38,-165.52C875.99,-159.57 910.86,-152.05 940.57,-145.65"/>
<polygon fill="#63b8ff" stroke="#63b8ff" points="941.17,-149.1 950.2,-143.57 939.69,-142.25 941.17,-149.1"/>
</a>
</g>
</g>
<!-- Node10&#45;&gt;Node3 -->
<g id="edge12_Node000010_Node000003" class="edge">
<title>Node10&#45;&gt;Node3</title>
<g id="a_edge12_Node000010_Node000003"><a xlink:title=" ">
<path fill="none" stroke="#63b8ff" d="M1206.57,-558.31C1192.81,-593.61 1159.91,-679.91 1137.75,-754 1118.48,-818.44 1154.67,-859.48 1101.75,-901 1034,-954.16 984.44,-940.65 908,-901 620.68,-751.97 482.72,-335.66 450.52,-225.19"/>
<polygon fill="#63b8ff" stroke="#63b8ff" points="453.95,-224.47 447.83,-215.82 447.22,-226.4 453.95,-224.47"/>
</a>
</g>
</g>
<!-- Node11 -->
<g id="Node000011" class="node">
<title>Node11</title>
<g id="a_Node000011"><a xlink:href="../../d6/d3c/classLSM1x0A__AtParser.html#a29b53c521974387ba6c03afadfaffa4a" target="_top" xlink:title="Sends a simple command and waits for OK/ERROR. Example: sendCommand(&quot;AT+JOIN&quot;);.">
<polygon fill="white" stroke="#666666" points="1500.5,-552 1326.25,-552 1326.25,-532 1500.5,-532 1500.5,-552"/>
<text text-anchor="middle" x="1413.38" y="-538.5" font-family="Helvetica,sans-Serif" font-size="10.00">LSM1x0A_AtParser::sendCommand</text>
</a>
</g>
</g>
<!-- Node10&#45;&gt;Node11 -->
<g id="edge13_Node000010_Node000011" class="edge">
<title>Node10&#45;&gt;Node11</title>
<g id="a_edge13_Node000010_Node000011"><a xlink:title=" ">
<path fill="none" stroke="#63b8ff" d="M1267.37,-542C1281.94,-542 1298.25,-542 1314.53,-542"/>
<polygon fill="#63b8ff" stroke="#63b8ff" points="1314.26,-545.5 1324.26,-542 1314.26,-538.5 1314.26,-545.5"/>
</a>
</g>
</g>
<!-- Node11&#45;&gt;Node12 -->
<g id="edge14_Node000011_Node000012" class="edge">
<title>Node11&#45;&gt;Node12</title>
<g id="a_edge14_Node000011_Node000012"><a xlink:title=" ">
<path fill="none" stroke="#63b8ff" d="M1422.28,-531.71C1452.19,-492.78 1558.93,-353.88 1603.19,-296.3"/>
<polygon fill="#63b8ff" stroke="#63b8ff" points="1605.73,-298.73 1609.05,-288.67 1600.18,-294.46 1605.73,-298.73"/>
</a>
</g>
</g>
<!-- Node13 -->
<g id="Node000013" class="node">
<title>Node13</title>
<g id="a_Node000013"><a xlink:href="../../d5/d8b/classUartDriver.html#a5d0f22e8867eebe99273078bb19bd23d" target="_top" xlink:title="Sends data through UART.">
<polygon fill="white" stroke="#666666" points="1855.75,-281 1746.75,-281 1746.75,-261 1855.75,-261 1855.75,-281"/>
<text text-anchor="middle" x="1801.25" y="-267.5" font-family="Helvetica,sans-Serif" font-size="10.00">UartDriver::sendData</text>
</a>
</g>
</g>
<!-- Node12&#45;&gt;Node13 -->
<g id="edge15_Node000012_Node000013" class="edge">
<title>Node12&#45;&gt;Node13</title>
<g id="a_edge15_Node000012_Node000013"><a xlink:title=" ">
<path fill="none" stroke="#63b8ff" d="M1711.15,-271C1719.3,-271 1727.45,-271 1735.35,-271"/>
<polygon fill="#63b8ff" stroke="#63b8ff" points="1735.18,-274.5 1745.18,-271 1735.18,-267.5 1735.18,-274.5"/>
</a>
</g>
</g>
<!-- Node14&#45;&gt;Node7 -->
<g id="edge17_Node000014_Node000007" class="edge">
<title>Node14&#45;&gt;Node7</title>
<g id="a_edge17_Node000014_Node000007"><a xlink:title=" ">
<path fill="none" stroke="#63b8ff" d="M1030.45,-203.56C1067.04,-188.01 1136.03,-158.7 1177.92,-140.9"/>
<polygon fill="#63b8ff" stroke="#63b8ff" points="1179.23,-144.15 1187.07,-137.02 1176.49,-137.71 1179.23,-144.15"/>
</a>
</g>
</g>
<!-- Node14&#45;&gt;Node10 -->
<g id="edge18_Node000014_Node000010" class="edge">
<title>Node14&#45;&gt;Node10</title>
<g id="a_edge18_Node000014_Node000010"><a xlink:title=" ">
<path fill="none" stroke="#63b8ff" d="M1088.63,-224.28C1093.33,-226.69 1097.76,-229.57 1101.75,-233 1188.08,-307.27 1207.42,-453.75 1211.75,-514.55"/>
<polygon fill="#63b8ff" stroke="#63b8ff" points="1208.25,-514.57 1212.36,-524.33 1215.23,-514.13 1208.25,-514.57"/>
</a>
</g>
</g>
<!-- Node16&#45;&gt;Node14 -->
<g id="edge25_Node000016_Node000014" class="edge">
<title>Node16&#45;&gt;Node14</title>
<g id="a_edge25_Node000016_Node000014"><a xlink:title=" ">
<path fill="none" stroke="#63b8ff" d="M800.55,-506.78C803.93,-457.25 821.2,-306.79 908,-233 909.13,-232.04 910.29,-231.13 911.48,-230.25"/>
<polygon fill="#63b8ff" stroke="#63b8ff" points="913.17,-233.33 919.87,-225.12 909.52,-227.35 913.17,-233.33"/>
</a>
</g>
</g>
<!-- Node17 -->
<g id="Node000017" class="node">
<title>Node17</title>
<g id="a_Node000017"><a xlink:href="../../d5/d72/classLSM1x0A__LoRaWAN.html#af0baa3db4c7fab580d6b19a9e92472f6" target="_top" xlink:title="Enables or disables Adaptive Data Rate (ADR).">
<polygon fill="white" stroke="#666666" points="1080.75,-350 929,-350 929,-330 1080.75,-330 1080.75,-350"/>
<text text-anchor="middle" x="1004.88" y="-336.5" font-family="Helvetica,sans-Serif" font-size="10.00">LSM1x0A_LoRaWAN::setADR</text>
</a>
</g>
</g>
<!-- Node16&#45;&gt;Node17 -->
<g id="edge21_Node000016_Node000017" class="edge">
<title>Node16&#45;&gt;Node17</title>
<g id="a_edge21_Node000016_Node000017"><a xlink:title=" ">
<path fill="none" stroke="#63b8ff" d="M805.56,-506.6C818.35,-473 852.35,-396.38 908,-359 911.27,-356.8 914.73,-354.85 918.33,-353.11"/>
<polygon fill="#63b8ff" stroke="#63b8ff" points="919.48,-356.42 927.37,-349.35 916.79,-349.96 919.48,-356.42"/>
</a>
</g>
</g>
<!-- Node18 -->
<g id="Node000018" class="node">
<title>Node18</title>
<g id="a_Node000018"><a xlink:href="../../d5/d72/classLSM1x0A__LoRaWAN.html#a5365ed1596eb84ebf1e3b33b4a10c788" target="_top" xlink:title="Sets the LoRaWAN operational frequency band.">
<polygon fill="white" stroke="#666666" points="1081.12,-312 928.62,-312 928.62,-292 1081.12,-292 1081.12,-312"/>
<text text-anchor="middle" x="1004.88" y="-298.5" font-family="Helvetica,sans-Serif" font-size="10.00">LSM1x0A_LoRaWAN::setBand</text>
</a>
</g>
</g>
<!-- Node16&#45;&gt;Node18 -->
<g id="edge23_Node000016_Node000018" class="edge">
<title>Node16&#45;&gt;Node18</title>
<g id="a_edge23_Node000016_Node000018"><a xlink:title=" ">
<path fill="none" stroke="#63b8ff" d="M803.47,-506.5C813.2,-467.43 843.24,-368.94 908,-321 911.16,-318.66 914.54,-316.58 918.07,-314.75"/>
<polygon fill="#63b8ff" stroke="#63b8ff" points="919.25,-318.05 926.97,-310.8 916.41,-311.66 919.25,-318.05"/>
</a>
</g>
</g>
<!-- Node19 -->
<g id="Node000019" class="node">
<title>Node19</title>
<g id="a_Node000019"><a xlink:href="../../d5/d72/classLSM1x0A__LoRaWAN.html#a9d9285c43414337a0ccb3a6cd7ca06e6" target="_top" xlink:title="Configures the number of retries for Confirmed uplinks.">
<polygon fill="white" stroke="#666666" points="1087.12,-274 922.62,-274 922.62,-242 1087.12,-242 1087.12,-274"/>
<text text-anchor="start" x="930.62" y="-260.5" font-family="Helvetica,sans-Serif" font-size="10.00">LSM1x0A_LoRaWAN::setConfirm</text>
<text text-anchor="middle" x="1004.88" y="-248.5" font-family="Helvetica,sans-Serif" font-size="10.00">Retry</text>
</a>
</g>
</g>
<!-- Node16&#45;&gt;Node19 -->
<g id="edge26_Node000016_Node000019" class="edge">
<title>Node16&#45;&gt;Node19</title>
<g id="a_edge26_Node000016_Node000019"><a xlink:title=" ">
<path fill="none" stroke="#63b8ff" d="M802.18,-506.7C809.55,-463.28 835.7,-344.03 908,-283 909.49,-281.74 911.04,-280.55 912.63,-279.41"/>
<polygon fill="#63b8ff" stroke="#63b8ff" points="914.25,-282.52 920.95,-274.32 910.6,-276.55 914.25,-282.52"/>
</a>
</g>
</g>
<!-- Node20 -->
<g id="Node000020" class="node">
<title>Node20</title>
<g id="a_Node000020"><a xlink:href="../../d5/d72/classLSM1x0A__LoRaWAN.html#a56345ceeafa0b9059d6de4e69eddc82e" target="_top" xlink:title="Sets the Data Rate (DR) of the module.">
<polygon fill="white" stroke="#666666" points="1090.88,-892 918.88,-892 918.88,-872 1090.88,-872 1090.88,-892"/>
<text text-anchor="middle" x="1004.88" y="-878.5" font-family="Helvetica,sans-Serif" font-size="10.00">LSM1x0A_LoRaWAN::setDataRate</text>
</a>
</g>
</g>
<!-- Node16&#45;&gt;Node20 -->
<g id="edge28_Node000016_Node000020" class="edge">
<title>Node16&#45;&gt;Node20</title>
<g id="a_edge28_Node000016_Node000020"><a xlink:title=" ">
<path fill="none" stroke="#63b8ff" d="M799.55,-539.16C799.79,-593.93 808.44,-774.06 908,-863 908.95,-863.85 909.92,-864.66 910.92,-865.44"/>
<polygon fill="#63b8ff" stroke="#63b8ff" points="908.95,-868.34 919.25,-870.83 912.75,-862.46 908.95,-868.34"/>
</a>
</g>
</g>
<!-- Node21 -->
<g id="Node000021" class="node">
<title>Node21</title>
<g id="a_Node000021"><a xlink:href="../../d5/d72/classLSM1x0A__LoRaWAN.html#a8494083816ab885cb07fc3b08de029f4" target="_top" xlink:title="Sets the LoRaWAN Device Address (DevAddr) for ABP mode.">
<polygon fill="white" stroke="#666666" points="1089,-854 920.75,-854 920.75,-834 1089,-834 1089,-854"/>
<text text-anchor="middle" x="1004.88" y="-840.5" font-family="Helvetica,sans-Serif" font-size="10.00">LSM1x0A_LoRaWAN::setDevAddr</text>
</a>
</g>
</g>
<!-- Node16&#45;&gt;Node21 -->
<g id="edge30_Node000016_Node000021" class="edge">
<title>Node16&#45;&gt;Node21</title>
<g id="a_edge30_Node000016_Node000021"><a xlink:title=" ">
<path fill="none" stroke="#63b8ff" d="M800.28,-539.15C802.87,-589.92 818.12,-747.57 908,-825 909.12,-825.97 910.28,-826.89 911.46,-827.77"/>
<polygon fill="#63b8ff" stroke="#63b8ff" points="909.48,-830.65 919.82,-832.93 913.15,-824.7 909.48,-830.65"/>
</a>
</g>
</g>
<!-- Node22 -->
<g id="Node000022" class="node">
<title>Node22</title>
<g id="a_Node000022"><a xlink:href="../../d5/d72/classLSM1x0A__LoRaWAN.html#ad320634e52d7ea907043cc50dd37c5b0" target="_top" xlink:title="Sets the LoRaWAN Device EUI (DevEUI).">
<polygon fill="white" stroke="#666666" points="1087.5,-816 922.25,-816 922.25,-796 1087.5,-796 1087.5,-816"/>
<text text-anchor="middle" x="1004.88" y="-802.5" font-family="Helvetica,sans-Serif" font-size="10.00">LSM1x0A_LoRaWAN::setDevEUI</text>
</a>
</g>
</g>
<!-- Node16&#45;&gt;Node22 -->
<g id="edge32_Node000016_Node000022" class="edge">
<title>Node16&#45;&gt;Node22</title>
<g id="a_edge32_Node000016_Node000022"><a xlink:title=" ">
<path fill="none" stroke="#63b8ff" d="M801.24,-539.44C806.39,-586.24 827.87,-721.05 908,-787 909.49,-788.22 911.03,-789.38 912.62,-790.46"/>
<polygon fill="#63b8ff" stroke="#63b8ff" points="910.48,-793.27 920.9,-795.21 913.97,-787.2 910.48,-793.27"/>
</a>
</g>
</g>
<!-- Node23 -->
<g id="Node000023" class="node">
<title>Node23</title>
<g id="a_Node000023"><a xlink:href="../../d5/d72/classLSM1x0A__LoRaWAN.html#a031023b0d2dd5db3c51c2db6ae7801cc" target="_top" xlink:title="Enables or disables the Duty Cycle limitation (EU regions mostly).">
<polygon fill="white" stroke="#666666" points="1080.38,-778 929.38,-778 929.38,-746 1080.38,-746 1080.38,-778"/>
<text text-anchor="start" x="937.38" y="-764.5" font-family="Helvetica,sans-Serif" font-size="10.00">LSM1x0A_LoRaWAN::setDuty</text>
<text text-anchor="middle" x="1004.88" y="-752.5" font-family="Helvetica,sans-Serif" font-size="10.00">Cycle</text>
</a>
</g>
</g>
<!-- Node16&#45;&gt;Node23 -->
<g id="edge34_Node000016_Node000023" class="edge">
<title>Node16&#45;&gt;Node23</title>
<g id="a_edge34_Node000016_Node000023"><a xlink:title=" ">
<path fill="none" stroke="#63b8ff" d="M803.15,-539.3C812.4,-579.44 841.89,-683.67 908,-737 911.44,-739.78 915.16,-742.25 919.06,-744.44"/>
<polygon fill="#63b8ff" stroke="#63b8ff" points="917.21,-747.44 927.73,-748.7 920.3,-741.15 917.21,-747.44"/>
</a>
</g>
</g>
<!-- Node24 -->
<g id="Node000024" class="node">
<title>Node24</title>
<g id="a_Node000024"><a xlink:href="../../d5/d72/classLSM1x0A__LoRaWAN.html#a6b179d5825c49af0f391dfc539912f64" target="_top" xlink:title="Sets the delay for the Join1 receive window.">
<polygon fill="white" stroke="#666666" points="1081.5,-728 928.25,-728 928.25,-696 1081.5,-696 1081.5,-728"/>
<text text-anchor="start" x="936.25" y="-714.5" font-family="Helvetica,sans-Serif" font-size="10.00">LSM1x0A_LoRaWAN::setJoin1</text>
<text text-anchor="middle" x="1004.88" y="-702.5" font-family="Helvetica,sans-Serif" font-size="10.00">Delay</text>
</a>
</g>
</g>
<!-- Node16&#45;&gt;Node24 -->
<g id="edge36_Node000016_Node000024" class="edge">
<title>Node16&#45;&gt;Node24</title>
<g id="a_edge36_Node000016_Node000024"><a xlink:title=" ">
<path fill="none" stroke="#63b8ff" d="M805.84,-539.39C819.06,-572.62 853.63,-648.08 908,-687 911.17,-689.27 914.54,-691.34 918.03,-693.21"/>
<polygon fill="#63b8ff" stroke="#63b8ff" points="916.28,-696.26 926.82,-697.38 919.28,-689.93 916.28,-696.26"/>
</a>
</g>
</g>
<!-- Node25 -->
<g id="Node000025" class="node">
<title>Node25</title>
<g id="a_Node000025"><a xlink:href="../../d5/d72/classLSM1x0A__LoRaWAN.html#a4545d0caad41558cdb9bae8286b104d8" target="_top" xlink:title="Sets the delay for the Join2 receive window.">
<polygon fill="white" stroke="#666666" points="1081.5,-678 928.25,-678 928.25,-646 1081.5,-646 1081.5,-678"/>
<text text-anchor="start" x="936.25" y="-664.5" font-family="Helvetica,sans-Serif" font-size="10.00">LSM1x0A_LoRaWAN::setJoin2</text>
<text text-anchor="middle" x="1004.88" y="-652.5" font-family="Helvetica,sans-Serif" font-size="10.00">Delay</text>
</a>
</g>
</g>
<!-- Node16&#45;&gt;Node25 -->
<g id="edge38_Node000016_Node000025" class="edge">
<title>Node16&#45;&gt;Node25</title>
<g id="a_edge38_Node000016_Node000025"><a xlink:title=" ">
<path fill="none" stroke="#63b8ff" d="M810.64,-539.33C828.15,-564.27 864.99,-611.61 908,-637 911.01,-638.78 914.15,-640.43 917.38,-641.97"/>
<polygon fill="#63b8ff" stroke="#63b8ff" points="915.98,-645.18 926.55,-645.9 918.74,-638.74 915.98,-645.18"/>
</a>
</g>
</g>
<!-- Node26 -->
<g id="Node000026" class="node">
<title>Node26</title>
<g id="a_Node000026"><a xlink:href="../../d5/d72/classLSM1x0A__LoRaWAN.html#a06bd50723ec1eb7e144c9141b2ec86fc" target="_top" xlink:title="Sets the LoRaWAN Network ID (NetID).">
<polygon fill="white" stroke="#666666" points="1085.25,-628 924.5,-628 924.5,-608 1085.25,-608 1085.25,-628"/>
<text text-anchor="middle" x="1004.88" y="-614.5" font-family="Helvetica,sans-Serif" font-size="10.00">LSM1x0A_LoRaWAN::setNwkID</text>
</a>
</g>
</g>
<!-- Node16&#45;&gt;Node26 -->
<g id="edge40_Node000016_Node000026" class="edge">
<title>Node16&#45;&gt;Node26</title>
<g id="a_edge40_Node000016_Node000026"><a xlink:title=" ">
<path fill="none" stroke="#63b8ff" d="M817.85,-539.34C838.26,-556.84 873.16,-584.11 908,-599 912.6,-600.97 917.41,-602.73 922.33,-604.32"/>
<polygon fill="#63b8ff" stroke="#63b8ff" points="921.17,-607.63 931.76,-607.08 923.14,-600.91 921.17,-607.63"/>
</a>
</g>
</g>
<!-- Node27 -->
<g id="Node000027" class="node">
<title>Node27</title>
<g id="a_Node000027"><a xlink:href="../../d5/d72/classLSM1x0A__LoRaWAN.html#aa70ada64d28ecca216bb62268e502adf" target="_top" xlink:title="Sets the delay for the RX1 receive window.">
<polygon fill="white" stroke="#666666" points="1091.62,-590 918.12,-590 918.12,-570 1091.62,-570 1091.62,-590"/>
<text text-anchor="middle" x="1004.88" y="-576.5" font-family="Helvetica,sans-Serif" font-size="10.00">LSM1x0A_LoRaWAN::setRx1Delay</text>
</a>
</g>
</g>
<!-- Node16&#45;&gt;Node27 -->
<g id="edge42_Node000016_Node000027" class="edge">
<title>Node16&#45;&gt;Node27</title>
<g id="a_edge42_Node000016_Node000027"><a xlink:title=" ">
<path fill="none" stroke="#63b8ff" d="M842.24,-539.49C862.02,-546.76 886,-554.99 908,-561 916.08,-563.21 924.61,-565.27 933.12,-567.16"/>
<polygon fill="#63b8ff" stroke="#63b8ff" points="932.25,-570.55 942.76,-569.23 933.72,-563.71 932.25,-570.55"/>
</a>
</g>
</g>
<!-- Node28 -->
<g id="Node000028" class="node">
<title>Node28</title>
<g id="a_Node000028"><a xlink:href="../../d5/d72/classLSM1x0A__LoRaWAN.html#a2cf4eff0181b6107d082bccefa24217b" target="_top" xlink:title="Sets the Data Rate (DR) specifically for the RX2 window.">
<polygon fill="white" stroke="#666666" points="1099.88,-552 909.88,-552 909.88,-532 1099.88,-532 1099.88,-552"/>
<text text-anchor="middle" x="1004.88" y="-538.5" font-family="Helvetica,sans-Serif" font-size="10.00">LSM1x0A_LoRaWAN::setRx2DataRate</text>
</a>
</g>
</g>
<!-- Node16&#45;&gt;Node28 -->
<g id="edge44_Node000016_Node000028" class="edge">
<title>Node16&#45;&gt;Node28</title>
<g id="a_edge44_Node000016_Node000028"><a xlink:title=" ">
<path fill="none" stroke="#63b8ff" d="M872.29,-529.75C880.66,-530.53 889.31,-531.34 898.01,-532.15"/>
<polygon fill="#63b8ff" stroke="#63b8ff" points="897.64,-535.63 907.93,-533.07 898.29,-528.66 897.64,-535.63"/>
</a>
</g>
</g>
<!-- Node29 -->
<g id="Node000029" class="node">
<title>Node29</title>
<g id="a_Node000029"><a xlink:href="../../d5/d72/classLSM1x0A__LoRaWAN.html#a42d2137b475b57e19d891a5f1ac93221" target="_top" xlink:title="Sets the delay for the RX2 receive window.">
<polygon fill="white" stroke="#666666" points="1091.62,-514 918.12,-514 918.12,-494 1091.62,-494 1091.62,-514"/>
<text text-anchor="middle" x="1004.88" y="-500.5" font-family="Helvetica,sans-Serif" font-size="10.00">LSM1x0A_LoRaWAN::setRx2Delay</text>
</a>
</g>
</g>
<!-- Node16&#45;&gt;Node29 -->
<g id="edge46_Node000016_Node000029" class="edge">
<title>Node16&#45;&gt;Node29</title>
<g id="a_edge46_Node000016_Node000029"><a xlink:title=" ">
<path fill="none" stroke="#63b8ff" d="M872.29,-516.25C883.49,-515.21 895.22,-514.11 906.85,-513.03"/>
<polygon fill="#63b8ff" stroke="#63b8ff" points="906.82,-516.55 916.45,-512.14 906.17,-509.58 906.82,-516.55"/>
</a>
</g>
</g>
<!-- Node30 -->
<g id="Node000030" class="node">
<title>Node30</title>
<g id="a_Node000030"><a xlink:href="../../d5/d72/classLSM1x0A__LoRaWAN.html#a689f7dfda1dfeae11ea397c2ddf2ad37" target="_top" xlink:title="Sets the precise frequency for the RX2 window.">
<polygon fill="white" stroke="#666666" points="1101.75,-476 908,-476 908,-456 1101.75,-456 1101.75,-476"/>
<text text-anchor="middle" x="1004.88" y="-462.5" font-family="Helvetica,sans-Serif" font-size="10.00">LSM1x0A_LoRaWAN::setRx2Frequency</text>
</a>
</g>
</g>
<!-- Node16&#45;&gt;Node30 -->
<g id="edge48_Node000016_Node000030" class="edge">
<title>Node16&#45;&gt;Node30</title>
<g id="a_edge48_Node000016_Node000030"><a xlink:title=" ">
<path fill="none" stroke="#63b8ff" d="M842.24,-506.51C862.02,-499.24 886,-491.01 908,-485 916.08,-482.79 924.61,-480.73 933.12,-478.84"/>
<polygon fill="#63b8ff" stroke="#63b8ff" points="933.72,-482.29 942.76,-476.77 932.25,-475.45 933.72,-482.29"/>
</a>
</g>
</g>
<!-- Node31 -->
<g id="Node000031" class="node">
<title>Node31</title>
<g id="a_Node000031"><a xlink:href="../../d5/d72/classLSM1x0A__LoRaWAN.html#a1df10d7ae6bf45b537d28d3d5c4b88d7" target="_top" xlink:title="Sets the transmission power index.">
<polygon fill="white" stroke="#666666" points="1089.38,-438 920.38,-438 920.38,-418 1089.38,-418 1089.38,-438"/>
<text text-anchor="middle" x="1004.88" y="-424.5" font-family="Helvetica,sans-Serif" font-size="10.00">LSM1x0A_LoRaWAN::setTxPower</text>
</a>
</g>
</g>
<!-- Node16&#45;&gt;Node31 -->
<g id="edge50_Node000016_Node000031" class="edge">
<title>Node16&#45;&gt;Node31</title>
<g id="a_edge50_Node000016_Node000031"><a xlink:title=" ">
<path fill="none" stroke="#63b8ff" d="M817.85,-506.66C838.26,-489.16 873.16,-461.89 908,-447 912.6,-445.03 917.41,-443.27 922.33,-441.68"/>
<polygon fill="#63b8ff" stroke="#63b8ff" points="923.14,-445.09 931.76,-438.92 921.17,-438.37 923.14,-445.09"/>
</a>
</g>
</g>
<!-- Node32 -->
<g id="Node000032" class="node">
<title>Node32</title>
<g id="a_Node000032"><a xlink:href="../../d5/d72/classLSM1x0A__LoRaWAN.html#a059fd6a9356c4ecadd5a98294da5952d" target="_top" xlink:title="Configures the number of repetitions for Unconfirmed uplinks.">
<polygon fill="white" stroke="#666666" points="1092.38,-400 917.38,-400 917.38,-368 1092.38,-368 1092.38,-400"/>
<text text-anchor="start" x="925.38" y="-386.5" font-family="Helvetica,sans-Serif" font-size="10.00">LSM1x0A_LoRaWAN::setUnconfirm</text>
<text text-anchor="middle" x="1004.88" y="-374.5" font-family="Helvetica,sans-Serif" font-size="10.00">Retry</text>
</a>
</g>
</g>
<!-- Node16&#45;&gt;Node32 -->
<g id="edge52_Node000016_Node000032" class="edge">
<title>Node16&#45;&gt;Node32</title>
<g id="a_edge52_Node000016_Node000032"><a xlink:title=" ">
<path fill="none" stroke="#63b8ff" d="M810.64,-506.67C828.15,-481.73 864.99,-434.39 908,-409 910.31,-407.64 912.7,-406.34 915.14,-405.12"/>
<polygon fill="#63b8ff" stroke="#63b8ff" points="916.4,-408.4 924.08,-401.1 913.53,-402.01 916.4,-408.4"/>
</a>
</g>
</g>
<!-- Node17&#45;&gt;Node10 -->
<g id="edge22_Node000017_Node000010" class="edge">
<title>Node17&#45;&gt;Node10</title>
<g id="a_edge22_Node000017_Node000010"><a xlink:title=" ">
<path fill="none" stroke="#63b8ff" d="M1081.15,-348.53C1088.47,-351.2 1095.49,-354.62 1101.75,-359 1157.34,-397.86 1190.19,-474.26 1204.49,-514.97"/>
<polygon fill="#63b8ff" stroke="#63b8ff" points="1201.11,-515.89 1207.62,-524.24 1207.74,-513.65 1201.11,-515.89"/>
</a>
</g>
</g>
<!-- Node18&#45;&gt;Node10 -->
<g id="edge24_Node000018_Node000010" class="edge">
<title>Node18&#45;&gt;Node10</title>
<g id="a_edge24_Node000018_Node000010"><a xlink:title=" ">
<path fill="none" stroke="#63b8ff" d="M1081.52,-310.03C1088.77,-312.79 1095.67,-316.38 1101.75,-321 1166.37,-370.13 1196.21,-467.16 1207.41,-514.6"/>
<polygon fill="#63b8ff" stroke="#63b8ff" points="1203.92,-515.06 1209.53,-524.05 1210.75,-513.53 1203.92,-515.06"/>
</a>
</g>
</g>
<!-- Node19&#45;&gt;Node10 -->
<g id="edge27_Node000019_Node000010" class="edge">
<title>Node19&#45;&gt;Node10</title>
<g id="a_edge27_Node000019_Node000010"><a xlink:title=" ">
<path fill="none" stroke="#63b8ff" d="M1087.58,-273.44C1092.66,-276.14 1097.45,-279.3 1101.75,-283 1173.7,-344.86 1200.48,-461.59 1209.24,-514.59"/>
<polygon fill="#63b8ff" stroke="#63b8ff" points="1205.75,-514.92 1210.74,-524.26 1212.67,-513.84 1205.75,-514.92"/>
</a>
</g>
</g>
<!-- Node20&#45;&gt;Node10 -->
<g id="edge29_Node000020_Node000010" class="edge">
<title>Node20&#45;&gt;Node10</title>
<g id="a_edge29_Node000020_Node000010"><a xlink:title=" ">
<path fill="none" stroke="#63b8ff" d="M1089.19,-871.6C1093.7,-869.21 1097.94,-866.37 1101.75,-863 1139.98,-829.22 1121.22,-802.26 1137.75,-754 1160.56,-687.42 1188.55,-609.52 1203.12,-569.23"/>
<polygon fill="#63b8ff" stroke="#63b8ff" points="1206.39,-570.47 1206.51,-559.87 1199.81,-568.08 1206.39,-570.47"/>
</a>
</g>
</g>
<!-- Node21&#45;&gt;Node10 -->
<g id="edge31_Node000021_Node000010" class="edge">
<title>Node21&#45;&gt;Node10</title>
<g id="a_edge31_Node000021_Node000010"><a xlink:title=" ">
<path fill="none" stroke="#63b8ff" d="M1088.52,-833.58C1093.25,-831.21 1097.71,-828.37 1101.75,-825 1122.53,-807.64 1181.44,-636.39 1204.03,-569.02"/>
<polygon fill="#63b8ff" stroke="#63b8ff" points="1207.24,-570.45 1207.09,-559.86 1200.6,-568.24 1207.24,-570.45"/>
</a>
</g>
</g>
<!-- Node22&#45;&gt;Node10 -->
<g id="edge33_Node000022_Node000010" class="edge">
<title>Node22&#45;&gt;Node10</title>
<g id="a_edge33_Node000022_Node000010"><a xlink:title=" ">
<path fill="none" stroke="#63b8ff" d="M1087.86,-795.56C1092.8,-793.2 1097.49,-790.37 1101.75,-787 1172.25,-731.13 1199.64,-620.69 1208.88,-569.39"/>
<polygon fill="#63b8ff" stroke="#63b8ff" points="1212.29,-570.18 1210.51,-559.74 1205.39,-569.01 1212.29,-570.18"/>
</a>
</g>
</g>
<!-- Node23&#45;&gt;Node10 -->
<g id="edge35_Node000023_Node000010" class="edge">
<title>Node23&#45;&gt;Node10</title>
<g id="a_edge35_Node000023_Node000010"><a xlink:title=" ">
<path fill="none" stroke="#63b8ff" d="M1080.41,-749.05C1088.04,-745.87 1095.33,-741.92 1101.75,-737 1158.74,-693.34 1191.31,-611.57 1205.1,-569.12"/>
<polygon fill="#63b8ff" stroke="#63b8ff" points="1208.4,-570.29 1208.05,-559.7 1201.72,-568.2 1208.4,-570.29"/>
</a>
</g>
</g>
<!-- Node24&#45;&gt;Node10 -->
<g id="edge37_Node000024_Node000010" class="edge">
<title>Node24&#45;&gt;Node10</title>
<g id="a_edge37_Node000024_Node000010"><a xlink:title=" ">
<path fill="none" stroke="#63b8ff" d="M1081.74,-697.37C1088.79,-694.51 1095.59,-691.09 1101.75,-687 1147.56,-656.61 1182.32,-600.94 1200,-568.13"/>
<polygon fill="#63b8ff" stroke="#63b8ff" points="1202.89,-570.16 1204.43,-559.68 1196.69,-566.91 1202.89,-570.16"/>
</a>
</g>
</g>
<!-- Node25&#45;&gt;Node10 -->
<g id="edge39_Node000025_Node000010" class="edge">
<title>Node25&#45;&gt;Node10</title>
<g id="a_edge39_Node000025_Node000010"><a xlink:title=" ">
<path fill="none" stroke="#63b8ff" d="M1081.93,-645.62C1088.79,-643.12 1095.5,-640.26 1101.75,-637 1136.54,-618.85 1169.85,-588.01 1190.81,-566.4"/>
<polygon fill="#63b8ff" stroke="#63b8ff" points="1193.08,-569.1 1197.43,-559.44 1188,-564.27 1193.08,-569.1"/>
</a>
</g>
</g>
<!-- Node26&#45;&gt;Node10 -->
<g id="edge41_Node000026_Node000010" class="edge">
<title>Node26&#45;&gt;Node10</title>
<g id="a_edge41_Node000026_Node000010"><a xlink:title=" ">
<path fill="none" stroke="#63b8ff" d="M1071.51,-607.52C1081.76,-605.16 1092.13,-602.34 1101.75,-599 1127.82,-589.94 1155.45,-575.81 1176.65,-563.89"/>
<polygon fill="#63b8ff" stroke="#63b8ff" points="1178.25,-567 1185.19,-559 1174.77,-560.93 1178.25,-567"/>
</a>
</g>
</g>
<!-- Node27&#45;&gt;Node10 -->
<g id="edge43_Node000027_Node000010" class="edge">
<title>Node27&#45;&gt;Node10</title>
<g id="a_edge43_Node000027_Node000010"><a xlink:title=" ">
<path fill="none" stroke="#63b8ff" d="M1063.02,-569.52C1089.86,-564.59 1121.94,-558.71 1149.53,-553.64"/>
<polygon fill="#63b8ff" stroke="#63b8ff" points="1149.96,-557.12 1159.16,-551.88 1148.69,-550.24 1149.96,-557.12"/>
</a>
</g>
</g>
<!-- Node28&#45;&gt;Node10 -->
<g id="edge45_Node000028_Node000010" class="edge">
<title>Node28&#45;&gt;Node10</title>
<g id="a_edge45_Node000028_Node000010"><a xlink:title=" ">
<path fill="none" stroke="#63b8ff" d="M1100.35,-542C1116.84,-542 1133.64,-542 1149.07,-542"/>
<polygon fill="#63b8ff" stroke="#63b8ff" points="1149.05,-545.5 1159.05,-542 1149.05,-538.5 1149.05,-545.5"/>
</a>
</g>
</g>
<!-- Node29&#45;&gt;Node10 -->
<g id="edge47_Node000029_Node000010" class="edge">
<title>Node29&#45;&gt;Node10</title>
<g id="a_edge47_Node000029_Node000010"><a xlink:title=" ">
<path fill="none" stroke="#63b8ff" d="M1063.02,-514.48C1089.86,-519.41 1121.94,-525.29 1149.53,-530.36"/>
<polygon fill="#63b8ff" stroke="#63b8ff" points="1148.69,-533.76 1159.16,-532.12 1149.96,-526.88 1148.69,-533.76"/>
</a>
</g>
</g>
<!-- Node30&#45;&gt;Node10 -->
<g id="edge49_Node000030_Node000010" class="edge">
<title>Node30&#45;&gt;Node10</title>
<g id="a_edge49_Node000030_Node000010"><a xlink:title=" ">
<path fill="none" stroke="#63b8ff" d="M1071.51,-476.48C1081.76,-478.84 1092.13,-481.66 1101.75,-485 1127.82,-494.06 1155.45,-508.19 1176.65,-520.11"/>
<polygon fill="#63b8ff" stroke="#63b8ff" points="1174.77,-523.07 1185.19,-525 1178.25,-517 1174.77,-523.07"/>
</a>
</g>
</g>
<!-- Node31&#45;&gt;Node10 -->
<g id="edge51_Node000031_Node000010" class="edge">
<title>Node31&#45;&gt;Node10</title>
<g id="a_edge51_Node000031_Node000010"><a xlink:title=" ">
<path fill="none" stroke="#63b8ff" d="M1079.14,-438.43C1086.96,-440.74 1094.65,-443.56 1101.75,-447 1137.26,-464.21 1170.65,-495.52 1191.41,-517.48"/>
<polygon fill="#63b8ff" stroke="#63b8ff" points="1188.6,-519.6 1197.96,-524.57 1193.74,-514.85 1188.6,-519.6"/>
</a>
</g>
</g>
<!-- Node32&#45;&gt;Node10 -->
<g id="edge53_Node000032_Node000010" class="edge">
<title>Node32&#45;&gt;Node10</title>
<g id="a_edge53_Node000032_Node000010"><a xlink:title=" ">
<path fill="none" stroke="#63b8ff" d="M1085,-400.31C1090.86,-402.81 1096.52,-405.69 1101.75,-409 1144.74,-436.23 1179.47,-485.5 1198.1,-515.83"/>
<polygon fill="#63b8ff" stroke="#63b8ff" points="1195.09,-517.61 1203.23,-524.4 1201.1,-514.02 1195.09,-517.61"/>
</a>
</g>
</g>
<!-- Node34&#45;&gt;Node11 -->
<g id="edge56_Node000034_Node000011" class="edge">
<title>Node34&#45;&gt;Node11</title>
<g id="a_edge56_Node000034_Node000011"><a xlink:title=" ">
<path fill="none" stroke="#63b8ff" d="M1228.57,-762.71C1263.94,-720.24 1358.84,-606.28 1396.58,-560.97"/>
<polygon fill="#63b8ff" stroke="#63b8ff" points="1399.05,-563.47 1402.76,-553.55 1393.67,-558.99 1399.05,-563.47"/>
</a>
</g>
</g>
</g>
</svg>

<g id="navigator" transform="translate(0 0)" fill="#404254">
  <rect fill="#f2f5e9" fill-opacity="0.5" stroke="#606060" stroke-width=".5" x="0" y="0" width="60" height="60"/>
  <use id="zoomplus" xlink:href="#zoomPlus" x="17" y="9" onmousedown="handleZoom(evt,'in')"/>
  <use id="zoomminus" xlink:href="#zoomMin" x="42" y="9" onmousedown="handleZoom(evt,'out')"/>
  <use id="reset" xlink:href="#resetDef" x="30" y="36" onmousedown="handleReset()"/>
   <use id="arrowup" xlink:href="#arrowUp" x="0" y="0" onmousedown="handlePan(0,-1)"/>
  <use id="arrowright" xlink:href="#arrowRight" x="0" y="0" onmousedown="handlePan(1,0)"/>
  <use id="arrowdown" xlink:href="#arrowDown" x="0" y="0" onmousedown="handlePan(0,1)"/>
  <use id="arrowleft" xlink:href="#arrowLeft" x="0" y="0" onmousedown="handlePan(-1,0)"/>
</g>
<svg viewBox="0 0 15 15" width="100%" height="30px" preserveAspectRatio="xMaxYMin meet">
 <g id="arrow_out" transform="scale(0.3 0.3)">
  <a xlink:href="classLSM1x0A__LoRaWAN_a8095765c5d39b33e09b6fea741ec470d_cgraph_org.svg" target="_base">
   <rect id="button" ry="5" rx="5" y="6" x="6" height="38" width="38"
        fill="#f2f5e9" fill-opacity="0.5" stroke="#606060" stroke-width="1.0"/>
   <path id="arrow"
     d="M 11.500037,31.436501 C 11.940474,20.09759 22.043105,11.32322 32.158766,21.979434 L 37.068811,17.246167 C 37.068811,17.246167 37.088388,32 37.088388,32 L 22.160133,31.978069 C 22.160133,31.978069 26.997745,27.140456 26.997745,27.140456 C 18.528582,18.264221 13.291696,25.230495 11.500037,31.436501 z"
     style="fill:#404040;"/>
  </a>
 </g>
</svg>

<style type='text/css'>
<![CDATA[
[data-mouse-over-selected='false'] { opacity: 0.7; }
[data-mouse-over-selected='true']  { opacity: 1.0; }
]]>
</style>
<script type="application/ecmascript"><![CDATA[
document.addEventListener('DOMContentLoaded', (event) => {
  highlightEdges();
  highlightAdjacentNodes();
});
]]></script>
</svg>
