<?xml version="1.0" encoding="UTF-8" standalone="no"?>
<!DOCTYPE svg PUBLIC "-//W3C//DTD SVG 1.1//EN"
 "http://www.w3.org/Graphics/SVG/1.1/DTD/svg11.dtd">
<!-- Generated by graphviz version 12.2.1 (20241206.2353)
 -->
<!-- Title: LSM1x0A_LoRaWAN::setAppEUI Pages: 1 -->
<!--zoomable 1143 -->

<svg id="main" version="1.1" xmlns="http://www.w3.org/2000/svg" xmlns:xlink="http://www.w3.org/1999/xlink" xml:space="preserve" onload="init(evt)">
<style type="text/css"><![CDATA[
.node, .edge {opacity: 0.7;}
.node.selected, .edge.selected {opacity: 1;}
.edge:hover path { stroke: red; }
.edge:hover polygon { stroke: red; fill: red; }
]]></style>

<defs>
  <circle id="rim" cx="0" cy="0" r="7"/>
  <circle id="rim2" cx="0" cy="0" r="3.5"/>
  <g id="zoomPlus">
    <use xlink:href="#rim" fill="#404040"><set attributeName="fill" to="#808080" begin="zoomplus.mouseover" end="zoomplus.mouseout"/></use>
    <path d="M-4,0h8M0,-4v8" fill="none" stroke="white" stroke-width="1.5" pointer-events="none"/>
  </g>
  <g id="zoomMin">
    <use xlink:href="#rim" fill="#404040"><set attributeName="fill" to="#808080" begin="zoomminus.mouseover" end="zoomminus.mouseout"/></use>
    <path d="M-4,0h8" fill="none" stroke="white" stroke-width="1.5" pointer-events="none"/>
  </g>
  <g id="arrowUp" transform="translate(30 24)">
    <use xlink:href="#rim"/>
    <path pointer-events="none" fill="none" stroke="white" stroke-width="1.5" d="M0,-3.0v7 M-2.5,-0.5L0,-3.0L2.5,-0.5"/>
  </g>
  <g id="arrowRight" transform="rotate(90) translate(36 -43)">
    <use xlink:href="#rim"/>
    <path pointer-events="none" fill="none" stroke="white" stroke-width="1.5" d="M0,-3.0v7 M-2.5,-0.5L0,-3.0L2.5,-0.5"/>
  </g>
  <g id="arrowDown" transform="rotate(180) translate(-30 -48)">
    <use xlink:href="#rim"/>
    <path pointer-events="none" fill="none" stroke="white" stroke-width="1.5" d="M0,-3.0v7 M-2.5,-0.5L0,-3.0L2.5,-0.5"/>
  </g>
  <g id="arrowLeft" transform="rotate(270) translate(-36 17)">
    <use xlink:href="#rim"/>
    <path pointer-events="none" fill="none" stroke="white" stroke-width="1.5" d="M0,-3.0v7 M-2.5,-0.5L0,-3.0L2.5,-0.5"/>
  </g>
  <g id="resetDef">
    <use xlink:href="#rim2" fill="#404040"><set attributeName="fill" to="#808080" begin="reset.mouseover" end="reset.mouseout"/></use>
  </g>
</defs>
<script type="application/ecmascript">
var viewWidth = 1295;
var viewHeight = 1143;
var sectionId = 'dynsection-64';
</script>
<script type="application/ecmascript" xlink:href="../../svg.min.js"/>
<svg id="graph" class="graph">
<g id="viewport">
<title>LSM1x0A_LoRaWAN::setAppEUI</title>
<!-- Node1 -->
<g id="Node000001" class="node">
<title>Node1</title>
<g id="a_Node000001"><a xlink:title="Sets the LoRaWAN Application EUI (JoinEUI).">
<polygon fill="#999999" stroke="#666666" points="164.5,-490.95 0,-490.95 0,-470.95 164.5,-470.95 164.5,-490.95"/>
<text text-anchor="middle" x="82.25" y="-477.45" font-family="Helvetica,sans-Serif" font-size="10.00">LSM1x0A_LoRaWAN::setAppEUI</text>
</a>
</g>
</g>
<!-- Node2 -->
<g id="Node000002" class="node">
<title>Node2</title>
<g id="a_Node000002"><a xlink:href="../../d8/d92/classLSM1x0A__Controller.html#afd7d92e60ed6fdae696a955cdbe0ed8c" target="_top" xlink:title="Sends any AT command to the module, returning error if it fails. Internally uses the LsmAtParser logi...">
<polygon fill="white" stroke="#666666" points="306.5,-496.95 200.5,-496.95 200.5,-464.95 306.5,-464.95 306.5,-496.95"/>
<text text-anchor="start" x="208.5" y="-483.45" font-family="Helvetica,sans-Serif" font-size="10.00">LSM1x0A_Controller</text>
<text text-anchor="middle" x="253.5" y="-471.45" font-family="Helvetica,sans-Serif" font-size="10.00">::sendCommand</text>
</a>
</g>
</g>
<!-- Node1&#45;&gt;Node2 -->
<g id="edge1_Node000001_Node000002" class="edge">
<title>Node1&#45;&gt;Node2</title>
<g id="a_edge1_Node000001_Node000002"><a xlink:title=" ">
<path fill="none" stroke="#63b8ff" d="M164.9,-480.95C172.97,-480.95 181.07,-480.95 188.91,-480.95"/>
<polygon fill="#63b8ff" stroke="#63b8ff" points="188.67,-484.45 198.67,-480.95 188.67,-477.45 188.67,-484.45"/>
</a>
</g>
</g>
<!-- Node3 -->
<g id="Node000003" class="node">
<title>Node3</title>
<g id="a_Node000003"><a xlink:href="../../d8/d92/classLSM1x0A__Controller.html#abb0eb380daa3dfb7acffb483c5db8e2b" target="_top" xlink:title="Executes the recovery protocol. First Soft&#45;Reset (ATZ), then Hard&#45;Reset if there is a pin.">
<polygon fill="white" stroke="#666666" points="448.5,-938.95 342.5,-938.95 342.5,-906.95 448.5,-906.95 448.5,-938.95"/>
<text text-anchor="start" x="350.5" y="-925.45" font-family="Helvetica,sans-Serif" font-size="10.00">LSM1x0A_Controller</text>
<text text-anchor="middle" x="395.5" y="-913.45" font-family="Helvetica,sans-Serif" font-size="10.00">::recoverModule</text>
</a>
</g>
</g>
<!-- Node2&#45;&gt;Node3 -->
<g id="edge2_Node000002_Node000003" class="edge">
<title>Node2&#45;&gt;Node3</title>
<g id="a_edge2_Node000002_Node000003"><a xlink:title=" ">
<path fill="none" stroke="#63b8ff" d="M258.05,-497.39C268.61,-545.46 301.66,-689.56 342.5,-804.95 353.85,-837.01 370.04,-872.58 381.33,-896.2"/>
<polygon fill="#63b8ff" stroke="#63b8ff" points="378.13,-897.62 385.63,-905.1 384.43,-894.57 378.13,-897.62"/>
</a>
</g>
</g>
<!-- Node31 -->
<g id="Node000031" class="node">
<title>Node31</title>
<g id="a_Node000031"><a xlink:href="../../d6/d3c/classLSM1x0A__AtParser.html#a29b53c521974387ba6c03afadfaffa4a" target="_top" xlink:title="Sends a simple command and waits for OK/ERROR. Example: sendCommand(&quot;AT+JOIN&quot;);.">
<polygon fill="white" stroke="#666666" points="863,-1118.95 688.75,-1118.95 688.75,-1098.95 863,-1098.95 863,-1118.95"/>
<text text-anchor="middle" x="775.88" y="-1105.45" font-family="Helvetica,sans-Serif" font-size="10.00">LSM1x0A_AtParser::sendCommand</text>
</a>
</g>
</g>
<!-- Node2&#45;&gt;Node31 -->
<g id="edge55_Node000002_Node000031" class="edge">
<title>Node2&#45;&gt;Node31</title>
<g id="a_edge55_Node000002_Node000031"><a xlink:title=" ">
<path fill="none" stroke="#63b8ff" d="M254.56,-497.2C255.38,-559.15 263.92,-785.25 342.5,-947.95 384.43,-1034.77 396.81,-1071.88 484.5,-1111.95 562.26,-1147.48 664.41,-1134.62 724.52,-1121.89"/>
<polygon fill="#63b8ff" stroke="#63b8ff" points="725.11,-1125.34 734.12,-1119.77 723.6,-1118.51 725.11,-1125.34"/>
</a>
</g>
</g>
<!-- Node4 -->
<g id="Node000004" class="node">
<title>Node4</title>
<g id="a_Node000004"><a xlink:href="../../d8/d92/classLSM1x0A__Controller.html#a3f6f25b843fe4fb7042c544deae2ab16" target="_top" xlink:title="Manually clears bits from the internal EventGroup.">
<polygon fill="white" stroke="#666666" points="1056.75,-957.95 950.75,-957.95 950.75,-925.95 1056.75,-925.95 1056.75,-957.95"/>
<text text-anchor="start" x="958.75" y="-944.45" font-family="Helvetica,sans-Serif" font-size="10.00">LSM1x0A_Controller</text>
<text text-anchor="middle" x="1003.75" y="-932.45" font-family="Helvetica,sans-Serif" font-size="10.00">::clearEvents</text>
</a>
</g>
</g>
<!-- Node3&#45;&gt;Node4 -->
<g id="edge3_Node000003_Node000004" class="edge">
<title>Node3&#45;&gt;Node4</title>
<g id="a_edge3_Node000003_Node000004"><a xlink:title=" ">
<path fill="none" stroke="#63b8ff" d="M412.58,-939.29C429,-954.72 456.06,-976.82 484.5,-985.95 644.07,-1037.18 844.66,-991 942.93,-961.72"/>
<polygon fill="#63b8ff" stroke="#63b8ff" points="943.82,-965.11 952.37,-958.86 941.79,-958.41 943.82,-965.11"/>
</a>
</g>
</g>
<!-- Node5 -->
<g id="Node000005" class="node">
<title>Node5</title>
<g id="a_Node000005"><a xlink:href="../../d8/d92/classLSM1x0A__Controller.html#a345d4bd79fa16b18dc33a4ca788fe5f7" target="_top" xlink:title="Performs a hardware reset using the reset pin.">
<polygon fill="white" stroke="#666666" points="616.75,-938.95 510.75,-938.95 510.75,-906.95 616.75,-906.95 616.75,-938.95"/>
<text text-anchor="start" x="518.75" y="-925.45" font-family="Helvetica,sans-Serif" font-size="10.00">LSM1x0A_Controller</text>
<text text-anchor="middle" x="563.75" y="-913.45" font-family="Helvetica,sans-Serif" font-size="10.00">::hardwareReset</text>
</a>
</g>
</g>
<!-- Node3&#45;&gt;Node5 -->
<g id="edge4_Node000003_Node000005" class="edge">
<title>Node3&#45;&gt;Node5</title>
<g id="a_edge4_Node000003_Node000005"><a xlink:title=" ">
<path fill="none" stroke="#63b8ff" d="M448.65,-922.95C464.66,-922.95 482.47,-922.95 499.16,-922.95"/>
<polygon fill="#63b8ff" stroke="#63b8ff" points="498.99,-926.45 508.99,-922.95 498.99,-919.45 498.99,-926.45"/>
</a>
</g>
</g>
<!-- Node7 -->
<g id="Node000007" class="node">
<title>Node7</title>
<g id="a_Node000007"><a xlink:href="../../d5/d72/classLSM1x0A__LoRaWAN.html#a1892801e37c8cd67d37c76108d6f7d49" target="_top" xlink:title="Validates if the device is currently Joined to the network. (Either confirmed by OTAA or statically a...">
<polygon fill="white" stroke="#666666" points="1287.25,-926.95 1134.75,-926.95 1134.75,-906.95 1287.25,-906.95 1287.25,-926.95"/>
<text text-anchor="middle" x="1211" y="-913.45" font-family="Helvetica,sans-Serif" font-size="10.00">LSM1x0A_LoRaWAN::isJoined</text>
</a>
</g>
</g>
<!-- Node3&#45;&gt;Node7 -->
<g id="edge6_Node000003_Node000007" class="edge">
<title>Node3&#45;&gt;Node7</title>
<g id="a_edge6_Node000003_Node000007"><a xlink:title=" ">
<path fill="none" stroke="#63b8ff" d="M442.44,-939.25C444.58,-940.7 446.61,-942.26 448.5,-943.95 473.67,-966.51 455.49,-993.6 484.5,-1010.95 495.2,-1017.34 810.66,-1014.94 872.75,-1008.95 974.44,-999.13 1001.24,-997.44 1098.75,-966.95 1127.58,-957.93 1158.83,-943.44 1180.84,-932.37"/>
<polygon fill="#63b8ff" stroke="#63b8ff" points="1182.2,-935.61 1189.51,-927.94 1179.01,-929.38 1182.2,-935.61"/>
</a>
</g>
</g>
<!-- Node8 -->
<g id="Node000008" class="node">
<title>Node8</title>
<g id="a_Node000008"><a xlink:href="../../d5/d72/classLSM1x0A__LoRaWAN.html#a83e11c0e74ff9e0757db616ab1163424" target="_top" xlink:title="Attempts to recover a lost connection (re&#45;executes OTAA Join if dropped).">
<polygon fill="white" stroke="#666666" points="638.12,-850.95 489.38,-850.95 489.38,-818.95 638.12,-818.95 638.12,-850.95"/>
<text text-anchor="start" x="497.38" y="-837.45" font-family="Helvetica,sans-Serif" font-size="10.00">LSM1x0A_LoRaWAN::recover</text>
<text text-anchor="middle" x="563.75" y="-825.45" font-family="Helvetica,sans-Serif" font-size="10.00">Connection</text>
</a>
</g>
</g>
<!-- Node3&#45;&gt;Node8 -->
<g id="edge7_Node000003_Node000008" class="edge">
<title>Node3&#45;&gt;Node8</title>
<g id="a_edge7_Node000003_Node000008"><a xlink:title=" ">
<path fill="none" stroke="#63b8ff" d="M418.47,-906.53C435.8,-894.07 460.9,-877.07 484.5,-864.95 490.79,-861.72 497.5,-858.64 504.26,-855.76"/>
<polygon fill="#63b8ff" stroke="#63b8ff" points="505.53,-859.02 513.46,-851.99 502.88,-852.55 505.53,-859.02"/>
</a>
</g>
</g>
<!-- Node12 -->
<g id="Node000012" class="node">
<title>Node12</title>
<g id="a_Node000012"><a xlink:href="../../d5/d72/classLSM1x0A__LoRaWAN.html#ae3be4ce59dfa200369733317df356e97" target="_top" xlink:title="Pushes the RAM&#45;cached variables back down into the hardware module. Restores the operational state af...">
<polygon fill="white" stroke="#666666" points="637,-496.95 490.5,-496.95 490.5,-464.95 637,-464.95 637,-496.95"/>
<text text-anchor="start" x="498.5" y="-483.45" font-family="Helvetica,sans-Serif" font-size="10.00">LSM1x0A_LoRaWAN::restore</text>
<text text-anchor="middle" x="563.75" y="-471.45" font-family="Helvetica,sans-Serif" font-size="10.00">Config</text>
</a>
</g>
</g>
<!-- Node3&#45;&gt;Node12 -->
<g id="edge16_Node000003_Node000012" class="edge">
<title>Node3&#45;&gt;Node12</title>
<g id="a_edge16_Node000003_Node000012"><a xlink:title=" ">
<path fill="none" stroke="#63b8ff" d="M402.61,-906.69C427.51,-840.5 521.42,-590.84 552.61,-507.91"/>
<polygon fill="#63b8ff" stroke="#63b8ff" points="555.8,-509.36 556.05,-498.77 549.25,-506.9 555.8,-509.36"/>
</a>
</g>
</g>
<!-- Node29 -->
<g id="Node000029" class="node">
<title>Node29</title>
<g id="a_Node000029"><a xlink:href="../../d5/d72/classLSM1x0A__LoRaWAN.html#ace4b04396f1de1f4a54f513f5f378db7" target="_top" xlink:title="Manually overrides the internal joined state tracker.">
<polygon fill="white" stroke="#666666" points="643,-976.95 484.5,-976.95 484.5,-956.95 643,-956.95 643,-976.95"/>
<text text-anchor="middle" x="563.75" y="-963.45" font-family="Helvetica,sans-Serif" font-size="10.00">LSM1x0A_LoRaWAN::setJoined</text>
</a>
</g>
</g>
<!-- Node3&#45;&gt;Node29 -->
<g id="edge50_Node000003_Node000029" class="edge">
<title>Node3&#45;&gt;Node29</title>
<g id="a_edge50_Node000003_Node000029"><a xlink:title=" ">
<path fill="none" stroke="#63b8ff" d="M448.99,-938.22C460.66,-941.51 472.98,-944.91 484.5,-947.95 491.86,-949.89 499.62,-951.86 507.29,-953.76"/>
<polygon fill="#63b8ff" stroke="#63b8ff" points="506.38,-957.14 516.93,-956.13 508.05,-950.35 506.38,-957.14"/>
</a>
</g>
</g>
<!-- Node30 -->
<g id="Node000030" class="node">
<title>Node30</title>
<g id="a_Node000030"><a xlink:href="../../d8/d92/classLSM1x0A__Controller.html#a11ad21cb5ca33ec51346764a23bd485e" target="_top" xlink:title="Performs a software reset (ATZ Command).">
<polygon fill="white" stroke="#666666" points="616.75,-1102.95 510.75,-1102.95 510.75,-1070.95 616.75,-1070.95 616.75,-1102.95"/>
<text text-anchor="start" x="518.75" y="-1089.45" font-family="Helvetica,sans-Serif" font-size="10.00">LSM1x0A_Controller</text>
<text text-anchor="middle" x="563.75" y="-1077.45" font-family="Helvetica,sans-Serif" font-size="10.00">::softwareReset</text>
</a>
</g>
</g>
<!-- Node3&#45;&gt;Node30 -->
<g id="edge51_Node000003_Node000030" class="edge">
<title>Node3&#45;&gt;Node30</title>
<g id="a_edge51_Node000003_Node000030"><a xlink:title=" ">
<path fill="none" stroke="#63b8ff" d="M403.2,-939.34C415.39,-967.25 443.75,-1024.13 484.5,-1056.95 489.32,-1060.83 494.69,-1064.24 500.3,-1067.25"/>
<polygon fill="#63b8ff" stroke="#63b8ff" points="498.71,-1070.36 509.23,-1071.55 501.75,-1064.06 498.71,-1070.36"/>
</a>
</g>
</g>
<!-- Node6 -->
<g id="Node000006" class="node">
<title>Node6</title>
<g id="a_Node000006"><a xlink:href="../../d6/d3c/classLSM1x0A__AtParser.html#ad2839120da13e56132b95019419be1e5" target="_top" xlink:title="Waits for an event (like BOOTALERT) without sending any command. Useful for hardware reset where the ...">
<polygon fill="white" stroke="#666666" points="846.12,-938.95 705.62,-938.95 705.62,-906.95 846.12,-906.95 846.12,-938.95"/>
<text text-anchor="start" x="713.62" y="-925.45" font-family="Helvetica,sans-Serif" font-size="10.00">LSM1x0A_AtParser::waitFor</text>
<text text-anchor="middle" x="775.88" y="-913.45" font-family="Helvetica,sans-Serif" font-size="10.00">Event</text>
</a>
</g>
</g>
<!-- Node5&#45;&gt;Node6 -->
<g id="edge5_Node000005_Node000006" class="edge">
<title>Node5&#45;&gt;Node6</title>
<g id="a_edge5_Node000005_Node000006"><a xlink:title=" ">
<path fill="none" stroke="#63b8ff" d="M617.23,-922.95C640.42,-922.95 668.22,-922.95 693.96,-922.95"/>
<polygon fill="#63b8ff" stroke="#63b8ff" points="693.72,-926.45 703.72,-922.95 693.72,-919.45 693.72,-926.45"/>
</a>
</g>
</g>
<!-- Node9 -->
<g id="Node000009" class="node">
<title>Node9</title>
<g id="a_Node000009"><a xlink:href="../../d5/d72/classLSM1x0A__LoRaWAN.html#a59f781f3cfd30c11cd3973bcb10a7baa" target="_top" xlink:title="Initiates a LoRaWAN Network Join procedure. This is a blocking function until the module fires an eve...">
<polygon fill="white" stroke="#666666" points="841.62,-844.95 710.12,-844.95 710.12,-824.95 841.62,-824.95 841.62,-844.95"/>
<text text-anchor="middle" x="775.88" y="-831.45" font-family="Helvetica,sans-Serif" font-size="10.00">LSM1x0A_LoRaWAN::join</text>
</a>
</g>
</g>
<!-- Node8&#45;&gt;Node9 -->
<g id="edge8_Node000008_Node000009" class="edge">
<title>Node8&#45;&gt;Node9</title>
<g id="a_edge8_Node000008_Node000009"><a xlink:title=" ">
<path fill="none" stroke="#63b8ff" d="M638.54,-834.95C657.91,-834.95 678.85,-834.95 698.36,-834.95"/>
<polygon fill="#63b8ff" stroke="#63b8ff" points="698.15,-838.45 708.15,-834.95 698.15,-831.45 698.15,-838.45"/>
</a>
</g>
</g>
<!-- Node9&#45;&gt;Node2 -->
<g id="edge11_Node000009_Node000002" class="edge">
<title>Node9&#45;&gt;Node2</title>
<g id="a_edge11_Node000009_Node000002"><a xlink:title=" ">
<path fill="none" stroke="#63b8ff" d="M721.65,-824.5C663.02,-812.53 566.23,-791.38 484.5,-766.95 420.11,-747.69 390.23,-762.27 342.5,-714.95 284.23,-657.18 264.03,-557.13 257.45,-508.74"/>
<polygon fill="#63b8ff" stroke="#63b8ff" points="260.93,-508.33 256.22,-498.84 253.98,-509.2 260.93,-508.33"/>
</a>
</g>
</g>
<!-- Node9&#45;&gt;Node3 -->
<g id="edge10_Node000009_Node000003" class="edge">
<title>Node9&#45;&gt;Node3</title>
<g id="a_edge10_Node000009_Node000003"><a xlink:title=" ">
<path fill="none" stroke="#63b8ff" d="M721.65,-845.44C663.24,-857.21 566.82,-877.35 484.5,-897.95 476.56,-899.94 468.24,-902.14 460.03,-904.39"/>
<polygon fill="#63b8ff" stroke="#63b8ff" points="459.09,-901.01 450.4,-907.06 460.97,-907.76 459.09,-901.01"/>
</a>
</g>
</g>
<!-- Node9&#45;&gt;Node4 -->
<g id="edge9_Node000009_Node000004" class="edge">
<title>Node9&#45;&gt;Node4</title>
<g id="a_edge9_Node000009_Node000004"><a xlink:title=" ">
<path fill="none" stroke="#63b8ff" d="M798.94,-845.4C835.66,-862.79 909.98,-898 958.01,-920.75"/>
<polygon fill="#63b8ff" stroke="#63b8ff" points="956.22,-923.78 966.76,-924.9 959.22,-917.45 956.22,-923.78"/>
</a>
</g>
</g>
<!-- Node10 -->
<g id="Node000010" class="node">
<title>Node10</title>
<g id="a_Node000010"><a xlink:href="../../d5/d72/classLSM1x0A__LoRaWAN.html#a3fdd1ac318a5ad2559323e5d57e36a5e" target="_top" xlink:title="Enables or disables specific sub&#45;bands for regions supporting Channel Masks (e.g.,...">
<polygon fill="white" stroke="#666666" points="1098.75,-654.95 908.75,-654.95 908.75,-634.95 1098.75,-634.95 1098.75,-654.95"/>
<text text-anchor="middle" x="1003.75" y="-641.45" font-family="Helvetica,sans-Serif" font-size="10.00">LSM1x0A_LoRaWAN::setChannelMask</text>
</a>
</g>
</g>
<!-- Node9&#45;&gt;Node10 -->
<g id="edge12_Node000009_Node000010" class="edge">
<title>Node9&#45;&gt;Node10</title>
<g id="a_edge12_Node000009_Node000010"><a xlink:title=" ">
<path fill="none" stroke="#63b8ff" d="M836.18,-824.45C848.9,-820.55 861.8,-815.22 872.75,-807.95 929.62,-770.19 973.25,-699.61 992.29,-665.05"/>
<polygon fill="#63b8ff" stroke="#63b8ff" points="995.22,-666.98 996.87,-656.52 989.05,-663.67 995.22,-666.98"/>
</a>
</g>
</g>
<!-- Node11 -->
<g id="Node000011" class="node">
<title>Node11</title>
<g id="a_Node000011"><a xlink:href="../../d8/d92/classLSM1x0A__Controller.html#a62476e30e50c7fe120aeb8df4b828675" target="_top" xlink:title="Synchronously/blockingly waits for an asynchronous event to occur. Useful for wrapping commands like ...">
<polygon fill="white" stroke="#666666" points="1056.75,-850.95 950.75,-850.95 950.75,-818.95 1056.75,-818.95 1056.75,-850.95"/>
<text text-anchor="start" x="958.75" y="-837.45" font-family="Helvetica,sans-Serif" font-size="10.00">LSM1x0A_Controller</text>
<text text-anchor="middle" x="1003.75" y="-825.45" font-family="Helvetica,sans-Serif" font-size="10.00">::waitForEvent</text>
</a>
</g>
</g>
<!-- Node9&#45;&gt;Node11 -->
<g id="edge15_Node000009_Node000011" class="edge">
<title>Node9&#45;&gt;Node11</title>
<g id="a_edge15_Node000009_Node000011"><a xlink:title=" ">
<path fill="none" stroke="#63b8ff" d="M841.9,-834.95C872.41,-834.95 908.65,-834.95 938.99,-834.95"/>
<polygon fill="#63b8ff" stroke="#63b8ff" points="938.8,-838.45 948.8,-834.95 938.8,-831.45 938.8,-838.45"/>
</a>
</g>
</g>
<!-- Node10&#45;&gt;Node2 -->
<g id="edge14_Node000010_Node000002" class="edge">
<title>Node10&#45;&gt;Node2</title>
<g id="a_edge14_Node000010_Node000002"><a xlink:title=" ">
<path fill="none" stroke="#63b8ff" d="M1001.97,-634.73C996.52,-566.01 961.6,-172.04 872.75,-101.95 687.59,44.11 523.65,29.06 342.5,-121.95 290.92,-164.95 264.86,-377.61 257.07,-453.76"/>
<polygon fill="#63b8ff" stroke="#63b8ff" points="253.63,-452.96 256.12,-463.26 260.59,-453.65 253.63,-452.96"/>
</a>
</g>
</g>
<!-- Node10&#45;&gt;Node7 -->
<g id="edge13_Node000010_Node000007" class="edge">
<title>Node10&#45;&gt;Node7</title>
<g id="a_edge13_Node000010_Node000007"><a xlink:title=" ">
<path fill="none" stroke="#63b8ff" d="M1012.55,-655.28C1043.09,-695.76 1154.92,-843.95 1195.32,-897.49"/>
<polygon fill="#63b8ff" stroke="#63b8ff" points="1192.47,-899.52 1201.29,-905.4 1198.06,-895.31 1192.47,-899.52"/>
</a>
</g>
</g>
<!-- Node12&#45;&gt;Node10 -->
<g id="edge21_Node000012_Node000010" class="edge">
<title>Node12&#45;&gt;Node10</title>
<g id="a_edge21_Node000012_Node000010"><a xlink:title=" ">
<path fill="none" stroke="#63b8ff" d="M637.24,-484.29C714.9,-488.81 832.43,-498.64 872.75,-517.95 924.68,-542.82 968.63,-596.76 989.59,-625.7"/>
<polygon fill="#63b8ff" stroke="#63b8ff" points="986.52,-627.41 995.15,-633.56 992.24,-623.37 986.52,-627.41"/>
</a>
</g>
</g>
<!-- Node13 -->
<g id="Node000013" class="node">
<title>Node13</title>
<g id="a_Node000013"><a xlink:href="../../d5/d72/classLSM1x0A__LoRaWAN.html#af0baa3db4c7fab580d6b19a9e92472f6" target="_top" xlink:title="Enables or disables Adaptive Data Rate (ADR).">
<polygon fill="white" stroke="#666666" points="851.75,-798.95 700,-798.95 700,-778.95 851.75,-778.95 851.75,-798.95"/>
<text text-anchor="middle" x="775.88" y="-785.45" font-family="Helvetica,sans-Serif" font-size="10.00">LSM1x0A_LoRaWAN::setADR</text>
</a>
</g>
</g>
<!-- Node12&#45;&gt;Node13 -->
<g id="edge17_Node000012_Node000013" class="edge">
<title>Node12&#45;&gt;Node13</title>
<g id="a_edge17_Node000012_Node000013"><a xlink:title=" ">
<path fill="none" stroke="#63b8ff" d="M565.93,-497.13C570.45,-546.58 591.15,-696.7 679,-769.95 682.25,-772.66 685.79,-775.03 689.51,-777.08"/>
<polygon fill="#63b8ff" stroke="#63b8ff" points="687.84,-780.17 698.38,-781.21 690.79,-773.82 687.84,-780.17"/>
</a>
</g>
</g>
<!-- Node14 -->
<g id="Node000014" class="node">
<title>Node14</title>
<g id="a_Node000014"><a xlink:href="../../d5/d72/classLSM1x0A__LoRaWAN.html#a5365ed1596eb84ebf1e3b33b4a10c788" target="_top" xlink:title="Sets the LoRaWAN operational frequency band.">
<polygon fill="white" stroke="#666666" points="852.12,-760.95 699.62,-760.95 699.62,-740.95 852.12,-740.95 852.12,-760.95"/>
<text text-anchor="middle" x="775.88" y="-747.45" font-family="Helvetica,sans-Serif" font-size="10.00">LSM1x0A_LoRaWAN::setBand</text>
</a>
</g>
</g>
<!-- Node12&#45;&gt;Node14 -->
<g id="edge19_Node000012_Node000014" class="edge">
<title>Node12&#45;&gt;Node14</title>
<g id="a_edge19_Node000012_Node000014"><a xlink:title=" ">
<path fill="none" stroke="#63b8ff" d="M567.01,-497.27C574.17,-542.46 600.73,-669.99 679,-731.95 682.16,-734.45 685.55,-736.64 689.11,-738.58"/>
<polygon fill="#63b8ff" stroke="#63b8ff" points="687.6,-741.74 698.15,-742.72 690.52,-735.37 687.6,-741.74"/>
</a>
</g>
</g>
<!-- Node15 -->
<g id="Node000015" class="node">
<title>Node15</title>
<g id="a_Node000015"><a xlink:href="../../d5/d72/classLSM1x0A__LoRaWAN.html#a9d9285c43414337a0ccb3a6cd7ca06e6" target="_top" xlink:title="Configures the number of retries for Confirmed uplinks.">
<polygon fill="white" stroke="#666666" points="858.12,-722.95 693.62,-722.95 693.62,-690.95 858.12,-690.95 858.12,-722.95"/>
<text text-anchor="start" x="701.62" y="-709.45" font-family="Helvetica,sans-Serif" font-size="10.00">LSM1x0A_LoRaWAN::setConfirm</text>
<text text-anchor="middle" x="775.88" y="-697.45" font-family="Helvetica,sans-Serif" font-size="10.00">Retry</text>
</a>
</g>
</g>
<!-- Node12&#45;&gt;Node15 -->
<g id="edge22_Node000012_Node000015" class="edge">
<title>Node12&#45;&gt;Node15</title>
<g id="a_edge22_Node000012_Node000015"><a xlink:title=" ">
<path fill="none" stroke="#63b8ff" d="M569.27,-497.42C580.73,-535.98 614.67,-632.59 679,-681.95 680.36,-682.99 681.77,-684 683.21,-684.96"/>
<polygon fill="#63b8ff" stroke="#63b8ff" points="681.43,-687.98 691.84,-689.96 684.94,-681.92 681.43,-687.98"/>
</a>
</g>
</g>
<!-- Node16 -->
<g id="Node000016" class="node">
<title>Node16</title>
<g id="a_Node000016"><a xlink:href="../../d5/d72/classLSM1x0A__LoRaWAN.html#a56345ceeafa0b9059d6de4e69eddc82e" target="_top" xlink:title="Sets the Data Rate (DR) of the module.">
<polygon fill="white" stroke="#666666" points="861.88,-672.95 689.88,-672.95 689.88,-652.95 861.88,-652.95 861.88,-672.95"/>
<text text-anchor="middle" x="775.88" y="-659.45" font-family="Helvetica,sans-Serif" font-size="10.00">LSM1x0A_LoRaWAN::setDataRate</text>
</a>
</g>
</g>
<!-- Node12&#45;&gt;Node16 -->
<g id="edge24_Node000012_Node000016" class="edge">
<title>Node12&#45;&gt;Node16</title>
<g id="a_edge24_Node000012_Node000016"><a xlink:title=" ">
<path fill="none" stroke="#63b8ff" d="M571.18,-497.26C585.24,-530.68 622.11,-606.87 679,-643.95 681.14,-645.34 683.35,-646.63 685.63,-647.84"/>
<polygon fill="#63b8ff" stroke="#63b8ff" points="684.05,-650.96 694.6,-651.92 686.95,-644.59 684.05,-650.96"/>
</a>
</g>
</g>
<!-- Node17 -->
<g id="Node000017" class="node">
<title>Node17</title>
<g id="a_Node000017"><a xlink:href="../../d5/d72/classLSM1x0A__LoRaWAN.html#a8494083816ab885cb07fc3b08de029f4" target="_top" xlink:title="Sets the LoRaWAN Device Address (DevAddr) for ABP mode.">
<polygon fill="white" stroke="#666666" points="860,-634.95 691.75,-634.95 691.75,-614.95 860,-614.95 860,-634.95"/>
<text text-anchor="middle" x="775.88" y="-621.45" font-family="Helvetica,sans-Serif" font-size="10.00">LSM1x0A_LoRaWAN::setDevAddr</text>
</a>
</g>
</g>
<!-- Node12&#45;&gt;Node17 -->
<g id="edge26_Node000012_Node000017" class="edge">
<title>Node12&#45;&gt;Node17</title>
<g id="a_edge26_Node000012_Node000017"><a xlink:title=" ">
<path fill="none" stroke="#63b8ff" d="M574.74,-497.41C592.22,-524.7 631.1,-578.97 679,-605.95 681.84,-607.55 684.8,-609.02 687.83,-610.36"/>
<polygon fill="#63b8ff" stroke="#63b8ff" points="686.42,-613.57 697.01,-613.93 688.96,-607.04 686.42,-613.57"/>
</a>
</g>
</g>
<!-- Node18 -->
<g id="Node000018" class="node">
<title>Node18</title>
<g id="a_Node000018"><a xlink:href="../../d5/d72/classLSM1x0A__LoRaWAN.html#ad320634e52d7ea907043cc50dd37c5b0" target="_top" xlink:title="Sets the LoRaWAN Device EUI (DevEUI).">
<polygon fill="white" stroke="#666666" points="858.5,-596.95 693.25,-596.95 693.25,-576.95 858.5,-576.95 858.5,-596.95"/>
<text text-anchor="middle" x="775.88" y="-583.45" font-family="Helvetica,sans-Serif" font-size="10.00">LSM1x0A_LoRaWAN::setDevEUI</text>
</a>
</g>
</g>
<!-- Node12&#45;&gt;Node18 -->
<g id="edge28_Node000012_Node000018" class="edge">
<title>Node12&#45;&gt;Node18</title>
<g id="a_edge28_Node000012_Node000018"><a xlink:title=" ">
<path fill="none" stroke="#63b8ff" d="M580.95,-497.21C601.77,-517.12 639.9,-550.34 679,-567.95 683.26,-569.87 687.72,-571.6 692.28,-573.15"/>
<polygon fill="#63b8ff" stroke="#63b8ff" points="691.03,-576.43 701.62,-576.02 693.09,-569.74 691.03,-576.43"/>
</a>
</g>
</g>
<!-- Node19 -->
<g id="Node000019" class="node">
<title>Node19</title>
<g id="a_Node000019"><a xlink:href="../../d5/d72/classLSM1x0A__LoRaWAN.html#a031023b0d2dd5db3c51c2db6ae7801cc" target="_top" xlink:title="Enables or disables the Duty Cycle limitation (EU regions mostly).">
<polygon fill="white" stroke="#666666" points="851.38,-558.95 700.38,-558.95 700.38,-526.95 851.38,-526.95 851.38,-558.95"/>
<text text-anchor="start" x="708.38" y="-545.45" font-family="Helvetica,sans-Serif" font-size="10.00">LSM1x0A_LoRaWAN::setDuty</text>
<text text-anchor="middle" x="775.88" y="-533.45" font-family="Helvetica,sans-Serif" font-size="10.00">Cycle</text>
</a>
</g>
</g>
<!-- Node12&#45;&gt;Node19 -->
<g id="edge30_Node000012_Node000019" class="edge">
<title>Node12&#45;&gt;Node19</title>
<g id="a_edge30_Node000012_Node000019"><a xlink:title=" ">
<path fill="none" stroke="#63b8ff" d="M620.51,-497.4C647.45,-505.35 679.98,-514.95 708.23,-523.28"/>
<polygon fill="#63b8ff" stroke="#63b8ff" points="707.19,-526.62 717.77,-526.1 709.17,-519.91 707.19,-526.62"/>
</a>
</g>
</g>
<!-- Node20 -->
<g id="Node000020" class="node">
<title>Node20</title>
<g id="a_Node000020"><a xlink:href="../../d5/d72/classLSM1x0A__LoRaWAN.html#a6b179d5825c49af0f391dfc539912f64" target="_top" xlink:title="Sets the delay for the Join1 receive window.">
<polygon fill="white" stroke="#666666" points="852.5,-470.95 699.25,-470.95 699.25,-438.95 852.5,-438.95 852.5,-470.95"/>
<text text-anchor="start" x="707.25" y="-457.45" font-family="Helvetica,sans-Serif" font-size="10.00">LSM1x0A_LoRaWAN::setJoin1</text>
<text text-anchor="middle" x="775.88" y="-445.45" font-family="Helvetica,sans-Serif" font-size="10.00">Delay</text>
</a>
</g>
</g>
<!-- Node12&#45;&gt;Node20 -->
<g id="edge32_Node000012_Node000020" class="edge">
<title>Node12&#45;&gt;Node20</title>
<g id="a_edge32_Node000012_Node000020"><a xlink:title=" ">
<path fill="none" stroke="#63b8ff" d="M637.36,-471.96C653.71,-469.94 671.22,-467.77 688.08,-465.69"/>
<polygon fill="#63b8ff" stroke="#63b8ff" points="688.05,-469.22 697.55,-464.52 687.19,-462.27 688.05,-469.22"/>
</a>
</g>
</g>
<!-- Node21 -->
<g id="Node000021" class="node">
<title>Node21</title>
<g id="a_Node000021"><a xlink:href="../../d5/d72/classLSM1x0A__LoRaWAN.html#a4545d0caad41558cdb9bae8286b104d8" target="_top" xlink:title="Sets the delay for the Join2 receive window.">
<polygon fill="white" stroke="#666666" points="852.5,-420.95 699.25,-420.95 699.25,-388.95 852.5,-388.95 852.5,-420.95"/>
<text text-anchor="start" x="707.25" y="-407.45" font-family="Helvetica,sans-Serif" font-size="10.00">LSM1x0A_LoRaWAN::setJoin2</text>
<text text-anchor="middle" x="775.88" y="-395.45" font-family="Helvetica,sans-Serif" font-size="10.00">Delay</text>
</a>
</g>
</g>
<!-- Node12&#45;&gt;Node21 -->
<g id="edge34_Node000012_Node000021" class="edge">
<title>Node12&#45;&gt;Node21</title>
<g id="a_edge34_Node000012_Node000021"><a xlink:title=" ">
<path fill="none" stroke="#63b8ff" d="M597.66,-464.52C620.17,-453.71 650.92,-439.8 679,-429.95 684.29,-428.09 689.79,-426.3 695.36,-424.59"/>
<polygon fill="#63b8ff" stroke="#63b8ff" points="696.07,-428.03 704.66,-421.84 694.08,-421.32 696.07,-428.03"/>
</a>
</g>
</g>
<!-- Node22 -->
<g id="Node000022" class="node">
<title>Node22</title>
<g id="a_Node000022"><a xlink:href="../../d5/d72/classLSM1x0A__LoRaWAN.html#a06bd50723ec1eb7e144c9141b2ec86fc" target="_top" xlink:title="Sets the LoRaWAN Network ID (NetID).">
<polygon fill="white" stroke="#666666" points="856.25,-370.95 695.5,-370.95 695.5,-350.95 856.25,-350.95 856.25,-370.95"/>
<text text-anchor="middle" x="775.88" y="-357.45" font-family="Helvetica,sans-Serif" font-size="10.00">LSM1x0A_LoRaWAN::setNwkID</text>
</a>
</g>
</g>
<!-- Node12&#45;&gt;Node22 -->
<g id="edge36_Node000012_Node000022" class="edge">
<title>Node12&#45;&gt;Node22</title>
<g id="a_edge36_Node000012_Node000022"><a xlink:title=" ">
<path fill="none" stroke="#63b8ff" d="M578.01,-464.74C597.6,-441.98 636.53,-400.98 679,-379.95 682.68,-378.13 686.51,-376.48 690.45,-374.99"/>
<polygon fill="#63b8ff" stroke="#63b8ff" points="691.26,-378.41 699.61,-371.9 689.02,-371.78 691.26,-378.41"/>
</a>
</g>
</g>
<!-- Node23 -->
<g id="Node000023" class="node">
<title>Node23</title>
<g id="a_Node000023"><a xlink:href="../../d5/d72/classLSM1x0A__LoRaWAN.html#aa70ada64d28ecca216bb62268e502adf" target="_top" xlink:title="Sets the delay for the RX1 receive window.">
<polygon fill="white" stroke="#666666" points="862.62,-332.95 689.12,-332.95 689.12,-312.95 862.62,-312.95 862.62,-332.95"/>
<text text-anchor="middle" x="775.88" y="-319.45" font-family="Helvetica,sans-Serif" font-size="10.00">LSM1x0A_LoRaWAN::setRx1Delay</text>
</a>
</g>
</g>
<!-- Node12&#45;&gt;Node23 -->
<g id="edge38_Node000012_Node000023" class="edge">
<title>Node12&#45;&gt;Node23</title>
<g id="a_edge38_Node000012_Node000023"><a xlink:title=" ">
<path fill="none" stroke="#63b8ff" d="M573.2,-464.54C589.4,-434.88 627.8,-372.58 679,-341.95 681.48,-340.46 684.06,-339.09 686.71,-337.82"/>
<polygon fill="#63b8ff" stroke="#63b8ff" points="687.96,-341.09 695.84,-334.02 685.26,-334.63 687.96,-341.09"/>
</a>
</g>
</g>
<!-- Node24 -->
<g id="Node000024" class="node">
<title>Node24</title>
<g id="a_Node000024"><a xlink:href="../../d5/d72/classLSM1x0A__LoRaWAN.html#a2cf4eff0181b6107d082bccefa24217b" target="_top" xlink:title="Sets the Data Rate (DR) specifically for the RX2 window.">
<polygon fill="white" stroke="#666666" points="870.88,-294.95 680.88,-294.95 680.88,-274.95 870.88,-274.95 870.88,-294.95"/>
<text text-anchor="middle" x="775.88" y="-281.45" font-family="Helvetica,sans-Serif" font-size="10.00">LSM1x0A_LoRaWAN::setRx2DataRate</text>
</a>
</g>
</g>
<!-- Node12&#45;&gt;Node24 -->
<g id="edge40_Node000012_Node000024" class="edge">
<title>Node12&#45;&gt;Node24</title>
<g id="a_edge40_Node000012_Node000024"><a xlink:title=" ">
<path fill="none" stroke="#63b8ff" d="M570.27,-464.61C583.15,-429.11 618.79,-344.84 679,-303.95 680.97,-302.61 683.02,-301.36 685.13,-300.19"/>
<polygon fill="#63b8ff" stroke="#63b8ff" points="686.46,-303.43 693.98,-295.97 683.45,-297.11 686.46,-303.43"/>
</a>
</g>
</g>
<!-- Node25 -->
<g id="Node000025" class="node">
<title>Node25</title>
<g id="a_Node000025"><a xlink:href="../../d5/d72/classLSM1x0A__LoRaWAN.html#a42d2137b475b57e19d891a5f1ac93221" target="_top" xlink:title="Sets the delay for the RX2 receive window.">
<polygon fill="white" stroke="#666666" points="862.62,-256.95 689.12,-256.95 689.12,-236.95 862.62,-236.95 862.62,-256.95"/>
<text text-anchor="middle" x="775.88" y="-243.45" font-family="Helvetica,sans-Serif" font-size="10.00">LSM1x0A_LoRaWAN::setRx2Delay</text>
</a>
</g>
</g>
<!-- Node12&#45;&gt;Node25 -->
<g id="edge42_Node000012_Node000025" class="edge">
<title>Node12&#45;&gt;Node25</title>
<g id="a_edge42_Node000012_Node000025"><a xlink:title=" ">
<path fill="none" stroke="#63b8ff" d="M568.34,-464.6C578.18,-423.89 609.61,-317.5 679,-265.95 680.59,-264.76 682.24,-263.65 683.93,-262.6"/>
<polygon fill="#63b8ff" stroke="#63b8ff" points="685.51,-265.72 692.73,-257.97 682.25,-259.53 685.51,-265.72"/>
</a>
</g>
</g>
<!-- Node26 -->
<g id="Node000026" class="node">
<title>Node26</title>
<g id="a_Node000026"><a xlink:href="../../d5/d72/classLSM1x0A__LoRaWAN.html#a689f7dfda1dfeae11ea397c2ddf2ad37" target="_top" xlink:title="Sets the precise frequency for the RX2 window.">
<polygon fill="white" stroke="#666666" points="872.75,-218.95 679,-218.95 679,-198.95 872.75,-198.95 872.75,-218.95"/>
<text text-anchor="middle" x="775.88" y="-205.45" font-family="Helvetica,sans-Serif" font-size="10.00">LSM1x0A_LoRaWAN::setRx2Frequency</text>
</a>
</g>
</g>
<!-- Node12&#45;&gt;Node26 -->
<g id="edge44_Node000012_Node000026" class="edge">
<title>Node12&#45;&gt;Node26</title>
<g id="a_edge44_Node000012_Node000026"><a xlink:title=" ">
<path fill="none" stroke="#63b8ff" d="M566.96,-464.5C574.01,-418.96 600.31,-290.44 679,-227.95 680.33,-226.89 681.7,-225.89 683.11,-224.94"/>
<polygon fill="#63b8ff" stroke="#63b8ff" points="684.61,-228.11 691.57,-220.12 681.15,-222.03 684.61,-228.11"/>
</a>
</g>
</g>
<!-- Node27 -->
<g id="Node000027" class="node">
<title>Node27</title>
<g id="a_Node000027"><a xlink:href="../../d5/d72/classLSM1x0A__LoRaWAN.html#a1df10d7ae6bf45b537d28d3d5c4b88d7" target="_top" xlink:title="Sets the transmission power index.">
<polygon fill="white" stroke="#666666" points="860.38,-180.95 691.38,-180.95 691.38,-160.95 860.38,-160.95 860.38,-180.95"/>
<text text-anchor="middle" x="775.88" y="-167.45" font-family="Helvetica,sans-Serif" font-size="10.00">LSM1x0A_LoRaWAN::setTxPower</text>
</a>
</g>
</g>
<!-- Node12&#45;&gt;Node27 -->
<g id="edge46_Node000012_Node000027" class="edge">
<title>Node12&#45;&gt;Node27</title>
<g id="a_edge46_Node000012_Node000027"><a xlink:title=" ">
<path fill="none" stroke="#63b8ff" d="M565.89,-464.65C570.3,-414.88 590.71,-263.73 679,-189.95 680.14,-189 681.3,-188.09 682.5,-187.23"/>
<polygon fill="#63b8ff" stroke="#63b8ff" points="684.18,-190.3 690.93,-182.14 680.56,-184.31 684.18,-190.3"/>
</a>
</g>
</g>
<!-- Node28 -->
<g id="Node000028" class="node">
<title>Node28</title>
<g id="a_Node000028"><a xlink:href="../../d5/d72/classLSM1x0A__LoRaWAN.html#a059fd6a9356c4ecadd5a98294da5952d" target="_top" xlink:title="Configures the number of repetitions for Unconfirmed uplinks.">
<polygon fill="white" stroke="#666666" points="863.38,-142.95 688.38,-142.95 688.38,-110.95 863.38,-110.95 863.38,-142.95"/>
<text text-anchor="start" x="696.38" y="-129.45" font-family="Helvetica,sans-Serif" font-size="10.00">LSM1x0A_LoRaWAN::setUnconfirm</text>
<text text-anchor="middle" x="775.88" y="-117.45" font-family="Helvetica,sans-Serif" font-size="10.00">Retry</text>
</a>
</g>
</g>
<!-- Node12&#45;&gt;Node28 -->
<g id="edge48_Node000012_Node000028" class="edge">
<title>Node12&#45;&gt;Node28</title>
<g id="a_edge48_Node000012_Node000028"><a xlink:title=" ">
<path fill="none" stroke="#63b8ff" d="M565.27,-464.75C567.9,-411.46 583.73,-239.96 679,-151.95 679.77,-151.23 680.57,-150.54 681.37,-149.86"/>
<polygon fill="#63b8ff" stroke="#63b8ff" points="683.22,-152.84 689.37,-144.21 679.19,-147.12 683.22,-152.84"/>
</a>
</g>
</g>
<!-- Node13&#45;&gt;Node2 -->
<g id="edge18_Node000013_Node000002" class="edge">
<title>Node13&#45;&gt;Node2</title>
<g id="a_edge18_Node000013_Node000002"><a xlink:title=" ">
<path fill="none" stroke="#63b8ff" d="M700.86,-778.49C591.64,-761.69 394.58,-725.64 342.5,-677.95 291.85,-631.57 268.62,-550.58 259.5,-508.34"/>
<polygon fill="#63b8ff" stroke="#63b8ff" points="262.98,-507.86 257.55,-498.76 256.12,-509.26 262.98,-507.86"/>
</a>
</g>
</g>
<!-- Node14&#45;&gt;Node2 -->
<g id="edge20_Node000014_Node000002" class="edge">
<title>Node14&#45;&gt;Node2</title>
<g id="a_edge20_Node000014_Node000002"><a xlink:title=" ">
<path fill="none" stroke="#63b8ff" d="M703.23,-740.46C595.17,-723.42 397.26,-687.03 342.5,-641.95 299.23,-606.32 273.87,-543.61 262.24,-507.88"/>
<polygon fill="#63b8ff" stroke="#63b8ff" points="265.71,-507.24 259.39,-498.74 259.02,-509.32 265.71,-507.24"/>
</a>
</g>
</g>
<!-- Node15&#45;&gt;Node2 -->
<g id="edge23_Node000015_Node000002" class="edge">
<title>Node15&#45;&gt;Node2</title>
<g id="a_edge23_Node000015_Node000002"><a xlink:title=" ">
<path fill="none" stroke="#63b8ff" d="M693.24,-696.13C583.83,-680.29 397.07,-648.15 342.5,-606.95 307.38,-580.43 280.99,-535.78 266.65,-507.37"/>
<polygon fill="#63b8ff" stroke="#63b8ff" points="269.96,-506.16 262.42,-498.71 263.67,-509.23 269.96,-506.16"/>
</a>
</g>
</g>
<!-- Node16&#45;&gt;Node2 -->
<g id="edge25_Node000016_Node000002" class="edge">
<title>Node16&#45;&gt;Node2</title>
<g id="a_edge25_Node000016_Node000002"><a xlink:title=" ">
<path fill="none" stroke="#63b8ff" d="M689.77,-660.63C598.06,-654.66 450.71,-634.71 342.5,-569.95 314.82,-553.38 289.64,-526.09 273.38,-506.09"/>
<polygon fill="#63b8ff" stroke="#63b8ff" points="276.24,-504.06 267.29,-498.39 270.75,-508.41 276.24,-504.06"/>
</a>
</g>
</g>
<!-- Node17&#45;&gt;Node2 -->
<g id="edge27_Node000017_Node000002" class="edge">
<title>Node17&#45;&gt;Node2</title>
<g id="a_edge27_Node000017_Node000002"><a xlink:title=" ">
<path fill="none" stroke="#63b8ff" d="M691.52,-618.09C602.26,-608.52 457.9,-586.49 342.5,-537.95 321.74,-529.22 300.49,-515.61 284.08,-503.88"/>
<polygon fill="#63b8ff" stroke="#63b8ff" points="286.37,-501.22 276.23,-498.14 282.24,-506.87 286.37,-501.22"/>
</a>
</g>
</g>
<!-- Node18&#45;&gt;Node2 -->
<g id="edge29_Node000018_Node000002" class="edge">
<title>Node18&#45;&gt;Node2</title>
<g id="a_edge29_Node000018_Node000002"><a xlink:title=" ">
<path fill="none" stroke="#63b8ff" d="M693.12,-576.91C605.53,-565.2 462.84,-543.35 342.5,-511.95 330.98,-508.94 318.82,-505.11 307.34,-501.17"/>
<polygon fill="#63b8ff" stroke="#63b8ff" points="308.6,-497.9 298.01,-497.88 306.28,-504.5 308.6,-497.9"/>
</a>
</g>
</g>
<!-- Node19&#45;&gt;Node2 -->
<g id="edge31_Node000019_Node000002" class="edge">
<title>Node19&#45;&gt;Node2</title>
<g id="a_edge31_Node000019_Node000002"><a xlink:title=" ">
<path fill="none" stroke="#63b8ff" d="M700.14,-534.04C597.46,-521.81 414.56,-500.02 318.1,-488.53"/>
<polygon fill="#63b8ff" stroke="#63b8ff" points="318.62,-485.06 308.28,-487.36 317.8,-492.01 318.62,-485.06"/>
</a>
</g>
</g>
<!-- Node20&#45;&gt;Node2 -->
<g id="edge33_Node000020_Node000002" class="edge">
<title>Node20&#45;&gt;Node2</title>
<g id="a_edge33_Node000020_Node000002"><a xlink:title=" ">
<path fill="none" stroke="#63b8ff" d="M699,-453.04C640.37,-452.09 557.23,-451.88 484.5,-455.95 428.12,-459.1 364.3,-466.33 318.22,-472.21"/>
<polygon fill="#63b8ff" stroke="#63b8ff" points="317.87,-468.72 308.4,-473.48 318.76,-475.67 317.87,-468.72"/>
</a>
</g>
</g>
<!-- Node21&#45;&gt;Node2 -->
<g id="edge35_Node000021_Node000002" class="edge">
<title>Node21&#45;&gt;Node2</title>
<g id="a_edge35_Node000021_Node000002"><a xlink:title=" ">
<path fill="none" stroke="#63b8ff" d="M698.88,-409.76C612.03,-416.18 465.96,-429.77 342.5,-454.95 333.83,-456.72 324.78,-458.94 315.92,-461.34"/>
<polygon fill="#63b8ff" stroke="#63b8ff" points="314.98,-457.97 306.3,-464.05 316.88,-464.71 314.98,-457.97"/>
</a>
</g>
</g>
<!-- Node22&#45;&gt;Node2 -->
<g id="edge37_Node000022_Node000002" class="edge">
<title>Node22&#45;&gt;Node2</title>
<g id="a_edge37_Node000022_Node000002"><a xlink:title=" ">
<path fill="none" stroke="#63b8ff" d="M695.21,-366.22C606.95,-373.87 461.38,-391.94 342.5,-432.95 324.01,-439.33 304.8,-449.35 289.06,-458.6"/>
<polygon fill="#63b8ff" stroke="#63b8ff" points="287.3,-455.57 280.55,-463.73 290.92,-461.56 287.3,-455.57"/>
</a>
</g>
</g>
<!-- Node23&#45;&gt;Node2 -->
<g id="edge39_Node000023_Node000002" class="edge">
<title>Node23&#45;&gt;Node2</title>
<g id="a_edge39_Node000023_Node000002"><a xlink:title=" ">
<path fill="none" stroke="#63b8ff" d="M688.74,-323.48C597.79,-327.36 452.6,-343.2 342.5,-400.95 316.26,-414.71 291.78,-438.19 275.34,-456.16"/>
<polygon fill="#63b8ff" stroke="#63b8ff" points="272.98,-453.54 268.95,-463.34 278.21,-458.2 272.98,-453.54"/>
</a>
</g>
</g>
<!-- Node24&#45;&gt;Node2 -->
<g id="edge41_Node000024_Node000002" class="edge">
<title>Node24&#45;&gt;Node2</title>
<g id="a_edge41_Node000024_Node000002"><a xlink:title=" ">
<path fill="none" stroke="#63b8ff" d="M680.65,-278.72C587.1,-277.21 443.44,-287.94 342.5,-355.95 306,-380.54 279.87,-425.71 265.98,-454.49"/>
<polygon fill="#63b8ff" stroke="#63b8ff" points="262.94,-452.73 261.9,-463.27 269.29,-455.68 262.94,-452.73"/>
</a>
</g>
</g>
<!-- Node25&#45;&gt;Node2 -->
<g id="edge43_Node000025_Node000002" class="edge">
<title>Node25&#45;&gt;Node2</title>
<g id="a_edge43_Node000025_Node000002"><a xlink:title=" ">
<path fill="none" stroke="#63b8ff" d="M705.1,-236.49C612.33,-226.6 447.84,-223.58 342.5,-304.95 293.86,-342.51 270.13,-414.19 260.31,-453.49"/>
<polygon fill="#63b8ff" stroke="#63b8ff" points="256.94,-452.56 258.05,-463.1 263.75,-454.17 256.94,-452.56"/>
</a>
</g>
</g>
<!-- Node26&#45;&gt;Node2 -->
<g id="edge45_Node000026_Node000002" class="edge">
<title>Node26&#45;&gt;Node2</title>
<g id="a_edge45_Node000026_Node000002"><a xlink:title=" ">
<path fill="none" stroke="#63b8ff" d="M678.67,-205.86C567.22,-204.31 392.5,-208.72 342.5,-248.95 278.61,-300.36 261.08,-403.6 256.29,-453.16"/>
<polygon fill="#63b8ff" stroke="#63b8ff" points="252.81,-452.77 255.45,-463.03 259.78,-453.36 252.81,-452.77"/>
</a>
</g>
</g>
<!-- Node27&#45;&gt;Node2 -->
<g id="edge47_Node000027_Node000002" class="edge">
<title>Node27&#45;&gt;Node2</title>
<g id="a_edge47_Node000027_Node000002"><a xlink:title=" ">
<path fill="none" stroke="#63b8ff" d="M728.17,-160.48C641.74,-144.01 455.39,-122.56 342.5,-212.95 267.69,-272.85 255.83,-397.78 254.4,-453.31"/>
<polygon fill="#63b8ff" stroke="#63b8ff" points="250.9,-453.1 254.25,-463.15 257.9,-453.21 250.9,-453.1"/>
</a>
</g>
</g>
<!-- Node28&#45;&gt;Node2 -->
<g id="edge49_Node000028_Node000002" class="edge">
<title>Node28&#45;&gt;Node2</title>
<g id="a_edge49_Node000028_Node000002"><a xlink:title=" ">
<path fill="none" stroke="#63b8ff" d="M687.99,-121.55C576.9,-116.57 392.87,-115.39 342.5,-157.95 296.65,-196.69 267.5,-383.18 257.95,-453.79"/>
<polygon fill="#63b8ff" stroke="#63b8ff" points="254.53,-452.95 256.69,-463.32 261.47,-453.87 254.53,-452.95"/>
</a>
</g>
</g>
<!-- Node30&#45;&gt;Node31 -->
<g id="edge52_Node000030_Node000031" class="edge">
<title>Node30&#45;&gt;Node31</title>
<g id="a_edge52_Node000030_Node000031"><a xlink:title=" ">
<path fill="none" stroke="#63b8ff" d="M617.23,-1092.44C635.39,-1094.34 656.36,-1096.54 676.97,-1098.7"/>
<polygon fill="#63b8ff" stroke="#63b8ff" points="676.54,-1102.17 686.85,-1099.73 677.27,-1095.21 676.54,-1102.17"/>
</a>
</g>
</g>
<!-- Node32 -->
<g id="Node000032" class="node">
<title>Node32</title>
<g id="a_Node000032"><a xlink:href="../../d6/d3c/classLSM1x0A__AtParser.html#a0ba6f927c54fceece22c17773d3f2600" target="_top" xlink:title="Sends a command and extracts a value from the response.">
<polygon fill="white" stroke="#666666" points="1090.88,-1124.95 916.62,-1124.95 916.62,-1092.95 1090.88,-1092.95 1090.88,-1124.95"/>
<text text-anchor="start" x="924.62" y="-1111.45" font-family="Helvetica,sans-Serif" font-size="10.00">LSM1x0A_AtParser::sendCommand</text>
<text text-anchor="middle" x="1003.75" y="-1099.45" font-family="Helvetica,sans-Serif" font-size="10.00">WithResponse</text>
</a>
</g>
</g>
<!-- Node31&#45;&gt;Node32 -->
<g id="edge53_Node000031_Node000032" class="edge">
<title>Node31&#45;&gt;Node32</title>
<g id="a_edge53_Node000031_Node000032"><a xlink:title=" ">
<path fill="none" stroke="#63b8ff" d="M863.24,-1108.95C876.99,-1108.95 891.31,-1108.95 905.3,-1108.95"/>
<polygon fill="#63b8ff" stroke="#63b8ff" points="904.92,-1112.45 914.92,-1108.95 904.92,-1105.45 904.92,-1112.45"/>
</a>
</g>
</g>
<!-- Node33 -->
<g id="Node000033" class="node">
<title>Node33</title>
<g id="a_Node000033"><a xlink:href="../../d5/d8b/classUartDriver.html#a5d0f22e8867eebe99273078bb19bd23d" target="_top" xlink:title="Sends data through UART.">
<polygon fill="white" stroke="#666666" points="1265.5,-1118.95 1156.5,-1118.95 1156.5,-1098.95 1265.5,-1098.95 1265.5,-1118.95"/>
<text text-anchor="middle" x="1211" y="-1105.45" font-family="Helvetica,sans-Serif" font-size="10.00">UartDriver::sendData</text>
</a>
</g>
</g>
<!-- Node32&#45;&gt;Node33 -->
<g id="edge54_Node000032_Node000033" class="edge">
<title>Node32&#45;&gt;Node33</title>
<g id="a_edge54_Node000032_Node000033"><a xlink:title=" ">
<path fill="none" stroke="#63b8ff" d="M1091.2,-1108.95C1109.09,-1108.95 1127.66,-1108.95 1144.64,-1108.95"/>
<polygon fill="#63b8ff" stroke="#63b8ff" points="1144.61,-1112.45 1154.61,-1108.95 1144.61,-1105.45 1144.61,-1112.45"/>
</a>
</g>
</g>
</g>
</svg>

<g id="navigator" transform="translate(0 0)" fill="#404254">
  <rect fill="#f2f5e9" fill-opacity="0.5" stroke="#606060" stroke-width=".5" x="0" y="0" width="60" height="60"/>
  <use id="zoomplus" xlink:href="#zoomPlus" x="17" y="9" onmousedown="handleZoom(evt,'in')"/>
  <use id="zoomminus" xlink:href="#zoomMin" x="42" y="9" onmousedown="handleZoom(evt,'out')"/>
  <use id="reset" xlink:href="#resetDef" x="30" y="36" onmousedown="handleReset()"/>
   <use id="arrowup" xlink:href="#arrowUp" x="0" y="0" onmousedown="handlePan(0,-1)"/>
  <use id="arrowright" xlink:href="#arrowRight" x="0" y="0" onmousedown="handlePan(1,0)"/>
  <use id="arrowdown" xlink:href="#arrowDown" x="0" y="0" onmousedown="handlePan(0,1)"/>
  <use id="arrowleft" xlink:href="#arrowLeft" x="0" y="0" onmousedown="handlePan(-1,0)"/>
</g>
<svg viewBox="0 0 15 15" width="100%" height="30px" preserveAspectRatio="xMaxYMin meet">
 <g id="arrow_out" transform="scale(0.3 0.3)">
  <a xlink:href="classLSM1x0A__LoRaWAN_a2a2ab62dac2ba045b8cb3e5b0c6cd88e_cgraph_org.svg" target="_base">
   <rect id="button" ry="5" rx="5" y="6" x="6" height="38" width="38"
        fill="#f2f5e9" fill-opacity="0.5" stroke="#606060" stroke-width="1.0"/>
   <path id="arrow"
     d="M 11.500037,31.436501 C 11.940474,20.09759 22.043105,11.32322 32.158766,21.979434 L 37.068811,17.246167 C 37.068811,17.246167 37.088388,32 37.088388,32 L 22.160133,31.978069 C 22.160133,31.978069 26.997745,27.140456 26.997745,27.140456 C 18.528582,18.264221 13.291696,25.230495 11.500037,31.436501 z"
     style="fill:#404040;"/>
  </a>
 </g>
</svg>

<style type='text/css'>
<![CDATA[
[data-mouse-over-selected='false'] { opacity: 0.7; }
[data-mouse-over-selected='true']  { opacity: 1.0; }
]]>
</style>
<script type="application/ecmascript"><![CDATA[
document.addEventListener('DOMContentLoaded', (event) => {
  highlightEdges();
  highlightAdjacentNodes();
});
]]></script>
</svg>
