<?xml version="1.0" encoding="UTF-8" standalone="no"?>
<!DOCTYPE svg PUBLIC "-//W3C//DTD SVG 1.1//EN"
 "http://www.w3.org/Graphics/SVG/1.1/DTD/svg11.dtd">
<!-- Generated by graphviz version 12.2.1 (20241206.2353)
 -->
<!-- Title: LSM1x0A_LoRaWAN::setRx2DataRate Pages: 1 -->
<svg width="1321pt" height="1067pt"
 viewBox="0.00 0.00 1320.75 1067.41" xmlns="http://www.w3.org/2000/svg" xmlns:xlink="http://www.w3.org/1999/xlink">
<g id="graph0" class="graph" transform="scale(1 1) rotate(0) translate(4 1063.41)">
<title>LSM1x0A_LoRaWAN::setRx2DataRate</title>
<!-- Node1 -->
<g id="Node000001" class="node">
<title>Node1</title>
<g id="a_Node000001"><a xlink:title="Sets the Data Rate (DR) specifically for the RX2 window.">
<polygon fill="#999999" stroke="#666666" points="190,-351.34 0,-351.34 0,-331.34 190,-331.34 190,-351.34"/>
<text text-anchor="middle" x="95" y="-337.84" font-family="Helvetica,sans-Serif" font-size="10.00">LSM1x0A_LoRaWAN::setRx2DataRate</text>
</a>
</g>
</g>
<!-- Node2 -->
<g id="Node000002" class="node">
<title>Node2</title>
<g id="a_Node000002"><a xlink:href="../../d8/d92/classLSM1x0A__Controller.html#afd7d92e60ed6fdae696a955cdbe0ed8c" target="_top" xlink:title="Sends any AT command to the module, returning error if it fails. Internally uses the LsmAtParser logi...">
<polygon fill="white" stroke="#666666" points="332,-451.34 226,-451.34 226,-419.34 332,-419.34 332,-451.34"/>
<text text-anchor="start" x="234" y="-437.84" font-family="Helvetica,sans-Serif" font-size="10.00">LSM1x0A_Controller</text>
<text text-anchor="middle" x="279" y="-425.84" font-family="Helvetica,sans-Serif" font-size="10.00">::sendCommand</text>
</a>
</g>
</g>
<!-- Node1&#45;&gt;Node2 -->
<g id="edge1_Node000001_Node000002" class="edge">
<title>Node1&#45;&gt;Node2</title>
<g id="a_edge1_Node000001_Node000002"><a xlink:title=" ">
<path fill="none" stroke="#63b8ff" d="M116.17,-351.76C144.94,-366.62 198.4,-394.23 235.99,-413.65"/>
<polygon fill="#63b8ff" stroke="#63b8ff" points="234.3,-416.71 244.79,-418.19 237.51,-410.49 234.3,-416.71"/>
</a>
</g>
</g>
<!-- Node3 -->
<g id="Node000003" class="node">
<title>Node3</title>
<g id="a_Node000003"><a xlink:href="../../d8/d92/classLSM1x0A__Controller.html#abb0eb380daa3dfb7acffb483c5db8e2b" target="_top" xlink:title="Executes the recovery protocol. First Soft&#45;Reset (ATZ), then Hard&#45;Reset if there is a pin.">
<polygon fill="white" stroke="#666666" points="474,-868.34 368,-868.34 368,-836.34 474,-836.34 474,-868.34"/>
<text text-anchor="start" x="376" y="-854.84" font-family="Helvetica,sans-Serif" font-size="10.00">LSM1x0A_Controller</text>
<text text-anchor="middle" x="421" y="-842.84" font-family="Helvetica,sans-Serif" font-size="10.00">::recoverModule</text>
</a>
</g>
</g>
<!-- Node2&#45;&gt;Node3 -->
<g id="edge2_Node000002_Node000003" class="edge">
<title>Node2&#45;&gt;Node3</title>
<g id="a_edge2_Node000002_Node000003"><a xlink:title=" ">
<path fill="none" stroke="#63b8ff" d="M284.04,-451.79C295.41,-497.32 329.34,-628.64 368,-734.34 379.75,-766.47 396,-802.28 407.19,-825.94"/>
<polygon fill="#63b8ff" stroke="#63b8ff" points="403.97,-827.32 411.44,-834.83 410.29,-824.3 403.97,-827.32"/>
</a>
</g>
</g>
<!-- Node30 -->
<g id="Node000030" class="node">
<title>Node30</title>
<g id="a_Node000030"><a xlink:href="../../d6/d3c/classLSM1x0A__AtParser.html#a29b53c521974387ba6c03afadfaffa4a" target="_top" xlink:title="Sends a simple command and waits for OK/ERROR. Example: sendCommand(&quot;AT+JOIN&quot;);.">
<polygon fill="white" stroke="#666666" points="888.5,-704.34 714.25,-704.34 714.25,-684.34 888.5,-684.34 888.5,-704.34"/>
<text text-anchor="middle" x="801.38" y="-690.84" font-family="Helvetica,sans-Serif" font-size="10.00">LSM1x0A_AtParser::sendCommand</text>
</a>
</g>
</g>
<!-- Node2&#45;&gt;Node30 -->
<g id="edge54_Node000002_Node000030" class="edge">
<title>Node2&#45;&gt;Node30</title>
<g id="a_edge54_Node000002_Node000030"><a xlink:title=" ">
<path fill="none" stroke="#63b8ff" d="M283.9,-451.77C292.85,-485.95 318.03,-565.19 368,-609.34 459.82,-690.47 605.98,-703.36 702.55,-701.64"/>
<polygon fill="#63b8ff" stroke="#63b8ff" points="702.36,-705.14 712.27,-701.4 702.19,-698.15 702.36,-705.14"/>
</a>
</g>
</g>
<!-- Node4 -->
<g id="Node000004" class="node">
<title>Node4</title>
<g id="a_Node000004"><a xlink:href="../../d8/d92/classLSM1x0A__Controller.html#a3f6f25b843fe4fb7042c544deae2ab16" target="_top" xlink:title="Manually clears bits from the internal EventGroup.">
<polygon fill="white" stroke="#666666" points="1082.25,-925.34 976.25,-925.34 976.25,-893.34 1082.25,-893.34 1082.25,-925.34"/>
<text text-anchor="start" x="984.25" y="-911.84" font-family="Helvetica,sans-Serif" font-size="10.00">LSM1x0A_Controller</text>
<text text-anchor="middle" x="1029.25" y="-899.84" font-family="Helvetica,sans-Serif" font-size="10.00">::clearEvents</text>
</a>
</g>
</g>
<!-- Node3&#45;&gt;Node4 -->
<g id="edge3_Node000003_Node000004" class="edge">
<title>Node3&#45;&gt;Node4</title>
<g id="a_edge3_Node000003_Node000004"><a xlink:title=" ">
<path fill="none" stroke="#63b8ff" d="M472.76,-868.77C484.85,-872.12 497.79,-875.26 510,-877.34 672.02,-905.03 866.15,-909.51 964.46,-909.8"/>
<polygon fill="#63b8ff" stroke="#63b8ff" points="964.45,-913.3 974.45,-909.81 964.46,-906.3 964.45,-913.3"/>
</a>
</g>
</g>
<!-- Node5 -->
<g id="Node000005" class="node">
<title>Node5</title>
<g id="a_Node000005"><a xlink:href="../../d8/d92/classLSM1x0A__Controller.html#a345d4bd79fa16b18dc33a4ca788fe5f7" target="_top" xlink:title="Performs a hardware reset using the reset pin.">
<polygon fill="white" stroke="#666666" points="642.25,-868.34 536.25,-868.34 536.25,-836.34 642.25,-836.34 642.25,-868.34"/>
<text text-anchor="start" x="544.25" y="-854.84" font-family="Helvetica,sans-Serif" font-size="10.00">LSM1x0A_Controller</text>
<text text-anchor="middle" x="589.25" y="-842.84" font-family="Helvetica,sans-Serif" font-size="10.00">::hardwareReset</text>
</a>
</g>
</g>
<!-- Node3&#45;&gt;Node5 -->
<g id="edge4_Node000003_Node000005" class="edge">
<title>Node3&#45;&gt;Node5</title>
<g id="a_edge4_Node000003_Node000005"><a xlink:title=" ">
<path fill="none" stroke="#63b8ff" d="M474.15,-852.34C490.16,-852.34 507.97,-852.34 524.66,-852.34"/>
<polygon fill="#63b8ff" stroke="#63b8ff" points="524.49,-855.84 534.49,-852.34 524.49,-848.84 524.49,-855.84"/>
</a>
</g>
</g>
<!-- Node7 -->
<g id="Node000007" class="node">
<title>Node7</title>
<g id="a_Node000007"><a xlink:href="../../d5/d72/classLSM1x0A__LoRaWAN.html#a1892801e37c8cd67d37c76108d6f7d49" target="_top" xlink:title="Validates if the device is currently Joined to the network. (Either confirmed by OTAA or statically a...">
<polygon fill="white" stroke="#666666" points="1312.75,-791.34 1160.25,-791.34 1160.25,-771.34 1312.75,-771.34 1312.75,-791.34"/>
<text text-anchor="middle" x="1236.5" y="-777.84" font-family="Helvetica,sans-Serif" font-size="10.00">LSM1x0A_LoRaWAN::isJoined</text>
</a>
</g>
</g>
<!-- Node3&#45;&gt;Node7 -->
<g id="edge6_Node000003_Node000007" class="edge">
<title>Node3&#45;&gt;Node7</title>
<g id="a_edge6_Node000003_Node000007"><a xlink:title=" ">
<path fill="none" stroke="#63b8ff" d="M472.76,-835.93C484.85,-832.58 497.79,-829.44 510,-827.34 738.21,-788.16 1011.95,-781.51 1148.74,-780.89"/>
<polygon fill="#63b8ff" stroke="#63b8ff" points="1148.45,-784.39 1158.44,-780.86 1148.42,-777.39 1148.45,-784.39"/>
</a>
</g>
</g>
<!-- Node8 -->
<g id="Node000008" class="node">
<title>Node8</title>
<g id="a_Node000008"><a xlink:href="../../d5/d72/classLSM1x0A__LoRaWAN.html#a83e11c0e74ff9e0757db616ab1163424" target="_top" xlink:title="Attempts to recover a lost connection (re&#45;executes OTAA Join if dropped).">
<polygon fill="white" stroke="#666666" points="663.62,-1032.34 514.88,-1032.34 514.88,-1000.34 663.62,-1000.34 663.62,-1032.34"/>
<text text-anchor="start" x="522.88" y="-1018.84" font-family="Helvetica,sans-Serif" font-size="10.00">LSM1x0A_LoRaWAN::recover</text>
<text text-anchor="middle" x="589.25" y="-1006.84" font-family="Helvetica,sans-Serif" font-size="10.00">Connection</text>
</a>
</g>
</g>
<!-- Node3&#45;&gt;Node8 -->
<g id="edge7_Node000003_Node000008" class="edge">
<title>Node3&#45;&gt;Node8</title>
<g id="a_edge7_Node000003_Node000008"><a xlink:title=" ">
<path fill="none" stroke="#63b8ff" d="M428.7,-868.74C440.89,-896.64 469.25,-953.53 510,-986.34 513.87,-989.46 518.09,-992.27 522.51,-994.81"/>
<polygon fill="#63b8ff" stroke="#63b8ff" points="520.6,-997.77 531.09,-999.26 523.82,-991.55 520.6,-997.77"/>
</a>
</g>
</g>
<!-- Node12 -->
<g id="Node000012" class="node">
<title>Node12</title>
<g id="a_Node000012"><a xlink:href="../../d5/d72/classLSM1x0A__LoRaWAN.html#ae3be4ce59dfa200369733317df356e97" target="_top" xlink:title="Pushes the RAM&#45;cached variables back down into the hardware module. Restores the operational state af...">
<polygon fill="white" stroke="#666666" points="662.5,-388.34 516,-388.34 516,-356.34 662.5,-356.34 662.5,-388.34"/>
<text text-anchor="start" x="524" y="-374.84" font-family="Helvetica,sans-Serif" font-size="10.00">LSM1x0A_LoRaWAN::restore</text>
<text text-anchor="middle" x="589.25" y="-362.84" font-family="Helvetica,sans-Serif" font-size="10.00">Config</text>
</a>
</g>
</g>
<!-- Node3&#45;&gt;Node12 -->
<g id="edge16_Node000003_Node000012" class="edge">
<title>Node3&#45;&gt;Node12</title>
<g id="a_edge16_Node000003_Node000012"><a xlink:title=" ">
<path fill="none" stroke="#63b8ff" d="M427.63,-836.1C451.95,-765.89 548.17,-488.06 578.82,-399.57"/>
<polygon fill="#63b8ff" stroke="#63b8ff" points="582.08,-400.86 582.04,-390.26 575.46,-398.57 582.08,-400.86"/>
</a>
</g>
</g>
<!-- Node28 -->
<g id="Node000028" class="node">
<title>Node28</title>
<g id="a_Node000028"><a xlink:href="../../d5/d72/classLSM1x0A__LoRaWAN.html#ace4b04396f1de1f4a54f513f5f378db7" target="_top" xlink:title="Manually overrides the internal joined state tracker.">
<polygon fill="white" stroke="#666666" points="668.5,-944.34 510,-944.34 510,-924.34 668.5,-924.34 668.5,-944.34"/>
<text text-anchor="middle" x="589.25" y="-930.84" font-family="Helvetica,sans-Serif" font-size="10.00">LSM1x0A_LoRaWAN::setJoined</text>
</a>
</g>
</g>
<!-- Node3&#45;&gt;Node28 -->
<g id="edge49_Node000003_Node000028" class="edge">
<title>Node3&#45;&gt;Node28</title>
<g id="a_edge49_Node000003_Node000028"><a xlink:title=" ">
<path fill="none" stroke="#63b8ff" d="M443.04,-868.7C460.26,-881.46 485.67,-898.88 510,-910.34 518.04,-914.13 526.83,-917.5 535.52,-920.43"/>
<polygon fill="#63b8ff" stroke="#63b8ff" points="534.37,-923.74 544.96,-923.45 536.5,-917.07 534.37,-923.74"/>
</a>
</g>
</g>
<!-- Node29 -->
<g id="Node000029" class="node">
<title>Node29</title>
<g id="a_Node000029"><a xlink:href="../../d8/d92/classLSM1x0A__Controller.html#a11ad21cb5ca33ec51346764a23bd485e" target="_top" xlink:title="Performs a software reset (ATZ Command).">
<polygon fill="white" stroke="#666666" points="642.25,-780.34 536.25,-780.34 536.25,-748.34 642.25,-748.34 642.25,-780.34"/>
<text text-anchor="start" x="544.25" y="-766.84" font-family="Helvetica,sans-Serif" font-size="10.00">LSM1x0A_Controller</text>
<text text-anchor="middle" x="589.25" y="-754.84" font-family="Helvetica,sans-Serif" font-size="10.00">::softwareReset</text>
</a>
</g>
</g>
<!-- Node3&#45;&gt;Node29 -->
<g id="edge50_Node000003_Node000029" class="edge">
<title>Node3&#45;&gt;Node29</title>
<g id="a_edge50_Node000003_Node000029"><a xlink:title=" ">
<path fill="none" stroke="#63b8ff" d="M443.97,-835.92C461.3,-823.46 486.4,-806.46 510,-794.34 516.29,-791.12 523,-788.03 529.76,-785.16"/>
<polygon fill="#63b8ff" stroke="#63b8ff" points="531.03,-788.42 538.96,-781.39 528.38,-781.94 531.03,-788.42"/>
</a>
</g>
</g>
<!-- Node6 -->
<g id="Node000006" class="node">
<title>Node6</title>
<g id="a_Node000006"><a xlink:href="../../d6/d3c/classLSM1x0A__AtParser.html#ad2839120da13e56132b95019419be1e5" target="_top" xlink:title="Waits for an event (like BOOTALERT) without sending any command. Useful for hardware reset where the ...">
<polygon fill="white" stroke="#666666" points="871.62,-868.34 731.12,-868.34 731.12,-836.34 871.62,-836.34 871.62,-868.34"/>
<text text-anchor="start" x="739.12" y="-854.84" font-family="Helvetica,sans-Serif" font-size="10.00">LSM1x0A_AtParser::waitFor</text>
<text text-anchor="middle" x="801.38" y="-842.84" font-family="Helvetica,sans-Serif" font-size="10.00">Event</text>
</a>
</g>
</g>
<!-- Node5&#45;&gt;Node6 -->
<g id="edge5_Node000005_Node000006" class="edge">
<title>Node5&#45;&gt;Node6</title>
<g id="a_edge5_Node000005_Node000006"><a xlink:title=" ">
<path fill="none" stroke="#63b8ff" d="M642.73,-852.34C665.92,-852.34 693.72,-852.34 719.46,-852.34"/>
<polygon fill="#63b8ff" stroke="#63b8ff" points="719.22,-855.84 729.22,-852.34 719.22,-848.84 719.22,-855.84"/>
</a>
</g>
</g>
<!-- Node9 -->
<g id="Node000009" class="node">
<title>Node9</title>
<g id="a_Node000009"><a xlink:href="../../d5/d72/classLSM1x0A__LoRaWAN.html#a59f781f3cfd30c11cd3973bcb10a7baa" target="_top" xlink:title="Initiates a LoRaWAN Network Join procedure. This is a blocking function until the module fires an eve...">
<polygon fill="white" stroke="#666666" points="867.12,-982.34 735.62,-982.34 735.62,-962.34 867.12,-962.34 867.12,-982.34"/>
<text text-anchor="middle" x="801.38" y="-968.84" font-family="Helvetica,sans-Serif" font-size="10.00">LSM1x0A_LoRaWAN::join</text>
</a>
</g>
</g>
<!-- Node8&#45;&gt;Node9 -->
<g id="edge8_Node000008_Node000009" class="edge">
<title>Node8&#45;&gt;Node9</title>
<g id="a_edge8_Node000008_Node000009"><a xlink:title=" ">
<path fill="none" stroke="#63b8ff" d="M664.04,-1000.89C688.63,-995.74 715.74,-990.07 739.26,-985.14"/>
<polygon fill="#63b8ff" stroke="#63b8ff" points="739.94,-988.57 749.01,-983.1 738.51,-981.72 739.94,-988.57"/>
</a>
</g>
</g>
<!-- Node9&#45;&gt;Node2 -->
<g id="edge11_Node000009_Node000002" class="edge">
<title>Node9&#45;&gt;Node2</title>
<g id="a_edge11_Node000009_Node000002"><a xlink:title=" ">
<path fill="none" stroke="#63b8ff" d="M786.28,-982.69C763.12,-998.98 714.92,-1029.93 668.5,-1041.34 600.09,-1058.16 574.07,-1070.62 510,-1041.34 422.31,-1001.28 410.38,-963.95 368,-877.34 297.13,-732.51 283.33,-534.44 280.65,-462.69"/>
<polygon fill="#63b8ff" stroke="#63b8ff" points="284.16,-462.94 280.34,-453.06 277.16,-463.16 284.16,-462.94"/>
</a>
</g>
</g>
<!-- Node9&#45;&gt;Node3 -->
<g id="edge10_Node000009_Node000003" class="edge">
<title>Node9&#45;&gt;Node3</title>
<g id="a_edge10_Node000009_Node000003"><a xlink:title=" ">
<path fill="none" stroke="#63b8ff" d="M735.28,-981.83C673.9,-987.71 580.97,-988.48 510,-953.34 476.99,-937 451.14,-902.22 436.23,-878.08"/>
<polygon fill="#63b8ff" stroke="#63b8ff" points="439.41,-876.57 431.29,-869.76 433.39,-880.15 439.41,-876.57"/>
</a>
</g>
</g>
<!-- Node9&#45;&gt;Node4 -->
<g id="edge9_Node000009_Node000004" class="edge">
<title>Node9&#45;&gt;Node4</title>
<g id="a_edge9_Node000009_Node000004"><a xlink:title=" ">
<path fill="none" stroke="#63b8ff" d="M839.93,-961.87C873.87,-952.4 924.53,-938.27 964.76,-927.05"/>
<polygon fill="#63b8ff" stroke="#63b8ff" points="965.65,-930.44 974.35,-924.38 963.77,-923.69 965.65,-930.44"/>
</a>
</g>
</g>
<!-- Node10 -->
<g id="Node000010" class="node">
<title>Node10</title>
<g id="a_Node000010"><a xlink:href="../../d5/d72/classLSM1x0A__LoRaWAN.html#a3fdd1ac318a5ad2559323e5d57e36a5e" target="_top" xlink:title="Enables or disables specific sub&#45;bands for regions supporting Channel Masks (e.g.,...">
<polygon fill="white" stroke="#666666" points="1124.25,-764.34 934.25,-764.34 934.25,-744.34 1124.25,-744.34 1124.25,-764.34"/>
<text text-anchor="middle" x="1029.25" y="-750.84" font-family="Helvetica,sans-Serif" font-size="10.00">LSM1x0A_LoRaWAN::setChannelMask</text>
</a>
</g>
</g>
<!-- Node9&#45;&gt;Node10 -->
<g id="edge12_Node000009_Node000010" class="edge">
<title>Node9&#45;&gt;Node10</title>
<g id="a_edge12_Node000009_Node000010"><a xlink:title=" ">
<path fill="none" stroke="#63b8ff" d="M812.97,-962.12C848.45,-927.87 963.49,-816.84 1009.24,-772.69"/>
<polygon fill="#63b8ff" stroke="#63b8ff" points="1011.56,-775.31 1016.33,-765.85 1006.7,-770.28 1011.56,-775.31"/>
</a>
</g>
</g>
<!-- Node11 -->
<g id="Node000011" class="node">
<title>Node11</title>
<g id="a_Node000011"><a xlink:href="../../d8/d92/classLSM1x0A__Controller.html#a62476e30e50c7fe120aeb8df4b828675" target="_top" xlink:title="Synchronously/blockingly waits for an asynchronous event to occur. Useful for wrapping commands like ...">
<polygon fill="white" stroke="#666666" points="1082.25,-988.34 976.25,-988.34 976.25,-956.34 1082.25,-956.34 1082.25,-988.34"/>
<text text-anchor="start" x="984.25" y="-974.84" font-family="Helvetica,sans-Serif" font-size="10.00">LSM1x0A_Controller</text>
<text text-anchor="middle" x="1029.25" y="-962.84" font-family="Helvetica,sans-Serif" font-size="10.00">::waitForEvent</text>
</a>
</g>
</g>
<!-- Node9&#45;&gt;Node11 -->
<g id="edge15_Node000009_Node000011" class="edge">
<title>Node9&#45;&gt;Node11</title>
<g id="a_edge15_Node000009_Node000011"><a xlink:title=" ">
<path fill="none" stroke="#63b8ff" d="M867.4,-972.34C897.91,-972.34 934.15,-972.34 964.49,-972.34"/>
<polygon fill="#63b8ff" stroke="#63b8ff" points="964.3,-975.84 974.3,-972.34 964.3,-968.84 964.3,-975.84"/>
</a>
</g>
</g>
<!-- Node10&#45;&gt;Node2 -->
<g id="edge14_Node000010_Node000002" class="edge">
<title>Node10&#45;&gt;Node2</title>
<g id="a_edge14_Node000010_Node000002"><a xlink:title=" ">
<path fill="none" stroke="#63b8ff" d="M933.96,-752.84C771.02,-748.19 446.61,-729.25 368,-652.34 313.83,-599.35 291.89,-508.47 283.96,-462.98"/>
<polygon fill="#63b8ff" stroke="#63b8ff" points="287.43,-462.48 282.37,-453.17 280.52,-463.61 287.43,-462.48"/>
</a>
</g>
</g>
<!-- Node10&#45;&gt;Node7 -->
<g id="edge13_Node000010_Node000007" class="edge">
<title>Node10&#45;&gt;Node7</title>
<g id="a_edge13_Node000010_Node000007"><a xlink:title=" ">
<path fill="none" stroke="#63b8ff" d="M1109.9,-764.82C1122.62,-766.5 1135.84,-768.23 1148.72,-769.93"/>
<polygon fill="#63b8ff" stroke="#63b8ff" points="1148.06,-773.37 1158.43,-771.21 1148.98,-766.43 1148.06,-773.37"/>
</a>
</g>
</g>
<!-- Node12&#45;&gt;Node1 -->
<g id="edge40_Node000012_Node000001" class="edge">
<title>Node12&#45;&gt;Node1</title>
<g id="a_edge40_Node000012_Node000001"><a xlink:title=" ">
<path fill="none" stroke="#63b8ff" d="M515.84,-367.78C432.94,-362.56 296.43,-353.97 201.67,-348"/>
<polygon fill="#63b8ff" stroke="#63b8ff" points="202.04,-344.52 191.84,-347.38 201.6,-351.5 202.04,-344.52"/>
</a>
</g>
</g>
<!-- Node12&#45;&gt;Node10 -->
<g id="edge21_Node000012_Node000010" class="edge">
<title>Node12&#45;&gt;Node10</title>
<g id="a_edge21_Node000012_Node000010"><a xlink:title=" ">
<path fill="none" stroke="#63b8ff" d="M662.78,-365C743.05,-358.61 865.44,-354.61 898.25,-385.34 952.73,-436.38 888.43,-660.41 934.25,-719.34 940.99,-728.02 950.12,-734.54 960.05,-739.45"/>
<polygon fill="#63b8ff" stroke="#63b8ff" points="958.66,-742.66 969.23,-743.4 961.43,-736.23 958.66,-742.66"/>
</a>
</g>
</g>
<!-- Node13 -->
<g id="Node000013" class="node">
<title>Node13</title>
<g id="a_Node000013"><a xlink:href="../../d5/d72/classLSM1x0A__LoRaWAN.html#af0baa3db4c7fab580d6b19a9e92472f6" target="_top" xlink:title="Enables or disables Adaptive Data Rate (ADR).">
<polygon fill="white" stroke="#666666" points="877.25,-540.34 725.5,-540.34 725.5,-520.34 877.25,-520.34 877.25,-540.34"/>
<text text-anchor="middle" x="801.38" y="-526.84" font-family="Helvetica,sans-Serif" font-size="10.00">LSM1x0A_LoRaWAN::setADR</text>
</a>
</g>
</g>
<!-- Node12&#45;&gt;Node13 -->
<g id="edge17_Node000012_Node000013" class="edge">
<title>Node12&#45;&gt;Node13</title>
<g id="a_edge17_Node000012_Node000013"><a xlink:title=" ">
<path fill="none" stroke="#63b8ff" d="M598.7,-388.75C614.9,-418.41 653.3,-480.71 704.5,-511.34 707.7,-513.26 711.06,-514.99 714.53,-516.55"/>
<polygon fill="#63b8ff" stroke="#63b8ff" points="713.21,-519.79 723.79,-520.17 715.76,-513.27 713.21,-519.79"/>
</a>
</g>
</g>
<!-- Node14 -->
<g id="Node000014" class="node">
<title>Node14</title>
<g id="a_Node000014"><a xlink:href="../../d5/d72/classLSM1x0A__LoRaWAN.html#a5365ed1596eb84ebf1e3b33b4a10c788" target="_top" xlink:title="Sets the LoRaWAN operational frequency band.">
<polygon fill="white" stroke="#666666" points="877.62,-502.34 725.12,-502.34 725.12,-482.34 877.62,-482.34 877.62,-502.34"/>
<text text-anchor="middle" x="801.38" y="-488.84" font-family="Helvetica,sans-Serif" font-size="10.00">LSM1x0A_LoRaWAN::setBand</text>
</a>
</g>
</g>
<!-- Node12&#45;&gt;Node14 -->
<g id="edge19_Node000012_Node000014" class="edge">
<title>Node12&#45;&gt;Node14</title>
<g id="a_edge19_Node000012_Node000014"><a xlink:title=" ">
<path fill="none" stroke="#63b8ff" d="M603.51,-388.55C623.1,-411.31 662.03,-452.32 704.5,-473.34 708.18,-475.16 712.01,-476.81 715.95,-478.3"/>
<polygon fill="#63b8ff" stroke="#63b8ff" points="714.52,-481.51 725.11,-481.4 716.76,-474.88 714.52,-481.51"/>
</a>
</g>
</g>
<!-- Node15 -->
<g id="Node000015" class="node">
<title>Node15</title>
<g id="a_Node000015"><a xlink:href="../../d5/d72/classLSM1x0A__LoRaWAN.html#a9d9285c43414337a0ccb3a6cd7ca06e6" target="_top" xlink:title="Configures the number of retries for Confirmed uplinks.">
<polygon fill="white" stroke="#666666" points="883.62,-464.34 719.12,-464.34 719.12,-432.34 883.62,-432.34 883.62,-464.34"/>
<text text-anchor="start" x="727.12" y="-450.84" font-family="Helvetica,sans-Serif" font-size="10.00">LSM1x0A_LoRaWAN::setConfirm</text>
<text text-anchor="middle" x="801.38" y="-438.84" font-family="Helvetica,sans-Serif" font-size="10.00">Retry</text>
</a>
</g>
</g>
<!-- Node12&#45;&gt;Node15 -->
<g id="edge22_Node000012_Node000015" class="edge">
<title>Node12&#45;&gt;Node15</title>
<g id="a_edge22_Node000012_Node000015"><a xlink:title=" ">
<path fill="none" stroke="#63b8ff" d="M623.16,-388.77C645.67,-399.58 676.42,-413.49 704.5,-423.34 709.79,-425.2 715.29,-426.99 720.86,-428.7"/>
<polygon fill="#63b8ff" stroke="#63b8ff" points="719.58,-431.97 730.16,-431.45 721.57,-425.26 719.58,-431.97"/>
</a>
</g>
</g>
<!-- Node16 -->
<g id="Node000016" class="node">
<title>Node16</title>
<g id="a_Node000016"><a xlink:href="../../d5/d72/classLSM1x0A__LoRaWAN.html#a56345ceeafa0b9059d6de4e69eddc82e" target="_top" xlink:title="Sets the Data Rate (DR) of the module.">
<polygon fill="white" stroke="#666666" points="887.38,-414.34 715.38,-414.34 715.38,-394.34 887.38,-394.34 887.38,-414.34"/>
<text text-anchor="middle" x="801.38" y="-400.84" font-family="Helvetica,sans-Serif" font-size="10.00">LSM1x0A_LoRaWAN::setDataRate</text>
</a>
</g>
</g>
<!-- Node12&#45;&gt;Node16 -->
<g id="edge24_Node000012_Node000016" class="edge">
<title>Node12&#45;&gt;Node16</title>
<g id="a_edge24_Node000012_Node000016"><a xlink:title=" ">
<path fill="none" stroke="#63b8ff" d="M662.86,-383.4C681.41,-386.23 701.47,-389.28 720.37,-392.16"/>
<polygon fill="#63b8ff" stroke="#63b8ff" points="719.75,-395.61 730.16,-393.65 720.8,-388.69 719.75,-395.61"/>
</a>
</g>
</g>
<!-- Node17 -->
<g id="Node000017" class="node">
<title>Node17</title>
<g id="a_Node000017"><a xlink:href="../../d5/d72/classLSM1x0A__LoRaWAN.html#a8494083816ab885cb07fc3b08de029f4" target="_top" xlink:title="Sets the LoRaWAN Device Address (DevAddr) for ABP mode.">
<polygon fill="white" stroke="#666666" points="885.5,-338.34 717.25,-338.34 717.25,-318.34 885.5,-318.34 885.5,-338.34"/>
<text text-anchor="middle" x="801.38" y="-324.84" font-family="Helvetica,sans-Serif" font-size="10.00">LSM1x0A_LoRaWAN::setDevAddr</text>
</a>
</g>
</g>
<!-- Node12&#45;&gt;Node17 -->
<g id="edge26_Node000012_Node000017" class="edge">
<title>Node12&#45;&gt;Node17</title>
<g id="a_edge26_Node000012_Node000017"><a xlink:title=" ">
<path fill="none" stroke="#63b8ff" d="M662.86,-357.14C687.74,-351.93 715.32,-346.15 739.21,-341.15"/>
<polygon fill="#63b8ff" stroke="#63b8ff" points="739.7,-344.63 748.77,-339.15 738.27,-337.77 739.7,-344.63"/>
</a>
</g>
</g>
<!-- Node18 -->
<g id="Node000018" class="node">
<title>Node18</title>
<g id="a_Node000018"><a xlink:href="../../d5/d72/classLSM1x0A__LoRaWAN.html#ad320634e52d7ea907043cc50dd37c5b0" target="_top" xlink:title="Sets the LoRaWAN Device EUI (DevEUI).">
<polygon fill="white" stroke="#666666" points="884,-300.34 718.75,-300.34 718.75,-280.34 884,-280.34 884,-300.34"/>
<text text-anchor="middle" x="801.38" y="-286.84" font-family="Helvetica,sans-Serif" font-size="10.00">LSM1x0A_LoRaWAN::setDevEUI</text>
</a>
</g>
</g>
<!-- Node12&#45;&gt;Node18 -->
<g id="edge28_Node000012_Node000018" class="edge">
<title>Node12&#45;&gt;Node18</title>
<g id="a_edge28_Node000012_Node000018"><a xlink:title=" ">
<path fill="none" stroke="#63b8ff" d="M614.6,-356C637.04,-341.67 671.73,-321.3 704.5,-309.34 710.28,-307.24 716.34,-305.34 722.5,-303.65"/>
<polygon fill="#63b8ff" stroke="#63b8ff" points="723.34,-307.05 732.16,-301.18 721.61,-300.26 723.34,-307.05"/>
</a>
</g>
</g>
<!-- Node19 -->
<g id="Node000019" class="node">
<title>Node19</title>
<g id="a_Node000019"><a xlink:href="../../d5/d72/classLSM1x0A__LoRaWAN.html#a031023b0d2dd5db3c51c2db6ae7801cc" target="_top" xlink:title="Enables or disables the Duty Cycle limitation (EU regions mostly).">
<polygon fill="white" stroke="#666666" points="876.88,-262.34 725.88,-262.34 725.88,-230.34 876.88,-230.34 876.88,-262.34"/>
<text text-anchor="start" x="733.88" y="-248.84" font-family="Helvetica,sans-Serif" font-size="10.00">LSM1x0A_LoRaWAN::setDuty</text>
<text text-anchor="middle" x="801.38" y="-236.84" font-family="Helvetica,sans-Serif" font-size="10.00">Cycle</text>
</a>
</g>
</g>
<!-- Node12&#45;&gt;Node19 -->
<g id="edge30_Node000012_Node000019" class="edge">
<title>Node12&#45;&gt;Node19</title>
<g id="a_edge30_Node000012_Node000019"><a xlink:title=" ">
<path fill="none" stroke="#63b8ff" d="M604.02,-356.1C623.92,-333.68 662.91,-293.5 704.5,-271.34 707.91,-269.53 711.45,-267.84 715.08,-266.27"/>
<polygon fill="#63b8ff" stroke="#63b8ff" points="716.09,-269.64 724.11,-262.71 713.52,-263.13 716.09,-269.64"/>
</a>
</g>
</g>
<!-- Node20 -->
<g id="Node000020" class="node">
<title>Node20</title>
<g id="a_Node000020"><a xlink:href="../../d5/d72/classLSM1x0A__LoRaWAN.html#a6b179d5825c49af0f391dfc539912f64" target="_top" xlink:title="Sets the delay for the Join1 receive window.">
<polygon fill="white" stroke="#666666" points="878,-212.34 724.75,-212.34 724.75,-180.34 878,-180.34 878,-212.34"/>
<text text-anchor="start" x="732.75" y="-198.84" font-family="Helvetica,sans-Serif" font-size="10.00">LSM1x0A_LoRaWAN::setJoin1</text>
<text text-anchor="middle" x="801.38" y="-186.84" font-family="Helvetica,sans-Serif" font-size="10.00">Delay</text>
</a>
</g>
</g>
<!-- Node12&#45;&gt;Node20 -->
<g id="edge32_Node000012_Node000020" class="edge">
<title>Node12&#45;&gt;Node20</title>
<g id="a_edge32_Node000012_Node000020"><a xlink:title=" ">
<path fill="none" stroke="#63b8ff" d="M597.78,-356.3C613.2,-325.22 651.47,-256.78 704.5,-221.34 707.57,-219.29 710.81,-217.4 714.16,-215.67"/>
<polygon fill="#63b8ff" stroke="#63b8ff" points="715.48,-218.92 723.1,-211.56 712.56,-212.56 715.48,-218.92"/>
</a>
</g>
</g>
<!-- Node21 -->
<g id="Node000021" class="node">
<title>Node21</title>
<g id="a_Node000021"><a xlink:href="../../d5/d72/classLSM1x0A__LoRaWAN.html#a4545d0caad41558cdb9bae8286b104d8" target="_top" xlink:title="Sets the delay for the Join2 receive window.">
<polygon fill="white" stroke="#666666" points="878,-162.34 724.75,-162.34 724.75,-130.34 878,-130.34 878,-162.34"/>
<text text-anchor="start" x="732.75" y="-148.84" font-family="Helvetica,sans-Serif" font-size="10.00">LSM1x0A_LoRaWAN::setJoin2</text>
<text text-anchor="middle" x="801.38" y="-136.84" font-family="Helvetica,sans-Serif" font-size="10.00">Delay</text>
</a>
</g>
</g>
<!-- Node12&#45;&gt;Node21 -->
<g id="edge34_Node000012_Node000021" class="edge">
<title>Node12&#45;&gt;Node21</title>
<g id="a_edge34_Node000012_Node000021"><a xlink:title=" ">
<path fill="none" stroke="#63b8ff" d="M594.77,-355.88C606.23,-317.31 640.17,-220.7 704.5,-171.34 707.6,-168.97 710.9,-166.82 714.34,-164.87"/>
<polygon fill="#63b8ff" stroke="#63b8ff" points="715.61,-168.15 723.02,-160.57 712.51,-161.87 715.61,-168.15"/>
</a>
</g>
</g>
<!-- Node22 -->
<g id="Node000022" class="node">
<title>Node22</title>
<g id="a_Node000022"><a xlink:href="../../d5/d72/classLSM1x0A__LoRaWAN.html#a06bd50723ec1eb7e144c9141b2ec86fc" target="_top" xlink:title="Sets the LoRaWAN Network ID (NetID).">
<polygon fill="white" stroke="#666666" points="881.75,-112.34 721,-112.34 721,-92.34 881.75,-92.34 881.75,-112.34"/>
<text text-anchor="middle" x="801.38" y="-98.84" font-family="Helvetica,sans-Serif" font-size="10.00">LSM1x0A_LoRaWAN::setNwkID</text>
</a>
</g>
</g>
<!-- Node12&#45;&gt;Node22 -->
<g id="edge36_Node000012_Node000022" class="edge">
<title>Node12&#45;&gt;Node22</title>
<g id="a_edge36_Node000012_Node000022"><a xlink:title=" ">
<path fill="none" stroke="#63b8ff" d="M592.51,-356.03C599.67,-310.84 626.23,-183.31 704.5,-121.34 706.5,-119.76 708.6,-118.3 710.77,-116.95"/>
<polygon fill="#63b8ff" stroke="#63b8ff" points="712.17,-120.16 719.4,-112.42 708.92,-113.97 712.17,-120.16"/>
</a>
</g>
</g>
<!-- Node23 -->
<g id="Node000023" class="node">
<title>Node23</title>
<g id="a_Node000023"><a xlink:href="../../d5/d72/classLSM1x0A__LoRaWAN.html#aa70ada64d28ecca216bb62268e502adf" target="_top" xlink:title="Sets the delay for the RX1 receive window.">
<polygon fill="white" stroke="#666666" points="888.12,-74.34 714.62,-74.34 714.62,-54.34 888.12,-54.34 888.12,-74.34"/>
<text text-anchor="middle" x="801.38" y="-60.84" font-family="Helvetica,sans-Serif" font-size="10.00">LSM1x0A_LoRaWAN::setRx1Delay</text>
</a>
</g>
</g>
<!-- Node12&#45;&gt;Node23 -->
<g id="edge38_Node000012_Node000023" class="edge">
<title>Node12&#45;&gt;Node23</title>
<g id="a_edge38_Node000012_Node000023"><a xlink:title=" ">
<path fill="none" stroke="#63b8ff" d="M591.43,-356.16C595.95,-306.72 616.65,-156.59 704.5,-83.34 705.64,-82.4 706.81,-81.49 708.01,-80.63"/>
<polygon fill="#63b8ff" stroke="#63b8ff" points="709.68,-83.71 716.44,-75.55 706.07,-77.71 709.68,-83.71"/>
</a>
</g>
</g>
<!-- Node24 -->
<g id="Node000024" class="node">
<title>Node24</title>
<g id="a_Node000024"><a xlink:href="../../d5/d72/classLSM1x0A__LoRaWAN.html#a42d2137b475b57e19d891a5f1ac93221" target="_top" xlink:title="Sets the delay for the RX2 receive window.">
<polygon fill="white" stroke="#666666" points="888.12,-36.34 714.62,-36.34 714.62,-16.34 888.12,-16.34 888.12,-36.34"/>
<text text-anchor="middle" x="801.38" y="-22.84" font-family="Helvetica,sans-Serif" font-size="10.00">LSM1x0A_LoRaWAN::setRx2Delay</text>
</a>
</g>
</g>
<!-- Node12&#45;&gt;Node24 -->
<g id="edge41_Node000012_Node000024" class="edge">
<title>Node12&#45;&gt;Node24</title>
<g id="a_edge41_Node000012_Node000024"><a xlink:title=" ">
<path fill="none" stroke="#63b8ff" d="M590.61,-356.02C592.71,-302.34 607.11,-129.93 704.5,-45.34 705.46,-44.51 706.45,-43.71 707.46,-42.94"/>
<polygon fill="#63b8ff" stroke="#63b8ff" points="709.27,-45.93 715.85,-37.63 705.53,-40.02 709.27,-45.93"/>
</a>
</g>
</g>
<!-- Node25 -->
<g id="Node000025" class="node">
<title>Node25</title>
<g id="a_Node000025"><a xlink:href="../../d5/d72/classLSM1x0A__LoRaWAN.html#a689f7dfda1dfeae11ea397c2ddf2ad37" target="_top" xlink:title="Sets the precise frequency for the RX2 window.">
<polygon fill="white" stroke="#666666" points="898.25,-666.34 704.5,-666.34 704.5,-646.34 898.25,-646.34 898.25,-666.34"/>
<text text-anchor="middle" x="801.38" y="-652.84" font-family="Helvetica,sans-Serif" font-size="10.00">LSM1x0A_LoRaWAN::setRx2Frequency</text>
</a>
</g>
</g>
<!-- Node12&#45;&gt;Node25 -->
<g id="edge43_Node000012_Node000025" class="edge">
<title>Node12&#45;&gt;Node25</title>
<g id="a_edge43_Node000012_Node000025"><a xlink:title=" ">
<path fill="none" stroke="#63b8ff" d="M592.06,-388.53C598.21,-435.26 622.67,-571.21 704.5,-637.34 705.82,-638.41 707.18,-639.42 708.58,-640.38"/>
<polygon fill="#63b8ff" stroke="#63b8ff" points="706.6,-643.28 717.01,-645.24 710.1,-637.22 706.6,-643.28"/>
</a>
</g>
</g>
<!-- Node26 -->
<g id="Node000026" class="node">
<title>Node26</title>
<g id="a_Node000026"><a xlink:href="../../d5/d72/classLSM1x0A__LoRaWAN.html#a1df10d7ae6bf45b537d28d3d5c4b88d7" target="_top" xlink:title="Sets the transmission power index.">
<polygon fill="white" stroke="#666666" points="885.88,-628.34 716.88,-628.34 716.88,-608.34 885.88,-608.34 885.88,-628.34"/>
<text text-anchor="middle" x="801.38" y="-614.84" font-family="Helvetica,sans-Serif" font-size="10.00">LSM1x0A_LoRaWAN::setTxPower</text>
</a>
</g>
</g>
<!-- Node12&#45;&gt;Node26 -->
<g id="edge45_Node000012_Node000026" class="edge">
<title>Node12&#45;&gt;Node26</title>
<g id="a_edge45_Node000012_Node000026"><a xlink:title=" ">
<path fill="none" stroke="#63b8ff" d="M593.34,-388.64C602.26,-430.87 632.15,-544.34 704.5,-599.34 706.03,-600.51 707.62,-601.61 709.25,-602.65"/>
<polygon fill="#63b8ff" stroke="#63b8ff" points="707.22,-605.53 717.68,-607.21 710.55,-599.37 707.22,-605.53"/>
</a>
</g>
</g>
<!-- Node27 -->
<g id="Node000027" class="node">
<title>Node27</title>
<g id="a_Node000027"><a xlink:href="../../d5/d72/classLSM1x0A__LoRaWAN.html#a059fd6a9356c4ecadd5a98294da5952d" target="_top" xlink:title="Configures the number of repetitions for Unconfirmed uplinks.">
<polygon fill="white" stroke="#666666" points="888.88,-590.34 713.88,-590.34 713.88,-558.34 888.88,-558.34 888.88,-590.34"/>
<text text-anchor="start" x="721.88" y="-576.84" font-family="Helvetica,sans-Serif" font-size="10.00">LSM1x0A_LoRaWAN::setUnconfirm</text>
<text text-anchor="middle" x="801.38" y="-564.84" font-family="Helvetica,sans-Serif" font-size="10.00">Retry</text>
</a>
</g>
</g>
<!-- Node12&#45;&gt;Node27 -->
<g id="edge47_Node000012_Node000027" class="edge">
<title>Node12&#45;&gt;Node27</title>
<g id="a_edge47_Node000012_Node000027"><a xlink:title=" ">
<path fill="none" stroke="#63b8ff" d="M596.05,-388.68C609.39,-423.81 645.68,-506.79 704.5,-549.34 706.08,-550.49 707.71,-551.58 709.38,-552.62"/>
<polygon fill="#63b8ff" stroke="#63b8ff" points="707.56,-555.61 718.01,-557.33 710.91,-549.47 707.56,-555.61"/>
</a>
</g>
</g>
<!-- Node13&#45;&gt;Node2 -->
<g id="edge18_Node000013_Node000002" class="edge">
<title>Node13&#45;&gt;Node2</title>
<g id="a_edge18_Node000013_Node000002"><a xlink:title=" ">
<path fill="none" stroke="#63b8ff" d="M725.3,-526.74C638.07,-521.12 490.43,-507.14 368,-473.34 352.79,-469.14 336.77,-462.84 322.63,-456.57"/>
<polygon fill="#63b8ff" stroke="#63b8ff" points="324.16,-453.42 313.61,-452.45 321.25,-459.79 324.16,-453.42"/>
</a>
</g>
</g>
<!-- Node14&#45;&gt;Node2 -->
<g id="edge20_Node000014_Node000002" class="edge">
<title>Node14&#45;&gt;Node2</title>
<g id="a_edge20_Node000014_Node000002"><a xlink:title=" ">
<path fill="none" stroke="#63b8ff" d="M724.7,-488.09C638.15,-482.63 492.34,-471.61 368,-453.34 360.04,-452.18 351.72,-450.75 343.51,-449.21"/>
<polygon fill="#63b8ff" stroke="#63b8ff" points="344.38,-445.82 333.9,-447.35 343.05,-452.69 344.38,-445.82"/>
</a>
</g>
</g>
<!-- Node15&#45;&gt;Node2 -->
<g id="edge23_Node000015_Node000002" class="edge">
<title>Node15&#45;&gt;Node2</title>
<g id="a_edge23_Node000015_Node000002"><a xlink:title=" ">
<path fill="none" stroke="#63b8ff" d="M718.85,-446.31C615.09,-443.72 438.03,-439.29 343.65,-436.93"/>
<polygon fill="#63b8ff" stroke="#63b8ff" points="343.88,-433.44 333.79,-436.69 343.7,-440.44 343.88,-433.44"/>
</a>
</g>
</g>
<!-- Node16&#45;&gt;Node2 -->
<g id="edge25_Node000016_Node000002" class="edge">
<title>Node16&#45;&gt;Node2</title>
<g id="a_edge25_Node000016_Node000002"><a xlink:title=" ">
<path fill="none" stroke="#63b8ff" d="M715.14,-409.42C610.86,-415.63 436.74,-426.01 343.51,-431.56"/>
<polygon fill="#63b8ff" stroke="#63b8ff" points="343.56,-428.05 333.79,-432.14 343.98,-435.04 343.56,-428.05"/>
</a>
</g>
</g>
<!-- Node17&#45;&gt;Node2 -->
<g id="edge27_Node000017_Node000002" class="edge">
<title>Node17&#45;&gt;Node2</title>
<g id="a_edge27_Node000017_Node000002"><a xlink:title=" ">
<path fill="none" stroke="#63b8ff" d="M716.84,-327.22C658.31,-328.02 578.6,-332.34 510,-347.34 442.72,-362.06 369.04,-393.1 323.66,-414.09"/>
<polygon fill="#63b8ff" stroke="#63b8ff" points="322.25,-410.89 314.68,-418.29 325.22,-417.23 322.25,-410.89"/>
</a>
</g>
</g>
<!-- Node18&#45;&gt;Node2 -->
<g id="edge29_Node000018_Node000002" class="edge">
<title>Node18&#45;&gt;Node2</title>
<g id="a_edge29_Node000018_Node000002"><a xlink:title=" ">
<path fill="none" stroke="#63b8ff" d="M718.31,-286.57C627.6,-285.82 479.58,-294.9 368,-352.34 340.72,-366.39 315.92,-391.43 299.65,-410.35"/>
<polygon fill="#63b8ff" stroke="#63b8ff" points="297.06,-407.99 293.34,-417.91 302.44,-412.47 297.06,-407.99"/>
</a>
</g>
</g>
<!-- Node19&#45;&gt;Node2 -->
<g id="edge31_Node000019_Node000002" class="edge">
<title>Node19&#45;&gt;Node2</title>
<g id="a_edge31_Node000019_Node000002"><a xlink:title=" ">
<path fill="none" stroke="#63b8ff" d="M725.5,-239.59C633.8,-235.08 477.22,-239.93 368,-310.34 331.01,-334.19 305.02,-379.59 291.3,-408.61"/>
<polygon fill="#63b8ff" stroke="#63b8ff" points="288.22,-406.93 287.27,-417.48 294.59,-409.82 288.22,-406.93"/>
</a>
</g>
</g>
<!-- Node20&#45;&gt;Node2 -->
<g id="edge33_Node000020_Node000002" class="edge">
<title>Node20&#45;&gt;Node2</title>
<g id="a_edge33_Node000020_Node000002"><a xlink:title=" ">
<path fill="none" stroke="#63b8ff" d="M724.55,-187.36C631.17,-180.48 472.16,-182.94 368,-261.34 319.35,-297.97 295.62,-369.04 285.81,-408.06"/>
<polygon fill="#63b8ff" stroke="#63b8ff" points="282.45,-407.06 283.55,-417.6 289.26,-408.67 282.45,-407.06"/>
</a>
</g>
</g>
<!-- Node21&#45;&gt;Node2 -->
<g id="edge35_Node000021_Node000002" class="edge">
<title>Node21&#45;&gt;Node2</title>
<g id="a_edge35_Node000021_Node000002"><a xlink:title=" ">
<path fill="none" stroke="#63b8ff" d="M724.65,-134.65C630.26,-124.53 469.09,-122.52 368,-205.34 305.04,-256.92 287.06,-358.98 281.97,-407.91"/>
<polygon fill="#63b8ff" stroke="#63b8ff" points="278.51,-407.36 281.08,-417.64 285.48,-408 278.51,-407.36"/>
</a>
</g>
</g>
<!-- Node22&#45;&gt;Node2 -->
<g id="edge37_Node000022_Node000002" class="edge">
<title>Node22&#45;&gt;Node2</title>
<g id="a_edge37_Node000022_Node000002"><a xlink:title=" ">
<path fill="none" stroke="#63b8ff" d="M720.84,-100.28C610.56,-99.14 419,-103.89 368,-148.34 290.59,-215.82 280.21,-349.45 279.54,-407.42"/>
<polygon fill="#63b8ff" stroke="#63b8ff" points="276.04,-407.39 279.52,-417.39 283.04,-407.4 276.04,-407.39"/>
</a>
</g>
</g>
<!-- Node23&#45;&gt;Node2 -->
<g id="edge39_Node000023_Node000002" class="edge">
<title>Node23&#45;&gt;Node2</title>
<g id="a_edge39_Node000023_Node000002"><a xlink:title=" ">
<path fill="none" stroke="#63b8ff" d="M714.43,-62.16C603.44,-61.18 418.49,-66.35 368,-109.34 321.91,-148.6 292.91,-336.73 283.42,-407.95"/>
<polygon fill="#63b8ff" stroke="#63b8ff" points="279.99,-407.21 282.17,-417.58 286.93,-408.12 279.99,-407.21"/>
</a>
</g>
</g>
<!-- Node24&#45;&gt;Node2 -->
<g id="edge42_Node000024_Node000002" class="edge">
<title>Node24&#45;&gt;Node2</title>
<g id="a_edge42_Node000024_Node000002"><a xlink:title=" ">
<path fill="none" stroke="#63b8ff" d="M755.3,-15.89C668.7,1.31 477.92,24.8 368,-71.34 316.79,-116.14 290.49,-331 282.6,-407.9"/>
<polygon fill="#63b8ff" stroke="#63b8ff" points="279.16,-407.2 281.65,-417.5 286.12,-407.9 279.16,-407.2"/>
</a>
</g>
</g>
<!-- Node25&#45;&gt;Node2 -->
<g id="edge44_Node000025_Node000002" class="edge">
<title>Node25&#45;&gt;Node2</title>
<g id="a_edge44_Node000025_Node000002"><a xlink:title=" ">
<path fill="none" stroke="#63b8ff" d="M704.17,-659.66C609.41,-658.04 465.14,-641.86 368,-567.34 331.57,-539.4 305.27,-491.87 291.35,-462.12"/>
<polygon fill="#63b8ff" stroke="#63b8ff" points="294.56,-460.72 287.26,-453.05 288.18,-463.6 294.56,-460.72"/>
</a>
</g>
</g>
<!-- Node26&#45;&gt;Node2 -->
<g id="edge46_Node000026_Node000002" class="edge">
<title>Node26&#45;&gt;Node2</title>
<g id="a_edge46_Node000026_Node000002"><a xlink:title=" ">
<path fill="none" stroke="#63b8ff" d="M716.68,-617.78C624.87,-613.6 476.19,-596.06 368,-530.34 338.84,-512.63 313.33,-482.54 297.39,-460.96"/>
<polygon fill="#63b8ff" stroke="#63b8ff" points="300.31,-459.04 291.64,-452.95 294.63,-463.12 300.31,-459.04"/>
</a>
</g>
</g>
<!-- Node27&#45;&gt;Node2 -->
<g id="edge48_Node000027_Node000002" class="edge">
<title>Node27&#45;&gt;Node2</title>
<g id="a_edge48_Node000027_Node000002"><a xlink:title=" ">
<path fill="none" stroke="#63b8ff" d="M713.72,-570.92C623.93,-564.7 481.16,-547.26 368,-498.34 345.44,-488.59 322.97,-472.36 306.38,-458.82"/>
<polygon fill="#63b8ff" stroke="#63b8ff" points="308.87,-456.35 298.96,-452.6 304.37,-461.71 308.87,-456.35"/>
</a>
</g>
</g>
<!-- Node29&#45;&gt;Node30 -->
<g id="edge51_Node000029_Node000030" class="edge">
<title>Node29&#45;&gt;Node30</title>
<g id="a_edge51_Node000029_Node000030"><a xlink:title=" ">
<path fill="none" stroke="#63b8ff" d="M639.51,-747.93C675.64,-735.9 724.15,-719.74 758.43,-708.32"/>
<polygon fill="#63b8ff" stroke="#63b8ff" points="759.2,-711.75 767.59,-705.27 756.99,-705.11 759.2,-711.75"/>
</a>
</g>
</g>
<!-- Node31 -->
<g id="Node000031" class="node">
<title>Node31</title>
<g id="a_Node000031"><a xlink:href="../../d6/d3c/classLSM1x0A__AtParser.html#a0ba6f927c54fceece22c17773d3f2600" target="_top" xlink:title="Sends a command and extracts a value from the response.">
<polygon fill="white" stroke="#666666" points="1116.38,-710.34 942.12,-710.34 942.12,-678.34 1116.38,-678.34 1116.38,-710.34"/>
<text text-anchor="start" x="950.12" y="-696.84" font-family="Helvetica,sans-Serif" font-size="10.00">LSM1x0A_AtParser::sendCommand</text>
<text text-anchor="middle" x="1029.25" y="-684.84" font-family="Helvetica,sans-Serif" font-size="10.00">WithResponse</text>
</a>
</g>
</g>
<!-- Node30&#45;&gt;Node31 -->
<g id="edge52_Node000030_Node000031" class="edge">
<title>Node30&#45;&gt;Node31</title>
<g id="a_edge52_Node000030_Node000031"><a xlink:title=" ">
<path fill="none" stroke="#63b8ff" d="M888.74,-694.34C902.49,-694.34 916.81,-694.34 930.8,-694.34"/>
<polygon fill="#63b8ff" stroke="#63b8ff" points="930.42,-697.84 940.42,-694.34 930.42,-690.84 930.42,-697.84"/>
</a>
</g>
</g>
<!-- Node32 -->
<g id="Node000032" class="node">
<title>Node32</title>
<g id="a_Node000032"><a xlink:href="../../d5/d8b/classUartDriver.html#a5d0f22e8867eebe99273078bb19bd23d" target="_top" xlink:title="Sends data through UART.">
<polygon fill="white" stroke="#666666" points="1291,-704.34 1182,-704.34 1182,-684.34 1291,-684.34 1291,-704.34"/>
<text text-anchor="middle" x="1236.5" y="-690.84" font-family="Helvetica,sans-Serif" font-size="10.00">UartDriver::sendData</text>
</a>
</g>
</g>
<!-- Node31&#45;&gt;Node32 -->
<g id="edge53_Node000031_Node000032" class="edge">
<title>Node31&#45;&gt;Node32</title>
<g id="a_edge53_Node000031_Node000032"><a xlink:title=" ">
<path fill="none" stroke="#63b8ff" d="M1116.7,-694.34C1134.59,-694.34 1153.16,-694.34 1170.14,-694.34"/>
<polygon fill="#63b8ff" stroke="#63b8ff" points="1170.11,-697.84 1180.11,-694.34 1170.11,-690.84 1170.11,-697.84"/>
</a>
</g>
</g>
</g>
</svg>
