<?xml version="1.0" encoding="UTF-8" standalone="no"?>
<!DOCTYPE svg PUBLIC "-//W3C//DTD SVG 1.1//EN"
 "http://www.w3.org/Graphics/SVG/1.1/DTD/svg11.dtd">
<!-- Generated by graphviz version 12.2.1 (20241206.2353)
 -->
<!-- Title: LSM1x0A_LoRaWAN::getBaudrate Pages: 1 -->
<svg width="1868pt" height="1018pt"
 viewBox="0.00 0.00 1868.25 1018.48" xmlns="http://www.w3.org/2000/svg" xmlns:xlink="http://www.w3.org/1999/xlink">
<g id="graph0" class="graph" transform="scale(1 1) rotate(0) translate(4 1014.48)">
<title>LSM1x0A_LoRaWAN::getBaudrate</title>
<!-- Node1 -->
<g id="Node000001" class="node">
<title>Node1</title>
<g id="a_Node000001"><a xlink:title="Gets the current baudrate configured in the module.">
<polygon fill="#999999" stroke="#666666" points="169,-98 0,-98 0,-78 169,-78 169,-98"/>
<text text-anchor="middle" x="84.5" y="-84.5" font-family="Helvetica,sans-Serif" font-size="10.00">LSM1x0A_LoRaWAN::getBaudrate</text>
</a>
</g>
</g>
<!-- Node2 -->
<g id="Node000002" class="node">
<title>Node2</title>
<g id="a_Node000002"><a xlink:href="../../d8/d92/classLSM1x0A__Controller.html#ab00328d1be83aa51bce8c2a4f907c5f4" target="_top" xlink:title="Sends an AT command and captures its response in a text block. Ideal for getters (e....">
<polygon fill="white" stroke="#666666" points="357.5,-104 205,-104 205,-72 357.5,-72 357.5,-104"/>
<text text-anchor="start" x="213" y="-90.5" font-family="Helvetica,sans-Serif" font-size="10.00">LSM1x0A_Controller</text>
<text text-anchor="middle" x="281.25" y="-78.5" font-family="Helvetica,sans-Serif" font-size="10.00">::sendCommandWithResponse</text>
</a>
</g>
</g>
<!-- Node1&#45;&gt;Node2 -->
<g id="edge1_Node000001_Node000002" class="edge">
<title>Node1&#45;&gt;Node2</title>
<g id="a_edge1_Node000001_Node000002"><a xlink:title=" ">
<path fill="none" stroke="#63b8ff" d="M169.22,-88C177.21,-88 185.32,-88 193.34,-88"/>
<polygon fill="#63b8ff" stroke="#63b8ff" points="193.08,-91.5 203.08,-88 193.08,-84.5 193.08,-91.5"/>
</a>
</g>
</g>
<!-- Node3 -->
<g id="Node000003" class="node">
<title>Node3</title>
<g id="a_Node000003"><a xlink:href="../../d8/d92/classLSM1x0A__Controller.html#abb0eb380daa3dfb7acffb483c5db8e2b" target="_top" xlink:title="Executes the recovery protocol. First Soft&#45;Reset (ATZ), then Hard&#45;Reset if there is a pin.">
<polygon fill="white" stroke="#666666" points="499.5,-214 393.5,-214 393.5,-182 499.5,-182 499.5,-214"/>
<text text-anchor="start" x="401.5" y="-200.5" font-family="Helvetica,sans-Serif" font-size="10.00">LSM1x0A_Controller</text>
<text text-anchor="middle" x="446.5" y="-188.5" font-family="Helvetica,sans-Serif" font-size="10.00">::recoverModule</text>
</a>
</g>
</g>
<!-- Node2&#45;&gt;Node3 -->
<g id="edge2_Node000002_Node000003" class="edge">
<title>Node2&#45;&gt;Node3</title>
<g id="a_edge2_Node000002_Node000003"><a xlink:title=" ">
<path fill="none" stroke="#63b8ff" d="M306.69,-104.47C334.66,-123.32 380.64,-154.29 411.95,-175.39"/>
<polygon fill="#63b8ff" stroke="#63b8ff" points="409.66,-178.07 419.9,-180.75 413.57,-172.26 409.66,-178.07"/>
</a>
</g>
</g>
<!-- Node12 -->
<g id="Node000012" class="node">
<title>Node12</title>
<g id="a_Node000012"><a xlink:href="../../d6/d3c/classLSM1x0A__AtParser.html#a0ba6f927c54fceece22c17773d3f2600" target="_top" xlink:title="Sends a command and extracts a value from the response.">
<polygon fill="white" stroke="#666666" points="1715.25,-287 1541,-287 1541,-255 1715.25,-255 1715.25,-287"/>
<text text-anchor="start" x="1549" y="-273.5" font-family="Helvetica,sans-Serif" font-size="10.00">LSM1x0A_AtParser::sendCommand</text>
<text text-anchor="middle" x="1628.12" y="-261.5" font-family="Helvetica,sans-Serif" font-size="10.00">WithResponse</text>
</a>
</g>
</g>
<!-- Node2&#45;&gt;Node12 -->
<g id="edge57_Node000002_Node000012" class="edge">
<title>Node2&#45;&gt;Node12</title>
<g id="a_edge57_Node000002_Node000012"><a xlink:title=" ">
<path fill="none" stroke="#63b8ff" d="M318.69,-71.65C378.86,-46.21 503.29,0 613.75,0 613.75,0 613.75,0 1219.5,0 1396.44,0 1555.2,-179.26 1608.31,-246.19"/>
<polygon fill="#63b8ff" stroke="#63b8ff" points="1605.24,-247.95 1614.16,-253.67 1610.75,-243.64 1605.24,-247.95"/>
</a>
</g>
</g>
<!-- Node4 -->
<g id="Node000004" class="node">
<title>Node4</title>
<g id="a_Node000004"><a xlink:href="../../d8/d92/classLSM1x0A__Controller.html#a3f6f25b843fe4fb7042c544deae2ab16" target="_top" xlink:title="Manually clears bits from the internal EventGroup.">
<polygon fill="white" stroke="#666666" points="1062.38,-98 956.38,-98 956.38,-66 1062.38,-66 1062.38,-98"/>
<text text-anchor="start" x="964.38" y="-84.5" font-family="Helvetica,sans-Serif" font-size="10.00">LSM1x0A_Controller</text>
<text text-anchor="middle" x="1009.38" y="-72.5" font-family="Helvetica,sans-Serif" font-size="10.00">::clearEvents</text>
</a>
</g>
</g>
<!-- Node3&#45;&gt;Node4 -->
<g id="edge3_Node000003_Node000004" class="edge">
<title>Node3&#45;&gt;Node4</title>
<g id="a_edge3_Node000003_Node000004"><a xlink:title=" ">
<path fill="none" stroke="#63b8ff" d="M472.18,-181.53C489.23,-171 512.84,-158.03 535.5,-151 681.15,-105.82 726.23,-138.94 876.5,-113 899,-109.12 923.4,-103.72 945.02,-98.52"/>
<polygon fill="#63b8ff" stroke="#63b8ff" points="945.7,-101.96 954.58,-96.18 944.03,-95.16 945.7,-101.96"/>
</a>
</g>
</g>
<!-- Node5 -->
<g id="Node000005" class="node">
<title>Node5</title>
<g id="a_Node000005"><a xlink:href="../../d8/d92/classLSM1x0A__Controller.html#a345d4bd79fa16b18dc33a4ca788fe5f7" target="_top" xlink:title="Performs a hardware reset using the reset pin.">
<polygon fill="white" stroke="#666666" points="667.75,-104 561.75,-104 561.75,-72 667.75,-72 667.75,-104"/>
<text text-anchor="start" x="569.75" y="-90.5" font-family="Helvetica,sans-Serif" font-size="10.00">LSM1x0A_Controller</text>
<text text-anchor="middle" x="614.75" y="-78.5" font-family="Helvetica,sans-Serif" font-size="10.00">::hardwareReset</text>
</a>
</g>
</g>
<!-- Node3&#45;&gt;Node5 -->
<g id="edge4_Node000003_Node000005" class="edge">
<title>Node3&#45;&gt;Node5</title>
<g id="a_edge4_Node000003_Node000005"><a xlink:title=" ">
<path fill="none" stroke="#63b8ff" d="M461.96,-181.63C478.32,-163.93 506.49,-135.86 535.5,-118 540.77,-114.76 546.44,-111.77 552.24,-109.03"/>
<polygon fill="#63b8ff" stroke="#63b8ff" points="553.64,-112.24 561.38,-104.99 550.81,-105.83 553.64,-112.24"/>
</a>
</g>
</g>
<!-- Node7 -->
<g id="Node000007" class="node">
<title>Node7</title>
<g id="a_Node000007"><a xlink:href="../../d5/d72/classLSM1x0A__LoRaWAN.html#a1892801e37c8cd67d37c76108d6f7d49" target="_top" xlink:title="Validates if the device is currently Joined to the network. (Either confirmed by OTAA or statically a...">
<polygon fill="white" stroke="#666666" points="1294.75,-136 1142.25,-136 1142.25,-116 1294.75,-116 1294.75,-136"/>
<text text-anchor="middle" x="1218.5" y="-122.5" font-family="Helvetica,sans-Serif" font-size="10.00">LSM1x0A_LoRaWAN::isJoined</text>
</a>
</g>
</g>
<!-- Node3&#45;&gt;Node7 -->
<g id="edge6_Node000003_Node000007" class="edge">
<title>Node3&#45;&gt;Node7</title>
<g id="a_edge6_Node000003_Node000007"><a xlink:title=" ">
<path fill="none" stroke="#63b8ff" d="M452.43,-181.77C462.49,-151.92 488.48,-88.97 535.5,-63 646.54,-1.69 984.26,-22.24 1106.25,-57 1141.32,-66.99 1176.12,-91.56 1197.22,-108.51"/>
<polygon fill="#63b8ff" stroke="#63b8ff" points="1194.8,-111.05 1204.74,-114.72 1199.26,-105.65 1194.8,-111.05"/>
</a>
</g>
</g>
<!-- Node8 -->
<g id="Node000008" class="node">
<title>Node8</title>
<g id="a_Node000008"><a xlink:href="../../d5/d72/classLSM1x0A__LoRaWAN.html#a83e11c0e74ff9e0757db616ab1163424" target="_top" xlink:title="Attempts to recover a lost connection (re&#45;executes OTAA Join if dropped).">
<polygon fill="white" stroke="#666666" points="689.12,-192 540.38,-192 540.38,-160 689.12,-160 689.12,-192"/>
<text text-anchor="start" x="548.38" y="-178.5" font-family="Helvetica,sans-Serif" font-size="10.00">LSM1x0A_LoRaWAN::recover</text>
<text text-anchor="middle" x="614.75" y="-166.5" font-family="Helvetica,sans-Serif" font-size="10.00">Connection</text>
</a>
</g>
</g>
<!-- Node3&#45;&gt;Node8 -->
<g id="edge7_Node000003_Node000008" class="edge">
<title>Node3&#45;&gt;Node8</title>
<g id="a_edge7_Node000003_Node000008"><a xlink:title=" ">
<path fill="none" stroke="#63b8ff" d="M499.65,-191.1C508.99,-189.86 518.94,-188.55 528.92,-187.23"/>
<polygon fill="#63b8ff" stroke="#63b8ff" points="529.22,-190.72 538.67,-185.94 528.3,-183.78 529.22,-190.72"/>
</a>
</g>
</g>
<!-- Node16 -->
<g id="Node000016" class="node">
<title>Node16</title>
<g id="a_Node000016"><a xlink:href="../../d5/d72/classLSM1x0A__LoRaWAN.html#ae3be4ce59dfa200369733317df356e97" target="_top" xlink:title="Pushes the RAM&#45;cached variables back down into the hardware module. Restores the operational state af...">
<polygon fill="white" stroke="#666666" points="876.5,-539 730,-539 730,-507 876.5,-507 876.5,-539"/>
<text text-anchor="start" x="738" y="-525.5" font-family="Helvetica,sans-Serif" font-size="10.00">LSM1x0A_LoRaWAN::restore</text>
<text text-anchor="middle" x="803.25" y="-513.5" font-family="Helvetica,sans-Serif" font-size="10.00">Config</text>
</a>
</g>
</g>
<!-- Node3&#45;&gt;Node16 -->
<g id="edge20_Node000003_Node000016" class="edge">
<title>Node3&#45;&gt;Node16</title>
<g id="a_edge20_Node000003_Node000016"><a xlink:title=" ">
<path fill="none" stroke="#63b8ff" d="M465.09,-214.12C523.01,-267.18 707.94,-436.6 776.42,-499.34"/>
<polygon fill="#63b8ff" stroke="#63b8ff" points="773.7,-501.59 783.44,-505.76 778.43,-496.43 773.7,-501.59"/>
</a>
</g>
</g>
<!-- Node33 -->
<g id="Node000033" class="node">
<title>Node33</title>
<g id="a_Node000033"><a xlink:href="../../d5/d72/classLSM1x0A__LoRaWAN.html#ace4b04396f1de1f4a54f513f5f378db7" target="_top" xlink:title="Manually overrides the internal joined state tracker.">
<polygon fill="white" stroke="#666666" points="694,-939 535.5,-939 535.5,-919 694,-919 694,-939"/>
<text text-anchor="middle" x="614.75" y="-925.5" font-family="Helvetica,sans-Serif" font-size="10.00">LSM1x0A_LoRaWAN::setJoined</text>
</a>
</g>
</g>
<!-- Node3&#45;&gt;Node33 -->
<g id="edge54_Node000003_Node000033" class="edge">
<title>Node3&#45;&gt;Node33</title>
<g id="a_edge54_Node000003_Node000033"><a xlink:title=" ">
<path fill="none" stroke="#63b8ff" d="M447.22,-214.4C445.9,-310.08 443.83,-795.83 535.5,-905 537.92,-907.88 540.68,-910.43 543.68,-912.67"/>
<polygon fill="#63b8ff" stroke="#63b8ff" points="541.66,-915.54 552.02,-917.75 545.3,-909.56 541.66,-915.54"/>
</a>
</g>
</g>
<!-- Node34 -->
<g id="Node000034" class="node">
<title>Node34</title>
<g id="a_Node000034"><a xlink:href="../../d8/d92/classLSM1x0A__Controller.html#a11ad21cb5ca33ec51346764a23bd485e" target="_top" xlink:title="Performs a software reset (ATZ Command).">
<polygon fill="white" stroke="#666666" points="1271.5,-795 1165.5,-795 1165.5,-763 1271.5,-763 1271.5,-795"/>
<text text-anchor="start" x="1173.5" y="-781.5" font-family="Helvetica,sans-Serif" font-size="10.00">LSM1x0A_Controller</text>
<text text-anchor="middle" x="1218.5" y="-769.5" font-family="Helvetica,sans-Serif" font-size="10.00">::softwareReset</text>
</a>
</g>
</g>
<!-- Node3&#45;&gt;Node34 -->
<g id="edge55_Node000003_Node000034" class="edge">
<title>Node3&#45;&gt;Node34</title>
<g id="a_edge55_Node000003_Node000034"><a xlink:title=" ">
<path fill="none" stroke="#63b8ff" d="M448.14,-214.18C452.41,-318.83 478.5,-897.3 535.5,-948 600.69,-1005.99 868.64,-1058.87 1106.25,-932 1157.71,-904.52 1191.32,-841.52 1207.07,-805.51"/>
<polygon fill="#63b8ff" stroke="#63b8ff" points="1210.14,-807.25 1210.8,-796.67 1203.69,-804.53 1210.14,-807.25"/>
</a>
</g>
</g>
<!-- Node6 -->
<g id="Node000006" class="node">
<title>Node6</title>
<g id="a_Node000006"><a xlink:href="../../d6/d3c/classLSM1x0A__AtParser.html#ad2839120da13e56132b95019419be1e5" target="_top" xlink:title="Waits for an event (like BOOTALERT) without sending any command. Useful for hardware reset where the ...">
<polygon fill="white" stroke="#666666" points="873.5,-104 733,-104 733,-72 873.5,-72 873.5,-104"/>
<text text-anchor="start" x="741" y="-90.5" font-family="Helvetica,sans-Serif" font-size="10.00">LSM1x0A_AtParser::waitFor</text>
<text text-anchor="middle" x="803.25" y="-78.5" font-family="Helvetica,sans-Serif" font-size="10.00">Event</text>
</a>
</g>
</g>
<!-- Node5&#45;&gt;Node6 -->
<g id="edge5_Node000005_Node000006" class="edge">
<title>Node5&#45;&gt;Node6</title>
<g id="a_edge5_Node000005_Node000006"><a xlink:title=" ">
<path fill="none" stroke="#63b8ff" d="M668.2,-88C684.71,-88 703.36,-88 721.37,-88"/>
<polygon fill="#63b8ff" stroke="#63b8ff" points="721.28,-91.5 731.28,-88 721.28,-84.5 721.28,-91.5"/>
</a>
</g>
</g>
<!-- Node9 -->
<g id="Node000009" class="node">
<title>Node9</title>
<g id="a_Node000009"><a xlink:href="../../d5/d72/classLSM1x0A__LoRaWAN.html#a59f781f3cfd30c11cd3973bcb10a7baa" target="_top" xlink:title="Initiates a LoRaWAN Network Join procedure. This is a blocking function until the module fires an eve...">
<polygon fill="white" stroke="#666666" points="869,-186 737.5,-186 737.5,-166 869,-166 869,-186"/>
<text text-anchor="middle" x="803.25" y="-172.5" font-family="Helvetica,sans-Serif" font-size="10.00">LSM1x0A_LoRaWAN::join</text>
</a>
</g>
</g>
<!-- Node8&#45;&gt;Node9 -->
<g id="edge8_Node000008_Node000009" class="edge">
<title>Node8&#45;&gt;Node9</title>
<g id="a_edge8_Node000008_Node000009"><a xlink:title=" ">
<path fill="none" stroke="#63b8ff" d="M689.46,-176C701.42,-176 713.83,-176 725.85,-176"/>
<polygon fill="#63b8ff" stroke="#63b8ff" points="725.72,-179.5 735.72,-176 725.72,-172.5 725.72,-179.5"/>
</a>
</g>
</g>
<!-- Node9&#45;&gt;Node3 -->
<g id="edge10_Node000009_Node000003" class="edge">
<title>Node9&#45;&gt;Node3</title>
<g id="a_edge10_Node000009_Node000003"><a xlink:title=" ">
<path fill="none" stroke="#63b8ff" d="M766.52,-186.4C745.59,-191.95 718.53,-198.2 694,-201 624.01,-208.98 605.93,-202.2 535.5,-201 527.6,-200.87 519.31,-200.66 511.11,-200.43"/>
<polygon fill="#63b8ff" stroke="#63b8ff" points="511.23,-196.93 501.12,-200.12 511.01,-203.92 511.23,-196.93"/>
</a>
</g>
</g>
<!-- Node9&#45;&gt;Node4 -->
<g id="edge9_Node000009_Node000004" class="edge">
<title>Node9&#45;&gt;Node4</title>
<g id="a_edge9_Node000009_Node000004"><a xlink:title=" ">
<path fill="none" stroke="#63b8ff" d="M837.8,-165.52C850.55,-160.68 864.81,-154.16 876.5,-146 895.84,-132.5 892.27,-119.13 912.5,-107 922.45,-101.03 933.81,-96.47 945.15,-93"/>
<polygon fill="#63b8ff" stroke="#63b8ff" points="945.82,-96.45 954.51,-90.39 943.94,-89.7 945.82,-96.45"/>
</a>
</g>
</g>
<!-- Node10 -->
<g id="Node000010" class="node">
<title>Node10</title>
<g id="a_Node000010"><a xlink:href="../../d8/d92/classLSM1x0A__Controller.html#afd7d92e60ed6fdae696a955cdbe0ed8c" target="_top" xlink:title="Sends any AT command to the module, returning error if it fails. Internally uses the LsmAtParser logi...">
<polygon fill="white" stroke="#666666" points="1271.5,-558 1165.5,-558 1165.5,-526 1271.5,-526 1271.5,-558"/>
<text text-anchor="start" x="1173.5" y="-544.5" font-family="Helvetica,sans-Serif" font-size="10.00">LSM1x0A_Controller</text>
<text text-anchor="middle" x="1218.5" y="-532.5" font-family="Helvetica,sans-Serif" font-size="10.00">::sendCommand</text>
</a>
</g>
</g>
<!-- Node9&#45;&gt;Node10 -->
<g id="edge11_Node000009_Node000010" class="edge">
<title>Node9&#45;&gt;Node10</title>
<g id="a_edge11_Node000009_Node000010"><a xlink:title=" ">
<path fill="none" stroke="#63b8ff" d="M869.28,-171.81C946.89,-168.2 1070.66,-167.28 1106.25,-195 1207.98,-274.23 1218.24,-447.25 1218.2,-514.5"/>
<polygon fill="#63b8ff" stroke="#63b8ff" points="1214.7,-514.23 1218.1,-524.26 1221.7,-514.3 1214.7,-514.23"/>
</a>
</g>
</g>
<!-- Node14 -->
<g id="Node000014" class="node">
<title>Node14</title>
<g id="a_Node000014"><a xlink:href="../../d5/d72/classLSM1x0A__LoRaWAN.html#a3fdd1ac318a5ad2559323e5d57e36a5e" target="_top" xlink:title="Enables or disables specific sub&#45;bands for regions supporting Channel Masks (e.g.,...">
<polygon fill="white" stroke="#666666" points="1104.38,-224 914.38,-224 914.38,-204 1104.38,-204 1104.38,-224"/>
<text text-anchor="middle" x="1009.38" y="-210.5" font-family="Helvetica,sans-Serif" font-size="10.00">LSM1x0A_LoRaWAN::setChannelMask</text>
</a>
</g>
</g>
<!-- Node9&#45;&gt;Node14 -->
<g id="edge16_Node000009_Node000014" class="edge">
<title>Node9&#45;&gt;Node14</title>
<g id="a_edge16_Node000009_Node000014"><a xlink:title=" ">
<path fill="none" stroke="#63b8ff" d="M860.57,-186.48C885.44,-191.12 914.89,-196.6 940.93,-201.44"/>
<polygon fill="#63b8ff" stroke="#63b8ff" points="940.28,-204.88 950.75,-203.27 941.56,-198 940.28,-204.88"/>
</a>
</g>
</g>
<!-- Node15 -->
<g id="Node000015" class="node">
<title>Node15</title>
<g id="a_Node000015"><a xlink:href="../../d8/d92/classLSM1x0A__Controller.html#a62476e30e50c7fe120aeb8df4b828675" target="_top" xlink:title="Synchronously/blockingly waits for an asynchronous event to occur. Useful for wrapping commands like ...">
<polygon fill="white" stroke="#666666" points="1062.38,-148 956.38,-148 956.38,-116 1062.38,-116 1062.38,-148"/>
<text text-anchor="start" x="964.38" y="-134.5" font-family="Helvetica,sans-Serif" font-size="10.00">LSM1x0A_Controller</text>
<text text-anchor="middle" x="1009.38" y="-122.5" font-family="Helvetica,sans-Serif" font-size="10.00">::waitForEvent</text>
</a>
</g>
</g>
<!-- Node9&#45;&gt;Node15 -->
<g id="edge19_Node000009_Node000015" class="edge">
<title>Node9&#45;&gt;Node15</title>
<g id="a_edge19_Node000009_Node000015"><a xlink:title=" ">
<path fill="none" stroke="#63b8ff" d="M852.88,-165.52C880.49,-159.57 915.36,-152.05 945.07,-145.65"/>
<polygon fill="#63b8ff" stroke="#63b8ff" points="945.67,-149.1 954.7,-143.57 944.19,-142.25 945.67,-149.1"/>
</a>
</g>
</g>
<!-- Node10&#45;&gt;Node3 -->
<g id="edge12_Node000010_Node000003" class="edge">
<title>Node10&#45;&gt;Node3</title>
<g id="a_edge12_Node000010_Node000003"><a xlink:title=" ">
<path fill="none" stroke="#63b8ff" d="M1211.07,-558.31C1197.31,-593.61 1164.41,-679.91 1142.25,-754 1122.98,-818.44 1159.17,-859.48 1106.25,-901 1038.5,-954.16 988.94,-940.65 912.5,-901 625.18,-751.97 487.22,-335.66 455.02,-225.19"/>
<polygon fill="#63b8ff" stroke="#63b8ff" points="458.45,-224.47 452.33,-215.82 451.72,-226.4 458.45,-224.47"/>
</a>
</g>
</g>
<!-- Node11 -->
<g id="Node000011" class="node">
<title>Node11</title>
<g id="a_Node000011"><a xlink:href="../../d6/d3c/classLSM1x0A__AtParser.html#a29b53c521974387ba6c03afadfaffa4a" target="_top" xlink:title="Sends a simple command and waits for OK/ERROR. Example: sendCommand(&quot;AT+JOIN&quot;);.">
<polygon fill="white" stroke="#666666" points="1505,-552 1330.75,-552 1330.75,-532 1505,-532 1505,-552"/>
<text text-anchor="middle" x="1417.88" y="-538.5" font-family="Helvetica,sans-Serif" font-size="10.00">LSM1x0A_AtParser::sendCommand</text>
</a>
</g>
</g>
<!-- Node10&#45;&gt;Node11 -->
<g id="edge13_Node000010_Node000011" class="edge">
<title>Node10&#45;&gt;Node11</title>
<g id="a_edge13_Node000010_Node000011"><a xlink:title=" ">
<path fill="none" stroke="#63b8ff" d="M1271.87,-542C1286.44,-542 1302.75,-542 1319.03,-542"/>
<polygon fill="#63b8ff" stroke="#63b8ff" points="1318.76,-545.5 1328.76,-542 1318.76,-538.5 1318.76,-545.5"/>
</a>
</g>
</g>
<!-- Node11&#45;&gt;Node12 -->
<g id="edge14_Node000011_Node000012" class="edge">
<title>Node11&#45;&gt;Node12</title>
<g id="a_edge14_Node000011_Node000012"><a xlink:title=" ">
<path fill="none" stroke="#63b8ff" d="M1426.78,-531.71C1456.69,-492.78 1563.43,-353.88 1607.69,-296.3"/>
<polygon fill="#63b8ff" stroke="#63b8ff" points="1610.23,-298.73 1613.55,-288.67 1604.68,-294.46 1610.23,-298.73"/>
</a>
</g>
</g>
<!-- Node13 -->
<g id="Node000013" class="node">
<title>Node13</title>
<g id="a_Node000013"><a xlink:href="../../d5/d8b/classUartDriver.html#a5d0f22e8867eebe99273078bb19bd23d" target="_top" xlink:title="Sends data through UART.">
<polygon fill="white" stroke="#666666" points="1860.25,-281 1751.25,-281 1751.25,-261 1860.25,-261 1860.25,-281"/>
<text text-anchor="middle" x="1805.75" y="-267.5" font-family="Helvetica,sans-Serif" font-size="10.00">UartDriver::sendData</text>
</a>
</g>
</g>
<!-- Node12&#45;&gt;Node13 -->
<g id="edge15_Node000012_Node000013" class="edge">
<title>Node12&#45;&gt;Node13</title>
<g id="a_edge15_Node000012_Node000013"><a xlink:title=" ">
<path fill="none" stroke="#63b8ff" d="M1715.65,-271C1723.8,-271 1731.95,-271 1739.85,-271"/>
<polygon fill="#63b8ff" stroke="#63b8ff" points="1739.68,-274.5 1749.68,-271 1739.68,-267.5 1739.68,-274.5"/>
</a>
</g>
</g>
<!-- Node14&#45;&gt;Node7 -->
<g id="edge17_Node000014_Node000007" class="edge">
<title>Node14&#45;&gt;Node7</title>
<g id="a_edge17_Node000014_Node000007"><a xlink:title=" ">
<path fill="none" stroke="#63b8ff" d="M1034.95,-203.56C1071.54,-188.01 1140.53,-158.7 1182.42,-140.9"/>
<polygon fill="#63b8ff" stroke="#63b8ff" points="1183.73,-144.15 1191.57,-137.02 1180.99,-137.71 1183.73,-144.15"/>
</a>
</g>
</g>
<!-- Node14&#45;&gt;Node10 -->
<g id="edge18_Node000014_Node000010" class="edge">
<title>Node14&#45;&gt;Node10</title>
<g id="a_edge18_Node000014_Node000010"><a xlink:title=" ">
<path fill="none" stroke="#63b8ff" d="M1093.13,-224.28C1097.83,-226.69 1102.26,-229.57 1106.25,-233 1192.58,-307.27 1211.92,-453.75 1216.25,-514.55"/>
<polygon fill="#63b8ff" stroke="#63b8ff" points="1212.75,-514.57 1216.86,-524.33 1219.73,-514.13 1212.75,-514.57"/>
</a>
</g>
</g>
<!-- Node16&#45;&gt;Node14 -->
<g id="edge25_Node000016_Node000014" class="edge">
<title>Node16&#45;&gt;Node14</title>
<g id="a_edge25_Node000016_Node000014"><a xlink:title=" ">
<path fill="none" stroke="#63b8ff" d="M805.05,-506.78C808.43,-457.25 825.7,-306.79 912.5,-233 913.63,-232.04 914.79,-231.13 915.98,-230.25"/>
<polygon fill="#63b8ff" stroke="#63b8ff" points="917.67,-233.33 924.37,-225.12 914.02,-227.35 917.67,-233.33"/>
</a>
</g>
</g>
<!-- Node17 -->
<g id="Node000017" class="node">
<title>Node17</title>
<g id="a_Node000017"><a xlink:href="../../d5/d72/classLSM1x0A__LoRaWAN.html#af0baa3db4c7fab580d6b19a9e92472f6" target="_top" xlink:title="Enables or disables Adaptive Data Rate (ADR).">
<polygon fill="white" stroke="#666666" points="1085.25,-350 933.5,-350 933.5,-330 1085.25,-330 1085.25,-350"/>
<text text-anchor="middle" x="1009.38" y="-336.5" font-family="Helvetica,sans-Serif" font-size="10.00">LSM1x0A_LoRaWAN::setADR</text>
</a>
</g>
</g>
<!-- Node16&#45;&gt;Node17 -->
<g id="edge21_Node000016_Node000017" class="edge">
<title>Node16&#45;&gt;Node17</title>
<g id="a_edge21_Node000016_Node000017"><a xlink:title=" ">
<path fill="none" stroke="#63b8ff" d="M810.06,-506.6C822.85,-473 856.85,-396.38 912.5,-359 915.77,-356.8 919.23,-354.85 922.83,-353.11"/>
<polygon fill="#63b8ff" stroke="#63b8ff" points="923.98,-356.42 931.87,-349.35 921.29,-349.96 923.98,-356.42"/>
</a>
</g>
</g>
<!-- Node18 -->
<g id="Node000018" class="node">
<title>Node18</title>
<g id="a_Node000018"><a xlink:href="../../d5/d72/classLSM1x0A__LoRaWAN.html#a5365ed1596eb84ebf1e3b33b4a10c788" target="_top" xlink:title="Sets the LoRaWAN operational frequency band.">
<polygon fill="white" stroke="#666666" points="1085.62,-312 933.12,-312 933.12,-292 1085.62,-292 1085.62,-312"/>
<text text-anchor="middle" x="1009.38" y="-298.5" font-family="Helvetica,sans-Serif" font-size="10.00">LSM1x0A_LoRaWAN::setBand</text>
</a>
</g>
</g>
<!-- Node16&#45;&gt;Node18 -->
<g id="edge23_Node000016_Node000018" class="edge">
<title>Node16&#45;&gt;Node18</title>
<g id="a_edge23_Node000016_Node000018"><a xlink:title=" ">
<path fill="none" stroke="#63b8ff" d="M807.97,-506.5C817.7,-467.43 847.74,-368.94 912.5,-321 915.66,-318.66 919.04,-316.58 922.57,-314.75"/>
<polygon fill="#63b8ff" stroke="#63b8ff" points="923.75,-318.05 931.47,-310.8 920.91,-311.66 923.75,-318.05"/>
</a>
</g>
</g>
<!-- Node19 -->
<g id="Node000019" class="node">
<title>Node19</title>
<g id="a_Node000019"><a xlink:href="../../d5/d72/classLSM1x0A__LoRaWAN.html#a9d9285c43414337a0ccb3a6cd7ca06e6" target="_top" xlink:title="Configures the number of retries for Confirmed uplinks.">
<polygon fill="white" stroke="#666666" points="1091.62,-274 927.12,-274 927.12,-242 1091.62,-242 1091.62,-274"/>
<text text-anchor="start" x="935.12" y="-260.5" font-family="Helvetica,sans-Serif" font-size="10.00">LSM1x0A_LoRaWAN::setConfirm</text>
<text text-anchor="middle" x="1009.38" y="-248.5" font-family="Helvetica,sans-Serif" font-size="10.00">Retry</text>
</a>
</g>
</g>
<!-- Node16&#45;&gt;Node19 -->
<g id="edge26_Node000016_Node000019" class="edge">
<title>Node16&#45;&gt;Node19</title>
<g id="a_edge26_Node000016_Node000019"><a xlink:title=" ">
<path fill="none" stroke="#63b8ff" d="M806.68,-506.7C814.05,-463.28 840.2,-344.03 912.5,-283 913.99,-281.74 915.54,-280.55 917.13,-279.41"/>
<polygon fill="#63b8ff" stroke="#63b8ff" points="918.75,-282.52 925.45,-274.32 915.1,-276.55 918.75,-282.52"/>
</a>
</g>
</g>
<!-- Node20 -->
<g id="Node000020" class="node">
<title>Node20</title>
<g id="a_Node000020"><a xlink:href="../../d5/d72/classLSM1x0A__LoRaWAN.html#a56345ceeafa0b9059d6de4e69eddc82e" target="_top" xlink:title="Sets the Data Rate (DR) of the module.">
<polygon fill="white" stroke="#666666" points="1095.38,-892 923.38,-892 923.38,-872 1095.38,-872 1095.38,-892"/>
<text text-anchor="middle" x="1009.38" y="-878.5" font-family="Helvetica,sans-Serif" font-size="10.00">LSM1x0A_LoRaWAN::setDataRate</text>
</a>
</g>
</g>
<!-- Node16&#45;&gt;Node20 -->
<g id="edge28_Node000016_Node000020" class="edge">
<title>Node16&#45;&gt;Node20</title>
<g id="a_edge28_Node000016_Node000020"><a xlink:title=" ">
<path fill="none" stroke="#63b8ff" d="M804.05,-539.16C804.29,-593.93 812.94,-774.06 912.5,-863 913.45,-863.85 914.42,-864.66 915.42,-865.44"/>
<polygon fill="#63b8ff" stroke="#63b8ff" points="913.45,-868.34 923.75,-870.83 917.25,-862.46 913.45,-868.34"/>
</a>
</g>
</g>
<!-- Node21 -->
<g id="Node000021" class="node">
<title>Node21</title>
<g id="a_Node000021"><a xlink:href="../../d5/d72/classLSM1x0A__LoRaWAN.html#a8494083816ab885cb07fc3b08de029f4" target="_top" xlink:title="Sets the LoRaWAN Device Address (DevAddr) for ABP mode.">
<polygon fill="white" stroke="#666666" points="1093.5,-854 925.25,-854 925.25,-834 1093.5,-834 1093.5,-854"/>
<text text-anchor="middle" x="1009.38" y="-840.5" font-family="Helvetica,sans-Serif" font-size="10.00">LSM1x0A_LoRaWAN::setDevAddr</text>
</a>
</g>
</g>
<!-- Node16&#45;&gt;Node21 -->
<g id="edge30_Node000016_Node000021" class="edge">
<title>Node16&#45;&gt;Node21</title>
<g id="a_edge30_Node000016_Node000021"><a xlink:title=" ">
<path fill="none" stroke="#63b8ff" d="M804.78,-539.15C807.37,-589.92 822.62,-747.57 912.5,-825 913.62,-825.97 914.78,-826.89 915.96,-827.77"/>
<polygon fill="#63b8ff" stroke="#63b8ff" points="913.98,-830.65 924.32,-832.93 917.65,-824.7 913.98,-830.65"/>
</a>
</g>
</g>
<!-- Node22 -->
<g id="Node000022" class="node">
<title>Node22</title>
<g id="a_Node000022"><a xlink:href="../../d5/d72/classLSM1x0A__LoRaWAN.html#ad320634e52d7ea907043cc50dd37c5b0" target="_top" xlink:title="Sets the LoRaWAN Device EUI (DevEUI).">
<polygon fill="white" stroke="#666666" points="1092,-816 926.75,-816 926.75,-796 1092,-796 1092,-816"/>
<text text-anchor="middle" x="1009.38" y="-802.5" font-family="Helvetica,sans-Serif" font-size="10.00">LSM1x0A_LoRaWAN::setDevEUI</text>
</a>
</g>
</g>
<!-- Node16&#45;&gt;Node22 -->
<g id="edge32_Node000016_Node000022" class="edge">
<title>Node16&#45;&gt;Node22</title>
<g id="a_edge32_Node000016_Node000022"><a xlink:title=" ">
<path fill="none" stroke="#63b8ff" d="M805.74,-539.44C810.89,-586.24 832.37,-721.05 912.5,-787 913.99,-788.22 915.53,-789.38 917.12,-790.46"/>
<polygon fill="#63b8ff" stroke="#63b8ff" points="914.98,-793.27 925.4,-795.21 918.47,-787.2 914.98,-793.27"/>
</a>
</g>
</g>
<!-- Node23 -->
<g id="Node000023" class="node">
<title>Node23</title>
<g id="a_Node000023"><a xlink:href="../../d5/d72/classLSM1x0A__LoRaWAN.html#a031023b0d2dd5db3c51c2db6ae7801cc" target="_top" xlink:title="Enables or disables the Duty Cycle limitation (EU regions mostly).">
<polygon fill="white" stroke="#666666" points="1084.88,-778 933.88,-778 933.88,-746 1084.88,-746 1084.88,-778"/>
<text text-anchor="start" x="941.88" y="-764.5" font-family="Helvetica,sans-Serif" font-size="10.00">LSM1x0A_LoRaWAN::setDuty</text>
<text text-anchor="middle" x="1009.38" y="-752.5" font-family="Helvetica,sans-Serif" font-size="10.00">Cycle</text>
</a>
</g>
</g>
<!-- Node16&#45;&gt;Node23 -->
<g id="edge34_Node000016_Node000023" class="edge">
<title>Node16&#45;&gt;Node23</title>
<g id="a_edge34_Node000016_Node000023"><a xlink:title=" ">
<path fill="none" stroke="#63b8ff" d="M807.65,-539.3C816.9,-579.44 846.39,-683.67 912.5,-737 915.94,-739.78 919.66,-742.25 923.56,-744.44"/>
<polygon fill="#63b8ff" stroke="#63b8ff" points="921.71,-747.44 932.23,-748.7 924.8,-741.15 921.71,-747.44"/>
</a>
</g>
</g>
<!-- Node24 -->
<g id="Node000024" class="node">
<title>Node24</title>
<g id="a_Node000024"><a xlink:href="../../d5/d72/classLSM1x0A__LoRaWAN.html#a6b179d5825c49af0f391dfc539912f64" target="_top" xlink:title="Sets the delay for the Join1 receive window.">
<polygon fill="white" stroke="#666666" points="1086,-728 932.75,-728 932.75,-696 1086,-696 1086,-728"/>
<text text-anchor="start" x="940.75" y="-714.5" font-family="Helvetica,sans-Serif" font-size="10.00">LSM1x0A_LoRaWAN::setJoin1</text>
<text text-anchor="middle" x="1009.38" y="-702.5" font-family="Helvetica,sans-Serif" font-size="10.00">Delay</text>
</a>
</g>
</g>
<!-- Node16&#45;&gt;Node24 -->
<g id="edge36_Node000016_Node000024" class="edge">
<title>Node16&#45;&gt;Node24</title>
<g id="a_edge36_Node000016_Node000024"><a xlink:title=" ">
<path fill="none" stroke="#63b8ff" d="M810.34,-539.39C823.56,-572.62 858.13,-648.08 912.5,-687 915.67,-689.27 919.04,-691.34 922.53,-693.21"/>
<polygon fill="#63b8ff" stroke="#63b8ff" points="920.78,-696.26 931.32,-697.38 923.78,-689.93 920.78,-696.26"/>
</a>
</g>
</g>
<!-- Node25 -->
<g id="Node000025" class="node">
<title>Node25</title>
<g id="a_Node000025"><a xlink:href="../../d5/d72/classLSM1x0A__LoRaWAN.html#a4545d0caad41558cdb9bae8286b104d8" target="_top" xlink:title="Sets the delay for the Join2 receive window.">
<polygon fill="white" stroke="#666666" points="1086,-678 932.75,-678 932.75,-646 1086,-646 1086,-678"/>
<text text-anchor="start" x="940.75" y="-664.5" font-family="Helvetica,sans-Serif" font-size="10.00">LSM1x0A_LoRaWAN::setJoin2</text>
<text text-anchor="middle" x="1009.38" y="-652.5" font-family="Helvetica,sans-Serif" font-size="10.00">Delay</text>
</a>
</g>
</g>
<!-- Node16&#45;&gt;Node25 -->
<g id="edge38_Node000016_Node000025" class="edge">
<title>Node16&#45;&gt;Node25</title>
<g id="a_edge38_Node000016_Node000025"><a xlink:title=" ">
<path fill="none" stroke="#63b8ff" d="M815.14,-539.33C832.65,-564.27 869.49,-611.61 912.5,-637 915.51,-638.78 918.65,-640.43 921.88,-641.97"/>
<polygon fill="#63b8ff" stroke="#63b8ff" points="920.48,-645.18 931.05,-645.9 923.24,-638.74 920.48,-645.18"/>
</a>
</g>
</g>
<!-- Node26 -->
<g id="Node000026" class="node">
<title>Node26</title>
<g id="a_Node000026"><a xlink:href="../../d5/d72/classLSM1x0A__LoRaWAN.html#a06bd50723ec1eb7e144c9141b2ec86fc" target="_top" xlink:title="Sets the LoRaWAN Network ID (NetID).">
<polygon fill="white" stroke="#666666" points="1089.75,-628 929,-628 929,-608 1089.75,-608 1089.75,-628"/>
<text text-anchor="middle" x="1009.38" y="-614.5" font-family="Helvetica,sans-Serif" font-size="10.00">LSM1x0A_LoRaWAN::setNwkID</text>
</a>
</g>
</g>
<!-- Node16&#45;&gt;Node26 -->
<g id="edge40_Node000016_Node000026" class="edge">
<title>Node16&#45;&gt;Node26</title>
<g id="a_edge40_Node000016_Node000026"><a xlink:title=" ">
<path fill="none" stroke="#63b8ff" d="M822.35,-539.34C842.76,-556.84 877.66,-584.11 912.5,-599 917.1,-600.97 921.91,-602.73 926.83,-604.32"/>
<polygon fill="#63b8ff" stroke="#63b8ff" points="925.67,-607.63 936.26,-607.08 927.64,-600.91 925.67,-607.63"/>
</a>
</g>
</g>
<!-- Node27 -->
<g id="Node000027" class="node">
<title>Node27</title>
<g id="a_Node000027"><a xlink:href="../../d5/d72/classLSM1x0A__LoRaWAN.html#aa70ada64d28ecca216bb62268e502adf" target="_top" xlink:title="Sets the delay for the RX1 receive window.">
<polygon fill="white" stroke="#666666" points="1096.12,-590 922.62,-590 922.62,-570 1096.12,-570 1096.12,-590"/>
<text text-anchor="middle" x="1009.38" y="-576.5" font-family="Helvetica,sans-Serif" font-size="10.00">LSM1x0A_LoRaWAN::setRx1Delay</text>
</a>
</g>
</g>
<!-- Node16&#45;&gt;Node27 -->
<g id="edge42_Node000016_Node000027" class="edge">
<title>Node16&#45;&gt;Node27</title>
<g id="a_edge42_Node000016_Node000027"><a xlink:title=" ">
<path fill="none" stroke="#63b8ff" d="M846.74,-539.49C866.52,-546.76 890.5,-554.99 912.5,-561 920.58,-563.21 929.11,-565.27 937.62,-567.16"/>
<polygon fill="#63b8ff" stroke="#63b8ff" points="936.75,-570.55 947.26,-569.23 938.22,-563.71 936.75,-570.55"/>
</a>
</g>
</g>
<!-- Node28 -->
<g id="Node000028" class="node">
<title>Node28</title>
<g id="a_Node000028"><a xlink:href="../../d5/d72/classLSM1x0A__LoRaWAN.html#a2cf4eff0181b6107d082bccefa24217b" target="_top" xlink:title="Sets the Data Rate (DR) specifically for the RX2 window.">
<polygon fill="white" stroke="#666666" points="1104.38,-552 914.38,-552 914.38,-532 1104.38,-532 1104.38,-552"/>
<text text-anchor="middle" x="1009.38" y="-538.5" font-family="Helvetica,sans-Serif" font-size="10.00">LSM1x0A_LoRaWAN::setRx2DataRate</text>
</a>
</g>
</g>
<!-- Node16&#45;&gt;Node28 -->
<g id="edge44_Node000016_Node000028" class="edge">
<title>Node16&#45;&gt;Node28</title>
<g id="a_edge44_Node000016_Node000028"><a xlink:title=" ">
<path fill="none" stroke="#63b8ff" d="M876.79,-529.75C885.16,-530.53 893.81,-531.34 902.51,-532.15"/>
<polygon fill="#63b8ff" stroke="#63b8ff" points="902.14,-535.63 912.43,-533.07 902.79,-528.66 902.14,-535.63"/>
</a>
</g>
</g>
<!-- Node29 -->
<g id="Node000029" class="node">
<title>Node29</title>
<g id="a_Node000029"><a xlink:href="../../d5/d72/classLSM1x0A__LoRaWAN.html#a42d2137b475b57e19d891a5f1ac93221" target="_top" xlink:title="Sets the delay for the RX2 receive window.">
<polygon fill="white" stroke="#666666" points="1096.12,-514 922.62,-514 922.62,-494 1096.12,-494 1096.12,-514"/>
<text text-anchor="middle" x="1009.38" y="-500.5" font-family="Helvetica,sans-Serif" font-size="10.00">LSM1x0A_LoRaWAN::setRx2Delay</text>
</a>
</g>
</g>
<!-- Node16&#45;&gt;Node29 -->
<g id="edge46_Node000016_Node000029" class="edge">
<title>Node16&#45;&gt;Node29</title>
<g id="a_edge46_Node000016_Node000029"><a xlink:title=" ">
<path fill="none" stroke="#63b8ff" d="M876.79,-516.25C887.99,-515.21 899.72,-514.11 911.35,-513.03"/>
<polygon fill="#63b8ff" stroke="#63b8ff" points="911.32,-516.55 920.95,-512.14 910.67,-509.58 911.32,-516.55"/>
</a>
</g>
</g>
<!-- Node30 -->
<g id="Node000030" class="node">
<title>Node30</title>
<g id="a_Node000030"><a xlink:href="../../d5/d72/classLSM1x0A__LoRaWAN.html#a689f7dfda1dfeae11ea397c2ddf2ad37" target="_top" xlink:title="Sets the precise frequency for the RX2 window.">
<polygon fill="white" stroke="#666666" points="1106.25,-476 912.5,-476 912.5,-456 1106.25,-456 1106.25,-476"/>
<text text-anchor="middle" x="1009.38" y="-462.5" font-family="Helvetica,sans-Serif" font-size="10.00">LSM1x0A_LoRaWAN::setRx2Frequency</text>
</a>
</g>
</g>
<!-- Node16&#45;&gt;Node30 -->
<g id="edge48_Node000016_Node000030" class="edge">
<title>Node16&#45;&gt;Node30</title>
<g id="a_edge48_Node000016_Node000030"><a xlink:title=" ">
<path fill="none" stroke="#63b8ff" d="M846.74,-506.51C866.52,-499.24 890.5,-491.01 912.5,-485 920.58,-482.79 929.11,-480.73 937.62,-478.84"/>
<polygon fill="#63b8ff" stroke="#63b8ff" points="938.22,-482.29 947.26,-476.77 936.75,-475.45 938.22,-482.29"/>
</a>
</g>
</g>
<!-- Node31 -->
<g id="Node000031" class="node">
<title>Node31</title>
<g id="a_Node000031"><a xlink:href="../../d5/d72/classLSM1x0A__LoRaWAN.html#a1df10d7ae6bf45b537d28d3d5c4b88d7" target="_top" xlink:title="Sets the transmission power index.">
<polygon fill="white" stroke="#666666" points="1093.88,-438 924.88,-438 924.88,-418 1093.88,-418 1093.88,-438"/>
<text text-anchor="middle" x="1009.38" y="-424.5" font-family="Helvetica,sans-Serif" font-size="10.00">LSM1x0A_LoRaWAN::setTxPower</text>
</a>
</g>
</g>
<!-- Node16&#45;&gt;Node31 -->
<g id="edge50_Node000016_Node000031" class="edge">
<title>Node16&#45;&gt;Node31</title>
<g id="a_edge50_Node000016_Node000031"><a xlink:title=" ">
<path fill="none" stroke="#63b8ff" d="M822.35,-506.66C842.76,-489.16 877.66,-461.89 912.5,-447 917.1,-445.03 921.91,-443.27 926.83,-441.68"/>
<polygon fill="#63b8ff" stroke="#63b8ff" points="927.64,-445.09 936.26,-438.92 925.67,-438.37 927.64,-445.09"/>
</a>
</g>
</g>
<!-- Node32 -->
<g id="Node000032" class="node">
<title>Node32</title>
<g id="a_Node000032"><a xlink:href="../../d5/d72/classLSM1x0A__LoRaWAN.html#a059fd6a9356c4ecadd5a98294da5952d" target="_top" xlink:title="Configures the number of repetitions for Unconfirmed uplinks.">
<polygon fill="white" stroke="#666666" points="1096.88,-400 921.88,-400 921.88,-368 1096.88,-368 1096.88,-400"/>
<text text-anchor="start" x="929.88" y="-386.5" font-family="Helvetica,sans-Serif" font-size="10.00">LSM1x0A_LoRaWAN::setUnconfirm</text>
<text text-anchor="middle" x="1009.38" y="-374.5" font-family="Helvetica,sans-Serif" font-size="10.00">Retry</text>
</a>
</g>
</g>
<!-- Node16&#45;&gt;Node32 -->
<g id="edge52_Node000016_Node000032" class="edge">
<title>Node16&#45;&gt;Node32</title>
<g id="a_edge52_Node000016_Node000032"><a xlink:title=" ">
<path fill="none" stroke="#63b8ff" d="M815.14,-506.67C832.65,-481.73 869.49,-434.39 912.5,-409 914.81,-407.64 917.2,-406.34 919.64,-405.12"/>
<polygon fill="#63b8ff" stroke="#63b8ff" points="920.9,-408.4 928.58,-401.1 918.03,-402.01 920.9,-408.4"/>
</a>
</g>
</g>
<!-- Node17&#45;&gt;Node10 -->
<g id="edge22_Node000017_Node000010" class="edge">
<title>Node17&#45;&gt;Node10</title>
<g id="a_edge22_Node000017_Node000010"><a xlink:title=" ">
<path fill="none" stroke="#63b8ff" d="M1085.65,-348.53C1092.97,-351.2 1099.99,-354.62 1106.25,-359 1161.84,-397.86 1194.69,-474.26 1208.99,-514.97"/>
<polygon fill="#63b8ff" stroke="#63b8ff" points="1205.61,-515.89 1212.12,-524.24 1212.24,-513.65 1205.61,-515.89"/>
</a>
</g>
</g>
<!-- Node18&#45;&gt;Node10 -->
<g id="edge24_Node000018_Node000010" class="edge">
<title>Node18&#45;&gt;Node10</title>
<g id="a_edge24_Node000018_Node000010"><a xlink:title=" ">
<path fill="none" stroke="#63b8ff" d="M1086.02,-310.03C1093.27,-312.79 1100.17,-316.38 1106.25,-321 1170.87,-370.13 1200.71,-467.16 1211.91,-514.6"/>
<polygon fill="#63b8ff" stroke="#63b8ff" points="1208.42,-515.06 1214.03,-524.05 1215.25,-513.53 1208.42,-515.06"/>
</a>
</g>
</g>
<!-- Node19&#45;&gt;Node10 -->
<g id="edge27_Node000019_Node000010" class="edge">
<title>Node19&#45;&gt;Node10</title>
<g id="a_edge27_Node000019_Node000010"><a xlink:title=" ">
<path fill="none" stroke="#63b8ff" d="M1092.08,-273.44C1097.16,-276.14 1101.95,-279.3 1106.25,-283 1178.2,-344.86 1204.98,-461.59 1213.74,-514.59"/>
<polygon fill="#63b8ff" stroke="#63b8ff" points="1210.25,-514.92 1215.24,-524.26 1217.17,-513.84 1210.25,-514.92"/>
</a>
</g>
</g>
<!-- Node20&#45;&gt;Node10 -->
<g id="edge29_Node000020_Node000010" class="edge">
<title>Node20&#45;&gt;Node10</title>
<g id="a_edge29_Node000020_Node000010"><a xlink:title=" ">
<path fill="none" stroke="#63b8ff" d="M1093.69,-871.6C1098.2,-869.21 1102.44,-866.37 1106.25,-863 1144.48,-829.22 1125.72,-802.26 1142.25,-754 1165.06,-687.42 1193.05,-609.52 1207.62,-569.23"/>
<polygon fill="#63b8ff" stroke="#63b8ff" points="1210.89,-570.47 1211.01,-559.87 1204.31,-568.08 1210.89,-570.47"/>
</a>
</g>
</g>
<!-- Node21&#45;&gt;Node10 -->
<g id="edge31_Node000021_Node000010" class="edge">
<title>Node21&#45;&gt;Node10</title>
<g id="a_edge31_Node000021_Node000010"><a xlink:title=" ">
<path fill="none" stroke="#63b8ff" d="M1093.02,-833.58C1097.75,-831.21 1102.21,-828.37 1106.25,-825 1127.03,-807.64 1185.94,-636.39 1208.53,-569.02"/>
<polygon fill="#63b8ff" stroke="#63b8ff" points="1211.74,-570.45 1211.59,-559.86 1205.1,-568.24 1211.74,-570.45"/>
</a>
</g>
</g>
<!-- Node22&#45;&gt;Node10 -->
<g id="edge33_Node000022_Node000010" class="edge">
<title>Node22&#45;&gt;Node10</title>
<g id="a_edge33_Node000022_Node000010"><a xlink:title=" ">
<path fill="none" stroke="#63b8ff" d="M1092.36,-795.56C1097.3,-793.2 1101.99,-790.37 1106.25,-787 1176.75,-731.13 1204.14,-620.69 1213.38,-569.39"/>
<polygon fill="#63b8ff" stroke="#63b8ff" points="1216.79,-570.18 1215.01,-559.74 1209.89,-569.01 1216.79,-570.18"/>
</a>
</g>
</g>
<!-- Node23&#45;&gt;Node10 -->
<g id="edge35_Node000023_Node000010" class="edge">
<title>Node23&#45;&gt;Node10</title>
<g id="a_edge35_Node000023_Node000010"><a xlink:title=" ">
<path fill="none" stroke="#63b8ff" d="M1084.91,-749.05C1092.54,-745.87 1099.83,-741.92 1106.25,-737 1163.24,-693.34 1195.81,-611.57 1209.6,-569.12"/>
<polygon fill="#63b8ff" stroke="#63b8ff" points="1212.9,-570.29 1212.55,-559.7 1206.22,-568.2 1212.9,-570.29"/>
</a>
</g>
</g>
<!-- Node24&#45;&gt;Node10 -->
<g id="edge37_Node000024_Node000010" class="edge">
<title>Node24&#45;&gt;Node10</title>
<g id="a_edge37_Node000024_Node000010"><a xlink:title=" ">
<path fill="none" stroke="#63b8ff" d="M1086.24,-697.37C1093.29,-694.51 1100.09,-691.09 1106.25,-687 1152.06,-656.61 1186.82,-600.94 1204.5,-568.13"/>
<polygon fill="#63b8ff" stroke="#63b8ff" points="1207.39,-570.16 1208.93,-559.68 1201.19,-566.91 1207.39,-570.16"/>
</a>
</g>
</g>
<!-- Node25&#45;&gt;Node10 -->
<g id="edge39_Node000025_Node000010" class="edge">
<title>Node25&#45;&gt;Node10</title>
<g id="a_edge39_Node000025_Node000010"><a xlink:title=" ">
<path fill="none" stroke="#63b8ff" d="M1086.43,-645.62C1093.29,-643.12 1100,-640.26 1106.25,-637 1141.04,-618.85 1174.35,-588.01 1195.31,-566.4"/>
<polygon fill="#63b8ff" stroke="#63b8ff" points="1197.58,-569.1 1201.93,-559.44 1192.5,-564.27 1197.58,-569.1"/>
</a>
</g>
</g>
<!-- Node26&#45;&gt;Node10 -->
<g id="edge41_Node000026_Node000010" class="edge">
<title>Node26&#45;&gt;Node10</title>
<g id="a_edge41_Node000026_Node000010"><a xlink:title=" ">
<path fill="none" stroke="#63b8ff" d="M1076.01,-607.52C1086.26,-605.16 1096.63,-602.34 1106.25,-599 1132.32,-589.94 1159.95,-575.81 1181.15,-563.89"/>
<polygon fill="#63b8ff" stroke="#63b8ff" points="1182.75,-567 1189.69,-559 1179.27,-560.93 1182.75,-567"/>
</a>
</g>
</g>
<!-- Node27&#45;&gt;Node10 -->
<g id="edge43_Node000027_Node000010" class="edge">
<title>Node27&#45;&gt;Node10</title>
<g id="a_edge43_Node000027_Node000010"><a xlink:title=" ">
<path fill="none" stroke="#63b8ff" d="M1067.52,-569.52C1094.36,-564.59 1126.44,-558.71 1154.03,-553.64"/>
<polygon fill="#63b8ff" stroke="#63b8ff" points="1154.46,-557.12 1163.66,-551.88 1153.19,-550.24 1154.46,-557.12"/>
</a>
</g>
</g>
<!-- Node28&#45;&gt;Node10 -->
<g id="edge45_Node000028_Node000010" class="edge">
<title>Node28&#45;&gt;Node10</title>
<g id="a_edge45_Node000028_Node000010"><a xlink:title=" ">
<path fill="none" stroke="#63b8ff" d="M1104.85,-542C1121.34,-542 1138.14,-542 1153.57,-542"/>
<polygon fill="#63b8ff" stroke="#63b8ff" points="1153.55,-545.5 1163.55,-542 1153.55,-538.5 1153.55,-545.5"/>
</a>
</g>
</g>
<!-- Node29&#45;&gt;Node10 -->
<g id="edge47_Node000029_Node000010" class="edge">
<title>Node29&#45;&gt;Node10</title>
<g id="a_edge47_Node000029_Node000010"><a xlink:title=" ">
<path fill="none" stroke="#63b8ff" d="M1067.52,-514.48C1094.36,-519.41 1126.44,-525.29 1154.03,-530.36"/>
<polygon fill="#63b8ff" stroke="#63b8ff" points="1153.19,-533.76 1163.66,-532.12 1154.46,-526.88 1153.19,-533.76"/>
</a>
</g>
</g>
<!-- Node30&#45;&gt;Node10 -->
<g id="edge49_Node000030_Node000010" class="edge">
<title>Node30&#45;&gt;Node10</title>
<g id="a_edge49_Node000030_Node000010"><a xlink:title=" ">
<path fill="none" stroke="#63b8ff" d="M1076.01,-476.48C1086.26,-478.84 1096.63,-481.66 1106.25,-485 1132.32,-494.06 1159.95,-508.19 1181.15,-520.11"/>
<polygon fill="#63b8ff" stroke="#63b8ff" points="1179.27,-523.07 1189.69,-525 1182.75,-517 1179.27,-523.07"/>
</a>
</g>
</g>
<!-- Node31&#45;&gt;Node10 -->
<g id="edge51_Node000031_Node000010" class="edge">
<title>Node31&#45;&gt;Node10</title>
<g id="a_edge51_Node000031_Node000010"><a xlink:title=" ">
<path fill="none" stroke="#63b8ff" d="M1083.64,-438.43C1091.46,-440.74 1099.15,-443.56 1106.25,-447 1141.76,-464.21 1175.15,-495.52 1195.91,-517.48"/>
<polygon fill="#63b8ff" stroke="#63b8ff" points="1193.1,-519.6 1202.46,-524.57 1198.24,-514.85 1193.1,-519.6"/>
</a>
</g>
</g>
<!-- Node32&#45;&gt;Node10 -->
<g id="edge53_Node000032_Node000010" class="edge">
<title>Node32&#45;&gt;Node10</title>
<g id="a_edge53_Node000032_Node000010"><a xlink:title=" ">
<path fill="none" stroke="#63b8ff" d="M1089.5,-400.31C1095.36,-402.81 1101.02,-405.69 1106.25,-409 1149.24,-436.23 1183.97,-485.5 1202.6,-515.83"/>
<polygon fill="#63b8ff" stroke="#63b8ff" points="1199.59,-517.61 1207.73,-524.4 1205.6,-514.02 1199.59,-517.61"/>
</a>
</g>
</g>
<!-- Node34&#45;&gt;Node11 -->
<g id="edge56_Node000034_Node000011" class="edge">
<title>Node34&#45;&gt;Node11</title>
<g id="a_edge56_Node000034_Node000011"><a xlink:title=" ">
<path fill="none" stroke="#63b8ff" d="M1233.07,-762.71C1268.44,-720.24 1363.34,-606.28 1401.08,-560.97"/>
<polygon fill="#63b8ff" stroke="#63b8ff" points="1403.55,-563.47 1407.26,-553.55 1398.17,-558.99 1403.55,-563.47"/>
</a>
</g>
</g>
</g>
</svg>
