<?xml version="1.0" encoding="UTF-8" standalone="no"?>
<!DOCTYPE svg PUBLIC "-//W3C//DTD SVG 1.1//EN"
 "http://www.w3.org/Graphics/SVG/1.1/DTD/svg11.dtd">
<!-- Generated by graphviz version 12.2.1 (20241206.2353)
 -->
<!-- Title: LSM1x0A_LoRaWAN::getNetworkType Pages: 1 -->
<!--zoomable 1018 -->

<svg id="main" version="1.1" xmlns="http://www.w3.org/2000/svg" xmlns:xlink="http://www.w3.org/1999/xlink" xml:space="preserve" onload="init(evt)">
<style type="text/css"><![CDATA[
.node, .edge {opacity: 0.7;}
.node.selected, .edge.selected {opacity: 1;}
.edge:hover path { stroke: red; }
.edge:hover polygon { stroke: red; fill: red; }
]]></style>

<defs>
  <circle id="rim" cx="0" cy="0" r="7"/>
  <circle id="rim2" cx="0" cy="0" r="3.5"/>
  <g id="zoomPlus">
    <use xlink:href="#rim" fill="#404040"><set attributeName="fill" to="#808080" begin="zoomplus.mouseover" end="zoomplus.mouseout"/></use>
    <path d="M-4,0h8M0,-4v8" fill="none" stroke="white" stroke-width="1.5" pointer-events="none"/>
  </g>
  <g id="zoomMin">
    <use xlink:href="#rim" fill="#404040"><set attributeName="fill" to="#808080" begin="zoomminus.mouseover" end="zoomminus.mouseout"/></use>
    <path d="M-4,0h8" fill="none" stroke="white" stroke-width="1.5" pointer-events="none"/>
  </g>
  <g id="arrowUp" transform="translate(30 24)">
    <use xlink:href="#rim"/>
    <path pointer-events="none" fill="none" stroke="white" stroke-width="1.5" d="M0,-3.0v7 M-2.5,-0.5L0,-3.0L2.5,-0.5"/>
  </g>
  <g id="arrowRight" transform="rotate(90) translate(36 -43)">
    <use xlink:href="#rim"/>
    <path pointer-events="none" fill="none" stroke="white" stroke-width="1.5" d="M0,-3.0v7 M-2.5,-0.5L0,-3.0L2.5,-0.5"/>
  </g>
  <g id="arrowDown" transform="rotate(180) translate(-30 -48)">
    <use xlink:href="#rim"/>
    <path pointer-events="none" fill="none" stroke="white" stroke-width="1.5" d="M0,-3.0v7 M-2.5,-0.5L0,-3.0L2.5,-0.5"/>
  </g>
  <g id="arrowLeft" transform="rotate(270) translate(-36 17)">
    <use xlink:href="#rim"/>
    <path pointer-events="none" fill="none" stroke="white" stroke-width="1.5" d="M0,-3.0v7 M-2.5,-0.5L0,-3.0L2.5,-0.5"/>
  </g>
  <g id="resetDef">
    <use xlink:href="#rim2" fill="#404040"><set attributeName="fill" to="#808080" begin="reset.mouseover" end="reset.mouseout"/></use>
  </g>
</defs>
<script type="application/ecmascript">
var viewWidth = 1887;
var viewHeight = 1018;
var sectionId = 'dynsection-28';
</script>
<script type="application/ecmascript" xlink:href="../../svg.min.js"/>
<svg id="graph" class="graph">
<g id="viewport">
<title>LSM1x0A_LoRaWAN::getNetworkType</title>
<!-- Node1 -->
<g id="Node000001" class="node">
<title>Node1</title>
<g id="a_Node000001"><a xlink:title="Retrieves the Public/Private network mode definition.">
<polygon fill="#999999" stroke="#666666" points="187.75,-98 0,-98 0,-78 187.75,-78 187.75,-98"/>
<text text-anchor="middle" x="93.88" y="-84.5" font-family="Helvetica,sans-Serif" font-size="10.00">LSM1x0A_LoRaWAN::getNetworkType</text>
</a>
</g>
</g>
<!-- Node2 -->
<g id="Node000002" class="node">
<title>Node2</title>
<g id="a_Node000002"><a xlink:href="../../d8/d92/classLSM1x0A__Controller.html#ab00328d1be83aa51bce8c2a4f907c5f4" target="_top" xlink:title="Sends an AT command and captures its response in a text block. Ideal for getters (e....">
<polygon fill="white" stroke="#666666" points="376.25,-104 223.75,-104 223.75,-72 376.25,-72 376.25,-104"/>
<text text-anchor="start" x="231.75" y="-90.5" font-family="Helvetica,sans-Serif" font-size="10.00">LSM1x0A_Controller</text>
<text text-anchor="middle" x="300" y="-78.5" font-family="Helvetica,sans-Serif" font-size="10.00">::sendCommandWithResponse</text>
</a>
</g>
</g>
<!-- Node1&#45;&gt;Node2 -->
<g id="edge1_Node000001_Node000002" class="edge">
<title>Node1&#45;&gt;Node2</title>
<g id="a_edge1_Node000001_Node000002"><a xlink:title=" ">
<path fill="none" stroke="#63b8ff" d="M187.98,-88C195.96,-88 204.02,-88 211.95,-88"/>
<polygon fill="#63b8ff" stroke="#63b8ff" points="211.95,-91.5 221.95,-88 211.95,-84.5 211.95,-91.5"/>
</a>
</g>
</g>
<!-- Node3 -->
<g id="Node000003" class="node">
<title>Node3</title>
<g id="a_Node000003"><a xlink:href="../../d8/d92/classLSM1x0A__Controller.html#abb0eb380daa3dfb7acffb483c5db8e2b" target="_top" xlink:title="Executes the recovery protocol. First Soft&#45;Reset (ATZ), then Hard&#45;Reset if there is a pin.">
<polygon fill="white" stroke="#666666" points="518.25,-214 412.25,-214 412.25,-182 518.25,-182 518.25,-214"/>
<text text-anchor="start" x="420.25" y="-200.5" font-family="Helvetica,sans-Serif" font-size="10.00">LSM1x0A_Controller</text>
<text text-anchor="middle" x="465.25" y="-188.5" font-family="Helvetica,sans-Serif" font-size="10.00">::recoverModule</text>
</a>
</g>
</g>
<!-- Node2&#45;&gt;Node3 -->
<g id="edge2_Node000002_Node000003" class="edge">
<title>Node2&#45;&gt;Node3</title>
<g id="a_edge2_Node000002_Node000003"><a xlink:title=" ">
<path fill="none" stroke="#63b8ff" d="M325.44,-104.47C353.41,-123.32 399.39,-154.29 430.7,-175.39"/>
<polygon fill="#63b8ff" stroke="#63b8ff" points="428.41,-178.07 438.65,-180.75 432.32,-172.26 428.41,-178.07"/>
</a>
</g>
</g>
<!-- Node12 -->
<g id="Node000012" class="node">
<title>Node12</title>
<g id="a_Node000012"><a xlink:href="../../d6/d3c/classLSM1x0A__AtParser.html#a0ba6f927c54fceece22c17773d3f2600" target="_top" xlink:title="Sends a command and extracts a value from the response.">
<polygon fill="white" stroke="#666666" points="1734,-287 1559.75,-287 1559.75,-255 1734,-255 1734,-287"/>
<text text-anchor="start" x="1567.75" y="-273.5" font-family="Helvetica,sans-Serif" font-size="10.00">LSM1x0A_AtParser::sendCommand</text>
<text text-anchor="middle" x="1646.88" y="-261.5" font-family="Helvetica,sans-Serif" font-size="10.00">WithResponse</text>
</a>
</g>
</g>
<!-- Node2&#45;&gt;Node12 -->
<g id="edge57_Node000002_Node000012" class="edge">
<title>Node2&#45;&gt;Node12</title>
<g id="a_edge57_Node000002_Node000012"><a xlink:title=" ">
<path fill="none" stroke="#63b8ff" d="M337.44,-71.65C397.61,-46.21 522.04,0 632.5,0 632.5,0 632.5,0 1238.25,0 1415.19,0 1573.95,-179.26 1627.06,-246.19"/>
<polygon fill="#63b8ff" stroke="#63b8ff" points="1623.99,-247.95 1632.91,-253.67 1629.5,-243.64 1623.99,-247.95"/>
</a>
</g>
</g>
<!-- Node4 -->
<g id="Node000004" class="node">
<title>Node4</title>
<g id="a_Node000004"><a xlink:href="../../d8/d92/classLSM1x0A__Controller.html#a3f6f25b843fe4fb7042c544deae2ab16" target="_top" xlink:title="Manually clears bits from the internal EventGroup.">
<polygon fill="white" stroke="#666666" points="1081.12,-98 975.12,-98 975.12,-66 1081.12,-66 1081.12,-98"/>
<text text-anchor="start" x="983.12" y="-84.5" font-family="Helvetica,sans-Serif" font-size="10.00">LSM1x0A_Controller</text>
<text text-anchor="middle" x="1028.12" y="-72.5" font-family="Helvetica,sans-Serif" font-size="10.00">::clearEvents</text>
</a>
</g>
</g>
<!-- Node3&#45;&gt;Node4 -->
<g id="edge3_Node000003_Node000004" class="edge">
<title>Node3&#45;&gt;Node4</title>
<g id="a_edge3_Node000003_Node000004"><a xlink:title=" ">
<path fill="none" stroke="#63b8ff" d="M490.93,-181.53C507.98,-171 531.59,-158.03 554.25,-151 699.9,-105.82 744.98,-138.94 895.25,-113 917.75,-109.12 942.15,-103.72 963.77,-98.52"/>
<polygon fill="#63b8ff" stroke="#63b8ff" points="964.45,-101.96 973.33,-96.18 962.78,-95.16 964.45,-101.96"/>
</a>
</g>
</g>
<!-- Node5 -->
<g id="Node000005" class="node">
<title>Node5</title>
<g id="a_Node000005"><a xlink:href="../../d8/d92/classLSM1x0A__Controller.html#a345d4bd79fa16b18dc33a4ca788fe5f7" target="_top" xlink:title="Performs a hardware reset using the reset pin.">
<polygon fill="white" stroke="#666666" points="686.5,-104 580.5,-104 580.5,-72 686.5,-72 686.5,-104"/>
<text text-anchor="start" x="588.5" y="-90.5" font-family="Helvetica,sans-Serif" font-size="10.00">LSM1x0A_Controller</text>
<text text-anchor="middle" x="633.5" y="-78.5" font-family="Helvetica,sans-Serif" font-size="10.00">::hardwareReset</text>
</a>
</g>
</g>
<!-- Node3&#45;&gt;Node5 -->
<g id="edge4_Node000003_Node000005" class="edge">
<title>Node3&#45;&gt;Node5</title>
<g id="a_edge4_Node000003_Node000005"><a xlink:title=" ">
<path fill="none" stroke="#63b8ff" d="M480.71,-181.63C497.07,-163.93 525.24,-135.86 554.25,-118 559.52,-114.76 565.19,-111.77 570.99,-109.03"/>
<polygon fill="#63b8ff" stroke="#63b8ff" points="572.39,-112.24 580.13,-104.99 569.56,-105.83 572.39,-112.24"/>
</a>
</g>
</g>
<!-- Node7 -->
<g id="Node000007" class="node">
<title>Node7</title>
<g id="a_Node000007"><a xlink:href="../../d5/d72/classLSM1x0A__LoRaWAN.html#a1892801e37c8cd67d37c76108d6f7d49" target="_top" xlink:title="Validates if the device is currently Joined to the network. (Either confirmed by OTAA or statically a...">
<polygon fill="white" stroke="#666666" points="1313.5,-136 1161,-136 1161,-116 1313.5,-116 1313.5,-136"/>
<text text-anchor="middle" x="1237.25" y="-122.5" font-family="Helvetica,sans-Serif" font-size="10.00">LSM1x0A_LoRaWAN::isJoined</text>
</a>
</g>
</g>
<!-- Node3&#45;&gt;Node7 -->
<g id="edge6_Node000003_Node000007" class="edge">
<title>Node3&#45;&gt;Node7</title>
<g id="a_edge6_Node000003_Node000007"><a xlink:title=" ">
<path fill="none" stroke="#63b8ff" d="M471.18,-181.77C481.24,-151.92 507.23,-88.97 554.25,-63 665.29,-1.69 1003.01,-22.24 1125,-57 1160.07,-66.99 1194.87,-91.56 1215.97,-108.51"/>
<polygon fill="#63b8ff" stroke="#63b8ff" points="1213.55,-111.05 1223.49,-114.72 1218.01,-105.65 1213.55,-111.05"/>
</a>
</g>
</g>
<!-- Node8 -->
<g id="Node000008" class="node">
<title>Node8</title>
<g id="a_Node000008"><a xlink:href="../../d5/d72/classLSM1x0A__LoRaWAN.html#a83e11c0e74ff9e0757db616ab1163424" target="_top" xlink:title="Attempts to recover a lost connection (re&#45;executes OTAA Join if dropped).">
<polygon fill="white" stroke="#666666" points="707.88,-192 559.12,-192 559.12,-160 707.88,-160 707.88,-192"/>
<text text-anchor="start" x="567.12" y="-178.5" font-family="Helvetica,sans-Serif" font-size="10.00">LSM1x0A_LoRaWAN::recover</text>
<text text-anchor="middle" x="633.5" y="-166.5" font-family="Helvetica,sans-Serif" font-size="10.00">Connection</text>
</a>
</g>
</g>
<!-- Node3&#45;&gt;Node8 -->
<g id="edge7_Node000003_Node000008" class="edge">
<title>Node3&#45;&gt;Node8</title>
<g id="a_edge7_Node000003_Node000008"><a xlink:title=" ">
<path fill="none" stroke="#63b8ff" d="M518.4,-191.1C527.74,-189.86 537.69,-188.55 547.67,-187.23"/>
<polygon fill="#63b8ff" stroke="#63b8ff" points="547.97,-190.72 557.42,-185.94 547.05,-183.78 547.97,-190.72"/>
</a>
</g>
</g>
<!-- Node16 -->
<g id="Node000016" class="node">
<title>Node16</title>
<g id="a_Node000016"><a xlink:href="../../d5/d72/classLSM1x0A__LoRaWAN.html#ae3be4ce59dfa200369733317df356e97" target="_top" xlink:title="Pushes the RAM&#45;cached variables back down into the hardware module. Restores the operational state af...">
<polygon fill="white" stroke="#666666" points="895.25,-539 748.75,-539 748.75,-507 895.25,-507 895.25,-539"/>
<text text-anchor="start" x="756.75" y="-525.5" font-family="Helvetica,sans-Serif" font-size="10.00">LSM1x0A_LoRaWAN::restore</text>
<text text-anchor="middle" x="822" y="-513.5" font-family="Helvetica,sans-Serif" font-size="10.00">Config</text>
</a>
</g>
</g>
<!-- Node3&#45;&gt;Node16 -->
<g id="edge20_Node000003_Node000016" class="edge">
<title>Node3&#45;&gt;Node16</title>
<g id="a_edge20_Node000003_Node000016"><a xlink:title=" ">
<path fill="none" stroke="#63b8ff" d="M483.84,-214.12C541.76,-267.18 726.69,-436.6 795.17,-499.34"/>
<polygon fill="#63b8ff" stroke="#63b8ff" points="792.45,-501.59 802.19,-505.76 797.18,-496.43 792.45,-501.59"/>
</a>
</g>
</g>
<!-- Node33 -->
<g id="Node000033" class="node">
<title>Node33</title>
<g id="a_Node000033"><a xlink:href="../../d5/d72/classLSM1x0A__LoRaWAN.html#ace4b04396f1de1f4a54f513f5f378db7" target="_top" xlink:title="Manually overrides the internal joined state tracker.">
<polygon fill="white" stroke="#666666" points="712.75,-939 554.25,-939 554.25,-919 712.75,-919 712.75,-939"/>
<text text-anchor="middle" x="633.5" y="-925.5" font-family="Helvetica,sans-Serif" font-size="10.00">LSM1x0A_LoRaWAN::setJoined</text>
</a>
</g>
</g>
<!-- Node3&#45;&gt;Node33 -->
<g id="edge54_Node000003_Node000033" class="edge">
<title>Node3&#45;&gt;Node33</title>
<g id="a_edge54_Node000003_Node000033"><a xlink:title=" ">
<path fill="none" stroke="#63b8ff" d="M465.97,-214.4C464.65,-310.08 462.58,-795.83 554.25,-905 556.67,-907.88 559.43,-910.43 562.43,-912.67"/>
<polygon fill="#63b8ff" stroke="#63b8ff" points="560.41,-915.54 570.77,-917.75 564.05,-909.56 560.41,-915.54"/>
</a>
</g>
</g>
<!-- Node34 -->
<g id="Node000034" class="node">
<title>Node34</title>
<g id="a_Node000034"><a xlink:href="../../d8/d92/classLSM1x0A__Controller.html#a11ad21cb5ca33ec51346764a23bd485e" target="_top" xlink:title="Performs a software reset (ATZ Command).">
<polygon fill="white" stroke="#666666" points="1290.25,-795 1184.25,-795 1184.25,-763 1290.25,-763 1290.25,-795"/>
<text text-anchor="start" x="1192.25" y="-781.5" font-family="Helvetica,sans-Serif" font-size="10.00">LSM1x0A_Controller</text>
<text text-anchor="middle" x="1237.25" y="-769.5" font-family="Helvetica,sans-Serif" font-size="10.00">::softwareReset</text>
</a>
</g>
</g>
<!-- Node3&#45;&gt;Node34 -->
<g id="edge55_Node000003_Node000034" class="edge">
<title>Node3&#45;&gt;Node34</title>
<g id="a_edge55_Node000003_Node000034"><a xlink:title=" ">
<path fill="none" stroke="#63b8ff" d="M466.89,-214.18C471.16,-318.83 497.25,-897.3 554.25,-948 619.44,-1005.99 887.39,-1058.87 1125,-932 1176.46,-904.52 1210.07,-841.52 1225.82,-805.51"/>
<polygon fill="#63b8ff" stroke="#63b8ff" points="1228.89,-807.25 1229.55,-796.67 1222.44,-804.53 1228.89,-807.25"/>
</a>
</g>
</g>
<!-- Node6 -->
<g id="Node000006" class="node">
<title>Node6</title>
<g id="a_Node000006"><a xlink:href="../../d6/d3c/classLSM1x0A__AtParser.html#ad2839120da13e56132b95019419be1e5" target="_top" xlink:title="Waits for an event (like BOOTALERT) without sending any command. Useful for hardware reset where the ...">
<polygon fill="white" stroke="#666666" points="892.25,-104 751.75,-104 751.75,-72 892.25,-72 892.25,-104"/>
<text text-anchor="start" x="759.75" y="-90.5" font-family="Helvetica,sans-Serif" font-size="10.00">LSM1x0A_AtParser::waitFor</text>
<text text-anchor="middle" x="822" y="-78.5" font-family="Helvetica,sans-Serif" font-size="10.00">Event</text>
</a>
</g>
</g>
<!-- Node5&#45;&gt;Node6 -->
<g id="edge5_Node000005_Node000006" class="edge">
<title>Node5&#45;&gt;Node6</title>
<g id="a_edge5_Node000005_Node000006"><a xlink:title=" ">
<path fill="none" stroke="#63b8ff" d="M686.95,-88C703.46,-88 722.11,-88 740.12,-88"/>
<polygon fill="#63b8ff" stroke="#63b8ff" points="740.03,-91.5 750.03,-88 740.03,-84.5 740.03,-91.5"/>
</a>
</g>
</g>
<!-- Node9 -->
<g id="Node000009" class="node">
<title>Node9</title>
<g id="a_Node000009"><a xlink:href="../../d5/d72/classLSM1x0A__LoRaWAN.html#a59f781f3cfd30c11cd3973bcb10a7baa" target="_top" xlink:title="Initiates a LoRaWAN Network Join procedure. This is a blocking function until the module fires an eve...">
<polygon fill="white" stroke="#666666" points="887.75,-186 756.25,-186 756.25,-166 887.75,-166 887.75,-186"/>
<text text-anchor="middle" x="822" y="-172.5" font-family="Helvetica,sans-Serif" font-size="10.00">LSM1x0A_LoRaWAN::join</text>
</a>
</g>
</g>
<!-- Node8&#45;&gt;Node9 -->
<g id="edge8_Node000008_Node000009" class="edge">
<title>Node8&#45;&gt;Node9</title>
<g id="a_edge8_Node000008_Node000009"><a xlink:title=" ">
<path fill="none" stroke="#63b8ff" d="M708.21,-176C720.17,-176 732.58,-176 744.6,-176"/>
<polygon fill="#63b8ff" stroke="#63b8ff" points="744.47,-179.5 754.47,-176 744.47,-172.5 744.47,-179.5"/>
</a>
</g>
</g>
<!-- Node9&#45;&gt;Node3 -->
<g id="edge10_Node000009_Node000003" class="edge">
<title>Node9&#45;&gt;Node3</title>
<g id="a_edge10_Node000009_Node000003"><a xlink:title=" ">
<path fill="none" stroke="#63b8ff" d="M785.27,-186.4C764.34,-191.95 737.28,-198.2 712.75,-201 642.76,-208.98 624.68,-202.2 554.25,-201 546.35,-200.87 538.06,-200.66 529.86,-200.43"/>
<polygon fill="#63b8ff" stroke="#63b8ff" points="529.98,-196.93 519.87,-200.12 529.76,-203.92 529.98,-196.93"/>
</a>
</g>
</g>
<!-- Node9&#45;&gt;Node4 -->
<g id="edge9_Node000009_Node000004" class="edge">
<title>Node9&#45;&gt;Node4</title>
<g id="a_edge9_Node000009_Node000004"><a xlink:title=" ">
<path fill="none" stroke="#63b8ff" d="M856.55,-165.52C869.3,-160.68 883.56,-154.16 895.25,-146 914.59,-132.5 911.02,-119.13 931.25,-107 941.2,-101.03 952.56,-96.47 963.9,-93"/>
<polygon fill="#63b8ff" stroke="#63b8ff" points="964.57,-96.45 973.26,-90.39 962.69,-89.7 964.57,-96.45"/>
</a>
</g>
</g>
<!-- Node10 -->
<g id="Node000010" class="node">
<title>Node10</title>
<g id="a_Node000010"><a xlink:href="../../d8/d92/classLSM1x0A__Controller.html#afd7d92e60ed6fdae696a955cdbe0ed8c" target="_top" xlink:title="Sends any AT command to the module, returning error if it fails. Internally uses the LsmAtParser logi...">
<polygon fill="white" stroke="#666666" points="1290.25,-558 1184.25,-558 1184.25,-526 1290.25,-526 1290.25,-558"/>
<text text-anchor="start" x="1192.25" y="-544.5" font-family="Helvetica,sans-Serif" font-size="10.00">LSM1x0A_Controller</text>
<text text-anchor="middle" x="1237.25" y="-532.5" font-family="Helvetica,sans-Serif" font-size="10.00">::sendCommand</text>
</a>
</g>
</g>
<!-- Node9&#45;&gt;Node10 -->
<g id="edge11_Node000009_Node000010" class="edge">
<title>Node9&#45;&gt;Node10</title>
<g id="a_edge11_Node000009_Node000010"><a xlink:title=" ">
<path fill="none" stroke="#63b8ff" d="M888.03,-171.81C965.64,-168.2 1089.41,-167.28 1125,-195 1226.73,-274.23 1236.99,-447.25 1236.95,-514.5"/>
<polygon fill="#63b8ff" stroke="#63b8ff" points="1233.45,-514.23 1236.85,-524.26 1240.45,-514.3 1233.45,-514.23"/>
</a>
</g>
</g>
<!-- Node14 -->
<g id="Node000014" class="node">
<title>Node14</title>
<g id="a_Node000014"><a xlink:href="../../d5/d72/classLSM1x0A__LoRaWAN.html#a3fdd1ac318a5ad2559323e5d57e36a5e" target="_top" xlink:title="Enables or disables specific sub&#45;bands for regions supporting Channel Masks (e.g.,...">
<polygon fill="white" stroke="#666666" points="1123.12,-224 933.12,-224 933.12,-204 1123.12,-204 1123.12,-224"/>
<text text-anchor="middle" x="1028.12" y="-210.5" font-family="Helvetica,sans-Serif" font-size="10.00">LSM1x0A_LoRaWAN::setChannelMask</text>
</a>
</g>
</g>
<!-- Node9&#45;&gt;Node14 -->
<g id="edge16_Node000009_Node000014" class="edge">
<title>Node9&#45;&gt;Node14</title>
<g id="a_edge16_Node000009_Node000014"><a xlink:title=" ">
<path fill="none" stroke="#63b8ff" d="M879.32,-186.48C904.19,-191.12 933.64,-196.6 959.68,-201.44"/>
<polygon fill="#63b8ff" stroke="#63b8ff" points="959.03,-204.88 969.5,-203.27 960.31,-198 959.03,-204.88"/>
</a>
</g>
</g>
<!-- Node15 -->
<g id="Node000015" class="node">
<title>Node15</title>
<g id="a_Node000015"><a xlink:href="../../d8/d92/classLSM1x0A__Controller.html#a62476e30e50c7fe120aeb8df4b828675" target="_top" xlink:title="Synchronously/blockingly waits for an asynchronous event to occur. Useful for wrapping commands like ...">
<polygon fill="white" stroke="#666666" points="1081.12,-148 975.12,-148 975.12,-116 1081.12,-116 1081.12,-148"/>
<text text-anchor="start" x="983.12" y="-134.5" font-family="Helvetica,sans-Serif" font-size="10.00">LSM1x0A_Controller</text>
<text text-anchor="middle" x="1028.12" y="-122.5" font-family="Helvetica,sans-Serif" font-size="10.00">::waitForEvent</text>
</a>
</g>
</g>
<!-- Node9&#45;&gt;Node15 -->
<g id="edge19_Node000009_Node000015" class="edge">
<title>Node9&#45;&gt;Node15</title>
<g id="a_edge19_Node000009_Node000015"><a xlink:title=" ">
<path fill="none" stroke="#63b8ff" d="M871.63,-165.52C899.24,-159.57 934.11,-152.05 963.82,-145.65"/>
<polygon fill="#63b8ff" stroke="#63b8ff" points="964.42,-149.1 973.45,-143.57 962.94,-142.25 964.42,-149.1"/>
</a>
</g>
</g>
<!-- Node10&#45;&gt;Node3 -->
<g id="edge12_Node000010_Node000003" class="edge">
<title>Node10&#45;&gt;Node3</title>
<g id="a_edge12_Node000010_Node000003"><a xlink:title=" ">
<path fill="none" stroke="#63b8ff" d="M1229.82,-558.31C1216.06,-593.61 1183.16,-679.91 1161,-754 1141.73,-818.44 1177.92,-859.48 1125,-901 1057.25,-954.16 1007.69,-940.65 931.25,-901 643.93,-751.97 505.97,-335.66 473.77,-225.19"/>
<polygon fill="#63b8ff" stroke="#63b8ff" points="477.2,-224.47 471.08,-215.82 470.47,-226.4 477.2,-224.47"/>
</a>
</g>
</g>
<!-- Node11 -->
<g id="Node000011" class="node">
<title>Node11</title>
<g id="a_Node000011"><a xlink:href="../../d6/d3c/classLSM1x0A__AtParser.html#a29b53c521974387ba6c03afadfaffa4a" target="_top" xlink:title="Sends a simple command and waits for OK/ERROR. Example: sendCommand(&quot;AT+JOIN&quot;);.">
<polygon fill="white" stroke="#666666" points="1523.75,-552 1349.5,-552 1349.5,-532 1523.75,-532 1523.75,-552"/>
<text text-anchor="middle" x="1436.62" y="-538.5" font-family="Helvetica,sans-Serif" font-size="10.00">LSM1x0A_AtParser::sendCommand</text>
</a>
</g>
</g>
<!-- Node10&#45;&gt;Node11 -->
<g id="edge13_Node000010_Node000011" class="edge">
<title>Node10&#45;&gt;Node11</title>
<g id="a_edge13_Node000010_Node000011"><a xlink:title=" ">
<path fill="none" stroke="#63b8ff" d="M1290.62,-542C1305.19,-542 1321.5,-542 1337.78,-542"/>
<polygon fill="#63b8ff" stroke="#63b8ff" points="1337.51,-545.5 1347.51,-542 1337.51,-538.5 1337.51,-545.5"/>
</a>
</g>
</g>
<!-- Node11&#45;&gt;Node12 -->
<g id="edge14_Node000011_Node000012" class="edge">
<title>Node11&#45;&gt;Node12</title>
<g id="a_edge14_Node000011_Node000012"><a xlink:title=" ">
<path fill="none" stroke="#63b8ff" d="M1445.53,-531.71C1475.44,-492.78 1582.18,-353.88 1626.44,-296.3"/>
<polygon fill="#63b8ff" stroke="#63b8ff" points="1628.98,-298.73 1632.3,-288.67 1623.43,-294.46 1628.98,-298.73"/>
</a>
</g>
</g>
<!-- Node13 -->
<g id="Node000013" class="node">
<title>Node13</title>
<g id="a_Node000013"><a xlink:href="../../d5/d8b/classUartDriver.html#a5d0f22e8867eebe99273078bb19bd23d" target="_top" xlink:title="Sends data through UART.">
<polygon fill="white" stroke="#666666" points="1879,-281 1770,-281 1770,-261 1879,-261 1879,-281"/>
<text text-anchor="middle" x="1824.5" y="-267.5" font-family="Helvetica,sans-Serif" font-size="10.00">UartDriver::sendData</text>
</a>
</g>
</g>
<!-- Node12&#45;&gt;Node13 -->
<g id="edge15_Node000012_Node000013" class="edge">
<title>Node12&#45;&gt;Node13</title>
<g id="a_edge15_Node000012_Node000013"><a xlink:title=" ">
<path fill="none" stroke="#63b8ff" d="M1734.4,-271C1742.55,-271 1750.7,-271 1758.6,-271"/>
<polygon fill="#63b8ff" stroke="#63b8ff" points="1758.43,-274.5 1768.43,-271 1758.43,-267.5 1758.43,-274.5"/>
</a>
</g>
</g>
<!-- Node14&#45;&gt;Node7 -->
<g id="edge17_Node000014_Node000007" class="edge">
<title>Node14&#45;&gt;Node7</title>
<g id="a_edge17_Node000014_Node000007"><a xlink:title=" ">
<path fill="none" stroke="#63b8ff" d="M1053.7,-203.56C1090.29,-188.01 1159.28,-158.7 1201.17,-140.9"/>
<polygon fill="#63b8ff" stroke="#63b8ff" points="1202.48,-144.15 1210.32,-137.02 1199.74,-137.71 1202.48,-144.15"/>
</a>
</g>
</g>
<!-- Node14&#45;&gt;Node10 -->
<g id="edge18_Node000014_Node000010" class="edge">
<title>Node14&#45;&gt;Node10</title>
<g id="a_edge18_Node000014_Node000010"><a xlink:title=" ">
<path fill="none" stroke="#63b8ff" d="M1111.88,-224.28C1116.58,-226.69 1121.01,-229.57 1125,-233 1211.33,-307.27 1230.67,-453.75 1235,-514.55"/>
<polygon fill="#63b8ff" stroke="#63b8ff" points="1231.5,-514.57 1235.61,-524.33 1238.48,-514.13 1231.5,-514.57"/>
</a>
</g>
</g>
<!-- Node16&#45;&gt;Node14 -->
<g id="edge25_Node000016_Node000014" class="edge">
<title>Node16&#45;&gt;Node14</title>
<g id="a_edge25_Node000016_Node000014"><a xlink:title=" ">
<path fill="none" stroke="#63b8ff" d="M823.8,-506.78C827.18,-457.25 844.45,-306.79 931.25,-233 932.38,-232.04 933.54,-231.13 934.73,-230.25"/>
<polygon fill="#63b8ff" stroke="#63b8ff" points="936.42,-233.33 943.12,-225.12 932.77,-227.35 936.42,-233.33"/>
</a>
</g>
</g>
<!-- Node17 -->
<g id="Node000017" class="node">
<title>Node17</title>
<g id="a_Node000017"><a xlink:href="../../d5/d72/classLSM1x0A__LoRaWAN.html#af0baa3db4c7fab580d6b19a9e92472f6" target="_top" xlink:title="Enables or disables Adaptive Data Rate (ADR).">
<polygon fill="white" stroke="#666666" points="1104,-350 952.25,-350 952.25,-330 1104,-330 1104,-350"/>
<text text-anchor="middle" x="1028.12" y="-336.5" font-family="Helvetica,sans-Serif" font-size="10.00">LSM1x0A_LoRaWAN::setADR</text>
</a>
</g>
</g>
<!-- Node16&#45;&gt;Node17 -->
<g id="edge21_Node000016_Node000017" class="edge">
<title>Node16&#45;&gt;Node17</title>
<g id="a_edge21_Node000016_Node000017"><a xlink:title=" ">
<path fill="none" stroke="#63b8ff" d="M828.81,-506.6C841.6,-473 875.6,-396.38 931.25,-359 934.52,-356.8 937.98,-354.85 941.58,-353.11"/>
<polygon fill="#63b8ff" stroke="#63b8ff" points="942.73,-356.42 950.62,-349.35 940.04,-349.96 942.73,-356.42"/>
</a>
</g>
</g>
<!-- Node18 -->
<g id="Node000018" class="node">
<title>Node18</title>
<g id="a_Node000018"><a xlink:href="../../d5/d72/classLSM1x0A__LoRaWAN.html#a5365ed1596eb84ebf1e3b33b4a10c788" target="_top" xlink:title="Sets the LoRaWAN operational frequency band.">
<polygon fill="white" stroke="#666666" points="1104.38,-312 951.88,-312 951.88,-292 1104.38,-292 1104.38,-312"/>
<text text-anchor="middle" x="1028.12" y="-298.5" font-family="Helvetica,sans-Serif" font-size="10.00">LSM1x0A_LoRaWAN::setBand</text>
</a>
</g>
</g>
<!-- Node16&#45;&gt;Node18 -->
<g id="edge23_Node000016_Node000018" class="edge">
<title>Node16&#45;&gt;Node18</title>
<g id="a_edge23_Node000016_Node000018"><a xlink:title=" ">
<path fill="none" stroke="#63b8ff" d="M826.72,-506.5C836.45,-467.43 866.49,-368.94 931.25,-321 934.41,-318.66 937.79,-316.58 941.32,-314.75"/>
<polygon fill="#63b8ff" stroke="#63b8ff" points="942.5,-318.05 950.22,-310.8 939.66,-311.66 942.5,-318.05"/>
</a>
</g>
</g>
<!-- Node19 -->
<g id="Node000019" class="node">
<title>Node19</title>
<g id="a_Node000019"><a xlink:href="../../d5/d72/classLSM1x0A__LoRaWAN.html#a9d9285c43414337a0ccb3a6cd7ca06e6" target="_top" xlink:title="Configures the number of retries for Confirmed uplinks.">
<polygon fill="white" stroke="#666666" points="1110.38,-274 945.88,-274 945.88,-242 1110.38,-242 1110.38,-274"/>
<text text-anchor="start" x="953.88" y="-260.5" font-family="Helvetica,sans-Serif" font-size="10.00">LSM1x0A_LoRaWAN::setConfirm</text>
<text text-anchor="middle" x="1028.12" y="-248.5" font-family="Helvetica,sans-Serif" font-size="10.00">Retry</text>
</a>
</g>
</g>
<!-- Node16&#45;&gt;Node19 -->
<g id="edge26_Node000016_Node000019" class="edge">
<title>Node16&#45;&gt;Node19</title>
<g id="a_edge26_Node000016_Node000019"><a xlink:title=" ">
<path fill="none" stroke="#63b8ff" d="M825.43,-506.7C832.8,-463.28 858.95,-344.03 931.25,-283 932.74,-281.74 934.29,-280.55 935.88,-279.41"/>
<polygon fill="#63b8ff" stroke="#63b8ff" points="937.5,-282.52 944.2,-274.32 933.85,-276.55 937.5,-282.52"/>
</a>
</g>
</g>
<!-- Node20 -->
<g id="Node000020" class="node">
<title>Node20</title>
<g id="a_Node000020"><a xlink:href="../../d5/d72/classLSM1x0A__LoRaWAN.html#a56345ceeafa0b9059d6de4e69eddc82e" target="_top" xlink:title="Sets the Data Rate (DR) of the module.">
<polygon fill="white" stroke="#666666" points="1114.12,-892 942.12,-892 942.12,-872 1114.12,-872 1114.12,-892"/>
<text text-anchor="middle" x="1028.12" y="-878.5" font-family="Helvetica,sans-Serif" font-size="10.00">LSM1x0A_LoRaWAN::setDataRate</text>
</a>
</g>
</g>
<!-- Node16&#45;&gt;Node20 -->
<g id="edge28_Node000016_Node000020" class="edge">
<title>Node16&#45;&gt;Node20</title>
<g id="a_edge28_Node000016_Node000020"><a xlink:title=" ">
<path fill="none" stroke="#63b8ff" d="M822.8,-539.16C823.04,-593.93 831.69,-774.06 931.25,-863 932.2,-863.85 933.17,-864.66 934.17,-865.44"/>
<polygon fill="#63b8ff" stroke="#63b8ff" points="932.2,-868.34 942.5,-870.83 936,-862.46 932.2,-868.34"/>
</a>
</g>
</g>
<!-- Node21 -->
<g id="Node000021" class="node">
<title>Node21</title>
<g id="a_Node000021"><a xlink:href="../../d5/d72/classLSM1x0A__LoRaWAN.html#a8494083816ab885cb07fc3b08de029f4" target="_top" xlink:title="Sets the LoRaWAN Device Address (DevAddr) for ABP mode.">
<polygon fill="white" stroke="#666666" points="1112.25,-854 944,-854 944,-834 1112.25,-834 1112.25,-854"/>
<text text-anchor="middle" x="1028.12" y="-840.5" font-family="Helvetica,sans-Serif" font-size="10.00">LSM1x0A_LoRaWAN::setDevAddr</text>
</a>
</g>
</g>
<!-- Node16&#45;&gt;Node21 -->
<g id="edge30_Node000016_Node000021" class="edge">
<title>Node16&#45;&gt;Node21</title>
<g id="a_edge30_Node000016_Node000021"><a xlink:title=" ">
<path fill="none" stroke="#63b8ff" d="M823.53,-539.15C826.12,-589.92 841.37,-747.57 931.25,-825 932.37,-825.97 933.53,-826.89 934.71,-827.77"/>
<polygon fill="#63b8ff" stroke="#63b8ff" points="932.73,-830.65 943.07,-832.93 936.4,-824.7 932.73,-830.65"/>
</a>
</g>
</g>
<!-- Node22 -->
<g id="Node000022" class="node">
<title>Node22</title>
<g id="a_Node000022"><a xlink:href="../../d5/d72/classLSM1x0A__LoRaWAN.html#ad320634e52d7ea907043cc50dd37c5b0" target="_top" xlink:title="Sets the LoRaWAN Device EUI (DevEUI).">
<polygon fill="white" stroke="#666666" points="1110.75,-816 945.5,-816 945.5,-796 1110.75,-796 1110.75,-816"/>
<text text-anchor="middle" x="1028.12" y="-802.5" font-family="Helvetica,sans-Serif" font-size="10.00">LSM1x0A_LoRaWAN::setDevEUI</text>
</a>
</g>
</g>
<!-- Node16&#45;&gt;Node22 -->
<g id="edge32_Node000016_Node000022" class="edge">
<title>Node16&#45;&gt;Node22</title>
<g id="a_edge32_Node000016_Node000022"><a xlink:title=" ">
<path fill="none" stroke="#63b8ff" d="M824.49,-539.44C829.64,-586.24 851.12,-721.05 931.25,-787 932.74,-788.22 934.28,-789.38 935.87,-790.46"/>
<polygon fill="#63b8ff" stroke="#63b8ff" points="933.73,-793.27 944.15,-795.21 937.22,-787.2 933.73,-793.27"/>
</a>
</g>
</g>
<!-- Node23 -->
<g id="Node000023" class="node">
<title>Node23</title>
<g id="a_Node000023"><a xlink:href="../../d5/d72/classLSM1x0A__LoRaWAN.html#a031023b0d2dd5db3c51c2db6ae7801cc" target="_top" xlink:title="Enables or disables the Duty Cycle limitation (EU regions mostly).">
<polygon fill="white" stroke="#666666" points="1103.62,-778 952.62,-778 952.62,-746 1103.62,-746 1103.62,-778"/>
<text text-anchor="start" x="960.62" y="-764.5" font-family="Helvetica,sans-Serif" font-size="10.00">LSM1x0A_LoRaWAN::setDuty</text>
<text text-anchor="middle" x="1028.12" y="-752.5" font-family="Helvetica,sans-Serif" font-size="10.00">Cycle</text>
</a>
</g>
</g>
<!-- Node16&#45;&gt;Node23 -->
<g id="edge34_Node000016_Node000023" class="edge">
<title>Node16&#45;&gt;Node23</title>
<g id="a_edge34_Node000016_Node000023"><a xlink:title=" ">
<path fill="none" stroke="#63b8ff" d="M826.4,-539.3C835.65,-579.44 865.14,-683.67 931.25,-737 934.69,-739.78 938.41,-742.25 942.31,-744.44"/>
<polygon fill="#63b8ff" stroke="#63b8ff" points="940.46,-747.44 950.98,-748.7 943.55,-741.15 940.46,-747.44"/>
</a>
</g>
</g>
<!-- Node24 -->
<g id="Node000024" class="node">
<title>Node24</title>
<g id="a_Node000024"><a xlink:href="../../d5/d72/classLSM1x0A__LoRaWAN.html#a6b179d5825c49af0f391dfc539912f64" target="_top" xlink:title="Sets the delay for the Join1 receive window.">
<polygon fill="white" stroke="#666666" points="1104.75,-728 951.5,-728 951.5,-696 1104.75,-696 1104.75,-728"/>
<text text-anchor="start" x="959.5" y="-714.5" font-family="Helvetica,sans-Serif" font-size="10.00">LSM1x0A_LoRaWAN::setJoin1</text>
<text text-anchor="middle" x="1028.12" y="-702.5" font-family="Helvetica,sans-Serif" font-size="10.00">Delay</text>
</a>
</g>
</g>
<!-- Node16&#45;&gt;Node24 -->
<g id="edge36_Node000016_Node000024" class="edge">
<title>Node16&#45;&gt;Node24</title>
<g id="a_edge36_Node000016_Node000024"><a xlink:title=" ">
<path fill="none" stroke="#63b8ff" d="M829.09,-539.39C842.31,-572.62 876.88,-648.08 931.25,-687 934.42,-689.27 937.79,-691.34 941.28,-693.21"/>
<polygon fill="#63b8ff" stroke="#63b8ff" points="939.53,-696.26 950.07,-697.38 942.53,-689.93 939.53,-696.26"/>
</a>
</g>
</g>
<!-- Node25 -->
<g id="Node000025" class="node">
<title>Node25</title>
<g id="a_Node000025"><a xlink:href="../../d5/d72/classLSM1x0A__LoRaWAN.html#a4545d0caad41558cdb9bae8286b104d8" target="_top" xlink:title="Sets the delay for the Join2 receive window.">
<polygon fill="white" stroke="#666666" points="1104.75,-678 951.5,-678 951.5,-646 1104.75,-646 1104.75,-678"/>
<text text-anchor="start" x="959.5" y="-664.5" font-family="Helvetica,sans-Serif" font-size="10.00">LSM1x0A_LoRaWAN::setJoin2</text>
<text text-anchor="middle" x="1028.12" y="-652.5" font-family="Helvetica,sans-Serif" font-size="10.00">Delay</text>
</a>
</g>
</g>
<!-- Node16&#45;&gt;Node25 -->
<g id="edge38_Node000016_Node000025" class="edge">
<title>Node16&#45;&gt;Node25</title>
<g id="a_edge38_Node000016_Node000025"><a xlink:title=" ">
<path fill="none" stroke="#63b8ff" d="M833.89,-539.33C851.4,-564.27 888.24,-611.61 931.25,-637 934.26,-638.78 937.4,-640.43 940.63,-641.97"/>
<polygon fill="#63b8ff" stroke="#63b8ff" points="939.23,-645.18 949.8,-645.9 941.99,-638.74 939.23,-645.18"/>
</a>
</g>
</g>
<!-- Node26 -->
<g id="Node000026" class="node">
<title>Node26</title>
<g id="a_Node000026"><a xlink:href="../../d5/d72/classLSM1x0A__LoRaWAN.html#a06bd50723ec1eb7e144c9141b2ec86fc" target="_top" xlink:title="Sets the LoRaWAN Network ID (NetID).">
<polygon fill="white" stroke="#666666" points="1108.5,-628 947.75,-628 947.75,-608 1108.5,-608 1108.5,-628"/>
<text text-anchor="middle" x="1028.12" y="-614.5" font-family="Helvetica,sans-Serif" font-size="10.00">LSM1x0A_LoRaWAN::setNwkID</text>
</a>
</g>
</g>
<!-- Node16&#45;&gt;Node26 -->
<g id="edge40_Node000016_Node000026" class="edge">
<title>Node16&#45;&gt;Node26</title>
<g id="a_edge40_Node000016_Node000026"><a xlink:title=" ">
<path fill="none" stroke="#63b8ff" d="M841.1,-539.34C861.51,-556.84 896.41,-584.11 931.25,-599 935.85,-600.97 940.66,-602.73 945.58,-604.32"/>
<polygon fill="#63b8ff" stroke="#63b8ff" points="944.42,-607.63 955.01,-607.08 946.39,-600.91 944.42,-607.63"/>
</a>
</g>
</g>
<!-- Node27 -->
<g id="Node000027" class="node">
<title>Node27</title>
<g id="a_Node000027"><a xlink:href="../../d5/d72/classLSM1x0A__LoRaWAN.html#aa70ada64d28ecca216bb62268e502adf" target="_top" xlink:title="Sets the delay for the RX1 receive window.">
<polygon fill="white" stroke="#666666" points="1114.88,-590 941.38,-590 941.38,-570 1114.88,-570 1114.88,-590"/>
<text text-anchor="middle" x="1028.12" y="-576.5" font-family="Helvetica,sans-Serif" font-size="10.00">LSM1x0A_LoRaWAN::setRx1Delay</text>
</a>
</g>
</g>
<!-- Node16&#45;&gt;Node27 -->
<g id="edge42_Node000016_Node000027" class="edge">
<title>Node16&#45;&gt;Node27</title>
<g id="a_edge42_Node000016_Node000027"><a xlink:title=" ">
<path fill="none" stroke="#63b8ff" d="M865.49,-539.49C885.27,-546.76 909.25,-554.99 931.25,-561 939.33,-563.21 947.86,-565.27 956.37,-567.16"/>
<polygon fill="#63b8ff" stroke="#63b8ff" points="955.5,-570.55 966.01,-569.23 956.97,-563.71 955.5,-570.55"/>
</a>
</g>
</g>
<!-- Node28 -->
<g id="Node000028" class="node">
<title>Node28</title>
<g id="a_Node000028"><a xlink:href="../../d5/d72/classLSM1x0A__LoRaWAN.html#a2cf4eff0181b6107d082bccefa24217b" target="_top" xlink:title="Sets the Data Rate (DR) specifically for the RX2 window.">
<polygon fill="white" stroke="#666666" points="1123.12,-552 933.12,-552 933.12,-532 1123.12,-532 1123.12,-552"/>
<text text-anchor="middle" x="1028.12" y="-538.5" font-family="Helvetica,sans-Serif" font-size="10.00">LSM1x0A_LoRaWAN::setRx2DataRate</text>
</a>
</g>
</g>
<!-- Node16&#45;&gt;Node28 -->
<g id="edge44_Node000016_Node000028" class="edge">
<title>Node16&#45;&gt;Node28</title>
<g id="a_edge44_Node000016_Node000028"><a xlink:title=" ">
<path fill="none" stroke="#63b8ff" d="M895.54,-529.75C903.91,-530.53 912.56,-531.34 921.26,-532.15"/>
<polygon fill="#63b8ff" stroke="#63b8ff" points="920.89,-535.63 931.18,-533.07 921.54,-528.66 920.89,-535.63"/>
</a>
</g>
</g>
<!-- Node29 -->
<g id="Node000029" class="node">
<title>Node29</title>
<g id="a_Node000029"><a xlink:href="../../d5/d72/classLSM1x0A__LoRaWAN.html#a42d2137b475b57e19d891a5f1ac93221" target="_top" xlink:title="Sets the delay for the RX2 receive window.">
<polygon fill="white" stroke="#666666" points="1114.88,-514 941.38,-514 941.38,-494 1114.88,-494 1114.88,-514"/>
<text text-anchor="middle" x="1028.12" y="-500.5" font-family="Helvetica,sans-Serif" font-size="10.00">LSM1x0A_LoRaWAN::setRx2Delay</text>
</a>
</g>
</g>
<!-- Node16&#45;&gt;Node29 -->
<g id="edge46_Node000016_Node000029" class="edge">
<title>Node16&#45;&gt;Node29</title>
<g id="a_edge46_Node000016_Node000029"><a xlink:title=" ">
<path fill="none" stroke="#63b8ff" d="M895.54,-516.25C906.74,-515.21 918.47,-514.11 930.1,-513.03"/>
<polygon fill="#63b8ff" stroke="#63b8ff" points="930.07,-516.55 939.7,-512.14 929.42,-509.58 930.07,-516.55"/>
</a>
</g>
</g>
<!-- Node30 -->
<g id="Node000030" class="node">
<title>Node30</title>
<g id="a_Node000030"><a xlink:href="../../d5/d72/classLSM1x0A__LoRaWAN.html#a689f7dfda1dfeae11ea397c2ddf2ad37" target="_top" xlink:title="Sets the precise frequency for the RX2 window.">
<polygon fill="white" stroke="#666666" points="1125,-476 931.25,-476 931.25,-456 1125,-456 1125,-476"/>
<text text-anchor="middle" x="1028.12" y="-462.5" font-family="Helvetica,sans-Serif" font-size="10.00">LSM1x0A_LoRaWAN::setRx2Frequency</text>
</a>
</g>
</g>
<!-- Node16&#45;&gt;Node30 -->
<g id="edge48_Node000016_Node000030" class="edge">
<title>Node16&#45;&gt;Node30</title>
<g id="a_edge48_Node000016_Node000030"><a xlink:title=" ">
<path fill="none" stroke="#63b8ff" d="M865.49,-506.51C885.27,-499.24 909.25,-491.01 931.25,-485 939.33,-482.79 947.86,-480.73 956.37,-478.84"/>
<polygon fill="#63b8ff" stroke="#63b8ff" points="956.97,-482.29 966.01,-476.77 955.5,-475.45 956.97,-482.29"/>
</a>
</g>
</g>
<!-- Node31 -->
<g id="Node000031" class="node">
<title>Node31</title>
<g id="a_Node000031"><a xlink:href="../../d5/d72/classLSM1x0A__LoRaWAN.html#a1df10d7ae6bf45b537d28d3d5c4b88d7" target="_top" xlink:title="Sets the transmission power index.">
<polygon fill="white" stroke="#666666" points="1112.62,-438 943.62,-438 943.62,-418 1112.62,-418 1112.62,-438"/>
<text text-anchor="middle" x="1028.12" y="-424.5" font-family="Helvetica,sans-Serif" font-size="10.00">LSM1x0A_LoRaWAN::setTxPower</text>
</a>
</g>
</g>
<!-- Node16&#45;&gt;Node31 -->
<g id="edge50_Node000016_Node000031" class="edge">
<title>Node16&#45;&gt;Node31</title>
<g id="a_edge50_Node000016_Node000031"><a xlink:title=" ">
<path fill="none" stroke="#63b8ff" d="M841.1,-506.66C861.51,-489.16 896.41,-461.89 931.25,-447 935.85,-445.03 940.66,-443.27 945.58,-441.68"/>
<polygon fill="#63b8ff" stroke="#63b8ff" points="946.39,-445.09 955.01,-438.92 944.42,-438.37 946.39,-445.09"/>
</a>
</g>
</g>
<!-- Node32 -->
<g id="Node000032" class="node">
<title>Node32</title>
<g id="a_Node000032"><a xlink:href="../../d5/d72/classLSM1x0A__LoRaWAN.html#a059fd6a9356c4ecadd5a98294da5952d" target="_top" xlink:title="Configures the number of repetitions for Unconfirmed uplinks.">
<polygon fill="white" stroke="#666666" points="1115.62,-400 940.62,-400 940.62,-368 1115.62,-368 1115.62,-400"/>
<text text-anchor="start" x="948.62" y="-386.5" font-family="Helvetica,sans-Serif" font-size="10.00">LSM1x0A_LoRaWAN::setUnconfirm</text>
<text text-anchor="middle" x="1028.12" y="-374.5" font-family="Helvetica,sans-Serif" font-size="10.00">Retry</text>
</a>
</g>
</g>
<!-- Node16&#45;&gt;Node32 -->
<g id="edge52_Node000016_Node000032" class="edge">
<title>Node16&#45;&gt;Node32</title>
<g id="a_edge52_Node000016_Node000032"><a xlink:title=" ">
<path fill="none" stroke="#63b8ff" d="M833.89,-506.67C851.4,-481.73 888.24,-434.39 931.25,-409 933.56,-407.64 935.95,-406.34 938.39,-405.12"/>
<polygon fill="#63b8ff" stroke="#63b8ff" points="939.65,-408.4 947.33,-401.1 936.78,-402.01 939.65,-408.4"/>
</a>
</g>
</g>
<!-- Node17&#45;&gt;Node10 -->
<g id="edge22_Node000017_Node000010" class="edge">
<title>Node17&#45;&gt;Node10</title>
<g id="a_edge22_Node000017_Node000010"><a xlink:title=" ">
<path fill="none" stroke="#63b8ff" d="M1104.4,-348.53C1111.72,-351.2 1118.74,-354.62 1125,-359 1180.59,-397.86 1213.44,-474.26 1227.74,-514.97"/>
<polygon fill="#63b8ff" stroke="#63b8ff" points="1224.36,-515.89 1230.87,-524.24 1230.99,-513.65 1224.36,-515.89"/>
</a>
</g>
</g>
<!-- Node18&#45;&gt;Node10 -->
<g id="edge24_Node000018_Node000010" class="edge">
<title>Node18&#45;&gt;Node10</title>
<g id="a_edge24_Node000018_Node000010"><a xlink:title=" ">
<path fill="none" stroke="#63b8ff" d="M1104.77,-310.03C1112.02,-312.79 1118.92,-316.38 1125,-321 1189.62,-370.13 1219.46,-467.16 1230.66,-514.6"/>
<polygon fill="#63b8ff" stroke="#63b8ff" points="1227.17,-515.06 1232.78,-524.05 1234,-513.53 1227.17,-515.06"/>
</a>
</g>
</g>
<!-- Node19&#45;&gt;Node10 -->
<g id="edge27_Node000019_Node000010" class="edge">
<title>Node19&#45;&gt;Node10</title>
<g id="a_edge27_Node000019_Node000010"><a xlink:title=" ">
<path fill="none" stroke="#63b8ff" d="M1110.83,-273.44C1115.91,-276.14 1120.7,-279.3 1125,-283 1196.95,-344.86 1223.73,-461.59 1232.49,-514.59"/>
<polygon fill="#63b8ff" stroke="#63b8ff" points="1229,-514.92 1233.99,-524.26 1235.92,-513.84 1229,-514.92"/>
</a>
</g>
</g>
<!-- Node20&#45;&gt;Node10 -->
<g id="edge29_Node000020_Node000010" class="edge">
<title>Node20&#45;&gt;Node10</title>
<g id="a_edge29_Node000020_Node000010"><a xlink:title=" ">
<path fill="none" stroke="#63b8ff" d="M1112.44,-871.6C1116.95,-869.21 1121.19,-866.37 1125,-863 1163.23,-829.22 1144.47,-802.26 1161,-754 1183.81,-687.42 1211.8,-609.52 1226.37,-569.23"/>
<polygon fill="#63b8ff" stroke="#63b8ff" points="1229.64,-570.47 1229.76,-559.87 1223.06,-568.08 1229.64,-570.47"/>
</a>
</g>
</g>
<!-- Node21&#45;&gt;Node10 -->
<g id="edge31_Node000021_Node000010" class="edge">
<title>Node21&#45;&gt;Node10</title>
<g id="a_edge31_Node000021_Node000010"><a xlink:title=" ">
<path fill="none" stroke="#63b8ff" d="M1111.77,-833.58C1116.5,-831.21 1120.96,-828.37 1125,-825 1145.78,-807.64 1204.69,-636.39 1227.28,-569.02"/>
<polygon fill="#63b8ff" stroke="#63b8ff" points="1230.49,-570.45 1230.34,-559.86 1223.85,-568.24 1230.49,-570.45"/>
</a>
</g>
</g>
<!-- Node22&#45;&gt;Node10 -->
<g id="edge33_Node000022_Node000010" class="edge">
<title>Node22&#45;&gt;Node10</title>
<g id="a_edge33_Node000022_Node000010"><a xlink:title=" ">
<path fill="none" stroke="#63b8ff" d="M1111.11,-795.56C1116.05,-793.2 1120.74,-790.37 1125,-787 1195.5,-731.13 1222.89,-620.69 1232.13,-569.39"/>
<polygon fill="#63b8ff" stroke="#63b8ff" points="1235.54,-570.18 1233.76,-559.74 1228.64,-569.01 1235.54,-570.18"/>
</a>
</g>
</g>
<!-- Node23&#45;&gt;Node10 -->
<g id="edge35_Node000023_Node000010" class="edge">
<title>Node23&#45;&gt;Node10</title>
<g id="a_edge35_Node000023_Node000010"><a xlink:title=" ">
<path fill="none" stroke="#63b8ff" d="M1103.66,-749.05C1111.29,-745.87 1118.58,-741.92 1125,-737 1181.99,-693.34 1214.56,-611.57 1228.35,-569.12"/>
<polygon fill="#63b8ff" stroke="#63b8ff" points="1231.65,-570.29 1231.3,-559.7 1224.97,-568.2 1231.65,-570.29"/>
</a>
</g>
</g>
<!-- Node24&#45;&gt;Node10 -->
<g id="edge37_Node000024_Node000010" class="edge">
<title>Node24&#45;&gt;Node10</title>
<g id="a_edge37_Node000024_Node000010"><a xlink:title=" ">
<path fill="none" stroke="#63b8ff" d="M1104.99,-697.37C1112.04,-694.51 1118.84,-691.09 1125,-687 1170.81,-656.61 1205.57,-600.94 1223.25,-568.13"/>
<polygon fill="#63b8ff" stroke="#63b8ff" points="1226.14,-570.16 1227.68,-559.68 1219.94,-566.91 1226.14,-570.16"/>
</a>
</g>
</g>
<!-- Node25&#45;&gt;Node10 -->
<g id="edge39_Node000025_Node000010" class="edge">
<title>Node25&#45;&gt;Node10</title>
<g id="a_edge39_Node000025_Node000010"><a xlink:title=" ">
<path fill="none" stroke="#63b8ff" d="M1105.18,-645.62C1112.04,-643.12 1118.75,-640.26 1125,-637 1159.79,-618.85 1193.1,-588.01 1214.06,-566.4"/>
<polygon fill="#63b8ff" stroke="#63b8ff" points="1216.33,-569.1 1220.68,-559.44 1211.25,-564.27 1216.33,-569.1"/>
</a>
</g>
</g>
<!-- Node26&#45;&gt;Node10 -->
<g id="edge41_Node000026_Node000010" class="edge">
<title>Node26&#45;&gt;Node10</title>
<g id="a_edge41_Node000026_Node000010"><a xlink:title=" ">
<path fill="none" stroke="#63b8ff" d="M1094.76,-607.52C1105.01,-605.16 1115.38,-602.34 1125,-599 1151.07,-589.94 1178.7,-575.81 1199.9,-563.89"/>
<polygon fill="#63b8ff" stroke="#63b8ff" points="1201.5,-567 1208.44,-559 1198.02,-560.93 1201.5,-567"/>
</a>
</g>
</g>
<!-- Node27&#45;&gt;Node10 -->
<g id="edge43_Node000027_Node000010" class="edge">
<title>Node27&#45;&gt;Node10</title>
<g id="a_edge43_Node000027_Node000010"><a xlink:title=" ">
<path fill="none" stroke="#63b8ff" d="M1086.27,-569.52C1113.11,-564.59 1145.19,-558.71 1172.78,-553.64"/>
<polygon fill="#63b8ff" stroke="#63b8ff" points="1173.21,-557.12 1182.41,-551.88 1171.94,-550.24 1173.21,-557.12"/>
</a>
</g>
</g>
<!-- Node28&#45;&gt;Node10 -->
<g id="edge45_Node000028_Node000010" class="edge">
<title>Node28&#45;&gt;Node10</title>
<g id="a_edge45_Node000028_Node000010"><a xlink:title=" ">
<path fill="none" stroke="#63b8ff" d="M1123.6,-542C1140.09,-542 1156.89,-542 1172.32,-542"/>
<polygon fill="#63b8ff" stroke="#63b8ff" points="1172.3,-545.5 1182.3,-542 1172.3,-538.5 1172.3,-545.5"/>
</a>
</g>
</g>
<!-- Node29&#45;&gt;Node10 -->
<g id="edge47_Node000029_Node000010" class="edge">
<title>Node29&#45;&gt;Node10</title>
<g id="a_edge47_Node000029_Node000010"><a xlink:title=" ">
<path fill="none" stroke="#63b8ff" d="M1086.27,-514.48C1113.11,-519.41 1145.19,-525.29 1172.78,-530.36"/>
<polygon fill="#63b8ff" stroke="#63b8ff" points="1171.94,-533.76 1182.41,-532.12 1173.21,-526.88 1171.94,-533.76"/>
</a>
</g>
</g>
<!-- Node30&#45;&gt;Node10 -->
<g id="edge49_Node000030_Node000010" class="edge">
<title>Node30&#45;&gt;Node10</title>
<g id="a_edge49_Node000030_Node000010"><a xlink:title=" ">
<path fill="none" stroke="#63b8ff" d="M1094.76,-476.48C1105.01,-478.84 1115.38,-481.66 1125,-485 1151.07,-494.06 1178.7,-508.19 1199.9,-520.11"/>
<polygon fill="#63b8ff" stroke="#63b8ff" points="1198.02,-523.07 1208.44,-525 1201.5,-517 1198.02,-523.07"/>
</a>
</g>
</g>
<!-- Node31&#45;&gt;Node10 -->
<g id="edge51_Node000031_Node000010" class="edge">
<title>Node31&#45;&gt;Node10</title>
<g id="a_edge51_Node000031_Node000010"><a xlink:title=" ">
<path fill="none" stroke="#63b8ff" d="M1102.39,-438.43C1110.21,-440.74 1117.9,-443.56 1125,-447 1160.51,-464.21 1193.9,-495.52 1214.66,-517.48"/>
<polygon fill="#63b8ff" stroke="#63b8ff" points="1211.85,-519.6 1221.21,-524.57 1216.99,-514.85 1211.85,-519.6"/>
</a>
</g>
</g>
<!-- Node32&#45;&gt;Node10 -->
<g id="edge53_Node000032_Node000010" class="edge">
<title>Node32&#45;&gt;Node10</title>
<g id="a_edge53_Node000032_Node000010"><a xlink:title=" ">
<path fill="none" stroke="#63b8ff" d="M1108.25,-400.31C1114.11,-402.81 1119.77,-405.69 1125,-409 1167.99,-436.23 1202.72,-485.5 1221.35,-515.83"/>
<polygon fill="#63b8ff" stroke="#63b8ff" points="1218.34,-517.61 1226.48,-524.4 1224.35,-514.02 1218.34,-517.61"/>
</a>
</g>
</g>
<!-- Node34&#45;&gt;Node11 -->
<g id="edge56_Node000034_Node000011" class="edge">
<title>Node34&#45;&gt;Node11</title>
<g id="a_edge56_Node000034_Node000011"><a xlink:title=" ">
<path fill="none" stroke="#63b8ff" d="M1251.82,-762.71C1287.19,-720.24 1382.09,-606.28 1419.83,-560.97"/>
<polygon fill="#63b8ff" stroke="#63b8ff" points="1422.3,-563.47 1426.01,-553.55 1416.92,-558.99 1422.3,-563.47"/>
</a>
</g>
</g>
</g>
</svg>

<g id="navigator" transform="translate(0 0)" fill="#404254">
  <rect fill="#f2f5e9" fill-opacity="0.5" stroke="#606060" stroke-width=".5" x="0" y="0" width="60" height="60"/>
  <use id="zoomplus" xlink:href="#zoomPlus" x="17" y="9" onmousedown="handleZoom(evt,'in')"/>
  <use id="zoomminus" xlink:href="#zoomMin" x="42" y="9" onmousedown="handleZoom(evt,'out')"/>
  <use id="reset" xlink:href="#resetDef" x="30" y="36" onmousedown="handleReset()"/>
   <use id="arrowup" xlink:href="#arrowUp" x="0" y="0" onmousedown="handlePan(0,-1)"/>
  <use id="arrowright" xlink:href="#arrowRight" x="0" y="0" onmousedown="handlePan(1,0)"/>
  <use id="arrowdown" xlink:href="#arrowDown" x="0" y="0" onmousedown="handlePan(0,1)"/>
  <use id="arrowleft" xlink:href="#arrowLeft" x="0" y="0" onmousedown="handlePan(-1,0)"/>
</g>
<svg viewBox="0 0 15 15" width="100%" height="30px" preserveAspectRatio="xMaxYMin meet">
 <g id="arrow_out" transform="scale(0.3 0.3)">
  <a xlink:href="classLSM1x0A__LoRaWAN_a64f984c97c049207f7bc6a3d9fe888d5_cgraph_org.svg" target="_base">
   <rect id="button" ry="5" rx="5" y="6" x="6" height="38" width="38"
        fill="#f2f5e9" fill-opacity="0.5" stroke="#606060" stroke-width="1.0"/>
   <path id="arrow"
     d="M 11.500037,31.436501 C 11.940474,20.09759 22.043105,11.32322 32.158766,21.979434 L 37.068811,17.246167 C 37.068811,17.246167 37.088388,32 37.088388,32 L 22.160133,31.978069 C 22.160133,31.978069 26.997745,27.140456 26.997745,27.140456 C 18.528582,18.264221 13.291696,25.230495 11.500037,31.436501 z"
     style="fill:#404040;"/>
  </a>
 </g>
</svg>

<style type='text/css'>
<![CDATA[
[data-mouse-over-selected='false'] { opacity: 0.7; }
[data-mouse-over-selected='true']  { opacity: 1.0; }
]]>
</style>
<script type="application/ecmascript"><![CDATA[
document.addEventListener('DOMContentLoaded', (event) => {
  highlightEdges();
  highlightAdjacentNodes();
});
]]></script>
</svg>
