<?xml version="1.0" encoding="UTF-8" standalone="no"?>
<!DOCTYPE svg PUBLIC "-//W3C//DTD SVG 1.1//EN"
 "http://www.w3.org/Graphics/SVG/1.1/DTD/svg11.dtd">
<!-- Generated by graphviz version 12.2.1 (20241206.2353)
 -->
<!-- Title: LSM1x0A_LoRaWAN::setDevEUI Pages: 1 -->
<svg width="1296pt" height="1070pt"
 viewBox="0.00 0.00 1296.00 1069.60" xmlns="http://www.w3.org/2000/svg" xmlns:xlink="http://www.w3.org/1999/xlink">
<g id="graph0" class="graph" transform="scale(1 1) rotate(0) translate(4 1065.6)">
<title>LSM1x0A_LoRaWAN::setDevEUI</title>
<!-- Node1 -->
<g id="Node000001" class="node">
<title>Node1</title>
<g id="a_Node000001"><a xlink:title="Sets the LoRaWAN Device EUI (DevEUI).">
<polygon fill="#999999" stroke="#666666" points="165.25,-350.54 0,-350.54 0,-330.54 165.25,-330.54 165.25,-350.54"/>
<text text-anchor="middle" x="82.62" y="-337.04" font-family="Helvetica,sans-Serif" font-size="10.00">LSM1x0A_LoRaWAN::setDevEUI</text>
</a>
</g>
</g>
<!-- Node2 -->
<g id="Node000002" class="node">
<title>Node2</title>
<g id="a_Node000002"><a xlink:href="../../d8/d92/classLSM1x0A__Controller.html#afd7d92e60ed6fdae696a955cdbe0ed8c" target="_top" xlink:title="Sends any AT command to the module, returning error if it fails. Internally uses the LsmAtParser logi...">
<polygon fill="white" stroke="#666666" points="307.25,-453.54 201.25,-453.54 201.25,-421.54 307.25,-421.54 307.25,-453.54"/>
<text text-anchor="start" x="209.25" y="-440.04" font-family="Helvetica,sans-Serif" font-size="10.00">LSM1x0A_Controller</text>
<text text-anchor="middle" x="254.25" y="-428.04" font-family="Helvetica,sans-Serif" font-size="10.00">::sendCommand</text>
</a>
</g>
</g>
<!-- Node1&#45;&gt;Node2 -->
<g id="edge1_Node000001_Node000002" class="edge">
<title>Node1&#45;&gt;Node2</title>
<g id="a_edge1_Node000001_Node000002"><a xlink:title=" ">
<path fill="none" stroke="#63b8ff" d="M101.78,-350.92C128.54,-366.22 179.21,-395.2 214.55,-415.41"/>
<polygon fill="#63b8ff" stroke="#63b8ff" points="212.79,-418.44 223.21,-420.36 216.27,-412.36 212.79,-418.44"/>
</a>
</g>
</g>
<!-- Node3 -->
<g id="Node000003" class="node">
<title>Node3</title>
<g id="a_Node000003"><a xlink:href="../../d8/d92/classLSM1x0A__Controller.html#abb0eb380daa3dfb7acffb483c5db8e2b" target="_top" xlink:title="Executes the recovery protocol. First Soft&#45;Reset (ATZ), then Hard&#45;Reset if there is a pin.">
<polygon fill="white" stroke="#666666" points="449.25,-870.54 343.25,-870.54 343.25,-838.54 449.25,-838.54 449.25,-870.54"/>
<text text-anchor="start" x="351.25" y="-857.04" font-family="Helvetica,sans-Serif" font-size="10.00">LSM1x0A_Controller</text>
<text text-anchor="middle" x="396.25" y="-845.04" font-family="Helvetica,sans-Serif" font-size="10.00">::recoverModule</text>
</a>
</g>
</g>
<!-- Node2&#45;&gt;Node3 -->
<g id="edge2_Node000002_Node000003" class="edge">
<title>Node2&#45;&gt;Node3</title>
<g id="a_edge2_Node000002_Node000003"><a xlink:title=" ">
<path fill="none" stroke="#63b8ff" d="M259.29,-453.99C270.66,-499.52 304.59,-630.84 343.25,-736.54 355,-768.67 371.25,-804.48 382.44,-828.14"/>
<polygon fill="#63b8ff" stroke="#63b8ff" points="379.22,-829.51 386.69,-837.03 385.54,-826.5 379.22,-829.51"/>
</a>
</g>
</g>
<!-- Node30 -->
<g id="Node000030" class="node">
<title>Node30</title>
<g id="a_Node000030"><a xlink:href="../../d6/d3c/classLSM1x0A__AtParser.html#a29b53c521974387ba6c03afadfaffa4a" target="_top" xlink:title="Sends a simple command and waits for OK/ERROR. Example: sendCommand(&quot;AT+JOIN&quot;);.">
<polygon fill="white" stroke="#666666" points="863.75,-706.54 689.5,-706.54 689.5,-686.54 863.75,-686.54 863.75,-706.54"/>
<text text-anchor="middle" x="776.62" y="-693.04" font-family="Helvetica,sans-Serif" font-size="10.00">LSM1x0A_AtParser::sendCommand</text>
</a>
</g>
</g>
<!-- Node2&#45;&gt;Node30 -->
<g id="edge54_Node000002_Node000030" class="edge">
<title>Node2&#45;&gt;Node30</title>
<g id="a_edge54_Node000002_Node000030"><a xlink:title=" ">
<path fill="none" stroke="#63b8ff" d="M259.15,-453.97C268.1,-488.15 293.28,-567.38 343.25,-611.54 435.07,-692.67 581.23,-705.56 677.8,-703.83"/>
<polygon fill="#63b8ff" stroke="#63b8ff" points="677.61,-707.34 687.52,-703.6 677.44,-700.34 677.61,-707.34"/>
</a>
</g>
</g>
<!-- Node4 -->
<g id="Node000004" class="node">
<title>Node4</title>
<g id="a_Node000004"><a xlink:href="../../d8/d92/classLSM1x0A__Controller.html#a3f6f25b843fe4fb7042c544deae2ab16" target="_top" xlink:title="Manually clears bits from the internal EventGroup.">
<polygon fill="white" stroke="#666666" points="1057.5,-927.54 951.5,-927.54 951.5,-895.54 1057.5,-895.54 1057.5,-927.54"/>
<text text-anchor="start" x="959.5" y="-914.04" font-family="Helvetica,sans-Serif" font-size="10.00">LSM1x0A_Controller</text>
<text text-anchor="middle" x="1004.5" y="-902.04" font-family="Helvetica,sans-Serif" font-size="10.00">::clearEvents</text>
</a>
</g>
</g>
<!-- Node3&#45;&gt;Node4 -->
<g id="edge3_Node000003_Node000004" class="edge">
<title>Node3&#45;&gt;Node4</title>
<g id="a_edge3_Node000003_Node000004"><a xlink:title=" ">
<path fill="none" stroke="#63b8ff" d="M448.01,-870.97C460.1,-874.32 473.04,-877.45 485.25,-879.54 647.27,-907.22 841.4,-911.71 939.71,-911.99"/>
<polygon fill="#63b8ff" stroke="#63b8ff" points="939.7,-915.49 949.7,-912.01 939.71,-908.49 939.7,-915.49"/>
</a>
</g>
</g>
<!-- Node5 -->
<g id="Node000005" class="node">
<title>Node5</title>
<g id="a_Node000005"><a xlink:href="../../d8/d92/classLSM1x0A__Controller.html#a345d4bd79fa16b18dc33a4ca788fe5f7" target="_top" xlink:title="Performs a hardware reset using the reset pin.">
<polygon fill="white" stroke="#666666" points="617.5,-870.54 511.5,-870.54 511.5,-838.54 617.5,-838.54 617.5,-870.54"/>
<text text-anchor="start" x="519.5" y="-857.04" font-family="Helvetica,sans-Serif" font-size="10.00">LSM1x0A_Controller</text>
<text text-anchor="middle" x="564.5" y="-845.04" font-family="Helvetica,sans-Serif" font-size="10.00">::hardwareReset</text>
</a>
</g>
</g>
<!-- Node3&#45;&gt;Node5 -->
<g id="edge4_Node000003_Node000005" class="edge">
<title>Node3&#45;&gt;Node5</title>
<g id="a_edge4_Node000003_Node000005"><a xlink:title=" ">
<path fill="none" stroke="#63b8ff" d="M449.4,-854.54C465.41,-854.54 483.22,-854.54 499.91,-854.54"/>
<polygon fill="#63b8ff" stroke="#63b8ff" points="499.74,-858.04 509.74,-854.54 499.74,-851.04 499.74,-858.04"/>
</a>
</g>
</g>
<!-- Node7 -->
<g id="Node000007" class="node">
<title>Node7</title>
<g id="a_Node000007"><a xlink:href="../../d5/d72/classLSM1x0A__LoRaWAN.html#a1892801e37c8cd67d37c76108d6f7d49" target="_top" xlink:title="Validates if the device is currently Joined to the network. (Either confirmed by OTAA or statically a...">
<polygon fill="white" stroke="#666666" points="1288,-793.54 1135.5,-793.54 1135.5,-773.54 1288,-773.54 1288,-793.54"/>
<text text-anchor="middle" x="1211.75" y="-780.04" font-family="Helvetica,sans-Serif" font-size="10.00">LSM1x0A_LoRaWAN::isJoined</text>
</a>
</g>
</g>
<!-- Node3&#45;&gt;Node7 -->
<g id="edge6_Node000003_Node000007" class="edge">
<title>Node3&#45;&gt;Node7</title>
<g id="a_edge6_Node000003_Node000007"><a xlink:title=" ">
<path fill="none" stroke="#63b8ff" d="M448.01,-838.13C460.1,-834.78 473.04,-831.64 485.25,-829.54 713.46,-790.35 987.2,-783.71 1123.99,-783.09"/>
<polygon fill="#63b8ff" stroke="#63b8ff" points="1123.7,-786.59 1133.69,-783.06 1123.67,-779.59 1123.7,-786.59"/>
</a>
</g>
</g>
<!-- Node8 -->
<g id="Node000008" class="node">
<title>Node8</title>
<g id="a_Node000008"><a xlink:href="../../d5/d72/classLSM1x0A__LoRaWAN.html#a83e11c0e74ff9e0757db616ab1163424" target="_top" xlink:title="Attempts to recover a lost connection (re&#45;executes OTAA Join if dropped).">
<polygon fill="white" stroke="#666666" points="638.88,-1034.54 490.12,-1034.54 490.12,-1002.54 638.88,-1002.54 638.88,-1034.54"/>
<text text-anchor="start" x="498.12" y="-1021.04" font-family="Helvetica,sans-Serif" font-size="10.00">LSM1x0A_LoRaWAN::recover</text>
<text text-anchor="middle" x="564.5" y="-1009.04" font-family="Helvetica,sans-Serif" font-size="10.00">Connection</text>
</a>
</g>
</g>
<!-- Node3&#45;&gt;Node8 -->
<g id="edge7_Node000003_Node000008" class="edge">
<title>Node3&#45;&gt;Node8</title>
<g id="a_edge7_Node000003_Node000008"><a xlink:title=" ">
<path fill="none" stroke="#63b8ff" d="M403.95,-870.94C416.14,-898.84 444.5,-955.72 485.25,-988.54 489.12,-991.65 493.34,-994.47 497.76,-997.01"/>
<polygon fill="#63b8ff" stroke="#63b8ff" points="495.85,-999.96 506.34,-1001.45 499.07,-993.75 495.85,-999.96"/>
</a>
</g>
</g>
<!-- Node12 -->
<g id="Node000012" class="node">
<title>Node12</title>
<g id="a_Node000012"><a xlink:href="../../d5/d72/classLSM1x0A__LoRaWAN.html#ae3be4ce59dfa200369733317df356e97" target="_top" xlink:title="Pushes the RAM&#45;cached variables back down into the hardware module. Restores the operational state af...">
<polygon fill="white" stroke="#666666" points="637.75,-390.54 491.25,-390.54 491.25,-358.54 637.75,-358.54 637.75,-390.54"/>
<text text-anchor="start" x="499.25" y="-377.04" font-family="Helvetica,sans-Serif" font-size="10.00">LSM1x0A_LoRaWAN::restore</text>
<text text-anchor="middle" x="564.5" y="-365.04" font-family="Helvetica,sans-Serif" font-size="10.00">Config</text>
</a>
</g>
</g>
<!-- Node3&#45;&gt;Node12 -->
<g id="edge16_Node000003_Node000012" class="edge">
<title>Node3&#45;&gt;Node12</title>
<g id="a_edge16_Node000003_Node000012"><a xlink:title=" ">
<path fill="none" stroke="#63b8ff" d="M402.88,-838.3C427.2,-768.08 523.42,-490.26 554.07,-401.77"/>
<polygon fill="#63b8ff" stroke="#63b8ff" points="557.33,-403.05 557.29,-392.46 550.71,-400.76 557.33,-403.05"/>
</a>
</g>
</g>
<!-- Node28 -->
<g id="Node000028" class="node">
<title>Node28</title>
<g id="a_Node000028"><a xlink:href="../../d5/d72/classLSM1x0A__LoRaWAN.html#ace4b04396f1de1f4a54f513f5f378db7" target="_top" xlink:title="Manually overrides the internal joined state tracker.">
<polygon fill="white" stroke="#666666" points="643.75,-946.54 485.25,-946.54 485.25,-926.54 643.75,-926.54 643.75,-946.54"/>
<text text-anchor="middle" x="564.5" y="-933.04" font-family="Helvetica,sans-Serif" font-size="10.00">LSM1x0A_LoRaWAN::setJoined</text>
</a>
</g>
</g>
<!-- Node3&#45;&gt;Node28 -->
<g id="edge49_Node000003_Node000028" class="edge">
<title>Node3&#45;&gt;Node28</title>
<g id="a_edge49_Node000003_Node000028"><a xlink:title=" ">
<path fill="none" stroke="#63b8ff" d="M418.29,-870.9C435.51,-883.66 460.92,-901.08 485.25,-912.54 493.29,-916.33 502.08,-919.7 510.77,-922.63"/>
<polygon fill="#63b8ff" stroke="#63b8ff" points="509.62,-925.94 520.21,-925.65 511.75,-919.27 509.62,-925.94"/>
</a>
</g>
</g>
<!-- Node29 -->
<g id="Node000029" class="node">
<title>Node29</title>
<g id="a_Node000029"><a xlink:href="../../d8/d92/classLSM1x0A__Controller.html#a11ad21cb5ca33ec51346764a23bd485e" target="_top" xlink:title="Performs a software reset (ATZ Command).">
<polygon fill="white" stroke="#666666" points="617.5,-782.54 511.5,-782.54 511.5,-750.54 617.5,-750.54 617.5,-782.54"/>
<text text-anchor="start" x="519.5" y="-769.04" font-family="Helvetica,sans-Serif" font-size="10.00">LSM1x0A_Controller</text>
<text text-anchor="middle" x="564.5" y="-757.04" font-family="Helvetica,sans-Serif" font-size="10.00">::softwareReset</text>
</a>
</g>
</g>
<!-- Node3&#45;&gt;Node29 -->
<g id="edge50_Node000003_Node000029" class="edge">
<title>Node3&#45;&gt;Node29</title>
<g id="a_edge50_Node000003_Node000029"><a xlink:title=" ">
<path fill="none" stroke="#63b8ff" d="M419.22,-838.12C436.55,-825.66 461.65,-808.66 485.25,-796.54 491.54,-793.31 498.25,-790.23 505.01,-787.35"/>
<polygon fill="#63b8ff" stroke="#63b8ff" points="506.28,-790.62 514.21,-783.59 503.63,-784.14 506.28,-790.62"/>
</a>
</g>
</g>
<!-- Node6 -->
<g id="Node000006" class="node">
<title>Node6</title>
<g id="a_Node000006"><a xlink:href="../../d6/d3c/classLSM1x0A__AtParser.html#ad2839120da13e56132b95019419be1e5" target="_top" xlink:title="Waits for an event (like BOOTALERT) without sending any command. Useful for hardware reset where the ...">
<polygon fill="white" stroke="#666666" points="846.88,-870.54 706.38,-870.54 706.38,-838.54 846.88,-838.54 846.88,-870.54"/>
<text text-anchor="start" x="714.38" y="-857.04" font-family="Helvetica,sans-Serif" font-size="10.00">LSM1x0A_AtParser::waitFor</text>
<text text-anchor="middle" x="776.62" y="-845.04" font-family="Helvetica,sans-Serif" font-size="10.00">Event</text>
</a>
</g>
</g>
<!-- Node5&#45;&gt;Node6 -->
<g id="edge5_Node000005_Node000006" class="edge">
<title>Node5&#45;&gt;Node6</title>
<g id="a_edge5_Node000005_Node000006"><a xlink:title=" ">
<path fill="none" stroke="#63b8ff" d="M617.98,-854.54C641.17,-854.54 668.97,-854.54 694.71,-854.54"/>
<polygon fill="#63b8ff" stroke="#63b8ff" points="694.47,-858.04 704.47,-854.54 694.47,-851.04 694.47,-858.04"/>
</a>
</g>
</g>
<!-- Node9 -->
<g id="Node000009" class="node">
<title>Node9</title>
<g id="a_Node000009"><a xlink:href="../../d5/d72/classLSM1x0A__LoRaWAN.html#a59f781f3cfd30c11cd3973bcb10a7baa" target="_top" xlink:title="Initiates a LoRaWAN Network Join procedure. This is a blocking function until the module fires an eve...">
<polygon fill="white" stroke="#666666" points="842.38,-984.54 710.88,-984.54 710.88,-964.54 842.38,-964.54 842.38,-984.54"/>
<text text-anchor="middle" x="776.62" y="-971.04" font-family="Helvetica,sans-Serif" font-size="10.00">LSM1x0A_LoRaWAN::join</text>
</a>
</g>
</g>
<!-- Node8&#45;&gt;Node9 -->
<g id="edge8_Node000008_Node000009" class="edge">
<title>Node8&#45;&gt;Node9</title>
<g id="a_edge8_Node000008_Node000009"><a xlink:title=" ">
<path fill="none" stroke="#63b8ff" d="M639.29,-1003.09C663.88,-997.94 690.99,-992.26 714.51,-987.34"/>
<polygon fill="#63b8ff" stroke="#63b8ff" points="715.19,-990.77 724.26,-985.3 713.76,-983.92 715.19,-990.77"/>
</a>
</g>
</g>
<!-- Node9&#45;&gt;Node2 -->
<g id="edge11_Node000009_Node000002" class="edge">
<title>Node9&#45;&gt;Node2</title>
<g id="a_edge11_Node000009_Node000002"><a xlink:title=" ">
<path fill="none" stroke="#63b8ff" d="M761.53,-984.89C738.37,-1001.18 690.17,-1032.13 643.75,-1043.54 575.34,-1060.36 549.32,-1072.82 485.25,-1043.54 397.56,-1003.47 385.63,-966.14 343.25,-879.54 272.38,-734.71 258.58,-536.63 255.9,-464.89"/>
<polygon fill="#63b8ff" stroke="#63b8ff" points="259.41,-465.13 255.59,-455.25 252.41,-465.36 259.41,-465.13"/>
</a>
</g>
</g>
<!-- Node9&#45;&gt;Node3 -->
<g id="edge10_Node000009_Node000003" class="edge">
<title>Node9&#45;&gt;Node3</title>
<g id="a_edge10_Node000009_Node000003"><a xlink:title=" ">
<path fill="none" stroke="#63b8ff" d="M710.53,-984.03C649.15,-989.91 556.22,-990.68 485.25,-955.54 452.24,-939.2 426.39,-904.42 411.48,-880.27"/>
<polygon fill="#63b8ff" stroke="#63b8ff" points="414.66,-878.77 406.54,-871.96 408.64,-882.35 414.66,-878.77"/>
</a>
</g>
</g>
<!-- Node9&#45;&gt;Node4 -->
<g id="edge9_Node000009_Node000004" class="edge">
<title>Node9&#45;&gt;Node4</title>
<g id="a_edge9_Node000009_Node000004"><a xlink:title=" ">
<path fill="none" stroke="#63b8ff" d="M815.18,-964.07C849.12,-954.6 899.78,-940.47 940.01,-929.25"/>
<polygon fill="#63b8ff" stroke="#63b8ff" points="940.9,-932.63 949.6,-926.58 939.02,-925.89 940.9,-932.63"/>
</a>
</g>
</g>
<!-- Node10 -->
<g id="Node000010" class="node">
<title>Node10</title>
<g id="a_Node000010"><a xlink:href="../../d5/d72/classLSM1x0A__LoRaWAN.html#a3fdd1ac318a5ad2559323e5d57e36a5e" target="_top" xlink:title="Enables or disables specific sub&#45;bands for regions supporting Channel Masks (e.g.,...">
<polygon fill="white" stroke="#666666" points="1099.5,-766.54 909.5,-766.54 909.5,-746.54 1099.5,-746.54 1099.5,-766.54"/>
<text text-anchor="middle" x="1004.5" y="-753.04" font-family="Helvetica,sans-Serif" font-size="10.00">LSM1x0A_LoRaWAN::setChannelMask</text>
</a>
</g>
</g>
<!-- Node9&#45;&gt;Node10 -->
<g id="edge12_Node000009_Node000010" class="edge">
<title>Node9&#45;&gt;Node10</title>
<g id="a_edge12_Node000009_Node000010"><a xlink:title=" ">
<path fill="none" stroke="#63b8ff" d="M788.22,-964.32C823.7,-930.07 938.74,-819.04 984.49,-774.89"/>
<polygon fill="#63b8ff" stroke="#63b8ff" points="986.81,-777.51 991.58,-768.05 981.95,-772.47 986.81,-777.51"/>
</a>
</g>
</g>
<!-- Node11 -->
<g id="Node000011" class="node">
<title>Node11</title>
<g id="a_Node000011"><a xlink:href="../../d8/d92/classLSM1x0A__Controller.html#a62476e30e50c7fe120aeb8df4b828675" target="_top" xlink:title="Synchronously/blockingly waits for an asynchronous event to occur. Useful for wrapping commands like ...">
<polygon fill="white" stroke="#666666" points="1057.5,-990.54 951.5,-990.54 951.5,-958.54 1057.5,-958.54 1057.5,-990.54"/>
<text text-anchor="start" x="959.5" y="-977.04" font-family="Helvetica,sans-Serif" font-size="10.00">LSM1x0A_Controller</text>
<text text-anchor="middle" x="1004.5" y="-965.04" font-family="Helvetica,sans-Serif" font-size="10.00">::waitForEvent</text>
</a>
</g>
</g>
<!-- Node9&#45;&gt;Node11 -->
<g id="edge15_Node000009_Node000011" class="edge">
<title>Node9&#45;&gt;Node11</title>
<g id="a_edge15_Node000009_Node000011"><a xlink:title=" ">
<path fill="none" stroke="#63b8ff" d="M842.65,-974.54C873.16,-974.54 909.4,-974.54 939.74,-974.54"/>
<polygon fill="#63b8ff" stroke="#63b8ff" points="939.55,-978.04 949.55,-974.54 939.55,-971.04 939.55,-978.04"/>
</a>
</g>
</g>
<!-- Node10&#45;&gt;Node2 -->
<g id="edge14_Node000010_Node000002" class="edge">
<title>Node10&#45;&gt;Node2</title>
<g id="a_edge14_Node000010_Node000002"><a xlink:title=" ">
<path fill="none" stroke="#63b8ff" d="M909.21,-755.04C746.27,-750.38 421.86,-731.45 343.25,-654.54 289.08,-601.54 267.14,-510.67 259.21,-465.18"/>
<polygon fill="#63b8ff" stroke="#63b8ff" points="262.68,-464.68 257.62,-455.37 255.77,-465.8 262.68,-464.68"/>
</a>
</g>
</g>
<!-- Node10&#45;&gt;Node7 -->
<g id="edge13_Node000010_Node000007" class="edge">
<title>Node10&#45;&gt;Node7</title>
<g id="a_edge13_Node000010_Node000007"><a xlink:title=" ">
<path fill="none" stroke="#63b8ff" d="M1085.15,-767.02C1097.87,-768.69 1111.09,-770.43 1123.97,-772.13"/>
<polygon fill="#63b8ff" stroke="#63b8ff" points="1123.31,-775.57 1133.68,-773.4 1124.23,-768.63 1123.31,-775.57"/>
</a>
</g>
</g>
<!-- Node12&#45;&gt;Node1 -->
<g id="edge28_Node000012_Node000001" class="edge">
<title>Node12&#45;&gt;Node1</title>
<g id="a_edge28_Node000012_Node000001"><a xlink:title=" ">
<path fill="none" stroke="#63b8ff" d="M490.92,-369.4C406.99,-363.45 268.63,-353.65 176.81,-347.14"/>
<polygon fill="#63b8ff" stroke="#63b8ff" points="177.31,-343.67 167.08,-346.45 176.81,-350.65 177.31,-343.67"/>
</a>
</g>
</g>
<!-- Node12&#45;&gt;Node10 -->
<g id="edge21_Node000012_Node000010" class="edge">
<title>Node12&#45;&gt;Node10</title>
<g id="a_edge21_Node000012_Node000010"><a xlink:title=" ">
<path fill="none" stroke="#63b8ff" d="M638.03,-367.2C718.3,-360.81 840.69,-356.8 873.5,-387.54 927.98,-438.58 863.68,-662.61 909.5,-721.54 916.24,-730.21 925.37,-736.74 935.3,-741.64"/>
<polygon fill="#63b8ff" stroke="#63b8ff" points="933.91,-744.86 944.48,-745.6 936.68,-738.43 933.91,-744.86"/>
</a>
</g>
</g>
<!-- Node13 -->
<g id="Node000013" class="node">
<title>Node13</title>
<g id="a_Node000013"><a xlink:href="../../d5/d72/classLSM1x0A__LoRaWAN.html#af0baa3db4c7fab580d6b19a9e92472f6" target="_top" xlink:title="Enables or disables Adaptive Data Rate (ADR).">
<polygon fill="white" stroke="#666666" points="852.5,-542.54 700.75,-542.54 700.75,-522.54 852.5,-522.54 852.5,-542.54"/>
<text text-anchor="middle" x="776.62" y="-529.04" font-family="Helvetica,sans-Serif" font-size="10.00">LSM1x0A_LoRaWAN::setADR</text>
</a>
</g>
</g>
<!-- Node12&#45;&gt;Node13 -->
<g id="edge17_Node000012_Node000013" class="edge">
<title>Node12&#45;&gt;Node13</title>
<g id="a_edge17_Node000012_Node000013"><a xlink:title=" ">
<path fill="none" stroke="#63b8ff" d="M573.95,-390.95C590.15,-420.61 628.55,-482.91 679.75,-513.54 682.95,-515.46 686.31,-517.19 689.78,-518.74"/>
<polygon fill="#63b8ff" stroke="#63b8ff" points="688.46,-521.98 699.04,-522.37 691.01,-515.46 688.46,-521.98"/>
</a>
</g>
</g>
<!-- Node14 -->
<g id="Node000014" class="node">
<title>Node14</title>
<g id="a_Node000014"><a xlink:href="../../d5/d72/classLSM1x0A__LoRaWAN.html#a5365ed1596eb84ebf1e3b33b4a10c788" target="_top" xlink:title="Sets the LoRaWAN operational frequency band.">
<polygon fill="white" stroke="#666666" points="852.88,-504.54 700.38,-504.54 700.38,-484.54 852.88,-484.54 852.88,-504.54"/>
<text text-anchor="middle" x="776.62" y="-491.04" font-family="Helvetica,sans-Serif" font-size="10.00">LSM1x0A_LoRaWAN::setBand</text>
</a>
</g>
</g>
<!-- Node12&#45;&gt;Node14 -->
<g id="edge19_Node000012_Node000014" class="edge">
<title>Node12&#45;&gt;Node14</title>
<g id="a_edge19_Node000012_Node000014"><a xlink:title=" ">
<path fill="none" stroke="#63b8ff" d="M578.76,-390.75C598.35,-413.51 637.28,-454.51 679.75,-475.54 683.43,-477.36 687.26,-479.01 691.2,-480.49"/>
<polygon fill="#63b8ff" stroke="#63b8ff" points="689.77,-483.71 700.36,-483.59 692.01,-477.07 689.77,-483.71"/>
</a>
</g>
</g>
<!-- Node15 -->
<g id="Node000015" class="node">
<title>Node15</title>
<g id="a_Node000015"><a xlink:href="../../d5/d72/classLSM1x0A__LoRaWAN.html#a9d9285c43414337a0ccb3a6cd7ca06e6" target="_top" xlink:title="Configures the number of retries for Confirmed uplinks.">
<polygon fill="white" stroke="#666666" points="858.88,-466.54 694.38,-466.54 694.38,-434.54 858.88,-434.54 858.88,-466.54"/>
<text text-anchor="start" x="702.38" y="-453.04" font-family="Helvetica,sans-Serif" font-size="10.00">LSM1x0A_LoRaWAN::setConfirm</text>
<text text-anchor="middle" x="776.62" y="-441.04" font-family="Helvetica,sans-Serif" font-size="10.00">Retry</text>
</a>
</g>
</g>
<!-- Node12&#45;&gt;Node15 -->
<g id="edge22_Node000012_Node000015" class="edge">
<title>Node12&#45;&gt;Node15</title>
<g id="a_edge22_Node000012_Node000015"><a xlink:title=" ">
<path fill="none" stroke="#63b8ff" d="M598.41,-390.97C620.92,-401.77 651.67,-415.69 679.75,-425.54 685.04,-427.4 690.54,-429.19 696.11,-430.9"/>
<polygon fill="#63b8ff" stroke="#63b8ff" points="694.83,-434.17 705.41,-433.65 696.82,-427.46 694.83,-434.17"/>
</a>
</g>
</g>
<!-- Node16 -->
<g id="Node000016" class="node">
<title>Node16</title>
<g id="a_Node000016"><a xlink:href="../../d5/d72/classLSM1x0A__LoRaWAN.html#a56345ceeafa0b9059d6de4e69eddc82e" target="_top" xlink:title="Sets the Data Rate (DR) of the module.">
<polygon fill="white" stroke="#666666" points="862.62,-416.54 690.62,-416.54 690.62,-396.54 862.62,-396.54 862.62,-416.54"/>
<text text-anchor="middle" x="776.62" y="-403.04" font-family="Helvetica,sans-Serif" font-size="10.00">LSM1x0A_LoRaWAN::setDataRate</text>
</a>
</g>
</g>
<!-- Node12&#45;&gt;Node16 -->
<g id="edge24_Node000012_Node000016" class="edge">
<title>Node12&#45;&gt;Node16</title>
<g id="a_edge24_Node000012_Node000016"><a xlink:title=" ">
<path fill="none" stroke="#63b8ff" d="M638.11,-385.6C656.66,-388.42 676.72,-391.48 695.62,-394.36"/>
<polygon fill="#63b8ff" stroke="#63b8ff" points="695,-397.8 705.41,-395.85 696.05,-390.88 695,-397.8"/>
</a>
</g>
</g>
<!-- Node17 -->
<g id="Node000017" class="node">
<title>Node17</title>
<g id="a_Node000017"><a xlink:href="../../d5/d72/classLSM1x0A__LoRaWAN.html#a8494083816ab885cb07fc3b08de029f4" target="_top" xlink:title="Sets the LoRaWAN Device Address (DevAddr) for ABP mode.">
<polygon fill="white" stroke="#666666" points="860.75,-340.54 692.5,-340.54 692.5,-320.54 860.75,-320.54 860.75,-340.54"/>
<text text-anchor="middle" x="776.62" y="-327.04" font-family="Helvetica,sans-Serif" font-size="10.00">LSM1x0A_LoRaWAN::setDevAddr</text>
</a>
</g>
</g>
<!-- Node12&#45;&gt;Node17 -->
<g id="edge26_Node000012_Node000017" class="edge">
<title>Node12&#45;&gt;Node17</title>
<g id="a_edge26_Node000012_Node000017"><a xlink:title=" ">
<path fill="none" stroke="#63b8ff" d="M638.11,-359.34C662.99,-354.13 690.57,-348.35 714.46,-343.35"/>
<polygon fill="#63b8ff" stroke="#63b8ff" points="714.95,-346.82 724.02,-341.35 713.52,-339.97 714.95,-346.82"/>
</a>
</g>
</g>
<!-- Node18 -->
<g id="Node000018" class="node">
<title>Node18</title>
<g id="a_Node000018"><a xlink:href="../../d5/d72/classLSM1x0A__LoRaWAN.html#a031023b0d2dd5db3c51c2db6ae7801cc" target="_top" xlink:title="Enables or disables the Duty Cycle limitation (EU regions mostly).">
<polygon fill="white" stroke="#666666" points="852.12,-302.54 701.12,-302.54 701.12,-270.54 852.12,-270.54 852.12,-302.54"/>
<text text-anchor="start" x="709.12" y="-289.04" font-family="Helvetica,sans-Serif" font-size="10.00">LSM1x0A_LoRaWAN::setDuty</text>
<text text-anchor="middle" x="776.62" y="-277.04" font-family="Helvetica,sans-Serif" font-size="10.00">Cycle</text>
</a>
</g>
</g>
<!-- Node12&#45;&gt;Node18 -->
<g id="edge29_Node000012_Node000018" class="edge">
<title>Node12&#45;&gt;Node18</title>
<g id="a_edge29_Node000012_Node000018"><a xlink:title=" ">
<path fill="none" stroke="#63b8ff" d="M590.91,-358.11C613.49,-344.11 647.77,-324.3 679.75,-311.54 684.15,-309.78 688.72,-308.12 693.36,-306.54"/>
<polygon fill="#63b8ff" stroke="#63b8ff" points="694.41,-309.88 702.86,-303.48 692.27,-303.21 694.41,-309.88"/>
</a>
</g>
</g>
<!-- Node19 -->
<g id="Node000019" class="node">
<title>Node19</title>
<g id="a_Node000019"><a xlink:href="../../d5/d72/classLSM1x0A__LoRaWAN.html#a6b179d5825c49af0f391dfc539912f64" target="_top" xlink:title="Sets the delay for the Join1 receive window.">
<polygon fill="white" stroke="#666666" points="853.25,-252.54 700,-252.54 700,-220.54 853.25,-220.54 853.25,-252.54"/>
<text text-anchor="start" x="708" y="-239.04" font-family="Helvetica,sans-Serif" font-size="10.00">LSM1x0A_LoRaWAN::setJoin1</text>
<text text-anchor="middle" x="776.62" y="-227.04" font-family="Helvetica,sans-Serif" font-size="10.00">Delay</text>
</a>
</g>
</g>
<!-- Node12&#45;&gt;Node19 -->
<g id="edge31_Node000012_Node000019" class="edge">
<title>Node12&#45;&gt;Node19</title>
<g id="a_edge31_Node000012_Node000019"><a xlink:title=" ">
<path fill="none" stroke="#63b8ff" d="M577.25,-358.38C596.06,-333.69 635.38,-286.8 679.75,-261.54 682.79,-259.81 685.95,-258.2 689.2,-256.69"/>
<polygon fill="#63b8ff" stroke="#63b8ff" points="690.54,-259.93 698.41,-252.84 687.84,-253.47 690.54,-259.93"/>
</a>
</g>
</g>
<!-- Node20 -->
<g id="Node000020" class="node">
<title>Node20</title>
<g id="a_Node000020"><a xlink:href="../../d5/d72/classLSM1x0A__LoRaWAN.html#a4545d0caad41558cdb9bae8286b104d8" target="_top" xlink:title="Sets the delay for the Join2 receive window.">
<polygon fill="white" stroke="#666666" points="853.25,-202.54 700,-202.54 700,-170.54 853.25,-170.54 853.25,-202.54"/>
<text text-anchor="start" x="708" y="-189.04" font-family="Helvetica,sans-Serif" font-size="10.00">LSM1x0A_LoRaWAN::setJoin2</text>
<text text-anchor="middle" x="776.62" y="-177.04" font-family="Helvetica,sans-Serif" font-size="10.00">Delay</text>
</a>
</g>
</g>
<!-- Node12&#45;&gt;Node20 -->
<g id="edge33_Node000012_Node000020" class="edge">
<title>Node12&#45;&gt;Node20</title>
<g id="a_edge33_Node000012_Node000020"><a xlink:title=" ">
<path fill="none" stroke="#63b8ff" d="M572.22,-358.25C586.71,-325.21 624.13,-250.19 679.75,-211.54 682.79,-209.43 685.99,-207.5 689.31,-205.73"/>
<polygon fill="#63b8ff" stroke="#63b8ff" points="690.65,-208.97 698.2,-201.54 687.66,-202.64 690.65,-208.97"/>
</a>
</g>
</g>
<!-- Node21 -->
<g id="Node000021" class="node">
<title>Node21</title>
<g id="a_Node000021"><a xlink:href="../../d5/d72/classLSM1x0A__LoRaWAN.html#a06bd50723ec1eb7e144c9141b2ec86fc" target="_top" xlink:title="Sets the LoRaWAN Network ID (NetID).">
<polygon fill="white" stroke="#666666" points="857,-152.54 696.25,-152.54 696.25,-132.54 857,-132.54 857,-152.54"/>
<text text-anchor="middle" x="776.62" y="-139.04" font-family="Helvetica,sans-Serif" font-size="10.00">LSM1x0A_LoRaWAN::setNwkID</text>
</a>
</g>
</g>
<!-- Node12&#45;&gt;Node21 -->
<g id="edge35_Node000012_Node000021" class="edge">
<title>Node12&#45;&gt;Node21</title>
<g id="a_edge35_Node000012_Node000021"><a xlink:title=" ">
<path fill="none" stroke="#63b8ff" d="M569.21,-358.05C579.24,-317.48 610.94,-212.46 679.75,-161.54 681.74,-160.06 683.82,-158.7 685.97,-157.42"/>
<polygon fill="#63b8ff" stroke="#63b8ff" points="687.09,-160.78 694.43,-153.15 683.93,-154.54 687.09,-160.78"/>
</a>
</g>
</g>
<!-- Node22 -->
<g id="Node000022" class="node">
<title>Node22</title>
<g id="a_Node000022"><a xlink:href="../../d5/d72/classLSM1x0A__LoRaWAN.html#aa70ada64d28ecca216bb62268e502adf" target="_top" xlink:title="Sets the delay for the RX1 receive window.">
<polygon fill="white" stroke="#666666" points="863.38,-114.54 689.88,-114.54 689.88,-94.54 863.38,-94.54 863.38,-114.54"/>
<text text-anchor="middle" x="776.62" y="-101.04" font-family="Helvetica,sans-Serif" font-size="10.00">LSM1x0A_LoRaWAN::setRx1Delay</text>
</a>
</g>
</g>
<!-- Node12&#45;&gt;Node22 -->
<g id="edge37_Node000012_Node000022" class="edge">
<title>Node12&#45;&gt;Node22</title>
<g id="a_edge37_Node000012_Node000022"><a xlink:title=" ">
<path fill="none" stroke="#63b8ff" d="M567.76,-358.22C574.92,-313.03 601.48,-185.5 679.75,-123.54 681.08,-122.49 682.45,-121.49 683.86,-120.54"/>
<polygon fill="#63b8ff" stroke="#63b8ff" points="685.36,-123.71 692.33,-115.73 681.91,-117.62 685.36,-123.71"/>
</a>
</g>
</g>
<!-- Node23 -->
<g id="Node000023" class="node">
<title>Node23</title>
<g id="a_Node000023"><a xlink:href="../../d5/d72/classLSM1x0A__LoRaWAN.html#a2cf4eff0181b6107d082bccefa24217b" target="_top" xlink:title="Sets the Data Rate (DR) specifically for the RX2 window.">
<polygon fill="white" stroke="#666666" points="871.62,-76.54 681.62,-76.54 681.62,-56.54 871.62,-56.54 871.62,-76.54"/>
<text text-anchor="middle" x="776.62" y="-63.04" font-family="Helvetica,sans-Serif" font-size="10.00">LSM1x0A_LoRaWAN::setRx2DataRate</text>
</a>
</g>
</g>
<!-- Node12&#45;&gt;Node23 -->
<g id="edge39_Node000012_Node000023" class="edge">
<title>Node12&#45;&gt;Node23</title>
<g id="a_edge39_Node000012_Node000023"><a xlink:title=" ">
<path fill="none" stroke="#63b8ff" d="M566.68,-358.35C571.2,-308.91 591.9,-158.79 679.75,-85.54 680.89,-84.59 682.06,-83.69 683.26,-82.82"/>
<polygon fill="#63b8ff" stroke="#63b8ff" points="684.93,-85.9 691.69,-77.75 681.32,-79.9 684.93,-85.9"/>
</a>
</g>
</g>
<!-- Node24 -->
<g id="Node000024" class="node">
<title>Node24</title>
<g id="a_Node000024"><a xlink:href="../../d5/d72/classLSM1x0A__LoRaWAN.html#a42d2137b475b57e19d891a5f1ac93221" target="_top" xlink:title="Sets the delay for the RX2 receive window.">
<polygon fill="white" stroke="#666666" points="863.38,-38.54 689.88,-38.54 689.88,-18.54 863.38,-18.54 863.38,-38.54"/>
<text text-anchor="middle" x="776.62" y="-25.04" font-family="Helvetica,sans-Serif" font-size="10.00">LSM1x0A_LoRaWAN::setRx2Delay</text>
</a>
</g>
</g>
<!-- Node12&#45;&gt;Node24 -->
<g id="edge41_Node000012_Node000024" class="edge">
<title>Node12&#45;&gt;Node24</title>
<g id="a_edge41_Node000012_Node000024"><a xlink:title=" ">
<path fill="none" stroke="#63b8ff" d="M565.86,-358.22C567.96,-304.54 582.36,-132.13 679.75,-47.54 680.71,-46.71 681.7,-45.9 682.71,-45.13"/>
<polygon fill="#63b8ff" stroke="#63b8ff" points="684.52,-48.13 691.1,-39.82 680.78,-42.21 684.52,-48.13"/>
</a>
</g>
</g>
<!-- Node25 -->
<g id="Node000025" class="node">
<title>Node25</title>
<g id="a_Node000025"><a xlink:href="../../d5/d72/classLSM1x0A__LoRaWAN.html#a689f7dfda1dfeae11ea397c2ddf2ad37" target="_top" xlink:title="Sets the precise frequency for the RX2 window.">
<polygon fill="white" stroke="#666666" points="873.5,-668.54 679.75,-668.54 679.75,-648.54 873.5,-648.54 873.5,-668.54"/>
<text text-anchor="middle" x="776.62" y="-655.04" font-family="Helvetica,sans-Serif" font-size="10.00">LSM1x0A_LoRaWAN::setRx2Frequency</text>
</a>
</g>
</g>
<!-- Node12&#45;&gt;Node25 -->
<g id="edge43_Node000012_Node000025" class="edge">
<title>Node12&#45;&gt;Node25</title>
<g id="a_edge43_Node000012_Node000025"><a xlink:title=" ">
<path fill="none" stroke="#63b8ff" d="M567.31,-390.73C573.46,-437.45 597.92,-573.41 679.75,-639.54 681.07,-640.61 682.43,-641.62 683.83,-642.58"/>
<polygon fill="#63b8ff" stroke="#63b8ff" points="681.85,-645.48 692.26,-647.44 685.35,-639.41 681.85,-645.48"/>
</a>
</g>
</g>
<!-- Node26 -->
<g id="Node000026" class="node">
<title>Node26</title>
<g id="a_Node000026"><a xlink:href="../../d5/d72/classLSM1x0A__LoRaWAN.html#a1df10d7ae6bf45b537d28d3d5c4b88d7" target="_top" xlink:title="Sets the transmission power index.">
<polygon fill="white" stroke="#666666" points="861.12,-630.54 692.12,-630.54 692.12,-610.54 861.12,-610.54 861.12,-630.54"/>
<text text-anchor="middle" x="776.62" y="-617.04" font-family="Helvetica,sans-Serif" font-size="10.00">LSM1x0A_LoRaWAN::setTxPower</text>
</a>
</g>
</g>
<!-- Node12&#45;&gt;Node26 -->
<g id="edge45_Node000012_Node000026" class="edge">
<title>Node12&#45;&gt;Node26</title>
<g id="a_edge45_Node000012_Node000026"><a xlink:title=" ">
<path fill="none" stroke="#63b8ff" d="M568.59,-390.84C577.51,-433.07 607.4,-546.53 679.75,-601.54 681.28,-602.71 682.87,-603.8 684.5,-604.84"/>
<polygon fill="#63b8ff" stroke="#63b8ff" points="682.47,-607.73 692.93,-609.4 685.8,-601.57 682.47,-607.73"/>
</a>
</g>
</g>
<!-- Node27 -->
<g id="Node000027" class="node">
<title>Node27</title>
<g id="a_Node000027"><a xlink:href="../../d5/d72/classLSM1x0A__LoRaWAN.html#a059fd6a9356c4ecadd5a98294da5952d" target="_top" xlink:title="Configures the number of repetitions for Unconfirmed uplinks.">
<polygon fill="white" stroke="#666666" points="864.12,-592.54 689.12,-592.54 689.12,-560.54 864.12,-560.54 864.12,-592.54"/>
<text text-anchor="start" x="697.12" y="-579.04" font-family="Helvetica,sans-Serif" font-size="10.00">LSM1x0A_LoRaWAN::setUnconfirm</text>
<text text-anchor="middle" x="776.62" y="-567.04" font-family="Helvetica,sans-Serif" font-size="10.00">Retry</text>
</a>
</g>
</g>
<!-- Node12&#45;&gt;Node27 -->
<g id="edge47_Node000012_Node000027" class="edge">
<title>Node12&#45;&gt;Node27</title>
<g id="a_edge47_Node000012_Node000027"><a xlink:title=" ">
<path fill="none" stroke="#63b8ff" d="M571.3,-390.88C584.64,-426.01 620.93,-508.98 679.75,-551.54 681.33,-552.68 682.96,-553.78 684.63,-554.82"/>
<polygon fill="#63b8ff" stroke="#63b8ff" points="682.81,-557.81 693.26,-559.53 686.16,-551.67 682.81,-557.81"/>
</a>
</g>
</g>
<!-- Node13&#45;&gt;Node2 -->
<g id="edge18_Node000013_Node000002" class="edge">
<title>Node13&#45;&gt;Node2</title>
<g id="a_edge18_Node000013_Node000002"><a xlink:title=" ">
<path fill="none" stroke="#63b8ff" d="M700.55,-528.94C613.32,-523.32 465.68,-509.34 343.25,-475.54 328.04,-471.34 312.02,-465.04 297.88,-458.77"/>
<polygon fill="#63b8ff" stroke="#63b8ff" points="299.41,-455.62 288.86,-454.64 296.5,-461.98 299.41,-455.62"/>
</a>
</g>
</g>
<!-- Node14&#45;&gt;Node2 -->
<g id="edge20_Node000014_Node000002" class="edge">
<title>Node14&#45;&gt;Node2</title>
<g id="a_edge20_Node000014_Node000002"><a xlink:title=" ">
<path fill="none" stroke="#63b8ff" d="M699.95,-490.29C613.4,-484.82 467.59,-473.81 343.25,-455.54 335.29,-454.37 326.97,-452.94 318.76,-451.41"/>
<polygon fill="#63b8ff" stroke="#63b8ff" points="319.63,-448.01 309.15,-449.55 318.3,-454.89 319.63,-448.01"/>
</a>
</g>
</g>
<!-- Node15&#45;&gt;Node2 -->
<g id="edge23_Node000015_Node000002" class="edge">
<title>Node15&#45;&gt;Node2</title>
<g id="a_edge23_Node000015_Node000002"><a xlink:title=" ">
<path fill="none" stroke="#63b8ff" d="M694.1,-448.5C590.34,-445.91 413.28,-441.49 318.9,-439.13"/>
<polygon fill="#63b8ff" stroke="#63b8ff" points="319.13,-435.64 309.04,-438.88 318.95,-442.63 319.13,-435.64"/>
</a>
</g>
</g>
<!-- Node16&#45;&gt;Node2 -->
<g id="edge25_Node000016_Node000002" class="edge">
<title>Node16&#45;&gt;Node2</title>
<g id="a_edge25_Node000016_Node000002"><a xlink:title=" ">
<path fill="none" stroke="#63b8ff" d="M690.39,-411.62C586.11,-417.83 411.99,-428.2 318.76,-433.76"/>
<polygon fill="#63b8ff" stroke="#63b8ff" points="318.81,-430.25 309.04,-434.34 319.23,-437.24 318.81,-430.25"/>
</a>
</g>
</g>
<!-- Node17&#45;&gt;Node2 -->
<g id="edge27_Node000017_Node000002" class="edge">
<title>Node17&#45;&gt;Node2</title>
<g id="a_edge27_Node000017_Node000002"><a xlink:title=" ">
<path fill="none" stroke="#63b8ff" d="M692.09,-329.41C633.56,-330.22 553.85,-334.53 485.25,-349.54 417.97,-364.26 344.29,-395.3 298.91,-416.29"/>
<polygon fill="#63b8ff" stroke="#63b8ff" points="297.5,-413.08 289.93,-420.49 300.47,-419.42 297.5,-413.08"/>
</a>
</g>
</g>
<!-- Node18&#45;&gt;Node2 -->
<g id="edge30_Node000018_Node000002" class="edge">
<title>Node18&#45;&gt;Node2</title>
<g id="a_edge30_Node000018_Node000002"><a xlink:title=" ">
<path fill="none" stroke="#63b8ff" d="M700.91,-284.39C611.09,-284.83 458.1,-295.41 343.25,-354.54 315.97,-368.58 291.17,-393.63 274.9,-412.55"/>
<polygon fill="#63b8ff" stroke="#63b8ff" points="272.31,-410.18 268.59,-420.1 277.69,-414.67 272.31,-410.18"/>
</a>
</g>
</g>
<!-- Node19&#45;&gt;Node2 -->
<g id="edge32_Node000019_Node000002" class="edge">
<title>Node19&#45;&gt;Node2</title>
<g id="a_edge32_Node000019_Node000002"><a xlink:title=" ">
<path fill="none" stroke="#63b8ff" d="M699.88,-232.19C608.01,-230.6 451.97,-240.11 343.25,-311.54 306.08,-335.96 280,-382.01 266.33,-411.16"/>
<polygon fill="#63b8ff" stroke="#63b8ff" points="263.25,-409.49 262.33,-420.04 269.63,-412.37 263.25,-409.49"/>
</a>
</g>
</g>
<!-- Node20&#45;&gt;Node2 -->
<g id="edge34_Node000020_Node000002" class="edge">
<title>Node20&#45;&gt;Node2</title>
<g id="a_edge34_Node000020_Node000002"><a xlink:title=" ">
<path fill="none" stroke="#63b8ff" d="M699.75,-179.26C605.96,-174.44 446.15,-180.4 343.25,-261.54 294.99,-299.59 271.1,-371.07 261.16,-410.21"/>
<polygon fill="#63b8ff" stroke="#63b8ff" points="257.8,-409.23 258.87,-419.78 264.61,-410.87 257.8,-409.23"/>
</a>
</g>
</g>
<!-- Node21&#45;&gt;Node2 -->
<g id="edge36_Node000021_Node000002" class="edge">
<title>Node21&#45;&gt;Node2</title>
<g id="a_edge36_Node000021_Node000002"><a xlink:title=" ">
<path fill="none" stroke="#63b8ff" d="M711.38,-132.06C618.65,-120.8 447.06,-114.98 343.25,-203.54 280.39,-257.16 262.36,-360.43 257.24,-409.86"/>
<polygon fill="#63b8ff" stroke="#63b8ff" points="253.77,-409.42 256.34,-419.7 260.74,-410.06 253.77,-409.42"/>
</a>
</g>
</g>
<!-- Node22&#45;&gt;Node2 -->
<g id="edge38_Node000022_Node000002" class="edge">
<title>Node22&#45;&gt;Node2</title>
<g id="a_edge38_Node000022_Node000002"><a xlink:title=" ">
<path fill="none" stroke="#63b8ff" d="M689.48,-100.99C578.26,-98.31 393.06,-100.87 343.25,-144.54 264.21,-213.84 254.78,-351.12 254.58,-409.84"/>
<polygon fill="#63b8ff" stroke="#63b8ff" points="251.08,-409.64 254.64,-419.61 258.08,-409.59 251.08,-409.64"/>
</a>
</g>
</g>
<!-- Node23&#45;&gt;Node2 -->
<g id="edge40_Node000023_Node000002" class="edge">
<title>Node23&#45;&gt;Node2</title>
<g id="a_edge40_Node000023_Node000002"><a xlink:title=" ">
<path fill="none" stroke="#63b8ff" d="M681.54,-63.1C569.89,-61.05 392.63,-64.82 343.25,-106.54 296.24,-146.27 267.71,-338.21 258.52,-410.19"/>
<polygon fill="#63b8ff" stroke="#63b8ff" points="255.07,-409.57 257.3,-419.93 262.01,-410.44 255.07,-409.57"/>
</a>
</g>
</g>
<!-- Node24&#45;&gt;Node2 -->
<g id="edge42_Node000024_Node000002" class="edge">
<title>Node24&#45;&gt;Node2</title>
<g id="a_edge42_Node000024_Node000002"><a xlink:title=" ">
<path fill="none" stroke="#63b8ff" d="M732.91,-18.06C647.51,0.14 454.39,27.01 343.25,-69.54 291.24,-114.73 265.38,-332.97 257.73,-410.3"/>
<polygon fill="#63b8ff" stroke="#63b8ff" points="254.28,-409.66 256.81,-419.95 261.25,-410.33 254.28,-409.66"/>
</a>
</g>
</g>
<!-- Node25&#45;&gt;Node2 -->
<g id="edge44_Node000025_Node000002" class="edge">
<title>Node25&#45;&gt;Node2</title>
<g id="a_edge44_Node000025_Node000002"><a xlink:title=" ">
<path fill="none" stroke="#63b8ff" d="M679.42,-661.86C584.66,-660.23 440.39,-644.06 343.25,-569.54 306.82,-541.59 280.52,-494.07 266.6,-464.32"/>
<polygon fill="#63b8ff" stroke="#63b8ff" points="269.81,-462.91 262.51,-455.24 263.43,-465.8 269.81,-462.91"/>
</a>
</g>
</g>
<!-- Node26&#45;&gt;Node2 -->
<g id="edge46_Node000026_Node000002" class="edge">
<title>Node26&#45;&gt;Node2</title>
<g id="a_edge46_Node000026_Node000002"><a xlink:title=" ">
<path fill="none" stroke="#63b8ff" d="M691.93,-619.98C600.12,-615.8 451.44,-598.26 343.25,-532.54 314.09,-514.83 288.58,-484.73 272.64,-463.16"/>
<polygon fill="#63b8ff" stroke="#63b8ff" points="275.56,-461.23 266.89,-455.15 269.88,-465.31 275.56,-461.23"/>
</a>
</g>
</g>
<!-- Node27&#45;&gt;Node2 -->
<g id="edge48_Node000027_Node000002" class="edge">
<title>Node27&#45;&gt;Node2</title>
<g id="a_edge48_Node000027_Node000002"><a xlink:title=" ">
<path fill="none" stroke="#63b8ff" d="M688.97,-573.11C599.18,-566.9 456.41,-549.46 343.25,-500.54 320.69,-490.79 298.22,-474.56 281.63,-461.02"/>
<polygon fill="#63b8ff" stroke="#63b8ff" points="284.12,-458.54 274.21,-454.8 279.62,-463.91 284.12,-458.54"/>
</a>
</g>
</g>
<!-- Node29&#45;&gt;Node30 -->
<g id="edge51_Node000029_Node000030" class="edge">
<title>Node29&#45;&gt;Node30</title>
<g id="a_edge51_Node000029_Node000030"><a xlink:title=" ">
<path fill="none" stroke="#63b8ff" d="M614.76,-750.13C650.89,-738.1 699.4,-721.93 733.68,-710.52"/>
<polygon fill="#63b8ff" stroke="#63b8ff" points="734.45,-713.95 742.84,-707.46 732.24,-707.3 734.45,-713.95"/>
</a>
</g>
</g>
<!-- Node31 -->
<g id="Node000031" class="node">
<title>Node31</title>
<g id="a_Node000031"><a xlink:href="../../d6/d3c/classLSM1x0A__AtParser.html#a0ba6f927c54fceece22c17773d3f2600" target="_top" xlink:title="Sends a command and extracts a value from the response.">
<polygon fill="white" stroke="#666666" points="1091.62,-712.54 917.38,-712.54 917.38,-680.54 1091.62,-680.54 1091.62,-712.54"/>
<text text-anchor="start" x="925.38" y="-699.04" font-family="Helvetica,sans-Serif" font-size="10.00">LSM1x0A_AtParser::sendCommand</text>
<text text-anchor="middle" x="1004.5" y="-687.04" font-family="Helvetica,sans-Serif" font-size="10.00">WithResponse</text>
</a>
</g>
</g>
<!-- Node30&#45;&gt;Node31 -->
<g id="edge52_Node000030_Node000031" class="edge">
<title>Node30&#45;&gt;Node31</title>
<g id="a_edge52_Node000030_Node000031"><a xlink:title=" ">
<path fill="none" stroke="#63b8ff" d="M863.99,-696.54C877.74,-696.54 892.06,-696.54 906.05,-696.54"/>
<polygon fill="#63b8ff" stroke="#63b8ff" points="905.67,-700.04 915.67,-696.54 905.67,-693.04 905.67,-700.04"/>
</a>
</g>
</g>
<!-- Node32 -->
<g id="Node000032" class="node">
<title>Node32</title>
<g id="a_Node000032"><a xlink:href="../../d5/d8b/classUartDriver.html#a5d0f22e8867eebe99273078bb19bd23d" target="_top" xlink:title="Sends data through UART.">
<polygon fill="white" stroke="#666666" points="1266.25,-706.54 1157.25,-706.54 1157.25,-686.54 1266.25,-686.54 1266.25,-706.54"/>
<text text-anchor="middle" x="1211.75" y="-693.04" font-family="Helvetica,sans-Serif" font-size="10.00">UartDriver::sendData</text>
</a>
</g>
</g>
<!-- Node31&#45;&gt;Node32 -->
<g id="edge53_Node000031_Node000032" class="edge">
<title>Node31&#45;&gt;Node32</title>
<g id="a_edge53_Node000031_Node000032"><a xlink:title=" ">
<path fill="none" stroke="#63b8ff" d="M1091.95,-696.54C1109.84,-696.54 1128.41,-696.54 1145.39,-696.54"/>
<polygon fill="#63b8ff" stroke="#63b8ff" points="1145.36,-700.04 1155.36,-696.54 1145.36,-693.04 1145.36,-700.04"/>
</a>
</g>
</g>
</g>
</svg>
