<?xml version="1.0" encoding="UTF-8" standalone="no"?>
<!DOCTYPE svg PUBLIC "-//W3C//DTD SVG 1.1//EN"
 "http://www.w3.org/Graphics/SVG/1.1/DTD/svg11.dtd">
<!-- Generated by graphviz version 12.2.1 (20241206.2353)
 -->
<!-- Title: LSM1x0A_LoRaWAN::setDataRate Pages: 1 -->
<!--zoomable 1070 -->

<svg id="main" version="1.1" xmlns="http://www.w3.org/2000/svg" xmlns:xlink="http://www.w3.org/1999/xlink" xml:space="preserve" onload="init(evt)">
<style type="text/css"><![CDATA[
.node, .edge {opacity: 0.7;}
.node.selected, .edge.selected {opacity: 1;}
.edge:hover path { stroke: red; }
.edge:hover polygon { stroke: red; fill: red; }
]]></style>

<defs>
  <circle id="rim" cx="0" cy="0" r="7"/>
  <circle id="rim2" cx="0" cy="0" r="3.5"/>
  <g id="zoomPlus">
    <use xlink:href="#rim" fill="#404040"><set attributeName="fill" to="#808080" begin="zoomplus.mouseover" end="zoomplus.mouseout"/></use>
    <path d="M-4,0h8M0,-4v8" fill="none" stroke="white" stroke-width="1.5" pointer-events="none"/>
  </g>
  <g id="zoomMin">
    <use xlink:href="#rim" fill="#404040"><set attributeName="fill" to="#808080" begin="zoomminus.mouseover" end="zoomminus.mouseout"/></use>
    <path d="M-4,0h8" fill="none" stroke="white" stroke-width="1.5" pointer-events="none"/>
  </g>
  <g id="arrowUp" transform="translate(30 24)">
    <use xlink:href="#rim"/>
    <path pointer-events="none" fill="none" stroke="white" stroke-width="1.5" d="M0,-3.0v7 M-2.5,-0.5L0,-3.0L2.5,-0.5"/>
  </g>
  <g id="arrowRight" transform="rotate(90) translate(36 -43)">
    <use xlink:href="#rim"/>
    <path pointer-events="none" fill="none" stroke="white" stroke-width="1.5" d="M0,-3.0v7 M-2.5,-0.5L0,-3.0L2.5,-0.5"/>
  </g>
  <g id="arrowDown" transform="rotate(180) translate(-30 -48)">
    <use xlink:href="#rim"/>
    <path pointer-events="none" fill="none" stroke="white" stroke-width="1.5" d="M0,-3.0v7 M-2.5,-0.5L0,-3.0L2.5,-0.5"/>
  </g>
  <g id="arrowLeft" transform="rotate(270) translate(-36 17)">
    <use xlink:href="#rim"/>
    <path pointer-events="none" fill="none" stroke="white" stroke-width="1.5" d="M0,-3.0v7 M-2.5,-0.5L0,-3.0L2.5,-0.5"/>
  </g>
  <g id="resetDef">
    <use xlink:href="#rim2" fill="#404040"><set attributeName="fill" to="#808080" begin="reset.mouseover" end="reset.mouseout"/></use>
  </g>
</defs>
<script type="application/ecmascript">
var viewWidth = 1303;
var viewHeight = 1070;
var sectionId = 'dynsection-76';
</script>
<script type="application/ecmascript" xlink:href="../../svg.min.js"/>
<svg id="graph" class="graph">
<g id="viewport">
<title>LSM1x0A_LoRaWAN::setDataRate</title>
<!-- Node1 -->
<g id="Node000001" class="node">
<title>Node1</title>
<g id="a_Node000001"><a xlink:title="Sets the Data Rate (DR) of the module.">
<polygon fill="#999999" stroke="#666666" points="172,-350.54 0,-350.54 0,-330.54 172,-330.54 172,-350.54"/>
<text text-anchor="middle" x="86" y="-337.04" font-family="Helvetica,sans-Serif" font-size="10.00">LSM1x0A_LoRaWAN::setDataRate</text>
</a>
</g>
</g>
<!-- Node2 -->
<g id="Node000002" class="node">
<title>Node2</title>
<g id="a_Node000002"><a xlink:href="../../d8/d92/classLSM1x0A__Controller.html#afd7d92e60ed6fdae696a955cdbe0ed8c" target="_top" xlink:title="Sends any AT command to the module, returning error if it fails. Internally uses the LsmAtParser logi...">
<polygon fill="white" stroke="#666666" points="314,-453.54 208,-453.54 208,-421.54 314,-421.54 314,-453.54"/>
<text text-anchor="start" x="216" y="-440.04" font-family="Helvetica,sans-Serif" font-size="10.00">LSM1x0A_Controller</text>
<text text-anchor="middle" x="261" y="-428.04" font-family="Helvetica,sans-Serif" font-size="10.00">::sendCommand</text>
</a>
</g>
</g>
<!-- Node1&#45;&gt;Node2 -->
<g id="edge1_Node000001_Node000002" class="edge">
<title>Node1&#45;&gt;Node2</title>
<g id="a_edge1_Node000001_Node000002"><a xlink:title=" ">
<path fill="none" stroke="#63b8ff" d="M105.51,-350.92C132.92,-366.29 184.93,-395.45 220.99,-415.67"/>
<polygon fill="#63b8ff" stroke="#63b8ff" points="218.95,-418.54 229.38,-420.37 222.37,-412.43 218.95,-418.54"/>
</a>
</g>
</g>
<!-- Node3 -->
<g id="Node000003" class="node">
<title>Node3</title>
<g id="a_Node000003"><a xlink:href="../../d8/d92/classLSM1x0A__Controller.html#abb0eb380daa3dfb7acffb483c5db8e2b" target="_top" xlink:title="Executes the recovery protocol. First Soft&#45;Reset (ATZ), then Hard&#45;Reset if there is a pin.">
<polygon fill="white" stroke="#666666" points="456,-870.54 350,-870.54 350,-838.54 456,-838.54 456,-870.54"/>
<text text-anchor="start" x="358" y="-857.04" font-family="Helvetica,sans-Serif" font-size="10.00">LSM1x0A_Controller</text>
<text text-anchor="middle" x="403" y="-845.04" font-family="Helvetica,sans-Serif" font-size="10.00">::recoverModule</text>
</a>
</g>
</g>
<!-- Node2&#45;&gt;Node3 -->
<g id="edge2_Node000002_Node000003" class="edge">
<title>Node2&#45;&gt;Node3</title>
<g id="a_edge2_Node000002_Node000003"><a xlink:title=" ">
<path fill="none" stroke="#63b8ff" d="M266.04,-453.99C277.41,-499.52 311.34,-630.84 350,-736.54 361.75,-768.67 378,-804.48 389.19,-828.14"/>
<polygon fill="#63b8ff" stroke="#63b8ff" points="385.97,-829.51 393.44,-837.03 392.29,-826.5 385.97,-829.51"/>
</a>
</g>
</g>
<!-- Node30 -->
<g id="Node000030" class="node">
<title>Node30</title>
<g id="a_Node000030"><a xlink:href="../../d6/d3c/classLSM1x0A__AtParser.html#a29b53c521974387ba6c03afadfaffa4a" target="_top" xlink:title="Sends a simple command and waits for OK/ERROR. Example: sendCommand(&quot;AT+JOIN&quot;);.">
<polygon fill="white" stroke="#666666" points="870.5,-706.54 696.25,-706.54 696.25,-686.54 870.5,-686.54 870.5,-706.54"/>
<text text-anchor="middle" x="783.38" y="-693.04" font-family="Helvetica,sans-Serif" font-size="10.00">LSM1x0A_AtParser::sendCommand</text>
</a>
</g>
</g>
<!-- Node2&#45;&gt;Node30 -->
<g id="edge54_Node000002_Node000030" class="edge">
<title>Node2&#45;&gt;Node30</title>
<g id="a_edge54_Node000002_Node000030"><a xlink:title=" ">
<path fill="none" stroke="#63b8ff" d="M265.9,-453.97C274.85,-488.15 300.03,-567.38 350,-611.54 441.82,-692.67 587.98,-705.56 684.55,-703.83"/>
<polygon fill="#63b8ff" stroke="#63b8ff" points="684.36,-707.34 694.27,-703.6 684.19,-700.34 684.36,-707.34"/>
</a>
</g>
</g>
<!-- Node4 -->
<g id="Node000004" class="node">
<title>Node4</title>
<g id="a_Node000004"><a xlink:href="../../d8/d92/classLSM1x0A__Controller.html#a3f6f25b843fe4fb7042c544deae2ab16" target="_top" xlink:title="Manually clears bits from the internal EventGroup.">
<polygon fill="white" stroke="#666666" points="1064.25,-927.54 958.25,-927.54 958.25,-895.54 1064.25,-895.54 1064.25,-927.54"/>
<text text-anchor="start" x="966.25" y="-914.04" font-family="Helvetica,sans-Serif" font-size="10.00">LSM1x0A_Controller</text>
<text text-anchor="middle" x="1011.25" y="-902.04" font-family="Helvetica,sans-Serif" font-size="10.00">::clearEvents</text>
</a>
</g>
</g>
<!-- Node3&#45;&gt;Node4 -->
<g id="edge3_Node000003_Node000004" class="edge">
<title>Node3&#45;&gt;Node4</title>
<g id="a_edge3_Node000003_Node000004"><a xlink:title=" ">
<path fill="none" stroke="#63b8ff" d="M454.76,-870.97C466.85,-874.32 479.79,-877.45 492,-879.54 654.02,-907.22 848.15,-911.71 946.46,-911.99"/>
<polygon fill="#63b8ff" stroke="#63b8ff" points="946.45,-915.49 956.45,-912.01 946.46,-908.49 946.45,-915.49"/>
</a>
</g>
</g>
<!-- Node5 -->
<g id="Node000005" class="node">
<title>Node5</title>
<g id="a_Node000005"><a xlink:href="../../d8/d92/classLSM1x0A__Controller.html#a345d4bd79fa16b18dc33a4ca788fe5f7" target="_top" xlink:title="Performs a hardware reset using the reset pin.">
<polygon fill="white" stroke="#666666" points="624.25,-870.54 518.25,-870.54 518.25,-838.54 624.25,-838.54 624.25,-870.54"/>
<text text-anchor="start" x="526.25" y="-857.04" font-family="Helvetica,sans-Serif" font-size="10.00">LSM1x0A_Controller</text>
<text text-anchor="middle" x="571.25" y="-845.04" font-family="Helvetica,sans-Serif" font-size="10.00">::hardwareReset</text>
</a>
</g>
</g>
<!-- Node3&#45;&gt;Node5 -->
<g id="edge4_Node000003_Node000005" class="edge">
<title>Node3&#45;&gt;Node5</title>
<g id="a_edge4_Node000003_Node000005"><a xlink:title=" ">
<path fill="none" stroke="#63b8ff" d="M456.15,-854.54C472.16,-854.54 489.97,-854.54 506.66,-854.54"/>
<polygon fill="#63b8ff" stroke="#63b8ff" points="506.49,-858.04 516.49,-854.54 506.49,-851.04 506.49,-858.04"/>
</a>
</g>
</g>
<!-- Node7 -->
<g id="Node000007" class="node">
<title>Node7</title>
<g id="a_Node000007"><a xlink:href="../../d5/d72/classLSM1x0A__LoRaWAN.html#a1892801e37c8cd67d37c76108d6f7d49" target="_top" xlink:title="Validates if the device is currently Joined to the network. (Either confirmed by OTAA or statically a...">
<polygon fill="white" stroke="#666666" points="1294.75,-793.54 1142.25,-793.54 1142.25,-773.54 1294.75,-773.54 1294.75,-793.54"/>
<text text-anchor="middle" x="1218.5" y="-780.04" font-family="Helvetica,sans-Serif" font-size="10.00">LSM1x0A_LoRaWAN::isJoined</text>
</a>
</g>
</g>
<!-- Node3&#45;&gt;Node7 -->
<g id="edge6_Node000003_Node000007" class="edge">
<title>Node3&#45;&gt;Node7</title>
<g id="a_edge6_Node000003_Node000007"><a xlink:title=" ">
<path fill="none" stroke="#63b8ff" d="M454.76,-838.13C466.85,-834.78 479.79,-831.64 492,-829.54 720.21,-790.35 993.95,-783.71 1130.74,-783.09"/>
<polygon fill="#63b8ff" stroke="#63b8ff" points="1130.45,-786.59 1140.44,-783.06 1130.42,-779.59 1130.45,-786.59"/>
</a>
</g>
</g>
<!-- Node8 -->
<g id="Node000008" class="node">
<title>Node8</title>
<g id="a_Node000008"><a xlink:href="../../d5/d72/classLSM1x0A__LoRaWAN.html#a83e11c0e74ff9e0757db616ab1163424" target="_top" xlink:title="Attempts to recover a lost connection (re&#45;executes OTAA Join if dropped).">
<polygon fill="white" stroke="#666666" points="645.62,-1034.54 496.88,-1034.54 496.88,-1002.54 645.62,-1002.54 645.62,-1034.54"/>
<text text-anchor="start" x="504.88" y="-1021.04" font-family="Helvetica,sans-Serif" font-size="10.00">LSM1x0A_LoRaWAN::recover</text>
<text text-anchor="middle" x="571.25" y="-1009.04" font-family="Helvetica,sans-Serif" font-size="10.00">Connection</text>
</a>
</g>
</g>
<!-- Node3&#45;&gt;Node8 -->
<g id="edge7_Node000003_Node000008" class="edge">
<title>Node3&#45;&gt;Node8</title>
<g id="a_edge7_Node000003_Node000008"><a xlink:title=" ">
<path fill="none" stroke="#63b8ff" d="M410.7,-870.94C422.89,-898.84 451.25,-955.72 492,-988.54 495.87,-991.65 500.09,-994.47 504.51,-997.01"/>
<polygon fill="#63b8ff" stroke="#63b8ff" points="502.6,-999.96 513.09,-1001.45 505.82,-993.75 502.6,-999.96"/>
</a>
</g>
</g>
<!-- Node12 -->
<g id="Node000012" class="node">
<title>Node12</title>
<g id="a_Node000012"><a xlink:href="../../d5/d72/classLSM1x0A__LoRaWAN.html#ae3be4ce59dfa200369733317df356e97" target="_top" xlink:title="Pushes the RAM&#45;cached variables back down into the hardware module. Restores the operational state af...">
<polygon fill="white" stroke="#666666" points="644.5,-390.54 498,-390.54 498,-358.54 644.5,-358.54 644.5,-390.54"/>
<text text-anchor="start" x="506" y="-377.04" font-family="Helvetica,sans-Serif" font-size="10.00">LSM1x0A_LoRaWAN::restore</text>
<text text-anchor="middle" x="571.25" y="-365.04" font-family="Helvetica,sans-Serif" font-size="10.00">Config</text>
</a>
</g>
</g>
<!-- Node3&#45;&gt;Node12 -->
<g id="edge16_Node000003_Node000012" class="edge">
<title>Node3&#45;&gt;Node12</title>
<g id="a_edge16_Node000003_Node000012"><a xlink:title=" ">
<path fill="none" stroke="#63b8ff" d="M409.63,-838.3C433.95,-768.08 530.17,-490.26 560.82,-401.77"/>
<polygon fill="#63b8ff" stroke="#63b8ff" points="564.08,-403.05 564.04,-392.46 557.46,-400.76 564.08,-403.05"/>
</a>
</g>
</g>
<!-- Node28 -->
<g id="Node000028" class="node">
<title>Node28</title>
<g id="a_Node000028"><a xlink:href="../../d5/d72/classLSM1x0A__LoRaWAN.html#ace4b04396f1de1f4a54f513f5f378db7" target="_top" xlink:title="Manually overrides the internal joined state tracker.">
<polygon fill="white" stroke="#666666" points="650.5,-946.54 492,-946.54 492,-926.54 650.5,-926.54 650.5,-946.54"/>
<text text-anchor="middle" x="571.25" y="-933.04" font-family="Helvetica,sans-Serif" font-size="10.00">LSM1x0A_LoRaWAN::setJoined</text>
</a>
</g>
</g>
<!-- Node3&#45;&gt;Node28 -->
<g id="edge49_Node000003_Node000028" class="edge">
<title>Node3&#45;&gt;Node28</title>
<g id="a_edge49_Node000003_Node000028"><a xlink:title=" ">
<path fill="none" stroke="#63b8ff" d="M425.04,-870.9C442.26,-883.66 467.67,-901.08 492,-912.54 500.04,-916.33 508.83,-919.7 517.52,-922.63"/>
<polygon fill="#63b8ff" stroke="#63b8ff" points="516.37,-925.94 526.96,-925.65 518.5,-919.27 516.37,-925.94"/>
</a>
</g>
</g>
<!-- Node29 -->
<g id="Node000029" class="node">
<title>Node29</title>
<g id="a_Node000029"><a xlink:href="../../d8/d92/classLSM1x0A__Controller.html#a11ad21cb5ca33ec51346764a23bd485e" target="_top" xlink:title="Performs a software reset (ATZ Command).">
<polygon fill="white" stroke="#666666" points="624.25,-782.54 518.25,-782.54 518.25,-750.54 624.25,-750.54 624.25,-782.54"/>
<text text-anchor="start" x="526.25" y="-769.04" font-family="Helvetica,sans-Serif" font-size="10.00">LSM1x0A_Controller</text>
<text text-anchor="middle" x="571.25" y="-757.04" font-family="Helvetica,sans-Serif" font-size="10.00">::softwareReset</text>
</a>
</g>
</g>
<!-- Node3&#45;&gt;Node29 -->
<g id="edge50_Node000003_Node000029" class="edge">
<title>Node3&#45;&gt;Node29</title>
<g id="a_edge50_Node000003_Node000029"><a xlink:title=" ">
<path fill="none" stroke="#63b8ff" d="M425.97,-838.12C443.3,-825.66 468.4,-808.66 492,-796.54 498.29,-793.31 505,-790.23 511.76,-787.35"/>
<polygon fill="#63b8ff" stroke="#63b8ff" points="513.03,-790.62 520.96,-783.59 510.38,-784.14 513.03,-790.62"/>
</a>
</g>
</g>
<!-- Node6 -->
<g id="Node000006" class="node">
<title>Node6</title>
<g id="a_Node000006"><a xlink:href="../../d6/d3c/classLSM1x0A__AtParser.html#ad2839120da13e56132b95019419be1e5" target="_top" xlink:title="Waits for an event (like BOOTALERT) without sending any command. Useful for hardware reset where the ...">
<polygon fill="white" stroke="#666666" points="853.62,-870.54 713.12,-870.54 713.12,-838.54 853.62,-838.54 853.62,-870.54"/>
<text text-anchor="start" x="721.12" y="-857.04" font-family="Helvetica,sans-Serif" font-size="10.00">LSM1x0A_AtParser::waitFor</text>
<text text-anchor="middle" x="783.38" y="-845.04" font-family="Helvetica,sans-Serif" font-size="10.00">Event</text>
</a>
</g>
</g>
<!-- Node5&#45;&gt;Node6 -->
<g id="edge5_Node000005_Node000006" class="edge">
<title>Node5&#45;&gt;Node6</title>
<g id="a_edge5_Node000005_Node000006"><a xlink:title=" ">
<path fill="none" stroke="#63b8ff" d="M624.73,-854.54C647.92,-854.54 675.72,-854.54 701.46,-854.54"/>
<polygon fill="#63b8ff" stroke="#63b8ff" points="701.22,-858.04 711.22,-854.54 701.22,-851.04 701.22,-858.04"/>
</a>
</g>
</g>
<!-- Node9 -->
<g id="Node000009" class="node">
<title>Node9</title>
<g id="a_Node000009"><a xlink:href="../../d5/d72/classLSM1x0A__LoRaWAN.html#a59f781f3cfd30c11cd3973bcb10a7baa" target="_top" xlink:title="Initiates a LoRaWAN Network Join procedure. This is a blocking function until the module fires an eve...">
<polygon fill="white" stroke="#666666" points="849.12,-984.54 717.62,-984.54 717.62,-964.54 849.12,-964.54 849.12,-984.54"/>
<text text-anchor="middle" x="783.38" y="-971.04" font-family="Helvetica,sans-Serif" font-size="10.00">LSM1x0A_LoRaWAN::join</text>
</a>
</g>
</g>
<!-- Node8&#45;&gt;Node9 -->
<g id="edge8_Node000008_Node000009" class="edge">
<title>Node8&#45;&gt;Node9</title>
<g id="a_edge8_Node000008_Node000009"><a xlink:title=" ">
<path fill="none" stroke="#63b8ff" d="M646.04,-1003.09C670.63,-997.94 697.74,-992.26 721.26,-987.34"/>
<polygon fill="#63b8ff" stroke="#63b8ff" points="721.94,-990.77 731.01,-985.3 720.51,-983.92 721.94,-990.77"/>
</a>
</g>
</g>
<!-- Node9&#45;&gt;Node2 -->
<g id="edge11_Node000009_Node000002" class="edge">
<title>Node9&#45;&gt;Node2</title>
<g id="a_edge11_Node000009_Node000002"><a xlink:title=" ">
<path fill="none" stroke="#63b8ff" d="M768.28,-984.89C745.12,-1001.18 696.92,-1032.13 650.5,-1043.54 582.09,-1060.36 556.07,-1072.82 492,-1043.54 404.31,-1003.47 392.38,-966.14 350,-879.54 279.13,-734.71 265.33,-536.63 262.65,-464.89"/>
<polygon fill="#63b8ff" stroke="#63b8ff" points="266.16,-465.13 262.34,-455.25 259.16,-465.36 266.16,-465.13"/>
</a>
</g>
</g>
<!-- Node9&#45;&gt;Node3 -->
<g id="edge10_Node000009_Node000003" class="edge">
<title>Node9&#45;&gt;Node3</title>
<g id="a_edge10_Node000009_Node000003"><a xlink:title=" ">
<path fill="none" stroke="#63b8ff" d="M717.28,-984.03C655.9,-989.91 562.97,-990.68 492,-955.54 458.99,-939.2 433.14,-904.42 418.23,-880.27"/>
<polygon fill="#63b8ff" stroke="#63b8ff" points="421.41,-878.77 413.29,-871.96 415.39,-882.35 421.41,-878.77"/>
</a>
</g>
</g>
<!-- Node9&#45;&gt;Node4 -->
<g id="edge9_Node000009_Node000004" class="edge">
<title>Node9&#45;&gt;Node4</title>
<g id="a_edge9_Node000009_Node000004"><a xlink:title=" ">
<path fill="none" stroke="#63b8ff" d="M821.93,-964.07C855.87,-954.6 906.53,-940.47 946.76,-929.25"/>
<polygon fill="#63b8ff" stroke="#63b8ff" points="947.65,-932.63 956.35,-926.58 945.77,-925.89 947.65,-932.63"/>
</a>
</g>
</g>
<!-- Node10 -->
<g id="Node000010" class="node">
<title>Node10</title>
<g id="a_Node000010"><a xlink:href="../../d5/d72/classLSM1x0A__LoRaWAN.html#a3fdd1ac318a5ad2559323e5d57e36a5e" target="_top" xlink:title="Enables or disables specific sub&#45;bands for regions supporting Channel Masks (e.g.,...">
<polygon fill="white" stroke="#666666" points="1106.25,-766.54 916.25,-766.54 916.25,-746.54 1106.25,-746.54 1106.25,-766.54"/>
<text text-anchor="middle" x="1011.25" y="-753.04" font-family="Helvetica,sans-Serif" font-size="10.00">LSM1x0A_LoRaWAN::setChannelMask</text>
</a>
</g>
</g>
<!-- Node9&#45;&gt;Node10 -->
<g id="edge12_Node000009_Node000010" class="edge">
<title>Node9&#45;&gt;Node10</title>
<g id="a_edge12_Node000009_Node000010"><a xlink:title=" ">
<path fill="none" stroke="#63b8ff" d="M794.97,-964.32C830.45,-930.07 945.49,-819.04 991.24,-774.89"/>
<polygon fill="#63b8ff" stroke="#63b8ff" points="993.56,-777.51 998.33,-768.05 988.7,-772.47 993.56,-777.51"/>
</a>
</g>
</g>
<!-- Node11 -->
<g id="Node000011" class="node">
<title>Node11</title>
<g id="a_Node000011"><a xlink:href="../../d8/d92/classLSM1x0A__Controller.html#a62476e30e50c7fe120aeb8df4b828675" target="_top" xlink:title="Synchronously/blockingly waits for an asynchronous event to occur. Useful for wrapping commands like ...">
<polygon fill="white" stroke="#666666" points="1064.25,-990.54 958.25,-990.54 958.25,-958.54 1064.25,-958.54 1064.25,-990.54"/>
<text text-anchor="start" x="966.25" y="-977.04" font-family="Helvetica,sans-Serif" font-size="10.00">LSM1x0A_Controller</text>
<text text-anchor="middle" x="1011.25" y="-965.04" font-family="Helvetica,sans-Serif" font-size="10.00">::waitForEvent</text>
</a>
</g>
</g>
<!-- Node9&#45;&gt;Node11 -->
<g id="edge15_Node000009_Node000011" class="edge">
<title>Node9&#45;&gt;Node11</title>
<g id="a_edge15_Node000009_Node000011"><a xlink:title=" ">
<path fill="none" stroke="#63b8ff" d="M849.4,-974.54C879.91,-974.54 916.15,-974.54 946.49,-974.54"/>
<polygon fill="#63b8ff" stroke="#63b8ff" points="946.3,-978.04 956.3,-974.54 946.3,-971.04 946.3,-978.04"/>
</a>
</g>
</g>
<!-- Node10&#45;&gt;Node2 -->
<g id="edge14_Node000010_Node000002" class="edge">
<title>Node10&#45;&gt;Node2</title>
<g id="a_edge14_Node000010_Node000002"><a xlink:title=" ">
<path fill="none" stroke="#63b8ff" d="M915.96,-755.04C753.02,-750.38 428.61,-731.45 350,-654.54 295.83,-601.54 273.89,-510.67 265.96,-465.18"/>
<polygon fill="#63b8ff" stroke="#63b8ff" points="269.43,-464.68 264.37,-455.37 262.52,-465.8 269.43,-464.68"/>
</a>
</g>
</g>
<!-- Node10&#45;&gt;Node7 -->
<g id="edge13_Node000010_Node000007" class="edge">
<title>Node10&#45;&gt;Node7</title>
<g id="a_edge13_Node000010_Node000007"><a xlink:title=" ">
<path fill="none" stroke="#63b8ff" d="M1091.9,-767.02C1104.62,-768.69 1117.84,-770.43 1130.72,-772.13"/>
<polygon fill="#63b8ff" stroke="#63b8ff" points="1130.06,-775.57 1140.43,-773.4 1130.98,-768.63 1130.06,-775.57"/>
</a>
</g>
</g>
<!-- Node12&#45;&gt;Node1 -->
<g id="edge24_Node000012_Node000001" class="edge">
<title>Node12&#45;&gt;Node1</title>
<g id="a_edge24_Node000012_Node000001"><a xlink:title=" ">
<path fill="none" stroke="#63b8ff" d="M497.65,-369.43C414.02,-363.55 276.27,-353.86 183.63,-347.34"/>
<polygon fill="#63b8ff" stroke="#63b8ff" points="184.01,-343.86 173.79,-346.65 183.52,-350.84 184.01,-343.86"/>
</a>
</g>
</g>
<!-- Node12&#45;&gt;Node10 -->
<g id="edge21_Node000012_Node000010" class="edge">
<title>Node12&#45;&gt;Node10</title>
<g id="a_edge21_Node000012_Node000010"><a xlink:title=" ">
<path fill="none" stroke="#63b8ff" d="M644.78,-367.2C725.05,-360.81 847.44,-356.8 880.25,-387.54 934.73,-438.58 870.43,-662.61 916.25,-721.54 922.99,-730.21 932.12,-736.74 942.05,-741.64"/>
<polygon fill="#63b8ff" stroke="#63b8ff" points="940.66,-744.86 951.23,-745.6 943.43,-738.43 940.66,-744.86"/>
</a>
</g>
</g>
<!-- Node13 -->
<g id="Node000013" class="node">
<title>Node13</title>
<g id="a_Node000013"><a xlink:href="../../d5/d72/classLSM1x0A__LoRaWAN.html#af0baa3db4c7fab580d6b19a9e92472f6" target="_top" xlink:title="Enables or disables Adaptive Data Rate (ADR).">
<polygon fill="white" stroke="#666666" points="859.25,-542.54 707.5,-542.54 707.5,-522.54 859.25,-522.54 859.25,-542.54"/>
<text text-anchor="middle" x="783.38" y="-529.04" font-family="Helvetica,sans-Serif" font-size="10.00">LSM1x0A_LoRaWAN::setADR</text>
</a>
</g>
</g>
<!-- Node12&#45;&gt;Node13 -->
<g id="edge17_Node000012_Node000013" class="edge">
<title>Node12&#45;&gt;Node13</title>
<g id="a_edge17_Node000012_Node000013"><a xlink:title=" ">
<path fill="none" stroke="#63b8ff" d="M580.7,-390.95C596.9,-420.61 635.3,-482.91 686.5,-513.54 689.7,-515.46 693.06,-517.19 696.53,-518.74"/>
<polygon fill="#63b8ff" stroke="#63b8ff" points="695.21,-521.98 705.79,-522.37 697.76,-515.46 695.21,-521.98"/>
</a>
</g>
</g>
<!-- Node14 -->
<g id="Node000014" class="node">
<title>Node14</title>
<g id="a_Node000014"><a xlink:href="../../d5/d72/classLSM1x0A__LoRaWAN.html#a5365ed1596eb84ebf1e3b33b4a10c788" target="_top" xlink:title="Sets the LoRaWAN operational frequency band.">
<polygon fill="white" stroke="#666666" points="859.62,-504.54 707.12,-504.54 707.12,-484.54 859.62,-484.54 859.62,-504.54"/>
<text text-anchor="middle" x="783.38" y="-491.04" font-family="Helvetica,sans-Serif" font-size="10.00">LSM1x0A_LoRaWAN::setBand</text>
</a>
</g>
</g>
<!-- Node12&#45;&gt;Node14 -->
<g id="edge19_Node000012_Node000014" class="edge">
<title>Node12&#45;&gt;Node14</title>
<g id="a_edge19_Node000012_Node000014"><a xlink:title=" ">
<path fill="none" stroke="#63b8ff" d="M585.51,-390.75C605.1,-413.51 644.03,-454.51 686.5,-475.54 690.18,-477.36 694.01,-479.01 697.95,-480.49"/>
<polygon fill="#63b8ff" stroke="#63b8ff" points="696.52,-483.71 707.11,-483.59 698.76,-477.07 696.52,-483.71"/>
</a>
</g>
</g>
<!-- Node15 -->
<g id="Node000015" class="node">
<title>Node15</title>
<g id="a_Node000015"><a xlink:href="../../d5/d72/classLSM1x0A__LoRaWAN.html#a9d9285c43414337a0ccb3a6cd7ca06e6" target="_top" xlink:title="Configures the number of retries for Confirmed uplinks.">
<polygon fill="white" stroke="#666666" points="865.62,-466.54 701.12,-466.54 701.12,-434.54 865.62,-434.54 865.62,-466.54"/>
<text text-anchor="start" x="709.12" y="-453.04" font-family="Helvetica,sans-Serif" font-size="10.00">LSM1x0A_LoRaWAN::setConfirm</text>
<text text-anchor="middle" x="783.38" y="-441.04" font-family="Helvetica,sans-Serif" font-size="10.00">Retry</text>
</a>
</g>
</g>
<!-- Node12&#45;&gt;Node15 -->
<g id="edge22_Node000012_Node000015" class="edge">
<title>Node12&#45;&gt;Node15</title>
<g id="a_edge22_Node000012_Node000015"><a xlink:title=" ">
<path fill="none" stroke="#63b8ff" d="M605.16,-390.97C627.67,-401.77 658.42,-415.69 686.5,-425.54 691.79,-427.4 697.29,-429.19 702.86,-430.9"/>
<polygon fill="#63b8ff" stroke="#63b8ff" points="701.58,-434.17 712.16,-433.65 703.57,-427.46 701.58,-434.17"/>
</a>
</g>
</g>
<!-- Node16 -->
<g id="Node000016" class="node">
<title>Node16</title>
<g id="a_Node000016"><a xlink:href="../../d5/d72/classLSM1x0A__LoRaWAN.html#a8494083816ab885cb07fc3b08de029f4" target="_top" xlink:title="Sets the LoRaWAN Device Address (DevAddr) for ABP mode.">
<polygon fill="white" stroke="#666666" points="867.5,-416.54 699.25,-416.54 699.25,-396.54 867.5,-396.54 867.5,-416.54"/>
<text text-anchor="middle" x="783.38" y="-403.04" font-family="Helvetica,sans-Serif" font-size="10.00">LSM1x0A_LoRaWAN::setDevAddr</text>
</a>
</g>
</g>
<!-- Node12&#45;&gt;Node16 -->
<g id="edge25_Node000012_Node000016" class="edge">
<title>Node12&#45;&gt;Node16</title>
<g id="a_edge25_Node000012_Node000016"><a xlink:title=" ">
<path fill="none" stroke="#63b8ff" d="M644.86,-385.6C663.41,-388.42 683.47,-391.48 702.37,-394.36"/>
<polygon fill="#63b8ff" stroke="#63b8ff" points="701.75,-397.8 712.16,-395.85 702.8,-390.88 701.75,-397.8"/>
</a>
</g>
</g>
<!-- Node17 -->
<g id="Node000017" class="node">
<title>Node17</title>
<g id="a_Node000017"><a xlink:href="../../d5/d72/classLSM1x0A__LoRaWAN.html#ad320634e52d7ea907043cc50dd37c5b0" target="_top" xlink:title="Sets the LoRaWAN Device EUI (DevEUI).">
<polygon fill="white" stroke="#666666" points="866,-340.54 700.75,-340.54 700.75,-320.54 866,-320.54 866,-340.54"/>
<text text-anchor="middle" x="783.38" y="-327.04" font-family="Helvetica,sans-Serif" font-size="10.00">LSM1x0A_LoRaWAN::setDevEUI</text>
</a>
</g>
</g>
<!-- Node12&#45;&gt;Node17 -->
<g id="edge27_Node000012_Node000017" class="edge">
<title>Node12&#45;&gt;Node17</title>
<g id="a_edge27_Node000012_Node000017"><a xlink:title=" ">
<path fill="none" stroke="#63b8ff" d="M644.86,-359.34C669.74,-354.13 697.32,-348.35 721.21,-343.35"/>
<polygon fill="#63b8ff" stroke="#63b8ff" points="721.7,-346.82 730.77,-341.35 720.27,-339.97 721.7,-346.82"/>
</a>
</g>
</g>
<!-- Node18 -->
<g id="Node000018" class="node">
<title>Node18</title>
<g id="a_Node000018"><a xlink:href="../../d5/d72/classLSM1x0A__LoRaWAN.html#a031023b0d2dd5db3c51c2db6ae7801cc" target="_top" xlink:title="Enables or disables the Duty Cycle limitation (EU regions mostly).">
<polygon fill="white" stroke="#666666" points="858.88,-302.54 707.88,-302.54 707.88,-270.54 858.88,-270.54 858.88,-302.54"/>
<text text-anchor="start" x="715.88" y="-289.04" font-family="Helvetica,sans-Serif" font-size="10.00">LSM1x0A_LoRaWAN::setDuty</text>
<text text-anchor="middle" x="783.38" y="-277.04" font-family="Helvetica,sans-Serif" font-size="10.00">Cycle</text>
</a>
</g>
</g>
<!-- Node12&#45;&gt;Node18 -->
<g id="edge29_Node000012_Node000018" class="edge">
<title>Node12&#45;&gt;Node18</title>
<g id="a_edge29_Node000012_Node000018"><a xlink:title=" ">
<path fill="none" stroke="#63b8ff" d="M597.66,-358.11C620.24,-344.11 654.52,-324.3 686.5,-311.54 690.9,-309.78 695.47,-308.12 700.11,-306.54"/>
<polygon fill="#63b8ff" stroke="#63b8ff" points="701.16,-309.88 709.61,-303.48 699.02,-303.21 701.16,-309.88"/>
</a>
</g>
</g>
<!-- Node19 -->
<g id="Node000019" class="node">
<title>Node19</title>
<g id="a_Node000019"><a xlink:href="../../d5/d72/classLSM1x0A__LoRaWAN.html#a6b179d5825c49af0f391dfc539912f64" target="_top" xlink:title="Sets the delay for the Join1 receive window.">
<polygon fill="white" stroke="#666666" points="860,-252.54 706.75,-252.54 706.75,-220.54 860,-220.54 860,-252.54"/>
<text text-anchor="start" x="714.75" y="-239.04" font-family="Helvetica,sans-Serif" font-size="10.00">LSM1x0A_LoRaWAN::setJoin1</text>
<text text-anchor="middle" x="783.38" y="-227.04" font-family="Helvetica,sans-Serif" font-size="10.00">Delay</text>
</a>
</g>
</g>
<!-- Node12&#45;&gt;Node19 -->
<g id="edge31_Node000012_Node000019" class="edge">
<title>Node12&#45;&gt;Node19</title>
<g id="a_edge31_Node000012_Node000019"><a xlink:title=" ">
<path fill="none" stroke="#63b8ff" d="M584,-358.38C602.81,-333.69 642.13,-286.8 686.5,-261.54 689.54,-259.81 692.7,-258.2 695.95,-256.69"/>
<polygon fill="#63b8ff" stroke="#63b8ff" points="697.29,-259.93 705.16,-252.84 694.59,-253.47 697.29,-259.93"/>
</a>
</g>
</g>
<!-- Node20 -->
<g id="Node000020" class="node">
<title>Node20</title>
<g id="a_Node000020"><a xlink:href="../../d5/d72/classLSM1x0A__LoRaWAN.html#a4545d0caad41558cdb9bae8286b104d8" target="_top" xlink:title="Sets the delay for the Join2 receive window.">
<polygon fill="white" stroke="#666666" points="860,-202.54 706.75,-202.54 706.75,-170.54 860,-170.54 860,-202.54"/>
<text text-anchor="start" x="714.75" y="-189.04" font-family="Helvetica,sans-Serif" font-size="10.00">LSM1x0A_LoRaWAN::setJoin2</text>
<text text-anchor="middle" x="783.38" y="-177.04" font-family="Helvetica,sans-Serif" font-size="10.00">Delay</text>
</a>
</g>
</g>
<!-- Node12&#45;&gt;Node20 -->
<g id="edge33_Node000012_Node000020" class="edge">
<title>Node12&#45;&gt;Node20</title>
<g id="a_edge33_Node000012_Node000020"><a xlink:title=" ">
<path fill="none" stroke="#63b8ff" d="M578.97,-358.25C593.46,-325.21 630.88,-250.19 686.5,-211.54 689.54,-209.43 692.74,-207.5 696.06,-205.73"/>
<polygon fill="#63b8ff" stroke="#63b8ff" points="697.4,-208.97 704.95,-201.54 694.41,-202.64 697.4,-208.97"/>
</a>
</g>
</g>
<!-- Node21 -->
<g id="Node000021" class="node">
<title>Node21</title>
<g id="a_Node000021"><a xlink:href="../../d5/d72/classLSM1x0A__LoRaWAN.html#a06bd50723ec1eb7e144c9141b2ec86fc" target="_top" xlink:title="Sets the LoRaWAN Network ID (NetID).">
<polygon fill="white" stroke="#666666" points="863.75,-152.54 703,-152.54 703,-132.54 863.75,-132.54 863.75,-152.54"/>
<text text-anchor="middle" x="783.38" y="-139.04" font-family="Helvetica,sans-Serif" font-size="10.00">LSM1x0A_LoRaWAN::setNwkID</text>
</a>
</g>
</g>
<!-- Node12&#45;&gt;Node21 -->
<g id="edge35_Node000012_Node000021" class="edge">
<title>Node12&#45;&gt;Node21</title>
<g id="a_edge35_Node000012_Node000021"><a xlink:title=" ">
<path fill="none" stroke="#63b8ff" d="M575.96,-358.05C585.99,-317.48 617.69,-212.46 686.5,-161.54 688.49,-160.06 690.57,-158.7 692.72,-157.42"/>
<polygon fill="#63b8ff" stroke="#63b8ff" points="693.84,-160.78 701.18,-153.15 690.68,-154.54 693.84,-160.78"/>
</a>
</g>
</g>
<!-- Node22 -->
<g id="Node000022" class="node">
<title>Node22</title>
<g id="a_Node000022"><a xlink:href="../../d5/d72/classLSM1x0A__LoRaWAN.html#aa70ada64d28ecca216bb62268e502adf" target="_top" xlink:title="Sets the delay for the RX1 receive window.">
<polygon fill="white" stroke="#666666" points="870.12,-114.54 696.62,-114.54 696.62,-94.54 870.12,-94.54 870.12,-114.54"/>
<text text-anchor="middle" x="783.38" y="-101.04" font-family="Helvetica,sans-Serif" font-size="10.00">LSM1x0A_LoRaWAN::setRx1Delay</text>
</a>
</g>
</g>
<!-- Node12&#45;&gt;Node22 -->
<g id="edge37_Node000012_Node000022" class="edge">
<title>Node12&#45;&gt;Node22</title>
<g id="a_edge37_Node000012_Node000022"><a xlink:title=" ">
<path fill="none" stroke="#63b8ff" d="M574.51,-358.22C581.67,-313.03 608.23,-185.5 686.5,-123.54 687.83,-122.49 689.2,-121.49 690.61,-120.54"/>
<polygon fill="#63b8ff" stroke="#63b8ff" points="692.11,-123.71 699.08,-115.73 688.66,-117.62 692.11,-123.71"/>
</a>
</g>
</g>
<!-- Node23 -->
<g id="Node000023" class="node">
<title>Node23</title>
<g id="a_Node000023"><a xlink:href="../../d5/d72/classLSM1x0A__LoRaWAN.html#a2cf4eff0181b6107d082bccefa24217b" target="_top" xlink:title="Sets the Data Rate (DR) specifically for the RX2 window.">
<polygon fill="white" stroke="#666666" points="878.38,-76.54 688.38,-76.54 688.38,-56.54 878.38,-56.54 878.38,-76.54"/>
<text text-anchor="middle" x="783.38" y="-63.04" font-family="Helvetica,sans-Serif" font-size="10.00">LSM1x0A_LoRaWAN::setRx2DataRate</text>
</a>
</g>
</g>
<!-- Node12&#45;&gt;Node23 -->
<g id="edge39_Node000012_Node000023" class="edge">
<title>Node12&#45;&gt;Node23</title>
<g id="a_edge39_Node000012_Node000023"><a xlink:title=" ">
<path fill="none" stroke="#63b8ff" d="M573.43,-358.35C577.95,-308.91 598.65,-158.79 686.5,-85.54 687.64,-84.59 688.81,-83.69 690.01,-82.82"/>
<polygon fill="#63b8ff" stroke="#63b8ff" points="691.68,-85.9 698.44,-77.75 688.07,-79.9 691.68,-85.9"/>
</a>
</g>
</g>
<!-- Node24 -->
<g id="Node000024" class="node">
<title>Node24</title>
<g id="a_Node000024"><a xlink:href="../../d5/d72/classLSM1x0A__LoRaWAN.html#a42d2137b475b57e19d891a5f1ac93221" target="_top" xlink:title="Sets the delay for the RX2 receive window.">
<polygon fill="white" stroke="#666666" points="870.12,-38.54 696.62,-38.54 696.62,-18.54 870.12,-18.54 870.12,-38.54"/>
<text text-anchor="middle" x="783.38" y="-25.04" font-family="Helvetica,sans-Serif" font-size="10.00">LSM1x0A_LoRaWAN::setRx2Delay</text>
</a>
</g>
</g>
<!-- Node12&#45;&gt;Node24 -->
<g id="edge41_Node000012_Node000024" class="edge">
<title>Node12&#45;&gt;Node24</title>
<g id="a_edge41_Node000012_Node000024"><a xlink:title=" ">
<path fill="none" stroke="#63b8ff" d="M572.61,-358.22C574.71,-304.54 589.11,-132.13 686.5,-47.54 687.46,-46.71 688.45,-45.9 689.46,-45.13"/>
<polygon fill="#63b8ff" stroke="#63b8ff" points="691.27,-48.13 697.85,-39.82 687.53,-42.21 691.27,-48.13"/>
</a>
</g>
</g>
<!-- Node25 -->
<g id="Node000025" class="node">
<title>Node25</title>
<g id="a_Node000025"><a xlink:href="../../d5/d72/classLSM1x0A__LoRaWAN.html#a689f7dfda1dfeae11ea397c2ddf2ad37" target="_top" xlink:title="Sets the precise frequency for the RX2 window.">
<polygon fill="white" stroke="#666666" points="880.25,-668.54 686.5,-668.54 686.5,-648.54 880.25,-648.54 880.25,-668.54"/>
<text text-anchor="middle" x="783.38" y="-655.04" font-family="Helvetica,sans-Serif" font-size="10.00">LSM1x0A_LoRaWAN::setRx2Frequency</text>
</a>
</g>
</g>
<!-- Node12&#45;&gt;Node25 -->
<g id="edge43_Node000012_Node000025" class="edge">
<title>Node12&#45;&gt;Node25</title>
<g id="a_edge43_Node000012_Node000025"><a xlink:title=" ">
<path fill="none" stroke="#63b8ff" d="M574.06,-390.73C580.21,-437.45 604.67,-573.41 686.5,-639.54 687.82,-640.61 689.18,-641.62 690.58,-642.58"/>
<polygon fill="#63b8ff" stroke="#63b8ff" points="688.6,-645.48 699.01,-647.44 692.1,-639.41 688.6,-645.48"/>
</a>
</g>
</g>
<!-- Node26 -->
<g id="Node000026" class="node">
<title>Node26</title>
<g id="a_Node000026"><a xlink:href="../../d5/d72/classLSM1x0A__LoRaWAN.html#a1df10d7ae6bf45b537d28d3d5c4b88d7" target="_top" xlink:title="Sets the transmission power index.">
<polygon fill="white" stroke="#666666" points="867.88,-630.54 698.88,-630.54 698.88,-610.54 867.88,-610.54 867.88,-630.54"/>
<text text-anchor="middle" x="783.38" y="-617.04" font-family="Helvetica,sans-Serif" font-size="10.00">LSM1x0A_LoRaWAN::setTxPower</text>
</a>
</g>
</g>
<!-- Node12&#45;&gt;Node26 -->
<g id="edge45_Node000012_Node000026" class="edge">
<title>Node12&#45;&gt;Node26</title>
<g id="a_edge45_Node000012_Node000026"><a xlink:title=" ">
<path fill="none" stroke="#63b8ff" d="M575.34,-390.84C584.26,-433.07 614.15,-546.53 686.5,-601.54 688.03,-602.71 689.62,-603.8 691.25,-604.84"/>
<polygon fill="#63b8ff" stroke="#63b8ff" points="689.22,-607.73 699.68,-609.4 692.55,-601.57 689.22,-607.73"/>
</a>
</g>
</g>
<!-- Node27 -->
<g id="Node000027" class="node">
<title>Node27</title>
<g id="a_Node000027"><a xlink:href="../../d5/d72/classLSM1x0A__LoRaWAN.html#a059fd6a9356c4ecadd5a98294da5952d" target="_top" xlink:title="Configures the number of repetitions for Unconfirmed uplinks.">
<polygon fill="white" stroke="#666666" points="870.88,-592.54 695.88,-592.54 695.88,-560.54 870.88,-560.54 870.88,-592.54"/>
<text text-anchor="start" x="703.88" y="-579.04" font-family="Helvetica,sans-Serif" font-size="10.00">LSM1x0A_LoRaWAN::setUnconfirm</text>
<text text-anchor="middle" x="783.38" y="-567.04" font-family="Helvetica,sans-Serif" font-size="10.00">Retry</text>
</a>
</g>
</g>
<!-- Node12&#45;&gt;Node27 -->
<g id="edge47_Node000012_Node000027" class="edge">
<title>Node12&#45;&gt;Node27</title>
<g id="a_edge47_Node000012_Node000027"><a xlink:title=" ">
<path fill="none" stroke="#63b8ff" d="M578.05,-390.88C591.39,-426.01 627.68,-508.98 686.5,-551.54 688.08,-552.68 689.71,-553.78 691.38,-554.82"/>
<polygon fill="#63b8ff" stroke="#63b8ff" points="689.56,-557.81 700.01,-559.53 692.91,-551.67 689.56,-557.81"/>
</a>
</g>
</g>
<!-- Node13&#45;&gt;Node2 -->
<g id="edge18_Node000013_Node000002" class="edge">
<title>Node13&#45;&gt;Node2</title>
<g id="a_edge18_Node000013_Node000002"><a xlink:title=" ">
<path fill="none" stroke="#63b8ff" d="M707.3,-528.94C620.07,-523.32 472.43,-509.34 350,-475.54 334.79,-471.34 318.77,-465.04 304.63,-458.77"/>
<polygon fill="#63b8ff" stroke="#63b8ff" points="306.16,-455.62 295.61,-454.64 303.25,-461.98 306.16,-455.62"/>
</a>
</g>
</g>
<!-- Node14&#45;&gt;Node2 -->
<g id="edge20_Node000014_Node000002" class="edge">
<title>Node14&#45;&gt;Node2</title>
<g id="a_edge20_Node000014_Node000002"><a xlink:title=" ">
<path fill="none" stroke="#63b8ff" d="M706.7,-490.29C620.15,-484.82 474.34,-473.81 350,-455.54 342.04,-454.37 333.72,-452.94 325.51,-451.41"/>
<polygon fill="#63b8ff" stroke="#63b8ff" points="326.38,-448.01 315.9,-449.55 325.05,-454.89 326.38,-448.01"/>
</a>
</g>
</g>
<!-- Node15&#45;&gt;Node2 -->
<g id="edge23_Node000015_Node000002" class="edge">
<title>Node15&#45;&gt;Node2</title>
<g id="a_edge23_Node000015_Node000002"><a xlink:title=" ">
<path fill="none" stroke="#63b8ff" d="M700.85,-448.5C597.09,-445.91 420.03,-441.49 325.65,-439.13"/>
<polygon fill="#63b8ff" stroke="#63b8ff" points="325.88,-435.64 315.79,-438.88 325.7,-442.63 325.88,-435.64"/>
</a>
</g>
</g>
<!-- Node16&#45;&gt;Node2 -->
<g id="edge26_Node000016_Node000002" class="edge">
<title>Node16&#45;&gt;Node2</title>
<g id="a_edge26_Node000016_Node000002"><a xlink:title=" ">
<path fill="none" stroke="#63b8ff" d="M699,-411.51C594.97,-417.7 419.39,-428.17 325.58,-433.75"/>
<polygon fill="#63b8ff" stroke="#63b8ff" points="325.56,-430.25 315.79,-434.34 325.98,-437.24 325.56,-430.25"/>
</a>
</g>
</g>
<!-- Node17&#45;&gt;Node2 -->
<g id="edge28_Node000017_Node000002" class="edge">
<title>Node17&#45;&gt;Node2</title>
<g id="a_edge28_Node000017_Node000002"><a xlink:title=" ">
<path fill="none" stroke="#63b8ff" d="M700.42,-329.39C641.75,-330.14 561.22,-334.4 492,-349.54 424.72,-364.26 351.04,-395.3 305.66,-416.29"/>
<polygon fill="#63b8ff" stroke="#63b8ff" points="304.25,-413.08 296.68,-420.49 307.22,-419.42 304.25,-413.08"/>
</a>
</g>
</g>
<!-- Node18&#45;&gt;Node2 -->
<g id="edge30_Node000018_Node000002" class="edge">
<title>Node18&#45;&gt;Node2</title>
<g id="a_edge30_Node000018_Node000002"><a xlink:title=" ">
<path fill="none" stroke="#63b8ff" d="M707.66,-284.39C617.84,-284.83 464.85,-295.41 350,-354.54 322.72,-368.58 297.92,-393.63 281.65,-412.55"/>
<polygon fill="#63b8ff" stroke="#63b8ff" points="279.06,-410.18 275.34,-420.1 284.44,-414.67 279.06,-410.18"/>
</a>
</g>
</g>
<!-- Node19&#45;&gt;Node2 -->
<g id="edge32_Node000019_Node000002" class="edge">
<title>Node19&#45;&gt;Node2</title>
<g id="a_edge32_Node000019_Node000002"><a xlink:title=" ">
<path fill="none" stroke="#63b8ff" d="M706.63,-232.19C614.76,-230.6 458.72,-240.11 350,-311.54 312.83,-335.96 286.75,-382.01 273.08,-411.16"/>
<polygon fill="#63b8ff" stroke="#63b8ff" points="270,-409.49 269.08,-420.04 276.38,-412.37 270,-409.49"/>
</a>
</g>
</g>
<!-- Node20&#45;&gt;Node2 -->
<g id="edge34_Node000020_Node000002" class="edge">
<title>Node20&#45;&gt;Node2</title>
<g id="a_edge34_Node000020_Node000002"><a xlink:title=" ">
<path fill="none" stroke="#63b8ff" d="M706.5,-179.26C612.71,-174.44 452.9,-180.4 350,-261.54 301.74,-299.59 277.85,-371.07 267.91,-410.21"/>
<polygon fill="#63b8ff" stroke="#63b8ff" points="264.55,-409.23 265.62,-419.78 271.36,-410.87 264.55,-409.23"/>
</a>
</g>
</g>
<!-- Node21&#45;&gt;Node2 -->
<g id="edge36_Node000021_Node000002" class="edge">
<title>Node21&#45;&gt;Node2</title>
<g id="a_edge36_Node000021_Node000002"><a xlink:title=" ">
<path fill="none" stroke="#63b8ff" d="M718.13,-132.06C625.4,-120.8 453.81,-114.98 350,-203.54 287.14,-257.16 269.11,-360.43 263.99,-409.86"/>
<polygon fill="#63b8ff" stroke="#63b8ff" points="260.52,-409.42 263.09,-419.7 267.49,-410.06 260.52,-409.42"/>
</a>
</g>
</g>
<!-- Node22&#45;&gt;Node2 -->
<g id="edge38_Node000022_Node000002" class="edge">
<title>Node22&#45;&gt;Node2</title>
<g id="a_edge38_Node000022_Node000002"><a xlink:title=" ">
<path fill="none" stroke="#63b8ff" d="M696.23,-100.99C585.01,-98.31 399.81,-100.87 350,-144.54 270.96,-213.84 261.53,-351.12 261.33,-409.84"/>
<polygon fill="#63b8ff" stroke="#63b8ff" points="257.83,-409.64 261.39,-419.61 264.83,-409.59 257.83,-409.64"/>
</a>
</g>
</g>
<!-- Node23&#45;&gt;Node2 -->
<g id="edge40_Node000023_Node000002" class="edge">
<title>Node23&#45;&gt;Node2</title>
<g id="a_edge40_Node000023_Node000002"><a xlink:title=" ">
<path fill="none" stroke="#63b8ff" d="M688.29,-63.1C576.64,-61.05 399.38,-64.82 350,-106.54 302.99,-146.27 274.46,-338.21 265.27,-410.19"/>
<polygon fill="#63b8ff" stroke="#63b8ff" points="261.82,-409.57 264.05,-419.93 268.76,-410.44 261.82,-409.57"/>
</a>
</g>
</g>
<!-- Node24&#45;&gt;Node2 -->
<g id="edge42_Node000024_Node000002" class="edge">
<title>Node24&#45;&gt;Node2</title>
<g id="a_edge42_Node000024_Node000002"><a xlink:title=" ">
<path fill="none" stroke="#63b8ff" d="M739.66,-18.06C654.26,0.14 461.14,27.01 350,-69.54 297.99,-114.73 272.13,-332.97 264.48,-410.3"/>
<polygon fill="#63b8ff" stroke="#63b8ff" points="261.03,-409.66 263.56,-419.95 268,-410.33 261.03,-409.66"/>
</a>
</g>
</g>
<!-- Node25&#45;&gt;Node2 -->
<g id="edge44_Node000025_Node000002" class="edge">
<title>Node25&#45;&gt;Node2</title>
<g id="a_edge44_Node000025_Node000002"><a xlink:title=" ">
<path fill="none" stroke="#63b8ff" d="M686.17,-661.86C591.41,-660.23 447.14,-644.06 350,-569.54 313.57,-541.59 287.27,-494.07 273.35,-464.32"/>
<polygon fill="#63b8ff" stroke="#63b8ff" points="276.56,-462.91 269.26,-455.24 270.18,-465.8 276.56,-462.91"/>
</a>
</g>
</g>
<!-- Node26&#45;&gt;Node2 -->
<g id="edge46_Node000026_Node000002" class="edge">
<title>Node26&#45;&gt;Node2</title>
<g id="a_edge46_Node000026_Node000002"><a xlink:title=" ">
<path fill="none" stroke="#63b8ff" d="M698.68,-619.98C606.87,-615.8 458.19,-598.26 350,-532.54 320.84,-514.83 295.33,-484.73 279.39,-463.16"/>
<polygon fill="#63b8ff" stroke="#63b8ff" points="282.31,-461.23 273.64,-455.15 276.63,-465.31 282.31,-461.23"/>
</a>
</g>
</g>
<!-- Node27&#45;&gt;Node2 -->
<g id="edge48_Node000027_Node000002" class="edge">
<title>Node27&#45;&gt;Node2</title>
<g id="a_edge48_Node000027_Node000002"><a xlink:title=" ">
<path fill="none" stroke="#63b8ff" d="M695.72,-573.11C605.93,-566.9 463.16,-549.46 350,-500.54 327.44,-490.79 304.97,-474.56 288.38,-461.02"/>
<polygon fill="#63b8ff" stroke="#63b8ff" points="290.87,-458.54 280.96,-454.8 286.37,-463.91 290.87,-458.54"/>
</a>
</g>
</g>
<!-- Node29&#45;&gt;Node30 -->
<g id="edge51_Node000029_Node000030" class="edge">
<title>Node29&#45;&gt;Node30</title>
<g id="a_edge51_Node000029_Node000030"><a xlink:title=" ">
<path fill="none" stroke="#63b8ff" d="M621.51,-750.13C657.64,-738.1 706.15,-721.93 740.43,-710.52"/>
<polygon fill="#63b8ff" stroke="#63b8ff" points="741.2,-713.95 749.59,-707.46 738.99,-707.3 741.2,-713.95"/>
</a>
</g>
</g>
<!-- Node31 -->
<g id="Node000031" class="node">
<title>Node31</title>
<g id="a_Node000031"><a xlink:href="../../d6/d3c/classLSM1x0A__AtParser.html#a0ba6f927c54fceece22c17773d3f2600" target="_top" xlink:title="Sends a command and extracts a value from the response.">
<polygon fill="white" stroke="#666666" points="1098.38,-712.54 924.12,-712.54 924.12,-680.54 1098.38,-680.54 1098.38,-712.54"/>
<text text-anchor="start" x="932.12" y="-699.04" font-family="Helvetica,sans-Serif" font-size="10.00">LSM1x0A_AtParser::sendCommand</text>
<text text-anchor="middle" x="1011.25" y="-687.04" font-family="Helvetica,sans-Serif" font-size="10.00">WithResponse</text>
</a>
</g>
</g>
<!-- Node30&#45;&gt;Node31 -->
<g id="edge52_Node000030_Node000031" class="edge">
<title>Node30&#45;&gt;Node31</title>
<g id="a_edge52_Node000030_Node000031"><a xlink:title=" ">
<path fill="none" stroke="#63b8ff" d="M870.74,-696.54C884.49,-696.54 898.81,-696.54 912.8,-696.54"/>
<polygon fill="#63b8ff" stroke="#63b8ff" points="912.42,-700.04 922.42,-696.54 912.42,-693.04 912.42,-700.04"/>
</a>
</g>
</g>
<!-- Node32 -->
<g id="Node000032" class="node">
<title>Node32</title>
<g id="a_Node000032"><a xlink:href="../../d5/d8b/classUartDriver.html#a5d0f22e8867eebe99273078bb19bd23d" target="_top" xlink:title="Sends data through UART.">
<polygon fill="white" stroke="#666666" points="1273,-706.54 1164,-706.54 1164,-686.54 1273,-686.54 1273,-706.54"/>
<text text-anchor="middle" x="1218.5" y="-693.04" font-family="Helvetica,sans-Serif" font-size="10.00">UartDriver::sendData</text>
</a>
</g>
</g>
<!-- Node31&#45;&gt;Node32 -->
<g id="edge53_Node000031_Node000032" class="edge">
<title>Node31&#45;&gt;Node32</title>
<g id="a_edge53_Node000031_Node000032"><a xlink:title=" ">
<path fill="none" stroke="#63b8ff" d="M1098.7,-696.54C1116.59,-696.54 1135.16,-696.54 1152.14,-696.54"/>
<polygon fill="#63b8ff" stroke="#63b8ff" points="1152.11,-700.04 1162.11,-696.54 1152.11,-693.04 1152.11,-700.04"/>
</a>
</g>
</g>
</g>
</svg>

<g id="navigator" transform="translate(0 0)" fill="#404254">
  <rect fill="#f2f5e9" fill-opacity="0.5" stroke="#606060" stroke-width=".5" x="0" y="0" width="60" height="60"/>
  <use id="zoomplus" xlink:href="#zoomPlus" x="17" y="9" onmousedown="handleZoom(evt,'in')"/>
  <use id="zoomminus" xlink:href="#zoomMin" x="42" y="9" onmousedown="handleZoom(evt,'out')"/>
  <use id="reset" xlink:href="#resetDef" x="30" y="36" onmousedown="handleReset()"/>
   <use id="arrowup" xlink:href="#arrowUp" x="0" y="0" onmousedown="handlePan(0,-1)"/>
  <use id="arrowright" xlink:href="#arrowRight" x="0" y="0" onmousedown="handlePan(1,0)"/>
  <use id="arrowdown" xlink:href="#arrowDown" x="0" y="0" onmousedown="handlePan(0,1)"/>
  <use id="arrowleft" xlink:href="#arrowLeft" x="0" y="0" onmousedown="handlePan(-1,0)"/>
</g>
<svg viewBox="0 0 15 15" width="100%" height="30px" preserveAspectRatio="xMaxYMin meet">
 <g id="arrow_out" transform="scale(0.3 0.3)">
  <a xlink:href="classLSM1x0A__LoRaWAN_a56345ceeafa0b9059d6de4e69eddc82e_cgraph_org.svg" target="_base">
   <rect id="button" ry="5" rx="5" y="6" x="6" height="38" width="38"
        fill="#f2f5e9" fill-opacity="0.5" stroke="#606060" stroke-width="1.0"/>
   <path id="arrow"
     d="M 11.500037,31.436501 C 11.940474,20.09759 22.043105,11.32322 32.158766,21.979434 L 37.068811,17.246167 C 37.068811,17.246167 37.088388,32 37.088388,32 L 22.160133,31.978069 C 22.160133,31.978069 26.997745,27.140456 26.997745,27.140456 C 18.528582,18.264221 13.291696,25.230495 11.500037,31.436501 z"
     style="fill:#404040;"/>
  </a>
 </g>
</svg>

<style type='text/css'>
<![CDATA[
[data-mouse-over-selected='false'] { opacity: 0.7; }
[data-mouse-over-selected='true']  { opacity: 1.0; }
]]>
</style>
<script type="application/ecmascript"><![CDATA[
document.addEventListener('DOMContentLoaded', (event) => {
  highlightEdges();
  highlightAdjacentNodes();
});
]]></script>
</svg>
