<?xml version="1.0" encoding="UTF-8" standalone="no"?>
<!DOCTYPE svg PUBLIC "-//W3C//DTD SVG 1.1//EN"
 "http://www.w3.org/Graphics/SVG/1.1/DTD/svg11.dtd">
<!-- Generated by graphviz version 12.2.1 (20241206.2353)
 -->
<!-- Title: LSM1x0A_LoRaWAN::setPingSlot Pages: 1 -->
<svg width="1298pt" height="1143pt"
 viewBox="0.00 0.00 1297.50 1143.11" xmlns="http://www.w3.org/2000/svg" xmlns:xlink="http://www.w3.org/1999/xlink">
<g id="graph0" class="graph" transform="scale(1 1) rotate(0) translate(4 1139.11)">
<title>LSM1x0A_LoRaWAN::setPingSlot</title>
<!-- Node1 -->
<g id="Node000001" class="node">
<title>Node1</title>
<g id="a_Node000001"><a xlink:title="Configures the Ping Slot periodicity (Class B / Custom usage).">
<polygon fill="#999999" stroke="#666666" points="166.75,-490.95 0,-490.95 0,-470.95 166.75,-470.95 166.75,-490.95"/>
<text text-anchor="middle" x="83.38" y="-477.45" font-family="Helvetica,sans-Serif" font-size="10.00">LSM1x0A_LoRaWAN::setPingSlot</text>
</a>
</g>
</g>
<!-- Node2 -->
<g id="Node000002" class="node">
<title>Node2</title>
<g id="a_Node000002"><a xlink:href="../../d8/d92/classLSM1x0A__Controller.html#afd7d92e60ed6fdae696a955cdbe0ed8c" target="_top" xlink:title="Sends any AT command to the module, returning error if it fails. Internally uses the LsmAtParser logi...">
<polygon fill="white" stroke="#666666" points="308.75,-496.95 202.75,-496.95 202.75,-464.95 308.75,-464.95 308.75,-496.95"/>
<text text-anchor="start" x="210.75" y="-483.45" font-family="Helvetica,sans-Serif" font-size="10.00">LSM1x0A_Controller</text>
<text text-anchor="middle" x="255.75" y="-471.45" font-family="Helvetica,sans-Serif" font-size="10.00">::sendCommand</text>
</a>
</g>
</g>
<!-- Node1&#45;&gt;Node2 -->
<g id="edge1_Node000001_Node000002" class="edge">
<title>Node1&#45;&gt;Node2</title>
<g id="a_edge1_Node000001_Node000002"><a xlink:title=" ">
<path fill="none" stroke="#63b8ff" d="M167.07,-480.95C175.16,-480.95 183.27,-480.95 191.13,-480.95"/>
<polygon fill="#63b8ff" stroke="#63b8ff" points="190.91,-484.45 200.91,-480.95 190.91,-477.45 190.91,-484.45"/>
</a>
</g>
</g>
<!-- Node3 -->
<g id="Node000003" class="node">
<title>Node3</title>
<g id="a_Node000003"><a xlink:href="../../d8/d92/classLSM1x0A__Controller.html#abb0eb380daa3dfb7acffb483c5db8e2b" target="_top" xlink:title="Executes the recovery protocol. First Soft&#45;Reset (ATZ), then Hard&#45;Reset if there is a pin.">
<polygon fill="white" stroke="#666666" points="450.75,-938.95 344.75,-938.95 344.75,-906.95 450.75,-906.95 450.75,-938.95"/>
<text text-anchor="start" x="352.75" y="-925.45" font-family="Helvetica,sans-Serif" font-size="10.00">LSM1x0A_Controller</text>
<text text-anchor="middle" x="397.75" y="-913.45" font-family="Helvetica,sans-Serif" font-size="10.00">::recoverModule</text>
</a>
</g>
</g>
<!-- Node2&#45;&gt;Node3 -->
<g id="edge2_Node000002_Node000003" class="edge">
<title>Node2&#45;&gt;Node3</title>
<g id="a_edge2_Node000002_Node000003"><a xlink:title=" ">
<path fill="none" stroke="#63b8ff" d="M260.3,-497.39C270.86,-545.46 303.91,-689.56 344.75,-804.95 356.1,-837.01 372.29,-872.58 383.58,-896.2"/>
<polygon fill="#63b8ff" stroke="#63b8ff" points="380.38,-897.62 387.88,-905.1 386.68,-894.57 380.38,-897.62"/>
</a>
</g>
</g>
<!-- Node31 -->
<g id="Node000031" class="node">
<title>Node31</title>
<g id="a_Node000031"><a xlink:href="../../d6/d3c/classLSM1x0A__AtParser.html#a29b53c521974387ba6c03afadfaffa4a" target="_top" xlink:title="Sends a simple command and waits for OK/ERROR. Example: sendCommand(&quot;AT+JOIN&quot;);.">
<polygon fill="white" stroke="#666666" points="865.25,-1118.95 691,-1118.95 691,-1098.95 865.25,-1098.95 865.25,-1118.95"/>
<text text-anchor="middle" x="778.12" y="-1105.45" font-family="Helvetica,sans-Serif" font-size="10.00">LSM1x0A_AtParser::sendCommand</text>
</a>
</g>
</g>
<!-- Node2&#45;&gt;Node31 -->
<g id="edge55_Node000002_Node000031" class="edge">
<title>Node2&#45;&gt;Node31</title>
<g id="a_edge55_Node000002_Node000031"><a xlink:title=" ">
<path fill="none" stroke="#63b8ff" d="M256.81,-497.2C257.63,-559.15 266.17,-785.25 344.75,-947.95 386.68,-1034.77 399.06,-1071.88 486.75,-1111.95 564.51,-1147.48 666.66,-1134.62 726.77,-1121.89"/>
<polygon fill="#63b8ff" stroke="#63b8ff" points="727.36,-1125.34 736.37,-1119.77 725.85,-1118.51 727.36,-1125.34"/>
</a>
</g>
</g>
<!-- Node4 -->
<g id="Node000004" class="node">
<title>Node4</title>
<g id="a_Node000004"><a xlink:href="../../d8/d92/classLSM1x0A__Controller.html#a3f6f25b843fe4fb7042c544deae2ab16" target="_top" xlink:title="Manually clears bits from the internal EventGroup.">
<polygon fill="white" stroke="#666666" points="1059,-957.95 953,-957.95 953,-925.95 1059,-925.95 1059,-957.95"/>
<text text-anchor="start" x="961" y="-944.45" font-family="Helvetica,sans-Serif" font-size="10.00">LSM1x0A_Controller</text>
<text text-anchor="middle" x="1006" y="-932.45" font-family="Helvetica,sans-Serif" font-size="10.00">::clearEvents</text>
</a>
</g>
</g>
<!-- Node3&#45;&gt;Node4 -->
<g id="edge3_Node000003_Node000004" class="edge">
<title>Node3&#45;&gt;Node4</title>
<g id="a_edge3_Node000003_Node000004"><a xlink:title=" ">
<path fill="none" stroke="#63b8ff" d="M414.83,-939.29C431.25,-954.72 458.31,-976.82 486.75,-985.95 646.32,-1037.18 846.91,-991 945.18,-961.72"/>
<polygon fill="#63b8ff" stroke="#63b8ff" points="946.07,-965.11 954.62,-958.86 944.04,-958.41 946.07,-965.11"/>
</a>
</g>
</g>
<!-- Node5 -->
<g id="Node000005" class="node">
<title>Node5</title>
<g id="a_Node000005"><a xlink:href="../../d8/d92/classLSM1x0A__Controller.html#a345d4bd79fa16b18dc33a4ca788fe5f7" target="_top" xlink:title="Performs a hardware reset using the reset pin.">
<polygon fill="white" stroke="#666666" points="619,-938.95 513,-938.95 513,-906.95 619,-906.95 619,-938.95"/>
<text text-anchor="start" x="521" y="-925.45" font-family="Helvetica,sans-Serif" font-size="10.00">LSM1x0A_Controller</text>
<text text-anchor="middle" x="566" y="-913.45" font-family="Helvetica,sans-Serif" font-size="10.00">::hardwareReset</text>
</a>
</g>
</g>
<!-- Node3&#45;&gt;Node5 -->
<g id="edge4_Node000003_Node000005" class="edge">
<title>Node3&#45;&gt;Node5</title>
<g id="a_edge4_Node000003_Node000005"><a xlink:title=" ">
<path fill="none" stroke="#63b8ff" d="M450.9,-922.95C466.91,-922.95 484.72,-922.95 501.41,-922.95"/>
<polygon fill="#63b8ff" stroke="#63b8ff" points="501.24,-926.45 511.24,-922.95 501.24,-919.45 501.24,-926.45"/>
</a>
</g>
</g>
<!-- Node7 -->
<g id="Node000007" class="node">
<title>Node7</title>
<g id="a_Node000007"><a xlink:href="../../d5/d72/classLSM1x0A__LoRaWAN.html#a1892801e37c8cd67d37c76108d6f7d49" target="_top" xlink:title="Validates if the device is currently Joined to the network. (Either confirmed by OTAA or statically a...">
<polygon fill="white" stroke="#666666" points="1289.5,-926.95 1137,-926.95 1137,-906.95 1289.5,-906.95 1289.5,-926.95"/>
<text text-anchor="middle" x="1213.25" y="-913.45" font-family="Helvetica,sans-Serif" font-size="10.00">LSM1x0A_LoRaWAN::isJoined</text>
</a>
</g>
</g>
<!-- Node3&#45;&gt;Node7 -->
<g id="edge6_Node000003_Node000007" class="edge">
<title>Node3&#45;&gt;Node7</title>
<g id="a_edge6_Node000003_Node000007"><a xlink:title=" ">
<path fill="none" stroke="#63b8ff" d="M444.69,-939.25C446.83,-940.7 448.86,-942.26 450.75,-943.95 475.92,-966.51 457.74,-993.6 486.75,-1010.95 497.45,-1017.34 812.91,-1014.94 875,-1008.95 976.69,-999.13 1003.49,-997.44 1101,-966.95 1129.83,-957.93 1161.08,-943.44 1183.09,-932.37"/>
<polygon fill="#63b8ff" stroke="#63b8ff" points="1184.45,-935.61 1191.76,-927.94 1181.26,-929.38 1184.45,-935.61"/>
</a>
</g>
</g>
<!-- Node8 -->
<g id="Node000008" class="node">
<title>Node8</title>
<g id="a_Node000008"><a xlink:href="../../d5/d72/classLSM1x0A__LoRaWAN.html#a83e11c0e74ff9e0757db616ab1163424" target="_top" xlink:title="Attempts to recover a lost connection (re&#45;executes OTAA Join if dropped).">
<polygon fill="white" stroke="#666666" points="640.38,-850.95 491.62,-850.95 491.62,-818.95 640.38,-818.95 640.38,-850.95"/>
<text text-anchor="start" x="499.62" y="-837.45" font-family="Helvetica,sans-Serif" font-size="10.00">LSM1x0A_LoRaWAN::recover</text>
<text text-anchor="middle" x="566" y="-825.45" font-family="Helvetica,sans-Serif" font-size="10.00">Connection</text>
</a>
</g>
</g>
<!-- Node3&#45;&gt;Node8 -->
<g id="edge7_Node000003_Node000008" class="edge">
<title>Node3&#45;&gt;Node8</title>
<g id="a_edge7_Node000003_Node000008"><a xlink:title=" ">
<path fill="none" stroke="#63b8ff" d="M420.72,-906.53C438.05,-894.07 463.15,-877.07 486.75,-864.95 493.04,-861.72 499.75,-858.64 506.51,-855.76"/>
<polygon fill="#63b8ff" stroke="#63b8ff" points="507.78,-859.02 515.71,-851.99 505.13,-852.55 507.78,-859.02"/>
</a>
</g>
</g>
<!-- Node12 -->
<g id="Node000012" class="node">
<title>Node12</title>
<g id="a_Node000012"><a xlink:href="../../d5/d72/classLSM1x0A__LoRaWAN.html#ae3be4ce59dfa200369733317df356e97" target="_top" xlink:title="Pushes the RAM&#45;cached variables back down into the hardware module. Restores the operational state af...">
<polygon fill="white" stroke="#666666" points="639.25,-496.95 492.75,-496.95 492.75,-464.95 639.25,-464.95 639.25,-496.95"/>
<text text-anchor="start" x="500.75" y="-483.45" font-family="Helvetica,sans-Serif" font-size="10.00">LSM1x0A_LoRaWAN::restore</text>
<text text-anchor="middle" x="566" y="-471.45" font-family="Helvetica,sans-Serif" font-size="10.00">Config</text>
</a>
</g>
</g>
<!-- Node3&#45;&gt;Node12 -->
<g id="edge16_Node000003_Node000012" class="edge">
<title>Node3&#45;&gt;Node12</title>
<g id="a_edge16_Node000003_Node000012"><a xlink:title=" ">
<path fill="none" stroke="#63b8ff" d="M404.86,-906.69C429.76,-840.5 523.67,-590.84 554.86,-507.91"/>
<polygon fill="#63b8ff" stroke="#63b8ff" points="558.05,-509.36 558.3,-498.77 551.5,-506.9 558.05,-509.36"/>
</a>
</g>
</g>
<!-- Node29 -->
<g id="Node000029" class="node">
<title>Node29</title>
<g id="a_Node000029"><a xlink:href="../../d5/d72/classLSM1x0A__LoRaWAN.html#ace4b04396f1de1f4a54f513f5f378db7" target="_top" xlink:title="Manually overrides the internal joined state tracker.">
<polygon fill="white" stroke="#666666" points="645.25,-976.95 486.75,-976.95 486.75,-956.95 645.25,-956.95 645.25,-976.95"/>
<text text-anchor="middle" x="566" y="-963.45" font-family="Helvetica,sans-Serif" font-size="10.00">LSM1x0A_LoRaWAN::setJoined</text>
</a>
</g>
</g>
<!-- Node3&#45;&gt;Node29 -->
<g id="edge50_Node000003_Node000029" class="edge">
<title>Node3&#45;&gt;Node29</title>
<g id="a_edge50_Node000003_Node000029"><a xlink:title=" ">
<path fill="none" stroke="#63b8ff" d="M451.24,-938.22C462.91,-941.51 475.23,-944.91 486.75,-947.95 494.11,-949.89 501.87,-951.86 509.54,-953.76"/>
<polygon fill="#63b8ff" stroke="#63b8ff" points="508.63,-957.14 519.18,-956.13 510.3,-950.35 508.63,-957.14"/>
</a>
</g>
</g>
<!-- Node30 -->
<g id="Node000030" class="node">
<title>Node30</title>
<g id="a_Node000030"><a xlink:href="../../d8/d92/classLSM1x0A__Controller.html#a11ad21cb5ca33ec51346764a23bd485e" target="_top" xlink:title="Performs a software reset (ATZ Command).">
<polygon fill="white" stroke="#666666" points="619,-1102.95 513,-1102.95 513,-1070.95 619,-1070.95 619,-1102.95"/>
<text text-anchor="start" x="521" y="-1089.45" font-family="Helvetica,sans-Serif" font-size="10.00">LSM1x0A_Controller</text>
<text text-anchor="middle" x="566" y="-1077.45" font-family="Helvetica,sans-Serif" font-size="10.00">::softwareReset</text>
</a>
</g>
</g>
<!-- Node3&#45;&gt;Node30 -->
<g id="edge51_Node000003_Node000030" class="edge">
<title>Node3&#45;&gt;Node30</title>
<g id="a_edge51_Node000003_Node000030"><a xlink:title=" ">
<path fill="none" stroke="#63b8ff" d="M405.45,-939.34C417.64,-967.25 446,-1024.13 486.75,-1056.95 491.57,-1060.83 496.94,-1064.24 502.55,-1067.25"/>
<polygon fill="#63b8ff" stroke="#63b8ff" points="500.96,-1070.36 511.48,-1071.55 504,-1064.06 500.96,-1070.36"/>
</a>
</g>
</g>
<!-- Node6 -->
<g id="Node000006" class="node">
<title>Node6</title>
<g id="a_Node000006"><a xlink:href="../../d6/d3c/classLSM1x0A__AtParser.html#ad2839120da13e56132b95019419be1e5" target="_top" xlink:title="Waits for an event (like BOOTALERT) without sending any command. Useful for hardware reset where the ...">
<polygon fill="white" stroke="#666666" points="848.38,-938.95 707.88,-938.95 707.88,-906.95 848.38,-906.95 848.38,-938.95"/>
<text text-anchor="start" x="715.88" y="-925.45" font-family="Helvetica,sans-Serif" font-size="10.00">LSM1x0A_AtParser::waitFor</text>
<text text-anchor="middle" x="778.12" y="-913.45" font-family="Helvetica,sans-Serif" font-size="10.00">Event</text>
</a>
</g>
</g>
<!-- Node5&#45;&gt;Node6 -->
<g id="edge5_Node000005_Node000006" class="edge">
<title>Node5&#45;&gt;Node6</title>
<g id="a_edge5_Node000005_Node000006"><a xlink:title=" ">
<path fill="none" stroke="#63b8ff" d="M619.48,-922.95C642.67,-922.95 670.47,-922.95 696.21,-922.95"/>
<polygon fill="#63b8ff" stroke="#63b8ff" points="695.97,-926.45 705.97,-922.95 695.97,-919.45 695.97,-926.45"/>
</a>
</g>
</g>
<!-- Node9 -->
<g id="Node000009" class="node">
<title>Node9</title>
<g id="a_Node000009"><a xlink:href="../../d5/d72/classLSM1x0A__LoRaWAN.html#a59f781f3cfd30c11cd3973bcb10a7baa" target="_top" xlink:title="Initiates a LoRaWAN Network Join procedure. This is a blocking function until the module fires an eve...">
<polygon fill="white" stroke="#666666" points="843.88,-844.95 712.38,-844.95 712.38,-824.95 843.88,-824.95 843.88,-844.95"/>
<text text-anchor="middle" x="778.12" y="-831.45" font-family="Helvetica,sans-Serif" font-size="10.00">LSM1x0A_LoRaWAN::join</text>
</a>
</g>
</g>
<!-- Node8&#45;&gt;Node9 -->
<g id="edge8_Node000008_Node000009" class="edge">
<title>Node8&#45;&gt;Node9</title>
<g id="a_edge8_Node000008_Node000009"><a xlink:title=" ">
<path fill="none" stroke="#63b8ff" d="M640.79,-834.95C660.16,-834.95 681.1,-834.95 700.61,-834.95"/>
<polygon fill="#63b8ff" stroke="#63b8ff" points="700.4,-838.45 710.4,-834.95 700.4,-831.45 700.4,-838.45"/>
</a>
</g>
</g>
<!-- Node9&#45;&gt;Node2 -->
<g id="edge11_Node000009_Node000002" class="edge">
<title>Node9&#45;&gt;Node2</title>
<g id="a_edge11_Node000009_Node000002"><a xlink:title=" ">
<path fill="none" stroke="#63b8ff" d="M723.9,-824.5C665.27,-812.53 568.48,-791.38 486.75,-766.95 422.36,-747.69 392.48,-762.27 344.75,-714.95 286.48,-657.18 266.28,-557.13 259.7,-508.74"/>
<polygon fill="#63b8ff" stroke="#63b8ff" points="263.18,-508.33 258.47,-498.84 256.23,-509.2 263.18,-508.33"/>
</a>
</g>
</g>
<!-- Node9&#45;&gt;Node3 -->
<g id="edge10_Node000009_Node000003" class="edge">
<title>Node9&#45;&gt;Node3</title>
<g id="a_edge10_Node000009_Node000003"><a xlink:title=" ">
<path fill="none" stroke="#63b8ff" d="M723.9,-845.44C665.49,-857.21 569.07,-877.35 486.75,-897.95 478.81,-899.94 470.49,-902.14 462.28,-904.39"/>
<polygon fill="#63b8ff" stroke="#63b8ff" points="461.34,-901.01 452.65,-907.06 463.22,-907.76 461.34,-901.01"/>
</a>
</g>
</g>
<!-- Node9&#45;&gt;Node4 -->
<g id="edge9_Node000009_Node000004" class="edge">
<title>Node9&#45;&gt;Node4</title>
<g id="a_edge9_Node000009_Node000004"><a xlink:title=" ">
<path fill="none" stroke="#63b8ff" d="M801.19,-845.4C837.91,-862.79 912.23,-898 960.26,-920.75"/>
<polygon fill="#63b8ff" stroke="#63b8ff" points="958.47,-923.78 969.01,-924.9 961.47,-917.45 958.47,-923.78"/>
</a>
</g>
</g>
<!-- Node10 -->
<g id="Node000010" class="node">
<title>Node10</title>
<g id="a_Node000010"><a xlink:href="../../d5/d72/classLSM1x0A__LoRaWAN.html#a3fdd1ac318a5ad2559323e5d57e36a5e" target="_top" xlink:title="Enables or disables specific sub&#45;bands for regions supporting Channel Masks (e.g.,...">
<polygon fill="white" stroke="#666666" points="1101,-654.95 911,-654.95 911,-634.95 1101,-634.95 1101,-654.95"/>
<text text-anchor="middle" x="1006" y="-641.45" font-family="Helvetica,sans-Serif" font-size="10.00">LSM1x0A_LoRaWAN::setChannelMask</text>
</a>
</g>
</g>
<!-- Node9&#45;&gt;Node10 -->
<g id="edge12_Node000009_Node000010" class="edge">
<title>Node9&#45;&gt;Node10</title>
<g id="a_edge12_Node000009_Node000010"><a xlink:title=" ">
<path fill="none" stroke="#63b8ff" d="M838.43,-824.45C851.15,-820.55 864.05,-815.22 875,-807.95 931.87,-770.19 975.5,-699.61 994.54,-665.05"/>
<polygon fill="#63b8ff" stroke="#63b8ff" points="997.47,-666.98 999.12,-656.52 991.3,-663.67 997.47,-666.98"/>
</a>
</g>
</g>
<!-- Node11 -->
<g id="Node000011" class="node">
<title>Node11</title>
<g id="a_Node000011"><a xlink:href="../../d8/d92/classLSM1x0A__Controller.html#a62476e30e50c7fe120aeb8df4b828675" target="_top" xlink:title="Synchronously/blockingly waits for an asynchronous event to occur. Useful for wrapping commands like ...">
<polygon fill="white" stroke="#666666" points="1059,-850.95 953,-850.95 953,-818.95 1059,-818.95 1059,-850.95"/>
<text text-anchor="start" x="961" y="-837.45" font-family="Helvetica,sans-Serif" font-size="10.00">LSM1x0A_Controller</text>
<text text-anchor="middle" x="1006" y="-825.45" font-family="Helvetica,sans-Serif" font-size="10.00">::waitForEvent</text>
</a>
</g>
</g>
<!-- Node9&#45;&gt;Node11 -->
<g id="edge15_Node000009_Node000011" class="edge">
<title>Node9&#45;&gt;Node11</title>
<g id="a_edge15_Node000009_Node000011"><a xlink:title=" ">
<path fill="none" stroke="#63b8ff" d="M844.15,-834.95C874.66,-834.95 910.9,-834.95 941.24,-834.95"/>
<polygon fill="#63b8ff" stroke="#63b8ff" points="941.05,-838.45 951.05,-834.95 941.05,-831.45 941.05,-838.45"/>
</a>
</g>
</g>
<!-- Node10&#45;&gt;Node2 -->
<g id="edge14_Node000010_Node000002" class="edge">
<title>Node10&#45;&gt;Node2</title>
<g id="a_edge14_Node000010_Node000002"><a xlink:title=" ">
<path fill="none" stroke="#63b8ff" d="M1004.22,-634.73C998.77,-566.01 963.85,-172.04 875,-101.95 689.84,44.11 525.9,29.06 344.75,-121.95 293.17,-164.95 267.11,-377.61 259.32,-453.76"/>
<polygon fill="#63b8ff" stroke="#63b8ff" points="255.88,-452.96 258.37,-463.26 262.84,-453.65 255.88,-452.96"/>
</a>
</g>
</g>
<!-- Node10&#45;&gt;Node7 -->
<g id="edge13_Node000010_Node000007" class="edge">
<title>Node10&#45;&gt;Node7</title>
<g id="a_edge13_Node000010_Node000007"><a xlink:title=" ">
<path fill="none" stroke="#63b8ff" d="M1014.8,-655.28C1045.34,-695.76 1157.17,-843.95 1197.57,-897.49"/>
<polygon fill="#63b8ff" stroke="#63b8ff" points="1194.72,-899.52 1203.54,-905.4 1200.31,-895.31 1194.72,-899.52"/>
</a>
</g>
</g>
<!-- Node12&#45;&gt;Node10 -->
<g id="edge21_Node000012_Node000010" class="edge">
<title>Node12&#45;&gt;Node10</title>
<g id="a_edge21_Node000012_Node000010"><a xlink:title=" ">
<path fill="none" stroke="#63b8ff" d="M639.49,-484.29C717.15,-488.81 834.68,-498.64 875,-517.95 926.93,-542.82 970.88,-596.76 991.84,-625.7"/>
<polygon fill="#63b8ff" stroke="#63b8ff" points="988.77,-627.41 997.4,-633.56 994.49,-623.37 988.77,-627.41"/>
</a>
</g>
</g>
<!-- Node13 -->
<g id="Node000013" class="node">
<title>Node13</title>
<g id="a_Node000013"><a xlink:href="../../d5/d72/classLSM1x0A__LoRaWAN.html#af0baa3db4c7fab580d6b19a9e92472f6" target="_top" xlink:title="Enables or disables Adaptive Data Rate (ADR).">
<polygon fill="white" stroke="#666666" points="854,-798.95 702.25,-798.95 702.25,-778.95 854,-778.95 854,-798.95"/>
<text text-anchor="middle" x="778.12" y="-785.45" font-family="Helvetica,sans-Serif" font-size="10.00">LSM1x0A_LoRaWAN::setADR</text>
</a>
</g>
</g>
<!-- Node12&#45;&gt;Node13 -->
<g id="edge17_Node000012_Node000013" class="edge">
<title>Node12&#45;&gt;Node13</title>
<g id="a_edge17_Node000012_Node000013"><a xlink:title=" ">
<path fill="none" stroke="#63b8ff" d="M568.18,-497.13C572.7,-546.58 593.4,-696.7 681.25,-769.95 684.5,-772.66 688.04,-775.03 691.76,-777.08"/>
<polygon fill="#63b8ff" stroke="#63b8ff" points="690.09,-780.17 700.63,-781.21 693.04,-773.82 690.09,-780.17"/>
</a>
</g>
</g>
<!-- Node14 -->
<g id="Node000014" class="node">
<title>Node14</title>
<g id="a_Node000014"><a xlink:href="../../d5/d72/classLSM1x0A__LoRaWAN.html#a5365ed1596eb84ebf1e3b33b4a10c788" target="_top" xlink:title="Sets the LoRaWAN operational frequency band.">
<polygon fill="white" stroke="#666666" points="854.38,-760.95 701.88,-760.95 701.88,-740.95 854.38,-740.95 854.38,-760.95"/>
<text text-anchor="middle" x="778.12" y="-747.45" font-family="Helvetica,sans-Serif" font-size="10.00">LSM1x0A_LoRaWAN::setBand</text>
</a>
</g>
</g>
<!-- Node12&#45;&gt;Node14 -->
<g id="edge19_Node000012_Node000014" class="edge">
<title>Node12&#45;&gt;Node14</title>
<g id="a_edge19_Node000012_Node000014"><a xlink:title=" ">
<path fill="none" stroke="#63b8ff" d="M569.26,-497.27C576.42,-542.46 602.98,-669.99 681.25,-731.95 684.41,-734.45 687.8,-736.64 691.36,-738.58"/>
<polygon fill="#63b8ff" stroke="#63b8ff" points="689.85,-741.74 700.4,-742.72 692.77,-735.37 689.85,-741.74"/>
</a>
</g>
</g>
<!-- Node15 -->
<g id="Node000015" class="node">
<title>Node15</title>
<g id="a_Node000015"><a xlink:href="../../d5/d72/classLSM1x0A__LoRaWAN.html#a9d9285c43414337a0ccb3a6cd7ca06e6" target="_top" xlink:title="Configures the number of retries for Confirmed uplinks.">
<polygon fill="white" stroke="#666666" points="860.38,-722.95 695.88,-722.95 695.88,-690.95 860.38,-690.95 860.38,-722.95"/>
<text text-anchor="start" x="703.88" y="-709.45" font-family="Helvetica,sans-Serif" font-size="10.00">LSM1x0A_LoRaWAN::setConfirm</text>
<text text-anchor="middle" x="778.12" y="-697.45" font-family="Helvetica,sans-Serif" font-size="10.00">Retry</text>
</a>
</g>
</g>
<!-- Node12&#45;&gt;Node15 -->
<g id="edge22_Node000012_Node000015" class="edge">
<title>Node12&#45;&gt;Node15</title>
<g id="a_edge22_Node000012_Node000015"><a xlink:title=" ">
<path fill="none" stroke="#63b8ff" d="M571.52,-497.42C582.98,-535.98 616.92,-632.59 681.25,-681.95 682.61,-682.99 684.02,-684 685.46,-684.96"/>
<polygon fill="#63b8ff" stroke="#63b8ff" points="683.68,-687.98 694.09,-689.96 687.19,-681.92 683.68,-687.98"/>
</a>
</g>
</g>
<!-- Node16 -->
<g id="Node000016" class="node">
<title>Node16</title>
<g id="a_Node000016"><a xlink:href="../../d5/d72/classLSM1x0A__LoRaWAN.html#a56345ceeafa0b9059d6de4e69eddc82e" target="_top" xlink:title="Sets the Data Rate (DR) of the module.">
<polygon fill="white" stroke="#666666" points="864.12,-672.95 692.12,-672.95 692.12,-652.95 864.12,-652.95 864.12,-672.95"/>
<text text-anchor="middle" x="778.12" y="-659.45" font-family="Helvetica,sans-Serif" font-size="10.00">LSM1x0A_LoRaWAN::setDataRate</text>
</a>
</g>
</g>
<!-- Node12&#45;&gt;Node16 -->
<g id="edge24_Node000012_Node000016" class="edge">
<title>Node12&#45;&gt;Node16</title>
<g id="a_edge24_Node000012_Node000016"><a xlink:title=" ">
<path fill="none" stroke="#63b8ff" d="M573.43,-497.26C587.49,-530.68 624.36,-606.87 681.25,-643.95 683.39,-645.34 685.6,-646.63 687.88,-647.84"/>
<polygon fill="#63b8ff" stroke="#63b8ff" points="686.3,-650.96 696.85,-651.92 689.2,-644.59 686.3,-650.96"/>
</a>
</g>
</g>
<!-- Node17 -->
<g id="Node000017" class="node">
<title>Node17</title>
<g id="a_Node000017"><a xlink:href="../../d5/d72/classLSM1x0A__LoRaWAN.html#a8494083816ab885cb07fc3b08de029f4" target="_top" xlink:title="Sets the LoRaWAN Device Address (DevAddr) for ABP mode.">
<polygon fill="white" stroke="#666666" points="862.25,-634.95 694,-634.95 694,-614.95 862.25,-614.95 862.25,-634.95"/>
<text text-anchor="middle" x="778.12" y="-621.45" font-family="Helvetica,sans-Serif" font-size="10.00">LSM1x0A_LoRaWAN::setDevAddr</text>
</a>
</g>
</g>
<!-- Node12&#45;&gt;Node17 -->
<g id="edge26_Node000012_Node000017" class="edge">
<title>Node12&#45;&gt;Node17</title>
<g id="a_edge26_Node000012_Node000017"><a xlink:title=" ">
<path fill="none" stroke="#63b8ff" d="M576.99,-497.41C594.47,-524.7 633.35,-578.97 681.25,-605.95 684.09,-607.55 687.05,-609.02 690.08,-610.36"/>
<polygon fill="#63b8ff" stroke="#63b8ff" points="688.67,-613.57 699.26,-613.93 691.21,-607.04 688.67,-613.57"/>
</a>
</g>
</g>
<!-- Node18 -->
<g id="Node000018" class="node">
<title>Node18</title>
<g id="a_Node000018"><a xlink:href="../../d5/d72/classLSM1x0A__LoRaWAN.html#ad320634e52d7ea907043cc50dd37c5b0" target="_top" xlink:title="Sets the LoRaWAN Device EUI (DevEUI).">
<polygon fill="white" stroke="#666666" points="860.75,-596.95 695.5,-596.95 695.5,-576.95 860.75,-576.95 860.75,-596.95"/>
<text text-anchor="middle" x="778.12" y="-583.45" font-family="Helvetica,sans-Serif" font-size="10.00">LSM1x0A_LoRaWAN::setDevEUI</text>
</a>
</g>
</g>
<!-- Node12&#45;&gt;Node18 -->
<g id="edge28_Node000012_Node000018" class="edge">
<title>Node12&#45;&gt;Node18</title>
<g id="a_edge28_Node000012_Node000018"><a xlink:title=" ">
<path fill="none" stroke="#63b8ff" d="M583.2,-497.21C604.02,-517.12 642.15,-550.34 681.25,-567.95 685.51,-569.87 689.97,-571.6 694.53,-573.15"/>
<polygon fill="#63b8ff" stroke="#63b8ff" points="693.28,-576.43 703.87,-576.02 695.34,-569.74 693.28,-576.43"/>
</a>
</g>
</g>
<!-- Node19 -->
<g id="Node000019" class="node">
<title>Node19</title>
<g id="a_Node000019"><a xlink:href="../../d5/d72/classLSM1x0A__LoRaWAN.html#a031023b0d2dd5db3c51c2db6ae7801cc" target="_top" xlink:title="Enables or disables the Duty Cycle limitation (EU regions mostly).">
<polygon fill="white" stroke="#666666" points="853.62,-558.95 702.62,-558.95 702.62,-526.95 853.62,-526.95 853.62,-558.95"/>
<text text-anchor="start" x="710.62" y="-545.45" font-family="Helvetica,sans-Serif" font-size="10.00">LSM1x0A_LoRaWAN::setDuty</text>
<text text-anchor="middle" x="778.12" y="-533.45" font-family="Helvetica,sans-Serif" font-size="10.00">Cycle</text>
</a>
</g>
</g>
<!-- Node12&#45;&gt;Node19 -->
<g id="edge30_Node000012_Node000019" class="edge">
<title>Node12&#45;&gt;Node19</title>
<g id="a_edge30_Node000012_Node000019"><a xlink:title=" ">
<path fill="none" stroke="#63b8ff" d="M622.76,-497.4C649.7,-505.35 682.23,-514.95 710.48,-523.28"/>
<polygon fill="#63b8ff" stroke="#63b8ff" points="709.44,-526.62 720.02,-526.1 711.42,-519.91 709.44,-526.62"/>
</a>
</g>
</g>
<!-- Node20 -->
<g id="Node000020" class="node">
<title>Node20</title>
<g id="a_Node000020"><a xlink:href="../../d5/d72/classLSM1x0A__LoRaWAN.html#a6b179d5825c49af0f391dfc539912f64" target="_top" xlink:title="Sets the delay for the Join1 receive window.">
<polygon fill="white" stroke="#666666" points="854.75,-470.95 701.5,-470.95 701.5,-438.95 854.75,-438.95 854.75,-470.95"/>
<text text-anchor="start" x="709.5" y="-457.45" font-family="Helvetica,sans-Serif" font-size="10.00">LSM1x0A_LoRaWAN::setJoin1</text>
<text text-anchor="middle" x="778.12" y="-445.45" font-family="Helvetica,sans-Serif" font-size="10.00">Delay</text>
</a>
</g>
</g>
<!-- Node12&#45;&gt;Node20 -->
<g id="edge32_Node000012_Node000020" class="edge">
<title>Node12&#45;&gt;Node20</title>
<g id="a_edge32_Node000012_Node000020"><a xlink:title=" ">
<path fill="none" stroke="#63b8ff" d="M639.61,-471.96C655.96,-469.94 673.47,-467.77 690.33,-465.69"/>
<polygon fill="#63b8ff" stroke="#63b8ff" points="690.3,-469.22 699.8,-464.52 689.44,-462.27 690.3,-469.22"/>
</a>
</g>
</g>
<!-- Node21 -->
<g id="Node000021" class="node">
<title>Node21</title>
<g id="a_Node000021"><a xlink:href="../../d5/d72/classLSM1x0A__LoRaWAN.html#a4545d0caad41558cdb9bae8286b104d8" target="_top" xlink:title="Sets the delay for the Join2 receive window.">
<polygon fill="white" stroke="#666666" points="854.75,-420.95 701.5,-420.95 701.5,-388.95 854.75,-388.95 854.75,-420.95"/>
<text text-anchor="start" x="709.5" y="-407.45" font-family="Helvetica,sans-Serif" font-size="10.00">LSM1x0A_LoRaWAN::setJoin2</text>
<text text-anchor="middle" x="778.12" y="-395.45" font-family="Helvetica,sans-Serif" font-size="10.00">Delay</text>
</a>
</g>
</g>
<!-- Node12&#45;&gt;Node21 -->
<g id="edge34_Node000012_Node000021" class="edge">
<title>Node12&#45;&gt;Node21</title>
<g id="a_edge34_Node000012_Node000021"><a xlink:title=" ">
<path fill="none" stroke="#63b8ff" d="M599.91,-464.52C622.42,-453.71 653.17,-439.8 681.25,-429.95 686.54,-428.09 692.04,-426.3 697.61,-424.59"/>
<polygon fill="#63b8ff" stroke="#63b8ff" points="698.32,-428.03 706.91,-421.84 696.33,-421.32 698.32,-428.03"/>
</a>
</g>
</g>
<!-- Node22 -->
<g id="Node000022" class="node">
<title>Node22</title>
<g id="a_Node000022"><a xlink:href="../../d5/d72/classLSM1x0A__LoRaWAN.html#a06bd50723ec1eb7e144c9141b2ec86fc" target="_top" xlink:title="Sets the LoRaWAN Network ID (NetID).">
<polygon fill="white" stroke="#666666" points="858.5,-370.95 697.75,-370.95 697.75,-350.95 858.5,-350.95 858.5,-370.95"/>
<text text-anchor="middle" x="778.12" y="-357.45" font-family="Helvetica,sans-Serif" font-size="10.00">LSM1x0A_LoRaWAN::setNwkID</text>
</a>
</g>
</g>
<!-- Node12&#45;&gt;Node22 -->
<g id="edge36_Node000012_Node000022" class="edge">
<title>Node12&#45;&gt;Node22</title>
<g id="a_edge36_Node000012_Node000022"><a xlink:title=" ">
<path fill="none" stroke="#63b8ff" d="M580.26,-464.74C599.85,-441.98 638.78,-400.98 681.25,-379.95 684.93,-378.13 688.76,-376.48 692.7,-374.99"/>
<polygon fill="#63b8ff" stroke="#63b8ff" points="693.51,-378.41 701.86,-371.9 691.27,-371.78 693.51,-378.41"/>
</a>
</g>
</g>
<!-- Node23 -->
<g id="Node000023" class="node">
<title>Node23</title>
<g id="a_Node000023"><a xlink:href="../../d5/d72/classLSM1x0A__LoRaWAN.html#aa70ada64d28ecca216bb62268e502adf" target="_top" xlink:title="Sets the delay for the RX1 receive window.">
<polygon fill="white" stroke="#666666" points="864.88,-332.95 691.38,-332.95 691.38,-312.95 864.88,-312.95 864.88,-332.95"/>
<text text-anchor="middle" x="778.12" y="-319.45" font-family="Helvetica,sans-Serif" font-size="10.00">LSM1x0A_LoRaWAN::setRx1Delay</text>
</a>
</g>
</g>
<!-- Node12&#45;&gt;Node23 -->
<g id="edge38_Node000012_Node000023" class="edge">
<title>Node12&#45;&gt;Node23</title>
<g id="a_edge38_Node000012_Node000023"><a xlink:title=" ">
<path fill="none" stroke="#63b8ff" d="M575.45,-464.54C591.65,-434.88 630.05,-372.58 681.25,-341.95 683.73,-340.46 686.31,-339.09 688.96,-337.82"/>
<polygon fill="#63b8ff" stroke="#63b8ff" points="690.21,-341.09 698.09,-334.02 687.51,-334.63 690.21,-341.09"/>
</a>
</g>
</g>
<!-- Node24 -->
<g id="Node000024" class="node">
<title>Node24</title>
<g id="a_Node000024"><a xlink:href="../../d5/d72/classLSM1x0A__LoRaWAN.html#a2cf4eff0181b6107d082bccefa24217b" target="_top" xlink:title="Sets the Data Rate (DR) specifically for the RX2 window.">
<polygon fill="white" stroke="#666666" points="873.12,-294.95 683.12,-294.95 683.12,-274.95 873.12,-274.95 873.12,-294.95"/>
<text text-anchor="middle" x="778.12" y="-281.45" font-family="Helvetica,sans-Serif" font-size="10.00">LSM1x0A_LoRaWAN::setRx2DataRate</text>
</a>
</g>
</g>
<!-- Node12&#45;&gt;Node24 -->
<g id="edge40_Node000012_Node000024" class="edge">
<title>Node12&#45;&gt;Node24</title>
<g id="a_edge40_Node000012_Node000024"><a xlink:title=" ">
<path fill="none" stroke="#63b8ff" d="M572.52,-464.61C585.4,-429.11 621.04,-344.84 681.25,-303.95 683.22,-302.61 685.27,-301.36 687.38,-300.19"/>
<polygon fill="#63b8ff" stroke="#63b8ff" points="688.71,-303.43 696.23,-295.97 685.7,-297.11 688.71,-303.43"/>
</a>
</g>
</g>
<!-- Node25 -->
<g id="Node000025" class="node">
<title>Node25</title>
<g id="a_Node000025"><a xlink:href="../../d5/d72/classLSM1x0A__LoRaWAN.html#a42d2137b475b57e19d891a5f1ac93221" target="_top" xlink:title="Sets the delay for the RX2 receive window.">
<polygon fill="white" stroke="#666666" points="864.88,-256.95 691.38,-256.95 691.38,-236.95 864.88,-236.95 864.88,-256.95"/>
<text text-anchor="middle" x="778.12" y="-243.45" font-family="Helvetica,sans-Serif" font-size="10.00">LSM1x0A_LoRaWAN::setRx2Delay</text>
</a>
</g>
</g>
<!-- Node12&#45;&gt;Node25 -->
<g id="edge42_Node000012_Node000025" class="edge">
<title>Node12&#45;&gt;Node25</title>
<g id="a_edge42_Node000012_Node000025"><a xlink:title=" ">
<path fill="none" stroke="#63b8ff" d="M570.59,-464.6C580.43,-423.89 611.86,-317.5 681.25,-265.95 682.84,-264.76 684.49,-263.65 686.18,-262.6"/>
<polygon fill="#63b8ff" stroke="#63b8ff" points="687.76,-265.72 694.98,-257.97 684.5,-259.53 687.76,-265.72"/>
</a>
</g>
</g>
<!-- Node26 -->
<g id="Node000026" class="node">
<title>Node26</title>
<g id="a_Node000026"><a xlink:href="../../d5/d72/classLSM1x0A__LoRaWAN.html#a689f7dfda1dfeae11ea397c2ddf2ad37" target="_top" xlink:title="Sets the precise frequency for the RX2 window.">
<polygon fill="white" stroke="#666666" points="875,-218.95 681.25,-218.95 681.25,-198.95 875,-198.95 875,-218.95"/>
<text text-anchor="middle" x="778.12" y="-205.45" font-family="Helvetica,sans-Serif" font-size="10.00">LSM1x0A_LoRaWAN::setRx2Frequency</text>
</a>
</g>
</g>
<!-- Node12&#45;&gt;Node26 -->
<g id="edge44_Node000012_Node000026" class="edge">
<title>Node12&#45;&gt;Node26</title>
<g id="a_edge44_Node000012_Node000026"><a xlink:title=" ">
<path fill="none" stroke="#63b8ff" d="M569.21,-464.5C576.26,-418.96 602.56,-290.44 681.25,-227.95 682.58,-226.89 683.95,-225.89 685.36,-224.94"/>
<polygon fill="#63b8ff" stroke="#63b8ff" points="686.86,-228.11 693.82,-220.12 683.4,-222.03 686.86,-228.11"/>
</a>
</g>
</g>
<!-- Node27 -->
<g id="Node000027" class="node">
<title>Node27</title>
<g id="a_Node000027"><a xlink:href="../../d5/d72/classLSM1x0A__LoRaWAN.html#a1df10d7ae6bf45b537d28d3d5c4b88d7" target="_top" xlink:title="Sets the transmission power index.">
<polygon fill="white" stroke="#666666" points="862.62,-180.95 693.62,-180.95 693.62,-160.95 862.62,-160.95 862.62,-180.95"/>
<text text-anchor="middle" x="778.12" y="-167.45" font-family="Helvetica,sans-Serif" font-size="10.00">LSM1x0A_LoRaWAN::setTxPower</text>
</a>
</g>
</g>
<!-- Node12&#45;&gt;Node27 -->
<g id="edge46_Node000012_Node000027" class="edge">
<title>Node12&#45;&gt;Node27</title>
<g id="a_edge46_Node000012_Node000027"><a xlink:title=" ">
<path fill="none" stroke="#63b8ff" d="M568.14,-464.65C572.55,-414.88 592.96,-263.73 681.25,-189.95 682.39,-189 683.55,-188.09 684.75,-187.23"/>
<polygon fill="#63b8ff" stroke="#63b8ff" points="686.43,-190.3 693.18,-182.14 682.81,-184.31 686.43,-190.3"/>
</a>
</g>
</g>
<!-- Node28 -->
<g id="Node000028" class="node">
<title>Node28</title>
<g id="a_Node000028"><a xlink:href="../../d5/d72/classLSM1x0A__LoRaWAN.html#a059fd6a9356c4ecadd5a98294da5952d" target="_top" xlink:title="Configures the number of repetitions for Unconfirmed uplinks.">
<polygon fill="white" stroke="#666666" points="865.62,-142.95 690.62,-142.95 690.62,-110.95 865.62,-110.95 865.62,-142.95"/>
<text text-anchor="start" x="698.62" y="-129.45" font-family="Helvetica,sans-Serif" font-size="10.00">LSM1x0A_LoRaWAN::setUnconfirm</text>
<text text-anchor="middle" x="778.12" y="-117.45" font-family="Helvetica,sans-Serif" font-size="10.00">Retry</text>
</a>
</g>
</g>
<!-- Node12&#45;&gt;Node28 -->
<g id="edge48_Node000012_Node000028" class="edge">
<title>Node12&#45;&gt;Node28</title>
<g id="a_edge48_Node000012_Node000028"><a xlink:title=" ">
<path fill="none" stroke="#63b8ff" d="M567.52,-464.75C570.15,-411.46 585.98,-239.96 681.25,-151.95 682.02,-151.23 682.82,-150.54 683.62,-149.86"/>
<polygon fill="#63b8ff" stroke="#63b8ff" points="685.47,-152.84 691.62,-144.21 681.44,-147.12 685.47,-152.84"/>
</a>
</g>
</g>
<!-- Node13&#45;&gt;Node2 -->
<g id="edge18_Node000013_Node000002" class="edge">
<title>Node13&#45;&gt;Node2</title>
<g id="a_edge18_Node000013_Node000002"><a xlink:title=" ">
<path fill="none" stroke="#63b8ff" d="M703.11,-778.49C593.89,-761.69 396.83,-725.64 344.75,-677.95 294.1,-631.57 270.87,-550.58 261.75,-508.34"/>
<polygon fill="#63b8ff" stroke="#63b8ff" points="265.23,-507.86 259.8,-498.76 258.37,-509.26 265.23,-507.86"/>
</a>
</g>
</g>
<!-- Node14&#45;&gt;Node2 -->
<g id="edge20_Node000014_Node000002" class="edge">
<title>Node14&#45;&gt;Node2</title>
<g id="a_edge20_Node000014_Node000002"><a xlink:title=" ">
<path fill="none" stroke="#63b8ff" d="M705.48,-740.46C597.42,-723.42 399.51,-687.03 344.75,-641.95 301.48,-606.32 276.12,-543.61 264.49,-507.88"/>
<polygon fill="#63b8ff" stroke="#63b8ff" points="267.96,-507.24 261.64,-498.74 261.27,-509.32 267.96,-507.24"/>
</a>
</g>
</g>
<!-- Node15&#45;&gt;Node2 -->
<g id="edge23_Node000015_Node000002" class="edge">
<title>Node15&#45;&gt;Node2</title>
<g id="a_edge23_Node000015_Node000002"><a xlink:title=" ">
<path fill="none" stroke="#63b8ff" d="M695.49,-696.13C586.08,-680.29 399.32,-648.15 344.75,-606.95 309.63,-580.43 283.24,-535.78 268.9,-507.37"/>
<polygon fill="#63b8ff" stroke="#63b8ff" points="272.21,-506.16 264.67,-498.71 265.92,-509.23 272.21,-506.16"/>
</a>
</g>
</g>
<!-- Node16&#45;&gt;Node2 -->
<g id="edge25_Node000016_Node000002" class="edge">
<title>Node16&#45;&gt;Node2</title>
<g id="a_edge25_Node000016_Node000002"><a xlink:title=" ">
<path fill="none" stroke="#63b8ff" d="M692.02,-660.63C600.31,-654.66 452.96,-634.71 344.75,-569.95 317.07,-553.38 291.89,-526.09 275.63,-506.09"/>
<polygon fill="#63b8ff" stroke="#63b8ff" points="278.49,-504.06 269.54,-498.39 273,-508.41 278.49,-504.06"/>
</a>
</g>
</g>
<!-- Node17&#45;&gt;Node2 -->
<g id="edge27_Node000017_Node000002" class="edge">
<title>Node17&#45;&gt;Node2</title>
<g id="a_edge27_Node000017_Node000002"><a xlink:title=" ">
<path fill="none" stroke="#63b8ff" d="M693.77,-618.09C604.51,-608.52 460.15,-586.49 344.75,-537.95 323.99,-529.22 302.74,-515.61 286.33,-503.88"/>
<polygon fill="#63b8ff" stroke="#63b8ff" points="288.62,-501.22 278.48,-498.14 284.49,-506.87 288.62,-501.22"/>
</a>
</g>
</g>
<!-- Node18&#45;&gt;Node2 -->
<g id="edge29_Node000018_Node000002" class="edge">
<title>Node18&#45;&gt;Node2</title>
<g id="a_edge29_Node000018_Node000002"><a xlink:title=" ">
<path fill="none" stroke="#63b8ff" d="M695.37,-576.91C607.78,-565.2 465.09,-543.35 344.75,-511.95 333.23,-508.94 321.07,-505.11 309.59,-501.17"/>
<polygon fill="#63b8ff" stroke="#63b8ff" points="310.85,-497.9 300.26,-497.88 308.53,-504.5 310.85,-497.9"/>
</a>
</g>
</g>
<!-- Node19&#45;&gt;Node2 -->
<g id="edge31_Node000019_Node000002" class="edge">
<title>Node19&#45;&gt;Node2</title>
<g id="a_edge31_Node000019_Node000002"><a xlink:title=" ">
<path fill="none" stroke="#63b8ff" d="M702.39,-534.04C599.71,-521.81 416.81,-500.02 320.35,-488.53"/>
<polygon fill="#63b8ff" stroke="#63b8ff" points="320.87,-485.06 310.53,-487.36 320.05,-492.01 320.87,-485.06"/>
</a>
</g>
</g>
<!-- Node20&#45;&gt;Node2 -->
<g id="edge33_Node000020_Node000002" class="edge">
<title>Node20&#45;&gt;Node2</title>
<g id="a_edge33_Node000020_Node000002"><a xlink:title=" ">
<path fill="none" stroke="#63b8ff" d="M701.25,-453.04C642.62,-452.09 559.48,-451.88 486.75,-455.95 430.37,-459.1 366.55,-466.33 320.47,-472.21"/>
<polygon fill="#63b8ff" stroke="#63b8ff" points="320.12,-468.72 310.65,-473.48 321.01,-475.67 320.12,-468.72"/>
</a>
</g>
</g>
<!-- Node21&#45;&gt;Node2 -->
<g id="edge35_Node000021_Node000002" class="edge">
<title>Node21&#45;&gt;Node2</title>
<g id="a_edge35_Node000021_Node000002"><a xlink:title=" ">
<path fill="none" stroke="#63b8ff" d="M701.13,-409.76C614.28,-416.18 468.21,-429.77 344.75,-454.95 336.08,-456.72 327.03,-458.94 318.17,-461.34"/>
<polygon fill="#63b8ff" stroke="#63b8ff" points="317.23,-457.97 308.55,-464.05 319.13,-464.71 317.23,-457.97"/>
</a>
</g>
</g>
<!-- Node22&#45;&gt;Node2 -->
<g id="edge37_Node000022_Node000002" class="edge">
<title>Node22&#45;&gt;Node2</title>
<g id="a_edge37_Node000022_Node000002"><a xlink:title=" ">
<path fill="none" stroke="#63b8ff" d="M697.46,-366.22C609.2,-373.87 463.63,-391.94 344.75,-432.95 326.26,-439.33 307.05,-449.35 291.31,-458.6"/>
<polygon fill="#63b8ff" stroke="#63b8ff" points="289.55,-455.57 282.8,-463.73 293.17,-461.56 289.55,-455.57"/>
</a>
</g>
</g>
<!-- Node23&#45;&gt;Node2 -->
<g id="edge39_Node000023_Node000002" class="edge">
<title>Node23&#45;&gt;Node2</title>
<g id="a_edge39_Node000023_Node000002"><a xlink:title=" ">
<path fill="none" stroke="#63b8ff" d="M690.99,-323.48C600.04,-327.36 454.85,-343.2 344.75,-400.95 318.51,-414.71 294.03,-438.19 277.59,-456.16"/>
<polygon fill="#63b8ff" stroke="#63b8ff" points="275.23,-453.54 271.2,-463.34 280.46,-458.2 275.23,-453.54"/>
</a>
</g>
</g>
<!-- Node24&#45;&gt;Node2 -->
<g id="edge41_Node000024_Node000002" class="edge">
<title>Node24&#45;&gt;Node2</title>
<g id="a_edge41_Node000024_Node000002"><a xlink:title=" ">
<path fill="none" stroke="#63b8ff" d="M682.9,-278.72C589.35,-277.21 445.69,-287.94 344.75,-355.95 308.25,-380.54 282.12,-425.71 268.23,-454.49"/>
<polygon fill="#63b8ff" stroke="#63b8ff" points="265.19,-452.73 264.15,-463.27 271.54,-455.68 265.19,-452.73"/>
</a>
</g>
</g>
<!-- Node25&#45;&gt;Node2 -->
<g id="edge43_Node000025_Node000002" class="edge">
<title>Node25&#45;&gt;Node2</title>
<g id="a_edge43_Node000025_Node000002"><a xlink:title=" ">
<path fill="none" stroke="#63b8ff" d="M707.35,-236.49C614.58,-226.6 450.09,-223.58 344.75,-304.95 296.11,-342.51 272.38,-414.19 262.56,-453.49"/>
<polygon fill="#63b8ff" stroke="#63b8ff" points="259.19,-452.56 260.3,-463.1 266,-454.17 259.19,-452.56"/>
</a>
</g>
</g>
<!-- Node26&#45;&gt;Node2 -->
<g id="edge45_Node000026_Node000002" class="edge">
<title>Node26&#45;&gt;Node2</title>
<g id="a_edge45_Node000026_Node000002"><a xlink:title=" ">
<path fill="none" stroke="#63b8ff" d="M680.92,-205.86C569.47,-204.31 394.75,-208.72 344.75,-248.95 280.86,-300.36 263.33,-403.6 258.54,-453.16"/>
<polygon fill="#63b8ff" stroke="#63b8ff" points="255.06,-452.77 257.7,-463.03 262.03,-453.36 255.06,-452.77"/>
</a>
</g>
</g>
<!-- Node27&#45;&gt;Node2 -->
<g id="edge47_Node000027_Node000002" class="edge">
<title>Node27&#45;&gt;Node2</title>
<g id="a_edge47_Node000027_Node000002"><a xlink:title=" ">
<path fill="none" stroke="#63b8ff" d="M730.42,-160.48C643.99,-144.01 457.64,-122.56 344.75,-212.95 269.94,-272.85 258.08,-397.78 256.65,-453.31"/>
<polygon fill="#63b8ff" stroke="#63b8ff" points="253.15,-453.1 256.5,-463.15 260.15,-453.21 253.15,-453.1"/>
</a>
</g>
</g>
<!-- Node28&#45;&gt;Node2 -->
<g id="edge49_Node000028_Node000002" class="edge">
<title>Node28&#45;&gt;Node2</title>
<g id="a_edge49_Node000028_Node000002"><a xlink:title=" ">
<path fill="none" stroke="#63b8ff" d="M690.24,-121.55C579.15,-116.57 395.12,-115.39 344.75,-157.95 298.9,-196.69 269.75,-383.18 260.2,-453.79"/>
<polygon fill="#63b8ff" stroke="#63b8ff" points="256.78,-452.95 258.94,-463.32 263.72,-453.87 256.78,-452.95"/>
</a>
</g>
</g>
<!-- Node30&#45;&gt;Node31 -->
<g id="edge52_Node000030_Node000031" class="edge">
<title>Node30&#45;&gt;Node31</title>
<g id="a_edge52_Node000030_Node000031"><a xlink:title=" ">
<path fill="none" stroke="#63b8ff" d="M619.48,-1092.44C637.64,-1094.34 658.61,-1096.54 679.22,-1098.7"/>
<polygon fill="#63b8ff" stroke="#63b8ff" points="678.79,-1102.17 689.1,-1099.73 679.52,-1095.21 678.79,-1102.17"/>
</a>
</g>
</g>
<!-- Node32 -->
<g id="Node000032" class="node">
<title>Node32</title>
<g id="a_Node000032"><a xlink:href="../../d6/d3c/classLSM1x0A__AtParser.html#a0ba6f927c54fceece22c17773d3f2600" target="_top" xlink:title="Sends a command and extracts a value from the response.">
<polygon fill="white" stroke="#666666" points="1093.12,-1124.95 918.88,-1124.95 918.88,-1092.95 1093.12,-1092.95 1093.12,-1124.95"/>
<text text-anchor="start" x="926.88" y="-1111.45" font-family="Helvetica,sans-Serif" font-size="10.00">LSM1x0A_AtParser::sendCommand</text>
<text text-anchor="middle" x="1006" y="-1099.45" font-family="Helvetica,sans-Serif" font-size="10.00">WithResponse</text>
</a>
</g>
</g>
<!-- Node31&#45;&gt;Node32 -->
<g id="edge53_Node000031_Node000032" class="edge">
<title>Node31&#45;&gt;Node32</title>
<g id="a_edge53_Node000031_Node000032"><a xlink:title=" ">
<path fill="none" stroke="#63b8ff" d="M865.49,-1108.95C879.24,-1108.95 893.56,-1108.95 907.55,-1108.95"/>
<polygon fill="#63b8ff" stroke="#63b8ff" points="907.17,-1112.45 917.17,-1108.95 907.17,-1105.45 907.17,-1112.45"/>
</a>
</g>
</g>
<!-- Node33 -->
<g id="Node000033" class="node">
<title>Node33</title>
<g id="a_Node000033"><a xlink:href="../../d5/d8b/classUartDriver.html#a5d0f22e8867eebe99273078bb19bd23d" target="_top" xlink:title="Sends data through UART.">
<polygon fill="white" stroke="#666666" points="1267.75,-1118.95 1158.75,-1118.95 1158.75,-1098.95 1267.75,-1098.95 1267.75,-1118.95"/>
<text text-anchor="middle" x="1213.25" y="-1105.45" font-family="Helvetica,sans-Serif" font-size="10.00">UartDriver::sendData</text>
</a>
</g>
</g>
<!-- Node32&#45;&gt;Node33 -->
<g id="edge54_Node000032_Node000033" class="edge">
<title>Node32&#45;&gt;Node33</title>
<g id="a_edge54_Node000032_Node000033"><a xlink:title=" ">
<path fill="none" stroke="#63b8ff" d="M1093.45,-1108.95C1111.34,-1108.95 1129.91,-1108.95 1146.89,-1108.95"/>
<polygon fill="#63b8ff" stroke="#63b8ff" points="1146.86,-1112.45 1156.86,-1108.95 1146.86,-1105.45 1146.86,-1112.45"/>
</a>
</g>
</g>
</g>
</svg>
