<?xml version="1.0" encoding="UTF-8" standalone="no"?>
<!DOCTYPE svg PUBLIC "-//W3C//DTD SVG 1.1//EN"
 "http://www.w3.org/Graphics/SVG/1.1/DTD/svg11.dtd">
<!-- Generated by graphviz version 12.2.1 (20241206.2353)
 -->
<!-- Title: LSM1x0A_LoRaWAN::setBaudrate Pages: 1 -->
<!--zoomable 1143 -->

<svg id="main" version="1.1" xmlns="http://www.w3.org/2000/svg" xmlns:xlink="http://www.w3.org/1999/xlink" xml:space="preserve" onload="init(evt)">
<style type="text/css"><![CDATA[
.node, .edge {opacity: 0.7;}
.node.selected, .edge.selected {opacity: 1;}
.edge:hover path { stroke: red; }
.edge:hover polygon { stroke: red; fill: red; }
]]></style>

<defs>
  <circle id="rim" cx="0" cy="0" r="7"/>
  <circle id="rim2" cx="0" cy="0" r="3.5"/>
  <g id="zoomPlus">
    <use xlink:href="#rim" fill="#404040"><set attributeName="fill" to="#808080" begin="zoomplus.mouseover" end="zoomplus.mouseout"/></use>
    <path d="M-4,0h8M0,-4v8" fill="none" stroke="white" stroke-width="1.5" pointer-events="none"/>
  </g>
  <g id="zoomMin">
    <use xlink:href="#rim" fill="#404040"><set attributeName="fill" to="#808080" begin="zoomminus.mouseover" end="zoomminus.mouseout"/></use>
    <path d="M-4,0h8" fill="none" stroke="white" stroke-width="1.5" pointer-events="none"/>
  </g>
  <g id="arrowUp" transform="translate(30 24)">
    <use xlink:href="#rim"/>
    <path pointer-events="none" fill="none" stroke="white" stroke-width="1.5" d="M0,-3.0v7 M-2.5,-0.5L0,-3.0L2.5,-0.5"/>
  </g>
  <g id="arrowRight" transform="rotate(90) translate(36 -43)">
    <use xlink:href="#rim"/>
    <path pointer-events="none" fill="none" stroke="white" stroke-width="1.5" d="M0,-3.0v7 M-2.5,-0.5L0,-3.0L2.5,-0.5"/>
  </g>
  <g id="arrowDown" transform="rotate(180) translate(-30 -48)">
    <use xlink:href="#rim"/>
    <path pointer-events="none" fill="none" stroke="white" stroke-width="1.5" d="M0,-3.0v7 M-2.5,-0.5L0,-3.0L2.5,-0.5"/>
  </g>
  <g id="arrowLeft" transform="rotate(270) translate(-36 17)">
    <use xlink:href="#rim"/>
    <path pointer-events="none" fill="none" stroke="white" stroke-width="1.5" d="M0,-3.0v7 M-2.5,-0.5L0,-3.0L2.5,-0.5"/>
  </g>
  <g id="resetDef">
    <use xlink:href="#rim2" fill="#404040"><set attributeName="fill" to="#808080" begin="reset.mouseover" end="reset.mouseout"/></use>
  </g>
</defs>
<script type="application/ecmascript">
var viewWidth = 1300;
var viewHeight = 1143;
var sectionId = 'dynsection-69';
</script>
<script type="application/ecmascript" xlink:href="../../svg.min.js"/>
<svg id="graph" class="graph">
<g id="viewport">
<title>LSM1x0A_LoRaWAN::setBaudrate</title>
<!-- Node1 -->
<g id="Node000001" class="node">
<title>Node1</title>
<g id="a_Node000001"><a xlink:title="Configures the module&#39;s baudrate (default is usually 9600).">
<polygon fill="#999999" stroke="#666666" points="169,-490.95 0,-490.95 0,-470.95 169,-470.95 169,-490.95"/>
<text text-anchor="middle" x="84.5" y="-477.45" font-family="Helvetica,sans-Serif" font-size="10.00">LSM1x0A_LoRaWAN::setBaudrate</text>
</a>
</g>
</g>
<!-- Node2 -->
<g id="Node000002" class="node">
<title>Node2</title>
<g id="a_Node000002"><a xlink:href="../../d8/d92/classLSM1x0A__Controller.html#afd7d92e60ed6fdae696a955cdbe0ed8c" target="_top" xlink:title="Sends any AT command to the module, returning error if it fails. Internally uses the LsmAtParser logi...">
<polygon fill="white" stroke="#666666" points="311,-496.95 205,-496.95 205,-464.95 311,-464.95 311,-496.95"/>
<text text-anchor="start" x="213" y="-483.45" font-family="Helvetica,sans-Serif" font-size="10.00">LSM1x0A_Controller</text>
<text text-anchor="middle" x="258" y="-471.45" font-family="Helvetica,sans-Serif" font-size="10.00">::sendCommand</text>
</a>
</g>
</g>
<!-- Node1&#45;&gt;Node2 -->
<g id="edge1_Node000001_Node000002" class="edge">
<title>Node1&#45;&gt;Node2</title>
<g id="a_edge1_Node000001_Node000002"><a xlink:title=" ">
<path fill="none" stroke="#63b8ff" d="M169.49,-480.95C177.59,-480.95 185.71,-480.95 193.56,-480.95"/>
<polygon fill="#63b8ff" stroke="#63b8ff" points="193.32,-484.45 203.32,-480.95 193.32,-477.45 193.32,-484.45"/>
</a>
</g>
</g>
<!-- Node3 -->
<g id="Node000003" class="node">
<title>Node3</title>
<g id="a_Node000003"><a xlink:href="../../d8/d92/classLSM1x0A__Controller.html#abb0eb380daa3dfb7acffb483c5db8e2b" target="_top" xlink:title="Executes the recovery protocol. First Soft&#45;Reset (ATZ), then Hard&#45;Reset if there is a pin.">
<polygon fill="white" stroke="#666666" points="453,-938.95 347,-938.95 347,-906.95 453,-906.95 453,-938.95"/>
<text text-anchor="start" x="355" y="-925.45" font-family="Helvetica,sans-Serif" font-size="10.00">LSM1x0A_Controller</text>
<text text-anchor="middle" x="400" y="-913.45" font-family="Helvetica,sans-Serif" font-size="10.00">::recoverModule</text>
</a>
</g>
</g>
<!-- Node2&#45;&gt;Node3 -->
<g id="edge2_Node000002_Node000003" class="edge">
<title>Node2&#45;&gt;Node3</title>
<g id="a_edge2_Node000002_Node000003"><a xlink:title=" ">
<path fill="none" stroke="#63b8ff" d="M262.55,-497.39C273.11,-545.46 306.16,-689.56 347,-804.95 358.35,-837.01 374.54,-872.58 385.83,-896.2"/>
<polygon fill="#63b8ff" stroke="#63b8ff" points="382.63,-897.62 390.13,-905.1 388.93,-894.57 382.63,-897.62"/>
</a>
</g>
</g>
<!-- Node31 -->
<g id="Node000031" class="node">
<title>Node31</title>
<g id="a_Node000031"><a xlink:href="../../d6/d3c/classLSM1x0A__AtParser.html#a29b53c521974387ba6c03afadfaffa4a" target="_top" xlink:title="Sends a simple command and waits for OK/ERROR. Example: sendCommand(&quot;AT+JOIN&quot;);.">
<polygon fill="white" stroke="#666666" points="867.5,-1118.95 693.25,-1118.95 693.25,-1098.95 867.5,-1098.95 867.5,-1118.95"/>
<text text-anchor="middle" x="780.38" y="-1105.45" font-family="Helvetica,sans-Serif" font-size="10.00">LSM1x0A_AtParser::sendCommand</text>
</a>
</g>
</g>
<!-- Node2&#45;&gt;Node31 -->
<g id="edge55_Node000002_Node000031" class="edge">
<title>Node2&#45;&gt;Node31</title>
<g id="a_edge55_Node000002_Node000031"><a xlink:title=" ">
<path fill="none" stroke="#63b8ff" d="M259.06,-497.2C259.88,-559.15 268.42,-785.25 347,-947.95 388.93,-1034.77 401.31,-1071.88 489,-1111.95 566.76,-1147.48 668.91,-1134.62 729.02,-1121.89"/>
<polygon fill="#63b8ff" stroke="#63b8ff" points="729.61,-1125.34 738.62,-1119.77 728.1,-1118.51 729.61,-1125.34"/>
</a>
</g>
</g>
<!-- Node4 -->
<g id="Node000004" class="node">
<title>Node4</title>
<g id="a_Node000004"><a xlink:href="../../d8/d92/classLSM1x0A__Controller.html#a3f6f25b843fe4fb7042c544deae2ab16" target="_top" xlink:title="Manually clears bits from the internal EventGroup.">
<polygon fill="white" stroke="#666666" points="1061.25,-957.95 955.25,-957.95 955.25,-925.95 1061.25,-925.95 1061.25,-957.95"/>
<text text-anchor="start" x="963.25" y="-944.45" font-family="Helvetica,sans-Serif" font-size="10.00">LSM1x0A_Controller</text>
<text text-anchor="middle" x="1008.25" y="-932.45" font-family="Helvetica,sans-Serif" font-size="10.00">::clearEvents</text>
</a>
</g>
</g>
<!-- Node3&#45;&gt;Node4 -->
<g id="edge3_Node000003_Node000004" class="edge">
<title>Node3&#45;&gt;Node4</title>
<g id="a_edge3_Node000003_Node000004"><a xlink:title=" ">
<path fill="none" stroke="#63b8ff" d="M417.08,-939.29C433.5,-954.72 460.56,-976.82 489,-985.95 648.57,-1037.18 849.16,-991 947.43,-961.72"/>
<polygon fill="#63b8ff" stroke="#63b8ff" points="948.32,-965.11 956.87,-958.86 946.29,-958.41 948.32,-965.11"/>
</a>
</g>
</g>
<!-- Node5 -->
<g id="Node000005" class="node">
<title>Node5</title>
<g id="a_Node000005"><a xlink:href="../../d8/d92/classLSM1x0A__Controller.html#a345d4bd79fa16b18dc33a4ca788fe5f7" target="_top" xlink:title="Performs a hardware reset using the reset pin.">
<polygon fill="white" stroke="#666666" points="621.25,-938.95 515.25,-938.95 515.25,-906.95 621.25,-906.95 621.25,-938.95"/>
<text text-anchor="start" x="523.25" y="-925.45" font-family="Helvetica,sans-Serif" font-size="10.00">LSM1x0A_Controller</text>
<text text-anchor="middle" x="568.25" y="-913.45" font-family="Helvetica,sans-Serif" font-size="10.00">::hardwareReset</text>
</a>
</g>
</g>
<!-- Node3&#45;&gt;Node5 -->
<g id="edge4_Node000003_Node000005" class="edge">
<title>Node3&#45;&gt;Node5</title>
<g id="a_edge4_Node000003_Node000005"><a xlink:title=" ">
<path fill="none" stroke="#63b8ff" d="M453.15,-922.95C469.16,-922.95 486.97,-922.95 503.66,-922.95"/>
<polygon fill="#63b8ff" stroke="#63b8ff" points="503.49,-926.45 513.49,-922.95 503.49,-919.45 503.49,-926.45"/>
</a>
</g>
</g>
<!-- Node7 -->
<g id="Node000007" class="node">
<title>Node7</title>
<g id="a_Node000007"><a xlink:href="../../d5/d72/classLSM1x0A__LoRaWAN.html#a1892801e37c8cd67d37c76108d6f7d49" target="_top" xlink:title="Validates if the device is currently Joined to the network. (Either confirmed by OTAA or statically a...">
<polygon fill="white" stroke="#666666" points="1291.75,-926.95 1139.25,-926.95 1139.25,-906.95 1291.75,-906.95 1291.75,-926.95"/>
<text text-anchor="middle" x="1215.5" y="-913.45" font-family="Helvetica,sans-Serif" font-size="10.00">LSM1x0A_LoRaWAN::isJoined</text>
</a>
</g>
</g>
<!-- Node3&#45;&gt;Node7 -->
<g id="edge6_Node000003_Node000007" class="edge">
<title>Node3&#45;&gt;Node7</title>
<g id="a_edge6_Node000003_Node000007"><a xlink:title=" ">
<path fill="none" stroke="#63b8ff" d="M446.94,-939.25C449.08,-940.7 451.11,-942.26 453,-943.95 478.17,-966.51 459.99,-993.6 489,-1010.95 499.7,-1017.34 815.16,-1014.94 877.25,-1008.95 978.94,-999.13 1005.74,-997.44 1103.25,-966.95 1132.08,-957.93 1163.33,-943.44 1185.34,-932.37"/>
<polygon fill="#63b8ff" stroke="#63b8ff" points="1186.7,-935.61 1194.01,-927.94 1183.51,-929.38 1186.7,-935.61"/>
</a>
</g>
</g>
<!-- Node8 -->
<g id="Node000008" class="node">
<title>Node8</title>
<g id="a_Node000008"><a xlink:href="../../d5/d72/classLSM1x0A__LoRaWAN.html#a83e11c0e74ff9e0757db616ab1163424" target="_top" xlink:title="Attempts to recover a lost connection (re&#45;executes OTAA Join if dropped).">
<polygon fill="white" stroke="#666666" points="642.62,-850.95 493.88,-850.95 493.88,-818.95 642.62,-818.95 642.62,-850.95"/>
<text text-anchor="start" x="501.88" y="-837.45" font-family="Helvetica,sans-Serif" font-size="10.00">LSM1x0A_LoRaWAN::recover</text>
<text text-anchor="middle" x="568.25" y="-825.45" font-family="Helvetica,sans-Serif" font-size="10.00">Connection</text>
</a>
</g>
</g>
<!-- Node3&#45;&gt;Node8 -->
<g id="edge7_Node000003_Node000008" class="edge">
<title>Node3&#45;&gt;Node8</title>
<g id="a_edge7_Node000003_Node000008"><a xlink:title=" ">
<path fill="none" stroke="#63b8ff" d="M422.97,-906.53C440.3,-894.07 465.4,-877.07 489,-864.95 495.29,-861.72 502,-858.64 508.76,-855.76"/>
<polygon fill="#63b8ff" stroke="#63b8ff" points="510.03,-859.02 517.96,-851.99 507.38,-852.55 510.03,-859.02"/>
</a>
</g>
</g>
<!-- Node12 -->
<g id="Node000012" class="node">
<title>Node12</title>
<g id="a_Node000012"><a xlink:href="../../d5/d72/classLSM1x0A__LoRaWAN.html#ae3be4ce59dfa200369733317df356e97" target="_top" xlink:title="Pushes the RAM&#45;cached variables back down into the hardware module. Restores the operational state af...">
<polygon fill="white" stroke="#666666" points="641.5,-496.95 495,-496.95 495,-464.95 641.5,-464.95 641.5,-496.95"/>
<text text-anchor="start" x="503" y="-483.45" font-family="Helvetica,sans-Serif" font-size="10.00">LSM1x0A_LoRaWAN::restore</text>
<text text-anchor="middle" x="568.25" y="-471.45" font-family="Helvetica,sans-Serif" font-size="10.00">Config</text>
</a>
</g>
</g>
<!-- Node3&#45;&gt;Node12 -->
<g id="edge16_Node000003_Node000012" class="edge">
<title>Node3&#45;&gt;Node12</title>
<g id="a_edge16_Node000003_Node000012"><a xlink:title=" ">
<path fill="none" stroke="#63b8ff" d="M407.11,-906.69C432.01,-840.5 525.92,-590.84 557.11,-507.91"/>
<polygon fill="#63b8ff" stroke="#63b8ff" points="560.3,-509.36 560.55,-498.77 553.75,-506.9 560.3,-509.36"/>
</a>
</g>
</g>
<!-- Node29 -->
<g id="Node000029" class="node">
<title>Node29</title>
<g id="a_Node000029"><a xlink:href="../../d5/d72/classLSM1x0A__LoRaWAN.html#ace4b04396f1de1f4a54f513f5f378db7" target="_top" xlink:title="Manually overrides the internal joined state tracker.">
<polygon fill="white" stroke="#666666" points="647.5,-976.95 489,-976.95 489,-956.95 647.5,-956.95 647.5,-976.95"/>
<text text-anchor="middle" x="568.25" y="-963.45" font-family="Helvetica,sans-Serif" font-size="10.00">LSM1x0A_LoRaWAN::setJoined</text>
</a>
</g>
</g>
<!-- Node3&#45;&gt;Node29 -->
<g id="edge50_Node000003_Node000029" class="edge">
<title>Node3&#45;&gt;Node29</title>
<g id="a_edge50_Node000003_Node000029"><a xlink:title=" ">
<path fill="none" stroke="#63b8ff" d="M453.49,-938.22C465.16,-941.51 477.48,-944.91 489,-947.95 496.36,-949.89 504.12,-951.86 511.79,-953.76"/>
<polygon fill="#63b8ff" stroke="#63b8ff" points="510.88,-957.14 521.43,-956.13 512.55,-950.35 510.88,-957.14"/>
</a>
</g>
</g>
<!-- Node30 -->
<g id="Node000030" class="node">
<title>Node30</title>
<g id="a_Node000030"><a xlink:href="../../d8/d92/classLSM1x0A__Controller.html#a11ad21cb5ca33ec51346764a23bd485e" target="_top" xlink:title="Performs a software reset (ATZ Command).">
<polygon fill="white" stroke="#666666" points="621.25,-1102.95 515.25,-1102.95 515.25,-1070.95 621.25,-1070.95 621.25,-1102.95"/>
<text text-anchor="start" x="523.25" y="-1089.45" font-family="Helvetica,sans-Serif" font-size="10.00">LSM1x0A_Controller</text>
<text text-anchor="middle" x="568.25" y="-1077.45" font-family="Helvetica,sans-Serif" font-size="10.00">::softwareReset</text>
</a>
</g>
</g>
<!-- Node3&#45;&gt;Node30 -->
<g id="edge51_Node000003_Node000030" class="edge">
<title>Node3&#45;&gt;Node30</title>
<g id="a_edge51_Node000003_Node000030"><a xlink:title=" ">
<path fill="none" stroke="#63b8ff" d="M407.7,-939.34C419.89,-967.25 448.25,-1024.13 489,-1056.95 493.82,-1060.83 499.19,-1064.24 504.8,-1067.25"/>
<polygon fill="#63b8ff" stroke="#63b8ff" points="503.21,-1070.36 513.73,-1071.55 506.25,-1064.06 503.21,-1070.36"/>
</a>
</g>
</g>
<!-- Node6 -->
<g id="Node000006" class="node">
<title>Node6</title>
<g id="a_Node000006"><a xlink:href="../../d6/d3c/classLSM1x0A__AtParser.html#ad2839120da13e56132b95019419be1e5" target="_top" xlink:title="Waits for an event (like BOOTALERT) without sending any command. Useful for hardware reset where the ...">
<polygon fill="white" stroke="#666666" points="850.62,-938.95 710.12,-938.95 710.12,-906.95 850.62,-906.95 850.62,-938.95"/>
<text text-anchor="start" x="718.12" y="-925.45" font-family="Helvetica,sans-Serif" font-size="10.00">LSM1x0A_AtParser::waitFor</text>
<text text-anchor="middle" x="780.38" y="-913.45" font-family="Helvetica,sans-Serif" font-size="10.00">Event</text>
</a>
</g>
</g>
<!-- Node5&#45;&gt;Node6 -->
<g id="edge5_Node000005_Node000006" class="edge">
<title>Node5&#45;&gt;Node6</title>
<g id="a_edge5_Node000005_Node000006"><a xlink:title=" ">
<path fill="none" stroke="#63b8ff" d="M621.73,-922.95C644.92,-922.95 672.72,-922.95 698.46,-922.95"/>
<polygon fill="#63b8ff" stroke="#63b8ff" points="698.22,-926.45 708.22,-922.95 698.22,-919.45 698.22,-926.45"/>
</a>
</g>
</g>
<!-- Node9 -->
<g id="Node000009" class="node">
<title>Node9</title>
<g id="a_Node000009"><a xlink:href="../../d5/d72/classLSM1x0A__LoRaWAN.html#a59f781f3cfd30c11cd3973bcb10a7baa" target="_top" xlink:title="Initiates a LoRaWAN Network Join procedure. This is a blocking function until the module fires an eve...">
<polygon fill="white" stroke="#666666" points="846.12,-844.95 714.62,-844.95 714.62,-824.95 846.12,-824.95 846.12,-844.95"/>
<text text-anchor="middle" x="780.38" y="-831.45" font-family="Helvetica,sans-Serif" font-size="10.00">LSM1x0A_LoRaWAN::join</text>
</a>
</g>
</g>
<!-- Node8&#45;&gt;Node9 -->
<g id="edge8_Node000008_Node000009" class="edge">
<title>Node8&#45;&gt;Node9</title>
<g id="a_edge8_Node000008_Node000009"><a xlink:title=" ">
<path fill="none" stroke="#63b8ff" d="M643.04,-834.95C662.41,-834.95 683.35,-834.95 702.86,-834.95"/>
<polygon fill="#63b8ff" stroke="#63b8ff" points="702.65,-838.45 712.65,-834.95 702.65,-831.45 702.65,-838.45"/>
</a>
</g>
</g>
<!-- Node9&#45;&gt;Node2 -->
<g id="edge11_Node000009_Node000002" class="edge">
<title>Node9&#45;&gt;Node2</title>
<g id="a_edge11_Node000009_Node000002"><a xlink:title=" ">
<path fill="none" stroke="#63b8ff" d="M726.15,-824.5C667.52,-812.53 570.73,-791.38 489,-766.95 424.61,-747.69 394.73,-762.27 347,-714.95 288.73,-657.18 268.53,-557.13 261.95,-508.74"/>
<polygon fill="#63b8ff" stroke="#63b8ff" points="265.43,-508.33 260.72,-498.84 258.48,-509.2 265.43,-508.33"/>
</a>
</g>
</g>
<!-- Node9&#45;&gt;Node3 -->
<g id="edge10_Node000009_Node000003" class="edge">
<title>Node9&#45;&gt;Node3</title>
<g id="a_edge10_Node000009_Node000003"><a xlink:title=" ">
<path fill="none" stroke="#63b8ff" d="M726.15,-845.44C667.74,-857.21 571.32,-877.35 489,-897.95 481.06,-899.94 472.74,-902.14 464.53,-904.39"/>
<polygon fill="#63b8ff" stroke="#63b8ff" points="463.59,-901.01 454.9,-907.06 465.47,-907.76 463.59,-901.01"/>
</a>
</g>
</g>
<!-- Node9&#45;&gt;Node4 -->
<g id="edge9_Node000009_Node000004" class="edge">
<title>Node9&#45;&gt;Node4</title>
<g id="a_edge9_Node000009_Node000004"><a xlink:title=" ">
<path fill="none" stroke="#63b8ff" d="M803.44,-845.4C840.16,-862.79 914.48,-898 962.51,-920.75"/>
<polygon fill="#63b8ff" stroke="#63b8ff" points="960.72,-923.78 971.26,-924.9 963.72,-917.45 960.72,-923.78"/>
</a>
</g>
</g>
<!-- Node10 -->
<g id="Node000010" class="node">
<title>Node10</title>
<g id="a_Node000010"><a xlink:href="../../d5/d72/classLSM1x0A__LoRaWAN.html#a3fdd1ac318a5ad2559323e5d57e36a5e" target="_top" xlink:title="Enables or disables specific sub&#45;bands for regions supporting Channel Masks (e.g.,...">
<polygon fill="white" stroke="#666666" points="1103.25,-654.95 913.25,-654.95 913.25,-634.95 1103.25,-634.95 1103.25,-654.95"/>
<text text-anchor="middle" x="1008.25" y="-641.45" font-family="Helvetica,sans-Serif" font-size="10.00">LSM1x0A_LoRaWAN::setChannelMask</text>
</a>
</g>
</g>
<!-- Node9&#45;&gt;Node10 -->
<g id="edge12_Node000009_Node000010" class="edge">
<title>Node9&#45;&gt;Node10</title>
<g id="a_edge12_Node000009_Node000010"><a xlink:title=" ">
<path fill="none" stroke="#63b8ff" d="M840.68,-824.45C853.4,-820.55 866.3,-815.22 877.25,-807.95 934.12,-770.19 977.75,-699.61 996.79,-665.05"/>
<polygon fill="#63b8ff" stroke="#63b8ff" points="999.72,-666.98 1001.37,-656.52 993.55,-663.67 999.72,-666.98"/>
</a>
</g>
</g>
<!-- Node11 -->
<g id="Node000011" class="node">
<title>Node11</title>
<g id="a_Node000011"><a xlink:href="../../d8/d92/classLSM1x0A__Controller.html#a62476e30e50c7fe120aeb8df4b828675" target="_top" xlink:title="Synchronously/blockingly waits for an asynchronous event to occur. Useful for wrapping commands like ...">
<polygon fill="white" stroke="#666666" points="1061.25,-850.95 955.25,-850.95 955.25,-818.95 1061.25,-818.95 1061.25,-850.95"/>
<text text-anchor="start" x="963.25" y="-837.45" font-family="Helvetica,sans-Serif" font-size="10.00">LSM1x0A_Controller</text>
<text text-anchor="middle" x="1008.25" y="-825.45" font-family="Helvetica,sans-Serif" font-size="10.00">::waitForEvent</text>
</a>
</g>
</g>
<!-- Node9&#45;&gt;Node11 -->
<g id="edge15_Node000009_Node000011" class="edge">
<title>Node9&#45;&gt;Node11</title>
<g id="a_edge15_Node000009_Node000011"><a xlink:title=" ">
<path fill="none" stroke="#63b8ff" d="M846.4,-834.95C876.91,-834.95 913.15,-834.95 943.49,-834.95"/>
<polygon fill="#63b8ff" stroke="#63b8ff" points="943.3,-838.45 953.3,-834.95 943.3,-831.45 943.3,-838.45"/>
</a>
</g>
</g>
<!-- Node10&#45;&gt;Node2 -->
<g id="edge14_Node000010_Node000002" class="edge">
<title>Node10&#45;&gt;Node2</title>
<g id="a_edge14_Node000010_Node000002"><a xlink:title=" ">
<path fill="none" stroke="#63b8ff" d="M1006.47,-634.73C1001.02,-566.01 966.1,-172.04 877.25,-101.95 692.09,44.11 528.15,29.06 347,-121.95 295.42,-164.95 269.36,-377.61 261.57,-453.76"/>
<polygon fill="#63b8ff" stroke="#63b8ff" points="258.13,-452.96 260.62,-463.26 265.09,-453.65 258.13,-452.96"/>
</a>
</g>
</g>
<!-- Node10&#45;&gt;Node7 -->
<g id="edge13_Node000010_Node000007" class="edge">
<title>Node10&#45;&gt;Node7</title>
<g id="a_edge13_Node000010_Node000007"><a xlink:title=" ">
<path fill="none" stroke="#63b8ff" d="M1017.05,-655.28C1047.59,-695.76 1159.42,-843.95 1199.82,-897.49"/>
<polygon fill="#63b8ff" stroke="#63b8ff" points="1196.97,-899.52 1205.79,-905.4 1202.56,-895.31 1196.97,-899.52"/>
</a>
</g>
</g>
<!-- Node12&#45;&gt;Node10 -->
<g id="edge21_Node000012_Node000010" class="edge">
<title>Node12&#45;&gt;Node10</title>
<g id="a_edge21_Node000012_Node000010"><a xlink:title=" ">
<path fill="none" stroke="#63b8ff" d="M641.74,-484.29C719.4,-488.81 836.93,-498.64 877.25,-517.95 929.18,-542.82 973.13,-596.76 994.09,-625.7"/>
<polygon fill="#63b8ff" stroke="#63b8ff" points="991.02,-627.41 999.65,-633.56 996.74,-623.37 991.02,-627.41"/>
</a>
</g>
</g>
<!-- Node13 -->
<g id="Node000013" class="node">
<title>Node13</title>
<g id="a_Node000013"><a xlink:href="../../d5/d72/classLSM1x0A__LoRaWAN.html#af0baa3db4c7fab580d6b19a9e92472f6" target="_top" xlink:title="Enables or disables Adaptive Data Rate (ADR).">
<polygon fill="white" stroke="#666666" points="856.25,-798.95 704.5,-798.95 704.5,-778.95 856.25,-778.95 856.25,-798.95"/>
<text text-anchor="middle" x="780.38" y="-785.45" font-family="Helvetica,sans-Serif" font-size="10.00">LSM1x0A_LoRaWAN::setADR</text>
</a>
</g>
</g>
<!-- Node12&#45;&gt;Node13 -->
<g id="edge17_Node000012_Node000013" class="edge">
<title>Node12&#45;&gt;Node13</title>
<g id="a_edge17_Node000012_Node000013"><a xlink:title=" ">
<path fill="none" stroke="#63b8ff" d="M570.43,-497.13C574.95,-546.58 595.65,-696.7 683.5,-769.95 686.75,-772.66 690.29,-775.03 694.01,-777.08"/>
<polygon fill="#63b8ff" stroke="#63b8ff" points="692.34,-780.17 702.88,-781.21 695.29,-773.82 692.34,-780.17"/>
</a>
</g>
</g>
<!-- Node14 -->
<g id="Node000014" class="node">
<title>Node14</title>
<g id="a_Node000014"><a xlink:href="../../d5/d72/classLSM1x0A__LoRaWAN.html#a5365ed1596eb84ebf1e3b33b4a10c788" target="_top" xlink:title="Sets the LoRaWAN operational frequency band.">
<polygon fill="white" stroke="#666666" points="856.62,-760.95 704.12,-760.95 704.12,-740.95 856.62,-740.95 856.62,-760.95"/>
<text text-anchor="middle" x="780.38" y="-747.45" font-family="Helvetica,sans-Serif" font-size="10.00">LSM1x0A_LoRaWAN::setBand</text>
</a>
</g>
</g>
<!-- Node12&#45;&gt;Node14 -->
<g id="edge19_Node000012_Node000014" class="edge">
<title>Node12&#45;&gt;Node14</title>
<g id="a_edge19_Node000012_Node000014"><a xlink:title=" ">
<path fill="none" stroke="#63b8ff" d="M571.51,-497.27C578.67,-542.46 605.23,-669.99 683.5,-731.95 686.66,-734.45 690.05,-736.64 693.61,-738.58"/>
<polygon fill="#63b8ff" stroke="#63b8ff" points="692.1,-741.74 702.65,-742.72 695.02,-735.37 692.1,-741.74"/>
</a>
</g>
</g>
<!-- Node15 -->
<g id="Node000015" class="node">
<title>Node15</title>
<g id="a_Node000015"><a xlink:href="../../d5/d72/classLSM1x0A__LoRaWAN.html#a9d9285c43414337a0ccb3a6cd7ca06e6" target="_top" xlink:title="Configures the number of retries for Confirmed uplinks.">
<polygon fill="white" stroke="#666666" points="862.62,-722.95 698.12,-722.95 698.12,-690.95 862.62,-690.95 862.62,-722.95"/>
<text text-anchor="start" x="706.12" y="-709.45" font-family="Helvetica,sans-Serif" font-size="10.00">LSM1x0A_LoRaWAN::setConfirm</text>
<text text-anchor="middle" x="780.38" y="-697.45" font-family="Helvetica,sans-Serif" font-size="10.00">Retry</text>
</a>
</g>
</g>
<!-- Node12&#45;&gt;Node15 -->
<g id="edge22_Node000012_Node000015" class="edge">
<title>Node12&#45;&gt;Node15</title>
<g id="a_edge22_Node000012_Node000015"><a xlink:title=" ">
<path fill="none" stroke="#63b8ff" d="M573.77,-497.42C585.23,-535.98 619.17,-632.59 683.5,-681.95 684.86,-682.99 686.27,-684 687.71,-684.96"/>
<polygon fill="#63b8ff" stroke="#63b8ff" points="685.93,-687.98 696.34,-689.96 689.44,-681.92 685.93,-687.98"/>
</a>
</g>
</g>
<!-- Node16 -->
<g id="Node000016" class="node">
<title>Node16</title>
<g id="a_Node000016"><a xlink:href="../../d5/d72/classLSM1x0A__LoRaWAN.html#a56345ceeafa0b9059d6de4e69eddc82e" target="_top" xlink:title="Sets the Data Rate (DR) of the module.">
<polygon fill="white" stroke="#666666" points="866.38,-672.95 694.38,-672.95 694.38,-652.95 866.38,-652.95 866.38,-672.95"/>
<text text-anchor="middle" x="780.38" y="-659.45" font-family="Helvetica,sans-Serif" font-size="10.00">LSM1x0A_LoRaWAN::setDataRate</text>
</a>
</g>
</g>
<!-- Node12&#45;&gt;Node16 -->
<g id="edge24_Node000012_Node000016" class="edge">
<title>Node12&#45;&gt;Node16</title>
<g id="a_edge24_Node000012_Node000016"><a xlink:title=" ">
<path fill="none" stroke="#63b8ff" d="M575.68,-497.26C589.74,-530.68 626.61,-606.87 683.5,-643.95 685.64,-645.34 687.85,-646.63 690.13,-647.84"/>
<polygon fill="#63b8ff" stroke="#63b8ff" points="688.55,-650.96 699.1,-651.92 691.45,-644.59 688.55,-650.96"/>
</a>
</g>
</g>
<!-- Node17 -->
<g id="Node000017" class="node">
<title>Node17</title>
<g id="a_Node000017"><a xlink:href="../../d5/d72/classLSM1x0A__LoRaWAN.html#a8494083816ab885cb07fc3b08de029f4" target="_top" xlink:title="Sets the LoRaWAN Device Address (DevAddr) for ABP mode.">
<polygon fill="white" stroke="#666666" points="864.5,-634.95 696.25,-634.95 696.25,-614.95 864.5,-614.95 864.5,-634.95"/>
<text text-anchor="middle" x="780.38" y="-621.45" font-family="Helvetica,sans-Serif" font-size="10.00">LSM1x0A_LoRaWAN::setDevAddr</text>
</a>
</g>
</g>
<!-- Node12&#45;&gt;Node17 -->
<g id="edge26_Node000012_Node000017" class="edge">
<title>Node12&#45;&gt;Node17</title>
<g id="a_edge26_Node000012_Node000017"><a xlink:title=" ">
<path fill="none" stroke="#63b8ff" d="M579.24,-497.41C596.72,-524.7 635.6,-578.97 683.5,-605.95 686.34,-607.55 689.3,-609.02 692.33,-610.36"/>
<polygon fill="#63b8ff" stroke="#63b8ff" points="690.92,-613.57 701.51,-613.93 693.46,-607.04 690.92,-613.57"/>
</a>
</g>
</g>
<!-- Node18 -->
<g id="Node000018" class="node">
<title>Node18</title>
<g id="a_Node000018"><a xlink:href="../../d5/d72/classLSM1x0A__LoRaWAN.html#ad320634e52d7ea907043cc50dd37c5b0" target="_top" xlink:title="Sets the LoRaWAN Device EUI (DevEUI).">
<polygon fill="white" stroke="#666666" points="863,-596.95 697.75,-596.95 697.75,-576.95 863,-576.95 863,-596.95"/>
<text text-anchor="middle" x="780.38" y="-583.45" font-family="Helvetica,sans-Serif" font-size="10.00">LSM1x0A_LoRaWAN::setDevEUI</text>
</a>
</g>
</g>
<!-- Node12&#45;&gt;Node18 -->
<g id="edge28_Node000012_Node000018" class="edge">
<title>Node12&#45;&gt;Node18</title>
<g id="a_edge28_Node000012_Node000018"><a xlink:title=" ">
<path fill="none" stroke="#63b8ff" d="M585.45,-497.21C606.27,-517.12 644.4,-550.34 683.5,-567.95 687.76,-569.87 692.22,-571.6 696.78,-573.15"/>
<polygon fill="#63b8ff" stroke="#63b8ff" points="695.53,-576.43 706.12,-576.02 697.59,-569.74 695.53,-576.43"/>
</a>
</g>
</g>
<!-- Node19 -->
<g id="Node000019" class="node">
<title>Node19</title>
<g id="a_Node000019"><a xlink:href="../../d5/d72/classLSM1x0A__LoRaWAN.html#a031023b0d2dd5db3c51c2db6ae7801cc" target="_top" xlink:title="Enables or disables the Duty Cycle limitation (EU regions mostly).">
<polygon fill="white" stroke="#666666" points="855.88,-558.95 704.88,-558.95 704.88,-526.95 855.88,-526.95 855.88,-558.95"/>
<text text-anchor="start" x="712.88" y="-545.45" font-family="Helvetica,sans-Serif" font-size="10.00">LSM1x0A_LoRaWAN::setDuty</text>
<text text-anchor="middle" x="780.38" y="-533.45" font-family="Helvetica,sans-Serif" font-size="10.00">Cycle</text>
</a>
</g>
</g>
<!-- Node12&#45;&gt;Node19 -->
<g id="edge30_Node000012_Node000019" class="edge">
<title>Node12&#45;&gt;Node19</title>
<g id="a_edge30_Node000012_Node000019"><a xlink:title=" ">
<path fill="none" stroke="#63b8ff" d="M625.01,-497.4C651.95,-505.35 684.48,-514.95 712.73,-523.28"/>
<polygon fill="#63b8ff" stroke="#63b8ff" points="711.69,-526.62 722.27,-526.1 713.67,-519.91 711.69,-526.62"/>
</a>
</g>
</g>
<!-- Node20 -->
<g id="Node000020" class="node">
<title>Node20</title>
<g id="a_Node000020"><a xlink:href="../../d5/d72/classLSM1x0A__LoRaWAN.html#a6b179d5825c49af0f391dfc539912f64" target="_top" xlink:title="Sets the delay for the Join1 receive window.">
<polygon fill="white" stroke="#666666" points="857,-470.95 703.75,-470.95 703.75,-438.95 857,-438.95 857,-470.95"/>
<text text-anchor="start" x="711.75" y="-457.45" font-family="Helvetica,sans-Serif" font-size="10.00">LSM1x0A_LoRaWAN::setJoin1</text>
<text text-anchor="middle" x="780.38" y="-445.45" font-family="Helvetica,sans-Serif" font-size="10.00">Delay</text>
</a>
</g>
</g>
<!-- Node12&#45;&gt;Node20 -->
<g id="edge32_Node000012_Node000020" class="edge">
<title>Node12&#45;&gt;Node20</title>
<g id="a_edge32_Node000012_Node000020"><a xlink:title=" ">
<path fill="none" stroke="#63b8ff" d="M641.86,-471.96C658.21,-469.94 675.72,-467.77 692.58,-465.69"/>
<polygon fill="#63b8ff" stroke="#63b8ff" points="692.55,-469.22 702.05,-464.52 691.69,-462.27 692.55,-469.22"/>
</a>
</g>
</g>
<!-- Node21 -->
<g id="Node000021" class="node">
<title>Node21</title>
<g id="a_Node000021"><a xlink:href="../../d5/d72/classLSM1x0A__LoRaWAN.html#a4545d0caad41558cdb9bae8286b104d8" target="_top" xlink:title="Sets the delay for the Join2 receive window.">
<polygon fill="white" stroke="#666666" points="857,-420.95 703.75,-420.95 703.75,-388.95 857,-388.95 857,-420.95"/>
<text text-anchor="start" x="711.75" y="-407.45" font-family="Helvetica,sans-Serif" font-size="10.00">LSM1x0A_LoRaWAN::setJoin2</text>
<text text-anchor="middle" x="780.38" y="-395.45" font-family="Helvetica,sans-Serif" font-size="10.00">Delay</text>
</a>
</g>
</g>
<!-- Node12&#45;&gt;Node21 -->
<g id="edge34_Node000012_Node000021" class="edge">
<title>Node12&#45;&gt;Node21</title>
<g id="a_edge34_Node000012_Node000021"><a xlink:title=" ">
<path fill="none" stroke="#63b8ff" d="M602.16,-464.52C624.67,-453.71 655.42,-439.8 683.5,-429.95 688.79,-428.09 694.29,-426.3 699.86,-424.59"/>
<polygon fill="#63b8ff" stroke="#63b8ff" points="700.57,-428.03 709.16,-421.84 698.58,-421.32 700.57,-428.03"/>
</a>
</g>
</g>
<!-- Node22 -->
<g id="Node000022" class="node">
<title>Node22</title>
<g id="a_Node000022"><a xlink:href="../../d5/d72/classLSM1x0A__LoRaWAN.html#a06bd50723ec1eb7e144c9141b2ec86fc" target="_top" xlink:title="Sets the LoRaWAN Network ID (NetID).">
<polygon fill="white" stroke="#666666" points="860.75,-370.95 700,-370.95 700,-350.95 860.75,-350.95 860.75,-370.95"/>
<text text-anchor="middle" x="780.38" y="-357.45" font-family="Helvetica,sans-Serif" font-size="10.00">LSM1x0A_LoRaWAN::setNwkID</text>
</a>
</g>
</g>
<!-- Node12&#45;&gt;Node22 -->
<g id="edge36_Node000012_Node000022" class="edge">
<title>Node12&#45;&gt;Node22</title>
<g id="a_edge36_Node000012_Node000022"><a xlink:title=" ">
<path fill="none" stroke="#63b8ff" d="M582.51,-464.74C602.1,-441.98 641.03,-400.98 683.5,-379.95 687.18,-378.13 691.01,-376.48 694.95,-374.99"/>
<polygon fill="#63b8ff" stroke="#63b8ff" points="695.76,-378.41 704.11,-371.9 693.52,-371.78 695.76,-378.41"/>
</a>
</g>
</g>
<!-- Node23 -->
<g id="Node000023" class="node">
<title>Node23</title>
<g id="a_Node000023"><a xlink:href="../../d5/d72/classLSM1x0A__LoRaWAN.html#aa70ada64d28ecca216bb62268e502adf" target="_top" xlink:title="Sets the delay for the RX1 receive window.">
<polygon fill="white" stroke="#666666" points="867.12,-332.95 693.62,-332.95 693.62,-312.95 867.12,-312.95 867.12,-332.95"/>
<text text-anchor="middle" x="780.38" y="-319.45" font-family="Helvetica,sans-Serif" font-size="10.00">LSM1x0A_LoRaWAN::setRx1Delay</text>
</a>
</g>
</g>
<!-- Node12&#45;&gt;Node23 -->
<g id="edge38_Node000012_Node000023" class="edge">
<title>Node12&#45;&gt;Node23</title>
<g id="a_edge38_Node000012_Node000023"><a xlink:title=" ">
<path fill="none" stroke="#63b8ff" d="M577.7,-464.54C593.9,-434.88 632.3,-372.58 683.5,-341.95 685.98,-340.46 688.56,-339.09 691.21,-337.82"/>
<polygon fill="#63b8ff" stroke="#63b8ff" points="692.46,-341.09 700.34,-334.02 689.76,-334.63 692.46,-341.09"/>
</a>
</g>
</g>
<!-- Node24 -->
<g id="Node000024" class="node">
<title>Node24</title>
<g id="a_Node000024"><a xlink:href="../../d5/d72/classLSM1x0A__LoRaWAN.html#a2cf4eff0181b6107d082bccefa24217b" target="_top" xlink:title="Sets the Data Rate (DR) specifically for the RX2 window.">
<polygon fill="white" stroke="#666666" points="875.38,-294.95 685.38,-294.95 685.38,-274.95 875.38,-274.95 875.38,-294.95"/>
<text text-anchor="middle" x="780.38" y="-281.45" font-family="Helvetica,sans-Serif" font-size="10.00">LSM1x0A_LoRaWAN::setRx2DataRate</text>
</a>
</g>
</g>
<!-- Node12&#45;&gt;Node24 -->
<g id="edge40_Node000012_Node000024" class="edge">
<title>Node12&#45;&gt;Node24</title>
<g id="a_edge40_Node000012_Node000024"><a xlink:title=" ">
<path fill="none" stroke="#63b8ff" d="M574.77,-464.61C587.65,-429.11 623.29,-344.84 683.5,-303.95 685.47,-302.61 687.52,-301.36 689.63,-300.19"/>
<polygon fill="#63b8ff" stroke="#63b8ff" points="690.96,-303.43 698.48,-295.97 687.95,-297.11 690.96,-303.43"/>
</a>
</g>
</g>
<!-- Node25 -->
<g id="Node000025" class="node">
<title>Node25</title>
<g id="a_Node000025"><a xlink:href="../../d5/d72/classLSM1x0A__LoRaWAN.html#a42d2137b475b57e19d891a5f1ac93221" target="_top" xlink:title="Sets the delay for the RX2 receive window.">
<polygon fill="white" stroke="#666666" points="867.12,-256.95 693.62,-256.95 693.62,-236.95 867.12,-236.95 867.12,-256.95"/>
<text text-anchor="middle" x="780.38" y="-243.45" font-family="Helvetica,sans-Serif" font-size="10.00">LSM1x0A_LoRaWAN::setRx2Delay</text>
</a>
</g>
</g>
<!-- Node12&#45;&gt;Node25 -->
<g id="edge42_Node000012_Node000025" class="edge">
<title>Node12&#45;&gt;Node25</title>
<g id="a_edge42_Node000012_Node000025"><a xlink:title=" ">
<path fill="none" stroke="#63b8ff" d="M572.84,-464.6C582.68,-423.89 614.11,-317.5 683.5,-265.95 685.09,-264.76 686.74,-263.65 688.43,-262.6"/>
<polygon fill="#63b8ff" stroke="#63b8ff" points="690.01,-265.72 697.23,-257.97 686.75,-259.53 690.01,-265.72"/>
</a>
</g>
</g>
<!-- Node26 -->
<g id="Node000026" class="node">
<title>Node26</title>
<g id="a_Node000026"><a xlink:href="../../d5/d72/classLSM1x0A__LoRaWAN.html#a689f7dfda1dfeae11ea397c2ddf2ad37" target="_top" xlink:title="Sets the precise frequency for the RX2 window.">
<polygon fill="white" stroke="#666666" points="877.25,-218.95 683.5,-218.95 683.5,-198.95 877.25,-198.95 877.25,-218.95"/>
<text text-anchor="middle" x="780.38" y="-205.45" font-family="Helvetica,sans-Serif" font-size="10.00">LSM1x0A_LoRaWAN::setRx2Frequency</text>
</a>
</g>
</g>
<!-- Node12&#45;&gt;Node26 -->
<g id="edge44_Node000012_Node000026" class="edge">
<title>Node12&#45;&gt;Node26</title>
<g id="a_edge44_Node000012_Node000026"><a xlink:title=" ">
<path fill="none" stroke="#63b8ff" d="M571.46,-464.5C578.51,-418.96 604.81,-290.44 683.5,-227.95 684.83,-226.89 686.2,-225.89 687.61,-224.94"/>
<polygon fill="#63b8ff" stroke="#63b8ff" points="689.11,-228.11 696.07,-220.12 685.65,-222.03 689.11,-228.11"/>
</a>
</g>
</g>
<!-- Node27 -->
<g id="Node000027" class="node">
<title>Node27</title>
<g id="a_Node000027"><a xlink:href="../../d5/d72/classLSM1x0A__LoRaWAN.html#a1df10d7ae6bf45b537d28d3d5c4b88d7" target="_top" xlink:title="Sets the transmission power index.">
<polygon fill="white" stroke="#666666" points="864.88,-180.95 695.88,-180.95 695.88,-160.95 864.88,-160.95 864.88,-180.95"/>
<text text-anchor="middle" x="780.38" y="-167.45" font-family="Helvetica,sans-Serif" font-size="10.00">LSM1x0A_LoRaWAN::setTxPower</text>
</a>
</g>
</g>
<!-- Node12&#45;&gt;Node27 -->
<g id="edge46_Node000012_Node000027" class="edge">
<title>Node12&#45;&gt;Node27</title>
<g id="a_edge46_Node000012_Node000027"><a xlink:title=" ">
<path fill="none" stroke="#63b8ff" d="M570.39,-464.65C574.8,-414.88 595.21,-263.73 683.5,-189.95 684.64,-189 685.8,-188.09 687,-187.23"/>
<polygon fill="#63b8ff" stroke="#63b8ff" points="688.68,-190.3 695.43,-182.14 685.06,-184.31 688.68,-190.3"/>
</a>
</g>
</g>
<!-- Node28 -->
<g id="Node000028" class="node">
<title>Node28</title>
<g id="a_Node000028"><a xlink:href="../../d5/d72/classLSM1x0A__LoRaWAN.html#a059fd6a9356c4ecadd5a98294da5952d" target="_top" xlink:title="Configures the number of repetitions for Unconfirmed uplinks.">
<polygon fill="white" stroke="#666666" points="867.88,-142.95 692.88,-142.95 692.88,-110.95 867.88,-110.95 867.88,-142.95"/>
<text text-anchor="start" x="700.88" y="-129.45" font-family="Helvetica,sans-Serif" font-size="10.00">LSM1x0A_LoRaWAN::setUnconfirm</text>
<text text-anchor="middle" x="780.38" y="-117.45" font-family="Helvetica,sans-Serif" font-size="10.00">Retry</text>
</a>
</g>
</g>
<!-- Node12&#45;&gt;Node28 -->
<g id="edge48_Node000012_Node000028" class="edge">
<title>Node12&#45;&gt;Node28</title>
<g id="a_edge48_Node000012_Node000028"><a xlink:title=" ">
<path fill="none" stroke="#63b8ff" d="M569.77,-464.75C572.4,-411.46 588.23,-239.96 683.5,-151.95 684.27,-151.23 685.07,-150.54 685.87,-149.86"/>
<polygon fill="#63b8ff" stroke="#63b8ff" points="687.72,-152.84 693.87,-144.21 683.69,-147.12 687.72,-152.84"/>
</a>
</g>
</g>
<!-- Node13&#45;&gt;Node2 -->
<g id="edge18_Node000013_Node000002" class="edge">
<title>Node13&#45;&gt;Node2</title>
<g id="a_edge18_Node000013_Node000002"><a xlink:title=" ">
<path fill="none" stroke="#63b8ff" d="M705.36,-778.49C596.14,-761.69 399.08,-725.64 347,-677.95 296.35,-631.57 273.12,-550.58 264,-508.34"/>
<polygon fill="#63b8ff" stroke="#63b8ff" points="267.48,-507.86 262.05,-498.76 260.62,-509.26 267.48,-507.86"/>
</a>
</g>
</g>
<!-- Node14&#45;&gt;Node2 -->
<g id="edge20_Node000014_Node000002" class="edge">
<title>Node14&#45;&gt;Node2</title>
<g id="a_edge20_Node000014_Node000002"><a xlink:title=" ">
<path fill="none" stroke="#63b8ff" d="M707.73,-740.46C599.67,-723.42 401.76,-687.03 347,-641.95 303.73,-606.32 278.37,-543.61 266.74,-507.88"/>
<polygon fill="#63b8ff" stroke="#63b8ff" points="270.21,-507.24 263.89,-498.74 263.52,-509.32 270.21,-507.24"/>
</a>
</g>
</g>
<!-- Node15&#45;&gt;Node2 -->
<g id="edge23_Node000015_Node000002" class="edge">
<title>Node15&#45;&gt;Node2</title>
<g id="a_edge23_Node000015_Node000002"><a xlink:title=" ">
<path fill="none" stroke="#63b8ff" d="M697.74,-696.13C588.33,-680.29 401.57,-648.15 347,-606.95 311.88,-580.43 285.49,-535.78 271.15,-507.37"/>
<polygon fill="#63b8ff" stroke="#63b8ff" points="274.46,-506.16 266.92,-498.71 268.17,-509.23 274.46,-506.16"/>
</a>
</g>
</g>
<!-- Node16&#45;&gt;Node2 -->
<g id="edge25_Node000016_Node000002" class="edge">
<title>Node16&#45;&gt;Node2</title>
<g id="a_edge25_Node000016_Node000002"><a xlink:title=" ">
<path fill="none" stroke="#63b8ff" d="M694.27,-660.63C602.56,-654.66 455.21,-634.71 347,-569.95 319.32,-553.38 294.14,-526.09 277.88,-506.09"/>
<polygon fill="#63b8ff" stroke="#63b8ff" points="280.74,-504.06 271.79,-498.39 275.25,-508.41 280.74,-504.06"/>
</a>
</g>
</g>
<!-- Node17&#45;&gt;Node2 -->
<g id="edge27_Node000017_Node000002" class="edge">
<title>Node17&#45;&gt;Node2</title>
<g id="a_edge27_Node000017_Node000002"><a xlink:title=" ">
<path fill="none" stroke="#63b8ff" d="M696.02,-618.09C606.76,-608.52 462.4,-586.49 347,-537.95 326.24,-529.22 304.99,-515.61 288.58,-503.88"/>
<polygon fill="#63b8ff" stroke="#63b8ff" points="290.87,-501.22 280.73,-498.14 286.74,-506.87 290.87,-501.22"/>
</a>
</g>
</g>
<!-- Node18&#45;&gt;Node2 -->
<g id="edge29_Node000018_Node000002" class="edge">
<title>Node18&#45;&gt;Node2</title>
<g id="a_edge29_Node000018_Node000002"><a xlink:title=" ">
<path fill="none" stroke="#63b8ff" d="M697.62,-576.91C610.03,-565.2 467.34,-543.35 347,-511.95 335.48,-508.94 323.32,-505.11 311.84,-501.17"/>
<polygon fill="#63b8ff" stroke="#63b8ff" points="313.1,-497.9 302.51,-497.88 310.78,-504.5 313.1,-497.9"/>
</a>
</g>
</g>
<!-- Node19&#45;&gt;Node2 -->
<g id="edge31_Node000019_Node000002" class="edge">
<title>Node19&#45;&gt;Node2</title>
<g id="a_edge31_Node000019_Node000002"><a xlink:title=" ">
<path fill="none" stroke="#63b8ff" d="M704.64,-534.04C601.96,-521.81 419.06,-500.02 322.6,-488.53"/>
<polygon fill="#63b8ff" stroke="#63b8ff" points="323.12,-485.06 312.78,-487.36 322.3,-492.01 323.12,-485.06"/>
</a>
</g>
</g>
<!-- Node20&#45;&gt;Node2 -->
<g id="edge33_Node000020_Node000002" class="edge">
<title>Node20&#45;&gt;Node2</title>
<g id="a_edge33_Node000020_Node000002"><a xlink:title=" ">
<path fill="none" stroke="#63b8ff" d="M703.5,-453.04C644.87,-452.09 561.73,-451.88 489,-455.95 432.62,-459.1 368.8,-466.33 322.72,-472.21"/>
<polygon fill="#63b8ff" stroke="#63b8ff" points="322.37,-468.72 312.9,-473.48 323.26,-475.67 322.37,-468.72"/>
</a>
</g>
</g>
<!-- Node21&#45;&gt;Node2 -->
<g id="edge35_Node000021_Node000002" class="edge">
<title>Node21&#45;&gt;Node2</title>
<g id="a_edge35_Node000021_Node000002"><a xlink:title=" ">
<path fill="none" stroke="#63b8ff" d="M703.38,-409.76C616.53,-416.18 470.46,-429.77 347,-454.95 338.33,-456.72 329.28,-458.94 320.42,-461.34"/>
<polygon fill="#63b8ff" stroke="#63b8ff" points="319.48,-457.97 310.8,-464.05 321.38,-464.71 319.48,-457.97"/>
</a>
</g>
</g>
<!-- Node22&#45;&gt;Node2 -->
<g id="edge37_Node000022_Node000002" class="edge">
<title>Node22&#45;&gt;Node2</title>
<g id="a_edge37_Node000022_Node000002"><a xlink:title=" ">
<path fill="none" stroke="#63b8ff" d="M699.71,-366.22C611.45,-373.87 465.88,-391.94 347,-432.95 328.51,-439.33 309.3,-449.35 293.56,-458.6"/>
<polygon fill="#63b8ff" stroke="#63b8ff" points="291.8,-455.57 285.05,-463.73 295.42,-461.56 291.8,-455.57"/>
</a>
</g>
</g>
<!-- Node23&#45;&gt;Node2 -->
<g id="edge39_Node000023_Node000002" class="edge">
<title>Node23&#45;&gt;Node2</title>
<g id="a_edge39_Node000023_Node000002"><a xlink:title=" ">
<path fill="none" stroke="#63b8ff" d="M693.24,-323.48C602.29,-327.36 457.1,-343.2 347,-400.95 320.76,-414.71 296.28,-438.19 279.84,-456.16"/>
<polygon fill="#63b8ff" stroke="#63b8ff" points="277.48,-453.54 273.45,-463.34 282.71,-458.2 277.48,-453.54"/>
</a>
</g>
</g>
<!-- Node24&#45;&gt;Node2 -->
<g id="edge41_Node000024_Node000002" class="edge">
<title>Node24&#45;&gt;Node2</title>
<g id="a_edge41_Node000024_Node000002"><a xlink:title=" ">
<path fill="none" stroke="#63b8ff" d="M685.15,-278.72C591.6,-277.21 447.94,-287.94 347,-355.95 310.5,-380.54 284.37,-425.71 270.48,-454.49"/>
<polygon fill="#63b8ff" stroke="#63b8ff" points="267.44,-452.73 266.4,-463.27 273.79,-455.68 267.44,-452.73"/>
</a>
</g>
</g>
<!-- Node25&#45;&gt;Node2 -->
<g id="edge43_Node000025_Node000002" class="edge">
<title>Node25&#45;&gt;Node2</title>
<g id="a_edge43_Node000025_Node000002"><a xlink:title=" ">
<path fill="none" stroke="#63b8ff" d="M709.6,-236.49C616.83,-226.6 452.34,-223.58 347,-304.95 298.36,-342.51 274.63,-414.19 264.81,-453.49"/>
<polygon fill="#63b8ff" stroke="#63b8ff" points="261.44,-452.56 262.55,-463.1 268.25,-454.17 261.44,-452.56"/>
</a>
</g>
</g>
<!-- Node26&#45;&gt;Node2 -->
<g id="edge45_Node000026_Node000002" class="edge">
<title>Node26&#45;&gt;Node2</title>
<g id="a_edge45_Node000026_Node000002"><a xlink:title=" ">
<path fill="none" stroke="#63b8ff" d="M683.17,-205.86C571.72,-204.31 397,-208.72 347,-248.95 283.11,-300.36 265.58,-403.6 260.79,-453.16"/>
<polygon fill="#63b8ff" stroke="#63b8ff" points="257.31,-452.77 259.95,-463.03 264.28,-453.36 257.31,-452.77"/>
</a>
</g>
</g>
<!-- Node27&#45;&gt;Node2 -->
<g id="edge47_Node000027_Node000002" class="edge">
<title>Node27&#45;&gt;Node2</title>
<g id="a_edge47_Node000027_Node000002"><a xlink:title=" ">
<path fill="none" stroke="#63b8ff" d="M732.67,-160.48C646.24,-144.01 459.89,-122.56 347,-212.95 272.19,-272.85 260.33,-397.78 258.9,-453.31"/>
<polygon fill="#63b8ff" stroke="#63b8ff" points="255.4,-453.1 258.75,-463.15 262.4,-453.21 255.4,-453.1"/>
</a>
</g>
</g>
<!-- Node28&#45;&gt;Node2 -->
<g id="edge49_Node000028_Node000002" class="edge">
<title>Node28&#45;&gt;Node2</title>
<g id="a_edge49_Node000028_Node000002"><a xlink:title=" ">
<path fill="none" stroke="#63b8ff" d="M692.49,-121.55C581.4,-116.57 397.37,-115.39 347,-157.95 301.15,-196.69 272,-383.18 262.45,-453.79"/>
<polygon fill="#63b8ff" stroke="#63b8ff" points="259.03,-452.95 261.19,-463.32 265.97,-453.87 259.03,-452.95"/>
</a>
</g>
</g>
<!-- Node30&#45;&gt;Node31 -->
<g id="edge52_Node000030_Node000031" class="edge">
<title>Node30&#45;&gt;Node31</title>
<g id="a_edge52_Node000030_Node000031"><a xlink:title=" ">
<path fill="none" stroke="#63b8ff" d="M621.73,-1092.44C639.89,-1094.34 660.86,-1096.54 681.47,-1098.7"/>
<polygon fill="#63b8ff" stroke="#63b8ff" points="681.04,-1102.17 691.35,-1099.73 681.77,-1095.21 681.04,-1102.17"/>
</a>
</g>
</g>
<!-- Node32 -->
<g id="Node000032" class="node">
<title>Node32</title>
<g id="a_Node000032"><a xlink:href="../../d6/d3c/classLSM1x0A__AtParser.html#a0ba6f927c54fceece22c17773d3f2600" target="_top" xlink:title="Sends a command and extracts a value from the response.">
<polygon fill="white" stroke="#666666" points="1095.38,-1124.95 921.12,-1124.95 921.12,-1092.95 1095.38,-1092.95 1095.38,-1124.95"/>
<text text-anchor="start" x="929.12" y="-1111.45" font-family="Helvetica,sans-Serif" font-size="10.00">LSM1x0A_AtParser::sendCommand</text>
<text text-anchor="middle" x="1008.25" y="-1099.45" font-family="Helvetica,sans-Serif" font-size="10.00">WithResponse</text>
</a>
</g>
</g>
<!-- Node31&#45;&gt;Node32 -->
<g id="edge53_Node000031_Node000032" class="edge">
<title>Node31&#45;&gt;Node32</title>
<g id="a_edge53_Node000031_Node000032"><a xlink:title=" ">
<path fill="none" stroke="#63b8ff" d="M867.74,-1108.95C881.49,-1108.95 895.81,-1108.95 909.8,-1108.95"/>
<polygon fill="#63b8ff" stroke="#63b8ff" points="909.42,-1112.45 919.42,-1108.95 909.42,-1105.45 909.42,-1112.45"/>
</a>
</g>
</g>
<!-- Node33 -->
<g id="Node000033" class="node">
<title>Node33</title>
<g id="a_Node000033"><a xlink:href="../../d5/d8b/classUartDriver.html#a5d0f22e8867eebe99273078bb19bd23d" target="_top" xlink:title="Sends data through UART.">
<polygon fill="white" stroke="#666666" points="1270,-1118.95 1161,-1118.95 1161,-1098.95 1270,-1098.95 1270,-1118.95"/>
<text text-anchor="middle" x="1215.5" y="-1105.45" font-family="Helvetica,sans-Serif" font-size="10.00">UartDriver::sendData</text>
</a>
</g>
</g>
<!-- Node32&#45;&gt;Node33 -->
<g id="edge54_Node000032_Node000033" class="edge">
<title>Node32&#45;&gt;Node33</title>
<g id="a_edge54_Node000032_Node000033"><a xlink:title=" ">
<path fill="none" stroke="#63b8ff" d="M1095.7,-1108.95C1113.59,-1108.95 1132.16,-1108.95 1149.14,-1108.95"/>
<polygon fill="#63b8ff" stroke="#63b8ff" points="1149.11,-1112.45 1159.11,-1108.95 1149.11,-1105.45 1149.11,-1112.45"/>
</a>
</g>
</g>
</g>
</svg>

<g id="navigator" transform="translate(0 0)" fill="#404254">
  <rect fill="#f2f5e9" fill-opacity="0.5" stroke="#606060" stroke-width=".5" x="0" y="0" width="60" height="60"/>
  <use id="zoomplus" xlink:href="#zoomPlus" x="17" y="9" onmousedown="handleZoom(evt,'in')"/>
  <use id="zoomminus" xlink:href="#zoomMin" x="42" y="9" onmousedown="handleZoom(evt,'out')"/>
  <use id="reset" xlink:href="#resetDef" x="30" y="36" onmousedown="handleReset()"/>
   <use id="arrowup" xlink:href="#arrowUp" x="0" y="0" onmousedown="handlePan(0,-1)"/>
  <use id="arrowright" xlink:href="#arrowRight" x="0" y="0" onmousedown="handlePan(1,0)"/>
  <use id="arrowdown" xlink:href="#arrowDown" x="0" y="0" onmousedown="handlePan(0,1)"/>
  <use id="arrowleft" xlink:href="#arrowLeft" x="0" y="0" onmousedown="handlePan(-1,0)"/>
</g>
<svg viewBox="0 0 15 15" width="100%" height="30px" preserveAspectRatio="xMaxYMin meet">
 <g id="arrow_out" transform="scale(0.3 0.3)">
  <a xlink:href="classLSM1x0A__LoRaWAN_adeff6b0b4c4104e1d13cfad5262d1105_cgraph_org.svg" target="_base">
   <rect id="button" ry="5" rx="5" y="6" x="6" height="38" width="38"
        fill="#f2f5e9" fill-opacity="0.5" stroke="#606060" stroke-width="1.0"/>
   <path id="arrow"
     d="M 11.500037,31.436501 C 11.940474,20.09759 22.043105,11.32322 32.158766,21.979434 L 37.068811,17.246167 C 37.068811,17.246167 37.088388,32 37.088388,32 L 22.160133,31.978069 C 22.160133,31.978069 26.997745,27.140456 26.997745,27.140456 C 18.528582,18.264221 13.291696,25.230495 11.500037,31.436501 z"
     style="fill:#404040;"/>
  </a>
 </g>
</svg>

<style type='text/css'>
<![CDATA[
[data-mouse-over-selected='false'] { opacity: 0.7; }
[data-mouse-over-selected='true']  { opacity: 1.0; }
]]>
</style>
<script type="application/ecmascript"><![CDATA[
document.addEventListener('DOMContentLoaded', (event) => {
  highlightEdges();
  highlightAdjacentNodes();
});
]]></script>
</svg>
