<?xml version="1.0" encoding="UTF-8" standalone="no"?>
<!DOCTYPE svg PUBLIC "-//W3C//DTD SVG 1.1//EN"
 "http://www.w3.org/Graphics/SVG/1.1/DTD/svg11.dtd">
<!-- Generated by graphviz version 12.2.1 (20241206.2353)
 -->
<!-- Title: LSM1x0A_LoRaWAN::requestLinkCheck Pages: 1 -->
<!--zoomable 1126 -->

<svg id="main" version="1.1" xmlns="http://www.w3.org/2000/svg" xmlns:xlink="http://www.w3.org/1999/xlink" xml:space="preserve" onload="init(evt)">
<style type="text/css"><![CDATA[
.node, .edge {opacity: 0.7;}
.node.selected, .edge.selected {opacity: 1;}
.edge:hover path { stroke: red; }
.edge:hover polygon { stroke: red; fill: red; }
]]></style>

<defs>
  <circle id="rim" cx="0" cy="0" r="7"/>
  <circle id="rim2" cx="0" cy="0" r="3.5"/>
  <g id="zoomPlus">
    <use xlink:href="#rim" fill="#404040"><set attributeName="fill" to="#808080" begin="zoomplus.mouseover" end="zoomplus.mouseout"/></use>
    <path d="M-4,0h8M0,-4v8" fill="none" stroke="white" stroke-width="1.5" pointer-events="none"/>
  </g>
  <g id="zoomMin">
    <use xlink:href="#rim" fill="#404040"><set attributeName="fill" to="#808080" begin="zoomminus.mouseover" end="zoomminus.mouseout"/></use>
    <path d="M-4,0h8" fill="none" stroke="white" stroke-width="1.5" pointer-events="none"/>
  </g>
  <g id="arrowUp" transform="translate(30 24)">
    <use xlink:href="#rim"/>
    <path pointer-events="none" fill="none" stroke="white" stroke-width="1.5" d="M0,-3.0v7 M-2.5,-0.5L0,-3.0L2.5,-0.5"/>
  </g>
  <g id="arrowRight" transform="rotate(90) translate(36 -43)">
    <use xlink:href="#rim"/>
    <path pointer-events="none" fill="none" stroke="white" stroke-width="1.5" d="M0,-3.0v7 M-2.5,-0.5L0,-3.0L2.5,-0.5"/>
  </g>
  <g id="arrowDown" transform="rotate(180) translate(-30 -48)">
    <use xlink:href="#rim"/>
    <path pointer-events="none" fill="none" stroke="white" stroke-width="1.5" d="M0,-3.0v7 M-2.5,-0.5L0,-3.0L2.5,-0.5"/>
  </g>
  <g id="arrowLeft" transform="rotate(270) translate(-36 17)">
    <use xlink:href="#rim"/>
    <path pointer-events="none" fill="none" stroke="white" stroke-width="1.5" d="M0,-3.0v7 M-2.5,-0.5L0,-3.0L2.5,-0.5"/>
  </g>
  <g id="resetDef">
    <use xlink:href="#rim2" fill="#404040"><set attributeName="fill" to="#808080" begin="reset.mouseover" end="reset.mouseout"/></use>
  </g>
</defs>
<script type="application/ecmascript">
var viewWidth = 1280;
var viewHeight = 1126;
var sectionId = 'dynsection-54';
</script>
<script type="application/ecmascript" xlink:href="../../svg.min.js"/>
<svg id="graph" class="graph">
<g id="viewport">
<title>LSM1x0A_LoRaWAN::requestLinkCheck</title>
<!-- Node1 -->
<g id="Node000001" class="node">
<title>Node1</title>
<g id="a_Node000001"><a xlink:title="Requests a Link Check MAC command on the next uplink.">
<polygon fill="#999999" stroke="#666666" points="148.75,-812.33 0,-812.33 0,-780.33 148.75,-780.33 148.75,-812.33"/>
<text text-anchor="start" x="8" y="-798.83" font-family="Helvetica,sans-Serif" font-size="10.00">LSM1x0A_LoRaWAN::request</text>
<text text-anchor="middle" x="74.38" y="-786.83" font-family="Helvetica,sans-Serif" font-size="10.00">LinkCheck</text>
</a>
</g>
</g>
<!-- Node2 -->
<g id="Node000002" class="node">
<title>Node2</title>
<g id="a_Node000002"><a xlink:href="../../d5/d72/classLSM1x0A__LoRaWAN.html#a1892801e37c8cd67d37c76108d6f7d49" target="_top" xlink:title="Validates if the device is currently Joined to the network. (Either confirmed by OTAA or statically a...">
<polygon fill="white" stroke="#666666" points="1271.5,-1090.33 1119,-1090.33 1119,-1070.33 1271.5,-1070.33 1271.5,-1090.33"/>
<text text-anchor="middle" x="1195.25" y="-1076.83" font-family="Helvetica,sans-Serif" font-size="10.00">LSM1x0A_LoRaWAN::isJoined</text>
</a>
</g>
</g>
<!-- Node1&#45;&gt;Node2 -->
<g id="edge1_Node000001_Node000002" class="edge">
<title>Node1&#45;&gt;Node2</title>
<g id="a_edge1_Node000001_Node000002"><a xlink:title=" ">
<path fill="none" stroke="#63b8ff" d="M81.32,-812.74C106.24,-878.36 209.01,-1118.33 378.75,-1118.33 378.75,-1118.33 378.75,-1118.33 761.12,-1118.33 882.25,-1118.33 1021.71,-1103.4 1108.92,-1092.26"/>
<polygon fill="#63b8ff" stroke="#63b8ff" points="1109.11,-1095.76 1118.58,-1091.01 1108.21,-1088.82 1109.11,-1095.76"/>
</a>
</g>
</g>
<!-- Node3 -->
<g id="Node000003" class="node">
<title>Node3</title>
<g id="a_Node000003"><a xlink:href="../../d8/d92/classLSM1x0A__Controller.html#afd7d92e60ed6fdae696a955cdbe0ed8c" target="_top" xlink:title="Sends any AT command to the module, returning error if it fails. Internally uses the LsmAtParser logi...">
<polygon fill="white" stroke="#666666" points="290.75,-490.33 184.75,-490.33 184.75,-458.33 290.75,-458.33 290.75,-490.33"/>
<text text-anchor="start" x="192.75" y="-476.83" font-family="Helvetica,sans-Serif" font-size="10.00">LSM1x0A_Controller</text>
<text text-anchor="middle" x="237.75" y="-464.83" font-family="Helvetica,sans-Serif" font-size="10.00">::sendCommand</text>
</a>
</g>
</g>
<!-- Node1&#45;&gt;Node3 -->
<g id="edge2_Node000001_Node000003" class="edge">
<title>Node1&#45;&gt;Node3</title>
<g id="a_edge2_Node000001_Node000003"><a xlink:title=" ">
<path fill="none" stroke="#63b8ff" d="M83.6,-779.92C109.77,-727.71 191.27,-565.08 223.47,-500.83"/>
<polygon fill="#63b8ff" stroke="#63b8ff" points="226.51,-502.57 227.86,-492.06 220.25,-499.44 226.51,-502.57"/>
</a>
</g>
</g>
<!-- Node4 -->
<g id="Node000004" class="node">
<title>Node4</title>
<g id="a_Node000004"><a xlink:href="../../d8/d92/classLSM1x0A__Controller.html#abb0eb380daa3dfb7acffb483c5db8e2b" target="_top" xlink:title="Executes the recovery protocol. First Soft&#45;Reset (ATZ), then Hard&#45;Reset if there is a pin.">
<polygon fill="white" stroke="#666666" points="432.75,-882.33 326.75,-882.33 326.75,-850.33 432.75,-850.33 432.75,-882.33"/>
<text text-anchor="start" x="334.75" y="-868.83" font-family="Helvetica,sans-Serif" font-size="10.00">LSM1x0A_Controller</text>
<text text-anchor="middle" x="379.75" y="-856.83" font-family="Helvetica,sans-Serif" font-size="10.00">::recoverModule</text>
</a>
</g>
</g>
<!-- Node3&#45;&gt;Node4 -->
<g id="edge3_Node000003_Node000004" class="edge">
<title>Node3&#45;&gt;Node4</title>
<g id="a_edge3_Node000003_Node000004"><a xlink:title=" ">
<path fill="none" stroke="#63b8ff" d="M243.08,-490.69C254.79,-534.2 288.74,-656.22 326.75,-754.33 338.33,-784.23 354.12,-817.41 365.26,-839.84"/>
<polygon fill="#63b8ff" stroke="#63b8ff" points="362.02,-841.2 369.63,-848.57 368.28,-838.07 362.02,-841.2"/>
</a>
</g>
</g>
<!-- Node31 -->
<g id="Node000031" class="node">
<title>Node31</title>
<g id="a_Node000031"><a xlink:href="../../d6/d3c/classLSM1x0A__AtParser.html#a29b53c521974387ba6c03afadfaffa4a" target="_top" xlink:title="Sends a simple command and waits for OK/ERROR. Example: sendCommand(&quot;AT+JOIN&quot;);.">
<polygon fill="white" stroke="#666666" points="847.25,-768.33 673,-768.33 673,-748.33 847.25,-748.33 847.25,-768.33"/>
<text text-anchor="middle" x="760.12" y="-754.83" font-family="Helvetica,sans-Serif" font-size="10.00">LSM1x0A_AtParser::sendCommand</text>
</a>
</g>
</g>
<!-- Node3&#45;&gt;Node31 -->
<g id="edge56_Node000003_Node000031" class="edge">
<title>Node3&#45;&gt;Node31</title>
<g id="a_edge56_Node000003_Node000031"><a xlink:title=" ">
<path fill="none" stroke="#63b8ff" d="M243.13,-490.68C252.68,-523.1 278.47,-595.73 326.75,-634.33 356.68,-658.27 594.94,-718.41 704.44,-745.15"/>
<polygon fill="#63b8ff" stroke="#63b8ff" points="703.55,-748.54 714.09,-747.51 705.21,-741.74 703.55,-748.54"/>
</a>
</g>
</g>
<!-- Node4&#45;&gt;Node2 -->
<g id="edge7_Node000004_Node000002" class="edge">
<title>Node4&#45;&gt;Node2</title>
<g id="a_edge7_Node000004_Node000002"><a xlink:title=" ">
<path fill="none" stroke="#63b8ff" d="M385.14,-882.62C394.56,-914.03 419.91,-982.6 468.75,-1013.33 572.94,-1078.91 938.13,-1083.5 1107.18,-1081.93"/>
<polygon fill="#63b8ff" stroke="#63b8ff" points="1107.04,-1085.43 1117,-1081.83 1106.97,-1078.43 1107.04,-1085.43"/>
</a>
</g>
</g>
<!-- Node5 -->
<g id="Node000005" class="node">
<title>Node5</title>
<g id="a_Node000005"><a xlink:href="../../d8/d92/classLSM1x0A__Controller.html#a3f6f25b843fe4fb7042c544deae2ab16" target="_top" xlink:title="Manually clears bits from the internal EventGroup.">
<polygon fill="white" stroke="#666666" points="1041,-1017.33 935,-1017.33 935,-985.33 1041,-985.33 1041,-1017.33"/>
<text text-anchor="start" x="943" y="-1003.83" font-family="Helvetica,sans-Serif" font-size="10.00">LSM1x0A_Controller</text>
<text text-anchor="middle" x="988" y="-991.83" font-family="Helvetica,sans-Serif" font-size="10.00">::clearEvents</text>
</a>
</g>
</g>
<!-- Node4&#45;&gt;Node5 -->
<g id="edge4_Node000004_Node000005" class="edge">
<title>Node4&#45;&gt;Node5</title>
<g id="a_edge4_Node000004_Node000005"><a xlink:title=" ">
<path fill="none" stroke="#63b8ff" d="M387.21,-882.75C398.85,-909.82 426.18,-963.04 468.75,-985.33 546,-1025.79 803.17,-1014.17 923.68,-1006.13"/>
<polygon fill="#63b8ff" stroke="#63b8ff" points="923.65,-1009.64 933.39,-1005.47 923.17,-1002.66 923.65,-1009.64"/>
</a>
</g>
</g>
<!-- Node6 -->
<g id="Node000006" class="node">
<title>Node6</title>
<g id="a_Node000006"><a xlink:href="../../d8/d92/classLSM1x0A__Controller.html#a345d4bd79fa16b18dc33a4ca788fe5f7" target="_top" xlink:title="Performs a hardware reset using the reset pin.">
<polygon fill="white" stroke="#666666" points="601,-976.33 495,-976.33 495,-944.33 601,-944.33 601,-976.33"/>
<text text-anchor="start" x="503" y="-962.83" font-family="Helvetica,sans-Serif" font-size="10.00">LSM1x0A_Controller</text>
<text text-anchor="middle" x="548" y="-950.83" font-family="Helvetica,sans-Serif" font-size="10.00">::hardwareReset</text>
</a>
</g>
</g>
<!-- Node4&#45;&gt;Node6 -->
<g id="edge5_Node000004_Node000006" class="edge">
<title>Node4&#45;&gt;Node6</title>
<g id="a_edge5_Node000004_Node000006"><a xlink:title=" ">
<path fill="none" stroke="#63b8ff" d="M397.65,-882.61C414.48,-898.06 441.64,-920.98 468.75,-935.33 473.67,-937.94 478.9,-940.33 484.24,-942.51"/>
<polygon fill="#63b8ff" stroke="#63b8ff" points="482.58,-945.62 493.17,-945.91 485.07,-939.08 482.58,-945.62"/>
</a>
</g>
</g>
<!-- Node8 -->
<g id="Node000008" class="node">
<title>Node8</title>
<g id="a_Node000008"><a xlink:href="../../d5/d72/classLSM1x0A__LoRaWAN.html#a83e11c0e74ff9e0757db616ab1163424" target="_top" xlink:title="Attempts to recover a lost connection (re&#45;executes OTAA Join if dropped).">
<polygon fill="white" stroke="#666666" points="622.38,-926.33 473.62,-926.33 473.62,-894.33 622.38,-894.33 622.38,-926.33"/>
<text text-anchor="start" x="481.62" y="-912.83" font-family="Helvetica,sans-Serif" font-size="10.00">LSM1x0A_LoRaWAN::recover</text>
<text text-anchor="middle" x="548" y="-900.83" font-family="Helvetica,sans-Serif" font-size="10.00">Connection</text>
</a>
</g>
</g>
<!-- Node4&#45;&gt;Node8 -->
<g id="edge8_Node000004_Node000008" class="edge">
<title>Node4&#45;&gt;Node8</title>
<g id="a_edge8_Node000004_Node000008"><a xlink:title=" ">
<path fill="none" stroke="#63b8ff" d="M432.9,-880.13C445.9,-883.58 460.07,-887.33 473.88,-890.98"/>
<polygon fill="#63b8ff" stroke="#63b8ff" points="472.81,-894.32 483.38,-893.5 474.61,-887.55 472.81,-894.32"/>
</a>
</g>
</g>
<!-- Node12 -->
<g id="Node000012" class="node">
<title>Node12</title>
<g id="a_Node000012"><a xlink:href="../../d5/d72/classLSM1x0A__LoRaWAN.html#ae3be4ce59dfa200369733317df356e97" target="_top" xlink:title="Pushes the RAM&#45;cached variables back down into the hardware module. Restores the operational state af...">
<polygon fill="white" stroke="#666666" points="621.25,-408.33 474.75,-408.33 474.75,-376.33 621.25,-376.33 621.25,-408.33"/>
<text text-anchor="start" x="482.75" y="-394.83" font-family="Helvetica,sans-Serif" font-size="10.00">LSM1x0A_LoRaWAN::restore</text>
<text text-anchor="middle" x="548" y="-382.83" font-family="Helvetica,sans-Serif" font-size="10.00">Config</text>
</a>
</g>
</g>
<!-- Node4&#45;&gt;Node12 -->
<g id="edge17_Node000004_Node000012" class="edge">
<title>Node4&#45;&gt;Node12</title>
<g id="a_edge17_Node000004_Node000012"><a xlink:title=" ">
<path fill="none" stroke="#63b8ff" d="M386.47,-850.02C410.93,-780.29 506.81,-506.93 537.5,-419.43"/>
<polygon fill="#63b8ff" stroke="#63b8ff" points="540.79,-420.6 540.8,-410.01 534.19,-418.29 540.79,-420.6"/>
</a>
</g>
</g>
<!-- Node29 -->
<g id="Node000029" class="node">
<title>Node29</title>
<g id="a_Node000029"><a xlink:href="../../d5/d72/classLSM1x0A__LoRaWAN.html#ace4b04396f1de1f4a54f513f5f378db7" target="_top" xlink:title="Manually overrides the internal joined state tracker.">
<polygon fill="white" stroke="#666666" points="627.25,-838.33 468.75,-838.33 468.75,-818.33 627.25,-818.33 627.25,-838.33"/>
<text text-anchor="middle" x="548" y="-824.83" font-family="Helvetica,sans-Serif" font-size="10.00">LSM1x0A_LoRaWAN::setJoined</text>
</a>
</g>
</g>
<!-- Node4&#45;&gt;Node29 -->
<g id="edge51_Node000004_Node000029" class="edge">
<title>Node4&#45;&gt;Node29</title>
<g id="a_edge51_Node000004_Node000029"><a xlink:title=" ">
<path fill="none" stroke="#63b8ff" d="M432.9,-854.41C451.12,-850.25 471.66,-845.55 490.24,-841.31"/>
<polygon fill="#63b8ff" stroke="#63b8ff" points="490.77,-844.78 499.74,-839.14 489.22,-837.95 490.77,-844.78"/>
</a>
</g>
</g>
<!-- Node30 -->
<g id="Node000030" class="node">
<title>Node30</title>
<g id="a_Node000030"><a xlink:href="../../d8/d92/classLSM1x0A__Controller.html#a11ad21cb5ca33ec51346764a23bd485e" target="_top" xlink:title="Performs a software reset (ATZ Command).">
<polygon fill="white" stroke="#666666" points="601,-800.33 495,-800.33 495,-768.33 601,-768.33 601,-800.33"/>
<text text-anchor="start" x="503" y="-786.83" font-family="Helvetica,sans-Serif" font-size="10.00">LSM1x0A_Controller</text>
<text text-anchor="middle" x="548" y="-774.83" font-family="Helvetica,sans-Serif" font-size="10.00">::softwareReset</text>
</a>
</g>
</g>
<!-- Node4&#45;&gt;Node30 -->
<g id="edge52_Node000004_Node000030" class="edge">
<title>Node4&#45;&gt;Node30</title>
<g id="a_edge52_Node000004_Node000030"><a xlink:title=" ">
<path fill="none" stroke="#63b8ff" d="M402.58,-849.85C419.83,-837.41 444.89,-820.62 468.75,-809.33 473.78,-806.95 479.09,-804.72 484.48,-802.64"/>
<polygon fill="#63b8ff" stroke="#63b8ff" points="485.28,-806.07 493.48,-799.36 482.88,-799.5 485.28,-806.07"/>
</a>
</g>
</g>
<!-- Node7 -->
<g id="Node000007" class="node">
<title>Node7</title>
<g id="a_Node000007"><a xlink:href="../../d6/d3c/classLSM1x0A__AtParser.html#ad2839120da13e56132b95019419be1e5" target="_top" xlink:title="Waits for an event (like BOOTALERT) without sending any command. Useful for hardware reset where the ...">
<polygon fill="white" stroke="#666666" points="830.38,-976.33 689.88,-976.33 689.88,-944.33 830.38,-944.33 830.38,-976.33"/>
<text text-anchor="start" x="697.88" y="-962.83" font-family="Helvetica,sans-Serif" font-size="10.00">LSM1x0A_AtParser::waitFor</text>
<text text-anchor="middle" x="760.12" y="-950.83" font-family="Helvetica,sans-Serif" font-size="10.00">Event</text>
</a>
</g>
</g>
<!-- Node6&#45;&gt;Node7 -->
<g id="edge6_Node000006_Node000007" class="edge">
<title>Node6&#45;&gt;Node7</title>
<g id="a_edge6_Node000006_Node000007"><a xlink:title=" ">
<path fill="none" stroke="#63b8ff" d="M601.48,-960.33C624.67,-960.33 652.47,-960.33 678.21,-960.33"/>
<polygon fill="#63b8ff" stroke="#63b8ff" points="677.97,-963.83 687.97,-960.33 677.97,-956.83 677.97,-963.83"/>
</a>
</g>
</g>
<!-- Node9 -->
<g id="Node000009" class="node">
<title>Node9</title>
<g id="a_Node000009"><a xlink:href="../../d5/d72/classLSM1x0A__LoRaWAN.html#a59f781f3cfd30c11cd3973bcb10a7baa" target="_top" xlink:title="Initiates a LoRaWAN Network Join procedure. This is a blocking function until the module fires an eve...">
<polygon fill="white" stroke="#666666" points="825.88,-920.33 694.38,-920.33 694.38,-900.33 825.88,-900.33 825.88,-920.33"/>
<text text-anchor="middle" x="760.12" y="-906.83" font-family="Helvetica,sans-Serif" font-size="10.00">LSM1x0A_LoRaWAN::join</text>
</a>
</g>
</g>
<!-- Node8&#45;&gt;Node9 -->
<g id="edge9_Node000008_Node000009" class="edge">
<title>Node8&#45;&gt;Node9</title>
<g id="a_edge9_Node000008_Node000009"><a xlink:title=" ">
<path fill="none" stroke="#63b8ff" d="M622.79,-910.33C642.16,-910.33 663.1,-910.33 682.61,-910.33"/>
<polygon fill="#63b8ff" stroke="#63b8ff" points="682.4,-913.83 692.4,-910.33 682.4,-906.83 682.4,-913.83"/>
</a>
</g>
</g>
<!-- Node9&#45;&gt;Node3 -->
<g id="edge12_Node000009_Node000003" class="edge">
<title>Node9&#45;&gt;Node3</title>
<g id="a_edge12_Node000009_Node000003"><a xlink:title=" ">
<path fill="none" stroke="#63b8ff" d="M753.23,-899.99C736.99,-872.48 688.67,-797 627.25,-759.33 508.18,-686.32 429.23,-762.24 326.75,-667.33 277.57,-621.79 253.83,-543.43 244.23,-501.95"/>
<polygon fill="#63b8ff" stroke="#63b8ff" points="247.67,-501.31 242.11,-492.29 240.83,-502.81 247.67,-501.31"/>
</a>
</g>
</g>
<!-- Node9&#45;&gt;Node4 -->
<g id="edge11_Node000009_Node000004" class="edge">
<title>Node9&#45;&gt;Node4</title>
<g id="a_edge11_Node000009_Node000004"><a xlink:title=" ">
<path fill="none" stroke="#63b8ff" d="M710.79,-899.85C685.93,-894.79 655.09,-889.03 627.25,-885.33 565.28,-877.1 494.03,-872.08 444.12,-869.29"/>
<polygon fill="#63b8ff" stroke="#63b8ff" points="444.55,-865.81 434.37,-868.76 444.17,-872.8 444.55,-865.81"/>
</a>
</g>
</g>
<!-- Node9&#45;&gt;Node5 -->
<g id="edge10_Node000009_Node000005" class="edge">
<title>Node9&#45;&gt;Node5</title>
<g id="a_edge10_Node000009_Node000005"><a xlink:title=" ">
<path fill="none" stroke="#63b8ff" d="M822.87,-920.76C834.71,-924.3 846.64,-929.03 857,-935.33 877.43,-947.76 872.66,-962.75 893,-975.33 902.4,-981.15 913.11,-985.68 923.86,-989.22"/>
<polygon fill="#63b8ff" stroke="#63b8ff" points="922.54,-992.48 933.12,-992 924.55,-985.77 922.54,-992.48"/>
</a>
</g>
</g>
<!-- Node10 -->
<g id="Node000010" class="node">
<title>Node10</title>
<g id="a_Node000010"><a xlink:href="../../d5/d72/classLSM1x0A__LoRaWAN.html#a3fdd1ac318a5ad2559323e5d57e36a5e" target="_top" xlink:title="Enables or disables specific sub&#45;bands for regions supporting Channel Masks (e.g.,...">
<polygon fill="white" stroke="#666666" points="1083,-966.33 893,-966.33 893,-946.33 1083,-946.33 1083,-966.33"/>
<text text-anchor="middle" x="988" y="-952.83" font-family="Helvetica,sans-Serif" font-size="10.00">LSM1x0A_LoRaWAN::setChannelMask</text>
</a>
</g>
</g>
<!-- Node9&#45;&gt;Node10 -->
<g id="edge13_Node000009_Node000010" class="edge">
<title>Node9&#45;&gt;Node10</title>
<g id="a_edge13_Node000009_Node000010"><a xlink:title=" ">
<path fill="none" stroke="#63b8ff" d="M812.66,-920.83C845.91,-927.6 889.36,-936.45 924.57,-943.62"/>
<polygon fill="#63b8ff" stroke="#63b8ff" points="923.7,-947.01 934.2,-945.58 925.1,-940.16 923.7,-947.01"/>
</a>
</g>
</g>
<!-- Node11 -->
<g id="Node000011" class="node">
<title>Node11</title>
<g id="a_Node000011"><a xlink:href="../../d8/d92/classLSM1x0A__Controller.html#a62476e30e50c7fe120aeb8df4b828675" target="_top" xlink:title="Synchronously/blockingly waits for an asynchronous event to occur. Useful for wrapping commands like ...">
<polygon fill="white" stroke="#666666" points="1041,-926.33 935,-926.33 935,-894.33 1041,-894.33 1041,-926.33"/>
<text text-anchor="start" x="943" y="-912.83" font-family="Helvetica,sans-Serif" font-size="10.00">LSM1x0A_Controller</text>
<text text-anchor="middle" x="988" y="-900.83" font-family="Helvetica,sans-Serif" font-size="10.00">::waitForEvent</text>
</a>
</g>
</g>
<!-- Node9&#45;&gt;Node11 -->
<g id="edge16_Node000009_Node000011" class="edge">
<title>Node9&#45;&gt;Node11</title>
<g id="a_edge16_Node000009_Node000011"><a xlink:title=" ">
<path fill="none" stroke="#63b8ff" d="M826.15,-910.33C856.66,-910.33 892.9,-910.33 923.24,-910.33"/>
<polygon fill="#63b8ff" stroke="#63b8ff" points="923.05,-913.83 933.05,-910.33 923.05,-906.83 923.05,-913.83"/>
</a>
</g>
</g>
<!-- Node10&#45;&gt;Node2 -->
<g id="edge14_Node000010_Node000002" class="edge">
<title>Node10&#45;&gt;Node2</title>
<g id="a_edge14_Node000010_Node000002"><a xlink:title=" ">
<path fill="none" stroke="#63b8ff" d="M1058.78,-966.7C1067.19,-969.24 1075.46,-972.4 1083,-976.33 1123.59,-997.5 1160.17,-1037.61 1179.59,-1061.35"/>
<polygon fill="#63b8ff" stroke="#63b8ff" points="1176.69,-1063.33 1185.66,-1068.96 1182.16,-1058.96 1176.69,-1063.33"/>
</a>
</g>
</g>
<!-- Node10&#45;&gt;Node3 -->
<g id="edge15_Node000010_Node000003" class="edge">
<title>Node10&#45;&gt;Node3</title>
<g id="a_edge15_Node000010_Node000003"><a xlink:title=" ">
<path fill="none" stroke="#63b8ff" d="M936.19,-966.8C922.18,-969.78 906.98,-973.1 893,-976.33 876.93,-980.05 873.37,-983.32 857,-985.33 685.74,-1006.42 633.98,-1035.07 468.75,-985.33 396.28,-963.52 369.3,-953.93 326.75,-891.33 282.73,-826.58 251.35,-583.9 241.8,-501.73"/>
<polygon fill="#63b8ff" stroke="#63b8ff" points="245.29,-501.43 240.67,-491.89 238.33,-502.23 245.29,-501.43"/>
</a>
</g>
</g>
<!-- Node12&#45;&gt;Node10 -->
<g id="edge22_Node000012_Node000010" class="edge">
<title>Node12&#45;&gt;Node10</title>
<g id="a_edge22_Node000012_Node000010"><a xlink:title=" ">
<path fill="none" stroke="#63b8ff" d="M621.6,-388.32C702.27,-385.59 825.36,-387.12 857,-419.33 937.55,-501.33 818.05,-848.19 893,-935.33 894.27,-936.82 895.63,-938.21 897.05,-939.51"/>
<polygon fill="#63b8ff" stroke="#63b8ff" points="894.57,-942.02 904.68,-945.17 898.74,-936.4 894.57,-942.02"/>
</a>
</g>
</g>
<!-- Node13 -->
<g id="Node000013" class="node">
<title>Node13</title>
<g id="a_Node000013"><a xlink:href="../../d5/d72/classLSM1x0A__LoRaWAN.html#af0baa3db4c7fab580d6b19a9e92472f6" target="_top" xlink:title="Enables or disables Adaptive Data Rate (ADR).">
<polygon fill="white" stroke="#666666" points="836,-612.33 684.25,-612.33 684.25,-592.33 836,-592.33 836,-612.33"/>
<text text-anchor="middle" x="760.12" y="-598.83" font-family="Helvetica,sans-Serif" font-size="10.00">LSM1x0A_LoRaWAN::setADR</text>
</a>
</g>
</g>
<!-- Node12&#45;&gt;Node13 -->
<g id="edge18_Node000012_Node000013" class="edge">
<title>Node12&#45;&gt;Node13</title>
<g id="a_edge18_Node000012_Node000013"><a xlink:title=" ">
<path fill="none" stroke="#63b8ff" d="M553.76,-408.8C565.54,-446.37 599.76,-538.61 663.25,-583.33 666.47,-585.6 669.89,-587.61 673.46,-589.4"/>
<polygon fill="#63b8ff" stroke="#63b8ff" points="671.86,-592.52 682.43,-593.25 674.62,-586.09 671.86,-592.52"/>
</a>
</g>
</g>
<!-- Node14 -->
<g id="Node000014" class="node">
<title>Node14</title>
<g id="a_Node000014"><a xlink:href="../../d5/d72/classLSM1x0A__LoRaWAN.html#a5365ed1596eb84ebf1e3b33b4a10c788" target="_top" xlink:title="Sets the LoRaWAN operational frequency band.">
<polygon fill="white" stroke="#666666" points="836.38,-574.33 683.88,-574.33 683.88,-554.33 836.38,-554.33 836.38,-574.33"/>
<text text-anchor="middle" x="760.12" y="-560.83" font-family="Helvetica,sans-Serif" font-size="10.00">LSM1x0A_LoRaWAN::setBand</text>
</a>
</g>
</g>
<!-- Node12&#45;&gt;Node14 -->
<g id="edge20_Node000012_Node000014" class="edge">
<title>Node12&#45;&gt;Node14</title>
<g id="a_edge20_Node000012_Node000014"><a xlink:title=" ">
<path fill="none" stroke="#63b8ff" d="M556.05,-408.38C570.9,-440.13 608.57,-510.86 663.25,-545.33 666.41,-547.32 669.73,-549.11 673.17,-550.72"/>
<polygon fill="#63b8ff" stroke="#63b8ff" points="671.78,-553.94 682.36,-554.45 674.41,-547.45 671.78,-553.94"/>
</a>
</g>
</g>
<!-- Node15 -->
<g id="Node000015" class="node">
<title>Node15</title>
<g id="a_Node000015"><a xlink:href="../../d5/d72/classLSM1x0A__LoRaWAN.html#a9d9285c43414337a0ccb3a6cd7ca06e6" target="_top" xlink:title="Configures the number of retries for Confirmed uplinks.">
<polygon fill="white" stroke="#666666" points="842.38,-536.33 677.88,-536.33 677.88,-504.33 842.38,-504.33 842.38,-536.33"/>
<text text-anchor="start" x="685.88" y="-522.83" font-family="Helvetica,sans-Serif" font-size="10.00">LSM1x0A_LoRaWAN::setConfirm</text>
<text text-anchor="middle" x="760.12" y="-510.83" font-family="Helvetica,sans-Serif" font-size="10.00">Retry</text>
</a>
</g>
</g>
<!-- Node12&#45;&gt;Node15 -->
<g id="edge23_Node000012_Node000015" class="edge">
<title>Node12&#45;&gt;Node15</title>
<g id="a_edge23_Node000012_Node000015"><a xlink:title=" ">
<path fill="none" stroke="#63b8ff" d="M562.37,-408.53C582.08,-431.33 621.17,-472.65 663.25,-495.33 666.09,-496.86 669.03,-498.3 672.03,-499.66"/>
<polygon fill="#63b8ff" stroke="#63b8ff" points="670.5,-502.81 681.08,-503.37 673.15,-496.34 670.5,-502.81"/>
</a>
</g>
</g>
<!-- Node16 -->
<g id="Node000016" class="node">
<title>Node16</title>
<g id="a_Node000016"><a xlink:href="../../d5/d72/classLSM1x0A__LoRaWAN.html#a56345ceeafa0b9059d6de4e69eddc82e" target="_top" xlink:title="Sets the Data Rate (DR) of the module.">
<polygon fill="white" stroke="#666666" points="846.12,-486.33 674.12,-486.33 674.12,-466.33 846.12,-466.33 846.12,-486.33"/>
<text text-anchor="middle" x="760.12" y="-472.83" font-family="Helvetica,sans-Serif" font-size="10.00">LSM1x0A_LoRaWAN::setDataRate</text>
</a>
</g>
</g>
<!-- Node12&#45;&gt;Node16 -->
<g id="edge25_Node000012_Node000016" class="edge">
<title>Node12&#45;&gt;Node16</title>
<g id="a_edge25_Node000012_Node000016"><a xlink:title=" ">
<path fill="none" stroke="#63b8ff" d="M572.41,-408.65C594.76,-423.49 629.89,-444.91 663.25,-457.33 668.92,-459.44 674.86,-461.33 680.9,-463.02"/>
<polygon fill="#63b8ff" stroke="#63b8ff" points="679.8,-466.36 690.36,-465.48 681.56,-459.58 679.8,-466.36"/>
</a>
</g>
</g>
<!-- Node17 -->
<g id="Node000017" class="node">
<title>Node17</title>
<g id="a_Node000017"><a xlink:href="../../d5/d72/classLSM1x0A__LoRaWAN.html#a8494083816ab885cb07fc3b08de029f4" target="_top" xlink:title="Sets the LoRaWAN Device Address (DevAddr) for ABP mode.">
<polygon fill="white" stroke="#666666" points="844.25,-448.33 676,-448.33 676,-428.33 844.25,-428.33 844.25,-448.33"/>
<text text-anchor="middle" x="760.12" y="-434.83" font-family="Helvetica,sans-Serif" font-size="10.00">LSM1x0A_LoRaWAN::setDevAddr</text>
</a>
</g>
</g>
<!-- Node12&#45;&gt;Node17 -->
<g id="edge27_Node000012_Node000017" class="edge">
<title>Node12&#45;&gt;Node17</title>
<g id="a_edge27_Node000012_Node000017"><a xlink:title=" ">
<path fill="none" stroke="#63b8ff" d="M621.61,-408.23C647.21,-413.83 675.66,-420.06 700.01,-425.39"/>
<polygon fill="#63b8ff" stroke="#63b8ff" points="699.25,-428.81 709.77,-427.53 700.75,-421.97 699.25,-428.81"/>
</a>
</g>
</g>
<!-- Node18 -->
<g id="Node000018" class="node">
<title>Node18</title>
<g id="a_Node000018"><a xlink:href="../../d5/d72/classLSM1x0A__LoRaWAN.html#ad320634e52d7ea907043cc50dd37c5b0" target="_top" xlink:title="Sets the LoRaWAN Device EUI (DevEUI).">
<polygon fill="white" stroke="#666666" points="842.75,-372.33 677.5,-372.33 677.5,-352.33 842.75,-352.33 842.75,-372.33"/>
<text text-anchor="middle" x="760.12" y="-358.83" font-family="Helvetica,sans-Serif" font-size="10.00">LSM1x0A_LoRaWAN::setDevEUI</text>
</a>
</g>
</g>
<!-- Node12&#45;&gt;Node18 -->
<g id="edge29_Node000012_Node000018" class="edge">
<title>Node12&#45;&gt;Node18</title>
<g id="a_edge29_Node000012_Node000018"><a xlink:title=" ">
<path fill="none" stroke="#63b8ff" d="M621.61,-381.97C638.64,-379.54 656.93,-376.92 674.43,-374.43"/>
<polygon fill="#63b8ff" stroke="#63b8ff" points="674.9,-377.89 684.3,-373.02 673.91,-370.96 674.9,-377.89"/>
</a>
</g>
</g>
<!-- Node19 -->
<g id="Node000019" class="node">
<title>Node19</title>
<g id="a_Node000019"><a xlink:href="../../d5/d72/classLSM1x0A__LoRaWAN.html#a031023b0d2dd5db3c51c2db6ae7801cc" target="_top" xlink:title="Enables or disables the Duty Cycle limitation (EU regions mostly).">
<polygon fill="white" stroke="#666666" points="835.62,-334.33 684.62,-334.33 684.62,-302.33 835.62,-302.33 835.62,-334.33"/>
<text text-anchor="start" x="692.62" y="-320.83" font-family="Helvetica,sans-Serif" font-size="10.00">LSM1x0A_LoRaWAN::setDuty</text>
<text text-anchor="middle" x="760.12" y="-308.83" font-family="Helvetica,sans-Serif" font-size="10.00">Cycle</text>
</a>
</g>
</g>
<!-- Node12&#45;&gt;Node19 -->
<g id="edge31_Node000012_Node000019" class="edge">
<title>Node12&#45;&gt;Node19</title>
<g id="a_edge31_Node000012_Node000019"><a xlink:title=" ">
<path fill="none" stroke="#63b8ff" d="M583.47,-375.94C605.87,-365.69 635.89,-352.71 663.25,-343.33 668.65,-341.48 674.27,-339.69 679.95,-337.97"/>
<polygon fill="#63b8ff" stroke="#63b8ff" points="680.85,-341.36 689.47,-335.19 678.89,-334.64 680.85,-341.36"/>
</a>
</g>
</g>
<!-- Node20 -->
<g id="Node000020" class="node">
<title>Node20</title>
<g id="a_Node000020"><a xlink:href="../../d5/d72/classLSM1x0A__LoRaWAN.html#a6b179d5825c49af0f391dfc539912f64" target="_top" xlink:title="Sets the delay for the Join1 receive window.">
<polygon fill="white" stroke="#666666" points="836.75,-284.33 683.5,-284.33 683.5,-252.33 836.75,-252.33 836.75,-284.33"/>
<text text-anchor="start" x="691.5" y="-270.83" font-family="Helvetica,sans-Serif" font-size="10.00">LSM1x0A_LoRaWAN::setJoin1</text>
<text text-anchor="middle" x="760.12" y="-258.83" font-family="Helvetica,sans-Serif" font-size="10.00">Delay</text>
</a>
</g>
</g>
<!-- Node12&#45;&gt;Node20 -->
<g id="edge33_Node000012_Node000020" class="edge">
<title>Node12&#45;&gt;Node20</title>
<g id="a_edge33_Node000012_Node000020"><a xlink:title=" ">
<path fill="none" stroke="#63b8ff" d="M563.18,-376.05C583.26,-354.02 622.14,-314.97 663.25,-293.33 666.27,-291.74 669.4,-290.25 672.61,-288.84"/>
<polygon fill="#63b8ff" stroke="#63b8ff" points="673.66,-292.19 681.64,-285.23 671.06,-285.7 673.66,-292.19"/>
</a>
</g>
</g>
<!-- Node21 -->
<g id="Node000021" class="node">
<title>Node21</title>
<g id="a_Node000021"><a xlink:href="../../d5/d72/classLSM1x0A__LoRaWAN.html#a4545d0caad41558cdb9bae8286b104d8" target="_top" xlink:title="Sets the delay for the Join2 receive window.">
<polygon fill="white" stroke="#666666" points="836.75,-234.33 683.5,-234.33 683.5,-202.33 836.75,-202.33 836.75,-234.33"/>
<text text-anchor="start" x="691.5" y="-220.83" font-family="Helvetica,sans-Serif" font-size="10.00">LSM1x0A_LoRaWAN::setJoin2</text>
<text text-anchor="middle" x="760.12" y="-208.83" font-family="Helvetica,sans-Serif" font-size="10.00">Delay</text>
</a>
</g>
</g>
<!-- Node12&#45;&gt;Node21 -->
<g id="edge35_Node000012_Node000021" class="edge">
<title>Node12&#45;&gt;Node21</title>
<g id="a_edge35_Node000012_Node000021"><a xlink:title=" ">
<path fill="none" stroke="#63b8ff" d="M556.83,-376.02C572.51,-345.14 610.83,-278.12 663.25,-243.33 666.33,-241.29 669.57,-239.41 672.92,-237.69"/>
<polygon fill="#63b8ff" stroke="#63b8ff" points="674.24,-240.93 681.88,-233.59 671.33,-234.57 674.24,-240.93"/>
</a>
</g>
</g>
<!-- Node22 -->
<g id="Node000022" class="node">
<title>Node22</title>
<g id="a_Node000022"><a xlink:href="../../d5/d72/classLSM1x0A__LoRaWAN.html#a06bd50723ec1eb7e144c9141b2ec86fc" target="_top" xlink:title="Sets the LoRaWAN Network ID (NetID).">
<polygon fill="white" stroke="#666666" points="840.5,-184.33 679.75,-184.33 679.75,-164.33 840.5,-164.33 840.5,-184.33"/>
<text text-anchor="middle" x="760.12" y="-170.83" font-family="Helvetica,sans-Serif" font-size="10.00">LSM1x0A_LoRaWAN::setNwkID</text>
</a>
</g>
</g>
<!-- Node12&#45;&gt;Node22 -->
<g id="edge37_Node000012_Node000022" class="edge">
<title>Node12&#45;&gt;Node22</title>
<g id="a_edge37_Node000012_Node000022"><a xlink:title=" ">
<path fill="none" stroke="#63b8ff" d="M553.3,-376.06C564.37,-337.51 597.72,-240.38 663.25,-193.33 665.19,-191.94 667.2,-190.65 669.28,-189.44"/>
<polygon fill="#63b8ff" stroke="#63b8ff" points="670.64,-192.67 678.04,-185.09 667.53,-186.4 670.64,-192.67"/>
</a>
</g>
</g>
<!-- Node23 -->
<g id="Node000023" class="node">
<title>Node23</title>
<g id="a_Node000023"><a xlink:href="../../d5/d72/classLSM1x0A__LoRaWAN.html#aa70ada64d28ecca216bb62268e502adf" target="_top" xlink:title="Sets the delay for the RX1 receive window.">
<polygon fill="white" stroke="#666666" points="846.88,-146.33 673.38,-146.33 673.38,-126.33 846.88,-126.33 846.88,-146.33"/>
<text text-anchor="middle" x="760.12" y="-132.83" font-family="Helvetica,sans-Serif" font-size="10.00">LSM1x0A_LoRaWAN::setRx1Delay</text>
</a>
</g>
</g>
<!-- Node12&#45;&gt;Node23 -->
<g id="edge39_Node000012_Node000023" class="edge">
<title>Node12&#45;&gt;Node23</title>
<g id="a_edge39_Node000012_Node000023"><a xlink:title=" ">
<path fill="none" stroke="#63b8ff" d="M551.74,-375.97C559.93,-332.44 588.47,-213.2 663.25,-155.33 664.77,-154.16 666.35,-153.04 667.97,-152"/>
<polygon fill="#63b8ff" stroke="#63b8ff" points="669.28,-155.27 676.37,-147.39 665.92,-149.13 669.28,-155.27"/>
</a>
</g>
</g>
<!-- Node24 -->
<g id="Node000024" class="node">
<title>Node24</title>
<g id="a_Node000024"><a xlink:href="../../d5/d72/classLSM1x0A__LoRaWAN.html#a2cf4eff0181b6107d082bccefa24217b" target="_top" xlink:title="Sets the Data Rate (DR) specifically for the RX2 window.">
<polygon fill="white" stroke="#666666" points="855.12,-108.33 665.12,-108.33 665.12,-88.33 855.12,-88.33 855.12,-108.33"/>
<text text-anchor="middle" x="760.12" y="-94.83" font-family="Helvetica,sans-Serif" font-size="10.00">LSM1x0A_LoRaWAN::setRx2DataRate</text>
</a>
</g>
</g>
<!-- Node12&#45;&gt;Node24 -->
<g id="edge41_Node000012_Node000024" class="edge">
<title>Node12&#45;&gt;Node24</title>
<g id="a_edge41_Node000012_Node000024"><a xlink:title=" ">
<path fill="none" stroke="#63b8ff" d="M550.57,-375.9C556.08,-327.78 579.06,-186.3 663.25,-117.33 664.56,-116.26 665.92,-115.24 667.31,-114.27"/>
<polygon fill="#63b8ff" stroke="#63b8ff" points="668.83,-117.44 675.71,-109.38 665.31,-111.39 668.83,-117.44"/>
</a>
</g>
</g>
<!-- Node25 -->
<g id="Node000025" class="node">
<title>Node25</title>
<g id="a_Node000025"><a xlink:href="../../d5/d72/classLSM1x0A__LoRaWAN.html#a42d2137b475b57e19d891a5f1ac93221" target="_top" xlink:title="Sets the delay for the RX2 receive window.">
<polygon fill="white" stroke="#666666" points="846.88,-70.33 673.38,-70.33 673.38,-50.33 846.88,-50.33 846.88,-70.33"/>
<text text-anchor="middle" x="760.12" y="-56.83" font-family="Helvetica,sans-Serif" font-size="10.00">LSM1x0A_LoRaWAN::setRx2Delay</text>
</a>
</g>
</g>
<!-- Node12&#45;&gt;Node25 -->
<g id="edge43_Node000012_Node000025" class="edge">
<title>Node12&#45;&gt;Node25</title>
<g id="a_edge43_Node000012_Node000025"><a xlink:title=" ">
<path fill="none" stroke="#63b8ff" d="M549.65,-375.96C552.64,-323.71 569.45,-159.67 663.25,-79.33 664.37,-78.37 665.53,-77.45 666.72,-76.58"/>
<polygon fill="#63b8ff" stroke="#63b8ff" points="668.41,-79.65 675.1,-71.43 664.74,-73.68 668.41,-79.65"/>
</a>
</g>
</g>
<!-- Node26 -->
<g id="Node000026" class="node">
<title>Node26</title>
<g id="a_Node000026"><a xlink:href="../../d5/d72/classLSM1x0A__LoRaWAN.html#a689f7dfda1dfeae11ea397c2ddf2ad37" target="_top" xlink:title="Sets the precise frequency for the RX2 window.">
<polygon fill="white" stroke="#666666" points="857,-32.33 663.25,-32.33 663.25,-12.33 857,-12.33 857,-32.33"/>
<text text-anchor="middle" x="760.12" y="-18.83" font-family="Helvetica,sans-Serif" font-size="10.00">LSM1x0A_LoRaWAN::setRx2Frequency</text>
</a>
</g>
</g>
<!-- Node12&#45;&gt;Node26 -->
<g id="edge45_Node000012_Node000026" class="edge">
<title>Node12&#45;&gt;Node26</title>
<g id="a_edge45_Node000012_Node000026"><a xlink:title=" ">
<path fill="none" stroke="#63b8ff" d="M548.91,-376.03C549.56,-319.93 559.72,-133.22 663.25,-41.33 664.2,-40.49 665.18,-39.68 666.18,-38.9"/>
<polygon fill="#63b8ff" stroke="#63b8ff" points="668.01,-41.89 674.52,-33.53 664.22,-36 668.01,-41.89"/>
</a>
</g>
</g>
<!-- Node27 -->
<g id="Node000027" class="node">
<title>Node27</title>
<g id="a_Node000027"><a xlink:href="../../d5/d72/classLSM1x0A__LoRaWAN.html#a1df10d7ae6bf45b537d28d3d5c4b88d7" target="_top" xlink:title="Sets the transmission power index.">
<polygon fill="white" stroke="#666666" points="844.62,-700.33 675.62,-700.33 675.62,-680.33 844.62,-680.33 844.62,-700.33"/>
<text text-anchor="middle" x="760.12" y="-686.83" font-family="Helvetica,sans-Serif" font-size="10.00">LSM1x0A_LoRaWAN::setTxPower</text>
</a>
</g>
</g>
<!-- Node12&#45;&gt;Node27 -->
<g id="edge47_Node000012_Node000027" class="edge">
<title>Node12&#45;&gt;Node27</title>
<g id="a_edge47_Node000012_Node000027"><a xlink:title=" ">
<path fill="none" stroke="#63b8ff" d="M550.45,-408.66C555.66,-457.12 577.99,-601.13 663.25,-671.33 664.39,-672.27 665.57,-673.17 666.77,-674.03"/>
<polygon fill="#63b8ff" stroke="#63b8ff" points="664.86,-676.96 675.24,-679.08 668.44,-670.95 664.86,-676.96"/>
</a>
</g>
</g>
<!-- Node28 -->
<g id="Node000028" class="node">
<title>Node28</title>
<g id="a_Node000028"><a xlink:href="../../d5/d72/classLSM1x0A__LoRaWAN.html#a059fd6a9356c4ecadd5a98294da5952d" target="_top" xlink:title="Configures the number of repetitions for Unconfirmed uplinks.">
<polygon fill="white" stroke="#666666" points="847.62,-662.33 672.62,-662.33 672.62,-630.33 847.62,-630.33 847.62,-662.33"/>
<text text-anchor="start" x="680.62" y="-648.83" font-family="Helvetica,sans-Serif" font-size="10.00">LSM1x0A_LoRaWAN::setUnconfirm</text>
<text text-anchor="middle" x="760.12" y="-636.83" font-family="Helvetica,sans-Serif" font-size="10.00">Retry</text>
</a>
</g>
</g>
<!-- Node12&#45;&gt;Node28 -->
<g id="edge49_Node000012_Node000028" class="edge">
<title>Node12&#45;&gt;Node28</title>
<g id="a_edge49_Node000012_Node000028"><a xlink:title=" ">
<path fill="none" stroke="#63b8ff" d="M552.24,-408.53C561.51,-450.53 592.17,-563.67 663.25,-621.33 664.38,-622.25 665.53,-623.13 666.72,-623.98"/>
<polygon fill="#63b8ff" stroke="#63b8ff" points="664.63,-626.8 674.97,-629.09 668.31,-620.85 664.63,-626.8"/>
</a>
</g>
</g>
<!-- Node13&#45;&gt;Node3 -->
<g id="edge19_Node000013_Node000003" class="edge">
<title>Node13&#45;&gt;Node3</title>
<g id="a_edge19_Node000013_Node000003"><a xlink:title=" ">
<path fill="none" stroke="#63b8ff" d="M684.1,-600.58C595.63,-596.22 445.59,-581.61 326.75,-533.33 305.24,-524.6 283.55,-510.13 267.08,-497.71"/>
<polygon fill="#63b8ff" stroke="#63b8ff" points="269.27,-494.98 259.23,-491.62 264.99,-500.51 269.27,-494.98"/>
</a>
</g>
</g>
<!-- Node14&#45;&gt;Node3 -->
<g id="edge21_Node000014_Node000003" class="edge">
<title>Node14&#45;&gt;Node3</title>
<g id="a_edge21_Node000014_Node000003"><a xlink:title=" ">
<path fill="none" stroke="#63b8ff" d="M683.5,-560.05C596.37,-553.85 449.45,-539.5 326.75,-508.33 313.23,-504.9 298.97,-499.99 285.95,-494.96"/>
<polygon fill="#63b8ff" stroke="#63b8ff" points="287.35,-491.75 276.77,-491.3 284.76,-498.25 287.35,-491.75"/>
</a>
</g>
</g>
<!-- Node15&#45;&gt;Node3 -->
<g id="edge24_Node000015_Node000003" class="edge">
<title>Node15&#45;&gt;Node3</title>
<g id="a_edge24_Node000015_Node000003"><a xlink:title=" ">
<path fill="none" stroke="#63b8ff" d="M677.62,-516.86C590.52,-512.59 448.54,-504.04 326.75,-489.33 318.82,-488.38 310.51,-487.19 302.3,-485.92"/>
<polygon fill="#63b8ff" stroke="#63b8ff" points="303.13,-482.51 292.7,-484.38 302.02,-489.42 303.13,-482.51"/>
</a>
</g>
</g>
<!-- Node16&#45;&gt;Node3 -->
<g id="edge26_Node000016_Node000003" class="edge">
<title>Node16&#45;&gt;Node3</title>
<g id="a_edge26_Node000016_Node000003"><a xlink:title=" ">
<path fill="none" stroke="#63b8ff" d="M673.89,-476.01C569.61,-475.61 395.49,-474.94 302.26,-474.58"/>
<polygon fill="#63b8ff" stroke="#63b8ff" points="302.56,-471.08 292.54,-474.54 302.53,-478.08 302.56,-471.08"/>
</a>
</g>
</g>
<!-- Node17&#45;&gt;Node3 -->
<g id="edge28_Node000017_Node000003" class="edge">
<title>Node17&#45;&gt;Node3</title>
<g id="a_edge28_Node000017_Node000003"><a xlink:title=" ">
<path fill="none" stroke="#63b8ff" d="M675.75,-444.1C571.72,-451.3 396.14,-463.45 302.33,-469.94"/>
<polygon fill="#63b8ff" stroke="#63b8ff" points="302.27,-466.43 292.54,-470.61 302.76,-473.41 302.27,-466.43"/>
</a>
</g>
</g>
<!-- Node18&#45;&gt;Node3 -->
<g id="edge30_Node000018_Node000003" class="edge">
<title>Node18&#45;&gt;Node3</title>
<g id="a_edge30_Node000018_Node000003"><a xlink:title=" ">
<path fill="none" stroke="#63b8ff" d="M677.29,-354.76C618.51,-351.48 537.78,-351.44 468.75,-367.33 395.49,-384.2 317.66,-426.15 273.94,-452.23"/>
<polygon fill="#63b8ff" stroke="#63b8ff" points="272.4,-449.07 265.65,-457.24 276.02,-455.06 272.4,-449.07"/>
</a>
</g>
</g>
<!-- Node19&#45;&gt;Node3 -->
<g id="edge32_Node000019_Node000003" class="edge">
<title>Node19&#45;&gt;Node3</title>
<g id="a_edge32_Node000019_Node000003"><a xlink:title=" ">
<path fill="none" stroke="#63b8ff" d="M684.31,-311.75C593.7,-307.28 439.27,-311.14 326.75,-374.33 295.31,-391.99 269.52,-425.24 254.17,-448.53"/>
<polygon fill="#63b8ff" stroke="#63b8ff" points="251.28,-446.54 248.86,-456.86 257.19,-450.31 251.28,-446.54"/>
</a>
</g>
</g>
<!-- Node20&#45;&gt;Node3 -->
<g id="edge34_Node000020_Node000003" class="edge">
<title>Node20&#45;&gt;Node3</title>
<g id="a_edge34_Node000020_Node000003"><a xlink:title=" ">
<path fill="none" stroke="#63b8ff" d="M683.3,-260.27C590.99,-254.42 434.15,-257.67 326.75,-330.33 284.86,-358.68 259.44,-414.28 247.34,-447.49"/>
<polygon fill="#63b8ff" stroke="#63b8ff" points="244.08,-446.2 244.1,-456.79 250.69,-448.5 244.08,-446.2"/>
</a>
</g>
</g>
<!-- Node21&#45;&gt;Node3 -->
<g id="edge36_Node000021_Node000003" class="edge">
<title>Node21&#45;&gt;Node3</title>
<g id="a_edge36_Node000021_Node000003"><a xlink:title=" ">
<path fill="none" stroke="#63b8ff" d="M683.01,-220.32C574.05,-224.63 380.76,-238.15 326.75,-280.33 273.18,-322.17 251.17,-403.93 243.02,-446.72"/>
<polygon fill="#63b8ff" stroke="#63b8ff" points="239.59,-445.99 241.3,-456.45 246.49,-447.21 239.59,-445.99"/>
</a>
</g>
</g>
<!-- Node22&#45;&gt;Node3 -->
<g id="edge38_Node000022_Node000003" class="edge">
<title>Node22&#45;&gt;Node3</title>
<g id="a_edge38_Node000022_Node000003"><a xlink:title=" ">
<path fill="none" stroke="#63b8ff" d="M679.63,-177.04C569.9,-182.32 379.54,-197.53 326.75,-240.33 262.41,-292.5 245.1,-396.92 240.45,-446.7"/>
<polygon fill="#63b8ff" stroke="#63b8ff" points="236.96,-446.36 239.64,-456.61 243.94,-446.92 236.96,-446.36"/>
</a>
</g>
</g>
<!-- Node23&#45;&gt;Node3 -->
<g id="edge40_Node000023_Node000003" class="edge">
<title>Node23&#45;&gt;Node3</title>
<g id="a_edge40_Node000023_Node000003"><a xlink:title=" ">
<path fill="none" stroke="#63b8ff" d="M673.19,-138.2C562.21,-142.37 377.27,-155.84 326.75,-199.33 252.41,-263.34 240.3,-390.19 238.72,-446.4"/>
<polygon fill="#63b8ff" stroke="#63b8ff" points="235.22,-446.31 238.55,-456.37 242.22,-446.43 235.22,-446.31"/>
</a>
</g>
</g>
<!-- Node24&#45;&gt;Node3 -->
<g id="edge42_Node000024_Node000003" class="edge">
<title>Node24&#45;&gt;Node3</title>
<g id="a_edge42_Node000024_Node000003"><a xlink:title=" ">
<path fill="none" stroke="#63b8ff" d="M664.78,-99.52C552.87,-102.91 375.33,-115.17 326.75,-158.33 282.98,-197.23 252.74,-377.56 242.54,-446.99"/>
<polygon fill="#63b8ff" stroke="#63b8ff" points="239.1,-446.34 241.14,-456.74 246.03,-447.34 239.1,-446.34"/>
</a>
</g>
</g>
<!-- Node25&#45;&gt;Node3 -->
<g id="edge44_Node000025_Node000003" class="edge">
<title>Node25&#45;&gt;Node3</title>
<g id="a_edge44_Node000025_Node000003"><a xlink:title=" ">
<path fill="none" stroke="#63b8ff" d="M673.33,-60.47C562.02,-62.48 376.2,-72.68 326.75,-117.33 277.39,-161.91 250.08,-370.49 241.63,-446.52"/>
<polygon fill="#63b8ff" stroke="#63b8ff" points="238.15,-446.11 240.55,-456.43 245.11,-446.86 238.15,-446.11"/>
</a>
</g>
</g>
<!-- Node26&#45;&gt;Node3 -->
<g id="edge46_Node000026_Node000003" class="edge">
<title>Node26&#45;&gt;Node3</title>
<g id="a_edge46_Node000026_Node000003"><a xlink:title=" ">
<path fill="none" stroke="#63b8ff" d="M708.55,-11.87C619.18,3.41 432.79,20.42 326.75,-76.33 271.56,-126.69 247.54,-364.76 240.82,-446.61"/>
<polygon fill="#63b8ff" stroke="#63b8ff" points="237.35,-446.18 240.04,-456.43 244.33,-446.74 237.35,-446.18"/>
</a>
</g>
</g>
<!-- Node27&#45;&gt;Node3 -->
<g id="edge48_Node000027_Node000003" class="edge">
<title>Node27&#45;&gt;Node3</title>
<g id="a_edge48_Node000027_Node000003"><a xlink:title=" ">
<path fill="none" stroke="#63b8ff" d="M675.24,-681.23C565.61,-667.93 381.19,-640.36 326.75,-600.33 291.11,-574.12 264.72,-529.01 250.55,-500.47"/>
<polygon fill="#63b8ff" stroke="#63b8ff" points="253.86,-499.28 246.38,-491.78 247.55,-502.31 253.86,-499.28"/>
</a>
</g>
</g>
<!-- Node28&#45;&gt;Node3 -->
<g id="edge50_Node000028_Node000003" class="edge">
<title>Node28&#45;&gt;Node3</title>
<g id="a_edge50_Node000028_Node000003"><a xlink:title=" ">
<path fill="none" stroke="#63b8ff" d="M672.13,-646.34C580.45,-642.73 434.67,-626.48 326.75,-564.33 298.47,-548.05 273.23,-520.13 257.12,-499.7"/>
<polygon fill="#63b8ff" stroke="#63b8ff" points="259.95,-497.64 251.09,-491.83 254.39,-501.9 259.95,-497.64"/>
</a>
</g>
</g>
<!-- Node30&#45;&gt;Node31 -->
<g id="edge53_Node000030_Node000031" class="edge">
<title>Node30&#45;&gt;Node31</title>
<g id="a_edge53_Node000030_Node000031"><a xlink:title=" ">
<path fill="none" stroke="#63b8ff" d="M601.48,-777.84C620.23,-775.52 642,-772.83 663.26,-770.2"/>
<polygon fill="#63b8ff" stroke="#63b8ff" points="663.65,-773.67 673.15,-768.97 662.79,-766.73 663.65,-773.67"/>
</a>
</g>
</g>
<!-- Node32 -->
<g id="Node000032" class="node">
<title>Node32</title>
<g id="a_Node000032"><a xlink:href="../../d6/d3c/classLSM1x0A__AtParser.html#a0ba6f927c54fceece22c17773d3f2600" target="_top" xlink:title="Sends a command and extracts a value from the response.">
<polygon fill="white" stroke="#666666" points="1075.12,-774.33 900.88,-774.33 900.88,-742.33 1075.12,-742.33 1075.12,-774.33"/>
<text text-anchor="start" x="908.88" y="-760.83" font-family="Helvetica,sans-Serif" font-size="10.00">LSM1x0A_AtParser::sendCommand</text>
<text text-anchor="middle" x="988" y="-748.83" font-family="Helvetica,sans-Serif" font-size="10.00">WithResponse</text>
</a>
</g>
</g>
<!-- Node31&#45;&gt;Node32 -->
<g id="edge54_Node000031_Node000032" class="edge">
<title>Node31&#45;&gt;Node32</title>
<g id="a_edge54_Node000031_Node000032"><a xlink:title=" ">
<path fill="none" stroke="#63b8ff" d="M847.49,-758.33C861.24,-758.33 875.56,-758.33 889.55,-758.33"/>
<polygon fill="#63b8ff" stroke="#63b8ff" points="889.17,-761.83 899.17,-758.33 889.17,-754.83 889.17,-761.83"/>
</a>
</g>
</g>
<!-- Node33 -->
<g id="Node000033" class="node">
<title>Node33</title>
<g id="a_Node000033"><a xlink:href="../../d5/d8b/classUartDriver.html#a5d0f22e8867eebe99273078bb19bd23d" target="_top" xlink:title="Sends data through UART.">
<polygon fill="white" stroke="#666666" points="1249.75,-768.33 1140.75,-768.33 1140.75,-748.33 1249.75,-748.33 1249.75,-768.33"/>
<text text-anchor="middle" x="1195.25" y="-754.83" font-family="Helvetica,sans-Serif" font-size="10.00">UartDriver::sendData</text>
</a>
</g>
</g>
<!-- Node32&#45;&gt;Node33 -->
<g id="edge55_Node000032_Node000033" class="edge">
<title>Node32&#45;&gt;Node33</title>
<g id="a_edge55_Node000032_Node000033"><a xlink:title=" ">
<path fill="none" stroke="#63b8ff" d="M1075.45,-758.33C1093.34,-758.33 1111.91,-758.33 1128.89,-758.33"/>
<polygon fill="#63b8ff" stroke="#63b8ff" points="1128.86,-761.83 1138.86,-758.33 1128.86,-754.83 1128.86,-761.83"/>
</a>
</g>
</g>
</g>
</svg>

<g id="navigator" transform="translate(0 0)" fill="#404254">
  <rect fill="#f2f5e9" fill-opacity="0.5" stroke="#606060" stroke-width=".5" x="0" y="0" width="60" height="60"/>
  <use id="zoomplus" xlink:href="#zoomPlus" x="17" y="9" onmousedown="handleZoom(evt,'in')"/>
  <use id="zoomminus" xlink:href="#zoomMin" x="42" y="9" onmousedown="handleZoom(evt,'out')"/>
  <use id="reset" xlink:href="#resetDef" x="30" y="36" onmousedown="handleReset()"/>
   <use id="arrowup" xlink:href="#arrowUp" x="0" y="0" onmousedown="handlePan(0,-1)"/>
  <use id="arrowright" xlink:href="#arrowRight" x="0" y="0" onmousedown="handlePan(1,0)"/>
  <use id="arrowdown" xlink:href="#arrowDown" x="0" y="0" onmousedown="handlePan(0,1)"/>
  <use id="arrowleft" xlink:href="#arrowLeft" x="0" y="0" onmousedown="handlePan(-1,0)"/>
</g>
<svg viewBox="0 0 15 15" width="100%" height="30px" preserveAspectRatio="xMaxYMin meet">
 <g id="arrow_out" transform="scale(0.3 0.3)">
  <a xlink:href="classLSM1x0A__LoRaWAN_acc3da00ad0bff600dc047a9bc63cb7a9_cgraph_org.svg" target="_base">
   <rect id="button" ry="5" rx="5" y="6" x="6" height="38" width="38"
        fill="#f2f5e9" fill-opacity="0.5" stroke="#606060" stroke-width="1.0"/>
   <path id="arrow"
     d="M 11.500037,31.436501 C 11.940474,20.09759 22.043105,11.32322 32.158766,21.979434 L 37.068811,17.246167 C 37.068811,17.246167 37.088388,32 37.088388,32 L 22.160133,31.978069 C 22.160133,31.978069 26.997745,27.140456 26.997745,27.140456 C 18.528582,18.264221 13.291696,25.230495 11.500037,31.436501 z"
     style="fill:#404040;"/>
  </a>
 </g>
</svg>

<style type='text/css'>
<![CDATA[
[data-mouse-over-selected='false'] { opacity: 0.7; }
[data-mouse-over-selected='true']  { opacity: 1.0; }
]]>
</style>
<script type="application/ecmascript"><![CDATA[
document.addEventListener('DOMContentLoaded', (event) => {
  highlightEdges();
  highlightAdjacentNodes();
});
]]></script>
</svg>
