<?xml version="1.0" encoding="UTF-8" standalone="no"?>
<!DOCTYPE svg PUBLIC "-//W3C//DTD SVG 1.1//EN"
 "http://www.w3.org/Graphics/SVG/1.1/DTD/svg11.dtd">
<!-- Generated by graphviz version 12.2.1 (20241206.2353)
 -->
<!-- Title: LSM1x0A_LoRaWAN::getClass Pages: 1 -->
<!--zoomable 1018 -->

<svg id="main" version="1.1" xmlns="http://www.w3.org/2000/svg" xmlns:xlink="http://www.w3.org/1999/xlink" xml:space="preserve" onload="init(evt)">
<style type="text/css"><![CDATA[
.node, .edge {opacity: 0.7;}
.node.selected, .edge.selected {opacity: 1;}
.edge:hover path { stroke: red; }
.edge:hover polygon { stroke: red; fill: red; }
]]></style>

<defs>
  <circle id="rim" cx="0" cy="0" r="7"/>
  <circle id="rim2" cx="0" cy="0" r="3.5"/>
  <g id="zoomPlus">
    <use xlink:href="#rim" fill="#404040"><set attributeName="fill" to="#808080" begin="zoomplus.mouseover" end="zoomplus.mouseout"/></use>
    <path d="M-4,0h8M0,-4v8" fill="none" stroke="white" stroke-width="1.5" pointer-events="none"/>
  </g>
  <g id="zoomMin">
    <use xlink:href="#rim" fill="#404040"><set attributeName="fill" to="#808080" begin="zoomminus.mouseover" end="zoomminus.mouseout"/></use>
    <path d="M-4,0h8" fill="none" stroke="white" stroke-width="1.5" pointer-events="none"/>
  </g>
  <g id="arrowUp" transform="translate(30 24)">
    <use xlink:href="#rim"/>
    <path pointer-events="none" fill="none" stroke="white" stroke-width="1.5" d="M0,-3.0v7 M-2.5,-0.5L0,-3.0L2.5,-0.5"/>
  </g>
  <g id="arrowRight" transform="rotate(90) translate(36 -43)">
    <use xlink:href="#rim"/>
    <path pointer-events="none" fill="none" stroke="white" stroke-width="1.5" d="M0,-3.0v7 M-2.5,-0.5L0,-3.0L2.5,-0.5"/>
  </g>
  <g id="arrowDown" transform="rotate(180) translate(-30 -48)">
    <use xlink:href="#rim"/>
    <path pointer-events="none" fill="none" stroke="white" stroke-width="1.5" d="M0,-3.0v7 M-2.5,-0.5L0,-3.0L2.5,-0.5"/>
  </g>
  <g id="arrowLeft" transform="rotate(270) translate(-36 17)">
    <use xlink:href="#rim"/>
    <path pointer-events="none" fill="none" stroke="white" stroke-width="1.5" d="M0,-3.0v7 M-2.5,-0.5L0,-3.0L2.5,-0.5"/>
  </g>
  <g id="resetDef">
    <use xlink:href="#rim2" fill="#404040"><set attributeName="fill" to="#808080" begin="reset.mouseover" end="reset.mouseout"/></use>
  </g>
</defs>
<script type="application/ecmascript">
var viewWidth = 1855;
var viewHeight = 1018;
var sectionId = 'dynsection-11';
</script>
<script type="application/ecmascript" xlink:href="../../svg.min.js"/>
<svg id="graph" class="graph">
<g id="viewport">
<title>LSM1x0A_LoRaWAN::getClass</title>
<!-- Node1 -->
<g id="Node000001" class="node">
<title>Node1</title>
<g id="a_Node000001"><a xlink:title="Retrieves the current LoRaWAN Class.">
<polygon fill="#999999" stroke="#666666" points="155.5,-98 0,-98 0,-78 155.5,-78 155.5,-98"/>
<text text-anchor="middle" x="77.75" y="-84.5" font-family="Helvetica,sans-Serif" font-size="10.00">LSM1x0A_LoRaWAN::getClass</text>
</a>
</g>
</g>
<!-- Node2 -->
<g id="Node000002" class="node">
<title>Node2</title>
<g id="a_Node000002"><a xlink:href="../../d8/d92/classLSM1x0A__Controller.html#ab00328d1be83aa51bce8c2a4f907c5f4" target="_top" xlink:title="Sends an AT command and captures its response in a text block. Ideal for getters (e....">
<polygon fill="white" stroke="#666666" points="344,-104 191.5,-104 191.5,-72 344,-72 344,-104"/>
<text text-anchor="start" x="199.5" y="-90.5" font-family="Helvetica,sans-Serif" font-size="10.00">LSM1x0A_Controller</text>
<text text-anchor="middle" x="267.75" y="-78.5" font-family="Helvetica,sans-Serif" font-size="10.00">::sendCommandWithResponse</text>
</a>
</g>
</g>
<!-- Node1&#45;&gt;Node2 -->
<g id="edge1_Node000001_Node000002" class="edge">
<title>Node1&#45;&gt;Node2</title>
<g id="a_edge1_Node000001_Node000002"><a xlink:title=" ">
<path fill="none" stroke="#63b8ff" d="M155.76,-88C163.69,-88 171.78,-88 179.8,-88"/>
<polygon fill="#63b8ff" stroke="#63b8ff" points="179.56,-91.5 189.56,-88 179.56,-84.5 179.56,-91.5"/>
</a>
</g>
</g>
<!-- Node3 -->
<g id="Node000003" class="node">
<title>Node3</title>
<g id="a_Node000003"><a xlink:href="../../d8/d92/classLSM1x0A__Controller.html#abb0eb380daa3dfb7acffb483c5db8e2b" target="_top" xlink:title="Executes the recovery protocol. First Soft&#45;Reset (ATZ), then Hard&#45;Reset if there is a pin.">
<polygon fill="white" stroke="#666666" points="486,-214 380,-214 380,-182 486,-182 486,-214"/>
<text text-anchor="start" x="388" y="-200.5" font-family="Helvetica,sans-Serif" font-size="10.00">LSM1x0A_Controller</text>
<text text-anchor="middle" x="433" y="-188.5" font-family="Helvetica,sans-Serif" font-size="10.00">::recoverModule</text>
</a>
</g>
</g>
<!-- Node2&#45;&gt;Node3 -->
<g id="edge2_Node000002_Node000003" class="edge">
<title>Node2&#45;&gt;Node3</title>
<g id="a_edge2_Node000002_Node000003"><a xlink:title=" ">
<path fill="none" stroke="#63b8ff" d="M293.19,-104.47C321.16,-123.32 367.14,-154.29 398.45,-175.39"/>
<polygon fill="#63b8ff" stroke="#63b8ff" points="396.16,-178.07 406.4,-180.75 400.07,-172.26 396.16,-178.07"/>
</a>
</g>
</g>
<!-- Node12 -->
<g id="Node000012" class="node">
<title>Node12</title>
<g id="a_Node000012"><a xlink:href="../../d6/d3c/classLSM1x0A__AtParser.html#a0ba6f927c54fceece22c17773d3f2600" target="_top" xlink:title="Sends a command and extracts a value from the response.">
<polygon fill="white" stroke="#666666" points="1701.75,-287 1527.5,-287 1527.5,-255 1701.75,-255 1701.75,-287"/>
<text text-anchor="start" x="1535.5" y="-273.5" font-family="Helvetica,sans-Serif" font-size="10.00">LSM1x0A_AtParser::sendCommand</text>
<text text-anchor="middle" x="1614.62" y="-261.5" font-family="Helvetica,sans-Serif" font-size="10.00">WithResponse</text>
</a>
</g>
</g>
<!-- Node2&#45;&gt;Node12 -->
<g id="edge57_Node000002_Node000012" class="edge">
<title>Node2&#45;&gt;Node12</title>
<g id="a_edge57_Node000002_Node000012"><a xlink:title=" ">
<path fill="none" stroke="#63b8ff" d="M305.19,-71.65C365.36,-46.21 489.79,0 600.25,0 600.25,0 600.25,0 1206,0 1382.94,0 1541.7,-179.26 1594.81,-246.19"/>
<polygon fill="#63b8ff" stroke="#63b8ff" points="1591.74,-247.95 1600.66,-253.67 1597.25,-243.64 1591.74,-247.95"/>
</a>
</g>
</g>
<!-- Node4 -->
<g id="Node000004" class="node">
<title>Node4</title>
<g id="a_Node000004"><a xlink:href="../../d8/d92/classLSM1x0A__Controller.html#a3f6f25b843fe4fb7042c544deae2ab16" target="_top" xlink:title="Manually clears bits from the internal EventGroup.">
<polygon fill="white" stroke="#666666" points="1048.88,-98 942.88,-98 942.88,-66 1048.88,-66 1048.88,-98"/>
<text text-anchor="start" x="950.88" y="-84.5" font-family="Helvetica,sans-Serif" font-size="10.00">LSM1x0A_Controller</text>
<text text-anchor="middle" x="995.88" y="-72.5" font-family="Helvetica,sans-Serif" font-size="10.00">::clearEvents</text>
</a>
</g>
</g>
<!-- Node3&#45;&gt;Node4 -->
<g id="edge3_Node000003_Node000004" class="edge">
<title>Node3&#45;&gt;Node4</title>
<g id="a_edge3_Node000003_Node000004"><a xlink:title=" ">
<path fill="none" stroke="#63b8ff" d="M458.68,-181.53C475.73,-171 499.34,-158.03 522,-151 667.65,-105.82 712.73,-138.94 863,-113 885.5,-109.12 909.9,-103.72 931.52,-98.52"/>
<polygon fill="#63b8ff" stroke="#63b8ff" points="932.2,-101.96 941.08,-96.18 930.53,-95.16 932.2,-101.96"/>
</a>
</g>
</g>
<!-- Node5 -->
<g id="Node000005" class="node">
<title>Node5</title>
<g id="a_Node000005"><a xlink:href="../../d8/d92/classLSM1x0A__Controller.html#a345d4bd79fa16b18dc33a4ca788fe5f7" target="_top" xlink:title="Performs a hardware reset using the reset pin.">
<polygon fill="white" stroke="#666666" points="654.25,-104 548.25,-104 548.25,-72 654.25,-72 654.25,-104"/>
<text text-anchor="start" x="556.25" y="-90.5" font-family="Helvetica,sans-Serif" font-size="10.00">LSM1x0A_Controller</text>
<text text-anchor="middle" x="601.25" y="-78.5" font-family="Helvetica,sans-Serif" font-size="10.00">::hardwareReset</text>
</a>
</g>
</g>
<!-- Node3&#45;&gt;Node5 -->
<g id="edge4_Node000003_Node000005" class="edge">
<title>Node3&#45;&gt;Node5</title>
<g id="a_edge4_Node000003_Node000005"><a xlink:title=" ">
<path fill="none" stroke="#63b8ff" d="M448.46,-181.63C464.82,-163.93 492.99,-135.86 522,-118 527.27,-114.76 532.94,-111.77 538.74,-109.03"/>
<polygon fill="#63b8ff" stroke="#63b8ff" points="540.14,-112.24 547.88,-104.99 537.31,-105.83 540.14,-112.24"/>
</a>
</g>
</g>
<!-- Node7 -->
<g id="Node000007" class="node">
<title>Node7</title>
<g id="a_Node000007"><a xlink:href="../../d5/d72/classLSM1x0A__LoRaWAN.html#a1892801e37c8cd67d37c76108d6f7d49" target="_top" xlink:title="Validates if the device is currently Joined to the network. (Either confirmed by OTAA or statically a...">
<polygon fill="white" stroke="#666666" points="1281.25,-136 1128.75,-136 1128.75,-116 1281.25,-116 1281.25,-136"/>
<text text-anchor="middle" x="1205" y="-122.5" font-family="Helvetica,sans-Serif" font-size="10.00">LSM1x0A_LoRaWAN::isJoined</text>
</a>
</g>
</g>
<!-- Node3&#45;&gt;Node7 -->
<g id="edge6_Node000003_Node000007" class="edge">
<title>Node3&#45;&gt;Node7</title>
<g id="a_edge6_Node000003_Node000007"><a xlink:title=" ">
<path fill="none" stroke="#63b8ff" d="M438.93,-181.77C448.99,-151.92 474.98,-88.97 522,-63 633.04,-1.69 970.76,-22.24 1092.75,-57 1127.82,-66.99 1162.62,-91.56 1183.72,-108.51"/>
<polygon fill="#63b8ff" stroke="#63b8ff" points="1181.3,-111.05 1191.24,-114.72 1185.76,-105.65 1181.3,-111.05"/>
</a>
</g>
</g>
<!-- Node8 -->
<g id="Node000008" class="node">
<title>Node8</title>
<g id="a_Node000008"><a xlink:href="../../d5/d72/classLSM1x0A__LoRaWAN.html#a83e11c0e74ff9e0757db616ab1163424" target="_top" xlink:title="Attempts to recover a lost connection (re&#45;executes OTAA Join if dropped).">
<polygon fill="white" stroke="#666666" points="675.62,-192 526.88,-192 526.88,-160 675.62,-160 675.62,-192"/>
<text text-anchor="start" x="534.88" y="-178.5" font-family="Helvetica,sans-Serif" font-size="10.00">LSM1x0A_LoRaWAN::recover</text>
<text text-anchor="middle" x="601.25" y="-166.5" font-family="Helvetica,sans-Serif" font-size="10.00">Connection</text>
</a>
</g>
</g>
<!-- Node3&#45;&gt;Node8 -->
<g id="edge7_Node000003_Node000008" class="edge">
<title>Node3&#45;&gt;Node8</title>
<g id="a_edge7_Node000003_Node000008"><a xlink:title=" ">
<path fill="none" stroke="#63b8ff" d="M486.15,-191.1C495.49,-189.86 505.44,-188.55 515.42,-187.23"/>
<polygon fill="#63b8ff" stroke="#63b8ff" points="515.72,-190.72 525.17,-185.94 514.8,-183.78 515.72,-190.72"/>
</a>
</g>
</g>
<!-- Node16 -->
<g id="Node000016" class="node">
<title>Node16</title>
<g id="a_Node000016"><a xlink:href="../../d5/d72/classLSM1x0A__LoRaWAN.html#ae3be4ce59dfa200369733317df356e97" target="_top" xlink:title="Pushes the RAM&#45;cached variables back down into the hardware module. Restores the operational state af...">
<polygon fill="white" stroke="#666666" points="863,-539 716.5,-539 716.5,-507 863,-507 863,-539"/>
<text text-anchor="start" x="724.5" y="-525.5" font-family="Helvetica,sans-Serif" font-size="10.00">LSM1x0A_LoRaWAN::restore</text>
<text text-anchor="middle" x="789.75" y="-513.5" font-family="Helvetica,sans-Serif" font-size="10.00">Config</text>
</a>
</g>
</g>
<!-- Node3&#45;&gt;Node16 -->
<g id="edge20_Node000003_Node000016" class="edge">
<title>Node3&#45;&gt;Node16</title>
<g id="a_edge20_Node000003_Node000016"><a xlink:title=" ">
<path fill="none" stroke="#63b8ff" d="M451.59,-214.12C509.51,-267.18 694.44,-436.6 762.92,-499.34"/>
<polygon fill="#63b8ff" stroke="#63b8ff" points="760.2,-501.59 769.94,-505.76 764.93,-496.43 760.2,-501.59"/>
</a>
</g>
</g>
<!-- Node33 -->
<g id="Node000033" class="node">
<title>Node33</title>
<g id="a_Node000033"><a xlink:href="../../d5/d72/classLSM1x0A__LoRaWAN.html#ace4b04396f1de1f4a54f513f5f378db7" target="_top" xlink:title="Manually overrides the internal joined state tracker.">
<polygon fill="white" stroke="#666666" points="680.5,-939 522,-939 522,-919 680.5,-919 680.5,-939"/>
<text text-anchor="middle" x="601.25" y="-925.5" font-family="Helvetica,sans-Serif" font-size="10.00">LSM1x0A_LoRaWAN::setJoined</text>
</a>
</g>
</g>
<!-- Node3&#45;&gt;Node33 -->
<g id="edge54_Node000003_Node000033" class="edge">
<title>Node3&#45;&gt;Node33</title>
<g id="a_edge54_Node000003_Node000033"><a xlink:title=" ">
<path fill="none" stroke="#63b8ff" d="M433.72,-214.4C432.4,-310.08 430.33,-795.83 522,-905 524.42,-907.88 527.18,-910.43 530.18,-912.67"/>
<polygon fill="#63b8ff" stroke="#63b8ff" points="528.16,-915.54 538.52,-917.75 531.8,-909.56 528.16,-915.54"/>
</a>
</g>
</g>
<!-- Node34 -->
<g id="Node000034" class="node">
<title>Node34</title>
<g id="a_Node000034"><a xlink:href="../../d8/d92/classLSM1x0A__Controller.html#a11ad21cb5ca33ec51346764a23bd485e" target="_top" xlink:title="Performs a software reset (ATZ Command).">
<polygon fill="white" stroke="#666666" points="1258,-795 1152,-795 1152,-763 1258,-763 1258,-795"/>
<text text-anchor="start" x="1160" y="-781.5" font-family="Helvetica,sans-Serif" font-size="10.00">LSM1x0A_Controller</text>
<text text-anchor="middle" x="1205" y="-769.5" font-family="Helvetica,sans-Serif" font-size="10.00">::softwareReset</text>
</a>
</g>
</g>
<!-- Node3&#45;&gt;Node34 -->
<g id="edge55_Node000003_Node000034" class="edge">
<title>Node3&#45;&gt;Node34</title>
<g id="a_edge55_Node000003_Node000034"><a xlink:title=" ">
<path fill="none" stroke="#63b8ff" d="M434.64,-214.18C438.91,-318.83 465,-897.3 522,-948 587.19,-1005.99 855.14,-1058.87 1092.75,-932 1144.21,-904.52 1177.82,-841.52 1193.57,-805.51"/>
<polygon fill="#63b8ff" stroke="#63b8ff" points="1196.64,-807.25 1197.3,-796.67 1190.19,-804.53 1196.64,-807.25"/>
</a>
</g>
</g>
<!-- Node6 -->
<g id="Node000006" class="node">
<title>Node6</title>
<g id="a_Node000006"><a xlink:href="../../d6/d3c/classLSM1x0A__AtParser.html#ad2839120da13e56132b95019419be1e5" target="_top" xlink:title="Waits for an event (like BOOTALERT) without sending any command. Useful for hardware reset where the ...">
<polygon fill="white" stroke="#666666" points="860,-104 719.5,-104 719.5,-72 860,-72 860,-104"/>
<text text-anchor="start" x="727.5" y="-90.5" font-family="Helvetica,sans-Serif" font-size="10.00">LSM1x0A_AtParser::waitFor</text>
<text text-anchor="middle" x="789.75" y="-78.5" font-family="Helvetica,sans-Serif" font-size="10.00">Event</text>
</a>
</g>
</g>
<!-- Node5&#45;&gt;Node6 -->
<g id="edge5_Node000005_Node000006" class="edge">
<title>Node5&#45;&gt;Node6</title>
<g id="a_edge5_Node000005_Node000006"><a xlink:title=" ">
<path fill="none" stroke="#63b8ff" d="M654.7,-88C671.21,-88 689.86,-88 707.87,-88"/>
<polygon fill="#63b8ff" stroke="#63b8ff" points="707.78,-91.5 717.78,-88 707.78,-84.5 707.78,-91.5"/>
</a>
</g>
</g>
<!-- Node9 -->
<g id="Node000009" class="node">
<title>Node9</title>
<g id="a_Node000009"><a xlink:href="../../d5/d72/classLSM1x0A__LoRaWAN.html#a59f781f3cfd30c11cd3973bcb10a7baa" target="_top" xlink:title="Initiates a LoRaWAN Network Join procedure. This is a blocking function until the module fires an eve...">
<polygon fill="white" stroke="#666666" points="855.5,-186 724,-186 724,-166 855.5,-166 855.5,-186"/>
<text text-anchor="middle" x="789.75" y="-172.5" font-family="Helvetica,sans-Serif" font-size="10.00">LSM1x0A_LoRaWAN::join</text>
</a>
</g>
</g>
<!-- Node8&#45;&gt;Node9 -->
<g id="edge8_Node000008_Node000009" class="edge">
<title>Node8&#45;&gt;Node9</title>
<g id="a_edge8_Node000008_Node000009"><a xlink:title=" ">
<path fill="none" stroke="#63b8ff" d="M675.96,-176C687.92,-176 700.33,-176 712.35,-176"/>
<polygon fill="#63b8ff" stroke="#63b8ff" points="712.22,-179.5 722.22,-176 712.22,-172.5 712.22,-179.5"/>
</a>
</g>
</g>
<!-- Node9&#45;&gt;Node3 -->
<g id="edge10_Node000009_Node000003" class="edge">
<title>Node9&#45;&gt;Node3</title>
<g id="a_edge10_Node000009_Node000003"><a xlink:title=" ">
<path fill="none" stroke="#63b8ff" d="M753.02,-186.4C732.09,-191.95 705.03,-198.2 680.5,-201 610.51,-208.98 592.43,-202.2 522,-201 514.1,-200.87 505.81,-200.66 497.61,-200.43"/>
<polygon fill="#63b8ff" stroke="#63b8ff" points="497.73,-196.93 487.62,-200.12 497.51,-203.92 497.73,-196.93"/>
</a>
</g>
</g>
<!-- Node9&#45;&gt;Node4 -->
<g id="edge9_Node000009_Node000004" class="edge">
<title>Node9&#45;&gt;Node4</title>
<g id="a_edge9_Node000009_Node000004"><a xlink:title=" ">
<path fill="none" stroke="#63b8ff" d="M824.3,-165.52C837.05,-160.68 851.31,-154.16 863,-146 882.34,-132.5 878.77,-119.13 899,-107 908.95,-101.03 920.31,-96.47 931.65,-93"/>
<polygon fill="#63b8ff" stroke="#63b8ff" points="932.32,-96.45 941.01,-90.39 930.44,-89.7 932.32,-96.45"/>
</a>
</g>
</g>
<!-- Node10 -->
<g id="Node000010" class="node">
<title>Node10</title>
<g id="a_Node000010"><a xlink:href="../../d8/d92/classLSM1x0A__Controller.html#afd7d92e60ed6fdae696a955cdbe0ed8c" target="_top" xlink:title="Sends any AT command to the module, returning error if it fails. Internally uses the LsmAtParser logi...">
<polygon fill="white" stroke="#666666" points="1258,-558 1152,-558 1152,-526 1258,-526 1258,-558"/>
<text text-anchor="start" x="1160" y="-544.5" font-family="Helvetica,sans-Serif" font-size="10.00">LSM1x0A_Controller</text>
<text text-anchor="middle" x="1205" y="-532.5" font-family="Helvetica,sans-Serif" font-size="10.00">::sendCommand</text>
</a>
</g>
</g>
<!-- Node9&#45;&gt;Node10 -->
<g id="edge11_Node000009_Node000010" class="edge">
<title>Node9&#45;&gt;Node10</title>
<g id="a_edge11_Node000009_Node000010"><a xlink:title=" ">
<path fill="none" stroke="#63b8ff" d="M855.78,-171.81C933.39,-168.2 1057.16,-167.28 1092.75,-195 1194.48,-274.23 1204.74,-447.25 1204.7,-514.5"/>
<polygon fill="#63b8ff" stroke="#63b8ff" points="1201.2,-514.23 1204.6,-524.26 1208.2,-514.3 1201.2,-514.23"/>
</a>
</g>
</g>
<!-- Node14 -->
<g id="Node000014" class="node">
<title>Node14</title>
<g id="a_Node000014"><a xlink:href="../../d5/d72/classLSM1x0A__LoRaWAN.html#a3fdd1ac318a5ad2559323e5d57e36a5e" target="_top" xlink:title="Enables or disables specific sub&#45;bands for regions supporting Channel Masks (e.g.,...">
<polygon fill="white" stroke="#666666" points="1090.88,-224 900.88,-224 900.88,-204 1090.88,-204 1090.88,-224"/>
<text text-anchor="middle" x="995.88" y="-210.5" font-family="Helvetica,sans-Serif" font-size="10.00">LSM1x0A_LoRaWAN::setChannelMask</text>
</a>
</g>
</g>
<!-- Node9&#45;&gt;Node14 -->
<g id="edge16_Node000009_Node000014" class="edge">
<title>Node9&#45;&gt;Node14</title>
<g id="a_edge16_Node000009_Node000014"><a xlink:title=" ">
<path fill="none" stroke="#63b8ff" d="M847.07,-186.48C871.94,-191.12 901.39,-196.6 927.43,-201.44"/>
<polygon fill="#63b8ff" stroke="#63b8ff" points="926.78,-204.88 937.25,-203.27 928.06,-198 926.78,-204.88"/>
</a>
</g>
</g>
<!-- Node15 -->
<g id="Node000015" class="node">
<title>Node15</title>
<g id="a_Node000015"><a xlink:href="../../d8/d92/classLSM1x0A__Controller.html#a62476e30e50c7fe120aeb8df4b828675" target="_top" xlink:title="Synchronously/blockingly waits for an asynchronous event to occur. Useful for wrapping commands like ...">
<polygon fill="white" stroke="#666666" points="1048.88,-148 942.88,-148 942.88,-116 1048.88,-116 1048.88,-148"/>
<text text-anchor="start" x="950.88" y="-134.5" font-family="Helvetica,sans-Serif" font-size="10.00">LSM1x0A_Controller</text>
<text text-anchor="middle" x="995.88" y="-122.5" font-family="Helvetica,sans-Serif" font-size="10.00">::waitForEvent</text>
</a>
</g>
</g>
<!-- Node9&#45;&gt;Node15 -->
<g id="edge19_Node000009_Node000015" class="edge">
<title>Node9&#45;&gt;Node15</title>
<g id="a_edge19_Node000009_Node000015"><a xlink:title=" ">
<path fill="none" stroke="#63b8ff" d="M839.38,-165.52C866.99,-159.57 901.86,-152.05 931.57,-145.65"/>
<polygon fill="#63b8ff" stroke="#63b8ff" points="932.17,-149.1 941.2,-143.57 930.69,-142.25 932.17,-149.1"/>
</a>
</g>
</g>
<!-- Node10&#45;&gt;Node3 -->
<g id="edge12_Node000010_Node000003" class="edge">
<title>Node10&#45;&gt;Node3</title>
<g id="a_edge12_Node000010_Node000003"><a xlink:title=" ">
<path fill="none" stroke="#63b8ff" d="M1197.57,-558.31C1183.81,-593.61 1150.91,-679.91 1128.75,-754 1109.48,-818.44 1145.67,-859.48 1092.75,-901 1025,-954.16 975.44,-940.65 899,-901 611.68,-751.97 473.72,-335.66 441.52,-225.19"/>
<polygon fill="#63b8ff" stroke="#63b8ff" points="444.95,-224.47 438.83,-215.82 438.22,-226.4 444.95,-224.47"/>
</a>
</g>
</g>
<!-- Node11 -->
<g id="Node000011" class="node">
<title>Node11</title>
<g id="a_Node000011"><a xlink:href="../../d6/d3c/classLSM1x0A__AtParser.html#a29b53c521974387ba6c03afadfaffa4a" target="_top" xlink:title="Sends a simple command and waits for OK/ERROR. Example: sendCommand(&quot;AT+JOIN&quot;);.">
<polygon fill="white" stroke="#666666" points="1491.5,-552 1317.25,-552 1317.25,-532 1491.5,-532 1491.5,-552"/>
<text text-anchor="middle" x="1404.38" y="-538.5" font-family="Helvetica,sans-Serif" font-size="10.00">LSM1x0A_AtParser::sendCommand</text>
</a>
</g>
</g>
<!-- Node10&#45;&gt;Node11 -->
<g id="edge13_Node000010_Node000011" class="edge">
<title>Node10&#45;&gt;Node11</title>
<g id="a_edge13_Node000010_Node000011"><a xlink:title=" ">
<path fill="none" stroke="#63b8ff" d="M1258.37,-542C1272.94,-542 1289.25,-542 1305.53,-542"/>
<polygon fill="#63b8ff" stroke="#63b8ff" points="1305.26,-545.5 1315.26,-542 1305.26,-538.5 1305.26,-545.5"/>
</a>
</g>
</g>
<!-- Node11&#45;&gt;Node12 -->
<g id="edge14_Node000011_Node000012" class="edge">
<title>Node11&#45;&gt;Node12</title>
<g id="a_edge14_Node000011_Node000012"><a xlink:title=" ">
<path fill="none" stroke="#63b8ff" d="M1413.28,-531.71C1443.19,-492.78 1549.93,-353.88 1594.19,-296.3"/>
<polygon fill="#63b8ff" stroke="#63b8ff" points="1596.73,-298.73 1600.05,-288.67 1591.18,-294.46 1596.73,-298.73"/>
</a>
</g>
</g>
<!-- Node13 -->
<g id="Node000013" class="node">
<title>Node13</title>
<g id="a_Node000013"><a xlink:href="../../d5/d8b/classUartDriver.html#a5d0f22e8867eebe99273078bb19bd23d" target="_top" xlink:title="Sends data through UART.">
<polygon fill="white" stroke="#666666" points="1846.75,-281 1737.75,-281 1737.75,-261 1846.75,-261 1846.75,-281"/>
<text text-anchor="middle" x="1792.25" y="-267.5" font-family="Helvetica,sans-Serif" font-size="10.00">UartDriver::sendData</text>
</a>
</g>
</g>
<!-- Node12&#45;&gt;Node13 -->
<g id="edge15_Node000012_Node000013" class="edge">
<title>Node12&#45;&gt;Node13</title>
<g id="a_edge15_Node000012_Node000013"><a xlink:title=" ">
<path fill="none" stroke="#63b8ff" d="M1702.15,-271C1710.3,-271 1718.45,-271 1726.35,-271"/>
<polygon fill="#63b8ff" stroke="#63b8ff" points="1726.18,-274.5 1736.18,-271 1726.18,-267.5 1726.18,-274.5"/>
</a>
</g>
</g>
<!-- Node14&#45;&gt;Node7 -->
<g id="edge17_Node000014_Node000007" class="edge">
<title>Node14&#45;&gt;Node7</title>
<g id="a_edge17_Node000014_Node000007"><a xlink:title=" ">
<path fill="none" stroke="#63b8ff" d="M1021.45,-203.56C1058.04,-188.01 1127.03,-158.7 1168.92,-140.9"/>
<polygon fill="#63b8ff" stroke="#63b8ff" points="1170.23,-144.15 1178.07,-137.02 1167.49,-137.71 1170.23,-144.15"/>
</a>
</g>
</g>
<!-- Node14&#45;&gt;Node10 -->
<g id="edge18_Node000014_Node000010" class="edge">
<title>Node14&#45;&gt;Node10</title>
<g id="a_edge18_Node000014_Node000010"><a xlink:title=" ">
<path fill="none" stroke="#63b8ff" d="M1079.63,-224.28C1084.33,-226.69 1088.76,-229.57 1092.75,-233 1179.08,-307.27 1198.42,-453.75 1202.75,-514.55"/>
<polygon fill="#63b8ff" stroke="#63b8ff" points="1199.25,-514.57 1203.36,-524.33 1206.23,-514.13 1199.25,-514.57"/>
</a>
</g>
</g>
<!-- Node16&#45;&gt;Node14 -->
<g id="edge25_Node000016_Node000014" class="edge">
<title>Node16&#45;&gt;Node14</title>
<g id="a_edge25_Node000016_Node000014"><a xlink:title=" ">
<path fill="none" stroke="#63b8ff" d="M791.55,-506.78C794.93,-457.25 812.2,-306.79 899,-233 900.13,-232.04 901.29,-231.13 902.48,-230.25"/>
<polygon fill="#63b8ff" stroke="#63b8ff" points="904.17,-233.33 910.87,-225.12 900.52,-227.35 904.17,-233.33"/>
</a>
</g>
</g>
<!-- Node17 -->
<g id="Node000017" class="node">
<title>Node17</title>
<g id="a_Node000017"><a xlink:href="../../d5/d72/classLSM1x0A__LoRaWAN.html#af0baa3db4c7fab580d6b19a9e92472f6" target="_top" xlink:title="Enables or disables Adaptive Data Rate (ADR).">
<polygon fill="white" stroke="#666666" points="1071.75,-350 920,-350 920,-330 1071.75,-330 1071.75,-350"/>
<text text-anchor="middle" x="995.88" y="-336.5" font-family="Helvetica,sans-Serif" font-size="10.00">LSM1x0A_LoRaWAN::setADR</text>
</a>
</g>
</g>
<!-- Node16&#45;&gt;Node17 -->
<g id="edge21_Node000016_Node000017" class="edge">
<title>Node16&#45;&gt;Node17</title>
<g id="a_edge21_Node000016_Node000017"><a xlink:title=" ">
<path fill="none" stroke="#63b8ff" d="M796.56,-506.6C809.35,-473 843.35,-396.38 899,-359 902.27,-356.8 905.73,-354.85 909.33,-353.11"/>
<polygon fill="#63b8ff" stroke="#63b8ff" points="910.48,-356.42 918.37,-349.35 907.79,-349.96 910.48,-356.42"/>
</a>
</g>
</g>
<!-- Node18 -->
<g id="Node000018" class="node">
<title>Node18</title>
<g id="a_Node000018"><a xlink:href="../../d5/d72/classLSM1x0A__LoRaWAN.html#a5365ed1596eb84ebf1e3b33b4a10c788" target="_top" xlink:title="Sets the LoRaWAN operational frequency band.">
<polygon fill="white" stroke="#666666" points="1072.12,-312 919.62,-312 919.62,-292 1072.12,-292 1072.12,-312"/>
<text text-anchor="middle" x="995.88" y="-298.5" font-family="Helvetica,sans-Serif" font-size="10.00">LSM1x0A_LoRaWAN::setBand</text>
</a>
</g>
</g>
<!-- Node16&#45;&gt;Node18 -->
<g id="edge23_Node000016_Node000018" class="edge">
<title>Node16&#45;&gt;Node18</title>
<g id="a_edge23_Node000016_Node000018"><a xlink:title=" ">
<path fill="none" stroke="#63b8ff" d="M794.47,-506.5C804.2,-467.43 834.24,-368.94 899,-321 902.16,-318.66 905.54,-316.58 909.07,-314.75"/>
<polygon fill="#63b8ff" stroke="#63b8ff" points="910.25,-318.05 917.97,-310.8 907.41,-311.66 910.25,-318.05"/>
</a>
</g>
</g>
<!-- Node19 -->
<g id="Node000019" class="node">
<title>Node19</title>
<g id="a_Node000019"><a xlink:href="../../d5/d72/classLSM1x0A__LoRaWAN.html#a9d9285c43414337a0ccb3a6cd7ca06e6" target="_top" xlink:title="Configures the number of retries for Confirmed uplinks.">
<polygon fill="white" stroke="#666666" points="1078.12,-274 913.62,-274 913.62,-242 1078.12,-242 1078.12,-274"/>
<text text-anchor="start" x="921.62" y="-260.5" font-family="Helvetica,sans-Serif" font-size="10.00">LSM1x0A_LoRaWAN::setConfirm</text>
<text text-anchor="middle" x="995.88" y="-248.5" font-family="Helvetica,sans-Serif" font-size="10.00">Retry</text>
</a>
</g>
</g>
<!-- Node16&#45;&gt;Node19 -->
<g id="edge26_Node000016_Node000019" class="edge">
<title>Node16&#45;&gt;Node19</title>
<g id="a_edge26_Node000016_Node000019"><a xlink:title=" ">
<path fill="none" stroke="#63b8ff" d="M793.18,-506.7C800.55,-463.28 826.7,-344.03 899,-283 900.49,-281.74 902.04,-280.55 903.63,-279.41"/>
<polygon fill="#63b8ff" stroke="#63b8ff" points="905.25,-282.52 911.95,-274.32 901.6,-276.55 905.25,-282.52"/>
</a>
</g>
</g>
<!-- Node20 -->
<g id="Node000020" class="node">
<title>Node20</title>
<g id="a_Node000020"><a xlink:href="../../d5/d72/classLSM1x0A__LoRaWAN.html#a56345ceeafa0b9059d6de4e69eddc82e" target="_top" xlink:title="Sets the Data Rate (DR) of the module.">
<polygon fill="white" stroke="#666666" points="1081.88,-892 909.88,-892 909.88,-872 1081.88,-872 1081.88,-892"/>
<text text-anchor="middle" x="995.88" y="-878.5" font-family="Helvetica,sans-Serif" font-size="10.00">LSM1x0A_LoRaWAN::setDataRate</text>
</a>
</g>
</g>
<!-- Node16&#45;&gt;Node20 -->
<g id="edge28_Node000016_Node000020" class="edge">
<title>Node16&#45;&gt;Node20</title>
<g id="a_edge28_Node000016_Node000020"><a xlink:title=" ">
<path fill="none" stroke="#63b8ff" d="M790.55,-539.16C790.79,-593.93 799.44,-774.06 899,-863 899.95,-863.85 900.92,-864.66 901.92,-865.44"/>
<polygon fill="#63b8ff" stroke="#63b8ff" points="899.95,-868.34 910.25,-870.83 903.75,-862.46 899.95,-868.34"/>
</a>
</g>
</g>
<!-- Node21 -->
<g id="Node000021" class="node">
<title>Node21</title>
<g id="a_Node000021"><a xlink:href="../../d5/d72/classLSM1x0A__LoRaWAN.html#a8494083816ab885cb07fc3b08de029f4" target="_top" xlink:title="Sets the LoRaWAN Device Address (DevAddr) for ABP mode.">
<polygon fill="white" stroke="#666666" points="1080,-854 911.75,-854 911.75,-834 1080,-834 1080,-854"/>
<text text-anchor="middle" x="995.88" y="-840.5" font-family="Helvetica,sans-Serif" font-size="10.00">LSM1x0A_LoRaWAN::setDevAddr</text>
</a>
</g>
</g>
<!-- Node16&#45;&gt;Node21 -->
<g id="edge30_Node000016_Node000021" class="edge">
<title>Node16&#45;&gt;Node21</title>
<g id="a_edge30_Node000016_Node000021"><a xlink:title=" ">
<path fill="none" stroke="#63b8ff" d="M791.28,-539.15C793.87,-589.92 809.12,-747.57 899,-825 900.12,-825.97 901.28,-826.89 902.46,-827.77"/>
<polygon fill="#63b8ff" stroke="#63b8ff" points="900.48,-830.65 910.82,-832.93 904.15,-824.7 900.48,-830.65"/>
</a>
</g>
</g>
<!-- Node22 -->
<g id="Node000022" class="node">
<title>Node22</title>
<g id="a_Node000022"><a xlink:href="../../d5/d72/classLSM1x0A__LoRaWAN.html#ad320634e52d7ea907043cc50dd37c5b0" target="_top" xlink:title="Sets the LoRaWAN Device EUI (DevEUI).">
<polygon fill="white" stroke="#666666" points="1078.5,-816 913.25,-816 913.25,-796 1078.5,-796 1078.5,-816"/>
<text text-anchor="middle" x="995.88" y="-802.5" font-family="Helvetica,sans-Serif" font-size="10.00">LSM1x0A_LoRaWAN::setDevEUI</text>
</a>
</g>
</g>
<!-- Node16&#45;&gt;Node22 -->
<g id="edge32_Node000016_Node000022" class="edge">
<title>Node16&#45;&gt;Node22</title>
<g id="a_edge32_Node000016_Node000022"><a xlink:title=" ">
<path fill="none" stroke="#63b8ff" d="M792.24,-539.44C797.39,-586.24 818.87,-721.05 899,-787 900.49,-788.22 902.03,-789.38 903.62,-790.46"/>
<polygon fill="#63b8ff" stroke="#63b8ff" points="901.48,-793.27 911.9,-795.21 904.97,-787.2 901.48,-793.27"/>
</a>
</g>
</g>
<!-- Node23 -->
<g id="Node000023" class="node">
<title>Node23</title>
<g id="a_Node000023"><a xlink:href="../../d5/d72/classLSM1x0A__LoRaWAN.html#a031023b0d2dd5db3c51c2db6ae7801cc" target="_top" xlink:title="Enables or disables the Duty Cycle limitation (EU regions mostly).">
<polygon fill="white" stroke="#666666" points="1071.38,-778 920.38,-778 920.38,-746 1071.38,-746 1071.38,-778"/>
<text text-anchor="start" x="928.38" y="-764.5" font-family="Helvetica,sans-Serif" font-size="10.00">LSM1x0A_LoRaWAN::setDuty</text>
<text text-anchor="middle" x="995.88" y="-752.5" font-family="Helvetica,sans-Serif" font-size="10.00">Cycle</text>
</a>
</g>
</g>
<!-- Node16&#45;&gt;Node23 -->
<g id="edge34_Node000016_Node000023" class="edge">
<title>Node16&#45;&gt;Node23</title>
<g id="a_edge34_Node000016_Node000023"><a xlink:title=" ">
<path fill="none" stroke="#63b8ff" d="M794.15,-539.3C803.4,-579.44 832.89,-683.67 899,-737 902.44,-739.78 906.16,-742.25 910.06,-744.44"/>
<polygon fill="#63b8ff" stroke="#63b8ff" points="908.21,-747.44 918.73,-748.7 911.3,-741.15 908.21,-747.44"/>
</a>
</g>
</g>
<!-- Node24 -->
<g id="Node000024" class="node">
<title>Node24</title>
<g id="a_Node000024"><a xlink:href="../../d5/d72/classLSM1x0A__LoRaWAN.html#a6b179d5825c49af0f391dfc539912f64" target="_top" xlink:title="Sets the delay for the Join1 receive window.">
<polygon fill="white" stroke="#666666" points="1072.5,-728 919.25,-728 919.25,-696 1072.5,-696 1072.5,-728"/>
<text text-anchor="start" x="927.25" y="-714.5" font-family="Helvetica,sans-Serif" font-size="10.00">LSM1x0A_LoRaWAN::setJoin1</text>
<text text-anchor="middle" x="995.88" y="-702.5" font-family="Helvetica,sans-Serif" font-size="10.00">Delay</text>
</a>
</g>
</g>
<!-- Node16&#45;&gt;Node24 -->
<g id="edge36_Node000016_Node000024" class="edge">
<title>Node16&#45;&gt;Node24</title>
<g id="a_edge36_Node000016_Node000024"><a xlink:title=" ">
<path fill="none" stroke="#63b8ff" d="M796.84,-539.39C810.06,-572.62 844.63,-648.08 899,-687 902.17,-689.27 905.54,-691.34 909.03,-693.21"/>
<polygon fill="#63b8ff" stroke="#63b8ff" points="907.28,-696.26 917.82,-697.38 910.28,-689.93 907.28,-696.26"/>
</a>
</g>
</g>
<!-- Node25 -->
<g id="Node000025" class="node">
<title>Node25</title>
<g id="a_Node000025"><a xlink:href="../../d5/d72/classLSM1x0A__LoRaWAN.html#a4545d0caad41558cdb9bae8286b104d8" target="_top" xlink:title="Sets the delay for the Join2 receive window.">
<polygon fill="white" stroke="#666666" points="1072.5,-678 919.25,-678 919.25,-646 1072.5,-646 1072.5,-678"/>
<text text-anchor="start" x="927.25" y="-664.5" font-family="Helvetica,sans-Serif" font-size="10.00">LSM1x0A_LoRaWAN::setJoin2</text>
<text text-anchor="middle" x="995.88" y="-652.5" font-family="Helvetica,sans-Serif" font-size="10.00">Delay</text>
</a>
</g>
</g>
<!-- Node16&#45;&gt;Node25 -->
<g id="edge38_Node000016_Node000025" class="edge">
<title>Node16&#45;&gt;Node25</title>
<g id="a_edge38_Node000016_Node000025"><a xlink:title=" ">
<path fill="none" stroke="#63b8ff" d="M801.64,-539.33C819.15,-564.27 855.99,-611.61 899,-637 902.01,-638.78 905.15,-640.43 908.38,-641.97"/>
<polygon fill="#63b8ff" stroke="#63b8ff" points="906.98,-645.18 917.55,-645.9 909.74,-638.74 906.98,-645.18"/>
</a>
</g>
</g>
<!-- Node26 -->
<g id="Node000026" class="node">
<title>Node26</title>
<g id="a_Node000026"><a xlink:href="../../d5/d72/classLSM1x0A__LoRaWAN.html#a06bd50723ec1eb7e144c9141b2ec86fc" target="_top" xlink:title="Sets the LoRaWAN Network ID (NetID).">
<polygon fill="white" stroke="#666666" points="1076.25,-628 915.5,-628 915.5,-608 1076.25,-608 1076.25,-628"/>
<text text-anchor="middle" x="995.88" y="-614.5" font-family="Helvetica,sans-Serif" font-size="10.00">LSM1x0A_LoRaWAN::setNwkID</text>
</a>
</g>
</g>
<!-- Node16&#45;&gt;Node26 -->
<g id="edge40_Node000016_Node000026" class="edge">
<title>Node16&#45;&gt;Node26</title>
<g id="a_edge40_Node000016_Node000026"><a xlink:title=" ">
<path fill="none" stroke="#63b8ff" d="M808.85,-539.34C829.26,-556.84 864.16,-584.11 899,-599 903.6,-600.97 908.41,-602.73 913.33,-604.32"/>
<polygon fill="#63b8ff" stroke="#63b8ff" points="912.17,-607.63 922.76,-607.08 914.14,-600.91 912.17,-607.63"/>
</a>
</g>
</g>
<!-- Node27 -->
<g id="Node000027" class="node">
<title>Node27</title>
<g id="a_Node000027"><a xlink:href="../../d5/d72/classLSM1x0A__LoRaWAN.html#aa70ada64d28ecca216bb62268e502adf" target="_top" xlink:title="Sets the delay for the RX1 receive window.">
<polygon fill="white" stroke="#666666" points="1082.62,-590 909.12,-590 909.12,-570 1082.62,-570 1082.62,-590"/>
<text text-anchor="middle" x="995.88" y="-576.5" font-family="Helvetica,sans-Serif" font-size="10.00">LSM1x0A_LoRaWAN::setRx1Delay</text>
</a>
</g>
</g>
<!-- Node16&#45;&gt;Node27 -->
<g id="edge42_Node000016_Node000027" class="edge">
<title>Node16&#45;&gt;Node27</title>
<g id="a_edge42_Node000016_Node000027"><a xlink:title=" ">
<path fill="none" stroke="#63b8ff" d="M833.24,-539.49C853.02,-546.76 877,-554.99 899,-561 907.08,-563.21 915.61,-565.27 924.12,-567.16"/>
<polygon fill="#63b8ff" stroke="#63b8ff" points="923.25,-570.55 933.76,-569.23 924.72,-563.71 923.25,-570.55"/>
</a>
</g>
</g>
<!-- Node28 -->
<g id="Node000028" class="node">
<title>Node28</title>
<g id="a_Node000028"><a xlink:href="../../d5/d72/classLSM1x0A__LoRaWAN.html#a2cf4eff0181b6107d082bccefa24217b" target="_top" xlink:title="Sets the Data Rate (DR) specifically for the RX2 window.">
<polygon fill="white" stroke="#666666" points="1090.88,-552 900.88,-552 900.88,-532 1090.88,-532 1090.88,-552"/>
<text text-anchor="middle" x="995.88" y="-538.5" font-family="Helvetica,sans-Serif" font-size="10.00">LSM1x0A_LoRaWAN::setRx2DataRate</text>
</a>
</g>
</g>
<!-- Node16&#45;&gt;Node28 -->
<g id="edge44_Node000016_Node000028" class="edge">
<title>Node16&#45;&gt;Node28</title>
<g id="a_edge44_Node000016_Node000028"><a xlink:title=" ">
<path fill="none" stroke="#63b8ff" d="M863.29,-529.75C871.66,-530.53 880.31,-531.34 889.01,-532.15"/>
<polygon fill="#63b8ff" stroke="#63b8ff" points="888.64,-535.63 898.93,-533.07 889.29,-528.66 888.64,-535.63"/>
</a>
</g>
</g>
<!-- Node29 -->
<g id="Node000029" class="node">
<title>Node29</title>
<g id="a_Node000029"><a xlink:href="../../d5/d72/classLSM1x0A__LoRaWAN.html#a42d2137b475b57e19d891a5f1ac93221" target="_top" xlink:title="Sets the delay for the RX2 receive window.">
<polygon fill="white" stroke="#666666" points="1082.62,-514 909.12,-514 909.12,-494 1082.62,-494 1082.62,-514"/>
<text text-anchor="middle" x="995.88" y="-500.5" font-family="Helvetica,sans-Serif" font-size="10.00">LSM1x0A_LoRaWAN::setRx2Delay</text>
</a>
</g>
</g>
<!-- Node16&#45;&gt;Node29 -->
<g id="edge46_Node000016_Node000029" class="edge">
<title>Node16&#45;&gt;Node29</title>
<g id="a_edge46_Node000016_Node000029"><a xlink:title=" ">
<path fill="none" stroke="#63b8ff" d="M863.29,-516.25C874.49,-515.21 886.22,-514.11 897.85,-513.03"/>
<polygon fill="#63b8ff" stroke="#63b8ff" points="897.82,-516.55 907.45,-512.14 897.17,-509.58 897.82,-516.55"/>
</a>
</g>
</g>
<!-- Node30 -->
<g id="Node000030" class="node">
<title>Node30</title>
<g id="a_Node000030"><a xlink:href="../../d5/d72/classLSM1x0A__LoRaWAN.html#a689f7dfda1dfeae11ea397c2ddf2ad37" target="_top" xlink:title="Sets the precise frequency for the RX2 window.">
<polygon fill="white" stroke="#666666" points="1092.75,-476 899,-476 899,-456 1092.75,-456 1092.75,-476"/>
<text text-anchor="middle" x="995.88" y="-462.5" font-family="Helvetica,sans-Serif" font-size="10.00">LSM1x0A_LoRaWAN::setRx2Frequency</text>
</a>
</g>
</g>
<!-- Node16&#45;&gt;Node30 -->
<g id="edge48_Node000016_Node000030" class="edge">
<title>Node16&#45;&gt;Node30</title>
<g id="a_edge48_Node000016_Node000030"><a xlink:title=" ">
<path fill="none" stroke="#63b8ff" d="M833.24,-506.51C853.02,-499.24 877,-491.01 899,-485 907.08,-482.79 915.61,-480.73 924.12,-478.84"/>
<polygon fill="#63b8ff" stroke="#63b8ff" points="924.72,-482.29 933.76,-476.77 923.25,-475.45 924.72,-482.29"/>
</a>
</g>
</g>
<!-- Node31 -->
<g id="Node000031" class="node">
<title>Node31</title>
<g id="a_Node000031"><a xlink:href="../../d5/d72/classLSM1x0A__LoRaWAN.html#a1df10d7ae6bf45b537d28d3d5c4b88d7" target="_top" xlink:title="Sets the transmission power index.">
<polygon fill="white" stroke="#666666" points="1080.38,-438 911.38,-438 911.38,-418 1080.38,-418 1080.38,-438"/>
<text text-anchor="middle" x="995.88" y="-424.5" font-family="Helvetica,sans-Serif" font-size="10.00">LSM1x0A_LoRaWAN::setTxPower</text>
</a>
</g>
</g>
<!-- Node16&#45;&gt;Node31 -->
<g id="edge50_Node000016_Node000031" class="edge">
<title>Node16&#45;&gt;Node31</title>
<g id="a_edge50_Node000016_Node000031"><a xlink:title=" ">
<path fill="none" stroke="#63b8ff" d="M808.85,-506.66C829.26,-489.16 864.16,-461.89 899,-447 903.6,-445.03 908.41,-443.27 913.33,-441.68"/>
<polygon fill="#63b8ff" stroke="#63b8ff" points="914.14,-445.09 922.76,-438.92 912.17,-438.37 914.14,-445.09"/>
</a>
</g>
</g>
<!-- Node32 -->
<g id="Node000032" class="node">
<title>Node32</title>
<g id="a_Node000032"><a xlink:href="../../d5/d72/classLSM1x0A__LoRaWAN.html#a059fd6a9356c4ecadd5a98294da5952d" target="_top" xlink:title="Configures the number of repetitions for Unconfirmed uplinks.">
<polygon fill="white" stroke="#666666" points="1083.38,-400 908.38,-400 908.38,-368 1083.38,-368 1083.38,-400"/>
<text text-anchor="start" x="916.38" y="-386.5" font-family="Helvetica,sans-Serif" font-size="10.00">LSM1x0A_LoRaWAN::setUnconfirm</text>
<text text-anchor="middle" x="995.88" y="-374.5" font-family="Helvetica,sans-Serif" font-size="10.00">Retry</text>
</a>
</g>
</g>
<!-- Node16&#45;&gt;Node32 -->
<g id="edge52_Node000016_Node000032" class="edge">
<title>Node16&#45;&gt;Node32</title>
<g id="a_edge52_Node000016_Node000032"><a xlink:title=" ">
<path fill="none" stroke="#63b8ff" d="M801.64,-506.67C819.15,-481.73 855.99,-434.39 899,-409 901.31,-407.64 903.7,-406.34 906.14,-405.12"/>
<polygon fill="#63b8ff" stroke="#63b8ff" points="907.4,-408.4 915.08,-401.1 904.53,-402.01 907.4,-408.4"/>
</a>
</g>
</g>
<!-- Node17&#45;&gt;Node10 -->
<g id="edge22_Node000017_Node000010" class="edge">
<title>Node17&#45;&gt;Node10</title>
<g id="a_edge22_Node000017_Node000010"><a xlink:title=" ">
<path fill="none" stroke="#63b8ff" d="M1072.15,-348.53C1079.47,-351.2 1086.49,-354.62 1092.75,-359 1148.34,-397.86 1181.19,-474.26 1195.49,-514.97"/>
<polygon fill="#63b8ff" stroke="#63b8ff" points="1192.11,-515.89 1198.62,-524.24 1198.74,-513.65 1192.11,-515.89"/>
</a>
</g>
</g>
<!-- Node18&#45;&gt;Node10 -->
<g id="edge24_Node000018_Node000010" class="edge">
<title>Node18&#45;&gt;Node10</title>
<g id="a_edge24_Node000018_Node000010"><a xlink:title=" ">
<path fill="none" stroke="#63b8ff" d="M1072.52,-310.03C1079.77,-312.79 1086.67,-316.38 1092.75,-321 1157.37,-370.13 1187.21,-467.16 1198.41,-514.6"/>
<polygon fill="#63b8ff" stroke="#63b8ff" points="1194.92,-515.06 1200.53,-524.05 1201.75,-513.53 1194.92,-515.06"/>
</a>
</g>
</g>
<!-- Node19&#45;&gt;Node10 -->
<g id="edge27_Node000019_Node000010" class="edge">
<title>Node19&#45;&gt;Node10</title>
<g id="a_edge27_Node000019_Node000010"><a xlink:title=" ">
<path fill="none" stroke="#63b8ff" d="M1078.58,-273.44C1083.66,-276.14 1088.45,-279.3 1092.75,-283 1164.7,-344.86 1191.48,-461.59 1200.24,-514.59"/>
<polygon fill="#63b8ff" stroke="#63b8ff" points="1196.75,-514.92 1201.74,-524.26 1203.67,-513.84 1196.75,-514.92"/>
</a>
</g>
</g>
<!-- Node20&#45;&gt;Node10 -->
<g id="edge29_Node000020_Node000010" class="edge">
<title>Node20&#45;&gt;Node10</title>
<g id="a_edge29_Node000020_Node000010"><a xlink:title=" ">
<path fill="none" stroke="#63b8ff" d="M1080.19,-871.6C1084.7,-869.21 1088.94,-866.37 1092.75,-863 1130.98,-829.22 1112.22,-802.26 1128.75,-754 1151.56,-687.42 1179.55,-609.52 1194.12,-569.23"/>
<polygon fill="#63b8ff" stroke="#63b8ff" points="1197.39,-570.47 1197.51,-559.87 1190.81,-568.08 1197.39,-570.47"/>
</a>
</g>
</g>
<!-- Node21&#45;&gt;Node10 -->
<g id="edge31_Node000021_Node000010" class="edge">
<title>Node21&#45;&gt;Node10</title>
<g id="a_edge31_Node000021_Node000010"><a xlink:title=" ">
<path fill="none" stroke="#63b8ff" d="M1079.52,-833.58C1084.25,-831.21 1088.71,-828.37 1092.75,-825 1113.53,-807.64 1172.44,-636.39 1195.03,-569.02"/>
<polygon fill="#63b8ff" stroke="#63b8ff" points="1198.24,-570.45 1198.09,-559.86 1191.6,-568.24 1198.24,-570.45"/>
</a>
</g>
</g>
<!-- Node22&#45;&gt;Node10 -->
<g id="edge33_Node000022_Node000010" class="edge">
<title>Node22&#45;&gt;Node10</title>
<g id="a_edge33_Node000022_Node000010"><a xlink:title=" ">
<path fill="none" stroke="#63b8ff" d="M1078.86,-795.56C1083.8,-793.2 1088.49,-790.37 1092.75,-787 1163.25,-731.13 1190.64,-620.69 1199.88,-569.39"/>
<polygon fill="#63b8ff" stroke="#63b8ff" points="1203.29,-570.18 1201.51,-559.74 1196.39,-569.01 1203.29,-570.18"/>
</a>
</g>
</g>
<!-- Node23&#45;&gt;Node10 -->
<g id="edge35_Node000023_Node000010" class="edge">
<title>Node23&#45;&gt;Node10</title>
<g id="a_edge35_Node000023_Node000010"><a xlink:title=" ">
<path fill="none" stroke="#63b8ff" d="M1071.41,-749.05C1079.04,-745.87 1086.33,-741.92 1092.75,-737 1149.74,-693.34 1182.31,-611.57 1196.1,-569.12"/>
<polygon fill="#63b8ff" stroke="#63b8ff" points="1199.4,-570.29 1199.05,-559.7 1192.72,-568.2 1199.4,-570.29"/>
</a>
</g>
</g>
<!-- Node24&#45;&gt;Node10 -->
<g id="edge37_Node000024_Node000010" class="edge">
<title>Node24&#45;&gt;Node10</title>
<g id="a_edge37_Node000024_Node000010"><a xlink:title=" ">
<path fill="none" stroke="#63b8ff" d="M1072.74,-697.37C1079.79,-694.51 1086.59,-691.09 1092.75,-687 1138.56,-656.61 1173.32,-600.94 1191,-568.13"/>
<polygon fill="#63b8ff" stroke="#63b8ff" points="1193.89,-570.16 1195.43,-559.68 1187.69,-566.91 1193.89,-570.16"/>
</a>
</g>
</g>
<!-- Node25&#45;&gt;Node10 -->
<g id="edge39_Node000025_Node000010" class="edge">
<title>Node25&#45;&gt;Node10</title>
<g id="a_edge39_Node000025_Node000010"><a xlink:title=" ">
<path fill="none" stroke="#63b8ff" d="M1072.93,-645.62C1079.79,-643.12 1086.5,-640.26 1092.75,-637 1127.54,-618.85 1160.85,-588.01 1181.81,-566.4"/>
<polygon fill="#63b8ff" stroke="#63b8ff" points="1184.08,-569.1 1188.43,-559.44 1179,-564.27 1184.08,-569.1"/>
</a>
</g>
</g>
<!-- Node26&#45;&gt;Node10 -->
<g id="edge41_Node000026_Node000010" class="edge">
<title>Node26&#45;&gt;Node10</title>
<g id="a_edge41_Node000026_Node000010"><a xlink:title=" ">
<path fill="none" stroke="#63b8ff" d="M1062.51,-607.52C1072.76,-605.16 1083.13,-602.34 1092.75,-599 1118.82,-589.94 1146.45,-575.81 1167.65,-563.89"/>
<polygon fill="#63b8ff" stroke="#63b8ff" points="1169.25,-567 1176.19,-559 1165.77,-560.93 1169.25,-567"/>
</a>
</g>
</g>
<!-- Node27&#45;&gt;Node10 -->
<g id="edge43_Node000027_Node000010" class="edge">
<title>Node27&#45;&gt;Node10</title>
<g id="a_edge43_Node000027_Node000010"><a xlink:title=" ">
<path fill="none" stroke="#63b8ff" d="M1054.02,-569.52C1080.86,-564.59 1112.94,-558.71 1140.53,-553.64"/>
<polygon fill="#63b8ff" stroke="#63b8ff" points="1140.96,-557.12 1150.16,-551.88 1139.69,-550.24 1140.96,-557.12"/>
</a>
</g>
</g>
<!-- Node28&#45;&gt;Node10 -->
<g id="edge45_Node000028_Node000010" class="edge">
<title>Node28&#45;&gt;Node10</title>
<g id="a_edge45_Node000028_Node000010"><a xlink:title=" ">
<path fill="none" stroke="#63b8ff" d="M1091.35,-542C1107.84,-542 1124.64,-542 1140.07,-542"/>
<polygon fill="#63b8ff" stroke="#63b8ff" points="1140.05,-545.5 1150.05,-542 1140.05,-538.5 1140.05,-545.5"/>
</a>
</g>
</g>
<!-- Node29&#45;&gt;Node10 -->
<g id="edge47_Node000029_Node000010" class="edge">
<title>Node29&#45;&gt;Node10</title>
<g id="a_edge47_Node000029_Node000010"><a xlink:title=" ">
<path fill="none" stroke="#63b8ff" d="M1054.02,-514.48C1080.86,-519.41 1112.94,-525.29 1140.53,-530.36"/>
<polygon fill="#63b8ff" stroke="#63b8ff" points="1139.69,-533.76 1150.16,-532.12 1140.96,-526.88 1139.69,-533.76"/>
</a>
</g>
</g>
<!-- Node30&#45;&gt;Node10 -->
<g id="edge49_Node000030_Node000010" class="edge">
<title>Node30&#45;&gt;Node10</title>
<g id="a_edge49_Node000030_Node000010"><a xlink:title=" ">
<path fill="none" stroke="#63b8ff" d="M1062.51,-476.48C1072.76,-478.84 1083.13,-481.66 1092.75,-485 1118.82,-494.06 1146.45,-508.19 1167.65,-520.11"/>
<polygon fill="#63b8ff" stroke="#63b8ff" points="1165.77,-523.07 1176.19,-525 1169.25,-517 1165.77,-523.07"/>
</a>
</g>
</g>
<!-- Node31&#45;&gt;Node10 -->
<g id="edge51_Node000031_Node000010" class="edge">
<title>Node31&#45;&gt;Node10</title>
<g id="a_edge51_Node000031_Node000010"><a xlink:title=" ">
<path fill="none" stroke="#63b8ff" d="M1070.14,-438.43C1077.96,-440.74 1085.65,-443.56 1092.75,-447 1128.26,-464.21 1161.65,-495.52 1182.41,-517.48"/>
<polygon fill="#63b8ff" stroke="#63b8ff" points="1179.6,-519.6 1188.96,-524.57 1184.74,-514.85 1179.6,-519.6"/>
</a>
</g>
</g>
<!-- Node32&#45;&gt;Node10 -->
<g id="edge53_Node000032_Node000010" class="edge">
<title>Node32&#45;&gt;Node10</title>
<g id="a_edge53_Node000032_Node000010"><a xlink:title=" ">
<path fill="none" stroke="#63b8ff" d="M1076,-400.31C1081.86,-402.81 1087.52,-405.69 1092.75,-409 1135.74,-436.23 1170.47,-485.5 1189.1,-515.83"/>
<polygon fill="#63b8ff" stroke="#63b8ff" points="1186.09,-517.61 1194.23,-524.4 1192.1,-514.02 1186.09,-517.61"/>
</a>
</g>
</g>
<!-- Node34&#45;&gt;Node11 -->
<g id="edge56_Node000034_Node000011" class="edge">
<title>Node34&#45;&gt;Node11</title>
<g id="a_edge56_Node000034_Node000011"><a xlink:title=" ">
<path fill="none" stroke="#63b8ff" d="M1219.57,-762.71C1254.94,-720.24 1349.84,-606.28 1387.58,-560.97"/>
<polygon fill="#63b8ff" stroke="#63b8ff" points="1390.05,-563.47 1393.76,-553.55 1384.67,-558.99 1390.05,-563.47"/>
</a>
</g>
</g>
</g>
</svg>

<g id="navigator" transform="translate(0 0)" fill="#404254">
  <rect fill="#f2f5e9" fill-opacity="0.5" stroke="#606060" stroke-width=".5" x="0" y="0" width="60" height="60"/>
  <use id="zoomplus" xlink:href="#zoomPlus" x="17" y="9" onmousedown="handleZoom(evt,'in')"/>
  <use id="zoomminus" xlink:href="#zoomMin" x="42" y="9" onmousedown="handleZoom(evt,'out')"/>
  <use id="reset" xlink:href="#resetDef" x="30" y="36" onmousedown="handleReset()"/>
   <use id="arrowup" xlink:href="#arrowUp" x="0" y="0" onmousedown="handlePan(0,-1)"/>
  <use id="arrowright" xlink:href="#arrowRight" x="0" y="0" onmousedown="handlePan(1,0)"/>
  <use id="arrowdown" xlink:href="#arrowDown" x="0" y="0" onmousedown="handlePan(0,1)"/>
  <use id="arrowleft" xlink:href="#arrowLeft" x="0" y="0" onmousedown="handlePan(-1,0)"/>
</g>
<svg viewBox="0 0 15 15" width="100%" height="30px" preserveAspectRatio="xMaxYMin meet">
 <g id="arrow_out" transform="scale(0.3 0.3)">
  <a xlink:href="classLSM1x0A__LoRaWAN_ad268c9bb57b3768caa12dc24dd45dfe4_cgraph_org.svg" target="_base">
   <rect id="button" ry="5" rx="5" y="6" x="6" height="38" width="38"
        fill="#f2f5e9" fill-opacity="0.5" stroke="#606060" stroke-width="1.0"/>
   <path id="arrow"
     d="M 11.500037,31.436501 C 11.940474,20.09759 22.043105,11.32322 32.158766,21.979434 L 37.068811,17.246167 C 37.068811,17.246167 37.088388,32 37.088388,32 L 22.160133,31.978069 C 22.160133,31.978069 26.997745,27.140456 26.997745,27.140456 C 18.528582,18.264221 13.291696,25.230495 11.500037,31.436501 z"
     style="fill:#404040;"/>
  </a>
 </g>
</svg>

<style type='text/css'>
<![CDATA[
[data-mouse-over-selected='false'] { opacity: 0.7; }
[data-mouse-over-selected='true']  { opacity: 1.0; }
]]>
</style>
<script type="application/ecmascript"><![CDATA[
document.addEventListener('DOMContentLoaded', (event) => {
  highlightEdges();
  highlightAdjacentNodes();
});
]]></script>
</svg>
