<?xml version="1.0" encoding="UTF-8" standalone="no"?>
<!DOCTYPE svg PUBLIC "-//W3C//DTD SVG 1.1//EN"
 "http://www.w3.org/Graphics/SVG/1.1/DTD/svg11.dtd">
<!-- Generated by graphviz version 12.2.1 (20241206.2353)
 -->
<!-- Title: LSM1x0A_LoRaWAN::getDevEUI Pages: 1 -->
<!--zoomable 1018 -->

<svg id="main" version="1.1" xmlns="http://www.w3.org/2000/svg" xmlns:xlink="http://www.w3.org/1999/xlink" xml:space="preserve" onload="init(evt)">
<style type="text/css"><![CDATA[
.node, .edge {opacity: 0.7;}
.node.selected, .edge.selected {opacity: 1;}
.edge:hover path { stroke: red; }
.edge:hover polygon { stroke: red; fill: red; }
]]></style>

<defs>
  <circle id="rim" cx="0" cy="0" r="7"/>
  <circle id="rim2" cx="0" cy="0" r="3.5"/>
  <g id="zoomPlus">
    <use xlink:href="#rim" fill="#404040"><set attributeName="fill" to="#808080" begin="zoomplus.mouseover" end="zoomplus.mouseout"/></use>
    <path d="M-4,0h8M0,-4v8" fill="none" stroke="white" stroke-width="1.5" pointer-events="none"/>
  </g>
  <g id="zoomMin">
    <use xlink:href="#rim" fill="#404040"><set attributeName="fill" to="#808080" begin="zoomminus.mouseover" end="zoomminus.mouseout"/></use>
    <path d="M-4,0h8" fill="none" stroke="white" stroke-width="1.5" pointer-events="none"/>
  </g>
  <g id="arrowUp" transform="translate(30 24)">
    <use xlink:href="#rim"/>
    <path pointer-events="none" fill="none" stroke="white" stroke-width="1.5" d="M0,-3.0v7 M-2.5,-0.5L0,-3.0L2.5,-0.5"/>
  </g>
  <g id="arrowRight" transform="rotate(90) translate(36 -43)">
    <use xlink:href="#rim"/>
    <path pointer-events="none" fill="none" stroke="white" stroke-width="1.5" d="M0,-3.0v7 M-2.5,-0.5L0,-3.0L2.5,-0.5"/>
  </g>
  <g id="arrowDown" transform="rotate(180) translate(-30 -48)">
    <use xlink:href="#rim"/>
    <path pointer-events="none" fill="none" stroke="white" stroke-width="1.5" d="M0,-3.0v7 M-2.5,-0.5L0,-3.0L2.5,-0.5"/>
  </g>
  <g id="arrowLeft" transform="rotate(270) translate(-36 17)">
    <use xlink:href="#rim"/>
    <path pointer-events="none" fill="none" stroke="white" stroke-width="1.5" d="M0,-3.0v7 M-2.5,-0.5L0,-3.0L2.5,-0.5"/>
  </g>
  <g id="resetDef">
    <use xlink:href="#rim2" fill="#404040"><set attributeName="fill" to="#808080" begin="reset.mouseover" end="reset.mouseout"/></use>
  </g>
</defs>
<script type="application/ecmascript">
var viewWidth = 1865;
var viewHeight = 1018;
var sectionId = 'dynsection-18';
</script>
<script type="application/ecmascript" xlink:href="../../svg.min.js"/>
<svg id="graph" class="graph">
<g id="viewport">
<title>LSM1x0A_LoRaWAN::getDevEUI</title>
<!-- Node1 -->
<g id="Node000001" class="node">
<title>Node1</title>
<g id="a_Node000001"><a xlink:title="Retrieves the Device EUI.">
<polygon fill="#999999" stroke="#666666" points="165.25,-98 0,-98 0,-78 165.25,-78 165.25,-98"/>
<text text-anchor="middle" x="82.62" y="-84.5" font-family="Helvetica,sans-Serif" font-size="10.00">LSM1x0A_LoRaWAN::getDevEUI</text>
</a>
</g>
</g>
<!-- Node2 -->
<g id="Node000002" class="node">
<title>Node2</title>
<g id="a_Node000002"><a xlink:href="../../d8/d92/classLSM1x0A__Controller.html#ab00328d1be83aa51bce8c2a4f907c5f4" target="_top" xlink:title="Sends an AT command and captures its response in a text block. Ideal for getters (e....">
<polygon fill="white" stroke="#666666" points="353.75,-104 201.25,-104 201.25,-72 353.75,-72 353.75,-104"/>
<text text-anchor="start" x="209.25" y="-90.5" font-family="Helvetica,sans-Serif" font-size="10.00">LSM1x0A_Controller</text>
<text text-anchor="middle" x="277.5" y="-78.5" font-family="Helvetica,sans-Serif" font-size="10.00">::sendCommandWithResponse</text>
</a>
</g>
</g>
<!-- Node1&#45;&gt;Node2 -->
<g id="edge1_Node000001_Node000002" class="edge">
<title>Node1&#45;&gt;Node2</title>
<g id="a_edge1_Node000001_Node000002"><a xlink:title=" ">
<path fill="none" stroke="#63b8ff" d="M165.7,-88C173.55,-88 181.54,-88 189.44,-88"/>
<polygon fill="#63b8ff" stroke="#63b8ff" points="189.41,-91.5 199.41,-88 189.41,-84.5 189.41,-91.5"/>
</a>
</g>
</g>
<!-- Node3 -->
<g id="Node000003" class="node">
<title>Node3</title>
<g id="a_Node000003"><a xlink:href="../../d8/d92/classLSM1x0A__Controller.html#abb0eb380daa3dfb7acffb483c5db8e2b" target="_top" xlink:title="Executes the recovery protocol. First Soft&#45;Reset (ATZ), then Hard&#45;Reset if there is a pin.">
<polygon fill="white" stroke="#666666" points="495.75,-214 389.75,-214 389.75,-182 495.75,-182 495.75,-214"/>
<text text-anchor="start" x="397.75" y="-200.5" font-family="Helvetica,sans-Serif" font-size="10.00">LSM1x0A_Controller</text>
<text text-anchor="middle" x="442.75" y="-188.5" font-family="Helvetica,sans-Serif" font-size="10.00">::recoverModule</text>
</a>
</g>
</g>
<!-- Node2&#45;&gt;Node3 -->
<g id="edge2_Node000002_Node000003" class="edge">
<title>Node2&#45;&gt;Node3</title>
<g id="a_edge2_Node000002_Node000003"><a xlink:title=" ">
<path fill="none" stroke="#63b8ff" d="M302.94,-104.47C330.91,-123.32 376.89,-154.29 408.2,-175.39"/>
<polygon fill="#63b8ff" stroke="#63b8ff" points="405.91,-178.07 416.15,-180.75 409.82,-172.26 405.91,-178.07"/>
</a>
</g>
</g>
<!-- Node12 -->
<g id="Node000012" class="node">
<title>Node12</title>
<g id="a_Node000012"><a xlink:href="../../d6/d3c/classLSM1x0A__AtParser.html#a0ba6f927c54fceece22c17773d3f2600" target="_top" xlink:title="Sends a command and extracts a value from the response.">
<polygon fill="white" stroke="#666666" points="1711.5,-287 1537.25,-287 1537.25,-255 1711.5,-255 1711.5,-287"/>
<text text-anchor="start" x="1545.25" y="-273.5" font-family="Helvetica,sans-Serif" font-size="10.00">LSM1x0A_AtParser::sendCommand</text>
<text text-anchor="middle" x="1624.38" y="-261.5" font-family="Helvetica,sans-Serif" font-size="10.00">WithResponse</text>
</a>
</g>
</g>
<!-- Node2&#45;&gt;Node12 -->
<g id="edge57_Node000002_Node000012" class="edge">
<title>Node2&#45;&gt;Node12</title>
<g id="a_edge57_Node000002_Node000012"><a xlink:title=" ">
<path fill="none" stroke="#63b8ff" d="M314.94,-71.65C375.11,-46.21 499.54,0 610,0 610,0 610,0 1215.75,0 1392.69,0 1551.45,-179.26 1604.56,-246.19"/>
<polygon fill="#63b8ff" stroke="#63b8ff" points="1601.49,-247.95 1610.41,-253.67 1607,-243.64 1601.49,-247.95"/>
</a>
</g>
</g>
<!-- Node4 -->
<g id="Node000004" class="node">
<title>Node4</title>
<g id="a_Node000004"><a xlink:href="../../d8/d92/classLSM1x0A__Controller.html#a3f6f25b843fe4fb7042c544deae2ab16" target="_top" xlink:title="Manually clears bits from the internal EventGroup.">
<polygon fill="white" stroke="#666666" points="1058.62,-98 952.62,-98 952.62,-66 1058.62,-66 1058.62,-98"/>
<text text-anchor="start" x="960.62" y="-84.5" font-family="Helvetica,sans-Serif" font-size="10.00">LSM1x0A_Controller</text>
<text text-anchor="middle" x="1005.62" y="-72.5" font-family="Helvetica,sans-Serif" font-size="10.00">::clearEvents</text>
</a>
</g>
</g>
<!-- Node3&#45;&gt;Node4 -->
<g id="edge3_Node000003_Node000004" class="edge">
<title>Node3&#45;&gt;Node4</title>
<g id="a_edge3_Node000003_Node000004"><a xlink:title=" ">
<path fill="none" stroke="#63b8ff" d="M468.43,-181.53C485.48,-171 509.09,-158.03 531.75,-151 677.4,-105.82 722.48,-138.94 872.75,-113 895.25,-109.12 919.65,-103.72 941.27,-98.52"/>
<polygon fill="#63b8ff" stroke="#63b8ff" points="941.95,-101.96 950.83,-96.18 940.28,-95.16 941.95,-101.96"/>
</a>
</g>
</g>
<!-- Node5 -->
<g id="Node000005" class="node">
<title>Node5</title>
<g id="a_Node000005"><a xlink:href="../../d8/d92/classLSM1x0A__Controller.html#a345d4bd79fa16b18dc33a4ca788fe5f7" target="_top" xlink:title="Performs a hardware reset using the reset pin.">
<polygon fill="white" stroke="#666666" points="664,-104 558,-104 558,-72 664,-72 664,-104"/>
<text text-anchor="start" x="566" y="-90.5" font-family="Helvetica,sans-Serif" font-size="10.00">LSM1x0A_Controller</text>
<text text-anchor="middle" x="611" y="-78.5" font-family="Helvetica,sans-Serif" font-size="10.00">::hardwareReset</text>
</a>
</g>
</g>
<!-- Node3&#45;&gt;Node5 -->
<g id="edge4_Node000003_Node000005" class="edge">
<title>Node3&#45;&gt;Node5</title>
<g id="a_edge4_Node000003_Node000005"><a xlink:title=" ">
<path fill="none" stroke="#63b8ff" d="M458.21,-181.63C474.57,-163.93 502.74,-135.86 531.75,-118 537.02,-114.76 542.69,-111.77 548.49,-109.03"/>
<polygon fill="#63b8ff" stroke="#63b8ff" points="549.89,-112.24 557.63,-104.99 547.06,-105.83 549.89,-112.24"/>
</a>
</g>
</g>
<!-- Node7 -->
<g id="Node000007" class="node">
<title>Node7</title>
<g id="a_Node000007"><a xlink:href="../../d5/d72/classLSM1x0A__LoRaWAN.html#a1892801e37c8cd67d37c76108d6f7d49" target="_top" xlink:title="Validates if the device is currently Joined to the network. (Either confirmed by OTAA or statically a...">
<polygon fill="white" stroke="#666666" points="1291,-136 1138.5,-136 1138.5,-116 1291,-116 1291,-136"/>
<text text-anchor="middle" x="1214.75" y="-122.5" font-family="Helvetica,sans-Serif" font-size="10.00">LSM1x0A_LoRaWAN::isJoined</text>
</a>
</g>
</g>
<!-- Node3&#45;&gt;Node7 -->
<g id="edge6_Node000003_Node000007" class="edge">
<title>Node3&#45;&gt;Node7</title>
<g id="a_edge6_Node000003_Node000007"><a xlink:title=" ">
<path fill="none" stroke="#63b8ff" d="M448.68,-181.77C458.74,-151.92 484.73,-88.97 531.75,-63 642.79,-1.69 980.51,-22.24 1102.5,-57 1137.57,-66.99 1172.37,-91.56 1193.47,-108.51"/>
<polygon fill="#63b8ff" stroke="#63b8ff" points="1191.05,-111.05 1200.99,-114.72 1195.51,-105.65 1191.05,-111.05"/>
</a>
</g>
</g>
<!-- Node8 -->
<g id="Node000008" class="node">
<title>Node8</title>
<g id="a_Node000008"><a xlink:href="../../d5/d72/classLSM1x0A__LoRaWAN.html#a83e11c0e74ff9e0757db616ab1163424" target="_top" xlink:title="Attempts to recover a lost connection (re&#45;executes OTAA Join if dropped).">
<polygon fill="white" stroke="#666666" points="685.38,-192 536.62,-192 536.62,-160 685.38,-160 685.38,-192"/>
<text text-anchor="start" x="544.62" y="-178.5" font-family="Helvetica,sans-Serif" font-size="10.00">LSM1x0A_LoRaWAN::recover</text>
<text text-anchor="middle" x="611" y="-166.5" font-family="Helvetica,sans-Serif" font-size="10.00">Connection</text>
</a>
</g>
</g>
<!-- Node3&#45;&gt;Node8 -->
<g id="edge7_Node000003_Node000008" class="edge">
<title>Node3&#45;&gt;Node8</title>
<g id="a_edge7_Node000003_Node000008"><a xlink:title=" ">
<path fill="none" stroke="#63b8ff" d="M495.9,-191.1C505.24,-189.86 515.19,-188.55 525.17,-187.23"/>
<polygon fill="#63b8ff" stroke="#63b8ff" points="525.47,-190.72 534.92,-185.94 524.55,-183.78 525.47,-190.72"/>
</a>
</g>
</g>
<!-- Node16 -->
<g id="Node000016" class="node">
<title>Node16</title>
<g id="a_Node000016"><a xlink:href="../../d5/d72/classLSM1x0A__LoRaWAN.html#ae3be4ce59dfa200369733317df356e97" target="_top" xlink:title="Pushes the RAM&#45;cached variables back down into the hardware module. Restores the operational state af...">
<polygon fill="white" stroke="#666666" points="872.75,-539 726.25,-539 726.25,-507 872.75,-507 872.75,-539"/>
<text text-anchor="start" x="734.25" y="-525.5" font-family="Helvetica,sans-Serif" font-size="10.00">LSM1x0A_LoRaWAN::restore</text>
<text text-anchor="middle" x="799.5" y="-513.5" font-family="Helvetica,sans-Serif" font-size="10.00">Config</text>
</a>
</g>
</g>
<!-- Node3&#45;&gt;Node16 -->
<g id="edge20_Node000003_Node000016" class="edge">
<title>Node3&#45;&gt;Node16</title>
<g id="a_edge20_Node000003_Node000016"><a xlink:title=" ">
<path fill="none" stroke="#63b8ff" d="M461.34,-214.12C519.26,-267.18 704.19,-436.6 772.67,-499.34"/>
<polygon fill="#63b8ff" stroke="#63b8ff" points="769.95,-501.59 779.69,-505.76 774.68,-496.43 769.95,-501.59"/>
</a>
</g>
</g>
<!-- Node33 -->
<g id="Node000033" class="node">
<title>Node33</title>
<g id="a_Node000033"><a xlink:href="../../d5/d72/classLSM1x0A__LoRaWAN.html#ace4b04396f1de1f4a54f513f5f378db7" target="_top" xlink:title="Manually overrides the internal joined state tracker.">
<polygon fill="white" stroke="#666666" points="690.25,-939 531.75,-939 531.75,-919 690.25,-919 690.25,-939"/>
<text text-anchor="middle" x="611" y="-925.5" font-family="Helvetica,sans-Serif" font-size="10.00">LSM1x0A_LoRaWAN::setJoined</text>
</a>
</g>
</g>
<!-- Node3&#45;&gt;Node33 -->
<g id="edge54_Node000003_Node000033" class="edge">
<title>Node3&#45;&gt;Node33</title>
<g id="a_edge54_Node000003_Node000033"><a xlink:title=" ">
<path fill="none" stroke="#63b8ff" d="M443.47,-214.4C442.15,-310.08 440.08,-795.83 531.75,-905 534.17,-907.88 536.93,-910.43 539.93,-912.67"/>
<polygon fill="#63b8ff" stroke="#63b8ff" points="537.91,-915.54 548.27,-917.75 541.55,-909.56 537.91,-915.54"/>
</a>
</g>
</g>
<!-- Node34 -->
<g id="Node000034" class="node">
<title>Node34</title>
<g id="a_Node000034"><a xlink:href="../../d8/d92/classLSM1x0A__Controller.html#a11ad21cb5ca33ec51346764a23bd485e" target="_top" xlink:title="Performs a software reset (ATZ Command).">
<polygon fill="white" stroke="#666666" points="1267.75,-795 1161.75,-795 1161.75,-763 1267.75,-763 1267.75,-795"/>
<text text-anchor="start" x="1169.75" y="-781.5" font-family="Helvetica,sans-Serif" font-size="10.00">LSM1x0A_Controller</text>
<text text-anchor="middle" x="1214.75" y="-769.5" font-family="Helvetica,sans-Serif" font-size="10.00">::softwareReset</text>
</a>
</g>
</g>
<!-- Node3&#45;&gt;Node34 -->
<g id="edge55_Node000003_Node000034" class="edge">
<title>Node3&#45;&gt;Node34</title>
<g id="a_edge55_Node000003_Node000034"><a xlink:title=" ">
<path fill="none" stroke="#63b8ff" d="M444.39,-214.18C448.66,-318.83 474.75,-897.3 531.75,-948 596.94,-1005.99 864.89,-1058.87 1102.5,-932 1153.96,-904.52 1187.57,-841.52 1203.32,-805.51"/>
<polygon fill="#63b8ff" stroke="#63b8ff" points="1206.39,-807.25 1207.05,-796.67 1199.94,-804.53 1206.39,-807.25"/>
</a>
</g>
</g>
<!-- Node6 -->
<g id="Node000006" class="node">
<title>Node6</title>
<g id="a_Node000006"><a xlink:href="../../d6/d3c/classLSM1x0A__AtParser.html#ad2839120da13e56132b95019419be1e5" target="_top" xlink:title="Waits for an event (like BOOTALERT) without sending any command. Useful for hardware reset where the ...">
<polygon fill="white" stroke="#666666" points="869.75,-104 729.25,-104 729.25,-72 869.75,-72 869.75,-104"/>
<text text-anchor="start" x="737.25" y="-90.5" font-family="Helvetica,sans-Serif" font-size="10.00">LSM1x0A_AtParser::waitFor</text>
<text text-anchor="middle" x="799.5" y="-78.5" font-family="Helvetica,sans-Serif" font-size="10.00">Event</text>
</a>
</g>
</g>
<!-- Node5&#45;&gt;Node6 -->
<g id="edge5_Node000005_Node000006" class="edge">
<title>Node5&#45;&gt;Node6</title>
<g id="a_edge5_Node000005_Node000006"><a xlink:title=" ">
<path fill="none" stroke="#63b8ff" d="M664.45,-88C680.96,-88 699.61,-88 717.62,-88"/>
<polygon fill="#63b8ff" stroke="#63b8ff" points="717.53,-91.5 727.53,-88 717.53,-84.5 717.53,-91.5"/>
</a>
</g>
</g>
<!-- Node9 -->
<g id="Node000009" class="node">
<title>Node9</title>
<g id="a_Node000009"><a xlink:href="../../d5/d72/classLSM1x0A__LoRaWAN.html#a59f781f3cfd30c11cd3973bcb10a7baa" target="_top" xlink:title="Initiates a LoRaWAN Network Join procedure. This is a blocking function until the module fires an eve...">
<polygon fill="white" stroke="#666666" points="865.25,-186 733.75,-186 733.75,-166 865.25,-166 865.25,-186"/>
<text text-anchor="middle" x="799.5" y="-172.5" font-family="Helvetica,sans-Serif" font-size="10.00">LSM1x0A_LoRaWAN::join</text>
</a>
</g>
</g>
<!-- Node8&#45;&gt;Node9 -->
<g id="edge8_Node000008_Node000009" class="edge">
<title>Node8&#45;&gt;Node9</title>
<g id="a_edge8_Node000008_Node000009"><a xlink:title=" ">
<path fill="none" stroke="#63b8ff" d="M685.71,-176C697.67,-176 710.08,-176 722.1,-176"/>
<polygon fill="#63b8ff" stroke="#63b8ff" points="721.97,-179.5 731.97,-176 721.97,-172.5 721.97,-179.5"/>
</a>
</g>
</g>
<!-- Node9&#45;&gt;Node3 -->
<g id="edge10_Node000009_Node000003" class="edge">
<title>Node9&#45;&gt;Node3</title>
<g id="a_edge10_Node000009_Node000003"><a xlink:title=" ">
<path fill="none" stroke="#63b8ff" d="M762.77,-186.4C741.84,-191.95 714.78,-198.2 690.25,-201 620.26,-208.98 602.18,-202.2 531.75,-201 523.85,-200.87 515.56,-200.66 507.36,-200.43"/>
<polygon fill="#63b8ff" stroke="#63b8ff" points="507.48,-196.93 497.37,-200.12 507.26,-203.92 507.48,-196.93"/>
</a>
</g>
</g>
<!-- Node9&#45;&gt;Node4 -->
<g id="edge9_Node000009_Node000004" class="edge">
<title>Node9&#45;&gt;Node4</title>
<g id="a_edge9_Node000009_Node000004"><a xlink:title=" ">
<path fill="none" stroke="#63b8ff" d="M834.05,-165.52C846.8,-160.68 861.06,-154.16 872.75,-146 892.09,-132.5 888.52,-119.13 908.75,-107 918.7,-101.03 930.06,-96.47 941.4,-93"/>
<polygon fill="#63b8ff" stroke="#63b8ff" points="942.07,-96.45 950.76,-90.39 940.19,-89.7 942.07,-96.45"/>
</a>
</g>
</g>
<!-- Node10 -->
<g id="Node000010" class="node">
<title>Node10</title>
<g id="a_Node000010"><a xlink:href="../../d8/d92/classLSM1x0A__Controller.html#afd7d92e60ed6fdae696a955cdbe0ed8c" target="_top" xlink:title="Sends any AT command to the module, returning error if it fails. Internally uses the LsmAtParser logi...">
<polygon fill="white" stroke="#666666" points="1267.75,-558 1161.75,-558 1161.75,-526 1267.75,-526 1267.75,-558"/>
<text text-anchor="start" x="1169.75" y="-544.5" font-family="Helvetica,sans-Serif" font-size="10.00">LSM1x0A_Controller</text>
<text text-anchor="middle" x="1214.75" y="-532.5" font-family="Helvetica,sans-Serif" font-size="10.00">::sendCommand</text>
</a>
</g>
</g>
<!-- Node9&#45;&gt;Node10 -->
<g id="edge11_Node000009_Node000010" class="edge">
<title>Node9&#45;&gt;Node10</title>
<g id="a_edge11_Node000009_Node000010"><a xlink:title=" ">
<path fill="none" stroke="#63b8ff" d="M865.53,-171.81C943.14,-168.2 1066.91,-167.28 1102.5,-195 1204.23,-274.23 1214.49,-447.25 1214.45,-514.5"/>
<polygon fill="#63b8ff" stroke="#63b8ff" points="1210.95,-514.23 1214.35,-524.26 1217.95,-514.3 1210.95,-514.23"/>
</a>
</g>
</g>
<!-- Node14 -->
<g id="Node000014" class="node">
<title>Node14</title>
<g id="a_Node000014"><a xlink:href="../../d5/d72/classLSM1x0A__LoRaWAN.html#a3fdd1ac318a5ad2559323e5d57e36a5e" target="_top" xlink:title="Enables or disables specific sub&#45;bands for regions supporting Channel Masks (e.g.,...">
<polygon fill="white" stroke="#666666" points="1100.62,-224 910.62,-224 910.62,-204 1100.62,-204 1100.62,-224"/>
<text text-anchor="middle" x="1005.62" y="-210.5" font-family="Helvetica,sans-Serif" font-size="10.00">LSM1x0A_LoRaWAN::setChannelMask</text>
</a>
</g>
</g>
<!-- Node9&#45;&gt;Node14 -->
<g id="edge16_Node000009_Node000014" class="edge">
<title>Node9&#45;&gt;Node14</title>
<g id="a_edge16_Node000009_Node000014"><a xlink:title=" ">
<path fill="none" stroke="#63b8ff" d="M856.82,-186.48C881.69,-191.12 911.14,-196.6 937.18,-201.44"/>
<polygon fill="#63b8ff" stroke="#63b8ff" points="936.53,-204.88 947,-203.27 937.81,-198 936.53,-204.88"/>
</a>
</g>
</g>
<!-- Node15 -->
<g id="Node000015" class="node">
<title>Node15</title>
<g id="a_Node000015"><a xlink:href="../../d8/d92/classLSM1x0A__Controller.html#a62476e30e50c7fe120aeb8df4b828675" target="_top" xlink:title="Synchronously/blockingly waits for an asynchronous event to occur. Useful for wrapping commands like ...">
<polygon fill="white" stroke="#666666" points="1058.62,-148 952.62,-148 952.62,-116 1058.62,-116 1058.62,-148"/>
<text text-anchor="start" x="960.62" y="-134.5" font-family="Helvetica,sans-Serif" font-size="10.00">LSM1x0A_Controller</text>
<text text-anchor="middle" x="1005.62" y="-122.5" font-family="Helvetica,sans-Serif" font-size="10.00">::waitForEvent</text>
</a>
</g>
</g>
<!-- Node9&#45;&gt;Node15 -->
<g id="edge19_Node000009_Node000015" class="edge">
<title>Node9&#45;&gt;Node15</title>
<g id="a_edge19_Node000009_Node000015"><a xlink:title=" ">
<path fill="none" stroke="#63b8ff" d="M849.13,-165.52C876.74,-159.57 911.61,-152.05 941.32,-145.65"/>
<polygon fill="#63b8ff" stroke="#63b8ff" points="941.92,-149.1 950.95,-143.57 940.44,-142.25 941.92,-149.1"/>
</a>
</g>
</g>
<!-- Node10&#45;&gt;Node3 -->
<g id="edge12_Node000010_Node000003" class="edge">
<title>Node10&#45;&gt;Node3</title>
<g id="a_edge12_Node000010_Node000003"><a xlink:title=" ">
<path fill="none" stroke="#63b8ff" d="M1207.32,-558.31C1193.56,-593.61 1160.66,-679.91 1138.5,-754 1119.23,-818.44 1155.42,-859.48 1102.5,-901 1034.75,-954.16 985.19,-940.65 908.75,-901 621.43,-751.97 483.47,-335.66 451.27,-225.19"/>
<polygon fill="#63b8ff" stroke="#63b8ff" points="454.7,-224.47 448.58,-215.82 447.97,-226.4 454.7,-224.47"/>
</a>
</g>
</g>
<!-- Node11 -->
<g id="Node000011" class="node">
<title>Node11</title>
<g id="a_Node000011"><a xlink:href="../../d6/d3c/classLSM1x0A__AtParser.html#a29b53c521974387ba6c03afadfaffa4a" target="_top" xlink:title="Sends a simple command and waits for OK/ERROR. Example: sendCommand(&quot;AT+JOIN&quot;);.">
<polygon fill="white" stroke="#666666" points="1501.25,-552 1327,-552 1327,-532 1501.25,-532 1501.25,-552"/>
<text text-anchor="middle" x="1414.12" y="-538.5" font-family="Helvetica,sans-Serif" font-size="10.00">LSM1x0A_AtParser::sendCommand</text>
</a>
</g>
</g>
<!-- Node10&#45;&gt;Node11 -->
<g id="edge13_Node000010_Node000011" class="edge">
<title>Node10&#45;&gt;Node11</title>
<g id="a_edge13_Node000010_Node000011"><a xlink:title=" ">
<path fill="none" stroke="#63b8ff" d="M1268.12,-542C1282.69,-542 1299,-542 1315.28,-542"/>
<polygon fill="#63b8ff" stroke="#63b8ff" points="1315.01,-545.5 1325.01,-542 1315.01,-538.5 1315.01,-545.5"/>
</a>
</g>
</g>
<!-- Node11&#45;&gt;Node12 -->
<g id="edge14_Node000011_Node000012" class="edge">
<title>Node11&#45;&gt;Node12</title>
<g id="a_edge14_Node000011_Node000012"><a xlink:title=" ">
<path fill="none" stroke="#63b8ff" d="M1423.03,-531.71C1452.94,-492.78 1559.68,-353.88 1603.94,-296.3"/>
<polygon fill="#63b8ff" stroke="#63b8ff" points="1606.48,-298.73 1609.8,-288.67 1600.93,-294.46 1606.48,-298.73"/>
</a>
</g>
</g>
<!-- Node13 -->
<g id="Node000013" class="node">
<title>Node13</title>
<g id="a_Node000013"><a xlink:href="../../d5/d8b/classUartDriver.html#a5d0f22e8867eebe99273078bb19bd23d" target="_top" xlink:title="Sends data through UART.">
<polygon fill="white" stroke="#666666" points="1856.5,-281 1747.5,-281 1747.5,-261 1856.5,-261 1856.5,-281"/>
<text text-anchor="middle" x="1802" y="-267.5" font-family="Helvetica,sans-Serif" font-size="10.00">UartDriver::sendData</text>
</a>
</g>
</g>
<!-- Node12&#45;&gt;Node13 -->
<g id="edge15_Node000012_Node000013" class="edge">
<title>Node12&#45;&gt;Node13</title>
<g id="a_edge15_Node000012_Node000013"><a xlink:title=" ">
<path fill="none" stroke="#63b8ff" d="M1711.9,-271C1720.05,-271 1728.2,-271 1736.1,-271"/>
<polygon fill="#63b8ff" stroke="#63b8ff" points="1735.93,-274.5 1745.93,-271 1735.93,-267.5 1735.93,-274.5"/>
</a>
</g>
</g>
<!-- Node14&#45;&gt;Node7 -->
<g id="edge17_Node000014_Node000007" class="edge">
<title>Node14&#45;&gt;Node7</title>
<g id="a_edge17_Node000014_Node000007"><a xlink:title=" ">
<path fill="none" stroke="#63b8ff" d="M1031.2,-203.56C1067.79,-188.01 1136.78,-158.7 1178.67,-140.9"/>
<polygon fill="#63b8ff" stroke="#63b8ff" points="1179.98,-144.15 1187.82,-137.02 1177.24,-137.71 1179.98,-144.15"/>
</a>
</g>
</g>
<!-- Node14&#45;&gt;Node10 -->
<g id="edge18_Node000014_Node000010" class="edge">
<title>Node14&#45;&gt;Node10</title>
<g id="a_edge18_Node000014_Node000010"><a xlink:title=" ">
<path fill="none" stroke="#63b8ff" d="M1089.38,-224.28C1094.08,-226.69 1098.51,-229.57 1102.5,-233 1188.83,-307.27 1208.17,-453.75 1212.5,-514.55"/>
<polygon fill="#63b8ff" stroke="#63b8ff" points="1209,-514.57 1213.11,-524.33 1215.98,-514.13 1209,-514.57"/>
</a>
</g>
</g>
<!-- Node16&#45;&gt;Node14 -->
<g id="edge25_Node000016_Node000014" class="edge">
<title>Node16&#45;&gt;Node14</title>
<g id="a_edge25_Node000016_Node000014"><a xlink:title=" ">
<path fill="none" stroke="#63b8ff" d="M801.3,-506.78C804.68,-457.25 821.95,-306.79 908.75,-233 909.88,-232.04 911.04,-231.13 912.23,-230.25"/>
<polygon fill="#63b8ff" stroke="#63b8ff" points="913.92,-233.33 920.62,-225.12 910.27,-227.35 913.92,-233.33"/>
</a>
</g>
</g>
<!-- Node17 -->
<g id="Node000017" class="node">
<title>Node17</title>
<g id="a_Node000017"><a xlink:href="../../d5/d72/classLSM1x0A__LoRaWAN.html#af0baa3db4c7fab580d6b19a9e92472f6" target="_top" xlink:title="Enables or disables Adaptive Data Rate (ADR).">
<polygon fill="white" stroke="#666666" points="1081.5,-350 929.75,-350 929.75,-330 1081.5,-330 1081.5,-350"/>
<text text-anchor="middle" x="1005.62" y="-336.5" font-family="Helvetica,sans-Serif" font-size="10.00">LSM1x0A_LoRaWAN::setADR</text>
</a>
</g>
</g>
<!-- Node16&#45;&gt;Node17 -->
<g id="edge21_Node000016_Node000017" class="edge">
<title>Node16&#45;&gt;Node17</title>
<g id="a_edge21_Node000016_Node000017"><a xlink:title=" ">
<path fill="none" stroke="#63b8ff" d="M806.31,-506.6C819.1,-473 853.1,-396.38 908.75,-359 912.02,-356.8 915.48,-354.85 919.08,-353.11"/>
<polygon fill="#63b8ff" stroke="#63b8ff" points="920.23,-356.42 928.12,-349.35 917.54,-349.96 920.23,-356.42"/>
</a>
</g>
</g>
<!-- Node18 -->
<g id="Node000018" class="node">
<title>Node18</title>
<g id="a_Node000018"><a xlink:href="../../d5/d72/classLSM1x0A__LoRaWAN.html#a5365ed1596eb84ebf1e3b33b4a10c788" target="_top" xlink:title="Sets the LoRaWAN operational frequency band.">
<polygon fill="white" stroke="#666666" points="1081.88,-312 929.38,-312 929.38,-292 1081.88,-292 1081.88,-312"/>
<text text-anchor="middle" x="1005.62" y="-298.5" font-family="Helvetica,sans-Serif" font-size="10.00">LSM1x0A_LoRaWAN::setBand</text>
</a>
</g>
</g>
<!-- Node16&#45;&gt;Node18 -->
<g id="edge23_Node000016_Node000018" class="edge">
<title>Node16&#45;&gt;Node18</title>
<g id="a_edge23_Node000016_Node000018"><a xlink:title=" ">
<path fill="none" stroke="#63b8ff" d="M804.22,-506.5C813.95,-467.43 843.99,-368.94 908.75,-321 911.91,-318.66 915.29,-316.58 918.82,-314.75"/>
<polygon fill="#63b8ff" stroke="#63b8ff" points="920,-318.05 927.72,-310.8 917.16,-311.66 920,-318.05"/>
</a>
</g>
</g>
<!-- Node19 -->
<g id="Node000019" class="node">
<title>Node19</title>
<g id="a_Node000019"><a xlink:href="../../d5/d72/classLSM1x0A__LoRaWAN.html#a9d9285c43414337a0ccb3a6cd7ca06e6" target="_top" xlink:title="Configures the number of retries for Confirmed uplinks.">
<polygon fill="white" stroke="#666666" points="1087.88,-274 923.38,-274 923.38,-242 1087.88,-242 1087.88,-274"/>
<text text-anchor="start" x="931.38" y="-260.5" font-family="Helvetica,sans-Serif" font-size="10.00">LSM1x0A_LoRaWAN::setConfirm</text>
<text text-anchor="middle" x="1005.62" y="-248.5" font-family="Helvetica,sans-Serif" font-size="10.00">Retry</text>
</a>
</g>
</g>
<!-- Node16&#45;&gt;Node19 -->
<g id="edge26_Node000016_Node000019" class="edge">
<title>Node16&#45;&gt;Node19</title>
<g id="a_edge26_Node000016_Node000019"><a xlink:title=" ">
<path fill="none" stroke="#63b8ff" d="M802.93,-506.7C810.3,-463.28 836.45,-344.03 908.75,-283 910.24,-281.74 911.79,-280.55 913.38,-279.41"/>
<polygon fill="#63b8ff" stroke="#63b8ff" points="915,-282.52 921.7,-274.32 911.35,-276.55 915,-282.52"/>
</a>
</g>
</g>
<!-- Node20 -->
<g id="Node000020" class="node">
<title>Node20</title>
<g id="a_Node000020"><a xlink:href="../../d5/d72/classLSM1x0A__LoRaWAN.html#a56345ceeafa0b9059d6de4e69eddc82e" target="_top" xlink:title="Sets the Data Rate (DR) of the module.">
<polygon fill="white" stroke="#666666" points="1091.62,-892 919.62,-892 919.62,-872 1091.62,-872 1091.62,-892"/>
<text text-anchor="middle" x="1005.62" y="-878.5" font-family="Helvetica,sans-Serif" font-size="10.00">LSM1x0A_LoRaWAN::setDataRate</text>
</a>
</g>
</g>
<!-- Node16&#45;&gt;Node20 -->
<g id="edge28_Node000016_Node000020" class="edge">
<title>Node16&#45;&gt;Node20</title>
<g id="a_edge28_Node000016_Node000020"><a xlink:title=" ">
<path fill="none" stroke="#63b8ff" d="M800.3,-539.16C800.54,-593.93 809.19,-774.06 908.75,-863 909.7,-863.85 910.67,-864.66 911.67,-865.44"/>
<polygon fill="#63b8ff" stroke="#63b8ff" points="909.7,-868.34 920,-870.83 913.5,-862.46 909.7,-868.34"/>
</a>
</g>
</g>
<!-- Node21 -->
<g id="Node000021" class="node">
<title>Node21</title>
<g id="a_Node000021"><a xlink:href="../../d5/d72/classLSM1x0A__LoRaWAN.html#a8494083816ab885cb07fc3b08de029f4" target="_top" xlink:title="Sets the LoRaWAN Device Address (DevAddr) for ABP mode.">
<polygon fill="white" stroke="#666666" points="1089.75,-854 921.5,-854 921.5,-834 1089.75,-834 1089.75,-854"/>
<text text-anchor="middle" x="1005.62" y="-840.5" font-family="Helvetica,sans-Serif" font-size="10.00">LSM1x0A_LoRaWAN::setDevAddr</text>
</a>
</g>
</g>
<!-- Node16&#45;&gt;Node21 -->
<g id="edge30_Node000016_Node000021" class="edge">
<title>Node16&#45;&gt;Node21</title>
<g id="a_edge30_Node000016_Node000021"><a xlink:title=" ">
<path fill="none" stroke="#63b8ff" d="M801.03,-539.15C803.62,-589.92 818.87,-747.57 908.75,-825 909.87,-825.97 911.03,-826.89 912.21,-827.77"/>
<polygon fill="#63b8ff" stroke="#63b8ff" points="910.23,-830.65 920.57,-832.93 913.9,-824.7 910.23,-830.65"/>
</a>
</g>
</g>
<!-- Node22 -->
<g id="Node000022" class="node">
<title>Node22</title>
<g id="a_Node000022"><a xlink:href="../../d5/d72/classLSM1x0A__LoRaWAN.html#ad320634e52d7ea907043cc50dd37c5b0" target="_top" xlink:title="Sets the LoRaWAN Device EUI (DevEUI).">
<polygon fill="white" stroke="#666666" points="1088.25,-816 923,-816 923,-796 1088.25,-796 1088.25,-816"/>
<text text-anchor="middle" x="1005.62" y="-802.5" font-family="Helvetica,sans-Serif" font-size="10.00">LSM1x0A_LoRaWAN::setDevEUI</text>
</a>
</g>
</g>
<!-- Node16&#45;&gt;Node22 -->
<g id="edge32_Node000016_Node000022" class="edge">
<title>Node16&#45;&gt;Node22</title>
<g id="a_edge32_Node000016_Node000022"><a xlink:title=" ">
<path fill="none" stroke="#63b8ff" d="M801.99,-539.44C807.14,-586.24 828.62,-721.05 908.75,-787 910.24,-788.22 911.78,-789.38 913.37,-790.46"/>
<polygon fill="#63b8ff" stroke="#63b8ff" points="911.23,-793.27 921.65,-795.21 914.72,-787.2 911.23,-793.27"/>
</a>
</g>
</g>
<!-- Node23 -->
<g id="Node000023" class="node">
<title>Node23</title>
<g id="a_Node000023"><a xlink:href="../../d5/d72/classLSM1x0A__LoRaWAN.html#a031023b0d2dd5db3c51c2db6ae7801cc" target="_top" xlink:title="Enables or disables the Duty Cycle limitation (EU regions mostly).">
<polygon fill="white" stroke="#666666" points="1081.12,-778 930.12,-778 930.12,-746 1081.12,-746 1081.12,-778"/>
<text text-anchor="start" x="938.12" y="-764.5" font-family="Helvetica,sans-Serif" font-size="10.00">LSM1x0A_LoRaWAN::setDuty</text>
<text text-anchor="middle" x="1005.62" y="-752.5" font-family="Helvetica,sans-Serif" font-size="10.00">Cycle</text>
</a>
</g>
</g>
<!-- Node16&#45;&gt;Node23 -->
<g id="edge34_Node000016_Node000023" class="edge">
<title>Node16&#45;&gt;Node23</title>
<g id="a_edge34_Node000016_Node000023"><a xlink:title=" ">
<path fill="none" stroke="#63b8ff" d="M803.9,-539.3C813.15,-579.44 842.64,-683.67 908.75,-737 912.19,-739.78 915.91,-742.25 919.81,-744.44"/>
<polygon fill="#63b8ff" stroke="#63b8ff" points="917.96,-747.44 928.48,-748.7 921.05,-741.15 917.96,-747.44"/>
</a>
</g>
</g>
<!-- Node24 -->
<g id="Node000024" class="node">
<title>Node24</title>
<g id="a_Node000024"><a xlink:href="../../d5/d72/classLSM1x0A__LoRaWAN.html#a6b179d5825c49af0f391dfc539912f64" target="_top" xlink:title="Sets the delay for the Join1 receive window.">
<polygon fill="white" stroke="#666666" points="1082.25,-728 929,-728 929,-696 1082.25,-696 1082.25,-728"/>
<text text-anchor="start" x="937" y="-714.5" font-family="Helvetica,sans-Serif" font-size="10.00">LSM1x0A_LoRaWAN::setJoin1</text>
<text text-anchor="middle" x="1005.62" y="-702.5" font-family="Helvetica,sans-Serif" font-size="10.00">Delay</text>
</a>
</g>
</g>
<!-- Node16&#45;&gt;Node24 -->
<g id="edge36_Node000016_Node000024" class="edge">
<title>Node16&#45;&gt;Node24</title>
<g id="a_edge36_Node000016_Node000024"><a xlink:title=" ">
<path fill="none" stroke="#63b8ff" d="M806.59,-539.39C819.81,-572.62 854.38,-648.08 908.75,-687 911.92,-689.27 915.29,-691.34 918.78,-693.21"/>
<polygon fill="#63b8ff" stroke="#63b8ff" points="917.03,-696.26 927.57,-697.38 920.03,-689.93 917.03,-696.26"/>
</a>
</g>
</g>
<!-- Node25 -->
<g id="Node000025" class="node">
<title>Node25</title>
<g id="a_Node000025"><a xlink:href="../../d5/d72/classLSM1x0A__LoRaWAN.html#a4545d0caad41558cdb9bae8286b104d8" target="_top" xlink:title="Sets the delay for the Join2 receive window.">
<polygon fill="white" stroke="#666666" points="1082.25,-678 929,-678 929,-646 1082.25,-646 1082.25,-678"/>
<text text-anchor="start" x="937" y="-664.5" font-family="Helvetica,sans-Serif" font-size="10.00">LSM1x0A_LoRaWAN::setJoin2</text>
<text text-anchor="middle" x="1005.62" y="-652.5" font-family="Helvetica,sans-Serif" font-size="10.00">Delay</text>
</a>
</g>
</g>
<!-- Node16&#45;&gt;Node25 -->
<g id="edge38_Node000016_Node000025" class="edge">
<title>Node16&#45;&gt;Node25</title>
<g id="a_edge38_Node000016_Node000025"><a xlink:title=" ">
<path fill="none" stroke="#63b8ff" d="M811.39,-539.33C828.9,-564.27 865.74,-611.61 908.75,-637 911.76,-638.78 914.9,-640.43 918.13,-641.97"/>
<polygon fill="#63b8ff" stroke="#63b8ff" points="916.73,-645.18 927.3,-645.9 919.49,-638.74 916.73,-645.18"/>
</a>
</g>
</g>
<!-- Node26 -->
<g id="Node000026" class="node">
<title>Node26</title>
<g id="a_Node000026"><a xlink:href="../../d5/d72/classLSM1x0A__LoRaWAN.html#a06bd50723ec1eb7e144c9141b2ec86fc" target="_top" xlink:title="Sets the LoRaWAN Network ID (NetID).">
<polygon fill="white" stroke="#666666" points="1086,-628 925.25,-628 925.25,-608 1086,-608 1086,-628"/>
<text text-anchor="middle" x="1005.62" y="-614.5" font-family="Helvetica,sans-Serif" font-size="10.00">LSM1x0A_LoRaWAN::setNwkID</text>
</a>
</g>
</g>
<!-- Node16&#45;&gt;Node26 -->
<g id="edge40_Node000016_Node000026" class="edge">
<title>Node16&#45;&gt;Node26</title>
<g id="a_edge40_Node000016_Node000026"><a xlink:title=" ">
<path fill="none" stroke="#63b8ff" d="M818.6,-539.34C839.01,-556.84 873.91,-584.11 908.75,-599 913.35,-600.97 918.16,-602.73 923.08,-604.32"/>
<polygon fill="#63b8ff" stroke="#63b8ff" points="921.92,-607.63 932.51,-607.08 923.89,-600.91 921.92,-607.63"/>
</a>
</g>
</g>
<!-- Node27 -->
<g id="Node000027" class="node">
<title>Node27</title>
<g id="a_Node000027"><a xlink:href="../../d5/d72/classLSM1x0A__LoRaWAN.html#aa70ada64d28ecca216bb62268e502adf" target="_top" xlink:title="Sets the delay for the RX1 receive window.">
<polygon fill="white" stroke="#666666" points="1092.38,-590 918.88,-590 918.88,-570 1092.38,-570 1092.38,-590"/>
<text text-anchor="middle" x="1005.62" y="-576.5" font-family="Helvetica,sans-Serif" font-size="10.00">LSM1x0A_LoRaWAN::setRx1Delay</text>
</a>
</g>
</g>
<!-- Node16&#45;&gt;Node27 -->
<g id="edge42_Node000016_Node000027" class="edge">
<title>Node16&#45;&gt;Node27</title>
<g id="a_edge42_Node000016_Node000027"><a xlink:title=" ">
<path fill="none" stroke="#63b8ff" d="M842.99,-539.49C862.77,-546.76 886.75,-554.99 908.75,-561 916.83,-563.21 925.36,-565.27 933.87,-567.16"/>
<polygon fill="#63b8ff" stroke="#63b8ff" points="933,-570.55 943.51,-569.23 934.47,-563.71 933,-570.55"/>
</a>
</g>
</g>
<!-- Node28 -->
<g id="Node000028" class="node">
<title>Node28</title>
<g id="a_Node000028"><a xlink:href="../../d5/d72/classLSM1x0A__LoRaWAN.html#a2cf4eff0181b6107d082bccefa24217b" target="_top" xlink:title="Sets the Data Rate (DR) specifically for the RX2 window.">
<polygon fill="white" stroke="#666666" points="1100.62,-552 910.62,-552 910.62,-532 1100.62,-532 1100.62,-552"/>
<text text-anchor="middle" x="1005.62" y="-538.5" font-family="Helvetica,sans-Serif" font-size="10.00">LSM1x0A_LoRaWAN::setRx2DataRate</text>
</a>
</g>
</g>
<!-- Node16&#45;&gt;Node28 -->
<g id="edge44_Node000016_Node000028" class="edge">
<title>Node16&#45;&gt;Node28</title>
<g id="a_edge44_Node000016_Node000028"><a xlink:title=" ">
<path fill="none" stroke="#63b8ff" d="M873.04,-529.75C881.41,-530.53 890.06,-531.34 898.76,-532.15"/>
<polygon fill="#63b8ff" stroke="#63b8ff" points="898.39,-535.63 908.68,-533.07 899.04,-528.66 898.39,-535.63"/>
</a>
</g>
</g>
<!-- Node29 -->
<g id="Node000029" class="node">
<title>Node29</title>
<g id="a_Node000029"><a xlink:href="../../d5/d72/classLSM1x0A__LoRaWAN.html#a42d2137b475b57e19d891a5f1ac93221" target="_top" xlink:title="Sets the delay for the RX2 receive window.">
<polygon fill="white" stroke="#666666" points="1092.38,-514 918.88,-514 918.88,-494 1092.38,-494 1092.38,-514"/>
<text text-anchor="middle" x="1005.62" y="-500.5" font-family="Helvetica,sans-Serif" font-size="10.00">LSM1x0A_LoRaWAN::setRx2Delay</text>
</a>
</g>
</g>
<!-- Node16&#45;&gt;Node29 -->
<g id="edge46_Node000016_Node000029" class="edge">
<title>Node16&#45;&gt;Node29</title>
<g id="a_edge46_Node000016_Node000029"><a xlink:title=" ">
<path fill="none" stroke="#63b8ff" d="M873.04,-516.25C884.24,-515.21 895.97,-514.11 907.6,-513.03"/>
<polygon fill="#63b8ff" stroke="#63b8ff" points="907.57,-516.55 917.2,-512.14 906.92,-509.58 907.57,-516.55"/>
</a>
</g>
</g>
<!-- Node30 -->
<g id="Node000030" class="node">
<title>Node30</title>
<g id="a_Node000030"><a xlink:href="../../d5/d72/classLSM1x0A__LoRaWAN.html#a689f7dfda1dfeae11ea397c2ddf2ad37" target="_top" xlink:title="Sets the precise frequency for the RX2 window.">
<polygon fill="white" stroke="#666666" points="1102.5,-476 908.75,-476 908.75,-456 1102.5,-456 1102.5,-476"/>
<text text-anchor="middle" x="1005.62" y="-462.5" font-family="Helvetica,sans-Serif" font-size="10.00">LSM1x0A_LoRaWAN::setRx2Frequency</text>
</a>
</g>
</g>
<!-- Node16&#45;&gt;Node30 -->
<g id="edge48_Node000016_Node000030" class="edge">
<title>Node16&#45;&gt;Node30</title>
<g id="a_edge48_Node000016_Node000030"><a xlink:title=" ">
<path fill="none" stroke="#63b8ff" d="M842.99,-506.51C862.77,-499.24 886.75,-491.01 908.75,-485 916.83,-482.79 925.36,-480.73 933.87,-478.84"/>
<polygon fill="#63b8ff" stroke="#63b8ff" points="934.47,-482.29 943.51,-476.77 933,-475.45 934.47,-482.29"/>
</a>
</g>
</g>
<!-- Node31 -->
<g id="Node000031" class="node">
<title>Node31</title>
<g id="a_Node000031"><a xlink:href="../../d5/d72/classLSM1x0A__LoRaWAN.html#a1df10d7ae6bf45b537d28d3d5c4b88d7" target="_top" xlink:title="Sets the transmission power index.">
<polygon fill="white" stroke="#666666" points="1090.12,-438 921.12,-438 921.12,-418 1090.12,-418 1090.12,-438"/>
<text text-anchor="middle" x="1005.62" y="-424.5" font-family="Helvetica,sans-Serif" font-size="10.00">LSM1x0A_LoRaWAN::setTxPower</text>
</a>
</g>
</g>
<!-- Node16&#45;&gt;Node31 -->
<g id="edge50_Node000016_Node000031" class="edge">
<title>Node16&#45;&gt;Node31</title>
<g id="a_edge50_Node000016_Node000031"><a xlink:title=" ">
<path fill="none" stroke="#63b8ff" d="M818.6,-506.66C839.01,-489.16 873.91,-461.89 908.75,-447 913.35,-445.03 918.16,-443.27 923.08,-441.68"/>
<polygon fill="#63b8ff" stroke="#63b8ff" points="923.89,-445.09 932.51,-438.92 921.92,-438.37 923.89,-445.09"/>
</a>
</g>
</g>
<!-- Node32 -->
<g id="Node000032" class="node">
<title>Node32</title>
<g id="a_Node000032"><a xlink:href="../../d5/d72/classLSM1x0A__LoRaWAN.html#a059fd6a9356c4ecadd5a98294da5952d" target="_top" xlink:title="Configures the number of repetitions for Unconfirmed uplinks.">
<polygon fill="white" stroke="#666666" points="1093.12,-400 918.12,-400 918.12,-368 1093.12,-368 1093.12,-400"/>
<text text-anchor="start" x="926.12" y="-386.5" font-family="Helvetica,sans-Serif" font-size="10.00">LSM1x0A_LoRaWAN::setUnconfirm</text>
<text text-anchor="middle" x="1005.62" y="-374.5" font-family="Helvetica,sans-Serif" font-size="10.00">Retry</text>
</a>
</g>
</g>
<!-- Node16&#45;&gt;Node32 -->
<g id="edge52_Node000016_Node000032" class="edge">
<title>Node16&#45;&gt;Node32</title>
<g id="a_edge52_Node000016_Node000032"><a xlink:title=" ">
<path fill="none" stroke="#63b8ff" d="M811.39,-506.67C828.9,-481.73 865.74,-434.39 908.75,-409 911.06,-407.64 913.45,-406.34 915.89,-405.12"/>
<polygon fill="#63b8ff" stroke="#63b8ff" points="917.15,-408.4 924.83,-401.1 914.28,-402.01 917.15,-408.4"/>
</a>
</g>
</g>
<!-- Node17&#45;&gt;Node10 -->
<g id="edge22_Node000017_Node000010" class="edge">
<title>Node17&#45;&gt;Node10</title>
<g id="a_edge22_Node000017_Node000010"><a xlink:title=" ">
<path fill="none" stroke="#63b8ff" d="M1081.9,-348.53C1089.22,-351.2 1096.24,-354.62 1102.5,-359 1158.09,-397.86 1190.94,-474.26 1205.24,-514.97"/>
<polygon fill="#63b8ff" stroke="#63b8ff" points="1201.86,-515.89 1208.37,-524.24 1208.49,-513.65 1201.86,-515.89"/>
</a>
</g>
</g>
<!-- Node18&#45;&gt;Node10 -->
<g id="edge24_Node000018_Node000010" class="edge">
<title>Node18&#45;&gt;Node10</title>
<g id="a_edge24_Node000018_Node000010"><a xlink:title=" ">
<path fill="none" stroke="#63b8ff" d="M1082.27,-310.03C1089.52,-312.79 1096.42,-316.38 1102.5,-321 1167.12,-370.13 1196.96,-467.16 1208.16,-514.6"/>
<polygon fill="#63b8ff" stroke="#63b8ff" points="1204.67,-515.06 1210.28,-524.05 1211.5,-513.53 1204.67,-515.06"/>
</a>
</g>
</g>
<!-- Node19&#45;&gt;Node10 -->
<g id="edge27_Node000019_Node000010" class="edge">
<title>Node19&#45;&gt;Node10</title>
<g id="a_edge27_Node000019_Node000010"><a xlink:title=" ">
<path fill="none" stroke="#63b8ff" d="M1088.33,-273.44C1093.41,-276.14 1098.2,-279.3 1102.5,-283 1174.45,-344.86 1201.23,-461.59 1209.99,-514.59"/>
<polygon fill="#63b8ff" stroke="#63b8ff" points="1206.5,-514.92 1211.49,-524.26 1213.42,-513.84 1206.5,-514.92"/>
</a>
</g>
</g>
<!-- Node20&#45;&gt;Node10 -->
<g id="edge29_Node000020_Node000010" class="edge">
<title>Node20&#45;&gt;Node10</title>
<g id="a_edge29_Node000020_Node000010"><a xlink:title=" ">
<path fill="none" stroke="#63b8ff" d="M1089.94,-871.6C1094.45,-869.21 1098.69,-866.37 1102.5,-863 1140.73,-829.22 1121.97,-802.26 1138.5,-754 1161.31,-687.42 1189.3,-609.52 1203.87,-569.23"/>
<polygon fill="#63b8ff" stroke="#63b8ff" points="1207.14,-570.47 1207.26,-559.87 1200.56,-568.08 1207.14,-570.47"/>
</a>
</g>
</g>
<!-- Node21&#45;&gt;Node10 -->
<g id="edge31_Node000021_Node000010" class="edge">
<title>Node21&#45;&gt;Node10</title>
<g id="a_edge31_Node000021_Node000010"><a xlink:title=" ">
<path fill="none" stroke="#63b8ff" d="M1089.27,-833.58C1094,-831.21 1098.46,-828.37 1102.5,-825 1123.28,-807.64 1182.19,-636.39 1204.78,-569.02"/>
<polygon fill="#63b8ff" stroke="#63b8ff" points="1207.99,-570.45 1207.84,-559.86 1201.35,-568.24 1207.99,-570.45"/>
</a>
</g>
</g>
<!-- Node22&#45;&gt;Node10 -->
<g id="edge33_Node000022_Node000010" class="edge">
<title>Node22&#45;&gt;Node10</title>
<g id="a_edge33_Node000022_Node000010"><a xlink:title=" ">
<path fill="none" stroke="#63b8ff" d="M1088.61,-795.56C1093.55,-793.2 1098.24,-790.37 1102.5,-787 1173,-731.13 1200.39,-620.69 1209.63,-569.39"/>
<polygon fill="#63b8ff" stroke="#63b8ff" points="1213.04,-570.18 1211.26,-559.74 1206.14,-569.01 1213.04,-570.18"/>
</a>
</g>
</g>
<!-- Node23&#45;&gt;Node10 -->
<g id="edge35_Node000023_Node000010" class="edge">
<title>Node23&#45;&gt;Node10</title>
<g id="a_edge35_Node000023_Node000010"><a xlink:title=" ">
<path fill="none" stroke="#63b8ff" d="M1081.16,-749.05C1088.79,-745.87 1096.08,-741.92 1102.5,-737 1159.49,-693.34 1192.06,-611.57 1205.85,-569.12"/>
<polygon fill="#63b8ff" stroke="#63b8ff" points="1209.15,-570.29 1208.8,-559.7 1202.47,-568.2 1209.15,-570.29"/>
</a>
</g>
</g>
<!-- Node24&#45;&gt;Node10 -->
<g id="edge37_Node000024_Node000010" class="edge">
<title>Node24&#45;&gt;Node10</title>
<g id="a_edge37_Node000024_Node000010"><a xlink:title=" ">
<path fill="none" stroke="#63b8ff" d="M1082.49,-697.37C1089.54,-694.51 1096.34,-691.09 1102.5,-687 1148.31,-656.61 1183.07,-600.94 1200.75,-568.13"/>
<polygon fill="#63b8ff" stroke="#63b8ff" points="1203.64,-570.16 1205.18,-559.68 1197.44,-566.91 1203.64,-570.16"/>
</a>
</g>
</g>
<!-- Node25&#45;&gt;Node10 -->
<g id="edge39_Node000025_Node000010" class="edge">
<title>Node25&#45;&gt;Node10</title>
<g id="a_edge39_Node000025_Node000010"><a xlink:title=" ">
<path fill="none" stroke="#63b8ff" d="M1082.68,-645.62C1089.54,-643.12 1096.25,-640.26 1102.5,-637 1137.29,-618.85 1170.6,-588.01 1191.56,-566.4"/>
<polygon fill="#63b8ff" stroke="#63b8ff" points="1193.83,-569.1 1198.18,-559.44 1188.75,-564.27 1193.83,-569.1"/>
</a>
</g>
</g>
<!-- Node26&#45;&gt;Node10 -->
<g id="edge41_Node000026_Node000010" class="edge">
<title>Node26&#45;&gt;Node10</title>
<g id="a_edge41_Node000026_Node000010"><a xlink:title=" ">
<path fill="none" stroke="#63b8ff" d="M1072.26,-607.52C1082.51,-605.16 1092.88,-602.34 1102.5,-599 1128.57,-589.94 1156.2,-575.81 1177.4,-563.89"/>
<polygon fill="#63b8ff" stroke="#63b8ff" points="1179,-567 1185.94,-559 1175.52,-560.93 1179,-567"/>
</a>
</g>
</g>
<!-- Node27&#45;&gt;Node10 -->
<g id="edge43_Node000027_Node000010" class="edge">
<title>Node27&#45;&gt;Node10</title>
<g id="a_edge43_Node000027_Node000010"><a xlink:title=" ">
<path fill="none" stroke="#63b8ff" d="M1063.77,-569.52C1090.61,-564.59 1122.69,-558.71 1150.28,-553.64"/>
<polygon fill="#63b8ff" stroke="#63b8ff" points="1150.71,-557.12 1159.91,-551.88 1149.44,-550.24 1150.71,-557.12"/>
</a>
</g>
</g>
<!-- Node28&#45;&gt;Node10 -->
<g id="edge45_Node000028_Node000010" class="edge">
<title>Node28&#45;&gt;Node10</title>
<g id="a_edge45_Node000028_Node000010"><a xlink:title=" ">
<path fill="none" stroke="#63b8ff" d="M1101.1,-542C1117.59,-542 1134.39,-542 1149.82,-542"/>
<polygon fill="#63b8ff" stroke="#63b8ff" points="1149.8,-545.5 1159.8,-542 1149.8,-538.5 1149.8,-545.5"/>
</a>
</g>
</g>
<!-- Node29&#45;&gt;Node10 -->
<g id="edge47_Node000029_Node000010" class="edge">
<title>Node29&#45;&gt;Node10</title>
<g id="a_edge47_Node000029_Node000010"><a xlink:title=" ">
<path fill="none" stroke="#63b8ff" d="M1063.77,-514.48C1090.61,-519.41 1122.69,-525.29 1150.28,-530.36"/>
<polygon fill="#63b8ff" stroke="#63b8ff" points="1149.44,-533.76 1159.91,-532.12 1150.71,-526.88 1149.44,-533.76"/>
</a>
</g>
</g>
<!-- Node30&#45;&gt;Node10 -->
<g id="edge49_Node000030_Node000010" class="edge">
<title>Node30&#45;&gt;Node10</title>
<g id="a_edge49_Node000030_Node000010"><a xlink:title=" ">
<path fill="none" stroke="#63b8ff" d="M1072.26,-476.48C1082.51,-478.84 1092.88,-481.66 1102.5,-485 1128.57,-494.06 1156.2,-508.19 1177.4,-520.11"/>
<polygon fill="#63b8ff" stroke="#63b8ff" points="1175.52,-523.07 1185.94,-525 1179,-517 1175.52,-523.07"/>
</a>
</g>
</g>
<!-- Node31&#45;&gt;Node10 -->
<g id="edge51_Node000031_Node000010" class="edge">
<title>Node31&#45;&gt;Node10</title>
<g id="a_edge51_Node000031_Node000010"><a xlink:title=" ">
<path fill="none" stroke="#63b8ff" d="M1079.89,-438.43C1087.71,-440.74 1095.4,-443.56 1102.5,-447 1138.01,-464.21 1171.4,-495.52 1192.16,-517.48"/>
<polygon fill="#63b8ff" stroke="#63b8ff" points="1189.35,-519.6 1198.71,-524.57 1194.49,-514.85 1189.35,-519.6"/>
</a>
</g>
</g>
<!-- Node32&#45;&gt;Node10 -->
<g id="edge53_Node000032_Node000010" class="edge">
<title>Node32&#45;&gt;Node10</title>
<g id="a_edge53_Node000032_Node000010"><a xlink:title=" ">
<path fill="none" stroke="#63b8ff" d="M1085.75,-400.31C1091.61,-402.81 1097.27,-405.69 1102.5,-409 1145.49,-436.23 1180.22,-485.5 1198.85,-515.83"/>
<polygon fill="#63b8ff" stroke="#63b8ff" points="1195.84,-517.61 1203.98,-524.4 1201.85,-514.02 1195.84,-517.61"/>
</a>
</g>
</g>
<!-- Node34&#45;&gt;Node11 -->
<g id="edge56_Node000034_Node000011" class="edge">
<title>Node34&#45;&gt;Node11</title>
<g id="a_edge56_Node000034_Node000011"><a xlink:title=" ">
<path fill="none" stroke="#63b8ff" d="M1229.32,-762.71C1264.69,-720.24 1359.59,-606.28 1397.33,-560.97"/>
<polygon fill="#63b8ff" stroke="#63b8ff" points="1399.8,-563.47 1403.51,-553.55 1394.42,-558.99 1399.8,-563.47"/>
</a>
</g>
</g>
</g>
</svg>

<g id="navigator" transform="translate(0 0)" fill="#404254">
  <rect fill="#f2f5e9" fill-opacity="0.5" stroke="#606060" stroke-width=".5" x="0" y="0" width="60" height="60"/>
  <use id="zoomplus" xlink:href="#zoomPlus" x="17" y="9" onmousedown="handleZoom(evt,'in')"/>
  <use id="zoomminus" xlink:href="#zoomMin" x="42" y="9" onmousedown="handleZoom(evt,'out')"/>
  <use id="reset" xlink:href="#resetDef" x="30" y="36" onmousedown="handleReset()"/>
   <use id="arrowup" xlink:href="#arrowUp" x="0" y="0" onmousedown="handlePan(0,-1)"/>
  <use id="arrowright" xlink:href="#arrowRight" x="0" y="0" onmousedown="handlePan(1,0)"/>
  <use id="arrowdown" xlink:href="#arrowDown" x="0" y="0" onmousedown="handlePan(0,1)"/>
  <use id="arrowleft" xlink:href="#arrowLeft" x="0" y="0" onmousedown="handlePan(-1,0)"/>
</g>
<svg viewBox="0 0 15 15" width="100%" height="30px" preserveAspectRatio="xMaxYMin meet">
 <g id="arrow_out" transform="scale(0.3 0.3)">
  <a xlink:href="classLSM1x0A__LoRaWAN_a647e0753f459e33c5ecd1b3f7f75139b_cgraph_org.svg" target="_base">
   <rect id="button" ry="5" rx="5" y="6" x="6" height="38" width="38"
        fill="#f2f5e9" fill-opacity="0.5" stroke="#606060" stroke-width="1.0"/>
   <path id="arrow"
     d="M 11.500037,31.436501 C 11.940474,20.09759 22.043105,11.32322 32.158766,21.979434 L 37.068811,17.246167 C 37.068811,17.246167 37.088388,32 37.088388,32 L 22.160133,31.978069 C 22.160133,31.978069 26.997745,27.140456 26.997745,27.140456 C 18.528582,18.264221 13.291696,25.230495 11.500037,31.436501 z"
     style="fill:#404040;"/>
  </a>
 </g>
</svg>

<style type='text/css'>
<![CDATA[
[data-mouse-over-selected='false'] { opacity: 0.7; }
[data-mouse-over-selected='true']  { opacity: 1.0; }
]]>
</style>
<script type="application/ecmascript"><![CDATA[
document.addEventListener('DOMContentLoaded', (event) => {
  highlightEdges();
  highlightAdjacentNodes();
});
]]></script>
</svg>
