<?xml version="1.0" encoding="UTF-8" standalone="no"?>
<!DOCTYPE svg PUBLIC "-//W3C//DTD SVG 1.1//EN"
 "http://www.w3.org/Graphics/SVG/1.1/DTD/svg11.dtd">
<!-- Generated by graphviz version 12.2.1 (20241206.2353)
 -->
<!-- Title: LSM1x0A_LoRaWAN::getDutyCycle Pages: 1 -->
<svg width="505pt" height="40pt"
 viewBox="0.00 0.00 504.50 40.00" xmlns="http://www.w3.org/2000/svg" xmlns:xlink="http://www.w3.org/1999/xlink">
<g id="graph0" class="graph" transform="scale(1 1) rotate(0) translate(4 36)">
<title>LSM1x0A_LoRaWAN::getDutyCycle</title>
<!-- Node1 -->
<g id="Node000001" class="node">
<title>Node1</title>
<g id="a_Node000001"><a xlink:title="Retrieves the Duty Cycle limitation state.">
<polygon fill="#999999" stroke="#666666" points="496.5,-32 345.5,-32 345.5,0 496.5,0 496.5,-32"/>
<text text-anchor="start" x="353.5" y="-18.5" font-family="Helvetica,sans-Serif" font-size="10.00">LSM1x0A_LoRaWAN::getDuty</text>
<text text-anchor="middle" x="421" y="-6.5" font-family="Helvetica,sans-Serif" font-size="10.00">Cycle</text>
</a>
</g>
</g>
<!-- Node2 -->
<g id="Node000002" class="node">
<title>Node2</title>
<g id="a_Node000002"><a xlink:href="../../d5/d72/classLSM1x0A__LoRaWAN.html#a034f8c2d6cae9d8ae231adca4d02b527" target="_top" xlink:title="Polls the module for all its properties and populates the internal RAM cache. Recommended after wakin...">
<polygon fill="white" stroke="#666666" points="309.5,-32 146.5,-32 146.5,0 309.5,0 309.5,-32"/>
<text text-anchor="start" x="154.5" y="-18.5" font-family="Helvetica,sans-Serif" font-size="10.00">LSM1x0A_LoRaWAN::loadConfig</text>
<text text-anchor="middle" x="228" y="-6.5" font-family="Helvetica,sans-Serif" font-size="10.00">FromModule</text>
</a>
</g>
</g>
<!-- Node1&#45;&gt;Node2 -->
<g id="edge1_Node000001_Node000002" class="edge">
<title>Node1&#45;&gt;Node2</title>
<g id="a_edge1_Node000001_Node000002"><a xlink:title=" ">
<path fill="none" stroke="#63b8ff" d="M333.81,-16C325.79,-16 317.68,-16 309.71,-16"/>
<polygon fill="#63b8ff" stroke="#63b8ff" points="333.55,-19.5 343.55,-16 333.55,-12.5 333.55,-19.5"/>
</a>
</g>
</g>
<!-- Node3 -->
<g id="Node000003" class="node">
<title>Node3</title>
<g id="a_Node000003"><a xlink:href="../../d8/d92/classLSM1x0A__Controller.html#abdd8a00eb5697bbd25cd0330c11c919e" target="_top" xlink:title="Synchronizes the internal RAM cache by reading the key operational parameters from the module&#39;s firmw...">
<polygon fill="white" stroke="#666666" points="110.5,-32 0,-32 0,0 110.5,0 110.5,-32"/>
<text text-anchor="start" x="8" y="-18.5" font-family="Helvetica,sans-Serif" font-size="10.00">LSM1x0A_Controller</text>
<text text-anchor="middle" x="55.25" y="-6.5" font-family="Helvetica,sans-Serif" font-size="10.00">::syncConfigToCache</text>
</a>
</g>
</g>
<!-- Node2&#45;&gt;Node3 -->
<g id="edge2_Node000002_Node000003" class="edge">
<title>Node2&#45;&gt;Node3</title>
<g id="a_edge2_Node000002_Node000003"><a xlink:title=" ">
<path fill="none" stroke="#63b8ff" d="M134.81,-16C126.52,-16 118.33,-16 110.53,-16"/>
<polygon fill="#63b8ff" stroke="#63b8ff" points="134.61,-19.5 144.61,-16 134.61,-12.5 134.61,-19.5"/>
</a>
</g>
</g>
</g>
</svg>
