<?xml version="1.0" encoding="UTF-8" standalone="no"?>
<!DOCTYPE svg PUBLIC "-//W3C//DTD SVG 1.1//EN"
 "http://www.w3.org/Graphics/SVG/1.1/DTD/svg11.dtd">
<!-- Generated by graphviz version 12.2.1 (20241206.2353)
 -->
<!-- Title: LSM1x0A_LoRaWAN::setNwkKey Pages: 1 -->
<svg width="1298pt" height="1143pt"
 viewBox="0.00 0.00 1298.25 1143.11" xmlns="http://www.w3.org/2000/svg" xmlns:xlink="http://www.w3.org/1999/xlink">
<g id="graph0" class="graph" transform="scale(1 1) rotate(0) translate(4 1139.11)">
<title>LSM1x0A_LoRaWAN::setNwkKey</title>
<!-- Node1 -->
<g id="Node000001" class="node">
<title>Node1</title>
<g id="a_Node000001"><a xlink:title="Sets the LoRaWAN Network Key (NwkKey).">
<polygon fill="#999999" stroke="#666666" points="167.5,-490.95 0,-490.95 0,-470.95 167.5,-470.95 167.5,-490.95"/>
<text text-anchor="middle" x="83.75" y="-477.45" font-family="Helvetica,sans-Serif" font-size="10.00">LSM1x0A_LoRaWAN::setNwkKey</text>
</a>
</g>
</g>
<!-- Node2 -->
<g id="Node000002" class="node">
<title>Node2</title>
<g id="a_Node000002"><a xlink:href="../../d8/d92/classLSM1x0A__Controller.html#afd7d92e60ed6fdae696a955cdbe0ed8c" target="_top" xlink:title="Sends any AT command to the module, returning error if it fails. Internally uses the LsmAtParser logi...">
<polygon fill="white" stroke="#666666" points="309.5,-496.95 203.5,-496.95 203.5,-464.95 309.5,-464.95 309.5,-496.95"/>
<text text-anchor="start" x="211.5" y="-483.45" font-family="Helvetica,sans-Serif" font-size="10.00">LSM1x0A_Controller</text>
<text text-anchor="middle" x="256.5" y="-471.45" font-family="Helvetica,sans-Serif" font-size="10.00">::sendCommand</text>
</a>
</g>
</g>
<!-- Node1&#45;&gt;Node2 -->
<g id="edge1_Node000001_Node000002" class="edge">
<title>Node1&#45;&gt;Node2</title>
<g id="a_edge1_Node000001_Node000002"><a xlink:title=" ">
<path fill="none" stroke="#63b8ff" d="M167.87,-480.95C175.97,-480.95 184.08,-480.95 191.94,-480.95"/>
<polygon fill="#63b8ff" stroke="#63b8ff" points="191.71,-484.45 201.71,-480.95 191.71,-477.45 191.71,-484.45"/>
</a>
</g>
</g>
<!-- Node3 -->
<g id="Node000003" class="node">
<title>Node3</title>
<g id="a_Node000003"><a xlink:href="../../d8/d92/classLSM1x0A__Controller.html#abb0eb380daa3dfb7acffb483c5db8e2b" target="_top" xlink:title="Executes the recovery protocol. First Soft&#45;Reset (ATZ), then Hard&#45;Reset if there is a pin.">
<polygon fill="white" stroke="#666666" points="451.5,-938.95 345.5,-938.95 345.5,-906.95 451.5,-906.95 451.5,-938.95"/>
<text text-anchor="start" x="353.5" y="-925.45" font-family="Helvetica,sans-Serif" font-size="10.00">LSM1x0A_Controller</text>
<text text-anchor="middle" x="398.5" y="-913.45" font-family="Helvetica,sans-Serif" font-size="10.00">::recoverModule</text>
</a>
</g>
</g>
<!-- Node2&#45;&gt;Node3 -->
<g id="edge2_Node000002_Node000003" class="edge">
<title>Node2&#45;&gt;Node3</title>
<g id="a_edge2_Node000002_Node000003"><a xlink:title=" ">
<path fill="none" stroke="#63b8ff" d="M261.05,-497.39C271.61,-545.46 304.66,-689.56 345.5,-804.95 356.85,-837.01 373.04,-872.58 384.33,-896.2"/>
<polygon fill="#63b8ff" stroke="#63b8ff" points="381.13,-897.62 388.63,-905.1 387.43,-894.57 381.13,-897.62"/>
</a>
</g>
</g>
<!-- Node31 -->
<g id="Node000031" class="node">
<title>Node31</title>
<g id="a_Node000031"><a xlink:href="../../d6/d3c/classLSM1x0A__AtParser.html#a29b53c521974387ba6c03afadfaffa4a" target="_top" xlink:title="Sends a simple command and waits for OK/ERROR. Example: sendCommand(&quot;AT+JOIN&quot;);.">
<polygon fill="white" stroke="#666666" points="866,-1118.95 691.75,-1118.95 691.75,-1098.95 866,-1098.95 866,-1118.95"/>
<text text-anchor="middle" x="778.88" y="-1105.45" font-family="Helvetica,sans-Serif" font-size="10.00">LSM1x0A_AtParser::sendCommand</text>
</a>
</g>
</g>
<!-- Node2&#45;&gt;Node31 -->
<g id="edge55_Node000002_Node000031" class="edge">
<title>Node2&#45;&gt;Node31</title>
<g id="a_edge55_Node000002_Node000031"><a xlink:title=" ">
<path fill="none" stroke="#63b8ff" d="M257.56,-497.2C258.38,-559.15 266.92,-785.25 345.5,-947.95 387.43,-1034.77 399.81,-1071.88 487.5,-1111.95 565.26,-1147.48 667.41,-1134.62 727.52,-1121.89"/>
<polygon fill="#63b8ff" stroke="#63b8ff" points="728.11,-1125.34 737.12,-1119.77 726.6,-1118.51 728.11,-1125.34"/>
</a>
</g>
</g>
<!-- Node4 -->
<g id="Node000004" class="node">
<title>Node4</title>
<g id="a_Node000004"><a xlink:href="../../d8/d92/classLSM1x0A__Controller.html#a3f6f25b843fe4fb7042c544deae2ab16" target="_top" xlink:title="Manually clears bits from the internal EventGroup.">
<polygon fill="white" stroke="#666666" points="1059.75,-957.95 953.75,-957.95 953.75,-925.95 1059.75,-925.95 1059.75,-957.95"/>
<text text-anchor="start" x="961.75" y="-944.45" font-family="Helvetica,sans-Serif" font-size="10.00">LSM1x0A_Controller</text>
<text text-anchor="middle" x="1006.75" y="-932.45" font-family="Helvetica,sans-Serif" font-size="10.00">::clearEvents</text>
</a>
</g>
</g>
<!-- Node3&#45;&gt;Node4 -->
<g id="edge3_Node000003_Node000004" class="edge">
<title>Node3&#45;&gt;Node4</title>
<g id="a_edge3_Node000003_Node000004"><a xlink:title=" ">
<path fill="none" stroke="#63b8ff" d="M415.58,-939.29C432,-954.72 459.06,-976.82 487.5,-985.95 647.07,-1037.18 847.66,-991 945.93,-961.72"/>
<polygon fill="#63b8ff" stroke="#63b8ff" points="946.82,-965.11 955.37,-958.86 944.79,-958.41 946.82,-965.11"/>
</a>
</g>
</g>
<!-- Node5 -->
<g id="Node000005" class="node">
<title>Node5</title>
<g id="a_Node000005"><a xlink:href="../../d8/d92/classLSM1x0A__Controller.html#a345d4bd79fa16b18dc33a4ca788fe5f7" target="_top" xlink:title="Performs a hardware reset using the reset pin.">
<polygon fill="white" stroke="#666666" points="619.75,-938.95 513.75,-938.95 513.75,-906.95 619.75,-906.95 619.75,-938.95"/>
<text text-anchor="start" x="521.75" y="-925.45" font-family="Helvetica,sans-Serif" font-size="10.00">LSM1x0A_Controller</text>
<text text-anchor="middle" x="566.75" y="-913.45" font-family="Helvetica,sans-Serif" font-size="10.00">::hardwareReset</text>
</a>
</g>
</g>
<!-- Node3&#45;&gt;Node5 -->
<g id="edge4_Node000003_Node000005" class="edge">
<title>Node3&#45;&gt;Node5</title>
<g id="a_edge4_Node000003_Node000005"><a xlink:title=" ">
<path fill="none" stroke="#63b8ff" d="M451.65,-922.95C467.66,-922.95 485.47,-922.95 502.16,-922.95"/>
<polygon fill="#63b8ff" stroke="#63b8ff" points="501.99,-926.45 511.99,-922.95 501.99,-919.45 501.99,-926.45"/>
</a>
</g>
</g>
<!-- Node7 -->
<g id="Node000007" class="node">
<title>Node7</title>
<g id="a_Node000007"><a xlink:href="../../d5/d72/classLSM1x0A__LoRaWAN.html#a1892801e37c8cd67d37c76108d6f7d49" target="_top" xlink:title="Validates if the device is currently Joined to the network. (Either confirmed by OTAA or statically a...">
<polygon fill="white" stroke="#666666" points="1290.25,-926.95 1137.75,-926.95 1137.75,-906.95 1290.25,-906.95 1290.25,-926.95"/>
<text text-anchor="middle" x="1214" y="-913.45" font-family="Helvetica,sans-Serif" font-size="10.00">LSM1x0A_LoRaWAN::isJoined</text>
</a>
</g>
</g>
<!-- Node3&#45;&gt;Node7 -->
<g id="edge6_Node000003_Node000007" class="edge">
<title>Node3&#45;&gt;Node7</title>
<g id="a_edge6_Node000003_Node000007"><a xlink:title=" ">
<path fill="none" stroke="#63b8ff" d="M445.44,-939.25C447.58,-940.7 449.61,-942.26 451.5,-943.95 476.67,-966.51 458.49,-993.6 487.5,-1010.95 498.2,-1017.34 813.66,-1014.94 875.75,-1008.95 977.44,-999.13 1004.24,-997.44 1101.75,-966.95 1130.58,-957.93 1161.83,-943.44 1183.84,-932.37"/>
<polygon fill="#63b8ff" stroke="#63b8ff" points="1185.2,-935.61 1192.51,-927.94 1182.01,-929.38 1185.2,-935.61"/>
</a>
</g>
</g>
<!-- Node8 -->
<g id="Node000008" class="node">
<title>Node8</title>
<g id="a_Node000008"><a xlink:href="../../d5/d72/classLSM1x0A__LoRaWAN.html#a83e11c0e74ff9e0757db616ab1163424" target="_top" xlink:title="Attempts to recover a lost connection (re&#45;executes OTAA Join if dropped).">
<polygon fill="white" stroke="#666666" points="641.12,-850.95 492.38,-850.95 492.38,-818.95 641.12,-818.95 641.12,-850.95"/>
<text text-anchor="start" x="500.38" y="-837.45" font-family="Helvetica,sans-Serif" font-size="10.00">LSM1x0A_LoRaWAN::recover</text>
<text text-anchor="middle" x="566.75" y="-825.45" font-family="Helvetica,sans-Serif" font-size="10.00">Connection</text>
</a>
</g>
</g>
<!-- Node3&#45;&gt;Node8 -->
<g id="edge7_Node000003_Node000008" class="edge">
<title>Node3&#45;&gt;Node8</title>
<g id="a_edge7_Node000003_Node000008"><a xlink:title=" ">
<path fill="none" stroke="#63b8ff" d="M421.47,-906.53C438.8,-894.07 463.9,-877.07 487.5,-864.95 493.79,-861.72 500.5,-858.64 507.26,-855.76"/>
<polygon fill="#63b8ff" stroke="#63b8ff" points="508.53,-859.02 516.46,-851.99 505.88,-852.55 508.53,-859.02"/>
</a>
</g>
</g>
<!-- Node12 -->
<g id="Node000012" class="node">
<title>Node12</title>
<g id="a_Node000012"><a xlink:href="../../d5/d72/classLSM1x0A__LoRaWAN.html#ae3be4ce59dfa200369733317df356e97" target="_top" xlink:title="Pushes the RAM&#45;cached variables back down into the hardware module. Restores the operational state af...">
<polygon fill="white" stroke="#666666" points="640,-496.95 493.5,-496.95 493.5,-464.95 640,-464.95 640,-496.95"/>
<text text-anchor="start" x="501.5" y="-483.45" font-family="Helvetica,sans-Serif" font-size="10.00">LSM1x0A_LoRaWAN::restore</text>
<text text-anchor="middle" x="566.75" y="-471.45" font-family="Helvetica,sans-Serif" font-size="10.00">Config</text>
</a>
</g>
</g>
<!-- Node3&#45;&gt;Node12 -->
<g id="edge16_Node000003_Node000012" class="edge">
<title>Node3&#45;&gt;Node12</title>
<g id="a_edge16_Node000003_Node000012"><a xlink:title=" ">
<path fill="none" stroke="#63b8ff" d="M405.61,-906.69C430.51,-840.5 524.42,-590.84 555.61,-507.91"/>
<polygon fill="#63b8ff" stroke="#63b8ff" points="558.8,-509.36 559.05,-498.77 552.25,-506.9 558.8,-509.36"/>
</a>
</g>
</g>
<!-- Node29 -->
<g id="Node000029" class="node">
<title>Node29</title>
<g id="a_Node000029"><a xlink:href="../../d5/d72/classLSM1x0A__LoRaWAN.html#ace4b04396f1de1f4a54f513f5f378db7" target="_top" xlink:title="Manually overrides the internal joined state tracker.">
<polygon fill="white" stroke="#666666" points="646,-976.95 487.5,-976.95 487.5,-956.95 646,-956.95 646,-976.95"/>
<text text-anchor="middle" x="566.75" y="-963.45" font-family="Helvetica,sans-Serif" font-size="10.00">LSM1x0A_LoRaWAN::setJoined</text>
</a>
</g>
</g>
<!-- Node3&#45;&gt;Node29 -->
<g id="edge50_Node000003_Node000029" class="edge">
<title>Node3&#45;&gt;Node29</title>
<g id="a_edge50_Node000003_Node000029"><a xlink:title=" ">
<path fill="none" stroke="#63b8ff" d="M451.99,-938.22C463.66,-941.51 475.98,-944.91 487.5,-947.95 494.86,-949.89 502.62,-951.86 510.29,-953.76"/>
<polygon fill="#63b8ff" stroke="#63b8ff" points="509.38,-957.14 519.93,-956.13 511.05,-950.35 509.38,-957.14"/>
</a>
</g>
</g>
<!-- Node30 -->
<g id="Node000030" class="node">
<title>Node30</title>
<g id="a_Node000030"><a xlink:href="../../d8/d92/classLSM1x0A__Controller.html#a11ad21cb5ca33ec51346764a23bd485e" target="_top" xlink:title="Performs a software reset (ATZ Command).">
<polygon fill="white" stroke="#666666" points="619.75,-1102.95 513.75,-1102.95 513.75,-1070.95 619.75,-1070.95 619.75,-1102.95"/>
<text text-anchor="start" x="521.75" y="-1089.45" font-family="Helvetica,sans-Serif" font-size="10.00">LSM1x0A_Controller</text>
<text text-anchor="middle" x="566.75" y="-1077.45" font-family="Helvetica,sans-Serif" font-size="10.00">::softwareReset</text>
</a>
</g>
</g>
<!-- Node3&#45;&gt;Node30 -->
<g id="edge51_Node000003_Node000030" class="edge">
<title>Node3&#45;&gt;Node30</title>
<g id="a_edge51_Node000003_Node000030"><a xlink:title=" ">
<path fill="none" stroke="#63b8ff" d="M406.2,-939.34C418.39,-967.25 446.75,-1024.13 487.5,-1056.95 492.32,-1060.83 497.69,-1064.24 503.3,-1067.25"/>
<polygon fill="#63b8ff" stroke="#63b8ff" points="501.71,-1070.36 512.23,-1071.55 504.75,-1064.06 501.71,-1070.36"/>
</a>
</g>
</g>
<!-- Node6 -->
<g id="Node000006" class="node">
<title>Node6</title>
<g id="a_Node000006"><a xlink:href="../../d6/d3c/classLSM1x0A__AtParser.html#ad2839120da13e56132b95019419be1e5" target="_top" xlink:title="Waits for an event (like BOOTALERT) without sending any command. Useful for hardware reset where the ...">
<polygon fill="white" stroke="#666666" points="849.12,-938.95 708.62,-938.95 708.62,-906.95 849.12,-906.95 849.12,-938.95"/>
<text text-anchor="start" x="716.62" y="-925.45" font-family="Helvetica,sans-Serif" font-size="10.00">LSM1x0A_AtParser::waitFor</text>
<text text-anchor="middle" x="778.88" y="-913.45" font-family="Helvetica,sans-Serif" font-size="10.00">Event</text>
</a>
</g>
</g>
<!-- Node5&#45;&gt;Node6 -->
<g id="edge5_Node000005_Node000006" class="edge">
<title>Node5&#45;&gt;Node6</title>
<g id="a_edge5_Node000005_Node000006"><a xlink:title=" ">
<path fill="none" stroke="#63b8ff" d="M620.23,-922.95C643.42,-922.95 671.22,-922.95 696.96,-922.95"/>
<polygon fill="#63b8ff" stroke="#63b8ff" points="696.72,-926.45 706.72,-922.95 696.72,-919.45 696.72,-926.45"/>
</a>
</g>
</g>
<!-- Node9 -->
<g id="Node000009" class="node">
<title>Node9</title>
<g id="a_Node000009"><a xlink:href="../../d5/d72/classLSM1x0A__LoRaWAN.html#a59f781f3cfd30c11cd3973bcb10a7baa" target="_top" xlink:title="Initiates a LoRaWAN Network Join procedure. This is a blocking function until the module fires an eve...">
<polygon fill="white" stroke="#666666" points="844.62,-844.95 713.12,-844.95 713.12,-824.95 844.62,-824.95 844.62,-844.95"/>
<text text-anchor="middle" x="778.88" y="-831.45" font-family="Helvetica,sans-Serif" font-size="10.00">LSM1x0A_LoRaWAN::join</text>
</a>
</g>
</g>
<!-- Node8&#45;&gt;Node9 -->
<g id="edge8_Node000008_Node000009" class="edge">
<title>Node8&#45;&gt;Node9</title>
<g id="a_edge8_Node000008_Node000009"><a xlink:title=" ">
<path fill="none" stroke="#63b8ff" d="M641.54,-834.95C660.91,-834.95 681.85,-834.95 701.36,-834.95"/>
<polygon fill="#63b8ff" stroke="#63b8ff" points="701.15,-838.45 711.15,-834.95 701.15,-831.45 701.15,-838.45"/>
</a>
</g>
</g>
<!-- Node9&#45;&gt;Node2 -->
<g id="edge11_Node000009_Node000002" class="edge">
<title>Node9&#45;&gt;Node2</title>
<g id="a_edge11_Node000009_Node000002"><a xlink:title=" ">
<path fill="none" stroke="#63b8ff" d="M724.65,-824.5C666.02,-812.53 569.23,-791.38 487.5,-766.95 423.11,-747.69 393.23,-762.27 345.5,-714.95 287.23,-657.18 267.03,-557.13 260.45,-508.74"/>
<polygon fill="#63b8ff" stroke="#63b8ff" points="263.93,-508.33 259.22,-498.84 256.98,-509.2 263.93,-508.33"/>
</a>
</g>
</g>
<!-- Node9&#45;&gt;Node3 -->
<g id="edge10_Node000009_Node000003" class="edge">
<title>Node9&#45;&gt;Node3</title>
<g id="a_edge10_Node000009_Node000003"><a xlink:title=" ">
<path fill="none" stroke="#63b8ff" d="M724.65,-845.44C666.24,-857.21 569.82,-877.35 487.5,-897.95 479.56,-899.94 471.24,-902.14 463.03,-904.39"/>
<polygon fill="#63b8ff" stroke="#63b8ff" points="462.09,-901.01 453.4,-907.06 463.97,-907.76 462.09,-901.01"/>
</a>
</g>
</g>
<!-- Node9&#45;&gt;Node4 -->
<g id="edge9_Node000009_Node000004" class="edge">
<title>Node9&#45;&gt;Node4</title>
<g id="a_edge9_Node000009_Node000004"><a xlink:title=" ">
<path fill="none" stroke="#63b8ff" d="M801.94,-845.4C838.66,-862.79 912.98,-898 961.01,-920.75"/>
<polygon fill="#63b8ff" stroke="#63b8ff" points="959.22,-923.78 969.76,-924.9 962.22,-917.45 959.22,-923.78"/>
</a>
</g>
</g>
<!-- Node10 -->
<g id="Node000010" class="node">
<title>Node10</title>
<g id="a_Node000010"><a xlink:href="../../d5/d72/classLSM1x0A__LoRaWAN.html#a3fdd1ac318a5ad2559323e5d57e36a5e" target="_top" xlink:title="Enables or disables specific sub&#45;bands for regions supporting Channel Masks (e.g.,...">
<polygon fill="white" stroke="#666666" points="1101.75,-654.95 911.75,-654.95 911.75,-634.95 1101.75,-634.95 1101.75,-654.95"/>
<text text-anchor="middle" x="1006.75" y="-641.45" font-family="Helvetica,sans-Serif" font-size="10.00">LSM1x0A_LoRaWAN::setChannelMask</text>
</a>
</g>
</g>
<!-- Node9&#45;&gt;Node10 -->
<g id="edge12_Node000009_Node000010" class="edge">
<title>Node9&#45;&gt;Node10</title>
<g id="a_edge12_Node000009_Node000010"><a xlink:title=" ">
<path fill="none" stroke="#63b8ff" d="M839.18,-824.45C851.9,-820.55 864.8,-815.22 875.75,-807.95 932.62,-770.19 976.25,-699.61 995.29,-665.05"/>
<polygon fill="#63b8ff" stroke="#63b8ff" points="998.22,-666.98 999.87,-656.52 992.05,-663.67 998.22,-666.98"/>
</a>
</g>
</g>
<!-- Node11 -->
<g id="Node000011" class="node">
<title>Node11</title>
<g id="a_Node000011"><a xlink:href="../../d8/d92/classLSM1x0A__Controller.html#a62476e30e50c7fe120aeb8df4b828675" target="_top" xlink:title="Synchronously/blockingly waits for an asynchronous event to occur. Useful for wrapping commands like ...">
<polygon fill="white" stroke="#666666" points="1059.75,-850.95 953.75,-850.95 953.75,-818.95 1059.75,-818.95 1059.75,-850.95"/>
<text text-anchor="start" x="961.75" y="-837.45" font-family="Helvetica,sans-Serif" font-size="10.00">LSM1x0A_Controller</text>
<text text-anchor="middle" x="1006.75" y="-825.45" font-family="Helvetica,sans-Serif" font-size="10.00">::waitForEvent</text>
</a>
</g>
</g>
<!-- Node9&#45;&gt;Node11 -->
<g id="edge15_Node000009_Node000011" class="edge">
<title>Node9&#45;&gt;Node11</title>
<g id="a_edge15_Node000009_Node000011"><a xlink:title=" ">
<path fill="none" stroke="#63b8ff" d="M844.9,-834.95C875.41,-834.95 911.65,-834.95 941.99,-834.95"/>
<polygon fill="#63b8ff" stroke="#63b8ff" points="941.8,-838.45 951.8,-834.95 941.8,-831.45 941.8,-838.45"/>
</a>
</g>
</g>
<!-- Node10&#45;&gt;Node2 -->
<g id="edge14_Node000010_Node000002" class="edge">
<title>Node10&#45;&gt;Node2</title>
<g id="a_edge14_Node000010_Node000002"><a xlink:title=" ">
<path fill="none" stroke="#63b8ff" d="M1004.97,-634.73C999.52,-566.01 964.6,-172.04 875.75,-101.95 690.59,44.11 526.65,29.06 345.5,-121.95 293.92,-164.95 267.86,-377.61 260.07,-453.76"/>
<polygon fill="#63b8ff" stroke="#63b8ff" points="256.63,-452.96 259.12,-463.26 263.59,-453.65 256.63,-452.96"/>
</a>
</g>
</g>
<!-- Node10&#45;&gt;Node7 -->
<g id="edge13_Node000010_Node000007" class="edge">
<title>Node10&#45;&gt;Node7</title>
<g id="a_edge13_Node000010_Node000007"><a xlink:title=" ">
<path fill="none" stroke="#63b8ff" d="M1015.55,-655.28C1046.09,-695.76 1157.92,-843.95 1198.32,-897.49"/>
<polygon fill="#63b8ff" stroke="#63b8ff" points="1195.47,-899.52 1204.29,-905.4 1201.06,-895.31 1195.47,-899.52"/>
</a>
</g>
</g>
<!-- Node12&#45;&gt;Node10 -->
<g id="edge21_Node000012_Node000010" class="edge">
<title>Node12&#45;&gt;Node10</title>
<g id="a_edge21_Node000012_Node000010"><a xlink:title=" ">
<path fill="none" stroke="#63b8ff" d="M640.24,-484.29C717.9,-488.81 835.43,-498.64 875.75,-517.95 927.68,-542.82 971.63,-596.76 992.59,-625.7"/>
<polygon fill="#63b8ff" stroke="#63b8ff" points="989.52,-627.41 998.15,-633.56 995.24,-623.37 989.52,-627.41"/>
</a>
</g>
</g>
<!-- Node13 -->
<g id="Node000013" class="node">
<title>Node13</title>
<g id="a_Node000013"><a xlink:href="../../d5/d72/classLSM1x0A__LoRaWAN.html#af0baa3db4c7fab580d6b19a9e92472f6" target="_top" xlink:title="Enables or disables Adaptive Data Rate (ADR).">
<polygon fill="white" stroke="#666666" points="854.75,-798.95 703,-798.95 703,-778.95 854.75,-778.95 854.75,-798.95"/>
<text text-anchor="middle" x="778.88" y="-785.45" font-family="Helvetica,sans-Serif" font-size="10.00">LSM1x0A_LoRaWAN::setADR</text>
</a>
</g>
</g>
<!-- Node12&#45;&gt;Node13 -->
<g id="edge17_Node000012_Node000013" class="edge">
<title>Node12&#45;&gt;Node13</title>
<g id="a_edge17_Node000012_Node000013"><a xlink:title=" ">
<path fill="none" stroke="#63b8ff" d="M568.93,-497.13C573.45,-546.58 594.15,-696.7 682,-769.95 685.25,-772.66 688.79,-775.03 692.51,-777.08"/>
<polygon fill="#63b8ff" stroke="#63b8ff" points="690.84,-780.17 701.38,-781.21 693.79,-773.82 690.84,-780.17"/>
</a>
</g>
</g>
<!-- Node14 -->
<g id="Node000014" class="node">
<title>Node14</title>
<g id="a_Node000014"><a xlink:href="../../d5/d72/classLSM1x0A__LoRaWAN.html#a5365ed1596eb84ebf1e3b33b4a10c788" target="_top" xlink:title="Sets the LoRaWAN operational frequency band.">
<polygon fill="white" stroke="#666666" points="855.12,-760.95 702.62,-760.95 702.62,-740.95 855.12,-740.95 855.12,-760.95"/>
<text text-anchor="middle" x="778.88" y="-747.45" font-family="Helvetica,sans-Serif" font-size="10.00">LSM1x0A_LoRaWAN::setBand</text>
</a>
</g>
</g>
<!-- Node12&#45;&gt;Node14 -->
<g id="edge19_Node000012_Node000014" class="edge">
<title>Node12&#45;&gt;Node14</title>
<g id="a_edge19_Node000012_Node000014"><a xlink:title=" ">
<path fill="none" stroke="#63b8ff" d="M570.01,-497.27C577.17,-542.46 603.73,-669.99 682,-731.95 685.16,-734.45 688.55,-736.64 692.11,-738.58"/>
<polygon fill="#63b8ff" stroke="#63b8ff" points="690.6,-741.74 701.15,-742.72 693.52,-735.37 690.6,-741.74"/>
</a>
</g>
</g>
<!-- Node15 -->
<g id="Node000015" class="node">
<title>Node15</title>
<g id="a_Node000015"><a xlink:href="../../d5/d72/classLSM1x0A__LoRaWAN.html#a9d9285c43414337a0ccb3a6cd7ca06e6" target="_top" xlink:title="Configures the number of retries for Confirmed uplinks.">
<polygon fill="white" stroke="#666666" points="861.12,-722.95 696.62,-722.95 696.62,-690.95 861.12,-690.95 861.12,-722.95"/>
<text text-anchor="start" x="704.62" y="-709.45" font-family="Helvetica,sans-Serif" font-size="10.00">LSM1x0A_LoRaWAN::setConfirm</text>
<text text-anchor="middle" x="778.88" y="-697.45" font-family="Helvetica,sans-Serif" font-size="10.00">Retry</text>
</a>
</g>
</g>
<!-- Node12&#45;&gt;Node15 -->
<g id="edge22_Node000012_Node000015" class="edge">
<title>Node12&#45;&gt;Node15</title>
<g id="a_edge22_Node000012_Node000015"><a xlink:title=" ">
<path fill="none" stroke="#63b8ff" d="M572.27,-497.42C583.73,-535.98 617.67,-632.59 682,-681.95 683.36,-682.99 684.77,-684 686.21,-684.96"/>
<polygon fill="#63b8ff" stroke="#63b8ff" points="684.43,-687.98 694.84,-689.96 687.94,-681.92 684.43,-687.98"/>
</a>
</g>
</g>
<!-- Node16 -->
<g id="Node000016" class="node">
<title>Node16</title>
<g id="a_Node000016"><a xlink:href="../../d5/d72/classLSM1x0A__LoRaWAN.html#a56345ceeafa0b9059d6de4e69eddc82e" target="_top" xlink:title="Sets the Data Rate (DR) of the module.">
<polygon fill="white" stroke="#666666" points="864.88,-672.95 692.88,-672.95 692.88,-652.95 864.88,-652.95 864.88,-672.95"/>
<text text-anchor="middle" x="778.88" y="-659.45" font-family="Helvetica,sans-Serif" font-size="10.00">LSM1x0A_LoRaWAN::setDataRate</text>
</a>
</g>
</g>
<!-- Node12&#45;&gt;Node16 -->
<g id="edge24_Node000012_Node000016" class="edge">
<title>Node12&#45;&gt;Node16</title>
<g id="a_edge24_Node000012_Node000016"><a xlink:title=" ">
<path fill="none" stroke="#63b8ff" d="M574.18,-497.26C588.24,-530.68 625.11,-606.87 682,-643.95 684.14,-645.34 686.35,-646.63 688.63,-647.84"/>
<polygon fill="#63b8ff" stroke="#63b8ff" points="687.05,-650.96 697.6,-651.92 689.95,-644.59 687.05,-650.96"/>
</a>
</g>
</g>
<!-- Node17 -->
<g id="Node000017" class="node">
<title>Node17</title>
<g id="a_Node000017"><a xlink:href="../../d5/d72/classLSM1x0A__LoRaWAN.html#a8494083816ab885cb07fc3b08de029f4" target="_top" xlink:title="Sets the LoRaWAN Device Address (DevAddr) for ABP mode.">
<polygon fill="white" stroke="#666666" points="863,-634.95 694.75,-634.95 694.75,-614.95 863,-614.95 863,-634.95"/>
<text text-anchor="middle" x="778.88" y="-621.45" font-family="Helvetica,sans-Serif" font-size="10.00">LSM1x0A_LoRaWAN::setDevAddr</text>
</a>
</g>
</g>
<!-- Node12&#45;&gt;Node17 -->
<g id="edge26_Node000012_Node000017" class="edge">
<title>Node12&#45;&gt;Node17</title>
<g id="a_edge26_Node000012_Node000017"><a xlink:title=" ">
<path fill="none" stroke="#63b8ff" d="M577.74,-497.41C595.22,-524.7 634.1,-578.97 682,-605.95 684.84,-607.55 687.8,-609.02 690.83,-610.36"/>
<polygon fill="#63b8ff" stroke="#63b8ff" points="689.42,-613.57 700.01,-613.93 691.96,-607.04 689.42,-613.57"/>
</a>
</g>
</g>
<!-- Node18 -->
<g id="Node000018" class="node">
<title>Node18</title>
<g id="a_Node000018"><a xlink:href="../../d5/d72/classLSM1x0A__LoRaWAN.html#ad320634e52d7ea907043cc50dd37c5b0" target="_top" xlink:title="Sets the LoRaWAN Device EUI (DevEUI).">
<polygon fill="white" stroke="#666666" points="861.5,-596.95 696.25,-596.95 696.25,-576.95 861.5,-576.95 861.5,-596.95"/>
<text text-anchor="middle" x="778.88" y="-583.45" font-family="Helvetica,sans-Serif" font-size="10.00">LSM1x0A_LoRaWAN::setDevEUI</text>
</a>
</g>
</g>
<!-- Node12&#45;&gt;Node18 -->
<g id="edge28_Node000012_Node000018" class="edge">
<title>Node12&#45;&gt;Node18</title>
<g id="a_edge28_Node000012_Node000018"><a xlink:title=" ">
<path fill="none" stroke="#63b8ff" d="M583.95,-497.21C604.77,-517.12 642.9,-550.34 682,-567.95 686.26,-569.87 690.72,-571.6 695.28,-573.15"/>
<polygon fill="#63b8ff" stroke="#63b8ff" points="694.03,-576.43 704.62,-576.02 696.09,-569.74 694.03,-576.43"/>
</a>
</g>
</g>
<!-- Node19 -->
<g id="Node000019" class="node">
<title>Node19</title>
<g id="a_Node000019"><a xlink:href="../../d5/d72/classLSM1x0A__LoRaWAN.html#a031023b0d2dd5db3c51c2db6ae7801cc" target="_top" xlink:title="Enables or disables the Duty Cycle limitation (EU regions mostly).">
<polygon fill="white" stroke="#666666" points="854.38,-558.95 703.38,-558.95 703.38,-526.95 854.38,-526.95 854.38,-558.95"/>
<text text-anchor="start" x="711.38" y="-545.45" font-family="Helvetica,sans-Serif" font-size="10.00">LSM1x0A_LoRaWAN::setDuty</text>
<text text-anchor="middle" x="778.88" y="-533.45" font-family="Helvetica,sans-Serif" font-size="10.00">Cycle</text>
</a>
</g>
</g>
<!-- Node12&#45;&gt;Node19 -->
<g id="edge30_Node000012_Node000019" class="edge">
<title>Node12&#45;&gt;Node19</title>
<g id="a_edge30_Node000012_Node000019"><a xlink:title=" ">
<path fill="none" stroke="#63b8ff" d="M623.51,-497.4C650.45,-505.35 682.98,-514.95 711.23,-523.28"/>
<polygon fill="#63b8ff" stroke="#63b8ff" points="710.19,-526.62 720.77,-526.1 712.17,-519.91 710.19,-526.62"/>
</a>
</g>
</g>
<!-- Node20 -->
<g id="Node000020" class="node">
<title>Node20</title>
<g id="a_Node000020"><a xlink:href="../../d5/d72/classLSM1x0A__LoRaWAN.html#a6b179d5825c49af0f391dfc539912f64" target="_top" xlink:title="Sets the delay for the Join1 receive window.">
<polygon fill="white" stroke="#666666" points="855.5,-470.95 702.25,-470.95 702.25,-438.95 855.5,-438.95 855.5,-470.95"/>
<text text-anchor="start" x="710.25" y="-457.45" font-family="Helvetica,sans-Serif" font-size="10.00">LSM1x0A_LoRaWAN::setJoin1</text>
<text text-anchor="middle" x="778.88" y="-445.45" font-family="Helvetica,sans-Serif" font-size="10.00">Delay</text>
</a>
</g>
</g>
<!-- Node12&#45;&gt;Node20 -->
<g id="edge32_Node000012_Node000020" class="edge">
<title>Node12&#45;&gt;Node20</title>
<g id="a_edge32_Node000012_Node000020"><a xlink:title=" ">
<path fill="none" stroke="#63b8ff" d="M640.36,-471.96C656.71,-469.94 674.22,-467.77 691.08,-465.69"/>
<polygon fill="#63b8ff" stroke="#63b8ff" points="691.05,-469.22 700.55,-464.52 690.19,-462.27 691.05,-469.22"/>
</a>
</g>
</g>
<!-- Node21 -->
<g id="Node000021" class="node">
<title>Node21</title>
<g id="a_Node000021"><a xlink:href="../../d5/d72/classLSM1x0A__LoRaWAN.html#a4545d0caad41558cdb9bae8286b104d8" target="_top" xlink:title="Sets the delay for the Join2 receive window.">
<polygon fill="white" stroke="#666666" points="855.5,-420.95 702.25,-420.95 702.25,-388.95 855.5,-388.95 855.5,-420.95"/>
<text text-anchor="start" x="710.25" y="-407.45" font-family="Helvetica,sans-Serif" font-size="10.00">LSM1x0A_LoRaWAN::setJoin2</text>
<text text-anchor="middle" x="778.88" y="-395.45" font-family="Helvetica,sans-Serif" font-size="10.00">Delay</text>
</a>
</g>
</g>
<!-- Node12&#45;&gt;Node21 -->
<g id="edge34_Node000012_Node000021" class="edge">
<title>Node12&#45;&gt;Node21</title>
<g id="a_edge34_Node000012_Node000021"><a xlink:title=" ">
<path fill="none" stroke="#63b8ff" d="M600.66,-464.52C623.17,-453.71 653.92,-439.8 682,-429.95 687.29,-428.09 692.79,-426.3 698.36,-424.59"/>
<polygon fill="#63b8ff" stroke="#63b8ff" points="699.07,-428.03 707.66,-421.84 697.08,-421.32 699.07,-428.03"/>
</a>
</g>
</g>
<!-- Node22 -->
<g id="Node000022" class="node">
<title>Node22</title>
<g id="a_Node000022"><a xlink:href="../../d5/d72/classLSM1x0A__LoRaWAN.html#a06bd50723ec1eb7e144c9141b2ec86fc" target="_top" xlink:title="Sets the LoRaWAN Network ID (NetID).">
<polygon fill="white" stroke="#666666" points="859.25,-370.95 698.5,-370.95 698.5,-350.95 859.25,-350.95 859.25,-370.95"/>
<text text-anchor="middle" x="778.88" y="-357.45" font-family="Helvetica,sans-Serif" font-size="10.00">LSM1x0A_LoRaWAN::setNwkID</text>
</a>
</g>
</g>
<!-- Node12&#45;&gt;Node22 -->
<g id="edge36_Node000012_Node000022" class="edge">
<title>Node12&#45;&gt;Node22</title>
<g id="a_edge36_Node000012_Node000022"><a xlink:title=" ">
<path fill="none" stroke="#63b8ff" d="M581.01,-464.74C600.6,-441.98 639.53,-400.98 682,-379.95 685.68,-378.13 689.51,-376.48 693.45,-374.99"/>
<polygon fill="#63b8ff" stroke="#63b8ff" points="694.26,-378.41 702.61,-371.9 692.02,-371.78 694.26,-378.41"/>
</a>
</g>
</g>
<!-- Node23 -->
<g id="Node000023" class="node">
<title>Node23</title>
<g id="a_Node000023"><a xlink:href="../../d5/d72/classLSM1x0A__LoRaWAN.html#aa70ada64d28ecca216bb62268e502adf" target="_top" xlink:title="Sets the delay for the RX1 receive window.">
<polygon fill="white" stroke="#666666" points="865.62,-332.95 692.12,-332.95 692.12,-312.95 865.62,-312.95 865.62,-332.95"/>
<text text-anchor="middle" x="778.88" y="-319.45" font-family="Helvetica,sans-Serif" font-size="10.00">LSM1x0A_LoRaWAN::setRx1Delay</text>
</a>
</g>
</g>
<!-- Node12&#45;&gt;Node23 -->
<g id="edge38_Node000012_Node000023" class="edge">
<title>Node12&#45;&gt;Node23</title>
<g id="a_edge38_Node000012_Node000023"><a xlink:title=" ">
<path fill="none" stroke="#63b8ff" d="M576.2,-464.54C592.4,-434.88 630.8,-372.58 682,-341.95 684.48,-340.46 687.06,-339.09 689.71,-337.82"/>
<polygon fill="#63b8ff" stroke="#63b8ff" points="690.96,-341.09 698.84,-334.02 688.26,-334.63 690.96,-341.09"/>
</a>
</g>
</g>
<!-- Node24 -->
<g id="Node000024" class="node">
<title>Node24</title>
<g id="a_Node000024"><a xlink:href="../../d5/d72/classLSM1x0A__LoRaWAN.html#a2cf4eff0181b6107d082bccefa24217b" target="_top" xlink:title="Sets the Data Rate (DR) specifically for the RX2 window.">
<polygon fill="white" stroke="#666666" points="873.88,-294.95 683.88,-294.95 683.88,-274.95 873.88,-274.95 873.88,-294.95"/>
<text text-anchor="middle" x="778.88" y="-281.45" font-family="Helvetica,sans-Serif" font-size="10.00">LSM1x0A_LoRaWAN::setRx2DataRate</text>
</a>
</g>
</g>
<!-- Node12&#45;&gt;Node24 -->
<g id="edge40_Node000012_Node000024" class="edge">
<title>Node12&#45;&gt;Node24</title>
<g id="a_edge40_Node000012_Node000024"><a xlink:title=" ">
<path fill="none" stroke="#63b8ff" d="M573.27,-464.61C586.15,-429.11 621.79,-344.84 682,-303.95 683.97,-302.61 686.02,-301.36 688.13,-300.19"/>
<polygon fill="#63b8ff" stroke="#63b8ff" points="689.46,-303.43 696.98,-295.97 686.45,-297.11 689.46,-303.43"/>
</a>
</g>
</g>
<!-- Node25 -->
<g id="Node000025" class="node">
<title>Node25</title>
<g id="a_Node000025"><a xlink:href="../../d5/d72/classLSM1x0A__LoRaWAN.html#a42d2137b475b57e19d891a5f1ac93221" target="_top" xlink:title="Sets the delay for the RX2 receive window.">
<polygon fill="white" stroke="#666666" points="865.62,-256.95 692.12,-256.95 692.12,-236.95 865.62,-236.95 865.62,-256.95"/>
<text text-anchor="middle" x="778.88" y="-243.45" font-family="Helvetica,sans-Serif" font-size="10.00">LSM1x0A_LoRaWAN::setRx2Delay</text>
</a>
</g>
</g>
<!-- Node12&#45;&gt;Node25 -->
<g id="edge42_Node000012_Node000025" class="edge">
<title>Node12&#45;&gt;Node25</title>
<g id="a_edge42_Node000012_Node000025"><a xlink:title=" ">
<path fill="none" stroke="#63b8ff" d="M571.34,-464.6C581.18,-423.89 612.61,-317.5 682,-265.95 683.59,-264.76 685.24,-263.65 686.93,-262.6"/>
<polygon fill="#63b8ff" stroke="#63b8ff" points="688.51,-265.72 695.73,-257.97 685.25,-259.53 688.51,-265.72"/>
</a>
</g>
</g>
<!-- Node26 -->
<g id="Node000026" class="node">
<title>Node26</title>
<g id="a_Node000026"><a xlink:href="../../d5/d72/classLSM1x0A__LoRaWAN.html#a689f7dfda1dfeae11ea397c2ddf2ad37" target="_top" xlink:title="Sets the precise frequency for the RX2 window.">
<polygon fill="white" stroke="#666666" points="875.75,-218.95 682,-218.95 682,-198.95 875.75,-198.95 875.75,-218.95"/>
<text text-anchor="middle" x="778.88" y="-205.45" font-family="Helvetica,sans-Serif" font-size="10.00">LSM1x0A_LoRaWAN::setRx2Frequency</text>
</a>
</g>
</g>
<!-- Node12&#45;&gt;Node26 -->
<g id="edge44_Node000012_Node000026" class="edge">
<title>Node12&#45;&gt;Node26</title>
<g id="a_edge44_Node000012_Node000026"><a xlink:title=" ">
<path fill="none" stroke="#63b8ff" d="M569.96,-464.5C577.01,-418.96 603.31,-290.44 682,-227.95 683.33,-226.89 684.7,-225.89 686.11,-224.94"/>
<polygon fill="#63b8ff" stroke="#63b8ff" points="687.61,-228.11 694.57,-220.12 684.15,-222.03 687.61,-228.11"/>
</a>
</g>
</g>
<!-- Node27 -->
<g id="Node000027" class="node">
<title>Node27</title>
<g id="a_Node000027"><a xlink:href="../../d5/d72/classLSM1x0A__LoRaWAN.html#a1df10d7ae6bf45b537d28d3d5c4b88d7" target="_top" xlink:title="Sets the transmission power index.">
<polygon fill="white" stroke="#666666" points="863.38,-180.95 694.38,-180.95 694.38,-160.95 863.38,-160.95 863.38,-180.95"/>
<text text-anchor="middle" x="778.88" y="-167.45" font-family="Helvetica,sans-Serif" font-size="10.00">LSM1x0A_LoRaWAN::setTxPower</text>
</a>
</g>
</g>
<!-- Node12&#45;&gt;Node27 -->
<g id="edge46_Node000012_Node000027" class="edge">
<title>Node12&#45;&gt;Node27</title>
<g id="a_edge46_Node000012_Node000027"><a xlink:title=" ">
<path fill="none" stroke="#63b8ff" d="M568.89,-464.65C573.3,-414.88 593.71,-263.73 682,-189.95 683.14,-189 684.3,-188.09 685.5,-187.23"/>
<polygon fill="#63b8ff" stroke="#63b8ff" points="687.18,-190.3 693.93,-182.14 683.56,-184.31 687.18,-190.3"/>
</a>
</g>
</g>
<!-- Node28 -->
<g id="Node000028" class="node">
<title>Node28</title>
<g id="a_Node000028"><a xlink:href="../../d5/d72/classLSM1x0A__LoRaWAN.html#a059fd6a9356c4ecadd5a98294da5952d" target="_top" xlink:title="Configures the number of repetitions for Unconfirmed uplinks.">
<polygon fill="white" stroke="#666666" points="866.38,-142.95 691.38,-142.95 691.38,-110.95 866.38,-110.95 866.38,-142.95"/>
<text text-anchor="start" x="699.38" y="-129.45" font-family="Helvetica,sans-Serif" font-size="10.00">LSM1x0A_LoRaWAN::setUnconfirm</text>
<text text-anchor="middle" x="778.88" y="-117.45" font-family="Helvetica,sans-Serif" font-size="10.00">Retry</text>
</a>
</g>
</g>
<!-- Node12&#45;&gt;Node28 -->
<g id="edge48_Node000012_Node000028" class="edge">
<title>Node12&#45;&gt;Node28</title>
<g id="a_edge48_Node000012_Node000028"><a xlink:title=" ">
<path fill="none" stroke="#63b8ff" d="M568.27,-464.75C570.9,-411.46 586.73,-239.96 682,-151.95 682.77,-151.23 683.57,-150.54 684.37,-149.86"/>
<polygon fill="#63b8ff" stroke="#63b8ff" points="686.22,-152.84 692.37,-144.21 682.19,-147.12 686.22,-152.84"/>
</a>
</g>
</g>
<!-- Node13&#45;&gt;Node2 -->
<g id="edge18_Node000013_Node000002" class="edge">
<title>Node13&#45;&gt;Node2</title>
<g id="a_edge18_Node000013_Node000002"><a xlink:title=" ">
<path fill="none" stroke="#63b8ff" d="M703.86,-778.49C594.64,-761.69 397.58,-725.64 345.5,-677.95 294.85,-631.57 271.62,-550.58 262.5,-508.34"/>
<polygon fill="#63b8ff" stroke="#63b8ff" points="265.98,-507.86 260.55,-498.76 259.12,-509.26 265.98,-507.86"/>
</a>
</g>
</g>
<!-- Node14&#45;&gt;Node2 -->
<g id="edge20_Node000014_Node000002" class="edge">
<title>Node14&#45;&gt;Node2</title>
<g id="a_edge20_Node000014_Node000002"><a xlink:title=" ">
<path fill="none" stroke="#63b8ff" d="M706.23,-740.46C598.17,-723.42 400.26,-687.03 345.5,-641.95 302.23,-606.32 276.87,-543.61 265.24,-507.88"/>
<polygon fill="#63b8ff" stroke="#63b8ff" points="268.71,-507.24 262.39,-498.74 262.02,-509.32 268.71,-507.24"/>
</a>
</g>
</g>
<!-- Node15&#45;&gt;Node2 -->
<g id="edge23_Node000015_Node000002" class="edge">
<title>Node15&#45;&gt;Node2</title>
<g id="a_edge23_Node000015_Node000002"><a xlink:title=" ">
<path fill="none" stroke="#63b8ff" d="M696.24,-696.13C586.83,-680.29 400.07,-648.15 345.5,-606.95 310.38,-580.43 283.99,-535.78 269.65,-507.37"/>
<polygon fill="#63b8ff" stroke="#63b8ff" points="272.96,-506.16 265.42,-498.71 266.67,-509.23 272.96,-506.16"/>
</a>
</g>
</g>
<!-- Node16&#45;&gt;Node2 -->
<g id="edge25_Node000016_Node000002" class="edge">
<title>Node16&#45;&gt;Node2</title>
<g id="a_edge25_Node000016_Node000002"><a xlink:title=" ">
<path fill="none" stroke="#63b8ff" d="M692.77,-660.63C601.06,-654.66 453.71,-634.71 345.5,-569.95 317.82,-553.38 292.64,-526.09 276.38,-506.09"/>
<polygon fill="#63b8ff" stroke="#63b8ff" points="279.24,-504.06 270.29,-498.39 273.75,-508.41 279.24,-504.06"/>
</a>
</g>
</g>
<!-- Node17&#45;&gt;Node2 -->
<g id="edge27_Node000017_Node000002" class="edge">
<title>Node17&#45;&gt;Node2</title>
<g id="a_edge27_Node000017_Node000002"><a xlink:title=" ">
<path fill="none" stroke="#63b8ff" d="M694.52,-618.09C605.26,-608.52 460.9,-586.49 345.5,-537.95 324.74,-529.22 303.49,-515.61 287.08,-503.88"/>
<polygon fill="#63b8ff" stroke="#63b8ff" points="289.37,-501.22 279.23,-498.14 285.24,-506.87 289.37,-501.22"/>
</a>
</g>
</g>
<!-- Node18&#45;&gt;Node2 -->
<g id="edge29_Node000018_Node000002" class="edge">
<title>Node18&#45;&gt;Node2</title>
<g id="a_edge29_Node000018_Node000002"><a xlink:title=" ">
<path fill="none" stroke="#63b8ff" d="M696.12,-576.91C608.53,-565.2 465.84,-543.35 345.5,-511.95 333.98,-508.94 321.82,-505.11 310.34,-501.17"/>
<polygon fill="#63b8ff" stroke="#63b8ff" points="311.6,-497.9 301.01,-497.88 309.28,-504.5 311.6,-497.9"/>
</a>
</g>
</g>
<!-- Node19&#45;&gt;Node2 -->
<g id="edge31_Node000019_Node000002" class="edge">
<title>Node19&#45;&gt;Node2</title>
<g id="a_edge31_Node000019_Node000002"><a xlink:title=" ">
<path fill="none" stroke="#63b8ff" d="M703.14,-534.04C600.46,-521.81 417.56,-500.02 321.1,-488.53"/>
<polygon fill="#63b8ff" stroke="#63b8ff" points="321.62,-485.06 311.28,-487.36 320.8,-492.01 321.62,-485.06"/>
</a>
</g>
</g>
<!-- Node20&#45;&gt;Node2 -->
<g id="edge33_Node000020_Node000002" class="edge">
<title>Node20&#45;&gt;Node2</title>
<g id="a_edge33_Node000020_Node000002"><a xlink:title=" ">
<path fill="none" stroke="#63b8ff" d="M702,-453.04C643.37,-452.09 560.23,-451.88 487.5,-455.95 431.12,-459.1 367.3,-466.33 321.22,-472.21"/>
<polygon fill="#63b8ff" stroke="#63b8ff" points="320.87,-468.72 311.4,-473.48 321.76,-475.67 320.87,-468.72"/>
</a>
</g>
</g>
<!-- Node21&#45;&gt;Node2 -->
<g id="edge35_Node000021_Node000002" class="edge">
<title>Node21&#45;&gt;Node2</title>
<g id="a_edge35_Node000021_Node000002"><a xlink:title=" ">
<path fill="none" stroke="#63b8ff" d="M701.88,-409.76C615.03,-416.18 468.96,-429.77 345.5,-454.95 336.83,-456.72 327.78,-458.94 318.92,-461.34"/>
<polygon fill="#63b8ff" stroke="#63b8ff" points="317.98,-457.97 309.3,-464.05 319.88,-464.71 317.98,-457.97"/>
</a>
</g>
</g>
<!-- Node22&#45;&gt;Node2 -->
<g id="edge37_Node000022_Node000002" class="edge">
<title>Node22&#45;&gt;Node2</title>
<g id="a_edge37_Node000022_Node000002"><a xlink:title=" ">
<path fill="none" stroke="#63b8ff" d="M698.21,-366.22C609.95,-373.87 464.38,-391.94 345.5,-432.95 327.01,-439.33 307.8,-449.35 292.06,-458.6"/>
<polygon fill="#63b8ff" stroke="#63b8ff" points="290.3,-455.57 283.55,-463.73 293.92,-461.56 290.3,-455.57"/>
</a>
</g>
</g>
<!-- Node23&#45;&gt;Node2 -->
<g id="edge39_Node000023_Node000002" class="edge">
<title>Node23&#45;&gt;Node2</title>
<g id="a_edge39_Node000023_Node000002"><a xlink:title=" ">
<path fill="none" stroke="#63b8ff" d="M691.74,-323.48C600.79,-327.36 455.6,-343.2 345.5,-400.95 319.26,-414.71 294.78,-438.19 278.34,-456.16"/>
<polygon fill="#63b8ff" stroke="#63b8ff" points="275.98,-453.54 271.95,-463.34 281.21,-458.2 275.98,-453.54"/>
</a>
</g>
</g>
<!-- Node24&#45;&gt;Node2 -->
<g id="edge41_Node000024_Node000002" class="edge">
<title>Node24&#45;&gt;Node2</title>
<g id="a_edge41_Node000024_Node000002"><a xlink:title=" ">
<path fill="none" stroke="#63b8ff" d="M683.65,-278.72C590.1,-277.21 446.44,-287.94 345.5,-355.95 309,-380.54 282.87,-425.71 268.98,-454.49"/>
<polygon fill="#63b8ff" stroke="#63b8ff" points="265.94,-452.73 264.9,-463.27 272.29,-455.68 265.94,-452.73"/>
</a>
</g>
</g>
<!-- Node25&#45;&gt;Node2 -->
<g id="edge43_Node000025_Node000002" class="edge">
<title>Node25&#45;&gt;Node2</title>
<g id="a_edge43_Node000025_Node000002"><a xlink:title=" ">
<path fill="none" stroke="#63b8ff" d="M708.1,-236.49C615.33,-226.6 450.84,-223.58 345.5,-304.95 296.86,-342.51 273.13,-414.19 263.31,-453.49"/>
<polygon fill="#63b8ff" stroke="#63b8ff" points="259.94,-452.56 261.05,-463.1 266.75,-454.17 259.94,-452.56"/>
</a>
</g>
</g>
<!-- Node26&#45;&gt;Node2 -->
<g id="edge45_Node000026_Node000002" class="edge">
<title>Node26&#45;&gt;Node2</title>
<g id="a_edge45_Node000026_Node000002"><a xlink:title=" ">
<path fill="none" stroke="#63b8ff" d="M681.67,-205.86C570.22,-204.31 395.5,-208.72 345.5,-248.95 281.61,-300.36 264.08,-403.6 259.29,-453.16"/>
<polygon fill="#63b8ff" stroke="#63b8ff" points="255.81,-452.77 258.45,-463.03 262.78,-453.36 255.81,-452.77"/>
</a>
</g>
</g>
<!-- Node27&#45;&gt;Node2 -->
<g id="edge47_Node000027_Node000002" class="edge">
<title>Node27&#45;&gt;Node2</title>
<g id="a_edge47_Node000027_Node000002"><a xlink:title=" ">
<path fill="none" stroke="#63b8ff" d="M731.17,-160.48C644.74,-144.01 458.39,-122.56 345.5,-212.95 270.69,-272.85 258.83,-397.78 257.4,-453.31"/>
<polygon fill="#63b8ff" stroke="#63b8ff" points="253.9,-453.1 257.25,-463.15 260.9,-453.21 253.9,-453.1"/>
</a>
</g>
</g>
<!-- Node28&#45;&gt;Node2 -->
<g id="edge49_Node000028_Node000002" class="edge">
<title>Node28&#45;&gt;Node2</title>
<g id="a_edge49_Node000028_Node000002"><a xlink:title=" ">
<path fill="none" stroke="#63b8ff" d="M690.99,-121.55C579.9,-116.57 395.87,-115.39 345.5,-157.95 299.65,-196.69 270.5,-383.18 260.95,-453.79"/>
<polygon fill="#63b8ff" stroke="#63b8ff" points="257.53,-452.95 259.69,-463.32 264.47,-453.87 257.53,-452.95"/>
</a>
</g>
</g>
<!-- Node30&#45;&gt;Node31 -->
<g id="edge52_Node000030_Node000031" class="edge">
<title>Node30&#45;&gt;Node31</title>
<g id="a_edge52_Node000030_Node000031"><a xlink:title=" ">
<path fill="none" stroke="#63b8ff" d="M620.23,-1092.44C638.39,-1094.34 659.36,-1096.54 679.97,-1098.7"/>
<polygon fill="#63b8ff" stroke="#63b8ff" points="679.54,-1102.17 689.85,-1099.73 680.27,-1095.21 679.54,-1102.17"/>
</a>
</g>
</g>
<!-- Node32 -->
<g id="Node000032" class="node">
<title>Node32</title>
<g id="a_Node000032"><a xlink:href="../../d6/d3c/classLSM1x0A__AtParser.html#a0ba6f927c54fceece22c17773d3f2600" target="_top" xlink:title="Sends a command and extracts a value from the response.">
<polygon fill="white" stroke="#666666" points="1093.88,-1124.95 919.62,-1124.95 919.62,-1092.95 1093.88,-1092.95 1093.88,-1124.95"/>
<text text-anchor="start" x="927.62" y="-1111.45" font-family="Helvetica,sans-Serif" font-size="10.00">LSM1x0A_AtParser::sendCommand</text>
<text text-anchor="middle" x="1006.75" y="-1099.45" font-family="Helvetica,sans-Serif" font-size="10.00">WithResponse</text>
</a>
</g>
</g>
<!-- Node31&#45;&gt;Node32 -->
<g id="edge53_Node000031_Node000032" class="edge">
<title>Node31&#45;&gt;Node32</title>
<g id="a_edge53_Node000031_Node000032"><a xlink:title=" ">
<path fill="none" stroke="#63b8ff" d="M866.24,-1108.95C879.99,-1108.95 894.31,-1108.95 908.3,-1108.95"/>
<polygon fill="#63b8ff" stroke="#63b8ff" points="907.92,-1112.45 917.92,-1108.95 907.92,-1105.45 907.92,-1112.45"/>
</a>
</g>
</g>
<!-- Node33 -->
<g id="Node000033" class="node">
<title>Node33</title>
<g id="a_Node000033"><a xlink:href="../../d5/d8b/classUartDriver.html#a5d0f22e8867eebe99273078bb19bd23d" target="_top" xlink:title="Sends data through UART.">
<polygon fill="white" stroke="#666666" points="1268.5,-1118.95 1159.5,-1118.95 1159.5,-1098.95 1268.5,-1098.95 1268.5,-1118.95"/>
<text text-anchor="middle" x="1214" y="-1105.45" font-family="Helvetica,sans-Serif" font-size="10.00">UartDriver::sendData</text>
</a>
</g>
</g>
<!-- Node32&#45;&gt;Node33 -->
<g id="edge54_Node000032_Node000033" class="edge">
<title>Node32&#45;&gt;Node33</title>
<g id="a_edge54_Node000032_Node000033"><a xlink:title=" ">
<path fill="none" stroke="#63b8ff" d="M1094.2,-1108.95C1112.09,-1108.95 1130.66,-1108.95 1147.64,-1108.95"/>
<polygon fill="#63b8ff" stroke="#63b8ff" points="1147.61,-1112.45 1157.61,-1108.95 1147.61,-1105.45 1147.61,-1112.45"/>
</a>
</g>
</g>
</g>
</svg>
