<?xml version="1.0" encoding="UTF-8" standalone="no"?>
<!DOCTYPE svg PUBLIC "-//W3C//DTD SVG 1.1//EN"
 "http://www.w3.org/Graphics/SVG/1.1/DTD/svg11.dtd">
<!-- Generated by graphviz version 12.2.1 (20241206.2353)
 -->
<!-- Title: LSM1x0A_LoRaWAN::getNwkKey Pages: 1 -->
<!--zoomable 1018 -->

<svg id="main" version="1.1" xmlns="http://www.w3.org/2000/svg" xmlns:xlink="http://www.w3.org/1999/xlink" xml:space="preserve" onload="init(evt)">
<style type="text/css"><![CDATA[
.node, .edge {opacity: 0.7;}
.node.selected, .edge.selected {opacity: 1;}
.edge:hover path { stroke: red; }
.edge:hover polygon { stroke: red; fill: red; }
]]></style>

<defs>
  <circle id="rim" cx="0" cy="0" r="7"/>
  <circle id="rim2" cx="0" cy="0" r="3.5"/>
  <g id="zoomPlus">
    <use xlink:href="#rim" fill="#404040"><set attributeName="fill" to="#808080" begin="zoomplus.mouseover" end="zoomplus.mouseout"/></use>
    <path d="M-4,0h8M0,-4v8" fill="none" stroke="white" stroke-width="1.5" pointer-events="none"/>
  </g>
  <g id="zoomMin">
    <use xlink:href="#rim" fill="#404040"><set attributeName="fill" to="#808080" begin="zoomminus.mouseover" end="zoomminus.mouseout"/></use>
    <path d="M-4,0h8" fill="none" stroke="white" stroke-width="1.5" pointer-events="none"/>
  </g>
  <g id="arrowUp" transform="translate(30 24)">
    <use xlink:href="#rim"/>
    <path pointer-events="none" fill="none" stroke="white" stroke-width="1.5" d="M0,-3.0v7 M-2.5,-0.5L0,-3.0L2.5,-0.5"/>
  </g>
  <g id="arrowRight" transform="rotate(90) translate(36 -43)">
    <use xlink:href="#rim"/>
    <path pointer-events="none" fill="none" stroke="white" stroke-width="1.5" d="M0,-3.0v7 M-2.5,-0.5L0,-3.0L2.5,-0.5"/>
  </g>
  <g id="arrowDown" transform="rotate(180) translate(-30 -48)">
    <use xlink:href="#rim"/>
    <path pointer-events="none" fill="none" stroke="white" stroke-width="1.5" d="M0,-3.0v7 M-2.5,-0.5L0,-3.0L2.5,-0.5"/>
  </g>
  <g id="arrowLeft" transform="rotate(270) translate(-36 17)">
    <use xlink:href="#rim"/>
    <path pointer-events="none" fill="none" stroke="white" stroke-width="1.5" d="M0,-3.0v7 M-2.5,-0.5L0,-3.0L2.5,-0.5"/>
  </g>
  <g id="resetDef">
    <use xlink:href="#rim2" fill="#404040"><set attributeName="fill" to="#808080" begin="reset.mouseover" end="reset.mouseout"/></use>
  </g>
</defs>
<script type="application/ecmascript">
var viewWidth = 1867;
var viewHeight = 1018;
var sectionId = 'dynsection-31';
</script>
<script type="application/ecmascript" xlink:href="../../svg.min.js"/>
<svg id="graph" class="graph">
<g id="viewport">
<title>LSM1x0A_LoRaWAN::getNwkKey</title>
<!-- Node1 -->
<g id="Node000001" class="node">
<title>Node1</title>
<g id="a_Node000001"><a xlink:title="Retrieves the Network Key.">
<polygon fill="#999999" stroke="#666666" points="167.5,-98 0,-98 0,-78 167.5,-78 167.5,-98"/>
<text text-anchor="middle" x="83.75" y="-84.5" font-family="Helvetica,sans-Serif" font-size="10.00">LSM1x0A_LoRaWAN::getNwkKey</text>
</a>
</g>
</g>
<!-- Node2 -->
<g id="Node000002" class="node">
<title>Node2</title>
<g id="a_Node000002"><a xlink:href="../../d8/d92/classLSM1x0A__Controller.html#ab00328d1be83aa51bce8c2a4f907c5f4" target="_top" xlink:title="Sends an AT command and captures its response in a text block. Ideal for getters (e....">
<polygon fill="white" stroke="#666666" points="356,-104 203.5,-104 203.5,-72 356,-72 356,-104"/>
<text text-anchor="start" x="211.5" y="-90.5" font-family="Helvetica,sans-Serif" font-size="10.00">LSM1x0A_Controller</text>
<text text-anchor="middle" x="279.75" y="-78.5" font-family="Helvetica,sans-Serif" font-size="10.00">::sendCommandWithResponse</text>
</a>
</g>
</g>
<!-- Node1&#45;&gt;Node2 -->
<g id="edge1_Node000001_Node000002" class="edge">
<title>Node1&#45;&gt;Node2</title>
<g id="a_edge1_Node000001_Node000002"><a xlink:title=" ">
<path fill="none" stroke="#63b8ff" d="M167.87,-88C175.74,-88 183.75,-88 191.66,-88"/>
<polygon fill="#63b8ff" stroke="#63b8ff" points="191.65,-91.5 201.65,-88 191.65,-84.5 191.65,-91.5"/>
</a>
</g>
</g>
<!-- Node3 -->
<g id="Node000003" class="node">
<title>Node3</title>
<g id="a_Node000003"><a xlink:href="../../d8/d92/classLSM1x0A__Controller.html#abb0eb380daa3dfb7acffb483c5db8e2b" target="_top" xlink:title="Executes the recovery protocol. First Soft&#45;Reset (ATZ), then Hard&#45;Reset if there is a pin.">
<polygon fill="white" stroke="#666666" points="498,-214 392,-214 392,-182 498,-182 498,-214"/>
<text text-anchor="start" x="400" y="-200.5" font-family="Helvetica,sans-Serif" font-size="10.00">LSM1x0A_Controller</text>
<text text-anchor="middle" x="445" y="-188.5" font-family="Helvetica,sans-Serif" font-size="10.00">::recoverModule</text>
</a>
</g>
</g>
<!-- Node2&#45;&gt;Node3 -->
<g id="edge2_Node000002_Node000003" class="edge">
<title>Node2&#45;&gt;Node3</title>
<g id="a_edge2_Node000002_Node000003"><a xlink:title=" ">
<path fill="none" stroke="#63b8ff" d="M305.19,-104.47C333.16,-123.32 379.14,-154.29 410.45,-175.39"/>
<polygon fill="#63b8ff" stroke="#63b8ff" points="408.16,-178.07 418.4,-180.75 412.07,-172.26 408.16,-178.07"/>
</a>
</g>
</g>
<!-- Node12 -->
<g id="Node000012" class="node">
<title>Node12</title>
<g id="a_Node000012"><a xlink:href="../../d6/d3c/classLSM1x0A__AtParser.html#a0ba6f927c54fceece22c17773d3f2600" target="_top" xlink:title="Sends a command and extracts a value from the response.">
<polygon fill="white" stroke="#666666" points="1713.75,-287 1539.5,-287 1539.5,-255 1713.75,-255 1713.75,-287"/>
<text text-anchor="start" x="1547.5" y="-273.5" font-family="Helvetica,sans-Serif" font-size="10.00">LSM1x0A_AtParser::sendCommand</text>
<text text-anchor="middle" x="1626.62" y="-261.5" font-family="Helvetica,sans-Serif" font-size="10.00">WithResponse</text>
</a>
</g>
</g>
<!-- Node2&#45;&gt;Node12 -->
<g id="edge57_Node000002_Node000012" class="edge">
<title>Node2&#45;&gt;Node12</title>
<g id="a_edge57_Node000002_Node000012"><a xlink:title=" ">
<path fill="none" stroke="#63b8ff" d="M317.19,-71.65C377.36,-46.21 501.79,0 612.25,0 612.25,0 612.25,0 1218,0 1394.94,0 1553.7,-179.26 1606.81,-246.19"/>
<polygon fill="#63b8ff" stroke="#63b8ff" points="1603.74,-247.95 1612.66,-253.67 1609.25,-243.64 1603.74,-247.95"/>
</a>
</g>
</g>
<!-- Node4 -->
<g id="Node000004" class="node">
<title>Node4</title>
<g id="a_Node000004"><a xlink:href="../../d8/d92/classLSM1x0A__Controller.html#a3f6f25b843fe4fb7042c544deae2ab16" target="_top" xlink:title="Manually clears bits from the internal EventGroup.">
<polygon fill="white" stroke="#666666" points="1060.88,-98 954.88,-98 954.88,-66 1060.88,-66 1060.88,-98"/>
<text text-anchor="start" x="962.88" y="-84.5" font-family="Helvetica,sans-Serif" font-size="10.00">LSM1x0A_Controller</text>
<text text-anchor="middle" x="1007.88" y="-72.5" font-family="Helvetica,sans-Serif" font-size="10.00">::clearEvents</text>
</a>
</g>
</g>
<!-- Node3&#45;&gt;Node4 -->
<g id="edge3_Node000003_Node000004" class="edge">
<title>Node3&#45;&gt;Node4</title>
<g id="a_edge3_Node000003_Node000004"><a xlink:title=" ">
<path fill="none" stroke="#63b8ff" d="M470.68,-181.53C487.73,-171 511.34,-158.03 534,-151 679.65,-105.82 724.73,-138.94 875,-113 897.5,-109.12 921.9,-103.72 943.52,-98.52"/>
<polygon fill="#63b8ff" stroke="#63b8ff" points="944.2,-101.96 953.08,-96.18 942.53,-95.16 944.2,-101.96"/>
</a>
</g>
</g>
<!-- Node5 -->
<g id="Node000005" class="node">
<title>Node5</title>
<g id="a_Node000005"><a xlink:href="../../d8/d92/classLSM1x0A__Controller.html#a345d4bd79fa16b18dc33a4ca788fe5f7" target="_top" xlink:title="Performs a hardware reset using the reset pin.">
<polygon fill="white" stroke="#666666" points="666.25,-104 560.25,-104 560.25,-72 666.25,-72 666.25,-104"/>
<text text-anchor="start" x="568.25" y="-90.5" font-family="Helvetica,sans-Serif" font-size="10.00">LSM1x0A_Controller</text>
<text text-anchor="middle" x="613.25" y="-78.5" font-family="Helvetica,sans-Serif" font-size="10.00">::hardwareReset</text>
</a>
</g>
</g>
<!-- Node3&#45;&gt;Node5 -->
<g id="edge4_Node000003_Node000005" class="edge">
<title>Node3&#45;&gt;Node5</title>
<g id="a_edge4_Node000003_Node000005"><a xlink:title=" ">
<path fill="none" stroke="#63b8ff" d="M460.46,-181.63C476.82,-163.93 504.99,-135.86 534,-118 539.27,-114.76 544.94,-111.77 550.74,-109.03"/>
<polygon fill="#63b8ff" stroke="#63b8ff" points="552.14,-112.24 559.88,-104.99 549.31,-105.83 552.14,-112.24"/>
</a>
</g>
</g>
<!-- Node7 -->
<g id="Node000007" class="node">
<title>Node7</title>
<g id="a_Node000007"><a xlink:href="../../d5/d72/classLSM1x0A__LoRaWAN.html#a1892801e37c8cd67d37c76108d6f7d49" target="_top" xlink:title="Validates if the device is currently Joined to the network. (Either confirmed by OTAA or statically a...">
<polygon fill="white" stroke="#666666" points="1293.25,-136 1140.75,-136 1140.75,-116 1293.25,-116 1293.25,-136"/>
<text text-anchor="middle" x="1217" y="-122.5" font-family="Helvetica,sans-Serif" font-size="10.00">LSM1x0A_LoRaWAN::isJoined</text>
</a>
</g>
</g>
<!-- Node3&#45;&gt;Node7 -->
<g id="edge6_Node000003_Node000007" class="edge">
<title>Node3&#45;&gt;Node7</title>
<g id="a_edge6_Node000003_Node000007"><a xlink:title=" ">
<path fill="none" stroke="#63b8ff" d="M450.93,-181.77C460.99,-151.92 486.98,-88.97 534,-63 645.04,-1.69 982.76,-22.24 1104.75,-57 1139.82,-66.99 1174.62,-91.56 1195.72,-108.51"/>
<polygon fill="#63b8ff" stroke="#63b8ff" points="1193.3,-111.05 1203.24,-114.72 1197.76,-105.65 1193.3,-111.05"/>
</a>
</g>
</g>
<!-- Node8 -->
<g id="Node000008" class="node">
<title>Node8</title>
<g id="a_Node000008"><a xlink:href="../../d5/d72/classLSM1x0A__LoRaWAN.html#a83e11c0e74ff9e0757db616ab1163424" target="_top" xlink:title="Attempts to recover a lost connection (re&#45;executes OTAA Join if dropped).">
<polygon fill="white" stroke="#666666" points="687.62,-192 538.88,-192 538.88,-160 687.62,-160 687.62,-192"/>
<text text-anchor="start" x="546.88" y="-178.5" font-family="Helvetica,sans-Serif" font-size="10.00">LSM1x0A_LoRaWAN::recover</text>
<text text-anchor="middle" x="613.25" y="-166.5" font-family="Helvetica,sans-Serif" font-size="10.00">Connection</text>
</a>
</g>
</g>
<!-- Node3&#45;&gt;Node8 -->
<g id="edge7_Node000003_Node000008" class="edge">
<title>Node3&#45;&gt;Node8</title>
<g id="a_edge7_Node000003_Node000008"><a xlink:title=" ">
<path fill="none" stroke="#63b8ff" d="M498.15,-191.1C507.49,-189.86 517.44,-188.55 527.42,-187.23"/>
<polygon fill="#63b8ff" stroke="#63b8ff" points="527.72,-190.72 537.17,-185.94 526.8,-183.78 527.72,-190.72"/>
</a>
</g>
</g>
<!-- Node16 -->
<g id="Node000016" class="node">
<title>Node16</title>
<g id="a_Node000016"><a xlink:href="../../d5/d72/classLSM1x0A__LoRaWAN.html#ae3be4ce59dfa200369733317df356e97" target="_top" xlink:title="Pushes the RAM&#45;cached variables back down into the hardware module. Restores the operational state af...">
<polygon fill="white" stroke="#666666" points="875,-539 728.5,-539 728.5,-507 875,-507 875,-539"/>
<text text-anchor="start" x="736.5" y="-525.5" font-family="Helvetica,sans-Serif" font-size="10.00">LSM1x0A_LoRaWAN::restore</text>
<text text-anchor="middle" x="801.75" y="-513.5" font-family="Helvetica,sans-Serif" font-size="10.00">Config</text>
</a>
</g>
</g>
<!-- Node3&#45;&gt;Node16 -->
<g id="edge20_Node000003_Node000016" class="edge">
<title>Node3&#45;&gt;Node16</title>
<g id="a_edge20_Node000003_Node000016"><a xlink:title=" ">
<path fill="none" stroke="#63b8ff" d="M463.59,-214.12C521.51,-267.18 706.44,-436.6 774.92,-499.34"/>
<polygon fill="#63b8ff" stroke="#63b8ff" points="772.2,-501.59 781.94,-505.76 776.93,-496.43 772.2,-501.59"/>
</a>
</g>
</g>
<!-- Node33 -->
<g id="Node000033" class="node">
<title>Node33</title>
<g id="a_Node000033"><a xlink:href="../../d5/d72/classLSM1x0A__LoRaWAN.html#ace4b04396f1de1f4a54f513f5f378db7" target="_top" xlink:title="Manually overrides the internal joined state tracker.">
<polygon fill="white" stroke="#666666" points="692.5,-939 534,-939 534,-919 692.5,-919 692.5,-939"/>
<text text-anchor="middle" x="613.25" y="-925.5" font-family="Helvetica,sans-Serif" font-size="10.00">LSM1x0A_LoRaWAN::setJoined</text>
</a>
</g>
</g>
<!-- Node3&#45;&gt;Node33 -->
<g id="edge54_Node000003_Node000033" class="edge">
<title>Node3&#45;&gt;Node33</title>
<g id="a_edge54_Node000003_Node000033"><a xlink:title=" ">
<path fill="none" stroke="#63b8ff" d="M445.72,-214.4C444.4,-310.08 442.33,-795.83 534,-905 536.42,-907.88 539.18,-910.43 542.18,-912.67"/>
<polygon fill="#63b8ff" stroke="#63b8ff" points="540.16,-915.54 550.52,-917.75 543.8,-909.56 540.16,-915.54"/>
</a>
</g>
</g>
<!-- Node34 -->
<g id="Node000034" class="node">
<title>Node34</title>
<g id="a_Node000034"><a xlink:href="../../d8/d92/classLSM1x0A__Controller.html#a11ad21cb5ca33ec51346764a23bd485e" target="_top" xlink:title="Performs a software reset (ATZ Command).">
<polygon fill="white" stroke="#666666" points="1270,-795 1164,-795 1164,-763 1270,-763 1270,-795"/>
<text text-anchor="start" x="1172" y="-781.5" font-family="Helvetica,sans-Serif" font-size="10.00">LSM1x0A_Controller</text>
<text text-anchor="middle" x="1217" y="-769.5" font-family="Helvetica,sans-Serif" font-size="10.00">::softwareReset</text>
</a>
</g>
</g>
<!-- Node3&#45;&gt;Node34 -->
<g id="edge55_Node000003_Node000034" class="edge">
<title>Node3&#45;&gt;Node34</title>
<g id="a_edge55_Node000003_Node000034"><a xlink:title=" ">
<path fill="none" stroke="#63b8ff" d="M446.64,-214.18C450.91,-318.83 477,-897.3 534,-948 599.19,-1005.99 867.14,-1058.87 1104.75,-932 1156.21,-904.52 1189.82,-841.52 1205.57,-805.51"/>
<polygon fill="#63b8ff" stroke="#63b8ff" points="1208.64,-807.25 1209.3,-796.67 1202.19,-804.53 1208.64,-807.25"/>
</a>
</g>
</g>
<!-- Node6 -->
<g id="Node000006" class="node">
<title>Node6</title>
<g id="a_Node000006"><a xlink:href="../../d6/d3c/classLSM1x0A__AtParser.html#ad2839120da13e56132b95019419be1e5" target="_top" xlink:title="Waits for an event (like BOOTALERT) without sending any command. Useful for hardware reset where the ...">
<polygon fill="white" stroke="#666666" points="872,-104 731.5,-104 731.5,-72 872,-72 872,-104"/>
<text text-anchor="start" x="739.5" y="-90.5" font-family="Helvetica,sans-Serif" font-size="10.00">LSM1x0A_AtParser::waitFor</text>
<text text-anchor="middle" x="801.75" y="-78.5" font-family="Helvetica,sans-Serif" font-size="10.00">Event</text>
</a>
</g>
</g>
<!-- Node5&#45;&gt;Node6 -->
<g id="edge5_Node000005_Node000006" class="edge">
<title>Node5&#45;&gt;Node6</title>
<g id="a_edge5_Node000005_Node000006"><a xlink:title=" ">
<path fill="none" stroke="#63b8ff" d="M666.7,-88C683.21,-88 701.86,-88 719.87,-88"/>
<polygon fill="#63b8ff" stroke="#63b8ff" points="719.78,-91.5 729.78,-88 719.78,-84.5 719.78,-91.5"/>
</a>
</g>
</g>
<!-- Node9 -->
<g id="Node000009" class="node">
<title>Node9</title>
<g id="a_Node000009"><a xlink:href="../../d5/d72/classLSM1x0A__LoRaWAN.html#a59f781f3cfd30c11cd3973bcb10a7baa" target="_top" xlink:title="Initiates a LoRaWAN Network Join procedure. This is a blocking function until the module fires an eve...">
<polygon fill="white" stroke="#666666" points="867.5,-186 736,-186 736,-166 867.5,-166 867.5,-186"/>
<text text-anchor="middle" x="801.75" y="-172.5" font-family="Helvetica,sans-Serif" font-size="10.00">LSM1x0A_LoRaWAN::join</text>
</a>
</g>
</g>
<!-- Node8&#45;&gt;Node9 -->
<g id="edge8_Node000008_Node000009" class="edge">
<title>Node8&#45;&gt;Node9</title>
<g id="a_edge8_Node000008_Node000009"><a xlink:title=" ">
<path fill="none" stroke="#63b8ff" d="M687.96,-176C699.92,-176 712.33,-176 724.35,-176"/>
<polygon fill="#63b8ff" stroke="#63b8ff" points="724.22,-179.5 734.22,-176 724.22,-172.5 724.22,-179.5"/>
</a>
</g>
</g>
<!-- Node9&#45;&gt;Node3 -->
<g id="edge10_Node000009_Node000003" class="edge">
<title>Node9&#45;&gt;Node3</title>
<g id="a_edge10_Node000009_Node000003"><a xlink:title=" ">
<path fill="none" stroke="#63b8ff" d="M765.02,-186.4C744.09,-191.95 717.03,-198.2 692.5,-201 622.51,-208.98 604.43,-202.2 534,-201 526.1,-200.87 517.81,-200.66 509.61,-200.43"/>
<polygon fill="#63b8ff" stroke="#63b8ff" points="509.73,-196.93 499.62,-200.12 509.51,-203.92 509.73,-196.93"/>
</a>
</g>
</g>
<!-- Node9&#45;&gt;Node4 -->
<g id="edge9_Node000009_Node000004" class="edge">
<title>Node9&#45;&gt;Node4</title>
<g id="a_edge9_Node000009_Node000004"><a xlink:title=" ">
<path fill="none" stroke="#63b8ff" d="M836.3,-165.52C849.05,-160.68 863.31,-154.16 875,-146 894.34,-132.5 890.77,-119.13 911,-107 920.95,-101.03 932.31,-96.47 943.65,-93"/>
<polygon fill="#63b8ff" stroke="#63b8ff" points="944.32,-96.45 953.01,-90.39 942.44,-89.7 944.32,-96.45"/>
</a>
</g>
</g>
<!-- Node10 -->
<g id="Node000010" class="node">
<title>Node10</title>
<g id="a_Node000010"><a xlink:href="../../d8/d92/classLSM1x0A__Controller.html#afd7d92e60ed6fdae696a955cdbe0ed8c" target="_top" xlink:title="Sends any AT command to the module, returning error if it fails. Internally uses the LsmAtParser logi...">
<polygon fill="white" stroke="#666666" points="1270,-558 1164,-558 1164,-526 1270,-526 1270,-558"/>
<text text-anchor="start" x="1172" y="-544.5" font-family="Helvetica,sans-Serif" font-size="10.00">LSM1x0A_Controller</text>
<text text-anchor="middle" x="1217" y="-532.5" font-family="Helvetica,sans-Serif" font-size="10.00">::sendCommand</text>
</a>
</g>
</g>
<!-- Node9&#45;&gt;Node10 -->
<g id="edge11_Node000009_Node000010" class="edge">
<title>Node9&#45;&gt;Node10</title>
<g id="a_edge11_Node000009_Node000010"><a xlink:title=" ">
<path fill="none" stroke="#63b8ff" d="M867.78,-171.81C945.39,-168.2 1069.16,-167.28 1104.75,-195 1206.48,-274.23 1216.74,-447.25 1216.7,-514.5"/>
<polygon fill="#63b8ff" stroke="#63b8ff" points="1213.2,-514.23 1216.6,-524.26 1220.2,-514.3 1213.2,-514.23"/>
</a>
</g>
</g>
<!-- Node14 -->
<g id="Node000014" class="node">
<title>Node14</title>
<g id="a_Node000014"><a xlink:href="../../d5/d72/classLSM1x0A__LoRaWAN.html#a3fdd1ac318a5ad2559323e5d57e36a5e" target="_top" xlink:title="Enables or disables specific sub&#45;bands for regions supporting Channel Masks (e.g.,...">
<polygon fill="white" stroke="#666666" points="1102.88,-224 912.88,-224 912.88,-204 1102.88,-204 1102.88,-224"/>
<text text-anchor="middle" x="1007.88" y="-210.5" font-family="Helvetica,sans-Serif" font-size="10.00">LSM1x0A_LoRaWAN::setChannelMask</text>
</a>
</g>
</g>
<!-- Node9&#45;&gt;Node14 -->
<g id="edge16_Node000009_Node000014" class="edge">
<title>Node9&#45;&gt;Node14</title>
<g id="a_edge16_Node000009_Node000014"><a xlink:title=" ">
<path fill="none" stroke="#63b8ff" d="M859.07,-186.48C883.94,-191.12 913.39,-196.6 939.43,-201.44"/>
<polygon fill="#63b8ff" stroke="#63b8ff" points="938.78,-204.88 949.25,-203.27 940.06,-198 938.78,-204.88"/>
</a>
</g>
</g>
<!-- Node15 -->
<g id="Node000015" class="node">
<title>Node15</title>
<g id="a_Node000015"><a xlink:href="../../d8/d92/classLSM1x0A__Controller.html#a62476e30e50c7fe120aeb8df4b828675" target="_top" xlink:title="Synchronously/blockingly waits for an asynchronous event to occur. Useful for wrapping commands like ...">
<polygon fill="white" stroke="#666666" points="1060.88,-148 954.88,-148 954.88,-116 1060.88,-116 1060.88,-148"/>
<text text-anchor="start" x="962.88" y="-134.5" font-family="Helvetica,sans-Serif" font-size="10.00">LSM1x0A_Controller</text>
<text text-anchor="middle" x="1007.88" y="-122.5" font-family="Helvetica,sans-Serif" font-size="10.00">::waitForEvent</text>
</a>
</g>
</g>
<!-- Node9&#45;&gt;Node15 -->
<g id="edge19_Node000009_Node000015" class="edge">
<title>Node9&#45;&gt;Node15</title>
<g id="a_edge19_Node000009_Node000015"><a xlink:title=" ">
<path fill="none" stroke="#63b8ff" d="M851.38,-165.52C878.99,-159.57 913.86,-152.05 943.57,-145.65"/>
<polygon fill="#63b8ff" stroke="#63b8ff" points="944.17,-149.1 953.2,-143.57 942.69,-142.25 944.17,-149.1"/>
</a>
</g>
</g>
<!-- Node10&#45;&gt;Node3 -->
<g id="edge12_Node000010_Node000003" class="edge">
<title>Node10&#45;&gt;Node3</title>
<g id="a_edge12_Node000010_Node000003"><a xlink:title=" ">
<path fill="none" stroke="#63b8ff" d="M1209.57,-558.31C1195.81,-593.61 1162.91,-679.91 1140.75,-754 1121.48,-818.44 1157.67,-859.48 1104.75,-901 1037,-954.16 987.44,-940.65 911,-901 623.68,-751.97 485.72,-335.66 453.52,-225.19"/>
<polygon fill="#63b8ff" stroke="#63b8ff" points="456.95,-224.47 450.83,-215.82 450.22,-226.4 456.95,-224.47"/>
</a>
</g>
</g>
<!-- Node11 -->
<g id="Node000011" class="node">
<title>Node11</title>
<g id="a_Node000011"><a xlink:href="../../d6/d3c/classLSM1x0A__AtParser.html#a29b53c521974387ba6c03afadfaffa4a" target="_top" xlink:title="Sends a simple command and waits for OK/ERROR. Example: sendCommand(&quot;AT+JOIN&quot;);.">
<polygon fill="white" stroke="#666666" points="1503.5,-552 1329.25,-552 1329.25,-532 1503.5,-532 1503.5,-552"/>
<text text-anchor="middle" x="1416.38" y="-538.5" font-family="Helvetica,sans-Serif" font-size="10.00">LSM1x0A_AtParser::sendCommand</text>
</a>
</g>
</g>
<!-- Node10&#45;&gt;Node11 -->
<g id="edge13_Node000010_Node000011" class="edge">
<title>Node10&#45;&gt;Node11</title>
<g id="a_edge13_Node000010_Node000011"><a xlink:title=" ">
<path fill="none" stroke="#63b8ff" d="M1270.37,-542C1284.94,-542 1301.25,-542 1317.53,-542"/>
<polygon fill="#63b8ff" stroke="#63b8ff" points="1317.26,-545.5 1327.26,-542 1317.26,-538.5 1317.26,-545.5"/>
</a>
</g>
</g>
<!-- Node11&#45;&gt;Node12 -->
<g id="edge14_Node000011_Node000012" class="edge">
<title>Node11&#45;&gt;Node12</title>
<g id="a_edge14_Node000011_Node000012"><a xlink:title=" ">
<path fill="none" stroke="#63b8ff" d="M1425.28,-531.71C1455.19,-492.78 1561.93,-353.88 1606.19,-296.3"/>
<polygon fill="#63b8ff" stroke="#63b8ff" points="1608.73,-298.73 1612.05,-288.67 1603.18,-294.46 1608.73,-298.73"/>
</a>
</g>
</g>
<!-- Node13 -->
<g id="Node000013" class="node">
<title>Node13</title>
<g id="a_Node000013"><a xlink:href="../../d5/d8b/classUartDriver.html#a5d0f22e8867eebe99273078bb19bd23d" target="_top" xlink:title="Sends data through UART.">
<polygon fill="white" stroke="#666666" points="1858.75,-281 1749.75,-281 1749.75,-261 1858.75,-261 1858.75,-281"/>
<text text-anchor="middle" x="1804.25" y="-267.5" font-family="Helvetica,sans-Serif" font-size="10.00">UartDriver::sendData</text>
</a>
</g>
</g>
<!-- Node12&#45;&gt;Node13 -->
<g id="edge15_Node000012_Node000013" class="edge">
<title>Node12&#45;&gt;Node13</title>
<g id="a_edge15_Node000012_Node000013"><a xlink:title=" ">
<path fill="none" stroke="#63b8ff" d="M1714.15,-271C1722.3,-271 1730.45,-271 1738.35,-271"/>
<polygon fill="#63b8ff" stroke="#63b8ff" points="1738.18,-274.5 1748.18,-271 1738.18,-267.5 1738.18,-274.5"/>
</a>
</g>
</g>
<!-- Node14&#45;&gt;Node7 -->
<g id="edge17_Node000014_Node000007" class="edge">
<title>Node14&#45;&gt;Node7</title>
<g id="a_edge17_Node000014_Node000007"><a xlink:title=" ">
<path fill="none" stroke="#63b8ff" d="M1033.45,-203.56C1070.04,-188.01 1139.03,-158.7 1180.92,-140.9"/>
<polygon fill="#63b8ff" stroke="#63b8ff" points="1182.23,-144.15 1190.07,-137.02 1179.49,-137.71 1182.23,-144.15"/>
</a>
</g>
</g>
<!-- Node14&#45;&gt;Node10 -->
<g id="edge18_Node000014_Node000010" class="edge">
<title>Node14&#45;&gt;Node10</title>
<g id="a_edge18_Node000014_Node000010"><a xlink:title=" ">
<path fill="none" stroke="#63b8ff" d="M1091.63,-224.28C1096.33,-226.69 1100.76,-229.57 1104.75,-233 1191.08,-307.27 1210.42,-453.75 1214.75,-514.55"/>
<polygon fill="#63b8ff" stroke="#63b8ff" points="1211.25,-514.57 1215.36,-524.33 1218.23,-514.13 1211.25,-514.57"/>
</a>
</g>
</g>
<!-- Node16&#45;&gt;Node14 -->
<g id="edge25_Node000016_Node000014" class="edge">
<title>Node16&#45;&gt;Node14</title>
<g id="a_edge25_Node000016_Node000014"><a xlink:title=" ">
<path fill="none" stroke="#63b8ff" d="M803.55,-506.78C806.93,-457.25 824.2,-306.79 911,-233 912.13,-232.04 913.29,-231.13 914.48,-230.25"/>
<polygon fill="#63b8ff" stroke="#63b8ff" points="916.17,-233.33 922.87,-225.12 912.52,-227.35 916.17,-233.33"/>
</a>
</g>
</g>
<!-- Node17 -->
<g id="Node000017" class="node">
<title>Node17</title>
<g id="a_Node000017"><a xlink:href="../../d5/d72/classLSM1x0A__LoRaWAN.html#af0baa3db4c7fab580d6b19a9e92472f6" target="_top" xlink:title="Enables or disables Adaptive Data Rate (ADR).">
<polygon fill="white" stroke="#666666" points="1083.75,-350 932,-350 932,-330 1083.75,-330 1083.75,-350"/>
<text text-anchor="middle" x="1007.88" y="-336.5" font-family="Helvetica,sans-Serif" font-size="10.00">LSM1x0A_LoRaWAN::setADR</text>
</a>
</g>
</g>
<!-- Node16&#45;&gt;Node17 -->
<g id="edge21_Node000016_Node000017" class="edge">
<title>Node16&#45;&gt;Node17</title>
<g id="a_edge21_Node000016_Node000017"><a xlink:title=" ">
<path fill="none" stroke="#63b8ff" d="M808.56,-506.6C821.35,-473 855.35,-396.38 911,-359 914.27,-356.8 917.73,-354.85 921.33,-353.11"/>
<polygon fill="#63b8ff" stroke="#63b8ff" points="922.48,-356.42 930.37,-349.35 919.79,-349.96 922.48,-356.42"/>
</a>
</g>
</g>
<!-- Node18 -->
<g id="Node000018" class="node">
<title>Node18</title>
<g id="a_Node000018"><a xlink:href="../../d5/d72/classLSM1x0A__LoRaWAN.html#a5365ed1596eb84ebf1e3b33b4a10c788" target="_top" xlink:title="Sets the LoRaWAN operational frequency band.">
<polygon fill="white" stroke="#666666" points="1084.12,-312 931.62,-312 931.62,-292 1084.12,-292 1084.12,-312"/>
<text text-anchor="middle" x="1007.88" y="-298.5" font-family="Helvetica,sans-Serif" font-size="10.00">LSM1x0A_LoRaWAN::setBand</text>
</a>
</g>
</g>
<!-- Node16&#45;&gt;Node18 -->
<g id="edge23_Node000016_Node000018" class="edge">
<title>Node16&#45;&gt;Node18</title>
<g id="a_edge23_Node000016_Node000018"><a xlink:title=" ">
<path fill="none" stroke="#63b8ff" d="M806.47,-506.5C816.2,-467.43 846.24,-368.94 911,-321 914.16,-318.66 917.54,-316.58 921.07,-314.75"/>
<polygon fill="#63b8ff" stroke="#63b8ff" points="922.25,-318.05 929.97,-310.8 919.41,-311.66 922.25,-318.05"/>
</a>
</g>
</g>
<!-- Node19 -->
<g id="Node000019" class="node">
<title>Node19</title>
<g id="a_Node000019"><a xlink:href="../../d5/d72/classLSM1x0A__LoRaWAN.html#a9d9285c43414337a0ccb3a6cd7ca06e6" target="_top" xlink:title="Configures the number of retries for Confirmed uplinks.">
<polygon fill="white" stroke="#666666" points="1090.12,-274 925.62,-274 925.62,-242 1090.12,-242 1090.12,-274"/>
<text text-anchor="start" x="933.62" y="-260.5" font-family="Helvetica,sans-Serif" font-size="10.00">LSM1x0A_LoRaWAN::setConfirm</text>
<text text-anchor="middle" x="1007.88" y="-248.5" font-family="Helvetica,sans-Serif" font-size="10.00">Retry</text>
</a>
</g>
</g>
<!-- Node16&#45;&gt;Node19 -->
<g id="edge26_Node000016_Node000019" class="edge">
<title>Node16&#45;&gt;Node19</title>
<g id="a_edge26_Node000016_Node000019"><a xlink:title=" ">
<path fill="none" stroke="#63b8ff" d="M805.18,-506.7C812.55,-463.28 838.7,-344.03 911,-283 912.49,-281.74 914.04,-280.55 915.63,-279.41"/>
<polygon fill="#63b8ff" stroke="#63b8ff" points="917.25,-282.52 923.95,-274.32 913.6,-276.55 917.25,-282.52"/>
</a>
</g>
</g>
<!-- Node20 -->
<g id="Node000020" class="node">
<title>Node20</title>
<g id="a_Node000020"><a xlink:href="../../d5/d72/classLSM1x0A__LoRaWAN.html#a56345ceeafa0b9059d6de4e69eddc82e" target="_top" xlink:title="Sets the Data Rate (DR) of the module.">
<polygon fill="white" stroke="#666666" points="1093.88,-892 921.88,-892 921.88,-872 1093.88,-872 1093.88,-892"/>
<text text-anchor="middle" x="1007.88" y="-878.5" font-family="Helvetica,sans-Serif" font-size="10.00">LSM1x0A_LoRaWAN::setDataRate</text>
</a>
</g>
</g>
<!-- Node16&#45;&gt;Node20 -->
<g id="edge28_Node000016_Node000020" class="edge">
<title>Node16&#45;&gt;Node20</title>
<g id="a_edge28_Node000016_Node000020"><a xlink:title=" ">
<path fill="none" stroke="#63b8ff" d="M802.55,-539.16C802.79,-593.93 811.44,-774.06 911,-863 911.95,-863.85 912.92,-864.66 913.92,-865.44"/>
<polygon fill="#63b8ff" stroke="#63b8ff" points="911.95,-868.34 922.25,-870.83 915.75,-862.46 911.95,-868.34"/>
</a>
</g>
</g>
<!-- Node21 -->
<g id="Node000021" class="node">
<title>Node21</title>
<g id="a_Node000021"><a xlink:href="../../d5/d72/classLSM1x0A__LoRaWAN.html#a8494083816ab885cb07fc3b08de029f4" target="_top" xlink:title="Sets the LoRaWAN Device Address (DevAddr) for ABP mode.">
<polygon fill="white" stroke="#666666" points="1092,-854 923.75,-854 923.75,-834 1092,-834 1092,-854"/>
<text text-anchor="middle" x="1007.88" y="-840.5" font-family="Helvetica,sans-Serif" font-size="10.00">LSM1x0A_LoRaWAN::setDevAddr</text>
</a>
</g>
</g>
<!-- Node16&#45;&gt;Node21 -->
<g id="edge30_Node000016_Node000021" class="edge">
<title>Node16&#45;&gt;Node21</title>
<g id="a_edge30_Node000016_Node000021"><a xlink:title=" ">
<path fill="none" stroke="#63b8ff" d="M803.28,-539.15C805.87,-589.92 821.12,-747.57 911,-825 912.12,-825.97 913.28,-826.89 914.46,-827.77"/>
<polygon fill="#63b8ff" stroke="#63b8ff" points="912.48,-830.65 922.82,-832.93 916.15,-824.7 912.48,-830.65"/>
</a>
</g>
</g>
<!-- Node22 -->
<g id="Node000022" class="node">
<title>Node22</title>
<g id="a_Node000022"><a xlink:href="../../d5/d72/classLSM1x0A__LoRaWAN.html#ad320634e52d7ea907043cc50dd37c5b0" target="_top" xlink:title="Sets the LoRaWAN Device EUI (DevEUI).">
<polygon fill="white" stroke="#666666" points="1090.5,-816 925.25,-816 925.25,-796 1090.5,-796 1090.5,-816"/>
<text text-anchor="middle" x="1007.88" y="-802.5" font-family="Helvetica,sans-Serif" font-size="10.00">LSM1x0A_LoRaWAN::setDevEUI</text>
</a>
</g>
</g>
<!-- Node16&#45;&gt;Node22 -->
<g id="edge32_Node000016_Node000022" class="edge">
<title>Node16&#45;&gt;Node22</title>
<g id="a_edge32_Node000016_Node000022"><a xlink:title=" ">
<path fill="none" stroke="#63b8ff" d="M804.24,-539.44C809.39,-586.24 830.87,-721.05 911,-787 912.49,-788.22 914.03,-789.38 915.62,-790.46"/>
<polygon fill="#63b8ff" stroke="#63b8ff" points="913.48,-793.27 923.9,-795.21 916.97,-787.2 913.48,-793.27"/>
</a>
</g>
</g>
<!-- Node23 -->
<g id="Node000023" class="node">
<title>Node23</title>
<g id="a_Node000023"><a xlink:href="../../d5/d72/classLSM1x0A__LoRaWAN.html#a031023b0d2dd5db3c51c2db6ae7801cc" target="_top" xlink:title="Enables or disables the Duty Cycle limitation (EU regions mostly).">
<polygon fill="white" stroke="#666666" points="1083.38,-778 932.38,-778 932.38,-746 1083.38,-746 1083.38,-778"/>
<text text-anchor="start" x="940.38" y="-764.5" font-family="Helvetica,sans-Serif" font-size="10.00">LSM1x0A_LoRaWAN::setDuty</text>
<text text-anchor="middle" x="1007.88" y="-752.5" font-family="Helvetica,sans-Serif" font-size="10.00">Cycle</text>
</a>
</g>
</g>
<!-- Node16&#45;&gt;Node23 -->
<g id="edge34_Node000016_Node000023" class="edge">
<title>Node16&#45;&gt;Node23</title>
<g id="a_edge34_Node000016_Node000023"><a xlink:title=" ">
<path fill="none" stroke="#63b8ff" d="M806.15,-539.3C815.4,-579.44 844.89,-683.67 911,-737 914.44,-739.78 918.16,-742.25 922.06,-744.44"/>
<polygon fill="#63b8ff" stroke="#63b8ff" points="920.21,-747.44 930.73,-748.7 923.3,-741.15 920.21,-747.44"/>
</a>
</g>
</g>
<!-- Node24 -->
<g id="Node000024" class="node">
<title>Node24</title>
<g id="a_Node000024"><a xlink:href="../../d5/d72/classLSM1x0A__LoRaWAN.html#a6b179d5825c49af0f391dfc539912f64" target="_top" xlink:title="Sets the delay for the Join1 receive window.">
<polygon fill="white" stroke="#666666" points="1084.5,-728 931.25,-728 931.25,-696 1084.5,-696 1084.5,-728"/>
<text text-anchor="start" x="939.25" y="-714.5" font-family="Helvetica,sans-Serif" font-size="10.00">LSM1x0A_LoRaWAN::setJoin1</text>
<text text-anchor="middle" x="1007.88" y="-702.5" font-family="Helvetica,sans-Serif" font-size="10.00">Delay</text>
</a>
</g>
</g>
<!-- Node16&#45;&gt;Node24 -->
<g id="edge36_Node000016_Node000024" class="edge">
<title>Node16&#45;&gt;Node24</title>
<g id="a_edge36_Node000016_Node000024"><a xlink:title=" ">
<path fill="none" stroke="#63b8ff" d="M808.84,-539.39C822.06,-572.62 856.63,-648.08 911,-687 914.17,-689.27 917.54,-691.34 921.03,-693.21"/>
<polygon fill="#63b8ff" stroke="#63b8ff" points="919.28,-696.26 929.82,-697.38 922.28,-689.93 919.28,-696.26"/>
</a>
</g>
</g>
<!-- Node25 -->
<g id="Node000025" class="node">
<title>Node25</title>
<g id="a_Node000025"><a xlink:href="../../d5/d72/classLSM1x0A__LoRaWAN.html#a4545d0caad41558cdb9bae8286b104d8" target="_top" xlink:title="Sets the delay for the Join2 receive window.">
<polygon fill="white" stroke="#666666" points="1084.5,-678 931.25,-678 931.25,-646 1084.5,-646 1084.5,-678"/>
<text text-anchor="start" x="939.25" y="-664.5" font-family="Helvetica,sans-Serif" font-size="10.00">LSM1x0A_LoRaWAN::setJoin2</text>
<text text-anchor="middle" x="1007.88" y="-652.5" font-family="Helvetica,sans-Serif" font-size="10.00">Delay</text>
</a>
</g>
</g>
<!-- Node16&#45;&gt;Node25 -->
<g id="edge38_Node000016_Node000025" class="edge">
<title>Node16&#45;&gt;Node25</title>
<g id="a_edge38_Node000016_Node000025"><a xlink:title=" ">
<path fill="none" stroke="#63b8ff" d="M813.64,-539.33C831.15,-564.27 867.99,-611.61 911,-637 914.01,-638.78 917.15,-640.43 920.38,-641.97"/>
<polygon fill="#63b8ff" stroke="#63b8ff" points="918.98,-645.18 929.55,-645.9 921.74,-638.74 918.98,-645.18"/>
</a>
</g>
</g>
<!-- Node26 -->
<g id="Node000026" class="node">
<title>Node26</title>
<g id="a_Node000026"><a xlink:href="../../d5/d72/classLSM1x0A__LoRaWAN.html#a06bd50723ec1eb7e144c9141b2ec86fc" target="_top" xlink:title="Sets the LoRaWAN Network ID (NetID).">
<polygon fill="white" stroke="#666666" points="1088.25,-628 927.5,-628 927.5,-608 1088.25,-608 1088.25,-628"/>
<text text-anchor="middle" x="1007.88" y="-614.5" font-family="Helvetica,sans-Serif" font-size="10.00">LSM1x0A_LoRaWAN::setNwkID</text>
</a>
</g>
</g>
<!-- Node16&#45;&gt;Node26 -->
<g id="edge40_Node000016_Node000026" class="edge">
<title>Node16&#45;&gt;Node26</title>
<g id="a_edge40_Node000016_Node000026"><a xlink:title=" ">
<path fill="none" stroke="#63b8ff" d="M820.85,-539.34C841.26,-556.84 876.16,-584.11 911,-599 915.6,-600.97 920.41,-602.73 925.33,-604.32"/>
<polygon fill="#63b8ff" stroke="#63b8ff" points="924.17,-607.63 934.76,-607.08 926.14,-600.91 924.17,-607.63"/>
</a>
</g>
</g>
<!-- Node27 -->
<g id="Node000027" class="node">
<title>Node27</title>
<g id="a_Node000027"><a xlink:href="../../d5/d72/classLSM1x0A__LoRaWAN.html#aa70ada64d28ecca216bb62268e502adf" target="_top" xlink:title="Sets the delay for the RX1 receive window.">
<polygon fill="white" stroke="#666666" points="1094.62,-590 921.12,-590 921.12,-570 1094.62,-570 1094.62,-590"/>
<text text-anchor="middle" x="1007.88" y="-576.5" font-family="Helvetica,sans-Serif" font-size="10.00">LSM1x0A_LoRaWAN::setRx1Delay</text>
</a>
</g>
</g>
<!-- Node16&#45;&gt;Node27 -->
<g id="edge42_Node000016_Node000027" class="edge">
<title>Node16&#45;&gt;Node27</title>
<g id="a_edge42_Node000016_Node000027"><a xlink:title=" ">
<path fill="none" stroke="#63b8ff" d="M845.24,-539.49C865.02,-546.76 889,-554.99 911,-561 919.08,-563.21 927.61,-565.27 936.12,-567.16"/>
<polygon fill="#63b8ff" stroke="#63b8ff" points="935.25,-570.55 945.76,-569.23 936.72,-563.71 935.25,-570.55"/>
</a>
</g>
</g>
<!-- Node28 -->
<g id="Node000028" class="node">
<title>Node28</title>
<g id="a_Node000028"><a xlink:href="../../d5/d72/classLSM1x0A__LoRaWAN.html#a2cf4eff0181b6107d082bccefa24217b" target="_top" xlink:title="Sets the Data Rate (DR) specifically for the RX2 window.">
<polygon fill="white" stroke="#666666" points="1102.88,-552 912.88,-552 912.88,-532 1102.88,-532 1102.88,-552"/>
<text text-anchor="middle" x="1007.88" y="-538.5" font-family="Helvetica,sans-Serif" font-size="10.00">LSM1x0A_LoRaWAN::setRx2DataRate</text>
</a>
</g>
</g>
<!-- Node16&#45;&gt;Node28 -->
<g id="edge44_Node000016_Node000028" class="edge">
<title>Node16&#45;&gt;Node28</title>
<g id="a_edge44_Node000016_Node000028"><a xlink:title=" ">
<path fill="none" stroke="#63b8ff" d="M875.29,-529.75C883.66,-530.53 892.31,-531.34 901.01,-532.15"/>
<polygon fill="#63b8ff" stroke="#63b8ff" points="900.64,-535.63 910.93,-533.07 901.29,-528.66 900.64,-535.63"/>
</a>
</g>
</g>
<!-- Node29 -->
<g id="Node000029" class="node">
<title>Node29</title>
<g id="a_Node000029"><a xlink:href="../../d5/d72/classLSM1x0A__LoRaWAN.html#a42d2137b475b57e19d891a5f1ac93221" target="_top" xlink:title="Sets the delay for the RX2 receive window.">
<polygon fill="white" stroke="#666666" points="1094.62,-514 921.12,-514 921.12,-494 1094.62,-494 1094.62,-514"/>
<text text-anchor="middle" x="1007.88" y="-500.5" font-family="Helvetica,sans-Serif" font-size="10.00">LSM1x0A_LoRaWAN::setRx2Delay</text>
</a>
</g>
</g>
<!-- Node16&#45;&gt;Node29 -->
<g id="edge46_Node000016_Node000029" class="edge">
<title>Node16&#45;&gt;Node29</title>
<g id="a_edge46_Node000016_Node000029"><a xlink:title=" ">
<path fill="none" stroke="#63b8ff" d="M875.29,-516.25C886.49,-515.21 898.22,-514.11 909.85,-513.03"/>
<polygon fill="#63b8ff" stroke="#63b8ff" points="909.82,-516.55 919.45,-512.14 909.17,-509.58 909.82,-516.55"/>
</a>
</g>
</g>
<!-- Node30 -->
<g id="Node000030" class="node">
<title>Node30</title>
<g id="a_Node000030"><a xlink:href="../../d5/d72/classLSM1x0A__LoRaWAN.html#a689f7dfda1dfeae11ea397c2ddf2ad37" target="_top" xlink:title="Sets the precise frequency for the RX2 window.">
<polygon fill="white" stroke="#666666" points="1104.75,-476 911,-476 911,-456 1104.75,-456 1104.75,-476"/>
<text text-anchor="middle" x="1007.88" y="-462.5" font-family="Helvetica,sans-Serif" font-size="10.00">LSM1x0A_LoRaWAN::setRx2Frequency</text>
</a>
</g>
</g>
<!-- Node16&#45;&gt;Node30 -->
<g id="edge48_Node000016_Node000030" class="edge">
<title>Node16&#45;&gt;Node30</title>
<g id="a_edge48_Node000016_Node000030"><a xlink:title=" ">
<path fill="none" stroke="#63b8ff" d="M845.24,-506.51C865.02,-499.24 889,-491.01 911,-485 919.08,-482.79 927.61,-480.73 936.12,-478.84"/>
<polygon fill="#63b8ff" stroke="#63b8ff" points="936.72,-482.29 945.76,-476.77 935.25,-475.45 936.72,-482.29"/>
</a>
</g>
</g>
<!-- Node31 -->
<g id="Node000031" class="node">
<title>Node31</title>
<g id="a_Node000031"><a xlink:href="../../d5/d72/classLSM1x0A__LoRaWAN.html#a1df10d7ae6bf45b537d28d3d5c4b88d7" target="_top" xlink:title="Sets the transmission power index.">
<polygon fill="white" stroke="#666666" points="1092.38,-438 923.38,-438 923.38,-418 1092.38,-418 1092.38,-438"/>
<text text-anchor="middle" x="1007.88" y="-424.5" font-family="Helvetica,sans-Serif" font-size="10.00">LSM1x0A_LoRaWAN::setTxPower</text>
</a>
</g>
</g>
<!-- Node16&#45;&gt;Node31 -->
<g id="edge50_Node000016_Node000031" class="edge">
<title>Node16&#45;&gt;Node31</title>
<g id="a_edge50_Node000016_Node000031"><a xlink:title=" ">
<path fill="none" stroke="#63b8ff" d="M820.85,-506.66C841.26,-489.16 876.16,-461.89 911,-447 915.6,-445.03 920.41,-443.27 925.33,-441.68"/>
<polygon fill="#63b8ff" stroke="#63b8ff" points="926.14,-445.09 934.76,-438.92 924.17,-438.37 926.14,-445.09"/>
</a>
</g>
</g>
<!-- Node32 -->
<g id="Node000032" class="node">
<title>Node32</title>
<g id="a_Node000032"><a xlink:href="../../d5/d72/classLSM1x0A__LoRaWAN.html#a059fd6a9356c4ecadd5a98294da5952d" target="_top" xlink:title="Configures the number of repetitions for Unconfirmed uplinks.">
<polygon fill="white" stroke="#666666" points="1095.38,-400 920.38,-400 920.38,-368 1095.38,-368 1095.38,-400"/>
<text text-anchor="start" x="928.38" y="-386.5" font-family="Helvetica,sans-Serif" font-size="10.00">LSM1x0A_LoRaWAN::setUnconfirm</text>
<text text-anchor="middle" x="1007.88" y="-374.5" font-family="Helvetica,sans-Serif" font-size="10.00">Retry</text>
</a>
</g>
</g>
<!-- Node16&#45;&gt;Node32 -->
<g id="edge52_Node000016_Node000032" class="edge">
<title>Node16&#45;&gt;Node32</title>
<g id="a_edge52_Node000016_Node000032"><a xlink:title=" ">
<path fill="none" stroke="#63b8ff" d="M813.64,-506.67C831.15,-481.73 867.99,-434.39 911,-409 913.31,-407.64 915.7,-406.34 918.14,-405.12"/>
<polygon fill="#63b8ff" stroke="#63b8ff" points="919.4,-408.4 927.08,-401.1 916.53,-402.01 919.4,-408.4"/>
</a>
</g>
</g>
<!-- Node17&#45;&gt;Node10 -->
<g id="edge22_Node000017_Node000010" class="edge">
<title>Node17&#45;&gt;Node10</title>
<g id="a_edge22_Node000017_Node000010"><a xlink:title=" ">
<path fill="none" stroke="#63b8ff" d="M1084.15,-348.53C1091.47,-351.2 1098.49,-354.62 1104.75,-359 1160.34,-397.86 1193.19,-474.26 1207.49,-514.97"/>
<polygon fill="#63b8ff" stroke="#63b8ff" points="1204.11,-515.89 1210.62,-524.24 1210.74,-513.65 1204.11,-515.89"/>
</a>
</g>
</g>
<!-- Node18&#45;&gt;Node10 -->
<g id="edge24_Node000018_Node000010" class="edge">
<title>Node18&#45;&gt;Node10</title>
<g id="a_edge24_Node000018_Node000010"><a xlink:title=" ">
<path fill="none" stroke="#63b8ff" d="M1084.52,-310.03C1091.77,-312.79 1098.67,-316.38 1104.75,-321 1169.37,-370.13 1199.21,-467.16 1210.41,-514.6"/>
<polygon fill="#63b8ff" stroke="#63b8ff" points="1206.92,-515.06 1212.53,-524.05 1213.75,-513.53 1206.92,-515.06"/>
</a>
</g>
</g>
<!-- Node19&#45;&gt;Node10 -->
<g id="edge27_Node000019_Node000010" class="edge">
<title>Node19&#45;&gt;Node10</title>
<g id="a_edge27_Node000019_Node000010"><a xlink:title=" ">
<path fill="none" stroke="#63b8ff" d="M1090.58,-273.44C1095.66,-276.14 1100.45,-279.3 1104.75,-283 1176.7,-344.86 1203.48,-461.59 1212.24,-514.59"/>
<polygon fill="#63b8ff" stroke="#63b8ff" points="1208.75,-514.92 1213.74,-524.26 1215.67,-513.84 1208.75,-514.92"/>
</a>
</g>
</g>
<!-- Node20&#45;&gt;Node10 -->
<g id="edge29_Node000020_Node000010" class="edge">
<title>Node20&#45;&gt;Node10</title>
<g id="a_edge29_Node000020_Node000010"><a xlink:title=" ">
<path fill="none" stroke="#63b8ff" d="M1092.19,-871.6C1096.7,-869.21 1100.94,-866.37 1104.75,-863 1142.98,-829.22 1124.22,-802.26 1140.75,-754 1163.56,-687.42 1191.55,-609.52 1206.12,-569.23"/>
<polygon fill="#63b8ff" stroke="#63b8ff" points="1209.39,-570.47 1209.51,-559.87 1202.81,-568.08 1209.39,-570.47"/>
</a>
</g>
</g>
<!-- Node21&#45;&gt;Node10 -->
<g id="edge31_Node000021_Node000010" class="edge">
<title>Node21&#45;&gt;Node10</title>
<g id="a_edge31_Node000021_Node000010"><a xlink:title=" ">
<path fill="none" stroke="#63b8ff" d="M1091.52,-833.58C1096.25,-831.21 1100.71,-828.37 1104.75,-825 1125.53,-807.64 1184.44,-636.39 1207.03,-569.02"/>
<polygon fill="#63b8ff" stroke="#63b8ff" points="1210.24,-570.45 1210.09,-559.86 1203.6,-568.24 1210.24,-570.45"/>
</a>
</g>
</g>
<!-- Node22&#45;&gt;Node10 -->
<g id="edge33_Node000022_Node000010" class="edge">
<title>Node22&#45;&gt;Node10</title>
<g id="a_edge33_Node000022_Node000010"><a xlink:title=" ">
<path fill="none" stroke="#63b8ff" d="M1090.86,-795.56C1095.8,-793.2 1100.49,-790.37 1104.75,-787 1175.25,-731.13 1202.64,-620.69 1211.88,-569.39"/>
<polygon fill="#63b8ff" stroke="#63b8ff" points="1215.29,-570.18 1213.51,-559.74 1208.39,-569.01 1215.29,-570.18"/>
</a>
</g>
</g>
<!-- Node23&#45;&gt;Node10 -->
<g id="edge35_Node000023_Node000010" class="edge">
<title>Node23&#45;&gt;Node10</title>
<g id="a_edge35_Node000023_Node000010"><a xlink:title=" ">
<path fill="none" stroke="#63b8ff" d="M1083.41,-749.05C1091.04,-745.87 1098.33,-741.92 1104.75,-737 1161.74,-693.34 1194.31,-611.57 1208.1,-569.12"/>
<polygon fill="#63b8ff" stroke="#63b8ff" points="1211.4,-570.29 1211.05,-559.7 1204.72,-568.2 1211.4,-570.29"/>
</a>
</g>
</g>
<!-- Node24&#45;&gt;Node10 -->
<g id="edge37_Node000024_Node000010" class="edge">
<title>Node24&#45;&gt;Node10</title>
<g id="a_edge37_Node000024_Node000010"><a xlink:title=" ">
<path fill="none" stroke="#63b8ff" d="M1084.74,-697.37C1091.79,-694.51 1098.59,-691.09 1104.75,-687 1150.56,-656.61 1185.32,-600.94 1203,-568.13"/>
<polygon fill="#63b8ff" stroke="#63b8ff" points="1205.89,-570.16 1207.43,-559.68 1199.69,-566.91 1205.89,-570.16"/>
</a>
</g>
</g>
<!-- Node25&#45;&gt;Node10 -->
<g id="edge39_Node000025_Node000010" class="edge">
<title>Node25&#45;&gt;Node10</title>
<g id="a_edge39_Node000025_Node000010"><a xlink:title=" ">
<path fill="none" stroke="#63b8ff" d="M1084.93,-645.62C1091.79,-643.12 1098.5,-640.26 1104.75,-637 1139.54,-618.85 1172.85,-588.01 1193.81,-566.4"/>
<polygon fill="#63b8ff" stroke="#63b8ff" points="1196.08,-569.1 1200.43,-559.44 1191,-564.27 1196.08,-569.1"/>
</a>
</g>
</g>
<!-- Node26&#45;&gt;Node10 -->
<g id="edge41_Node000026_Node000010" class="edge">
<title>Node26&#45;&gt;Node10</title>
<g id="a_edge41_Node000026_Node000010"><a xlink:title=" ">
<path fill="none" stroke="#63b8ff" d="M1074.51,-607.52C1084.76,-605.16 1095.13,-602.34 1104.75,-599 1130.82,-589.94 1158.45,-575.81 1179.65,-563.89"/>
<polygon fill="#63b8ff" stroke="#63b8ff" points="1181.25,-567 1188.19,-559 1177.77,-560.93 1181.25,-567"/>
</a>
</g>
</g>
<!-- Node27&#45;&gt;Node10 -->
<g id="edge43_Node000027_Node000010" class="edge">
<title>Node27&#45;&gt;Node10</title>
<g id="a_edge43_Node000027_Node000010"><a xlink:title=" ">
<path fill="none" stroke="#63b8ff" d="M1066.02,-569.52C1092.86,-564.59 1124.94,-558.71 1152.53,-553.64"/>
<polygon fill="#63b8ff" stroke="#63b8ff" points="1152.96,-557.12 1162.16,-551.88 1151.69,-550.24 1152.96,-557.12"/>
</a>
</g>
</g>
<!-- Node28&#45;&gt;Node10 -->
<g id="edge45_Node000028_Node000010" class="edge">
<title>Node28&#45;&gt;Node10</title>
<g id="a_edge45_Node000028_Node000010"><a xlink:title=" ">
<path fill="none" stroke="#63b8ff" d="M1103.35,-542C1119.84,-542 1136.64,-542 1152.07,-542"/>
<polygon fill="#63b8ff" stroke="#63b8ff" points="1152.05,-545.5 1162.05,-542 1152.05,-538.5 1152.05,-545.5"/>
</a>
</g>
</g>
<!-- Node29&#45;&gt;Node10 -->
<g id="edge47_Node000029_Node000010" class="edge">
<title>Node29&#45;&gt;Node10</title>
<g id="a_edge47_Node000029_Node000010"><a xlink:title=" ">
<path fill="none" stroke="#63b8ff" d="M1066.02,-514.48C1092.86,-519.41 1124.94,-525.29 1152.53,-530.36"/>
<polygon fill="#63b8ff" stroke="#63b8ff" points="1151.69,-533.76 1162.16,-532.12 1152.96,-526.88 1151.69,-533.76"/>
</a>
</g>
</g>
<!-- Node30&#45;&gt;Node10 -->
<g id="edge49_Node000030_Node000010" class="edge">
<title>Node30&#45;&gt;Node10</title>
<g id="a_edge49_Node000030_Node000010"><a xlink:title=" ">
<path fill="none" stroke="#63b8ff" d="M1074.51,-476.48C1084.76,-478.84 1095.13,-481.66 1104.75,-485 1130.82,-494.06 1158.45,-508.19 1179.65,-520.11"/>
<polygon fill="#63b8ff" stroke="#63b8ff" points="1177.77,-523.07 1188.19,-525 1181.25,-517 1177.77,-523.07"/>
</a>
</g>
</g>
<!-- Node31&#45;&gt;Node10 -->
<g id="edge51_Node000031_Node000010" class="edge">
<title>Node31&#45;&gt;Node10</title>
<g id="a_edge51_Node000031_Node000010"><a xlink:title=" ">
<path fill="none" stroke="#63b8ff" d="M1082.14,-438.43C1089.96,-440.74 1097.65,-443.56 1104.75,-447 1140.26,-464.21 1173.65,-495.52 1194.41,-517.48"/>
<polygon fill="#63b8ff" stroke="#63b8ff" points="1191.6,-519.6 1200.96,-524.57 1196.74,-514.85 1191.6,-519.6"/>
</a>
</g>
</g>
<!-- Node32&#45;&gt;Node10 -->
<g id="edge53_Node000032_Node000010" class="edge">
<title>Node32&#45;&gt;Node10</title>
<g id="a_edge53_Node000032_Node000010"><a xlink:title=" ">
<path fill="none" stroke="#63b8ff" d="M1088,-400.31C1093.86,-402.81 1099.52,-405.69 1104.75,-409 1147.74,-436.23 1182.47,-485.5 1201.1,-515.83"/>
<polygon fill="#63b8ff" stroke="#63b8ff" points="1198.09,-517.61 1206.23,-524.4 1204.1,-514.02 1198.09,-517.61"/>
</a>
</g>
</g>
<!-- Node34&#45;&gt;Node11 -->
<g id="edge56_Node000034_Node000011" class="edge">
<title>Node34&#45;&gt;Node11</title>
<g id="a_edge56_Node000034_Node000011"><a xlink:title=" ">
<path fill="none" stroke="#63b8ff" d="M1231.57,-762.71C1266.94,-720.24 1361.84,-606.28 1399.58,-560.97"/>
<polygon fill="#63b8ff" stroke="#63b8ff" points="1402.05,-563.47 1405.76,-553.55 1396.67,-558.99 1402.05,-563.47"/>
</a>
</g>
</g>
</g>
</svg>

<g id="navigator" transform="translate(0 0)" fill="#404254">
  <rect fill="#f2f5e9" fill-opacity="0.5" stroke="#606060" stroke-width=".5" x="0" y="0" width="60" height="60"/>
  <use id="zoomplus" xlink:href="#zoomPlus" x="17" y="9" onmousedown="handleZoom(evt,'in')"/>
  <use id="zoomminus" xlink:href="#zoomMin" x="42" y="9" onmousedown="handleZoom(evt,'out')"/>
  <use id="reset" xlink:href="#resetDef" x="30" y="36" onmousedown="handleReset()"/>
   <use id="arrowup" xlink:href="#arrowUp" x="0" y="0" onmousedown="handlePan(0,-1)"/>
  <use id="arrowright" xlink:href="#arrowRight" x="0" y="0" onmousedown="handlePan(1,0)"/>
  <use id="arrowdown" xlink:href="#arrowDown" x="0" y="0" onmousedown="handlePan(0,1)"/>
  <use id="arrowleft" xlink:href="#arrowLeft" x="0" y="0" onmousedown="handlePan(-1,0)"/>
</g>
<svg viewBox="0 0 15 15" width="100%" height="30px" preserveAspectRatio="xMaxYMin meet">
 <g id="arrow_out" transform="scale(0.3 0.3)">
  <a xlink:href="classLSM1x0A__LoRaWAN_a21209e8bb5b0b8aa4ecf29c281534a63_cgraph_org.svg" target="_base">
   <rect id="button" ry="5" rx="5" y="6" x="6" height="38" width="38"
        fill="#f2f5e9" fill-opacity="0.5" stroke="#606060" stroke-width="1.0"/>
   <path id="arrow"
     d="M 11.500037,31.436501 C 11.940474,20.09759 22.043105,11.32322 32.158766,21.979434 L 37.068811,17.246167 C 37.068811,17.246167 37.088388,32 37.088388,32 L 22.160133,31.978069 C 22.160133,31.978069 26.997745,27.140456 26.997745,27.140456 C 18.528582,18.264221 13.291696,25.230495 11.500037,31.436501 z"
     style="fill:#404040;"/>
  </a>
 </g>
</svg>

<style type='text/css'>
<![CDATA[
[data-mouse-over-selected='false'] { opacity: 0.7; }
[data-mouse-over-selected='true']  { opacity: 1.0; }
]]>
</style>
<script type="application/ecmascript"><![CDATA[
document.addEventListener('DOMContentLoaded', (event) => {
  highlightEdges();
  highlightAdjacentNodes();
});
]]></script>
</svg>
