<?xml version="1.0" encoding="UTF-8" standalone="no"?>
<!DOCTYPE svg PUBLIC "-//W3C//DTD SVG 1.1//EN"
 "http://www.w3.org/Graphics/SVG/1.1/DTD/svg11.dtd">
<!-- Generated by graphviz version 12.2.1 (20241206.2353)
 -->
<!-- Title: LSM1x0A_LoRaWAN::setTxPower Pages: 1 -->
<!--zoomable 1067 -->

<svg id="main" version="1.1" xmlns="http://www.w3.org/2000/svg" xmlns:xlink="http://www.w3.org/1999/xlink" xml:space="preserve" onload="init(evt)">
<style type="text/css"><![CDATA[
.node, .edge {opacity: 0.7;}
.node.selected, .edge.selected {opacity: 1;}
.edge:hover path { stroke: red; }
.edge:hover polygon { stroke: red; fill: red; }
]]></style>

<defs>
  <circle id="rim" cx="0" cy="0" r="7"/>
  <circle id="rim2" cx="0" cy="0" r="3.5"/>
  <g id="zoomPlus">
    <use xlink:href="#rim" fill="#404040"><set attributeName="fill" to="#808080" begin="zoomplus.mouseover" end="zoomplus.mouseout"/></use>
    <path d="M-4,0h8M0,-4v8" fill="none" stroke="white" stroke-width="1.5" pointer-events="none"/>
  </g>
  <g id="zoomMin">
    <use xlink:href="#rim" fill="#404040"><set attributeName="fill" to="#808080" begin="zoomminus.mouseover" end="zoomminus.mouseout"/></use>
    <path d="M-4,0h8" fill="none" stroke="white" stroke-width="1.5" pointer-events="none"/>
  </g>
  <g id="arrowUp" transform="translate(30 24)">
    <use xlink:href="#rim"/>
    <path pointer-events="none" fill="none" stroke="white" stroke-width="1.5" d="M0,-3.0v7 M-2.5,-0.5L0,-3.0L2.5,-0.5"/>
  </g>
  <g id="arrowRight" transform="rotate(90) translate(36 -43)">
    <use xlink:href="#rim"/>
    <path pointer-events="none" fill="none" stroke="white" stroke-width="1.5" d="M0,-3.0v7 M-2.5,-0.5L0,-3.0L2.5,-0.5"/>
  </g>
  <g id="arrowDown" transform="rotate(180) translate(-30 -48)">
    <use xlink:href="#rim"/>
    <path pointer-events="none" fill="none" stroke="white" stroke-width="1.5" d="M0,-3.0v7 M-2.5,-0.5L0,-3.0L2.5,-0.5"/>
  </g>
  <g id="arrowLeft" transform="rotate(270) translate(-36 17)">
    <use xlink:href="#rim"/>
    <path pointer-events="none" fill="none" stroke="white" stroke-width="1.5" d="M0,-3.0v7 M-2.5,-0.5L0,-3.0L2.5,-0.5"/>
  </g>
  <g id="resetDef">
    <use xlink:href="#rim2" fill="#404040"><set attributeName="fill" to="#808080" begin="reset.mouseover" end="reset.mouseout"/></use>
  </g>
</defs>
<script type="application/ecmascript">
var viewWidth = 1300;
var viewHeight = 1067;
var sectionId = 'dynsection-107';
</script>
<script type="application/ecmascript" xlink:href="../../svg.min.js"/>
<svg id="graph" class="graph">
<g id="viewport">
<title>LSM1x0A_LoRaWAN::setTxPower</title>
<!-- Node1 -->
<g id="Node000001" class="node">
<title>Node1</title>
<g id="a_Node000001"><a xlink:title="Sets the transmission power index.">
<polygon fill="#999999" stroke="#666666" points="169,-351.34 0,-351.34 0,-331.34 169,-331.34 169,-351.34"/>
<text text-anchor="middle" x="84.5" y="-337.84" font-family="Helvetica,sans-Serif" font-size="10.00">LSM1x0A_LoRaWAN::setTxPower</text>
</a>
</g>
</g>
<!-- Node2 -->
<g id="Node000002" class="node">
<title>Node2</title>
<g id="a_Node000002"><a xlink:href="../../d8/d92/classLSM1x0A__Controller.html#afd7d92e60ed6fdae696a955cdbe0ed8c" target="_top" xlink:title="Sends any AT command to the module, returning error if it fails. Internally uses the LsmAtParser logi...">
<polygon fill="white" stroke="#666666" points="311,-451.34 205,-451.34 205,-419.34 311,-419.34 311,-451.34"/>
<text text-anchor="start" x="213" y="-437.84" font-family="Helvetica,sans-Serif" font-size="10.00">LSM1x0A_Controller</text>
<text text-anchor="middle" x="258" y="-425.84" font-family="Helvetica,sans-Serif" font-size="10.00">::sendCommand</text>
</a>
</g>
</g>
<!-- Node1&#45;&gt;Node2 -->
<g id="edge1_Node000001_Node000002" class="edge">
<title>Node1&#45;&gt;Node2</title>
<g id="a_edge1_Node000001_Node000002"><a xlink:title=" ">
<path fill="none" stroke="#63b8ff" d="M104.51,-351.76C131.5,-366.56 181.57,-394 216.96,-413.4"/>
<polygon fill="#63b8ff" stroke="#63b8ff" points="215.2,-416.42 225.65,-418.16 218.56,-410.28 215.2,-416.42"/>
</a>
</g>
</g>
<!-- Node3 -->
<g id="Node000003" class="node">
<title>Node3</title>
<g id="a_Node000003"><a xlink:href="../../d8/d92/classLSM1x0A__Controller.html#abb0eb380daa3dfb7acffb483c5db8e2b" target="_top" xlink:title="Executes the recovery protocol. First Soft&#45;Reset (ATZ), then Hard&#45;Reset if there is a pin.">
<polygon fill="white" stroke="#666666" points="453,-868.34 347,-868.34 347,-836.34 453,-836.34 453,-868.34"/>
<text text-anchor="start" x="355" y="-854.84" font-family="Helvetica,sans-Serif" font-size="10.00">LSM1x0A_Controller</text>
<text text-anchor="middle" x="400" y="-842.84" font-family="Helvetica,sans-Serif" font-size="10.00">::recoverModule</text>
</a>
</g>
</g>
<!-- Node2&#45;&gt;Node3 -->
<g id="edge2_Node000002_Node000003" class="edge">
<title>Node2&#45;&gt;Node3</title>
<g id="a_edge2_Node000002_Node000003"><a xlink:title=" ">
<path fill="none" stroke="#63b8ff" d="M263.04,-451.79C274.41,-497.32 308.34,-628.64 347,-734.34 358.75,-766.47 375,-802.28 386.19,-825.94"/>
<polygon fill="#63b8ff" stroke="#63b8ff" points="382.97,-827.32 390.44,-834.83 389.29,-824.3 382.97,-827.32"/>
</a>
</g>
</g>
<!-- Node30 -->
<g id="Node000030" class="node">
<title>Node30</title>
<g id="a_Node000030"><a xlink:href="../../d6/d3c/classLSM1x0A__AtParser.html#a29b53c521974387ba6c03afadfaffa4a" target="_top" xlink:title="Sends a simple command and waits for OK/ERROR. Example: sendCommand(&quot;AT+JOIN&quot;);.">
<polygon fill="white" stroke="#666666" points="867.5,-704.34 693.25,-704.34 693.25,-684.34 867.5,-684.34 867.5,-704.34"/>
<text text-anchor="middle" x="780.38" y="-690.84" font-family="Helvetica,sans-Serif" font-size="10.00">LSM1x0A_AtParser::sendCommand</text>
</a>
</g>
</g>
<!-- Node2&#45;&gt;Node30 -->
<g id="edge54_Node000002_Node000030" class="edge">
<title>Node2&#45;&gt;Node30</title>
<g id="a_edge54_Node000002_Node000030"><a xlink:title=" ">
<path fill="none" stroke="#63b8ff" d="M262.9,-451.77C271.85,-485.95 297.03,-565.19 347,-609.34 438.82,-690.47 584.98,-703.36 681.55,-701.64"/>
<polygon fill="#63b8ff" stroke="#63b8ff" points="681.36,-705.14 691.27,-701.4 681.19,-698.15 681.36,-705.14"/>
</a>
</g>
</g>
<!-- Node4 -->
<g id="Node000004" class="node">
<title>Node4</title>
<g id="a_Node000004"><a xlink:href="../../d8/d92/classLSM1x0A__Controller.html#a3f6f25b843fe4fb7042c544deae2ab16" target="_top" xlink:title="Manually clears bits from the internal EventGroup.">
<polygon fill="white" stroke="#666666" points="1061.25,-925.34 955.25,-925.34 955.25,-893.34 1061.25,-893.34 1061.25,-925.34"/>
<text text-anchor="start" x="963.25" y="-911.84" font-family="Helvetica,sans-Serif" font-size="10.00">LSM1x0A_Controller</text>
<text text-anchor="middle" x="1008.25" y="-899.84" font-family="Helvetica,sans-Serif" font-size="10.00">::clearEvents</text>
</a>
</g>
</g>
<!-- Node3&#45;&gt;Node4 -->
<g id="edge3_Node000003_Node000004" class="edge">
<title>Node3&#45;&gt;Node4</title>
<g id="a_edge3_Node000003_Node000004"><a xlink:title=" ">
<path fill="none" stroke="#63b8ff" d="M451.76,-868.77C463.85,-872.12 476.79,-875.26 489,-877.34 651.02,-905.03 845.15,-909.51 943.46,-909.8"/>
<polygon fill="#63b8ff" stroke="#63b8ff" points="943.45,-913.3 953.45,-909.81 943.46,-906.3 943.45,-913.3"/>
</a>
</g>
</g>
<!-- Node5 -->
<g id="Node000005" class="node">
<title>Node5</title>
<g id="a_Node000005"><a xlink:href="../../d8/d92/classLSM1x0A__Controller.html#a345d4bd79fa16b18dc33a4ca788fe5f7" target="_top" xlink:title="Performs a hardware reset using the reset pin.">
<polygon fill="white" stroke="#666666" points="621.25,-868.34 515.25,-868.34 515.25,-836.34 621.25,-836.34 621.25,-868.34"/>
<text text-anchor="start" x="523.25" y="-854.84" font-family="Helvetica,sans-Serif" font-size="10.00">LSM1x0A_Controller</text>
<text text-anchor="middle" x="568.25" y="-842.84" font-family="Helvetica,sans-Serif" font-size="10.00">::hardwareReset</text>
</a>
</g>
</g>
<!-- Node3&#45;&gt;Node5 -->
<g id="edge4_Node000003_Node000005" class="edge">
<title>Node3&#45;&gt;Node5</title>
<g id="a_edge4_Node000003_Node000005"><a xlink:title=" ">
<path fill="none" stroke="#63b8ff" d="M453.15,-852.34C469.16,-852.34 486.97,-852.34 503.66,-852.34"/>
<polygon fill="#63b8ff" stroke="#63b8ff" points="503.49,-855.84 513.49,-852.34 503.49,-848.84 503.49,-855.84"/>
</a>
</g>
</g>
<!-- Node7 -->
<g id="Node000007" class="node">
<title>Node7</title>
<g id="a_Node000007"><a xlink:href="../../d5/d72/classLSM1x0A__LoRaWAN.html#a1892801e37c8cd67d37c76108d6f7d49" target="_top" xlink:title="Validates if the device is currently Joined to the network. (Either confirmed by OTAA or statically a...">
<polygon fill="white" stroke="#666666" points="1291.75,-791.34 1139.25,-791.34 1139.25,-771.34 1291.75,-771.34 1291.75,-791.34"/>
<text text-anchor="middle" x="1215.5" y="-777.84" font-family="Helvetica,sans-Serif" font-size="10.00">LSM1x0A_LoRaWAN::isJoined</text>
</a>
</g>
</g>
<!-- Node3&#45;&gt;Node7 -->
<g id="edge6_Node000003_Node000007" class="edge">
<title>Node3&#45;&gt;Node7</title>
<g id="a_edge6_Node000003_Node000007"><a xlink:title=" ">
<path fill="none" stroke="#63b8ff" d="M451.76,-835.93C463.85,-832.58 476.79,-829.44 489,-827.34 717.21,-788.16 990.95,-781.51 1127.74,-780.89"/>
<polygon fill="#63b8ff" stroke="#63b8ff" points="1127.45,-784.39 1137.44,-780.86 1127.42,-777.39 1127.45,-784.39"/>
</a>
</g>
</g>
<!-- Node8 -->
<g id="Node000008" class="node">
<title>Node8</title>
<g id="a_Node000008"><a xlink:href="../../d5/d72/classLSM1x0A__LoRaWAN.html#a83e11c0e74ff9e0757db616ab1163424" target="_top" xlink:title="Attempts to recover a lost connection (re&#45;executes OTAA Join if dropped).">
<polygon fill="white" stroke="#666666" points="642.62,-1032.34 493.88,-1032.34 493.88,-1000.34 642.62,-1000.34 642.62,-1032.34"/>
<text text-anchor="start" x="501.88" y="-1018.84" font-family="Helvetica,sans-Serif" font-size="10.00">LSM1x0A_LoRaWAN::recover</text>
<text text-anchor="middle" x="568.25" y="-1006.84" font-family="Helvetica,sans-Serif" font-size="10.00">Connection</text>
</a>
</g>
</g>
<!-- Node3&#45;&gt;Node8 -->
<g id="edge7_Node000003_Node000008" class="edge">
<title>Node3&#45;&gt;Node8</title>
<g id="a_edge7_Node000003_Node000008"><a xlink:title=" ">
<path fill="none" stroke="#63b8ff" d="M407.7,-868.74C419.89,-896.64 448.25,-953.53 489,-986.34 492.87,-989.46 497.09,-992.27 501.51,-994.81"/>
<polygon fill="#63b8ff" stroke="#63b8ff" points="499.6,-997.77 510.09,-999.26 502.82,-991.55 499.6,-997.77"/>
</a>
</g>
</g>
<!-- Node12 -->
<g id="Node000012" class="node">
<title>Node12</title>
<g id="a_Node000012"><a xlink:href="../../d5/d72/classLSM1x0A__LoRaWAN.html#ae3be4ce59dfa200369733317df356e97" target="_top" xlink:title="Pushes the RAM&#45;cached variables back down into the hardware module. Restores the operational state af...">
<polygon fill="white" stroke="#666666" points="641.5,-388.34 495,-388.34 495,-356.34 641.5,-356.34 641.5,-388.34"/>
<text text-anchor="start" x="503" y="-374.84" font-family="Helvetica,sans-Serif" font-size="10.00">LSM1x0A_LoRaWAN::restore</text>
<text text-anchor="middle" x="568.25" y="-362.84" font-family="Helvetica,sans-Serif" font-size="10.00">Config</text>
</a>
</g>
</g>
<!-- Node3&#45;&gt;Node12 -->
<g id="edge16_Node000003_Node000012" class="edge">
<title>Node3&#45;&gt;Node12</title>
<g id="a_edge16_Node000003_Node000012"><a xlink:title=" ">
<path fill="none" stroke="#63b8ff" d="M406.63,-836.1C430.95,-765.89 527.17,-488.06 557.82,-399.57"/>
<polygon fill="#63b8ff" stroke="#63b8ff" points="561.08,-400.86 561.04,-390.26 554.46,-398.57 561.08,-400.86"/>
</a>
</g>
</g>
<!-- Node28 -->
<g id="Node000028" class="node">
<title>Node28</title>
<g id="a_Node000028"><a xlink:href="../../d5/d72/classLSM1x0A__LoRaWAN.html#ace4b04396f1de1f4a54f513f5f378db7" target="_top" xlink:title="Manually overrides the internal joined state tracker.">
<polygon fill="white" stroke="#666666" points="647.5,-944.34 489,-944.34 489,-924.34 647.5,-924.34 647.5,-944.34"/>
<text text-anchor="middle" x="568.25" y="-930.84" font-family="Helvetica,sans-Serif" font-size="10.00">LSM1x0A_LoRaWAN::setJoined</text>
</a>
</g>
</g>
<!-- Node3&#45;&gt;Node28 -->
<g id="edge49_Node000003_Node000028" class="edge">
<title>Node3&#45;&gt;Node28</title>
<g id="a_edge49_Node000003_Node000028"><a xlink:title=" ">
<path fill="none" stroke="#63b8ff" d="M422.04,-868.7C439.26,-881.46 464.67,-898.88 489,-910.34 497.04,-914.13 505.83,-917.5 514.52,-920.43"/>
<polygon fill="#63b8ff" stroke="#63b8ff" points="513.37,-923.74 523.96,-923.45 515.5,-917.07 513.37,-923.74"/>
</a>
</g>
</g>
<!-- Node29 -->
<g id="Node000029" class="node">
<title>Node29</title>
<g id="a_Node000029"><a xlink:href="../../d8/d92/classLSM1x0A__Controller.html#a11ad21cb5ca33ec51346764a23bd485e" target="_top" xlink:title="Performs a software reset (ATZ Command).">
<polygon fill="white" stroke="#666666" points="621.25,-780.34 515.25,-780.34 515.25,-748.34 621.25,-748.34 621.25,-780.34"/>
<text text-anchor="start" x="523.25" y="-766.84" font-family="Helvetica,sans-Serif" font-size="10.00">LSM1x0A_Controller</text>
<text text-anchor="middle" x="568.25" y="-754.84" font-family="Helvetica,sans-Serif" font-size="10.00">::softwareReset</text>
</a>
</g>
</g>
<!-- Node3&#45;&gt;Node29 -->
<g id="edge50_Node000003_Node000029" class="edge">
<title>Node3&#45;&gt;Node29</title>
<g id="a_edge50_Node000003_Node000029"><a xlink:title=" ">
<path fill="none" stroke="#63b8ff" d="M422.97,-835.92C440.3,-823.46 465.4,-806.46 489,-794.34 495.29,-791.12 502,-788.03 508.76,-785.16"/>
<polygon fill="#63b8ff" stroke="#63b8ff" points="510.03,-788.42 517.96,-781.39 507.38,-781.94 510.03,-788.42"/>
</a>
</g>
</g>
<!-- Node6 -->
<g id="Node000006" class="node">
<title>Node6</title>
<g id="a_Node000006"><a xlink:href="../../d6/d3c/classLSM1x0A__AtParser.html#ad2839120da13e56132b95019419be1e5" target="_top" xlink:title="Waits for an event (like BOOTALERT) without sending any command. Useful for hardware reset where the ...">
<polygon fill="white" stroke="#666666" points="850.62,-868.34 710.12,-868.34 710.12,-836.34 850.62,-836.34 850.62,-868.34"/>
<text text-anchor="start" x="718.12" y="-854.84" font-family="Helvetica,sans-Serif" font-size="10.00">LSM1x0A_AtParser::waitFor</text>
<text text-anchor="middle" x="780.38" y="-842.84" font-family="Helvetica,sans-Serif" font-size="10.00">Event</text>
</a>
</g>
</g>
<!-- Node5&#45;&gt;Node6 -->
<g id="edge5_Node000005_Node000006" class="edge">
<title>Node5&#45;&gt;Node6</title>
<g id="a_edge5_Node000005_Node000006"><a xlink:title=" ">
<path fill="none" stroke="#63b8ff" d="M621.73,-852.34C644.92,-852.34 672.72,-852.34 698.46,-852.34"/>
<polygon fill="#63b8ff" stroke="#63b8ff" points="698.22,-855.84 708.22,-852.34 698.22,-848.84 698.22,-855.84"/>
</a>
</g>
</g>
<!-- Node9 -->
<g id="Node000009" class="node">
<title>Node9</title>
<g id="a_Node000009"><a xlink:href="../../d5/d72/classLSM1x0A__LoRaWAN.html#a59f781f3cfd30c11cd3973bcb10a7baa" target="_top" xlink:title="Initiates a LoRaWAN Network Join procedure. This is a blocking function until the module fires an eve...">
<polygon fill="white" stroke="#666666" points="846.12,-982.34 714.62,-982.34 714.62,-962.34 846.12,-962.34 846.12,-982.34"/>
<text text-anchor="middle" x="780.38" y="-968.84" font-family="Helvetica,sans-Serif" font-size="10.00">LSM1x0A_LoRaWAN::join</text>
</a>
</g>
</g>
<!-- Node8&#45;&gt;Node9 -->
<g id="edge8_Node000008_Node000009" class="edge">
<title>Node8&#45;&gt;Node9</title>
<g id="a_edge8_Node000008_Node000009"><a xlink:title=" ">
<path fill="none" stroke="#63b8ff" d="M643.04,-1000.89C667.63,-995.74 694.74,-990.07 718.26,-985.14"/>
<polygon fill="#63b8ff" stroke="#63b8ff" points="718.94,-988.57 728.01,-983.1 717.51,-981.72 718.94,-988.57"/>
</a>
</g>
</g>
<!-- Node9&#45;&gt;Node2 -->
<g id="edge11_Node000009_Node000002" class="edge">
<title>Node9&#45;&gt;Node2</title>
<g id="a_edge11_Node000009_Node000002"><a xlink:title=" ">
<path fill="none" stroke="#63b8ff" d="M765.28,-982.69C742.12,-998.98 693.92,-1029.93 647.5,-1041.34 579.09,-1058.16 553.07,-1070.62 489,-1041.34 401.31,-1001.28 389.38,-963.95 347,-877.34 276.13,-732.51 262.33,-534.44 259.65,-462.69"/>
<polygon fill="#63b8ff" stroke="#63b8ff" points="263.16,-462.94 259.34,-453.06 256.16,-463.16 263.16,-462.94"/>
</a>
</g>
</g>
<!-- Node9&#45;&gt;Node3 -->
<g id="edge10_Node000009_Node000003" class="edge">
<title>Node9&#45;&gt;Node3</title>
<g id="a_edge10_Node000009_Node000003"><a xlink:title=" ">
<path fill="none" stroke="#63b8ff" d="M714.28,-981.83C652.9,-987.71 559.97,-988.48 489,-953.34 455.99,-937 430.14,-902.22 415.23,-878.08"/>
<polygon fill="#63b8ff" stroke="#63b8ff" points="418.41,-876.57 410.29,-869.76 412.39,-880.15 418.41,-876.57"/>
</a>
</g>
</g>
<!-- Node9&#45;&gt;Node4 -->
<g id="edge9_Node000009_Node000004" class="edge">
<title>Node9&#45;&gt;Node4</title>
<g id="a_edge9_Node000009_Node000004"><a xlink:title=" ">
<path fill="none" stroke="#63b8ff" d="M818.93,-961.87C852.87,-952.4 903.53,-938.27 943.76,-927.05"/>
<polygon fill="#63b8ff" stroke="#63b8ff" points="944.65,-930.44 953.35,-924.38 942.77,-923.69 944.65,-930.44"/>
</a>
</g>
</g>
<!-- Node10 -->
<g id="Node000010" class="node">
<title>Node10</title>
<g id="a_Node000010"><a xlink:href="../../d5/d72/classLSM1x0A__LoRaWAN.html#a3fdd1ac318a5ad2559323e5d57e36a5e" target="_top" xlink:title="Enables or disables specific sub&#45;bands for regions supporting Channel Masks (e.g.,...">
<polygon fill="white" stroke="#666666" points="1103.25,-764.34 913.25,-764.34 913.25,-744.34 1103.25,-744.34 1103.25,-764.34"/>
<text text-anchor="middle" x="1008.25" y="-750.84" font-family="Helvetica,sans-Serif" font-size="10.00">LSM1x0A_LoRaWAN::setChannelMask</text>
</a>
</g>
</g>
<!-- Node9&#45;&gt;Node10 -->
<g id="edge12_Node000009_Node000010" class="edge">
<title>Node9&#45;&gt;Node10</title>
<g id="a_edge12_Node000009_Node000010"><a xlink:title=" ">
<path fill="none" stroke="#63b8ff" d="M791.97,-962.12C827.45,-927.87 942.49,-816.84 988.24,-772.69"/>
<polygon fill="#63b8ff" stroke="#63b8ff" points="990.56,-775.31 995.33,-765.85 985.7,-770.28 990.56,-775.31"/>
</a>
</g>
</g>
<!-- Node11 -->
<g id="Node000011" class="node">
<title>Node11</title>
<g id="a_Node000011"><a xlink:href="../../d8/d92/classLSM1x0A__Controller.html#a62476e30e50c7fe120aeb8df4b828675" target="_top" xlink:title="Synchronously/blockingly waits for an asynchronous event to occur. Useful for wrapping commands like ...">
<polygon fill="white" stroke="#666666" points="1061.25,-988.34 955.25,-988.34 955.25,-956.34 1061.25,-956.34 1061.25,-988.34"/>
<text text-anchor="start" x="963.25" y="-974.84" font-family="Helvetica,sans-Serif" font-size="10.00">LSM1x0A_Controller</text>
<text text-anchor="middle" x="1008.25" y="-962.84" font-family="Helvetica,sans-Serif" font-size="10.00">::waitForEvent</text>
</a>
</g>
</g>
<!-- Node9&#45;&gt;Node11 -->
<g id="edge15_Node000009_Node000011" class="edge">
<title>Node9&#45;&gt;Node11</title>
<g id="a_edge15_Node000009_Node000011"><a xlink:title=" ">
<path fill="none" stroke="#63b8ff" d="M846.4,-972.34C876.91,-972.34 913.15,-972.34 943.49,-972.34"/>
<polygon fill="#63b8ff" stroke="#63b8ff" points="943.3,-975.84 953.3,-972.34 943.3,-968.84 943.3,-975.84"/>
</a>
</g>
</g>
<!-- Node10&#45;&gt;Node2 -->
<g id="edge14_Node000010_Node000002" class="edge">
<title>Node10&#45;&gt;Node2</title>
<g id="a_edge14_Node000010_Node000002"><a xlink:title=" ">
<path fill="none" stroke="#63b8ff" d="M912.96,-752.84C750.02,-748.19 425.61,-729.25 347,-652.34 292.83,-599.35 270.89,-508.47 262.96,-462.98"/>
<polygon fill="#63b8ff" stroke="#63b8ff" points="266.43,-462.48 261.37,-453.17 259.52,-463.61 266.43,-462.48"/>
</a>
</g>
</g>
<!-- Node10&#45;&gt;Node7 -->
<g id="edge13_Node000010_Node000007" class="edge">
<title>Node10&#45;&gt;Node7</title>
<g id="a_edge13_Node000010_Node000007"><a xlink:title=" ">
<path fill="none" stroke="#63b8ff" d="M1088.9,-764.82C1101.62,-766.5 1114.84,-768.23 1127.72,-769.93"/>
<polygon fill="#63b8ff" stroke="#63b8ff" points="1127.06,-773.37 1137.43,-771.21 1127.98,-766.43 1127.06,-773.37"/>
</a>
</g>
</g>
<!-- Node12&#45;&gt;Node1 -->
<g id="edge46_Node000012_Node000001" class="edge">
<title>Node12&#45;&gt;Node1</title>
<g id="a_edge46_Node000012_Node000001"><a xlink:title=" ">
<path fill="none" stroke="#63b8ff" d="M494.52,-367.66C410.78,-362.28 272.93,-353.41 180.71,-347.47"/>
<polygon fill="#63b8ff" stroke="#63b8ff" points="181.13,-343.99 170.92,-346.84 180.68,-350.98 181.13,-343.99"/>
</a>
</g>
</g>
<!-- Node12&#45;&gt;Node10 -->
<g id="edge21_Node000012_Node000010" class="edge">
<title>Node12&#45;&gt;Node10</title>
<g id="a_edge21_Node000012_Node000010"><a xlink:title=" ">
<path fill="none" stroke="#63b8ff" d="M641.78,-365C722.05,-358.61 844.44,-354.61 877.25,-385.34 931.73,-436.38 867.43,-660.41 913.25,-719.34 919.99,-728.02 929.12,-734.54 939.05,-739.45"/>
<polygon fill="#63b8ff" stroke="#63b8ff" points="937.66,-742.66 948.23,-743.4 940.43,-736.23 937.66,-742.66"/>
</a>
</g>
</g>
<!-- Node13 -->
<g id="Node000013" class="node">
<title>Node13</title>
<g id="a_Node000013"><a xlink:href="../../d5/d72/classLSM1x0A__LoRaWAN.html#af0baa3db4c7fab580d6b19a9e92472f6" target="_top" xlink:title="Enables or disables Adaptive Data Rate (ADR).">
<polygon fill="white" stroke="#666666" points="856.25,-540.34 704.5,-540.34 704.5,-520.34 856.25,-520.34 856.25,-540.34"/>
<text text-anchor="middle" x="780.38" y="-526.84" font-family="Helvetica,sans-Serif" font-size="10.00">LSM1x0A_LoRaWAN::setADR</text>
</a>
</g>
</g>
<!-- Node12&#45;&gt;Node13 -->
<g id="edge17_Node000012_Node000013" class="edge">
<title>Node12&#45;&gt;Node13</title>
<g id="a_edge17_Node000012_Node000013"><a xlink:title=" ">
<path fill="none" stroke="#63b8ff" d="M577.7,-388.75C593.9,-418.41 632.3,-480.71 683.5,-511.34 686.7,-513.26 690.06,-514.99 693.53,-516.55"/>
<polygon fill="#63b8ff" stroke="#63b8ff" points="692.21,-519.79 702.79,-520.17 694.76,-513.27 692.21,-519.79"/>
</a>
</g>
</g>
<!-- Node14 -->
<g id="Node000014" class="node">
<title>Node14</title>
<g id="a_Node000014"><a xlink:href="../../d5/d72/classLSM1x0A__LoRaWAN.html#a5365ed1596eb84ebf1e3b33b4a10c788" target="_top" xlink:title="Sets the LoRaWAN operational frequency band.">
<polygon fill="white" stroke="#666666" points="856.62,-502.34 704.12,-502.34 704.12,-482.34 856.62,-482.34 856.62,-502.34"/>
<text text-anchor="middle" x="780.38" y="-488.84" font-family="Helvetica,sans-Serif" font-size="10.00">LSM1x0A_LoRaWAN::setBand</text>
</a>
</g>
</g>
<!-- Node12&#45;&gt;Node14 -->
<g id="edge19_Node000012_Node000014" class="edge">
<title>Node12&#45;&gt;Node14</title>
<g id="a_edge19_Node000012_Node000014"><a xlink:title=" ">
<path fill="none" stroke="#63b8ff" d="M582.51,-388.55C602.1,-411.31 641.03,-452.32 683.5,-473.34 687.18,-475.16 691.01,-476.81 694.95,-478.3"/>
<polygon fill="#63b8ff" stroke="#63b8ff" points="693.52,-481.51 704.11,-481.4 695.76,-474.88 693.52,-481.51"/>
</a>
</g>
</g>
<!-- Node15 -->
<g id="Node000015" class="node">
<title>Node15</title>
<g id="a_Node000015"><a xlink:href="../../d5/d72/classLSM1x0A__LoRaWAN.html#a9d9285c43414337a0ccb3a6cd7ca06e6" target="_top" xlink:title="Configures the number of retries for Confirmed uplinks.">
<polygon fill="white" stroke="#666666" points="862.62,-464.34 698.12,-464.34 698.12,-432.34 862.62,-432.34 862.62,-464.34"/>
<text text-anchor="start" x="706.12" y="-450.84" font-family="Helvetica,sans-Serif" font-size="10.00">LSM1x0A_LoRaWAN::setConfirm</text>
<text text-anchor="middle" x="780.38" y="-438.84" font-family="Helvetica,sans-Serif" font-size="10.00">Retry</text>
</a>
</g>
</g>
<!-- Node12&#45;&gt;Node15 -->
<g id="edge22_Node000012_Node000015" class="edge">
<title>Node12&#45;&gt;Node15</title>
<g id="a_edge22_Node000012_Node000015"><a xlink:title=" ">
<path fill="none" stroke="#63b8ff" d="M602.16,-388.77C624.67,-399.58 655.42,-413.49 683.5,-423.34 688.79,-425.2 694.29,-426.99 699.86,-428.7"/>
<polygon fill="#63b8ff" stroke="#63b8ff" points="698.58,-431.97 709.16,-431.45 700.57,-425.26 698.58,-431.97"/>
</a>
</g>
</g>
<!-- Node16 -->
<g id="Node000016" class="node">
<title>Node16</title>
<g id="a_Node000016"><a xlink:href="../../d5/d72/classLSM1x0A__LoRaWAN.html#a56345ceeafa0b9059d6de4e69eddc82e" target="_top" xlink:title="Sets the Data Rate (DR) of the module.">
<polygon fill="white" stroke="#666666" points="866.38,-414.34 694.38,-414.34 694.38,-394.34 866.38,-394.34 866.38,-414.34"/>
<text text-anchor="middle" x="780.38" y="-400.84" font-family="Helvetica,sans-Serif" font-size="10.00">LSM1x0A_LoRaWAN::setDataRate</text>
</a>
</g>
</g>
<!-- Node12&#45;&gt;Node16 -->
<g id="edge24_Node000012_Node000016" class="edge">
<title>Node12&#45;&gt;Node16</title>
<g id="a_edge24_Node000012_Node000016"><a xlink:title=" ">
<path fill="none" stroke="#63b8ff" d="M641.86,-383.4C660.41,-386.23 680.47,-389.28 699.37,-392.16"/>
<polygon fill="#63b8ff" stroke="#63b8ff" points="698.75,-395.61 709.16,-393.65 699.8,-388.69 698.75,-395.61"/>
</a>
</g>
</g>
<!-- Node17 -->
<g id="Node000017" class="node">
<title>Node17</title>
<g id="a_Node000017"><a xlink:href="../../d5/d72/classLSM1x0A__LoRaWAN.html#a8494083816ab885cb07fc3b08de029f4" target="_top" xlink:title="Sets the LoRaWAN Device Address (DevAddr) for ABP mode.">
<polygon fill="white" stroke="#666666" points="864.5,-338.34 696.25,-338.34 696.25,-318.34 864.5,-318.34 864.5,-338.34"/>
<text text-anchor="middle" x="780.38" y="-324.84" font-family="Helvetica,sans-Serif" font-size="10.00">LSM1x0A_LoRaWAN::setDevAddr</text>
</a>
</g>
</g>
<!-- Node12&#45;&gt;Node17 -->
<g id="edge26_Node000012_Node000017" class="edge">
<title>Node12&#45;&gt;Node17</title>
<g id="a_edge26_Node000012_Node000017"><a xlink:title=" ">
<path fill="none" stroke="#63b8ff" d="M641.86,-357.14C666.74,-351.93 694.32,-346.15 718.21,-341.15"/>
<polygon fill="#63b8ff" stroke="#63b8ff" points="718.7,-344.63 727.77,-339.15 717.27,-337.77 718.7,-344.63"/>
</a>
</g>
</g>
<!-- Node18 -->
<g id="Node000018" class="node">
<title>Node18</title>
<g id="a_Node000018"><a xlink:href="../../d5/d72/classLSM1x0A__LoRaWAN.html#ad320634e52d7ea907043cc50dd37c5b0" target="_top" xlink:title="Sets the LoRaWAN Device EUI (DevEUI).">
<polygon fill="white" stroke="#666666" points="863,-300.34 697.75,-300.34 697.75,-280.34 863,-280.34 863,-300.34"/>
<text text-anchor="middle" x="780.38" y="-286.84" font-family="Helvetica,sans-Serif" font-size="10.00">LSM1x0A_LoRaWAN::setDevEUI</text>
</a>
</g>
</g>
<!-- Node12&#45;&gt;Node18 -->
<g id="edge28_Node000012_Node000018" class="edge">
<title>Node12&#45;&gt;Node18</title>
<g id="a_edge28_Node000012_Node000018"><a xlink:title=" ">
<path fill="none" stroke="#63b8ff" d="M593.6,-356C616.04,-341.67 650.73,-321.3 683.5,-309.34 689.28,-307.24 695.34,-305.34 701.5,-303.65"/>
<polygon fill="#63b8ff" stroke="#63b8ff" points="702.34,-307.05 711.16,-301.18 700.61,-300.26 702.34,-307.05"/>
</a>
</g>
</g>
<!-- Node19 -->
<g id="Node000019" class="node">
<title>Node19</title>
<g id="a_Node000019"><a xlink:href="../../d5/d72/classLSM1x0A__LoRaWAN.html#a031023b0d2dd5db3c51c2db6ae7801cc" target="_top" xlink:title="Enables or disables the Duty Cycle limitation (EU regions mostly).">
<polygon fill="white" stroke="#666666" points="855.88,-262.34 704.88,-262.34 704.88,-230.34 855.88,-230.34 855.88,-262.34"/>
<text text-anchor="start" x="712.88" y="-248.84" font-family="Helvetica,sans-Serif" font-size="10.00">LSM1x0A_LoRaWAN::setDuty</text>
<text text-anchor="middle" x="780.38" y="-236.84" font-family="Helvetica,sans-Serif" font-size="10.00">Cycle</text>
</a>
</g>
</g>
<!-- Node12&#45;&gt;Node19 -->
<g id="edge30_Node000012_Node000019" class="edge">
<title>Node12&#45;&gt;Node19</title>
<g id="a_edge30_Node000012_Node000019"><a xlink:title=" ">
<path fill="none" stroke="#63b8ff" d="M583.02,-356.1C602.92,-333.68 641.91,-293.5 683.5,-271.34 686.91,-269.53 690.45,-267.84 694.08,-266.27"/>
<polygon fill="#63b8ff" stroke="#63b8ff" points="695.09,-269.64 703.11,-262.71 692.52,-263.13 695.09,-269.64"/>
</a>
</g>
</g>
<!-- Node20 -->
<g id="Node000020" class="node">
<title>Node20</title>
<g id="a_Node000020"><a xlink:href="../../d5/d72/classLSM1x0A__LoRaWAN.html#a6b179d5825c49af0f391dfc539912f64" target="_top" xlink:title="Sets the delay for the Join1 receive window.">
<polygon fill="white" stroke="#666666" points="857,-212.34 703.75,-212.34 703.75,-180.34 857,-180.34 857,-212.34"/>
<text text-anchor="start" x="711.75" y="-198.84" font-family="Helvetica,sans-Serif" font-size="10.00">LSM1x0A_LoRaWAN::setJoin1</text>
<text text-anchor="middle" x="780.38" y="-186.84" font-family="Helvetica,sans-Serif" font-size="10.00">Delay</text>
</a>
</g>
</g>
<!-- Node12&#45;&gt;Node20 -->
<g id="edge32_Node000012_Node000020" class="edge">
<title>Node12&#45;&gt;Node20</title>
<g id="a_edge32_Node000012_Node000020"><a xlink:title=" ">
<path fill="none" stroke="#63b8ff" d="M576.78,-356.3C592.2,-325.22 630.47,-256.78 683.5,-221.34 686.57,-219.29 689.81,-217.4 693.16,-215.67"/>
<polygon fill="#63b8ff" stroke="#63b8ff" points="694.48,-218.92 702.1,-211.56 691.56,-212.56 694.48,-218.92"/>
</a>
</g>
</g>
<!-- Node21 -->
<g id="Node000021" class="node">
<title>Node21</title>
<g id="a_Node000021"><a xlink:href="../../d5/d72/classLSM1x0A__LoRaWAN.html#a4545d0caad41558cdb9bae8286b104d8" target="_top" xlink:title="Sets the delay for the Join2 receive window.">
<polygon fill="white" stroke="#666666" points="857,-162.34 703.75,-162.34 703.75,-130.34 857,-130.34 857,-162.34"/>
<text text-anchor="start" x="711.75" y="-148.84" font-family="Helvetica,sans-Serif" font-size="10.00">LSM1x0A_LoRaWAN::setJoin2</text>
<text text-anchor="middle" x="780.38" y="-136.84" font-family="Helvetica,sans-Serif" font-size="10.00">Delay</text>
</a>
</g>
</g>
<!-- Node12&#45;&gt;Node21 -->
<g id="edge34_Node000012_Node000021" class="edge">
<title>Node12&#45;&gt;Node21</title>
<g id="a_edge34_Node000012_Node000021"><a xlink:title=" ">
<path fill="none" stroke="#63b8ff" d="M573.77,-355.88C585.23,-317.31 619.17,-220.7 683.5,-171.34 686.6,-168.97 689.9,-166.82 693.34,-164.87"/>
<polygon fill="#63b8ff" stroke="#63b8ff" points="694.61,-168.15 702.02,-160.57 691.51,-161.87 694.61,-168.15"/>
</a>
</g>
</g>
<!-- Node22 -->
<g id="Node000022" class="node">
<title>Node22</title>
<g id="a_Node000022"><a xlink:href="../../d5/d72/classLSM1x0A__LoRaWAN.html#a06bd50723ec1eb7e144c9141b2ec86fc" target="_top" xlink:title="Sets the LoRaWAN Network ID (NetID).">
<polygon fill="white" stroke="#666666" points="860.75,-112.34 700,-112.34 700,-92.34 860.75,-92.34 860.75,-112.34"/>
<text text-anchor="middle" x="780.38" y="-98.84" font-family="Helvetica,sans-Serif" font-size="10.00">LSM1x0A_LoRaWAN::setNwkID</text>
</a>
</g>
</g>
<!-- Node12&#45;&gt;Node22 -->
<g id="edge36_Node000012_Node000022" class="edge">
<title>Node12&#45;&gt;Node22</title>
<g id="a_edge36_Node000012_Node000022"><a xlink:title=" ">
<path fill="none" stroke="#63b8ff" d="M571.51,-356.03C578.67,-310.84 605.23,-183.31 683.5,-121.34 685.5,-119.76 687.6,-118.3 689.77,-116.95"/>
<polygon fill="#63b8ff" stroke="#63b8ff" points="691.17,-120.16 698.4,-112.42 687.92,-113.97 691.17,-120.16"/>
</a>
</g>
</g>
<!-- Node23 -->
<g id="Node000023" class="node">
<title>Node23</title>
<g id="a_Node000023"><a xlink:href="../../d5/d72/classLSM1x0A__LoRaWAN.html#aa70ada64d28ecca216bb62268e502adf" target="_top" xlink:title="Sets the delay for the RX1 receive window.">
<polygon fill="white" stroke="#666666" points="867.12,-74.34 693.62,-74.34 693.62,-54.34 867.12,-54.34 867.12,-74.34"/>
<text text-anchor="middle" x="780.38" y="-60.84" font-family="Helvetica,sans-Serif" font-size="10.00">LSM1x0A_LoRaWAN::setRx1Delay</text>
</a>
</g>
</g>
<!-- Node12&#45;&gt;Node23 -->
<g id="edge38_Node000012_Node000023" class="edge">
<title>Node12&#45;&gt;Node23</title>
<g id="a_edge38_Node000012_Node000023"><a xlink:title=" ">
<path fill="none" stroke="#63b8ff" d="M570.43,-356.16C574.95,-306.72 595.65,-156.59 683.5,-83.34 684.64,-82.4 685.81,-81.49 687.01,-80.63"/>
<polygon fill="#63b8ff" stroke="#63b8ff" points="688.68,-83.71 695.44,-75.55 685.07,-77.71 688.68,-83.71"/>
</a>
</g>
</g>
<!-- Node24 -->
<g id="Node000024" class="node">
<title>Node24</title>
<g id="a_Node000024"><a xlink:href="../../d5/d72/classLSM1x0A__LoRaWAN.html#a2cf4eff0181b6107d082bccefa24217b" target="_top" xlink:title="Sets the Data Rate (DR) specifically for the RX2 window.">
<polygon fill="white" stroke="#666666" points="875.38,-36.34 685.38,-36.34 685.38,-16.34 875.38,-16.34 875.38,-36.34"/>
<text text-anchor="middle" x="780.38" y="-22.84" font-family="Helvetica,sans-Serif" font-size="10.00">LSM1x0A_LoRaWAN::setRx2DataRate</text>
</a>
</g>
</g>
<!-- Node12&#45;&gt;Node24 -->
<g id="edge40_Node000012_Node000024" class="edge">
<title>Node12&#45;&gt;Node24</title>
<g id="a_edge40_Node000012_Node000024"><a xlink:title=" ">
<path fill="none" stroke="#63b8ff" d="M569.61,-356.02C571.71,-302.34 586.11,-129.93 683.5,-45.34 684.46,-44.51 685.45,-43.71 686.46,-42.94"/>
<polygon fill="#63b8ff" stroke="#63b8ff" points="688.27,-45.93 694.85,-37.63 684.53,-40.02 688.27,-45.93"/>
</a>
</g>
</g>
<!-- Node25 -->
<g id="Node000025" class="node">
<title>Node25</title>
<g id="a_Node000025"><a xlink:href="../../d5/d72/classLSM1x0A__LoRaWAN.html#a42d2137b475b57e19d891a5f1ac93221" target="_top" xlink:title="Sets the delay for the RX2 receive window.">
<polygon fill="white" stroke="#666666" points="867.12,-666.34 693.62,-666.34 693.62,-646.34 867.12,-646.34 867.12,-666.34"/>
<text text-anchor="middle" x="780.38" y="-652.84" font-family="Helvetica,sans-Serif" font-size="10.00">LSM1x0A_LoRaWAN::setRx2Delay</text>
</a>
</g>
</g>
<!-- Node12&#45;&gt;Node25 -->
<g id="edge42_Node000012_Node000025" class="edge">
<title>Node12&#45;&gt;Node25</title>
<g id="a_edge42_Node000012_Node000025"><a xlink:title=" ">
<path fill="none" stroke="#63b8ff" d="M571.06,-388.53C577.21,-435.26 601.67,-571.21 683.5,-637.34 684.82,-638.41 686.18,-639.42 687.58,-640.38"/>
<polygon fill="#63b8ff" stroke="#63b8ff" points="685.6,-643.28 696.01,-645.24 689.1,-637.22 685.6,-643.28"/>
</a>
</g>
</g>
<!-- Node26 -->
<g id="Node000026" class="node">
<title>Node26</title>
<g id="a_Node000026"><a xlink:href="../../d5/d72/classLSM1x0A__LoRaWAN.html#a689f7dfda1dfeae11ea397c2ddf2ad37" target="_top" xlink:title="Sets the precise frequency for the RX2 window.">
<polygon fill="white" stroke="#666666" points="877.25,-628.34 683.5,-628.34 683.5,-608.34 877.25,-608.34 877.25,-628.34"/>
<text text-anchor="middle" x="780.38" y="-614.84" font-family="Helvetica,sans-Serif" font-size="10.00">LSM1x0A_LoRaWAN::setRx2Frequency</text>
</a>
</g>
</g>
<!-- Node12&#45;&gt;Node26 -->
<g id="edge44_Node000012_Node000026" class="edge">
<title>Node12&#45;&gt;Node26</title>
<g id="a_edge44_Node000012_Node000026"><a xlink:title=" ">
<path fill="none" stroke="#63b8ff" d="M572.34,-388.64C581.26,-430.87 611.15,-544.34 683.5,-599.34 685.03,-600.51 686.62,-601.61 688.25,-602.65"/>
<polygon fill="#63b8ff" stroke="#63b8ff" points="686.22,-605.53 696.68,-607.21 689.55,-599.37 686.22,-605.53"/>
</a>
</g>
</g>
<!-- Node27 -->
<g id="Node000027" class="node">
<title>Node27</title>
<g id="a_Node000027"><a xlink:href="../../d5/d72/classLSM1x0A__LoRaWAN.html#a059fd6a9356c4ecadd5a98294da5952d" target="_top" xlink:title="Configures the number of repetitions for Unconfirmed uplinks.">
<polygon fill="white" stroke="#666666" points="867.88,-590.34 692.88,-590.34 692.88,-558.34 867.88,-558.34 867.88,-590.34"/>
<text text-anchor="start" x="700.88" y="-576.84" font-family="Helvetica,sans-Serif" font-size="10.00">LSM1x0A_LoRaWAN::setUnconfirm</text>
<text text-anchor="middle" x="780.38" y="-564.84" font-family="Helvetica,sans-Serif" font-size="10.00">Retry</text>
</a>
</g>
</g>
<!-- Node12&#45;&gt;Node27 -->
<g id="edge47_Node000012_Node000027" class="edge">
<title>Node12&#45;&gt;Node27</title>
<g id="a_edge47_Node000012_Node000027"><a xlink:title=" ">
<path fill="none" stroke="#63b8ff" d="M575.05,-388.68C588.39,-423.81 624.68,-506.79 683.5,-549.34 685.08,-550.49 686.71,-551.58 688.38,-552.62"/>
<polygon fill="#63b8ff" stroke="#63b8ff" points="686.56,-555.61 697.01,-557.33 689.91,-549.47 686.56,-555.61"/>
</a>
</g>
</g>
<!-- Node13&#45;&gt;Node2 -->
<g id="edge18_Node000013_Node000002" class="edge">
<title>Node13&#45;&gt;Node2</title>
<g id="a_edge18_Node000013_Node000002"><a xlink:title=" ">
<path fill="none" stroke="#63b8ff" d="M704.3,-526.74C617.07,-521.12 469.43,-507.14 347,-473.34 331.79,-469.14 315.77,-462.84 301.63,-456.57"/>
<polygon fill="#63b8ff" stroke="#63b8ff" points="303.16,-453.42 292.61,-452.45 300.25,-459.79 303.16,-453.42"/>
</a>
</g>
</g>
<!-- Node14&#45;&gt;Node2 -->
<g id="edge20_Node000014_Node000002" class="edge">
<title>Node14&#45;&gt;Node2</title>
<g id="a_edge20_Node000014_Node000002"><a xlink:title=" ">
<path fill="none" stroke="#63b8ff" d="M703.7,-488.09C617.15,-482.63 471.34,-471.61 347,-453.34 339.04,-452.18 330.72,-450.75 322.51,-449.21"/>
<polygon fill="#63b8ff" stroke="#63b8ff" points="323.38,-445.82 312.9,-447.35 322.05,-452.69 323.38,-445.82"/>
</a>
</g>
</g>
<!-- Node15&#45;&gt;Node2 -->
<g id="edge23_Node000015_Node000002" class="edge">
<title>Node15&#45;&gt;Node2</title>
<g id="a_edge23_Node000015_Node000002"><a xlink:title=" ">
<path fill="none" stroke="#63b8ff" d="M697.85,-446.31C594.09,-443.72 417.03,-439.29 322.65,-436.93"/>
<polygon fill="#63b8ff" stroke="#63b8ff" points="322.88,-433.44 312.79,-436.69 322.7,-440.44 322.88,-433.44"/>
</a>
</g>
</g>
<!-- Node16&#45;&gt;Node2 -->
<g id="edge25_Node000016_Node000002" class="edge">
<title>Node16&#45;&gt;Node2</title>
<g id="a_edge25_Node000016_Node000002"><a xlink:title=" ">
<path fill="none" stroke="#63b8ff" d="M694.14,-409.42C589.86,-415.63 415.74,-426.01 322.51,-431.56"/>
<polygon fill="#63b8ff" stroke="#63b8ff" points="322.56,-428.05 312.79,-432.14 322.98,-435.04 322.56,-428.05"/>
</a>
</g>
</g>
<!-- Node17&#45;&gt;Node2 -->
<g id="edge27_Node000017_Node000002" class="edge">
<title>Node17&#45;&gt;Node2</title>
<g id="a_edge27_Node000017_Node000002"><a xlink:title=" ">
<path fill="none" stroke="#63b8ff" d="M695.84,-327.22C637.31,-328.02 557.6,-332.34 489,-347.34 421.72,-362.06 348.04,-393.1 302.66,-414.09"/>
<polygon fill="#63b8ff" stroke="#63b8ff" points="301.25,-410.89 293.68,-418.29 304.22,-417.23 301.25,-410.89"/>
</a>
</g>
</g>
<!-- Node18&#45;&gt;Node2 -->
<g id="edge29_Node000018_Node000002" class="edge">
<title>Node18&#45;&gt;Node2</title>
<g id="a_edge29_Node000018_Node000002"><a xlink:title=" ">
<path fill="none" stroke="#63b8ff" d="M697.31,-286.57C606.6,-285.82 458.58,-294.9 347,-352.34 319.72,-366.39 294.92,-391.43 278.65,-410.35"/>
<polygon fill="#63b8ff" stroke="#63b8ff" points="276.06,-407.99 272.34,-417.91 281.44,-412.47 276.06,-407.99"/>
</a>
</g>
</g>
<!-- Node19&#45;&gt;Node2 -->
<g id="edge31_Node000019_Node000002" class="edge">
<title>Node19&#45;&gt;Node2</title>
<g id="a_edge31_Node000019_Node000002"><a xlink:title=" ">
<path fill="none" stroke="#63b8ff" d="M704.5,-239.59C612.8,-235.08 456.22,-239.93 347,-310.34 310.01,-334.19 284.02,-379.59 270.3,-408.61"/>
<polygon fill="#63b8ff" stroke="#63b8ff" points="267.22,-406.93 266.27,-417.48 273.59,-409.82 267.22,-406.93"/>
</a>
</g>
</g>
<!-- Node20&#45;&gt;Node2 -->
<g id="edge33_Node000020_Node000002" class="edge">
<title>Node20&#45;&gt;Node2</title>
<g id="a_edge33_Node000020_Node000002"><a xlink:title=" ">
<path fill="none" stroke="#63b8ff" d="M703.55,-187.36C610.17,-180.48 451.16,-182.94 347,-261.34 298.35,-297.97 274.62,-369.04 264.81,-408.06"/>
<polygon fill="#63b8ff" stroke="#63b8ff" points="261.45,-407.06 262.55,-417.6 268.26,-408.67 261.45,-407.06"/>
</a>
</g>
</g>
<!-- Node21&#45;&gt;Node2 -->
<g id="edge35_Node000021_Node000002" class="edge">
<title>Node21&#45;&gt;Node2</title>
<g id="a_edge35_Node000021_Node000002"><a xlink:title=" ">
<path fill="none" stroke="#63b8ff" d="M703.65,-134.65C609.26,-124.53 448.09,-122.52 347,-205.34 284.04,-256.92 266.06,-358.98 260.97,-407.91"/>
<polygon fill="#63b8ff" stroke="#63b8ff" points="257.51,-407.36 260.08,-417.64 264.48,-408 257.51,-407.36"/>
</a>
</g>
</g>
<!-- Node22&#45;&gt;Node2 -->
<g id="edge37_Node000022_Node000002" class="edge">
<title>Node22&#45;&gt;Node2</title>
<g id="a_edge37_Node000022_Node000002"><a xlink:title=" ">
<path fill="none" stroke="#63b8ff" d="M699.84,-100.28C589.56,-99.14 398,-103.89 347,-148.34 269.59,-215.82 259.21,-349.45 258.54,-407.42"/>
<polygon fill="#63b8ff" stroke="#63b8ff" points="255.04,-407.39 258.52,-417.39 262.04,-407.4 255.04,-407.39"/>
</a>
</g>
</g>
<!-- Node23&#45;&gt;Node2 -->
<g id="edge39_Node000023_Node000002" class="edge">
<title>Node23&#45;&gt;Node2</title>
<g id="a_edge39_Node000023_Node000002"><a xlink:title=" ">
<path fill="none" stroke="#63b8ff" d="M693.43,-62.16C582.44,-61.18 397.49,-66.35 347,-109.34 300.91,-148.6 271.91,-336.73 262.42,-407.95"/>
<polygon fill="#63b8ff" stroke="#63b8ff" points="258.99,-407.21 261.17,-417.58 265.93,-408.12 258.99,-407.21"/>
</a>
</g>
</g>
<!-- Node24&#45;&gt;Node2 -->
<g id="edge41_Node000024_Node000002" class="edge">
<title>Node24&#45;&gt;Node2</title>
<g id="a_edge41_Node000024_Node000002"><a xlink:title=" ">
<path fill="none" stroke="#63b8ff" d="M734.3,-15.89C647.7,1.31 456.92,24.8 347,-71.34 295.79,-116.14 269.49,-331 261.6,-407.9"/>
<polygon fill="#63b8ff" stroke="#63b8ff" points="258.16,-407.2 260.65,-417.5 265.12,-407.9 258.16,-407.2"/>
</a>
</g>
</g>
<!-- Node25&#45;&gt;Node2 -->
<g id="edge43_Node000025_Node000002" class="edge">
<title>Node25&#45;&gt;Node2</title>
<g id="a_edge43_Node000025_Node000002"><a xlink:title=" ">
<path fill="none" stroke="#63b8ff" d="M693.2,-659.78C598.86,-659.13 447.64,-644.55 347,-567.34 310.57,-539.4 284.27,-491.87 270.35,-462.12"/>
<polygon fill="#63b8ff" stroke="#63b8ff" points="273.56,-460.72 266.26,-453.05 267.18,-463.6 273.56,-460.72"/>
</a>
</g>
</g>
<!-- Node26&#45;&gt;Node2 -->
<g id="edge45_Node000026_Node000002" class="edge">
<title>Node26&#45;&gt;Node2</title>
<g id="a_edge45_Node000026_Node000002"><a xlink:title=" ">
<path fill="none" stroke="#63b8ff" d="M683.28,-617.15C590.9,-611.97 450.45,-593.18 347,-530.34 317.84,-512.63 292.33,-482.54 276.39,-460.96"/>
<polygon fill="#63b8ff" stroke="#63b8ff" points="279.31,-459.04 270.64,-452.95 273.63,-463.12 279.31,-459.04"/>
</a>
</g>
</g>
<!-- Node27&#45;&gt;Node2 -->
<g id="edge48_Node000027_Node000002" class="edge">
<title>Node27&#45;&gt;Node2</title>
<g id="a_edge48_Node000027_Node000002"><a xlink:title=" ">
<path fill="none" stroke="#63b8ff" d="M692.72,-570.92C602.93,-564.7 460.16,-547.26 347,-498.34 324.44,-488.59 301.97,-472.36 285.38,-458.82"/>
<polygon fill="#63b8ff" stroke="#63b8ff" points="287.87,-456.35 277.96,-452.6 283.37,-461.71 287.87,-456.35"/>
</a>
</g>
</g>
<!-- Node29&#45;&gt;Node30 -->
<g id="edge51_Node000029_Node000030" class="edge">
<title>Node29&#45;&gt;Node30</title>
<g id="a_edge51_Node000029_Node000030"><a xlink:title=" ">
<path fill="none" stroke="#63b8ff" d="M618.51,-747.93C654.64,-735.9 703.15,-719.74 737.43,-708.32"/>
<polygon fill="#63b8ff" stroke="#63b8ff" points="738.2,-711.75 746.59,-705.27 735.99,-705.11 738.2,-711.75"/>
</a>
</g>
</g>
<!-- Node31 -->
<g id="Node000031" class="node">
<title>Node31</title>
<g id="a_Node000031"><a xlink:href="../../d6/d3c/classLSM1x0A__AtParser.html#a0ba6f927c54fceece22c17773d3f2600" target="_top" xlink:title="Sends a command and extracts a value from the response.">
<polygon fill="white" stroke="#666666" points="1095.38,-710.34 921.12,-710.34 921.12,-678.34 1095.38,-678.34 1095.38,-710.34"/>
<text text-anchor="start" x="929.12" y="-696.84" font-family="Helvetica,sans-Serif" font-size="10.00">LSM1x0A_AtParser::sendCommand</text>
<text text-anchor="middle" x="1008.25" y="-684.84" font-family="Helvetica,sans-Serif" font-size="10.00">WithResponse</text>
</a>
</g>
</g>
<!-- Node30&#45;&gt;Node31 -->
<g id="edge52_Node000030_Node000031" class="edge">
<title>Node30&#45;&gt;Node31</title>
<g id="a_edge52_Node000030_Node000031"><a xlink:title=" ">
<path fill="none" stroke="#63b8ff" d="M867.74,-694.34C881.49,-694.34 895.81,-694.34 909.8,-694.34"/>
<polygon fill="#63b8ff" stroke="#63b8ff" points="909.42,-697.84 919.42,-694.34 909.42,-690.84 909.42,-697.84"/>
</a>
</g>
</g>
<!-- Node32 -->
<g id="Node000032" class="node">
<title>Node32</title>
<g id="a_Node000032"><a xlink:href="../../d5/d8b/classUartDriver.html#a5d0f22e8867eebe99273078bb19bd23d" target="_top" xlink:title="Sends data through UART.">
<polygon fill="white" stroke="#666666" points="1270,-704.34 1161,-704.34 1161,-684.34 1270,-684.34 1270,-704.34"/>
<text text-anchor="middle" x="1215.5" y="-690.84" font-family="Helvetica,sans-Serif" font-size="10.00">UartDriver::sendData</text>
</a>
</g>
</g>
<!-- Node31&#45;&gt;Node32 -->
<g id="edge53_Node000031_Node000032" class="edge">
<title>Node31&#45;&gt;Node32</title>
<g id="a_edge53_Node000031_Node000032"><a xlink:title=" ">
<path fill="none" stroke="#63b8ff" d="M1095.7,-694.34C1113.59,-694.34 1132.16,-694.34 1149.14,-694.34"/>
<polygon fill="#63b8ff" stroke="#63b8ff" points="1149.11,-697.84 1159.11,-694.34 1149.11,-690.84 1149.11,-697.84"/>
</a>
</g>
</g>
</g>
</svg>

<g id="navigator" transform="translate(0 0)" fill="#404254">
  <rect fill="#f2f5e9" fill-opacity="0.5" stroke="#606060" stroke-width=".5" x="0" y="0" width="60" height="60"/>
  <use id="zoomplus" xlink:href="#zoomPlus" x="17" y="9" onmousedown="handleZoom(evt,'in')"/>
  <use id="zoomminus" xlink:href="#zoomMin" x="42" y="9" onmousedown="handleZoom(evt,'out')"/>
  <use id="reset" xlink:href="#resetDef" x="30" y="36" onmousedown="handleReset()"/>
   <use id="arrowup" xlink:href="#arrowUp" x="0" y="0" onmousedown="handlePan(0,-1)"/>
  <use id="arrowright" xlink:href="#arrowRight" x="0" y="0" onmousedown="handlePan(1,0)"/>
  <use id="arrowdown" xlink:href="#arrowDown" x="0" y="0" onmousedown="handlePan(0,1)"/>
  <use id="arrowleft" xlink:href="#arrowLeft" x="0" y="0" onmousedown="handlePan(-1,0)"/>
</g>
<svg viewBox="0 0 15 15" width="100%" height="30px" preserveAspectRatio="xMaxYMin meet">
 <g id="arrow_out" transform="scale(0.3 0.3)">
  <a xlink:href="classLSM1x0A__LoRaWAN_a1df10d7ae6bf45b537d28d3d5c4b88d7_cgraph_org.svg" target="_base">
   <rect id="button" ry="5" rx="5" y="6" x="6" height="38" width="38"
        fill="#f2f5e9" fill-opacity="0.5" stroke="#606060" stroke-width="1.0"/>
   <path id="arrow"
     d="M 11.500037,31.436501 C 11.940474,20.09759 22.043105,11.32322 32.158766,21.979434 L 37.068811,17.246167 C 37.068811,17.246167 37.088388,32 37.088388,32 L 22.160133,31.978069 C 22.160133,31.978069 26.997745,27.140456 26.997745,27.140456 C 18.528582,18.264221 13.291696,25.230495 11.500037,31.436501 z"
     style="fill:#404040;"/>
  </a>
 </g>
</svg>

<style type='text/css'>
<![CDATA[
[data-mouse-over-selected='false'] { opacity: 0.7; }
[data-mouse-over-selected='true']  { opacity: 1.0; }
]]>
</style>
<script type="application/ecmascript"><![CDATA[
document.addEventListener('DOMContentLoaded', (event) => {
  highlightEdges();
  highlightAdjacentNodes();
});
]]></script>
</svg>
