<?xml version="1.0" encoding="UTF-8" standalone="no"?>
<!DOCTYPE svg PUBLIC "-//W3C//DTD SVG 1.1//EN"
 "http://www.w3.org/Graphics/SVG/1.1/DTD/svg11.dtd">
<!-- Generated by graphviz version 12.2.1 (20241206.2353)
 -->
<!-- Title: LSM1x0A_LoRaWAN::resetDevNonce Pages: 1 -->
<svg width="1500pt" height="1143pt"
 viewBox="0.00 0.00 1499.50 1143.11" xmlns="http://www.w3.org/2000/svg" xmlns:xlink="http://www.w3.org/1999/xlink">
<g id="graph0" class="graph" transform="scale(1 1) rotate(0) translate(4 1139.11)">
<title>LSM1x0A_LoRaWAN::resetDevNonce</title>
<!-- Node1 -->
<g id="Node000001" class="node">
<title>Node1</title>
<g id="a_Node000001"><a xlink:title="Resets the DevNonce counter to zero.">
<polygon fill="#999999" stroke="#666666" points="156.25,-496.95 0,-496.95 0,-464.95 156.25,-464.95 156.25,-496.95"/>
<text text-anchor="start" x="8" y="-483.45" font-family="Helvetica,sans-Serif" font-size="10.00">LSM1x0A_LoRaWAN::resetDev</text>
<text text-anchor="middle" x="78.12" y="-471.45" font-family="Helvetica,sans-Serif" font-size="10.00">Nonce</text>
</a>
</g>
</g>
<!-- Node2 -->
<g id="Node000002" class="node">
<title>Node2</title>
<g id="a_Node000002"><a xlink:href="../../d5/d72/classLSM1x0A__LoRaWAN.html#a4b2f31cd283658680d4e5d3588f27a37" target="_top" xlink:title="Sets the DevNonce manually.">
<polygon fill="white" stroke="#666666" points="368.75,-490.95 192.25,-490.95 192.25,-470.95 368.75,-470.95 368.75,-490.95"/>
<text text-anchor="middle" x="280.5" y="-477.45" font-family="Helvetica,sans-Serif" font-size="10.00">LSM1x0A_LoRaWAN::setDevNonce</text>
</a>
</g>
</g>
<!-- Node1&#45;&gt;Node2 -->
<g id="edge1_Node000001_Node000002" class="edge">
<title>Node1&#45;&gt;Node2</title>
<g id="a_edge1_Node000001_Node000002"><a xlink:title=" ">
<path fill="none" stroke="#63b8ff" d="M156.6,-480.95C164.45,-480.95 172.51,-480.95 180.56,-480.95"/>
<polygon fill="#63b8ff" stroke="#63b8ff" points="180.39,-484.45 190.39,-480.95 180.39,-477.45 180.39,-484.45"/>
</a>
</g>
</g>
<!-- Node3 -->
<g id="Node000003" class="node">
<title>Node3</title>
<g id="a_Node000003"><a xlink:href="../../d8/d92/classLSM1x0A__Controller.html#afd7d92e60ed6fdae696a955cdbe0ed8c" target="_top" xlink:title="Sends any AT command to the module, returning error if it fails. Internally uses the LsmAtParser logi...">
<polygon fill="white" stroke="#666666" points="510.75,-496.95 404.75,-496.95 404.75,-464.95 510.75,-464.95 510.75,-496.95"/>
<text text-anchor="start" x="412.75" y="-483.45" font-family="Helvetica,sans-Serif" font-size="10.00">LSM1x0A_Controller</text>
<text text-anchor="middle" x="457.75" y="-471.45" font-family="Helvetica,sans-Serif" font-size="10.00">::sendCommand</text>
</a>
</g>
</g>
<!-- Node2&#45;&gt;Node3 -->
<g id="edge2_Node000002_Node000003" class="edge">
<title>Node2&#45;&gt;Node3</title>
<g id="a_edge2_Node000002_Node000003"><a xlink:title=" ">
<path fill="none" stroke="#63b8ff" d="M369.12,-480.95C377.29,-480.95 385.45,-480.95 393.33,-480.95"/>
<polygon fill="#63b8ff" stroke="#63b8ff" points="393.13,-484.45 403.13,-480.95 393.13,-477.45 393.13,-484.45"/>
</a>
</g>
</g>
<!-- Node4 -->
<g id="Node000004" class="node">
<title>Node4</title>
<g id="a_Node000004"><a xlink:href="../../d8/d92/classLSM1x0A__Controller.html#abb0eb380daa3dfb7acffb483c5db8e2b" target="_top" xlink:title="Executes the recovery protocol. First Soft&#45;Reset (ATZ), then Hard&#45;Reset if there is a pin.">
<polygon fill="white" stroke="#666666" points="652.75,-938.95 546.75,-938.95 546.75,-906.95 652.75,-906.95 652.75,-938.95"/>
<text text-anchor="start" x="554.75" y="-925.45" font-family="Helvetica,sans-Serif" font-size="10.00">LSM1x0A_Controller</text>
<text text-anchor="middle" x="599.75" y="-913.45" font-family="Helvetica,sans-Serif" font-size="10.00">::recoverModule</text>
</a>
</g>
</g>
<!-- Node3&#45;&gt;Node4 -->
<g id="edge3_Node000003_Node000004" class="edge">
<title>Node3&#45;&gt;Node4</title>
<g id="a_edge3_Node000003_Node000004"><a xlink:title=" ">
<path fill="none" stroke="#63b8ff" d="M462.3,-497.39C472.86,-545.46 505.91,-689.56 546.75,-804.95 558.1,-837.01 574.29,-872.58 585.58,-896.2"/>
<polygon fill="#63b8ff" stroke="#63b8ff" points="582.38,-897.62 589.88,-905.1 588.68,-894.57 582.38,-897.62"/>
</a>
</g>
</g>
<!-- Node32 -->
<g id="Node000032" class="node">
<title>Node32</title>
<g id="a_Node000032"><a xlink:href="../../d6/d3c/classLSM1x0A__AtParser.html#a29b53c521974387ba6c03afadfaffa4a" target="_top" xlink:title="Sends a simple command and waits for OK/ERROR. Example: sendCommand(&quot;AT+JOIN&quot;);.">
<polygon fill="white" stroke="#666666" points="1067.25,-1118.95 893,-1118.95 893,-1098.95 1067.25,-1098.95 1067.25,-1118.95"/>
<text text-anchor="middle" x="980.12" y="-1105.45" font-family="Helvetica,sans-Serif" font-size="10.00">LSM1x0A_AtParser::sendCommand</text>
</a>
</g>
</g>
<!-- Node3&#45;&gt;Node32 -->
<g id="edge56_Node000003_Node000032" class="edge">
<title>Node3&#45;&gt;Node32</title>
<g id="a_edge56_Node000003_Node000032"><a xlink:title=" ">
<path fill="none" stroke="#63b8ff" d="M458.81,-497.2C459.63,-559.15 468.17,-785.25 546.75,-947.95 588.68,-1034.77 601.06,-1071.88 688.75,-1111.95 766.51,-1147.48 868.66,-1134.62 928.77,-1121.89"/>
<polygon fill="#63b8ff" stroke="#63b8ff" points="929.36,-1125.34 938.37,-1119.77 927.85,-1118.51 929.36,-1125.34"/>
</a>
</g>
</g>
<!-- Node5 -->
<g id="Node000005" class="node">
<title>Node5</title>
<g id="a_Node000005"><a xlink:href="../../d8/d92/classLSM1x0A__Controller.html#a3f6f25b843fe4fb7042c544deae2ab16" target="_top" xlink:title="Manually clears bits from the internal EventGroup.">
<polygon fill="white" stroke="#666666" points="1261,-957.95 1155,-957.95 1155,-925.95 1261,-925.95 1261,-957.95"/>
<text text-anchor="start" x="1163" y="-944.45" font-family="Helvetica,sans-Serif" font-size="10.00">LSM1x0A_Controller</text>
<text text-anchor="middle" x="1208" y="-932.45" font-family="Helvetica,sans-Serif" font-size="10.00">::clearEvents</text>
</a>
</g>
</g>
<!-- Node4&#45;&gt;Node5 -->
<g id="edge4_Node000004_Node000005" class="edge">
<title>Node4&#45;&gt;Node5</title>
<g id="a_edge4_Node000004_Node000005"><a xlink:title=" ">
<path fill="none" stroke="#63b8ff" d="M616.83,-939.29C633.25,-954.72 660.31,-976.82 688.75,-985.95 848.32,-1037.18 1048.91,-991 1147.18,-961.72"/>
<polygon fill="#63b8ff" stroke="#63b8ff" points="1148.07,-965.11 1156.62,-958.86 1146.04,-958.41 1148.07,-965.11"/>
</a>
</g>
</g>
<!-- Node6 -->
<g id="Node000006" class="node">
<title>Node6</title>
<g id="a_Node000006"><a xlink:href="../../d8/d92/classLSM1x0A__Controller.html#a345d4bd79fa16b18dc33a4ca788fe5f7" target="_top" xlink:title="Performs a hardware reset using the reset pin.">
<polygon fill="white" stroke="#666666" points="821,-938.95 715,-938.95 715,-906.95 821,-906.95 821,-938.95"/>
<text text-anchor="start" x="723" y="-925.45" font-family="Helvetica,sans-Serif" font-size="10.00">LSM1x0A_Controller</text>
<text text-anchor="middle" x="768" y="-913.45" font-family="Helvetica,sans-Serif" font-size="10.00">::hardwareReset</text>
</a>
</g>
</g>
<!-- Node4&#45;&gt;Node6 -->
<g id="edge5_Node000004_Node000006" class="edge">
<title>Node4&#45;&gt;Node6</title>
<g id="a_edge5_Node000004_Node000006"><a xlink:title=" ">
<path fill="none" stroke="#63b8ff" d="M652.9,-922.95C668.91,-922.95 686.72,-922.95 703.41,-922.95"/>
<polygon fill="#63b8ff" stroke="#63b8ff" points="703.24,-926.45 713.24,-922.95 703.24,-919.45 703.24,-926.45"/>
</a>
</g>
</g>
<!-- Node8 -->
<g id="Node000008" class="node">
<title>Node8</title>
<g id="a_Node000008"><a xlink:href="../../d5/d72/classLSM1x0A__LoRaWAN.html#a1892801e37c8cd67d37c76108d6f7d49" target="_top" xlink:title="Validates if the device is currently Joined to the network. (Either confirmed by OTAA or statically a...">
<polygon fill="white" stroke="#666666" points="1491.5,-926.95 1339,-926.95 1339,-906.95 1491.5,-906.95 1491.5,-926.95"/>
<text text-anchor="middle" x="1415.25" y="-913.45" font-family="Helvetica,sans-Serif" font-size="10.00">LSM1x0A_LoRaWAN::isJoined</text>
</a>
</g>
</g>
<!-- Node4&#45;&gt;Node8 -->
<g id="edge7_Node000004_Node000008" class="edge">
<title>Node4&#45;&gt;Node8</title>
<g id="a_edge7_Node000004_Node000008"><a xlink:title=" ">
<path fill="none" stroke="#63b8ff" d="M646.69,-939.25C648.83,-940.7 650.86,-942.26 652.75,-943.95 677.92,-966.51 659.74,-993.6 688.75,-1010.95 699.45,-1017.34 1014.91,-1014.94 1077,-1008.95 1178.69,-999.13 1205.49,-997.44 1303,-966.95 1331.83,-957.93 1363.08,-943.44 1385.09,-932.37"/>
<polygon fill="#63b8ff" stroke="#63b8ff" points="1386.45,-935.61 1393.76,-927.94 1383.26,-929.38 1386.45,-935.61"/>
</a>
</g>
</g>
<!-- Node9 -->
<g id="Node000009" class="node">
<title>Node9</title>
<g id="a_Node000009"><a xlink:href="../../d5/d72/classLSM1x0A__LoRaWAN.html#a83e11c0e74ff9e0757db616ab1163424" target="_top" xlink:title="Attempts to recover a lost connection (re&#45;executes OTAA Join if dropped).">
<polygon fill="white" stroke="#666666" points="842.38,-850.95 693.62,-850.95 693.62,-818.95 842.38,-818.95 842.38,-850.95"/>
<text text-anchor="start" x="701.62" y="-837.45" font-family="Helvetica,sans-Serif" font-size="10.00">LSM1x0A_LoRaWAN::recover</text>
<text text-anchor="middle" x="768" y="-825.45" font-family="Helvetica,sans-Serif" font-size="10.00">Connection</text>
</a>
</g>
</g>
<!-- Node4&#45;&gt;Node9 -->
<g id="edge8_Node000004_Node000009" class="edge">
<title>Node4&#45;&gt;Node9</title>
<g id="a_edge8_Node000004_Node000009"><a xlink:title=" ">
<path fill="none" stroke="#63b8ff" d="M622.72,-906.53C640.05,-894.07 665.15,-877.07 688.75,-864.95 695.04,-861.72 701.75,-858.64 708.51,-855.76"/>
<polygon fill="#63b8ff" stroke="#63b8ff" points="709.78,-859.02 717.71,-851.99 707.13,-852.55 709.78,-859.02"/>
</a>
</g>
</g>
<!-- Node13 -->
<g id="Node000013" class="node">
<title>Node13</title>
<g id="a_Node000013"><a xlink:href="../../d5/d72/classLSM1x0A__LoRaWAN.html#ae3be4ce59dfa200369733317df356e97" target="_top" xlink:title="Pushes the RAM&#45;cached variables back down into the hardware module. Restores the operational state af...">
<polygon fill="white" stroke="#666666" points="841.25,-496.95 694.75,-496.95 694.75,-464.95 841.25,-464.95 841.25,-496.95"/>
<text text-anchor="start" x="702.75" y="-483.45" font-family="Helvetica,sans-Serif" font-size="10.00">LSM1x0A_LoRaWAN::restore</text>
<text text-anchor="middle" x="768" y="-471.45" font-family="Helvetica,sans-Serif" font-size="10.00">Config</text>
</a>
</g>
</g>
<!-- Node4&#45;&gt;Node13 -->
<g id="edge17_Node000004_Node000013" class="edge">
<title>Node4&#45;&gt;Node13</title>
<g id="a_edge17_Node000004_Node000013"><a xlink:title=" ">
<path fill="none" stroke="#63b8ff" d="M606.86,-906.69C631.76,-840.5 725.67,-590.84 756.86,-507.91"/>
<polygon fill="#63b8ff" stroke="#63b8ff" points="760.05,-509.36 760.3,-498.77 753.5,-506.9 760.05,-509.36"/>
</a>
</g>
</g>
<!-- Node30 -->
<g id="Node000030" class="node">
<title>Node30</title>
<g id="a_Node000030"><a xlink:href="../../d5/d72/classLSM1x0A__LoRaWAN.html#ace4b04396f1de1f4a54f513f5f378db7" target="_top" xlink:title="Manually overrides the internal joined state tracker.">
<polygon fill="white" stroke="#666666" points="847.25,-976.95 688.75,-976.95 688.75,-956.95 847.25,-956.95 847.25,-976.95"/>
<text text-anchor="middle" x="768" y="-963.45" font-family="Helvetica,sans-Serif" font-size="10.00">LSM1x0A_LoRaWAN::setJoined</text>
</a>
</g>
</g>
<!-- Node4&#45;&gt;Node30 -->
<g id="edge51_Node000004_Node000030" class="edge">
<title>Node4&#45;&gt;Node30</title>
<g id="a_edge51_Node000004_Node000030"><a xlink:title=" ">
<path fill="none" stroke="#63b8ff" d="M653.24,-938.22C664.91,-941.51 677.23,-944.91 688.75,-947.95 696.11,-949.89 703.87,-951.86 711.54,-953.76"/>
<polygon fill="#63b8ff" stroke="#63b8ff" points="710.63,-957.14 721.18,-956.13 712.3,-950.35 710.63,-957.14"/>
</a>
</g>
</g>
<!-- Node31 -->
<g id="Node000031" class="node">
<title>Node31</title>
<g id="a_Node000031"><a xlink:href="../../d8/d92/classLSM1x0A__Controller.html#a11ad21cb5ca33ec51346764a23bd485e" target="_top" xlink:title="Performs a software reset (ATZ Command).">
<polygon fill="white" stroke="#666666" points="821,-1102.95 715,-1102.95 715,-1070.95 821,-1070.95 821,-1102.95"/>
<text text-anchor="start" x="723" y="-1089.45" font-family="Helvetica,sans-Serif" font-size="10.00">LSM1x0A_Controller</text>
<text text-anchor="middle" x="768" y="-1077.45" font-family="Helvetica,sans-Serif" font-size="10.00">::softwareReset</text>
</a>
</g>
</g>
<!-- Node4&#45;&gt;Node31 -->
<g id="edge52_Node000004_Node000031" class="edge">
<title>Node4&#45;&gt;Node31</title>
<g id="a_edge52_Node000004_Node000031"><a xlink:title=" ">
<path fill="none" stroke="#63b8ff" d="M607.45,-939.34C619.64,-967.25 648,-1024.13 688.75,-1056.95 693.57,-1060.83 698.94,-1064.24 704.55,-1067.25"/>
<polygon fill="#63b8ff" stroke="#63b8ff" points="702.96,-1070.36 713.48,-1071.55 706,-1064.06 702.96,-1070.36"/>
</a>
</g>
</g>
<!-- Node7 -->
<g id="Node000007" class="node">
<title>Node7</title>
<g id="a_Node000007"><a xlink:href="../../d6/d3c/classLSM1x0A__AtParser.html#ad2839120da13e56132b95019419be1e5" target="_top" xlink:title="Waits for an event (like BOOTALERT) without sending any command. Useful for hardware reset where the ...">
<polygon fill="white" stroke="#666666" points="1050.38,-938.95 909.88,-938.95 909.88,-906.95 1050.38,-906.95 1050.38,-938.95"/>
<text text-anchor="start" x="917.88" y="-925.45" font-family="Helvetica,sans-Serif" font-size="10.00">LSM1x0A_AtParser::waitFor</text>
<text text-anchor="middle" x="980.12" y="-913.45" font-family="Helvetica,sans-Serif" font-size="10.00">Event</text>
</a>
</g>
</g>
<!-- Node6&#45;&gt;Node7 -->
<g id="edge6_Node000006_Node000007" class="edge">
<title>Node6&#45;&gt;Node7</title>
<g id="a_edge6_Node000006_Node000007"><a xlink:title=" ">
<path fill="none" stroke="#63b8ff" d="M821.48,-922.95C844.67,-922.95 872.47,-922.95 898.21,-922.95"/>
<polygon fill="#63b8ff" stroke="#63b8ff" points="897.97,-926.45 907.97,-922.95 897.97,-919.45 897.97,-926.45"/>
</a>
</g>
</g>
<!-- Node10 -->
<g id="Node000010" class="node">
<title>Node10</title>
<g id="a_Node000010"><a xlink:href="../../d5/d72/classLSM1x0A__LoRaWAN.html#a59f781f3cfd30c11cd3973bcb10a7baa" target="_top" xlink:title="Initiates a LoRaWAN Network Join procedure. This is a blocking function until the module fires an eve...">
<polygon fill="white" stroke="#666666" points="1045.88,-844.95 914.38,-844.95 914.38,-824.95 1045.88,-824.95 1045.88,-844.95"/>
<text text-anchor="middle" x="980.12" y="-831.45" font-family="Helvetica,sans-Serif" font-size="10.00">LSM1x0A_LoRaWAN::join</text>
</a>
</g>
</g>
<!-- Node9&#45;&gt;Node10 -->
<g id="edge9_Node000009_Node000010" class="edge">
<title>Node9&#45;&gt;Node10</title>
<g id="a_edge9_Node000009_Node000010"><a xlink:title=" ">
<path fill="none" stroke="#63b8ff" d="M842.79,-834.95C862.16,-834.95 883.1,-834.95 902.61,-834.95"/>
<polygon fill="#63b8ff" stroke="#63b8ff" points="902.4,-838.45 912.4,-834.95 902.4,-831.45 902.4,-838.45"/>
</a>
</g>
</g>
<!-- Node10&#45;&gt;Node3 -->
<g id="edge12_Node000010_Node000003" class="edge">
<title>Node10&#45;&gt;Node3</title>
<g id="a_edge12_Node000010_Node000003"><a xlink:title=" ">
<path fill="none" stroke="#63b8ff" d="M925.9,-824.5C867.27,-812.53 770.48,-791.38 688.75,-766.95 624.36,-747.69 594.48,-762.27 546.75,-714.95 488.48,-657.18 468.28,-557.13 461.7,-508.74"/>
<polygon fill="#63b8ff" stroke="#63b8ff" points="465.18,-508.33 460.47,-498.84 458.23,-509.2 465.18,-508.33"/>
</a>
</g>
</g>
<!-- Node10&#45;&gt;Node4 -->
<g id="edge11_Node000010_Node000004" class="edge">
<title>Node10&#45;&gt;Node4</title>
<g id="a_edge11_Node000010_Node000004"><a xlink:title=" ">
<path fill="none" stroke="#63b8ff" d="M925.9,-845.44C867.49,-857.21 771.07,-877.35 688.75,-897.95 680.81,-899.94 672.49,-902.14 664.28,-904.39"/>
<polygon fill="#63b8ff" stroke="#63b8ff" points="663.34,-901.01 654.65,-907.06 665.22,-907.76 663.34,-901.01"/>
</a>
</g>
</g>
<!-- Node10&#45;&gt;Node5 -->
<g id="edge10_Node000010_Node000005" class="edge">
<title>Node10&#45;&gt;Node5</title>
<g id="a_edge10_Node000010_Node000005"><a xlink:title=" ">
<path fill="none" stroke="#63b8ff" d="M1003.19,-845.4C1039.91,-862.79 1114.23,-898 1162.26,-920.75"/>
<polygon fill="#63b8ff" stroke="#63b8ff" points="1160.47,-923.78 1171.01,-924.9 1163.47,-917.45 1160.47,-923.78"/>
</a>
</g>
</g>
<!-- Node11 -->
<g id="Node000011" class="node">
<title>Node11</title>
<g id="a_Node000011"><a xlink:href="../../d5/d72/classLSM1x0A__LoRaWAN.html#a3fdd1ac318a5ad2559323e5d57e36a5e" target="_top" xlink:title="Enables or disables specific sub&#45;bands for regions supporting Channel Masks (e.g.,...">
<polygon fill="white" stroke="#666666" points="1303,-654.95 1113,-654.95 1113,-634.95 1303,-634.95 1303,-654.95"/>
<text text-anchor="middle" x="1208" y="-641.45" font-family="Helvetica,sans-Serif" font-size="10.00">LSM1x0A_LoRaWAN::setChannelMask</text>
</a>
</g>
</g>
<!-- Node10&#45;&gt;Node11 -->
<g id="edge13_Node000010_Node000011" class="edge">
<title>Node10&#45;&gt;Node11</title>
<g id="a_edge13_Node000010_Node000011"><a xlink:title=" ">
<path fill="none" stroke="#63b8ff" d="M1040.43,-824.45C1053.15,-820.55 1066.05,-815.22 1077,-807.95 1133.87,-770.19 1177.5,-699.61 1196.54,-665.05"/>
<polygon fill="#63b8ff" stroke="#63b8ff" points="1199.47,-666.98 1201.12,-656.52 1193.3,-663.67 1199.47,-666.98"/>
</a>
</g>
</g>
<!-- Node12 -->
<g id="Node000012" class="node">
<title>Node12</title>
<g id="a_Node000012"><a xlink:href="../../d8/d92/classLSM1x0A__Controller.html#a62476e30e50c7fe120aeb8df4b828675" target="_top" xlink:title="Synchronously/blockingly waits for an asynchronous event to occur. Useful for wrapping commands like ...">
<polygon fill="white" stroke="#666666" points="1261,-850.95 1155,-850.95 1155,-818.95 1261,-818.95 1261,-850.95"/>
<text text-anchor="start" x="1163" y="-837.45" font-family="Helvetica,sans-Serif" font-size="10.00">LSM1x0A_Controller</text>
<text text-anchor="middle" x="1208" y="-825.45" font-family="Helvetica,sans-Serif" font-size="10.00">::waitForEvent</text>
</a>
</g>
</g>
<!-- Node10&#45;&gt;Node12 -->
<g id="edge16_Node000010_Node000012" class="edge">
<title>Node10&#45;&gt;Node12</title>
<g id="a_edge16_Node000010_Node000012"><a xlink:title=" ">
<path fill="none" stroke="#63b8ff" d="M1046.15,-834.95C1076.66,-834.95 1112.9,-834.95 1143.24,-834.95"/>
<polygon fill="#63b8ff" stroke="#63b8ff" points="1143.05,-838.45 1153.05,-834.95 1143.05,-831.45 1143.05,-838.45"/>
</a>
</g>
</g>
<!-- Node11&#45;&gt;Node3 -->
<g id="edge15_Node000011_Node000003" class="edge">
<title>Node11&#45;&gt;Node3</title>
<g id="a_edge15_Node000011_Node000003"><a xlink:title=" ">
<path fill="none" stroke="#63b8ff" d="M1206.22,-634.73C1200.77,-566.01 1165.85,-172.04 1077,-101.95 891.84,44.11 727.9,29.06 546.75,-121.95 495.17,-164.95 469.11,-377.61 461.32,-453.76"/>
<polygon fill="#63b8ff" stroke="#63b8ff" points="457.88,-452.96 460.37,-463.26 464.84,-453.65 457.88,-452.96"/>
</a>
</g>
</g>
<!-- Node11&#45;&gt;Node8 -->
<g id="edge14_Node000011_Node000008" class="edge">
<title>Node11&#45;&gt;Node8</title>
<g id="a_edge14_Node000011_Node000008"><a xlink:title=" ">
<path fill="none" stroke="#63b8ff" d="M1216.8,-655.28C1247.34,-695.76 1359.17,-843.95 1399.57,-897.49"/>
<polygon fill="#63b8ff" stroke="#63b8ff" points="1396.72,-899.52 1405.54,-905.4 1402.31,-895.31 1396.72,-899.52"/>
</a>
</g>
</g>
<!-- Node13&#45;&gt;Node11 -->
<g id="edge22_Node000013_Node000011" class="edge">
<title>Node13&#45;&gt;Node11</title>
<g id="a_edge22_Node000013_Node000011"><a xlink:title=" ">
<path fill="none" stroke="#63b8ff" d="M841.49,-484.29C919.15,-488.81 1036.68,-498.64 1077,-517.95 1128.93,-542.82 1172.88,-596.76 1193.84,-625.7"/>
<polygon fill="#63b8ff" stroke="#63b8ff" points="1190.77,-627.41 1199.4,-633.56 1196.49,-623.37 1190.77,-627.41"/>
</a>
</g>
</g>
<!-- Node14 -->
<g id="Node000014" class="node">
<title>Node14</title>
<g id="a_Node000014"><a xlink:href="../../d5/d72/classLSM1x0A__LoRaWAN.html#af0baa3db4c7fab580d6b19a9e92472f6" target="_top" xlink:title="Enables or disables Adaptive Data Rate (ADR).">
<polygon fill="white" stroke="#666666" points="1056,-798.95 904.25,-798.95 904.25,-778.95 1056,-778.95 1056,-798.95"/>
<text text-anchor="middle" x="980.12" y="-785.45" font-family="Helvetica,sans-Serif" font-size="10.00">LSM1x0A_LoRaWAN::setADR</text>
</a>
</g>
</g>
<!-- Node13&#45;&gt;Node14 -->
<g id="edge18_Node000013_Node000014" class="edge">
<title>Node13&#45;&gt;Node14</title>
<g id="a_edge18_Node000013_Node000014"><a xlink:title=" ">
<path fill="none" stroke="#63b8ff" d="M770.18,-497.13C774.7,-546.58 795.4,-696.7 883.25,-769.95 886.5,-772.66 890.04,-775.03 893.76,-777.08"/>
<polygon fill="#63b8ff" stroke="#63b8ff" points="892.09,-780.17 902.63,-781.21 895.04,-773.82 892.09,-780.17"/>
</a>
</g>
</g>
<!-- Node15 -->
<g id="Node000015" class="node">
<title>Node15</title>
<g id="a_Node000015"><a xlink:href="../../d5/d72/classLSM1x0A__LoRaWAN.html#a5365ed1596eb84ebf1e3b33b4a10c788" target="_top" xlink:title="Sets the LoRaWAN operational frequency band.">
<polygon fill="white" stroke="#666666" points="1056.38,-760.95 903.88,-760.95 903.88,-740.95 1056.38,-740.95 1056.38,-760.95"/>
<text text-anchor="middle" x="980.12" y="-747.45" font-family="Helvetica,sans-Serif" font-size="10.00">LSM1x0A_LoRaWAN::setBand</text>
</a>
</g>
</g>
<!-- Node13&#45;&gt;Node15 -->
<g id="edge20_Node000013_Node000015" class="edge">
<title>Node13&#45;&gt;Node15</title>
<g id="a_edge20_Node000013_Node000015"><a xlink:title=" ">
<path fill="none" stroke="#63b8ff" d="M771.26,-497.27C778.42,-542.46 804.98,-669.99 883.25,-731.95 886.41,-734.45 889.8,-736.64 893.36,-738.58"/>
<polygon fill="#63b8ff" stroke="#63b8ff" points="891.85,-741.74 902.4,-742.72 894.77,-735.37 891.85,-741.74"/>
</a>
</g>
</g>
<!-- Node16 -->
<g id="Node000016" class="node">
<title>Node16</title>
<g id="a_Node000016"><a xlink:href="../../d5/d72/classLSM1x0A__LoRaWAN.html#a9d9285c43414337a0ccb3a6cd7ca06e6" target="_top" xlink:title="Configures the number of retries for Confirmed uplinks.">
<polygon fill="white" stroke="#666666" points="1062.38,-722.95 897.88,-722.95 897.88,-690.95 1062.38,-690.95 1062.38,-722.95"/>
<text text-anchor="start" x="905.88" y="-709.45" font-family="Helvetica,sans-Serif" font-size="10.00">LSM1x0A_LoRaWAN::setConfirm</text>
<text text-anchor="middle" x="980.12" y="-697.45" font-family="Helvetica,sans-Serif" font-size="10.00">Retry</text>
</a>
</g>
</g>
<!-- Node13&#45;&gt;Node16 -->
<g id="edge23_Node000013_Node000016" class="edge">
<title>Node13&#45;&gt;Node16</title>
<g id="a_edge23_Node000013_Node000016"><a xlink:title=" ">
<path fill="none" stroke="#63b8ff" d="M773.52,-497.42C784.98,-535.98 818.92,-632.59 883.25,-681.95 884.61,-682.99 886.02,-684 887.46,-684.96"/>
<polygon fill="#63b8ff" stroke="#63b8ff" points="885.68,-687.98 896.09,-689.96 889.19,-681.92 885.68,-687.98"/>
</a>
</g>
</g>
<!-- Node17 -->
<g id="Node000017" class="node">
<title>Node17</title>
<g id="a_Node000017"><a xlink:href="../../d5/d72/classLSM1x0A__LoRaWAN.html#a56345ceeafa0b9059d6de4e69eddc82e" target="_top" xlink:title="Sets the Data Rate (DR) of the module.">
<polygon fill="white" stroke="#666666" points="1066.12,-672.95 894.12,-672.95 894.12,-652.95 1066.12,-652.95 1066.12,-672.95"/>
<text text-anchor="middle" x="980.12" y="-659.45" font-family="Helvetica,sans-Serif" font-size="10.00">LSM1x0A_LoRaWAN::setDataRate</text>
</a>
</g>
</g>
<!-- Node13&#45;&gt;Node17 -->
<g id="edge25_Node000013_Node000017" class="edge">
<title>Node13&#45;&gt;Node17</title>
<g id="a_edge25_Node000013_Node000017"><a xlink:title=" ">
<path fill="none" stroke="#63b8ff" d="M775.43,-497.26C789.49,-530.68 826.36,-606.87 883.25,-643.95 885.39,-645.34 887.6,-646.63 889.88,-647.84"/>
<polygon fill="#63b8ff" stroke="#63b8ff" points="888.3,-650.96 898.85,-651.92 891.2,-644.59 888.3,-650.96"/>
</a>
</g>
</g>
<!-- Node18 -->
<g id="Node000018" class="node">
<title>Node18</title>
<g id="a_Node000018"><a xlink:href="../../d5/d72/classLSM1x0A__LoRaWAN.html#a8494083816ab885cb07fc3b08de029f4" target="_top" xlink:title="Sets the LoRaWAN Device Address (DevAddr) for ABP mode.">
<polygon fill="white" stroke="#666666" points="1064.25,-634.95 896,-634.95 896,-614.95 1064.25,-614.95 1064.25,-634.95"/>
<text text-anchor="middle" x="980.12" y="-621.45" font-family="Helvetica,sans-Serif" font-size="10.00">LSM1x0A_LoRaWAN::setDevAddr</text>
</a>
</g>
</g>
<!-- Node13&#45;&gt;Node18 -->
<g id="edge27_Node000013_Node000018" class="edge">
<title>Node13&#45;&gt;Node18</title>
<g id="a_edge27_Node000013_Node000018"><a xlink:title=" ">
<path fill="none" stroke="#63b8ff" d="M778.99,-497.41C796.47,-524.7 835.35,-578.97 883.25,-605.95 886.09,-607.55 889.05,-609.02 892.08,-610.36"/>
<polygon fill="#63b8ff" stroke="#63b8ff" points="890.67,-613.57 901.26,-613.93 893.21,-607.04 890.67,-613.57"/>
</a>
</g>
</g>
<!-- Node19 -->
<g id="Node000019" class="node">
<title>Node19</title>
<g id="a_Node000019"><a xlink:href="../../d5/d72/classLSM1x0A__LoRaWAN.html#ad320634e52d7ea907043cc50dd37c5b0" target="_top" xlink:title="Sets the LoRaWAN Device EUI (DevEUI).">
<polygon fill="white" stroke="#666666" points="1062.75,-596.95 897.5,-596.95 897.5,-576.95 1062.75,-576.95 1062.75,-596.95"/>
<text text-anchor="middle" x="980.12" y="-583.45" font-family="Helvetica,sans-Serif" font-size="10.00">LSM1x0A_LoRaWAN::setDevEUI</text>
</a>
</g>
</g>
<!-- Node13&#45;&gt;Node19 -->
<g id="edge29_Node000013_Node000019" class="edge">
<title>Node13&#45;&gt;Node19</title>
<g id="a_edge29_Node000013_Node000019"><a xlink:title=" ">
<path fill="none" stroke="#63b8ff" d="M785.2,-497.21C806.02,-517.12 844.15,-550.34 883.25,-567.95 887.51,-569.87 891.97,-571.6 896.53,-573.15"/>
<polygon fill="#63b8ff" stroke="#63b8ff" points="895.28,-576.43 905.87,-576.02 897.34,-569.74 895.28,-576.43"/>
</a>
</g>
</g>
<!-- Node20 -->
<g id="Node000020" class="node">
<title>Node20</title>
<g id="a_Node000020"><a xlink:href="../../d5/d72/classLSM1x0A__LoRaWAN.html#a031023b0d2dd5db3c51c2db6ae7801cc" target="_top" xlink:title="Enables or disables the Duty Cycle limitation (EU regions mostly).">
<polygon fill="white" stroke="#666666" points="1055.62,-558.95 904.62,-558.95 904.62,-526.95 1055.62,-526.95 1055.62,-558.95"/>
<text text-anchor="start" x="912.62" y="-545.45" font-family="Helvetica,sans-Serif" font-size="10.00">LSM1x0A_LoRaWAN::setDuty</text>
<text text-anchor="middle" x="980.12" y="-533.45" font-family="Helvetica,sans-Serif" font-size="10.00">Cycle</text>
</a>
</g>
</g>
<!-- Node13&#45;&gt;Node20 -->
<g id="edge31_Node000013_Node000020" class="edge">
<title>Node13&#45;&gt;Node20</title>
<g id="a_edge31_Node000013_Node000020"><a xlink:title=" ">
<path fill="none" stroke="#63b8ff" d="M824.76,-497.4C851.7,-505.35 884.23,-514.95 912.48,-523.28"/>
<polygon fill="#63b8ff" stroke="#63b8ff" points="911.44,-526.62 922.02,-526.1 913.42,-519.91 911.44,-526.62"/>
</a>
</g>
</g>
<!-- Node21 -->
<g id="Node000021" class="node">
<title>Node21</title>
<g id="a_Node000021"><a xlink:href="../../d5/d72/classLSM1x0A__LoRaWAN.html#a6b179d5825c49af0f391dfc539912f64" target="_top" xlink:title="Sets the delay for the Join1 receive window.">
<polygon fill="white" stroke="#666666" points="1056.75,-470.95 903.5,-470.95 903.5,-438.95 1056.75,-438.95 1056.75,-470.95"/>
<text text-anchor="start" x="911.5" y="-457.45" font-family="Helvetica,sans-Serif" font-size="10.00">LSM1x0A_LoRaWAN::setJoin1</text>
<text text-anchor="middle" x="980.12" y="-445.45" font-family="Helvetica,sans-Serif" font-size="10.00">Delay</text>
</a>
</g>
</g>
<!-- Node13&#45;&gt;Node21 -->
<g id="edge33_Node000013_Node000021" class="edge">
<title>Node13&#45;&gt;Node21</title>
<g id="a_edge33_Node000013_Node000021"><a xlink:title=" ">
<path fill="none" stroke="#63b8ff" d="M841.61,-471.96C857.96,-469.94 875.47,-467.77 892.33,-465.69"/>
<polygon fill="#63b8ff" stroke="#63b8ff" points="892.3,-469.22 901.8,-464.52 891.44,-462.27 892.3,-469.22"/>
</a>
</g>
</g>
<!-- Node22 -->
<g id="Node000022" class="node">
<title>Node22</title>
<g id="a_Node000022"><a xlink:href="../../d5/d72/classLSM1x0A__LoRaWAN.html#a4545d0caad41558cdb9bae8286b104d8" target="_top" xlink:title="Sets the delay for the Join2 receive window.">
<polygon fill="white" stroke="#666666" points="1056.75,-420.95 903.5,-420.95 903.5,-388.95 1056.75,-388.95 1056.75,-420.95"/>
<text text-anchor="start" x="911.5" y="-407.45" font-family="Helvetica,sans-Serif" font-size="10.00">LSM1x0A_LoRaWAN::setJoin2</text>
<text text-anchor="middle" x="980.12" y="-395.45" font-family="Helvetica,sans-Serif" font-size="10.00">Delay</text>
</a>
</g>
</g>
<!-- Node13&#45;&gt;Node22 -->
<g id="edge35_Node000013_Node000022" class="edge">
<title>Node13&#45;&gt;Node22</title>
<g id="a_edge35_Node000013_Node000022"><a xlink:title=" ">
<path fill="none" stroke="#63b8ff" d="M801.91,-464.52C824.42,-453.71 855.17,-439.8 883.25,-429.95 888.54,-428.09 894.04,-426.3 899.61,-424.59"/>
<polygon fill="#63b8ff" stroke="#63b8ff" points="900.32,-428.03 908.91,-421.84 898.33,-421.32 900.32,-428.03"/>
</a>
</g>
</g>
<!-- Node23 -->
<g id="Node000023" class="node">
<title>Node23</title>
<g id="a_Node000023"><a xlink:href="../../d5/d72/classLSM1x0A__LoRaWAN.html#a06bd50723ec1eb7e144c9141b2ec86fc" target="_top" xlink:title="Sets the LoRaWAN Network ID (NetID).">
<polygon fill="white" stroke="#666666" points="1060.5,-370.95 899.75,-370.95 899.75,-350.95 1060.5,-350.95 1060.5,-370.95"/>
<text text-anchor="middle" x="980.12" y="-357.45" font-family="Helvetica,sans-Serif" font-size="10.00">LSM1x0A_LoRaWAN::setNwkID</text>
</a>
</g>
</g>
<!-- Node13&#45;&gt;Node23 -->
<g id="edge37_Node000013_Node000023" class="edge">
<title>Node13&#45;&gt;Node23</title>
<g id="a_edge37_Node000013_Node000023"><a xlink:title=" ">
<path fill="none" stroke="#63b8ff" d="M782.26,-464.74C801.85,-441.98 840.78,-400.98 883.25,-379.95 886.93,-378.13 890.76,-376.48 894.7,-374.99"/>
<polygon fill="#63b8ff" stroke="#63b8ff" points="895.51,-378.41 903.86,-371.9 893.27,-371.78 895.51,-378.41"/>
</a>
</g>
</g>
<!-- Node24 -->
<g id="Node000024" class="node">
<title>Node24</title>
<g id="a_Node000024"><a xlink:href="../../d5/d72/classLSM1x0A__LoRaWAN.html#aa70ada64d28ecca216bb62268e502adf" target="_top" xlink:title="Sets the delay for the RX1 receive window.">
<polygon fill="white" stroke="#666666" points="1066.88,-332.95 893.38,-332.95 893.38,-312.95 1066.88,-312.95 1066.88,-332.95"/>
<text text-anchor="middle" x="980.12" y="-319.45" font-family="Helvetica,sans-Serif" font-size="10.00">LSM1x0A_LoRaWAN::setRx1Delay</text>
</a>
</g>
</g>
<!-- Node13&#45;&gt;Node24 -->
<g id="edge39_Node000013_Node000024" class="edge">
<title>Node13&#45;&gt;Node24</title>
<g id="a_edge39_Node000013_Node000024"><a xlink:title=" ">
<path fill="none" stroke="#63b8ff" d="M777.45,-464.54C793.65,-434.88 832.05,-372.58 883.25,-341.95 885.73,-340.46 888.31,-339.09 890.96,-337.82"/>
<polygon fill="#63b8ff" stroke="#63b8ff" points="892.21,-341.09 900.09,-334.02 889.51,-334.63 892.21,-341.09"/>
</a>
</g>
</g>
<!-- Node25 -->
<g id="Node000025" class="node">
<title>Node25</title>
<g id="a_Node000025"><a xlink:href="../../d5/d72/classLSM1x0A__LoRaWAN.html#a2cf4eff0181b6107d082bccefa24217b" target="_top" xlink:title="Sets the Data Rate (DR) specifically for the RX2 window.">
<polygon fill="white" stroke="#666666" points="1075.12,-294.95 885.12,-294.95 885.12,-274.95 1075.12,-274.95 1075.12,-294.95"/>
<text text-anchor="middle" x="980.12" y="-281.45" font-family="Helvetica,sans-Serif" font-size="10.00">LSM1x0A_LoRaWAN::setRx2DataRate</text>
</a>
</g>
</g>
<!-- Node13&#45;&gt;Node25 -->
<g id="edge41_Node000013_Node000025" class="edge">
<title>Node13&#45;&gt;Node25</title>
<g id="a_edge41_Node000013_Node000025"><a xlink:title=" ">
<path fill="none" stroke="#63b8ff" d="M774.52,-464.61C787.4,-429.11 823.04,-344.84 883.25,-303.95 885.22,-302.61 887.27,-301.36 889.38,-300.19"/>
<polygon fill="#63b8ff" stroke="#63b8ff" points="890.71,-303.43 898.23,-295.97 887.7,-297.11 890.71,-303.43"/>
</a>
</g>
</g>
<!-- Node26 -->
<g id="Node000026" class="node">
<title>Node26</title>
<g id="a_Node000026"><a xlink:href="../../d5/d72/classLSM1x0A__LoRaWAN.html#a42d2137b475b57e19d891a5f1ac93221" target="_top" xlink:title="Sets the delay for the RX2 receive window.">
<polygon fill="white" stroke="#666666" points="1066.88,-256.95 893.38,-256.95 893.38,-236.95 1066.88,-236.95 1066.88,-256.95"/>
<text text-anchor="middle" x="980.12" y="-243.45" font-family="Helvetica,sans-Serif" font-size="10.00">LSM1x0A_LoRaWAN::setRx2Delay</text>
</a>
</g>
</g>
<!-- Node13&#45;&gt;Node26 -->
<g id="edge43_Node000013_Node000026" class="edge">
<title>Node13&#45;&gt;Node26</title>
<g id="a_edge43_Node000013_Node000026"><a xlink:title=" ">
<path fill="none" stroke="#63b8ff" d="M772.59,-464.6C782.43,-423.89 813.86,-317.5 883.25,-265.95 884.84,-264.76 886.49,-263.65 888.18,-262.6"/>
<polygon fill="#63b8ff" stroke="#63b8ff" points="889.76,-265.72 896.98,-257.97 886.5,-259.53 889.76,-265.72"/>
</a>
</g>
</g>
<!-- Node27 -->
<g id="Node000027" class="node">
<title>Node27</title>
<g id="a_Node000027"><a xlink:href="../../d5/d72/classLSM1x0A__LoRaWAN.html#a689f7dfda1dfeae11ea397c2ddf2ad37" target="_top" xlink:title="Sets the precise frequency for the RX2 window.">
<polygon fill="white" stroke="#666666" points="1077,-218.95 883.25,-218.95 883.25,-198.95 1077,-198.95 1077,-218.95"/>
<text text-anchor="middle" x="980.12" y="-205.45" font-family="Helvetica,sans-Serif" font-size="10.00">LSM1x0A_LoRaWAN::setRx2Frequency</text>
</a>
</g>
</g>
<!-- Node13&#45;&gt;Node27 -->
<g id="edge45_Node000013_Node000027" class="edge">
<title>Node13&#45;&gt;Node27</title>
<g id="a_edge45_Node000013_Node000027"><a xlink:title=" ">
<path fill="none" stroke="#63b8ff" d="M771.21,-464.5C778.26,-418.96 804.56,-290.44 883.25,-227.95 884.58,-226.89 885.95,-225.89 887.36,-224.94"/>
<polygon fill="#63b8ff" stroke="#63b8ff" points="888.86,-228.11 895.82,-220.12 885.4,-222.03 888.86,-228.11"/>
</a>
</g>
</g>
<!-- Node28 -->
<g id="Node000028" class="node">
<title>Node28</title>
<g id="a_Node000028"><a xlink:href="../../d5/d72/classLSM1x0A__LoRaWAN.html#a1df10d7ae6bf45b537d28d3d5c4b88d7" target="_top" xlink:title="Sets the transmission power index.">
<polygon fill="white" stroke="#666666" points="1064.62,-180.95 895.62,-180.95 895.62,-160.95 1064.62,-160.95 1064.62,-180.95"/>
<text text-anchor="middle" x="980.12" y="-167.45" font-family="Helvetica,sans-Serif" font-size="10.00">LSM1x0A_LoRaWAN::setTxPower</text>
</a>
</g>
</g>
<!-- Node13&#45;&gt;Node28 -->
<g id="edge47_Node000013_Node000028" class="edge">
<title>Node13&#45;&gt;Node28</title>
<g id="a_edge47_Node000013_Node000028"><a xlink:title=" ">
<path fill="none" stroke="#63b8ff" d="M770.14,-464.65C774.55,-414.88 794.96,-263.73 883.25,-189.95 884.39,-189 885.55,-188.09 886.75,-187.23"/>
<polygon fill="#63b8ff" stroke="#63b8ff" points="888.43,-190.3 895.18,-182.14 884.81,-184.31 888.43,-190.3"/>
</a>
</g>
</g>
<!-- Node29 -->
<g id="Node000029" class="node">
<title>Node29</title>
<g id="a_Node000029"><a xlink:href="../../d5/d72/classLSM1x0A__LoRaWAN.html#a059fd6a9356c4ecadd5a98294da5952d" target="_top" xlink:title="Configures the number of repetitions for Unconfirmed uplinks.">
<polygon fill="white" stroke="#666666" points="1067.62,-142.95 892.62,-142.95 892.62,-110.95 1067.62,-110.95 1067.62,-142.95"/>
<text text-anchor="start" x="900.62" y="-129.45" font-family="Helvetica,sans-Serif" font-size="10.00">LSM1x0A_LoRaWAN::setUnconfirm</text>
<text text-anchor="middle" x="980.12" y="-117.45" font-family="Helvetica,sans-Serif" font-size="10.00">Retry</text>
</a>
</g>
</g>
<!-- Node13&#45;&gt;Node29 -->
<g id="edge49_Node000013_Node000029" class="edge">
<title>Node13&#45;&gt;Node29</title>
<g id="a_edge49_Node000013_Node000029"><a xlink:title=" ">
<path fill="none" stroke="#63b8ff" d="M769.52,-464.75C772.15,-411.46 787.98,-239.96 883.25,-151.95 884.02,-151.23 884.82,-150.54 885.62,-149.86"/>
<polygon fill="#63b8ff" stroke="#63b8ff" points="887.47,-152.84 893.62,-144.21 883.44,-147.12 887.47,-152.84"/>
</a>
</g>
</g>
<!-- Node14&#45;&gt;Node3 -->
<g id="edge19_Node000014_Node000003" class="edge">
<title>Node14&#45;&gt;Node3</title>
<g id="a_edge19_Node000014_Node000003"><a xlink:title=" ">
<path fill="none" stroke="#63b8ff" d="M905.11,-778.49C795.89,-761.69 598.83,-725.64 546.75,-677.95 496.1,-631.57 472.87,-550.58 463.75,-508.34"/>
<polygon fill="#63b8ff" stroke="#63b8ff" points="467.23,-507.86 461.8,-498.76 460.37,-509.26 467.23,-507.86"/>
</a>
</g>
</g>
<!-- Node15&#45;&gt;Node3 -->
<g id="edge21_Node000015_Node000003" class="edge">
<title>Node15&#45;&gt;Node3</title>
<g id="a_edge21_Node000015_Node000003"><a xlink:title=" ">
<path fill="none" stroke="#63b8ff" d="M907.48,-740.46C799.42,-723.42 601.51,-687.03 546.75,-641.95 503.48,-606.32 478.12,-543.61 466.49,-507.88"/>
<polygon fill="#63b8ff" stroke="#63b8ff" points="469.96,-507.24 463.64,-498.74 463.27,-509.32 469.96,-507.24"/>
</a>
</g>
</g>
<!-- Node16&#45;&gt;Node3 -->
<g id="edge24_Node000016_Node000003" class="edge">
<title>Node16&#45;&gt;Node3</title>
<g id="a_edge24_Node000016_Node000003"><a xlink:title=" ">
<path fill="none" stroke="#63b8ff" d="M897.49,-696.13C788.08,-680.29 601.32,-648.15 546.75,-606.95 511.63,-580.43 485.24,-535.78 470.9,-507.37"/>
<polygon fill="#63b8ff" stroke="#63b8ff" points="474.21,-506.16 466.67,-498.71 467.92,-509.23 474.21,-506.16"/>
</a>
</g>
</g>
<!-- Node17&#45;&gt;Node3 -->
<g id="edge26_Node000017_Node000003" class="edge">
<title>Node17&#45;&gt;Node3</title>
<g id="a_edge26_Node000017_Node000003"><a xlink:title=" ">
<path fill="none" stroke="#63b8ff" d="M894.02,-660.63C802.31,-654.66 654.96,-634.71 546.75,-569.95 519.07,-553.38 493.89,-526.09 477.63,-506.09"/>
<polygon fill="#63b8ff" stroke="#63b8ff" points="480.49,-504.06 471.54,-498.39 475,-508.41 480.49,-504.06"/>
</a>
</g>
</g>
<!-- Node18&#45;&gt;Node3 -->
<g id="edge28_Node000018_Node000003" class="edge">
<title>Node18&#45;&gt;Node3</title>
<g id="a_edge28_Node000018_Node000003"><a xlink:title=" ">
<path fill="none" stroke="#63b8ff" d="M895.77,-618.09C806.51,-608.52 662.15,-586.49 546.75,-537.95 525.99,-529.22 504.74,-515.61 488.33,-503.88"/>
<polygon fill="#63b8ff" stroke="#63b8ff" points="490.62,-501.22 480.48,-498.14 486.49,-506.87 490.62,-501.22"/>
</a>
</g>
</g>
<!-- Node19&#45;&gt;Node3 -->
<g id="edge30_Node000019_Node000003" class="edge">
<title>Node19&#45;&gt;Node3</title>
<g id="a_edge30_Node000019_Node000003"><a xlink:title=" ">
<path fill="none" stroke="#63b8ff" d="M897.37,-576.91C809.78,-565.2 667.09,-543.35 546.75,-511.95 535.23,-508.94 523.07,-505.11 511.59,-501.17"/>
<polygon fill="#63b8ff" stroke="#63b8ff" points="512.85,-497.9 502.26,-497.88 510.53,-504.5 512.85,-497.9"/>
</a>
</g>
</g>
<!-- Node20&#45;&gt;Node3 -->
<g id="edge32_Node000020_Node000003" class="edge">
<title>Node20&#45;&gt;Node3</title>
<g id="a_edge32_Node000020_Node000003"><a xlink:title=" ">
<path fill="none" stroke="#63b8ff" d="M904.39,-534.04C801.71,-521.81 618.81,-500.02 522.35,-488.53"/>
<polygon fill="#63b8ff" stroke="#63b8ff" points="522.87,-485.06 512.53,-487.36 522.05,-492.01 522.87,-485.06"/>
</a>
</g>
</g>
<!-- Node21&#45;&gt;Node3 -->
<g id="edge34_Node000021_Node000003" class="edge">
<title>Node21&#45;&gt;Node3</title>
<g id="a_edge34_Node000021_Node000003"><a xlink:title=" ">
<path fill="none" stroke="#63b8ff" d="M903.25,-453.04C844.62,-452.09 761.48,-451.88 688.75,-455.95 632.37,-459.1 568.55,-466.33 522.47,-472.21"/>
<polygon fill="#63b8ff" stroke="#63b8ff" points="522.12,-468.72 512.65,-473.48 523.01,-475.67 522.12,-468.72"/>
</a>
</g>
</g>
<!-- Node22&#45;&gt;Node3 -->
<g id="edge36_Node000022_Node000003" class="edge">
<title>Node22&#45;&gt;Node3</title>
<g id="a_edge36_Node000022_Node000003"><a xlink:title=" ">
<path fill="none" stroke="#63b8ff" d="M903.13,-409.76C816.28,-416.18 670.21,-429.77 546.75,-454.95 538.08,-456.72 529.03,-458.94 520.17,-461.34"/>
<polygon fill="#63b8ff" stroke="#63b8ff" points="519.23,-457.97 510.55,-464.05 521.13,-464.71 519.23,-457.97"/>
</a>
</g>
</g>
<!-- Node23&#45;&gt;Node3 -->
<g id="edge38_Node000023_Node000003" class="edge">
<title>Node23&#45;&gt;Node3</title>
<g id="a_edge38_Node000023_Node000003"><a xlink:title=" ">
<path fill="none" stroke="#63b8ff" d="M899.46,-366.22C811.2,-373.87 665.63,-391.94 546.75,-432.95 528.26,-439.33 509.05,-449.35 493.31,-458.6"/>
<polygon fill="#63b8ff" stroke="#63b8ff" points="491.55,-455.57 484.8,-463.73 495.17,-461.56 491.55,-455.57"/>
</a>
</g>
</g>
<!-- Node24&#45;&gt;Node3 -->
<g id="edge40_Node000024_Node000003" class="edge">
<title>Node24&#45;&gt;Node3</title>
<g id="a_edge40_Node000024_Node000003"><a xlink:title=" ">
<path fill="none" stroke="#63b8ff" d="M892.99,-323.48C802.04,-327.36 656.85,-343.2 546.75,-400.95 520.51,-414.71 496.03,-438.19 479.59,-456.16"/>
<polygon fill="#63b8ff" stroke="#63b8ff" points="477.23,-453.54 473.2,-463.34 482.46,-458.2 477.23,-453.54"/>
</a>
</g>
</g>
<!-- Node25&#45;&gt;Node3 -->
<g id="edge42_Node000025_Node000003" class="edge">
<title>Node25&#45;&gt;Node3</title>
<g id="a_edge42_Node000025_Node000003"><a xlink:title=" ">
<path fill="none" stroke="#63b8ff" d="M884.9,-278.72C791.35,-277.21 647.69,-287.94 546.75,-355.95 510.25,-380.54 484.12,-425.71 470.23,-454.49"/>
<polygon fill="#63b8ff" stroke="#63b8ff" points="467.19,-452.73 466.15,-463.27 473.54,-455.68 467.19,-452.73"/>
</a>
</g>
</g>
<!-- Node26&#45;&gt;Node3 -->
<g id="edge44_Node000026_Node000003" class="edge">
<title>Node26&#45;&gt;Node3</title>
<g id="a_edge44_Node000026_Node000003"><a xlink:title=" ">
<path fill="none" stroke="#63b8ff" d="M909.35,-236.49C816.58,-226.6 652.09,-223.58 546.75,-304.95 498.11,-342.51 474.38,-414.19 464.56,-453.49"/>
<polygon fill="#63b8ff" stroke="#63b8ff" points="461.19,-452.56 462.3,-463.1 468,-454.17 461.19,-452.56"/>
</a>
</g>
</g>
<!-- Node27&#45;&gt;Node3 -->
<g id="edge46_Node000027_Node000003" class="edge">
<title>Node27&#45;&gt;Node3</title>
<g id="a_edge46_Node000027_Node000003"><a xlink:title=" ">
<path fill="none" stroke="#63b8ff" d="M882.92,-205.86C771.47,-204.31 596.75,-208.72 546.75,-248.95 482.86,-300.36 465.33,-403.6 460.54,-453.16"/>
<polygon fill="#63b8ff" stroke="#63b8ff" points="457.06,-452.77 459.7,-463.03 464.03,-453.36 457.06,-452.77"/>
</a>
</g>
</g>
<!-- Node28&#45;&gt;Node3 -->
<g id="edge48_Node000028_Node000003" class="edge">
<title>Node28&#45;&gt;Node3</title>
<g id="a_edge48_Node000028_Node000003"><a xlink:title=" ">
<path fill="none" stroke="#63b8ff" d="M932.42,-160.48C845.99,-144.01 659.64,-122.56 546.75,-212.95 471.94,-272.85 460.08,-397.78 458.65,-453.31"/>
<polygon fill="#63b8ff" stroke="#63b8ff" points="455.15,-453.1 458.5,-463.15 462.15,-453.21 455.15,-453.1"/>
</a>
</g>
</g>
<!-- Node29&#45;&gt;Node3 -->
<g id="edge50_Node000029_Node000003" class="edge">
<title>Node29&#45;&gt;Node3</title>
<g id="a_edge50_Node000029_Node000003"><a xlink:title=" ">
<path fill="none" stroke="#63b8ff" d="M892.24,-121.55C781.15,-116.57 597.12,-115.39 546.75,-157.95 500.9,-196.69 471.75,-383.18 462.2,-453.79"/>
<polygon fill="#63b8ff" stroke="#63b8ff" points="458.78,-452.95 460.94,-463.32 465.72,-453.87 458.78,-452.95"/>
</a>
</g>
</g>
<!-- Node31&#45;&gt;Node32 -->
<g id="edge53_Node000031_Node000032" class="edge">
<title>Node31&#45;&gt;Node32</title>
<g id="a_edge53_Node000031_Node000032"><a xlink:title=" ">
<path fill="none" stroke="#63b8ff" d="M821.48,-1092.44C839.64,-1094.34 860.61,-1096.54 881.22,-1098.7"/>
<polygon fill="#63b8ff" stroke="#63b8ff" points="880.79,-1102.17 891.1,-1099.73 881.52,-1095.21 880.79,-1102.17"/>
</a>
</g>
</g>
<!-- Node33 -->
<g id="Node000033" class="node">
<title>Node33</title>
<g id="a_Node000033"><a xlink:href="../../d6/d3c/classLSM1x0A__AtParser.html#a0ba6f927c54fceece22c17773d3f2600" target="_top" xlink:title="Sends a command and extracts a value from the response.">
<polygon fill="white" stroke="#666666" points="1295.12,-1124.95 1120.88,-1124.95 1120.88,-1092.95 1295.12,-1092.95 1295.12,-1124.95"/>
<text text-anchor="start" x="1128.88" y="-1111.45" font-family="Helvetica,sans-Serif" font-size="10.00">LSM1x0A_AtParser::sendCommand</text>
<text text-anchor="middle" x="1208" y="-1099.45" font-family="Helvetica,sans-Serif" font-size="10.00">WithResponse</text>
</a>
</g>
</g>
<!-- Node32&#45;&gt;Node33 -->
<g id="edge54_Node000032_Node000033" class="edge">
<title>Node32&#45;&gt;Node33</title>
<g id="a_edge54_Node000032_Node000033"><a xlink:title=" ">
<path fill="none" stroke="#63b8ff" d="M1067.49,-1108.95C1081.24,-1108.95 1095.56,-1108.95 1109.55,-1108.95"/>
<polygon fill="#63b8ff" stroke="#63b8ff" points="1109.17,-1112.45 1119.17,-1108.95 1109.17,-1105.45 1109.17,-1112.45"/>
</a>
</g>
</g>
<!-- Node34 -->
<g id="Node000034" class="node">
<title>Node34</title>
<g id="a_Node000034"><a xlink:href="../../d5/d8b/classUartDriver.html#a5d0f22e8867eebe99273078bb19bd23d" target="_top" xlink:title="Sends data through UART.">
<polygon fill="white" stroke="#666666" points="1469.75,-1118.95 1360.75,-1118.95 1360.75,-1098.95 1469.75,-1098.95 1469.75,-1118.95"/>
<text text-anchor="middle" x="1415.25" y="-1105.45" font-family="Helvetica,sans-Serif" font-size="10.00">UartDriver::sendData</text>
</a>
</g>
</g>
<!-- Node33&#45;&gt;Node34 -->
<g id="edge55_Node000033_Node000034" class="edge">
<title>Node33&#45;&gt;Node34</title>
<g id="a_edge55_Node000033_Node000034"><a xlink:title=" ">
<path fill="none" stroke="#63b8ff" d="M1295.45,-1108.95C1313.34,-1108.95 1331.91,-1108.95 1348.89,-1108.95"/>
<polygon fill="#63b8ff" stroke="#63b8ff" points="1348.86,-1112.45 1358.86,-1108.95 1348.86,-1105.45 1348.86,-1112.45"/>
</a>
</g>
</g>
</g>
</svg>
