<?xml version="1.0" encoding="UTF-8" standalone="no"?>
<!DOCTYPE svg PUBLIC "-//W3C//DTD SVG 1.1//EN"
 "http://www.w3.org/Graphics/SVG/1.1/DTD/svg11.dtd">
<!-- Generated by graphviz version 12.2.1 (20241206.2353)
 -->
<!-- Title: LSM1x0A_LoRaWAN::setDutyCycle Pages: 1 -->
<svg width="1282pt" height="1059pt"
 viewBox="0.00 0.00 1281.75 1059.07" xmlns="http://www.w3.org/2000/svg" xmlns:xlink="http://www.w3.org/1999/xlink">
<g id="graph0" class="graph" transform="scale(1 1) rotate(0) translate(4 1055.07)">
<title>LSM1x0A_LoRaWAN::setDutyCycle</title>
<!-- Node1 -->
<g id="Node000001" class="node">
<title>Node1</title>
<g id="a_Node000001"><a xlink:title="Enables or disables the Duty Cycle limitation (EU regions mostly).">
<polygon fill="#999999" stroke="#666666" points="151,-350.01 0,-350.01 0,-318.01 151,-318.01 151,-350.01"/>
<text text-anchor="start" x="8" y="-336.51" font-family="Helvetica,sans-Serif" font-size="10.00">LSM1x0A_LoRaWAN::setDuty</text>
<text text-anchor="middle" x="75.5" y="-324.51" font-family="Helvetica,sans-Serif" font-size="10.00">Cycle</text>
</a>
</g>
</g>
<!-- Node2 -->
<g id="Node000002" class="node">
<title>Node2</title>
<g id="a_Node000002"><a xlink:href="../../d8/d92/classLSM1x0A__Controller.html#afd7d92e60ed6fdae696a955cdbe0ed8c" target="_top" xlink:title="Sends any AT command to the module, returning error if it fails. Internally uses the LsmAtParser logi...">
<polygon fill="white" stroke="#666666" points="293,-443.01 187,-443.01 187,-411.01 293,-411.01 293,-443.01"/>
<text text-anchor="start" x="195" y="-429.51" font-family="Helvetica,sans-Serif" font-size="10.00">LSM1x0A_Controller</text>
<text text-anchor="middle" x="240" y="-417.51" font-family="Helvetica,sans-Serif" font-size="10.00">::sendCommand</text>
</a>
</g>
</g>
<!-- Node1&#45;&gt;Node2 -->
<g id="edge1_Node000001_Node000002" class="edge">
<title>Node1&#45;&gt;Node2</title>
<g id="a_edge1_Node000001_Node000002"><a xlink:title=" ">
<path fill="none" stroke="#63b8ff" d="M105.18,-350.42C131.67,-365.58 171.22,-388.22 200.46,-404.95"/>
<polygon fill="#63b8ff" stroke="#63b8ff" points="198.6,-407.92 209.02,-409.85 202.08,-401.85 198.6,-407.92"/>
</a>
</g>
</g>
<!-- Node3 -->
<g id="Node000003" class="node">
<title>Node3</title>
<g id="a_Node000003"><a xlink:href="../../d8/d92/classLSM1x0A__Controller.html#abb0eb380daa3dfb7acffb483c5db8e2b" target="_top" xlink:title="Executes the recovery protocol. First Soft&#45;Reset (ATZ), then Hard&#45;Reset if there is a pin.">
<polygon fill="white" stroke="#666666" points="435,-860.01 329,-860.01 329,-828.01 435,-828.01 435,-860.01"/>
<text text-anchor="start" x="337" y="-846.51" font-family="Helvetica,sans-Serif" font-size="10.00">LSM1x0A_Controller</text>
<text text-anchor="middle" x="382" y="-834.51" font-family="Helvetica,sans-Serif" font-size="10.00">::recoverModule</text>
</a>
</g>
</g>
<!-- Node2&#45;&gt;Node3 -->
<g id="edge2_Node000002_Node000003" class="edge">
<title>Node2&#45;&gt;Node3</title>
<g id="a_edge2_Node000002_Node000003"><a xlink:title=" ">
<path fill="none" stroke="#63b8ff" d="M245.04,-443.45C256.41,-488.98 290.34,-620.3 329,-726.01 340.75,-758.13 357,-793.95 368.19,-817.6"/>
<polygon fill="#63b8ff" stroke="#63b8ff" points="364.97,-818.98 372.44,-826.5 371.29,-815.96 364.97,-818.98"/>
</a>
</g>
</g>
<!-- Node30 -->
<g id="Node000030" class="node">
<title>Node30</title>
<g id="a_Node000030"><a xlink:href="../../d6/d3c/classLSM1x0A__AtParser.html#a29b53c521974387ba6c03afadfaffa4a" target="_top" xlink:title="Sends a simple command and waits for OK/ERROR. Example: sendCommand(&quot;AT+JOIN&quot;);.">
<polygon fill="white" stroke="#666666" points="849.5,-696.01 675.25,-696.01 675.25,-676.01 849.5,-676.01 849.5,-696.01"/>
<text text-anchor="middle" x="762.38" y="-682.51" font-family="Helvetica,sans-Serif" font-size="10.00">LSM1x0A_AtParser::sendCommand</text>
</a>
</g>
</g>
<!-- Node2&#45;&gt;Node30 -->
<g id="edge54_Node000002_Node000030" class="edge">
<title>Node2&#45;&gt;Node30</title>
<g id="a_edge54_Node000002_Node000030"><a xlink:title=" ">
<path fill="none" stroke="#63b8ff" d="M244.9,-443.44C253.85,-477.61 279.03,-556.85 329,-601.01 420.82,-682.14 566.98,-695.02 663.55,-693.3"/>
<polygon fill="#63b8ff" stroke="#63b8ff" points="663.36,-696.81 673.27,-693.07 663.19,-689.81 663.36,-696.81"/>
</a>
</g>
</g>
<!-- Node4 -->
<g id="Node000004" class="node">
<title>Node4</title>
<g id="a_Node000004"><a xlink:href="../../d8/d92/classLSM1x0A__Controller.html#a3f6f25b843fe4fb7042c544deae2ab16" target="_top" xlink:title="Manually clears bits from the internal EventGroup.">
<polygon fill="white" stroke="#666666" points="1043.25,-917.01 937.25,-917.01 937.25,-885.01 1043.25,-885.01 1043.25,-917.01"/>
<text text-anchor="start" x="945.25" y="-903.51" font-family="Helvetica,sans-Serif" font-size="10.00">LSM1x0A_Controller</text>
<text text-anchor="middle" x="990.25" y="-891.51" font-family="Helvetica,sans-Serif" font-size="10.00">::clearEvents</text>
</a>
</g>
</g>
<!-- Node3&#45;&gt;Node4 -->
<g id="edge3_Node000003_Node000004" class="edge">
<title>Node3&#45;&gt;Node4</title>
<g id="a_edge3_Node000003_Node000004"><a xlink:title=" ">
<path fill="none" stroke="#63b8ff" d="M433.76,-860.43C445.85,-863.78 458.79,-866.92 471,-869.01 633.02,-896.69 827.15,-901.17 925.46,-901.46"/>
<polygon fill="#63b8ff" stroke="#63b8ff" points="925.45,-904.96 935.45,-901.47 925.46,-897.96 925.45,-904.96"/>
</a>
</g>
</g>
<!-- Node5 -->
<g id="Node000005" class="node">
<title>Node5</title>
<g id="a_Node000005"><a xlink:href="../../d8/d92/classLSM1x0A__Controller.html#a345d4bd79fa16b18dc33a4ca788fe5f7" target="_top" xlink:title="Performs a hardware reset using the reset pin.">
<polygon fill="white" stroke="#666666" points="603.25,-860.01 497.25,-860.01 497.25,-828.01 603.25,-828.01 603.25,-860.01"/>
<text text-anchor="start" x="505.25" y="-846.51" font-family="Helvetica,sans-Serif" font-size="10.00">LSM1x0A_Controller</text>
<text text-anchor="middle" x="550.25" y="-834.51" font-family="Helvetica,sans-Serif" font-size="10.00">::hardwareReset</text>
</a>
</g>
</g>
<!-- Node3&#45;&gt;Node5 -->
<g id="edge4_Node000003_Node000005" class="edge">
<title>Node3&#45;&gt;Node5</title>
<g id="a_edge4_Node000003_Node000005"><a xlink:title=" ">
<path fill="none" stroke="#63b8ff" d="M435.15,-844.01C451.16,-844.01 468.97,-844.01 485.66,-844.01"/>
<polygon fill="#63b8ff" stroke="#63b8ff" points="485.49,-847.51 495.49,-844.01 485.49,-840.51 485.49,-847.51"/>
</a>
</g>
</g>
<!-- Node7 -->
<g id="Node000007" class="node">
<title>Node7</title>
<g id="a_Node000007"><a xlink:href="../../d5/d72/classLSM1x0A__LoRaWAN.html#a1892801e37c8cd67d37c76108d6f7d49" target="_top" xlink:title="Validates if the device is currently Joined to the network. (Either confirmed by OTAA or statically a...">
<polygon fill="white" stroke="#666666" points="1273.75,-783.01 1121.25,-783.01 1121.25,-763.01 1273.75,-763.01 1273.75,-783.01"/>
<text text-anchor="middle" x="1197.5" y="-769.51" font-family="Helvetica,sans-Serif" font-size="10.00">LSM1x0A_LoRaWAN::isJoined</text>
</a>
</g>
</g>
<!-- Node3&#45;&gt;Node7 -->
<g id="edge6_Node000003_Node000007" class="edge">
<title>Node3&#45;&gt;Node7</title>
<g id="a_edge6_Node000003_Node000007"><a xlink:title=" ">
<path fill="none" stroke="#63b8ff" d="M433.76,-827.6C445.85,-824.24 458.79,-821.1 471,-819.01 699.21,-779.82 972.95,-773.17 1109.74,-772.56"/>
<polygon fill="#63b8ff" stroke="#63b8ff" points="1109.45,-776.06 1119.44,-772.52 1109.42,-769.06 1109.45,-776.06"/>
</a>
</g>
</g>
<!-- Node8 -->
<g id="Node000008" class="node">
<title>Node8</title>
<g id="a_Node000008"><a xlink:href="../../d5/d72/classLSM1x0A__LoRaWAN.html#a83e11c0e74ff9e0757db616ab1163424" target="_top" xlink:title="Attempts to recover a lost connection (re&#45;executes OTAA Join if dropped).">
<polygon fill="white" stroke="#666666" points="624.62,-1024.01 475.88,-1024.01 475.88,-992.01 624.62,-992.01 624.62,-1024.01"/>
<text text-anchor="start" x="483.88" y="-1010.51" font-family="Helvetica,sans-Serif" font-size="10.00">LSM1x0A_LoRaWAN::recover</text>
<text text-anchor="middle" x="550.25" y="-998.51" font-family="Helvetica,sans-Serif" font-size="10.00">Connection</text>
</a>
</g>
</g>
<!-- Node3&#45;&gt;Node8 -->
<g id="edge7_Node000003_Node000008" class="edge">
<title>Node3&#45;&gt;Node8</title>
<g id="a_edge7_Node000003_Node000008"><a xlink:title=" ">
<path fill="none" stroke="#63b8ff" d="M389.7,-860.4C401.89,-888.31 430.25,-945.19 471,-978.01 474.87,-981.12 479.09,-983.94 483.51,-986.48"/>
<polygon fill="#63b8ff" stroke="#63b8ff" points="481.6,-989.43 492.09,-990.92 484.82,-983.21 481.6,-989.43"/>
</a>
</g>
</g>
<!-- Node12 -->
<g id="Node000012" class="node">
<title>Node12</title>
<g id="a_Node000012"><a xlink:href="../../d5/d72/classLSM1x0A__LoRaWAN.html#ae3be4ce59dfa200369733317df356e97" target="_top" xlink:title="Pushes the RAM&#45;cached variables back down into the hardware module. Restores the operational state af...">
<polygon fill="white" stroke="#666666" points="623.5,-380.01 477,-380.01 477,-348.01 623.5,-348.01 623.5,-380.01"/>
<text text-anchor="start" x="485" y="-366.51" font-family="Helvetica,sans-Serif" font-size="10.00">LSM1x0A_LoRaWAN::restore</text>
<text text-anchor="middle" x="550.25" y="-354.51" font-family="Helvetica,sans-Serif" font-size="10.00">Config</text>
</a>
</g>
</g>
<!-- Node3&#45;&gt;Node12 -->
<g id="edge16_Node000003_Node000012" class="edge">
<title>Node3&#45;&gt;Node12</title>
<g id="a_edge16_Node000003_Node000012"><a xlink:title=" ">
<path fill="none" stroke="#63b8ff" d="M388.63,-827.76C412.95,-757.55 509.17,-479.72 539.82,-391.23"/>
<polygon fill="#63b8ff" stroke="#63b8ff" points="543.08,-392.52 543.04,-381.93 536.46,-390.23 543.08,-392.52"/>
</a>
</g>
</g>
<!-- Node28 -->
<g id="Node000028" class="node">
<title>Node28</title>
<g id="a_Node000028"><a xlink:href="../../d5/d72/classLSM1x0A__LoRaWAN.html#ace4b04396f1de1f4a54f513f5f378db7" target="_top" xlink:title="Manually overrides the internal joined state tracker.">
<polygon fill="white" stroke="#666666" points="629.5,-936.01 471,-936.01 471,-916.01 629.5,-916.01 629.5,-936.01"/>
<text text-anchor="middle" x="550.25" y="-922.51" font-family="Helvetica,sans-Serif" font-size="10.00">LSM1x0A_LoRaWAN::setJoined</text>
</a>
</g>
</g>
<!-- Node3&#45;&gt;Node28 -->
<g id="edge49_Node000003_Node000028" class="edge">
<title>Node3&#45;&gt;Node28</title>
<g id="a_edge49_Node000003_Node000028"><a xlink:title=" ">
<path fill="none" stroke="#63b8ff" d="M404.04,-860.36C421.26,-873.12 446.67,-890.55 471,-902.01 479.04,-905.8 487.83,-909.17 496.52,-912.1"/>
<polygon fill="#63b8ff" stroke="#63b8ff" points="495.37,-915.4 505.96,-915.11 497.5,-908.74 495.37,-915.4"/>
</a>
</g>
</g>
<!-- Node29 -->
<g id="Node000029" class="node">
<title>Node29</title>
<g id="a_Node000029"><a xlink:href="../../d8/d92/classLSM1x0A__Controller.html#a11ad21cb5ca33ec51346764a23bd485e" target="_top" xlink:title="Performs a software reset (ATZ Command).">
<polygon fill="white" stroke="#666666" points="603.25,-772.01 497.25,-772.01 497.25,-740.01 603.25,-740.01 603.25,-772.01"/>
<text text-anchor="start" x="505.25" y="-758.51" font-family="Helvetica,sans-Serif" font-size="10.00">LSM1x0A_Controller</text>
<text text-anchor="middle" x="550.25" y="-746.51" font-family="Helvetica,sans-Serif" font-size="10.00">::softwareReset</text>
</a>
</g>
</g>
<!-- Node3&#45;&gt;Node29 -->
<g id="edge50_Node000003_Node000029" class="edge">
<title>Node3&#45;&gt;Node29</title>
<g id="a_edge50_Node000003_Node000029"><a xlink:title=" ">
<path fill="none" stroke="#63b8ff" d="M404.97,-827.59C422.3,-815.13 447.4,-798.13 471,-786.01 477.29,-782.78 484,-779.7 490.76,-776.82"/>
<polygon fill="#63b8ff" stroke="#63b8ff" points="492.03,-780.08 499.96,-773.05 489.38,-773.6 492.03,-780.08"/>
</a>
</g>
</g>
<!-- Node6 -->
<g id="Node000006" class="node">
<title>Node6</title>
<g id="a_Node000006"><a xlink:href="../../d6/d3c/classLSM1x0A__AtParser.html#ad2839120da13e56132b95019419be1e5" target="_top" xlink:title="Waits for an event (like BOOTALERT) without sending any command. Useful for hardware reset where the ...">
<polygon fill="white" stroke="#666666" points="832.62,-860.01 692.12,-860.01 692.12,-828.01 832.62,-828.01 832.62,-860.01"/>
<text text-anchor="start" x="700.12" y="-846.51" font-family="Helvetica,sans-Serif" font-size="10.00">LSM1x0A_AtParser::waitFor</text>
<text text-anchor="middle" x="762.38" y="-834.51" font-family="Helvetica,sans-Serif" font-size="10.00">Event</text>
</a>
</g>
</g>
<!-- Node5&#45;&gt;Node6 -->
<g id="edge5_Node000005_Node000006" class="edge">
<title>Node5&#45;&gt;Node6</title>
<g id="a_edge5_Node000005_Node000006"><a xlink:title=" ">
<path fill="none" stroke="#63b8ff" d="M603.73,-844.01C626.92,-844.01 654.72,-844.01 680.46,-844.01"/>
<polygon fill="#63b8ff" stroke="#63b8ff" points="680.22,-847.51 690.22,-844.01 680.22,-840.51 680.22,-847.51"/>
</a>
</g>
</g>
<!-- Node9 -->
<g id="Node000009" class="node">
<title>Node9</title>
<g id="a_Node000009"><a xlink:href="../../d5/d72/classLSM1x0A__LoRaWAN.html#a59f781f3cfd30c11cd3973bcb10a7baa" target="_top" xlink:title="Initiates a LoRaWAN Network Join procedure. This is a blocking function until the module fires an eve...">
<polygon fill="white" stroke="#666666" points="828.12,-974.01 696.62,-974.01 696.62,-954.01 828.12,-954.01 828.12,-974.01"/>
<text text-anchor="middle" x="762.38" y="-960.51" font-family="Helvetica,sans-Serif" font-size="10.00">LSM1x0A_LoRaWAN::join</text>
</a>
</g>
</g>
<!-- Node8&#45;&gt;Node9 -->
<g id="edge8_Node000008_Node000009" class="edge">
<title>Node8&#45;&gt;Node9</title>
<g id="a_edge8_Node000008_Node000009"><a xlink:title=" ">
<path fill="none" stroke="#63b8ff" d="M625.04,-992.56C649.63,-987.41 676.74,-981.73 700.26,-976.8"/>
<polygon fill="#63b8ff" stroke="#63b8ff" points="700.94,-980.24 710.01,-974.76 699.51,-973.39 700.94,-980.24"/>
</a>
</g>
</g>
<!-- Node9&#45;&gt;Node2 -->
<g id="edge11_Node000009_Node000002" class="edge">
<title>Node9&#45;&gt;Node2</title>
<g id="a_edge11_Node000009_Node000002"><a xlink:title=" ">
<path fill="none" stroke="#63b8ff" d="M747.28,-974.35C724.12,-990.64 675.92,-1021.6 629.5,-1033.01 561.09,-1049.82 535.07,-1062.28 471,-1033.01 383.31,-992.94 371.38,-955.61 329,-869.01 258.13,-724.18 244.33,-526.1 241.65,-454.35"/>
<polygon fill="#63b8ff" stroke="#63b8ff" points="245.16,-454.6 241.34,-444.72 238.16,-454.83 245.16,-454.6"/>
</a>
</g>
</g>
<!-- Node9&#45;&gt;Node3 -->
<g id="edge10_Node000009_Node000003" class="edge">
<title>Node9&#45;&gt;Node3</title>
<g id="a_edge10_Node000009_Node000003"><a xlink:title=" ">
<path fill="none" stroke="#63b8ff" d="M696.28,-973.5C634.9,-979.37 541.97,-980.14 471,-945.01 437.99,-928.67 412.14,-893.89 397.23,-869.74"/>
<polygon fill="#63b8ff" stroke="#63b8ff" points="400.41,-868.24 392.29,-861.43 394.39,-871.81 400.41,-868.24"/>
</a>
</g>
</g>
<!-- Node9&#45;&gt;Node4 -->
<g id="edge9_Node000009_Node000004" class="edge">
<title>Node9&#45;&gt;Node4</title>
<g id="a_edge9_Node000009_Node000004"><a xlink:title=" ">
<path fill="none" stroke="#63b8ff" d="M800.93,-953.53C834.87,-944.07 885.53,-929.94 925.76,-918.72"/>
<polygon fill="#63b8ff" stroke="#63b8ff" points="926.65,-922.1 935.35,-916.04 924.77,-915.36 926.65,-922.1"/>
</a>
</g>
</g>
<!-- Node10 -->
<g id="Node000010" class="node">
<title>Node10</title>
<g id="a_Node000010"><a xlink:href="../../d5/d72/classLSM1x0A__LoRaWAN.html#a3fdd1ac318a5ad2559323e5d57e36a5e" target="_top" xlink:title="Enables or disables specific sub&#45;bands for regions supporting Channel Masks (e.g.,...">
<polygon fill="white" stroke="#666666" points="1085.25,-756.01 895.25,-756.01 895.25,-736.01 1085.25,-736.01 1085.25,-756.01"/>
<text text-anchor="middle" x="990.25" y="-742.51" font-family="Helvetica,sans-Serif" font-size="10.00">LSM1x0A_LoRaWAN::setChannelMask</text>
</a>
</g>
</g>
<!-- Node9&#45;&gt;Node10 -->
<g id="edge12_Node000009_Node000010" class="edge">
<title>Node9&#45;&gt;Node10</title>
<g id="a_edge12_Node000009_Node000010"><a xlink:title=" ">
<path fill="none" stroke="#63b8ff" d="M773.97,-953.79C809.45,-919.53 924.49,-808.51 970.24,-764.36"/>
<polygon fill="#63b8ff" stroke="#63b8ff" points="972.56,-766.98 977.33,-757.51 967.7,-761.94 972.56,-766.98"/>
</a>
</g>
</g>
<!-- Node11 -->
<g id="Node000011" class="node">
<title>Node11</title>
<g id="a_Node000011"><a xlink:href="../../d8/d92/classLSM1x0A__Controller.html#a62476e30e50c7fe120aeb8df4b828675" target="_top" xlink:title="Synchronously/blockingly waits for an asynchronous event to occur. Useful for wrapping commands like ...">
<polygon fill="white" stroke="#666666" points="1043.25,-980.01 937.25,-980.01 937.25,-948.01 1043.25,-948.01 1043.25,-980.01"/>
<text text-anchor="start" x="945.25" y="-966.51" font-family="Helvetica,sans-Serif" font-size="10.00">LSM1x0A_Controller</text>
<text text-anchor="middle" x="990.25" y="-954.51" font-family="Helvetica,sans-Serif" font-size="10.00">::waitForEvent</text>
</a>
</g>
</g>
<!-- Node9&#45;&gt;Node11 -->
<g id="edge15_Node000009_Node000011" class="edge">
<title>Node9&#45;&gt;Node11</title>
<g id="a_edge15_Node000009_Node000011"><a xlink:title=" ">
<path fill="none" stroke="#63b8ff" d="M828.4,-964.01C858.91,-964.01 895.15,-964.01 925.49,-964.01"/>
<polygon fill="#63b8ff" stroke="#63b8ff" points="925.3,-967.51 935.3,-964.01 925.3,-960.51 925.3,-967.51"/>
</a>
</g>
</g>
<!-- Node10&#45;&gt;Node2 -->
<g id="edge14_Node000010_Node000002" class="edge">
<title>Node10&#45;&gt;Node2</title>
<g id="a_edge14_Node000010_Node000002"><a xlink:title=" ">
<path fill="none" stroke="#63b8ff" d="M894.96,-744.5C732.02,-739.85 407.61,-720.91 329,-644.01 274.83,-591.01 252.89,-500.14 244.96,-454.65"/>
<polygon fill="#63b8ff" stroke="#63b8ff" points="248.43,-454.14 243.37,-444.84 241.52,-455.27 248.43,-454.14"/>
</a>
</g>
</g>
<!-- Node10&#45;&gt;Node7 -->
<g id="edge13_Node000010_Node000007" class="edge">
<title>Node10&#45;&gt;Node7</title>
<g id="a_edge13_Node000010_Node000007"><a xlink:title=" ">
<path fill="none" stroke="#63b8ff" d="M1070.9,-756.48C1083.62,-758.16 1096.84,-759.9 1109.72,-761.59"/>
<polygon fill="#63b8ff" stroke="#63b8ff" points="1109.06,-765.04 1119.43,-762.87 1109.98,-758.1 1109.06,-765.04"/>
</a>
</g>
</g>
<!-- Node12&#45;&gt;Node1 -->
<g id="edge30_Node000012_Node000001" class="edge">
<title>Node12&#45;&gt;Node1</title>
<g id="a_edge30_Node000012_Node000001"><a xlink:title=" ">
<path fill="none" stroke="#63b8ff" d="M476.63,-359.4C392.1,-354.03 252.61,-345.18 162.67,-339.48"/>
<polygon fill="#63b8ff" stroke="#63b8ff" points="163.12,-336 152.92,-338.86 162.68,-342.98 163.12,-336"/>
</a>
</g>
</g>
<!-- Node12&#45;&gt;Node10 -->
<g id="edge21_Node000012_Node000010" class="edge">
<title>Node12&#45;&gt;Node10</title>
<g id="a_edge21_Node000012_Node000010"><a xlink:title=" ">
<path fill="none" stroke="#63b8ff" d="M623.78,-356.66C704.05,-350.28 826.44,-346.27 859.25,-377.01 913.73,-428.05 849.43,-652.07 895.25,-711.01 901.99,-719.68 911.12,-726.2 921.05,-731.11"/>
<polygon fill="#63b8ff" stroke="#63b8ff" points="919.66,-734.32 930.23,-735.06 922.43,-727.89 919.66,-734.32"/>
</a>
</g>
</g>
<!-- Node13 -->
<g id="Node000013" class="node">
<title>Node13</title>
<g id="a_Node000013"><a xlink:href="../../d5/d72/classLSM1x0A__LoRaWAN.html#af0baa3db4c7fab580d6b19a9e92472f6" target="_top" xlink:title="Enables or disables Adaptive Data Rate (ADR).">
<polygon fill="white" stroke="#666666" points="838.25,-532.01 686.5,-532.01 686.5,-512.01 838.25,-512.01 838.25,-532.01"/>
<text text-anchor="middle" x="762.38" y="-518.51" font-family="Helvetica,sans-Serif" font-size="10.00">LSM1x0A_LoRaWAN::setADR</text>
</a>
</g>
</g>
<!-- Node12&#45;&gt;Node13 -->
<g id="edge17_Node000012_Node000013" class="edge">
<title>Node12&#45;&gt;Node13</title>
<g id="a_edge17_Node000012_Node000013"><a xlink:title=" ">
<path fill="none" stroke="#63b8ff" d="M559.7,-380.41C575.9,-410.07 614.3,-472.37 665.5,-503.01 668.7,-504.92 672.06,-506.65 675.53,-508.21"/>
<polygon fill="#63b8ff" stroke="#63b8ff" points="674.21,-511.45 684.79,-511.83 676.76,-504.93 674.21,-511.45"/>
</a>
</g>
</g>
<!-- Node14 -->
<g id="Node000014" class="node">
<title>Node14</title>
<g id="a_Node000014"><a xlink:href="../../d5/d72/classLSM1x0A__LoRaWAN.html#a5365ed1596eb84ebf1e3b33b4a10c788" target="_top" xlink:title="Sets the LoRaWAN operational frequency band.">
<polygon fill="white" stroke="#666666" points="838.62,-494.01 686.12,-494.01 686.12,-474.01 838.62,-474.01 838.62,-494.01"/>
<text text-anchor="middle" x="762.38" y="-480.51" font-family="Helvetica,sans-Serif" font-size="10.00">LSM1x0A_LoRaWAN::setBand</text>
</a>
</g>
</g>
<!-- Node12&#45;&gt;Node14 -->
<g id="edge19_Node000012_Node000014" class="edge">
<title>Node12&#45;&gt;Node14</title>
<g id="a_edge19_Node000012_Node000014"><a xlink:title=" ">
<path fill="none" stroke="#63b8ff" d="M564.51,-380.22C584.1,-402.98 623.03,-443.98 665.5,-465.01 669.18,-466.83 673.01,-468.47 676.95,-469.96"/>
<polygon fill="#63b8ff" stroke="#63b8ff" points="675.52,-473.17 686.11,-473.06 677.76,-466.54 675.52,-473.17"/>
</a>
</g>
</g>
<!-- Node15 -->
<g id="Node000015" class="node">
<title>Node15</title>
<g id="a_Node000015"><a xlink:href="../../d5/d72/classLSM1x0A__LoRaWAN.html#a9d9285c43414337a0ccb3a6cd7ca06e6" target="_top" xlink:title="Configures the number of retries for Confirmed uplinks.">
<polygon fill="white" stroke="#666666" points="844.62,-456.01 680.12,-456.01 680.12,-424.01 844.62,-424.01 844.62,-456.01"/>
<text text-anchor="start" x="688.12" y="-442.51" font-family="Helvetica,sans-Serif" font-size="10.00">LSM1x0A_LoRaWAN::setConfirm</text>
<text text-anchor="middle" x="762.38" y="-430.51" font-family="Helvetica,sans-Serif" font-size="10.00">Retry</text>
</a>
</g>
</g>
<!-- Node12&#45;&gt;Node15 -->
<g id="edge22_Node000012_Node000015" class="edge">
<title>Node12&#45;&gt;Node15</title>
<g id="a_edge22_Node000012_Node000015"><a xlink:title=" ">
<path fill="none" stroke="#63b8ff" d="M584.16,-380.44C606.67,-391.24 637.42,-405.15 665.5,-415.01 670.79,-416.86 676.29,-418.65 681.86,-420.36"/>
<polygon fill="#63b8ff" stroke="#63b8ff" points="680.58,-423.63 691.16,-423.12 682.57,-416.92 680.58,-423.63"/>
</a>
</g>
</g>
<!-- Node16 -->
<g id="Node000016" class="node">
<title>Node16</title>
<g id="a_Node000016"><a xlink:href="../../d5/d72/classLSM1x0A__LoRaWAN.html#a56345ceeafa0b9059d6de4e69eddc82e" target="_top" xlink:title="Sets the Data Rate (DR) of the module.">
<polygon fill="white" stroke="#666666" points="848.38,-406.01 676.38,-406.01 676.38,-386.01 848.38,-386.01 848.38,-406.01"/>
<text text-anchor="middle" x="762.38" y="-392.51" font-family="Helvetica,sans-Serif" font-size="10.00">LSM1x0A_LoRaWAN::setDataRate</text>
</a>
</g>
</g>
<!-- Node12&#45;&gt;Node16 -->
<g id="edge24_Node000012_Node000016" class="edge">
<title>Node12&#45;&gt;Node16</title>
<g id="a_edge24_Node000012_Node000016"><a xlink:title=" ">
<path fill="none" stroke="#63b8ff" d="M623.86,-375.06C642.41,-377.89 662.47,-380.94 681.37,-383.82"/>
<polygon fill="#63b8ff" stroke="#63b8ff" points="680.75,-387.27 691.16,-385.31 681.8,-380.35 680.75,-387.27"/>
</a>
</g>
</g>
<!-- Node17 -->
<g id="Node000017" class="node">
<title>Node17</title>
<g id="a_Node000017"><a xlink:href="../../d5/d72/classLSM1x0A__LoRaWAN.html#a8494083816ab885cb07fc3b08de029f4" target="_top" xlink:title="Sets the LoRaWAN Device Address (DevAddr) for ABP mode.">
<polygon fill="white" stroke="#666666" points="846.5,-330.01 678.25,-330.01 678.25,-310.01 846.5,-310.01 846.5,-330.01"/>
<text text-anchor="middle" x="762.38" y="-316.51" font-family="Helvetica,sans-Serif" font-size="10.00">LSM1x0A_LoRaWAN::setDevAddr</text>
</a>
</g>
</g>
<!-- Node12&#45;&gt;Node17 -->
<g id="edge26_Node000012_Node000017" class="edge">
<title>Node12&#45;&gt;Node17</title>
<g id="a_edge26_Node000012_Node000017"><a xlink:title=" ">
<path fill="none" stroke="#63b8ff" d="M623.86,-348.8C648.74,-343.59 676.32,-337.82 700.21,-332.82"/>
<polygon fill="#63b8ff" stroke="#63b8ff" points="700.7,-336.29 709.77,-330.81 699.27,-329.44 700.7,-336.29"/>
</a>
</g>
</g>
<!-- Node18 -->
<g id="Node000018" class="node">
<title>Node18</title>
<g id="a_Node000018"><a xlink:href="../../d5/d72/classLSM1x0A__LoRaWAN.html#ad320634e52d7ea907043cc50dd37c5b0" target="_top" xlink:title="Sets the LoRaWAN Device EUI (DevEUI).">
<polygon fill="white" stroke="#666666" points="845,-292.01 679.75,-292.01 679.75,-272.01 845,-272.01 845,-292.01"/>
<text text-anchor="middle" x="762.38" y="-278.51" font-family="Helvetica,sans-Serif" font-size="10.00">LSM1x0A_LoRaWAN::setDevEUI</text>
</a>
</g>
</g>
<!-- Node12&#45;&gt;Node18 -->
<g id="edge28_Node000012_Node000018" class="edge">
<title>Node12&#45;&gt;Node18</title>
<g id="a_edge28_Node000012_Node000018"><a xlink:title=" ">
<path fill="none" stroke="#63b8ff" d="M575.6,-347.67C598.04,-333.33 632.73,-312.96 665.5,-301.01 671.28,-298.9 677.34,-297.01 683.5,-295.31"/>
<polygon fill="#63b8ff" stroke="#63b8ff" points="684.34,-298.71 693.16,-292.85 682.61,-291.93 684.34,-298.71"/>
</a>
</g>
</g>
<!-- Node19 -->
<g id="Node000019" class="node">
<title>Node19</title>
<g id="a_Node000019"><a xlink:href="../../d5/d72/classLSM1x0A__LoRaWAN.html#a6b179d5825c49af0f391dfc539912f64" target="_top" xlink:title="Sets the delay for the Join1 receive window.">
<polygon fill="white" stroke="#666666" points="839,-254.01 685.75,-254.01 685.75,-222.01 839,-222.01 839,-254.01"/>
<text text-anchor="start" x="693.75" y="-240.51" font-family="Helvetica,sans-Serif" font-size="10.00">LSM1x0A_LoRaWAN::setJoin1</text>
<text text-anchor="middle" x="762.38" y="-228.51" font-family="Helvetica,sans-Serif" font-size="10.00">Delay</text>
</a>
</g>
</g>
<!-- Node12&#45;&gt;Node19 -->
<g id="edge31_Node000012_Node000019" class="edge">
<title>Node12&#45;&gt;Node19</title>
<g id="a_edge31_Node000012_Node000019"><a xlink:title=" ">
<path fill="none" stroke="#63b8ff" d="M565.02,-347.76C584.92,-325.34 623.91,-285.16 665.5,-263.01 668.51,-261.4 671.64,-259.89 674.84,-258.48"/>
<polygon fill="#63b8ff" stroke="#63b8ff" points="675.89,-261.83 683.86,-254.84 673.27,-255.34 675.89,-261.83"/>
</a>
</g>
</g>
<!-- Node20 -->
<g id="Node000020" class="node">
<title>Node20</title>
<g id="a_Node000020"><a xlink:href="../../d5/d72/classLSM1x0A__LoRaWAN.html#a4545d0caad41558cdb9bae8286b104d8" target="_top" xlink:title="Sets the delay for the Join2 receive window.">
<polygon fill="white" stroke="#666666" points="839,-204.01 685.75,-204.01 685.75,-172.01 839,-172.01 839,-204.01"/>
<text text-anchor="start" x="693.75" y="-190.51" font-family="Helvetica,sans-Serif" font-size="10.00">LSM1x0A_LoRaWAN::setJoin2</text>
<text text-anchor="middle" x="762.38" y="-178.51" font-family="Helvetica,sans-Serif" font-size="10.00">Delay</text>
</a>
</g>
</g>
<!-- Node12&#45;&gt;Node20 -->
<g id="edge33_Node000012_Node000020" class="edge">
<title>Node12&#45;&gt;Node20</title>
<g id="a_edge33_Node000012_Node000020"><a xlink:title=" ">
<path fill="none" stroke="#63b8ff" d="M558.78,-347.96C574.2,-316.89 612.47,-248.44 665.5,-213.01 668.57,-210.95 671.81,-209.07 675.16,-207.34"/>
<polygon fill="#63b8ff" stroke="#63b8ff" points="676.48,-210.58 684.1,-203.23 673.56,-204.22 676.48,-210.58"/>
</a>
</g>
</g>
<!-- Node21 -->
<g id="Node000021" class="node">
<title>Node21</title>
<g id="a_Node000021"><a xlink:href="../../d5/d72/classLSM1x0A__LoRaWAN.html#a06bd50723ec1eb7e144c9141b2ec86fc" target="_top" xlink:title="Sets the LoRaWAN Network ID (NetID).">
<polygon fill="white" stroke="#666666" points="842.75,-154.01 682,-154.01 682,-134.01 842.75,-134.01 842.75,-154.01"/>
<text text-anchor="middle" x="762.38" y="-140.51" font-family="Helvetica,sans-Serif" font-size="10.00">LSM1x0A_LoRaWAN::setNwkID</text>
</a>
</g>
</g>
<!-- Node12&#45;&gt;Node21 -->
<g id="edge35_Node000012_Node000021" class="edge">
<title>Node12&#45;&gt;Node21</title>
<g id="a_edge35_Node000012_Node000021"><a xlink:title=" ">
<path fill="none" stroke="#63b8ff" d="M555.5,-347.57C566.46,-308.65 599.57,-210.55 665.5,-163.01 667.44,-161.61 669.45,-160.31 671.52,-159.1"/>
<polygon fill="#63b8ff" stroke="#63b8ff" points="672.88,-162.33 680.28,-154.74 669.77,-156.07 672.88,-162.33"/>
</a>
</g>
</g>
<!-- Node22 -->
<g id="Node000022" class="node">
<title>Node22</title>
<g id="a_Node000022"><a xlink:href="../../d5/d72/classLSM1x0A__LoRaWAN.html#aa70ada64d28ecca216bb62268e502adf" target="_top" xlink:title="Sets the delay for the RX1 receive window.">
<polygon fill="white" stroke="#666666" points="849.12,-116.01 675.62,-116.01 675.62,-96.01 849.12,-96.01 849.12,-116.01"/>
<text text-anchor="middle" x="762.38" y="-102.51" font-family="Helvetica,sans-Serif" font-size="10.00">LSM1x0A_LoRaWAN::setRx1Delay</text>
</a>
</g>
</g>
<!-- Node12&#45;&gt;Node22 -->
<g id="edge37_Node000012_Node000022" class="edge">
<title>Node12&#45;&gt;Node22</title>
<g id="a_edge37_Node000012_Node000022"><a xlink:title=" ">
<path fill="none" stroke="#63b8ff" d="M553.94,-347.51C562.02,-303.62 590.31,-183.4 665.5,-125.01 667.02,-123.83 668.59,-122.71 670.21,-121.66"/>
<polygon fill="#63b8ff" stroke="#63b8ff" points="671.53,-124.93 678.61,-117.05 668.16,-118.8 671.53,-124.93"/>
</a>
</g>
</g>
<!-- Node23 -->
<g id="Node000023" class="node">
<title>Node23</title>
<g id="a_Node000023"><a xlink:href="../../d5/d72/classLSM1x0A__LoRaWAN.html#a2cf4eff0181b6107d082bccefa24217b" target="_top" xlink:title="Sets the Data Rate (DR) specifically for the RX2 window.">
<polygon fill="white" stroke="#666666" points="857.38,-78.01 667.38,-78.01 667.38,-58.01 857.38,-58.01 857.38,-78.01"/>
<text text-anchor="middle" x="762.38" y="-64.51" font-family="Helvetica,sans-Serif" font-size="10.00">LSM1x0A_LoRaWAN::setRx2DataRate</text>
</a>
</g>
</g>
<!-- Node12&#45;&gt;Node23 -->
<g id="edge39_Node000012_Node000023" class="edge">
<title>Node12&#45;&gt;Node23</title>
<g id="a_edge39_Node000012_Node000023"><a xlink:title=" ">
<path fill="none" stroke="#63b8ff" d="M552.74,-347.8C558.07,-299.68 580.68,-156.67 665.5,-87.01 666.64,-86.07 667.82,-85.17 669.03,-84.31"/>
<polygon fill="#63b8ff" stroke="#63b8ff" points="670.69,-87.4 677.5,-79.28 667.11,-81.38 670.69,-87.4"/>
</a>
</g>
</g>
<!-- Node24 -->
<g id="Node000024" class="node">
<title>Node24</title>
<g id="a_Node000024"><a xlink:href="../../d5/d72/classLSM1x0A__LoRaWAN.html#a42d2137b475b57e19d891a5f1ac93221" target="_top" xlink:title="Sets the delay for the RX2 receive window.">
<polygon fill="white" stroke="#666666" points="849.12,-40.01 675.62,-40.01 675.62,-20.01 849.12,-20.01 849.12,-40.01"/>
<text text-anchor="middle" x="762.38" y="-26.51" font-family="Helvetica,sans-Serif" font-size="10.00">LSM1x0A_LoRaWAN::setRx2Delay</text>
</a>
</g>
</g>
<!-- Node12&#45;&gt;Node24 -->
<g id="edge41_Node000012_Node000024" class="edge">
<title>Node12&#45;&gt;Node24</title>
<g id="a_edge41_Node000012_Node000024"><a xlink:title=" ">
<path fill="none" stroke="#63b8ff" d="M551.86,-347.53C554.74,-294.96 571.25,-129.89 665.5,-49.01 666.62,-48.04 667.78,-47.12 668.97,-46.25"/>
<polygon fill="#63b8ff" stroke="#63b8ff" points="670.66,-49.32 677.34,-41.09 666.99,-43.35 670.66,-49.32"/>
</a>
</g>
</g>
<!-- Node25 -->
<g id="Node000025" class="node">
<title>Node25</title>
<g id="a_Node000025"><a xlink:href="../../d5/d72/classLSM1x0A__LoRaWAN.html#a689f7dfda1dfeae11ea397c2ddf2ad37" target="_top" xlink:title="Sets the precise frequency for the RX2 window.">
<polygon fill="white" stroke="#666666" points="859.25,-658.01 665.5,-658.01 665.5,-638.01 859.25,-638.01 859.25,-658.01"/>
<text text-anchor="middle" x="762.38" y="-644.51" font-family="Helvetica,sans-Serif" font-size="10.00">LSM1x0A_LoRaWAN::setRx2Frequency</text>
</a>
</g>
</g>
<!-- Node12&#45;&gt;Node25 -->
<g id="edge43_Node000012_Node000025" class="edge">
<title>Node12&#45;&gt;Node25</title>
<g id="a_edge43_Node000012_Node000025"><a xlink:title=" ">
<path fill="none" stroke="#63b8ff" d="M553.06,-380.2C559.21,-426.92 583.67,-562.88 665.5,-629.01 666.82,-630.07 668.18,-631.09 669.58,-632.05"/>
<polygon fill="#63b8ff" stroke="#63b8ff" points="667.6,-634.94 678.01,-636.91 671.1,-628.88 667.6,-634.94"/>
</a>
</g>
</g>
<!-- Node26 -->
<g id="Node000026" class="node">
<title>Node26</title>
<g id="a_Node000026"><a xlink:href="../../d5/d72/classLSM1x0A__LoRaWAN.html#a1df10d7ae6bf45b537d28d3d5c4b88d7" target="_top" xlink:title="Sets the transmission power index.">
<polygon fill="white" stroke="#666666" points="846.88,-620.01 677.88,-620.01 677.88,-600.01 846.88,-600.01 846.88,-620.01"/>
<text text-anchor="middle" x="762.38" y="-606.51" font-family="Helvetica,sans-Serif" font-size="10.00">LSM1x0A_LoRaWAN::setTxPower</text>
</a>
</g>
</g>
<!-- Node12&#45;&gt;Node26 -->
<g id="edge45_Node000012_Node000026" class="edge">
<title>Node12&#45;&gt;Node26</title>
<g id="a_edge45_Node000012_Node000026"><a xlink:title=" ">
<path fill="none" stroke="#63b8ff" d="M554.34,-380.31C563.26,-422.53 593.15,-536 665.5,-591.01 667.03,-592.17 668.62,-593.27 670.25,-594.31"/>
<polygon fill="#63b8ff" stroke="#63b8ff" points="668.22,-597.19 678.68,-598.87 671.55,-591.03 668.22,-597.19"/>
</a>
</g>
</g>
<!-- Node27 -->
<g id="Node000027" class="node">
<title>Node27</title>
<g id="a_Node000027"><a xlink:href="../../d5/d72/classLSM1x0A__LoRaWAN.html#a059fd6a9356c4ecadd5a98294da5952d" target="_top" xlink:title="Configures the number of repetitions for Unconfirmed uplinks.">
<polygon fill="white" stroke="#666666" points="849.88,-582.01 674.88,-582.01 674.88,-550.01 849.88,-550.01 849.88,-582.01"/>
<text text-anchor="start" x="682.88" y="-568.51" font-family="Helvetica,sans-Serif" font-size="10.00">LSM1x0A_LoRaWAN::setUnconfirm</text>
<text text-anchor="middle" x="762.38" y="-556.51" font-family="Helvetica,sans-Serif" font-size="10.00">Retry</text>
</a>
</g>
</g>
<!-- Node12&#45;&gt;Node27 -->
<g id="edge47_Node000012_Node000027" class="edge">
<title>Node12&#45;&gt;Node27</title>
<g id="a_edge47_Node000012_Node000027"><a xlink:title=" ">
<path fill="none" stroke="#63b8ff" d="M557.05,-380.34C570.39,-415.47 606.68,-498.45 665.5,-541.01 667.08,-542.15 668.71,-543.24 670.38,-544.28"/>
<polygon fill="#63b8ff" stroke="#63b8ff" points="668.56,-547.28 679.01,-549 671.91,-541.13 668.56,-547.28"/>
</a>
</g>
</g>
<!-- Node13&#45;&gt;Node2 -->
<g id="edge18_Node000013_Node000002" class="edge">
<title>Node13&#45;&gt;Node2</title>
<g id="a_edge18_Node000013_Node000002"><a xlink:title=" ">
<path fill="none" stroke="#63b8ff" d="M686.3,-518.41C599.07,-512.78 451.43,-498.81 329,-465.01 313.79,-460.81 297.77,-454.51 283.63,-448.23"/>
<polygon fill="#63b8ff" stroke="#63b8ff" points="285.16,-445.08 274.61,-444.11 282.25,-451.45 285.16,-445.08"/>
</a>
</g>
</g>
<!-- Node14&#45;&gt;Node2 -->
<g id="edge20_Node000014_Node000002" class="edge">
<title>Node14&#45;&gt;Node2</title>
<g id="a_edge20_Node000014_Node000002"><a xlink:title=" ">
<path fill="none" stroke="#63b8ff" d="M685.7,-479.75C599.15,-474.29 453.34,-463.27 329,-445.01 321.04,-443.84 312.72,-442.41 304.51,-440.87"/>
<polygon fill="#63b8ff" stroke="#63b8ff" points="305.38,-437.48 294.9,-439.02 304.05,-444.35 305.38,-437.48"/>
</a>
</g>
</g>
<!-- Node15&#45;&gt;Node2 -->
<g id="edge23_Node000015_Node000002" class="edge">
<title>Node15&#45;&gt;Node2</title>
<g id="a_edge23_Node000015_Node000002"><a xlink:title=" ">
<path fill="none" stroke="#63b8ff" d="M679.85,-437.97C576.09,-435.38 399.03,-430.96 304.65,-428.6"/>
<polygon fill="#63b8ff" stroke="#63b8ff" points="304.88,-425.1 294.79,-428.35 304.7,-432.1 304.88,-425.1"/>
</a>
</g>
</g>
<!-- Node16&#45;&gt;Node2 -->
<g id="edge25_Node000016_Node000002" class="edge">
<title>Node16&#45;&gt;Node2</title>
<g id="a_edge25_Node000016_Node000002"><a xlink:title=" ">
<path fill="none" stroke="#63b8ff" d="M676.14,-401.09C571.86,-407.3 397.74,-417.67 304.51,-423.22"/>
<polygon fill="#63b8ff" stroke="#63b8ff" points="304.56,-419.71 294.79,-423.8 304.98,-426.7 304.56,-419.71"/>
</a>
</g>
</g>
<!-- Node17&#45;&gt;Node2 -->
<g id="edge27_Node000017_Node000002" class="edge">
<title>Node17&#45;&gt;Node2</title>
<g id="a_edge27_Node000017_Node000002"><a xlink:title=" ">
<path fill="none" stroke="#63b8ff" d="M677.84,-318.88C619.31,-319.69 539.6,-324 471,-339.01 403.72,-353.73 330.04,-384.76 284.66,-405.76"/>
<polygon fill="#63b8ff" stroke="#63b8ff" points="283.25,-402.55 275.68,-409.96 286.22,-408.89 283.25,-402.55"/>
</a>
</g>
</g>
<!-- Node18&#45;&gt;Node2 -->
<g id="edge29_Node000018_Node000002" class="edge">
<title>Node18&#45;&gt;Node2</title>
<g id="a_edge29_Node000018_Node000002"><a xlink:title=" ">
<path fill="none" stroke="#63b8ff" d="M679.31,-278.24C588.6,-277.48 440.58,-286.56 329,-344.01 301.72,-358.05 276.92,-383.1 260.65,-402.01"/>
<polygon fill="#63b8ff" stroke="#63b8ff" points="258.06,-399.65 254.34,-409.57 263.44,-404.13 258.06,-399.65"/>
</a>
</g>
</g>
<!-- Node19&#45;&gt;Node2 -->
<g id="edge32_Node000019_Node000002" class="edge">
<title>Node19&#45;&gt;Node2</title>
<g id="a_edge32_Node000019_Node000002"><a xlink:title=" ">
<path fill="none" stroke="#63b8ff" d="M685.29,-231.2C593.43,-226.79 437.74,-231.9 329,-302.01 292.01,-325.85 266.02,-371.25 252.3,-400.28"/>
<polygon fill="#63b8ff" stroke="#63b8ff" points="249.22,-398.59 248.27,-409.14 255.59,-401.49 249.22,-398.59"/>
</a>
</g>
</g>
<!-- Node20&#45;&gt;Node2 -->
<g id="edge34_Node000020_Node000002" class="edge">
<title>Node20&#45;&gt;Node2</title>
<g id="a_edge34_Node000020_Node000002"><a xlink:title=" ">
<path fill="none" stroke="#63b8ff" d="M685.55,-179.02C592.17,-172.14 433.16,-174.6 329,-253.01 280.35,-289.63 256.62,-360.7 246.81,-399.72"/>
<polygon fill="#63b8ff" stroke="#63b8ff" points="243.45,-398.72 244.55,-409.26 250.26,-400.34 243.45,-398.72"/>
</a>
</g>
</g>
<!-- Node21&#45;&gt;Node2 -->
<g id="edge36_Node000021_Node000002" class="edge">
<title>Node21&#45;&gt;Node2</title>
<g id="a_edge36_Node000021_Node000002"><a xlink:title=" ">
<path fill="none" stroke="#63b8ff" d="M705.02,-133.52C614.83,-120.15 437.22,-108.34 329,-197.01 266.04,-248.59 248.06,-350.64 242.97,-399.58"/>
<polygon fill="#63b8ff" stroke="#63b8ff" points="239.51,-399.02 242.08,-409.3 246.48,-399.67 239.51,-399.02"/>
</a>
</g>
</g>
<!-- Node22&#45;&gt;Node2 -->
<g id="edge38_Node000022_Node000002" class="edge">
<title>Node22&#45;&gt;Node2</title>
<g id="a_edge38_Node000022_Node000002"><a xlink:title=" ">
<path fill="none" stroke="#63b8ff" d="M675.43,-101.32C564.43,-97.16 379.47,-97.22 329,-140.01 250.48,-206.57 240.74,-341.26 240.39,-399.33"/>
<polygon fill="#63b8ff" stroke="#63b8ff" points="236.89,-399.32 240.43,-409.3 243.89,-399.29 236.89,-399.32"/>
</a>
</g>
</g>
<!-- Node23&#45;&gt;Node2 -->
<g id="edge40_Node000023_Node000002" class="edge">
<title>Node23&#45;&gt;Node2</title>
<g id="a_edge40_Node000023_Node000002"><a xlink:title=" ">
<path fill="none" stroke="#63b8ff" d="M666.89,-63.67C555.31,-60.59 378.58,-62.76 329,-104.01 282.86,-142.4 253.89,-329.11 244.42,-399.81"/>
<polygon fill="#63b8ff" stroke="#63b8ff" points="240.99,-398.99 243.17,-409.36 247.93,-399.9 240.99,-398.99"/>
</a>
</g>
</g>
<!-- Node24&#45;&gt;Node2 -->
<g id="edge42_Node000024_Node000002" class="edge">
<title>Node24&#45;&gt;Node2</title>
<g id="a_edge42_Node000024_Node000002"><a xlink:title=" ">
<path fill="none" stroke="#63b8ff" d="M720.05,-19.52C635.49,-0.73 441.24,28.28 329,-68.01 278.13,-111.64 251.69,-323.06 243.68,-399.42"/>
<polygon fill="#63b8ff" stroke="#63b8ff" points="240.2,-399.06 242.66,-409.36 247.16,-399.77 240.2,-399.06"/>
</a>
</g>
</g>
<!-- Node25&#45;&gt;Node2 -->
<g id="edge44_Node000025_Node000002" class="edge">
<title>Node25&#45;&gt;Node2</title>
<g id="a_edge44_Node000025_Node000002"><a xlink:title=" ">
<path fill="none" stroke="#63b8ff" d="M665.17,-651.33C570.41,-649.7 426.14,-633.53 329,-559.01 292.57,-531.06 266.27,-483.54 252.35,-453.78"/>
<polygon fill="#63b8ff" stroke="#63b8ff" points="255.56,-452.38 248.26,-444.71 249.18,-455.26 255.56,-452.38"/>
</a>
</g>
</g>
<!-- Node26&#45;&gt;Node2 -->
<g id="edge46_Node000026_Node000002" class="edge">
<title>Node26&#45;&gt;Node2</title>
<g id="a_edge46_Node000026_Node000002"><a xlink:title=" ">
<path fill="none" stroke="#63b8ff" d="M677.68,-609.45C585.87,-605.27 437.19,-587.72 329,-522.01 299.84,-504.3 274.33,-474.2 258.39,-452.62"/>
<polygon fill="#63b8ff" stroke="#63b8ff" points="261.31,-450.7 252.64,-444.62 255.63,-454.78 261.31,-450.7"/>
</a>
</g>
</g>
<!-- Node27&#45;&gt;Node2 -->
<g id="edge48_Node000027_Node000002" class="edge">
<title>Node27&#45;&gt;Node2</title>
<g id="a_edge48_Node000027_Node000002"><a xlink:title=" ">
<path fill="none" stroke="#63b8ff" d="M674.72,-562.58C584.93,-556.36 442.16,-538.92 329,-490.01 306.44,-480.26 283.97,-464.03 267.38,-450.48"/>
<polygon fill="#63b8ff" stroke="#63b8ff" points="269.87,-448.01 259.96,-444.26 265.37,-453.37 269.87,-448.01"/>
</a>
</g>
</g>
<!-- Node29&#45;&gt;Node30 -->
<g id="edge51_Node000029_Node000030" class="edge">
<title>Node29&#45;&gt;Node30</title>
<g id="a_edge51_Node000029_Node000030"><a xlink:title=" ">
<path fill="none" stroke="#63b8ff" d="M600.51,-739.6C636.64,-727.56 685.15,-711.4 719.43,-699.98"/>
<polygon fill="#63b8ff" stroke="#63b8ff" points="720.2,-703.41 728.59,-696.93 717.99,-696.77 720.2,-703.41"/>
</a>
</g>
</g>
<!-- Node31 -->
<g id="Node000031" class="node">
<title>Node31</title>
<g id="a_Node000031"><a xlink:href="../../d6/d3c/classLSM1x0A__AtParser.html#a0ba6f927c54fceece22c17773d3f2600" target="_top" xlink:title="Sends a command and extracts a value from the response.">
<polygon fill="white" stroke="#666666" points="1077.38,-702.01 903.12,-702.01 903.12,-670.01 1077.38,-670.01 1077.38,-702.01"/>
<text text-anchor="start" x="911.12" y="-688.51" font-family="Helvetica,sans-Serif" font-size="10.00">LSM1x0A_AtParser::sendCommand</text>
<text text-anchor="middle" x="990.25" y="-676.51" font-family="Helvetica,sans-Serif" font-size="10.00">WithResponse</text>
</a>
</g>
</g>
<!-- Node30&#45;&gt;Node31 -->
<g id="edge52_Node000030_Node000031" class="edge">
<title>Node30&#45;&gt;Node31</title>
<g id="a_edge52_Node000030_Node000031"><a xlink:title=" ">
<path fill="none" stroke="#63b8ff" d="M849.74,-686.01C863.49,-686.01 877.81,-686.01 891.8,-686.01"/>
<polygon fill="#63b8ff" stroke="#63b8ff" points="891.42,-689.51 901.42,-686.01 891.42,-682.51 891.42,-689.51"/>
</a>
</g>
</g>
<!-- Node32 -->
<g id="Node000032" class="node">
<title>Node32</title>
<g id="a_Node000032"><a xlink:href="../../d5/d8b/classUartDriver.html#a5d0f22e8867eebe99273078bb19bd23d" target="_top" xlink:title="Sends data through UART.">
<polygon fill="white" stroke="#666666" points="1252,-696.01 1143,-696.01 1143,-676.01 1252,-676.01 1252,-696.01"/>
<text text-anchor="middle" x="1197.5" y="-682.51" font-family="Helvetica,sans-Serif" font-size="10.00">UartDriver::sendData</text>
</a>
</g>
</g>
<!-- Node31&#45;&gt;Node32 -->
<g id="edge53_Node000031_Node000032" class="edge">
<title>Node31&#45;&gt;Node32</title>
<g id="a_edge53_Node000031_Node000032"><a xlink:title=" ">
<path fill="none" stroke="#63b8ff" d="M1077.7,-686.01C1095.59,-686.01 1114.16,-686.01 1131.14,-686.01"/>
<polygon fill="#63b8ff" stroke="#63b8ff" points="1131.11,-689.51 1141.11,-686.01 1131.11,-682.51 1131.11,-689.51"/>
</a>
</g>
</g>
</g>
</svg>
