<?xml version="1.0" encoding="UTF-8" standalone="no"?>
<!DOCTYPE svg PUBLIC "-//W3C//DTD SVG 1.1//EN"
 "http://www.w3.org/Graphics/SVG/1.1/DTD/svg11.dtd">
<!-- Generated by graphviz version 12.2.1 (20241206.2353)
 -->
<!-- Title: LSM1x0A_LoRaWAN::setNetworkType Pages: 1 -->
<svg width="1319pt" height="1143pt"
 viewBox="0.00 0.00 1318.50 1143.11" xmlns="http://www.w3.org/2000/svg" xmlns:xlink="http://www.w3.org/1999/xlink">
<g id="graph0" class="graph" transform="scale(1 1) rotate(0) translate(4 1139.11)">
<title>LSM1x0A_LoRaWAN::setNetworkType</title>
<!-- Node1 -->
<g id="Node000001" class="node">
<title>Node1</title>
<g id="a_Node000001"><a xlink:title="Sets the network type (Public vs Private).">
<polygon fill="#999999" stroke="#666666" points="187.75,-490.95 0,-490.95 0,-470.95 187.75,-470.95 187.75,-490.95"/>
<text text-anchor="middle" x="93.88" y="-477.45" font-family="Helvetica,sans-Serif" font-size="10.00">LSM1x0A_LoRaWAN::setNetworkType</text>
</a>
</g>
</g>
<!-- Node2 -->
<g id="Node000002" class="node">
<title>Node2</title>
<g id="a_Node000002"><a xlink:href="../../d8/d92/classLSM1x0A__Controller.html#afd7d92e60ed6fdae696a955cdbe0ed8c" target="_top" xlink:title="Sends any AT command to the module, returning error if it fails. Internally uses the LsmAtParser logi...">
<polygon fill="white" stroke="#666666" points="329.75,-496.95 223.75,-496.95 223.75,-464.95 329.75,-464.95 329.75,-496.95"/>
<text text-anchor="start" x="231.75" y="-483.45" font-family="Helvetica,sans-Serif" font-size="10.00">LSM1x0A_Controller</text>
<text text-anchor="middle" x="276.75" y="-471.45" font-family="Helvetica,sans-Serif" font-size="10.00">::sendCommand</text>
</a>
</g>
</g>
<!-- Node1&#45;&gt;Node2 -->
<g id="edge1_Node000001_Node000002" class="edge">
<title>Node1&#45;&gt;Node2</title>
<g id="a_edge1_Node000001_Node000002"><a xlink:title=" ">
<path fill="none" stroke="#63b8ff" d="M188.23,-480.95C196.26,-480.95 204.26,-480.95 211.97,-480.95"/>
<polygon fill="#63b8ff" stroke="#63b8ff" points="211.92,-484.45 221.92,-480.95 211.92,-477.45 211.92,-484.45"/>
</a>
</g>
</g>
<!-- Node3 -->
<g id="Node000003" class="node">
<title>Node3</title>
<g id="a_Node000003"><a xlink:href="../../d8/d92/classLSM1x0A__Controller.html#abb0eb380daa3dfb7acffb483c5db8e2b" target="_top" xlink:title="Executes the recovery protocol. First Soft&#45;Reset (ATZ), then Hard&#45;Reset if there is a pin.">
<polygon fill="white" stroke="#666666" points="471.75,-938.95 365.75,-938.95 365.75,-906.95 471.75,-906.95 471.75,-938.95"/>
<text text-anchor="start" x="373.75" y="-925.45" font-family="Helvetica,sans-Serif" font-size="10.00">LSM1x0A_Controller</text>
<text text-anchor="middle" x="418.75" y="-913.45" font-family="Helvetica,sans-Serif" font-size="10.00">::recoverModule</text>
</a>
</g>
</g>
<!-- Node2&#45;&gt;Node3 -->
<g id="edge2_Node000002_Node000003" class="edge">
<title>Node2&#45;&gt;Node3</title>
<g id="a_edge2_Node000002_Node000003"><a xlink:title=" ">
<path fill="none" stroke="#63b8ff" d="M281.3,-497.39C291.86,-545.46 324.91,-689.56 365.75,-804.95 377.1,-837.01 393.29,-872.58 404.58,-896.2"/>
<polygon fill="#63b8ff" stroke="#63b8ff" points="401.38,-897.62 408.88,-905.1 407.68,-894.57 401.38,-897.62"/>
</a>
</g>
</g>
<!-- Node31 -->
<g id="Node000031" class="node">
<title>Node31</title>
<g id="a_Node000031"><a xlink:href="../../d6/d3c/classLSM1x0A__AtParser.html#a29b53c521974387ba6c03afadfaffa4a" target="_top" xlink:title="Sends a simple command and waits for OK/ERROR. Example: sendCommand(&quot;AT+JOIN&quot;);.">
<polygon fill="white" stroke="#666666" points="886.25,-1118.95 712,-1118.95 712,-1098.95 886.25,-1098.95 886.25,-1118.95"/>
<text text-anchor="middle" x="799.12" y="-1105.45" font-family="Helvetica,sans-Serif" font-size="10.00">LSM1x0A_AtParser::sendCommand</text>
</a>
</g>
</g>
<!-- Node2&#45;&gt;Node31 -->
<g id="edge55_Node000002_Node000031" class="edge">
<title>Node2&#45;&gt;Node31</title>
<g id="a_edge55_Node000002_Node000031"><a xlink:title=" ">
<path fill="none" stroke="#63b8ff" d="M277.81,-497.2C278.63,-559.15 287.17,-785.25 365.75,-947.95 407.68,-1034.77 420.06,-1071.88 507.75,-1111.95 585.51,-1147.48 687.66,-1134.62 747.77,-1121.89"/>
<polygon fill="#63b8ff" stroke="#63b8ff" points="748.36,-1125.34 757.37,-1119.77 746.85,-1118.51 748.36,-1125.34"/>
</a>
</g>
</g>
<!-- Node4 -->
<g id="Node000004" class="node">
<title>Node4</title>
<g id="a_Node000004"><a xlink:href="../../d8/d92/classLSM1x0A__Controller.html#a3f6f25b843fe4fb7042c544deae2ab16" target="_top" xlink:title="Manually clears bits from the internal EventGroup.">
<polygon fill="white" stroke="#666666" points="1080,-957.95 974,-957.95 974,-925.95 1080,-925.95 1080,-957.95"/>
<text text-anchor="start" x="982" y="-944.45" font-family="Helvetica,sans-Serif" font-size="10.00">LSM1x0A_Controller</text>
<text text-anchor="middle" x="1027" y="-932.45" font-family="Helvetica,sans-Serif" font-size="10.00">::clearEvents</text>
</a>
</g>
</g>
<!-- Node3&#45;&gt;Node4 -->
<g id="edge3_Node000003_Node000004" class="edge">
<title>Node3&#45;&gt;Node4</title>
<g id="a_edge3_Node000003_Node000004"><a xlink:title=" ">
<path fill="none" stroke="#63b8ff" d="M435.83,-939.29C452.25,-954.72 479.31,-976.82 507.75,-985.95 667.32,-1037.18 867.91,-991 966.18,-961.72"/>
<polygon fill="#63b8ff" stroke="#63b8ff" points="967.07,-965.11 975.62,-958.86 965.04,-958.41 967.07,-965.11"/>
</a>
</g>
</g>
<!-- Node5 -->
<g id="Node000005" class="node">
<title>Node5</title>
<g id="a_Node000005"><a xlink:href="../../d8/d92/classLSM1x0A__Controller.html#a345d4bd79fa16b18dc33a4ca788fe5f7" target="_top" xlink:title="Performs a hardware reset using the reset pin.">
<polygon fill="white" stroke="#666666" points="640,-938.95 534,-938.95 534,-906.95 640,-906.95 640,-938.95"/>
<text text-anchor="start" x="542" y="-925.45" font-family="Helvetica,sans-Serif" font-size="10.00">LSM1x0A_Controller</text>
<text text-anchor="middle" x="587" y="-913.45" font-family="Helvetica,sans-Serif" font-size="10.00">::hardwareReset</text>
</a>
</g>
</g>
<!-- Node3&#45;&gt;Node5 -->
<g id="edge4_Node000003_Node000005" class="edge">
<title>Node3&#45;&gt;Node5</title>
<g id="a_edge4_Node000003_Node000005"><a xlink:title=" ">
<path fill="none" stroke="#63b8ff" d="M471.9,-922.95C487.91,-922.95 505.72,-922.95 522.41,-922.95"/>
<polygon fill="#63b8ff" stroke="#63b8ff" points="522.24,-926.45 532.24,-922.95 522.24,-919.45 522.24,-926.45"/>
</a>
</g>
</g>
<!-- Node7 -->
<g id="Node000007" class="node">
<title>Node7</title>
<g id="a_Node000007"><a xlink:href="../../d5/d72/classLSM1x0A__LoRaWAN.html#a1892801e37c8cd67d37c76108d6f7d49" target="_top" xlink:title="Validates if the device is currently Joined to the network. (Either confirmed by OTAA or statically a...">
<polygon fill="white" stroke="#666666" points="1310.5,-926.95 1158,-926.95 1158,-906.95 1310.5,-906.95 1310.5,-926.95"/>
<text text-anchor="middle" x="1234.25" y="-913.45" font-family="Helvetica,sans-Serif" font-size="10.00">LSM1x0A_LoRaWAN::isJoined</text>
</a>
</g>
</g>
<!-- Node3&#45;&gt;Node7 -->
<g id="edge6_Node000003_Node000007" class="edge">
<title>Node3&#45;&gt;Node7</title>
<g id="a_edge6_Node000003_Node000007"><a xlink:title=" ">
<path fill="none" stroke="#63b8ff" d="M465.69,-939.25C467.83,-940.7 469.86,-942.26 471.75,-943.95 496.92,-966.51 478.74,-993.6 507.75,-1010.95 518.45,-1017.34 833.91,-1014.94 896,-1008.95 997.69,-999.13 1024.49,-997.44 1122,-966.95 1150.83,-957.93 1182.08,-943.44 1204.09,-932.37"/>
<polygon fill="#63b8ff" stroke="#63b8ff" points="1205.45,-935.61 1212.76,-927.94 1202.26,-929.38 1205.45,-935.61"/>
</a>
</g>
</g>
<!-- Node8 -->
<g id="Node000008" class="node">
<title>Node8</title>
<g id="a_Node000008"><a xlink:href="../../d5/d72/classLSM1x0A__LoRaWAN.html#a83e11c0e74ff9e0757db616ab1163424" target="_top" xlink:title="Attempts to recover a lost connection (re&#45;executes OTAA Join if dropped).">
<polygon fill="white" stroke="#666666" points="661.38,-850.95 512.62,-850.95 512.62,-818.95 661.38,-818.95 661.38,-850.95"/>
<text text-anchor="start" x="520.62" y="-837.45" font-family="Helvetica,sans-Serif" font-size="10.00">LSM1x0A_LoRaWAN::recover</text>
<text text-anchor="middle" x="587" y="-825.45" font-family="Helvetica,sans-Serif" font-size="10.00">Connection</text>
</a>
</g>
</g>
<!-- Node3&#45;&gt;Node8 -->
<g id="edge7_Node000003_Node000008" class="edge">
<title>Node3&#45;&gt;Node8</title>
<g id="a_edge7_Node000003_Node000008"><a xlink:title=" ">
<path fill="none" stroke="#63b8ff" d="M441.72,-906.53C459.05,-894.07 484.15,-877.07 507.75,-864.95 514.04,-861.72 520.75,-858.64 527.51,-855.76"/>
<polygon fill="#63b8ff" stroke="#63b8ff" points="528.78,-859.02 536.71,-851.99 526.13,-852.55 528.78,-859.02"/>
</a>
</g>
</g>
<!-- Node12 -->
<g id="Node000012" class="node">
<title>Node12</title>
<g id="a_Node000012"><a xlink:href="../../d5/d72/classLSM1x0A__LoRaWAN.html#ae3be4ce59dfa200369733317df356e97" target="_top" xlink:title="Pushes the RAM&#45;cached variables back down into the hardware module. Restores the operational state af...">
<polygon fill="white" stroke="#666666" points="660.25,-496.95 513.75,-496.95 513.75,-464.95 660.25,-464.95 660.25,-496.95"/>
<text text-anchor="start" x="521.75" y="-483.45" font-family="Helvetica,sans-Serif" font-size="10.00">LSM1x0A_LoRaWAN::restore</text>
<text text-anchor="middle" x="587" y="-471.45" font-family="Helvetica,sans-Serif" font-size="10.00">Config</text>
</a>
</g>
</g>
<!-- Node3&#45;&gt;Node12 -->
<g id="edge16_Node000003_Node000012" class="edge">
<title>Node3&#45;&gt;Node12</title>
<g id="a_edge16_Node000003_Node000012"><a xlink:title=" ">
<path fill="none" stroke="#63b8ff" d="M425.86,-906.69C450.76,-840.5 544.67,-590.84 575.86,-507.91"/>
<polygon fill="#63b8ff" stroke="#63b8ff" points="579.05,-509.36 579.3,-498.77 572.5,-506.9 579.05,-509.36"/>
</a>
</g>
</g>
<!-- Node29 -->
<g id="Node000029" class="node">
<title>Node29</title>
<g id="a_Node000029"><a xlink:href="../../d5/d72/classLSM1x0A__LoRaWAN.html#ace4b04396f1de1f4a54f513f5f378db7" target="_top" xlink:title="Manually overrides the internal joined state tracker.">
<polygon fill="white" stroke="#666666" points="666.25,-976.95 507.75,-976.95 507.75,-956.95 666.25,-956.95 666.25,-976.95"/>
<text text-anchor="middle" x="587" y="-963.45" font-family="Helvetica,sans-Serif" font-size="10.00">LSM1x0A_LoRaWAN::setJoined</text>
</a>
</g>
</g>
<!-- Node3&#45;&gt;Node29 -->
<g id="edge50_Node000003_Node000029" class="edge">
<title>Node3&#45;&gt;Node29</title>
<g id="a_edge50_Node000003_Node000029"><a xlink:title=" ">
<path fill="none" stroke="#63b8ff" d="M472.24,-938.22C483.91,-941.51 496.23,-944.91 507.75,-947.95 515.11,-949.89 522.87,-951.86 530.54,-953.76"/>
<polygon fill="#63b8ff" stroke="#63b8ff" points="529.63,-957.14 540.18,-956.13 531.3,-950.35 529.63,-957.14"/>
</a>
</g>
</g>
<!-- Node30 -->
<g id="Node000030" class="node">
<title>Node30</title>
<g id="a_Node000030"><a xlink:href="../../d8/d92/classLSM1x0A__Controller.html#a11ad21cb5ca33ec51346764a23bd485e" target="_top" xlink:title="Performs a software reset (ATZ Command).">
<polygon fill="white" stroke="#666666" points="640,-1102.95 534,-1102.95 534,-1070.95 640,-1070.95 640,-1102.95"/>
<text text-anchor="start" x="542" y="-1089.45" font-family="Helvetica,sans-Serif" font-size="10.00">LSM1x0A_Controller</text>
<text text-anchor="middle" x="587" y="-1077.45" font-family="Helvetica,sans-Serif" font-size="10.00">::softwareReset</text>
</a>
</g>
</g>
<!-- Node3&#45;&gt;Node30 -->
<g id="edge51_Node000003_Node000030" class="edge">
<title>Node3&#45;&gt;Node30</title>
<g id="a_edge51_Node000003_Node000030"><a xlink:title=" ">
<path fill="none" stroke="#63b8ff" d="M426.45,-939.34C438.64,-967.25 467,-1024.13 507.75,-1056.95 512.57,-1060.83 517.94,-1064.24 523.55,-1067.25"/>
<polygon fill="#63b8ff" stroke="#63b8ff" points="521.96,-1070.36 532.48,-1071.55 525,-1064.06 521.96,-1070.36"/>
</a>
</g>
</g>
<!-- Node6 -->
<g id="Node000006" class="node">
<title>Node6</title>
<g id="a_Node000006"><a xlink:href="../../d6/d3c/classLSM1x0A__AtParser.html#ad2839120da13e56132b95019419be1e5" target="_top" xlink:title="Waits for an event (like BOOTALERT) without sending any command. Useful for hardware reset where the ...">
<polygon fill="white" stroke="#666666" points="869.38,-938.95 728.88,-938.95 728.88,-906.95 869.38,-906.95 869.38,-938.95"/>
<text text-anchor="start" x="736.88" y="-925.45" font-family="Helvetica,sans-Serif" font-size="10.00">LSM1x0A_AtParser::waitFor</text>
<text text-anchor="middle" x="799.12" y="-913.45" font-family="Helvetica,sans-Serif" font-size="10.00">Event</text>
</a>
</g>
</g>
<!-- Node5&#45;&gt;Node6 -->
<g id="edge5_Node000005_Node000006" class="edge">
<title>Node5&#45;&gt;Node6</title>
<g id="a_edge5_Node000005_Node000006"><a xlink:title=" ">
<path fill="none" stroke="#63b8ff" d="M640.48,-922.95C663.67,-922.95 691.47,-922.95 717.21,-922.95"/>
<polygon fill="#63b8ff" stroke="#63b8ff" points="716.97,-926.45 726.97,-922.95 716.97,-919.45 716.97,-926.45"/>
</a>
</g>
</g>
<!-- Node9 -->
<g id="Node000009" class="node">
<title>Node9</title>
<g id="a_Node000009"><a xlink:href="../../d5/d72/classLSM1x0A__LoRaWAN.html#a59f781f3cfd30c11cd3973bcb10a7baa" target="_top" xlink:title="Initiates a LoRaWAN Network Join procedure. This is a blocking function until the module fires an eve...">
<polygon fill="white" stroke="#666666" points="864.88,-844.95 733.38,-844.95 733.38,-824.95 864.88,-824.95 864.88,-844.95"/>
<text text-anchor="middle" x="799.12" y="-831.45" font-family="Helvetica,sans-Serif" font-size="10.00">LSM1x0A_LoRaWAN::join</text>
</a>
</g>
</g>
<!-- Node8&#45;&gt;Node9 -->
<g id="edge8_Node000008_Node000009" class="edge">
<title>Node8&#45;&gt;Node9</title>
<g id="a_edge8_Node000008_Node000009"><a xlink:title=" ">
<path fill="none" stroke="#63b8ff" d="M661.79,-834.95C681.16,-834.95 702.1,-834.95 721.61,-834.95"/>
<polygon fill="#63b8ff" stroke="#63b8ff" points="721.4,-838.45 731.4,-834.95 721.4,-831.45 721.4,-838.45"/>
</a>
</g>
</g>
<!-- Node9&#45;&gt;Node2 -->
<g id="edge11_Node000009_Node000002" class="edge">
<title>Node9&#45;&gt;Node2</title>
<g id="a_edge11_Node000009_Node000002"><a xlink:title=" ">
<path fill="none" stroke="#63b8ff" d="M744.9,-824.5C686.27,-812.53 589.48,-791.38 507.75,-766.95 443.36,-747.69 413.48,-762.27 365.75,-714.95 307.48,-657.18 287.28,-557.13 280.7,-508.74"/>
<polygon fill="#63b8ff" stroke="#63b8ff" points="284.18,-508.33 279.47,-498.84 277.23,-509.2 284.18,-508.33"/>
</a>
</g>
</g>
<!-- Node9&#45;&gt;Node3 -->
<g id="edge10_Node000009_Node000003" class="edge">
<title>Node9&#45;&gt;Node3</title>
<g id="a_edge10_Node000009_Node000003"><a xlink:title=" ">
<path fill="none" stroke="#63b8ff" d="M744.9,-845.44C686.49,-857.21 590.07,-877.35 507.75,-897.95 499.81,-899.94 491.49,-902.14 483.28,-904.39"/>
<polygon fill="#63b8ff" stroke="#63b8ff" points="482.34,-901.01 473.65,-907.06 484.22,-907.76 482.34,-901.01"/>
</a>
</g>
</g>
<!-- Node9&#45;&gt;Node4 -->
<g id="edge9_Node000009_Node000004" class="edge">
<title>Node9&#45;&gt;Node4</title>
<g id="a_edge9_Node000009_Node000004"><a xlink:title=" ">
<path fill="none" stroke="#63b8ff" d="M822.19,-845.4C858.91,-862.79 933.23,-898 981.26,-920.75"/>
<polygon fill="#63b8ff" stroke="#63b8ff" points="979.47,-923.78 990.01,-924.9 982.47,-917.45 979.47,-923.78"/>
</a>
</g>
</g>
<!-- Node10 -->
<g id="Node000010" class="node">
<title>Node10</title>
<g id="a_Node000010"><a xlink:href="../../d5/d72/classLSM1x0A__LoRaWAN.html#a3fdd1ac318a5ad2559323e5d57e36a5e" target="_top" xlink:title="Enables or disables specific sub&#45;bands for regions supporting Channel Masks (e.g.,...">
<polygon fill="white" stroke="#666666" points="1122,-654.95 932,-654.95 932,-634.95 1122,-634.95 1122,-654.95"/>
<text text-anchor="middle" x="1027" y="-641.45" font-family="Helvetica,sans-Serif" font-size="10.00">LSM1x0A_LoRaWAN::setChannelMask</text>
</a>
</g>
</g>
<!-- Node9&#45;&gt;Node10 -->
<g id="edge12_Node000009_Node000010" class="edge">
<title>Node9&#45;&gt;Node10</title>
<g id="a_edge12_Node000009_Node000010"><a xlink:title=" ">
<path fill="none" stroke="#63b8ff" d="M859.43,-824.45C872.15,-820.55 885.05,-815.22 896,-807.95 952.87,-770.19 996.5,-699.61 1015.54,-665.05"/>
<polygon fill="#63b8ff" stroke="#63b8ff" points="1018.47,-666.98 1020.12,-656.52 1012.3,-663.67 1018.47,-666.98"/>
</a>
</g>
</g>
<!-- Node11 -->
<g id="Node000011" class="node">
<title>Node11</title>
<g id="a_Node000011"><a xlink:href="../../d8/d92/classLSM1x0A__Controller.html#a62476e30e50c7fe120aeb8df4b828675" target="_top" xlink:title="Synchronously/blockingly waits for an asynchronous event to occur. Useful for wrapping commands like ...">
<polygon fill="white" stroke="#666666" points="1080,-850.95 974,-850.95 974,-818.95 1080,-818.95 1080,-850.95"/>
<text text-anchor="start" x="982" y="-837.45" font-family="Helvetica,sans-Serif" font-size="10.00">LSM1x0A_Controller</text>
<text text-anchor="middle" x="1027" y="-825.45" font-family="Helvetica,sans-Serif" font-size="10.00">::waitForEvent</text>
</a>
</g>
</g>
<!-- Node9&#45;&gt;Node11 -->
<g id="edge15_Node000009_Node000011" class="edge">
<title>Node9&#45;&gt;Node11</title>
<g id="a_edge15_Node000009_Node000011"><a xlink:title=" ">
<path fill="none" stroke="#63b8ff" d="M865.15,-834.95C895.66,-834.95 931.9,-834.95 962.24,-834.95"/>
<polygon fill="#63b8ff" stroke="#63b8ff" points="962.05,-838.45 972.05,-834.95 962.05,-831.45 962.05,-838.45"/>
</a>
</g>
</g>
<!-- Node10&#45;&gt;Node2 -->
<g id="edge14_Node000010_Node000002" class="edge">
<title>Node10&#45;&gt;Node2</title>
<g id="a_edge14_Node000010_Node000002"><a xlink:title=" ">
<path fill="none" stroke="#63b8ff" d="M1025.22,-634.73C1019.77,-566.01 984.85,-172.04 896,-101.95 710.84,44.11 546.9,29.06 365.75,-121.95 314.17,-164.95 288.11,-377.61 280.32,-453.76"/>
<polygon fill="#63b8ff" stroke="#63b8ff" points="276.88,-452.96 279.37,-463.26 283.84,-453.65 276.88,-452.96"/>
</a>
</g>
</g>
<!-- Node10&#45;&gt;Node7 -->
<g id="edge13_Node000010_Node000007" class="edge">
<title>Node10&#45;&gt;Node7</title>
<g id="a_edge13_Node000010_Node000007"><a xlink:title=" ">
<path fill="none" stroke="#63b8ff" d="M1035.8,-655.28C1066.34,-695.76 1178.17,-843.95 1218.57,-897.49"/>
<polygon fill="#63b8ff" stroke="#63b8ff" points="1215.72,-899.52 1224.54,-905.4 1221.31,-895.31 1215.72,-899.52"/>
</a>
</g>
</g>
<!-- Node12&#45;&gt;Node10 -->
<g id="edge21_Node000012_Node000010" class="edge">
<title>Node12&#45;&gt;Node10</title>
<g id="a_edge21_Node000012_Node000010"><a xlink:title=" ">
<path fill="none" stroke="#63b8ff" d="M660.49,-484.29C738.15,-488.81 855.68,-498.64 896,-517.95 947.93,-542.82 991.88,-596.76 1012.84,-625.7"/>
<polygon fill="#63b8ff" stroke="#63b8ff" points="1009.77,-627.41 1018.4,-633.56 1015.49,-623.37 1009.77,-627.41"/>
</a>
</g>
</g>
<!-- Node13 -->
<g id="Node000013" class="node">
<title>Node13</title>
<g id="a_Node000013"><a xlink:href="../../d5/d72/classLSM1x0A__LoRaWAN.html#af0baa3db4c7fab580d6b19a9e92472f6" target="_top" xlink:title="Enables or disables Adaptive Data Rate (ADR).">
<polygon fill="white" stroke="#666666" points="875,-798.95 723.25,-798.95 723.25,-778.95 875,-778.95 875,-798.95"/>
<text text-anchor="middle" x="799.12" y="-785.45" font-family="Helvetica,sans-Serif" font-size="10.00">LSM1x0A_LoRaWAN::setADR</text>
</a>
</g>
</g>
<!-- Node12&#45;&gt;Node13 -->
<g id="edge17_Node000012_Node000013" class="edge">
<title>Node12&#45;&gt;Node13</title>
<g id="a_edge17_Node000012_Node000013"><a xlink:title=" ">
<path fill="none" stroke="#63b8ff" d="M589.18,-497.13C593.7,-546.58 614.4,-696.7 702.25,-769.95 705.5,-772.66 709.04,-775.03 712.76,-777.08"/>
<polygon fill="#63b8ff" stroke="#63b8ff" points="711.09,-780.17 721.63,-781.21 714.04,-773.82 711.09,-780.17"/>
</a>
</g>
</g>
<!-- Node14 -->
<g id="Node000014" class="node">
<title>Node14</title>
<g id="a_Node000014"><a xlink:href="../../d5/d72/classLSM1x0A__LoRaWAN.html#a5365ed1596eb84ebf1e3b33b4a10c788" target="_top" xlink:title="Sets the LoRaWAN operational frequency band.">
<polygon fill="white" stroke="#666666" points="875.38,-760.95 722.88,-760.95 722.88,-740.95 875.38,-740.95 875.38,-760.95"/>
<text text-anchor="middle" x="799.12" y="-747.45" font-family="Helvetica,sans-Serif" font-size="10.00">LSM1x0A_LoRaWAN::setBand</text>
</a>
</g>
</g>
<!-- Node12&#45;&gt;Node14 -->
<g id="edge19_Node000012_Node000014" class="edge">
<title>Node12&#45;&gt;Node14</title>
<g id="a_edge19_Node000012_Node000014"><a xlink:title=" ">
<path fill="none" stroke="#63b8ff" d="M590.26,-497.27C597.42,-542.46 623.98,-669.99 702.25,-731.95 705.41,-734.45 708.8,-736.64 712.36,-738.58"/>
<polygon fill="#63b8ff" stroke="#63b8ff" points="710.85,-741.74 721.4,-742.72 713.77,-735.37 710.85,-741.74"/>
</a>
</g>
</g>
<!-- Node15 -->
<g id="Node000015" class="node">
<title>Node15</title>
<g id="a_Node000015"><a xlink:href="../../d5/d72/classLSM1x0A__LoRaWAN.html#a9d9285c43414337a0ccb3a6cd7ca06e6" target="_top" xlink:title="Configures the number of retries for Confirmed uplinks.">
<polygon fill="white" stroke="#666666" points="881.38,-722.95 716.88,-722.95 716.88,-690.95 881.38,-690.95 881.38,-722.95"/>
<text text-anchor="start" x="724.88" y="-709.45" font-family="Helvetica,sans-Serif" font-size="10.00">LSM1x0A_LoRaWAN::setConfirm</text>
<text text-anchor="middle" x="799.12" y="-697.45" font-family="Helvetica,sans-Serif" font-size="10.00">Retry</text>
</a>
</g>
</g>
<!-- Node12&#45;&gt;Node15 -->
<g id="edge22_Node000012_Node000015" class="edge">
<title>Node12&#45;&gt;Node15</title>
<g id="a_edge22_Node000012_Node000015"><a xlink:title=" ">
<path fill="none" stroke="#63b8ff" d="M592.52,-497.42C603.98,-535.98 637.92,-632.59 702.25,-681.95 703.61,-682.99 705.02,-684 706.46,-684.96"/>
<polygon fill="#63b8ff" stroke="#63b8ff" points="704.68,-687.98 715.09,-689.96 708.19,-681.92 704.68,-687.98"/>
</a>
</g>
</g>
<!-- Node16 -->
<g id="Node000016" class="node">
<title>Node16</title>
<g id="a_Node000016"><a xlink:href="../../d5/d72/classLSM1x0A__LoRaWAN.html#a56345ceeafa0b9059d6de4e69eddc82e" target="_top" xlink:title="Sets the Data Rate (DR) of the module.">
<polygon fill="white" stroke="#666666" points="885.12,-672.95 713.12,-672.95 713.12,-652.95 885.12,-652.95 885.12,-672.95"/>
<text text-anchor="middle" x="799.12" y="-659.45" font-family="Helvetica,sans-Serif" font-size="10.00">LSM1x0A_LoRaWAN::setDataRate</text>
</a>
</g>
</g>
<!-- Node12&#45;&gt;Node16 -->
<g id="edge24_Node000012_Node000016" class="edge">
<title>Node12&#45;&gt;Node16</title>
<g id="a_edge24_Node000012_Node000016"><a xlink:title=" ">
<path fill="none" stroke="#63b8ff" d="M594.43,-497.26C608.49,-530.68 645.36,-606.87 702.25,-643.95 704.39,-645.34 706.6,-646.63 708.88,-647.84"/>
<polygon fill="#63b8ff" stroke="#63b8ff" points="707.3,-650.96 717.85,-651.92 710.2,-644.59 707.3,-650.96"/>
</a>
</g>
</g>
<!-- Node17 -->
<g id="Node000017" class="node">
<title>Node17</title>
<g id="a_Node000017"><a xlink:href="../../d5/d72/classLSM1x0A__LoRaWAN.html#a8494083816ab885cb07fc3b08de029f4" target="_top" xlink:title="Sets the LoRaWAN Device Address (DevAddr) for ABP mode.">
<polygon fill="white" stroke="#666666" points="883.25,-634.95 715,-634.95 715,-614.95 883.25,-614.95 883.25,-634.95"/>
<text text-anchor="middle" x="799.12" y="-621.45" font-family="Helvetica,sans-Serif" font-size="10.00">LSM1x0A_LoRaWAN::setDevAddr</text>
</a>
</g>
</g>
<!-- Node12&#45;&gt;Node17 -->
<g id="edge26_Node000012_Node000017" class="edge">
<title>Node12&#45;&gt;Node17</title>
<g id="a_edge26_Node000012_Node000017"><a xlink:title=" ">
<path fill="none" stroke="#63b8ff" d="M597.99,-497.41C615.47,-524.7 654.35,-578.97 702.25,-605.95 705.09,-607.55 708.05,-609.02 711.08,-610.36"/>
<polygon fill="#63b8ff" stroke="#63b8ff" points="709.67,-613.57 720.26,-613.93 712.21,-607.04 709.67,-613.57"/>
</a>
</g>
</g>
<!-- Node18 -->
<g id="Node000018" class="node">
<title>Node18</title>
<g id="a_Node000018"><a xlink:href="../../d5/d72/classLSM1x0A__LoRaWAN.html#ad320634e52d7ea907043cc50dd37c5b0" target="_top" xlink:title="Sets the LoRaWAN Device EUI (DevEUI).">
<polygon fill="white" stroke="#666666" points="881.75,-596.95 716.5,-596.95 716.5,-576.95 881.75,-576.95 881.75,-596.95"/>
<text text-anchor="middle" x="799.12" y="-583.45" font-family="Helvetica,sans-Serif" font-size="10.00">LSM1x0A_LoRaWAN::setDevEUI</text>
</a>
</g>
</g>
<!-- Node12&#45;&gt;Node18 -->
<g id="edge28_Node000012_Node000018" class="edge">
<title>Node12&#45;&gt;Node18</title>
<g id="a_edge28_Node000012_Node000018"><a xlink:title=" ">
<path fill="none" stroke="#63b8ff" d="M604.2,-497.21C625.02,-517.12 663.15,-550.34 702.25,-567.95 706.51,-569.87 710.97,-571.6 715.53,-573.15"/>
<polygon fill="#63b8ff" stroke="#63b8ff" points="714.28,-576.43 724.87,-576.02 716.34,-569.74 714.28,-576.43"/>
</a>
</g>
</g>
<!-- Node19 -->
<g id="Node000019" class="node">
<title>Node19</title>
<g id="a_Node000019"><a xlink:href="../../d5/d72/classLSM1x0A__LoRaWAN.html#a031023b0d2dd5db3c51c2db6ae7801cc" target="_top" xlink:title="Enables or disables the Duty Cycle limitation (EU regions mostly).">
<polygon fill="white" stroke="#666666" points="874.62,-558.95 723.62,-558.95 723.62,-526.95 874.62,-526.95 874.62,-558.95"/>
<text text-anchor="start" x="731.62" y="-545.45" font-family="Helvetica,sans-Serif" font-size="10.00">LSM1x0A_LoRaWAN::setDuty</text>
<text text-anchor="middle" x="799.12" y="-533.45" font-family="Helvetica,sans-Serif" font-size="10.00">Cycle</text>
</a>
</g>
</g>
<!-- Node12&#45;&gt;Node19 -->
<g id="edge30_Node000012_Node000019" class="edge">
<title>Node12&#45;&gt;Node19</title>
<g id="a_edge30_Node000012_Node000019"><a xlink:title=" ">
<path fill="none" stroke="#63b8ff" d="M643.76,-497.4C670.7,-505.35 703.23,-514.95 731.48,-523.28"/>
<polygon fill="#63b8ff" stroke="#63b8ff" points="730.44,-526.62 741.02,-526.1 732.42,-519.91 730.44,-526.62"/>
</a>
</g>
</g>
<!-- Node20 -->
<g id="Node000020" class="node">
<title>Node20</title>
<g id="a_Node000020"><a xlink:href="../../d5/d72/classLSM1x0A__LoRaWAN.html#a6b179d5825c49af0f391dfc539912f64" target="_top" xlink:title="Sets the delay for the Join1 receive window.">
<polygon fill="white" stroke="#666666" points="875.75,-470.95 722.5,-470.95 722.5,-438.95 875.75,-438.95 875.75,-470.95"/>
<text text-anchor="start" x="730.5" y="-457.45" font-family="Helvetica,sans-Serif" font-size="10.00">LSM1x0A_LoRaWAN::setJoin1</text>
<text text-anchor="middle" x="799.12" y="-445.45" font-family="Helvetica,sans-Serif" font-size="10.00">Delay</text>
</a>
</g>
</g>
<!-- Node12&#45;&gt;Node20 -->
<g id="edge32_Node000012_Node000020" class="edge">
<title>Node12&#45;&gt;Node20</title>
<g id="a_edge32_Node000012_Node000020"><a xlink:title=" ">
<path fill="none" stroke="#63b8ff" d="M660.61,-471.96C676.96,-469.94 694.47,-467.77 711.33,-465.69"/>
<polygon fill="#63b8ff" stroke="#63b8ff" points="711.3,-469.22 720.8,-464.52 710.44,-462.27 711.3,-469.22"/>
</a>
</g>
</g>
<!-- Node21 -->
<g id="Node000021" class="node">
<title>Node21</title>
<g id="a_Node000021"><a xlink:href="../../d5/d72/classLSM1x0A__LoRaWAN.html#a4545d0caad41558cdb9bae8286b104d8" target="_top" xlink:title="Sets the delay for the Join2 receive window.">
<polygon fill="white" stroke="#666666" points="875.75,-420.95 722.5,-420.95 722.5,-388.95 875.75,-388.95 875.75,-420.95"/>
<text text-anchor="start" x="730.5" y="-407.45" font-family="Helvetica,sans-Serif" font-size="10.00">LSM1x0A_LoRaWAN::setJoin2</text>
<text text-anchor="middle" x="799.12" y="-395.45" font-family="Helvetica,sans-Serif" font-size="10.00">Delay</text>
</a>
</g>
</g>
<!-- Node12&#45;&gt;Node21 -->
<g id="edge34_Node000012_Node000021" class="edge">
<title>Node12&#45;&gt;Node21</title>
<g id="a_edge34_Node000012_Node000021"><a xlink:title=" ">
<path fill="none" stroke="#63b8ff" d="M620.91,-464.52C643.42,-453.71 674.17,-439.8 702.25,-429.95 707.54,-428.09 713.04,-426.3 718.61,-424.59"/>
<polygon fill="#63b8ff" stroke="#63b8ff" points="719.32,-428.03 727.91,-421.84 717.33,-421.32 719.32,-428.03"/>
</a>
</g>
</g>
<!-- Node22 -->
<g id="Node000022" class="node">
<title>Node22</title>
<g id="a_Node000022"><a xlink:href="../../d5/d72/classLSM1x0A__LoRaWAN.html#a06bd50723ec1eb7e144c9141b2ec86fc" target="_top" xlink:title="Sets the LoRaWAN Network ID (NetID).">
<polygon fill="white" stroke="#666666" points="879.5,-370.95 718.75,-370.95 718.75,-350.95 879.5,-350.95 879.5,-370.95"/>
<text text-anchor="middle" x="799.12" y="-357.45" font-family="Helvetica,sans-Serif" font-size="10.00">LSM1x0A_LoRaWAN::setNwkID</text>
</a>
</g>
</g>
<!-- Node12&#45;&gt;Node22 -->
<g id="edge36_Node000012_Node000022" class="edge">
<title>Node12&#45;&gt;Node22</title>
<g id="a_edge36_Node000012_Node000022"><a xlink:title=" ">
<path fill="none" stroke="#63b8ff" d="M601.26,-464.74C620.85,-441.98 659.78,-400.98 702.25,-379.95 705.93,-378.13 709.76,-376.48 713.7,-374.99"/>
<polygon fill="#63b8ff" stroke="#63b8ff" points="714.51,-378.41 722.86,-371.9 712.27,-371.78 714.51,-378.41"/>
</a>
</g>
</g>
<!-- Node23 -->
<g id="Node000023" class="node">
<title>Node23</title>
<g id="a_Node000023"><a xlink:href="../../d5/d72/classLSM1x0A__LoRaWAN.html#aa70ada64d28ecca216bb62268e502adf" target="_top" xlink:title="Sets the delay for the RX1 receive window.">
<polygon fill="white" stroke="#666666" points="885.88,-332.95 712.38,-332.95 712.38,-312.95 885.88,-312.95 885.88,-332.95"/>
<text text-anchor="middle" x="799.12" y="-319.45" font-family="Helvetica,sans-Serif" font-size="10.00">LSM1x0A_LoRaWAN::setRx1Delay</text>
</a>
</g>
</g>
<!-- Node12&#45;&gt;Node23 -->
<g id="edge38_Node000012_Node000023" class="edge">
<title>Node12&#45;&gt;Node23</title>
<g id="a_edge38_Node000012_Node000023"><a xlink:title=" ">
<path fill="none" stroke="#63b8ff" d="M596.45,-464.54C612.65,-434.88 651.05,-372.58 702.25,-341.95 704.73,-340.46 707.31,-339.09 709.96,-337.82"/>
<polygon fill="#63b8ff" stroke="#63b8ff" points="711.21,-341.09 719.09,-334.02 708.51,-334.63 711.21,-341.09"/>
</a>
</g>
</g>
<!-- Node24 -->
<g id="Node000024" class="node">
<title>Node24</title>
<g id="a_Node000024"><a xlink:href="../../d5/d72/classLSM1x0A__LoRaWAN.html#a2cf4eff0181b6107d082bccefa24217b" target="_top" xlink:title="Sets the Data Rate (DR) specifically for the RX2 window.">
<polygon fill="white" stroke="#666666" points="894.12,-294.95 704.12,-294.95 704.12,-274.95 894.12,-274.95 894.12,-294.95"/>
<text text-anchor="middle" x="799.12" y="-281.45" font-family="Helvetica,sans-Serif" font-size="10.00">LSM1x0A_LoRaWAN::setRx2DataRate</text>
</a>
</g>
</g>
<!-- Node12&#45;&gt;Node24 -->
<g id="edge40_Node000012_Node000024" class="edge">
<title>Node12&#45;&gt;Node24</title>
<g id="a_edge40_Node000012_Node000024"><a xlink:title=" ">
<path fill="none" stroke="#63b8ff" d="M593.52,-464.61C606.4,-429.11 642.04,-344.84 702.25,-303.95 704.22,-302.61 706.27,-301.36 708.38,-300.19"/>
<polygon fill="#63b8ff" stroke="#63b8ff" points="709.71,-303.43 717.23,-295.97 706.7,-297.11 709.71,-303.43"/>
</a>
</g>
</g>
<!-- Node25 -->
<g id="Node000025" class="node">
<title>Node25</title>
<g id="a_Node000025"><a xlink:href="../../d5/d72/classLSM1x0A__LoRaWAN.html#a42d2137b475b57e19d891a5f1ac93221" target="_top" xlink:title="Sets the delay for the RX2 receive window.">
<polygon fill="white" stroke="#666666" points="885.88,-256.95 712.38,-256.95 712.38,-236.95 885.88,-236.95 885.88,-256.95"/>
<text text-anchor="middle" x="799.12" y="-243.45" font-family="Helvetica,sans-Serif" font-size="10.00">LSM1x0A_LoRaWAN::setRx2Delay</text>
</a>
</g>
</g>
<!-- Node12&#45;&gt;Node25 -->
<g id="edge42_Node000012_Node000025" class="edge">
<title>Node12&#45;&gt;Node25</title>
<g id="a_edge42_Node000012_Node000025"><a xlink:title=" ">
<path fill="none" stroke="#63b8ff" d="M591.59,-464.6C601.43,-423.89 632.86,-317.5 702.25,-265.95 703.84,-264.76 705.49,-263.65 707.18,-262.6"/>
<polygon fill="#63b8ff" stroke="#63b8ff" points="708.76,-265.72 715.98,-257.97 705.5,-259.53 708.76,-265.72"/>
</a>
</g>
</g>
<!-- Node26 -->
<g id="Node000026" class="node">
<title>Node26</title>
<g id="a_Node000026"><a xlink:href="../../d5/d72/classLSM1x0A__LoRaWAN.html#a689f7dfda1dfeae11ea397c2ddf2ad37" target="_top" xlink:title="Sets the precise frequency for the RX2 window.">
<polygon fill="white" stroke="#666666" points="896,-218.95 702.25,-218.95 702.25,-198.95 896,-198.95 896,-218.95"/>
<text text-anchor="middle" x="799.12" y="-205.45" font-family="Helvetica,sans-Serif" font-size="10.00">LSM1x0A_LoRaWAN::setRx2Frequency</text>
</a>
</g>
</g>
<!-- Node12&#45;&gt;Node26 -->
<g id="edge44_Node000012_Node000026" class="edge">
<title>Node12&#45;&gt;Node26</title>
<g id="a_edge44_Node000012_Node000026"><a xlink:title=" ">
<path fill="none" stroke="#63b8ff" d="M590.21,-464.5C597.26,-418.96 623.56,-290.44 702.25,-227.95 703.58,-226.89 704.95,-225.89 706.36,-224.94"/>
<polygon fill="#63b8ff" stroke="#63b8ff" points="707.86,-228.11 714.82,-220.12 704.4,-222.03 707.86,-228.11"/>
</a>
</g>
</g>
<!-- Node27 -->
<g id="Node000027" class="node">
<title>Node27</title>
<g id="a_Node000027"><a xlink:href="../../d5/d72/classLSM1x0A__LoRaWAN.html#a1df10d7ae6bf45b537d28d3d5c4b88d7" target="_top" xlink:title="Sets the transmission power index.">
<polygon fill="white" stroke="#666666" points="883.62,-180.95 714.62,-180.95 714.62,-160.95 883.62,-160.95 883.62,-180.95"/>
<text text-anchor="middle" x="799.12" y="-167.45" font-family="Helvetica,sans-Serif" font-size="10.00">LSM1x0A_LoRaWAN::setTxPower</text>
</a>
</g>
</g>
<!-- Node12&#45;&gt;Node27 -->
<g id="edge46_Node000012_Node000027" class="edge">
<title>Node12&#45;&gt;Node27</title>
<g id="a_edge46_Node000012_Node000027"><a xlink:title=" ">
<path fill="none" stroke="#63b8ff" d="M589.14,-464.65C593.55,-414.88 613.96,-263.73 702.25,-189.95 703.39,-189 704.55,-188.09 705.75,-187.23"/>
<polygon fill="#63b8ff" stroke="#63b8ff" points="707.43,-190.3 714.18,-182.14 703.81,-184.31 707.43,-190.3"/>
</a>
</g>
</g>
<!-- Node28 -->
<g id="Node000028" class="node">
<title>Node28</title>
<g id="a_Node000028"><a xlink:href="../../d5/d72/classLSM1x0A__LoRaWAN.html#a059fd6a9356c4ecadd5a98294da5952d" target="_top" xlink:title="Configures the number of repetitions for Unconfirmed uplinks.">
<polygon fill="white" stroke="#666666" points="886.62,-142.95 711.62,-142.95 711.62,-110.95 886.62,-110.95 886.62,-142.95"/>
<text text-anchor="start" x="719.62" y="-129.45" font-family="Helvetica,sans-Serif" font-size="10.00">LSM1x0A_LoRaWAN::setUnconfirm</text>
<text text-anchor="middle" x="799.12" y="-117.45" font-family="Helvetica,sans-Serif" font-size="10.00">Retry</text>
</a>
</g>
</g>
<!-- Node12&#45;&gt;Node28 -->
<g id="edge48_Node000012_Node000028" class="edge">
<title>Node12&#45;&gt;Node28</title>
<g id="a_edge48_Node000012_Node000028"><a xlink:title=" ">
<path fill="none" stroke="#63b8ff" d="M588.52,-464.75C591.15,-411.46 606.98,-239.96 702.25,-151.95 703.02,-151.23 703.82,-150.54 704.62,-149.86"/>
<polygon fill="#63b8ff" stroke="#63b8ff" points="706.47,-152.84 712.62,-144.21 702.44,-147.12 706.47,-152.84"/>
</a>
</g>
</g>
<!-- Node13&#45;&gt;Node2 -->
<g id="edge18_Node000013_Node000002" class="edge">
<title>Node13&#45;&gt;Node2</title>
<g id="a_edge18_Node000013_Node000002"><a xlink:title=" ">
<path fill="none" stroke="#63b8ff" d="M724.11,-778.49C614.89,-761.69 417.83,-725.64 365.75,-677.95 315.1,-631.57 291.87,-550.58 282.75,-508.34"/>
<polygon fill="#63b8ff" stroke="#63b8ff" points="286.23,-507.86 280.8,-498.76 279.37,-509.26 286.23,-507.86"/>
</a>
</g>
</g>
<!-- Node14&#45;&gt;Node2 -->
<g id="edge20_Node000014_Node000002" class="edge">
<title>Node14&#45;&gt;Node2</title>
<g id="a_edge20_Node000014_Node000002"><a xlink:title=" ">
<path fill="none" stroke="#63b8ff" d="M726.48,-740.46C618.42,-723.42 420.51,-687.03 365.75,-641.95 322.48,-606.32 297.12,-543.61 285.49,-507.88"/>
<polygon fill="#63b8ff" stroke="#63b8ff" points="288.96,-507.24 282.64,-498.74 282.27,-509.32 288.96,-507.24"/>
</a>
</g>
</g>
<!-- Node15&#45;&gt;Node2 -->
<g id="edge23_Node000015_Node000002" class="edge">
<title>Node15&#45;&gt;Node2</title>
<g id="a_edge23_Node000015_Node000002"><a xlink:title=" ">
<path fill="none" stroke="#63b8ff" d="M716.49,-696.13C607.08,-680.29 420.32,-648.15 365.75,-606.95 330.63,-580.43 304.24,-535.78 289.9,-507.37"/>
<polygon fill="#63b8ff" stroke="#63b8ff" points="293.21,-506.16 285.67,-498.71 286.92,-509.23 293.21,-506.16"/>
</a>
</g>
</g>
<!-- Node16&#45;&gt;Node2 -->
<g id="edge25_Node000016_Node000002" class="edge">
<title>Node16&#45;&gt;Node2</title>
<g id="a_edge25_Node000016_Node000002"><a xlink:title=" ">
<path fill="none" stroke="#63b8ff" d="M713.02,-660.63C621.31,-654.66 473.96,-634.71 365.75,-569.95 338.07,-553.38 312.89,-526.09 296.63,-506.09"/>
<polygon fill="#63b8ff" stroke="#63b8ff" points="299.49,-504.06 290.54,-498.39 294,-508.41 299.49,-504.06"/>
</a>
</g>
</g>
<!-- Node17&#45;&gt;Node2 -->
<g id="edge27_Node000017_Node000002" class="edge">
<title>Node17&#45;&gt;Node2</title>
<g id="a_edge27_Node000017_Node000002"><a xlink:title=" ">
<path fill="none" stroke="#63b8ff" d="M714.77,-618.09C625.51,-608.52 481.15,-586.49 365.75,-537.95 344.99,-529.22 323.74,-515.61 307.33,-503.88"/>
<polygon fill="#63b8ff" stroke="#63b8ff" points="309.62,-501.22 299.48,-498.14 305.49,-506.87 309.62,-501.22"/>
</a>
</g>
</g>
<!-- Node18&#45;&gt;Node2 -->
<g id="edge29_Node000018_Node000002" class="edge">
<title>Node18&#45;&gt;Node2</title>
<g id="a_edge29_Node000018_Node000002"><a xlink:title=" ">
<path fill="none" stroke="#63b8ff" d="M716.37,-576.91C628.78,-565.2 486.09,-543.35 365.75,-511.95 354.23,-508.94 342.07,-505.11 330.59,-501.17"/>
<polygon fill="#63b8ff" stroke="#63b8ff" points="331.85,-497.9 321.26,-497.88 329.53,-504.5 331.85,-497.9"/>
</a>
</g>
</g>
<!-- Node19&#45;&gt;Node2 -->
<g id="edge31_Node000019_Node000002" class="edge">
<title>Node19&#45;&gt;Node2</title>
<g id="a_edge31_Node000019_Node000002"><a xlink:title=" ">
<path fill="none" stroke="#63b8ff" d="M723.39,-534.04C620.71,-521.81 437.81,-500.02 341.35,-488.53"/>
<polygon fill="#63b8ff" stroke="#63b8ff" points="341.87,-485.06 331.53,-487.36 341.05,-492.01 341.87,-485.06"/>
</a>
</g>
</g>
<!-- Node20&#45;&gt;Node2 -->
<g id="edge33_Node000020_Node000002" class="edge">
<title>Node20&#45;&gt;Node2</title>
<g id="a_edge33_Node000020_Node000002"><a xlink:title=" ">
<path fill="none" stroke="#63b8ff" d="M722.25,-453.04C663.62,-452.09 580.48,-451.88 507.75,-455.95 451.37,-459.1 387.55,-466.33 341.47,-472.21"/>
<polygon fill="#63b8ff" stroke="#63b8ff" points="341.12,-468.72 331.65,-473.48 342.01,-475.67 341.12,-468.72"/>
</a>
</g>
</g>
<!-- Node21&#45;&gt;Node2 -->
<g id="edge35_Node000021_Node000002" class="edge">
<title>Node21&#45;&gt;Node2</title>
<g id="a_edge35_Node000021_Node000002"><a xlink:title=" ">
<path fill="none" stroke="#63b8ff" d="M722.13,-409.76C635.28,-416.18 489.21,-429.77 365.75,-454.95 357.08,-456.72 348.03,-458.94 339.17,-461.34"/>
<polygon fill="#63b8ff" stroke="#63b8ff" points="338.23,-457.97 329.55,-464.05 340.13,-464.71 338.23,-457.97"/>
</a>
</g>
</g>
<!-- Node22&#45;&gt;Node2 -->
<g id="edge37_Node000022_Node000002" class="edge">
<title>Node22&#45;&gt;Node2</title>
<g id="a_edge37_Node000022_Node000002"><a xlink:title=" ">
<path fill="none" stroke="#63b8ff" d="M718.46,-366.22C630.2,-373.87 484.63,-391.94 365.75,-432.95 347.26,-439.33 328.05,-449.35 312.31,-458.6"/>
<polygon fill="#63b8ff" stroke="#63b8ff" points="310.55,-455.57 303.8,-463.73 314.17,-461.56 310.55,-455.57"/>
</a>
</g>
</g>
<!-- Node23&#45;&gt;Node2 -->
<g id="edge39_Node000023_Node000002" class="edge">
<title>Node23&#45;&gt;Node2</title>
<g id="a_edge39_Node000023_Node000002"><a xlink:title=" ">
<path fill="none" stroke="#63b8ff" d="M711.99,-323.48C621.04,-327.36 475.85,-343.2 365.75,-400.95 339.51,-414.71 315.03,-438.19 298.59,-456.16"/>
<polygon fill="#63b8ff" stroke="#63b8ff" points="296.23,-453.54 292.2,-463.34 301.46,-458.2 296.23,-453.54"/>
</a>
</g>
</g>
<!-- Node24&#45;&gt;Node2 -->
<g id="edge41_Node000024_Node000002" class="edge">
<title>Node24&#45;&gt;Node2</title>
<g id="a_edge41_Node000024_Node000002"><a xlink:title=" ">
<path fill="none" stroke="#63b8ff" d="M703.9,-278.72C610.35,-277.21 466.69,-287.94 365.75,-355.95 329.25,-380.54 303.12,-425.71 289.23,-454.49"/>
<polygon fill="#63b8ff" stroke="#63b8ff" points="286.19,-452.73 285.15,-463.27 292.54,-455.68 286.19,-452.73"/>
</a>
</g>
</g>
<!-- Node25&#45;&gt;Node2 -->
<g id="edge43_Node000025_Node000002" class="edge">
<title>Node25&#45;&gt;Node2</title>
<g id="a_edge43_Node000025_Node000002"><a xlink:title=" ">
<path fill="none" stroke="#63b8ff" d="M728.35,-236.49C635.58,-226.6 471.09,-223.58 365.75,-304.95 317.11,-342.51 293.38,-414.19 283.56,-453.49"/>
<polygon fill="#63b8ff" stroke="#63b8ff" points="280.19,-452.56 281.3,-463.1 287,-454.17 280.19,-452.56"/>
</a>
</g>
</g>
<!-- Node26&#45;&gt;Node2 -->
<g id="edge45_Node000026_Node000002" class="edge">
<title>Node26&#45;&gt;Node2</title>
<g id="a_edge45_Node000026_Node000002"><a xlink:title=" ">
<path fill="none" stroke="#63b8ff" d="M701.92,-205.86C590.47,-204.31 415.75,-208.72 365.75,-248.95 301.86,-300.36 284.33,-403.6 279.54,-453.16"/>
<polygon fill="#63b8ff" stroke="#63b8ff" points="276.06,-452.77 278.7,-463.03 283.03,-453.36 276.06,-452.77"/>
</a>
</g>
</g>
<!-- Node27&#45;&gt;Node2 -->
<g id="edge47_Node000027_Node000002" class="edge">
<title>Node27&#45;&gt;Node2</title>
<g id="a_edge47_Node000027_Node000002"><a xlink:title=" ">
<path fill="none" stroke="#63b8ff" d="M751.42,-160.48C664.99,-144.01 478.64,-122.56 365.75,-212.95 290.94,-272.85 279.08,-397.78 277.65,-453.31"/>
<polygon fill="#63b8ff" stroke="#63b8ff" points="274.15,-453.1 277.5,-463.15 281.15,-453.21 274.15,-453.1"/>
</a>
</g>
</g>
<!-- Node28&#45;&gt;Node2 -->
<g id="edge49_Node000028_Node000002" class="edge">
<title>Node28&#45;&gt;Node2</title>
<g id="a_edge49_Node000028_Node000002"><a xlink:title=" ">
<path fill="none" stroke="#63b8ff" d="M711.24,-121.55C600.15,-116.57 416.12,-115.39 365.75,-157.95 319.9,-196.69 290.75,-383.18 281.2,-453.79"/>
<polygon fill="#63b8ff" stroke="#63b8ff" points="277.78,-452.95 279.94,-463.32 284.72,-453.87 277.78,-452.95"/>
</a>
</g>
</g>
<!-- Node30&#45;&gt;Node31 -->
<g id="edge52_Node000030_Node000031" class="edge">
<title>Node30&#45;&gt;Node31</title>
<g id="a_edge52_Node000030_Node000031"><a xlink:title=" ">
<path fill="none" stroke="#63b8ff" d="M640.48,-1092.44C658.64,-1094.34 679.61,-1096.54 700.22,-1098.7"/>
<polygon fill="#63b8ff" stroke="#63b8ff" points="699.79,-1102.17 710.1,-1099.73 700.52,-1095.21 699.79,-1102.17"/>
</a>
</g>
</g>
<!-- Node32 -->
<g id="Node000032" class="node">
<title>Node32</title>
<g id="a_Node000032"><a xlink:href="../../d6/d3c/classLSM1x0A__AtParser.html#a0ba6f927c54fceece22c17773d3f2600" target="_top" xlink:title="Sends a command and extracts a value from the response.">
<polygon fill="white" stroke="#666666" points="1114.12,-1124.95 939.88,-1124.95 939.88,-1092.95 1114.12,-1092.95 1114.12,-1124.95"/>
<text text-anchor="start" x="947.88" y="-1111.45" font-family="Helvetica,sans-Serif" font-size="10.00">LSM1x0A_AtParser::sendCommand</text>
<text text-anchor="middle" x="1027" y="-1099.45" font-family="Helvetica,sans-Serif" font-size="10.00">WithResponse</text>
</a>
</g>
</g>
<!-- Node31&#45;&gt;Node32 -->
<g id="edge53_Node000031_Node000032" class="edge">
<title>Node31&#45;&gt;Node32</title>
<g id="a_edge53_Node000031_Node000032"><a xlink:title=" ">
<path fill="none" stroke="#63b8ff" d="M886.49,-1108.95C900.24,-1108.95 914.56,-1108.95 928.55,-1108.95"/>
<polygon fill="#63b8ff" stroke="#63b8ff" points="928.17,-1112.45 938.17,-1108.95 928.17,-1105.45 928.17,-1112.45"/>
</a>
</g>
</g>
<!-- Node33 -->
<g id="Node000033" class="node">
<title>Node33</title>
<g id="a_Node000033"><a xlink:href="../../d5/d8b/classUartDriver.html#a5d0f22e8867eebe99273078bb19bd23d" target="_top" xlink:title="Sends data through UART.">
<polygon fill="white" stroke="#666666" points="1288.75,-1118.95 1179.75,-1118.95 1179.75,-1098.95 1288.75,-1098.95 1288.75,-1118.95"/>
<text text-anchor="middle" x="1234.25" y="-1105.45" font-family="Helvetica,sans-Serif" font-size="10.00">UartDriver::sendData</text>
</a>
</g>
</g>
<!-- Node32&#45;&gt;Node33 -->
<g id="edge54_Node000032_Node000033" class="edge">
<title>Node32&#45;&gt;Node33</title>
<g id="a_edge54_Node000032_Node000033"><a xlink:title=" ">
<path fill="none" stroke="#63b8ff" d="M1114.45,-1108.95C1132.34,-1108.95 1150.91,-1108.95 1167.89,-1108.95"/>
<polygon fill="#63b8ff" stroke="#63b8ff" points="1167.86,-1112.45 1177.86,-1108.95 1167.86,-1105.45 1167.86,-1112.45"/>
</a>
</g>
</g>
</g>
</svg>
