<?xml version="1.0" encoding="UTF-8" standalone="no"?>
<!DOCTYPE svg PUBLIC "-//W3C//DTD SVG 1.1//EN"
 "http://www.w3.org/Graphics/SVG/1.1/DTD/svg11.dtd">
<!-- Generated by graphviz version 12.2.1 (20241206.2353)
 -->
<!-- Title: LSM1x0A_LoRaWAN::setBand Pages: 1 -->
<!--zoomable 1064 -->

<svg id="main" version="1.1" xmlns="http://www.w3.org/2000/svg" xmlns:xlink="http://www.w3.org/1999/xlink" xml:space="preserve" onload="init(evt)">
<style type="text/css"><![CDATA[
.node, .edge {opacity: 0.7;}
.node.selected, .edge.selected {opacity: 1;}
.edge:hover path { stroke: red; }
.edge:hover polygon { stroke: red; fill: red; }
]]></style>

<defs>
  <circle id="rim" cx="0" cy="0" r="7"/>
  <circle id="rim2" cx="0" cy="0" r="3.5"/>
  <g id="zoomPlus">
    <use xlink:href="#rim" fill="#404040"><set attributeName="fill" to="#808080" begin="zoomplus.mouseover" end="zoomplus.mouseout"/></use>
    <path d="M-4,0h8M0,-4v8" fill="none" stroke="white" stroke-width="1.5" pointer-events="none"/>
  </g>
  <g id="zoomMin">
    <use xlink:href="#rim" fill="#404040"><set attributeName="fill" to="#808080" begin="zoomminus.mouseover" end="zoomminus.mouseout"/></use>
    <path d="M-4,0h8" fill="none" stroke="white" stroke-width="1.5" pointer-events="none"/>
  </g>
  <g id="arrowUp" transform="translate(30 24)">
    <use xlink:href="#rim"/>
    <path pointer-events="none" fill="none" stroke="white" stroke-width="1.5" d="M0,-3.0v7 M-2.5,-0.5L0,-3.0L2.5,-0.5"/>
  </g>
  <g id="arrowRight" transform="rotate(90) translate(36 -43)">
    <use xlink:href="#rim"/>
    <path pointer-events="none" fill="none" stroke="white" stroke-width="1.5" d="M0,-3.0v7 M-2.5,-0.5L0,-3.0L2.5,-0.5"/>
  </g>
  <g id="arrowDown" transform="rotate(180) translate(-30 -48)">
    <use xlink:href="#rim"/>
    <path pointer-events="none" fill="none" stroke="white" stroke-width="1.5" d="M0,-3.0v7 M-2.5,-0.5L0,-3.0L2.5,-0.5"/>
  </g>
  <g id="arrowLeft" transform="rotate(270) translate(-36 17)">
    <use xlink:href="#rim"/>
    <path pointer-events="none" fill="none" stroke="white" stroke-width="1.5" d="M0,-3.0v7 M-2.5,-0.5L0,-3.0L2.5,-0.5"/>
  </g>
  <g id="resetDef">
    <use xlink:href="#rim2" fill="#404040"><set attributeName="fill" to="#808080" begin="reset.mouseover" end="reset.mouseout"/></use>
  </g>
</defs>
<script type="application/ecmascript">
var viewWidth = 1283;
var viewHeight = 1064;
var sectionId = 'dynsection-67';
</script>
<script type="application/ecmascript" xlink:href="../../svg.min.js"/>
<svg id="graph" class="graph">
<g id="viewport">
<title>LSM1x0A_LoRaWAN::setBand</title>
<!-- Node1 -->
<g id="Node000001" class="node">
<title>Node1</title>
<g id="a_Node000001"><a xlink:title="Sets the LoRaWAN operational frequency band.">
<polygon fill="#999999" stroke="#666666" points="152.5,-347.99 0,-347.99 0,-327.99 152.5,-327.99 152.5,-347.99"/>
<text text-anchor="middle" x="76.25" y="-334.49" font-family="Helvetica,sans-Serif" font-size="10.00">LSM1x0A_LoRaWAN::setBand</text>
</a>
</g>
</g>
<!-- Node2 -->
<g id="Node000002" class="node">
<title>Node2</title>
<g id="a_Node000002"><a xlink:href="../../d8/d92/classLSM1x0A__Controller.html#afd7d92e60ed6fdae696a955cdbe0ed8c" target="_top" xlink:title="Sends any AT command to the module, returning error if it fails. Internally uses the LsmAtParser logi...">
<polygon fill="white" stroke="#666666" points="294.5,-447.99 188.5,-447.99 188.5,-415.99 294.5,-415.99 294.5,-447.99"/>
<text text-anchor="start" x="196.5" y="-434.49" font-family="Helvetica,sans-Serif" font-size="10.00">LSM1x0A_Controller</text>
<text text-anchor="middle" x="241.5" y="-422.49" font-family="Helvetica,sans-Serif" font-size="10.00">::sendCommand</text>
</a>
</g>
</g>
<!-- Node1&#45;&gt;Node2 -->
<g id="edge1_Node000001_Node000002" class="edge">
<title>Node1&#45;&gt;Node2</title>
<g id="a_edge1_Node000001_Node000002"><a xlink:title=" ">
<path fill="none" stroke="#63b8ff" d="M95.34,-348.41C120.92,-363.14 168.29,-390.41 201.95,-409.8"/>
<polygon fill="#63b8ff" stroke="#63b8ff" points="200.19,-412.82 210.61,-414.78 203.69,-406.76 200.19,-412.82"/>
</a>
</g>
</g>
<!-- Node3 -->
<g id="Node000003" class="node">
<title>Node3</title>
<g id="a_Node000003"><a xlink:href="../../d8/d92/classLSM1x0A__Controller.html#abb0eb380daa3dfb7acffb483c5db8e2b" target="_top" xlink:title="Executes the recovery protocol. First Soft&#45;Reset (ATZ), then Hard&#45;Reset if there is a pin.">
<polygon fill="white" stroke="#666666" points="436.5,-864.99 330.5,-864.99 330.5,-832.99 436.5,-832.99 436.5,-864.99"/>
<text text-anchor="start" x="338.5" y="-851.49" font-family="Helvetica,sans-Serif" font-size="10.00">LSM1x0A_Controller</text>
<text text-anchor="middle" x="383.5" y="-839.49" font-family="Helvetica,sans-Serif" font-size="10.00">::recoverModule</text>
</a>
</g>
</g>
<!-- Node2&#45;&gt;Node3 -->
<g id="edge2_Node000002_Node000003" class="edge">
<title>Node2&#45;&gt;Node3</title>
<g id="a_edge2_Node000002_Node000003"><a xlink:title=" ">
<path fill="none" stroke="#63b8ff" d="M246.54,-448.44C257.91,-493.97 291.84,-625.29 330.5,-730.99 342.25,-763.12 358.5,-798.93 369.69,-822.59"/>
<polygon fill="#63b8ff" stroke="#63b8ff" points="366.47,-823.97 373.94,-831.48 372.79,-820.95 366.47,-823.97"/>
</a>
</g>
</g>
<!-- Node30 -->
<g id="Node000030" class="node">
<title>Node30</title>
<g id="a_Node000030"><a xlink:href="../../d6/d3c/classLSM1x0A__AtParser.html#a29b53c521974387ba6c03afadfaffa4a" target="_top" xlink:title="Sends a simple command and waits for OK/ERROR. Example: sendCommand(&quot;AT+JOIN&quot;);.">
<polygon fill="white" stroke="#666666" points="851,-706.99 676.75,-706.99 676.75,-686.99 851,-686.99 851,-706.99"/>
<text text-anchor="middle" x="763.88" y="-693.49" font-family="Helvetica,sans-Serif" font-size="10.00">LSM1x0A_AtParser::sendCommand</text>
</a>
</g>
</g>
<!-- Node2&#45;&gt;Node30 -->
<g id="edge54_Node000002_Node000030" class="edge">
<title>Node2&#45;&gt;Node30</title>
<g id="a_edge54_Node000002_Node000030"><a xlink:title=" ">
<path fill="none" stroke="#63b8ff" d="M246.44,-448.44C255.46,-482.67 280.76,-562.11 330.5,-606.99 421.81,-689.38 568.43,-703.86 665.22,-703.18"/>
<polygon fill="#63b8ff" stroke="#63b8ff" points="665,-706.69 674.96,-703.06 664.91,-699.69 665,-706.69"/>
</a>
</g>
</g>
<!-- Node4 -->
<g id="Node000004" class="node">
<title>Node4</title>
<g id="a_Node000004"><a xlink:href="../../d8/d92/classLSM1x0A__Controller.html#a3f6f25b843fe4fb7042c544deae2ab16" target="_top" xlink:title="Manually clears bits from the internal EventGroup.">
<polygon fill="white" stroke="#666666" points="1044.75,-921.99 938.75,-921.99 938.75,-889.99 1044.75,-889.99 1044.75,-921.99"/>
<text text-anchor="start" x="946.75" y="-908.49" font-family="Helvetica,sans-Serif" font-size="10.00">LSM1x0A_Controller</text>
<text text-anchor="middle" x="991.75" y="-896.49" font-family="Helvetica,sans-Serif" font-size="10.00">::clearEvents</text>
</a>
</g>
</g>
<!-- Node3&#45;&gt;Node4 -->
<g id="edge3_Node000003_Node000004" class="edge">
<title>Node3&#45;&gt;Node4</title>
<g id="a_edge3_Node000003_Node000004"><a xlink:title=" ">
<path fill="none" stroke="#63b8ff" d="M435.26,-865.42C447.35,-868.77 460.29,-871.91 472.5,-873.99 634.52,-901.68 828.65,-906.16 926.96,-906.45"/>
<polygon fill="#63b8ff" stroke="#63b8ff" points="926.95,-909.95 936.95,-906.46 926.96,-902.95 926.95,-909.95"/>
</a>
</g>
</g>
<!-- Node5 -->
<g id="Node000005" class="node">
<title>Node5</title>
<g id="a_Node000005"><a xlink:href="../../d8/d92/classLSM1x0A__Controller.html#a345d4bd79fa16b18dc33a4ca788fe5f7" target="_top" xlink:title="Performs a hardware reset using the reset pin.">
<polygon fill="white" stroke="#666666" points="604.75,-864.99 498.75,-864.99 498.75,-832.99 604.75,-832.99 604.75,-864.99"/>
<text text-anchor="start" x="506.75" y="-851.49" font-family="Helvetica,sans-Serif" font-size="10.00">LSM1x0A_Controller</text>
<text text-anchor="middle" x="551.75" y="-839.49" font-family="Helvetica,sans-Serif" font-size="10.00">::hardwareReset</text>
</a>
</g>
</g>
<!-- Node3&#45;&gt;Node5 -->
<g id="edge4_Node000003_Node000005" class="edge">
<title>Node3&#45;&gt;Node5</title>
<g id="a_edge4_Node000003_Node000005"><a xlink:title=" ">
<path fill="none" stroke="#63b8ff" d="M436.65,-848.99C452.66,-848.99 470.47,-848.99 487.16,-848.99"/>
<polygon fill="#63b8ff" stroke="#63b8ff" points="486.99,-852.49 496.99,-848.99 486.99,-845.49 486.99,-852.49"/>
</a>
</g>
</g>
<!-- Node7 -->
<g id="Node000007" class="node">
<title>Node7</title>
<g id="a_Node000007"><a xlink:href="../../d5/d72/classLSM1x0A__LoRaWAN.html#a1892801e37c8cd67d37c76108d6f7d49" target="_top" xlink:title="Validates if the device is currently Joined to the network. (Either confirmed by OTAA or statically a...">
<polygon fill="white" stroke="#666666" points="1275.25,-788.99 1122.75,-788.99 1122.75,-768.99 1275.25,-768.99 1275.25,-788.99"/>
<text text-anchor="middle" x="1199" y="-775.49" font-family="Helvetica,sans-Serif" font-size="10.00">LSM1x0A_LoRaWAN::isJoined</text>
</a>
</g>
</g>
<!-- Node3&#45;&gt;Node7 -->
<g id="edge6_Node000003_Node000007" class="edge">
<title>Node3&#45;&gt;Node7</title>
<g id="a_edge6_Node000003_Node000007"><a xlink:title=" ">
<path fill="none" stroke="#63b8ff" d="M435.26,-832.57C447.35,-829.22 460.29,-826.08 472.5,-823.99 700.72,-784.96 974.45,-778.76 1111.24,-778.38"/>
<polygon fill="#63b8ff" stroke="#63b8ff" points="1110.94,-781.88 1120.94,-778.37 1110.93,-774.88 1110.94,-781.88"/>
</a>
</g>
</g>
<!-- Node8 -->
<g id="Node000008" class="node">
<title>Node8</title>
<g id="a_Node000008"><a xlink:href="../../d5/d72/classLSM1x0A__LoRaWAN.html#a83e11c0e74ff9e0757db616ab1163424" target="_top" xlink:title="Attempts to recover a lost connection (re&#45;executes OTAA Join if dropped).">
<polygon fill="white" stroke="#666666" points="626.12,-1028.99 477.38,-1028.99 477.38,-996.99 626.12,-996.99 626.12,-1028.99"/>
<text text-anchor="start" x="485.38" y="-1015.49" font-family="Helvetica,sans-Serif" font-size="10.00">LSM1x0A_LoRaWAN::recover</text>
<text text-anchor="middle" x="551.75" y="-1003.49" font-family="Helvetica,sans-Serif" font-size="10.00">Connection</text>
</a>
</g>
</g>
<!-- Node3&#45;&gt;Node8 -->
<g id="edge7_Node000003_Node000008" class="edge">
<title>Node3&#45;&gt;Node8</title>
<g id="a_edge7_Node000003_Node000008"><a xlink:title=" ">
<path fill="none" stroke="#63b8ff" d="M391.2,-865.39C403.39,-893.29 431.75,-950.18 472.5,-982.99 476.37,-986.1 480.59,-988.92 485.01,-991.46"/>
<polygon fill="#63b8ff" stroke="#63b8ff" points="483.1,-994.41 493.59,-995.91 486.32,-988.2 483.1,-994.41"/>
</a>
</g>
</g>
<!-- Node12 -->
<g id="Node000012" class="node">
<title>Node12</title>
<g id="a_Node000012"><a xlink:href="../../d5/d72/classLSM1x0A__LoRaWAN.html#ae3be4ce59dfa200369733317df356e97" target="_top" xlink:title="Pushes the RAM&#45;cached variables back down into the hardware module. Restores the operational state af...">
<polygon fill="white" stroke="#666666" points="625,-384.99 478.5,-384.99 478.5,-352.99 625,-352.99 625,-384.99"/>
<text text-anchor="start" x="486.5" y="-371.49" font-family="Helvetica,sans-Serif" font-size="10.00">LSM1x0A_LoRaWAN::restore</text>
<text text-anchor="middle" x="551.75" y="-359.49" font-family="Helvetica,sans-Serif" font-size="10.00">Config</text>
</a>
</g>
</g>
<!-- Node3&#45;&gt;Node12 -->
<g id="edge16_Node000003_Node000012" class="edge">
<title>Node3&#45;&gt;Node12</title>
<g id="a_edge16_Node000003_Node000012"><a xlink:title=" ">
<path fill="none" stroke="#63b8ff" d="M390.13,-832.75C414.45,-762.53 510.67,-484.71 541.32,-396.22"/>
<polygon fill="#63b8ff" stroke="#63b8ff" points="544.58,-397.51 544.54,-386.91 537.96,-395.21 544.58,-397.51"/>
</a>
</g>
</g>
<!-- Node28 -->
<g id="Node000028" class="node">
<title>Node28</title>
<g id="a_Node000028"><a xlink:href="../../d5/d72/classLSM1x0A__LoRaWAN.html#ace4b04396f1de1f4a54f513f5f378db7" target="_top" xlink:title="Manually overrides the internal joined state tracker.">
<polygon fill="white" stroke="#666666" points="631,-940.99 472.5,-940.99 472.5,-920.99 631,-920.99 631,-940.99"/>
<text text-anchor="middle" x="551.75" y="-927.49" font-family="Helvetica,sans-Serif" font-size="10.00">LSM1x0A_LoRaWAN::setJoined</text>
</a>
</g>
</g>
<!-- Node3&#45;&gt;Node28 -->
<g id="edge49_Node000003_Node000028" class="edge">
<title>Node3&#45;&gt;Node28</title>
<g id="a_edge49_Node000003_Node000028"><a xlink:title=" ">
<path fill="none" stroke="#63b8ff" d="M405.54,-865.35C422.76,-878.11 448.17,-895.53 472.5,-906.99 480.54,-910.78 489.33,-914.15 498.02,-917.08"/>
<polygon fill="#63b8ff" stroke="#63b8ff" points="496.87,-920.39 507.46,-920.1 499,-913.72 496.87,-920.39"/>
</a>
</g>
</g>
<!-- Node29 -->
<g id="Node000029" class="node">
<title>Node29</title>
<g id="a_Node000029"><a xlink:href="../../d8/d92/classLSM1x0A__Controller.html#a11ad21cb5ca33ec51346764a23bd485e" target="_top" xlink:title="Performs a software reset (ATZ Command).">
<polygon fill="white" stroke="#666666" points="604.75,-776.99 498.75,-776.99 498.75,-744.99 604.75,-744.99 604.75,-776.99"/>
<text text-anchor="start" x="506.75" y="-763.49" font-family="Helvetica,sans-Serif" font-size="10.00">LSM1x0A_Controller</text>
<text text-anchor="middle" x="551.75" y="-751.49" font-family="Helvetica,sans-Serif" font-size="10.00">::softwareReset</text>
</a>
</g>
</g>
<!-- Node3&#45;&gt;Node29 -->
<g id="edge50_Node000003_Node000029" class="edge">
<title>Node3&#45;&gt;Node29</title>
<g id="a_edge50_Node000003_Node000029"><a xlink:title=" ">
<path fill="none" stroke="#63b8ff" d="M406.47,-832.57C423.8,-820.11 448.9,-803.11 472.5,-790.99 478.79,-787.76 485.5,-784.68 492.26,-781.81"/>
<polygon fill="#63b8ff" stroke="#63b8ff" points="493.53,-785.07 501.46,-778.04 490.88,-778.59 493.53,-785.07"/>
</a>
</g>
</g>
<!-- Node6 -->
<g id="Node000006" class="node">
<title>Node6</title>
<g id="a_Node000006"><a xlink:href="../../d6/d3c/classLSM1x0A__AtParser.html#ad2839120da13e56132b95019419be1e5" target="_top" xlink:title="Waits for an event (like BOOTALERT) without sending any command. Useful for hardware reset where the ...">
<polygon fill="white" stroke="#666666" points="834.12,-864.99 693.62,-864.99 693.62,-832.99 834.12,-832.99 834.12,-864.99"/>
<text text-anchor="start" x="701.62" y="-851.49" font-family="Helvetica,sans-Serif" font-size="10.00">LSM1x0A_AtParser::waitFor</text>
<text text-anchor="middle" x="763.88" y="-839.49" font-family="Helvetica,sans-Serif" font-size="10.00">Event</text>
</a>
</g>
</g>
<!-- Node5&#45;&gt;Node6 -->
<g id="edge5_Node000005_Node000006" class="edge">
<title>Node5&#45;&gt;Node6</title>
<g id="a_edge5_Node000005_Node000006"><a xlink:title=" ">
<path fill="none" stroke="#63b8ff" d="M605.23,-848.99C628.42,-848.99 656.22,-848.99 681.96,-848.99"/>
<polygon fill="#63b8ff" stroke="#63b8ff" points="681.72,-852.49 691.72,-848.99 681.72,-845.49 681.72,-852.49"/>
</a>
</g>
</g>
<!-- Node9 -->
<g id="Node000009" class="node">
<title>Node9</title>
<g id="a_Node000009"><a xlink:href="../../d5/d72/classLSM1x0A__LoRaWAN.html#a59f781f3cfd30c11cd3973bcb10a7baa" target="_top" xlink:title="Initiates a LoRaWAN Network Join procedure. This is a blocking function until the module fires an eve...">
<polygon fill="white" stroke="#666666" points="829.62,-978.99 698.12,-978.99 698.12,-958.99 829.62,-958.99 829.62,-978.99"/>
<text text-anchor="middle" x="763.88" y="-965.49" font-family="Helvetica,sans-Serif" font-size="10.00">LSM1x0A_LoRaWAN::join</text>
</a>
</g>
</g>
<!-- Node8&#45;&gt;Node9 -->
<g id="edge8_Node000008_Node000009" class="edge">
<title>Node8&#45;&gt;Node9</title>
<g id="a_edge8_Node000008_Node000009"><a xlink:title=" ">
<path fill="none" stroke="#63b8ff" d="M626.54,-997.54C651.13,-992.39 678.24,-986.72 701.76,-981.79"/>
<polygon fill="#63b8ff" stroke="#63b8ff" points="702.44,-985.22 711.51,-979.75 701.01,-978.37 702.44,-985.22"/>
</a>
</g>
</g>
<!-- Node9&#45;&gt;Node2 -->
<g id="edge11_Node000009_Node000002" class="edge">
<title>Node9&#45;&gt;Node2</title>
<g id="a_edge11_Node000009_Node000002"><a xlink:title=" ">
<path fill="none" stroke="#63b8ff" d="M748.78,-979.34C725.62,-995.63 677.42,-1026.58 631,-1037.99 562.59,-1054.81 536.57,-1067.27 472.5,-1037.99 384.81,-997.92 372.88,-960.59 330.5,-873.99 259.63,-729.16 245.83,-531.08 243.15,-459.34"/>
<polygon fill="#63b8ff" stroke="#63b8ff" points="246.66,-459.58 242.84,-449.7 239.66,-459.81 246.66,-459.58"/>
</a>
</g>
</g>
<!-- Node9&#45;&gt;Node3 -->
<g id="edge10_Node000009_Node000003" class="edge">
<title>Node9&#45;&gt;Node3</title>
<g id="a_edge10_Node000009_Node000003"><a xlink:title=" ">
<path fill="none" stroke="#63b8ff" d="M697.78,-978.48C636.4,-984.36 543.47,-985.13 472.5,-949.99 439.49,-933.65 413.64,-898.87 398.73,-874.72"/>
<polygon fill="#63b8ff" stroke="#63b8ff" points="401.91,-873.22 393.79,-866.41 395.89,-876.8 401.91,-873.22"/>
</a>
</g>
</g>
<!-- Node9&#45;&gt;Node4 -->
<g id="edge9_Node000009_Node000004" class="edge">
<title>Node9&#45;&gt;Node4</title>
<g id="a_edge9_Node000009_Node000004"><a xlink:title=" ">
<path fill="none" stroke="#63b8ff" d="M802.43,-958.52C836.37,-949.05 887.03,-934.92 927.26,-923.7"/>
<polygon fill="#63b8ff" stroke="#63b8ff" points="928.15,-927.08 936.85,-921.03 926.27,-920.34 928.15,-927.08"/>
</a>
</g>
</g>
<!-- Node10 -->
<g id="Node000010" class="node">
<title>Node10</title>
<g id="a_Node000010"><a xlink:href="../../d5/d72/classLSM1x0A__LoRaWAN.html#a3fdd1ac318a5ad2559323e5d57e36a5e" target="_top" xlink:title="Enables or disables specific sub&#45;bands for regions supporting Channel Masks (e.g.,...">
<polygon fill="white" stroke="#666666" points="1086.75,-763.99 896.75,-763.99 896.75,-743.99 1086.75,-743.99 1086.75,-763.99"/>
<text text-anchor="middle" x="991.75" y="-750.49" font-family="Helvetica,sans-Serif" font-size="10.00">LSM1x0A_LoRaWAN::setChannelMask</text>
</a>
</g>
</g>
<!-- Node9&#45;&gt;Node10 -->
<g id="edge12_Node000009_Node000010" class="edge">
<title>Node9&#45;&gt;Node10</title>
<g id="a_edge12_Node000009_Node000010"><a xlink:title=" ">
<path fill="none" stroke="#63b8ff" d="M775.77,-958.62C811.62,-924.49 926.26,-815.38 971.82,-772.01"/>
<polygon fill="#63b8ff" stroke="#63b8ff" points="974.04,-774.73 978.87,-765.3 969.21,-769.66 974.04,-774.73"/>
</a>
</g>
</g>
<!-- Node11 -->
<g id="Node000011" class="node">
<title>Node11</title>
<g id="a_Node000011"><a xlink:href="../../d8/d92/classLSM1x0A__Controller.html#a62476e30e50c7fe120aeb8df4b828675" target="_top" xlink:title="Synchronously/blockingly waits for an asynchronous event to occur. Useful for wrapping commands like ...">
<polygon fill="white" stroke="#666666" points="1044.75,-984.99 938.75,-984.99 938.75,-952.99 1044.75,-952.99 1044.75,-984.99"/>
<text text-anchor="start" x="946.75" y="-971.49" font-family="Helvetica,sans-Serif" font-size="10.00">LSM1x0A_Controller</text>
<text text-anchor="middle" x="991.75" y="-959.49" font-family="Helvetica,sans-Serif" font-size="10.00">::waitForEvent</text>
</a>
</g>
</g>
<!-- Node9&#45;&gt;Node11 -->
<g id="edge15_Node000009_Node000011" class="edge">
<title>Node9&#45;&gt;Node11</title>
<g id="a_edge15_Node000009_Node000011"><a xlink:title=" ">
<path fill="none" stroke="#63b8ff" d="M829.9,-968.99C860.41,-968.99 896.65,-968.99 926.99,-968.99"/>
<polygon fill="#63b8ff" stroke="#63b8ff" points="926.8,-972.49 936.8,-968.99 926.8,-965.49 926.8,-972.49"/>
</a>
</g>
</g>
<!-- Node10&#45;&gt;Node2 -->
<g id="edge14_Node000010_Node000002" class="edge">
<title>Node10&#45;&gt;Node2</title>
<g id="a_edge14_Node000010_Node000002"><a xlink:title=" ">
<path fill="none" stroke="#63b8ff" d="M896.54,-752.25C733.71,-747.21 409.48,-727.55 330.5,-650.99 275.41,-597.58 253.83,-505.12 246.21,-459.33"/>
<polygon fill="#63b8ff" stroke="#63b8ff" points="249.71,-459.07 244.72,-449.72 242.79,-460.14 249.71,-459.07"/>
</a>
</g>
</g>
<!-- Node10&#45;&gt;Node7 -->
<g id="edge13_Node000010_Node000007" class="edge">
<title>Node10&#45;&gt;Node7</title>
<g id="a_edge13_Node000010_Node000007"><a xlink:title=" ">
<path fill="none" stroke="#63b8ff" d="M1078.9,-764.49C1089.65,-765.8 1100.65,-767.13 1111.4,-768.44"/>
<polygon fill="#63b8ff" stroke="#63b8ff" points="1110.65,-771.88 1121,-769.61 1111.49,-764.93 1110.65,-771.88"/>
</a>
</g>
</g>
<!-- Node12&#45;&gt;Node1 -->
<g id="edge19_Node000012_Node000001" class="edge">
<title>Node12&#45;&gt;Node1</title>
<g id="a_edge19_Node000012_Node000001"><a xlink:title=" ">
<path fill="none" stroke="#63b8ff" d="M478.19,-364.24C393.7,-358.71 254.26,-349.58 164.09,-343.68"/>
<polygon fill="#63b8ff" stroke="#63b8ff" points="164.52,-340.2 154.31,-343.04 164.06,-347.18 164.52,-340.2"/>
</a>
</g>
</g>
<!-- Node12&#45;&gt;Node10 -->
<g id="edge20_Node000012_Node000010" class="edge">
<title>Node12&#45;&gt;Node10</title>
<g id="a_edge20_Node000012_Node000010"><a xlink:title=" ">
<path fill="none" stroke="#63b8ff" d="M625.38,-363.16C705.73,-358.44 828.21,-356.91 860.75,-387.99 914.73,-439.56 850.1,-663.71 896.75,-721.99 902.36,-729 909.57,-734.47 917.5,-738.76"/>
<polygon fill="#63b8ff" stroke="#63b8ff" points="915.94,-741.89 926.49,-742.93 918.89,-735.55 915.94,-741.89"/>
</a>
</g>
</g>
<!-- Node13 -->
<g id="Node000013" class="node">
<title>Node13</title>
<g id="a_Node000013"><a xlink:href="../../d5/d72/classLSM1x0A__LoRaWAN.html#af0baa3db4c7fab580d6b19a9e92472f6" target="_top" xlink:title="Enables or disables Adaptive Data Rate (ADR).">
<polygon fill="white" stroke="#666666" points="839.75,-542.99 688,-542.99 688,-522.99 839.75,-522.99 839.75,-542.99"/>
<text text-anchor="middle" x="763.88" y="-529.49" font-family="Helvetica,sans-Serif" font-size="10.00">LSM1x0A_LoRaWAN::setADR</text>
</a>
</g>
</g>
<!-- Node12&#45;&gt;Node13 -->
<g id="edge17_Node000012_Node000013" class="edge">
<title>Node12&#45;&gt;Node13</title>
<g id="a_edge17_Node000012_Node000013"><a xlink:title=" ">
<path fill="none" stroke="#63b8ff" d="M560.52,-385.15C576.1,-415.68 614.25,-481.69 667,-513.99 670.18,-515.94 673.53,-517.7 676.98,-519.28"/>
<polygon fill="#63b8ff" stroke="#63b8ff" points="675.63,-522.51 686.22,-522.95 678.22,-516 675.63,-522.51"/>
</a>
</g>
</g>
<!-- Node14 -->
<g id="Node000014" class="node">
<title>Node14</title>
<g id="a_Node000014"><a xlink:href="../../d5/d72/classLSM1x0A__LoRaWAN.html#a9d9285c43414337a0ccb3a6cd7ca06e6" target="_top" xlink:title="Configures the number of retries for Confirmed uplinks.">
<polygon fill="white" stroke="#666666" points="846.12,-504.99 681.62,-504.99 681.62,-472.99 846.12,-472.99 846.12,-504.99"/>
<text text-anchor="start" x="689.62" y="-491.49" font-family="Helvetica,sans-Serif" font-size="10.00">LSM1x0A_LoRaWAN::setConfirm</text>
<text text-anchor="middle" x="763.88" y="-479.49" font-family="Helvetica,sans-Serif" font-size="10.00">Retry</text>
</a>
</g>
</g>
<!-- Node12&#45;&gt;Node14 -->
<g id="edge21_Node000012_Node000014" class="edge">
<title>Node12&#45;&gt;Node14</title>
<g id="a_edge21_Node000012_Node000014"><a xlink:title=" ">
<path fill="none" stroke="#63b8ff" d="M567.76,-385.31C588.2,-406.55 626.84,-443.37 667,-463.99 670.04,-465.55 673.18,-467.02 676.4,-468.4"/>
<polygon fill="#63b8ff" stroke="#63b8ff" points="674.87,-471.56 685.46,-471.97 677.44,-465.05 674.87,-471.56"/>
</a>
</g>
</g>
<!-- Node15 -->
<g id="Node000015" class="node">
<title>Node15</title>
<g id="a_Node000015"><a xlink:href="../../d5/d72/classLSM1x0A__LoRaWAN.html#a56345ceeafa0b9059d6de4e69eddc82e" target="_top" xlink:title="Sets the Data Rate (DR) of the module.">
<polygon fill="white" stroke="#666666" points="849.88,-454.99 677.88,-454.99 677.88,-434.99 849.88,-434.99 849.88,-454.99"/>
<text text-anchor="middle" x="763.88" y="-441.49" font-family="Helvetica,sans-Serif" font-size="10.00">LSM1x0A_LoRaWAN::setDataRate</text>
</a>
</g>
</g>
<!-- Node12&#45;&gt;Node15 -->
<g id="edge23_Node000012_Node000015" class="edge">
<title>Node12&#45;&gt;Node15</title>
<g id="a_edge23_Node000012_Node000015"><a xlink:title=" ">
<path fill="none" stroke="#63b8ff" d="M580.48,-385.46C603.07,-398.23 636.16,-415.46 667,-425.99 673.43,-428.19 680.19,-430.16 687.02,-431.93"/>
<polygon fill="#63b8ff" stroke="#63b8ff" points="685.77,-435.23 696.32,-434.18 687.42,-428.42 685.77,-435.23"/>
</a>
</g>
</g>
<!-- Node16 -->
<g id="Node000016" class="node">
<title>Node16</title>
<g id="a_Node000016"><a xlink:href="../../d5/d72/classLSM1x0A__LoRaWAN.html#a8494083816ab885cb07fc3b08de029f4" target="_top" xlink:title="Sets the LoRaWAN Device Address (DevAddr) for ABP mode.">
<polygon fill="white" stroke="#666666" points="848,-416.99 679.75,-416.99 679.75,-396.99 848,-396.99 848,-416.99"/>
<text text-anchor="middle" x="763.88" y="-403.49" font-family="Helvetica,sans-Serif" font-size="10.00">LSM1x0A_LoRaWAN::setDevAddr</text>
</a>
</g>
</g>
<!-- Node12&#45;&gt;Node16 -->
<g id="edge25_Node000012_Node000016" class="edge">
<title>Node12&#45;&gt;Node16</title>
<g id="a_edge25_Node000012_Node000016"><a xlink:title=" ">
<path fill="none" stroke="#63b8ff" d="M625.36,-382.12C647.48,-386.12 671.73,-390.51 693.63,-394.47"/>
<polygon fill="#63b8ff" stroke="#63b8ff" points="692.88,-397.89 703.35,-396.23 694.13,-391 692.88,-397.89"/>
</a>
</g>
</g>
<!-- Node17 -->
<g id="Node000017" class="node">
<title>Node17</title>
<g id="a_Node000017"><a xlink:href="../../d5/d72/classLSM1x0A__LoRaWAN.html#ad320634e52d7ea907043cc50dd37c5b0" target="_top" xlink:title="Sets the LoRaWAN Device EUI (DevEUI).">
<polygon fill="white" stroke="#666666" points="846.5,-340.99 681.25,-340.99 681.25,-320.99 846.5,-320.99 846.5,-340.99"/>
<text text-anchor="middle" x="763.88" y="-327.49" font-family="Helvetica,sans-Serif" font-size="10.00">LSM1x0A_LoRaWAN::setDevEUI</text>
</a>
</g>
</g>
<!-- Node12&#45;&gt;Node17 -->
<g id="edge27_Node000012_Node000017" class="edge">
<title>Node12&#45;&gt;Node17</title>
<g id="a_edge27_Node000012_Node000017"><a xlink:title=" ">
<path fill="none" stroke="#63b8ff" d="M625.36,-355.86C647.48,-351.86 671.73,-347.48 693.63,-343.52"/>
<polygon fill="#63b8ff" stroke="#63b8ff" points="694.13,-346.98 703.35,-341.76 692.88,-340.09 694.13,-346.98"/>
</a>
</g>
</g>
<!-- Node18 -->
<g id="Node000018" class="node">
<title>Node18</title>
<g id="a_Node000018"><a xlink:href="../../d5/d72/classLSM1x0A__LoRaWAN.html#a031023b0d2dd5db3c51c2db6ae7801cc" target="_top" xlink:title="Enables or disables the Duty Cycle limitation (EU regions mostly).">
<polygon fill="white" stroke="#666666" points="839.38,-302.99 688.38,-302.99 688.38,-270.99 839.38,-270.99 839.38,-302.99"/>
<text text-anchor="start" x="696.38" y="-289.49" font-family="Helvetica,sans-Serif" font-size="10.00">LSM1x0A_LoRaWAN::setDuty</text>
<text text-anchor="middle" x="763.88" y="-277.49" font-family="Helvetica,sans-Serif" font-size="10.00">Cycle</text>
</a>
</g>
</g>
<!-- Node12&#45;&gt;Node18 -->
<g id="edge29_Node000012_Node000018" class="edge">
<title>Node12&#45;&gt;Node18</title>
<g id="a_edge29_Node000012_Node000018"><a xlink:title=" ">
<path fill="none" stroke="#63b8ff" d="M581.59,-352.5C604.25,-340.07 636.91,-323.28 667,-311.99 671.88,-310.16 676.94,-308.42 682.08,-306.76"/>
<polygon fill="#63b8ff" stroke="#63b8ff" points="682.73,-310.22 691.25,-303.93 680.67,-303.53 682.73,-310.22"/>
</a>
</g>
</g>
<!-- Node19 -->
<g id="Node000019" class="node">
<title>Node19</title>
<g id="a_Node000019"><a xlink:href="../../d5/d72/classLSM1x0A__LoRaWAN.html#a6b179d5825c49af0f391dfc539912f64" target="_top" xlink:title="Sets the delay for the Join1 receive window.">
<polygon fill="white" stroke="#666666" points="840.5,-252.99 687.25,-252.99 687.25,-220.99 840.5,-220.99 840.5,-252.99"/>
<text text-anchor="start" x="695.25" y="-239.49" font-family="Helvetica,sans-Serif" font-size="10.00">LSM1x0A_LoRaWAN::setJoin1</text>
<text text-anchor="middle" x="763.88" y="-227.49" font-family="Helvetica,sans-Serif" font-size="10.00">Delay</text>
</a>
</g>
</g>
<!-- Node12&#45;&gt;Node19 -->
<g id="edge31_Node000012_Node000019" class="edge">
<title>Node12&#45;&gt;Node19</title>
<g id="a_edge31_Node000012_Node000019"><a xlink:title=" ">
<path fill="none" stroke="#63b8ff" d="M565.65,-352.54C585.08,-328.91 624.16,-285.61 667,-261.99 670.06,-260.3 673.25,-258.72 676.51,-257.25"/>
<polygon fill="#63b8ff" stroke="#63b8ff" points="677.83,-260.49 685.76,-253.46 675.18,-254.01 677.83,-260.49"/>
</a>
</g>
</g>
<!-- Node20 -->
<g id="Node000020" class="node">
<title>Node20</title>
<g id="a_Node000020"><a xlink:href="../../d5/d72/classLSM1x0A__LoRaWAN.html#a4545d0caad41558cdb9bae8286b104d8" target="_top" xlink:title="Sets the delay for the Join2 receive window.">
<polygon fill="white" stroke="#666666" points="840.5,-202.99 687.25,-202.99 687.25,-170.99 840.5,-170.99 840.5,-202.99"/>
<text text-anchor="start" x="695.25" y="-189.49" font-family="Helvetica,sans-Serif" font-size="10.00">LSM1x0A_LoRaWAN::setJoin2</text>
<text text-anchor="middle" x="763.88" y="-177.49" font-family="Helvetica,sans-Serif" font-size="10.00">Delay</text>
</a>
</g>
</g>
<!-- Node12&#45;&gt;Node20 -->
<g id="edge33_Node000012_Node000020" class="edge">
<title>Node12&#45;&gt;Node20</title>
<g id="a_edge33_Node000012_Node000020"><a xlink:title=" ">
<path fill="none" stroke="#63b8ff" d="M559.87,-352.81C574.83,-320.73 612.69,-249.02 667,-211.99 670.06,-209.91 673.27,-208 676.61,-206.25"/>
<polygon fill="#63b8ff" stroke="#63b8ff" points="677.94,-209.49 685.53,-202.1 674.98,-203.14 677.94,-209.49"/>
</a>
</g>
</g>
<!-- Node21 -->
<g id="Node000021" class="node">
<title>Node21</title>
<g id="a_Node000021"><a xlink:href="../../d5/d72/classLSM1x0A__LoRaWAN.html#a06bd50723ec1eb7e144c9141b2ec86fc" target="_top" xlink:title="Sets the LoRaWAN Network ID (NetID).">
<polygon fill="white" stroke="#666666" points="844.25,-152.99 683.5,-152.99 683.5,-132.99 844.25,-132.99 844.25,-152.99"/>
<text text-anchor="middle" x="763.88" y="-139.49" font-family="Helvetica,sans-Serif" font-size="10.00">LSM1x0A_LoRaWAN::setNwkID</text>
</a>
</g>
</g>
<!-- Node12&#45;&gt;Node21 -->
<g id="edge35_Node000012_Node000021" class="edge">
<title>Node12&#45;&gt;Node21</title>
<g id="a_edge35_Node000012_Node000021"><a xlink:title=" ">
<path fill="none" stroke="#63b8ff" d="M556.68,-352.66C567.14,-313.01 599.56,-211.28 667,-161.99 669,-160.53 671.09,-159.17 673.25,-157.91"/>
<polygon fill="#63b8ff" stroke="#63b8ff" points="674.35,-161.27 681.73,-153.66 671.22,-155.01 674.35,-161.27"/>
</a>
</g>
</g>
<!-- Node22 -->
<g id="Node000022" class="node">
<title>Node22</title>
<g id="a_Node000022"><a xlink:href="../../d5/d72/classLSM1x0A__LoRaWAN.html#aa70ada64d28ecca216bb62268e502adf" target="_top" xlink:title="Sets the delay for the RX1 receive window.">
<polygon fill="white" stroke="#666666" points="850.62,-114.99 677.12,-114.99 677.12,-94.99 850.62,-94.99 850.62,-114.99"/>
<text text-anchor="middle" x="763.88" y="-101.49" font-family="Helvetica,sans-Serif" font-size="10.00">LSM1x0A_LoRaWAN::setRx1Delay</text>
</a>
</g>
</g>
<!-- Node12&#45;&gt;Node22 -->
<g id="edge37_Node000012_Node000022" class="edge">
<title>Node12&#45;&gt;Node22</title>
<g id="a_edge37_Node000012_Node000022"><a xlink:title=" ">
<path fill="none" stroke="#63b8ff" d="M555.19,-352.74C562.77,-308.32 590.18,-184.23 667,-123.99 668.34,-122.95 669.71,-121.95 671.13,-121.01"/>
<polygon fill="#63b8ff" stroke="#63b8ff" points="672.62,-124.18 679.62,-116.22 669.18,-118.08 672.62,-124.18"/>
</a>
</g>
</g>
<!-- Node23 -->
<g id="Node000023" class="node">
<title>Node23</title>
<g id="a_Node000023"><a xlink:href="../../d5/d72/classLSM1x0A__LoRaWAN.html#a2cf4eff0181b6107d082bccefa24217b" target="_top" xlink:title="Sets the Data Rate (DR) specifically for the RX2 window.">
<polygon fill="white" stroke="#666666" points="858.88,-76.99 668.88,-76.99 668.88,-56.99 858.88,-56.99 858.88,-76.99"/>
<text text-anchor="middle" x="763.88" y="-63.49" font-family="Helvetica,sans-Serif" font-size="10.00">LSM1x0A_LoRaWAN::setRx2DataRate</text>
</a>
</g>
</g>
<!-- Node12&#45;&gt;Node23 -->
<g id="edge39_Node000012_Node000023" class="edge">
<title>Node12&#45;&gt;Node23</title>
<g id="a_edge39_Node000012_Node000023"><a xlink:title=" ">
<path fill="none" stroke="#63b8ff" d="M554.08,-352.79C559,-304 580.67,-157.44 667,-85.99 668.14,-85.05 669.31,-84.15 670.52,-83.29"/>
<polygon fill="#63b8ff" stroke="#63b8ff" points="672.19,-86.37 678.97,-78.23 668.59,-80.36 672.19,-86.37"/>
</a>
</g>
</g>
<!-- Node24 -->
<g id="Node000024" class="node">
<title>Node24</title>
<g id="a_Node000024"><a xlink:href="../../d5/d72/classLSM1x0A__LoRaWAN.html#a42d2137b475b57e19d891a5f1ac93221" target="_top" xlink:title="Sets the delay for the RX2 receive window.">
<polygon fill="white" stroke="#666666" points="850.62,-38.99 677.12,-38.99 677.12,-18.99 850.62,-18.99 850.62,-38.99"/>
<text text-anchor="middle" x="763.88" y="-25.49" font-family="Helvetica,sans-Serif" font-size="10.00">LSM1x0A_LoRaWAN::setRx2Delay</text>
</a>
</g>
</g>
<!-- Node12&#45;&gt;Node24 -->
<g id="edge41_Node000012_Node000024" class="edge">
<title>Node12&#45;&gt;Node24</title>
<g id="a_edge41_Node000012_Node000024"><a xlink:title=" ">
<path fill="none" stroke="#63b8ff" d="M553.23,-352.59C555.72,-299.45 571.19,-130.72 667,-47.99 667.96,-47.16 668.95,-46.36 669.96,-45.59"/>
<polygon fill="#63b8ff" stroke="#63b8ff" points="671.77,-48.59 678.37,-40.3 668.04,-42.67 671.77,-48.59"/>
</a>
</g>
</g>
<!-- Node25 -->
<g id="Node000025" class="node">
<title>Node25</title>
<g id="a_Node000025"><a xlink:href="../../d5/d72/classLSM1x0A__LoRaWAN.html#a689f7dfda1dfeae11ea397c2ddf2ad37" target="_top" xlink:title="Sets the precise frequency for the RX2 window.">
<polygon fill="white" stroke="#666666" points="860.75,-668.99 667,-668.99 667,-648.99 860.75,-648.99 860.75,-668.99"/>
<text text-anchor="middle" x="763.88" y="-655.49" font-family="Helvetica,sans-Serif" font-size="10.00">LSM1x0A_LoRaWAN::setRx2Frequency</text>
</a>
</g>
</g>
<!-- Node12&#45;&gt;Node25 -->
<g id="edge43_Node000012_Node000025" class="edge">
<title>Node12&#45;&gt;Node25</title>
<g id="a_edge43_Node000012_Node000025"><a xlink:title=" ">
<path fill="none" stroke="#63b8ff" d="M554.4,-385.2C560.14,-432.63 583.68,-572.1 667,-639.99 668.32,-641.06 669.67,-642.08 671.07,-643.05"/>
<polygon fill="#63b8ff" stroke="#63b8ff" points="669.07,-645.93 679.48,-647.93 672.59,-639.88 669.07,-645.93"/>
</a>
</g>
</g>
<!-- Node26 -->
<g id="Node000026" class="node">
<title>Node26</title>
<g id="a_Node000026"><a xlink:href="../../d5/d72/classLSM1x0A__LoRaWAN.html#a1df10d7ae6bf45b537d28d3d5c4b88d7" target="_top" xlink:title="Sets the transmission power index.">
<polygon fill="white" stroke="#666666" points="848.38,-630.99 679.38,-630.99 679.38,-610.99 848.38,-610.99 848.38,-630.99"/>
<text text-anchor="middle" x="763.88" y="-617.49" font-family="Helvetica,sans-Serif" font-size="10.00">LSM1x0A_LoRaWAN::setTxPower</text>
</a>
</g>
</g>
<!-- Node12&#45;&gt;Node26 -->
<g id="edge45_Node000012_Node000026" class="edge">
<title>Node12&#45;&gt;Node26</title>
<g id="a_edge45_Node000012_Node000026"><a xlink:title=" ">
<path fill="none" stroke="#63b8ff" d="M555.64,-385.4C564.13,-428.46 593.24,-545.3 667,-601.99 668.53,-603.17 670.11,-604.27 671.73,-605.32"/>
<polygon fill="#63b8ff" stroke="#63b8ff" points="669.69,-608.19 680.15,-609.9 673.04,-602.04 669.69,-608.19"/>
</a>
</g>
</g>
<!-- Node27 -->
<g id="Node000027" class="node">
<title>Node27</title>
<g id="a_Node000027"><a xlink:href="../../d5/d72/classLSM1x0A__LoRaWAN.html#a059fd6a9356c4ecadd5a98294da5952d" target="_top" xlink:title="Configures the number of repetitions for Unconfirmed uplinks.">
<polygon fill="white" stroke="#666666" points="851.38,-592.99 676.38,-592.99 676.38,-560.99 851.38,-560.99 851.38,-592.99"/>
<text text-anchor="start" x="684.38" y="-579.49" font-family="Helvetica,sans-Serif" font-size="10.00">LSM1x0A_LoRaWAN::setUnconfirm</text>
<text text-anchor="middle" x="763.88" y="-567.49" font-family="Helvetica,sans-Serif" font-size="10.00">Retry</text>
</a>
</g>
</g>
<!-- Node12&#45;&gt;Node27 -->
<g id="edge47_Node000012_Node000027" class="edge">
<title>Node12&#45;&gt;Node27</title>
<g id="a_edge47_Node000012_Node000027"><a xlink:title=" ">
<path fill="none" stroke="#63b8ff" d="M558.19,-385.33C571.04,-421.32 606.79,-507.74 667,-551.99 668.39,-553.01 669.81,-553.99 671.27,-554.93"/>
<polygon fill="#63b8ff" stroke="#63b8ff" points="669.55,-557.98 679.99,-559.81 672.98,-551.87 669.55,-557.98"/>
</a>
</g>
</g>
<!-- Node13&#45;&gt;Node2 -->
<g id="edge18_Node000013_Node000002" class="edge">
<title>Node13&#45;&gt;Node2</title>
<g id="a_edge18_Node000013_Node000002"><a xlink:title=" ">
<path fill="none" stroke="#63b8ff" d="M687.8,-528.06C600.56,-520.97 452.93,-504.69 330.5,-469.99 315.32,-465.69 299.31,-459.36 285.17,-453.1"/>
<polygon fill="#63b8ff" stroke="#63b8ff" points="286.69,-449.94 276.14,-448.98 283.79,-456.31 286.69,-449.94"/>
</a>
</g>
</g>
<!-- Node14&#45;&gt;Node2 -->
<g id="edge22_Node000014_Node000002" class="edge">
<title>Node14&#45;&gt;Node2</title>
<g id="a_edge22_Node000014_Node000002"><a xlink:title=" ">
<path fill="none" stroke="#63b8ff" d="M681.27,-484.36C594.1,-478.78 452.05,-467.85 330.5,-449.99 322.54,-448.82 314.22,-447.4 306.01,-445.86"/>
<polygon fill="#63b8ff" stroke="#63b8ff" points="306.88,-442.46 296.4,-444 305.55,-449.34 306.88,-442.46"/>
</a>
</g>
</g>
<!-- Node15&#45;&gt;Node2 -->
<g id="edge24_Node000015_Node000002" class="edge">
<title>Node15&#45;&gt;Node2</title>
<g id="a_edge24_Node000015_Node000002"><a xlink:title=" ">
<path fill="none" stroke="#63b8ff" d="M677.64,-442.86C573.36,-440.26 399.24,-435.91 306.01,-433.58"/>
<polygon fill="#63b8ff" stroke="#63b8ff" points="306.38,-430.09 296.29,-433.34 306.2,-437.08 306.38,-430.09"/>
</a>
</g>
</g>
<!-- Node16&#45;&gt;Node2 -->
<g id="edge26_Node000016_Node000002" class="edge">
<title>Node16&#45;&gt;Node2</title>
<g id="a_edge26_Node000016_Node000002"><a xlink:title=" ">
<path fill="none" stroke="#63b8ff" d="M679.5,-411C575.47,-416 399.89,-424.43 306.08,-428.94"/>
<polygon fill="#63b8ff" stroke="#63b8ff" points="306.11,-425.43 296.29,-429.41 306.45,-432.42 306.11,-425.43"/>
</a>
</g>
</g>
<!-- Node17&#45;&gt;Node2 -->
<g id="edge28_Node000017_Node000002" class="edge">
<title>Node17&#45;&gt;Node2</title>
<g id="a_edge28_Node000017_Node000002"><a xlink:title=" ">
<path fill="none" stroke="#63b8ff" d="M680.96,-327.72C622.31,-327.06 541.79,-329.58 472.5,-343.99 404.88,-358.06 331.01,-389.42 285.71,-410.64"/>
<polygon fill="#63b8ff" stroke="#63b8ff" points="284.29,-407.44 276.75,-414.89 287.28,-413.76 284.29,-407.44"/>
</a>
</g>
</g>
<!-- Node18&#45;&gt;Node2 -->
<g id="edge30_Node000018_Node000002" class="edge">
<title>Node18&#45;&gt;Node2</title>
<g id="a_edge30_Node000018_Node000002"><a xlink:title=" ">
<path fill="none" stroke="#63b8ff" d="M687.88,-283.7C598.13,-282.82 445.55,-291.24 330.5,-348.99 303.08,-362.76 278.3,-387.84 262.07,-406.84"/>
<polygon fill="#63b8ff" stroke="#63b8ff" points="259.46,-404.51 255.78,-414.44 264.86,-408.97 259.46,-404.51"/>
</a>
</g>
</g>
<!-- Node19&#45;&gt;Node2 -->
<g id="edge32_Node000019_Node000002" class="edge">
<title>Node19&#45;&gt;Node2</title>
<g id="a_edge32_Node000019_Node000002"><a xlink:title=" ">
<path fill="none" stroke="#63b8ff" d="M686.95,-231.82C595.24,-229.26 439.71,-237.11 330.5,-306.99 293.23,-330.84 267.19,-376.63 253.55,-405.68"/>
<polygon fill="#63b8ff" stroke="#63b8ff" points="250.48,-403.98 249.56,-414.53 256.86,-406.86 250.48,-403.98"/>
</a>
</g>
</g>
<!-- Node20&#45;&gt;Node2 -->
<g id="edge34_Node000020_Node000002" class="edge">
<title>Node20&#45;&gt;Node2</title>
<g id="a_edge34_Node000020_Node000002"><a xlink:title=" ">
<path fill="none" stroke="#63b8ff" d="M686.87,-179.13C593.29,-173.62 434.08,-178.37 330.5,-257.99 282.34,-295.01 258.46,-365.62 248.48,-404.55"/>
<polygon fill="#63b8ff" stroke="#63b8ff" points="245.13,-403.52 246.18,-414.06 251.93,-405.17 245.13,-403.52"/>
</a>
</g>
</g>
<!-- Node21&#45;&gt;Node2 -->
<g id="edge36_Node000021_Node000002" class="edge">
<title>Node21&#45;&gt;Node2</title>
<g id="a_edge36_Node000021_Node000002"><a xlink:title=" ">
<path fill="none" stroke="#63b8ff" d="M701.86,-132.54C610.12,-120.5 436.16,-112.47 330.5,-200.99 268.03,-253.33 249.82,-355.14 244.58,-404.22"/>
<polygon fill="#63b8ff" stroke="#63b8ff" points="241.11,-403.7 243.65,-413.99 248.08,-404.37 241.11,-403.7"/>
</a>
</g>
</g>
<!-- Node22&#45;&gt;Node2 -->
<g id="edge38_Node000022_Node000002" class="edge">
<title>Node22&#45;&gt;Node2</title>
<g id="a_edge38_Node000022_Node000002"><a xlink:title=" ">
<path fill="none" stroke="#63b8ff" d="M676.8,-101.06C565.65,-97.88 380.52,-99.61 330.5,-142.99 252.08,-211.01 242.32,-346.6 241.92,-404.62"/>
<polygon fill="#63b8ff" stroke="#63b8ff" points="238.42,-404.27 241.96,-414.26 245.42,-404.25 238.42,-404.27"/>
</a>
</g>
</g>
<!-- Node23&#45;&gt;Node2 -->
<g id="edge40_Node000023_Node000002" class="edge">
<title>Node23&#45;&gt;Node2</title>
<g id="a_edge40_Node000023_Node000002"><a xlink:title=" ">
<path fill="none" stroke="#63b8ff" d="M668.83,-63.35C557.22,-61.05 379.99,-64.43 330.5,-105.99 284.14,-144.93 255.3,-333.26 245.89,-404.56"/>
<polygon fill="#63b8ff" stroke="#63b8ff" points="242.46,-403.84 244.65,-414.21 249.4,-404.74 242.46,-403.84"/>
</a>
</g>
</g>
<!-- Node24&#45;&gt;Node2 -->
<g id="edge42_Node000024_Node000002" class="edge">
<title>Node24&#45;&gt;Node2</title>
<g id="a_edge42_Node000024_Node000002"><a xlink:title=" ">
<path fill="none" stroke="#63b8ff" d="M720.53,-18.49C635.37,-0.12 442.02,27.36 330.5,-68.99 279.15,-113.36 252.94,-327.83 245.09,-404.59"/>
<polygon fill="#63b8ff" stroke="#63b8ff" points="241.64,-403.88 244.14,-414.18 248.61,-404.57 241.64,-403.88"/>
</a>
</g>
</g>
<!-- Node25&#45;&gt;Node2 -->
<g id="edge44_Node000025_Node000002" class="edge">
<title>Node25&#45;&gt;Node2</title>
<g id="a_edge44_Node000025_Node000002"><a xlink:title=" ">
<path fill="none" stroke="#63b8ff" d="M666.51,-661.13C571.63,-658.35 427.26,-640.47 330.5,-564.99 293.95,-536.48 267.56,-488.37 253.68,-458.49"/>
<polygon fill="#63b8ff" stroke="#63b8ff" points="257.05,-457.45 249.76,-449.76 250.67,-460.32 257.05,-457.45"/>
</a>
</g>
</g>
<!-- Node26&#45;&gt;Node2 -->
<g id="edge46_Node000026_Node000002" class="edge">
<title>Node26&#45;&gt;Node2</title>
<g id="a_edge46_Node000026_Node000002"><a xlink:title=" ">
<path fill="none" stroke="#63b8ff" d="M678.97,-619.55C586.96,-614.39 438.12,-595.2 330.5,-527.99 301.4,-509.82 275.87,-479.46 259.91,-457.74"/>
<polygon fill="#63b8ff" stroke="#63b8ff" points="262.82,-455.78 254.16,-449.68 257.12,-459.85 262.82,-455.78"/>
</a>
</g>
</g>
<!-- Node27&#45;&gt;Node2 -->
<g id="edge48_Node000027_Node000002" class="edge">
<title>Node27&#45;&gt;Node2</title>
<g id="a_edge48_Node000027_Node000002"><a xlink:title=" ">
<path fill="none" stroke="#63b8ff" d="M676.11,-572.55C586.22,-565.29 443.37,-546.19 330.5,-495.99 307.93,-485.95 285.45,-469.47 268.86,-455.74"/>
<polygon fill="#63b8ff" stroke="#63b8ff" points="271.33,-453.25 261.44,-449.44 266.8,-458.58 271.33,-453.25"/>
</a>
</g>
</g>
<!-- Node29&#45;&gt;Node30 -->
<g id="edge51_Node000029_Node000030" class="edge">
<title>Node29&#45;&gt;Node30</title>
<g id="a_edge51_Node000029_Node000030"><a xlink:title=" ">
<path fill="none" stroke="#63b8ff" d="M605.23,-745.01C639.85,-734.46 684.73,-720.79 717.75,-710.74"/>
<polygon fill="#63b8ff" stroke="#63b8ff" points="718.47,-714.18 727.01,-707.92 716.43,-707.48 718.47,-714.18"/>
</a>
</g>
</g>
<!-- Node31 -->
<g id="Node000031" class="node">
<title>Node31</title>
<g id="a_Node000031"><a xlink:href="../../d6/d3c/classLSM1x0A__AtParser.html#a0ba6f927c54fceece22c17773d3f2600" target="_top" xlink:title="Sends a command and extracts a value from the response.">
<polygon fill="white" stroke="#666666" points="1078.88,-712.99 904.62,-712.99 904.62,-680.99 1078.88,-680.99 1078.88,-712.99"/>
<text text-anchor="start" x="912.62" y="-699.49" font-family="Helvetica,sans-Serif" font-size="10.00">LSM1x0A_AtParser::sendCommand</text>
<text text-anchor="middle" x="991.75" y="-687.49" font-family="Helvetica,sans-Serif" font-size="10.00">WithResponse</text>
</a>
</g>
</g>
<!-- Node30&#45;&gt;Node31 -->
<g id="edge52_Node000030_Node000031" class="edge">
<title>Node30&#45;&gt;Node31</title>
<g id="a_edge52_Node000030_Node000031"><a xlink:title=" ">
<path fill="none" stroke="#63b8ff" d="M851.24,-696.99C864.99,-696.99 879.31,-696.99 893.3,-696.99"/>
<polygon fill="#63b8ff" stroke="#63b8ff" points="892.92,-700.49 902.92,-696.99 892.92,-693.49 892.92,-700.49"/>
</a>
</g>
</g>
<!-- Node32 -->
<g id="Node000032" class="node">
<title>Node32</title>
<g id="a_Node000032"><a xlink:href="../../d5/d8b/classUartDriver.html#a5d0f22e8867eebe99273078bb19bd23d" target="_top" xlink:title="Sends data through UART.">
<polygon fill="white" stroke="#666666" points="1253.5,-706.99 1144.5,-706.99 1144.5,-686.99 1253.5,-686.99 1253.5,-706.99"/>
<text text-anchor="middle" x="1199" y="-693.49" font-family="Helvetica,sans-Serif" font-size="10.00">UartDriver::sendData</text>
</a>
</g>
</g>
<!-- Node31&#45;&gt;Node32 -->
<g id="edge53_Node000031_Node000032" class="edge">
<title>Node31&#45;&gt;Node32</title>
<g id="a_edge53_Node000031_Node000032"><a xlink:title=" ">
<path fill="none" stroke="#63b8ff" d="M1079.2,-696.99C1097.09,-696.99 1115.66,-696.99 1132.64,-696.99"/>
<polygon fill="#63b8ff" stroke="#63b8ff" points="1132.61,-700.49 1142.61,-696.99 1132.61,-693.49 1132.61,-700.49"/>
</a>
</g>
</g>
</g>
</svg>

<g id="navigator" transform="translate(0 0)" fill="#404254">
  <rect fill="#f2f5e9" fill-opacity="0.5" stroke="#606060" stroke-width=".5" x="0" y="0" width="60" height="60"/>
  <use id="zoomplus" xlink:href="#zoomPlus" x="17" y="9" onmousedown="handleZoom(evt,'in')"/>
  <use id="zoomminus" xlink:href="#zoomMin" x="42" y="9" onmousedown="handleZoom(evt,'out')"/>
  <use id="reset" xlink:href="#resetDef" x="30" y="36" onmousedown="handleReset()"/>
   <use id="arrowup" xlink:href="#arrowUp" x="0" y="0" onmousedown="handlePan(0,-1)"/>
  <use id="arrowright" xlink:href="#arrowRight" x="0" y="0" onmousedown="handlePan(1,0)"/>
  <use id="arrowdown" xlink:href="#arrowDown" x="0" y="0" onmousedown="handlePan(0,1)"/>
  <use id="arrowleft" xlink:href="#arrowLeft" x="0" y="0" onmousedown="handlePan(-1,0)"/>
</g>
<svg viewBox="0 0 15 15" width="100%" height="30px" preserveAspectRatio="xMaxYMin meet">
 <g id="arrow_out" transform="scale(0.3 0.3)">
  <a xlink:href="classLSM1x0A__LoRaWAN_a5365ed1596eb84ebf1e3b33b4a10c788_cgraph_org.svg" target="_base">
   <rect id="button" ry="5" rx="5" y="6" x="6" height="38" width="38"
        fill="#f2f5e9" fill-opacity="0.5" stroke="#606060" stroke-width="1.0"/>
   <path id="arrow"
     d="M 11.500037,31.436501 C 11.940474,20.09759 22.043105,11.32322 32.158766,21.979434 L 37.068811,17.246167 C 37.068811,17.246167 37.088388,32 37.088388,32 L 22.160133,31.978069 C 22.160133,31.978069 26.997745,27.140456 26.997745,27.140456 C 18.528582,18.264221 13.291696,25.230495 11.500037,31.436501 z"
     style="fill:#404040;"/>
  </a>
 </g>
</svg>

<style type='text/css'>
<![CDATA[
[data-mouse-over-selected='false'] { opacity: 0.7; }
[data-mouse-over-selected='true']  { opacity: 1.0; }
]]>
</style>
<script type="application/ecmascript"><![CDATA[
document.addEventListener('DOMContentLoaded', (event) => {
  highlightEdges();
  highlightAdjacentNodes();
});
]]></script>
</svg>
