<?xml version="1.0" encoding="UTF-8" standalone="no"?>
<!DOCTYPE svg PUBLIC "-//W3C//DTD SVG 1.1//EN"
 "http://www.w3.org/Graphics/SVG/1.1/DTD/svg11.dtd">
<!-- Generated by graphviz version 12.2.1 (20241206.2353)
 -->
<!-- Title: LSM1x0A_LoRaWAN::join Pages: 1 -->
<!--zoomable 1020 -->

<svg id="main" version="1.1" xmlns="http://www.w3.org/2000/svg" xmlns:xlink="http://www.w3.org/1999/xlink" xml:space="preserve" onload="init(evt)">
<style type="text/css"><![CDATA[
.node, .edge {opacity: 0.7;}
.node.selected, .edge.selected {opacity: 1;}
.edge:hover path { stroke: red; }
.edge:hover polygon { stroke: red; fill: red; }
]]></style>

<defs>
  <circle id="rim" cx="0" cy="0" r="7"/>
  <circle id="rim2" cx="0" cy="0" r="3.5"/>
  <g id="zoomPlus">
    <use xlink:href="#rim" fill="#404040"><set attributeName="fill" to="#808080" begin="zoomplus.mouseover" end="zoomplus.mouseout"/></use>
    <path d="M-4,0h8M0,-4v8" fill="none" stroke="white" stroke-width="1.5" pointer-events="none"/>
  </g>
  <g id="zoomMin">
    <use xlink:href="#rim" fill="#404040"><set attributeName="fill" to="#808080" begin="zoomminus.mouseover" end="zoomminus.mouseout"/></use>
    <path d="M-4,0h8" fill="none" stroke="white" stroke-width="1.5" pointer-events="none"/>
  </g>
  <g id="arrowUp" transform="translate(30 24)">
    <use xlink:href="#rim"/>
    <path pointer-events="none" fill="none" stroke="white" stroke-width="1.5" d="M0,-3.0v7 M-2.5,-0.5L0,-3.0L2.5,-0.5"/>
  </g>
  <g id="arrowRight" transform="rotate(90) translate(36 -43)">
    <use xlink:href="#rim"/>
    <path pointer-events="none" fill="none" stroke="white" stroke-width="1.5" d="M0,-3.0v7 M-2.5,-0.5L0,-3.0L2.5,-0.5"/>
  </g>
  <g id="arrowDown" transform="rotate(180) translate(-30 -48)">
    <use xlink:href="#rim"/>
    <path pointer-events="none" fill="none" stroke="white" stroke-width="1.5" d="M0,-3.0v7 M-2.5,-0.5L0,-3.0L2.5,-0.5"/>
  </g>
  <g id="arrowLeft" transform="rotate(270) translate(-36 17)">
    <use xlink:href="#rim"/>
    <path pointer-events="none" fill="none" stroke="white" stroke-width="1.5" d="M0,-3.0v7 M-2.5,-0.5L0,-3.0L2.5,-0.5"/>
  </g>
  <g id="resetDef">
    <use xlink:href="#rim2" fill="#404040"><set attributeName="fill" to="#808080" begin="reset.mouseover" end="reset.mouseout"/></use>
  </g>
</defs>
<script type="application/ecmascript">
var viewWidth = 1460;
var viewHeight = 1020;
var sectionId = 'dynsection-47';
</script>
<script type="application/ecmascript" xlink:href="../../svg.min.js"/>
<svg id="graph" class="graph">
<g id="viewport">
<title>LSM1x0A_LoRaWAN::join</title>
<!-- Node1 -->
<g id="Node000001" class="node">
<title>Node1</title>
<g id="a_Node000001"><a xlink:title="Initiates a LoRaWAN Network Join procedure. This is a blocking function until the module fires an eve...">
<polygon fill="#999999" stroke="#666666" points="131.5,-130.43 0,-130.43 0,-110.43 131.5,-110.43 131.5,-130.43"/>
<text text-anchor="middle" x="65.75" y="-116.93" font-family="Helvetica,sans-Serif" font-size="10.00">LSM1x0A_LoRaWAN::join</text>
</a>
</g>
</g>
<!-- Node2 -->
<g id="Node000002" class="node">
<title>Node2</title>
<g id="a_Node000002"><a xlink:href="../../d8/d92/classLSM1x0A__Controller.html#a3f6f25b843fe4fb7042c544deae2ab16" target="_top" xlink:title="Manually clears bits from the internal EventGroup.">
<polygon fill="white" stroke="#666666" points="441.75,-992.43 335.75,-992.43 335.75,-960.43 441.75,-960.43 441.75,-992.43"/>
<text text-anchor="start" x="343.75" y="-978.93" font-family="Helvetica,sans-Serif" font-size="10.00">LSM1x0A_Controller</text>
<text text-anchor="middle" x="388.75" y="-966.93" font-family="Helvetica,sans-Serif" font-size="10.00">::clearEvents</text>
</a>
</g>
</g>
<!-- Node1&#45;&gt;Node2 -->
<g id="edge1_Node000001_Node000002" class="edge">
<title>Node1&#45;&gt;Node2</title>
<g id="a_edge1_Node000001_Node000002"><a xlink:title=" ">
<path fill="none" stroke="#63b8ff" d="M66.58,-130.5C65.84,-205.99 70.79,-687.75 309.5,-946.43 314.05,-951.36 319.5,-955.49 325.38,-958.95"/>
<polygon fill="#63b8ff" stroke="#63b8ff" points="323.75,-962.04 334.25,-963.46 326.92,-955.8 323.75,-962.04"/>
</a>
</g>
</g>
<!-- Node3 -->
<g id="Node000003" class="node">
<title>Node3</title>
<g id="a_Node000003"><a xlink:href="../../d8/d92/classLSM1x0A__Controller.html#abb0eb380daa3dfb7acffb483c5db8e2b" target="_top" xlink:title="Executes the recovery protocol. First Soft&#45;Reset (ATZ), then Hard&#45;Reset if there is a pin.">
<polygon fill="white" stroke="#666666" points="273.5,-204.43 167.5,-204.43 167.5,-172.43 273.5,-172.43 273.5,-204.43"/>
<text text-anchor="start" x="175.5" y="-190.93" font-family="Helvetica,sans-Serif" font-size="10.00">LSM1x0A_Controller</text>
<text text-anchor="middle" x="220.5" y="-178.93" font-family="Helvetica,sans-Serif" font-size="10.00">::recoverModule</text>
</a>
</g>
</g>
<!-- Node1&#45;&gt;Node3 -->
<g id="edge2_Node000001_Node000003" class="edge">
<title>Node1&#45;&gt;Node3</title>
<g id="a_edge2_Node000001_Node000003"><a xlink:title=" ">
<path fill="none" stroke="#63b8ff" d="M90.28,-130.91C112,-140.58 144.91,-155.23 172.08,-167.32"/>
<polygon fill="#63b8ff" stroke="#63b8ff" points="170.61,-170.5 181.17,-171.37 173.46,-164.1 170.61,-170.5"/>
</a>
</g>
</g>
<!-- Node10 -->
<g id="Node000010" class="node">
<title>Node10</title>
<g id="a_Node000010"><a xlink:href="../../d8/d92/classLSM1x0A__Controller.html#afd7d92e60ed6fdae696a955cdbe0ed8c" target="_top" xlink:title="Sends any AT command to the module, returning error if it fails. Internally uses the LsmAtParser logi...">
<polygon fill="white" stroke="#666666" points="863,-639.43 757,-639.43 757,-607.43 863,-607.43 863,-639.43"/>
<text text-anchor="start" x="765" y="-625.93" font-family="Helvetica,sans-Serif" font-size="10.00">LSM1x0A_Controller</text>
<text text-anchor="middle" x="810" y="-613.93" font-family="Helvetica,sans-Serif" font-size="10.00">::sendCommand</text>
</a>
</g>
</g>
<!-- Node1&#45;&gt;Node10 -->
<g id="edge52_Node000001_Node000010" class="edge">
<title>Node1&#45;&gt;Node10</title>
<g id="a_edge52_Node000001_Node000010"><a xlink:title=" ">
<path fill="none" stroke="#63b8ff" d="M67.46,-130.72C72.9,-207.58 109.16,-692.83 167.5,-826.43 207.58,-918.22 219.07,-958.36 309.5,-1001.43 348.03,-1019.79 675.83,-1012.21 697.75,-995.43 753.9,-952.46 792.73,-730.12 804.92,-651.23"/>
<polygon fill="#63b8ff" stroke="#63b8ff" points="808.38,-651.76 806.42,-641.35 801.46,-650.71 808.38,-651.76"/>
</a>
</g>
</g>
<!-- Node15 -->
<g id="Node000015" class="node">
<title>Node15</title>
<g id="a_Node000015"><a xlink:href="../../d5/d72/classLSM1x0A__LoRaWAN.html#a3fdd1ac318a5ad2559323e5d57e36a5e" target="_top" xlink:title="Enables or disables specific sub&#45;bands for regions supporting Channel Masks (e.g.,...">
<polygon fill="white" stroke="#666666" points="695.88,-236.43 505.88,-236.43 505.88,-216.43 695.88,-216.43 695.88,-236.43"/>
<text text-anchor="middle" x="600.88" y="-222.93" font-family="Helvetica,sans-Serif" font-size="10.00">LSM1x0A_LoRaWAN::setChannelMask</text>
</a>
</g>
</g>
<!-- Node1&#45;&gt;Node15 -->
<g id="edge53_Node000001_Node000015" class="edge">
<title>Node1&#45;&gt;Node15</title>
<g id="a_edge53_Node000001_Node000015"><a xlink:title=" ">
<path fill="none" stroke="#63b8ff" d="M95.65,-110.01C163.68,-87.24 337.98,-39.25 468,-93.43 523.55,-116.58 567.71,-175.77 587.91,-206.79"/>
<polygon fill="#63b8ff" stroke="#63b8ff" points="584.71,-208.28 593.01,-214.86 590.63,-204.54 584.71,-208.28"/>
</a>
</g>
</g>
<!-- Node32 -->
<g id="Node000032" class="node">
<title>Node32</title>
<g id="a_Node000032"><a xlink:href="../../d8/d92/classLSM1x0A__Controller.html#a62476e30e50c7fe120aeb8df4b828675" target="_top" xlink:title="Synchronously/blockingly waits for an asynchronous event to occur. Useful for wrapping commands like ...">
<polygon fill="white" stroke="#666666" points="273.5,-57.43 167.5,-57.43 167.5,-25.43 273.5,-25.43 273.5,-57.43"/>
<text text-anchor="start" x="175.5" y="-43.93" font-family="Helvetica,sans-Serif" font-size="10.00">LSM1x0A_Controller</text>
<text text-anchor="middle" x="220.5" y="-31.93" font-family="Helvetica,sans-Serif" font-size="10.00">::waitForEvent</text>
</a>
</g>
</g>
<!-- Node1&#45;&gt;Node32 -->
<g id="edge54_Node000001_Node000032" class="edge">
<title>Node1&#45;&gt;Node32</title>
<g id="a_edge54_Node000001_Node000032"><a xlink:title=" ">
<path fill="none" stroke="#63b8ff" d="M87.03,-109.94C110.05,-98.04 148.2,-78.31 177.67,-63.07"/>
<polygon fill="#63b8ff" stroke="#63b8ff" points="179.07,-66.28 186.34,-58.58 175.85,-60.07 179.07,-66.28"/>
</a>
</g>
</g>
<!-- Node3&#45;&gt;Node2 -->
<g id="edge3_Node000003_Node000002" class="edge">
<title>Node3&#45;&gt;Node2</title>
<g id="a_edge3_Node000003_Node000002"><a xlink:title=" ">
<path fill="none" stroke="#63b8ff" d="M223.79,-204.88C231.39,-259.58 256.22,-440.47 273.5,-590.43 282.6,-669.42 261.21,-883.26 309.5,-946.43 313.79,-952.04 319.27,-956.61 325.33,-960.32"/>
<polygon fill="#63b8ff" stroke="#63b8ff" points="323.42,-963.27 333.91,-964.77 326.65,-957.06 323.42,-963.27"/>
</a>
</g>
</g>
<!-- Node4 -->
<g id="Node000004" class="node">
<title>Node4</title>
<g id="a_Node000004"><a xlink:href="../../d8/d92/classLSM1x0A__Controller.html#a345d4bd79fa16b18dc33a4ca788fe5f7" target="_top" xlink:title="Performs a hardware reset using the reset pin.">
<polygon fill="white" stroke="#666666" points="441.75,-267.43 335.75,-267.43 335.75,-235.43 441.75,-235.43 441.75,-267.43"/>
<text text-anchor="start" x="343.75" y="-253.93" font-family="Helvetica,sans-Serif" font-size="10.00">LSM1x0A_Controller</text>
<text text-anchor="middle" x="388.75" y="-241.93" font-family="Helvetica,sans-Serif" font-size="10.00">::hardwareReset</text>
</a>
</g>
</g>
<!-- Node3&#45;&gt;Node4 -->
<g id="edge4_Node000003_Node000004" class="edge">
<title>Node3&#45;&gt;Node4</title>
<g id="a_edge4_Node000003_Node000004"><a xlink:title=" ">
<path fill="none" stroke="#63b8ff" d="M264.75,-204.82C285.83,-212.81 311.4,-222.5 333.75,-230.97"/>
<polygon fill="#63b8ff" stroke="#63b8ff" points="332.43,-234.21 343.02,-234.48 334.91,-227.66 332.43,-234.21"/>
</a>
</g>
</g>
<!-- Node6 -->
<g id="Node000006" class="node">
<title>Node6</title>
<g id="a_Node000006"><a xlink:href="../../d5/d72/classLSM1x0A__LoRaWAN.html#a1892801e37c8cd67d37c76108d6f7d49" target="_top" xlink:title="Validates if the device is currently Joined to the network. (Either confirmed by OTAA or statically a...">
<polygon fill="white" stroke="#666666" points="886.25,-220.43 733.75,-220.43 733.75,-200.43 886.25,-200.43 886.25,-220.43"/>
<text text-anchor="middle" x="810" y="-206.93" font-family="Helvetica,sans-Serif" font-size="10.00">LSM1x0A_LoRaWAN::isJoined</text>
</a>
</g>
</g>
<!-- Node3&#45;&gt;Node6 -->
<g id="edge6_Node000003_Node000006" class="edge">
<title>Node3&#45;&gt;Node6</title>
<g id="a_edge6_Node000003_Node000006"><a xlink:title=" ">
<path fill="none" stroke="#63b8ff" d="M273.89,-190.39C375.08,-194.18 598.27,-202.54 722.05,-207.18"/>
<polygon fill="#63b8ff" stroke="#63b8ff" points="721.71,-210.67 731.83,-207.54 721.97,-203.67 721.71,-210.67"/>
</a>
</g>
</g>
<!-- Node7 -->
<g id="Node000007" class="node">
<title>Node7</title>
<g id="a_Node000007"><a xlink:href="../../d5/d72/classLSM1x0A__LoRaWAN.html#a83e11c0e74ff9e0757db616ab1163424" target="_top" xlink:title="Attempts to recover a lost connection (re&#45;executes OTAA Join if dropped).">
<polygon fill="white" stroke="#666666" points="463.12,-35.43 314.38,-35.43 314.38,-3.43 463.12,-3.43 463.12,-35.43"/>
<text text-anchor="start" x="322.38" y="-21.93" font-family="Helvetica,sans-Serif" font-size="10.00">LSM1x0A_LoRaWAN::recover</text>
<text text-anchor="middle" x="388.75" y="-9.93" font-family="Helvetica,sans-Serif" font-size="10.00">Connection</text>
</a>
</g>
</g>
<!-- Node3&#45;&gt;Node7 -->
<g id="edge7_Node000003_Node000007" class="edge">
<title>Node3&#45;&gt;Node7</title>
<g id="a_edge7_Node000003_Node000007"><a xlink:title=" ">
<path fill="none" stroke="#63b8ff" d="M236.13,-171.99C253.34,-152.8 282.93,-120.28 309.5,-93.43 326.48,-76.28 346.23,-57.6 361.64,-43.31"/>
<polygon fill="#63b8ff" stroke="#63b8ff" points="363.63,-46.24 368.6,-36.88 358.88,-41.1 363.63,-46.24"/>
</a>
</g>
</g>
<!-- Node8 -->
<g id="Node000008" class="node">
<title>Node8</title>
<g id="a_Node000008"><a xlink:href="../../d5/d72/classLSM1x0A__LoRaWAN.html#ae3be4ce59dfa200369733317df356e97" target="_top" xlink:title="Pushes the RAM&#45;cached variables back down into the hardware module. Restores the operational state af...">
<polygon fill="white" stroke="#666666" points="462,-601.43 315.5,-601.43 315.5,-569.43 462,-569.43 462,-601.43"/>
<text text-anchor="start" x="323.5" y="-587.93" font-family="Helvetica,sans-Serif" font-size="10.00">LSM1x0A_LoRaWAN::restore</text>
<text text-anchor="middle" x="388.75" y="-575.93" font-family="Helvetica,sans-Serif" font-size="10.00">Config</text>
</a>
</g>
</g>
<!-- Node3&#45;&gt;Node8 -->
<g id="edge9_Node000003_Node000008" class="edge">
<title>Node3&#45;&gt;Node8</title>
<g id="a_edge9_Node000003_Node000008"><a xlink:title=" ">
<path fill="none" stroke="#63b8ff" d="M228.22,-204.49C253.7,-265.34 344.51,-482.17 376.5,-558.56"/>
<polygon fill="#63b8ff" stroke="#63b8ff" points="373.27,-559.91 380.36,-567.78 379.72,-557.21 373.27,-559.91"/>
</a>
</g>
</g>
<!-- Node30 -->
<g id="Node000030" class="node">
<title>Node30</title>
<g id="a_Node000030"><a xlink:href="../../d5/d72/classLSM1x0A__LoRaWAN.html#ace4b04396f1de1f4a54f513f5f378db7" target="_top" xlink:title="Manually overrides the internal joined state tracker.">
<polygon fill="white" stroke="#666666" points="468,-122.43 309.5,-122.43 309.5,-102.43 468,-102.43 468,-122.43"/>
<text text-anchor="middle" x="388.75" y="-108.93" font-family="Helvetica,sans-Serif" font-size="10.00">LSM1x0A_LoRaWAN::setJoined</text>
</a>
</g>
</g>
<!-- Node3&#45;&gt;Node30 -->
<g id="edge49_Node000003_Node000030" class="edge">
<title>Node3&#45;&gt;Node30</title>
<g id="a_edge49_Node000003_Node000030"><a xlink:title=" ">
<path fill="none" stroke="#63b8ff" d="M245.7,-172.02C262.93,-160.87 286.93,-146.39 309.5,-136.43 318,-132.68 327.27,-129.28 336.35,-126.29"/>
<polygon fill="#63b8ff" stroke="#63b8ff" points="337.34,-129.65 345.84,-123.31 335.25,-122.97 337.34,-129.65"/>
</a>
</g>
</g>
<!-- Node31 -->
<g id="Node000031" class="node">
<title>Node31</title>
<g id="a_Node000031"><a xlink:href="../../d8/d92/classLSM1x0A__Controller.html#a11ad21cb5ca33ec51346764a23bd485e" target="_top" xlink:title="Performs a software reset (ATZ Command).">
<polygon fill="white" stroke="#666666" points="863,-174.43 757,-174.43 757,-142.43 863,-142.43 863,-174.43"/>
<text text-anchor="start" x="765" y="-160.93" font-family="Helvetica,sans-Serif" font-size="10.00">LSM1x0A_Controller</text>
<text text-anchor="middle" x="810" y="-148.93" font-family="Helvetica,sans-Serif" font-size="10.00">::softwareReset</text>
</a>
</g>
</g>
<!-- Node3&#45;&gt;Node31 -->
<g id="edge50_Node000003_Node000031" class="edge">
<title>Node3&#45;&gt;Node31</title>
<g id="a_edge50_Node000003_Node000031"><a xlink:title=" ">
<path fill="none" stroke="#63b8ff" d="M273.89,-185.76C381.81,-180.25 628.53,-167.65 745.39,-161.68"/>
<polygon fill="#63b8ff" stroke="#63b8ff" points="745.3,-165.19 755.11,-161.18 744.94,-158.2 745.3,-165.19"/>
</a>
</g>
</g>
<!-- Node5 -->
<g id="Node000005" class="node">
<title>Node5</title>
<g id="a_Node000005"><a xlink:href="../../d6/d3c/classLSM1x0A__AtParser.html#ad2839120da13e56132b95019419be1e5" target="_top" xlink:title="Waits for an event (like BOOTALERT) without sending any command. Useful for hardware reset where the ...">
<polygon fill="white" stroke="#666666" points="671.12,-286.43 530.62,-286.43 530.62,-254.43 671.12,-254.43 671.12,-286.43"/>
<text text-anchor="start" x="538.62" y="-272.93" font-family="Helvetica,sans-Serif" font-size="10.00">LSM1x0A_AtParser::waitFor</text>
<text text-anchor="middle" x="600.88" y="-260.93" font-family="Helvetica,sans-Serif" font-size="10.00">Event</text>
</a>
</g>
</g>
<!-- Node4&#45;&gt;Node5 -->
<g id="edge5_Node000004_Node000005" class="edge">
<title>Node4&#45;&gt;Node5</title>
<g id="a_edge5_Node000004_Node000005"><a xlink:title=" ">
<path fill="none" stroke="#63b8ff" d="M442.23,-256.18C465.42,-258.27 493.22,-260.79 518.96,-263.12"/>
<polygon fill="#63b8ff" stroke="#63b8ff" points="518.46,-266.58 528.73,-264 519.09,-259.61 518.46,-266.58"/>
</a>
</g>
</g>
<!-- Node7&#45;&gt;Node1 -->
<g id="edge8_Node000007_Node000001" class="edge">
<title>Node7&#45;&gt;Node1</title>
<g id="a_edge8_Node000007_Node000001"><a xlink:title=" ">
<path fill="none" stroke="#63b8ff" d="M313.98,-3.94C269.79,1.87 213.45,3.03 167.5,-16.43 127.19,-33.5 95.11,-75.47 78.71,-100.56"/>
<polygon fill="#63b8ff" stroke="#63b8ff" points="75.83,-98.55 73.47,-108.88 81.76,-102.28 75.83,-98.55"/>
</a>
</g>
</g>
<!-- Node9 -->
<g id="Node000009" class="node">
<title>Node9</title>
<g id="a_Node000009"><a xlink:href="../../d5/d72/classLSM1x0A__LoRaWAN.html#af0baa3db4c7fab580d6b19a9e92472f6" target="_top" xlink:title="Enables or disables Adaptive Data Rate (ADR).">
<polygon fill="white" stroke="#666666" points="676.75,-412.43 525,-412.43 525,-392.43 676.75,-392.43 676.75,-412.43"/>
<text text-anchor="middle" x="600.88" y="-398.93" font-family="Helvetica,sans-Serif" font-size="10.00">LSM1x0A_LoRaWAN::setADR</text>
</a>
</g>
</g>
<!-- Node8&#45;&gt;Node9 -->
<g id="edge10_Node000008_Node000009" class="edge">
<title>Node8&#45;&gt;Node9</title>
<g id="a_edge10_Node000008_Node000009"><a xlink:title=" ">
<path fill="none" stroke="#63b8ff" d="M396.15,-569.02C410.16,-535.4 446.93,-458.74 504,-421.43 507.3,-419.28 510.78,-417.36 514.4,-415.65"/>
<polygon fill="#63b8ff" stroke="#63b8ff" points="515.54,-418.96 523.47,-411.93 512.89,-412.48 515.54,-418.96"/>
</a>
</g>
</g>
<!-- Node14 -->
<g id="Node000014" class="node">
<title>Node14</title>
<g id="a_Node000014"><a xlink:href="../../d5/d72/classLSM1x0A__LoRaWAN.html#a5365ed1596eb84ebf1e3b33b4a10c788" target="_top" xlink:title="Sets the LoRaWAN operational frequency band.">
<polygon fill="white" stroke="#666666" points="677.12,-374.43 524.62,-374.43 524.62,-354.43 677.12,-354.43 677.12,-374.43"/>
<text text-anchor="middle" x="600.88" y="-360.93" font-family="Helvetica,sans-Serif" font-size="10.00">LSM1x0A_LoRaWAN::setBand</text>
</a>
</g>
</g>
<!-- Node8&#45;&gt;Node14 -->
<g id="edge16_Node000008_Node000014" class="edge">
<title>Node8&#45;&gt;Node14</title>
<g id="a_edge16_Node000008_Node000014"><a xlink:title=" ">
<path fill="none" stroke="#63b8ff" d="M393.89,-569.2C404.71,-530.29 437.71,-431.34 504,-383.43 507.19,-381.13 510.59,-379.08 514.14,-377.27"/>
<polygon fill="#63b8ff" stroke="#63b8ff" points="515.31,-380.58 523.07,-373.37 512.51,-374.16 515.31,-380.58"/>
</a>
</g>
</g>
<!-- Node8&#45;&gt;Node15 -->
<g id="edge18_Node000008_Node000015" class="edge">
<title>Node8&#45;&gt;Node15</title>
<g id="a_edge18_Node000008_Node000015"><a xlink:title=" ">
<path fill="none" stroke="#63b8ff" d="M389.86,-569.25C391.15,-514.4 403.21,-334.03 504,-245.43 504.96,-244.59 505.94,-243.78 506.94,-243.01"/>
<polygon fill="#63b8ff" stroke="#63b8ff" points="508.76,-246 515.31,-237.67 504.99,-240.1 508.76,-246"/>
</a>
</g>
</g>
<!-- Node16 -->
<g id="Node000016" class="node">
<title>Node16</title>
<g id="a_Node000016"><a xlink:href="../../d5/d72/classLSM1x0A__LoRaWAN.html#a9d9285c43414337a0ccb3a6cd7ca06e6" target="_top" xlink:title="Configures the number of retries for Confirmed uplinks.">
<polygon fill="white" stroke="#666666" points="683.12,-336.43 518.62,-336.43 518.62,-304.43 683.12,-304.43 683.12,-336.43"/>
<text text-anchor="start" x="526.62" y="-322.93" font-family="Helvetica,sans-Serif" font-size="10.00">LSM1x0A_LoRaWAN::setConfirm</text>
<text text-anchor="middle" x="600.88" y="-310.93" font-family="Helvetica,sans-Serif" font-size="10.00">Retry</text>
</a>
</g>
</g>
<!-- Node8&#45;&gt;Node16 -->
<g id="edge21_Node000008_Node000016" class="edge">
<title>Node8&#45;&gt;Node16</title>
<g id="a_edge21_Node000008_Node000016"><a xlink:title=" ">
<path fill="none" stroke="#63b8ff" d="M392.61,-569.11C401.12,-525.65 430.38,-406.29 504,-345.43 505.5,-344.19 507.06,-343.01 508.67,-341.88"/>
<polygon fill="#63b8ff" stroke="#63b8ff" points="510.27,-345 517.03,-336.84 506.66,-339.01 510.27,-345"/>
</a>
</g>
</g>
<!-- Node17 -->
<g id="Node000017" class="node">
<title>Node17</title>
<g id="a_Node000017"><a xlink:href="../../d5/d72/classLSM1x0A__LoRaWAN.html#a56345ceeafa0b9059d6de4e69eddc82e" target="_top" xlink:title="Sets the Data Rate (DR) of the module.">
<polygon fill="white" stroke="#666666" points="686.88,-954.43 514.88,-954.43 514.88,-934.43 686.88,-934.43 686.88,-954.43"/>
<text text-anchor="middle" x="600.88" y="-940.93" font-family="Helvetica,sans-Serif" font-size="10.00">LSM1x0A_LoRaWAN::setDataRate</text>
</a>
</g>
</g>
<!-- Node8&#45;&gt;Node17 -->
<g id="edge23_Node000008_Node000017" class="edge">
<title>Node8&#45;&gt;Node17</title>
<g id="a_edge23_Node000008_Node000017"><a xlink:title=" ">
<path fill="none" stroke="#63b8ff" d="M389.86,-601.62C391.15,-656.47 403.21,-836.83 504,-925.43 504.96,-926.27 505.94,-927.08 506.94,-927.85"/>
<polygon fill="#63b8ff" stroke="#63b8ff" points="504.99,-930.76 515.31,-933.2 508.76,-924.86 504.99,-930.76"/>
</a>
</g>
</g>
<!-- Node18 -->
<g id="Node000018" class="node">
<title>Node18</title>
<g id="a_Node000018"><a xlink:href="../../d5/d72/classLSM1x0A__LoRaWAN.html#a8494083816ab885cb07fc3b08de029f4" target="_top" xlink:title="Sets the LoRaWAN Device Address (DevAddr) for ABP mode.">
<polygon fill="white" stroke="#666666" points="685,-916.43 516.75,-916.43 516.75,-896.43 685,-896.43 685,-916.43"/>
<text text-anchor="middle" x="600.88" y="-902.93" font-family="Helvetica,sans-Serif" font-size="10.00">LSM1x0A_LoRaWAN::setDevAddr</text>
</a>
</g>
</g>
<!-- Node8&#45;&gt;Node18 -->
<g id="edge25_Node000008_Node000018" class="edge">
<title>Node8&#45;&gt;Node18</title>
<g id="a_edge25_Node000008_Node000018"><a xlink:title=" ">
<path fill="none" stroke="#63b8ff" d="M390.62,-601.6C394.29,-652.45 412.86,-810.29 504,-887.43 505.13,-888.39 506.29,-889.3 507.49,-890.17"/>
<polygon fill="#63b8ff" stroke="#63b8ff" points="505.53,-893.08 515.89,-895.29 509.17,-887.1 505.53,-893.08"/>
</a>
</g>
</g>
<!-- Node19 -->
<g id="Node000019" class="node">
<title>Node19</title>
<g id="a_Node000019"><a xlink:href="../../d5/d72/classLSM1x0A__LoRaWAN.html#ad320634e52d7ea907043cc50dd37c5b0" target="_top" xlink:title="Sets the LoRaWAN Device EUI (DevEUI).">
<polygon fill="white" stroke="#666666" points="683.5,-878.43 518.25,-878.43 518.25,-858.43 683.5,-858.43 683.5,-878.43"/>
<text text-anchor="middle" x="600.88" y="-864.93" font-family="Helvetica,sans-Serif" font-size="10.00">LSM1x0A_LoRaWAN::setDevEUI</text>
</a>
</g>
</g>
<!-- Node8&#45;&gt;Node19 -->
<g id="edge27_Node000008_Node000019" class="edge">
<title>Node8&#45;&gt;Node19</title>
<g id="a_edge27_Node000008_Node000019"><a xlink:title=" ">
<path fill="none" stroke="#63b8ff" d="M391.63,-601.89C397.91,-648.76 422.58,-783.72 504,-849.43 505.32,-850.5 506.68,-851.51 508.09,-852.47"/>
<polygon fill="#63b8ff" stroke="#63b8ff" points="506.1,-855.36 516.51,-857.32 509.6,-849.3 506.1,-855.36"/>
</a>
</g>
</g>
<!-- Node20 -->
<g id="Node000020" class="node">
<title>Node20</title>
<g id="a_Node000020"><a xlink:href="../../d5/d72/classLSM1x0A__LoRaWAN.html#a031023b0d2dd5db3c51c2db6ae7801cc" target="_top" xlink:title="Enables or disables the Duty Cycle limitation (EU regions mostly).">
<polygon fill="white" stroke="#666666" points="676.38,-840.43 525.38,-840.43 525.38,-808.43 676.38,-808.43 676.38,-840.43"/>
<text text-anchor="start" x="533.38" y="-826.93" font-family="Helvetica,sans-Serif" font-size="10.00">LSM1x0A_LoRaWAN::setDuty</text>
<text text-anchor="middle" x="600.88" y="-814.93" font-family="Helvetica,sans-Serif" font-size="10.00">Cycle</text>
</a>
</g>
</g>
<!-- Node8&#45;&gt;Node20 -->
<g id="edge29_Node000008_Node000020" class="edge">
<title>Node8&#45;&gt;Node20</title>
<g id="a_edge29_Node000008_Node000020"><a xlink:title=" ">
<path fill="none" stroke="#63b8ff" d="M393.63,-601.75C404.04,-641.93 436.54,-746.23 504,-799.43 507.47,-802.17 511.21,-804.61 515.13,-806.78"/>
<polygon fill="#63b8ff" stroke="#63b8ff" points="513.31,-809.79 523.84,-811 516.37,-803.49 513.31,-809.79"/>
</a>
</g>
</g>
<!-- Node21 -->
<g id="Node000021" class="node">
<title>Node21</title>
<g id="a_Node000021"><a xlink:href="../../d5/d72/classLSM1x0A__LoRaWAN.html#a6b179d5825c49af0f391dfc539912f64" target="_top" xlink:title="Sets the delay for the Join1 receive window.">
<polygon fill="white" stroke="#666666" points="677.5,-790.43 524.25,-790.43 524.25,-758.43 677.5,-758.43 677.5,-790.43"/>
<text text-anchor="start" x="532.25" y="-776.93" font-family="Helvetica,sans-Serif" font-size="10.00">LSM1x0A_LoRaWAN::setJoin1</text>
<text text-anchor="middle" x="600.88" y="-764.93" font-family="Helvetica,sans-Serif" font-size="10.00">Delay</text>
</a>
</g>
</g>
<!-- Node8&#45;&gt;Node21 -->
<g id="edge31_Node000008_Node000021" class="edge">
<title>Node8&#45;&gt;Node21</title>
<g id="a_edge31_Node000008_Node000021"><a xlink:title=" ">
<path fill="none" stroke="#63b8ff" d="M396.44,-601.83C410.87,-635.07 448.2,-710.54 504,-749.43 507.03,-751.55 510.23,-753.48 513.55,-755.25"/>
<polygon fill="#63b8ff" stroke="#63b8ff" points="511.9,-758.35 522.44,-759.45 514.89,-752.02 511.9,-758.35"/>
</a>
</g>
</g>
<!-- Node22 -->
<g id="Node000022" class="node">
<title>Node22</title>
<g id="a_Node000022"><a xlink:href="../../d5/d72/classLSM1x0A__LoRaWAN.html#a4545d0caad41558cdb9bae8286b104d8" target="_top" xlink:title="Sets the delay for the Join2 receive window.">
<polygon fill="white" stroke="#666666" points="677.5,-740.43 524.25,-740.43 524.25,-708.43 677.5,-708.43 677.5,-740.43"/>
<text text-anchor="start" x="532.25" y="-726.93" font-family="Helvetica,sans-Serif" font-size="10.00">LSM1x0A_LoRaWAN::setJoin2</text>
<text text-anchor="middle" x="600.88" y="-714.93" font-family="Helvetica,sans-Serif" font-size="10.00">Delay</text>
</a>
</g>
</g>
<!-- Node8&#45;&gt;Node22 -->
<g id="edge33_Node000008_Node000022" class="edge">
<title>Node8&#45;&gt;Node22</title>
<g id="a_edge33_Node000008_Node000022"><a xlink:title=" ">
<path fill="none" stroke="#63b8ff" d="M401.46,-601.74C420.24,-626.65 459.49,-673.97 504,-699.43 507.04,-701.17 510.2,-702.79 513.44,-704.3"/>
<polygon fill="#63b8ff" stroke="#63b8ff" points="512.07,-707.52 522.65,-708.16 514.78,-701.06 512.07,-707.52"/>
</a>
</g>
</g>
<!-- Node23 -->
<g id="Node000023" class="node">
<title>Node23</title>
<g id="a_Node000023"><a xlink:href="../../d5/d72/classLSM1x0A__LoRaWAN.html#a06bd50723ec1eb7e144c9141b2ec86fc" target="_top" xlink:title="Sets the LoRaWAN Network ID (NetID).">
<polygon fill="white" stroke="#666666" points="681.25,-690.43 520.5,-690.43 520.5,-670.43 681.25,-670.43 681.25,-690.43"/>
<text text-anchor="middle" x="600.88" y="-676.93" font-family="Helvetica,sans-Serif" font-size="10.00">LSM1x0A_LoRaWAN::setNwkID</text>
</a>
</g>
</g>
<!-- Node8&#45;&gt;Node23 -->
<g id="edge35_Node000008_Node000023" class="edge">
<title>Node8&#45;&gt;Node23</title>
<g id="a_edge35_Node000008_Node000023"><a xlink:title=" ">
<path fill="none" stroke="#63b8ff" d="M409.02,-601.73C430.71,-619.2 467.66,-646.44 504,-661.43 508.89,-663.45 514.01,-665.26 519.23,-666.88"/>
<polygon fill="#63b8ff" stroke="#63b8ff" points="518.02,-670.17 528.6,-669.53 519.93,-663.44 518.02,-670.17"/>
</a>
</g>
</g>
<!-- Node24 -->
<g id="Node000024" class="node">
<title>Node24</title>
<g id="a_Node000024"><a xlink:href="../../d5/d72/classLSM1x0A__LoRaWAN.html#aa70ada64d28ecca216bb62268e502adf" target="_top" xlink:title="Sets the delay for the RX1 receive window.">
<polygon fill="white" stroke="#666666" points="687.62,-652.43 514.12,-652.43 514.12,-632.43 687.62,-632.43 687.62,-652.43"/>
<text text-anchor="middle" x="600.88" y="-638.93" font-family="Helvetica,sans-Serif" font-size="10.00">LSM1x0A_LoRaWAN::setRx1Delay</text>
</a>
</g>
</g>
<!-- Node8&#45;&gt;Node24 -->
<g id="edge37_Node000008_Node000024" class="edge">
<title>Node8&#45;&gt;Node24</title>
<g id="a_edge37_Node000008_Node000024"><a xlink:title=" ">
<path fill="none" stroke="#63b8ff" d="M434.94,-601.92C455.79,-609.14 480.96,-617.34 504,-623.43 512.31,-625.63 521.08,-627.7 529.8,-629.6"/>
<polygon fill="#63b8ff" stroke="#63b8ff" points="528.8,-632.97 539.31,-631.62 530.25,-626.12 528.8,-632.97"/>
</a>
</g>
</g>
<!-- Node25 -->
<g id="Node000025" class="node">
<title>Node25</title>
<g id="a_Node000025"><a xlink:href="../../d5/d72/classLSM1x0A__LoRaWAN.html#a2cf4eff0181b6107d082bccefa24217b" target="_top" xlink:title="Sets the Data Rate (DR) specifically for the RX2 window.">
<polygon fill="white" stroke="#666666" points="695.88,-614.43 505.88,-614.43 505.88,-594.43 695.88,-594.43 695.88,-614.43"/>
<text text-anchor="middle" x="600.88" y="-600.93" font-family="Helvetica,sans-Serif" font-size="10.00">LSM1x0A_LoRaWAN::setRx2DataRate</text>
</a>
</g>
</g>
<!-- Node8&#45;&gt;Node25 -->
<g id="edge39_Node000008_Node000025" class="edge">
<title>Node8&#45;&gt;Node25</title>
<g id="a_edge39_Node000008_Node000025"><a xlink:title=" ">
<path fill="none" stroke="#63b8ff" d="M462.36,-592C472.66,-592.93 483.42,-593.9 494.19,-594.88"/>
<polygon fill="#63b8ff" stroke="#63b8ff" points="493.62,-598.34 503.89,-595.75 494.25,-591.37 493.62,-598.34"/>
</a>
</g>
</g>
<!-- Node26 -->
<g id="Node000026" class="node">
<title>Node26</title>
<g id="a_Node000026"><a xlink:href="../../d5/d72/classLSM1x0A__LoRaWAN.html#a42d2137b475b57e19d891a5f1ac93221" target="_top" xlink:title="Sets the delay for the RX2 receive window.">
<polygon fill="white" stroke="#666666" points="687.62,-576.43 514.12,-576.43 514.12,-556.43 687.62,-556.43 687.62,-576.43"/>
<text text-anchor="middle" x="600.88" y="-562.93" font-family="Helvetica,sans-Serif" font-size="10.00">LSM1x0A_LoRaWAN::setRx2Delay</text>
</a>
</g>
</g>
<!-- Node8&#45;&gt;Node26 -->
<g id="edge41_Node000008_Node000026" class="edge">
<title>Node8&#45;&gt;Node26</title>
<g id="a_edge41_Node000008_Node000026"><a xlink:title=" ">
<path fill="none" stroke="#63b8ff" d="M462.36,-578.87C475.33,-577.69 489.04,-576.45 502.57,-575.23"/>
<polygon fill="#63b8ff" stroke="#63b8ff" points="502.73,-578.73 512.37,-574.34 502.1,-571.76 502.73,-578.73"/>
</a>
</g>
</g>
<!-- Node27 -->
<g id="Node000027" class="node">
<title>Node27</title>
<g id="a_Node000027"><a xlink:href="../../d5/d72/classLSM1x0A__LoRaWAN.html#a689f7dfda1dfeae11ea397c2ddf2ad37" target="_top" xlink:title="Sets the precise frequency for the RX2 window.">
<polygon fill="white" stroke="#666666" points="697.75,-538.43 504,-538.43 504,-518.43 697.75,-518.43 697.75,-538.43"/>
<text text-anchor="middle" x="600.88" y="-524.93" font-family="Helvetica,sans-Serif" font-size="10.00">LSM1x0A_LoRaWAN::setRx2Frequency</text>
</a>
</g>
</g>
<!-- Node8&#45;&gt;Node27 -->
<g id="edge43_Node000008_Node000027" class="edge">
<title>Node8&#45;&gt;Node27</title>
<g id="a_edge43_Node000008_Node000027"><a xlink:title=" ">
<path fill="none" stroke="#63b8ff" d="M434.94,-568.95C455.79,-561.72 480.96,-553.52 504,-547.43 512.31,-545.24 521.08,-543.17 529.8,-541.26"/>
<polygon fill="#63b8ff" stroke="#63b8ff" points="530.25,-544.74 539.31,-539.24 528.8,-537.89 530.25,-544.74"/>
</a>
</g>
</g>
<!-- Node28 -->
<g id="Node000028" class="node">
<title>Node28</title>
<g id="a_Node000028"><a xlink:href="../../d5/d72/classLSM1x0A__LoRaWAN.html#a1df10d7ae6bf45b537d28d3d5c4b88d7" target="_top" xlink:title="Sets the transmission power index.">
<polygon fill="white" stroke="#666666" points="685.38,-500.43 516.38,-500.43 516.38,-480.43 685.38,-480.43 685.38,-500.43"/>
<text text-anchor="middle" x="600.88" y="-486.93" font-family="Helvetica,sans-Serif" font-size="10.00">LSM1x0A_LoRaWAN::setTxPower</text>
</a>
</g>
</g>
<!-- Node8&#45;&gt;Node28 -->
<g id="edge45_Node000008_Node000028" class="edge">
<title>Node8&#45;&gt;Node28</title>
<g id="a_edge45_Node000008_Node000028"><a xlink:title=" ">
<path fill="none" stroke="#63b8ff" d="M409.02,-569.13C430.71,-551.66 467.66,-524.42 504,-509.43 508.89,-507.41 514.01,-505.61 519.23,-503.99"/>
<polygon fill="#63b8ff" stroke="#63b8ff" points="519.93,-507.43 528.6,-501.33 518.02,-500.69 519.93,-507.43"/>
</a>
</g>
</g>
<!-- Node29 -->
<g id="Node000029" class="node">
<title>Node29</title>
<g id="a_Node000029"><a xlink:href="../../d5/d72/classLSM1x0A__LoRaWAN.html#a059fd6a9356c4ecadd5a98294da5952d" target="_top" xlink:title="Configures the number of repetitions for Unconfirmed uplinks.">
<polygon fill="white" stroke="#666666" points="688.38,-462.43 513.38,-462.43 513.38,-430.43 688.38,-430.43 688.38,-462.43"/>
<text text-anchor="start" x="521.38" y="-448.93" font-family="Helvetica,sans-Serif" font-size="10.00">LSM1x0A_LoRaWAN::setUnconfirm</text>
<text text-anchor="middle" x="600.88" y="-436.93" font-family="Helvetica,sans-Serif" font-size="10.00">Retry</text>
</a>
</g>
</g>
<!-- Node8&#45;&gt;Node29 -->
<g id="edge47_Node000008_Node000029" class="edge">
<title>Node8&#45;&gt;Node29</title>
<g id="a_edge47_Node000008_Node000029"><a xlink:title=" ">
<path fill="none" stroke="#63b8ff" d="M401.46,-569.12C420.24,-544.21 459.49,-496.9 504,-471.43 506.48,-470.01 509.05,-468.67 511.67,-467.4"/>
<polygon fill="#63b8ff" stroke="#63b8ff" points="512.9,-470.69 520.67,-463.49 510.1,-464.27 512.9,-470.69"/>
</a>
</g>
</g>
<!-- Node9&#45;&gt;Node10 -->
<g id="edge11_Node000009_Node000010" class="edge">
<title>Node9&#45;&gt;Node10</title>
<g id="a_edge11_Node000009_Node000010"><a xlink:title=" ">
<path fill="none" stroke="#63b8ff" d="M676.86,-410.51C684.32,-413.26 691.45,-416.82 697.75,-421.43 757.84,-465.38 789.33,-552.06 802.07,-596.21"/>
<polygon fill="#63b8ff" stroke="#63b8ff" points="798.67,-597.04 804.7,-605.75 805.41,-595.18 798.67,-597.04"/>
</a>
</g>
</g>
<!-- Node10&#45;&gt;Node3 -->
<g id="edge12_Node000010_Node000003" class="edge">
<title>Node10&#45;&gt;Node3</title>
<g id="a_edge12_Node000010_Node000003"><a xlink:title=" ">
<path fill="none" stroke="#63b8ff" d="M809.65,-639.58C810.91,-695.9 806.61,-884.51 697.75,-963.43 628.03,-1013.97 578.14,-1007.23 504,-963.43 229.21,-801.1 218.76,-334.05 220.66,-215.87"/>
<polygon fill="#63b8ff" stroke="#63b8ff" points="224.15,-216.24 220.87,-206.17 217.16,-216.09 224.15,-216.24"/>
</a>
</g>
</g>
<!-- Node11 -->
<g id="Node000011" class="node">
<title>Node11</title>
<g id="a_Node000011"><a xlink:href="../../d6/d3c/classLSM1x0A__AtParser.html#a29b53c521974387ba6c03afadfaffa4a" target="_top" xlink:title="Sends a simple command and waits for OK/ERROR. Example: sendCommand(&quot;AT+JOIN&quot;);.">
<polygon fill="white" stroke="#666666" points="1096.5,-387.43 922.25,-387.43 922.25,-367.43 1096.5,-367.43 1096.5,-387.43"/>
<text text-anchor="middle" x="1009.38" y="-373.93" font-family="Helvetica,sans-Serif" font-size="10.00">LSM1x0A_AtParser::sendCommand</text>
</a>
</g>
</g>
<!-- Node10&#45;&gt;Node11 -->
<g id="edge13_Node000010_Node000011" class="edge">
<title>Node10&#45;&gt;Node11</title>
<g id="a_edge13_Node000010_Node000011"><a xlink:title=" ">
<path fill="none" stroke="#63b8ff" d="M823.95,-607.29C858.94,-563.68 955.27,-443.62 992.96,-396.64"/>
<polygon fill="#63b8ff" stroke="#63b8ff" points="995.6,-398.95 999.13,-388.96 990.14,-394.57 995.6,-398.95"/>
</a>
</g>
</g>
<!-- Node12 -->
<g id="Node000012" class="node">
<title>Node12</title>
<g id="a_Node000012"><a xlink:href="../../d6/d3c/classLSM1x0A__AtParser.html#a0ba6f927c54fceece22c17773d3f2600" target="_top" xlink:title="Sends a command and extracts a value from the response.">
<polygon fill="white" stroke="#666666" points="1306.75,-393.43 1132.5,-393.43 1132.5,-361.43 1306.75,-361.43 1306.75,-393.43"/>
<text text-anchor="start" x="1140.5" y="-379.93" font-family="Helvetica,sans-Serif" font-size="10.00">LSM1x0A_AtParser::sendCommand</text>
<text text-anchor="middle" x="1219.62" y="-367.93" font-family="Helvetica,sans-Serif" font-size="10.00">WithResponse</text>
</a>
</g>
</g>
<!-- Node11&#45;&gt;Node12 -->
<g id="edge14_Node000011_Node000012" class="edge">
<title>Node11&#45;&gt;Node12</title>
<g id="a_edge14_Node000011_Node000012"><a xlink:title=" ">
<path fill="none" stroke="#63b8ff" d="M1096.88,-377.43C1104.78,-377.43 1112.82,-377.43 1120.81,-377.43"/>
<polygon fill="#63b8ff" stroke="#63b8ff" points="1120.54,-380.93 1130.54,-377.43 1120.54,-373.93 1120.54,-380.93"/>
</a>
</g>
</g>
<!-- Node13 -->
<g id="Node000013" class="node">
<title>Node13</title>
<g id="a_Node000013"><a xlink:href="../../d5/d8b/classUartDriver.html#a5d0f22e8867eebe99273078bb19bd23d" target="_top" xlink:title="Sends data through UART.">
<polygon fill="white" stroke="#666666" points="1451.75,-387.43 1342.75,-387.43 1342.75,-367.43 1451.75,-367.43 1451.75,-387.43"/>
<text text-anchor="middle" x="1397.25" y="-373.93" font-family="Helvetica,sans-Serif" font-size="10.00">UartDriver::sendData</text>
</a>
</g>
</g>
<!-- Node12&#45;&gt;Node13 -->
<g id="edge15_Node000012_Node000013" class="edge">
<title>Node12&#45;&gt;Node13</title>
<g id="a_edge15_Node000012_Node000013"><a xlink:title=" ">
<path fill="none" stroke="#63b8ff" d="M1307.15,-377.43C1315.3,-377.43 1323.45,-377.43 1331.35,-377.43"/>
<polygon fill="#63b8ff" stroke="#63b8ff" points="1331.18,-380.93 1341.18,-377.43 1331.18,-373.93 1331.18,-380.93"/>
</a>
</g>
</g>
<!-- Node14&#45;&gt;Node10 -->
<g id="edge17_Node000014_Node000010" class="edge">
<title>Node14&#45;&gt;Node10</title>
<g id="a_edge17_Node000014_Node000010"><a xlink:title=" ">
<path fill="none" stroke="#63b8ff" d="M677.19,-372.07C684.59,-374.9 691.61,-378.61 697.75,-383.43 766.96,-437.84 794.9,-545.34 804.57,-595.91"/>
<polygon fill="#63b8ff" stroke="#63b8ff" points="801.12,-596.48 806.33,-605.7 808.01,-595.24 801.12,-596.48"/>
</a>
</g>
</g>
<!-- Node15&#45;&gt;Node6 -->
<g id="edge19_Node000015_Node000006" class="edge">
<title>Node15&#45;&gt;Node6</title>
<g id="a_edge19_Node000015_Node000006"><a xlink:title=" ">
<path fill="none" stroke="#63b8ff" d="M696.35,-219.13C704.85,-218.48 713.45,-217.81 721.89,-217.16"/>
<polygon fill="#63b8ff" stroke="#63b8ff" points="722.07,-220.66 731.78,-216.4 721.54,-213.68 722.07,-220.66"/>
</a>
</g>
</g>
<!-- Node15&#45;&gt;Node10 -->
<g id="edge20_Node000015_Node000010" class="edge">
<title>Node15&#45;&gt;Node10</title>
<g id="a_edge20_Node000015_Node000010"><a xlink:title=" ">
<path fill="none" stroke="#63b8ff" d="M685.77,-236.93C690.08,-239.3 694.12,-242.11 697.75,-245.43 801.39,-340.09 810.36,-525.83 809.84,-595.85"/>
<polygon fill="#63b8ff" stroke="#63b8ff" points="806.34,-595.6 809.69,-605.65 813.34,-595.71 806.34,-595.6"/>
</a>
</g>
</g>
<!-- Node16&#45;&gt;Node10 -->
<g id="edge22_Node000016_Node000010" class="edge">
<title>Node16&#45;&gt;Node10</title>
<g id="a_edge22_Node000016_Node000010"><a xlink:title=" ">
<path fill="none" stroke="#63b8ff" d="M683.23,-335.5C688.45,-338.28 693.36,-341.56 697.75,-345.43 774.22,-412.85 798.82,-540.12 806.14,-595.98"/>
<polygon fill="#63b8ff" stroke="#63b8ff" points="802.62,-596.06 807.3,-605.56 809.57,-595.21 802.62,-596.06"/>
</a>
</g>
</g>
<!-- Node17&#45;&gt;Node10 -->
<g id="edge24_Node000017_Node000010" class="edge">
<title>Node17&#45;&gt;Node10</title>
<g id="a_edge24_Node000017_Node000010"><a xlink:title=" ">
<path fill="none" stroke="#63b8ff" d="M684.6,-934.12C689.31,-931.71 693.75,-928.85 697.75,-925.43 782.25,-853.28 802.6,-711 807.48,-651.07"/>
<polygon fill="#63b8ff" stroke="#63b8ff" points="810.97,-651.32 808.19,-641.1 803.98,-650.82 810.97,-651.32"/>
</a>
</g>
</g>
<!-- Node18&#45;&gt;Node10 -->
<g id="edge26_Node000018_Node000010" class="edge">
<title>Node18&#45;&gt;Node10</title>
<g id="a_edge26_Node000018_Node000010"><a xlink:title=" ">
<path fill="none" stroke="#63b8ff" d="M683.96,-896.13C688.89,-893.73 693.54,-890.86 697.75,-887.43 772.84,-826.23 798.07,-705.34 805.84,-651.01"/>
<polygon fill="#63b8ff" stroke="#63b8ff" points="809.27,-651.76 807.12,-641.38 802.33,-650.84 809.27,-651.76"/>
</a>
</g>
</g>
<!-- Node19&#45;&gt;Node10 -->
<g id="edge28_Node000019_Node000010" class="edge">
<title>Node19&#45;&gt;Node10</title>
<g id="a_edge28_Node000019_Node000010"><a xlink:title=" ">
<path fill="none" stroke="#63b8ff" d="M683.27,-858.06C688.42,-855.69 693.31,-852.84 697.75,-849.43 763.64,-798.87 792.99,-698.96 803.76,-650.74"/>
<polygon fill="#63b8ff" stroke="#63b8ff" points="807.14,-651.64 805.79,-641.13 800.3,-650.19 807.14,-651.64"/>
</a>
</g>
</g>
<!-- Node20&#45;&gt;Node10 -->
<g id="edge30_Node000020_Node000010" class="edge">
<title>Node20&#45;&gt;Node10</title>
<g id="a_edge30_Node000020_Node000010"><a xlink:title=" ">
<path fill="none" stroke="#63b8ff" d="M676.68,-810.99C684.17,-807.9 691.36,-804.1 697.75,-799.43 750.48,-760.9 784.19,-689.1 799.47,-650.17"/>
<polygon fill="#63b8ff" stroke="#63b8ff" points="802.64,-651.68 802.91,-641.09 796.09,-649.2 802.64,-651.68"/>
</a>
</g>
</g>
<!-- Node21&#45;&gt;Node10 -->
<g id="edge32_Node000021_Node000010" class="edge">
<title>Node21&#45;&gt;Node10</title>
<g id="a_edge32_Node000021_Node000010"><a xlink:title=" ">
<path fill="none" stroke="#63b8ff" d="M677.95,-759.16C684.88,-756.43 691.6,-753.22 697.75,-749.43 739.33,-723.86 774.07,-677.91 793.16,-649.13"/>
<polygon fill="#63b8ff" stroke="#63b8ff" points="795.93,-651.3 798.42,-641 790.05,-647.49 795.93,-651.3"/>
</a>
</g>
</g>
<!-- Node22&#45;&gt;Node10 -->
<g id="edge34_Node000022_Node000010" class="edge">
<title>Node22&#45;&gt;Node10</title>
<g id="a_edge34_Node000022_Node000010"><a xlink:title=" ">
<path fill="none" stroke="#63b8ff" d="M675.55,-708.01C683.17,-705.49 690.7,-702.64 697.75,-699.43 728.16,-685.59 759.28,-663.53 780.84,-646.73"/>
<polygon fill="#63b8ff" stroke="#63b8ff" points="782.9,-649.56 788.56,-640.61 778.55,-644.08 782.9,-649.56"/>
</a>
</g>
</g>
<!-- Node23&#45;&gt;Node10 -->
<g id="edge36_Node000023_Node000010" class="edge">
<title>Node23&#45;&gt;Node10</title>
<g id="a_edge36_Node000023_Node000010"><a xlink:title=" ">
<path fill="none" stroke="#63b8ff" d="M661.23,-669.95C673.38,-667.45 686.03,-664.58 697.75,-661.43 716.44,-656.41 736.55,-649.9 754.46,-643.68"/>
<polygon fill="#63b8ff" stroke="#63b8ff" points="755.59,-646.99 763.87,-640.37 753.27,-640.39 755.59,-646.99"/>
</a>
</g>
</g>
<!-- Node24&#45;&gt;Node10 -->
<g id="edge38_Node000024_Node000010" class="edge">
<title>Node24&#45;&gt;Node10</title>
<g id="a_edge38_Node000024_Node000010"><a xlink:title=" ">
<path fill="none" stroke="#63b8ff" d="M687.92,-634.54C707.15,-632.77 727.22,-630.93 745.36,-629.27"/>
<polygon fill="#63b8ff" stroke="#63b8ff" points="745.53,-632.77 755.17,-628.37 744.89,-625.8 745.53,-632.77"/>
</a>
</g>
</g>
<!-- Node25&#45;&gt;Node10 -->
<g id="edge40_Node000025_Node000010" class="edge">
<title>Node25&#45;&gt;Node10</title>
<g id="a_edge40_Node000025_Node000010"><a xlink:title=" ">
<path fill="none" stroke="#63b8ff" d="M696.35,-613.1C713,-614.63 729.97,-616.18 745.52,-617.61"/>
<polygon fill="#63b8ff" stroke="#63b8ff" points="744.78,-621.06 755.06,-618.48 745.42,-614.08 744.78,-621.06"/>
</a>
</g>
</g>
<!-- Node26&#45;&gt;Node10 -->
<g id="edge42_Node000026_Node000010" class="edge">
<title>Node26&#45;&gt;Node10</title>
<g id="a_edge42_Node000026_Node000010"><a xlink:title=" ">
<path fill="none" stroke="#63b8ff" d="M661.23,-576.91C673.38,-579.41 686.03,-582.28 697.75,-585.43 716.44,-590.45 736.55,-596.97 754.46,-603.18"/>
<polygon fill="#63b8ff" stroke="#63b8ff" points="753.27,-606.47 763.87,-606.49 755.59,-599.87 753.27,-606.47"/>
</a>
</g>
</g>
<!-- Node27&#45;&gt;Node10 -->
<g id="edge44_Node000027_Node000010" class="edge">
<title>Node27&#45;&gt;Node10</title>
<g id="a_edge44_Node000027_Node000010"><a xlink:title=" ">
<path fill="none" stroke="#63b8ff" d="M671.99,-538.89C680.83,-541.2 689.61,-544.02 697.75,-547.43 728.75,-560.45 760.01,-582.8 781.46,-599.91"/>
<polygon fill="#63b8ff" stroke="#63b8ff" points="779.17,-602.56 789.14,-606.16 783.59,-597.13 779.17,-602.56"/>
</a>
</g>
</g>
<!-- Node28&#45;&gt;Node10 -->
<g id="edge46_Node000028_Node000010" class="edge">
<title>Node28&#45;&gt;Node10</title>
<g id="a_edge46_Node000028_Node000010"><a xlink:title=" ">
<path fill="none" stroke="#63b8ff" d="M677.22,-500.78C684.37,-503.11 691.33,-505.96 697.75,-509.43 737.59,-531.02 772.01,-571.69 791.63,-598.16"/>
<polygon fill="#63b8ff" stroke="#63b8ff" points="788.59,-599.92 797.28,-605.98 794.26,-595.82 788.59,-599.92"/>
</a>
</g>
</g>
<!-- Node29&#45;&gt;Node10 -->
<g id="edge48_Node000029_Node000010" class="edge">
<title>Node29&#45;&gt;Node10</title>
<g id="a_edge48_Node000029_Node000010"><a xlink:title=" ">
<path fill="none" stroke="#63b8ff" d="M682.21,-462.81C687.67,-465.29 692.91,-468.14 697.75,-471.43 745.09,-503.61 779.71,-562.86 796.87,-597.1"/>
<polygon fill="#63b8ff" stroke="#63b8ff" points="793.63,-598.46 801.15,-605.92 799.93,-595.4 793.63,-598.46"/>
</a>
</g>
</g>
<!-- Node31&#45;&gt;Node11 -->
<g id="edge51_Node000031_Node000011" class="edge">
<title>Node31&#45;&gt;Node11</title>
<g id="a_edge51_Node000031_Node000011"><a xlink:title=" ">
<path fill="none" stroke="#63b8ff" d="M859.58,-174.8C869.02,-179.29 878.4,-184.8 886.25,-191.43 942.67,-239.11 982.94,-319.33 999.71,-356.89"/>
<polygon fill="#63b8ff" stroke="#63b8ff" points="996.35,-357.93 1003.55,-365.7 1002.77,-355.13 996.35,-357.93"/>
</a>
</g>
</g>
</g>
</svg>

<g id="navigator" transform="translate(0 0)" fill="#404254">
  <rect fill="#f2f5e9" fill-opacity="0.5" stroke="#606060" stroke-width=".5" x="0" y="0" width="60" height="60"/>
  <use id="zoomplus" xlink:href="#zoomPlus" x="17" y="9" onmousedown="handleZoom(evt,'in')"/>
  <use id="zoomminus" xlink:href="#zoomMin" x="42" y="9" onmousedown="handleZoom(evt,'out')"/>
  <use id="reset" xlink:href="#resetDef" x="30" y="36" onmousedown="handleReset()"/>
   <use id="arrowup" xlink:href="#arrowUp" x="0" y="0" onmousedown="handlePan(0,-1)"/>
  <use id="arrowright" xlink:href="#arrowRight" x="0" y="0" onmousedown="handlePan(1,0)"/>
  <use id="arrowdown" xlink:href="#arrowDown" x="0" y="0" onmousedown="handlePan(0,1)"/>
  <use id="arrowleft" xlink:href="#arrowLeft" x="0" y="0" onmousedown="handlePan(-1,0)"/>
</g>
<svg viewBox="0 0 15 15" width="100%" height="30px" preserveAspectRatio="xMaxYMin meet">
 <g id="arrow_out" transform="scale(0.3 0.3)">
  <a xlink:href="classLSM1x0A__LoRaWAN_a59f781f3cfd30c11cd3973bcb10a7baa_cgraph_org.svg" target="_base">
   <rect id="button" ry="5" rx="5" y="6" x="6" height="38" width="38"
        fill="#f2f5e9" fill-opacity="0.5" stroke="#606060" stroke-width="1.0"/>
   <path id="arrow"
     d="M 11.500037,31.436501 C 11.940474,20.09759 22.043105,11.32322 32.158766,21.979434 L 37.068811,17.246167 C 37.068811,17.246167 37.088388,32 37.088388,32 L 22.160133,31.978069 C 22.160133,31.978069 26.997745,27.140456 26.997745,27.140456 C 18.528582,18.264221 13.291696,25.230495 11.500037,31.436501 z"
     style="fill:#404040;"/>
  </a>
 </g>
</svg>

<style type='text/css'>
<![CDATA[
[data-mouse-over-selected='false'] { opacity: 0.7; }
[data-mouse-over-selected='true']  { opacity: 1.0; }
]]>
</style>
<script type="application/ecmascript"><![CDATA[
document.addEventListener('DOMContentLoaded', (event) => {
  highlightEdges();
  highlightAdjacentNodes();
});
]]></script>
</svg>
