<?xml version="1.0" encoding="UTF-8" standalone="no"?>
<!DOCTYPE svg PUBLIC "-//W3C//DTD SVG 1.1//EN"
 "http://www.w3.org/Graphics/SVG/1.1/DTD/svg11.dtd">
<!-- Generated by graphviz version 12.2.1 (20241206.2353)
 -->
<!-- Title: LSM1x0A_LoRaWAN::setRfTestConfig Pages: 1 -->
<!--zoomable 1143 -->

<svg id="main" version="1.1" xmlns="http://www.w3.org/2000/svg" xmlns:xlink="http://www.w3.org/1999/xlink" xml:space="preserve" onload="init(evt)">
<style type="text/css"><![CDATA[
.node, .edge {opacity: 0.7;}
.node.selected, .edge.selected {opacity: 1;}
.edge:hover path { stroke: red; }
.edge:hover polygon { stroke: red; fill: red; }
]]></style>

<defs>
  <circle id="rim" cx="0" cy="0" r="7"/>
  <circle id="rim2" cx="0" cy="0" r="3.5"/>
  <g id="zoomPlus">
    <use xlink:href="#rim" fill="#404040"><set attributeName="fill" to="#808080" begin="zoomplus.mouseover" end="zoomplus.mouseout"/></use>
    <path d="M-4,0h8M0,-4v8" fill="none" stroke="white" stroke-width="1.5" pointer-events="none"/>
  </g>
  <g id="zoomMin">
    <use xlink:href="#rim" fill="#404040"><set attributeName="fill" to="#808080" begin="zoomminus.mouseover" end="zoomminus.mouseout"/></use>
    <path d="M-4,0h8" fill="none" stroke="white" stroke-width="1.5" pointer-events="none"/>
  </g>
  <g id="arrowUp" transform="translate(30 24)">
    <use xlink:href="#rim"/>
    <path pointer-events="none" fill="none" stroke="white" stroke-width="1.5" d="M0,-3.0v7 M-2.5,-0.5L0,-3.0L2.5,-0.5"/>
  </g>
  <g id="arrowRight" transform="rotate(90) translate(36 -43)">
    <use xlink:href="#rim"/>
    <path pointer-events="none" fill="none" stroke="white" stroke-width="1.5" d="M0,-3.0v7 M-2.5,-0.5L0,-3.0L2.5,-0.5"/>
  </g>
  <g id="arrowDown" transform="rotate(180) translate(-30 -48)">
    <use xlink:href="#rim"/>
    <path pointer-events="none" fill="none" stroke="white" stroke-width="1.5" d="M0,-3.0v7 M-2.5,-0.5L0,-3.0L2.5,-0.5"/>
  </g>
  <g id="arrowLeft" transform="rotate(270) translate(-36 17)">
    <use xlink:href="#rim"/>
    <path pointer-events="none" fill="none" stroke="white" stroke-width="1.5" d="M0,-3.0v7 M-2.5,-0.5L0,-3.0L2.5,-0.5"/>
  </g>
  <g id="resetDef">
    <use xlink:href="#rim2" fill="#404040"><set attributeName="fill" to="#808080" begin="reset.mouseover" end="reset.mouseout"/></use>
  </g>
</defs>
<script type="application/ecmascript">
var viewWidth = 1290;
var viewHeight = 1143;
var sectionId = 'dynsection-98';
</script>
<script type="application/ecmascript" xlink:href="../../svg.min.js"/>
<svg id="graph" class="graph">
<g id="viewport">
<title>LSM1x0A_LoRaWAN::setRfTestConfig</title>
<!-- Node1 -->
<g id="Node000001" class="node">
<title>Node1</title>
<g id="a_Node000001"><a xlink:title="Configures fundamental parameters for RF testing.">
<polygon fill="#999999" stroke="#666666" points="159.25,-496.95 0,-496.95 0,-464.95 159.25,-464.95 159.25,-496.95"/>
<text text-anchor="start" x="8" y="-483.45" font-family="Helvetica,sans-Serif" font-size="10.00">LSM1x0A_LoRaWAN::setRfTest</text>
<text text-anchor="middle" x="79.62" y="-471.45" font-family="Helvetica,sans-Serif" font-size="10.00">Config</text>
</a>
</g>
</g>
<!-- Node2 -->
<g id="Node000002" class="node">
<title>Node2</title>
<g id="a_Node000002"><a xlink:href="../../d8/d92/classLSM1x0A__Controller.html#afd7d92e60ed6fdae696a955cdbe0ed8c" target="_top" xlink:title="Sends any AT command to the module, returning error if it fails. Internally uses the LsmAtParser logi...">
<polygon fill="white" stroke="#666666" points="301.25,-496.95 195.25,-496.95 195.25,-464.95 301.25,-464.95 301.25,-496.95"/>
<text text-anchor="start" x="203.25" y="-483.45" font-family="Helvetica,sans-Serif" font-size="10.00">LSM1x0A_Controller</text>
<text text-anchor="middle" x="248.25" y="-471.45" font-family="Helvetica,sans-Serif" font-size="10.00">::sendCommand</text>
</a>
</g>
</g>
<!-- Node1&#45;&gt;Node2 -->
<g id="edge1_Node000001_Node000002" class="edge">
<title>Node1&#45;&gt;Node2</title>
<g id="a_edge1_Node000001_Node000002"><a xlink:title=" ">
<path fill="none" stroke="#63b8ff" d="M159.55,-480.95C167.57,-480.95 175.65,-480.95 183.49,-480.95"/>
<polygon fill="#63b8ff" stroke="#63b8ff" points="183.24,-484.45 193.24,-480.95 183.24,-477.45 183.24,-484.45"/>
</a>
</g>
</g>
<!-- Node3 -->
<g id="Node000003" class="node">
<title>Node3</title>
<g id="a_Node000003"><a xlink:href="../../d8/d92/classLSM1x0A__Controller.html#abb0eb380daa3dfb7acffb483c5db8e2b" target="_top" xlink:title="Executes the recovery protocol. First Soft&#45;Reset (ATZ), then Hard&#45;Reset if there is a pin.">
<polygon fill="white" stroke="#666666" points="443.25,-938.95 337.25,-938.95 337.25,-906.95 443.25,-906.95 443.25,-938.95"/>
<text text-anchor="start" x="345.25" y="-925.45" font-family="Helvetica,sans-Serif" font-size="10.00">LSM1x0A_Controller</text>
<text text-anchor="middle" x="390.25" y="-913.45" font-family="Helvetica,sans-Serif" font-size="10.00">::recoverModule</text>
</a>
</g>
</g>
<!-- Node2&#45;&gt;Node3 -->
<g id="edge2_Node000002_Node000003" class="edge">
<title>Node2&#45;&gt;Node3</title>
<g id="a_edge2_Node000002_Node000003"><a xlink:title=" ">
<path fill="none" stroke="#63b8ff" d="M252.8,-497.39C263.36,-545.46 296.41,-689.56 337.25,-804.95 348.6,-837.01 364.79,-872.58 376.08,-896.2"/>
<polygon fill="#63b8ff" stroke="#63b8ff" points="372.88,-897.62 380.38,-905.1 379.18,-894.57 372.88,-897.62"/>
</a>
</g>
</g>
<!-- Node31 -->
<g id="Node000031" class="node">
<title>Node31</title>
<g id="a_Node000031"><a xlink:href="../../d6/d3c/classLSM1x0A__AtParser.html#a29b53c521974387ba6c03afadfaffa4a" target="_top" xlink:title="Sends a simple command and waits for OK/ERROR. Example: sendCommand(&quot;AT+JOIN&quot;);.">
<polygon fill="white" stroke="#666666" points="857.75,-1118.95 683.5,-1118.95 683.5,-1098.95 857.75,-1098.95 857.75,-1118.95"/>
<text text-anchor="middle" x="770.62" y="-1105.45" font-family="Helvetica,sans-Serif" font-size="10.00">LSM1x0A_AtParser::sendCommand</text>
</a>
</g>
</g>
<!-- Node2&#45;&gt;Node31 -->
<g id="edge55_Node000002_Node000031" class="edge">
<title>Node2&#45;&gt;Node31</title>
<g id="a_edge55_Node000002_Node000031"><a xlink:title=" ">
<path fill="none" stroke="#63b8ff" d="M249.31,-497.2C250.13,-559.15 258.67,-785.25 337.25,-947.95 379.18,-1034.77 391.56,-1071.88 479.25,-1111.95 557.01,-1147.48 659.16,-1134.62 719.27,-1121.89"/>
<polygon fill="#63b8ff" stroke="#63b8ff" points="719.86,-1125.34 728.87,-1119.77 718.35,-1118.51 719.86,-1125.34"/>
</a>
</g>
</g>
<!-- Node4 -->
<g id="Node000004" class="node">
<title>Node4</title>
<g id="a_Node000004"><a xlink:href="../../d8/d92/classLSM1x0A__Controller.html#a3f6f25b843fe4fb7042c544deae2ab16" target="_top" xlink:title="Manually clears bits from the internal EventGroup.">
<polygon fill="white" stroke="#666666" points="1051.5,-957.95 945.5,-957.95 945.5,-925.95 1051.5,-925.95 1051.5,-957.95"/>
<text text-anchor="start" x="953.5" y="-944.45" font-family="Helvetica,sans-Serif" font-size="10.00">LSM1x0A_Controller</text>
<text text-anchor="middle" x="998.5" y="-932.45" font-family="Helvetica,sans-Serif" font-size="10.00">::clearEvents</text>
</a>
</g>
</g>
<!-- Node3&#45;&gt;Node4 -->
<g id="edge3_Node000003_Node000004" class="edge">
<title>Node3&#45;&gt;Node4</title>
<g id="a_edge3_Node000003_Node000004"><a xlink:title=" ">
<path fill="none" stroke="#63b8ff" d="M407.33,-939.29C423.75,-954.72 450.81,-976.82 479.25,-985.95 638.82,-1037.18 839.41,-991 937.68,-961.72"/>
<polygon fill="#63b8ff" stroke="#63b8ff" points="938.57,-965.11 947.12,-958.86 936.54,-958.41 938.57,-965.11"/>
</a>
</g>
</g>
<!-- Node5 -->
<g id="Node000005" class="node">
<title>Node5</title>
<g id="a_Node000005"><a xlink:href="../../d8/d92/classLSM1x0A__Controller.html#a345d4bd79fa16b18dc33a4ca788fe5f7" target="_top" xlink:title="Performs a hardware reset using the reset pin.">
<polygon fill="white" stroke="#666666" points="611.5,-938.95 505.5,-938.95 505.5,-906.95 611.5,-906.95 611.5,-938.95"/>
<text text-anchor="start" x="513.5" y="-925.45" font-family="Helvetica,sans-Serif" font-size="10.00">LSM1x0A_Controller</text>
<text text-anchor="middle" x="558.5" y="-913.45" font-family="Helvetica,sans-Serif" font-size="10.00">::hardwareReset</text>
</a>
</g>
</g>
<!-- Node3&#45;&gt;Node5 -->
<g id="edge4_Node000003_Node000005" class="edge">
<title>Node3&#45;&gt;Node5</title>
<g id="a_edge4_Node000003_Node000005"><a xlink:title=" ">
<path fill="none" stroke="#63b8ff" d="M443.4,-922.95C459.41,-922.95 477.22,-922.95 493.91,-922.95"/>
<polygon fill="#63b8ff" stroke="#63b8ff" points="493.74,-926.45 503.74,-922.95 493.74,-919.45 493.74,-926.45"/>
</a>
</g>
</g>
<!-- Node7 -->
<g id="Node000007" class="node">
<title>Node7</title>
<g id="a_Node000007"><a xlink:href="../../d5/d72/classLSM1x0A__LoRaWAN.html#a1892801e37c8cd67d37c76108d6f7d49" target="_top" xlink:title="Validates if the device is currently Joined to the network. (Either confirmed by OTAA or statically a...">
<polygon fill="white" stroke="#666666" points="1282,-926.95 1129.5,-926.95 1129.5,-906.95 1282,-906.95 1282,-926.95"/>
<text text-anchor="middle" x="1205.75" y="-913.45" font-family="Helvetica,sans-Serif" font-size="10.00">LSM1x0A_LoRaWAN::isJoined</text>
</a>
</g>
</g>
<!-- Node3&#45;&gt;Node7 -->
<g id="edge6_Node000003_Node000007" class="edge">
<title>Node3&#45;&gt;Node7</title>
<g id="a_edge6_Node000003_Node000007"><a xlink:title=" ">
<path fill="none" stroke="#63b8ff" d="M437.19,-939.25C439.33,-940.7 441.36,-942.26 443.25,-943.95 468.42,-966.51 450.24,-993.6 479.25,-1010.95 489.95,-1017.34 805.41,-1014.94 867.5,-1008.95 969.19,-999.13 995.99,-997.44 1093.5,-966.95 1122.33,-957.93 1153.58,-943.44 1175.59,-932.37"/>
<polygon fill="#63b8ff" stroke="#63b8ff" points="1176.95,-935.61 1184.26,-927.94 1173.76,-929.38 1176.95,-935.61"/>
</a>
</g>
</g>
<!-- Node8 -->
<g id="Node000008" class="node">
<title>Node8</title>
<g id="a_Node000008"><a xlink:href="../../d5/d72/classLSM1x0A__LoRaWAN.html#a83e11c0e74ff9e0757db616ab1163424" target="_top" xlink:title="Attempts to recover a lost connection (re&#45;executes OTAA Join if dropped).">
<polygon fill="white" stroke="#666666" points="632.88,-850.95 484.12,-850.95 484.12,-818.95 632.88,-818.95 632.88,-850.95"/>
<text text-anchor="start" x="492.12" y="-837.45" font-family="Helvetica,sans-Serif" font-size="10.00">LSM1x0A_LoRaWAN::recover</text>
<text text-anchor="middle" x="558.5" y="-825.45" font-family="Helvetica,sans-Serif" font-size="10.00">Connection</text>
</a>
</g>
</g>
<!-- Node3&#45;&gt;Node8 -->
<g id="edge7_Node000003_Node000008" class="edge">
<title>Node3&#45;&gt;Node8</title>
<g id="a_edge7_Node000003_Node000008"><a xlink:title=" ">
<path fill="none" stroke="#63b8ff" d="M413.22,-906.53C430.55,-894.07 455.65,-877.07 479.25,-864.95 485.54,-861.72 492.25,-858.64 499.01,-855.76"/>
<polygon fill="#63b8ff" stroke="#63b8ff" points="500.28,-859.02 508.21,-851.99 497.63,-852.55 500.28,-859.02"/>
</a>
</g>
</g>
<!-- Node12 -->
<g id="Node000012" class="node">
<title>Node12</title>
<g id="a_Node000012"><a xlink:href="../../d5/d72/classLSM1x0A__LoRaWAN.html#ae3be4ce59dfa200369733317df356e97" target="_top" xlink:title="Pushes the RAM&#45;cached variables back down into the hardware module. Restores the operational state af...">
<polygon fill="white" stroke="#666666" points="631.75,-496.95 485.25,-496.95 485.25,-464.95 631.75,-464.95 631.75,-496.95"/>
<text text-anchor="start" x="493.25" y="-483.45" font-family="Helvetica,sans-Serif" font-size="10.00">LSM1x0A_LoRaWAN::restore</text>
<text text-anchor="middle" x="558.5" y="-471.45" font-family="Helvetica,sans-Serif" font-size="10.00">Config</text>
</a>
</g>
</g>
<!-- Node3&#45;&gt;Node12 -->
<g id="edge16_Node000003_Node000012" class="edge">
<title>Node3&#45;&gt;Node12</title>
<g id="a_edge16_Node000003_Node000012"><a xlink:title=" ">
<path fill="none" stroke="#63b8ff" d="M397.36,-906.69C422.26,-840.5 516.17,-590.84 547.36,-507.91"/>
<polygon fill="#63b8ff" stroke="#63b8ff" points="550.55,-509.36 550.8,-498.77 544,-506.9 550.55,-509.36"/>
</a>
</g>
</g>
<!-- Node29 -->
<g id="Node000029" class="node">
<title>Node29</title>
<g id="a_Node000029"><a xlink:href="../../d5/d72/classLSM1x0A__LoRaWAN.html#ace4b04396f1de1f4a54f513f5f378db7" target="_top" xlink:title="Manually overrides the internal joined state tracker.">
<polygon fill="white" stroke="#666666" points="637.75,-976.95 479.25,-976.95 479.25,-956.95 637.75,-956.95 637.75,-976.95"/>
<text text-anchor="middle" x="558.5" y="-963.45" font-family="Helvetica,sans-Serif" font-size="10.00">LSM1x0A_LoRaWAN::setJoined</text>
</a>
</g>
</g>
<!-- Node3&#45;&gt;Node29 -->
<g id="edge50_Node000003_Node000029" class="edge">
<title>Node3&#45;&gt;Node29</title>
<g id="a_edge50_Node000003_Node000029"><a xlink:title=" ">
<path fill="none" stroke="#63b8ff" d="M443.74,-938.22C455.41,-941.51 467.73,-944.91 479.25,-947.95 486.61,-949.89 494.37,-951.86 502.04,-953.76"/>
<polygon fill="#63b8ff" stroke="#63b8ff" points="501.13,-957.14 511.68,-956.13 502.8,-950.35 501.13,-957.14"/>
</a>
</g>
</g>
<!-- Node30 -->
<g id="Node000030" class="node">
<title>Node30</title>
<g id="a_Node000030"><a xlink:href="../../d8/d92/classLSM1x0A__Controller.html#a11ad21cb5ca33ec51346764a23bd485e" target="_top" xlink:title="Performs a software reset (ATZ Command).">
<polygon fill="white" stroke="#666666" points="611.5,-1102.95 505.5,-1102.95 505.5,-1070.95 611.5,-1070.95 611.5,-1102.95"/>
<text text-anchor="start" x="513.5" y="-1089.45" font-family="Helvetica,sans-Serif" font-size="10.00">LSM1x0A_Controller</text>
<text text-anchor="middle" x="558.5" y="-1077.45" font-family="Helvetica,sans-Serif" font-size="10.00">::softwareReset</text>
</a>
</g>
</g>
<!-- Node3&#45;&gt;Node30 -->
<g id="edge51_Node000003_Node000030" class="edge">
<title>Node3&#45;&gt;Node30</title>
<g id="a_edge51_Node000003_Node000030"><a xlink:title=" ">
<path fill="none" stroke="#63b8ff" d="M397.95,-939.34C410.14,-967.25 438.5,-1024.13 479.25,-1056.95 484.07,-1060.83 489.44,-1064.24 495.05,-1067.25"/>
<polygon fill="#63b8ff" stroke="#63b8ff" points="493.46,-1070.36 503.98,-1071.55 496.5,-1064.06 493.46,-1070.36"/>
</a>
</g>
</g>
<!-- Node6 -->
<g id="Node000006" class="node">
<title>Node6</title>
<g id="a_Node000006"><a xlink:href="../../d6/d3c/classLSM1x0A__AtParser.html#ad2839120da13e56132b95019419be1e5" target="_top" xlink:title="Waits for an event (like BOOTALERT) without sending any command. Useful for hardware reset where the ...">
<polygon fill="white" stroke="#666666" points="840.88,-938.95 700.38,-938.95 700.38,-906.95 840.88,-906.95 840.88,-938.95"/>
<text text-anchor="start" x="708.38" y="-925.45" font-family="Helvetica,sans-Serif" font-size="10.00">LSM1x0A_AtParser::waitFor</text>
<text text-anchor="middle" x="770.62" y="-913.45" font-family="Helvetica,sans-Serif" font-size="10.00">Event</text>
</a>
</g>
</g>
<!-- Node5&#45;&gt;Node6 -->
<g id="edge5_Node000005_Node000006" class="edge">
<title>Node5&#45;&gt;Node6</title>
<g id="a_edge5_Node000005_Node000006"><a xlink:title=" ">
<path fill="none" stroke="#63b8ff" d="M611.98,-922.95C635.17,-922.95 662.97,-922.95 688.71,-922.95"/>
<polygon fill="#63b8ff" stroke="#63b8ff" points="688.47,-926.45 698.47,-922.95 688.47,-919.45 688.47,-926.45"/>
</a>
</g>
</g>
<!-- Node9 -->
<g id="Node000009" class="node">
<title>Node9</title>
<g id="a_Node000009"><a xlink:href="../../d5/d72/classLSM1x0A__LoRaWAN.html#a59f781f3cfd30c11cd3973bcb10a7baa" target="_top" xlink:title="Initiates a LoRaWAN Network Join procedure. This is a blocking function until the module fires an eve...">
<polygon fill="white" stroke="#666666" points="836.38,-844.95 704.88,-844.95 704.88,-824.95 836.38,-824.95 836.38,-844.95"/>
<text text-anchor="middle" x="770.62" y="-831.45" font-family="Helvetica,sans-Serif" font-size="10.00">LSM1x0A_LoRaWAN::join</text>
</a>
</g>
</g>
<!-- Node8&#45;&gt;Node9 -->
<g id="edge8_Node000008_Node000009" class="edge">
<title>Node8&#45;&gt;Node9</title>
<g id="a_edge8_Node000008_Node000009"><a xlink:title=" ">
<path fill="none" stroke="#63b8ff" d="M633.29,-834.95C652.66,-834.95 673.6,-834.95 693.11,-834.95"/>
<polygon fill="#63b8ff" stroke="#63b8ff" points="692.9,-838.45 702.9,-834.95 692.9,-831.45 692.9,-838.45"/>
</a>
</g>
</g>
<!-- Node9&#45;&gt;Node2 -->
<g id="edge11_Node000009_Node000002" class="edge">
<title>Node9&#45;&gt;Node2</title>
<g id="a_edge11_Node000009_Node000002"><a xlink:title=" ">
<path fill="none" stroke="#63b8ff" d="M716.4,-824.5C657.77,-812.53 560.98,-791.38 479.25,-766.95 414.86,-747.69 384.98,-762.27 337.25,-714.95 278.98,-657.18 258.78,-557.13 252.2,-508.74"/>
<polygon fill="#63b8ff" stroke="#63b8ff" points="255.68,-508.33 250.97,-498.84 248.73,-509.2 255.68,-508.33"/>
</a>
</g>
</g>
<!-- Node9&#45;&gt;Node3 -->
<g id="edge10_Node000009_Node000003" class="edge">
<title>Node9&#45;&gt;Node3</title>
<g id="a_edge10_Node000009_Node000003"><a xlink:title=" ">
<path fill="none" stroke="#63b8ff" d="M716.4,-845.44C657.99,-857.21 561.57,-877.35 479.25,-897.95 471.31,-899.94 462.99,-902.14 454.78,-904.39"/>
<polygon fill="#63b8ff" stroke="#63b8ff" points="453.84,-901.01 445.15,-907.06 455.72,-907.76 453.84,-901.01"/>
</a>
</g>
</g>
<!-- Node9&#45;&gt;Node4 -->
<g id="edge9_Node000009_Node000004" class="edge">
<title>Node9&#45;&gt;Node4</title>
<g id="a_edge9_Node000009_Node000004"><a xlink:title=" ">
<path fill="none" stroke="#63b8ff" d="M793.69,-845.4C830.41,-862.79 904.73,-898 952.76,-920.75"/>
<polygon fill="#63b8ff" stroke="#63b8ff" points="950.97,-923.78 961.51,-924.9 953.97,-917.45 950.97,-923.78"/>
</a>
</g>
</g>
<!-- Node10 -->
<g id="Node000010" class="node">
<title>Node10</title>
<g id="a_Node000010"><a xlink:href="../../d5/d72/classLSM1x0A__LoRaWAN.html#a3fdd1ac318a5ad2559323e5d57e36a5e" target="_top" xlink:title="Enables or disables specific sub&#45;bands for regions supporting Channel Masks (e.g.,...">
<polygon fill="white" stroke="#666666" points="1093.5,-654.95 903.5,-654.95 903.5,-634.95 1093.5,-634.95 1093.5,-654.95"/>
<text text-anchor="middle" x="998.5" y="-641.45" font-family="Helvetica,sans-Serif" font-size="10.00">LSM1x0A_LoRaWAN::setChannelMask</text>
</a>
</g>
</g>
<!-- Node9&#45;&gt;Node10 -->
<g id="edge12_Node000009_Node000010" class="edge">
<title>Node9&#45;&gt;Node10</title>
<g id="a_edge12_Node000009_Node000010"><a xlink:title=" ">
<path fill="none" stroke="#63b8ff" d="M830.93,-824.45C843.65,-820.55 856.55,-815.22 867.5,-807.95 924.37,-770.19 968,-699.61 987.04,-665.05"/>
<polygon fill="#63b8ff" stroke="#63b8ff" points="989.97,-666.98 991.62,-656.52 983.8,-663.67 989.97,-666.98"/>
</a>
</g>
</g>
<!-- Node11 -->
<g id="Node000011" class="node">
<title>Node11</title>
<g id="a_Node000011"><a xlink:href="../../d8/d92/classLSM1x0A__Controller.html#a62476e30e50c7fe120aeb8df4b828675" target="_top" xlink:title="Synchronously/blockingly waits for an asynchronous event to occur. Useful for wrapping commands like ...">
<polygon fill="white" stroke="#666666" points="1051.5,-850.95 945.5,-850.95 945.5,-818.95 1051.5,-818.95 1051.5,-850.95"/>
<text text-anchor="start" x="953.5" y="-837.45" font-family="Helvetica,sans-Serif" font-size="10.00">LSM1x0A_Controller</text>
<text text-anchor="middle" x="998.5" y="-825.45" font-family="Helvetica,sans-Serif" font-size="10.00">::waitForEvent</text>
</a>
</g>
</g>
<!-- Node9&#45;&gt;Node11 -->
<g id="edge15_Node000009_Node000011" class="edge">
<title>Node9&#45;&gt;Node11</title>
<g id="a_edge15_Node000009_Node000011"><a xlink:title=" ">
<path fill="none" stroke="#63b8ff" d="M836.65,-834.95C867.16,-834.95 903.4,-834.95 933.74,-834.95"/>
<polygon fill="#63b8ff" stroke="#63b8ff" points="933.55,-838.45 943.55,-834.95 933.55,-831.45 933.55,-838.45"/>
</a>
</g>
</g>
<!-- Node10&#45;&gt;Node2 -->
<g id="edge14_Node000010_Node000002" class="edge">
<title>Node10&#45;&gt;Node2</title>
<g id="a_edge14_Node000010_Node000002"><a xlink:title=" ">
<path fill="none" stroke="#63b8ff" d="M996.72,-634.73C991.27,-566.01 956.35,-172.04 867.5,-101.95 682.34,44.11 518.4,29.06 337.25,-121.95 285.67,-164.95 259.61,-377.61 251.82,-453.76"/>
<polygon fill="#63b8ff" stroke="#63b8ff" points="248.38,-452.96 250.87,-463.26 255.34,-453.65 248.38,-452.96"/>
</a>
</g>
</g>
<!-- Node10&#45;&gt;Node7 -->
<g id="edge13_Node000010_Node000007" class="edge">
<title>Node10&#45;&gt;Node7</title>
<g id="a_edge13_Node000010_Node000007"><a xlink:title=" ">
<path fill="none" stroke="#63b8ff" d="M1007.3,-655.28C1037.84,-695.76 1149.67,-843.95 1190.07,-897.49"/>
<polygon fill="#63b8ff" stroke="#63b8ff" points="1187.22,-899.52 1196.04,-905.4 1192.81,-895.31 1187.22,-899.52"/>
</a>
</g>
</g>
<!-- Node12&#45;&gt;Node10 -->
<g id="edge21_Node000012_Node000010" class="edge">
<title>Node12&#45;&gt;Node10</title>
<g id="a_edge21_Node000012_Node000010"><a xlink:title=" ">
<path fill="none" stroke="#63b8ff" d="M631.99,-484.29C709.65,-488.81 827.18,-498.64 867.5,-517.95 919.43,-542.82 963.38,-596.76 984.34,-625.7"/>
<polygon fill="#63b8ff" stroke="#63b8ff" points="981.27,-627.41 989.9,-633.56 986.99,-623.37 981.27,-627.41"/>
</a>
</g>
</g>
<!-- Node13 -->
<g id="Node000013" class="node">
<title>Node13</title>
<g id="a_Node000013"><a xlink:href="../../d5/d72/classLSM1x0A__LoRaWAN.html#af0baa3db4c7fab580d6b19a9e92472f6" target="_top" xlink:title="Enables or disables Adaptive Data Rate (ADR).">
<polygon fill="white" stroke="#666666" points="846.5,-798.95 694.75,-798.95 694.75,-778.95 846.5,-778.95 846.5,-798.95"/>
<text text-anchor="middle" x="770.62" y="-785.45" font-family="Helvetica,sans-Serif" font-size="10.00">LSM1x0A_LoRaWAN::setADR</text>
</a>
</g>
</g>
<!-- Node12&#45;&gt;Node13 -->
<g id="edge17_Node000012_Node000013" class="edge">
<title>Node12&#45;&gt;Node13</title>
<g id="a_edge17_Node000012_Node000013"><a xlink:title=" ">
<path fill="none" stroke="#63b8ff" d="M560.68,-497.13C565.2,-546.58 585.9,-696.7 673.75,-769.95 677,-772.66 680.54,-775.03 684.26,-777.08"/>
<polygon fill="#63b8ff" stroke="#63b8ff" points="682.59,-780.17 693.13,-781.21 685.54,-773.82 682.59,-780.17"/>
</a>
</g>
</g>
<!-- Node14 -->
<g id="Node000014" class="node">
<title>Node14</title>
<g id="a_Node000014"><a xlink:href="../../d5/d72/classLSM1x0A__LoRaWAN.html#a5365ed1596eb84ebf1e3b33b4a10c788" target="_top" xlink:title="Sets the LoRaWAN operational frequency band.">
<polygon fill="white" stroke="#666666" points="846.88,-760.95 694.38,-760.95 694.38,-740.95 846.88,-740.95 846.88,-760.95"/>
<text text-anchor="middle" x="770.62" y="-747.45" font-family="Helvetica,sans-Serif" font-size="10.00">LSM1x0A_LoRaWAN::setBand</text>
</a>
</g>
</g>
<!-- Node12&#45;&gt;Node14 -->
<g id="edge19_Node000012_Node000014" class="edge">
<title>Node12&#45;&gt;Node14</title>
<g id="a_edge19_Node000012_Node000014"><a xlink:title=" ">
<path fill="none" stroke="#63b8ff" d="M561.76,-497.27C568.92,-542.46 595.48,-669.99 673.75,-731.95 676.91,-734.45 680.3,-736.64 683.86,-738.58"/>
<polygon fill="#63b8ff" stroke="#63b8ff" points="682.35,-741.74 692.9,-742.72 685.27,-735.37 682.35,-741.74"/>
</a>
</g>
</g>
<!-- Node15 -->
<g id="Node000015" class="node">
<title>Node15</title>
<g id="a_Node000015"><a xlink:href="../../d5/d72/classLSM1x0A__LoRaWAN.html#a9d9285c43414337a0ccb3a6cd7ca06e6" target="_top" xlink:title="Configures the number of retries for Confirmed uplinks.">
<polygon fill="white" stroke="#666666" points="852.88,-722.95 688.38,-722.95 688.38,-690.95 852.88,-690.95 852.88,-722.95"/>
<text text-anchor="start" x="696.38" y="-709.45" font-family="Helvetica,sans-Serif" font-size="10.00">LSM1x0A_LoRaWAN::setConfirm</text>
<text text-anchor="middle" x="770.62" y="-697.45" font-family="Helvetica,sans-Serif" font-size="10.00">Retry</text>
</a>
</g>
</g>
<!-- Node12&#45;&gt;Node15 -->
<g id="edge22_Node000012_Node000015" class="edge">
<title>Node12&#45;&gt;Node15</title>
<g id="a_edge22_Node000012_Node000015"><a xlink:title=" ">
<path fill="none" stroke="#63b8ff" d="M564.02,-497.42C575.48,-535.98 609.42,-632.59 673.75,-681.95 675.11,-682.99 676.52,-684 677.96,-684.96"/>
<polygon fill="#63b8ff" stroke="#63b8ff" points="676.18,-687.98 686.59,-689.96 679.69,-681.92 676.18,-687.98"/>
</a>
</g>
</g>
<!-- Node16 -->
<g id="Node000016" class="node">
<title>Node16</title>
<g id="a_Node000016"><a xlink:href="../../d5/d72/classLSM1x0A__LoRaWAN.html#a56345ceeafa0b9059d6de4e69eddc82e" target="_top" xlink:title="Sets the Data Rate (DR) of the module.">
<polygon fill="white" stroke="#666666" points="856.62,-672.95 684.62,-672.95 684.62,-652.95 856.62,-652.95 856.62,-672.95"/>
<text text-anchor="middle" x="770.62" y="-659.45" font-family="Helvetica,sans-Serif" font-size="10.00">LSM1x0A_LoRaWAN::setDataRate</text>
</a>
</g>
</g>
<!-- Node12&#45;&gt;Node16 -->
<g id="edge24_Node000012_Node000016" class="edge">
<title>Node12&#45;&gt;Node16</title>
<g id="a_edge24_Node000012_Node000016"><a xlink:title=" ">
<path fill="none" stroke="#63b8ff" d="M565.93,-497.26C579.99,-530.68 616.86,-606.87 673.75,-643.95 675.89,-645.34 678.1,-646.63 680.38,-647.84"/>
<polygon fill="#63b8ff" stroke="#63b8ff" points="678.8,-650.96 689.35,-651.92 681.7,-644.59 678.8,-650.96"/>
</a>
</g>
</g>
<!-- Node17 -->
<g id="Node000017" class="node">
<title>Node17</title>
<g id="a_Node000017"><a xlink:href="../../d5/d72/classLSM1x0A__LoRaWAN.html#a8494083816ab885cb07fc3b08de029f4" target="_top" xlink:title="Sets the LoRaWAN Device Address (DevAddr) for ABP mode.">
<polygon fill="white" stroke="#666666" points="854.75,-634.95 686.5,-634.95 686.5,-614.95 854.75,-614.95 854.75,-634.95"/>
<text text-anchor="middle" x="770.62" y="-621.45" font-family="Helvetica,sans-Serif" font-size="10.00">LSM1x0A_LoRaWAN::setDevAddr</text>
</a>
</g>
</g>
<!-- Node12&#45;&gt;Node17 -->
<g id="edge26_Node000012_Node000017" class="edge">
<title>Node12&#45;&gt;Node17</title>
<g id="a_edge26_Node000012_Node000017"><a xlink:title=" ">
<path fill="none" stroke="#63b8ff" d="M569.49,-497.41C586.97,-524.7 625.85,-578.97 673.75,-605.95 676.59,-607.55 679.55,-609.02 682.58,-610.36"/>
<polygon fill="#63b8ff" stroke="#63b8ff" points="681.17,-613.57 691.76,-613.93 683.71,-607.04 681.17,-613.57"/>
</a>
</g>
</g>
<!-- Node18 -->
<g id="Node000018" class="node">
<title>Node18</title>
<g id="a_Node000018"><a xlink:href="../../d5/d72/classLSM1x0A__LoRaWAN.html#ad320634e52d7ea907043cc50dd37c5b0" target="_top" xlink:title="Sets the LoRaWAN Device EUI (DevEUI).">
<polygon fill="white" stroke="#666666" points="853.25,-596.95 688,-596.95 688,-576.95 853.25,-576.95 853.25,-596.95"/>
<text text-anchor="middle" x="770.62" y="-583.45" font-family="Helvetica,sans-Serif" font-size="10.00">LSM1x0A_LoRaWAN::setDevEUI</text>
</a>
</g>
</g>
<!-- Node12&#45;&gt;Node18 -->
<g id="edge28_Node000012_Node000018" class="edge">
<title>Node12&#45;&gt;Node18</title>
<g id="a_edge28_Node000012_Node000018"><a xlink:title=" ">
<path fill="none" stroke="#63b8ff" d="M575.7,-497.21C596.52,-517.12 634.65,-550.34 673.75,-567.95 678.01,-569.87 682.47,-571.6 687.03,-573.15"/>
<polygon fill="#63b8ff" stroke="#63b8ff" points="685.78,-576.43 696.37,-576.02 687.84,-569.74 685.78,-576.43"/>
</a>
</g>
</g>
<!-- Node19 -->
<g id="Node000019" class="node">
<title>Node19</title>
<g id="a_Node000019"><a xlink:href="../../d5/d72/classLSM1x0A__LoRaWAN.html#a031023b0d2dd5db3c51c2db6ae7801cc" target="_top" xlink:title="Enables or disables the Duty Cycle limitation (EU regions mostly).">
<polygon fill="white" stroke="#666666" points="846.12,-558.95 695.12,-558.95 695.12,-526.95 846.12,-526.95 846.12,-558.95"/>
<text text-anchor="start" x="703.12" y="-545.45" font-family="Helvetica,sans-Serif" font-size="10.00">LSM1x0A_LoRaWAN::setDuty</text>
<text text-anchor="middle" x="770.62" y="-533.45" font-family="Helvetica,sans-Serif" font-size="10.00">Cycle</text>
</a>
</g>
</g>
<!-- Node12&#45;&gt;Node19 -->
<g id="edge30_Node000012_Node000019" class="edge">
<title>Node12&#45;&gt;Node19</title>
<g id="a_edge30_Node000012_Node000019"><a xlink:title=" ">
<path fill="none" stroke="#63b8ff" d="M615.26,-497.4C642.2,-505.35 674.73,-514.95 702.98,-523.28"/>
<polygon fill="#63b8ff" stroke="#63b8ff" points="701.94,-526.62 712.52,-526.1 703.92,-519.91 701.94,-526.62"/>
</a>
</g>
</g>
<!-- Node20 -->
<g id="Node000020" class="node">
<title>Node20</title>
<g id="a_Node000020"><a xlink:href="../../d5/d72/classLSM1x0A__LoRaWAN.html#a6b179d5825c49af0f391dfc539912f64" target="_top" xlink:title="Sets the delay for the Join1 receive window.">
<polygon fill="white" stroke="#666666" points="847.25,-470.95 694,-470.95 694,-438.95 847.25,-438.95 847.25,-470.95"/>
<text text-anchor="start" x="702" y="-457.45" font-family="Helvetica,sans-Serif" font-size="10.00">LSM1x0A_LoRaWAN::setJoin1</text>
<text text-anchor="middle" x="770.62" y="-445.45" font-family="Helvetica,sans-Serif" font-size="10.00">Delay</text>
</a>
</g>
</g>
<!-- Node12&#45;&gt;Node20 -->
<g id="edge32_Node000012_Node000020" class="edge">
<title>Node12&#45;&gt;Node20</title>
<g id="a_edge32_Node000012_Node000020"><a xlink:title=" ">
<path fill="none" stroke="#63b8ff" d="M632.11,-471.96C648.46,-469.94 665.97,-467.77 682.83,-465.69"/>
<polygon fill="#63b8ff" stroke="#63b8ff" points="682.8,-469.22 692.3,-464.52 681.94,-462.27 682.8,-469.22"/>
</a>
</g>
</g>
<!-- Node21 -->
<g id="Node000021" class="node">
<title>Node21</title>
<g id="a_Node000021"><a xlink:href="../../d5/d72/classLSM1x0A__LoRaWAN.html#a4545d0caad41558cdb9bae8286b104d8" target="_top" xlink:title="Sets the delay for the Join2 receive window.">
<polygon fill="white" stroke="#666666" points="847.25,-420.95 694,-420.95 694,-388.95 847.25,-388.95 847.25,-420.95"/>
<text text-anchor="start" x="702" y="-407.45" font-family="Helvetica,sans-Serif" font-size="10.00">LSM1x0A_LoRaWAN::setJoin2</text>
<text text-anchor="middle" x="770.62" y="-395.45" font-family="Helvetica,sans-Serif" font-size="10.00">Delay</text>
</a>
</g>
</g>
<!-- Node12&#45;&gt;Node21 -->
<g id="edge34_Node000012_Node000021" class="edge">
<title>Node12&#45;&gt;Node21</title>
<g id="a_edge34_Node000012_Node000021"><a xlink:title=" ">
<path fill="none" stroke="#63b8ff" d="M592.41,-464.52C614.92,-453.71 645.67,-439.8 673.75,-429.95 679.04,-428.09 684.54,-426.3 690.11,-424.59"/>
<polygon fill="#63b8ff" stroke="#63b8ff" points="690.82,-428.03 699.41,-421.84 688.83,-421.32 690.82,-428.03"/>
</a>
</g>
</g>
<!-- Node22 -->
<g id="Node000022" class="node">
<title>Node22</title>
<g id="a_Node000022"><a xlink:href="../../d5/d72/classLSM1x0A__LoRaWAN.html#a06bd50723ec1eb7e144c9141b2ec86fc" target="_top" xlink:title="Sets the LoRaWAN Network ID (NetID).">
<polygon fill="white" stroke="#666666" points="851,-370.95 690.25,-370.95 690.25,-350.95 851,-350.95 851,-370.95"/>
<text text-anchor="middle" x="770.62" y="-357.45" font-family="Helvetica,sans-Serif" font-size="10.00">LSM1x0A_LoRaWAN::setNwkID</text>
</a>
</g>
</g>
<!-- Node12&#45;&gt;Node22 -->
<g id="edge36_Node000012_Node000022" class="edge">
<title>Node12&#45;&gt;Node22</title>
<g id="a_edge36_Node000012_Node000022"><a xlink:title=" ">
<path fill="none" stroke="#63b8ff" d="M572.76,-464.74C592.35,-441.98 631.28,-400.98 673.75,-379.95 677.43,-378.13 681.26,-376.48 685.2,-374.99"/>
<polygon fill="#63b8ff" stroke="#63b8ff" points="686.01,-378.41 694.36,-371.9 683.77,-371.78 686.01,-378.41"/>
</a>
</g>
</g>
<!-- Node23 -->
<g id="Node000023" class="node">
<title>Node23</title>
<g id="a_Node000023"><a xlink:href="../../d5/d72/classLSM1x0A__LoRaWAN.html#aa70ada64d28ecca216bb62268e502adf" target="_top" xlink:title="Sets the delay for the RX1 receive window.">
<polygon fill="white" stroke="#666666" points="857.38,-332.95 683.88,-332.95 683.88,-312.95 857.38,-312.95 857.38,-332.95"/>
<text text-anchor="middle" x="770.62" y="-319.45" font-family="Helvetica,sans-Serif" font-size="10.00">LSM1x0A_LoRaWAN::setRx1Delay</text>
</a>
</g>
</g>
<!-- Node12&#45;&gt;Node23 -->
<g id="edge38_Node000012_Node000023" class="edge">
<title>Node12&#45;&gt;Node23</title>
<g id="a_edge38_Node000012_Node000023"><a xlink:title=" ">
<path fill="none" stroke="#63b8ff" d="M567.95,-464.54C584.15,-434.88 622.55,-372.58 673.75,-341.95 676.23,-340.46 678.81,-339.09 681.46,-337.82"/>
<polygon fill="#63b8ff" stroke="#63b8ff" points="682.71,-341.09 690.59,-334.02 680.01,-334.63 682.71,-341.09"/>
</a>
</g>
</g>
<!-- Node24 -->
<g id="Node000024" class="node">
<title>Node24</title>
<g id="a_Node000024"><a xlink:href="../../d5/d72/classLSM1x0A__LoRaWAN.html#a2cf4eff0181b6107d082bccefa24217b" target="_top" xlink:title="Sets the Data Rate (DR) specifically for the RX2 window.">
<polygon fill="white" stroke="#666666" points="865.62,-294.95 675.62,-294.95 675.62,-274.95 865.62,-274.95 865.62,-294.95"/>
<text text-anchor="middle" x="770.62" y="-281.45" font-family="Helvetica,sans-Serif" font-size="10.00">LSM1x0A_LoRaWAN::setRx2DataRate</text>
</a>
</g>
</g>
<!-- Node12&#45;&gt;Node24 -->
<g id="edge40_Node000012_Node000024" class="edge">
<title>Node12&#45;&gt;Node24</title>
<g id="a_edge40_Node000012_Node000024"><a xlink:title=" ">
<path fill="none" stroke="#63b8ff" d="M565.02,-464.61C577.9,-429.11 613.54,-344.84 673.75,-303.95 675.72,-302.61 677.77,-301.36 679.88,-300.19"/>
<polygon fill="#63b8ff" stroke="#63b8ff" points="681.21,-303.43 688.73,-295.97 678.2,-297.11 681.21,-303.43"/>
</a>
</g>
</g>
<!-- Node25 -->
<g id="Node000025" class="node">
<title>Node25</title>
<g id="a_Node000025"><a xlink:href="../../d5/d72/classLSM1x0A__LoRaWAN.html#a42d2137b475b57e19d891a5f1ac93221" target="_top" xlink:title="Sets the delay for the RX2 receive window.">
<polygon fill="white" stroke="#666666" points="857.38,-256.95 683.88,-256.95 683.88,-236.95 857.38,-236.95 857.38,-256.95"/>
<text text-anchor="middle" x="770.62" y="-243.45" font-family="Helvetica,sans-Serif" font-size="10.00">LSM1x0A_LoRaWAN::setRx2Delay</text>
</a>
</g>
</g>
<!-- Node12&#45;&gt;Node25 -->
<g id="edge42_Node000012_Node000025" class="edge">
<title>Node12&#45;&gt;Node25</title>
<g id="a_edge42_Node000012_Node000025"><a xlink:title=" ">
<path fill="none" stroke="#63b8ff" d="M563.09,-464.6C572.93,-423.89 604.36,-317.5 673.75,-265.95 675.34,-264.76 676.99,-263.65 678.68,-262.6"/>
<polygon fill="#63b8ff" stroke="#63b8ff" points="680.26,-265.72 687.48,-257.97 677,-259.53 680.26,-265.72"/>
</a>
</g>
</g>
<!-- Node26 -->
<g id="Node000026" class="node">
<title>Node26</title>
<g id="a_Node000026"><a xlink:href="../../d5/d72/classLSM1x0A__LoRaWAN.html#a689f7dfda1dfeae11ea397c2ddf2ad37" target="_top" xlink:title="Sets the precise frequency for the RX2 window.">
<polygon fill="white" stroke="#666666" points="867.5,-218.95 673.75,-218.95 673.75,-198.95 867.5,-198.95 867.5,-218.95"/>
<text text-anchor="middle" x="770.62" y="-205.45" font-family="Helvetica,sans-Serif" font-size="10.00">LSM1x0A_LoRaWAN::setRx2Frequency</text>
</a>
</g>
</g>
<!-- Node12&#45;&gt;Node26 -->
<g id="edge44_Node000012_Node000026" class="edge">
<title>Node12&#45;&gt;Node26</title>
<g id="a_edge44_Node000012_Node000026"><a xlink:title=" ">
<path fill="none" stroke="#63b8ff" d="M561.71,-464.5C568.76,-418.96 595.06,-290.44 673.75,-227.95 675.08,-226.89 676.45,-225.89 677.86,-224.94"/>
<polygon fill="#63b8ff" stroke="#63b8ff" points="679.36,-228.11 686.32,-220.12 675.9,-222.03 679.36,-228.11"/>
</a>
</g>
</g>
<!-- Node27 -->
<g id="Node000027" class="node">
<title>Node27</title>
<g id="a_Node000027"><a xlink:href="../../d5/d72/classLSM1x0A__LoRaWAN.html#a1df10d7ae6bf45b537d28d3d5c4b88d7" target="_top" xlink:title="Sets the transmission power index.">
<polygon fill="white" stroke="#666666" points="855.12,-180.95 686.12,-180.95 686.12,-160.95 855.12,-160.95 855.12,-180.95"/>
<text text-anchor="middle" x="770.62" y="-167.45" font-family="Helvetica,sans-Serif" font-size="10.00">LSM1x0A_LoRaWAN::setTxPower</text>
</a>
</g>
</g>
<!-- Node12&#45;&gt;Node27 -->
<g id="edge46_Node000012_Node000027" class="edge">
<title>Node12&#45;&gt;Node27</title>
<g id="a_edge46_Node000012_Node000027"><a xlink:title=" ">
<path fill="none" stroke="#63b8ff" d="M560.64,-464.65C565.05,-414.88 585.46,-263.73 673.75,-189.95 674.89,-189 676.05,-188.09 677.25,-187.23"/>
<polygon fill="#63b8ff" stroke="#63b8ff" points="678.93,-190.3 685.68,-182.14 675.31,-184.31 678.93,-190.3"/>
</a>
</g>
</g>
<!-- Node28 -->
<g id="Node000028" class="node">
<title>Node28</title>
<g id="a_Node000028"><a xlink:href="../../d5/d72/classLSM1x0A__LoRaWAN.html#a059fd6a9356c4ecadd5a98294da5952d" target="_top" xlink:title="Configures the number of repetitions for Unconfirmed uplinks.">
<polygon fill="white" stroke="#666666" points="858.12,-142.95 683.12,-142.95 683.12,-110.95 858.12,-110.95 858.12,-142.95"/>
<text text-anchor="start" x="691.12" y="-129.45" font-family="Helvetica,sans-Serif" font-size="10.00">LSM1x0A_LoRaWAN::setUnconfirm</text>
<text text-anchor="middle" x="770.62" y="-117.45" font-family="Helvetica,sans-Serif" font-size="10.00">Retry</text>
</a>
</g>
</g>
<!-- Node12&#45;&gt;Node28 -->
<g id="edge48_Node000012_Node000028" class="edge">
<title>Node12&#45;&gt;Node28</title>
<g id="a_edge48_Node000012_Node000028"><a xlink:title=" ">
<path fill="none" stroke="#63b8ff" d="M560.02,-464.75C562.65,-411.46 578.48,-239.96 673.75,-151.95 674.52,-151.23 675.32,-150.54 676.12,-149.86"/>
<polygon fill="#63b8ff" stroke="#63b8ff" points="677.97,-152.84 684.12,-144.21 673.94,-147.12 677.97,-152.84"/>
</a>
</g>
</g>
<!-- Node13&#45;&gt;Node2 -->
<g id="edge18_Node000013_Node000002" class="edge">
<title>Node13&#45;&gt;Node2</title>
<g id="a_edge18_Node000013_Node000002"><a xlink:title=" ">
<path fill="none" stroke="#63b8ff" d="M695.61,-778.49C586.39,-761.69 389.33,-725.64 337.25,-677.95 286.6,-631.57 263.37,-550.58 254.25,-508.34"/>
<polygon fill="#63b8ff" stroke="#63b8ff" points="257.73,-507.86 252.3,-498.76 250.87,-509.26 257.73,-507.86"/>
</a>
</g>
</g>
<!-- Node14&#45;&gt;Node2 -->
<g id="edge20_Node000014_Node000002" class="edge">
<title>Node14&#45;&gt;Node2</title>
<g id="a_edge20_Node000014_Node000002"><a xlink:title=" ">
<path fill="none" stroke="#63b8ff" d="M697.98,-740.46C589.92,-723.42 392.01,-687.03 337.25,-641.95 293.98,-606.32 268.62,-543.61 256.99,-507.88"/>
<polygon fill="#63b8ff" stroke="#63b8ff" points="260.46,-507.24 254.14,-498.74 253.77,-509.32 260.46,-507.24"/>
</a>
</g>
</g>
<!-- Node15&#45;&gt;Node2 -->
<g id="edge23_Node000015_Node000002" class="edge">
<title>Node15&#45;&gt;Node2</title>
<g id="a_edge23_Node000015_Node000002"><a xlink:title=" ">
<path fill="none" stroke="#63b8ff" d="M687.99,-696.13C578.58,-680.29 391.82,-648.15 337.25,-606.95 302.13,-580.43 275.74,-535.78 261.4,-507.37"/>
<polygon fill="#63b8ff" stroke="#63b8ff" points="264.71,-506.16 257.17,-498.71 258.42,-509.23 264.71,-506.16"/>
</a>
</g>
</g>
<!-- Node16&#45;&gt;Node2 -->
<g id="edge25_Node000016_Node000002" class="edge">
<title>Node16&#45;&gt;Node2</title>
<g id="a_edge25_Node000016_Node000002"><a xlink:title=" ">
<path fill="none" stroke="#63b8ff" d="M684.52,-660.63C592.81,-654.66 445.46,-634.71 337.25,-569.95 309.57,-553.38 284.39,-526.09 268.13,-506.09"/>
<polygon fill="#63b8ff" stroke="#63b8ff" points="270.99,-504.06 262.04,-498.39 265.5,-508.41 270.99,-504.06"/>
</a>
</g>
</g>
<!-- Node17&#45;&gt;Node2 -->
<g id="edge27_Node000017_Node000002" class="edge">
<title>Node17&#45;&gt;Node2</title>
<g id="a_edge27_Node000017_Node000002"><a xlink:title=" ">
<path fill="none" stroke="#63b8ff" d="M686.27,-618.09C597.01,-608.52 452.65,-586.49 337.25,-537.95 316.49,-529.22 295.24,-515.61 278.83,-503.88"/>
<polygon fill="#63b8ff" stroke="#63b8ff" points="281.12,-501.22 270.98,-498.14 276.99,-506.87 281.12,-501.22"/>
</a>
</g>
</g>
<!-- Node18&#45;&gt;Node2 -->
<g id="edge29_Node000018_Node000002" class="edge">
<title>Node18&#45;&gt;Node2</title>
<g id="a_edge29_Node000018_Node000002"><a xlink:title=" ">
<path fill="none" stroke="#63b8ff" d="M687.87,-576.91C600.28,-565.2 457.59,-543.35 337.25,-511.95 325.73,-508.94 313.57,-505.11 302.09,-501.17"/>
<polygon fill="#63b8ff" stroke="#63b8ff" points="303.35,-497.9 292.76,-497.88 301.03,-504.5 303.35,-497.9"/>
</a>
</g>
</g>
<!-- Node19&#45;&gt;Node2 -->
<g id="edge31_Node000019_Node000002" class="edge">
<title>Node19&#45;&gt;Node2</title>
<g id="a_edge31_Node000019_Node000002"><a xlink:title=" ">
<path fill="none" stroke="#63b8ff" d="M694.89,-534.04C592.21,-521.81 409.31,-500.02 312.85,-488.53"/>
<polygon fill="#63b8ff" stroke="#63b8ff" points="313.37,-485.06 303.03,-487.36 312.55,-492.01 313.37,-485.06"/>
</a>
</g>
</g>
<!-- Node20&#45;&gt;Node2 -->
<g id="edge33_Node000020_Node000002" class="edge">
<title>Node20&#45;&gt;Node2</title>
<g id="a_edge33_Node000020_Node000002"><a xlink:title=" ">
<path fill="none" stroke="#63b8ff" d="M693.75,-453.04C635.12,-452.09 551.98,-451.88 479.25,-455.95 422.87,-459.1 359.05,-466.33 312.97,-472.21"/>
<polygon fill="#63b8ff" stroke="#63b8ff" points="312.62,-468.72 303.15,-473.48 313.51,-475.67 312.62,-468.72"/>
</a>
</g>
</g>
<!-- Node21&#45;&gt;Node2 -->
<g id="edge35_Node000021_Node000002" class="edge">
<title>Node21&#45;&gt;Node2</title>
<g id="a_edge35_Node000021_Node000002"><a xlink:title=" ">
<path fill="none" stroke="#63b8ff" d="M693.63,-409.76C606.78,-416.18 460.71,-429.77 337.25,-454.95 328.58,-456.72 319.53,-458.94 310.67,-461.34"/>
<polygon fill="#63b8ff" stroke="#63b8ff" points="309.73,-457.97 301.05,-464.05 311.63,-464.71 309.73,-457.97"/>
</a>
</g>
</g>
<!-- Node22&#45;&gt;Node2 -->
<g id="edge37_Node000022_Node000002" class="edge">
<title>Node22&#45;&gt;Node2</title>
<g id="a_edge37_Node000022_Node000002"><a xlink:title=" ">
<path fill="none" stroke="#63b8ff" d="M689.96,-366.22C601.7,-373.87 456.13,-391.94 337.25,-432.95 318.76,-439.33 299.55,-449.35 283.81,-458.6"/>
<polygon fill="#63b8ff" stroke="#63b8ff" points="282.05,-455.57 275.3,-463.73 285.67,-461.56 282.05,-455.57"/>
</a>
</g>
</g>
<!-- Node23&#45;&gt;Node2 -->
<g id="edge39_Node000023_Node000002" class="edge">
<title>Node23&#45;&gt;Node2</title>
<g id="a_edge39_Node000023_Node000002"><a xlink:title=" ">
<path fill="none" stroke="#63b8ff" d="M683.49,-323.48C592.54,-327.36 447.35,-343.2 337.25,-400.95 311.01,-414.71 286.53,-438.19 270.09,-456.16"/>
<polygon fill="#63b8ff" stroke="#63b8ff" points="267.73,-453.54 263.7,-463.34 272.96,-458.2 267.73,-453.54"/>
</a>
</g>
</g>
<!-- Node24&#45;&gt;Node2 -->
<g id="edge41_Node000024_Node000002" class="edge">
<title>Node24&#45;&gt;Node2</title>
<g id="a_edge41_Node000024_Node000002"><a xlink:title=" ">
<path fill="none" stroke="#63b8ff" d="M675.4,-278.72C581.85,-277.21 438.19,-287.94 337.25,-355.95 300.75,-380.54 274.62,-425.71 260.73,-454.49"/>
<polygon fill="#63b8ff" stroke="#63b8ff" points="257.69,-452.73 256.65,-463.27 264.04,-455.68 257.69,-452.73"/>
</a>
</g>
</g>
<!-- Node25&#45;&gt;Node2 -->
<g id="edge43_Node000025_Node000002" class="edge">
<title>Node25&#45;&gt;Node2</title>
<g id="a_edge43_Node000025_Node000002"><a xlink:title=" ">
<path fill="none" stroke="#63b8ff" d="M699.85,-236.49C607.08,-226.6 442.59,-223.58 337.25,-304.95 288.61,-342.51 264.88,-414.19 255.06,-453.49"/>
<polygon fill="#63b8ff" stroke="#63b8ff" points="251.69,-452.56 252.8,-463.1 258.5,-454.17 251.69,-452.56"/>
</a>
</g>
</g>
<!-- Node26&#45;&gt;Node2 -->
<g id="edge45_Node000026_Node000002" class="edge">
<title>Node26&#45;&gt;Node2</title>
<g id="a_edge45_Node000026_Node000002"><a xlink:title=" ">
<path fill="none" stroke="#63b8ff" d="M673.42,-205.86C561.97,-204.31 387.25,-208.72 337.25,-248.95 273.36,-300.36 255.83,-403.6 251.04,-453.16"/>
<polygon fill="#63b8ff" stroke="#63b8ff" points="247.56,-452.77 250.2,-463.03 254.53,-453.36 247.56,-452.77"/>
</a>
</g>
</g>
<!-- Node27&#45;&gt;Node2 -->
<g id="edge47_Node000027_Node000002" class="edge">
<title>Node27&#45;&gt;Node2</title>
<g id="a_edge47_Node000027_Node000002"><a xlink:title=" ">
<path fill="none" stroke="#63b8ff" d="M722.92,-160.48C636.49,-144.01 450.14,-122.56 337.25,-212.95 262.44,-272.85 250.58,-397.78 249.15,-453.31"/>
<polygon fill="#63b8ff" stroke="#63b8ff" points="245.65,-453.1 249,-463.15 252.65,-453.21 245.65,-453.1"/>
</a>
</g>
</g>
<!-- Node28&#45;&gt;Node2 -->
<g id="edge49_Node000028_Node000002" class="edge">
<title>Node28&#45;&gt;Node2</title>
<g id="a_edge49_Node000028_Node000002"><a xlink:title=" ">
<path fill="none" stroke="#63b8ff" d="M682.74,-121.55C571.65,-116.57 387.62,-115.39 337.25,-157.95 291.4,-196.69 262.25,-383.18 252.7,-453.79"/>
<polygon fill="#63b8ff" stroke="#63b8ff" points="249.28,-452.95 251.44,-463.32 256.22,-453.87 249.28,-452.95"/>
</a>
</g>
</g>
<!-- Node30&#45;&gt;Node31 -->
<g id="edge52_Node000030_Node000031" class="edge">
<title>Node30&#45;&gt;Node31</title>
<g id="a_edge52_Node000030_Node000031"><a xlink:title=" ">
<path fill="none" stroke="#63b8ff" d="M611.98,-1092.44C630.14,-1094.34 651.11,-1096.54 671.72,-1098.7"/>
<polygon fill="#63b8ff" stroke="#63b8ff" points="671.29,-1102.17 681.6,-1099.73 672.02,-1095.21 671.29,-1102.17"/>
</a>
</g>
</g>
<!-- Node32 -->
<g id="Node000032" class="node">
<title>Node32</title>
<g id="a_Node000032"><a xlink:href="../../d6/d3c/classLSM1x0A__AtParser.html#a0ba6f927c54fceece22c17773d3f2600" target="_top" xlink:title="Sends a command and extracts a value from the response.">
<polygon fill="white" stroke="#666666" points="1085.62,-1124.95 911.38,-1124.95 911.38,-1092.95 1085.62,-1092.95 1085.62,-1124.95"/>
<text text-anchor="start" x="919.38" y="-1111.45" font-family="Helvetica,sans-Serif" font-size="10.00">LSM1x0A_AtParser::sendCommand</text>
<text text-anchor="middle" x="998.5" y="-1099.45" font-family="Helvetica,sans-Serif" font-size="10.00">WithResponse</text>
</a>
</g>
</g>
<!-- Node31&#45;&gt;Node32 -->
<g id="edge53_Node000031_Node000032" class="edge">
<title>Node31&#45;&gt;Node32</title>
<g id="a_edge53_Node000031_Node000032"><a xlink:title=" ">
<path fill="none" stroke="#63b8ff" d="M857.99,-1108.95C871.74,-1108.95 886.06,-1108.95 900.05,-1108.95"/>
<polygon fill="#63b8ff" stroke="#63b8ff" points="899.67,-1112.45 909.67,-1108.95 899.67,-1105.45 899.67,-1112.45"/>
</a>
</g>
</g>
<!-- Node33 -->
<g id="Node000033" class="node">
<title>Node33</title>
<g id="a_Node000033"><a xlink:href="../../d5/d8b/classUartDriver.html#a5d0f22e8867eebe99273078bb19bd23d" target="_top" xlink:title="Sends data through UART.">
<polygon fill="white" stroke="#666666" points="1260.25,-1118.95 1151.25,-1118.95 1151.25,-1098.95 1260.25,-1098.95 1260.25,-1118.95"/>
<text text-anchor="middle" x="1205.75" y="-1105.45" font-family="Helvetica,sans-Serif" font-size="10.00">UartDriver::sendData</text>
</a>
</g>
</g>
<!-- Node32&#45;&gt;Node33 -->
<g id="edge54_Node000032_Node000033" class="edge">
<title>Node32&#45;&gt;Node33</title>
<g id="a_edge54_Node000032_Node000033"><a xlink:title=" ">
<path fill="none" stroke="#63b8ff" d="M1085.95,-1108.95C1103.84,-1108.95 1122.41,-1108.95 1139.39,-1108.95"/>
<polygon fill="#63b8ff" stroke="#63b8ff" points="1139.36,-1112.45 1149.36,-1108.95 1139.36,-1105.45 1139.36,-1112.45"/>
</a>
</g>
</g>
</g>
</svg>

<g id="navigator" transform="translate(0 0)" fill="#404254">
  <rect fill="#f2f5e9" fill-opacity="0.5" stroke="#606060" stroke-width=".5" x="0" y="0" width="60" height="60"/>
  <use id="zoomplus" xlink:href="#zoomPlus" x="17" y="9" onmousedown="handleZoom(evt,'in')"/>
  <use id="zoomminus" xlink:href="#zoomMin" x="42" y="9" onmousedown="handleZoom(evt,'out')"/>
  <use id="reset" xlink:href="#resetDef" x="30" y="36" onmousedown="handleReset()"/>
   <use id="arrowup" xlink:href="#arrowUp" x="0" y="0" onmousedown="handlePan(0,-1)"/>
  <use id="arrowright" xlink:href="#arrowRight" x="0" y="0" onmousedown="handlePan(1,0)"/>
  <use id="arrowdown" xlink:href="#arrowDown" x="0" y="0" onmousedown="handlePan(0,1)"/>
  <use id="arrowleft" xlink:href="#arrowLeft" x="0" y="0" onmousedown="handlePan(-1,0)"/>
</g>
<svg viewBox="0 0 15 15" width="100%" height="30px" preserveAspectRatio="xMaxYMin meet">
 <g id="arrow_out" transform="scale(0.3 0.3)">
  <a xlink:href="classLSM1x0A__LoRaWAN_a8f13c2420ec8ff91e55d78dafd46f45d_cgraph_org.svg" target="_base">
   <rect id="button" ry="5" rx="5" y="6" x="6" height="38" width="38"
        fill="#f2f5e9" fill-opacity="0.5" stroke="#606060" stroke-width="1.0"/>
   <path id="arrow"
     d="M 11.500037,31.436501 C 11.940474,20.09759 22.043105,11.32322 32.158766,21.979434 L 37.068811,17.246167 C 37.068811,17.246167 37.088388,32 37.088388,32 L 22.160133,31.978069 C 22.160133,31.978069 26.997745,27.140456 26.997745,27.140456 C 18.528582,18.264221 13.291696,25.230495 11.500037,31.436501 z"
     style="fill:#404040;"/>
  </a>
 </g>
</svg>

<style type='text/css'>
<![CDATA[
[data-mouse-over-selected='false'] { opacity: 0.7; }
[data-mouse-over-selected='true']  { opacity: 1.0; }
]]>
</style>
<script type="application/ecmascript"><![CDATA[
document.addEventListener('DOMContentLoaded', (event) => {
  highlightEdges();
  highlightAdjacentNodes();
});
]]></script>
</svg>
