<?xml version="1.0" encoding="UTF-8" standalone="no"?>
<!DOCTYPE svg PUBLIC "-//W3C//DTD SVG 1.1//EN"
 "http://www.w3.org/Graphics/SVG/1.1/DTD/svg11.dtd">
<!-- Generated by graphviz version 12.2.1 (20241206.2353)
 -->
<!-- Title: LSM1x0A_LoRaWAN::setChannelMask Pages: 1 -->
<!--zoomable 1120 -->

<svg id="main" version="1.1" xmlns="http://www.w3.org/2000/svg" xmlns:xlink="http://www.w3.org/1999/xlink" xml:space="preserve" onload="init(evt)">
<style type="text/css"><![CDATA[
.node, .edge {opacity: 0.7;}
.node.selected, .edge.selected {opacity: 1;}
.edge:hover path { stroke: red; }
.edge:hover polygon { stroke: red; fill: red; }
]]></style>

<defs>
  <circle id="rim" cx="0" cy="0" r="7"/>
  <circle id="rim2" cx="0" cy="0" r="3.5"/>
  <g id="zoomPlus">
    <use xlink:href="#rim" fill="#404040"><set attributeName="fill" to="#808080" begin="zoomplus.mouseover" end="zoomplus.mouseout"/></use>
    <path d="M-4,0h8M0,-4v8" fill="none" stroke="white" stroke-width="1.5" pointer-events="none"/>
  </g>
  <g id="zoomMin">
    <use xlink:href="#rim" fill="#404040"><set attributeName="fill" to="#808080" begin="zoomminus.mouseover" end="zoomminus.mouseout"/></use>
    <path d="M-4,0h8" fill="none" stroke="white" stroke-width="1.5" pointer-events="none"/>
  </g>
  <g id="arrowUp" transform="translate(30 24)">
    <use xlink:href="#rim"/>
    <path pointer-events="none" fill="none" stroke="white" stroke-width="1.5" d="M0,-3.0v7 M-2.5,-0.5L0,-3.0L2.5,-0.5"/>
  </g>
  <g id="arrowRight" transform="rotate(90) translate(36 -43)">
    <use xlink:href="#rim"/>
    <path pointer-events="none" fill="none" stroke="white" stroke-width="1.5" d="M0,-3.0v7 M-2.5,-0.5L0,-3.0L2.5,-0.5"/>
  </g>
  <g id="arrowDown" transform="rotate(180) translate(-30 -48)">
    <use xlink:href="#rim"/>
    <path pointer-events="none" fill="none" stroke="white" stroke-width="1.5" d="M0,-3.0v7 M-2.5,-0.5L0,-3.0L2.5,-0.5"/>
  </g>
  <g id="arrowLeft" transform="rotate(270) translate(-36 17)">
    <use xlink:href="#rim"/>
    <path pointer-events="none" fill="none" stroke="white" stroke-width="1.5" d="M0,-3.0v7 M-2.5,-0.5L0,-3.0L2.5,-0.5"/>
  </g>
  <g id="resetDef">
    <use xlink:href="#rim2" fill="#404040"><set attributeName="fill" to="#808080" begin="reset.mouseover" end="reset.mouseout"/></use>
  </g>
</defs>
<script type="application/ecmascript">
var viewWidth = 1262;
var viewHeight = 1120;
var sectionId = 'dynsection-71';
</script>
<script type="application/ecmascript" xlink:href="../../svg.min.js"/>
<svg id="graph" class="graph">
<g id="viewport">
<title>LSM1x0A_LoRaWAN::setChannelMask</title>
<!-- Node1 -->
<g id="Node000001" class="node">
<title>Node1</title>
<g id="a_Node000001"><a xlink:title="Enables or disables specific sub&#45;bands for regions supporting Channel Masks (e.g.,...">
<polygon fill="#999999" stroke="#666666" points="190,-763.27 0,-763.27 0,-743.27 190,-743.27 190,-763.27"/>
<text text-anchor="middle" x="95" y="-749.77" font-family="Helvetica,sans-Serif" font-size="10.00">LSM1x0A_LoRaWAN::setChannelMask</text>
</a>
</g>
</g>
<!-- Node2 -->
<g id="Node000002" class="node">
<title>Node2</title>
<g id="a_Node000002"><a xlink:href="../../d5/d72/classLSM1x0A__LoRaWAN.html#a1892801e37c8cd67d37c76108d6f7d49" target="_top" xlink:title="Validates if the device is currently Joined to the network. (Either confirmed by OTAA or statically a...">
<polygon fill="white" stroke="#666666" points="665.5,-1079.27 513,-1079.27 513,-1059.27 665.5,-1059.27 665.5,-1079.27"/>
<text text-anchor="middle" x="589.25" y="-1065.77" font-family="Helvetica,sans-Serif" font-size="10.00">LSM1x0A_LoRaWAN::isJoined</text>
</a>
</g>
</g>
<!-- Node1&#45;&gt;Node2 -->
<g id="edge1_Node000001_Node000002" class="edge">
<title>Node1&#45;&gt;Node2</title>
<g id="a_edge1_Node000001_Node000002"><a xlink:title=" ">
<path fill="none" stroke="#63b8ff" d="M108.92,-763.68C158.46,-803.24 342,-946.64 510,-1037.27 521.99,-1043.74 535.57,-1049.73 548.01,-1054.73"/>
<polygon fill="#63b8ff" stroke="#63b8ff" points="546.59,-1057.93 557.18,-1058.3 549.13,-1051.41 546.59,-1057.93"/>
</a>
</g>
</g>
<!-- Node3 -->
<g id="Node000003" class="node">
<title>Node3</title>
<g id="a_Node000003"><a xlink:href="../../d8/d92/classLSM1x0A__Controller.html#afd7d92e60ed6fdae696a955cdbe0ed8c" target="_top" xlink:title="Sends any AT command to the module, returning error if it fails. Internally uses the LsmAtParser logi...">
<polygon fill="white" stroke="#666666" points="332,-498.27 226,-498.27 226,-466.27 332,-466.27 332,-498.27"/>
<text text-anchor="start" x="234" y="-484.77" font-family="Helvetica,sans-Serif" font-size="10.00">LSM1x0A_Controller</text>
<text text-anchor="middle" x="279" y="-472.77" font-family="Helvetica,sans-Serif" font-size="10.00">::sendCommand</text>
</a>
</g>
</g>
<!-- Node1&#45;&gt;Node3 -->
<g id="edge2_Node000001_Node000003" class="edge">
<title>Node1&#45;&gt;Node3</title>
<g id="a_edge2_Node000001_Node000003"><a xlink:title=" ">
<path fill="none" stroke="#63b8ff" d="M102.91,-742.98C128.94,-704.22 221.57,-566.3 260.53,-508.29"/>
<polygon fill="#63b8ff" stroke="#63b8ff" points="263.43,-510.25 266.1,-499.99 257.62,-506.35 263.43,-510.25"/>
</a>
</g>
</g>
<!-- Node4 -->
<g id="Node000004" class="node">
<title>Node4</title>
<g id="a_Node000004"><a xlink:href="../../d8/d92/classLSM1x0A__Controller.html#abb0eb380daa3dfb7acffb483c5db8e2b" target="_top" xlink:title="Executes the recovery protocol. First Soft&#45;Reset (ATZ), then Hard&#45;Reset if there is a pin.">
<polygon fill="white" stroke="#666666" points="474,-915.27 368,-915.27 368,-883.27 474,-883.27 474,-915.27"/>
<text text-anchor="start" x="376" y="-901.77" font-family="Helvetica,sans-Serif" font-size="10.00">LSM1x0A_Controller</text>
<text text-anchor="middle" x="421" y="-889.77" font-family="Helvetica,sans-Serif" font-size="10.00">::recoverModule</text>
</a>
</g>
</g>
<!-- Node3&#45;&gt;Node4 -->
<g id="edge3_Node000003_Node000004" class="edge">
<title>Node3&#45;&gt;Node4</title>
<g id="a_edge3_Node000003_Node000004"><a xlink:title=" ">
<path fill="none" stroke="#63b8ff" d="M281.76,-498.72C287.74,-550.17 310.25,-711.7 368,-831.27 375.47,-846.74 386.79,-862.09 396.96,-874.29"/>
<polygon fill="#63b8ff" stroke="#63b8ff" points="394.26,-876.52 403.45,-881.81 399.56,-871.95 394.26,-876.52"/>
</a>
</g>
</g>
<!-- Node30 -->
<g id="Node000030" class="node">
<title>Node30</title>
<g id="a_Node000030"><a xlink:href="../../d6/d3c/classLSM1x0A__AtParser.html#a29b53c521974387ba6c03afadfaffa4a" target="_top" xlink:title="Sends a simple command and waits for OK/ERROR. Example: sendCommand(&quot;AT+JOIN&quot;);.">
<polygon fill="white" stroke="#666666" points="888.5,-761.27 714.25,-761.27 714.25,-741.27 888.5,-741.27 888.5,-761.27"/>
<text text-anchor="middle" x="801.38" y="-747.77" font-family="Helvetica,sans-Serif" font-size="10.00">LSM1x0A_AtParser::sendCommand</text>
</a>
</g>
</g>
<!-- Node3&#45;&gt;Node30 -->
<g id="edge54_Node000003_Node000030" class="edge">
<title>Node3&#45;&gt;Node30</title>
<g id="a_edge54_Node000003_Node000030"><a xlink:title=" ">
<path fill="none" stroke="#63b8ff" d="M284.49,-498.69C294.22,-531.28 320.33,-604.53 368,-645.27 419.19,-689.02 601.05,-722.33 711.95,-739.14"/>
<polygon fill="#63b8ff" stroke="#63b8ff" points="711.21,-742.57 721.62,-740.59 712.25,-735.64 711.21,-742.57"/>
</a>
</g>
</g>
<!-- Node4&#45;&gt;Node2 -->
<g id="edge7_Node000004_Node000002" class="edge">
<title>Node4&#45;&gt;Node2</title>
<g id="a_edge7_Node000004_Node000002"><a xlink:title=" ">
<path fill="none" stroke="#63b8ff" d="M430.97,-915.6C450.95,-951.76 498.31,-1036.14 510,-1045.27 514.5,-1048.79 519.52,-1051.8 524.79,-1054.36"/>
<polygon fill="#63b8ff" stroke="#63b8ff" points="523.17,-1057.48 533.74,-1058.18 525.92,-1051.04 523.17,-1057.48"/>
</a>
</g>
</g>
<!-- Node5 -->
<g id="Node000005" class="node">
<title>Node5</title>
<g id="a_Node000005"><a xlink:href="../../d8/d92/classLSM1x0A__Controller.html#a3f6f25b843fe4fb7042c544deae2ab16" target="_top" xlink:title="Manually clears bits from the internal EventGroup.">
<polygon fill="white" stroke="#666666" points="1074.38,-1028.27 968.38,-1028.27 968.38,-996.27 1074.38,-996.27 1074.38,-1028.27"/>
<text text-anchor="start" x="976.38" y="-1014.77" font-family="Helvetica,sans-Serif" font-size="10.00">LSM1x0A_Controller</text>
<text text-anchor="middle" x="1021.38" y="-1002.77" font-family="Helvetica,sans-Serif" font-size="10.00">::clearEvents</text>
</a>
</g>
</g>
<!-- Node4&#45;&gt;Node5 -->
<g id="edge4_Node000004_Node000005" class="edge">
<title>Node4&#45;&gt;Node5</title>
<g id="a_edge4_Node000004_Node000005"><a xlink:title=" ">
<path fill="none" stroke="#63b8ff" d="M428.82,-915.44C440.82,-941.52 468.45,-991.97 510,-1012.27 586.75,-1049.78 837.45,-1030.79 956.5,-1019.13"/>
<polygon fill="#63b8ff" stroke="#63b8ff" points="956.83,-1022.61 966.44,-1018.14 956.14,-1015.64 956.83,-1022.61"/>
</a>
</g>
</g>
<!-- Node6 -->
<g id="Node000006" class="node">
<title>Node6</title>
<g id="a_Node000006"><a xlink:href="../../d8/d92/classLSM1x0A__Controller.html#a345d4bd79fa16b18dc33a4ca788fe5f7" target="_top" xlink:title="Performs a hardware reset using the reset pin.">
<polygon fill="white" stroke="#666666" points="642.25,-1003.27 536.25,-1003.27 536.25,-971.27 642.25,-971.27 642.25,-1003.27"/>
<text text-anchor="start" x="544.25" y="-989.77" font-family="Helvetica,sans-Serif" font-size="10.00">LSM1x0A_Controller</text>
<text text-anchor="middle" x="589.25" y="-977.77" font-family="Helvetica,sans-Serif" font-size="10.00">::hardwareReset</text>
</a>
</g>
</g>
<!-- Node4&#45;&gt;Node6 -->
<g id="edge5_Node000004_Node000006" class="edge">
<title>Node4&#45;&gt;Node6</title>
<g id="a_edge5_Node000004_Node000006"><a xlink:title=" ">
<path fill="none" stroke="#63b8ff" d="M443.97,-915.69C461.3,-928.16 486.4,-945.15 510,-957.27 516.29,-960.5 523,-963.58 529.76,-966.46"/>
<polygon fill="#63b8ff" stroke="#63b8ff" points="528.38,-969.68 538.96,-970.23 531.03,-963.2 528.38,-969.68"/>
</a>
</g>
</g>
<!-- Node8 -->
<g id="Node000008" class="node">
<title>Node8</title>
<g id="a_Node000008"><a xlink:href="../../d5/d72/classLSM1x0A__LoRaWAN.html#a83e11c0e74ff9e0757db616ab1163424" target="_top" xlink:title="Attempts to recover a lost connection (re&#45;executes OTAA Join if dropped).">
<polygon fill="white" stroke="#666666" points="663.62,-915.27 514.88,-915.27 514.88,-883.27 663.62,-883.27 663.62,-915.27"/>
<text text-anchor="start" x="522.88" y="-901.77" font-family="Helvetica,sans-Serif" font-size="10.00">LSM1x0A_LoRaWAN::recover</text>
<text text-anchor="middle" x="589.25" y="-889.77" font-family="Helvetica,sans-Serif" font-size="10.00">Connection</text>
</a>
</g>
</g>
<!-- Node4&#45;&gt;Node8 -->
<g id="edge8_Node000004_Node000008" class="edge">
<title>Node4&#45;&gt;Node8</title>
<g id="a_edge8_Node000004_Node000008"><a xlink:title=" ">
<path fill="none" stroke="#63b8ff" d="M474.15,-899.27C483.49,-899.27 493.44,-899.27 503.42,-899.27"/>
<polygon fill="#63b8ff" stroke="#63b8ff" points="503.16,-902.77 513.16,-899.27 503.16,-895.77 503.16,-902.77"/>
</a>
</g>
</g>
<!-- Node11 -->
<g id="Node000011" class="node">
<title>Node11</title>
<g id="a_Node000011"><a xlink:href="../../d5/d72/classLSM1x0A__LoRaWAN.html#ae3be4ce59dfa200369733317df356e97" target="_top" xlink:title="Pushes the RAM&#45;cached variables back down into the hardware module. Restores the operational state af...">
<polygon fill="white" stroke="#666666" points="662.5,-397.27 516,-397.27 516,-365.27 662.5,-365.27 662.5,-397.27"/>
<text text-anchor="start" x="524" y="-383.77" font-family="Helvetica,sans-Serif" font-size="10.00">LSM1x0A_LoRaWAN::restore</text>
<text text-anchor="middle" x="589.25" y="-371.77" font-family="Helvetica,sans-Serif" font-size="10.00">Config</text>
</a>
</g>
</g>
<!-- Node4&#45;&gt;Node11 -->
<g id="edge15_Node000004_Node000011" class="edge">
<title>Node4&#45;&gt;Node11</title>
<g id="a_edge15_Node000004_Node000011"><a xlink:title=" ">
<path fill="none" stroke="#63b8ff" d="M427.25,-882.92C451.12,-808.54 549.55,-501.86 579.54,-408.42"/>
<polygon fill="#63b8ff" stroke="#63b8ff" points="582.81,-409.67 582.54,-399.08 576.15,-407.53 582.81,-409.67"/>
</a>
</g>
</g>
<!-- Node28 -->
<g id="Node000028" class="node">
<title>Node28</title>
<g id="a_Node000028"><a xlink:href="../../d5/d72/classLSM1x0A__LoRaWAN.html#ace4b04396f1de1f4a54f513f5f378db7" target="_top" xlink:title="Manually overrides the internal joined state tracker.">
<polygon fill="white" stroke="#666666" points="668.5,-865.27 510,-865.27 510,-845.27 668.5,-845.27 668.5,-865.27"/>
<text text-anchor="middle" x="589.25" y="-851.77" font-family="Helvetica,sans-Serif" font-size="10.00">LSM1x0A_LoRaWAN::setJoined</text>
</a>
</g>
</g>
<!-- Node4&#45;&gt;Node28 -->
<g id="edge49_Node000004_Node000028" class="edge">
<title>Node4&#45;&gt;Node28</title>
<g id="a_edge49_Node000004_Node000028"><a xlink:title=" ">
<path fill="none" stroke="#63b8ff" d="M474.49,-884C486.16,-880.71 498.48,-877.31 510,-874.27 517.36,-872.34 525.12,-870.36 532.79,-868.46"/>
<polygon fill="#63b8ff" stroke="#63b8ff" points="533.55,-871.88 542.43,-866.09 531.88,-865.08 533.55,-871.88"/>
</a>
</g>
</g>
<!-- Node29 -->
<g id="Node000029" class="node">
<title>Node29</title>
<g id="a_Node000029"><a xlink:href="../../d8/d92/classLSM1x0A__Controller.html#a11ad21cb5ca33ec51346764a23bd485e" target="_top" xlink:title="Performs a software reset (ATZ Command).">
<polygon fill="white" stroke="#666666" points="642.25,-789.27 536.25,-789.27 536.25,-757.27 642.25,-757.27 642.25,-789.27"/>
<text text-anchor="start" x="544.25" y="-775.77" font-family="Helvetica,sans-Serif" font-size="10.00">LSM1x0A_Controller</text>
<text text-anchor="middle" x="589.25" y="-763.77" font-family="Helvetica,sans-Serif" font-size="10.00">::softwareReset</text>
</a>
</g>
</g>
<!-- Node4&#45;&gt;Node29 -->
<g id="edge50_Node000004_Node000029" class="edge">
<title>Node4&#45;&gt;Node29</title>
<g id="a_edge50_Node000004_Node000029"><a xlink:title=" ">
<path fill="none" stroke="#63b8ff" d="M443.73,-882.8C472.86,-860.73 524.7,-821.44 557.73,-796.41"/>
<polygon fill="#63b8ff" stroke="#63b8ff" points="559.45,-799.49 565.3,-790.66 555.22,-793.91 559.45,-799.49"/>
</a>
</g>
</g>
<!-- Node7 -->
<g id="Node000007" class="node">
<title>Node7</title>
<g id="a_Node000007"><a xlink:href="../../d6/d3c/classLSM1x0A__AtParser.html#ad2839120da13e56132b95019419be1e5" target="_top" xlink:title="Waits for an event (like BOOTALERT) without sending any command. Useful for hardware reset where the ...">
<polygon fill="white" stroke="#666666" points="871.62,-1003.27 731.12,-1003.27 731.12,-971.27 871.62,-971.27 871.62,-1003.27"/>
<text text-anchor="start" x="739.12" y="-989.77" font-family="Helvetica,sans-Serif" font-size="10.00">LSM1x0A_AtParser::waitFor</text>
<text text-anchor="middle" x="801.38" y="-977.77" font-family="Helvetica,sans-Serif" font-size="10.00">Event</text>
</a>
</g>
</g>
<!-- Node6&#45;&gt;Node7 -->
<g id="edge6_Node000006_Node000007" class="edge">
<title>Node6&#45;&gt;Node7</title>
<g id="a_edge6_Node000006_Node000007"><a xlink:title=" ">
<path fill="none" stroke="#63b8ff" d="M642.73,-987.27C665.92,-987.27 693.72,-987.27 719.46,-987.27"/>
<polygon fill="#63b8ff" stroke="#63b8ff" points="719.22,-990.77 729.22,-987.27 719.22,-983.77 719.22,-990.77"/>
</a>
</g>
</g>
<!-- Node9 -->
<g id="Node000009" class="node">
<title>Node9</title>
<g id="a_Node000009"><a xlink:href="../../d5/d72/classLSM1x0A__LoRaWAN.html#a59f781f3cfd30c11cd3973bcb10a7baa" target="_top" xlink:title="Initiates a LoRaWAN Network Join procedure. This is a blocking function until the module fires an eve...">
<polygon fill="white" stroke="#666666" points="867.12,-953.27 735.62,-953.27 735.62,-933.27 867.12,-933.27 867.12,-953.27"/>
<text text-anchor="middle" x="801.38" y="-939.77" font-family="Helvetica,sans-Serif" font-size="10.00">LSM1x0A_LoRaWAN::join</text>
</a>
</g>
</g>
<!-- Node8&#45;&gt;Node9 -->
<g id="edge9_Node000008_Node000009" class="edge">
<title>Node8&#45;&gt;Node9</title>
<g id="a_edge9_Node000008_Node000009"><a xlink:title=" ">
<path fill="none" stroke="#63b8ff" d="M664.04,-914.72C688.63,-919.87 715.74,-925.55 739.26,-930.48"/>
<polygon fill="#63b8ff" stroke="#63b8ff" points="738.51,-933.89 749.01,-932.52 739.94,-927.04 738.51,-933.89"/>
</a>
</g>
</g>
<!-- Node9&#45;&gt;Node1 -->
<g id="edge13_Node000009_Node000001" class="edge">
<title>Node9&#45;&gt;Node1</title>
<g id="a_edge13_Node000009_Node000001"><a xlink:title=" ">
<path fill="none" stroke="#63b8ff" d="M735.43,-946.18C724.05,-949.31 713.11,-954.34 704.5,-962.27 661.65,-1001.72 715,-1053.2 668.5,-1088.27 612.26,-1130.69 577.7,-1107.74 510,-1088.27 319.38,-1033.47 157.51,-835.27 110.07,-772.49"/>
<polygon fill="#63b8ff" stroke="#63b8ff" points="113.14,-770.75 104.36,-764.83 107.53,-774.94 113.14,-770.75"/>
</a>
</g>
</g>
<!-- Node9&#45;&gt;Node3 -->
<g id="edge12_Node000009_Node000003" class="edge">
<title>Node9&#45;&gt;Node3</title>
<g id="a_edge12_Node000009_Node000003"><a xlink:title=" ">
<path fill="none" stroke="#63b8ff" d="M790.89,-932.94C770.6,-911.49 720.58,-861.98 668.5,-836.27 603.54,-804.21 574.84,-830.58 510,-798.27 436.81,-761.81 417.42,-746.42 368,-681.27 326.65,-626.76 299.76,-549.77 287.57,-509.4"/>
<polygon fill="#63b8ff" stroke="#63b8ff" points="290.99,-508.63 284.81,-500.02 284.27,-510.6 290.99,-508.63"/>
</a>
</g>
</g>
<!-- Node9&#45;&gt;Node4 -->
<g id="edge11_Node000009_Node000004" class="edge">
<title>Node9&#45;&gt;Node4</title>
<g id="a_edge11_Node000009_Node000004"><a xlink:title=" ">
<path fill="none" stroke="#63b8ff" d="M735.33,-942.94C676.17,-941.7 586.67,-937.52 510,-924.27 501.42,-922.79 492.47,-920.8 483.72,-918.58"/>
<polygon fill="#63b8ff" stroke="#63b8ff" points="484.79,-915.24 474.23,-916.05 482.99,-922.01 484.79,-915.24"/>
</a>
</g>
</g>
<!-- Node9&#45;&gt;Node5 -->
<g id="edge10_Node000009_Node000005" class="edge">
<title>Node9&#45;&gt;Node5</title>
<g id="a_edge10_Node000009_Node000005"><a xlink:title=" ">
<path fill="none" stroke="#63b8ff" d="M864.44,-953.75C875.78,-956.18 887.44,-959.02 898.25,-962.27 924.29,-970.1 952.44,-981.42 975.14,-991.31"/>
<polygon fill="#63b8ff" stroke="#63b8ff" points="973.54,-994.43 984.11,-995.27 976.37,-988.03 973.54,-994.43"/>
</a>
</g>
</g>
<!-- Node10 -->
<g id="Node000010" class="node">
<title>Node10</title>
<g id="a_Node000010"><a xlink:href="../../d8/d92/classLSM1x0A__Controller.html#a62476e30e50c7fe120aeb8df4b828675" target="_top" xlink:title="Synchronously/blockingly waits for an asynchronous event to occur. Useful for wrapping commands like ...">
<polygon fill="white" stroke="#666666" points="1074.38,-959.27 968.38,-959.27 968.38,-927.27 1074.38,-927.27 1074.38,-959.27"/>
<text text-anchor="start" x="976.38" y="-945.77" font-family="Helvetica,sans-Serif" font-size="10.00">LSM1x0A_Controller</text>
<text text-anchor="middle" x="1021.38" y="-933.77" font-family="Helvetica,sans-Serif" font-size="10.00">::waitForEvent</text>
</a>
</g>
</g>
<!-- Node9&#45;&gt;Node10 -->
<g id="edge14_Node000009_Node000010" class="edge">
<title>Node9&#45;&gt;Node10</title>
<g id="a_edge14_Node000009_Node000010"><a xlink:title=" ">
<path fill="none" stroke="#63b8ff" d="M867.49,-943.27C895.72,-943.27 928.66,-943.27 956.72,-943.27"/>
<polygon fill="#63b8ff" stroke="#63b8ff" points="956.51,-946.77 966.51,-943.27 956.51,-939.77 956.51,-946.77"/>
</a>
</g>
</g>
<!-- Node11&#45;&gt;Node1 -->
<g id="edge20_Node000011_Node000001" class="edge">
<title>Node11&#45;&gt;Node1</title>
<g id="a_edge20_Node000011_Node000001"><a xlink:title=" ">
<path fill="none" stroke="#63b8ff" d="M515.76,-377.92C436.16,-378.08 308.69,-390.14 226,-457.27 136.45,-529.96 106.9,-676.68 98.73,-731.74"/>
<polygon fill="#63b8ff" stroke="#63b8ff" points="95.3,-730.98 97.4,-741.36 102.23,-731.94 95.3,-730.98"/>
</a>
</g>
</g>
<!-- Node12 -->
<g id="Node000012" class="node">
<title>Node12</title>
<g id="a_Node000012"><a xlink:href="../../d5/d72/classLSM1x0A__LoRaWAN.html#af0baa3db4c7fab580d6b19a9e92472f6" target="_top" xlink:title="Enables or disables Adaptive Data Rate (ADR).">
<polygon fill="white" stroke="#666666" points="877.25,-575.27 725.5,-575.27 725.5,-555.27 877.25,-555.27 877.25,-575.27"/>
<text text-anchor="middle" x="801.38" y="-561.77" font-family="Helvetica,sans-Serif" font-size="10.00">LSM1x0A_LoRaWAN::setADR</text>
</a>
</g>
</g>
<!-- Node11&#45;&gt;Node12 -->
<g id="edge16_Node000011_Node000012" class="edge">
<title>Node11&#45;&gt;Node12</title>
<g id="a_edge16_Node000011_Node000012"><a xlink:title=" ">
<path fill="none" stroke="#63b8ff" d="M596.51,-397.53C610.39,-431.21 647.1,-508.63 704.5,-546.27 707.79,-548.43 711.28,-550.36 714.89,-552.07"/>
<polygon fill="#63b8ff" stroke="#63b8ff" points="713.38,-555.23 723.96,-555.79 716.03,-548.76 713.38,-555.23"/>
</a>
</g>
</g>
<!-- Node13 -->
<g id="Node000013" class="node">
<title>Node13</title>
<g id="a_Node000013"><a xlink:href="../../d5/d72/classLSM1x0A__LoRaWAN.html#a5365ed1596eb84ebf1e3b33b4a10c788" target="_top" xlink:title="Sets the LoRaWAN operational frequency band.">
<polygon fill="white" stroke="#666666" points="877.62,-537.27 725.12,-537.27 725.12,-517.27 877.62,-517.27 877.62,-537.27"/>
<text text-anchor="middle" x="801.38" y="-523.77" font-family="Helvetica,sans-Serif" font-size="10.00">LSM1x0A_LoRaWAN::setBand</text>
</a>
</g>
</g>
<!-- Node11&#45;&gt;Node13 -->
<g id="edge18_Node000011_Node000013" class="edge">
<title>Node11&#45;&gt;Node13</title>
<g id="a_edge18_Node000011_Node000013"><a xlink:title=" ">
<path fill="none" stroke="#63b8ff" d="M599.89,-397.56C617.13,-425.14 656.03,-480.72 704.5,-508.27 707.67,-510.08 710.99,-511.71 714.4,-513.19"/>
<polygon fill="#63b8ff" stroke="#63b8ff" points="712.88,-516.36 723.47,-516.65 715.37,-509.82 712.88,-516.36"/>
</a>
</g>
</g>
<!-- Node14 -->
<g id="Node000014" class="node">
<title>Node14</title>
<g id="a_Node000014"><a xlink:href="../../d5/d72/classLSM1x0A__LoRaWAN.html#a9d9285c43414337a0ccb3a6cd7ca06e6" target="_top" xlink:title="Configures the number of retries for Confirmed uplinks.">
<polygon fill="white" stroke="#666666" points="883.62,-499.27 719.12,-499.27 719.12,-467.27 883.62,-467.27 883.62,-499.27"/>
<text text-anchor="start" x="727.12" y="-485.77" font-family="Helvetica,sans-Serif" font-size="10.00">LSM1x0A_LoRaWAN::setConfirm</text>
<text text-anchor="middle" x="801.38" y="-473.77" font-family="Helvetica,sans-Serif" font-size="10.00">Retry</text>
</a>
</g>
</g>
<!-- Node11&#45;&gt;Node14 -->
<g id="edge21_Node000011_Node000014" class="edge">
<title>Node11&#45;&gt;Node14</title>
<g id="a_edge21_Node000011_Node000014"><a xlink:title=" ">
<path fill="none" stroke="#63b8ff" d="M610.06,-397.71C631.91,-415.07 668.75,-442.13 704.5,-458.27 708.25,-459.97 712.13,-461.56 716.09,-463.06"/>
<polygon fill="#63b8ff" stroke="#63b8ff" points="714.7,-466.28 725.3,-466.31 717.03,-459.68 714.7,-466.28"/>
</a>
</g>
</g>
<!-- Node15 -->
<g id="Node000015" class="node">
<title>Node15</title>
<g id="a_Node000015"><a xlink:href="../../d5/d72/classLSM1x0A__LoRaWAN.html#a56345ceeafa0b9059d6de4e69eddc82e" target="_top" xlink:title="Sets the Data Rate (DR) of the module.">
<polygon fill="white" stroke="#666666" points="887.38,-449.27 715.38,-449.27 715.38,-429.27 887.38,-429.27 887.38,-449.27"/>
<text text-anchor="middle" x="801.38" y="-435.77" font-family="Helvetica,sans-Serif" font-size="10.00">LSM1x0A_LoRaWAN::setDataRate</text>
</a>
</g>
</g>
<!-- Node11&#45;&gt;Node15 -->
<g id="edge23_Node000011_Node000015" class="edge">
<title>Node11&#45;&gt;Node15</title>
<g id="a_edge23_Node000011_Node000015"><a xlink:title=" ">
<path fill="none" stroke="#63b8ff" d="M634.05,-397.75C655.14,-405.3 680.92,-413.94 704.5,-420.27 712.65,-422.46 721.25,-424.52 729.81,-426.41"/>
<polygon fill="#63b8ff" stroke="#63b8ff" points="729.03,-429.82 739.54,-428.48 730.49,-422.97 729.03,-429.82"/>
</a>
</g>
</g>
<!-- Node16 -->
<g id="Node000016" class="node">
<title>Node16</title>
<g id="a_Node000016"><a xlink:href="../../d5/d72/classLSM1x0A__LoRaWAN.html#a8494083816ab885cb07fc3b08de029f4" target="_top" xlink:title="Sets the LoRaWAN Device Address (DevAddr) for ABP mode.">
<polygon fill="white" stroke="#666666" points="885.5,-411.27 717.25,-411.27 717.25,-391.27 885.5,-391.27 885.5,-411.27"/>
<text text-anchor="middle" x="801.38" y="-397.77" font-family="Helvetica,sans-Serif" font-size="10.00">LSM1x0A_LoRaWAN::setDevAddr</text>
</a>
</g>
</g>
<!-- Node11&#45;&gt;Node16 -->
<g id="edge25_Node000011_Node000016" class="edge">
<title>Node11&#45;&gt;Node16</title>
<g id="a_edge25_Node000011_Node000016"><a xlink:title=" ">
<path fill="none" stroke="#63b8ff" d="M662.86,-388.18C676.62,-389.49 691.2,-390.88 705.53,-392.25"/>
<polygon fill="#63b8ff" stroke="#63b8ff" points="705.15,-395.73 715.44,-393.19 705.81,-388.76 705.15,-395.73"/>
</a>
</g>
</g>
<!-- Node17 -->
<g id="Node000017" class="node">
<title>Node17</title>
<g id="a_Node000017"><a xlink:href="../../d5/d72/classLSM1x0A__LoRaWAN.html#ad320634e52d7ea907043cc50dd37c5b0" target="_top" xlink:title="Sets the LoRaWAN Device EUI (DevEUI).">
<polygon fill="white" stroke="#666666" points="884,-373.27 718.75,-373.27 718.75,-353.27 884,-353.27 884,-373.27"/>
<text text-anchor="middle" x="801.38" y="-359.77" font-family="Helvetica,sans-Serif" font-size="10.00">LSM1x0A_LoRaWAN::setDevEUI</text>
</a>
</g>
</g>
<!-- Node11&#45;&gt;Node17 -->
<g id="edge27_Node000011_Node000017" class="edge">
<title>Node11&#45;&gt;Node17</title>
<g id="a_edge27_Node000011_Node000017"><a xlink:title=" ">
<path fill="none" stroke="#63b8ff" d="M662.86,-375.05C677.13,-373.83 692.29,-372.53 707.13,-371.26"/>
<polygon fill="#63b8ff" stroke="#63b8ff" points="707.23,-374.77 716.89,-370.42 706.63,-367.79 707.23,-374.77"/>
</a>
</g>
</g>
<!-- Node18 -->
<g id="Node000018" class="node">
<title>Node18</title>
<g id="a_Node000018"><a xlink:href="../../d5/d72/classLSM1x0A__LoRaWAN.html#a031023b0d2dd5db3c51c2db6ae7801cc" target="_top" xlink:title="Enables or disables the Duty Cycle limitation (EU regions mostly).">
<polygon fill="white" stroke="#666666" points="876.88,-335.27 725.88,-335.27 725.88,-303.27 876.88,-303.27 876.88,-335.27"/>
<text text-anchor="start" x="733.88" y="-321.77" font-family="Helvetica,sans-Serif" font-size="10.00">LSM1x0A_LoRaWAN::setDuty</text>
<text text-anchor="middle" x="801.38" y="-309.77" font-family="Helvetica,sans-Serif" font-size="10.00">Cycle</text>
</a>
</g>
</g>
<!-- Node11&#45;&gt;Node18 -->
<g id="edge29_Node000011_Node000018" class="edge">
<title>Node11&#45;&gt;Node18</title>
<g id="a_edge29_Node000011_Node000018"><a xlink:title=" ">
<path fill="none" stroke="#63b8ff" d="M638.98,-364.8C659.17,-358.16 682.89,-350.59 704.5,-344.27 711,-342.37 717.77,-340.47 724.57,-338.6"/>
<polygon fill="#63b8ff" stroke="#63b8ff" points="725.06,-342.1 733.79,-336.11 723.22,-335.34 725.06,-342.1"/>
</a>
</g>
</g>
<!-- Node19 -->
<g id="Node000019" class="node">
<title>Node19</title>
<g id="a_Node000019"><a xlink:href="../../d5/d72/classLSM1x0A__LoRaWAN.html#a6b179d5825c49af0f391dfc539912f64" target="_top" xlink:title="Sets the delay for the Join1 receive window.">
<polygon fill="white" stroke="#666666" points="878,-285.27 724.75,-285.27 724.75,-253.27 878,-253.27 878,-285.27"/>
<text text-anchor="start" x="732.75" y="-271.77" font-family="Helvetica,sans-Serif" font-size="10.00">LSM1x0A_LoRaWAN::setJoin1</text>
<text text-anchor="middle" x="801.38" y="-259.77" font-family="Helvetica,sans-Serif" font-size="10.00">Delay</text>
</a>
</g>
</g>
<!-- Node11&#45;&gt;Node19 -->
<g id="edge31_Node000011_Node000019" class="edge">
<title>Node11&#45;&gt;Node19</title>
<g id="a_edge31_Node000011_Node000019"><a xlink:title=" ">
<path fill="none" stroke="#63b8ff" d="M606.99,-365.04C628.07,-345.48 666.17,-312.93 704.5,-294.27 707.79,-292.67 711.19,-291.17 714.66,-289.75"/>
<polygon fill="#63b8ff" stroke="#63b8ff" points="715.72,-293.09 723.85,-286.29 713.26,-286.54 715.72,-293.09"/>
</a>
</g>
</g>
<!-- Node20 -->
<g id="Node000020" class="node">
<title>Node20</title>
<g id="a_Node000020"><a xlink:href="../../d5/d72/classLSM1x0A__LoRaWAN.html#a4545d0caad41558cdb9bae8286b104d8" target="_top" xlink:title="Sets the delay for the Join2 receive window.">
<polygon fill="white" stroke="#666666" points="878,-235.27 724.75,-235.27 724.75,-203.27 878,-203.27 878,-235.27"/>
<text text-anchor="start" x="732.75" y="-221.77" font-family="Helvetica,sans-Serif" font-size="10.00">LSM1x0A_LoRaWAN::setJoin2</text>
<text text-anchor="middle" x="801.38" y="-209.77" font-family="Helvetica,sans-Serif" font-size="10.00">Delay</text>
</a>
</g>
</g>
<!-- Node11&#45;&gt;Node20 -->
<g id="edge33_Node000011_Node000020" class="edge">
<title>Node11&#45;&gt;Node20</title>
<g id="a_edge33_Node000011_Node000020"><a xlink:title=" ">
<path fill="none" stroke="#63b8ff" d="M599.21,-364.94C615.95,-335.99 654.81,-275.8 704.5,-244.27 707.62,-242.29 710.9,-240.47 714.28,-238.79"/>
<polygon fill="#63b8ff" stroke="#63b8ff" points="715.58,-242.04 723.29,-234.78 712.73,-235.64 715.58,-242.04"/>
</a>
</g>
</g>
<!-- Node21 -->
<g id="Node000021" class="node">
<title>Node21</title>
<g id="a_Node000021"><a xlink:href="../../d5/d72/classLSM1x0A__LoRaWAN.html#a06bd50723ec1eb7e144c9141b2ec86fc" target="_top" xlink:title="Sets the LoRaWAN Network ID (NetID).">
<polygon fill="white" stroke="#666666" points="881.75,-171.27 721,-171.27 721,-151.27 881.75,-151.27 881.75,-171.27"/>
<text text-anchor="middle" x="801.38" y="-157.77" font-family="Helvetica,sans-Serif" font-size="10.00">LSM1x0A_LoRaWAN::setNwkID</text>
</a>
</g>
</g>
<!-- Node11&#45;&gt;Node21 -->
<g id="edge35_Node000011_Node000021" class="edge">
<title>Node11&#45;&gt;Node21</title>
<g id="a_edge35_Node000011_Node000021"><a xlink:title=" ">
<path fill="none" stroke="#63b8ff" d="M595.84,-364.92C609,-328.83 645.34,-241.82 704.5,-194.27 714.48,-186.26 726.52,-180.13 738.65,-175.47"/>
<polygon fill="#63b8ff" stroke="#63b8ff" points="739.58,-178.85 747.85,-172.24 737.26,-172.25 739.58,-178.85"/>
</a>
</g>
</g>
<!-- Node22 -->
<g id="Node000022" class="node">
<title>Node22</title>
<g id="a_Node000022"><a xlink:href="../../d5/d72/classLSM1x0A__LoRaWAN.html#aa70ada64d28ecca216bb62268e502adf" target="_top" xlink:title="Sets the delay for the RX1 receive window.">
<polygon fill="white" stroke="#666666" points="888.12,-126.27 714.62,-126.27 714.62,-106.27 888.12,-106.27 888.12,-126.27"/>
<text text-anchor="middle" x="801.38" y="-112.77" font-family="Helvetica,sans-Serif" font-size="10.00">LSM1x0A_LoRaWAN::setRx1Delay</text>
</a>
</g>
</g>
<!-- Node11&#45;&gt;Node22 -->
<g id="edge37_Node000011_Node000022" class="edge">
<title>Node11&#45;&gt;Node22</title>
<g id="a_edge37_Node000011_Node000022"><a xlink:title=" ">
<path fill="none" stroke="#63b8ff" d="M593.17,-365.06C601.81,-321.87 631.37,-203.23 704.5,-142.27 709.89,-137.78 715.99,-134.06 722.43,-130.98"/>
<polygon fill="#63b8ff" stroke="#63b8ff" points="723.53,-134.31 731.4,-127.23 720.82,-127.86 723.53,-134.31"/>
</a>
</g>
</g>
<!-- Node23 -->
<g id="Node000023" class="node">
<title>Node23</title>
<g id="a_Node000023"><a xlink:href="../../d5/d72/classLSM1x0A__LoRaWAN.html#a2cf4eff0181b6107d082bccefa24217b" target="_top" xlink:title="Sets the Data Rate (DR) specifically for the RX2 window.">
<polygon fill="white" stroke="#666666" points="896.38,-86.27 706.38,-86.27 706.38,-66.27 896.38,-66.27 896.38,-86.27"/>
<text text-anchor="middle" x="801.38" y="-72.77" font-family="Helvetica,sans-Serif" font-size="10.00">LSM1x0A_LoRaWAN::setRx2DataRate</text>
</a>
</g>
</g>
<!-- Node11&#45;&gt;Node23 -->
<g id="edge39_Node000011_Node000023" class="edge">
<title>Node11&#45;&gt;Node23</title>
<g id="a_edge39_Node000011_Node000023"><a xlink:title=" ">
<path fill="none" stroke="#63b8ff" d="M591.63,-365.09C596.68,-316.35 618.67,-169.86 704.5,-97.27 706.72,-95.4 709.07,-93.68 711.52,-92.1"/>
<polygon fill="#63b8ff" stroke="#63b8ff" points="712.99,-95.28 720.11,-87.43 709.65,-89.13 712.99,-95.28"/>
</a>
</g>
</g>
<!-- Node24 -->
<g id="Node000024" class="node">
<title>Node24</title>
<g id="a_Node000024"><a xlink:href="../../d5/d72/classLSM1x0A__LoRaWAN.html#a42d2137b475b57e19d891a5f1ac93221" target="_top" xlink:title="Sets the delay for the RX2 receive window.">
<polygon fill="white" stroke="#666666" points="888.12,-45.27 714.62,-45.27 714.62,-25.27 888.12,-25.27 888.12,-45.27"/>
<text text-anchor="middle" x="801.38" y="-31.77" font-family="Helvetica,sans-Serif" font-size="10.00">LSM1x0A_LoRaWAN::setRx2Delay</text>
</a>
</g>
</g>
<!-- Node11&#45;&gt;Node24 -->
<g id="edge41_Node000011_Node000024" class="edge">
<title>Node11&#45;&gt;Node24</title>
<g id="a_edge41_Node000011_Node000024"><a xlink:title=" ">
<path fill="none" stroke="#63b8ff" d="M590.78,-364.84C593.42,-311.57 609.27,-142.27 704.5,-57.27 707.01,-55.03 709.7,-53.01 712.53,-51.18"/>
<polygon fill="#63b8ff" stroke="#63b8ff" points="714.18,-54.26 721.28,-46.4 710.83,-48.12 714.18,-54.26"/>
</a>
</g>
</g>
<!-- Node25 -->
<g id="Node000025" class="node">
<title>Node25</title>
<g id="a_Node000025"><a xlink:href="../../d5/d72/classLSM1x0A__LoRaWAN.html#a689f7dfda1dfeae11ea397c2ddf2ad37" target="_top" xlink:title="Sets the precise frequency for the RX2 window.">
<polygon fill="white" stroke="#666666" points="898.25,-701.27 704.5,-701.27 704.5,-681.27 898.25,-681.27 898.25,-701.27"/>
<text text-anchor="middle" x="801.38" y="-687.77" font-family="Helvetica,sans-Serif" font-size="10.00">LSM1x0A_LoRaWAN::setRx2Frequency</text>
</a>
</g>
</g>
<!-- Node11&#45;&gt;Node25 -->
<g id="edge43_Node000011_Node000025" class="edge">
<title>Node11&#45;&gt;Node25</title>
<g id="a_edge43_Node000011_Node000025"><a xlink:title=" ">
<path fill="none" stroke="#63b8ff" d="M591.39,-397.57C595.8,-447.34 616.21,-598.49 704.5,-672.27 705.64,-673.22 706.8,-674.13 708,-674.99"/>
<polygon fill="#63b8ff" stroke="#63b8ff" points="706.06,-677.91 716.43,-680.08 709.68,-671.92 706.06,-677.91"/>
</a>
</g>
</g>
<!-- Node26 -->
<g id="Node000026" class="node">
<title>Node26</title>
<g id="a_Node000026"><a xlink:href="../../d5/d72/classLSM1x0A__LoRaWAN.html#a1df10d7ae6bf45b537d28d3d5c4b88d7" target="_top" xlink:title="Sets the transmission power index.">
<polygon fill="white" stroke="#666666" points="885.88,-663.27 716.88,-663.27 716.88,-643.27 885.88,-643.27 885.88,-663.27"/>
<text text-anchor="middle" x="801.38" y="-649.77" font-family="Helvetica,sans-Serif" font-size="10.00">LSM1x0A_LoRaWAN::setTxPower</text>
</a>
</g>
</g>
<!-- Node11&#45;&gt;Node26 -->
<g id="edge45_Node000011_Node000026" class="edge">
<title>Node11&#45;&gt;Node26</title>
<g id="a_edge45_Node000011_Node000026"><a xlink:title=" ">
<path fill="none" stroke="#63b8ff" d="M592.46,-397.72C599.51,-443.26 625.81,-571.78 704.5,-634.27 705.83,-635.33 707.2,-636.33 708.61,-637.28"/>
<polygon fill="#63b8ff" stroke="#63b8ff" points="706.65,-640.19 717.07,-642.1 710.11,-634.11 706.65,-640.19"/>
</a>
</g>
</g>
<!-- Node27 -->
<g id="Node000027" class="node">
<title>Node27</title>
<g id="a_Node000027"><a xlink:href="../../d5/d72/classLSM1x0A__LoRaWAN.html#a059fd6a9356c4ecadd5a98294da5952d" target="_top" xlink:title="Configures the number of repetitions for Unconfirmed uplinks.">
<polygon fill="white" stroke="#666666" points="888.88,-625.27 713.88,-625.27 713.88,-593.27 888.88,-593.27 888.88,-625.27"/>
<text text-anchor="start" x="721.88" y="-611.77" font-family="Helvetica,sans-Serif" font-size="10.00">LSM1x0A_LoRaWAN::setUnconfirm</text>
<text text-anchor="middle" x="801.38" y="-599.77" font-family="Helvetica,sans-Serif" font-size="10.00">Retry</text>
</a>
</g>
</g>
<!-- Node11&#45;&gt;Node27 -->
<g id="edge47_Node000011_Node000027" class="edge">
<title>Node11&#45;&gt;Node27</title>
<g id="a_edge47_Node000011_Node000027"><a xlink:title=" ">
<path fill="none" stroke="#63b8ff" d="M594.64,-397.62C605.9,-436.36 639.64,-534.28 704.5,-584.27 705.82,-585.29 707.18,-586.27 708.57,-587.2"/>
<polygon fill="#63b8ff" stroke="#63b8ff" points="706.46,-590.03 716.86,-592.06 710,-583.99 706.46,-590.03"/>
</a>
</g>
</g>
<!-- Node12&#45;&gt;Node3 -->
<g id="edge17_Node000012_Node000003" class="edge">
<title>Node12&#45;&gt;Node3</title>
<g id="a_edge17_Node000012_Node000003"><a xlink:title=" ">
<path fill="none" stroke="#63b8ff" d="M725.19,-562.13C638.17,-557.22 491.04,-544.98 368,-515.27 354.74,-512.07 340.76,-507.44 327.94,-502.66"/>
<polygon fill="#63b8ff" stroke="#63b8ff" points="329.49,-499.5 318.9,-499.18 326.97,-506.04 329.49,-499.5"/>
</a>
</g>
</g>
<!-- Node13&#45;&gt;Node3 -->
<g id="edge19_Node000013_Node000003" class="edge">
<title>Node13&#45;&gt;Node3</title>
<g id="a_edge19_Node000013_Node000003"><a xlink:title=" ">
<path fill="none" stroke="#63b8ff" d="M724.82,-523.83C638.37,-519.44 492.67,-510.63 368,-496.27 360.17,-495.37 351.96,-494.27 343.85,-493.09"/>
<polygon fill="#63b8ff" stroke="#63b8ff" points="344.39,-489.63 333.98,-491.61 343.34,-496.56 344.39,-489.63"/>
</a>
</g>
</g>
<!-- Node14&#45;&gt;Node3 -->
<g id="edge22_Node000014_Node000003" class="edge">
<title>Node14&#45;&gt;Node3</title>
<g id="a_edge22_Node000014_Node000003"><a xlink:title=" ">
<path fill="none" stroke="#63b8ff" d="M718.85,-483.12C615.09,-482.92 438.03,-482.58 343.65,-482.4"/>
<polygon fill="#63b8ff" stroke="#63b8ff" points="343.8,-478.9 333.79,-482.38 343.78,-485.9 343.8,-478.9"/>
</a>
</g>
</g>
<!-- Node15&#45;&gt;Node3 -->
<g id="edge24_Node000015_Node000003" class="edge">
<title>Node15&#45;&gt;Node3</title>
<g id="a_edge24_Node000015_Node000003"><a xlink:title=" ">
<path fill="none" stroke="#63b8ff" d="M715.14,-446.32C610.86,-454.93 436.74,-469.32 343.51,-477.03"/>
<polygon fill="#63b8ff" stroke="#63b8ff" points="343.46,-473.52 333.79,-477.83 344.04,-480.49 343.46,-473.52"/>
</a>
</g>
</g>
<!-- Node16&#45;&gt;Node3 -->
<g id="edge26_Node000016_Node000003" class="edge">
<title>Node16&#45;&gt;Node3</title>
<g id="a_edge26_Node000016_Node000003"><a xlink:title=" ">
<path fill="none" stroke="#63b8ff" d="M717.15,-410.92C629.85,-421.54 488.79,-440.07 368,-462.27 360.05,-463.73 351.74,-465.42 343.53,-467.18"/>
<polygon fill="#63b8ff" stroke="#63b8ff" points="342.93,-463.72 333.91,-469.28 344.43,-470.56 342.93,-463.72"/>
</a>
</g>
</g>
<!-- Node17&#45;&gt;Node3 -->
<g id="edge28_Node000017_Node000003" class="edge">
<title>Node17&#45;&gt;Node3</title>
<g id="a_edge28_Node000017_Node000003"><a xlink:title=" ">
<path fill="none" stroke="#63b8ff" d="M742.58,-352.78C683.22,-344.1 588.65,-336.14 510,-356.27 432.05,-376.23 352.11,-428.68 310.08,-459.25"/>
<polygon fill="#63b8ff" stroke="#63b8ff" points="308.15,-456.32 302.18,-465.07 312.31,-461.96 308.15,-456.32"/>
</a>
</g>
</g>
<!-- Node18&#45;&gt;Node3 -->
<g id="edge30_Node000018_Node000003" class="edge">
<title>Node18&#45;&gt;Node3</title>
<g id="a_edge30_Node000018_Node000003"><a xlink:title=" ">
<path fill="none" stroke="#63b8ff" d="M725.77,-308.51C634.34,-299.25 478.04,-296.48 368,-364.27 332.46,-386.17 306.45,-428.15 292.28,-455.68"/>
<polygon fill="#63b8ff" stroke="#63b8ff" points="289.24,-453.93 287.94,-464.44 295.51,-457.04 289.24,-453.93"/>
</a>
</g>
</g>
<!-- Node19&#45;&gt;Node3 -->
<g id="edge32_Node000019_Node000003" class="edge">
<title>Node19&#45;&gt;Node3</title>
<g id="a_edge32_Node000019_Node000003"><a xlink:title=" ">
<path fill="none" stroke="#63b8ff" d="M724.56,-257.61C631.9,-247.58 474.36,-244.62 368,-318.27 320.78,-350.97 296.71,-417.34 286.4,-454.85"/>
<polygon fill="#63b8ff" stroke="#63b8ff" points="283.03,-453.91 283.91,-464.47 289.81,-455.66 283.03,-453.91"/>
</a>
</g>
</g>
<!-- Node20&#45;&gt;Node3 -->
<g id="edge34_Node000020_Node000003" class="edge">
<title>Node20&#45;&gt;Node3</title>
<g id="a_edge34_Node000020_Node000003"><a xlink:title=" ">
<path fill="none" stroke="#63b8ff" d="M724.36,-206.05C630.41,-194.21 470.44,-189.29 368,-269.27 308.8,-315.5 289.1,-408.47 282.81,-454.77"/>
<polygon fill="#63b8ff" stroke="#63b8ff" points="279.36,-454.14 281.61,-464.49 286.3,-455 279.36,-454.14"/>
</a>
</g>
</g>
<!-- Node21&#45;&gt;Node3 -->
<g id="edge36_Node000021_Node000003" class="edge">
<title>Node21&#45;&gt;Node3</title>
<g id="a_edge36_Node000021_Node000003"><a xlink:title=" ">
<path fill="none" stroke="#63b8ff" d="M744.98,-150.78C654.94,-137.1 476.05,-124.5 368,-214.27 294.46,-275.37 281.91,-399.15 280.09,-454.47"/>
<polygon fill="#63b8ff" stroke="#63b8ff" points="276.6,-454.2 279.87,-464.28 283.59,-454.36 276.6,-454.2"/>
</a>
</g>
</g>
<!-- Node22&#45;&gt;Node3 -->
<g id="edge38_Node000022_Node000003" class="edge">
<title>Node22&#45;&gt;Node3</title>
<g id="a_edge38_Node000022_Node000003"><a xlink:title=" ">
<path fill="none" stroke="#63b8ff" d="M758.19,-105.79C672.89,-87.33 478.66,-59.6 368,-157.27 322.74,-197.22 293.23,-384.28 283.52,-455.05"/>
<polygon fill="#63b8ff" stroke="#63b8ff" points="280.09,-454.24 282.23,-464.62 287.03,-455.17 280.09,-454.24"/>
</a>
</g>
</g>
<!-- Node23&#45;&gt;Node3 -->
<g id="edge40_Node000023_Node000003" class="edge">
<title>Node23&#45;&gt;Node3</title>
<g id="a_edge40_Node000023_Node000003"><a xlink:title=" ">
<path fill="none" stroke="#63b8ff" d="M705.92,-68.42C593.91,-61.29 416.26,-57.53 368,-100.27 314.33,-147.8 289.4,-375.83 282.25,-455.07"/>
<polygon fill="#63b8ff" stroke="#63b8ff" points="278.81,-454.28 281.42,-464.54 285.78,-454.89 278.81,-454.28"/>
</a>
</g>
</g>
<!-- Node24&#45;&gt;Node3 -->
<g id="edge42_Node000024_Node000003" class="edge">
<title>Node24&#45;&gt;Node3</title>
<g id="a_edge42_Node000024_Node000003"><a xlink:title=" ">
<path fill="none" stroke="#63b8ff" d="M763.96,-24.85C682.07,-3.84 481.67,33.63 368,-65.27 308.74,-116.83 287.24,-369.73 281.64,-454.51"/>
<polygon fill="#63b8ff" stroke="#63b8ff" points="278.14,-454.26 281,-464.46 285.13,-454.7 278.14,-454.26"/>
</a>
</g>
</g>
<!-- Node25&#45;&gt;Node3 -->
<g id="edge44_Node000025_Node000003" class="edge">
<title>Node25&#45;&gt;Node3</title>
<g id="a_edge44_Node000025_Node000003"><a xlink:title=" ">
<path fill="none" stroke="#63b8ff" d="M704.02,-694.15C609.81,-692.21 466.56,-676.07 368,-604.27 333.53,-579.16 307.22,-536.43 292.69,-508.79"/>
<polygon fill="#63b8ff" stroke="#63b8ff" points="295.88,-507.33 288.23,-500.01 289.64,-510.51 295.88,-507.33"/>
</a>
</g>
</g>
<!-- Node26&#45;&gt;Node3 -->
<g id="edge46_Node000026_Node000003" class="edge">
<title>Node26&#45;&gt;Node3</title>
<g id="a_edge46_Node000026_Node000003"><a xlink:title=" ">
<path fill="none" stroke="#63b8ff" d="M716.56,-652.21C625.3,-647.68 477.73,-630.29 368,-568.27 340.67,-552.83 315.72,-526.78 299.42,-507.39"/>
<polygon fill="#63b8ff" stroke="#63b8ff" points="302.14,-505.18 293.1,-499.65 296.72,-509.61 302.14,-505.18"/>
</a>
</g>
</g>
<!-- Node27&#45;&gt;Node3 -->
<g id="edge48_Node000027_Node000003" class="edge">
<title>Node27&#45;&gt;Node3</title>
<g id="a_edge48_Node000027_Node000003"><a xlink:title=" ">
<path fill="none" stroke="#63b8ff" d="M713.49,-605.88C624.13,-599.96 482.27,-583.74 368,-539.27 346.87,-531.05 325.47,-517.34 309.06,-505.42"/>
<polygon fill="#63b8ff" stroke="#63b8ff" points="311.34,-502.75 301.23,-499.57 307.15,-508.36 311.34,-502.75"/>
</a>
</g>
</g>
<!-- Node29&#45;&gt;Node30 -->
<g id="edge51_Node000029_Node000030" class="edge">
<title>Node29&#45;&gt;Node30</title>
<g id="a_edge51_Node000029_Node000030"><a xlink:title=" ">
<path fill="none" stroke="#63b8ff" d="M642.73,-767.78C660.89,-765.88 681.86,-763.68 702.47,-761.52"/>
<polygon fill="#63b8ff" stroke="#63b8ff" points="702.77,-765.01 712.35,-760.49 702.04,-758.05 702.77,-765.01"/>
</a>
</g>
</g>
<!-- Node31 -->
<g id="Node000031" class="node">
<title>Node31</title>
<g id="a_Node000031"><a xlink:href="../../d6/d3c/classLSM1x0A__AtParser.html#a0ba6f927c54fceece22c17773d3f2600" target="_top" xlink:title="Sends a command and extracts a value from the response.">
<polygon fill="white" stroke="#666666" points="1108.5,-767.27 934.25,-767.27 934.25,-735.27 1108.5,-735.27 1108.5,-767.27"/>
<text text-anchor="start" x="942.25" y="-753.77" font-family="Helvetica,sans-Serif" font-size="10.00">LSM1x0A_AtParser::sendCommand</text>
<text text-anchor="middle" x="1021.38" y="-741.77" font-family="Helvetica,sans-Serif" font-size="10.00">WithResponse</text>
</a>
</g>
</g>
<!-- Node30&#45;&gt;Node31 -->
<g id="edge52_Node000030_Node000031" class="edge">
<title>Node30&#45;&gt;Node31</title>
<g id="a_edge52_Node000030_Node000031"><a xlink:title=" ">
<path fill="none" stroke="#63b8ff" d="M888.85,-751.27C899.99,-751.27 911.47,-751.27 922.77,-751.27"/>
<polygon fill="#63b8ff" stroke="#63b8ff" points="922.49,-754.77 932.49,-751.27 922.49,-747.77 922.49,-754.77"/>
</a>
</g>
</g>
<!-- Node32 -->
<g id="Node000032" class="node">
<title>Node32</title>
<g id="a_Node000032"><a xlink:href="../../d5/d8b/classUartDriver.html#a5d0f22e8867eebe99273078bb19bd23d" target="_top" xlink:title="Sends data through UART.">
<polygon fill="white" stroke="#666666" points="1253.5,-761.27 1144.5,-761.27 1144.5,-741.27 1253.5,-741.27 1253.5,-761.27"/>
<text text-anchor="middle" x="1199" y="-747.77" font-family="Helvetica,sans-Serif" font-size="10.00">UartDriver::sendData</text>
</a>
</g>
</g>
<!-- Node31&#45;&gt;Node32 -->
<g id="edge53_Node000031_Node000032" class="edge">
<title>Node31&#45;&gt;Node32</title>
<g id="a_edge53_Node000031_Node000032"><a xlink:title=" ">
<path fill="none" stroke="#63b8ff" d="M1108.9,-751.27C1117.05,-751.27 1125.2,-751.27 1133.1,-751.27"/>
<polygon fill="#63b8ff" stroke="#63b8ff" points="1132.93,-754.77 1142.93,-751.27 1132.93,-747.77 1132.93,-754.77"/>
</a>
</g>
</g>
</g>
</svg>

<g id="navigator" transform="translate(0 0)" fill="#404254">
  <rect fill="#f2f5e9" fill-opacity="0.5" stroke="#606060" stroke-width=".5" x="0" y="0" width="60" height="60"/>
  <use id="zoomplus" xlink:href="#zoomPlus" x="17" y="9" onmousedown="handleZoom(evt,'in')"/>
  <use id="zoomminus" xlink:href="#zoomMin" x="42" y="9" onmousedown="handleZoom(evt,'out')"/>
  <use id="reset" xlink:href="#resetDef" x="30" y="36" onmousedown="handleReset()"/>
   <use id="arrowup" xlink:href="#arrowUp" x="0" y="0" onmousedown="handlePan(0,-1)"/>
  <use id="arrowright" xlink:href="#arrowRight" x="0" y="0" onmousedown="handlePan(1,0)"/>
  <use id="arrowdown" xlink:href="#arrowDown" x="0" y="0" onmousedown="handlePan(0,1)"/>
  <use id="arrowleft" xlink:href="#arrowLeft" x="0" y="0" onmousedown="handlePan(-1,0)"/>
</g>
<svg viewBox="0 0 15 15" width="100%" height="30px" preserveAspectRatio="xMaxYMin meet">
 <g id="arrow_out" transform="scale(0.3 0.3)">
  <a xlink:href="classLSM1x0A__LoRaWAN_a3fdd1ac318a5ad2559323e5d57e36a5e_cgraph_org.svg" target="_base">
   <rect id="button" ry="5" rx="5" y="6" x="6" height="38" width="38"
        fill="#f2f5e9" fill-opacity="0.5" stroke="#606060" stroke-width="1.0"/>
   <path id="arrow"
     d="M 11.500037,31.436501 C 11.940474,20.09759 22.043105,11.32322 32.158766,21.979434 L 37.068811,17.246167 C 37.068811,17.246167 37.088388,32 37.088388,32 L 22.160133,31.978069 C 22.160133,31.978069 26.997745,27.140456 26.997745,27.140456 C 18.528582,18.264221 13.291696,25.230495 11.500037,31.436501 z"
     style="fill:#404040;"/>
  </a>
 </g>
</svg>

<style type='text/css'>
<![CDATA[
[data-mouse-over-selected='false'] { opacity: 0.7; }
[data-mouse-over-selected='true']  { opacity: 1.0; }
]]>
</style>
<script type="application/ecmascript"><![CDATA[
document.addEventListener('DOMContentLoaded', (event) => {
  highlightEdges();
  highlightAdjacentNodes();
});
]]></script>
</svg>
