<?xml version="1.0" encoding="UTF-8" standalone="no"?>
<!DOCTYPE svg PUBLIC "-//W3C//DTD SVG 1.1//EN"
 "http://www.w3.org/Graphics/SVG/1.1/DTD/svg11.dtd">
<!-- Generated by graphviz version 12.2.1 (20241206.2353)
 -->
<!-- Title: LSM1x0A_LoRaWAN::getRx2DataRate Pages: 1 -->
<svg width="1889pt" height="1018pt"
 viewBox="0.00 0.00 1889.25 1018.48" xmlns="http://www.w3.org/2000/svg" xmlns:xlink="http://www.w3.org/1999/xlink">
<g id="graph0" class="graph" transform="scale(1 1) rotate(0) translate(4 1014.48)">
<title>LSM1x0A_LoRaWAN::getRx2DataRate</title>
<!-- Node1 -->
<g id="Node000001" class="node">
<title>Node1</title>
<g id="a_Node000001"><a xlink:title="Retrieves the Data Rate configured for the RX2 window.">
<polygon fill="#999999" stroke="#666666" points="190,-98 0,-98 0,-78 190,-78 190,-98"/>
<text text-anchor="middle" x="95" y="-84.5" font-family="Helvetica,sans-Serif" font-size="10.00">LSM1x0A_LoRaWAN::getRx2DataRate</text>
</a>
</g>
</g>
<!-- Node2 -->
<g id="Node000002" class="node">
<title>Node2</title>
<g id="a_Node000002"><a xlink:href="../../d8/d92/classLSM1x0A__Controller.html#ab00328d1be83aa51bce8c2a4f907c5f4" target="_top" xlink:title="Sends an AT command and captures its response in a text block. Ideal for getters (e....">
<polygon fill="white" stroke="#666666" points="378.5,-104 226,-104 226,-72 378.5,-72 378.5,-104"/>
<text text-anchor="start" x="234" y="-90.5" font-family="Helvetica,sans-Serif" font-size="10.00">LSM1x0A_Controller</text>
<text text-anchor="middle" x="302.25" y="-78.5" font-family="Helvetica,sans-Serif" font-size="10.00">::sendCommandWithResponse</text>
</a>
</g>
</g>
<!-- Node1&#45;&gt;Node2 -->
<g id="edge1_Node000001_Node000002" class="edge">
<title>Node1&#45;&gt;Node2</title>
<g id="a_edge1_Node000001_Node000002"><a xlink:title=" ">
<path fill="none" stroke="#63b8ff" d="M190.21,-88C198.31,-88 206.47,-88 214.5,-88"/>
<polygon fill="#63b8ff" stroke="#63b8ff" points="214.24,-91.5 224.24,-88 214.24,-84.5 214.24,-91.5"/>
</a>
</g>
</g>
<!-- Node3 -->
<g id="Node000003" class="node">
<title>Node3</title>
<g id="a_Node000003"><a xlink:href="../../d8/d92/classLSM1x0A__Controller.html#abb0eb380daa3dfb7acffb483c5db8e2b" target="_top" xlink:title="Executes the recovery protocol. First Soft&#45;Reset (ATZ), then Hard&#45;Reset if there is a pin.">
<polygon fill="white" stroke="#666666" points="520.5,-214 414.5,-214 414.5,-182 520.5,-182 520.5,-214"/>
<text text-anchor="start" x="422.5" y="-200.5" font-family="Helvetica,sans-Serif" font-size="10.00">LSM1x0A_Controller</text>
<text text-anchor="middle" x="467.5" y="-188.5" font-family="Helvetica,sans-Serif" font-size="10.00">::recoverModule</text>
</a>
</g>
</g>
<!-- Node2&#45;&gt;Node3 -->
<g id="edge2_Node000002_Node000003" class="edge">
<title>Node2&#45;&gt;Node3</title>
<g id="a_edge2_Node000002_Node000003"><a xlink:title=" ">
<path fill="none" stroke="#63b8ff" d="M327.69,-104.47C355.66,-123.32 401.64,-154.29 432.95,-175.39"/>
<polygon fill="#63b8ff" stroke="#63b8ff" points="430.66,-178.07 440.9,-180.75 434.57,-172.26 430.66,-178.07"/>
</a>
</g>
</g>
<!-- Node12 -->
<g id="Node000012" class="node">
<title>Node12</title>
<g id="a_Node000012"><a xlink:href="../../d6/d3c/classLSM1x0A__AtParser.html#a0ba6f927c54fceece22c17773d3f2600" target="_top" xlink:title="Sends a command and extracts a value from the response.">
<polygon fill="white" stroke="#666666" points="1736.25,-287 1562,-287 1562,-255 1736.25,-255 1736.25,-287"/>
<text text-anchor="start" x="1570" y="-273.5" font-family="Helvetica,sans-Serif" font-size="10.00">LSM1x0A_AtParser::sendCommand</text>
<text text-anchor="middle" x="1649.12" y="-261.5" font-family="Helvetica,sans-Serif" font-size="10.00">WithResponse</text>
</a>
</g>
</g>
<!-- Node2&#45;&gt;Node12 -->
<g id="edge57_Node000002_Node000012" class="edge">
<title>Node2&#45;&gt;Node12</title>
<g id="a_edge57_Node000002_Node000012"><a xlink:title=" ">
<path fill="none" stroke="#63b8ff" d="M339.69,-71.65C399.86,-46.21 524.29,0 634.75,0 634.75,0 634.75,0 1240.5,0 1417.44,0 1576.2,-179.26 1629.31,-246.19"/>
<polygon fill="#63b8ff" stroke="#63b8ff" points="1626.24,-247.95 1635.16,-253.67 1631.75,-243.64 1626.24,-247.95"/>
</a>
</g>
</g>
<!-- Node4 -->
<g id="Node000004" class="node">
<title>Node4</title>
<g id="a_Node000004"><a xlink:href="../../d8/d92/classLSM1x0A__Controller.html#a3f6f25b843fe4fb7042c544deae2ab16" target="_top" xlink:title="Manually clears bits from the internal EventGroup.">
<polygon fill="white" stroke="#666666" points="1083.38,-98 977.38,-98 977.38,-66 1083.38,-66 1083.38,-98"/>
<text text-anchor="start" x="985.38" y="-84.5" font-family="Helvetica,sans-Serif" font-size="10.00">LSM1x0A_Controller</text>
<text text-anchor="middle" x="1030.38" y="-72.5" font-family="Helvetica,sans-Serif" font-size="10.00">::clearEvents</text>
</a>
</g>
</g>
<!-- Node3&#45;&gt;Node4 -->
<g id="edge3_Node000003_Node000004" class="edge">
<title>Node3&#45;&gt;Node4</title>
<g id="a_edge3_Node000003_Node000004"><a xlink:title=" ">
<path fill="none" stroke="#63b8ff" d="M493.18,-181.53C510.23,-171 533.84,-158.03 556.5,-151 702.15,-105.82 747.23,-138.94 897.5,-113 920,-109.12 944.4,-103.72 966.02,-98.52"/>
<polygon fill="#63b8ff" stroke="#63b8ff" points="966.7,-101.96 975.58,-96.18 965.03,-95.16 966.7,-101.96"/>
</a>
</g>
</g>
<!-- Node5 -->
<g id="Node000005" class="node">
<title>Node5</title>
<g id="a_Node000005"><a xlink:href="../../d8/d92/classLSM1x0A__Controller.html#a345d4bd79fa16b18dc33a4ca788fe5f7" target="_top" xlink:title="Performs a hardware reset using the reset pin.">
<polygon fill="white" stroke="#666666" points="688.75,-104 582.75,-104 582.75,-72 688.75,-72 688.75,-104"/>
<text text-anchor="start" x="590.75" y="-90.5" font-family="Helvetica,sans-Serif" font-size="10.00">LSM1x0A_Controller</text>
<text text-anchor="middle" x="635.75" y="-78.5" font-family="Helvetica,sans-Serif" font-size="10.00">::hardwareReset</text>
</a>
</g>
</g>
<!-- Node3&#45;&gt;Node5 -->
<g id="edge4_Node000003_Node000005" class="edge">
<title>Node3&#45;&gt;Node5</title>
<g id="a_edge4_Node000003_Node000005"><a xlink:title=" ">
<path fill="none" stroke="#63b8ff" d="M482.96,-181.63C499.32,-163.93 527.49,-135.86 556.5,-118 561.77,-114.76 567.44,-111.77 573.24,-109.03"/>
<polygon fill="#63b8ff" stroke="#63b8ff" points="574.64,-112.24 582.38,-104.99 571.81,-105.83 574.64,-112.24"/>
</a>
</g>
</g>
<!-- Node7 -->
<g id="Node000007" class="node">
<title>Node7</title>
<g id="a_Node000007"><a xlink:href="../../d5/d72/classLSM1x0A__LoRaWAN.html#a1892801e37c8cd67d37c76108d6f7d49" target="_top" xlink:title="Validates if the device is currently Joined to the network. (Either confirmed by OTAA or statically a...">
<polygon fill="white" stroke="#666666" points="1315.75,-136 1163.25,-136 1163.25,-116 1315.75,-116 1315.75,-136"/>
<text text-anchor="middle" x="1239.5" y="-122.5" font-family="Helvetica,sans-Serif" font-size="10.00">LSM1x0A_LoRaWAN::isJoined</text>
</a>
</g>
</g>
<!-- Node3&#45;&gt;Node7 -->
<g id="edge6_Node000003_Node000007" class="edge">
<title>Node3&#45;&gt;Node7</title>
<g id="a_edge6_Node000003_Node000007"><a xlink:title=" ">
<path fill="none" stroke="#63b8ff" d="M473.43,-181.77C483.49,-151.92 509.48,-88.97 556.5,-63 667.54,-1.69 1005.26,-22.24 1127.25,-57 1162.32,-66.99 1197.12,-91.56 1218.22,-108.51"/>
<polygon fill="#63b8ff" stroke="#63b8ff" points="1215.8,-111.05 1225.74,-114.72 1220.26,-105.65 1215.8,-111.05"/>
</a>
</g>
</g>
<!-- Node8 -->
<g id="Node000008" class="node">
<title>Node8</title>
<g id="a_Node000008"><a xlink:href="../../d5/d72/classLSM1x0A__LoRaWAN.html#a83e11c0e74ff9e0757db616ab1163424" target="_top" xlink:title="Attempts to recover a lost connection (re&#45;executes OTAA Join if dropped).">
<polygon fill="white" stroke="#666666" points="710.12,-192 561.38,-192 561.38,-160 710.12,-160 710.12,-192"/>
<text text-anchor="start" x="569.38" y="-178.5" font-family="Helvetica,sans-Serif" font-size="10.00">LSM1x0A_LoRaWAN::recover</text>
<text text-anchor="middle" x="635.75" y="-166.5" font-family="Helvetica,sans-Serif" font-size="10.00">Connection</text>
</a>
</g>
</g>
<!-- Node3&#45;&gt;Node8 -->
<g id="edge7_Node000003_Node000008" class="edge">
<title>Node3&#45;&gt;Node8</title>
<g id="a_edge7_Node000003_Node000008"><a xlink:title=" ">
<path fill="none" stroke="#63b8ff" d="M520.65,-191.1C529.99,-189.86 539.94,-188.55 549.92,-187.23"/>
<polygon fill="#63b8ff" stroke="#63b8ff" points="550.22,-190.72 559.67,-185.94 549.3,-183.78 550.22,-190.72"/>
</a>
</g>
</g>
<!-- Node16 -->
<g id="Node000016" class="node">
<title>Node16</title>
<g id="a_Node000016"><a xlink:href="../../d5/d72/classLSM1x0A__LoRaWAN.html#ae3be4ce59dfa200369733317df356e97" target="_top" xlink:title="Pushes the RAM&#45;cached variables back down into the hardware module. Restores the operational state af...">
<polygon fill="white" stroke="#666666" points="897.5,-539 751,-539 751,-507 897.5,-507 897.5,-539"/>
<text text-anchor="start" x="759" y="-525.5" font-family="Helvetica,sans-Serif" font-size="10.00">LSM1x0A_LoRaWAN::restore</text>
<text text-anchor="middle" x="824.25" y="-513.5" font-family="Helvetica,sans-Serif" font-size="10.00">Config</text>
</a>
</g>
</g>
<!-- Node3&#45;&gt;Node16 -->
<g id="edge20_Node000003_Node000016" class="edge">
<title>Node3&#45;&gt;Node16</title>
<g id="a_edge20_Node000003_Node000016"><a xlink:title=" ">
<path fill="none" stroke="#63b8ff" d="M486.09,-214.12C544.01,-267.18 728.94,-436.6 797.42,-499.34"/>
<polygon fill="#63b8ff" stroke="#63b8ff" points="794.7,-501.59 804.44,-505.76 799.43,-496.43 794.7,-501.59"/>
</a>
</g>
</g>
<!-- Node33 -->
<g id="Node000033" class="node">
<title>Node33</title>
<g id="a_Node000033"><a xlink:href="../../d5/d72/classLSM1x0A__LoRaWAN.html#ace4b04396f1de1f4a54f513f5f378db7" target="_top" xlink:title="Manually overrides the internal joined state tracker.">
<polygon fill="white" stroke="#666666" points="715,-939 556.5,-939 556.5,-919 715,-919 715,-939"/>
<text text-anchor="middle" x="635.75" y="-925.5" font-family="Helvetica,sans-Serif" font-size="10.00">LSM1x0A_LoRaWAN::setJoined</text>
</a>
</g>
</g>
<!-- Node3&#45;&gt;Node33 -->
<g id="edge54_Node000003_Node000033" class="edge">
<title>Node3&#45;&gt;Node33</title>
<g id="a_edge54_Node000003_Node000033"><a xlink:title=" ">
<path fill="none" stroke="#63b8ff" d="M468.22,-214.4C466.9,-310.08 464.83,-795.83 556.5,-905 558.92,-907.88 561.68,-910.43 564.68,-912.67"/>
<polygon fill="#63b8ff" stroke="#63b8ff" points="562.66,-915.54 573.02,-917.75 566.3,-909.56 562.66,-915.54"/>
</a>
</g>
</g>
<!-- Node34 -->
<g id="Node000034" class="node">
<title>Node34</title>
<g id="a_Node000034"><a xlink:href="../../d8/d92/classLSM1x0A__Controller.html#a11ad21cb5ca33ec51346764a23bd485e" target="_top" xlink:title="Performs a software reset (ATZ Command).">
<polygon fill="white" stroke="#666666" points="1292.5,-795 1186.5,-795 1186.5,-763 1292.5,-763 1292.5,-795"/>
<text text-anchor="start" x="1194.5" y="-781.5" font-family="Helvetica,sans-Serif" font-size="10.00">LSM1x0A_Controller</text>
<text text-anchor="middle" x="1239.5" y="-769.5" font-family="Helvetica,sans-Serif" font-size="10.00">::softwareReset</text>
</a>
</g>
</g>
<!-- Node3&#45;&gt;Node34 -->
<g id="edge55_Node000003_Node000034" class="edge">
<title>Node3&#45;&gt;Node34</title>
<g id="a_edge55_Node000003_Node000034"><a xlink:title=" ">
<path fill="none" stroke="#63b8ff" d="M469.14,-214.18C473.41,-318.83 499.5,-897.3 556.5,-948 621.69,-1005.99 889.64,-1058.87 1127.25,-932 1178.71,-904.52 1212.32,-841.52 1228.07,-805.51"/>
<polygon fill="#63b8ff" stroke="#63b8ff" points="1231.14,-807.25 1231.8,-796.67 1224.69,-804.53 1231.14,-807.25"/>
</a>
</g>
</g>
<!-- Node6 -->
<g id="Node000006" class="node">
<title>Node6</title>
<g id="a_Node000006"><a xlink:href="../../d6/d3c/classLSM1x0A__AtParser.html#ad2839120da13e56132b95019419be1e5" target="_top" xlink:title="Waits for an event (like BOOTALERT) without sending any command. Useful for hardware reset where the ...">
<polygon fill="white" stroke="#666666" points="894.5,-104 754,-104 754,-72 894.5,-72 894.5,-104"/>
<text text-anchor="start" x="762" y="-90.5" font-family="Helvetica,sans-Serif" font-size="10.00">LSM1x0A_AtParser::waitFor</text>
<text text-anchor="middle" x="824.25" y="-78.5" font-family="Helvetica,sans-Serif" font-size="10.00">Event</text>
</a>
</g>
</g>
<!-- Node5&#45;&gt;Node6 -->
<g id="edge5_Node000005_Node000006" class="edge">
<title>Node5&#45;&gt;Node6</title>
<g id="a_edge5_Node000005_Node000006"><a xlink:title=" ">
<path fill="none" stroke="#63b8ff" d="M689.2,-88C705.71,-88 724.36,-88 742.37,-88"/>
<polygon fill="#63b8ff" stroke="#63b8ff" points="742.28,-91.5 752.28,-88 742.28,-84.5 742.28,-91.5"/>
</a>
</g>
</g>
<!-- Node9 -->
<g id="Node000009" class="node">
<title>Node9</title>
<g id="a_Node000009"><a xlink:href="../../d5/d72/classLSM1x0A__LoRaWAN.html#a59f781f3cfd30c11cd3973bcb10a7baa" target="_top" xlink:title="Initiates a LoRaWAN Network Join procedure. This is a blocking function until the module fires an eve...">
<polygon fill="white" stroke="#666666" points="890,-186 758.5,-186 758.5,-166 890,-166 890,-186"/>
<text text-anchor="middle" x="824.25" y="-172.5" font-family="Helvetica,sans-Serif" font-size="10.00">LSM1x0A_LoRaWAN::join</text>
</a>
</g>
</g>
<!-- Node8&#45;&gt;Node9 -->
<g id="edge8_Node000008_Node000009" class="edge">
<title>Node8&#45;&gt;Node9</title>
<g id="a_edge8_Node000008_Node000009"><a xlink:title=" ">
<path fill="none" stroke="#63b8ff" d="M710.46,-176C722.42,-176 734.83,-176 746.85,-176"/>
<polygon fill="#63b8ff" stroke="#63b8ff" points="746.72,-179.5 756.72,-176 746.72,-172.5 746.72,-179.5"/>
</a>
</g>
</g>
<!-- Node9&#45;&gt;Node3 -->
<g id="edge10_Node000009_Node000003" class="edge">
<title>Node9&#45;&gt;Node3</title>
<g id="a_edge10_Node000009_Node000003"><a xlink:title=" ">
<path fill="none" stroke="#63b8ff" d="M787.52,-186.4C766.59,-191.95 739.53,-198.2 715,-201 645.01,-208.98 626.93,-202.2 556.5,-201 548.6,-200.87 540.31,-200.66 532.11,-200.43"/>
<polygon fill="#63b8ff" stroke="#63b8ff" points="532.23,-196.93 522.12,-200.12 532.01,-203.92 532.23,-196.93"/>
</a>
</g>
</g>
<!-- Node9&#45;&gt;Node4 -->
<g id="edge9_Node000009_Node000004" class="edge">
<title>Node9&#45;&gt;Node4</title>
<g id="a_edge9_Node000009_Node000004"><a xlink:title=" ">
<path fill="none" stroke="#63b8ff" d="M858.8,-165.52C871.55,-160.68 885.81,-154.16 897.5,-146 916.84,-132.5 913.27,-119.13 933.5,-107 943.45,-101.03 954.81,-96.47 966.15,-93"/>
<polygon fill="#63b8ff" stroke="#63b8ff" points="966.82,-96.45 975.51,-90.39 964.94,-89.7 966.82,-96.45"/>
</a>
</g>
</g>
<!-- Node10 -->
<g id="Node000010" class="node">
<title>Node10</title>
<g id="a_Node000010"><a xlink:href="../../d8/d92/classLSM1x0A__Controller.html#afd7d92e60ed6fdae696a955cdbe0ed8c" target="_top" xlink:title="Sends any AT command to the module, returning error if it fails. Internally uses the LsmAtParser logi...">
<polygon fill="white" stroke="#666666" points="1292.5,-558 1186.5,-558 1186.5,-526 1292.5,-526 1292.5,-558"/>
<text text-anchor="start" x="1194.5" y="-544.5" font-family="Helvetica,sans-Serif" font-size="10.00">LSM1x0A_Controller</text>
<text text-anchor="middle" x="1239.5" y="-532.5" font-family="Helvetica,sans-Serif" font-size="10.00">::sendCommand</text>
</a>
</g>
</g>
<!-- Node9&#45;&gt;Node10 -->
<g id="edge11_Node000009_Node000010" class="edge">
<title>Node9&#45;&gt;Node10</title>
<g id="a_edge11_Node000009_Node000010"><a xlink:title=" ">
<path fill="none" stroke="#63b8ff" d="M890.28,-171.81C967.89,-168.2 1091.66,-167.28 1127.25,-195 1228.98,-274.23 1239.24,-447.25 1239.2,-514.5"/>
<polygon fill="#63b8ff" stroke="#63b8ff" points="1235.7,-514.23 1239.1,-524.26 1242.7,-514.3 1235.7,-514.23"/>
</a>
</g>
</g>
<!-- Node14 -->
<g id="Node000014" class="node">
<title>Node14</title>
<g id="a_Node000014"><a xlink:href="../../d5/d72/classLSM1x0A__LoRaWAN.html#a3fdd1ac318a5ad2559323e5d57e36a5e" target="_top" xlink:title="Enables or disables specific sub&#45;bands for regions supporting Channel Masks (e.g.,...">
<polygon fill="white" stroke="#666666" points="1125.38,-224 935.38,-224 935.38,-204 1125.38,-204 1125.38,-224"/>
<text text-anchor="middle" x="1030.38" y="-210.5" font-family="Helvetica,sans-Serif" font-size="10.00">LSM1x0A_LoRaWAN::setChannelMask</text>
</a>
</g>
</g>
<!-- Node9&#45;&gt;Node14 -->
<g id="edge16_Node000009_Node000014" class="edge">
<title>Node9&#45;&gt;Node14</title>
<g id="a_edge16_Node000009_Node000014"><a xlink:title=" ">
<path fill="none" stroke="#63b8ff" d="M881.57,-186.48C906.44,-191.12 935.89,-196.6 961.93,-201.44"/>
<polygon fill="#63b8ff" stroke="#63b8ff" points="961.28,-204.88 971.75,-203.27 962.56,-198 961.28,-204.88"/>
</a>
</g>
</g>
<!-- Node15 -->
<g id="Node000015" class="node">
<title>Node15</title>
<g id="a_Node000015"><a xlink:href="../../d8/d92/classLSM1x0A__Controller.html#a62476e30e50c7fe120aeb8df4b828675" target="_top" xlink:title="Synchronously/blockingly waits for an asynchronous event to occur. Useful for wrapping commands like ...">
<polygon fill="white" stroke="#666666" points="1083.38,-148 977.38,-148 977.38,-116 1083.38,-116 1083.38,-148"/>
<text text-anchor="start" x="985.38" y="-134.5" font-family="Helvetica,sans-Serif" font-size="10.00">LSM1x0A_Controller</text>
<text text-anchor="middle" x="1030.38" y="-122.5" font-family="Helvetica,sans-Serif" font-size="10.00">::waitForEvent</text>
</a>
</g>
</g>
<!-- Node9&#45;&gt;Node15 -->
<g id="edge19_Node000009_Node000015" class="edge">
<title>Node9&#45;&gt;Node15</title>
<g id="a_edge19_Node000009_Node000015"><a xlink:title=" ">
<path fill="none" stroke="#63b8ff" d="M873.88,-165.52C901.49,-159.57 936.36,-152.05 966.07,-145.65"/>
<polygon fill="#63b8ff" stroke="#63b8ff" points="966.67,-149.1 975.7,-143.57 965.19,-142.25 966.67,-149.1"/>
</a>
</g>
</g>
<!-- Node10&#45;&gt;Node3 -->
<g id="edge12_Node000010_Node000003" class="edge">
<title>Node10&#45;&gt;Node3</title>
<g id="a_edge12_Node000010_Node000003"><a xlink:title=" ">
<path fill="none" stroke="#63b8ff" d="M1232.07,-558.31C1218.31,-593.61 1185.41,-679.91 1163.25,-754 1143.98,-818.44 1180.17,-859.48 1127.25,-901 1059.5,-954.16 1009.94,-940.65 933.5,-901 646.18,-751.97 508.22,-335.66 476.02,-225.19"/>
<polygon fill="#63b8ff" stroke="#63b8ff" points="479.45,-224.47 473.33,-215.82 472.72,-226.4 479.45,-224.47"/>
</a>
</g>
</g>
<!-- Node11 -->
<g id="Node000011" class="node">
<title>Node11</title>
<g id="a_Node000011"><a xlink:href="../../d6/d3c/classLSM1x0A__AtParser.html#a29b53c521974387ba6c03afadfaffa4a" target="_top" xlink:title="Sends a simple command and waits for OK/ERROR. Example: sendCommand(&quot;AT+JOIN&quot;);.">
<polygon fill="white" stroke="#666666" points="1526,-552 1351.75,-552 1351.75,-532 1526,-532 1526,-552"/>
<text text-anchor="middle" x="1438.88" y="-538.5" font-family="Helvetica,sans-Serif" font-size="10.00">LSM1x0A_AtParser::sendCommand</text>
</a>
</g>
</g>
<!-- Node10&#45;&gt;Node11 -->
<g id="edge13_Node000010_Node000011" class="edge">
<title>Node10&#45;&gt;Node11</title>
<g id="a_edge13_Node000010_Node000011"><a xlink:title=" ">
<path fill="none" stroke="#63b8ff" d="M1292.87,-542C1307.44,-542 1323.75,-542 1340.03,-542"/>
<polygon fill="#63b8ff" stroke="#63b8ff" points="1339.76,-545.5 1349.76,-542 1339.76,-538.5 1339.76,-545.5"/>
</a>
</g>
</g>
<!-- Node11&#45;&gt;Node12 -->
<g id="edge14_Node000011_Node000012" class="edge">
<title>Node11&#45;&gt;Node12</title>
<g id="a_edge14_Node000011_Node000012"><a xlink:title=" ">
<path fill="none" stroke="#63b8ff" d="M1447.78,-531.71C1477.69,-492.78 1584.43,-353.88 1628.69,-296.3"/>
<polygon fill="#63b8ff" stroke="#63b8ff" points="1631.23,-298.73 1634.55,-288.67 1625.68,-294.46 1631.23,-298.73"/>
</a>
</g>
</g>
<!-- Node13 -->
<g id="Node000013" class="node">
<title>Node13</title>
<g id="a_Node000013"><a xlink:href="../../d5/d8b/classUartDriver.html#a5d0f22e8867eebe99273078bb19bd23d" target="_top" xlink:title="Sends data through UART.">
<polygon fill="white" stroke="#666666" points="1881.25,-281 1772.25,-281 1772.25,-261 1881.25,-261 1881.25,-281"/>
<text text-anchor="middle" x="1826.75" y="-267.5" font-family="Helvetica,sans-Serif" font-size="10.00">UartDriver::sendData</text>
</a>
</g>
</g>
<!-- Node12&#45;&gt;Node13 -->
<g id="edge15_Node000012_Node000013" class="edge">
<title>Node12&#45;&gt;Node13</title>
<g id="a_edge15_Node000012_Node000013"><a xlink:title=" ">
<path fill="none" stroke="#63b8ff" d="M1736.65,-271C1744.8,-271 1752.95,-271 1760.85,-271"/>
<polygon fill="#63b8ff" stroke="#63b8ff" points="1760.68,-274.5 1770.68,-271 1760.68,-267.5 1760.68,-274.5"/>
</a>
</g>
</g>
<!-- Node14&#45;&gt;Node7 -->
<g id="edge17_Node000014_Node000007" class="edge">
<title>Node14&#45;&gt;Node7</title>
<g id="a_edge17_Node000014_Node000007"><a xlink:title=" ">
<path fill="none" stroke="#63b8ff" d="M1055.95,-203.56C1092.54,-188.01 1161.53,-158.7 1203.42,-140.9"/>
<polygon fill="#63b8ff" stroke="#63b8ff" points="1204.73,-144.15 1212.57,-137.02 1201.99,-137.71 1204.73,-144.15"/>
</a>
</g>
</g>
<!-- Node14&#45;&gt;Node10 -->
<g id="edge18_Node000014_Node000010" class="edge">
<title>Node14&#45;&gt;Node10</title>
<g id="a_edge18_Node000014_Node000010"><a xlink:title=" ">
<path fill="none" stroke="#63b8ff" d="M1114.13,-224.28C1118.83,-226.69 1123.26,-229.57 1127.25,-233 1213.58,-307.27 1232.92,-453.75 1237.25,-514.55"/>
<polygon fill="#63b8ff" stroke="#63b8ff" points="1233.75,-514.57 1237.86,-524.33 1240.73,-514.13 1233.75,-514.57"/>
</a>
</g>
</g>
<!-- Node16&#45;&gt;Node14 -->
<g id="edge25_Node000016_Node000014" class="edge">
<title>Node16&#45;&gt;Node14</title>
<g id="a_edge25_Node000016_Node000014"><a xlink:title=" ">
<path fill="none" stroke="#63b8ff" d="M826.05,-506.78C829.43,-457.25 846.7,-306.79 933.5,-233 934.63,-232.04 935.79,-231.13 936.98,-230.25"/>
<polygon fill="#63b8ff" stroke="#63b8ff" points="938.67,-233.33 945.37,-225.12 935.02,-227.35 938.67,-233.33"/>
</a>
</g>
</g>
<!-- Node17 -->
<g id="Node000017" class="node">
<title>Node17</title>
<g id="a_Node000017"><a xlink:href="../../d5/d72/classLSM1x0A__LoRaWAN.html#af0baa3db4c7fab580d6b19a9e92472f6" target="_top" xlink:title="Enables or disables Adaptive Data Rate (ADR).">
<polygon fill="white" stroke="#666666" points="1106.25,-350 954.5,-350 954.5,-330 1106.25,-330 1106.25,-350"/>
<text text-anchor="middle" x="1030.38" y="-336.5" font-family="Helvetica,sans-Serif" font-size="10.00">LSM1x0A_LoRaWAN::setADR</text>
</a>
</g>
</g>
<!-- Node16&#45;&gt;Node17 -->
<g id="edge21_Node000016_Node000017" class="edge">
<title>Node16&#45;&gt;Node17</title>
<g id="a_edge21_Node000016_Node000017"><a xlink:title=" ">
<path fill="none" stroke="#63b8ff" d="M831.06,-506.6C843.85,-473 877.85,-396.38 933.5,-359 936.77,-356.8 940.23,-354.85 943.83,-353.11"/>
<polygon fill="#63b8ff" stroke="#63b8ff" points="944.98,-356.42 952.87,-349.35 942.29,-349.96 944.98,-356.42"/>
</a>
</g>
</g>
<!-- Node18 -->
<g id="Node000018" class="node">
<title>Node18</title>
<g id="a_Node000018"><a xlink:href="../../d5/d72/classLSM1x0A__LoRaWAN.html#a5365ed1596eb84ebf1e3b33b4a10c788" target="_top" xlink:title="Sets the LoRaWAN operational frequency band.">
<polygon fill="white" stroke="#666666" points="1106.62,-312 954.12,-312 954.12,-292 1106.62,-292 1106.62,-312"/>
<text text-anchor="middle" x="1030.38" y="-298.5" font-family="Helvetica,sans-Serif" font-size="10.00">LSM1x0A_LoRaWAN::setBand</text>
</a>
</g>
</g>
<!-- Node16&#45;&gt;Node18 -->
<g id="edge23_Node000016_Node000018" class="edge">
<title>Node16&#45;&gt;Node18</title>
<g id="a_edge23_Node000016_Node000018"><a xlink:title=" ">
<path fill="none" stroke="#63b8ff" d="M828.97,-506.5C838.7,-467.43 868.74,-368.94 933.5,-321 936.66,-318.66 940.04,-316.58 943.57,-314.75"/>
<polygon fill="#63b8ff" stroke="#63b8ff" points="944.75,-318.05 952.47,-310.8 941.91,-311.66 944.75,-318.05"/>
</a>
</g>
</g>
<!-- Node19 -->
<g id="Node000019" class="node">
<title>Node19</title>
<g id="a_Node000019"><a xlink:href="../../d5/d72/classLSM1x0A__LoRaWAN.html#a9d9285c43414337a0ccb3a6cd7ca06e6" target="_top" xlink:title="Configures the number of retries for Confirmed uplinks.">
<polygon fill="white" stroke="#666666" points="1112.62,-274 948.12,-274 948.12,-242 1112.62,-242 1112.62,-274"/>
<text text-anchor="start" x="956.12" y="-260.5" font-family="Helvetica,sans-Serif" font-size="10.00">LSM1x0A_LoRaWAN::setConfirm</text>
<text text-anchor="middle" x="1030.38" y="-248.5" font-family="Helvetica,sans-Serif" font-size="10.00">Retry</text>
</a>
</g>
</g>
<!-- Node16&#45;&gt;Node19 -->
<g id="edge26_Node000016_Node000019" class="edge">
<title>Node16&#45;&gt;Node19</title>
<g id="a_edge26_Node000016_Node000019"><a xlink:title=" ">
<path fill="none" stroke="#63b8ff" d="M827.68,-506.7C835.05,-463.28 861.2,-344.03 933.5,-283 934.99,-281.74 936.54,-280.55 938.13,-279.41"/>
<polygon fill="#63b8ff" stroke="#63b8ff" points="939.75,-282.52 946.45,-274.32 936.1,-276.55 939.75,-282.52"/>
</a>
</g>
</g>
<!-- Node20 -->
<g id="Node000020" class="node">
<title>Node20</title>
<g id="a_Node000020"><a xlink:href="../../d5/d72/classLSM1x0A__LoRaWAN.html#a56345ceeafa0b9059d6de4e69eddc82e" target="_top" xlink:title="Sets the Data Rate (DR) of the module.">
<polygon fill="white" stroke="#666666" points="1116.38,-892 944.38,-892 944.38,-872 1116.38,-872 1116.38,-892"/>
<text text-anchor="middle" x="1030.38" y="-878.5" font-family="Helvetica,sans-Serif" font-size="10.00">LSM1x0A_LoRaWAN::setDataRate</text>
</a>
</g>
</g>
<!-- Node16&#45;&gt;Node20 -->
<g id="edge28_Node000016_Node000020" class="edge">
<title>Node16&#45;&gt;Node20</title>
<g id="a_edge28_Node000016_Node000020"><a xlink:title=" ">
<path fill="none" stroke="#63b8ff" d="M825.05,-539.16C825.29,-593.93 833.94,-774.06 933.5,-863 934.45,-863.85 935.42,-864.66 936.42,-865.44"/>
<polygon fill="#63b8ff" stroke="#63b8ff" points="934.45,-868.34 944.75,-870.83 938.25,-862.46 934.45,-868.34"/>
</a>
</g>
</g>
<!-- Node21 -->
<g id="Node000021" class="node">
<title>Node21</title>
<g id="a_Node000021"><a xlink:href="../../d5/d72/classLSM1x0A__LoRaWAN.html#a8494083816ab885cb07fc3b08de029f4" target="_top" xlink:title="Sets the LoRaWAN Device Address (DevAddr) for ABP mode.">
<polygon fill="white" stroke="#666666" points="1114.5,-854 946.25,-854 946.25,-834 1114.5,-834 1114.5,-854"/>
<text text-anchor="middle" x="1030.38" y="-840.5" font-family="Helvetica,sans-Serif" font-size="10.00">LSM1x0A_LoRaWAN::setDevAddr</text>
</a>
</g>
</g>
<!-- Node16&#45;&gt;Node21 -->
<g id="edge30_Node000016_Node000021" class="edge">
<title>Node16&#45;&gt;Node21</title>
<g id="a_edge30_Node000016_Node000021"><a xlink:title=" ">
<path fill="none" stroke="#63b8ff" d="M825.78,-539.15C828.37,-589.92 843.62,-747.57 933.5,-825 934.62,-825.97 935.78,-826.89 936.96,-827.77"/>
<polygon fill="#63b8ff" stroke="#63b8ff" points="934.98,-830.65 945.32,-832.93 938.65,-824.7 934.98,-830.65"/>
</a>
</g>
</g>
<!-- Node22 -->
<g id="Node000022" class="node">
<title>Node22</title>
<g id="a_Node000022"><a xlink:href="../../d5/d72/classLSM1x0A__LoRaWAN.html#ad320634e52d7ea907043cc50dd37c5b0" target="_top" xlink:title="Sets the LoRaWAN Device EUI (DevEUI).">
<polygon fill="white" stroke="#666666" points="1113,-816 947.75,-816 947.75,-796 1113,-796 1113,-816"/>
<text text-anchor="middle" x="1030.38" y="-802.5" font-family="Helvetica,sans-Serif" font-size="10.00">LSM1x0A_LoRaWAN::setDevEUI</text>
</a>
</g>
</g>
<!-- Node16&#45;&gt;Node22 -->
<g id="edge32_Node000016_Node000022" class="edge">
<title>Node16&#45;&gt;Node22</title>
<g id="a_edge32_Node000016_Node000022"><a xlink:title=" ">
<path fill="none" stroke="#63b8ff" d="M826.74,-539.44C831.89,-586.24 853.37,-721.05 933.5,-787 934.99,-788.22 936.53,-789.38 938.12,-790.46"/>
<polygon fill="#63b8ff" stroke="#63b8ff" points="935.98,-793.27 946.4,-795.21 939.47,-787.2 935.98,-793.27"/>
</a>
</g>
</g>
<!-- Node23 -->
<g id="Node000023" class="node">
<title>Node23</title>
<g id="a_Node000023"><a xlink:href="../../d5/d72/classLSM1x0A__LoRaWAN.html#a031023b0d2dd5db3c51c2db6ae7801cc" target="_top" xlink:title="Enables or disables the Duty Cycle limitation (EU regions mostly).">
<polygon fill="white" stroke="#666666" points="1105.88,-778 954.88,-778 954.88,-746 1105.88,-746 1105.88,-778"/>
<text text-anchor="start" x="962.88" y="-764.5" font-family="Helvetica,sans-Serif" font-size="10.00">LSM1x0A_LoRaWAN::setDuty</text>
<text text-anchor="middle" x="1030.38" y="-752.5" font-family="Helvetica,sans-Serif" font-size="10.00">Cycle</text>
</a>
</g>
</g>
<!-- Node16&#45;&gt;Node23 -->
<g id="edge34_Node000016_Node000023" class="edge">
<title>Node16&#45;&gt;Node23</title>
<g id="a_edge34_Node000016_Node000023"><a xlink:title=" ">
<path fill="none" stroke="#63b8ff" d="M828.65,-539.3C837.9,-579.44 867.39,-683.67 933.5,-737 936.94,-739.78 940.66,-742.25 944.56,-744.44"/>
<polygon fill="#63b8ff" stroke="#63b8ff" points="942.71,-747.44 953.23,-748.7 945.8,-741.15 942.71,-747.44"/>
</a>
</g>
</g>
<!-- Node24 -->
<g id="Node000024" class="node">
<title>Node24</title>
<g id="a_Node000024"><a xlink:href="../../d5/d72/classLSM1x0A__LoRaWAN.html#a6b179d5825c49af0f391dfc539912f64" target="_top" xlink:title="Sets the delay for the Join1 receive window.">
<polygon fill="white" stroke="#666666" points="1107,-728 953.75,-728 953.75,-696 1107,-696 1107,-728"/>
<text text-anchor="start" x="961.75" y="-714.5" font-family="Helvetica,sans-Serif" font-size="10.00">LSM1x0A_LoRaWAN::setJoin1</text>
<text text-anchor="middle" x="1030.38" y="-702.5" font-family="Helvetica,sans-Serif" font-size="10.00">Delay</text>
</a>
</g>
</g>
<!-- Node16&#45;&gt;Node24 -->
<g id="edge36_Node000016_Node000024" class="edge">
<title>Node16&#45;&gt;Node24</title>
<g id="a_edge36_Node000016_Node000024"><a xlink:title=" ">
<path fill="none" stroke="#63b8ff" d="M831.34,-539.39C844.56,-572.62 879.13,-648.08 933.5,-687 936.67,-689.27 940.04,-691.34 943.53,-693.21"/>
<polygon fill="#63b8ff" stroke="#63b8ff" points="941.78,-696.26 952.32,-697.38 944.78,-689.93 941.78,-696.26"/>
</a>
</g>
</g>
<!-- Node25 -->
<g id="Node000025" class="node">
<title>Node25</title>
<g id="a_Node000025"><a xlink:href="../../d5/d72/classLSM1x0A__LoRaWAN.html#a4545d0caad41558cdb9bae8286b104d8" target="_top" xlink:title="Sets the delay for the Join2 receive window.">
<polygon fill="white" stroke="#666666" points="1107,-678 953.75,-678 953.75,-646 1107,-646 1107,-678"/>
<text text-anchor="start" x="961.75" y="-664.5" font-family="Helvetica,sans-Serif" font-size="10.00">LSM1x0A_LoRaWAN::setJoin2</text>
<text text-anchor="middle" x="1030.38" y="-652.5" font-family="Helvetica,sans-Serif" font-size="10.00">Delay</text>
</a>
</g>
</g>
<!-- Node16&#45;&gt;Node25 -->
<g id="edge38_Node000016_Node000025" class="edge">
<title>Node16&#45;&gt;Node25</title>
<g id="a_edge38_Node000016_Node000025"><a xlink:title=" ">
<path fill="none" stroke="#63b8ff" d="M836.14,-539.33C853.65,-564.27 890.49,-611.61 933.5,-637 936.51,-638.78 939.65,-640.43 942.88,-641.97"/>
<polygon fill="#63b8ff" stroke="#63b8ff" points="941.48,-645.18 952.05,-645.9 944.24,-638.74 941.48,-645.18"/>
</a>
</g>
</g>
<!-- Node26 -->
<g id="Node000026" class="node">
<title>Node26</title>
<g id="a_Node000026"><a xlink:href="../../d5/d72/classLSM1x0A__LoRaWAN.html#a06bd50723ec1eb7e144c9141b2ec86fc" target="_top" xlink:title="Sets the LoRaWAN Network ID (NetID).">
<polygon fill="white" stroke="#666666" points="1110.75,-628 950,-628 950,-608 1110.75,-608 1110.75,-628"/>
<text text-anchor="middle" x="1030.38" y="-614.5" font-family="Helvetica,sans-Serif" font-size="10.00">LSM1x0A_LoRaWAN::setNwkID</text>
</a>
</g>
</g>
<!-- Node16&#45;&gt;Node26 -->
<g id="edge40_Node000016_Node000026" class="edge">
<title>Node16&#45;&gt;Node26</title>
<g id="a_edge40_Node000016_Node000026"><a xlink:title=" ">
<path fill="none" stroke="#63b8ff" d="M843.35,-539.34C863.76,-556.84 898.66,-584.11 933.5,-599 938.1,-600.97 942.91,-602.73 947.83,-604.32"/>
<polygon fill="#63b8ff" stroke="#63b8ff" points="946.67,-607.63 957.26,-607.08 948.64,-600.91 946.67,-607.63"/>
</a>
</g>
</g>
<!-- Node27 -->
<g id="Node000027" class="node">
<title>Node27</title>
<g id="a_Node000027"><a xlink:href="../../d5/d72/classLSM1x0A__LoRaWAN.html#aa70ada64d28ecca216bb62268e502adf" target="_top" xlink:title="Sets the delay for the RX1 receive window.">
<polygon fill="white" stroke="#666666" points="1117.12,-590 943.62,-590 943.62,-570 1117.12,-570 1117.12,-590"/>
<text text-anchor="middle" x="1030.38" y="-576.5" font-family="Helvetica,sans-Serif" font-size="10.00">LSM1x0A_LoRaWAN::setRx1Delay</text>
</a>
</g>
</g>
<!-- Node16&#45;&gt;Node27 -->
<g id="edge42_Node000016_Node000027" class="edge">
<title>Node16&#45;&gt;Node27</title>
<g id="a_edge42_Node000016_Node000027"><a xlink:title=" ">
<path fill="none" stroke="#63b8ff" d="M867.74,-539.49C887.52,-546.76 911.5,-554.99 933.5,-561 941.58,-563.21 950.11,-565.27 958.62,-567.16"/>
<polygon fill="#63b8ff" stroke="#63b8ff" points="957.75,-570.55 968.26,-569.23 959.22,-563.71 957.75,-570.55"/>
</a>
</g>
</g>
<!-- Node28 -->
<g id="Node000028" class="node">
<title>Node28</title>
<g id="a_Node000028"><a xlink:href="../../d5/d72/classLSM1x0A__LoRaWAN.html#a2cf4eff0181b6107d082bccefa24217b" target="_top" xlink:title="Sets the Data Rate (DR) specifically for the RX2 window.">
<polygon fill="white" stroke="#666666" points="1125.38,-552 935.38,-552 935.38,-532 1125.38,-532 1125.38,-552"/>
<text text-anchor="middle" x="1030.38" y="-538.5" font-family="Helvetica,sans-Serif" font-size="10.00">LSM1x0A_LoRaWAN::setRx2DataRate</text>
</a>
</g>
</g>
<!-- Node16&#45;&gt;Node28 -->
<g id="edge44_Node000016_Node000028" class="edge">
<title>Node16&#45;&gt;Node28</title>
<g id="a_edge44_Node000016_Node000028"><a xlink:title=" ">
<path fill="none" stroke="#63b8ff" d="M897.79,-529.75C906.16,-530.53 914.81,-531.34 923.51,-532.15"/>
<polygon fill="#63b8ff" stroke="#63b8ff" points="923.14,-535.63 933.43,-533.07 923.79,-528.66 923.14,-535.63"/>
</a>
</g>
</g>
<!-- Node29 -->
<g id="Node000029" class="node">
<title>Node29</title>
<g id="a_Node000029"><a xlink:href="../../d5/d72/classLSM1x0A__LoRaWAN.html#a42d2137b475b57e19d891a5f1ac93221" target="_top" xlink:title="Sets the delay for the RX2 receive window.">
<polygon fill="white" stroke="#666666" points="1117.12,-514 943.62,-514 943.62,-494 1117.12,-494 1117.12,-514"/>
<text text-anchor="middle" x="1030.38" y="-500.5" font-family="Helvetica,sans-Serif" font-size="10.00">LSM1x0A_LoRaWAN::setRx2Delay</text>
</a>
</g>
</g>
<!-- Node16&#45;&gt;Node29 -->
<g id="edge46_Node000016_Node000029" class="edge">
<title>Node16&#45;&gt;Node29</title>
<g id="a_edge46_Node000016_Node000029"><a xlink:title=" ">
<path fill="none" stroke="#63b8ff" d="M897.79,-516.25C908.99,-515.21 920.72,-514.11 932.35,-513.03"/>
<polygon fill="#63b8ff" stroke="#63b8ff" points="932.32,-516.55 941.95,-512.14 931.67,-509.58 932.32,-516.55"/>
</a>
</g>
</g>
<!-- Node30 -->
<g id="Node000030" class="node">
<title>Node30</title>
<g id="a_Node000030"><a xlink:href="../../d5/d72/classLSM1x0A__LoRaWAN.html#a689f7dfda1dfeae11ea397c2ddf2ad37" target="_top" xlink:title="Sets the precise frequency for the RX2 window.">
<polygon fill="white" stroke="#666666" points="1127.25,-476 933.5,-476 933.5,-456 1127.25,-456 1127.25,-476"/>
<text text-anchor="middle" x="1030.38" y="-462.5" font-family="Helvetica,sans-Serif" font-size="10.00">LSM1x0A_LoRaWAN::setRx2Frequency</text>
</a>
</g>
</g>
<!-- Node16&#45;&gt;Node30 -->
<g id="edge48_Node000016_Node000030" class="edge">
<title>Node16&#45;&gt;Node30</title>
<g id="a_edge48_Node000016_Node000030"><a xlink:title=" ">
<path fill="none" stroke="#63b8ff" d="M867.74,-506.51C887.52,-499.24 911.5,-491.01 933.5,-485 941.58,-482.79 950.11,-480.73 958.62,-478.84"/>
<polygon fill="#63b8ff" stroke="#63b8ff" points="959.22,-482.29 968.26,-476.77 957.75,-475.45 959.22,-482.29"/>
</a>
</g>
</g>
<!-- Node31 -->
<g id="Node000031" class="node">
<title>Node31</title>
<g id="a_Node000031"><a xlink:href="../../d5/d72/classLSM1x0A__LoRaWAN.html#a1df10d7ae6bf45b537d28d3d5c4b88d7" target="_top" xlink:title="Sets the transmission power index.">
<polygon fill="white" stroke="#666666" points="1114.88,-438 945.88,-438 945.88,-418 1114.88,-418 1114.88,-438"/>
<text text-anchor="middle" x="1030.38" y="-424.5" font-family="Helvetica,sans-Serif" font-size="10.00">LSM1x0A_LoRaWAN::setTxPower</text>
</a>
</g>
</g>
<!-- Node16&#45;&gt;Node31 -->
<g id="edge50_Node000016_Node000031" class="edge">
<title>Node16&#45;&gt;Node31</title>
<g id="a_edge50_Node000016_Node000031"><a xlink:title=" ">
<path fill="none" stroke="#63b8ff" d="M843.35,-506.66C863.76,-489.16 898.66,-461.89 933.5,-447 938.1,-445.03 942.91,-443.27 947.83,-441.68"/>
<polygon fill="#63b8ff" stroke="#63b8ff" points="948.64,-445.09 957.26,-438.92 946.67,-438.37 948.64,-445.09"/>
</a>
</g>
</g>
<!-- Node32 -->
<g id="Node000032" class="node">
<title>Node32</title>
<g id="a_Node000032"><a xlink:href="../../d5/d72/classLSM1x0A__LoRaWAN.html#a059fd6a9356c4ecadd5a98294da5952d" target="_top" xlink:title="Configures the number of repetitions for Unconfirmed uplinks.">
<polygon fill="white" stroke="#666666" points="1117.88,-400 942.88,-400 942.88,-368 1117.88,-368 1117.88,-400"/>
<text text-anchor="start" x="950.88" y="-386.5" font-family="Helvetica,sans-Serif" font-size="10.00">LSM1x0A_LoRaWAN::setUnconfirm</text>
<text text-anchor="middle" x="1030.38" y="-374.5" font-family="Helvetica,sans-Serif" font-size="10.00">Retry</text>
</a>
</g>
</g>
<!-- Node16&#45;&gt;Node32 -->
<g id="edge52_Node000016_Node000032" class="edge">
<title>Node16&#45;&gt;Node32</title>
<g id="a_edge52_Node000016_Node000032"><a xlink:title=" ">
<path fill="none" stroke="#63b8ff" d="M836.14,-506.67C853.65,-481.73 890.49,-434.39 933.5,-409 935.81,-407.64 938.2,-406.34 940.64,-405.12"/>
<polygon fill="#63b8ff" stroke="#63b8ff" points="941.9,-408.4 949.58,-401.1 939.03,-402.01 941.9,-408.4"/>
</a>
</g>
</g>
<!-- Node17&#45;&gt;Node10 -->
<g id="edge22_Node000017_Node000010" class="edge">
<title>Node17&#45;&gt;Node10</title>
<g id="a_edge22_Node000017_Node000010"><a xlink:title=" ">
<path fill="none" stroke="#63b8ff" d="M1106.65,-348.53C1113.97,-351.2 1120.99,-354.62 1127.25,-359 1182.84,-397.86 1215.69,-474.26 1229.99,-514.97"/>
<polygon fill="#63b8ff" stroke="#63b8ff" points="1226.61,-515.89 1233.12,-524.24 1233.24,-513.65 1226.61,-515.89"/>
</a>
</g>
</g>
<!-- Node18&#45;&gt;Node10 -->
<g id="edge24_Node000018_Node000010" class="edge">
<title>Node18&#45;&gt;Node10</title>
<g id="a_edge24_Node000018_Node000010"><a xlink:title=" ">
<path fill="none" stroke="#63b8ff" d="M1107.02,-310.03C1114.27,-312.79 1121.17,-316.38 1127.25,-321 1191.87,-370.13 1221.71,-467.16 1232.91,-514.6"/>
<polygon fill="#63b8ff" stroke="#63b8ff" points="1229.42,-515.06 1235.03,-524.05 1236.25,-513.53 1229.42,-515.06"/>
</a>
</g>
</g>
<!-- Node19&#45;&gt;Node10 -->
<g id="edge27_Node000019_Node000010" class="edge">
<title>Node19&#45;&gt;Node10</title>
<g id="a_edge27_Node000019_Node000010"><a xlink:title=" ">
<path fill="none" stroke="#63b8ff" d="M1113.08,-273.44C1118.16,-276.14 1122.95,-279.3 1127.25,-283 1199.2,-344.86 1225.98,-461.59 1234.74,-514.59"/>
<polygon fill="#63b8ff" stroke="#63b8ff" points="1231.25,-514.92 1236.24,-524.26 1238.17,-513.84 1231.25,-514.92"/>
</a>
</g>
</g>
<!-- Node20&#45;&gt;Node10 -->
<g id="edge29_Node000020_Node000010" class="edge">
<title>Node20&#45;&gt;Node10</title>
<g id="a_edge29_Node000020_Node000010"><a xlink:title=" ">
<path fill="none" stroke="#63b8ff" d="M1114.69,-871.6C1119.2,-869.21 1123.44,-866.37 1127.25,-863 1165.48,-829.22 1146.72,-802.26 1163.25,-754 1186.06,-687.42 1214.05,-609.52 1228.62,-569.23"/>
<polygon fill="#63b8ff" stroke="#63b8ff" points="1231.89,-570.47 1232.01,-559.87 1225.31,-568.08 1231.89,-570.47"/>
</a>
</g>
</g>
<!-- Node21&#45;&gt;Node10 -->
<g id="edge31_Node000021_Node000010" class="edge">
<title>Node21&#45;&gt;Node10</title>
<g id="a_edge31_Node000021_Node000010"><a xlink:title=" ">
<path fill="none" stroke="#63b8ff" d="M1114.02,-833.58C1118.75,-831.21 1123.21,-828.37 1127.25,-825 1148.03,-807.64 1206.94,-636.39 1229.53,-569.02"/>
<polygon fill="#63b8ff" stroke="#63b8ff" points="1232.74,-570.45 1232.59,-559.86 1226.1,-568.24 1232.74,-570.45"/>
</a>
</g>
</g>
<!-- Node22&#45;&gt;Node10 -->
<g id="edge33_Node000022_Node000010" class="edge">
<title>Node22&#45;&gt;Node10</title>
<g id="a_edge33_Node000022_Node000010"><a xlink:title=" ">
<path fill="none" stroke="#63b8ff" d="M1113.36,-795.56C1118.3,-793.2 1122.99,-790.37 1127.25,-787 1197.75,-731.13 1225.14,-620.69 1234.38,-569.39"/>
<polygon fill="#63b8ff" stroke="#63b8ff" points="1237.79,-570.18 1236.01,-559.74 1230.89,-569.01 1237.79,-570.18"/>
</a>
</g>
</g>
<!-- Node23&#45;&gt;Node10 -->
<g id="edge35_Node000023_Node000010" class="edge">
<title>Node23&#45;&gt;Node10</title>
<g id="a_edge35_Node000023_Node000010"><a xlink:title=" ">
<path fill="none" stroke="#63b8ff" d="M1105.91,-749.05C1113.54,-745.87 1120.83,-741.92 1127.25,-737 1184.24,-693.34 1216.81,-611.57 1230.6,-569.12"/>
<polygon fill="#63b8ff" stroke="#63b8ff" points="1233.9,-570.29 1233.55,-559.7 1227.22,-568.2 1233.9,-570.29"/>
</a>
</g>
</g>
<!-- Node24&#45;&gt;Node10 -->
<g id="edge37_Node000024_Node000010" class="edge">
<title>Node24&#45;&gt;Node10</title>
<g id="a_edge37_Node000024_Node000010"><a xlink:title=" ">
<path fill="none" stroke="#63b8ff" d="M1107.24,-697.37C1114.29,-694.51 1121.09,-691.09 1127.25,-687 1173.06,-656.61 1207.82,-600.94 1225.5,-568.13"/>
<polygon fill="#63b8ff" stroke="#63b8ff" points="1228.39,-570.16 1229.93,-559.68 1222.19,-566.91 1228.39,-570.16"/>
</a>
</g>
</g>
<!-- Node25&#45;&gt;Node10 -->
<g id="edge39_Node000025_Node000010" class="edge">
<title>Node25&#45;&gt;Node10</title>
<g id="a_edge39_Node000025_Node000010"><a xlink:title=" ">
<path fill="none" stroke="#63b8ff" d="M1107.43,-645.62C1114.29,-643.12 1121,-640.26 1127.25,-637 1162.04,-618.85 1195.35,-588.01 1216.31,-566.4"/>
<polygon fill="#63b8ff" stroke="#63b8ff" points="1218.58,-569.1 1222.93,-559.44 1213.5,-564.27 1218.58,-569.1"/>
</a>
</g>
</g>
<!-- Node26&#45;&gt;Node10 -->
<g id="edge41_Node000026_Node000010" class="edge">
<title>Node26&#45;&gt;Node10</title>
<g id="a_edge41_Node000026_Node000010"><a xlink:title=" ">
<path fill="none" stroke="#63b8ff" d="M1097.01,-607.52C1107.26,-605.16 1117.63,-602.34 1127.25,-599 1153.32,-589.94 1180.95,-575.81 1202.15,-563.89"/>
<polygon fill="#63b8ff" stroke="#63b8ff" points="1203.75,-567 1210.69,-559 1200.27,-560.93 1203.75,-567"/>
</a>
</g>
</g>
<!-- Node27&#45;&gt;Node10 -->
<g id="edge43_Node000027_Node000010" class="edge">
<title>Node27&#45;&gt;Node10</title>
<g id="a_edge43_Node000027_Node000010"><a xlink:title=" ">
<path fill="none" stroke="#63b8ff" d="M1088.52,-569.52C1115.36,-564.59 1147.44,-558.71 1175.03,-553.64"/>
<polygon fill="#63b8ff" stroke="#63b8ff" points="1175.46,-557.12 1184.66,-551.88 1174.19,-550.24 1175.46,-557.12"/>
</a>
</g>
</g>
<!-- Node28&#45;&gt;Node10 -->
<g id="edge45_Node000028_Node000010" class="edge">
<title>Node28&#45;&gt;Node10</title>
<g id="a_edge45_Node000028_Node000010"><a xlink:title=" ">
<path fill="none" stroke="#63b8ff" d="M1125.85,-542C1142.34,-542 1159.14,-542 1174.57,-542"/>
<polygon fill="#63b8ff" stroke="#63b8ff" points="1174.55,-545.5 1184.55,-542 1174.55,-538.5 1174.55,-545.5"/>
</a>
</g>
</g>
<!-- Node29&#45;&gt;Node10 -->
<g id="edge47_Node000029_Node000010" class="edge">
<title>Node29&#45;&gt;Node10</title>
<g id="a_edge47_Node000029_Node000010"><a xlink:title=" ">
<path fill="none" stroke="#63b8ff" d="M1088.52,-514.48C1115.36,-519.41 1147.44,-525.29 1175.03,-530.36"/>
<polygon fill="#63b8ff" stroke="#63b8ff" points="1174.19,-533.76 1184.66,-532.12 1175.46,-526.88 1174.19,-533.76"/>
</a>
</g>
</g>
<!-- Node30&#45;&gt;Node10 -->
<g id="edge49_Node000030_Node000010" class="edge">
<title>Node30&#45;&gt;Node10</title>
<g id="a_edge49_Node000030_Node000010"><a xlink:title=" ">
<path fill="none" stroke="#63b8ff" d="M1097.01,-476.48C1107.26,-478.84 1117.63,-481.66 1127.25,-485 1153.32,-494.06 1180.95,-508.19 1202.15,-520.11"/>
<polygon fill="#63b8ff" stroke="#63b8ff" points="1200.27,-523.07 1210.69,-525 1203.75,-517 1200.27,-523.07"/>
</a>
</g>
</g>
<!-- Node31&#45;&gt;Node10 -->
<g id="edge51_Node000031_Node000010" class="edge">
<title>Node31&#45;&gt;Node10</title>
<g id="a_edge51_Node000031_Node000010"><a xlink:title=" ">
<path fill="none" stroke="#63b8ff" d="M1104.64,-438.43C1112.46,-440.74 1120.15,-443.56 1127.25,-447 1162.76,-464.21 1196.15,-495.52 1216.91,-517.48"/>
<polygon fill="#63b8ff" stroke="#63b8ff" points="1214.1,-519.6 1223.46,-524.57 1219.24,-514.85 1214.1,-519.6"/>
</a>
</g>
</g>
<!-- Node32&#45;&gt;Node10 -->
<g id="edge53_Node000032_Node000010" class="edge">
<title>Node32&#45;&gt;Node10</title>
<g id="a_edge53_Node000032_Node000010"><a xlink:title=" ">
<path fill="none" stroke="#63b8ff" d="M1110.5,-400.31C1116.36,-402.81 1122.02,-405.69 1127.25,-409 1170.24,-436.23 1204.97,-485.5 1223.6,-515.83"/>
<polygon fill="#63b8ff" stroke="#63b8ff" points="1220.59,-517.61 1228.73,-524.4 1226.6,-514.02 1220.59,-517.61"/>
</a>
</g>
</g>
<!-- Node34&#45;&gt;Node11 -->
<g id="edge56_Node000034_Node000011" class="edge">
<title>Node34&#45;&gt;Node11</title>
<g id="a_edge56_Node000034_Node000011"><a xlink:title=" ">
<path fill="none" stroke="#63b8ff" d="M1254.07,-762.71C1289.44,-720.24 1384.34,-606.28 1422.08,-560.97"/>
<polygon fill="#63b8ff" stroke="#63b8ff" points="1424.55,-563.47 1428.26,-553.55 1419.17,-558.99 1424.55,-563.47"/>
</a>
</g>
</g>
</g>
</svg>
