<?xml version="1.0" encoding="UTF-8" standalone="no"?>
<!DOCTYPE svg PUBLIC "-//W3C//DTD SVG 1.1//EN"
 "http://www.w3.org/Graphics/SVG/1.1/DTD/svg11.dtd">
<!-- Generated by graphviz version 12.2.1 (20241206.2353)
 -->
<!-- Title: LSM1x0A_LoRaWAN::startTxTest Pages: 1 -->
<svg width="1297pt" height="1143pt"
 viewBox="0.00 0.00 1296.75 1143.11" xmlns="http://www.w3.org/2000/svg" xmlns:xlink="http://www.w3.org/1999/xlink">
<g id="graph0" class="graph" transform="scale(1 1) rotate(0) translate(4 1139.11)">
<title>LSM1x0A_LoRaWAN::startTxTest</title>
<!-- Node1 -->
<g id="Node000001" class="node">
<title>Node1</title>
<g id="a_Node000001"><a xlink:title="Starts transmitting test packets.">
<polygon fill="#999999" stroke="#666666" points="166,-490.95 0,-490.95 0,-470.95 166,-470.95 166,-490.95"/>
<text text-anchor="middle" x="83" y="-477.45" font-family="Helvetica,sans-Serif" font-size="10.00">LSM1x0A_LoRaWAN::startTxTest</text>
</a>
</g>
</g>
<!-- Node2 -->
<g id="Node000002" class="node">
<title>Node2</title>
<g id="a_Node000002"><a xlink:href="../../d8/d92/classLSM1x0A__Controller.html#afd7d92e60ed6fdae696a955cdbe0ed8c" target="_top" xlink:title="Sends any AT command to the module, returning error if it fails. Internally uses the LsmAtParser logi...">
<polygon fill="white" stroke="#666666" points="308,-496.95 202,-496.95 202,-464.95 308,-464.95 308,-496.95"/>
<text text-anchor="start" x="210" y="-483.45" font-family="Helvetica,sans-Serif" font-size="10.00">LSM1x0A_Controller</text>
<text text-anchor="middle" x="255" y="-471.45" font-family="Helvetica,sans-Serif" font-size="10.00">::sendCommand</text>
</a>
</g>
</g>
<!-- Node1&#45;&gt;Node2 -->
<g id="edge1_Node000001_Node000002" class="edge">
<title>Node1&#45;&gt;Node2</title>
<g id="a_edge1_Node000001_Node000002"><a xlink:title=" ">
<path fill="none" stroke="#63b8ff" d="M166.01,-480.95C174.23,-480.95 182.48,-480.95 190.46,-480.95"/>
<polygon fill="#63b8ff" stroke="#63b8ff" points="190.41,-484.45 200.41,-480.95 190.41,-477.45 190.41,-484.45"/>
</a>
</g>
</g>
<!-- Node3 -->
<g id="Node000003" class="node">
<title>Node3</title>
<g id="a_Node000003"><a xlink:href="../../d8/d92/classLSM1x0A__Controller.html#abb0eb380daa3dfb7acffb483c5db8e2b" target="_top" xlink:title="Executes the recovery protocol. First Soft&#45;Reset (ATZ), then Hard&#45;Reset if there is a pin.">
<polygon fill="white" stroke="#666666" points="450,-938.95 344,-938.95 344,-906.95 450,-906.95 450,-938.95"/>
<text text-anchor="start" x="352" y="-925.45" font-family="Helvetica,sans-Serif" font-size="10.00">LSM1x0A_Controller</text>
<text text-anchor="middle" x="397" y="-913.45" font-family="Helvetica,sans-Serif" font-size="10.00">::recoverModule</text>
</a>
</g>
</g>
<!-- Node2&#45;&gt;Node3 -->
<g id="edge2_Node000002_Node000003" class="edge">
<title>Node2&#45;&gt;Node3</title>
<g id="a_edge2_Node000002_Node000003"><a xlink:title=" ">
<path fill="none" stroke="#63b8ff" d="M259.55,-497.39C270.11,-545.46 303.16,-689.56 344,-804.95 355.35,-837.01 371.54,-872.58 382.83,-896.2"/>
<polygon fill="#63b8ff" stroke="#63b8ff" points="379.63,-897.62 387.13,-905.1 385.93,-894.57 379.63,-897.62"/>
</a>
</g>
</g>
<!-- Node31 -->
<g id="Node000031" class="node">
<title>Node31</title>
<g id="a_Node000031"><a xlink:href="../../d6/d3c/classLSM1x0A__AtParser.html#a29b53c521974387ba6c03afadfaffa4a" target="_top" xlink:title="Sends a simple command and waits for OK/ERROR. Example: sendCommand(&quot;AT+JOIN&quot;);.">
<polygon fill="white" stroke="#666666" points="864.5,-1118.95 690.25,-1118.95 690.25,-1098.95 864.5,-1098.95 864.5,-1118.95"/>
<text text-anchor="middle" x="777.38" y="-1105.45" font-family="Helvetica,sans-Serif" font-size="10.00">LSM1x0A_AtParser::sendCommand</text>
</a>
</g>
</g>
<!-- Node2&#45;&gt;Node31 -->
<g id="edge55_Node000002_Node000031" class="edge">
<title>Node2&#45;&gt;Node31</title>
<g id="a_edge55_Node000002_Node000031"><a xlink:title=" ">
<path fill="none" stroke="#63b8ff" d="M256.06,-497.2C256.88,-559.15 265.42,-785.25 344,-947.95 385.93,-1034.77 398.31,-1071.88 486,-1111.95 563.76,-1147.48 665.91,-1134.62 726.02,-1121.89"/>
<polygon fill="#63b8ff" stroke="#63b8ff" points="726.61,-1125.34 735.62,-1119.77 725.1,-1118.51 726.61,-1125.34"/>
</a>
</g>
</g>
<!-- Node4 -->
<g id="Node000004" class="node">
<title>Node4</title>
<g id="a_Node000004"><a xlink:href="../../d8/d92/classLSM1x0A__Controller.html#a3f6f25b843fe4fb7042c544deae2ab16" target="_top" xlink:title="Manually clears bits from the internal EventGroup.">
<polygon fill="white" stroke="#666666" points="1058.25,-957.95 952.25,-957.95 952.25,-925.95 1058.25,-925.95 1058.25,-957.95"/>
<text text-anchor="start" x="960.25" y="-944.45" font-family="Helvetica,sans-Serif" font-size="10.00">LSM1x0A_Controller</text>
<text text-anchor="middle" x="1005.25" y="-932.45" font-family="Helvetica,sans-Serif" font-size="10.00">::clearEvents</text>
</a>
</g>
</g>
<!-- Node3&#45;&gt;Node4 -->
<g id="edge3_Node000003_Node000004" class="edge">
<title>Node3&#45;&gt;Node4</title>
<g id="a_edge3_Node000003_Node000004"><a xlink:title=" ">
<path fill="none" stroke="#63b8ff" d="M414.08,-939.29C430.5,-954.72 457.56,-976.82 486,-985.95 645.57,-1037.18 846.16,-991 944.43,-961.72"/>
<polygon fill="#63b8ff" stroke="#63b8ff" points="945.32,-965.11 953.87,-958.86 943.29,-958.41 945.32,-965.11"/>
</a>
</g>
</g>
<!-- Node5 -->
<g id="Node000005" class="node">
<title>Node5</title>
<g id="a_Node000005"><a xlink:href="../../d8/d92/classLSM1x0A__Controller.html#a345d4bd79fa16b18dc33a4ca788fe5f7" target="_top" xlink:title="Performs a hardware reset using the reset pin.">
<polygon fill="white" stroke="#666666" points="618.25,-938.95 512.25,-938.95 512.25,-906.95 618.25,-906.95 618.25,-938.95"/>
<text text-anchor="start" x="520.25" y="-925.45" font-family="Helvetica,sans-Serif" font-size="10.00">LSM1x0A_Controller</text>
<text text-anchor="middle" x="565.25" y="-913.45" font-family="Helvetica,sans-Serif" font-size="10.00">::hardwareReset</text>
</a>
</g>
</g>
<!-- Node3&#45;&gt;Node5 -->
<g id="edge4_Node000003_Node000005" class="edge">
<title>Node3&#45;&gt;Node5</title>
<g id="a_edge4_Node000003_Node000005"><a xlink:title=" ">
<path fill="none" stroke="#63b8ff" d="M450.15,-922.95C466.16,-922.95 483.97,-922.95 500.66,-922.95"/>
<polygon fill="#63b8ff" stroke="#63b8ff" points="500.49,-926.45 510.49,-922.95 500.49,-919.45 500.49,-926.45"/>
</a>
</g>
</g>
<!-- Node7 -->
<g id="Node000007" class="node">
<title>Node7</title>
<g id="a_Node000007"><a xlink:href="../../d5/d72/classLSM1x0A__LoRaWAN.html#a1892801e37c8cd67d37c76108d6f7d49" target="_top" xlink:title="Validates if the device is currently Joined to the network. (Either confirmed by OTAA or statically a...">
<polygon fill="white" stroke="#666666" points="1288.75,-926.95 1136.25,-926.95 1136.25,-906.95 1288.75,-906.95 1288.75,-926.95"/>
<text text-anchor="middle" x="1212.5" y="-913.45" font-family="Helvetica,sans-Serif" font-size="10.00">LSM1x0A_LoRaWAN::isJoined</text>
</a>
</g>
</g>
<!-- Node3&#45;&gt;Node7 -->
<g id="edge6_Node000003_Node000007" class="edge">
<title>Node3&#45;&gt;Node7</title>
<g id="a_edge6_Node000003_Node000007"><a xlink:title=" ">
<path fill="none" stroke="#63b8ff" d="M443.94,-939.25C446.08,-940.7 448.11,-942.26 450,-943.95 475.17,-966.51 456.99,-993.6 486,-1010.95 496.7,-1017.34 812.16,-1014.94 874.25,-1008.95 975.94,-999.13 1002.74,-997.44 1100.25,-966.95 1129.08,-957.93 1160.33,-943.44 1182.34,-932.37"/>
<polygon fill="#63b8ff" stroke="#63b8ff" points="1183.7,-935.61 1191.01,-927.94 1180.51,-929.38 1183.7,-935.61"/>
</a>
</g>
</g>
<!-- Node8 -->
<g id="Node000008" class="node">
<title>Node8</title>
<g id="a_Node000008"><a xlink:href="../../d5/d72/classLSM1x0A__LoRaWAN.html#a83e11c0e74ff9e0757db616ab1163424" target="_top" xlink:title="Attempts to recover a lost connection (re&#45;executes OTAA Join if dropped).">
<polygon fill="white" stroke="#666666" points="639.62,-850.95 490.88,-850.95 490.88,-818.95 639.62,-818.95 639.62,-850.95"/>
<text text-anchor="start" x="498.88" y="-837.45" font-family="Helvetica,sans-Serif" font-size="10.00">LSM1x0A_LoRaWAN::recover</text>
<text text-anchor="middle" x="565.25" y="-825.45" font-family="Helvetica,sans-Serif" font-size="10.00">Connection</text>
</a>
</g>
</g>
<!-- Node3&#45;&gt;Node8 -->
<g id="edge7_Node000003_Node000008" class="edge">
<title>Node3&#45;&gt;Node8</title>
<g id="a_edge7_Node000003_Node000008"><a xlink:title=" ">
<path fill="none" stroke="#63b8ff" d="M419.97,-906.53C437.3,-894.07 462.4,-877.07 486,-864.95 492.29,-861.72 499,-858.64 505.76,-855.76"/>
<polygon fill="#63b8ff" stroke="#63b8ff" points="507.03,-859.02 514.96,-851.99 504.38,-852.55 507.03,-859.02"/>
</a>
</g>
</g>
<!-- Node12 -->
<g id="Node000012" class="node">
<title>Node12</title>
<g id="a_Node000012"><a xlink:href="../../d5/d72/classLSM1x0A__LoRaWAN.html#ae3be4ce59dfa200369733317df356e97" target="_top" xlink:title="Pushes the RAM&#45;cached variables back down into the hardware module. Restores the operational state af...">
<polygon fill="white" stroke="#666666" points="638.5,-496.95 492,-496.95 492,-464.95 638.5,-464.95 638.5,-496.95"/>
<text text-anchor="start" x="500" y="-483.45" font-family="Helvetica,sans-Serif" font-size="10.00">LSM1x0A_LoRaWAN::restore</text>
<text text-anchor="middle" x="565.25" y="-471.45" font-family="Helvetica,sans-Serif" font-size="10.00">Config</text>
</a>
</g>
</g>
<!-- Node3&#45;&gt;Node12 -->
<g id="edge16_Node000003_Node000012" class="edge">
<title>Node3&#45;&gt;Node12</title>
<g id="a_edge16_Node000003_Node000012"><a xlink:title=" ">
<path fill="none" stroke="#63b8ff" d="M404.11,-906.69C429.01,-840.5 522.92,-590.84 554.11,-507.91"/>
<polygon fill="#63b8ff" stroke="#63b8ff" points="557.3,-509.36 557.55,-498.77 550.75,-506.9 557.3,-509.36"/>
</a>
</g>
</g>
<!-- Node29 -->
<g id="Node000029" class="node">
<title>Node29</title>
<g id="a_Node000029"><a xlink:href="../../d5/d72/classLSM1x0A__LoRaWAN.html#ace4b04396f1de1f4a54f513f5f378db7" target="_top" xlink:title="Manually overrides the internal joined state tracker.">
<polygon fill="white" stroke="#666666" points="644.5,-976.95 486,-976.95 486,-956.95 644.5,-956.95 644.5,-976.95"/>
<text text-anchor="middle" x="565.25" y="-963.45" font-family="Helvetica,sans-Serif" font-size="10.00">LSM1x0A_LoRaWAN::setJoined</text>
</a>
</g>
</g>
<!-- Node3&#45;&gt;Node29 -->
<g id="edge50_Node000003_Node000029" class="edge">
<title>Node3&#45;&gt;Node29</title>
<g id="a_edge50_Node000003_Node000029"><a xlink:title=" ">
<path fill="none" stroke="#63b8ff" d="M450.49,-938.22C462.16,-941.51 474.48,-944.91 486,-947.95 493.36,-949.89 501.12,-951.86 508.79,-953.76"/>
<polygon fill="#63b8ff" stroke="#63b8ff" points="507.88,-957.14 518.43,-956.13 509.55,-950.35 507.88,-957.14"/>
</a>
</g>
</g>
<!-- Node30 -->
<g id="Node000030" class="node">
<title>Node30</title>
<g id="a_Node000030"><a xlink:href="../../d8/d92/classLSM1x0A__Controller.html#a11ad21cb5ca33ec51346764a23bd485e" target="_top" xlink:title="Performs a software reset (ATZ Command).">
<polygon fill="white" stroke="#666666" points="618.25,-1102.95 512.25,-1102.95 512.25,-1070.95 618.25,-1070.95 618.25,-1102.95"/>
<text text-anchor="start" x="520.25" y="-1089.45" font-family="Helvetica,sans-Serif" font-size="10.00">LSM1x0A_Controller</text>
<text text-anchor="middle" x="565.25" y="-1077.45" font-family="Helvetica,sans-Serif" font-size="10.00">::softwareReset</text>
</a>
</g>
</g>
<!-- Node3&#45;&gt;Node30 -->
<g id="edge51_Node000003_Node000030" class="edge">
<title>Node3&#45;&gt;Node30</title>
<g id="a_edge51_Node000003_Node000030"><a xlink:title=" ">
<path fill="none" stroke="#63b8ff" d="M404.7,-939.34C416.89,-967.25 445.25,-1024.13 486,-1056.95 490.82,-1060.83 496.19,-1064.24 501.8,-1067.25"/>
<polygon fill="#63b8ff" stroke="#63b8ff" points="500.21,-1070.36 510.73,-1071.55 503.25,-1064.06 500.21,-1070.36"/>
</a>
</g>
</g>
<!-- Node6 -->
<g id="Node000006" class="node">
<title>Node6</title>
<g id="a_Node000006"><a xlink:href="../../d6/d3c/classLSM1x0A__AtParser.html#ad2839120da13e56132b95019419be1e5" target="_top" xlink:title="Waits for an event (like BOOTALERT) without sending any command. Useful for hardware reset where the ...">
<polygon fill="white" stroke="#666666" points="847.62,-938.95 707.12,-938.95 707.12,-906.95 847.62,-906.95 847.62,-938.95"/>
<text text-anchor="start" x="715.12" y="-925.45" font-family="Helvetica,sans-Serif" font-size="10.00">LSM1x0A_AtParser::waitFor</text>
<text text-anchor="middle" x="777.38" y="-913.45" font-family="Helvetica,sans-Serif" font-size="10.00">Event</text>
</a>
</g>
</g>
<!-- Node5&#45;&gt;Node6 -->
<g id="edge5_Node000005_Node000006" class="edge">
<title>Node5&#45;&gt;Node6</title>
<g id="a_edge5_Node000005_Node000006"><a xlink:title=" ">
<path fill="none" stroke="#63b8ff" d="M618.73,-922.95C641.92,-922.95 669.72,-922.95 695.46,-922.95"/>
<polygon fill="#63b8ff" stroke="#63b8ff" points="695.22,-926.45 705.22,-922.95 695.22,-919.45 695.22,-926.45"/>
</a>
</g>
</g>
<!-- Node9 -->
<g id="Node000009" class="node">
<title>Node9</title>
<g id="a_Node000009"><a xlink:href="../../d5/d72/classLSM1x0A__LoRaWAN.html#a59f781f3cfd30c11cd3973bcb10a7baa" target="_top" xlink:title="Initiates a LoRaWAN Network Join procedure. This is a blocking function until the module fires an eve...">
<polygon fill="white" stroke="#666666" points="843.12,-844.95 711.62,-844.95 711.62,-824.95 843.12,-824.95 843.12,-844.95"/>
<text text-anchor="middle" x="777.38" y="-831.45" font-family="Helvetica,sans-Serif" font-size="10.00">LSM1x0A_LoRaWAN::join</text>
</a>
</g>
</g>
<!-- Node8&#45;&gt;Node9 -->
<g id="edge8_Node000008_Node000009" class="edge">
<title>Node8&#45;&gt;Node9</title>
<g id="a_edge8_Node000008_Node000009"><a xlink:title=" ">
<path fill="none" stroke="#63b8ff" d="M640.04,-834.95C659.41,-834.95 680.35,-834.95 699.86,-834.95"/>
<polygon fill="#63b8ff" stroke="#63b8ff" points="699.65,-838.45 709.65,-834.95 699.65,-831.45 699.65,-838.45"/>
</a>
</g>
</g>
<!-- Node9&#45;&gt;Node2 -->
<g id="edge11_Node000009_Node000002" class="edge">
<title>Node9&#45;&gt;Node2</title>
<g id="a_edge11_Node000009_Node000002"><a xlink:title=" ">
<path fill="none" stroke="#63b8ff" d="M723.15,-824.5C664.52,-812.53 567.73,-791.38 486,-766.95 421.61,-747.69 391.73,-762.27 344,-714.95 285.73,-657.18 265.53,-557.13 258.95,-508.74"/>
<polygon fill="#63b8ff" stroke="#63b8ff" points="262.43,-508.33 257.72,-498.84 255.48,-509.2 262.43,-508.33"/>
</a>
</g>
</g>
<!-- Node9&#45;&gt;Node3 -->
<g id="edge10_Node000009_Node000003" class="edge">
<title>Node9&#45;&gt;Node3</title>
<g id="a_edge10_Node000009_Node000003"><a xlink:title=" ">
<path fill="none" stroke="#63b8ff" d="M723.15,-845.44C664.74,-857.21 568.32,-877.35 486,-897.95 478.06,-899.94 469.74,-902.14 461.53,-904.39"/>
<polygon fill="#63b8ff" stroke="#63b8ff" points="460.59,-901.01 451.9,-907.06 462.47,-907.76 460.59,-901.01"/>
</a>
</g>
</g>
<!-- Node9&#45;&gt;Node4 -->
<g id="edge9_Node000009_Node000004" class="edge">
<title>Node9&#45;&gt;Node4</title>
<g id="a_edge9_Node000009_Node000004"><a xlink:title=" ">
<path fill="none" stroke="#63b8ff" d="M800.44,-845.4C837.16,-862.79 911.48,-898 959.51,-920.75"/>
<polygon fill="#63b8ff" stroke="#63b8ff" points="957.72,-923.78 968.26,-924.9 960.72,-917.45 957.72,-923.78"/>
</a>
</g>
</g>
<!-- Node10 -->
<g id="Node000010" class="node">
<title>Node10</title>
<g id="a_Node000010"><a xlink:href="../../d5/d72/classLSM1x0A__LoRaWAN.html#a3fdd1ac318a5ad2559323e5d57e36a5e" target="_top" xlink:title="Enables or disables specific sub&#45;bands for regions supporting Channel Masks (e.g.,...">
<polygon fill="white" stroke="#666666" points="1100.25,-654.95 910.25,-654.95 910.25,-634.95 1100.25,-634.95 1100.25,-654.95"/>
<text text-anchor="middle" x="1005.25" y="-641.45" font-family="Helvetica,sans-Serif" font-size="10.00">LSM1x0A_LoRaWAN::setChannelMask</text>
</a>
</g>
</g>
<!-- Node9&#45;&gt;Node10 -->
<g id="edge12_Node000009_Node000010" class="edge">
<title>Node9&#45;&gt;Node10</title>
<g id="a_edge12_Node000009_Node000010"><a xlink:title=" ">
<path fill="none" stroke="#63b8ff" d="M837.68,-824.45C850.4,-820.55 863.3,-815.22 874.25,-807.95 931.12,-770.19 974.75,-699.61 993.79,-665.05"/>
<polygon fill="#63b8ff" stroke="#63b8ff" points="996.72,-666.98 998.37,-656.52 990.55,-663.67 996.72,-666.98"/>
</a>
</g>
</g>
<!-- Node11 -->
<g id="Node000011" class="node">
<title>Node11</title>
<g id="a_Node000011"><a xlink:href="../../d8/d92/classLSM1x0A__Controller.html#a62476e30e50c7fe120aeb8df4b828675" target="_top" xlink:title="Synchronously/blockingly waits for an asynchronous event to occur. Useful for wrapping commands like ...">
<polygon fill="white" stroke="#666666" points="1058.25,-850.95 952.25,-850.95 952.25,-818.95 1058.25,-818.95 1058.25,-850.95"/>
<text text-anchor="start" x="960.25" y="-837.45" font-family="Helvetica,sans-Serif" font-size="10.00">LSM1x0A_Controller</text>
<text text-anchor="middle" x="1005.25" y="-825.45" font-family="Helvetica,sans-Serif" font-size="10.00">::waitForEvent</text>
</a>
</g>
</g>
<!-- Node9&#45;&gt;Node11 -->
<g id="edge15_Node000009_Node000011" class="edge">
<title>Node9&#45;&gt;Node11</title>
<g id="a_edge15_Node000009_Node000011"><a xlink:title=" ">
<path fill="none" stroke="#63b8ff" d="M843.4,-834.95C873.91,-834.95 910.15,-834.95 940.49,-834.95"/>
<polygon fill="#63b8ff" stroke="#63b8ff" points="940.3,-838.45 950.3,-834.95 940.3,-831.45 940.3,-838.45"/>
</a>
</g>
</g>
<!-- Node10&#45;&gt;Node2 -->
<g id="edge14_Node000010_Node000002" class="edge">
<title>Node10&#45;&gt;Node2</title>
<g id="a_edge14_Node000010_Node000002"><a xlink:title=" ">
<path fill="none" stroke="#63b8ff" d="M1003.47,-634.73C998.02,-566.01 963.1,-172.04 874.25,-101.95 689.09,44.11 525.15,29.06 344,-121.95 292.42,-164.95 266.36,-377.61 258.57,-453.76"/>
<polygon fill="#63b8ff" stroke="#63b8ff" points="255.13,-452.96 257.62,-463.26 262.09,-453.65 255.13,-452.96"/>
</a>
</g>
</g>
<!-- Node10&#45;&gt;Node7 -->
<g id="edge13_Node000010_Node000007" class="edge">
<title>Node10&#45;&gt;Node7</title>
<g id="a_edge13_Node000010_Node000007"><a xlink:title=" ">
<path fill="none" stroke="#63b8ff" d="M1014.05,-655.28C1044.59,-695.76 1156.42,-843.95 1196.82,-897.49"/>
<polygon fill="#63b8ff" stroke="#63b8ff" points="1193.97,-899.52 1202.79,-905.4 1199.56,-895.31 1193.97,-899.52"/>
</a>
</g>
</g>
<!-- Node12&#45;&gt;Node10 -->
<g id="edge21_Node000012_Node000010" class="edge">
<title>Node12&#45;&gt;Node10</title>
<g id="a_edge21_Node000012_Node000010"><a xlink:title=" ">
<path fill="none" stroke="#63b8ff" d="M638.74,-484.29C716.4,-488.81 833.93,-498.64 874.25,-517.95 926.18,-542.82 970.13,-596.76 991.09,-625.7"/>
<polygon fill="#63b8ff" stroke="#63b8ff" points="988.02,-627.41 996.65,-633.56 993.74,-623.37 988.02,-627.41"/>
</a>
</g>
</g>
<!-- Node13 -->
<g id="Node000013" class="node">
<title>Node13</title>
<g id="a_Node000013"><a xlink:href="../../d5/d72/classLSM1x0A__LoRaWAN.html#af0baa3db4c7fab580d6b19a9e92472f6" target="_top" xlink:title="Enables or disables Adaptive Data Rate (ADR).">
<polygon fill="white" stroke="#666666" points="853.25,-798.95 701.5,-798.95 701.5,-778.95 853.25,-778.95 853.25,-798.95"/>
<text text-anchor="middle" x="777.38" y="-785.45" font-family="Helvetica,sans-Serif" font-size="10.00">LSM1x0A_LoRaWAN::setADR</text>
</a>
</g>
</g>
<!-- Node12&#45;&gt;Node13 -->
<g id="edge17_Node000012_Node000013" class="edge">
<title>Node12&#45;&gt;Node13</title>
<g id="a_edge17_Node000012_Node000013"><a xlink:title=" ">
<path fill="none" stroke="#63b8ff" d="M567.43,-497.13C571.95,-546.58 592.65,-696.7 680.5,-769.95 683.75,-772.66 687.29,-775.03 691.01,-777.08"/>
<polygon fill="#63b8ff" stroke="#63b8ff" points="689.34,-780.17 699.88,-781.21 692.29,-773.82 689.34,-780.17"/>
</a>
</g>
</g>
<!-- Node14 -->
<g id="Node000014" class="node">
<title>Node14</title>
<g id="a_Node000014"><a xlink:href="../../d5/d72/classLSM1x0A__LoRaWAN.html#a5365ed1596eb84ebf1e3b33b4a10c788" target="_top" xlink:title="Sets the LoRaWAN operational frequency band.">
<polygon fill="white" stroke="#666666" points="853.62,-760.95 701.12,-760.95 701.12,-740.95 853.62,-740.95 853.62,-760.95"/>
<text text-anchor="middle" x="777.38" y="-747.45" font-family="Helvetica,sans-Serif" font-size="10.00">LSM1x0A_LoRaWAN::setBand</text>
</a>
</g>
</g>
<!-- Node12&#45;&gt;Node14 -->
<g id="edge19_Node000012_Node000014" class="edge">
<title>Node12&#45;&gt;Node14</title>
<g id="a_edge19_Node000012_Node000014"><a xlink:title=" ">
<path fill="none" stroke="#63b8ff" d="M568.51,-497.27C575.67,-542.46 602.23,-669.99 680.5,-731.95 683.66,-734.45 687.05,-736.64 690.61,-738.58"/>
<polygon fill="#63b8ff" stroke="#63b8ff" points="689.1,-741.74 699.65,-742.72 692.02,-735.37 689.1,-741.74"/>
</a>
</g>
</g>
<!-- Node15 -->
<g id="Node000015" class="node">
<title>Node15</title>
<g id="a_Node000015"><a xlink:href="../../d5/d72/classLSM1x0A__LoRaWAN.html#a9d9285c43414337a0ccb3a6cd7ca06e6" target="_top" xlink:title="Configures the number of retries for Confirmed uplinks.">
<polygon fill="white" stroke="#666666" points="859.62,-722.95 695.12,-722.95 695.12,-690.95 859.62,-690.95 859.62,-722.95"/>
<text text-anchor="start" x="703.12" y="-709.45" font-family="Helvetica,sans-Serif" font-size="10.00">LSM1x0A_LoRaWAN::setConfirm</text>
<text text-anchor="middle" x="777.38" y="-697.45" font-family="Helvetica,sans-Serif" font-size="10.00">Retry</text>
</a>
</g>
</g>
<!-- Node12&#45;&gt;Node15 -->
<g id="edge22_Node000012_Node000015" class="edge">
<title>Node12&#45;&gt;Node15</title>
<g id="a_edge22_Node000012_Node000015"><a xlink:title=" ">
<path fill="none" stroke="#63b8ff" d="M570.77,-497.42C582.23,-535.98 616.17,-632.59 680.5,-681.95 681.86,-682.99 683.27,-684 684.71,-684.96"/>
<polygon fill="#63b8ff" stroke="#63b8ff" points="682.93,-687.98 693.34,-689.96 686.44,-681.92 682.93,-687.98"/>
</a>
</g>
</g>
<!-- Node16 -->
<g id="Node000016" class="node">
<title>Node16</title>
<g id="a_Node000016"><a xlink:href="../../d5/d72/classLSM1x0A__LoRaWAN.html#a56345ceeafa0b9059d6de4e69eddc82e" target="_top" xlink:title="Sets the Data Rate (DR) of the module.">
<polygon fill="white" stroke="#666666" points="863.38,-672.95 691.38,-672.95 691.38,-652.95 863.38,-652.95 863.38,-672.95"/>
<text text-anchor="middle" x="777.38" y="-659.45" font-family="Helvetica,sans-Serif" font-size="10.00">LSM1x0A_LoRaWAN::setDataRate</text>
</a>
</g>
</g>
<!-- Node12&#45;&gt;Node16 -->
<g id="edge24_Node000012_Node000016" class="edge">
<title>Node12&#45;&gt;Node16</title>
<g id="a_edge24_Node000012_Node000016"><a xlink:title=" ">
<path fill="none" stroke="#63b8ff" d="M572.68,-497.26C586.74,-530.68 623.61,-606.87 680.5,-643.95 682.64,-645.34 684.85,-646.63 687.13,-647.84"/>
<polygon fill="#63b8ff" stroke="#63b8ff" points="685.55,-650.96 696.1,-651.92 688.45,-644.59 685.55,-650.96"/>
</a>
</g>
</g>
<!-- Node17 -->
<g id="Node000017" class="node">
<title>Node17</title>
<g id="a_Node000017"><a xlink:href="../../d5/d72/classLSM1x0A__LoRaWAN.html#a8494083816ab885cb07fc3b08de029f4" target="_top" xlink:title="Sets the LoRaWAN Device Address (DevAddr) for ABP mode.">
<polygon fill="white" stroke="#666666" points="861.5,-634.95 693.25,-634.95 693.25,-614.95 861.5,-614.95 861.5,-634.95"/>
<text text-anchor="middle" x="777.38" y="-621.45" font-family="Helvetica,sans-Serif" font-size="10.00">LSM1x0A_LoRaWAN::setDevAddr</text>
</a>
</g>
</g>
<!-- Node12&#45;&gt;Node17 -->
<g id="edge26_Node000012_Node000017" class="edge">
<title>Node12&#45;&gt;Node17</title>
<g id="a_edge26_Node000012_Node000017"><a xlink:title=" ">
<path fill="none" stroke="#63b8ff" d="M576.24,-497.41C593.72,-524.7 632.6,-578.97 680.5,-605.95 683.34,-607.55 686.3,-609.02 689.33,-610.36"/>
<polygon fill="#63b8ff" stroke="#63b8ff" points="687.92,-613.57 698.51,-613.93 690.46,-607.04 687.92,-613.57"/>
</a>
</g>
</g>
<!-- Node18 -->
<g id="Node000018" class="node">
<title>Node18</title>
<g id="a_Node000018"><a xlink:href="../../d5/d72/classLSM1x0A__LoRaWAN.html#ad320634e52d7ea907043cc50dd37c5b0" target="_top" xlink:title="Sets the LoRaWAN Device EUI (DevEUI).">
<polygon fill="white" stroke="#666666" points="860,-596.95 694.75,-596.95 694.75,-576.95 860,-576.95 860,-596.95"/>
<text text-anchor="middle" x="777.38" y="-583.45" font-family="Helvetica,sans-Serif" font-size="10.00">LSM1x0A_LoRaWAN::setDevEUI</text>
</a>
</g>
</g>
<!-- Node12&#45;&gt;Node18 -->
<g id="edge28_Node000012_Node000018" class="edge">
<title>Node12&#45;&gt;Node18</title>
<g id="a_edge28_Node000012_Node000018"><a xlink:title=" ">
<path fill="none" stroke="#63b8ff" d="M582.45,-497.21C603.27,-517.12 641.4,-550.34 680.5,-567.95 684.76,-569.87 689.22,-571.6 693.78,-573.15"/>
<polygon fill="#63b8ff" stroke="#63b8ff" points="692.53,-576.43 703.12,-576.02 694.59,-569.74 692.53,-576.43"/>
</a>
</g>
</g>
<!-- Node19 -->
<g id="Node000019" class="node">
<title>Node19</title>
<g id="a_Node000019"><a xlink:href="../../d5/d72/classLSM1x0A__LoRaWAN.html#a031023b0d2dd5db3c51c2db6ae7801cc" target="_top" xlink:title="Enables or disables the Duty Cycle limitation (EU regions mostly).">
<polygon fill="white" stroke="#666666" points="852.88,-558.95 701.88,-558.95 701.88,-526.95 852.88,-526.95 852.88,-558.95"/>
<text text-anchor="start" x="709.88" y="-545.45" font-family="Helvetica,sans-Serif" font-size="10.00">LSM1x0A_LoRaWAN::setDuty</text>
<text text-anchor="middle" x="777.38" y="-533.45" font-family="Helvetica,sans-Serif" font-size="10.00">Cycle</text>
</a>
</g>
</g>
<!-- Node12&#45;&gt;Node19 -->
<g id="edge30_Node000012_Node000019" class="edge">
<title>Node12&#45;&gt;Node19</title>
<g id="a_edge30_Node000012_Node000019"><a xlink:title=" ">
<path fill="none" stroke="#63b8ff" d="M622.01,-497.4C648.95,-505.35 681.48,-514.95 709.73,-523.28"/>
<polygon fill="#63b8ff" stroke="#63b8ff" points="708.69,-526.62 719.27,-526.1 710.67,-519.91 708.69,-526.62"/>
</a>
</g>
</g>
<!-- Node20 -->
<g id="Node000020" class="node">
<title>Node20</title>
<g id="a_Node000020"><a xlink:href="../../d5/d72/classLSM1x0A__LoRaWAN.html#a6b179d5825c49af0f391dfc539912f64" target="_top" xlink:title="Sets the delay for the Join1 receive window.">
<polygon fill="white" stroke="#666666" points="854,-470.95 700.75,-470.95 700.75,-438.95 854,-438.95 854,-470.95"/>
<text text-anchor="start" x="708.75" y="-457.45" font-family="Helvetica,sans-Serif" font-size="10.00">LSM1x0A_LoRaWAN::setJoin1</text>
<text text-anchor="middle" x="777.38" y="-445.45" font-family="Helvetica,sans-Serif" font-size="10.00">Delay</text>
</a>
</g>
</g>
<!-- Node12&#45;&gt;Node20 -->
<g id="edge32_Node000012_Node000020" class="edge">
<title>Node12&#45;&gt;Node20</title>
<g id="a_edge32_Node000012_Node000020"><a xlink:title=" ">
<path fill="none" stroke="#63b8ff" d="M638.86,-471.96C655.21,-469.94 672.72,-467.77 689.58,-465.69"/>
<polygon fill="#63b8ff" stroke="#63b8ff" points="689.55,-469.22 699.05,-464.52 688.69,-462.27 689.55,-469.22"/>
</a>
</g>
</g>
<!-- Node21 -->
<g id="Node000021" class="node">
<title>Node21</title>
<g id="a_Node000021"><a xlink:href="../../d5/d72/classLSM1x0A__LoRaWAN.html#a4545d0caad41558cdb9bae8286b104d8" target="_top" xlink:title="Sets the delay for the Join2 receive window.">
<polygon fill="white" stroke="#666666" points="854,-420.95 700.75,-420.95 700.75,-388.95 854,-388.95 854,-420.95"/>
<text text-anchor="start" x="708.75" y="-407.45" font-family="Helvetica,sans-Serif" font-size="10.00">LSM1x0A_LoRaWAN::setJoin2</text>
<text text-anchor="middle" x="777.38" y="-395.45" font-family="Helvetica,sans-Serif" font-size="10.00">Delay</text>
</a>
</g>
</g>
<!-- Node12&#45;&gt;Node21 -->
<g id="edge34_Node000012_Node000021" class="edge">
<title>Node12&#45;&gt;Node21</title>
<g id="a_edge34_Node000012_Node000021"><a xlink:title=" ">
<path fill="none" stroke="#63b8ff" d="M599.16,-464.52C621.67,-453.71 652.42,-439.8 680.5,-429.95 685.79,-428.09 691.29,-426.3 696.86,-424.59"/>
<polygon fill="#63b8ff" stroke="#63b8ff" points="697.57,-428.03 706.16,-421.84 695.58,-421.32 697.57,-428.03"/>
</a>
</g>
</g>
<!-- Node22 -->
<g id="Node000022" class="node">
<title>Node22</title>
<g id="a_Node000022"><a xlink:href="../../d5/d72/classLSM1x0A__LoRaWAN.html#a06bd50723ec1eb7e144c9141b2ec86fc" target="_top" xlink:title="Sets the LoRaWAN Network ID (NetID).">
<polygon fill="white" stroke="#666666" points="857.75,-370.95 697,-370.95 697,-350.95 857.75,-350.95 857.75,-370.95"/>
<text text-anchor="middle" x="777.38" y="-357.45" font-family="Helvetica,sans-Serif" font-size="10.00">LSM1x0A_LoRaWAN::setNwkID</text>
</a>
</g>
</g>
<!-- Node12&#45;&gt;Node22 -->
<g id="edge36_Node000012_Node000022" class="edge">
<title>Node12&#45;&gt;Node22</title>
<g id="a_edge36_Node000012_Node000022"><a xlink:title=" ">
<path fill="none" stroke="#63b8ff" d="M579.51,-464.74C599.1,-441.98 638.03,-400.98 680.5,-379.95 684.18,-378.13 688.01,-376.48 691.95,-374.99"/>
<polygon fill="#63b8ff" stroke="#63b8ff" points="692.76,-378.41 701.11,-371.9 690.52,-371.78 692.76,-378.41"/>
</a>
</g>
</g>
<!-- Node23 -->
<g id="Node000023" class="node">
<title>Node23</title>
<g id="a_Node000023"><a xlink:href="../../d5/d72/classLSM1x0A__LoRaWAN.html#aa70ada64d28ecca216bb62268e502adf" target="_top" xlink:title="Sets the delay for the RX1 receive window.">
<polygon fill="white" stroke="#666666" points="864.12,-332.95 690.62,-332.95 690.62,-312.95 864.12,-312.95 864.12,-332.95"/>
<text text-anchor="middle" x="777.38" y="-319.45" font-family="Helvetica,sans-Serif" font-size="10.00">LSM1x0A_LoRaWAN::setRx1Delay</text>
</a>
</g>
</g>
<!-- Node12&#45;&gt;Node23 -->
<g id="edge38_Node000012_Node000023" class="edge">
<title>Node12&#45;&gt;Node23</title>
<g id="a_edge38_Node000012_Node000023"><a xlink:title=" ">
<path fill="none" stroke="#63b8ff" d="M574.7,-464.54C590.9,-434.88 629.3,-372.58 680.5,-341.95 682.98,-340.46 685.56,-339.09 688.21,-337.82"/>
<polygon fill="#63b8ff" stroke="#63b8ff" points="689.46,-341.09 697.34,-334.02 686.76,-334.63 689.46,-341.09"/>
</a>
</g>
</g>
<!-- Node24 -->
<g id="Node000024" class="node">
<title>Node24</title>
<g id="a_Node000024"><a xlink:href="../../d5/d72/classLSM1x0A__LoRaWAN.html#a2cf4eff0181b6107d082bccefa24217b" target="_top" xlink:title="Sets the Data Rate (DR) specifically for the RX2 window.">
<polygon fill="white" stroke="#666666" points="872.38,-294.95 682.38,-294.95 682.38,-274.95 872.38,-274.95 872.38,-294.95"/>
<text text-anchor="middle" x="777.38" y="-281.45" font-family="Helvetica,sans-Serif" font-size="10.00">LSM1x0A_LoRaWAN::setRx2DataRate</text>
</a>
</g>
</g>
<!-- Node12&#45;&gt;Node24 -->
<g id="edge40_Node000012_Node000024" class="edge">
<title>Node12&#45;&gt;Node24</title>
<g id="a_edge40_Node000012_Node000024"><a xlink:title=" ">
<path fill="none" stroke="#63b8ff" d="M571.77,-464.61C584.65,-429.11 620.29,-344.84 680.5,-303.95 682.47,-302.61 684.52,-301.36 686.63,-300.19"/>
<polygon fill="#63b8ff" stroke="#63b8ff" points="687.96,-303.43 695.48,-295.97 684.95,-297.11 687.96,-303.43"/>
</a>
</g>
</g>
<!-- Node25 -->
<g id="Node000025" class="node">
<title>Node25</title>
<g id="a_Node000025"><a xlink:href="../../d5/d72/classLSM1x0A__LoRaWAN.html#a42d2137b475b57e19d891a5f1ac93221" target="_top" xlink:title="Sets the delay for the RX2 receive window.">
<polygon fill="white" stroke="#666666" points="864.12,-256.95 690.62,-256.95 690.62,-236.95 864.12,-236.95 864.12,-256.95"/>
<text text-anchor="middle" x="777.38" y="-243.45" font-family="Helvetica,sans-Serif" font-size="10.00">LSM1x0A_LoRaWAN::setRx2Delay</text>
</a>
</g>
</g>
<!-- Node12&#45;&gt;Node25 -->
<g id="edge42_Node000012_Node000025" class="edge">
<title>Node12&#45;&gt;Node25</title>
<g id="a_edge42_Node000012_Node000025"><a xlink:title=" ">
<path fill="none" stroke="#63b8ff" d="M569.84,-464.6C579.68,-423.89 611.11,-317.5 680.5,-265.95 682.09,-264.76 683.74,-263.65 685.43,-262.6"/>
<polygon fill="#63b8ff" stroke="#63b8ff" points="687.01,-265.72 694.23,-257.97 683.75,-259.53 687.01,-265.72"/>
</a>
</g>
</g>
<!-- Node26 -->
<g id="Node000026" class="node">
<title>Node26</title>
<g id="a_Node000026"><a xlink:href="../../d5/d72/classLSM1x0A__LoRaWAN.html#a689f7dfda1dfeae11ea397c2ddf2ad37" target="_top" xlink:title="Sets the precise frequency for the RX2 window.">
<polygon fill="white" stroke="#666666" points="874.25,-218.95 680.5,-218.95 680.5,-198.95 874.25,-198.95 874.25,-218.95"/>
<text text-anchor="middle" x="777.38" y="-205.45" font-family="Helvetica,sans-Serif" font-size="10.00">LSM1x0A_LoRaWAN::setRx2Frequency</text>
</a>
</g>
</g>
<!-- Node12&#45;&gt;Node26 -->
<g id="edge44_Node000012_Node000026" class="edge">
<title>Node12&#45;&gt;Node26</title>
<g id="a_edge44_Node000012_Node000026"><a xlink:title=" ">
<path fill="none" stroke="#63b8ff" d="M568.46,-464.5C575.51,-418.96 601.81,-290.44 680.5,-227.95 681.83,-226.89 683.2,-225.89 684.61,-224.94"/>
<polygon fill="#63b8ff" stroke="#63b8ff" points="686.11,-228.11 693.07,-220.12 682.65,-222.03 686.11,-228.11"/>
</a>
</g>
</g>
<!-- Node27 -->
<g id="Node000027" class="node">
<title>Node27</title>
<g id="a_Node000027"><a xlink:href="../../d5/d72/classLSM1x0A__LoRaWAN.html#a1df10d7ae6bf45b537d28d3d5c4b88d7" target="_top" xlink:title="Sets the transmission power index.">
<polygon fill="white" stroke="#666666" points="861.88,-180.95 692.88,-180.95 692.88,-160.95 861.88,-160.95 861.88,-180.95"/>
<text text-anchor="middle" x="777.38" y="-167.45" font-family="Helvetica,sans-Serif" font-size="10.00">LSM1x0A_LoRaWAN::setTxPower</text>
</a>
</g>
</g>
<!-- Node12&#45;&gt;Node27 -->
<g id="edge46_Node000012_Node000027" class="edge">
<title>Node12&#45;&gt;Node27</title>
<g id="a_edge46_Node000012_Node000027"><a xlink:title=" ">
<path fill="none" stroke="#63b8ff" d="M567.39,-464.65C571.8,-414.88 592.21,-263.73 680.5,-189.95 681.64,-189 682.8,-188.09 684,-187.23"/>
<polygon fill="#63b8ff" stroke="#63b8ff" points="685.68,-190.3 692.43,-182.14 682.06,-184.31 685.68,-190.3"/>
</a>
</g>
</g>
<!-- Node28 -->
<g id="Node000028" class="node">
<title>Node28</title>
<g id="a_Node000028"><a xlink:href="../../d5/d72/classLSM1x0A__LoRaWAN.html#a059fd6a9356c4ecadd5a98294da5952d" target="_top" xlink:title="Configures the number of repetitions for Unconfirmed uplinks.">
<polygon fill="white" stroke="#666666" points="864.88,-142.95 689.88,-142.95 689.88,-110.95 864.88,-110.95 864.88,-142.95"/>
<text text-anchor="start" x="697.88" y="-129.45" font-family="Helvetica,sans-Serif" font-size="10.00">LSM1x0A_LoRaWAN::setUnconfirm</text>
<text text-anchor="middle" x="777.38" y="-117.45" font-family="Helvetica,sans-Serif" font-size="10.00">Retry</text>
</a>
</g>
</g>
<!-- Node12&#45;&gt;Node28 -->
<g id="edge48_Node000012_Node000028" class="edge">
<title>Node12&#45;&gt;Node28</title>
<g id="a_edge48_Node000012_Node000028"><a xlink:title=" ">
<path fill="none" stroke="#63b8ff" d="M566.77,-464.75C569.4,-411.46 585.23,-239.96 680.5,-151.95 681.27,-151.23 682.07,-150.54 682.87,-149.86"/>
<polygon fill="#63b8ff" stroke="#63b8ff" points="684.72,-152.84 690.87,-144.21 680.69,-147.12 684.72,-152.84"/>
</a>
</g>
</g>
<!-- Node13&#45;&gt;Node2 -->
<g id="edge18_Node000013_Node000002" class="edge">
<title>Node13&#45;&gt;Node2</title>
<g id="a_edge18_Node000013_Node000002"><a xlink:title=" ">
<path fill="none" stroke="#63b8ff" d="M702.36,-778.49C593.14,-761.69 396.08,-725.64 344,-677.95 293.35,-631.57 270.12,-550.58 261,-508.34"/>
<polygon fill="#63b8ff" stroke="#63b8ff" points="264.48,-507.86 259.05,-498.76 257.62,-509.26 264.48,-507.86"/>
</a>
</g>
</g>
<!-- Node14&#45;&gt;Node2 -->
<g id="edge20_Node000014_Node000002" class="edge">
<title>Node14&#45;&gt;Node2</title>
<g id="a_edge20_Node000014_Node000002"><a xlink:title=" ">
<path fill="none" stroke="#63b8ff" d="M704.73,-740.46C596.67,-723.42 398.76,-687.03 344,-641.95 300.73,-606.32 275.37,-543.61 263.74,-507.88"/>
<polygon fill="#63b8ff" stroke="#63b8ff" points="267.21,-507.24 260.89,-498.74 260.52,-509.32 267.21,-507.24"/>
</a>
</g>
</g>
<!-- Node15&#45;&gt;Node2 -->
<g id="edge23_Node000015_Node000002" class="edge">
<title>Node15&#45;&gt;Node2</title>
<g id="a_edge23_Node000015_Node000002"><a xlink:title=" ">
<path fill="none" stroke="#63b8ff" d="M694.74,-696.13C585.33,-680.29 398.57,-648.15 344,-606.95 308.88,-580.43 282.49,-535.78 268.15,-507.37"/>
<polygon fill="#63b8ff" stroke="#63b8ff" points="271.46,-506.16 263.92,-498.71 265.17,-509.23 271.46,-506.16"/>
</a>
</g>
</g>
<!-- Node16&#45;&gt;Node2 -->
<g id="edge25_Node000016_Node000002" class="edge">
<title>Node16&#45;&gt;Node2</title>
<g id="a_edge25_Node000016_Node000002"><a xlink:title=" ">
<path fill="none" stroke="#63b8ff" d="M691.27,-660.63C599.56,-654.66 452.21,-634.71 344,-569.95 316.32,-553.38 291.14,-526.09 274.88,-506.09"/>
<polygon fill="#63b8ff" stroke="#63b8ff" points="277.74,-504.06 268.79,-498.39 272.25,-508.41 277.74,-504.06"/>
</a>
</g>
</g>
<!-- Node17&#45;&gt;Node2 -->
<g id="edge27_Node000017_Node000002" class="edge">
<title>Node17&#45;&gt;Node2</title>
<g id="a_edge27_Node000017_Node000002"><a xlink:title=" ">
<path fill="none" stroke="#63b8ff" d="M693.02,-618.09C603.76,-608.52 459.4,-586.49 344,-537.95 323.24,-529.22 301.99,-515.61 285.58,-503.88"/>
<polygon fill="#63b8ff" stroke="#63b8ff" points="287.87,-501.22 277.73,-498.14 283.74,-506.87 287.87,-501.22"/>
</a>
</g>
</g>
<!-- Node18&#45;&gt;Node2 -->
<g id="edge29_Node000018_Node000002" class="edge">
<title>Node18&#45;&gt;Node2</title>
<g id="a_edge29_Node000018_Node000002"><a xlink:title=" ">
<path fill="none" stroke="#63b8ff" d="M694.62,-576.91C607.03,-565.2 464.34,-543.35 344,-511.95 332.48,-508.94 320.32,-505.11 308.84,-501.17"/>
<polygon fill="#63b8ff" stroke="#63b8ff" points="310.1,-497.9 299.51,-497.88 307.78,-504.5 310.1,-497.9"/>
</a>
</g>
</g>
<!-- Node19&#45;&gt;Node2 -->
<g id="edge31_Node000019_Node000002" class="edge">
<title>Node19&#45;&gt;Node2</title>
<g id="a_edge31_Node000019_Node000002"><a xlink:title=" ">
<path fill="none" stroke="#63b8ff" d="M701.64,-534.04C598.96,-521.81 416.06,-500.02 319.6,-488.53"/>
<polygon fill="#63b8ff" stroke="#63b8ff" points="320.12,-485.06 309.78,-487.36 319.3,-492.01 320.12,-485.06"/>
</a>
</g>
</g>
<!-- Node20&#45;&gt;Node2 -->
<g id="edge33_Node000020_Node000002" class="edge">
<title>Node20&#45;&gt;Node2</title>
<g id="a_edge33_Node000020_Node000002"><a xlink:title=" ">
<path fill="none" stroke="#63b8ff" d="M700.5,-453.04C641.87,-452.09 558.73,-451.88 486,-455.95 429.62,-459.1 365.8,-466.33 319.72,-472.21"/>
<polygon fill="#63b8ff" stroke="#63b8ff" points="319.37,-468.72 309.9,-473.48 320.26,-475.67 319.37,-468.72"/>
</a>
</g>
</g>
<!-- Node21&#45;&gt;Node2 -->
<g id="edge35_Node000021_Node000002" class="edge">
<title>Node21&#45;&gt;Node2</title>
<g id="a_edge35_Node000021_Node000002"><a xlink:title=" ">
<path fill="none" stroke="#63b8ff" d="M700.38,-409.76C613.53,-416.18 467.46,-429.77 344,-454.95 335.33,-456.72 326.28,-458.94 317.42,-461.34"/>
<polygon fill="#63b8ff" stroke="#63b8ff" points="316.48,-457.97 307.8,-464.05 318.38,-464.71 316.48,-457.97"/>
</a>
</g>
</g>
<!-- Node22&#45;&gt;Node2 -->
<g id="edge37_Node000022_Node000002" class="edge">
<title>Node22&#45;&gt;Node2</title>
<g id="a_edge37_Node000022_Node000002"><a xlink:title=" ">
<path fill="none" stroke="#63b8ff" d="M696.71,-366.22C608.45,-373.87 462.88,-391.94 344,-432.95 325.51,-439.33 306.3,-449.35 290.56,-458.6"/>
<polygon fill="#63b8ff" stroke="#63b8ff" points="288.8,-455.57 282.05,-463.73 292.42,-461.56 288.8,-455.57"/>
</a>
</g>
</g>
<!-- Node23&#45;&gt;Node2 -->
<g id="edge39_Node000023_Node000002" class="edge">
<title>Node23&#45;&gt;Node2</title>
<g id="a_edge39_Node000023_Node000002"><a xlink:title=" ">
<path fill="none" stroke="#63b8ff" d="M690.24,-323.48C599.29,-327.36 454.1,-343.2 344,-400.95 317.76,-414.71 293.28,-438.19 276.84,-456.16"/>
<polygon fill="#63b8ff" stroke="#63b8ff" points="274.48,-453.54 270.45,-463.34 279.71,-458.2 274.48,-453.54"/>
</a>
</g>
</g>
<!-- Node24&#45;&gt;Node2 -->
<g id="edge41_Node000024_Node000002" class="edge">
<title>Node24&#45;&gt;Node2</title>
<g id="a_edge41_Node000024_Node000002"><a xlink:title=" ">
<path fill="none" stroke="#63b8ff" d="M682.15,-278.72C588.6,-277.21 444.94,-287.94 344,-355.95 307.5,-380.54 281.37,-425.71 267.48,-454.49"/>
<polygon fill="#63b8ff" stroke="#63b8ff" points="264.44,-452.73 263.4,-463.27 270.79,-455.68 264.44,-452.73"/>
</a>
</g>
</g>
<!-- Node25&#45;&gt;Node2 -->
<g id="edge43_Node000025_Node000002" class="edge">
<title>Node25&#45;&gt;Node2</title>
<g id="a_edge43_Node000025_Node000002"><a xlink:title=" ">
<path fill="none" stroke="#63b8ff" d="M706.6,-236.49C613.83,-226.6 449.34,-223.58 344,-304.95 295.36,-342.51 271.63,-414.19 261.81,-453.49"/>
<polygon fill="#63b8ff" stroke="#63b8ff" points="258.44,-452.56 259.55,-463.1 265.25,-454.17 258.44,-452.56"/>
</a>
</g>
</g>
<!-- Node26&#45;&gt;Node2 -->
<g id="edge45_Node000026_Node000002" class="edge">
<title>Node26&#45;&gt;Node2</title>
<g id="a_edge45_Node000026_Node000002"><a xlink:title=" ">
<path fill="none" stroke="#63b8ff" d="M680.17,-205.86C568.72,-204.31 394,-208.72 344,-248.95 280.11,-300.36 262.58,-403.6 257.79,-453.16"/>
<polygon fill="#63b8ff" stroke="#63b8ff" points="254.31,-452.77 256.95,-463.03 261.28,-453.36 254.31,-452.77"/>
</a>
</g>
</g>
<!-- Node27&#45;&gt;Node2 -->
<g id="edge47_Node000027_Node000002" class="edge">
<title>Node27&#45;&gt;Node2</title>
<g id="a_edge47_Node000027_Node000002"><a xlink:title=" ">
<path fill="none" stroke="#63b8ff" d="M729.67,-160.48C643.24,-144.01 456.89,-122.56 344,-212.95 269.19,-272.85 257.33,-397.78 255.9,-453.31"/>
<polygon fill="#63b8ff" stroke="#63b8ff" points="252.4,-453.1 255.75,-463.15 259.4,-453.21 252.4,-453.1"/>
</a>
</g>
</g>
<!-- Node28&#45;&gt;Node2 -->
<g id="edge49_Node000028_Node000002" class="edge">
<title>Node28&#45;&gt;Node2</title>
<g id="a_edge49_Node000028_Node000002"><a xlink:title=" ">
<path fill="none" stroke="#63b8ff" d="M689.49,-121.55C578.4,-116.57 394.37,-115.39 344,-157.95 298.15,-196.69 269,-383.18 259.45,-453.79"/>
<polygon fill="#63b8ff" stroke="#63b8ff" points="256.03,-452.95 258.19,-463.32 262.97,-453.87 256.03,-452.95"/>
</a>
</g>
</g>
<!-- Node30&#45;&gt;Node31 -->
<g id="edge52_Node000030_Node000031" class="edge">
<title>Node30&#45;&gt;Node31</title>
<g id="a_edge52_Node000030_Node000031"><a xlink:title=" ">
<path fill="none" stroke="#63b8ff" d="M618.73,-1092.44C636.89,-1094.34 657.86,-1096.54 678.47,-1098.7"/>
<polygon fill="#63b8ff" stroke="#63b8ff" points="678.04,-1102.17 688.35,-1099.73 678.77,-1095.21 678.04,-1102.17"/>
</a>
</g>
</g>
<!-- Node32 -->
<g id="Node000032" class="node">
<title>Node32</title>
<g id="a_Node000032"><a xlink:href="../../d6/d3c/classLSM1x0A__AtParser.html#a0ba6f927c54fceece22c17773d3f2600" target="_top" xlink:title="Sends a command and extracts a value from the response.">
<polygon fill="white" stroke="#666666" points="1092.38,-1124.95 918.12,-1124.95 918.12,-1092.95 1092.38,-1092.95 1092.38,-1124.95"/>
<text text-anchor="start" x="926.12" y="-1111.45" font-family="Helvetica,sans-Serif" font-size="10.00">LSM1x0A_AtParser::sendCommand</text>
<text text-anchor="middle" x="1005.25" y="-1099.45" font-family="Helvetica,sans-Serif" font-size="10.00">WithResponse</text>
</a>
</g>
</g>
<!-- Node31&#45;&gt;Node32 -->
<g id="edge53_Node000031_Node000032" class="edge">
<title>Node31&#45;&gt;Node32</title>
<g id="a_edge53_Node000031_Node000032"><a xlink:title=" ">
<path fill="none" stroke="#63b8ff" d="M864.74,-1108.95C878.49,-1108.95 892.81,-1108.95 906.8,-1108.95"/>
<polygon fill="#63b8ff" stroke="#63b8ff" points="906.42,-1112.45 916.42,-1108.95 906.42,-1105.45 906.42,-1112.45"/>
</a>
</g>
</g>
<!-- Node33 -->
<g id="Node000033" class="node">
<title>Node33</title>
<g id="a_Node000033"><a xlink:href="../../d5/d8b/classUartDriver.html#a5d0f22e8867eebe99273078bb19bd23d" target="_top" xlink:title="Sends data through UART.">
<polygon fill="white" stroke="#666666" points="1267,-1118.95 1158,-1118.95 1158,-1098.95 1267,-1098.95 1267,-1118.95"/>
<text text-anchor="middle" x="1212.5" y="-1105.45" font-family="Helvetica,sans-Serif" font-size="10.00">UartDriver::sendData</text>
</a>
</g>
</g>
<!-- Node32&#45;&gt;Node33 -->
<g id="edge54_Node000032_Node000033" class="edge">
<title>Node32&#45;&gt;Node33</title>
<g id="a_edge54_Node000032_Node000033"><a xlink:title=" ">
<path fill="none" stroke="#63b8ff" d="M1092.7,-1108.95C1110.59,-1108.95 1129.16,-1108.95 1146.14,-1108.95"/>
<polygon fill="#63b8ff" stroke="#63b8ff" points="1146.11,-1112.45 1156.11,-1108.95 1146.11,-1105.45 1146.11,-1112.45"/>
</a>
</g>
</g>
</g>
</svg>
