<?xml version="1.0" encoding="UTF-8" standalone="no"?>
<!DOCTYPE svg PUBLIC "-//W3C//DTD SVG 1.1//EN"
 "http://www.w3.org/Graphics/SVG/1.1/DTD/svg11.dtd">
<!-- Generated by graphviz version 12.2.1 (20241206.2353)
 -->
<!-- Title: LSM1x0A_LoRaWAN::setConfirmRetry Pages: 1 -->
<svg width="1295pt" height="1064pt"
 viewBox="0.00 0.00 1295.25 1064.06" xmlns="http://www.w3.org/2000/svg" xmlns:xlink="http://www.w3.org/1999/xlink">
<g id="graph0" class="graph" transform="scale(1 1) rotate(0) translate(4 1060.06)">
<title>LSM1x0A_LoRaWAN::setConfirmRetry</title>
<!-- Node1 -->
<g id="Node000001" class="node">
<title>Node1</title>
<g id="a_Node000001"><a xlink:title="Configures the number of retries for Confirmed uplinks.">
<polygon fill="#999999" stroke="#666666" points="164.5,-351.99 0,-351.99 0,-319.99 164.5,-319.99 164.5,-351.99"/>
<text text-anchor="start" x="8" y="-338.49" font-family="Helvetica,sans-Serif" font-size="10.00">LSM1x0A_LoRaWAN::setConfirm</text>
<text text-anchor="middle" x="82.25" y="-326.49" font-family="Helvetica,sans-Serif" font-size="10.00">Retry</text>
</a>
</g>
</g>
<!-- Node2 -->
<g id="Node000002" class="node">
<title>Node2</title>
<g id="a_Node000002"><a xlink:href="../../d8/d92/classLSM1x0A__Controller.html#afd7d92e60ed6fdae696a955cdbe0ed8c" target="_top" xlink:title="Sends any AT command to the module, returning error if it fails. Internally uses the LsmAtParser logi...">
<polygon fill="white" stroke="#666666" points="306.5,-447.99 200.5,-447.99 200.5,-415.99 306.5,-415.99 306.5,-447.99"/>
<text text-anchor="start" x="208.5" y="-434.49" font-family="Helvetica,sans-Serif" font-size="10.00">LSM1x0A_Controller</text>
<text text-anchor="middle" x="253.5" y="-422.49" font-family="Helvetica,sans-Serif" font-size="10.00">::sendCommand</text>
</a>
</g>
</g>
<!-- Node1&#45;&gt;Node2 -->
<g id="edge1_Node000001_Node000002" class="edge">
<title>Node1&#45;&gt;Node2</title>
<g id="a_edge1_Node000001_Node000002"><a xlink:title=" ">
<path fill="none" stroke="#63b8ff" d="M111.96,-352.28C140.04,-368.21 183,-392.57 214.03,-410.17"/>
<polygon fill="#63b8ff" stroke="#63b8ff" points="211.91,-412.99 222.33,-414.88 215.36,-406.9 211.91,-412.99"/>
</a>
</g>
</g>
<!-- Node3 -->
<g id="Node000003" class="node">
<title>Node3</title>
<g id="a_Node000003"><a xlink:href="../../d8/d92/classLSM1x0A__Controller.html#abb0eb380daa3dfb7acffb483c5db8e2b" target="_top" xlink:title="Executes the recovery protocol. First Soft&#45;Reset (ATZ), then Hard&#45;Reset if there is a pin.">
<polygon fill="white" stroke="#666666" points="448.5,-864.99 342.5,-864.99 342.5,-832.99 448.5,-832.99 448.5,-864.99"/>
<text text-anchor="start" x="350.5" y="-851.49" font-family="Helvetica,sans-Serif" font-size="10.00">LSM1x0A_Controller</text>
<text text-anchor="middle" x="395.5" y="-839.49" font-family="Helvetica,sans-Serif" font-size="10.00">::recoverModule</text>
</a>
</g>
</g>
<!-- Node2&#45;&gt;Node3 -->
<g id="edge2_Node000002_Node000003" class="edge">
<title>Node2&#45;&gt;Node3</title>
<g id="a_edge2_Node000002_Node000003"><a xlink:title=" ">
<path fill="none" stroke="#63b8ff" d="M258.54,-448.44C269.91,-493.97 303.84,-625.29 342.5,-730.99 354.25,-763.12 370.5,-798.93 381.69,-822.59"/>
<polygon fill="#63b8ff" stroke="#63b8ff" points="378.47,-823.97 385.94,-831.48 384.79,-820.95 378.47,-823.97"/>
</a>
</g>
</g>
<!-- Node30 -->
<g id="Node000030" class="node">
<title>Node30</title>
<g id="a_Node000030"><a xlink:href="../../d6/d3c/classLSM1x0A__AtParser.html#a29b53c521974387ba6c03afadfaffa4a" target="_top" xlink:title="Sends a simple command and waits for OK/ERROR. Example: sendCommand(&quot;AT+JOIN&quot;);.">
<polygon fill="white" stroke="#666666" points="863,-694.99 688.75,-694.99 688.75,-674.99 863,-674.99 863,-694.99"/>
<text text-anchor="middle" x="775.88" y="-681.49" font-family="Helvetica,sans-Serif" font-size="10.00">LSM1x0A_AtParser::sendCommand</text>
</a>
</g>
</g>
<!-- Node2&#45;&gt;Node30 -->
<g id="edge54_Node000002_Node000030" class="edge">
<title>Node2&#45;&gt;Node30</title>
<g id="a_edge54_Node000002_Node000030"><a xlink:title=" ">
<path fill="none" stroke="#63b8ff" d="M258.54,-448.42C267.67,-482.2 293.05,-559.88 342.5,-602.99 434.73,-683.41 580.79,-695.3 677.23,-692.93"/>
<polygon fill="#63b8ff" stroke="#63b8ff" points="677.04,-696.44 686.93,-692.63 676.83,-689.44 677.04,-696.44"/>
</a>
</g>
</g>
<!-- Node4 -->
<g id="Node000004" class="node">
<title>Node4</title>
<g id="a_Node000004"><a xlink:href="../../d8/d92/classLSM1x0A__Controller.html#a3f6f25b843fe4fb7042c544deae2ab16" target="_top" xlink:title="Manually clears bits from the internal EventGroup.">
<polygon fill="white" stroke="#666666" points="1056.75,-921.99 950.75,-921.99 950.75,-889.99 1056.75,-889.99 1056.75,-921.99"/>
<text text-anchor="start" x="958.75" y="-908.49" font-family="Helvetica,sans-Serif" font-size="10.00">LSM1x0A_Controller</text>
<text text-anchor="middle" x="1003.75" y="-896.49" font-family="Helvetica,sans-Serif" font-size="10.00">::clearEvents</text>
</a>
</g>
</g>
<!-- Node3&#45;&gt;Node4 -->
<g id="edge3_Node000003_Node000004" class="edge">
<title>Node3&#45;&gt;Node4</title>
<g id="a_edge3_Node000003_Node000004"><a xlink:title=" ">
<path fill="none" stroke="#63b8ff" d="M447.26,-865.42C459.35,-868.77 472.29,-871.91 484.5,-873.99 646.52,-901.68 840.65,-906.16 938.96,-906.45"/>
<polygon fill="#63b8ff" stroke="#63b8ff" points="938.95,-909.95 948.95,-906.46 938.96,-902.95 938.95,-909.95"/>
</a>
</g>
</g>
<!-- Node5 -->
<g id="Node000005" class="node">
<title>Node5</title>
<g id="a_Node000005"><a xlink:href="../../d8/d92/classLSM1x0A__Controller.html#a345d4bd79fa16b18dc33a4ca788fe5f7" target="_top" xlink:title="Performs a hardware reset using the reset pin.">
<polygon fill="white" stroke="#666666" points="616.75,-864.99 510.75,-864.99 510.75,-832.99 616.75,-832.99 616.75,-864.99"/>
<text text-anchor="start" x="518.75" y="-851.49" font-family="Helvetica,sans-Serif" font-size="10.00">LSM1x0A_Controller</text>
<text text-anchor="middle" x="563.75" y="-839.49" font-family="Helvetica,sans-Serif" font-size="10.00">::hardwareReset</text>
</a>
</g>
</g>
<!-- Node3&#45;&gt;Node5 -->
<g id="edge4_Node000003_Node000005" class="edge">
<title>Node3&#45;&gt;Node5</title>
<g id="a_edge4_Node000003_Node000005"><a xlink:title=" ">
<path fill="none" stroke="#63b8ff" d="M448.65,-848.99C464.66,-848.99 482.47,-848.99 499.16,-848.99"/>
<polygon fill="#63b8ff" stroke="#63b8ff" points="498.99,-852.49 508.99,-848.99 498.99,-845.49 498.99,-852.49"/>
</a>
</g>
</g>
<!-- Node7 -->
<g id="Node000007" class="node">
<title>Node7</title>
<g id="a_Node000007"><a xlink:href="../../d5/d72/classLSM1x0A__LoRaWAN.html#a1892801e37c8cd67d37c76108d6f7d49" target="_top" xlink:title="Validates if the device is currently Joined to the network. (Either confirmed by OTAA or statically a...">
<polygon fill="white" stroke="#666666" points="1287.25,-785.99 1134.75,-785.99 1134.75,-765.99 1287.25,-765.99 1287.25,-785.99"/>
<text text-anchor="middle" x="1211" y="-772.49" font-family="Helvetica,sans-Serif" font-size="10.00">LSM1x0A_LoRaWAN::isJoined</text>
</a>
</g>
</g>
<!-- Node3&#45;&gt;Node7 -->
<g id="edge6_Node000003_Node000007" class="edge">
<title>Node3&#45;&gt;Node7</title>
<g id="a_edge6_Node000003_Node000007"><a xlink:title=" ">
<path fill="none" stroke="#63b8ff" d="M447.27,-832.61C459.36,-829.25 472.29,-826.11 484.5,-823.99 712.7,-784.48 986.44,-776.95 1123.24,-775.85"/>
<polygon fill="#63b8ff" stroke="#63b8ff" points="1122.96,-779.36 1132.93,-775.79 1122.91,-772.36 1122.96,-779.36"/>
</a>
</g>
</g>
<!-- Node8 -->
<g id="Node000008" class="node">
<title>Node8</title>
<g id="a_Node000008"><a xlink:href="../../d5/d72/classLSM1x0A__LoRaWAN.html#a83e11c0e74ff9e0757db616ab1163424" target="_top" xlink:title="Attempts to recover a lost connection (re&#45;executes OTAA Join if dropped).">
<polygon fill="white" stroke="#666666" points="638.12,-1028.99 489.38,-1028.99 489.38,-996.99 638.12,-996.99 638.12,-1028.99"/>
<text text-anchor="start" x="497.38" y="-1015.49" font-family="Helvetica,sans-Serif" font-size="10.00">LSM1x0A_LoRaWAN::recover</text>
<text text-anchor="middle" x="563.75" y="-1003.49" font-family="Helvetica,sans-Serif" font-size="10.00">Connection</text>
</a>
</g>
</g>
<!-- Node3&#45;&gt;Node8 -->
<g id="edge7_Node000003_Node000008" class="edge">
<title>Node3&#45;&gt;Node8</title>
<g id="a_edge7_Node000003_Node000008"><a xlink:title=" ">
<path fill="none" stroke="#63b8ff" d="M403.2,-865.39C415.39,-893.29 443.75,-950.18 484.5,-982.99 488.37,-986.1 492.59,-988.92 497.01,-991.46"/>
<polygon fill="#63b8ff" stroke="#63b8ff" points="495.1,-994.41 505.59,-995.91 498.32,-988.2 495.1,-994.41"/>
</a>
</g>
</g>
<!-- Node12 -->
<g id="Node000012" class="node">
<title>Node12</title>
<g id="a_Node000012"><a xlink:href="../../d5/d72/classLSM1x0A__LoRaWAN.html#ae3be4ce59dfa200369733317df356e97" target="_top" xlink:title="Pushes the RAM&#45;cached variables back down into the hardware module. Restores the operational state af...">
<polygon fill="white" stroke="#666666" points="637,-384.99 490.5,-384.99 490.5,-352.99 637,-352.99 637,-384.99"/>
<text text-anchor="start" x="498.5" y="-371.49" font-family="Helvetica,sans-Serif" font-size="10.00">LSM1x0A_LoRaWAN::restore</text>
<text text-anchor="middle" x="563.75" y="-359.49" font-family="Helvetica,sans-Serif" font-size="10.00">Config</text>
</a>
</g>
</g>
<!-- Node3&#45;&gt;Node12 -->
<g id="edge16_Node000003_Node000012" class="edge">
<title>Node3&#45;&gt;Node12</title>
<g id="a_edge16_Node000003_Node000012"><a xlink:title=" ">
<path fill="none" stroke="#63b8ff" d="M402.13,-832.75C426.45,-762.53 522.67,-484.71 553.32,-396.22"/>
<polygon fill="#63b8ff" stroke="#63b8ff" points="556.58,-397.51 556.54,-386.91 549.96,-395.21 556.58,-397.51"/>
</a>
</g>
</g>
<!-- Node28 -->
<g id="Node000028" class="node">
<title>Node28</title>
<g id="a_Node000028"><a xlink:href="../../d5/d72/classLSM1x0A__LoRaWAN.html#ace4b04396f1de1f4a54f513f5f378db7" target="_top" xlink:title="Manually overrides the internal joined state tracker.">
<polygon fill="white" stroke="#666666" points="643,-940.99 484.5,-940.99 484.5,-920.99 643,-920.99 643,-940.99"/>
<text text-anchor="middle" x="563.75" y="-927.49" font-family="Helvetica,sans-Serif" font-size="10.00">LSM1x0A_LoRaWAN::setJoined</text>
</a>
</g>
</g>
<!-- Node3&#45;&gt;Node28 -->
<g id="edge49_Node000003_Node000028" class="edge">
<title>Node3&#45;&gt;Node28</title>
<g id="a_edge49_Node000003_Node000028"><a xlink:title=" ">
<path fill="none" stroke="#63b8ff" d="M417.54,-865.35C434.76,-878.11 460.17,-895.53 484.5,-906.99 492.54,-910.78 501.33,-914.15 510.02,-917.08"/>
<polygon fill="#63b8ff" stroke="#63b8ff" points="508.87,-920.39 519.46,-920.1 511,-913.72 508.87,-920.39"/>
</a>
</g>
</g>
<!-- Node29 -->
<g id="Node000029" class="node">
<title>Node29</title>
<g id="a_Node000029"><a xlink:href="../../d8/d92/classLSM1x0A__Controller.html#a11ad21cb5ca33ec51346764a23bd485e" target="_top" xlink:title="Performs a software reset (ATZ Command).">
<polygon fill="white" stroke="#666666" points="616.75,-776.99 510.75,-776.99 510.75,-744.99 616.75,-744.99 616.75,-776.99"/>
<text text-anchor="start" x="518.75" y="-763.49" font-family="Helvetica,sans-Serif" font-size="10.00">LSM1x0A_Controller</text>
<text text-anchor="middle" x="563.75" y="-751.49" font-family="Helvetica,sans-Serif" font-size="10.00">::softwareReset</text>
</a>
</g>
</g>
<!-- Node3&#45;&gt;Node29 -->
<g id="edge50_Node000003_Node000029" class="edge">
<title>Node3&#45;&gt;Node29</title>
<g id="a_edge50_Node000003_Node000029"><a xlink:title=" ">
<path fill="none" stroke="#63b8ff" d="M418.47,-832.57C435.8,-820.11 460.9,-803.11 484.5,-790.99 490.79,-787.76 497.5,-784.68 504.26,-781.81"/>
<polygon fill="#63b8ff" stroke="#63b8ff" points="505.53,-785.07 513.46,-778.04 502.88,-778.59 505.53,-785.07"/>
</a>
</g>
</g>
<!-- Node6 -->
<g id="Node000006" class="node">
<title>Node6</title>
<g id="a_Node000006"><a xlink:href="../../d6/d3c/classLSM1x0A__AtParser.html#ad2839120da13e56132b95019419be1e5" target="_top" xlink:title="Waits for an event (like BOOTALERT) without sending any command. Useful for hardware reset where the ...">
<polygon fill="white" stroke="#666666" points="846.12,-864.99 705.62,-864.99 705.62,-832.99 846.12,-832.99 846.12,-864.99"/>
<text text-anchor="start" x="713.62" y="-851.49" font-family="Helvetica,sans-Serif" font-size="10.00">LSM1x0A_AtParser::waitFor</text>
<text text-anchor="middle" x="775.88" y="-839.49" font-family="Helvetica,sans-Serif" font-size="10.00">Event</text>
</a>
</g>
</g>
<!-- Node5&#45;&gt;Node6 -->
<g id="edge5_Node000005_Node000006" class="edge">
<title>Node5&#45;&gt;Node6</title>
<g id="a_edge5_Node000005_Node000006"><a xlink:title=" ">
<path fill="none" stroke="#63b8ff" d="M617.23,-848.99C640.42,-848.99 668.22,-848.99 693.96,-848.99"/>
<polygon fill="#63b8ff" stroke="#63b8ff" points="693.72,-852.49 703.72,-848.99 693.72,-845.49 693.72,-852.49"/>
</a>
</g>
</g>
<!-- Node9 -->
<g id="Node000009" class="node">
<title>Node9</title>
<g id="a_Node000009"><a xlink:href="../../d5/d72/classLSM1x0A__LoRaWAN.html#a59f781f3cfd30c11cd3973bcb10a7baa" target="_top" xlink:title="Initiates a LoRaWAN Network Join procedure. This is a blocking function until the module fires an eve...">
<polygon fill="white" stroke="#666666" points="841.62,-978.99 710.12,-978.99 710.12,-958.99 841.62,-958.99 841.62,-978.99"/>
<text text-anchor="middle" x="775.88" y="-965.49" font-family="Helvetica,sans-Serif" font-size="10.00">LSM1x0A_LoRaWAN::join</text>
</a>
</g>
</g>
<!-- Node8&#45;&gt;Node9 -->
<g id="edge8_Node000008_Node000009" class="edge">
<title>Node8&#45;&gt;Node9</title>
<g id="a_edge8_Node000008_Node000009"><a xlink:title=" ">
<path fill="none" stroke="#63b8ff" d="M638.54,-997.54C663.13,-992.39 690.24,-986.72 713.76,-981.79"/>
<polygon fill="#63b8ff" stroke="#63b8ff" points="714.44,-985.22 723.51,-979.75 713.01,-978.37 714.44,-985.22"/>
</a>
</g>
</g>
<!-- Node9&#45;&gt;Node2 -->
<g id="edge11_Node000009_Node000002" class="edge">
<title>Node9&#45;&gt;Node2</title>
<g id="a_edge11_Node000009_Node000002"><a xlink:title=" ">
<path fill="none" stroke="#63b8ff" d="M760.78,-979.34C737.62,-995.63 689.42,-1026.58 643,-1037.99 574.59,-1054.81 548.57,-1067.27 484.5,-1037.99 396.81,-997.92 384.88,-960.59 342.5,-873.99 271.63,-729.16 257.83,-531.08 255.15,-459.34"/>
<polygon fill="#63b8ff" stroke="#63b8ff" points="258.66,-459.58 254.84,-449.7 251.66,-459.81 258.66,-459.58"/>
</a>
</g>
</g>
<!-- Node9&#45;&gt;Node3 -->
<g id="edge10_Node000009_Node000003" class="edge">
<title>Node9&#45;&gt;Node3</title>
<g id="a_edge10_Node000009_Node000003"><a xlink:title=" ">
<path fill="none" stroke="#63b8ff" d="M709.78,-978.48C648.4,-984.36 555.47,-985.13 484.5,-949.99 451.49,-933.65 425.64,-898.87 410.73,-874.72"/>
<polygon fill="#63b8ff" stroke="#63b8ff" points="413.91,-873.22 405.79,-866.41 407.89,-876.8 413.91,-873.22"/>
</a>
</g>
</g>
<!-- Node9&#45;&gt;Node4 -->
<g id="edge9_Node000009_Node000004" class="edge">
<title>Node9&#45;&gt;Node4</title>
<g id="a_edge9_Node000009_Node000004"><a xlink:title=" ">
<path fill="none" stroke="#63b8ff" d="M814.43,-958.52C848.37,-949.05 899.03,-934.92 939.26,-923.7"/>
<polygon fill="#63b8ff" stroke="#63b8ff" points="940.15,-927.08 948.85,-921.03 938.27,-920.34 940.15,-927.08"/>
</a>
</g>
</g>
<!-- Node10 -->
<g id="Node000010" class="node">
<title>Node10</title>
<g id="a_Node000010"><a xlink:href="../../d5/d72/classLSM1x0A__LoRaWAN.html#a3fdd1ac318a5ad2559323e5d57e36a5e" target="_top" xlink:title="Enables or disables specific sub&#45;bands for regions supporting Channel Masks (e.g.,...">
<polygon fill="white" stroke="#666666" points="1098.75,-757.99 908.75,-757.99 908.75,-737.99 1098.75,-737.99 1098.75,-757.99"/>
<text text-anchor="middle" x="1003.75" y="-744.49" font-family="Helvetica,sans-Serif" font-size="10.00">LSM1x0A_LoRaWAN::setChannelMask</text>
</a>
</g>
</g>
<!-- Node9&#45;&gt;Node10 -->
<g id="edge12_Node000009_Node000010" class="edge">
<title>Node9&#45;&gt;Node10</title>
<g id="a_edge12_Node000009_Node000010"><a xlink:title=" ">
<path fill="none" stroke="#63b8ff" d="M787.47,-958.63C823.04,-923.83 938.52,-810.83 984.05,-766.29"/>
<polygon fill="#63b8ff" stroke="#63b8ff" points="986.4,-768.89 991.1,-759.39 981.5,-763.88 986.4,-768.89"/>
</a>
</g>
</g>
<!-- Node11 -->
<g id="Node000011" class="node">
<title>Node11</title>
<g id="a_Node000011"><a xlink:href="../../d8/d92/classLSM1x0A__Controller.html#a62476e30e50c7fe120aeb8df4b828675" target="_top" xlink:title="Synchronously/blockingly waits for an asynchronous event to occur. Useful for wrapping commands like ...">
<polygon fill="white" stroke="#666666" points="1056.75,-984.99 950.75,-984.99 950.75,-952.99 1056.75,-952.99 1056.75,-984.99"/>
<text text-anchor="start" x="958.75" y="-971.49" font-family="Helvetica,sans-Serif" font-size="10.00">LSM1x0A_Controller</text>
<text text-anchor="middle" x="1003.75" y="-959.49" font-family="Helvetica,sans-Serif" font-size="10.00">::waitForEvent</text>
</a>
</g>
</g>
<!-- Node9&#45;&gt;Node11 -->
<g id="edge15_Node000009_Node000011" class="edge">
<title>Node9&#45;&gt;Node11</title>
<g id="a_edge15_Node000009_Node000011"><a xlink:title=" ">
<path fill="none" stroke="#63b8ff" d="M841.9,-968.99C872.41,-968.99 908.65,-968.99 938.99,-968.99"/>
<polygon fill="#63b8ff" stroke="#63b8ff" points="938.8,-972.49 948.8,-968.99 938.8,-965.49 938.8,-972.49"/>
</a>
</g>
</g>
<!-- Node10&#45;&gt;Node2 -->
<g id="edge14_Node000010_Node000002" class="edge">
<title>Node10&#45;&gt;Node2</title>
<g id="a_edge14_Node000010_Node000002"><a xlink:title=" ">
<path fill="none" stroke="#63b8ff" d="M908.27,-746.34C745.44,-741.46 421.71,-722.17 342.5,-645.99 288.66,-594.21 266.6,-504.75 258.57,-459.66"/>
<polygon fill="#63b8ff" stroke="#63b8ff" points="262.04,-459.22 256.94,-449.94 255.14,-460.38 262.04,-459.22"/>
</a>
</g>
</g>
<!-- Node10&#45;&gt;Node7 -->
<g id="edge13_Node000010_Node000007" class="edge">
<title>Node10&#45;&gt;Node7</title>
<g id="a_edge13_Node000010_Node000007"><a xlink:title=" ">
<path fill="none" stroke="#63b8ff" d="M1081.47,-758.46C1095.13,-760.32 1109.44,-762.27 1123.35,-764.17"/>
<polygon fill="#63b8ff" stroke="#63b8ff" points="1122.52,-767.59 1132.9,-765.47 1123.46,-760.65 1122.52,-767.59"/>
</a>
</g>
</g>
<!-- Node12&#45;&gt;Node1 -->
<g id="edge22_Node000012_Node000001" class="edge">
<title>Node12&#45;&gt;Node1</title>
<g id="a_edge22_Node000012_Node000001"><a xlink:title=" ">
<path fill="none" stroke="#63b8ff" d="M490.14,-364C406.18,-358.22 267.8,-348.69 176.09,-342.38"/>
<polygon fill="#63b8ff" stroke="#63b8ff" points="176.59,-338.91 166.37,-341.71 176.11,-345.89 176.59,-338.91"/>
</a>
</g>
</g>
<!-- Node12&#45;&gt;Node10 -->
<g id="edge21_Node000012_Node000010" class="edge">
<title>Node12&#45;&gt;Node10</title>
<g id="a_edge21_Node000012_Node000010"><a xlink:title=" ">
<path fill="none" stroke="#63b8ff" d="M637.36,-363.19C717.69,-358.48 840.15,-356.97 872.75,-387.99 924.91,-437.62 865.23,-652.63 908.75,-709.99 916.57,-720.3 927.64,-727.82 939.46,-733.3"/>
<polygon fill="#63b8ff" stroke="#63b8ff" points="937.99,-736.48 948.57,-737.04 940.65,-730.01 937.99,-736.48"/>
</a>
</g>
</g>
<!-- Node13 -->
<g id="Node000013" class="node">
<title>Node13</title>
<g id="a_Node000013"><a xlink:href="../../d5/d72/classLSM1x0A__LoRaWAN.html#af0baa3db4c7fab580d6b19a9e92472f6" target="_top" xlink:title="Enables or disables Adaptive Data Rate (ADR).">
<polygon fill="white" stroke="#666666" points="851.75,-530.99 700,-530.99 700,-510.99 851.75,-510.99 851.75,-530.99"/>
<text text-anchor="middle" x="775.88" y="-517.49" font-family="Helvetica,sans-Serif" font-size="10.00">LSM1x0A_LoRaWAN::setADR</text>
</a>
</g>
</g>
<!-- Node12&#45;&gt;Node13 -->
<g id="edge17_Node000012_Node000013" class="edge">
<title>Node12&#45;&gt;Node13</title>
<g id="a_edge17_Node000012_Node000013"><a xlink:title=" ">
<path fill="none" stroke="#63b8ff" d="M573.66,-385.14C590.31,-413.7 629.05,-472.84 679,-501.99 682.22,-503.87 685.6,-505.57 689.08,-507.11"/>
<polygon fill="#63b8ff" stroke="#63b8ff" points="687.79,-510.36 698.38,-510.68 690.3,-503.82 687.79,-510.36"/>
</a>
</g>
</g>
<!-- Node14 -->
<g id="Node000014" class="node">
<title>Node14</title>
<g id="a_Node000014"><a xlink:href="../../d5/d72/classLSM1x0A__LoRaWAN.html#a5365ed1596eb84ebf1e3b33b4a10c788" target="_top" xlink:title="Sets the LoRaWAN operational frequency band.">
<polygon fill="white" stroke="#666666" points="852.12,-492.99 699.62,-492.99 699.62,-472.99 852.12,-472.99 852.12,-492.99"/>
<text text-anchor="middle" x="775.88" y="-479.49" font-family="Helvetica,sans-Serif" font-size="10.00">LSM1x0A_LoRaWAN::setBand</text>
</a>
</g>
</g>
<!-- Node12&#45;&gt;Node14 -->
<g id="edge19_Node000012_Node000014" class="edge">
<title>Node12&#45;&gt;Node14</title>
<g id="a_edge19_Node000012_Node000014"><a xlink:title=" ">
<path fill="none" stroke="#63b8ff" d="M579.24,-385.3C599.38,-406.88 638.01,-444.46 679,-463.99 682.94,-465.87 687.05,-467.56 691.26,-469.08"/>
<polygon fill="#63b8ff" stroke="#63b8ff" points="689.87,-472.31 700.47,-472.07 692.03,-465.65 689.87,-472.31"/>
</a>
</g>
</g>
<!-- Node15 -->
<g id="Node000015" class="node">
<title>Node15</title>
<g id="a_Node000015"><a xlink:href="../../d5/d72/classLSM1x0A__LoRaWAN.html#a56345ceeafa0b9059d6de4e69eddc82e" target="_top" xlink:title="Sets the Data Rate (DR) of the module.">
<polygon fill="white" stroke="#666666" points="861.88,-454.99 689.88,-454.99 689.88,-434.99 861.88,-434.99 861.88,-454.99"/>
<text text-anchor="middle" x="775.88" y="-441.49" font-family="Helvetica,sans-Serif" font-size="10.00">LSM1x0A_LoRaWAN::setDataRate</text>
</a>
</g>
</g>
<!-- Node12&#45;&gt;Node15 -->
<g id="edge23_Node000012_Node000015" class="edge">
<title>Node12&#45;&gt;Node15</title>
<g id="a_edge23_Node000012_Node000015"><a xlink:title=" ">
<path fill="none" stroke="#63b8ff" d="M592.48,-385.46C615.07,-398.23 648.16,-415.46 679,-425.99 685.43,-428.19 692.19,-430.16 699.02,-431.93"/>
<polygon fill="#63b8ff" stroke="#63b8ff" points="697.77,-435.23 708.32,-434.18 699.42,-428.42 697.77,-435.23"/>
</a>
</g>
</g>
<!-- Node16 -->
<g id="Node000016" class="node">
<title>Node16</title>
<g id="a_Node000016"><a xlink:href="../../d5/d72/classLSM1x0A__LoRaWAN.html#a8494083816ab885cb07fc3b08de029f4" target="_top" xlink:title="Sets the LoRaWAN Device Address (DevAddr) for ABP mode.">
<polygon fill="white" stroke="#666666" points="860,-416.99 691.75,-416.99 691.75,-396.99 860,-396.99 860,-416.99"/>
<text text-anchor="middle" x="775.88" y="-403.49" font-family="Helvetica,sans-Serif" font-size="10.00">LSM1x0A_LoRaWAN::setDevAddr</text>
</a>
</g>
</g>
<!-- Node12&#45;&gt;Node16 -->
<g id="edge25_Node000012_Node000016" class="edge">
<title>Node12&#45;&gt;Node16</title>
<g id="a_edge25_Node000012_Node000016"><a xlink:title=" ">
<path fill="none" stroke="#63b8ff" d="M637.36,-382.12C659.48,-386.12 683.73,-390.51 705.63,-394.47"/>
<polygon fill="#63b8ff" stroke="#63b8ff" points="704.88,-397.89 715.35,-396.23 706.13,-391 704.88,-397.89"/>
</a>
</g>
</g>
<!-- Node17 -->
<g id="Node000017" class="node">
<title>Node17</title>
<g id="a_Node000017"><a xlink:href="../../d5/d72/classLSM1x0A__LoRaWAN.html#ad320634e52d7ea907043cc50dd37c5b0" target="_top" xlink:title="Sets the LoRaWAN Device EUI (DevEUI).">
<polygon fill="white" stroke="#666666" points="858.5,-340.99 693.25,-340.99 693.25,-320.99 858.5,-320.99 858.5,-340.99"/>
<text text-anchor="middle" x="775.88" y="-327.49" font-family="Helvetica,sans-Serif" font-size="10.00">LSM1x0A_LoRaWAN::setDevEUI</text>
</a>
</g>
</g>
<!-- Node12&#45;&gt;Node17 -->
<g id="edge27_Node000012_Node000017" class="edge">
<title>Node12&#45;&gt;Node17</title>
<g id="a_edge27_Node000012_Node000017"><a xlink:title=" ">
<path fill="none" stroke="#63b8ff" d="M637.36,-355.86C659.48,-351.86 683.73,-347.48 705.63,-343.52"/>
<polygon fill="#63b8ff" stroke="#63b8ff" points="706.13,-346.98 715.35,-341.76 704.88,-340.09 706.13,-346.98"/>
</a>
</g>
</g>
<!-- Node18 -->
<g id="Node000018" class="node">
<title>Node18</title>
<g id="a_Node000018"><a xlink:href="../../d5/d72/classLSM1x0A__LoRaWAN.html#a031023b0d2dd5db3c51c2db6ae7801cc" target="_top" xlink:title="Enables or disables the Duty Cycle limitation (EU regions mostly).">
<polygon fill="white" stroke="#666666" points="851.38,-302.99 700.38,-302.99 700.38,-270.99 851.38,-270.99 851.38,-302.99"/>
<text text-anchor="start" x="708.38" y="-289.49" font-family="Helvetica,sans-Serif" font-size="10.00">LSM1x0A_LoRaWAN::setDuty</text>
<text text-anchor="middle" x="775.88" y="-277.49" font-family="Helvetica,sans-Serif" font-size="10.00">Cycle</text>
</a>
</g>
</g>
<!-- Node12&#45;&gt;Node18 -->
<g id="edge29_Node000012_Node000018" class="edge">
<title>Node12&#45;&gt;Node18</title>
<g id="a_edge29_Node000012_Node000018"><a xlink:title=" ">
<path fill="none" stroke="#63b8ff" d="M593.59,-352.5C616.25,-340.07 648.91,-323.28 679,-311.99 683.88,-310.16 688.94,-308.42 694.08,-306.76"/>
<polygon fill="#63b8ff" stroke="#63b8ff" points="694.73,-310.22 703.25,-303.93 692.67,-303.53 694.73,-310.22"/>
</a>
</g>
</g>
<!-- Node19 -->
<g id="Node000019" class="node">
<title>Node19</title>
<g id="a_Node000019"><a xlink:href="../../d5/d72/classLSM1x0A__LoRaWAN.html#a6b179d5825c49af0f391dfc539912f64" target="_top" xlink:title="Sets the delay for the Join1 receive window.">
<polygon fill="white" stroke="#666666" points="852.5,-252.99 699.25,-252.99 699.25,-220.99 852.5,-220.99 852.5,-252.99"/>
<text text-anchor="start" x="707.25" y="-239.49" font-family="Helvetica,sans-Serif" font-size="10.00">LSM1x0A_LoRaWAN::setJoin1</text>
<text text-anchor="middle" x="775.88" y="-227.49" font-family="Helvetica,sans-Serif" font-size="10.00">Delay</text>
</a>
</g>
</g>
<!-- Node12&#45;&gt;Node19 -->
<g id="edge31_Node000012_Node000019" class="edge">
<title>Node12&#45;&gt;Node19</title>
<g id="a_edge31_Node000012_Node000019"><a xlink:title=" ">
<path fill="none" stroke="#63b8ff" d="M577.65,-352.54C597.08,-328.91 636.16,-285.61 679,-261.99 682.06,-260.3 685.25,-258.72 688.51,-257.25"/>
<polygon fill="#63b8ff" stroke="#63b8ff" points="689.83,-260.49 697.76,-253.46 687.18,-254.01 689.83,-260.49"/>
</a>
</g>
</g>
<!-- Node20 -->
<g id="Node000020" class="node">
<title>Node20</title>
<g id="a_Node000020"><a xlink:href="../../d5/d72/classLSM1x0A__LoRaWAN.html#a4545d0caad41558cdb9bae8286b104d8" target="_top" xlink:title="Sets the delay for the Join2 receive window.">
<polygon fill="white" stroke="#666666" points="852.5,-202.99 699.25,-202.99 699.25,-170.99 852.5,-170.99 852.5,-202.99"/>
<text text-anchor="start" x="707.25" y="-189.49" font-family="Helvetica,sans-Serif" font-size="10.00">LSM1x0A_LoRaWAN::setJoin2</text>
<text text-anchor="middle" x="775.88" y="-177.49" font-family="Helvetica,sans-Serif" font-size="10.00">Delay</text>
</a>
</g>
</g>
<!-- Node12&#45;&gt;Node20 -->
<g id="edge33_Node000012_Node000020" class="edge">
<title>Node12&#45;&gt;Node20</title>
<g id="a_edge33_Node000012_Node000020"><a xlink:title=" ">
<path fill="none" stroke="#63b8ff" d="M571.87,-352.81C586.83,-320.73 624.69,-249.02 679,-211.99 682.06,-209.91 685.27,-208 688.61,-206.25"/>
<polygon fill="#63b8ff" stroke="#63b8ff" points="689.94,-209.49 697.53,-202.1 686.98,-203.14 689.94,-209.49"/>
</a>
</g>
</g>
<!-- Node21 -->
<g id="Node000021" class="node">
<title>Node21</title>
<g id="a_Node000021"><a xlink:href="../../d5/d72/classLSM1x0A__LoRaWAN.html#a06bd50723ec1eb7e144c9141b2ec86fc" target="_top" xlink:title="Sets the LoRaWAN Network ID (NetID).">
<polygon fill="white" stroke="#666666" points="856.25,-152.99 695.5,-152.99 695.5,-132.99 856.25,-132.99 856.25,-152.99"/>
<text text-anchor="middle" x="775.88" y="-139.49" font-family="Helvetica,sans-Serif" font-size="10.00">LSM1x0A_LoRaWAN::setNwkID</text>
</a>
</g>
</g>
<!-- Node12&#45;&gt;Node21 -->
<g id="edge35_Node000012_Node000021" class="edge">
<title>Node12&#45;&gt;Node21</title>
<g id="a_edge35_Node000012_Node000021"><a xlink:title=" ">
<path fill="none" stroke="#63b8ff" d="M568.68,-352.66C579.14,-313.01 611.56,-211.28 679,-161.99 681,-160.53 683.09,-159.17 685.25,-157.91"/>
<polygon fill="#63b8ff" stroke="#63b8ff" points="686.35,-161.27 693.73,-153.66 683.22,-155.01 686.35,-161.27"/>
</a>
</g>
</g>
<!-- Node22 -->
<g id="Node000022" class="node">
<title>Node22</title>
<g id="a_Node000022"><a xlink:href="../../d5/d72/classLSM1x0A__LoRaWAN.html#aa70ada64d28ecca216bb62268e502adf" target="_top" xlink:title="Sets the delay for the RX1 receive window.">
<polygon fill="white" stroke="#666666" points="862.62,-114.99 689.12,-114.99 689.12,-94.99 862.62,-94.99 862.62,-114.99"/>
<text text-anchor="middle" x="775.88" y="-101.49" font-family="Helvetica,sans-Serif" font-size="10.00">LSM1x0A_LoRaWAN::setRx1Delay</text>
</a>
</g>
</g>
<!-- Node12&#45;&gt;Node22 -->
<g id="edge37_Node000012_Node000022" class="edge">
<title>Node12&#45;&gt;Node22</title>
<g id="a_edge37_Node000012_Node000022"><a xlink:title=" ">
<path fill="none" stroke="#63b8ff" d="M567.19,-352.74C574.77,-308.32 602.18,-184.23 679,-123.99 680.34,-122.95 681.71,-121.95 683.13,-121.01"/>
<polygon fill="#63b8ff" stroke="#63b8ff" points="684.62,-124.18 691.62,-116.22 681.18,-118.08 684.62,-124.18"/>
</a>
</g>
</g>
<!-- Node23 -->
<g id="Node000023" class="node">
<title>Node23</title>
<g id="a_Node000023"><a xlink:href="../../d5/d72/classLSM1x0A__LoRaWAN.html#a2cf4eff0181b6107d082bccefa24217b" target="_top" xlink:title="Sets the Data Rate (DR) specifically for the RX2 window.">
<polygon fill="white" stroke="#666666" points="870.88,-76.99 680.88,-76.99 680.88,-56.99 870.88,-56.99 870.88,-76.99"/>
<text text-anchor="middle" x="775.88" y="-63.49" font-family="Helvetica,sans-Serif" font-size="10.00">LSM1x0A_LoRaWAN::setRx2DataRate</text>
</a>
</g>
</g>
<!-- Node12&#45;&gt;Node23 -->
<g id="edge39_Node000012_Node000023" class="edge">
<title>Node12&#45;&gt;Node23</title>
<g id="a_edge39_Node000012_Node000023"><a xlink:title=" ">
<path fill="none" stroke="#63b8ff" d="M566.08,-352.79C571,-304 592.67,-157.44 679,-85.99 680.14,-85.05 681.31,-84.15 682.52,-83.29"/>
<polygon fill="#63b8ff" stroke="#63b8ff" points="684.19,-86.37 690.97,-78.23 680.59,-80.36 684.19,-86.37"/>
</a>
</g>
</g>
<!-- Node24 -->
<g id="Node000024" class="node">
<title>Node24</title>
<g id="a_Node000024"><a xlink:href="../../d5/d72/classLSM1x0A__LoRaWAN.html#a42d2137b475b57e19d891a5f1ac93221" target="_top" xlink:title="Sets the delay for the RX2 receive window.">
<polygon fill="white" stroke="#666666" points="862.62,-38.99 689.12,-38.99 689.12,-18.99 862.62,-18.99 862.62,-38.99"/>
<text text-anchor="middle" x="775.88" y="-25.49" font-family="Helvetica,sans-Serif" font-size="10.00">LSM1x0A_LoRaWAN::setRx2Delay</text>
</a>
</g>
</g>
<!-- Node12&#45;&gt;Node24 -->
<g id="edge41_Node000012_Node000024" class="edge">
<title>Node12&#45;&gt;Node24</title>
<g id="a_edge41_Node000012_Node000024"><a xlink:title=" ">
<path fill="none" stroke="#63b8ff" d="M565.23,-352.59C567.72,-299.45 583.19,-130.72 679,-47.99 679.96,-47.16 680.95,-46.36 681.96,-45.59"/>
<polygon fill="#63b8ff" stroke="#63b8ff" points="683.77,-48.59 690.37,-40.3 680.04,-42.67 683.77,-48.59"/>
</a>
</g>
</g>
<!-- Node25 -->
<g id="Node000025" class="node">
<title>Node25</title>
<g id="a_Node000025"><a xlink:href="../../d5/d72/classLSM1x0A__LoRaWAN.html#a689f7dfda1dfeae11ea397c2ddf2ad37" target="_top" xlink:title="Sets the precise frequency for the RX2 window.">
<polygon fill="white" stroke="#666666" points="872.75,-656.99 679,-656.99 679,-636.99 872.75,-636.99 872.75,-656.99"/>
<text text-anchor="middle" x="775.88" y="-643.49" font-family="Helvetica,sans-Serif" font-size="10.00">LSM1x0A_LoRaWAN::setRx2Frequency</text>
</a>
</g>
</g>
<!-- Node12&#45;&gt;Node25 -->
<g id="edge43_Node000012_Node000025" class="edge">
<title>Node12&#45;&gt;Node25</title>
<g id="a_edge43_Node000012_Node000025"><a xlink:title=" ">
<path fill="none" stroke="#63b8ff" d="M566.78,-385.48C573.42,-431.78 598.84,-563.77 679,-627.99 680.32,-629.05 681.69,-630.06 683.1,-631.02"/>
<polygon fill="#63b8ff" stroke="#63b8ff" points="681.12,-633.92 691.54,-635.85 684.6,-627.85 681.12,-633.92"/>
</a>
</g>
</g>
<!-- Node26 -->
<g id="Node000026" class="node">
<title>Node26</title>
<g id="a_Node000026"><a xlink:href="../../d5/d72/classLSM1x0A__LoRaWAN.html#a1df10d7ae6bf45b537d28d3d5c4b88d7" target="_top" xlink:title="Sets the transmission power index.">
<polygon fill="white" stroke="#666666" points="860.38,-618.99 691.38,-618.99 691.38,-598.99 860.38,-598.99 860.38,-618.99"/>
<text text-anchor="middle" x="775.88" y="-605.49" font-family="Helvetica,sans-Serif" font-size="10.00">LSM1x0A_LoRaWAN::setTxPower</text>
</a>
</g>
</g>
<!-- Node12&#45;&gt;Node26 -->
<g id="edge45_Node000012_Node000026" class="edge">
<title>Node12&#45;&gt;Node26</title>
<g id="a_edge45_Node000012_Node000026"><a xlink:title=" ">
<path fill="none" stroke="#63b8ff" d="M568.12,-385.48C577.54,-427.08 608.23,-536.78 679,-589.99 680.54,-591.15 682.13,-592.24 683.76,-593.27"/>
<polygon fill="#63b8ff" stroke="#63b8ff" points="681.76,-596.17 692.22,-597.8 685.06,-590 681.76,-596.17"/>
</a>
</g>
</g>
<!-- Node27 -->
<g id="Node000027" class="node">
<title>Node27</title>
<g id="a_Node000027"><a xlink:href="../../d5/d72/classLSM1x0A__LoRaWAN.html#a059fd6a9356c4ecadd5a98294da5952d" target="_top" xlink:title="Configures the number of repetitions for Unconfirmed uplinks.">
<polygon fill="white" stroke="#666666" points="863.38,-580.99 688.38,-580.99 688.38,-548.99 863.38,-548.99 863.38,-580.99"/>
<text text-anchor="start" x="696.38" y="-567.49" font-family="Helvetica,sans-Serif" font-size="10.00">LSM1x0A_LoRaWAN::setUnconfirm</text>
<text text-anchor="middle" x="775.88" y="-555.49" font-family="Helvetica,sans-Serif" font-size="10.00">Retry</text>
</a>
</g>
</g>
<!-- Node12&#45;&gt;Node27 -->
<g id="edge47_Node000012_Node000027" class="edge">
<title>Node12&#45;&gt;Node27</title>
<g id="a_edge47_Node000012_Node000027"><a xlink:title=" ">
<path fill="none" stroke="#63b8ff" d="M570.92,-385.3C584.74,-419.53 621.54,-499.11 679,-539.99 680.59,-541.12 682.23,-542.2 683.9,-543.24"/>
<polygon fill="#63b8ff" stroke="#63b8ff" points="682.1,-546.24 692.57,-547.9 685.42,-540.08 682.1,-546.24"/>
</a>
</g>
</g>
<!-- Node13&#45;&gt;Node2 -->
<g id="edge18_Node000013_Node000002" class="edge">
<title>Node13&#45;&gt;Node2</title>
<g id="a_edge18_Node000013_Node000002"><a xlink:title=" ">
<path fill="none" stroke="#63b8ff" d="M699.81,-518.72C612.58,-514.58 464.95,-502.9 342.5,-469.99 327.13,-465.86 310.97,-459.52 296.74,-453.18"/>
<polygon fill="#63b8ff" stroke="#63b8ff" points="298.21,-450.01 287.67,-449.02 295.29,-456.37 298.21,-450.01"/>
</a>
</g>
</g>
<!-- Node14&#45;&gt;Node2 -->
<g id="edge20_Node000014_Node000002" class="edge">
<title>Node14&#45;&gt;Node2</title>
<g id="a_edge20_Node000014_Node000002"><a xlink:title=" ">
<path fill="none" stroke="#63b8ff" d="M699.19,-480.1C612.64,-476.12 466.82,-467.38 342.5,-449.99 334.54,-448.88 326.21,-447.48 317.99,-445.96"/>
<polygon fill="#63b8ff" stroke="#63b8ff" points="318.86,-442.57 308.38,-444.12 317.54,-449.44 318.86,-442.57"/>
</a>
</g>
</g>
<!-- Node15&#45;&gt;Node2 -->
<g id="edge24_Node000015_Node000002" class="edge">
<title>Node15&#45;&gt;Node2</title>
<g id="a_edge24_Node000015_Node000002"><a xlink:title=" ">
<path fill="none" stroke="#63b8ff" d="M689.64,-442.86C585.36,-440.26 411.24,-435.91 318.01,-433.58"/>
<polygon fill="#63b8ff" stroke="#63b8ff" points="318.38,-430.09 308.29,-433.34 318.2,-437.08 318.38,-430.09"/>
</a>
</g>
</g>
<!-- Node16&#45;&gt;Node2 -->
<g id="edge26_Node000016_Node000002" class="edge">
<title>Node16&#45;&gt;Node2</title>
<g id="a_edge26_Node000016_Node000002"><a xlink:title=" ">
<path fill="none" stroke="#63b8ff" d="M691.5,-411C587.47,-416 411.89,-424.43 318.08,-428.94"/>
<polygon fill="#63b8ff" stroke="#63b8ff" points="318.11,-425.43 308.29,-429.41 318.45,-432.42 318.11,-425.43"/>
</a>
</g>
</g>
<!-- Node17&#45;&gt;Node2 -->
<g id="edge28_Node000017_Node000002" class="edge">
<title>Node17&#45;&gt;Node2</title>
<g id="a_edge28_Node000017_Node000002"><a xlink:title=" ">
<path fill="none" stroke="#63b8ff" d="M692.96,-327.72C634.31,-327.06 553.79,-329.58 484.5,-343.99 416.88,-358.06 343.01,-389.42 297.71,-410.64"/>
<polygon fill="#63b8ff" stroke="#63b8ff" points="296.29,-407.44 288.75,-414.89 299.28,-413.76 296.29,-407.44"/>
</a>
</g>
</g>
<!-- Node18&#45;&gt;Node2 -->
<g id="edge30_Node000018_Node000002" class="edge">
<title>Node18&#45;&gt;Node2</title>
<g id="a_edge30_Node000018_Node000002"><a xlink:title=" ">
<path fill="none" stroke="#63b8ff" d="M699.88,-283.7C610.13,-282.82 457.55,-291.24 342.5,-348.99 315.08,-362.76 290.3,-387.84 274.07,-406.84"/>
<polygon fill="#63b8ff" stroke="#63b8ff" points="271.46,-404.51 267.78,-414.44 276.86,-408.97 271.46,-404.51"/>
</a>
</g>
</g>
<!-- Node19&#45;&gt;Node2 -->
<g id="edge32_Node000019_Node000002" class="edge">
<title>Node19&#45;&gt;Node2</title>
<g id="a_edge32_Node000019_Node000002"><a xlink:title=" ">
<path fill="none" stroke="#63b8ff" d="M698.95,-231.82C607.24,-229.26 451.71,-237.11 342.5,-306.99 305.23,-330.84 279.19,-376.63 265.55,-405.68"/>
<polygon fill="#63b8ff" stroke="#63b8ff" points="262.48,-403.98 261.56,-414.53 268.86,-406.86 262.48,-403.98"/>
</a>
</g>
</g>
<!-- Node20&#45;&gt;Node2 -->
<g id="edge34_Node000020_Node000002" class="edge">
<title>Node20&#45;&gt;Node2</title>
<g id="a_edge34_Node000020_Node000002"><a xlink:title=" ">
<path fill="none" stroke="#63b8ff" d="M698.87,-179.13C605.29,-173.62 446.08,-178.37 342.5,-257.99 294.34,-295.01 270.46,-365.62 260.48,-404.55"/>
<polygon fill="#63b8ff" stroke="#63b8ff" points="257.13,-403.52 258.18,-414.06 263.93,-405.17 257.13,-403.52"/>
</a>
</g>
</g>
<!-- Node21&#45;&gt;Node2 -->
<g id="edge36_Node000021_Node000002" class="edge">
<title>Node21&#45;&gt;Node2</title>
<g id="a_edge36_Node000021_Node000002"><a xlink:title=" ">
<path fill="none" stroke="#63b8ff" d="M713.86,-132.54C622.12,-120.5 448.16,-112.47 342.5,-200.99 280.03,-253.33 261.82,-355.14 256.58,-404.22"/>
<polygon fill="#63b8ff" stroke="#63b8ff" points="253.11,-403.7 255.65,-413.99 260.08,-404.37 253.11,-403.7"/>
</a>
</g>
</g>
<!-- Node22&#45;&gt;Node2 -->
<g id="edge38_Node000022_Node000002" class="edge">
<title>Node22&#45;&gt;Node2</title>
<g id="a_edge38_Node000022_Node000002"><a xlink:title=" ">
<path fill="none" stroke="#63b8ff" d="M688.8,-101.06C577.65,-97.88 392.52,-99.61 342.5,-142.99 264.08,-211.01 254.32,-346.6 253.92,-404.62"/>
<polygon fill="#63b8ff" stroke="#63b8ff" points="250.42,-404.27 253.96,-414.26 257.42,-404.25 250.42,-404.27"/>
</a>
</g>
</g>
<!-- Node23&#45;&gt;Node2 -->
<g id="edge40_Node000023_Node000002" class="edge">
<title>Node23&#45;&gt;Node2</title>
<g id="a_edge40_Node000023_Node000002"><a xlink:title=" ">
<path fill="none" stroke="#63b8ff" d="M680.83,-63.35C569.22,-61.05 391.99,-64.43 342.5,-105.99 296.14,-144.93 267.3,-333.26 257.89,-404.56"/>
<polygon fill="#63b8ff" stroke="#63b8ff" points="254.46,-403.84 256.65,-414.21 261.4,-404.74 254.46,-403.84"/>
</a>
</g>
</g>
<!-- Node24&#45;&gt;Node2 -->
<g id="edge42_Node000024_Node000002" class="edge">
<title>Node24&#45;&gt;Node2</title>
<g id="a_edge42_Node000024_Node000002"><a xlink:title=" ">
<path fill="none" stroke="#63b8ff" d="M732.53,-18.49C647.37,-0.12 454.02,27.36 342.5,-68.99 291.15,-113.36 264.94,-327.83 257.09,-404.59"/>
<polygon fill="#63b8ff" stroke="#63b8ff" points="253.64,-403.88 256.14,-414.18 260.61,-404.57 253.64,-403.88"/>
</a>
</g>
</g>
<!-- Node25&#45;&gt;Node2 -->
<g id="edge44_Node000025_Node000002" class="edge">
<title>Node25&#45;&gt;Node2</title>
<g id="a_edge44_Node000025_Node000002"><a xlink:title=" ">
<path fill="none" stroke="#63b8ff" d="M678.91,-651.12C584.33,-650.3 440.2,-635.42 342.5,-561.99 306.18,-534.7 279.85,-487.82 265.89,-458.45"/>
<polygon fill="#63b8ff" stroke="#63b8ff" points="269.14,-457.13 261.79,-449.5 262.78,-460.05 269.14,-457.13"/>
</a>
</g>
</g>
<!-- Node26&#45;&gt;Node2 -->
<g id="edge46_Node000026_Node000002" class="edge">
<title>Node26&#45;&gt;Node2</title>
<g id="a_edge46_Node000026_Node000002"><a xlink:title=" ">
<path fill="none" stroke="#63b8ff" d="M690.9,-609.43C599.18,-606.31 450.89,-590.47 342.5,-525.99 313.34,-508.65 287.83,-478.83 271.89,-457.43"/>
<polygon fill="#63b8ff" stroke="#63b8ff" points="274.84,-455.54 266.14,-449.49 269.17,-459.64 274.84,-455.54"/>
</a>
</g>
</g>
<!-- Node27&#45;&gt;Node2 -->
<g id="edge48_Node000027_Node000002" class="edge">
<title>Node27&#45;&gt;Node2</title>
<g id="a_edge48_Node000027_Node000002"><a xlink:title=" ">
<path fill="none" stroke="#63b8ff" d="M688.25,-563.05C598.49,-558.31 455.73,-543.03 342.5,-494.99 319.88,-485.4 297.4,-469.16 280.83,-455.58"/>
<polygon fill="#63b8ff" stroke="#63b8ff" points="283.33,-453.1 273.42,-449.34 278.81,-458.46 283.33,-453.1"/>
</a>
</g>
</g>
<!-- Node29&#45;&gt;Node30 -->
<g id="edge51_Node000029_Node000030" class="edge">
<title>Node29&#45;&gt;Node30</title>
<g id="a_edge51_Node000029_Node000030"><a xlink:title=" ">
<path fill="none" stroke="#63b8ff" d="M610.34,-744.5C647.64,-731.01 699.86,-712.13 735.39,-699.27"/>
<polygon fill="#63b8ff" stroke="#63b8ff" points="736.21,-702.7 744.43,-696.01 733.83,-696.12 736.21,-702.7"/>
</a>
</g>
</g>
<!-- Node31 -->
<g id="Node000031" class="node">
<title>Node31</title>
<g id="a_Node000031"><a xlink:href="../../d6/d3c/classLSM1x0A__AtParser.html#a0ba6f927c54fceece22c17773d3f2600" target="_top" xlink:title="Sends a command and extracts a value from the response.">
<polygon fill="white" stroke="#666666" points="1090.88,-700.99 916.62,-700.99 916.62,-668.99 1090.88,-668.99 1090.88,-700.99"/>
<text text-anchor="start" x="924.62" y="-687.49" font-family="Helvetica,sans-Serif" font-size="10.00">LSM1x0A_AtParser::sendCommand</text>
<text text-anchor="middle" x="1003.75" y="-675.49" font-family="Helvetica,sans-Serif" font-size="10.00">WithResponse</text>
</a>
</g>
</g>
<!-- Node30&#45;&gt;Node31 -->
<g id="edge52_Node000030_Node000031" class="edge">
<title>Node30&#45;&gt;Node31</title>
<g id="a_edge52_Node000030_Node000031"><a xlink:title=" ">
<path fill="none" stroke="#63b8ff" d="M863.24,-684.99C876.99,-684.99 891.31,-684.99 905.3,-684.99"/>
<polygon fill="#63b8ff" stroke="#63b8ff" points="904.92,-688.49 914.92,-684.99 904.92,-681.49 904.92,-688.49"/>
</a>
</g>
</g>
<!-- Node32 -->
<g id="Node000032" class="node">
<title>Node32</title>
<g id="a_Node000032"><a xlink:href="../../d5/d8b/classUartDriver.html#a5d0f22e8867eebe99273078bb19bd23d" target="_top" xlink:title="Sends data through UART.">
<polygon fill="white" stroke="#666666" points="1265.5,-694.99 1156.5,-694.99 1156.5,-674.99 1265.5,-674.99 1265.5,-694.99"/>
<text text-anchor="middle" x="1211" y="-681.49" font-family="Helvetica,sans-Serif" font-size="10.00">UartDriver::sendData</text>
</a>
</g>
</g>
<!-- Node31&#45;&gt;Node32 -->
<g id="edge53_Node000031_Node000032" class="edge">
<title>Node31&#45;&gt;Node32</title>
<g id="a_edge53_Node000031_Node000032"><a xlink:title=" ">
<path fill="none" stroke="#63b8ff" d="M1091.2,-684.99C1109.09,-684.99 1127.66,-684.99 1144.64,-684.99"/>
<polygon fill="#63b8ff" stroke="#63b8ff" points="1144.61,-688.49 1154.61,-684.99 1144.61,-681.49 1144.61,-688.49"/>
</a>
</g>
</g>
</g>
</svg>
