<?xml version="1.0" encoding="UTF-8" standalone="no"?>
<!DOCTYPE svg PUBLIC "-//W3C//DTD SVG 1.1//EN"
 "http://www.w3.org/Graphics/SVG/1.1/DTD/svg11.dtd">
<!-- Generated by graphviz version 12.2.1 (20241206.2353)
 -->
<!-- Title: LSM1x0A_LoRaWAN::setP2pConfig Pages: 1 -->
<!--zoomable 1143 -->

<svg id="main" version="1.1" xmlns="http://www.w3.org/2000/svg" xmlns:xlink="http://www.w3.org/1999/xlink" xml:space="preserve" onload="init(evt)">
<style type="text/css"><![CDATA[
.node, .edge {opacity: 0.7;}
.node.selected, .edge.selected {opacity: 1;}
.edge:hover path { stroke: red; }
.edge:hover polygon { stroke: red; fill: red; }
]]></style>

<defs>
  <circle id="rim" cx="0" cy="0" r="7"/>
  <circle id="rim2" cx="0" cy="0" r="3.5"/>
  <g id="zoomPlus">
    <use xlink:href="#rim" fill="#404040"><set attributeName="fill" to="#808080" begin="zoomplus.mouseover" end="zoomplus.mouseout"/></use>
    <path d="M-4,0h8M0,-4v8" fill="none" stroke="white" stroke-width="1.5" pointer-events="none"/>
  </g>
  <g id="zoomMin">
    <use xlink:href="#rim" fill="#404040"><set attributeName="fill" to="#808080" begin="zoomminus.mouseover" end="zoomminus.mouseout"/></use>
    <path d="M-4,0h8" fill="none" stroke="white" stroke-width="1.5" pointer-events="none"/>
  </g>
  <g id="arrowUp" transform="translate(30 24)">
    <use xlink:href="#rim"/>
    <path pointer-events="none" fill="none" stroke="white" stroke-width="1.5" d="M0,-3.0v7 M-2.5,-0.5L0,-3.0L2.5,-0.5"/>
  </g>
  <g id="arrowRight" transform="rotate(90) translate(36 -43)">
    <use xlink:href="#rim"/>
    <path pointer-events="none" fill="none" stroke="white" stroke-width="1.5" d="M0,-3.0v7 M-2.5,-0.5L0,-3.0L2.5,-0.5"/>
  </g>
  <g id="arrowDown" transform="rotate(180) translate(-30 -48)">
    <use xlink:href="#rim"/>
    <path pointer-events="none" fill="none" stroke="white" stroke-width="1.5" d="M0,-3.0v7 M-2.5,-0.5L0,-3.0L2.5,-0.5"/>
  </g>
  <g id="arrowLeft" transform="rotate(270) translate(-36 17)">
    <use xlink:href="#rim"/>
    <path pointer-events="none" fill="none" stroke="white" stroke-width="1.5" d="M0,-3.0v7 M-2.5,-0.5L0,-3.0L2.5,-0.5"/>
  </g>
  <g id="resetDef">
    <use xlink:href="#rim2" fill="#404040"><set attributeName="fill" to="#808080" begin="reset.mouseover" end="reset.mouseout"/></use>
  </g>
</defs>
<script type="application/ecmascript">
var viewWidth = 1307;
var viewHeight = 1143;
var sectionId = 'dynsection-96';
</script>
<script type="application/ecmascript" xlink:href="../../svg.min.js"/>
<svg id="graph" class="graph">
<g id="viewport">
<title>LSM1x0A_LoRaWAN::setP2pConfig</title>
<!-- Node1 -->
<g id="Node000001" class="node">
<title>Node1</title>
<g id="a_Node000001"><a xlink:title="Configures P2P MAC parameters bridging the LoRa modem.">
<polygon fill="#999999" stroke="#666666" points="175.75,-490.95 0,-490.95 0,-470.95 175.75,-470.95 175.75,-490.95"/>
<text text-anchor="middle" x="87.88" y="-477.45" font-family="Helvetica,sans-Serif" font-size="10.00">LSM1x0A_LoRaWAN::setP2pConfig</text>
</a>
</g>
</g>
<!-- Node2 -->
<g id="Node000002" class="node">
<title>Node2</title>
<g id="a_Node000002"><a xlink:href="../../d8/d92/classLSM1x0A__Controller.html#afd7d92e60ed6fdae696a955cdbe0ed8c" target="_top" xlink:title="Sends any AT command to the module, returning error if it fails. Internally uses the LsmAtParser logi...">
<polygon fill="white" stroke="#666666" points="317.75,-496.95 211.75,-496.95 211.75,-464.95 317.75,-464.95 317.75,-496.95"/>
<text text-anchor="start" x="219.75" y="-483.45" font-family="Helvetica,sans-Serif" font-size="10.00">LSM1x0A_Controller</text>
<text text-anchor="middle" x="264.75" y="-471.45" font-family="Helvetica,sans-Serif" font-size="10.00">::sendCommand</text>
</a>
</g>
</g>
<!-- Node1&#45;&gt;Node2 -->
<g id="edge1_Node000001_Node000002" class="edge">
<title>Node1&#45;&gt;Node2</title>
<g id="a_edge1_Node000001_Node000002"><a xlink:title=" ">
<path fill="none" stroke="#63b8ff" d="M176.06,-480.95C184.22,-480.95 192.38,-480.95 200.27,-480.95"/>
<polygon fill="#63b8ff" stroke="#63b8ff" points="200.07,-484.45 210.07,-480.95 200.07,-477.45 200.07,-484.45"/>
</a>
</g>
</g>
<!-- Node3 -->
<g id="Node000003" class="node">
<title>Node3</title>
<g id="a_Node000003"><a xlink:href="../../d8/d92/classLSM1x0A__Controller.html#abb0eb380daa3dfb7acffb483c5db8e2b" target="_top" xlink:title="Executes the recovery protocol. First Soft&#45;Reset (ATZ), then Hard&#45;Reset if there is a pin.">
<polygon fill="white" stroke="#666666" points="459.75,-938.95 353.75,-938.95 353.75,-906.95 459.75,-906.95 459.75,-938.95"/>
<text text-anchor="start" x="361.75" y="-925.45" font-family="Helvetica,sans-Serif" font-size="10.00">LSM1x0A_Controller</text>
<text text-anchor="middle" x="406.75" y="-913.45" font-family="Helvetica,sans-Serif" font-size="10.00">::recoverModule</text>
</a>
</g>
</g>
<!-- Node2&#45;&gt;Node3 -->
<g id="edge2_Node000002_Node000003" class="edge">
<title>Node2&#45;&gt;Node3</title>
<g id="a_edge2_Node000002_Node000003"><a xlink:title=" ">
<path fill="none" stroke="#63b8ff" d="M269.3,-497.39C279.86,-545.46 312.91,-689.56 353.75,-804.95 365.1,-837.01 381.29,-872.58 392.58,-896.2"/>
<polygon fill="#63b8ff" stroke="#63b8ff" points="389.38,-897.62 396.88,-905.1 395.68,-894.57 389.38,-897.62"/>
</a>
</g>
</g>
<!-- Node31 -->
<g id="Node000031" class="node">
<title>Node31</title>
<g id="a_Node000031"><a xlink:href="../../d6/d3c/classLSM1x0A__AtParser.html#a29b53c521974387ba6c03afadfaffa4a" target="_top" xlink:title="Sends a simple command and waits for OK/ERROR. Example: sendCommand(&quot;AT+JOIN&quot;);.">
<polygon fill="white" stroke="#666666" points="874.25,-1118.95 700,-1118.95 700,-1098.95 874.25,-1098.95 874.25,-1118.95"/>
<text text-anchor="middle" x="787.12" y="-1105.45" font-family="Helvetica,sans-Serif" font-size="10.00">LSM1x0A_AtParser::sendCommand</text>
</a>
</g>
</g>
<!-- Node2&#45;&gt;Node31 -->
<g id="edge55_Node000002_Node000031" class="edge">
<title>Node2&#45;&gt;Node31</title>
<g id="a_edge55_Node000002_Node000031"><a xlink:title=" ">
<path fill="none" stroke="#63b8ff" d="M265.81,-497.2C266.63,-559.15 275.17,-785.25 353.75,-947.95 395.68,-1034.77 408.06,-1071.88 495.75,-1111.95 573.51,-1147.48 675.66,-1134.62 735.77,-1121.89"/>
<polygon fill="#63b8ff" stroke="#63b8ff" points="736.36,-1125.34 745.37,-1119.77 734.85,-1118.51 736.36,-1125.34"/>
</a>
</g>
</g>
<!-- Node4 -->
<g id="Node000004" class="node">
<title>Node4</title>
<g id="a_Node000004"><a xlink:href="../../d8/d92/classLSM1x0A__Controller.html#a3f6f25b843fe4fb7042c544deae2ab16" target="_top" xlink:title="Manually clears bits from the internal EventGroup.">
<polygon fill="white" stroke="#666666" points="1068,-957.95 962,-957.95 962,-925.95 1068,-925.95 1068,-957.95"/>
<text text-anchor="start" x="970" y="-944.45" font-family="Helvetica,sans-Serif" font-size="10.00">LSM1x0A_Controller</text>
<text text-anchor="middle" x="1015" y="-932.45" font-family="Helvetica,sans-Serif" font-size="10.00">::clearEvents</text>
</a>
</g>
</g>
<!-- Node3&#45;&gt;Node4 -->
<g id="edge3_Node000003_Node000004" class="edge">
<title>Node3&#45;&gt;Node4</title>
<g id="a_edge3_Node000003_Node000004"><a xlink:title=" ">
<path fill="none" stroke="#63b8ff" d="M423.83,-939.29C440.25,-954.72 467.31,-976.82 495.75,-985.95 655.32,-1037.18 855.91,-991 954.18,-961.72"/>
<polygon fill="#63b8ff" stroke="#63b8ff" points="955.07,-965.11 963.62,-958.86 953.04,-958.41 955.07,-965.11"/>
</a>
</g>
</g>
<!-- Node5 -->
<g id="Node000005" class="node">
<title>Node5</title>
<g id="a_Node000005"><a xlink:href="../../d8/d92/classLSM1x0A__Controller.html#a345d4bd79fa16b18dc33a4ca788fe5f7" target="_top" xlink:title="Performs a hardware reset using the reset pin.">
<polygon fill="white" stroke="#666666" points="628,-938.95 522,-938.95 522,-906.95 628,-906.95 628,-938.95"/>
<text text-anchor="start" x="530" y="-925.45" font-family="Helvetica,sans-Serif" font-size="10.00">LSM1x0A_Controller</text>
<text text-anchor="middle" x="575" y="-913.45" font-family="Helvetica,sans-Serif" font-size="10.00">::hardwareReset</text>
</a>
</g>
</g>
<!-- Node3&#45;&gt;Node5 -->
<g id="edge4_Node000003_Node000005" class="edge">
<title>Node3&#45;&gt;Node5</title>
<g id="a_edge4_Node000003_Node000005"><a xlink:title=" ">
<path fill="none" stroke="#63b8ff" d="M459.9,-922.95C475.91,-922.95 493.72,-922.95 510.41,-922.95"/>
<polygon fill="#63b8ff" stroke="#63b8ff" points="510.24,-926.45 520.24,-922.95 510.24,-919.45 510.24,-926.45"/>
</a>
</g>
</g>
<!-- Node7 -->
<g id="Node000007" class="node">
<title>Node7</title>
<g id="a_Node000007"><a xlink:href="../../d5/d72/classLSM1x0A__LoRaWAN.html#a1892801e37c8cd67d37c76108d6f7d49" target="_top" xlink:title="Validates if the device is currently Joined to the network. (Either confirmed by OTAA or statically a...">
<polygon fill="white" stroke="#666666" points="1298.5,-926.95 1146,-926.95 1146,-906.95 1298.5,-906.95 1298.5,-926.95"/>
<text text-anchor="middle" x="1222.25" y="-913.45" font-family="Helvetica,sans-Serif" font-size="10.00">LSM1x0A_LoRaWAN::isJoined</text>
</a>
</g>
</g>
<!-- Node3&#45;&gt;Node7 -->
<g id="edge6_Node000003_Node000007" class="edge">
<title>Node3&#45;&gt;Node7</title>
<g id="a_edge6_Node000003_Node000007"><a xlink:title=" ">
<path fill="none" stroke="#63b8ff" d="M453.69,-939.25C455.83,-940.7 457.86,-942.26 459.75,-943.95 484.92,-966.51 466.74,-993.6 495.75,-1010.95 506.45,-1017.34 821.91,-1014.94 884,-1008.95 985.69,-999.13 1012.49,-997.44 1110,-966.95 1138.83,-957.93 1170.08,-943.44 1192.09,-932.37"/>
<polygon fill="#63b8ff" stroke="#63b8ff" points="1193.45,-935.61 1200.76,-927.94 1190.26,-929.38 1193.45,-935.61"/>
</a>
</g>
</g>
<!-- Node8 -->
<g id="Node000008" class="node">
<title>Node8</title>
<g id="a_Node000008"><a xlink:href="../../d5/d72/classLSM1x0A__LoRaWAN.html#a83e11c0e74ff9e0757db616ab1163424" target="_top" xlink:title="Attempts to recover a lost connection (re&#45;executes OTAA Join if dropped).">
<polygon fill="white" stroke="#666666" points="649.38,-850.95 500.62,-850.95 500.62,-818.95 649.38,-818.95 649.38,-850.95"/>
<text text-anchor="start" x="508.62" y="-837.45" font-family="Helvetica,sans-Serif" font-size="10.00">LSM1x0A_LoRaWAN::recover</text>
<text text-anchor="middle" x="575" y="-825.45" font-family="Helvetica,sans-Serif" font-size="10.00">Connection</text>
</a>
</g>
</g>
<!-- Node3&#45;&gt;Node8 -->
<g id="edge7_Node000003_Node000008" class="edge">
<title>Node3&#45;&gt;Node8</title>
<g id="a_edge7_Node000003_Node000008"><a xlink:title=" ">
<path fill="none" stroke="#63b8ff" d="M429.72,-906.53C447.05,-894.07 472.15,-877.07 495.75,-864.95 502.04,-861.72 508.75,-858.64 515.51,-855.76"/>
<polygon fill="#63b8ff" stroke="#63b8ff" points="516.78,-859.02 524.71,-851.99 514.13,-852.55 516.78,-859.02"/>
</a>
</g>
</g>
<!-- Node12 -->
<g id="Node000012" class="node">
<title>Node12</title>
<g id="a_Node000012"><a xlink:href="../../d5/d72/classLSM1x0A__LoRaWAN.html#ae3be4ce59dfa200369733317df356e97" target="_top" xlink:title="Pushes the RAM&#45;cached variables back down into the hardware module. Restores the operational state af...">
<polygon fill="white" stroke="#666666" points="648.25,-496.95 501.75,-496.95 501.75,-464.95 648.25,-464.95 648.25,-496.95"/>
<text text-anchor="start" x="509.75" y="-483.45" font-family="Helvetica,sans-Serif" font-size="10.00">LSM1x0A_LoRaWAN::restore</text>
<text text-anchor="middle" x="575" y="-471.45" font-family="Helvetica,sans-Serif" font-size="10.00">Config</text>
</a>
</g>
</g>
<!-- Node3&#45;&gt;Node12 -->
<g id="edge16_Node000003_Node000012" class="edge">
<title>Node3&#45;&gt;Node12</title>
<g id="a_edge16_Node000003_Node000012"><a xlink:title=" ">
<path fill="none" stroke="#63b8ff" d="M413.86,-906.69C438.76,-840.5 532.67,-590.84 563.86,-507.91"/>
<polygon fill="#63b8ff" stroke="#63b8ff" points="567.05,-509.36 567.3,-498.77 560.5,-506.9 567.05,-509.36"/>
</a>
</g>
</g>
<!-- Node29 -->
<g id="Node000029" class="node">
<title>Node29</title>
<g id="a_Node000029"><a xlink:href="../../d5/d72/classLSM1x0A__LoRaWAN.html#ace4b04396f1de1f4a54f513f5f378db7" target="_top" xlink:title="Manually overrides the internal joined state tracker.">
<polygon fill="white" stroke="#666666" points="654.25,-976.95 495.75,-976.95 495.75,-956.95 654.25,-956.95 654.25,-976.95"/>
<text text-anchor="middle" x="575" y="-963.45" font-family="Helvetica,sans-Serif" font-size="10.00">LSM1x0A_LoRaWAN::setJoined</text>
</a>
</g>
</g>
<!-- Node3&#45;&gt;Node29 -->
<g id="edge50_Node000003_Node000029" class="edge">
<title>Node3&#45;&gt;Node29</title>
<g id="a_edge50_Node000003_Node000029"><a xlink:title=" ">
<path fill="none" stroke="#63b8ff" d="M460.24,-938.22C471.91,-941.51 484.23,-944.91 495.75,-947.95 503.11,-949.89 510.87,-951.86 518.54,-953.76"/>
<polygon fill="#63b8ff" stroke="#63b8ff" points="517.63,-957.14 528.18,-956.13 519.3,-950.35 517.63,-957.14"/>
</a>
</g>
</g>
<!-- Node30 -->
<g id="Node000030" class="node">
<title>Node30</title>
<g id="a_Node000030"><a xlink:href="../../d8/d92/classLSM1x0A__Controller.html#a11ad21cb5ca33ec51346764a23bd485e" target="_top" xlink:title="Performs a software reset (ATZ Command).">
<polygon fill="white" stroke="#666666" points="628,-1102.95 522,-1102.95 522,-1070.95 628,-1070.95 628,-1102.95"/>
<text text-anchor="start" x="530" y="-1089.45" font-family="Helvetica,sans-Serif" font-size="10.00">LSM1x0A_Controller</text>
<text text-anchor="middle" x="575" y="-1077.45" font-family="Helvetica,sans-Serif" font-size="10.00">::softwareReset</text>
</a>
</g>
</g>
<!-- Node3&#45;&gt;Node30 -->
<g id="edge51_Node000003_Node000030" class="edge">
<title>Node3&#45;&gt;Node30</title>
<g id="a_edge51_Node000003_Node000030"><a xlink:title=" ">
<path fill="none" stroke="#63b8ff" d="M414.45,-939.34C426.64,-967.25 455,-1024.13 495.75,-1056.95 500.57,-1060.83 505.94,-1064.24 511.55,-1067.25"/>
<polygon fill="#63b8ff" stroke="#63b8ff" points="509.96,-1070.36 520.48,-1071.55 513,-1064.06 509.96,-1070.36"/>
</a>
</g>
</g>
<!-- Node6 -->
<g id="Node000006" class="node">
<title>Node6</title>
<g id="a_Node000006"><a xlink:href="../../d6/d3c/classLSM1x0A__AtParser.html#ad2839120da13e56132b95019419be1e5" target="_top" xlink:title="Waits for an event (like BOOTALERT) without sending any command. Useful for hardware reset where the ...">
<polygon fill="white" stroke="#666666" points="857.38,-938.95 716.88,-938.95 716.88,-906.95 857.38,-906.95 857.38,-938.95"/>
<text text-anchor="start" x="724.88" y="-925.45" font-family="Helvetica,sans-Serif" font-size="10.00">LSM1x0A_AtParser::waitFor</text>
<text text-anchor="middle" x="787.12" y="-913.45" font-family="Helvetica,sans-Serif" font-size="10.00">Event</text>
</a>
</g>
</g>
<!-- Node5&#45;&gt;Node6 -->
<g id="edge5_Node000005_Node000006" class="edge">
<title>Node5&#45;&gt;Node6</title>
<g id="a_edge5_Node000005_Node000006"><a xlink:title=" ">
<path fill="none" stroke="#63b8ff" d="M628.48,-922.95C651.67,-922.95 679.47,-922.95 705.21,-922.95"/>
<polygon fill="#63b8ff" stroke="#63b8ff" points="704.97,-926.45 714.97,-922.95 704.97,-919.45 704.97,-926.45"/>
</a>
</g>
</g>
<!-- Node9 -->
<g id="Node000009" class="node">
<title>Node9</title>
<g id="a_Node000009"><a xlink:href="../../d5/d72/classLSM1x0A__LoRaWAN.html#a59f781f3cfd30c11cd3973bcb10a7baa" target="_top" xlink:title="Initiates a LoRaWAN Network Join procedure. This is a blocking function until the module fires an eve...">
<polygon fill="white" stroke="#666666" points="852.88,-844.95 721.38,-844.95 721.38,-824.95 852.88,-824.95 852.88,-844.95"/>
<text text-anchor="middle" x="787.12" y="-831.45" font-family="Helvetica,sans-Serif" font-size="10.00">LSM1x0A_LoRaWAN::join</text>
</a>
</g>
</g>
<!-- Node8&#45;&gt;Node9 -->
<g id="edge8_Node000008_Node000009" class="edge">
<title>Node8&#45;&gt;Node9</title>
<g id="a_edge8_Node000008_Node000009"><a xlink:title=" ">
<path fill="none" stroke="#63b8ff" d="M649.79,-834.95C669.16,-834.95 690.1,-834.95 709.61,-834.95"/>
<polygon fill="#63b8ff" stroke="#63b8ff" points="709.4,-838.45 719.4,-834.95 709.4,-831.45 709.4,-838.45"/>
</a>
</g>
</g>
<!-- Node9&#45;&gt;Node2 -->
<g id="edge11_Node000009_Node000002" class="edge">
<title>Node9&#45;&gt;Node2</title>
<g id="a_edge11_Node000009_Node000002"><a xlink:title=" ">
<path fill="none" stroke="#63b8ff" d="M732.9,-824.5C674.27,-812.53 577.48,-791.38 495.75,-766.95 431.36,-747.69 401.48,-762.27 353.75,-714.95 295.48,-657.18 275.28,-557.13 268.7,-508.74"/>
<polygon fill="#63b8ff" stroke="#63b8ff" points="272.18,-508.33 267.47,-498.84 265.23,-509.2 272.18,-508.33"/>
</a>
</g>
</g>
<!-- Node9&#45;&gt;Node3 -->
<g id="edge10_Node000009_Node000003" class="edge">
<title>Node9&#45;&gt;Node3</title>
<g id="a_edge10_Node000009_Node000003"><a xlink:title=" ">
<path fill="none" stroke="#63b8ff" d="M732.9,-845.44C674.49,-857.21 578.07,-877.35 495.75,-897.95 487.81,-899.94 479.49,-902.14 471.28,-904.39"/>
<polygon fill="#63b8ff" stroke="#63b8ff" points="470.34,-901.01 461.65,-907.06 472.22,-907.76 470.34,-901.01"/>
</a>
</g>
</g>
<!-- Node9&#45;&gt;Node4 -->
<g id="edge9_Node000009_Node000004" class="edge">
<title>Node9&#45;&gt;Node4</title>
<g id="a_edge9_Node000009_Node000004"><a xlink:title=" ">
<path fill="none" stroke="#63b8ff" d="M810.19,-845.4C846.91,-862.79 921.23,-898 969.26,-920.75"/>
<polygon fill="#63b8ff" stroke="#63b8ff" points="967.47,-923.78 978.01,-924.9 970.47,-917.45 967.47,-923.78"/>
</a>
</g>
</g>
<!-- Node10 -->
<g id="Node000010" class="node">
<title>Node10</title>
<g id="a_Node000010"><a xlink:href="../../d5/d72/classLSM1x0A__LoRaWAN.html#a3fdd1ac318a5ad2559323e5d57e36a5e" target="_top" xlink:title="Enables or disables specific sub&#45;bands for regions supporting Channel Masks (e.g.,...">
<polygon fill="white" stroke="#666666" points="1110,-654.95 920,-654.95 920,-634.95 1110,-634.95 1110,-654.95"/>
<text text-anchor="middle" x="1015" y="-641.45" font-family="Helvetica,sans-Serif" font-size="10.00">LSM1x0A_LoRaWAN::setChannelMask</text>
</a>
</g>
</g>
<!-- Node9&#45;&gt;Node10 -->
<g id="edge12_Node000009_Node000010" class="edge">
<title>Node9&#45;&gt;Node10</title>
<g id="a_edge12_Node000009_Node000010"><a xlink:title=" ">
<path fill="none" stroke="#63b8ff" d="M847.43,-824.45C860.15,-820.55 873.05,-815.22 884,-807.95 940.87,-770.19 984.5,-699.61 1003.54,-665.05"/>
<polygon fill="#63b8ff" stroke="#63b8ff" points="1006.47,-666.98 1008.12,-656.52 1000.3,-663.67 1006.47,-666.98"/>
</a>
</g>
</g>
<!-- Node11 -->
<g id="Node000011" class="node">
<title>Node11</title>
<g id="a_Node000011"><a xlink:href="../../d8/d92/classLSM1x0A__Controller.html#a62476e30e50c7fe120aeb8df4b828675" target="_top" xlink:title="Synchronously/blockingly waits for an asynchronous event to occur. Useful for wrapping commands like ...">
<polygon fill="white" stroke="#666666" points="1068,-850.95 962,-850.95 962,-818.95 1068,-818.95 1068,-850.95"/>
<text text-anchor="start" x="970" y="-837.45" font-family="Helvetica,sans-Serif" font-size="10.00">LSM1x0A_Controller</text>
<text text-anchor="middle" x="1015" y="-825.45" font-family="Helvetica,sans-Serif" font-size="10.00">::waitForEvent</text>
</a>
</g>
</g>
<!-- Node9&#45;&gt;Node11 -->
<g id="edge15_Node000009_Node000011" class="edge">
<title>Node9&#45;&gt;Node11</title>
<g id="a_edge15_Node000009_Node000011"><a xlink:title=" ">
<path fill="none" stroke="#63b8ff" d="M853.15,-834.95C883.66,-834.95 919.9,-834.95 950.24,-834.95"/>
<polygon fill="#63b8ff" stroke="#63b8ff" points="950.05,-838.45 960.05,-834.95 950.05,-831.45 950.05,-838.45"/>
</a>
</g>
</g>
<!-- Node10&#45;&gt;Node2 -->
<g id="edge14_Node000010_Node000002" class="edge">
<title>Node10&#45;&gt;Node2</title>
<g id="a_edge14_Node000010_Node000002"><a xlink:title=" ">
<path fill="none" stroke="#63b8ff" d="M1013.22,-634.73C1007.77,-566.01 972.85,-172.04 884,-101.95 698.84,44.11 534.9,29.06 353.75,-121.95 302.17,-164.95 276.11,-377.61 268.32,-453.76"/>
<polygon fill="#63b8ff" stroke="#63b8ff" points="264.88,-452.96 267.37,-463.26 271.84,-453.65 264.88,-452.96"/>
</a>
</g>
</g>
<!-- Node10&#45;&gt;Node7 -->
<g id="edge13_Node000010_Node000007" class="edge">
<title>Node10&#45;&gt;Node7</title>
<g id="a_edge13_Node000010_Node000007"><a xlink:title=" ">
<path fill="none" stroke="#63b8ff" d="M1023.8,-655.28C1054.34,-695.76 1166.17,-843.95 1206.57,-897.49"/>
<polygon fill="#63b8ff" stroke="#63b8ff" points="1203.72,-899.52 1212.54,-905.4 1209.31,-895.31 1203.72,-899.52"/>
</a>
</g>
</g>
<!-- Node12&#45;&gt;Node10 -->
<g id="edge21_Node000012_Node000010" class="edge">
<title>Node12&#45;&gt;Node10</title>
<g id="a_edge21_Node000012_Node000010"><a xlink:title=" ">
<path fill="none" stroke="#63b8ff" d="M648.49,-484.29C726.15,-488.81 843.68,-498.64 884,-517.95 935.93,-542.82 979.88,-596.76 1000.84,-625.7"/>
<polygon fill="#63b8ff" stroke="#63b8ff" points="997.77,-627.41 1006.4,-633.56 1003.49,-623.37 997.77,-627.41"/>
</a>
</g>
</g>
<!-- Node13 -->
<g id="Node000013" class="node">
<title>Node13</title>
<g id="a_Node000013"><a xlink:href="../../d5/d72/classLSM1x0A__LoRaWAN.html#af0baa3db4c7fab580d6b19a9e92472f6" target="_top" xlink:title="Enables or disables Adaptive Data Rate (ADR).">
<polygon fill="white" stroke="#666666" points="863,-798.95 711.25,-798.95 711.25,-778.95 863,-778.95 863,-798.95"/>
<text text-anchor="middle" x="787.12" y="-785.45" font-family="Helvetica,sans-Serif" font-size="10.00">LSM1x0A_LoRaWAN::setADR</text>
</a>
</g>
</g>
<!-- Node12&#45;&gt;Node13 -->
<g id="edge17_Node000012_Node000013" class="edge">
<title>Node12&#45;&gt;Node13</title>
<g id="a_edge17_Node000012_Node000013"><a xlink:title=" ">
<path fill="none" stroke="#63b8ff" d="M577.18,-497.13C581.7,-546.58 602.4,-696.7 690.25,-769.95 693.5,-772.66 697.04,-775.03 700.76,-777.08"/>
<polygon fill="#63b8ff" stroke="#63b8ff" points="699.09,-780.17 709.63,-781.21 702.04,-773.82 699.09,-780.17"/>
</a>
</g>
</g>
<!-- Node14 -->
<g id="Node000014" class="node">
<title>Node14</title>
<g id="a_Node000014"><a xlink:href="../../d5/d72/classLSM1x0A__LoRaWAN.html#a5365ed1596eb84ebf1e3b33b4a10c788" target="_top" xlink:title="Sets the LoRaWAN operational frequency band.">
<polygon fill="white" stroke="#666666" points="863.38,-760.95 710.88,-760.95 710.88,-740.95 863.38,-740.95 863.38,-760.95"/>
<text text-anchor="middle" x="787.12" y="-747.45" font-family="Helvetica,sans-Serif" font-size="10.00">LSM1x0A_LoRaWAN::setBand</text>
</a>
</g>
</g>
<!-- Node12&#45;&gt;Node14 -->
<g id="edge19_Node000012_Node000014" class="edge">
<title>Node12&#45;&gt;Node14</title>
<g id="a_edge19_Node000012_Node000014"><a xlink:title=" ">
<path fill="none" stroke="#63b8ff" d="M578.26,-497.27C585.42,-542.46 611.98,-669.99 690.25,-731.95 693.41,-734.45 696.8,-736.64 700.36,-738.58"/>
<polygon fill="#63b8ff" stroke="#63b8ff" points="698.85,-741.74 709.4,-742.72 701.77,-735.37 698.85,-741.74"/>
</a>
</g>
</g>
<!-- Node15 -->
<g id="Node000015" class="node">
<title>Node15</title>
<g id="a_Node000015"><a xlink:href="../../d5/d72/classLSM1x0A__LoRaWAN.html#a9d9285c43414337a0ccb3a6cd7ca06e6" target="_top" xlink:title="Configures the number of retries for Confirmed uplinks.">
<polygon fill="white" stroke="#666666" points="869.38,-722.95 704.88,-722.95 704.88,-690.95 869.38,-690.95 869.38,-722.95"/>
<text text-anchor="start" x="712.88" y="-709.45" font-family="Helvetica,sans-Serif" font-size="10.00">LSM1x0A_LoRaWAN::setConfirm</text>
<text text-anchor="middle" x="787.12" y="-697.45" font-family="Helvetica,sans-Serif" font-size="10.00">Retry</text>
</a>
</g>
</g>
<!-- Node12&#45;&gt;Node15 -->
<g id="edge22_Node000012_Node000015" class="edge">
<title>Node12&#45;&gt;Node15</title>
<g id="a_edge22_Node000012_Node000015"><a xlink:title=" ">
<path fill="none" stroke="#63b8ff" d="M580.52,-497.42C591.98,-535.98 625.92,-632.59 690.25,-681.95 691.61,-682.99 693.02,-684 694.46,-684.96"/>
<polygon fill="#63b8ff" stroke="#63b8ff" points="692.68,-687.98 703.09,-689.96 696.19,-681.92 692.68,-687.98"/>
</a>
</g>
</g>
<!-- Node16 -->
<g id="Node000016" class="node">
<title>Node16</title>
<g id="a_Node000016"><a xlink:href="../../d5/d72/classLSM1x0A__LoRaWAN.html#a56345ceeafa0b9059d6de4e69eddc82e" target="_top" xlink:title="Sets the Data Rate (DR) of the module.">
<polygon fill="white" stroke="#666666" points="873.12,-672.95 701.12,-672.95 701.12,-652.95 873.12,-652.95 873.12,-672.95"/>
<text text-anchor="middle" x="787.12" y="-659.45" font-family="Helvetica,sans-Serif" font-size="10.00">LSM1x0A_LoRaWAN::setDataRate</text>
</a>
</g>
</g>
<!-- Node12&#45;&gt;Node16 -->
<g id="edge24_Node000012_Node000016" class="edge">
<title>Node12&#45;&gt;Node16</title>
<g id="a_edge24_Node000012_Node000016"><a xlink:title=" ">
<path fill="none" stroke="#63b8ff" d="M582.43,-497.26C596.49,-530.68 633.36,-606.87 690.25,-643.95 692.39,-645.34 694.6,-646.63 696.88,-647.84"/>
<polygon fill="#63b8ff" stroke="#63b8ff" points="695.3,-650.96 705.85,-651.92 698.2,-644.59 695.3,-650.96"/>
</a>
</g>
</g>
<!-- Node17 -->
<g id="Node000017" class="node">
<title>Node17</title>
<g id="a_Node000017"><a xlink:href="../../d5/d72/classLSM1x0A__LoRaWAN.html#a8494083816ab885cb07fc3b08de029f4" target="_top" xlink:title="Sets the LoRaWAN Device Address (DevAddr) for ABP mode.">
<polygon fill="white" stroke="#666666" points="871.25,-634.95 703,-634.95 703,-614.95 871.25,-614.95 871.25,-634.95"/>
<text text-anchor="middle" x="787.12" y="-621.45" font-family="Helvetica,sans-Serif" font-size="10.00">LSM1x0A_LoRaWAN::setDevAddr</text>
</a>
</g>
</g>
<!-- Node12&#45;&gt;Node17 -->
<g id="edge26_Node000012_Node000017" class="edge">
<title>Node12&#45;&gt;Node17</title>
<g id="a_edge26_Node000012_Node000017"><a xlink:title=" ">
<path fill="none" stroke="#63b8ff" d="M585.99,-497.41C603.47,-524.7 642.35,-578.97 690.25,-605.95 693.09,-607.55 696.05,-609.02 699.08,-610.36"/>
<polygon fill="#63b8ff" stroke="#63b8ff" points="697.67,-613.57 708.26,-613.93 700.21,-607.04 697.67,-613.57"/>
</a>
</g>
</g>
<!-- Node18 -->
<g id="Node000018" class="node">
<title>Node18</title>
<g id="a_Node000018"><a xlink:href="../../d5/d72/classLSM1x0A__LoRaWAN.html#ad320634e52d7ea907043cc50dd37c5b0" target="_top" xlink:title="Sets the LoRaWAN Device EUI (DevEUI).">
<polygon fill="white" stroke="#666666" points="869.75,-596.95 704.5,-596.95 704.5,-576.95 869.75,-576.95 869.75,-596.95"/>
<text text-anchor="middle" x="787.12" y="-583.45" font-family="Helvetica,sans-Serif" font-size="10.00">LSM1x0A_LoRaWAN::setDevEUI</text>
</a>
</g>
</g>
<!-- Node12&#45;&gt;Node18 -->
<g id="edge28_Node000012_Node000018" class="edge">
<title>Node12&#45;&gt;Node18</title>
<g id="a_edge28_Node000012_Node000018"><a xlink:title=" ">
<path fill="none" stroke="#63b8ff" d="M592.2,-497.21C613.02,-517.12 651.15,-550.34 690.25,-567.95 694.51,-569.87 698.97,-571.6 703.53,-573.15"/>
<polygon fill="#63b8ff" stroke="#63b8ff" points="702.28,-576.43 712.87,-576.02 704.34,-569.74 702.28,-576.43"/>
</a>
</g>
</g>
<!-- Node19 -->
<g id="Node000019" class="node">
<title>Node19</title>
<g id="a_Node000019"><a xlink:href="../../d5/d72/classLSM1x0A__LoRaWAN.html#a031023b0d2dd5db3c51c2db6ae7801cc" target="_top" xlink:title="Enables or disables the Duty Cycle limitation (EU regions mostly).">
<polygon fill="white" stroke="#666666" points="862.62,-558.95 711.62,-558.95 711.62,-526.95 862.62,-526.95 862.62,-558.95"/>
<text text-anchor="start" x="719.62" y="-545.45" font-family="Helvetica,sans-Serif" font-size="10.00">LSM1x0A_LoRaWAN::setDuty</text>
<text text-anchor="middle" x="787.12" y="-533.45" font-family="Helvetica,sans-Serif" font-size="10.00">Cycle</text>
</a>
</g>
</g>
<!-- Node12&#45;&gt;Node19 -->
<g id="edge30_Node000012_Node000019" class="edge">
<title>Node12&#45;&gt;Node19</title>
<g id="a_edge30_Node000012_Node000019"><a xlink:title=" ">
<path fill="none" stroke="#63b8ff" d="M631.76,-497.4C658.7,-505.35 691.23,-514.95 719.48,-523.28"/>
<polygon fill="#63b8ff" stroke="#63b8ff" points="718.44,-526.62 729.02,-526.1 720.42,-519.91 718.44,-526.62"/>
</a>
</g>
</g>
<!-- Node20 -->
<g id="Node000020" class="node">
<title>Node20</title>
<g id="a_Node000020"><a xlink:href="../../d5/d72/classLSM1x0A__LoRaWAN.html#a6b179d5825c49af0f391dfc539912f64" target="_top" xlink:title="Sets the delay for the Join1 receive window.">
<polygon fill="white" stroke="#666666" points="863.75,-470.95 710.5,-470.95 710.5,-438.95 863.75,-438.95 863.75,-470.95"/>
<text text-anchor="start" x="718.5" y="-457.45" font-family="Helvetica,sans-Serif" font-size="10.00">LSM1x0A_LoRaWAN::setJoin1</text>
<text text-anchor="middle" x="787.12" y="-445.45" font-family="Helvetica,sans-Serif" font-size="10.00">Delay</text>
</a>
</g>
</g>
<!-- Node12&#45;&gt;Node20 -->
<g id="edge32_Node000012_Node000020" class="edge">
<title>Node12&#45;&gt;Node20</title>
<g id="a_edge32_Node000012_Node000020"><a xlink:title=" ">
<path fill="none" stroke="#63b8ff" d="M648.61,-471.96C664.96,-469.94 682.47,-467.77 699.33,-465.69"/>
<polygon fill="#63b8ff" stroke="#63b8ff" points="699.3,-469.22 708.8,-464.52 698.44,-462.27 699.3,-469.22"/>
</a>
</g>
</g>
<!-- Node21 -->
<g id="Node000021" class="node">
<title>Node21</title>
<g id="a_Node000021"><a xlink:href="../../d5/d72/classLSM1x0A__LoRaWAN.html#a4545d0caad41558cdb9bae8286b104d8" target="_top" xlink:title="Sets the delay for the Join2 receive window.">
<polygon fill="white" stroke="#666666" points="863.75,-420.95 710.5,-420.95 710.5,-388.95 863.75,-388.95 863.75,-420.95"/>
<text text-anchor="start" x="718.5" y="-407.45" font-family="Helvetica,sans-Serif" font-size="10.00">LSM1x0A_LoRaWAN::setJoin2</text>
<text text-anchor="middle" x="787.12" y="-395.45" font-family="Helvetica,sans-Serif" font-size="10.00">Delay</text>
</a>
</g>
</g>
<!-- Node12&#45;&gt;Node21 -->
<g id="edge34_Node000012_Node000021" class="edge">
<title>Node12&#45;&gt;Node21</title>
<g id="a_edge34_Node000012_Node000021"><a xlink:title=" ">
<path fill="none" stroke="#63b8ff" d="M608.91,-464.52C631.42,-453.71 662.17,-439.8 690.25,-429.95 695.54,-428.09 701.04,-426.3 706.61,-424.59"/>
<polygon fill="#63b8ff" stroke="#63b8ff" points="707.32,-428.03 715.91,-421.84 705.33,-421.32 707.32,-428.03"/>
</a>
</g>
</g>
<!-- Node22 -->
<g id="Node000022" class="node">
<title>Node22</title>
<g id="a_Node000022"><a xlink:href="../../d5/d72/classLSM1x0A__LoRaWAN.html#a06bd50723ec1eb7e144c9141b2ec86fc" target="_top" xlink:title="Sets the LoRaWAN Network ID (NetID).">
<polygon fill="white" stroke="#666666" points="867.5,-370.95 706.75,-370.95 706.75,-350.95 867.5,-350.95 867.5,-370.95"/>
<text text-anchor="middle" x="787.12" y="-357.45" font-family="Helvetica,sans-Serif" font-size="10.00">LSM1x0A_LoRaWAN::setNwkID</text>
</a>
</g>
</g>
<!-- Node12&#45;&gt;Node22 -->
<g id="edge36_Node000012_Node000022" class="edge">
<title>Node12&#45;&gt;Node22</title>
<g id="a_edge36_Node000012_Node000022"><a xlink:title=" ">
<path fill="none" stroke="#63b8ff" d="M589.26,-464.74C608.85,-441.98 647.78,-400.98 690.25,-379.95 693.93,-378.13 697.76,-376.48 701.7,-374.99"/>
<polygon fill="#63b8ff" stroke="#63b8ff" points="702.51,-378.41 710.86,-371.9 700.27,-371.78 702.51,-378.41"/>
</a>
</g>
</g>
<!-- Node23 -->
<g id="Node000023" class="node">
<title>Node23</title>
<g id="a_Node000023"><a xlink:href="../../d5/d72/classLSM1x0A__LoRaWAN.html#aa70ada64d28ecca216bb62268e502adf" target="_top" xlink:title="Sets the delay for the RX1 receive window.">
<polygon fill="white" stroke="#666666" points="873.88,-332.95 700.38,-332.95 700.38,-312.95 873.88,-312.95 873.88,-332.95"/>
<text text-anchor="middle" x="787.12" y="-319.45" font-family="Helvetica,sans-Serif" font-size="10.00">LSM1x0A_LoRaWAN::setRx1Delay</text>
</a>
</g>
</g>
<!-- Node12&#45;&gt;Node23 -->
<g id="edge38_Node000012_Node000023" class="edge">
<title>Node12&#45;&gt;Node23</title>
<g id="a_edge38_Node000012_Node000023"><a xlink:title=" ">
<path fill="none" stroke="#63b8ff" d="M584.45,-464.54C600.65,-434.88 639.05,-372.58 690.25,-341.95 692.73,-340.46 695.31,-339.09 697.96,-337.82"/>
<polygon fill="#63b8ff" stroke="#63b8ff" points="699.21,-341.09 707.09,-334.02 696.51,-334.63 699.21,-341.09"/>
</a>
</g>
</g>
<!-- Node24 -->
<g id="Node000024" class="node">
<title>Node24</title>
<g id="a_Node000024"><a xlink:href="../../d5/d72/classLSM1x0A__LoRaWAN.html#a2cf4eff0181b6107d082bccefa24217b" target="_top" xlink:title="Sets the Data Rate (DR) specifically for the RX2 window.">
<polygon fill="white" stroke="#666666" points="882.12,-294.95 692.12,-294.95 692.12,-274.95 882.12,-274.95 882.12,-294.95"/>
<text text-anchor="middle" x="787.12" y="-281.45" font-family="Helvetica,sans-Serif" font-size="10.00">LSM1x0A_LoRaWAN::setRx2DataRate</text>
</a>
</g>
</g>
<!-- Node12&#45;&gt;Node24 -->
<g id="edge40_Node000012_Node000024" class="edge">
<title>Node12&#45;&gt;Node24</title>
<g id="a_edge40_Node000012_Node000024"><a xlink:title=" ">
<path fill="none" stroke="#63b8ff" d="M581.52,-464.61C594.4,-429.11 630.04,-344.84 690.25,-303.95 692.22,-302.61 694.27,-301.36 696.38,-300.19"/>
<polygon fill="#63b8ff" stroke="#63b8ff" points="697.71,-303.43 705.23,-295.97 694.7,-297.11 697.71,-303.43"/>
</a>
</g>
</g>
<!-- Node25 -->
<g id="Node000025" class="node">
<title>Node25</title>
<g id="a_Node000025"><a xlink:href="../../d5/d72/classLSM1x0A__LoRaWAN.html#a42d2137b475b57e19d891a5f1ac93221" target="_top" xlink:title="Sets the delay for the RX2 receive window.">
<polygon fill="white" stroke="#666666" points="873.88,-256.95 700.38,-256.95 700.38,-236.95 873.88,-236.95 873.88,-256.95"/>
<text text-anchor="middle" x="787.12" y="-243.45" font-family="Helvetica,sans-Serif" font-size="10.00">LSM1x0A_LoRaWAN::setRx2Delay</text>
</a>
</g>
</g>
<!-- Node12&#45;&gt;Node25 -->
<g id="edge42_Node000012_Node000025" class="edge">
<title>Node12&#45;&gt;Node25</title>
<g id="a_edge42_Node000012_Node000025"><a xlink:title=" ">
<path fill="none" stroke="#63b8ff" d="M579.59,-464.6C589.43,-423.89 620.86,-317.5 690.25,-265.95 691.84,-264.76 693.49,-263.65 695.18,-262.6"/>
<polygon fill="#63b8ff" stroke="#63b8ff" points="696.76,-265.72 703.98,-257.97 693.5,-259.53 696.76,-265.72"/>
</a>
</g>
</g>
<!-- Node26 -->
<g id="Node000026" class="node">
<title>Node26</title>
<g id="a_Node000026"><a xlink:href="../../d5/d72/classLSM1x0A__LoRaWAN.html#a689f7dfda1dfeae11ea397c2ddf2ad37" target="_top" xlink:title="Sets the precise frequency for the RX2 window.">
<polygon fill="white" stroke="#666666" points="884,-218.95 690.25,-218.95 690.25,-198.95 884,-198.95 884,-218.95"/>
<text text-anchor="middle" x="787.12" y="-205.45" font-family="Helvetica,sans-Serif" font-size="10.00">LSM1x0A_LoRaWAN::setRx2Frequency</text>
</a>
</g>
</g>
<!-- Node12&#45;&gt;Node26 -->
<g id="edge44_Node000012_Node000026" class="edge">
<title>Node12&#45;&gt;Node26</title>
<g id="a_edge44_Node000012_Node000026"><a xlink:title=" ">
<path fill="none" stroke="#63b8ff" d="M578.21,-464.5C585.26,-418.96 611.56,-290.44 690.25,-227.95 691.58,-226.89 692.95,-225.89 694.36,-224.94"/>
<polygon fill="#63b8ff" stroke="#63b8ff" points="695.86,-228.11 702.82,-220.12 692.4,-222.03 695.86,-228.11"/>
</a>
</g>
</g>
<!-- Node27 -->
<g id="Node000027" class="node">
<title>Node27</title>
<g id="a_Node000027"><a xlink:href="../../d5/d72/classLSM1x0A__LoRaWAN.html#a1df10d7ae6bf45b537d28d3d5c4b88d7" target="_top" xlink:title="Sets the transmission power index.">
<polygon fill="white" stroke="#666666" points="871.62,-180.95 702.62,-180.95 702.62,-160.95 871.62,-160.95 871.62,-180.95"/>
<text text-anchor="middle" x="787.12" y="-167.45" font-family="Helvetica,sans-Serif" font-size="10.00">LSM1x0A_LoRaWAN::setTxPower</text>
</a>
</g>
</g>
<!-- Node12&#45;&gt;Node27 -->
<g id="edge46_Node000012_Node000027" class="edge">
<title>Node12&#45;&gt;Node27</title>
<g id="a_edge46_Node000012_Node000027"><a xlink:title=" ">
<path fill="none" stroke="#63b8ff" d="M577.14,-464.65C581.55,-414.88 601.96,-263.73 690.25,-189.95 691.39,-189 692.55,-188.09 693.75,-187.23"/>
<polygon fill="#63b8ff" stroke="#63b8ff" points="695.43,-190.3 702.18,-182.14 691.81,-184.31 695.43,-190.3"/>
</a>
</g>
</g>
<!-- Node28 -->
<g id="Node000028" class="node">
<title>Node28</title>
<g id="a_Node000028"><a xlink:href="../../d5/d72/classLSM1x0A__LoRaWAN.html#a059fd6a9356c4ecadd5a98294da5952d" target="_top" xlink:title="Configures the number of repetitions for Unconfirmed uplinks.">
<polygon fill="white" stroke="#666666" points="874.62,-142.95 699.62,-142.95 699.62,-110.95 874.62,-110.95 874.62,-142.95"/>
<text text-anchor="start" x="707.62" y="-129.45" font-family="Helvetica,sans-Serif" font-size="10.00">LSM1x0A_LoRaWAN::setUnconfirm</text>
<text text-anchor="middle" x="787.12" y="-117.45" font-family="Helvetica,sans-Serif" font-size="10.00">Retry</text>
</a>
</g>
</g>
<!-- Node12&#45;&gt;Node28 -->
<g id="edge48_Node000012_Node000028" class="edge">
<title>Node12&#45;&gt;Node28</title>
<g id="a_edge48_Node000012_Node000028"><a xlink:title=" ">
<path fill="none" stroke="#63b8ff" d="M576.52,-464.75C579.15,-411.46 594.98,-239.96 690.25,-151.95 691.02,-151.23 691.82,-150.54 692.62,-149.86"/>
<polygon fill="#63b8ff" stroke="#63b8ff" points="694.47,-152.84 700.62,-144.21 690.44,-147.12 694.47,-152.84"/>
</a>
</g>
</g>
<!-- Node13&#45;&gt;Node2 -->
<g id="edge18_Node000013_Node000002" class="edge">
<title>Node13&#45;&gt;Node2</title>
<g id="a_edge18_Node000013_Node000002"><a xlink:title=" ">
<path fill="none" stroke="#63b8ff" d="M712.11,-778.49C602.89,-761.69 405.83,-725.64 353.75,-677.95 303.1,-631.57 279.87,-550.58 270.75,-508.34"/>
<polygon fill="#63b8ff" stroke="#63b8ff" points="274.23,-507.86 268.8,-498.76 267.37,-509.26 274.23,-507.86"/>
</a>
</g>
</g>
<!-- Node14&#45;&gt;Node2 -->
<g id="edge20_Node000014_Node000002" class="edge">
<title>Node14&#45;&gt;Node2</title>
<g id="a_edge20_Node000014_Node000002"><a xlink:title=" ">
<path fill="none" stroke="#63b8ff" d="M714.48,-740.46C606.42,-723.42 408.51,-687.03 353.75,-641.95 310.48,-606.32 285.12,-543.61 273.49,-507.88"/>
<polygon fill="#63b8ff" stroke="#63b8ff" points="276.96,-507.24 270.64,-498.74 270.27,-509.32 276.96,-507.24"/>
</a>
</g>
</g>
<!-- Node15&#45;&gt;Node2 -->
<g id="edge23_Node000015_Node000002" class="edge">
<title>Node15&#45;&gt;Node2</title>
<g id="a_edge23_Node000015_Node000002"><a xlink:title=" ">
<path fill="none" stroke="#63b8ff" d="M704.49,-696.13C595.08,-680.29 408.32,-648.15 353.75,-606.95 318.63,-580.43 292.24,-535.78 277.9,-507.37"/>
<polygon fill="#63b8ff" stroke="#63b8ff" points="281.21,-506.16 273.67,-498.71 274.92,-509.23 281.21,-506.16"/>
</a>
</g>
</g>
<!-- Node16&#45;&gt;Node2 -->
<g id="edge25_Node000016_Node000002" class="edge">
<title>Node16&#45;&gt;Node2</title>
<g id="a_edge25_Node000016_Node000002"><a xlink:title=" ">
<path fill="none" stroke="#63b8ff" d="M701.02,-660.63C609.31,-654.66 461.96,-634.71 353.75,-569.95 326.07,-553.38 300.89,-526.09 284.63,-506.09"/>
<polygon fill="#63b8ff" stroke="#63b8ff" points="287.49,-504.06 278.54,-498.39 282,-508.41 287.49,-504.06"/>
</a>
</g>
</g>
<!-- Node17&#45;&gt;Node2 -->
<g id="edge27_Node000017_Node000002" class="edge">
<title>Node17&#45;&gt;Node2</title>
<g id="a_edge27_Node000017_Node000002"><a xlink:title=" ">
<path fill="none" stroke="#63b8ff" d="M702.77,-618.09C613.51,-608.52 469.15,-586.49 353.75,-537.95 332.99,-529.22 311.74,-515.61 295.33,-503.88"/>
<polygon fill="#63b8ff" stroke="#63b8ff" points="297.62,-501.22 287.48,-498.14 293.49,-506.87 297.62,-501.22"/>
</a>
</g>
</g>
<!-- Node18&#45;&gt;Node2 -->
<g id="edge29_Node000018_Node000002" class="edge">
<title>Node18&#45;&gt;Node2</title>
<g id="a_edge29_Node000018_Node000002"><a xlink:title=" ">
<path fill="none" stroke="#63b8ff" d="M704.37,-576.91C616.78,-565.2 474.09,-543.35 353.75,-511.95 342.23,-508.94 330.07,-505.11 318.59,-501.17"/>
<polygon fill="#63b8ff" stroke="#63b8ff" points="319.85,-497.9 309.26,-497.88 317.53,-504.5 319.85,-497.9"/>
</a>
</g>
</g>
<!-- Node19&#45;&gt;Node2 -->
<g id="edge31_Node000019_Node000002" class="edge">
<title>Node19&#45;&gt;Node2</title>
<g id="a_edge31_Node000019_Node000002"><a xlink:title=" ">
<path fill="none" stroke="#63b8ff" d="M711.39,-534.04C608.71,-521.81 425.81,-500.02 329.35,-488.53"/>
<polygon fill="#63b8ff" stroke="#63b8ff" points="329.87,-485.06 319.53,-487.36 329.05,-492.01 329.87,-485.06"/>
</a>
</g>
</g>
<!-- Node20&#45;&gt;Node2 -->
<g id="edge33_Node000020_Node000002" class="edge">
<title>Node20&#45;&gt;Node2</title>
<g id="a_edge33_Node000020_Node000002"><a xlink:title=" ">
<path fill="none" stroke="#63b8ff" d="M710.25,-453.04C651.62,-452.09 568.48,-451.88 495.75,-455.95 439.37,-459.1 375.55,-466.33 329.47,-472.21"/>
<polygon fill="#63b8ff" stroke="#63b8ff" points="329.12,-468.72 319.65,-473.48 330.01,-475.67 329.12,-468.72"/>
</a>
</g>
</g>
<!-- Node21&#45;&gt;Node2 -->
<g id="edge35_Node000021_Node000002" class="edge">
<title>Node21&#45;&gt;Node2</title>
<g id="a_edge35_Node000021_Node000002"><a xlink:title=" ">
<path fill="none" stroke="#63b8ff" d="M710.13,-409.76C623.28,-416.18 477.21,-429.77 353.75,-454.95 345.08,-456.72 336.03,-458.94 327.17,-461.34"/>
<polygon fill="#63b8ff" stroke="#63b8ff" points="326.23,-457.97 317.55,-464.05 328.13,-464.71 326.23,-457.97"/>
</a>
</g>
</g>
<!-- Node22&#45;&gt;Node2 -->
<g id="edge37_Node000022_Node000002" class="edge">
<title>Node22&#45;&gt;Node2</title>
<g id="a_edge37_Node000022_Node000002"><a xlink:title=" ">
<path fill="none" stroke="#63b8ff" d="M706.46,-366.22C618.2,-373.87 472.63,-391.94 353.75,-432.95 335.26,-439.33 316.05,-449.35 300.31,-458.6"/>
<polygon fill="#63b8ff" stroke="#63b8ff" points="298.55,-455.57 291.8,-463.73 302.17,-461.56 298.55,-455.57"/>
</a>
</g>
</g>
<!-- Node23&#45;&gt;Node2 -->
<g id="edge39_Node000023_Node000002" class="edge">
<title>Node23&#45;&gt;Node2</title>
<g id="a_edge39_Node000023_Node000002"><a xlink:title=" ">
<path fill="none" stroke="#63b8ff" d="M699.99,-323.48C609.04,-327.36 463.85,-343.2 353.75,-400.95 327.51,-414.71 303.03,-438.19 286.59,-456.16"/>
<polygon fill="#63b8ff" stroke="#63b8ff" points="284.23,-453.54 280.2,-463.34 289.46,-458.2 284.23,-453.54"/>
</a>
</g>
</g>
<!-- Node24&#45;&gt;Node2 -->
<g id="edge41_Node000024_Node000002" class="edge">
<title>Node24&#45;&gt;Node2</title>
<g id="a_edge41_Node000024_Node000002"><a xlink:title=" ">
<path fill="none" stroke="#63b8ff" d="M691.9,-278.72C598.35,-277.21 454.69,-287.94 353.75,-355.95 317.25,-380.54 291.12,-425.71 277.23,-454.49"/>
<polygon fill="#63b8ff" stroke="#63b8ff" points="274.19,-452.73 273.15,-463.27 280.54,-455.68 274.19,-452.73"/>
</a>
</g>
</g>
<!-- Node25&#45;&gt;Node2 -->
<g id="edge43_Node000025_Node000002" class="edge">
<title>Node25&#45;&gt;Node2</title>
<g id="a_edge43_Node000025_Node000002"><a xlink:title=" ">
<path fill="none" stroke="#63b8ff" d="M716.35,-236.49C623.58,-226.6 459.09,-223.58 353.75,-304.95 305.11,-342.51 281.38,-414.19 271.56,-453.49"/>
<polygon fill="#63b8ff" stroke="#63b8ff" points="268.19,-452.56 269.3,-463.1 275,-454.17 268.19,-452.56"/>
</a>
</g>
</g>
<!-- Node26&#45;&gt;Node2 -->
<g id="edge45_Node000026_Node000002" class="edge">
<title>Node26&#45;&gt;Node2</title>
<g id="a_edge45_Node000026_Node000002"><a xlink:title=" ">
<path fill="none" stroke="#63b8ff" d="M689.92,-205.86C578.47,-204.31 403.75,-208.72 353.75,-248.95 289.86,-300.36 272.33,-403.6 267.54,-453.16"/>
<polygon fill="#63b8ff" stroke="#63b8ff" points="264.06,-452.77 266.7,-463.03 271.03,-453.36 264.06,-452.77"/>
</a>
</g>
</g>
<!-- Node27&#45;&gt;Node2 -->
<g id="edge47_Node000027_Node000002" class="edge">
<title>Node27&#45;&gt;Node2</title>
<g id="a_edge47_Node000027_Node000002"><a xlink:title=" ">
<path fill="none" stroke="#63b8ff" d="M739.42,-160.48C652.99,-144.01 466.64,-122.56 353.75,-212.95 278.94,-272.85 267.08,-397.78 265.65,-453.31"/>
<polygon fill="#63b8ff" stroke="#63b8ff" points="262.15,-453.1 265.5,-463.15 269.15,-453.21 262.15,-453.1"/>
</a>
</g>
</g>
<!-- Node28&#45;&gt;Node2 -->
<g id="edge49_Node000028_Node000002" class="edge">
<title>Node28&#45;&gt;Node2</title>
<g id="a_edge49_Node000028_Node000002"><a xlink:title=" ">
<path fill="none" stroke="#63b8ff" d="M699.24,-121.55C588.15,-116.57 404.12,-115.39 353.75,-157.95 307.9,-196.69 278.75,-383.18 269.2,-453.79"/>
<polygon fill="#63b8ff" stroke="#63b8ff" points="265.78,-452.95 267.94,-463.32 272.72,-453.87 265.78,-452.95"/>
</a>
</g>
</g>
<!-- Node30&#45;&gt;Node31 -->
<g id="edge52_Node000030_Node000031" class="edge">
<title>Node30&#45;&gt;Node31</title>
<g id="a_edge52_Node000030_Node000031"><a xlink:title=" ">
<path fill="none" stroke="#63b8ff" d="M628.48,-1092.44C646.64,-1094.34 667.61,-1096.54 688.22,-1098.7"/>
<polygon fill="#63b8ff" stroke="#63b8ff" points="687.79,-1102.17 698.1,-1099.73 688.52,-1095.21 687.79,-1102.17"/>
</a>
</g>
</g>
<!-- Node32 -->
<g id="Node000032" class="node">
<title>Node32</title>
<g id="a_Node000032"><a xlink:href="../../d6/d3c/classLSM1x0A__AtParser.html#a0ba6f927c54fceece22c17773d3f2600" target="_top" xlink:title="Sends a command and extracts a value from the response.">
<polygon fill="white" stroke="#666666" points="1102.12,-1124.95 927.88,-1124.95 927.88,-1092.95 1102.12,-1092.95 1102.12,-1124.95"/>
<text text-anchor="start" x="935.88" y="-1111.45" font-family="Helvetica,sans-Serif" font-size="10.00">LSM1x0A_AtParser::sendCommand</text>
<text text-anchor="middle" x="1015" y="-1099.45" font-family="Helvetica,sans-Serif" font-size="10.00">WithResponse</text>
</a>
</g>
</g>
<!-- Node31&#45;&gt;Node32 -->
<g id="edge53_Node000031_Node000032" class="edge">
<title>Node31&#45;&gt;Node32</title>
<g id="a_edge53_Node000031_Node000032"><a xlink:title=" ">
<path fill="none" stroke="#63b8ff" d="M874.49,-1108.95C888.24,-1108.95 902.56,-1108.95 916.55,-1108.95"/>
<polygon fill="#63b8ff" stroke="#63b8ff" points="916.17,-1112.45 926.17,-1108.95 916.17,-1105.45 916.17,-1112.45"/>
</a>
</g>
</g>
<!-- Node33 -->
<g id="Node000033" class="node">
<title>Node33</title>
<g id="a_Node000033"><a xlink:href="../../d5/d8b/classUartDriver.html#a5d0f22e8867eebe99273078bb19bd23d" target="_top" xlink:title="Sends data through UART.">
<polygon fill="white" stroke="#666666" points="1276.75,-1118.95 1167.75,-1118.95 1167.75,-1098.95 1276.75,-1098.95 1276.75,-1118.95"/>
<text text-anchor="middle" x="1222.25" y="-1105.45" font-family="Helvetica,sans-Serif" font-size="10.00">UartDriver::sendData</text>
</a>
</g>
</g>
<!-- Node32&#45;&gt;Node33 -->
<g id="edge54_Node000032_Node000033" class="edge">
<title>Node32&#45;&gt;Node33</title>
<g id="a_edge54_Node000032_Node000033"><a xlink:title=" ">
<path fill="none" stroke="#63b8ff" d="M1102.45,-1108.95C1120.34,-1108.95 1138.91,-1108.95 1155.89,-1108.95"/>
<polygon fill="#63b8ff" stroke="#63b8ff" points="1155.86,-1112.45 1165.86,-1108.95 1155.86,-1105.45 1155.86,-1112.45"/>
</a>
</g>
</g>
</g>
</svg>

<g id="navigator" transform="translate(0 0)" fill="#404254">
  <rect fill="#f2f5e9" fill-opacity="0.5" stroke="#606060" stroke-width=".5" x="0" y="0" width="60" height="60"/>
  <use id="zoomplus" xlink:href="#zoomPlus" x="17" y="9" onmousedown="handleZoom(evt,'in')"/>
  <use id="zoomminus" xlink:href="#zoomMin" x="42" y="9" onmousedown="handleZoom(evt,'out')"/>
  <use id="reset" xlink:href="#resetDef" x="30" y="36" onmousedown="handleReset()"/>
   <use id="arrowup" xlink:href="#arrowUp" x="0" y="0" onmousedown="handlePan(0,-1)"/>
  <use id="arrowright" xlink:href="#arrowRight" x="0" y="0" onmousedown="handlePan(1,0)"/>
  <use id="arrowdown" xlink:href="#arrowDown" x="0" y="0" onmousedown="handlePan(0,1)"/>
  <use id="arrowleft" xlink:href="#arrowLeft" x="0" y="0" onmousedown="handlePan(-1,0)"/>
</g>
<svg viewBox="0 0 15 15" width="100%" height="30px" preserveAspectRatio="xMaxYMin meet">
 <g id="arrow_out" transform="scale(0.3 0.3)">
  <a xlink:href="classLSM1x0A__LoRaWAN_a3224ad8bc6fa466c88f74d4658b44d95_cgraph_org.svg" target="_base">
   <rect id="button" ry="5" rx="5" y="6" x="6" height="38" width="38"
        fill="#f2f5e9" fill-opacity="0.5" stroke="#606060" stroke-width="1.0"/>
   <path id="arrow"
     d="M 11.500037,31.436501 C 11.940474,20.09759 22.043105,11.32322 32.158766,21.979434 L 37.068811,17.246167 C 37.068811,17.246167 37.088388,32 37.088388,32 L 22.160133,31.978069 C 22.160133,31.978069 26.997745,27.140456 26.997745,27.140456 C 18.528582,18.264221 13.291696,25.230495 11.500037,31.436501 z"
     style="fill:#404040;"/>
  </a>
 </g>
</svg>

<style type='text/css'>
<![CDATA[
[data-mouse-over-selected='false'] { opacity: 0.7; }
[data-mouse-over-selected='true']  { opacity: 1.0; }
]]>
</style>
<script type="application/ecmascript"><![CDATA[
document.addEventListener('DOMContentLoaded', (event) => {
  highlightEdges();
  highlightAdjacentNodes();
});
]]></script>
</svg>
