<?xml version="1.0" encoding="UTF-8" standalone="no"?>
<!DOCTYPE svg PUBLIC "-//W3C//DTD SVG 1.1//EN"
 "http://www.w3.org/Graphics/SVG/1.1/DTD/svg11.dtd">
<!-- Generated by graphviz version 12.2.1 (20241206.2353)
 -->
<!-- Title: LSM1x0A_LoRaWAN::stopTest Pages: 1 -->
<!--zoomable 1143 -->

<svg id="main" version="1.1" xmlns="http://www.w3.org/2000/svg" xmlns:xlink="http://www.w3.org/1999/xlink" xml:space="preserve" onload="init(evt)">
<style type="text/css"><![CDATA[
.node, .edge {opacity: 0.7;}
.node.selected, .edge.selected {opacity: 1;}
.edge:hover path { stroke: red; }
.edge:hover polygon { stroke: red; fill: red; }
]]></style>

<defs>
  <circle id="rim" cx="0" cy="0" r="7"/>
  <circle id="rim2" cx="0" cy="0" r="3.5"/>
  <g id="zoomPlus">
    <use xlink:href="#rim" fill="#404040"><set attributeName="fill" to="#808080" begin="zoomplus.mouseover" end="zoomplus.mouseout"/></use>
    <path d="M-4,0h8M0,-4v8" fill="none" stroke="white" stroke-width="1.5" pointer-events="none"/>
  </g>
  <g id="zoomMin">
    <use xlink:href="#rim" fill="#404040"><set attributeName="fill" to="#808080" begin="zoomminus.mouseover" end="zoomminus.mouseout"/></use>
    <path d="M-4,0h8" fill="none" stroke="white" stroke-width="1.5" pointer-events="none"/>
  </g>
  <g id="arrowUp" transform="translate(30 24)">
    <use xlink:href="#rim"/>
    <path pointer-events="none" fill="none" stroke="white" stroke-width="1.5" d="M0,-3.0v7 M-2.5,-0.5L0,-3.0L2.5,-0.5"/>
  </g>
  <g id="arrowRight" transform="rotate(90) translate(36 -43)">
    <use xlink:href="#rim"/>
    <path pointer-events="none" fill="none" stroke="white" stroke-width="1.5" d="M0,-3.0v7 M-2.5,-0.5L0,-3.0L2.5,-0.5"/>
  </g>
  <g id="arrowDown" transform="rotate(180) translate(-30 -48)">
    <use xlink:href="#rim"/>
    <path pointer-events="none" fill="none" stroke="white" stroke-width="1.5" d="M0,-3.0v7 M-2.5,-0.5L0,-3.0L2.5,-0.5"/>
  </g>
  <g id="arrowLeft" transform="rotate(270) translate(-36 17)">
    <use xlink:href="#rim"/>
    <path pointer-events="none" fill="none" stroke="white" stroke-width="1.5" d="M0,-3.0v7 M-2.5,-0.5L0,-3.0L2.5,-0.5"/>
  </g>
  <g id="resetDef">
    <use xlink:href="#rim2" fill="#404040"><set attributeName="fill" to="#808080" begin="reset.mouseover" end="reset.mouseout"/></use>
  </g>
</defs>
<script type="application/ecmascript">
var viewWidth = 1285;
var viewHeight = 1143;
var sectionId = 'dynsection-118';
</script>
<script type="application/ecmascript" xlink:href="../../svg.min.js"/>
<svg id="graph" class="graph">
<g id="viewport">
<title>LSM1x0A_LoRaWAN::stopTest</title>
<!-- Node1 -->
<g id="Node000001" class="node">
<title>Node1</title>
<g id="a_Node000001"><a xlink:title="Stops any ongoing RF Test or Tone operation.">
<polygon fill="#999999" stroke="#666666" points="154,-490.95 0,-490.95 0,-470.95 154,-470.95 154,-490.95"/>
<text text-anchor="middle" x="77" y="-477.45" font-family="Helvetica,sans-Serif" font-size="10.00">LSM1x0A_LoRaWAN::stopTest</text>
</a>
</g>
</g>
<!-- Node2 -->
<g id="Node000002" class="node">
<title>Node2</title>
<g id="a_Node000002"><a xlink:href="../../d8/d92/classLSM1x0A__Controller.html#afd7d92e60ed6fdae696a955cdbe0ed8c" target="_top" xlink:title="Sends any AT command to the module, returning error if it fails. Internally uses the LsmAtParser logi...">
<polygon fill="white" stroke="#666666" points="296,-496.95 190,-496.95 190,-464.95 296,-464.95 296,-496.95"/>
<text text-anchor="start" x="198" y="-483.45" font-family="Helvetica,sans-Serif" font-size="10.00">LSM1x0A_Controller</text>
<text text-anchor="middle" x="243" y="-471.45" font-family="Helvetica,sans-Serif" font-size="10.00">::sendCommand</text>
</a>
</g>
</g>
<!-- Node1&#45;&gt;Node2 -->
<g id="edge1_Node000001_Node000002" class="edge">
<title>Node1&#45;&gt;Node2</title>
<g id="a_edge1_Node000001_Node000002"><a xlink:title=" ">
<path fill="none" stroke="#63b8ff" d="M154.24,-480.95C162.33,-480.95 170.5,-480.95 178.43,-480.95"/>
<polygon fill="#63b8ff" stroke="#63b8ff" points="178.31,-484.45 188.31,-480.95 178.31,-477.45 178.31,-484.45"/>
</a>
</g>
</g>
<!-- Node3 -->
<g id="Node000003" class="node">
<title>Node3</title>
<g id="a_Node000003"><a xlink:href="../../d8/d92/classLSM1x0A__Controller.html#abb0eb380daa3dfb7acffb483c5db8e2b" target="_top" xlink:title="Executes the recovery protocol. First Soft&#45;Reset (ATZ), then Hard&#45;Reset if there is a pin.">
<polygon fill="white" stroke="#666666" points="438,-938.95 332,-938.95 332,-906.95 438,-906.95 438,-938.95"/>
<text text-anchor="start" x="340" y="-925.45" font-family="Helvetica,sans-Serif" font-size="10.00">LSM1x0A_Controller</text>
<text text-anchor="middle" x="385" y="-913.45" font-family="Helvetica,sans-Serif" font-size="10.00">::recoverModule</text>
</a>
</g>
</g>
<!-- Node2&#45;&gt;Node3 -->
<g id="edge2_Node000002_Node000003" class="edge">
<title>Node2&#45;&gt;Node3</title>
<g id="a_edge2_Node000002_Node000003"><a xlink:title=" ">
<path fill="none" stroke="#63b8ff" d="M247.55,-497.39C258.11,-545.46 291.16,-689.56 332,-804.95 343.35,-837.01 359.54,-872.58 370.83,-896.2"/>
<polygon fill="#63b8ff" stroke="#63b8ff" points="367.63,-897.62 375.13,-905.1 373.93,-894.57 367.63,-897.62"/>
</a>
</g>
</g>
<!-- Node31 -->
<g id="Node000031" class="node">
<title>Node31</title>
<g id="a_Node000031"><a xlink:href="../../d6/d3c/classLSM1x0A__AtParser.html#a29b53c521974387ba6c03afadfaffa4a" target="_top" xlink:title="Sends a simple command and waits for OK/ERROR. Example: sendCommand(&quot;AT+JOIN&quot;);.">
<polygon fill="white" stroke="#666666" points="852.5,-1118.95 678.25,-1118.95 678.25,-1098.95 852.5,-1098.95 852.5,-1118.95"/>
<text text-anchor="middle" x="765.38" y="-1105.45" font-family="Helvetica,sans-Serif" font-size="10.00">LSM1x0A_AtParser::sendCommand</text>
</a>
</g>
</g>
<!-- Node2&#45;&gt;Node31 -->
<g id="edge55_Node000002_Node000031" class="edge">
<title>Node2&#45;&gt;Node31</title>
<g id="a_edge55_Node000002_Node000031"><a xlink:title=" ">
<path fill="none" stroke="#63b8ff" d="M244.06,-497.2C244.88,-559.15 253.42,-785.25 332,-947.95 373.93,-1034.77 386.31,-1071.88 474,-1111.95 551.76,-1147.48 653.91,-1134.62 714.02,-1121.89"/>
<polygon fill="#63b8ff" stroke="#63b8ff" points="714.61,-1125.34 723.62,-1119.77 713.1,-1118.51 714.61,-1125.34"/>
</a>
</g>
</g>
<!-- Node4 -->
<g id="Node000004" class="node">
<title>Node4</title>
<g id="a_Node000004"><a xlink:href="../../d8/d92/classLSM1x0A__Controller.html#a3f6f25b843fe4fb7042c544deae2ab16" target="_top" xlink:title="Manually clears bits from the internal EventGroup.">
<polygon fill="white" stroke="#666666" points="1046.25,-957.95 940.25,-957.95 940.25,-925.95 1046.25,-925.95 1046.25,-957.95"/>
<text text-anchor="start" x="948.25" y="-944.45" font-family="Helvetica,sans-Serif" font-size="10.00">LSM1x0A_Controller</text>
<text text-anchor="middle" x="993.25" y="-932.45" font-family="Helvetica,sans-Serif" font-size="10.00">::clearEvents</text>
</a>
</g>
</g>
<!-- Node3&#45;&gt;Node4 -->
<g id="edge3_Node000003_Node000004" class="edge">
<title>Node3&#45;&gt;Node4</title>
<g id="a_edge3_Node000003_Node000004"><a xlink:title=" ">
<path fill="none" stroke="#63b8ff" d="M402.08,-939.29C418.5,-954.72 445.56,-976.82 474,-985.95 633.57,-1037.18 834.16,-991 932.43,-961.72"/>
<polygon fill="#63b8ff" stroke="#63b8ff" points="933.32,-965.11 941.87,-958.86 931.29,-958.41 933.32,-965.11"/>
</a>
</g>
</g>
<!-- Node5 -->
<g id="Node000005" class="node">
<title>Node5</title>
<g id="a_Node000005"><a xlink:href="../../d8/d92/classLSM1x0A__Controller.html#a345d4bd79fa16b18dc33a4ca788fe5f7" target="_top" xlink:title="Performs a hardware reset using the reset pin.">
<polygon fill="white" stroke="#666666" points="606.25,-938.95 500.25,-938.95 500.25,-906.95 606.25,-906.95 606.25,-938.95"/>
<text text-anchor="start" x="508.25" y="-925.45" font-family="Helvetica,sans-Serif" font-size="10.00">LSM1x0A_Controller</text>
<text text-anchor="middle" x="553.25" y="-913.45" font-family="Helvetica,sans-Serif" font-size="10.00">::hardwareReset</text>
</a>
</g>
</g>
<!-- Node3&#45;&gt;Node5 -->
<g id="edge4_Node000003_Node000005" class="edge">
<title>Node3&#45;&gt;Node5</title>
<g id="a_edge4_Node000003_Node000005"><a xlink:title=" ">
<path fill="none" stroke="#63b8ff" d="M438.15,-922.95C454.16,-922.95 471.97,-922.95 488.66,-922.95"/>
<polygon fill="#63b8ff" stroke="#63b8ff" points="488.49,-926.45 498.49,-922.95 488.49,-919.45 488.49,-926.45"/>
</a>
</g>
</g>
<!-- Node7 -->
<g id="Node000007" class="node">
<title>Node7</title>
<g id="a_Node000007"><a xlink:href="../../d5/d72/classLSM1x0A__LoRaWAN.html#a1892801e37c8cd67d37c76108d6f7d49" target="_top" xlink:title="Validates if the device is currently Joined to the network. (Either confirmed by OTAA or statically a...">
<polygon fill="white" stroke="#666666" points="1276.75,-926.95 1124.25,-926.95 1124.25,-906.95 1276.75,-906.95 1276.75,-926.95"/>
<text text-anchor="middle" x="1200.5" y="-913.45" font-family="Helvetica,sans-Serif" font-size="10.00">LSM1x0A_LoRaWAN::isJoined</text>
</a>
</g>
</g>
<!-- Node3&#45;&gt;Node7 -->
<g id="edge6_Node000003_Node000007" class="edge">
<title>Node3&#45;&gt;Node7</title>
<g id="a_edge6_Node000003_Node000007"><a xlink:title=" ">
<path fill="none" stroke="#63b8ff" d="M431.94,-939.25C434.08,-940.7 436.11,-942.26 438,-943.95 463.17,-966.51 444.99,-993.6 474,-1010.95 484.7,-1017.34 800.16,-1014.94 862.25,-1008.95 963.94,-999.13 990.74,-997.44 1088.25,-966.95 1117.08,-957.93 1148.33,-943.44 1170.34,-932.37"/>
<polygon fill="#63b8ff" stroke="#63b8ff" points="1171.7,-935.61 1179.01,-927.94 1168.51,-929.38 1171.7,-935.61"/>
</a>
</g>
</g>
<!-- Node8 -->
<g id="Node000008" class="node">
<title>Node8</title>
<g id="a_Node000008"><a xlink:href="../../d5/d72/classLSM1x0A__LoRaWAN.html#a83e11c0e74ff9e0757db616ab1163424" target="_top" xlink:title="Attempts to recover a lost connection (re&#45;executes OTAA Join if dropped).">
<polygon fill="white" stroke="#666666" points="627.62,-850.95 478.88,-850.95 478.88,-818.95 627.62,-818.95 627.62,-850.95"/>
<text text-anchor="start" x="486.88" y="-837.45" font-family="Helvetica,sans-Serif" font-size="10.00">LSM1x0A_LoRaWAN::recover</text>
<text text-anchor="middle" x="553.25" y="-825.45" font-family="Helvetica,sans-Serif" font-size="10.00">Connection</text>
</a>
</g>
</g>
<!-- Node3&#45;&gt;Node8 -->
<g id="edge7_Node000003_Node000008" class="edge">
<title>Node3&#45;&gt;Node8</title>
<g id="a_edge7_Node000003_Node000008"><a xlink:title=" ">
<path fill="none" stroke="#63b8ff" d="M407.97,-906.53C425.3,-894.07 450.4,-877.07 474,-864.95 480.29,-861.72 487,-858.64 493.76,-855.76"/>
<polygon fill="#63b8ff" stroke="#63b8ff" points="495.03,-859.02 502.96,-851.99 492.38,-852.55 495.03,-859.02"/>
</a>
</g>
</g>
<!-- Node12 -->
<g id="Node000012" class="node">
<title>Node12</title>
<g id="a_Node000012"><a xlink:href="../../d5/d72/classLSM1x0A__LoRaWAN.html#ae3be4ce59dfa200369733317df356e97" target="_top" xlink:title="Pushes the RAM&#45;cached variables back down into the hardware module. Restores the operational state af...">
<polygon fill="white" stroke="#666666" points="626.5,-496.95 480,-496.95 480,-464.95 626.5,-464.95 626.5,-496.95"/>
<text text-anchor="start" x="488" y="-483.45" font-family="Helvetica,sans-Serif" font-size="10.00">LSM1x0A_LoRaWAN::restore</text>
<text text-anchor="middle" x="553.25" y="-471.45" font-family="Helvetica,sans-Serif" font-size="10.00">Config</text>
</a>
</g>
</g>
<!-- Node3&#45;&gt;Node12 -->
<g id="edge16_Node000003_Node000012" class="edge">
<title>Node3&#45;&gt;Node12</title>
<g id="a_edge16_Node000003_Node000012"><a xlink:title=" ">
<path fill="none" stroke="#63b8ff" d="M392.11,-906.69C417.01,-840.5 510.92,-590.84 542.11,-507.91"/>
<polygon fill="#63b8ff" stroke="#63b8ff" points="545.3,-509.36 545.55,-498.77 538.75,-506.9 545.3,-509.36"/>
</a>
</g>
</g>
<!-- Node29 -->
<g id="Node000029" class="node">
<title>Node29</title>
<g id="a_Node000029"><a xlink:href="../../d5/d72/classLSM1x0A__LoRaWAN.html#ace4b04396f1de1f4a54f513f5f378db7" target="_top" xlink:title="Manually overrides the internal joined state tracker.">
<polygon fill="white" stroke="#666666" points="632.5,-976.95 474,-976.95 474,-956.95 632.5,-956.95 632.5,-976.95"/>
<text text-anchor="middle" x="553.25" y="-963.45" font-family="Helvetica,sans-Serif" font-size="10.00">LSM1x0A_LoRaWAN::setJoined</text>
</a>
</g>
</g>
<!-- Node3&#45;&gt;Node29 -->
<g id="edge50_Node000003_Node000029" class="edge">
<title>Node3&#45;&gt;Node29</title>
<g id="a_edge50_Node000003_Node000029"><a xlink:title=" ">
<path fill="none" stroke="#63b8ff" d="M438.49,-938.22C450.16,-941.51 462.48,-944.91 474,-947.95 481.36,-949.89 489.12,-951.86 496.79,-953.76"/>
<polygon fill="#63b8ff" stroke="#63b8ff" points="495.88,-957.14 506.43,-956.13 497.55,-950.35 495.88,-957.14"/>
</a>
</g>
</g>
<!-- Node30 -->
<g id="Node000030" class="node">
<title>Node30</title>
<g id="a_Node000030"><a xlink:href="../../d8/d92/classLSM1x0A__Controller.html#a11ad21cb5ca33ec51346764a23bd485e" target="_top" xlink:title="Performs a software reset (ATZ Command).">
<polygon fill="white" stroke="#666666" points="606.25,-1102.95 500.25,-1102.95 500.25,-1070.95 606.25,-1070.95 606.25,-1102.95"/>
<text text-anchor="start" x="508.25" y="-1089.45" font-family="Helvetica,sans-Serif" font-size="10.00">LSM1x0A_Controller</text>
<text text-anchor="middle" x="553.25" y="-1077.45" font-family="Helvetica,sans-Serif" font-size="10.00">::softwareReset</text>
</a>
</g>
</g>
<!-- Node3&#45;&gt;Node30 -->
<g id="edge51_Node000003_Node000030" class="edge">
<title>Node3&#45;&gt;Node30</title>
<g id="a_edge51_Node000003_Node000030"><a xlink:title=" ">
<path fill="none" stroke="#63b8ff" d="M392.7,-939.34C404.89,-967.25 433.25,-1024.13 474,-1056.95 478.82,-1060.83 484.19,-1064.24 489.8,-1067.25"/>
<polygon fill="#63b8ff" stroke="#63b8ff" points="488.21,-1070.36 498.73,-1071.55 491.25,-1064.06 488.21,-1070.36"/>
</a>
</g>
</g>
<!-- Node6 -->
<g id="Node000006" class="node">
<title>Node6</title>
<g id="a_Node000006"><a xlink:href="../../d6/d3c/classLSM1x0A__AtParser.html#ad2839120da13e56132b95019419be1e5" target="_top" xlink:title="Waits for an event (like BOOTALERT) without sending any command. Useful for hardware reset where the ...">
<polygon fill="white" stroke="#666666" points="835.62,-938.95 695.12,-938.95 695.12,-906.95 835.62,-906.95 835.62,-938.95"/>
<text text-anchor="start" x="703.12" y="-925.45" font-family="Helvetica,sans-Serif" font-size="10.00">LSM1x0A_AtParser::waitFor</text>
<text text-anchor="middle" x="765.38" y="-913.45" font-family="Helvetica,sans-Serif" font-size="10.00">Event</text>
</a>
</g>
</g>
<!-- Node5&#45;&gt;Node6 -->
<g id="edge5_Node000005_Node000006" class="edge">
<title>Node5&#45;&gt;Node6</title>
<g id="a_edge5_Node000005_Node000006"><a xlink:title=" ">
<path fill="none" stroke="#63b8ff" d="M606.73,-922.95C629.92,-922.95 657.72,-922.95 683.46,-922.95"/>
<polygon fill="#63b8ff" stroke="#63b8ff" points="683.22,-926.45 693.22,-922.95 683.22,-919.45 683.22,-926.45"/>
</a>
</g>
</g>
<!-- Node9 -->
<g id="Node000009" class="node">
<title>Node9</title>
<g id="a_Node000009"><a xlink:href="../../d5/d72/classLSM1x0A__LoRaWAN.html#a59f781f3cfd30c11cd3973bcb10a7baa" target="_top" xlink:title="Initiates a LoRaWAN Network Join procedure. This is a blocking function until the module fires an eve...">
<polygon fill="white" stroke="#666666" points="831.12,-844.95 699.62,-844.95 699.62,-824.95 831.12,-824.95 831.12,-844.95"/>
<text text-anchor="middle" x="765.38" y="-831.45" font-family="Helvetica,sans-Serif" font-size="10.00">LSM1x0A_LoRaWAN::join</text>
</a>
</g>
</g>
<!-- Node8&#45;&gt;Node9 -->
<g id="edge8_Node000008_Node000009" class="edge">
<title>Node8&#45;&gt;Node9</title>
<g id="a_edge8_Node000008_Node000009"><a xlink:title=" ">
<path fill="none" stroke="#63b8ff" d="M628.04,-834.95C647.41,-834.95 668.35,-834.95 687.86,-834.95"/>
<polygon fill="#63b8ff" stroke="#63b8ff" points="687.65,-838.45 697.65,-834.95 687.65,-831.45 687.65,-838.45"/>
</a>
</g>
</g>
<!-- Node9&#45;&gt;Node2 -->
<g id="edge11_Node000009_Node000002" class="edge">
<title>Node9&#45;&gt;Node2</title>
<g id="a_edge11_Node000009_Node000002"><a xlink:title=" ">
<path fill="none" stroke="#63b8ff" d="M711.15,-824.5C652.52,-812.53 555.73,-791.38 474,-766.95 409.61,-747.69 379.73,-762.27 332,-714.95 273.73,-657.18 253.53,-557.13 246.95,-508.74"/>
<polygon fill="#63b8ff" stroke="#63b8ff" points="250.43,-508.33 245.72,-498.84 243.48,-509.2 250.43,-508.33"/>
</a>
</g>
</g>
<!-- Node9&#45;&gt;Node3 -->
<g id="edge10_Node000009_Node000003" class="edge">
<title>Node9&#45;&gt;Node3</title>
<g id="a_edge10_Node000009_Node000003"><a xlink:title=" ">
<path fill="none" stroke="#63b8ff" d="M711.15,-845.44C652.74,-857.21 556.32,-877.35 474,-897.95 466.06,-899.94 457.74,-902.14 449.53,-904.39"/>
<polygon fill="#63b8ff" stroke="#63b8ff" points="448.59,-901.01 439.9,-907.06 450.47,-907.76 448.59,-901.01"/>
</a>
</g>
</g>
<!-- Node9&#45;&gt;Node4 -->
<g id="edge9_Node000009_Node000004" class="edge">
<title>Node9&#45;&gt;Node4</title>
<g id="a_edge9_Node000009_Node000004"><a xlink:title=" ">
<path fill="none" stroke="#63b8ff" d="M788.44,-845.4C825.16,-862.79 899.48,-898 947.51,-920.75"/>
<polygon fill="#63b8ff" stroke="#63b8ff" points="945.72,-923.78 956.26,-924.9 948.72,-917.45 945.72,-923.78"/>
</a>
</g>
</g>
<!-- Node10 -->
<g id="Node000010" class="node">
<title>Node10</title>
<g id="a_Node000010"><a xlink:href="../../d5/d72/classLSM1x0A__LoRaWAN.html#a3fdd1ac318a5ad2559323e5d57e36a5e" target="_top" xlink:title="Enables or disables specific sub&#45;bands for regions supporting Channel Masks (e.g.,...">
<polygon fill="white" stroke="#666666" points="1088.25,-654.95 898.25,-654.95 898.25,-634.95 1088.25,-634.95 1088.25,-654.95"/>
<text text-anchor="middle" x="993.25" y="-641.45" font-family="Helvetica,sans-Serif" font-size="10.00">LSM1x0A_LoRaWAN::setChannelMask</text>
</a>
</g>
</g>
<!-- Node9&#45;&gt;Node10 -->
<g id="edge12_Node000009_Node000010" class="edge">
<title>Node9&#45;&gt;Node10</title>
<g id="a_edge12_Node000009_Node000010"><a xlink:title=" ">
<path fill="none" stroke="#63b8ff" d="M825.68,-824.45C838.4,-820.55 851.3,-815.22 862.25,-807.95 919.12,-770.19 962.75,-699.61 981.79,-665.05"/>
<polygon fill="#63b8ff" stroke="#63b8ff" points="984.72,-666.98 986.37,-656.52 978.55,-663.67 984.72,-666.98"/>
</a>
</g>
</g>
<!-- Node11 -->
<g id="Node000011" class="node">
<title>Node11</title>
<g id="a_Node000011"><a xlink:href="../../d8/d92/classLSM1x0A__Controller.html#a62476e30e50c7fe120aeb8df4b828675" target="_top" xlink:title="Synchronously/blockingly waits for an asynchronous event to occur. Useful for wrapping commands like ...">
<polygon fill="white" stroke="#666666" points="1046.25,-850.95 940.25,-850.95 940.25,-818.95 1046.25,-818.95 1046.25,-850.95"/>
<text text-anchor="start" x="948.25" y="-837.45" font-family="Helvetica,sans-Serif" font-size="10.00">LSM1x0A_Controller</text>
<text text-anchor="middle" x="993.25" y="-825.45" font-family="Helvetica,sans-Serif" font-size="10.00">::waitForEvent</text>
</a>
</g>
</g>
<!-- Node9&#45;&gt;Node11 -->
<g id="edge15_Node000009_Node000011" class="edge">
<title>Node9&#45;&gt;Node11</title>
<g id="a_edge15_Node000009_Node000011"><a xlink:title=" ">
<path fill="none" stroke="#63b8ff" d="M831.4,-834.95C861.91,-834.95 898.15,-834.95 928.49,-834.95"/>
<polygon fill="#63b8ff" stroke="#63b8ff" points="928.3,-838.45 938.3,-834.95 928.3,-831.45 928.3,-838.45"/>
</a>
</g>
</g>
<!-- Node10&#45;&gt;Node2 -->
<g id="edge14_Node000010_Node000002" class="edge">
<title>Node10&#45;&gt;Node2</title>
<g id="a_edge14_Node000010_Node000002"><a xlink:title=" ">
<path fill="none" stroke="#63b8ff" d="M991.47,-634.73C986.02,-566.01 951.1,-172.04 862.25,-101.95 677.09,44.11 513.15,29.06 332,-121.95 280.42,-164.95 254.36,-377.61 246.57,-453.76"/>
<polygon fill="#63b8ff" stroke="#63b8ff" points="243.13,-452.96 245.62,-463.26 250.09,-453.65 243.13,-452.96"/>
</a>
</g>
</g>
<!-- Node10&#45;&gt;Node7 -->
<g id="edge13_Node000010_Node000007" class="edge">
<title>Node10&#45;&gt;Node7</title>
<g id="a_edge13_Node000010_Node000007"><a xlink:title=" ">
<path fill="none" stroke="#63b8ff" d="M1002.05,-655.28C1032.59,-695.76 1144.42,-843.95 1184.82,-897.49"/>
<polygon fill="#63b8ff" stroke="#63b8ff" points="1181.97,-899.52 1190.79,-905.4 1187.56,-895.31 1181.97,-899.52"/>
</a>
</g>
</g>
<!-- Node12&#45;&gt;Node10 -->
<g id="edge21_Node000012_Node000010" class="edge">
<title>Node12&#45;&gt;Node10</title>
<g id="a_edge21_Node000012_Node000010"><a xlink:title=" ">
<path fill="none" stroke="#63b8ff" d="M626.74,-484.29C704.4,-488.81 821.93,-498.64 862.25,-517.95 914.18,-542.82 958.13,-596.76 979.09,-625.7"/>
<polygon fill="#63b8ff" stroke="#63b8ff" points="976.02,-627.41 984.65,-633.56 981.74,-623.37 976.02,-627.41"/>
</a>
</g>
</g>
<!-- Node13 -->
<g id="Node000013" class="node">
<title>Node13</title>
<g id="a_Node000013"><a xlink:href="../../d5/d72/classLSM1x0A__LoRaWAN.html#af0baa3db4c7fab580d6b19a9e92472f6" target="_top" xlink:title="Enables or disables Adaptive Data Rate (ADR).">
<polygon fill="white" stroke="#666666" points="841.25,-798.95 689.5,-798.95 689.5,-778.95 841.25,-778.95 841.25,-798.95"/>
<text text-anchor="middle" x="765.38" y="-785.45" font-family="Helvetica,sans-Serif" font-size="10.00">LSM1x0A_LoRaWAN::setADR</text>
</a>
</g>
</g>
<!-- Node12&#45;&gt;Node13 -->
<g id="edge17_Node000012_Node000013" class="edge">
<title>Node12&#45;&gt;Node13</title>
<g id="a_edge17_Node000012_Node000013"><a xlink:title=" ">
<path fill="none" stroke="#63b8ff" d="M555.43,-497.13C559.95,-546.58 580.65,-696.7 668.5,-769.95 671.75,-772.66 675.29,-775.03 679.01,-777.08"/>
<polygon fill="#63b8ff" stroke="#63b8ff" points="677.34,-780.17 687.88,-781.21 680.29,-773.82 677.34,-780.17"/>
</a>
</g>
</g>
<!-- Node14 -->
<g id="Node000014" class="node">
<title>Node14</title>
<g id="a_Node000014"><a xlink:href="../../d5/d72/classLSM1x0A__LoRaWAN.html#a5365ed1596eb84ebf1e3b33b4a10c788" target="_top" xlink:title="Sets the LoRaWAN operational frequency band.">
<polygon fill="white" stroke="#666666" points="841.62,-760.95 689.12,-760.95 689.12,-740.95 841.62,-740.95 841.62,-760.95"/>
<text text-anchor="middle" x="765.38" y="-747.45" font-family="Helvetica,sans-Serif" font-size="10.00">LSM1x0A_LoRaWAN::setBand</text>
</a>
</g>
</g>
<!-- Node12&#45;&gt;Node14 -->
<g id="edge19_Node000012_Node000014" class="edge">
<title>Node12&#45;&gt;Node14</title>
<g id="a_edge19_Node000012_Node000014"><a xlink:title=" ">
<path fill="none" stroke="#63b8ff" d="M556.51,-497.27C563.67,-542.46 590.23,-669.99 668.5,-731.95 671.66,-734.45 675.05,-736.64 678.61,-738.58"/>
<polygon fill="#63b8ff" stroke="#63b8ff" points="677.1,-741.74 687.65,-742.72 680.02,-735.37 677.1,-741.74"/>
</a>
</g>
</g>
<!-- Node15 -->
<g id="Node000015" class="node">
<title>Node15</title>
<g id="a_Node000015"><a xlink:href="../../d5/d72/classLSM1x0A__LoRaWAN.html#a9d9285c43414337a0ccb3a6cd7ca06e6" target="_top" xlink:title="Configures the number of retries for Confirmed uplinks.">
<polygon fill="white" stroke="#666666" points="847.62,-722.95 683.12,-722.95 683.12,-690.95 847.62,-690.95 847.62,-722.95"/>
<text text-anchor="start" x="691.12" y="-709.45" font-family="Helvetica,sans-Serif" font-size="10.00">LSM1x0A_LoRaWAN::setConfirm</text>
<text text-anchor="middle" x="765.38" y="-697.45" font-family="Helvetica,sans-Serif" font-size="10.00">Retry</text>
</a>
</g>
</g>
<!-- Node12&#45;&gt;Node15 -->
<g id="edge22_Node000012_Node000015" class="edge">
<title>Node12&#45;&gt;Node15</title>
<g id="a_edge22_Node000012_Node000015"><a xlink:title=" ">
<path fill="none" stroke="#63b8ff" d="M558.77,-497.42C570.23,-535.98 604.17,-632.59 668.5,-681.95 669.86,-682.99 671.27,-684 672.71,-684.96"/>
<polygon fill="#63b8ff" stroke="#63b8ff" points="670.93,-687.98 681.34,-689.96 674.44,-681.92 670.93,-687.98"/>
</a>
</g>
</g>
<!-- Node16 -->
<g id="Node000016" class="node">
<title>Node16</title>
<g id="a_Node000016"><a xlink:href="../../d5/d72/classLSM1x0A__LoRaWAN.html#a56345ceeafa0b9059d6de4e69eddc82e" target="_top" xlink:title="Sets the Data Rate (DR) of the module.">
<polygon fill="white" stroke="#666666" points="851.38,-672.95 679.38,-672.95 679.38,-652.95 851.38,-652.95 851.38,-672.95"/>
<text text-anchor="middle" x="765.38" y="-659.45" font-family="Helvetica,sans-Serif" font-size="10.00">LSM1x0A_LoRaWAN::setDataRate</text>
</a>
</g>
</g>
<!-- Node12&#45;&gt;Node16 -->
<g id="edge24_Node000012_Node000016" class="edge">
<title>Node12&#45;&gt;Node16</title>
<g id="a_edge24_Node000012_Node000016"><a xlink:title=" ">
<path fill="none" stroke="#63b8ff" d="M560.68,-497.26C574.74,-530.68 611.61,-606.87 668.5,-643.95 670.64,-645.34 672.85,-646.63 675.13,-647.84"/>
<polygon fill="#63b8ff" stroke="#63b8ff" points="673.55,-650.96 684.1,-651.92 676.45,-644.59 673.55,-650.96"/>
</a>
</g>
</g>
<!-- Node17 -->
<g id="Node000017" class="node">
<title>Node17</title>
<g id="a_Node000017"><a xlink:href="../../d5/d72/classLSM1x0A__LoRaWAN.html#a8494083816ab885cb07fc3b08de029f4" target="_top" xlink:title="Sets the LoRaWAN Device Address (DevAddr) for ABP mode.">
<polygon fill="white" stroke="#666666" points="849.5,-634.95 681.25,-634.95 681.25,-614.95 849.5,-614.95 849.5,-634.95"/>
<text text-anchor="middle" x="765.38" y="-621.45" font-family="Helvetica,sans-Serif" font-size="10.00">LSM1x0A_LoRaWAN::setDevAddr</text>
</a>
</g>
</g>
<!-- Node12&#45;&gt;Node17 -->
<g id="edge26_Node000012_Node000017" class="edge">
<title>Node12&#45;&gt;Node17</title>
<g id="a_edge26_Node000012_Node000017"><a xlink:title=" ">
<path fill="none" stroke="#63b8ff" d="M564.24,-497.41C581.72,-524.7 620.6,-578.97 668.5,-605.95 671.34,-607.55 674.3,-609.02 677.33,-610.36"/>
<polygon fill="#63b8ff" stroke="#63b8ff" points="675.92,-613.57 686.51,-613.93 678.46,-607.04 675.92,-613.57"/>
</a>
</g>
</g>
<!-- Node18 -->
<g id="Node000018" class="node">
<title>Node18</title>
<g id="a_Node000018"><a xlink:href="../../d5/d72/classLSM1x0A__LoRaWAN.html#ad320634e52d7ea907043cc50dd37c5b0" target="_top" xlink:title="Sets the LoRaWAN Device EUI (DevEUI).">
<polygon fill="white" stroke="#666666" points="848,-596.95 682.75,-596.95 682.75,-576.95 848,-576.95 848,-596.95"/>
<text text-anchor="middle" x="765.38" y="-583.45" font-family="Helvetica,sans-Serif" font-size="10.00">LSM1x0A_LoRaWAN::setDevEUI</text>
</a>
</g>
</g>
<!-- Node12&#45;&gt;Node18 -->
<g id="edge28_Node000012_Node000018" class="edge">
<title>Node12&#45;&gt;Node18</title>
<g id="a_edge28_Node000012_Node000018"><a xlink:title=" ">
<path fill="none" stroke="#63b8ff" d="M570.45,-497.21C591.27,-517.12 629.4,-550.34 668.5,-567.95 672.76,-569.87 677.22,-571.6 681.78,-573.15"/>
<polygon fill="#63b8ff" stroke="#63b8ff" points="680.53,-576.43 691.12,-576.02 682.59,-569.74 680.53,-576.43"/>
</a>
</g>
</g>
<!-- Node19 -->
<g id="Node000019" class="node">
<title>Node19</title>
<g id="a_Node000019"><a xlink:href="../../d5/d72/classLSM1x0A__LoRaWAN.html#a031023b0d2dd5db3c51c2db6ae7801cc" target="_top" xlink:title="Enables or disables the Duty Cycle limitation (EU regions mostly).">
<polygon fill="white" stroke="#666666" points="840.88,-558.95 689.88,-558.95 689.88,-526.95 840.88,-526.95 840.88,-558.95"/>
<text text-anchor="start" x="697.88" y="-545.45" font-family="Helvetica,sans-Serif" font-size="10.00">LSM1x0A_LoRaWAN::setDuty</text>
<text text-anchor="middle" x="765.38" y="-533.45" font-family="Helvetica,sans-Serif" font-size="10.00">Cycle</text>
</a>
</g>
</g>
<!-- Node12&#45;&gt;Node19 -->
<g id="edge30_Node000012_Node000019" class="edge">
<title>Node12&#45;&gt;Node19</title>
<g id="a_edge30_Node000012_Node000019"><a xlink:title=" ">
<path fill="none" stroke="#63b8ff" d="M610.01,-497.4C636.95,-505.35 669.48,-514.95 697.73,-523.28"/>
<polygon fill="#63b8ff" stroke="#63b8ff" points="696.69,-526.62 707.27,-526.1 698.67,-519.91 696.69,-526.62"/>
</a>
</g>
</g>
<!-- Node20 -->
<g id="Node000020" class="node">
<title>Node20</title>
<g id="a_Node000020"><a xlink:href="../../d5/d72/classLSM1x0A__LoRaWAN.html#a6b179d5825c49af0f391dfc539912f64" target="_top" xlink:title="Sets the delay for the Join1 receive window.">
<polygon fill="white" stroke="#666666" points="842,-470.95 688.75,-470.95 688.75,-438.95 842,-438.95 842,-470.95"/>
<text text-anchor="start" x="696.75" y="-457.45" font-family="Helvetica,sans-Serif" font-size="10.00">LSM1x0A_LoRaWAN::setJoin1</text>
<text text-anchor="middle" x="765.38" y="-445.45" font-family="Helvetica,sans-Serif" font-size="10.00">Delay</text>
</a>
</g>
</g>
<!-- Node12&#45;&gt;Node20 -->
<g id="edge32_Node000012_Node000020" class="edge">
<title>Node12&#45;&gt;Node20</title>
<g id="a_edge32_Node000012_Node000020"><a xlink:title=" ">
<path fill="none" stroke="#63b8ff" d="M626.86,-471.96C643.21,-469.94 660.72,-467.77 677.58,-465.69"/>
<polygon fill="#63b8ff" stroke="#63b8ff" points="677.55,-469.22 687.05,-464.52 676.69,-462.27 677.55,-469.22"/>
</a>
</g>
</g>
<!-- Node21 -->
<g id="Node000021" class="node">
<title>Node21</title>
<g id="a_Node000021"><a xlink:href="../../d5/d72/classLSM1x0A__LoRaWAN.html#a4545d0caad41558cdb9bae8286b104d8" target="_top" xlink:title="Sets the delay for the Join2 receive window.">
<polygon fill="white" stroke="#666666" points="842,-420.95 688.75,-420.95 688.75,-388.95 842,-388.95 842,-420.95"/>
<text text-anchor="start" x="696.75" y="-407.45" font-family="Helvetica,sans-Serif" font-size="10.00">LSM1x0A_LoRaWAN::setJoin2</text>
<text text-anchor="middle" x="765.38" y="-395.45" font-family="Helvetica,sans-Serif" font-size="10.00">Delay</text>
</a>
</g>
</g>
<!-- Node12&#45;&gt;Node21 -->
<g id="edge34_Node000012_Node000021" class="edge">
<title>Node12&#45;&gt;Node21</title>
<g id="a_edge34_Node000012_Node000021"><a xlink:title=" ">
<path fill="none" stroke="#63b8ff" d="M587.16,-464.52C609.67,-453.71 640.42,-439.8 668.5,-429.95 673.79,-428.09 679.29,-426.3 684.86,-424.59"/>
<polygon fill="#63b8ff" stroke="#63b8ff" points="685.57,-428.03 694.16,-421.84 683.58,-421.32 685.57,-428.03"/>
</a>
</g>
</g>
<!-- Node22 -->
<g id="Node000022" class="node">
<title>Node22</title>
<g id="a_Node000022"><a xlink:href="../../d5/d72/classLSM1x0A__LoRaWAN.html#a06bd50723ec1eb7e144c9141b2ec86fc" target="_top" xlink:title="Sets the LoRaWAN Network ID (NetID).">
<polygon fill="white" stroke="#666666" points="845.75,-370.95 685,-370.95 685,-350.95 845.75,-350.95 845.75,-370.95"/>
<text text-anchor="middle" x="765.38" y="-357.45" font-family="Helvetica,sans-Serif" font-size="10.00">LSM1x0A_LoRaWAN::setNwkID</text>
</a>
</g>
</g>
<!-- Node12&#45;&gt;Node22 -->
<g id="edge36_Node000012_Node000022" class="edge">
<title>Node12&#45;&gt;Node22</title>
<g id="a_edge36_Node000012_Node000022"><a xlink:title=" ">
<path fill="none" stroke="#63b8ff" d="M567.51,-464.74C587.1,-441.98 626.03,-400.98 668.5,-379.95 672.18,-378.13 676.01,-376.48 679.95,-374.99"/>
<polygon fill="#63b8ff" stroke="#63b8ff" points="680.76,-378.41 689.11,-371.9 678.52,-371.78 680.76,-378.41"/>
</a>
</g>
</g>
<!-- Node23 -->
<g id="Node000023" class="node">
<title>Node23</title>
<g id="a_Node000023"><a xlink:href="../../d5/d72/classLSM1x0A__LoRaWAN.html#aa70ada64d28ecca216bb62268e502adf" target="_top" xlink:title="Sets the delay for the RX1 receive window.">
<polygon fill="white" stroke="#666666" points="852.12,-332.95 678.62,-332.95 678.62,-312.95 852.12,-312.95 852.12,-332.95"/>
<text text-anchor="middle" x="765.38" y="-319.45" font-family="Helvetica,sans-Serif" font-size="10.00">LSM1x0A_LoRaWAN::setRx1Delay</text>
</a>
</g>
</g>
<!-- Node12&#45;&gt;Node23 -->
<g id="edge38_Node000012_Node000023" class="edge">
<title>Node12&#45;&gt;Node23</title>
<g id="a_edge38_Node000012_Node000023"><a xlink:title=" ">
<path fill="none" stroke="#63b8ff" d="M562.7,-464.54C578.9,-434.88 617.3,-372.58 668.5,-341.95 670.98,-340.46 673.56,-339.09 676.21,-337.82"/>
<polygon fill="#63b8ff" stroke="#63b8ff" points="677.46,-341.09 685.34,-334.02 674.76,-334.63 677.46,-341.09"/>
</a>
</g>
</g>
<!-- Node24 -->
<g id="Node000024" class="node">
<title>Node24</title>
<g id="a_Node000024"><a xlink:href="../../d5/d72/classLSM1x0A__LoRaWAN.html#a2cf4eff0181b6107d082bccefa24217b" target="_top" xlink:title="Sets the Data Rate (DR) specifically for the RX2 window.">
<polygon fill="white" stroke="#666666" points="860.38,-294.95 670.38,-294.95 670.38,-274.95 860.38,-274.95 860.38,-294.95"/>
<text text-anchor="middle" x="765.38" y="-281.45" font-family="Helvetica,sans-Serif" font-size="10.00">LSM1x0A_LoRaWAN::setRx2DataRate</text>
</a>
</g>
</g>
<!-- Node12&#45;&gt;Node24 -->
<g id="edge40_Node000012_Node000024" class="edge">
<title>Node12&#45;&gt;Node24</title>
<g id="a_edge40_Node000012_Node000024"><a xlink:title=" ">
<path fill="none" stroke="#63b8ff" d="M559.77,-464.61C572.65,-429.11 608.29,-344.84 668.5,-303.95 670.47,-302.61 672.52,-301.36 674.63,-300.19"/>
<polygon fill="#63b8ff" stroke="#63b8ff" points="675.96,-303.43 683.48,-295.97 672.95,-297.11 675.96,-303.43"/>
</a>
</g>
</g>
<!-- Node25 -->
<g id="Node000025" class="node">
<title>Node25</title>
<g id="a_Node000025"><a xlink:href="../../d5/d72/classLSM1x0A__LoRaWAN.html#a42d2137b475b57e19d891a5f1ac93221" target="_top" xlink:title="Sets the delay for the RX2 receive window.">
<polygon fill="white" stroke="#666666" points="852.12,-256.95 678.62,-256.95 678.62,-236.95 852.12,-236.95 852.12,-256.95"/>
<text text-anchor="middle" x="765.38" y="-243.45" font-family="Helvetica,sans-Serif" font-size="10.00">LSM1x0A_LoRaWAN::setRx2Delay</text>
</a>
</g>
</g>
<!-- Node12&#45;&gt;Node25 -->
<g id="edge42_Node000012_Node000025" class="edge">
<title>Node12&#45;&gt;Node25</title>
<g id="a_edge42_Node000012_Node000025"><a xlink:title=" ">
<path fill="none" stroke="#63b8ff" d="M557.84,-464.6C567.68,-423.89 599.11,-317.5 668.5,-265.95 670.09,-264.76 671.74,-263.65 673.43,-262.6"/>
<polygon fill="#63b8ff" stroke="#63b8ff" points="675.01,-265.72 682.23,-257.97 671.75,-259.53 675.01,-265.72"/>
</a>
</g>
</g>
<!-- Node26 -->
<g id="Node000026" class="node">
<title>Node26</title>
<g id="a_Node000026"><a xlink:href="../../d5/d72/classLSM1x0A__LoRaWAN.html#a689f7dfda1dfeae11ea397c2ddf2ad37" target="_top" xlink:title="Sets the precise frequency for the RX2 window.">
<polygon fill="white" stroke="#666666" points="862.25,-218.95 668.5,-218.95 668.5,-198.95 862.25,-198.95 862.25,-218.95"/>
<text text-anchor="middle" x="765.38" y="-205.45" font-family="Helvetica,sans-Serif" font-size="10.00">LSM1x0A_LoRaWAN::setRx2Frequency</text>
</a>
</g>
</g>
<!-- Node12&#45;&gt;Node26 -->
<g id="edge44_Node000012_Node000026" class="edge">
<title>Node12&#45;&gt;Node26</title>
<g id="a_edge44_Node000012_Node000026"><a xlink:title=" ">
<path fill="none" stroke="#63b8ff" d="M556.46,-464.5C563.51,-418.96 589.81,-290.44 668.5,-227.95 669.83,-226.89 671.2,-225.89 672.61,-224.94"/>
<polygon fill="#63b8ff" stroke="#63b8ff" points="674.11,-228.11 681.07,-220.12 670.65,-222.03 674.11,-228.11"/>
</a>
</g>
</g>
<!-- Node27 -->
<g id="Node000027" class="node">
<title>Node27</title>
<g id="a_Node000027"><a xlink:href="../../d5/d72/classLSM1x0A__LoRaWAN.html#a1df10d7ae6bf45b537d28d3d5c4b88d7" target="_top" xlink:title="Sets the transmission power index.">
<polygon fill="white" stroke="#666666" points="849.88,-180.95 680.88,-180.95 680.88,-160.95 849.88,-160.95 849.88,-180.95"/>
<text text-anchor="middle" x="765.38" y="-167.45" font-family="Helvetica,sans-Serif" font-size="10.00">LSM1x0A_LoRaWAN::setTxPower</text>
</a>
</g>
</g>
<!-- Node12&#45;&gt;Node27 -->
<g id="edge46_Node000012_Node000027" class="edge">
<title>Node12&#45;&gt;Node27</title>
<g id="a_edge46_Node000012_Node000027"><a xlink:title=" ">
<path fill="none" stroke="#63b8ff" d="M555.39,-464.65C559.8,-414.88 580.21,-263.73 668.5,-189.95 669.64,-189 670.8,-188.09 672,-187.23"/>
<polygon fill="#63b8ff" stroke="#63b8ff" points="673.68,-190.3 680.43,-182.14 670.06,-184.31 673.68,-190.3"/>
</a>
</g>
</g>
<!-- Node28 -->
<g id="Node000028" class="node">
<title>Node28</title>
<g id="a_Node000028"><a xlink:href="../../d5/d72/classLSM1x0A__LoRaWAN.html#a059fd6a9356c4ecadd5a98294da5952d" target="_top" xlink:title="Configures the number of repetitions for Unconfirmed uplinks.">
<polygon fill="white" stroke="#666666" points="852.88,-142.95 677.88,-142.95 677.88,-110.95 852.88,-110.95 852.88,-142.95"/>
<text text-anchor="start" x="685.88" y="-129.45" font-family="Helvetica,sans-Serif" font-size="10.00">LSM1x0A_LoRaWAN::setUnconfirm</text>
<text text-anchor="middle" x="765.38" y="-117.45" font-family="Helvetica,sans-Serif" font-size="10.00">Retry</text>
</a>
</g>
</g>
<!-- Node12&#45;&gt;Node28 -->
<g id="edge48_Node000012_Node000028" class="edge">
<title>Node12&#45;&gt;Node28</title>
<g id="a_edge48_Node000012_Node000028"><a xlink:title=" ">
<path fill="none" stroke="#63b8ff" d="M554.77,-464.75C557.4,-411.46 573.23,-239.96 668.5,-151.95 669.27,-151.23 670.07,-150.54 670.87,-149.86"/>
<polygon fill="#63b8ff" stroke="#63b8ff" points="672.72,-152.84 678.87,-144.21 668.69,-147.12 672.72,-152.84"/>
</a>
</g>
</g>
<!-- Node13&#45;&gt;Node2 -->
<g id="edge18_Node000013_Node000002" class="edge">
<title>Node13&#45;&gt;Node2</title>
<g id="a_edge18_Node000013_Node000002"><a xlink:title=" ">
<path fill="none" stroke="#63b8ff" d="M690.36,-778.49C581.14,-761.69 384.08,-725.64 332,-677.95 281.35,-631.57 258.12,-550.58 249,-508.34"/>
<polygon fill="#63b8ff" stroke="#63b8ff" points="252.48,-507.86 247.05,-498.76 245.62,-509.26 252.48,-507.86"/>
</a>
</g>
</g>
<!-- Node14&#45;&gt;Node2 -->
<g id="edge20_Node000014_Node000002" class="edge">
<title>Node14&#45;&gt;Node2</title>
<g id="a_edge20_Node000014_Node000002"><a xlink:title=" ">
<path fill="none" stroke="#63b8ff" d="M692.73,-740.46C584.67,-723.42 386.76,-687.03 332,-641.95 288.73,-606.32 263.37,-543.61 251.74,-507.88"/>
<polygon fill="#63b8ff" stroke="#63b8ff" points="255.21,-507.24 248.89,-498.74 248.52,-509.32 255.21,-507.24"/>
</a>
</g>
</g>
<!-- Node15&#45;&gt;Node2 -->
<g id="edge23_Node000015_Node000002" class="edge">
<title>Node15&#45;&gt;Node2</title>
<g id="a_edge23_Node000015_Node000002"><a xlink:title=" ">
<path fill="none" stroke="#63b8ff" d="M682.74,-696.13C573.33,-680.29 386.57,-648.15 332,-606.95 296.88,-580.43 270.49,-535.78 256.15,-507.37"/>
<polygon fill="#63b8ff" stroke="#63b8ff" points="259.46,-506.16 251.92,-498.71 253.17,-509.23 259.46,-506.16"/>
</a>
</g>
</g>
<!-- Node16&#45;&gt;Node2 -->
<g id="edge25_Node000016_Node000002" class="edge">
<title>Node16&#45;&gt;Node2</title>
<g id="a_edge25_Node000016_Node000002"><a xlink:title=" ">
<path fill="none" stroke="#63b8ff" d="M679.27,-660.63C587.56,-654.66 440.21,-634.71 332,-569.95 304.32,-553.38 279.14,-526.09 262.88,-506.09"/>
<polygon fill="#63b8ff" stroke="#63b8ff" points="265.74,-504.06 256.79,-498.39 260.25,-508.41 265.74,-504.06"/>
</a>
</g>
</g>
<!-- Node17&#45;&gt;Node2 -->
<g id="edge27_Node000017_Node000002" class="edge">
<title>Node17&#45;&gt;Node2</title>
<g id="a_edge27_Node000017_Node000002"><a xlink:title=" ">
<path fill="none" stroke="#63b8ff" d="M681.02,-618.09C591.76,-608.52 447.4,-586.49 332,-537.95 311.24,-529.22 289.99,-515.61 273.58,-503.88"/>
<polygon fill="#63b8ff" stroke="#63b8ff" points="275.87,-501.22 265.73,-498.14 271.74,-506.87 275.87,-501.22"/>
</a>
</g>
</g>
<!-- Node18&#45;&gt;Node2 -->
<g id="edge29_Node000018_Node000002" class="edge">
<title>Node18&#45;&gt;Node2</title>
<g id="a_edge29_Node000018_Node000002"><a xlink:title=" ">
<path fill="none" stroke="#63b8ff" d="M682.62,-576.91C595.03,-565.2 452.34,-543.35 332,-511.95 320.48,-508.94 308.32,-505.11 296.84,-501.17"/>
<polygon fill="#63b8ff" stroke="#63b8ff" points="298.1,-497.9 287.51,-497.88 295.78,-504.5 298.1,-497.9"/>
</a>
</g>
</g>
<!-- Node19&#45;&gt;Node2 -->
<g id="edge31_Node000019_Node000002" class="edge">
<title>Node19&#45;&gt;Node2</title>
<g id="a_edge31_Node000019_Node000002"><a xlink:title=" ">
<path fill="none" stroke="#63b8ff" d="M689.64,-534.04C586.96,-521.81 404.06,-500.02 307.6,-488.53"/>
<polygon fill="#63b8ff" stroke="#63b8ff" points="308.12,-485.06 297.78,-487.36 307.3,-492.01 308.12,-485.06"/>
</a>
</g>
</g>
<!-- Node20&#45;&gt;Node2 -->
<g id="edge33_Node000020_Node000002" class="edge">
<title>Node20&#45;&gt;Node2</title>
<g id="a_edge33_Node000020_Node000002"><a xlink:title=" ">
<path fill="none" stroke="#63b8ff" d="M688.5,-453.04C629.87,-452.09 546.73,-451.88 474,-455.95 417.62,-459.1 353.8,-466.33 307.72,-472.21"/>
<polygon fill="#63b8ff" stroke="#63b8ff" points="307.37,-468.72 297.9,-473.48 308.26,-475.67 307.37,-468.72"/>
</a>
</g>
</g>
<!-- Node21&#45;&gt;Node2 -->
<g id="edge35_Node000021_Node000002" class="edge">
<title>Node21&#45;&gt;Node2</title>
<g id="a_edge35_Node000021_Node000002"><a xlink:title=" ">
<path fill="none" stroke="#63b8ff" d="M688.38,-409.76C601.53,-416.18 455.46,-429.77 332,-454.95 323.33,-456.72 314.28,-458.94 305.42,-461.34"/>
<polygon fill="#63b8ff" stroke="#63b8ff" points="304.48,-457.97 295.8,-464.05 306.38,-464.71 304.48,-457.97"/>
</a>
</g>
</g>
<!-- Node22&#45;&gt;Node2 -->
<g id="edge37_Node000022_Node000002" class="edge">
<title>Node22&#45;&gt;Node2</title>
<g id="a_edge37_Node000022_Node000002"><a xlink:title=" ">
<path fill="none" stroke="#63b8ff" d="M684.71,-366.22C596.45,-373.87 450.88,-391.94 332,-432.95 313.51,-439.33 294.3,-449.35 278.56,-458.6"/>
<polygon fill="#63b8ff" stroke="#63b8ff" points="276.8,-455.57 270.05,-463.73 280.42,-461.56 276.8,-455.57"/>
</a>
</g>
</g>
<!-- Node23&#45;&gt;Node2 -->
<g id="edge39_Node000023_Node000002" class="edge">
<title>Node23&#45;&gt;Node2</title>
<g id="a_edge39_Node000023_Node000002"><a xlink:title=" ">
<path fill="none" stroke="#63b8ff" d="M678.24,-323.48C587.29,-327.36 442.1,-343.2 332,-400.95 305.76,-414.71 281.28,-438.19 264.84,-456.16"/>
<polygon fill="#63b8ff" stroke="#63b8ff" points="262.48,-453.54 258.45,-463.34 267.71,-458.2 262.48,-453.54"/>
</a>
</g>
</g>
<!-- Node24&#45;&gt;Node2 -->
<g id="edge41_Node000024_Node000002" class="edge">
<title>Node24&#45;&gt;Node2</title>
<g id="a_edge41_Node000024_Node000002"><a xlink:title=" ">
<path fill="none" stroke="#63b8ff" d="M670.15,-278.72C576.6,-277.21 432.94,-287.94 332,-355.95 295.5,-380.54 269.37,-425.71 255.48,-454.49"/>
<polygon fill="#63b8ff" stroke="#63b8ff" points="252.44,-452.73 251.4,-463.27 258.79,-455.68 252.44,-452.73"/>
</a>
</g>
</g>
<!-- Node25&#45;&gt;Node2 -->
<g id="edge43_Node000025_Node000002" class="edge">
<title>Node25&#45;&gt;Node2</title>
<g id="a_edge43_Node000025_Node000002"><a xlink:title=" ">
<path fill="none" stroke="#63b8ff" d="M694.6,-236.49C601.83,-226.6 437.34,-223.58 332,-304.95 283.36,-342.51 259.63,-414.19 249.81,-453.49"/>
<polygon fill="#63b8ff" stroke="#63b8ff" points="246.44,-452.56 247.55,-463.1 253.25,-454.17 246.44,-452.56"/>
</a>
</g>
</g>
<!-- Node26&#45;&gt;Node2 -->
<g id="edge45_Node000026_Node000002" class="edge">
<title>Node26&#45;&gt;Node2</title>
<g id="a_edge45_Node000026_Node000002"><a xlink:title=" ">
<path fill="none" stroke="#63b8ff" d="M668.17,-205.86C556.72,-204.31 382,-208.72 332,-248.95 268.11,-300.36 250.58,-403.6 245.79,-453.16"/>
<polygon fill="#63b8ff" stroke="#63b8ff" points="242.31,-452.77 244.95,-463.03 249.28,-453.36 242.31,-452.77"/>
</a>
</g>
</g>
<!-- Node27&#45;&gt;Node2 -->
<g id="edge47_Node000027_Node000002" class="edge">
<title>Node27&#45;&gt;Node2</title>
<g id="a_edge47_Node000027_Node000002"><a xlink:title=" ">
<path fill="none" stroke="#63b8ff" d="M717.67,-160.48C631.24,-144.01 444.89,-122.56 332,-212.95 257.19,-272.85 245.33,-397.78 243.9,-453.31"/>
<polygon fill="#63b8ff" stroke="#63b8ff" points="240.4,-453.1 243.75,-463.15 247.4,-453.21 240.4,-453.1"/>
</a>
</g>
</g>
<!-- Node28&#45;&gt;Node2 -->
<g id="edge49_Node000028_Node000002" class="edge">
<title>Node28&#45;&gt;Node2</title>
<g id="a_edge49_Node000028_Node000002"><a xlink:title=" ">
<path fill="none" stroke="#63b8ff" d="M677.49,-121.55C566.4,-116.57 382.37,-115.39 332,-157.95 286.15,-196.69 257,-383.18 247.45,-453.79"/>
<polygon fill="#63b8ff" stroke="#63b8ff" points="244.03,-452.95 246.19,-463.32 250.97,-453.87 244.03,-452.95"/>
</a>
</g>
</g>
<!-- Node30&#45;&gt;Node31 -->
<g id="edge52_Node000030_Node000031" class="edge">
<title>Node30&#45;&gt;Node31</title>
<g id="a_edge52_Node000030_Node000031"><a xlink:title=" ">
<path fill="none" stroke="#63b8ff" d="M606.73,-1092.44C624.89,-1094.34 645.86,-1096.54 666.47,-1098.7"/>
<polygon fill="#63b8ff" stroke="#63b8ff" points="666.04,-1102.17 676.35,-1099.73 666.77,-1095.21 666.04,-1102.17"/>
</a>
</g>
</g>
<!-- Node32 -->
<g id="Node000032" class="node">
<title>Node32</title>
<g id="a_Node000032"><a xlink:href="../../d6/d3c/classLSM1x0A__AtParser.html#a0ba6f927c54fceece22c17773d3f2600" target="_top" xlink:title="Sends a command and extracts a value from the response.">
<polygon fill="white" stroke="#666666" points="1080.38,-1124.95 906.12,-1124.95 906.12,-1092.95 1080.38,-1092.95 1080.38,-1124.95"/>
<text text-anchor="start" x="914.12" y="-1111.45" font-family="Helvetica,sans-Serif" font-size="10.00">LSM1x0A_AtParser::sendCommand</text>
<text text-anchor="middle" x="993.25" y="-1099.45" font-family="Helvetica,sans-Serif" font-size="10.00">WithResponse</text>
</a>
</g>
</g>
<!-- Node31&#45;&gt;Node32 -->
<g id="edge53_Node000031_Node000032" class="edge">
<title>Node31&#45;&gt;Node32</title>
<g id="a_edge53_Node000031_Node000032"><a xlink:title=" ">
<path fill="none" stroke="#63b8ff" d="M852.74,-1108.95C866.49,-1108.95 880.81,-1108.95 894.8,-1108.95"/>
<polygon fill="#63b8ff" stroke="#63b8ff" points="894.42,-1112.45 904.42,-1108.95 894.42,-1105.45 894.42,-1112.45"/>
</a>
</g>
</g>
<!-- Node33 -->
<g id="Node000033" class="node">
<title>Node33</title>
<g id="a_Node000033"><a xlink:href="../../d5/d8b/classUartDriver.html#a5d0f22e8867eebe99273078bb19bd23d" target="_top" xlink:title="Sends data through UART.">
<polygon fill="white" stroke="#666666" points="1255,-1118.95 1146,-1118.95 1146,-1098.95 1255,-1098.95 1255,-1118.95"/>
<text text-anchor="middle" x="1200.5" y="-1105.45" font-family="Helvetica,sans-Serif" font-size="10.00">UartDriver::sendData</text>
</a>
</g>
</g>
<!-- Node32&#45;&gt;Node33 -->
<g id="edge54_Node000032_Node000033" class="edge">
<title>Node32&#45;&gt;Node33</title>
<g id="a_edge54_Node000032_Node000033"><a xlink:title=" ">
<path fill="none" stroke="#63b8ff" d="M1080.7,-1108.95C1098.59,-1108.95 1117.16,-1108.95 1134.14,-1108.95"/>
<polygon fill="#63b8ff" stroke="#63b8ff" points="1134.11,-1112.45 1144.11,-1108.95 1134.11,-1105.45 1134.11,-1112.45"/>
</a>
</g>
</g>
</g>
</svg>

<g id="navigator" transform="translate(0 0)" fill="#404254">
  <rect fill="#f2f5e9" fill-opacity="0.5" stroke="#606060" stroke-width=".5" x="0" y="0" width="60" height="60"/>
  <use id="zoomplus" xlink:href="#zoomPlus" x="17" y="9" onmousedown="handleZoom(evt,'in')"/>
  <use id="zoomminus" xlink:href="#zoomMin" x="42" y="9" onmousedown="handleZoom(evt,'out')"/>
  <use id="reset" xlink:href="#resetDef" x="30" y="36" onmousedown="handleReset()"/>
   <use id="arrowup" xlink:href="#arrowUp" x="0" y="0" onmousedown="handlePan(0,-1)"/>
  <use id="arrowright" xlink:href="#arrowRight" x="0" y="0" onmousedown="handlePan(1,0)"/>
  <use id="arrowdown" xlink:href="#arrowDown" x="0" y="0" onmousedown="handlePan(0,1)"/>
  <use id="arrowleft" xlink:href="#arrowLeft" x="0" y="0" onmousedown="handlePan(-1,0)"/>
</g>
<svg viewBox="0 0 15 15" width="100%" height="30px" preserveAspectRatio="xMaxYMin meet">
 <g id="arrow_out" transform="scale(0.3 0.3)">
  <a xlink:href="classLSM1x0A__LoRaWAN_a5fd17dd79f5fec1befa7771edcf519b3_cgraph_org.svg" target="_base">
   <rect id="button" ry="5" rx="5" y="6" x="6" height="38" width="38"
        fill="#f2f5e9" fill-opacity="0.5" stroke="#606060" stroke-width="1.0"/>
   <path id="arrow"
     d="M 11.500037,31.436501 C 11.940474,20.09759 22.043105,11.32322 32.158766,21.979434 L 37.068811,17.246167 C 37.068811,17.246167 37.088388,32 37.088388,32 L 22.160133,31.978069 C 22.160133,31.978069 26.997745,27.140456 26.997745,27.140456 C 18.528582,18.264221 13.291696,25.230495 11.500037,31.436501 z"
     style="fill:#404040;"/>
  </a>
 </g>
</svg>

<style type='text/css'>
<![CDATA[
[data-mouse-over-selected='false'] { opacity: 0.7; }
[data-mouse-over-selected='true']  { opacity: 1.0; }
]]>
</style>
<script type="application/ecmascript"><![CDATA[
document.addEventListener('DOMContentLoaded', (event) => {
  highlightEdges();
  highlightAdjacentNodes();
});
]]></script>
</svg>
