<?xml version="1.0" encoding="UTF-8" standalone="no"?>
<!DOCTYPE svg PUBLIC "-//W3C//DTD SVG 1.1//EN"
 "http://www.w3.org/Graphics/SVG/1.1/DTD/svg11.dtd">
<!-- Generated by graphviz version 12.2.1 (20241206.2353)
 -->
<!-- Title: LSM1x0A_LoRaWAN::getUnconfirmRetry Pages: 1 -->
<svg width="1874pt" height="1018pt"
 viewBox="0.00 0.00 1874.25 1018.48" xmlns="http://www.w3.org/2000/svg" xmlns:xlink="http://www.w3.org/1999/xlink">
<g id="graph0" class="graph" transform="scale(1 1) rotate(0) translate(4 1014.48)">
<title>LSM1x0A_LoRaWAN::getUnconfirmRetry</title>
<!-- Node1 -->
<g id="Node000001" class="node">
<title>Node1</title>
<g id="a_Node000001"><a xlink:title="Retrieves the Unconfirmed uplink repetitions count.">
<polygon fill="#999999" stroke="#666666" points="175,-104 0,-104 0,-72 175,-72 175,-104"/>
<text text-anchor="start" x="8" y="-90.5" font-family="Helvetica,sans-Serif" font-size="10.00">LSM1x0A_LoRaWAN::getUnconfirm</text>
<text text-anchor="middle" x="87.5" y="-78.5" font-family="Helvetica,sans-Serif" font-size="10.00">Retry</text>
</a>
</g>
</g>
<!-- Node2 -->
<g id="Node000002" class="node">
<title>Node2</title>
<g id="a_Node000002"><a xlink:href="../../d8/d92/classLSM1x0A__Controller.html#ab00328d1be83aa51bce8c2a4f907c5f4" target="_top" xlink:title="Sends an AT command and captures its response in a text block. Ideal for getters (e....">
<polygon fill="white" stroke="#666666" points="363.5,-104 211,-104 211,-72 363.5,-72 363.5,-104"/>
<text text-anchor="start" x="219" y="-90.5" font-family="Helvetica,sans-Serif" font-size="10.00">LSM1x0A_Controller</text>
<text text-anchor="middle" x="287.25" y="-78.5" font-family="Helvetica,sans-Serif" font-size="10.00">::sendCommandWithResponse</text>
</a>
</g>
</g>
<!-- Node1&#45;&gt;Node2 -->
<g id="edge1_Node000001_Node000002" class="edge">
<title>Node1&#45;&gt;Node2</title>
<g id="a_edge1_Node000001_Node000002"><a xlink:title=" ">
<path fill="none" stroke="#63b8ff" d="M175.24,-88C183.28,-88 191.43,-88 199.47,-88"/>
<polygon fill="#63b8ff" stroke="#63b8ff" points="199.23,-91.5 209.23,-88 199.23,-84.5 199.23,-91.5"/>
</a>
</g>
</g>
<!-- Node3 -->
<g id="Node000003" class="node">
<title>Node3</title>
<g id="a_Node000003"><a xlink:href="../../d8/d92/classLSM1x0A__Controller.html#abb0eb380daa3dfb7acffb483c5db8e2b" target="_top" xlink:title="Executes the recovery protocol. First Soft&#45;Reset (ATZ), then Hard&#45;Reset if there is a pin.">
<polygon fill="white" stroke="#666666" points="505.5,-214 399.5,-214 399.5,-182 505.5,-182 505.5,-214"/>
<text text-anchor="start" x="407.5" y="-200.5" font-family="Helvetica,sans-Serif" font-size="10.00">LSM1x0A_Controller</text>
<text text-anchor="middle" x="452.5" y="-188.5" font-family="Helvetica,sans-Serif" font-size="10.00">::recoverModule</text>
</a>
</g>
</g>
<!-- Node2&#45;&gt;Node3 -->
<g id="edge2_Node000002_Node000003" class="edge">
<title>Node2&#45;&gt;Node3</title>
<g id="a_edge2_Node000002_Node000003"><a xlink:title=" ">
<path fill="none" stroke="#63b8ff" d="M312.69,-104.47C340.66,-123.32 386.64,-154.29 417.95,-175.39"/>
<polygon fill="#63b8ff" stroke="#63b8ff" points="415.66,-178.07 425.9,-180.75 419.57,-172.26 415.66,-178.07"/>
</a>
</g>
</g>
<!-- Node12 -->
<g id="Node000012" class="node">
<title>Node12</title>
<g id="a_Node000012"><a xlink:href="../../d6/d3c/classLSM1x0A__AtParser.html#a0ba6f927c54fceece22c17773d3f2600" target="_top" xlink:title="Sends a command and extracts a value from the response.">
<polygon fill="white" stroke="#666666" points="1721.25,-287 1547,-287 1547,-255 1721.25,-255 1721.25,-287"/>
<text text-anchor="start" x="1555" y="-273.5" font-family="Helvetica,sans-Serif" font-size="10.00">LSM1x0A_AtParser::sendCommand</text>
<text text-anchor="middle" x="1634.12" y="-261.5" font-family="Helvetica,sans-Serif" font-size="10.00">WithResponse</text>
</a>
</g>
</g>
<!-- Node2&#45;&gt;Node12 -->
<g id="edge57_Node000002_Node000012" class="edge">
<title>Node2&#45;&gt;Node12</title>
<g id="a_edge57_Node000002_Node000012"><a xlink:title=" ">
<path fill="none" stroke="#63b8ff" d="M324.69,-71.65C384.86,-46.21 509.29,0 619.75,0 619.75,0 619.75,0 1225.5,0 1402.44,0 1561.2,-179.26 1614.31,-246.19"/>
<polygon fill="#63b8ff" stroke="#63b8ff" points="1611.24,-247.95 1620.16,-253.67 1616.75,-243.64 1611.24,-247.95"/>
</a>
</g>
</g>
<!-- Node4 -->
<g id="Node000004" class="node">
<title>Node4</title>
<g id="a_Node000004"><a xlink:href="../../d8/d92/classLSM1x0A__Controller.html#a3f6f25b843fe4fb7042c544deae2ab16" target="_top" xlink:title="Manually clears bits from the internal EventGroup.">
<polygon fill="white" stroke="#666666" points="1068.38,-98 962.38,-98 962.38,-66 1068.38,-66 1068.38,-98"/>
<text text-anchor="start" x="970.38" y="-84.5" font-family="Helvetica,sans-Serif" font-size="10.00">LSM1x0A_Controller</text>
<text text-anchor="middle" x="1015.38" y="-72.5" font-family="Helvetica,sans-Serif" font-size="10.00">::clearEvents</text>
</a>
</g>
</g>
<!-- Node3&#45;&gt;Node4 -->
<g id="edge3_Node000003_Node000004" class="edge">
<title>Node3&#45;&gt;Node4</title>
<g id="a_edge3_Node000003_Node000004"><a xlink:title=" ">
<path fill="none" stroke="#63b8ff" d="M478.18,-181.53C495.23,-171 518.84,-158.03 541.5,-151 687.15,-105.82 732.23,-138.94 882.5,-113 905,-109.12 929.4,-103.72 951.02,-98.52"/>
<polygon fill="#63b8ff" stroke="#63b8ff" points="951.7,-101.96 960.58,-96.18 950.03,-95.16 951.7,-101.96"/>
</a>
</g>
</g>
<!-- Node5 -->
<g id="Node000005" class="node">
<title>Node5</title>
<g id="a_Node000005"><a xlink:href="../../d8/d92/classLSM1x0A__Controller.html#a345d4bd79fa16b18dc33a4ca788fe5f7" target="_top" xlink:title="Performs a hardware reset using the reset pin.">
<polygon fill="white" stroke="#666666" points="673.75,-104 567.75,-104 567.75,-72 673.75,-72 673.75,-104"/>
<text text-anchor="start" x="575.75" y="-90.5" font-family="Helvetica,sans-Serif" font-size="10.00">LSM1x0A_Controller</text>
<text text-anchor="middle" x="620.75" y="-78.5" font-family="Helvetica,sans-Serif" font-size="10.00">::hardwareReset</text>
</a>
</g>
</g>
<!-- Node3&#45;&gt;Node5 -->
<g id="edge4_Node000003_Node000005" class="edge">
<title>Node3&#45;&gt;Node5</title>
<g id="a_edge4_Node000003_Node000005"><a xlink:title=" ">
<path fill="none" stroke="#63b8ff" d="M467.96,-181.63C484.32,-163.93 512.49,-135.86 541.5,-118 546.77,-114.76 552.44,-111.77 558.24,-109.03"/>
<polygon fill="#63b8ff" stroke="#63b8ff" points="559.64,-112.24 567.38,-104.99 556.81,-105.83 559.64,-112.24"/>
</a>
</g>
</g>
<!-- Node7 -->
<g id="Node000007" class="node">
<title>Node7</title>
<g id="a_Node000007"><a xlink:href="../../d5/d72/classLSM1x0A__LoRaWAN.html#a1892801e37c8cd67d37c76108d6f7d49" target="_top" xlink:title="Validates if the device is currently Joined to the network. (Either confirmed by OTAA or statically a...">
<polygon fill="white" stroke="#666666" points="1300.75,-136 1148.25,-136 1148.25,-116 1300.75,-116 1300.75,-136"/>
<text text-anchor="middle" x="1224.5" y="-122.5" font-family="Helvetica,sans-Serif" font-size="10.00">LSM1x0A_LoRaWAN::isJoined</text>
</a>
</g>
</g>
<!-- Node3&#45;&gt;Node7 -->
<g id="edge6_Node000003_Node000007" class="edge">
<title>Node3&#45;&gt;Node7</title>
<g id="a_edge6_Node000003_Node000007"><a xlink:title=" ">
<path fill="none" stroke="#63b8ff" d="M458.43,-181.77C468.49,-151.92 494.48,-88.97 541.5,-63 652.54,-1.69 990.26,-22.24 1112.25,-57 1147.32,-66.99 1182.12,-91.56 1203.22,-108.51"/>
<polygon fill="#63b8ff" stroke="#63b8ff" points="1200.8,-111.05 1210.74,-114.72 1205.26,-105.65 1200.8,-111.05"/>
</a>
</g>
</g>
<!-- Node8 -->
<g id="Node000008" class="node">
<title>Node8</title>
<g id="a_Node000008"><a xlink:href="../../d5/d72/classLSM1x0A__LoRaWAN.html#a83e11c0e74ff9e0757db616ab1163424" target="_top" xlink:title="Attempts to recover a lost connection (re&#45;executes OTAA Join if dropped).">
<polygon fill="white" stroke="#666666" points="695.12,-192 546.38,-192 546.38,-160 695.12,-160 695.12,-192"/>
<text text-anchor="start" x="554.38" y="-178.5" font-family="Helvetica,sans-Serif" font-size="10.00">LSM1x0A_LoRaWAN::recover</text>
<text text-anchor="middle" x="620.75" y="-166.5" font-family="Helvetica,sans-Serif" font-size="10.00">Connection</text>
</a>
</g>
</g>
<!-- Node3&#45;&gt;Node8 -->
<g id="edge7_Node000003_Node000008" class="edge">
<title>Node3&#45;&gt;Node8</title>
<g id="a_edge7_Node000003_Node000008"><a xlink:title=" ">
<path fill="none" stroke="#63b8ff" d="M505.65,-191.1C514.99,-189.86 524.94,-188.55 534.92,-187.23"/>
<polygon fill="#63b8ff" stroke="#63b8ff" points="535.22,-190.72 544.67,-185.94 534.3,-183.78 535.22,-190.72"/>
</a>
</g>
</g>
<!-- Node16 -->
<g id="Node000016" class="node">
<title>Node16</title>
<g id="a_Node000016"><a xlink:href="../../d5/d72/classLSM1x0A__LoRaWAN.html#ae3be4ce59dfa200369733317df356e97" target="_top" xlink:title="Pushes the RAM&#45;cached variables back down into the hardware module. Restores the operational state af...">
<polygon fill="white" stroke="#666666" points="882.5,-539 736,-539 736,-507 882.5,-507 882.5,-539"/>
<text text-anchor="start" x="744" y="-525.5" font-family="Helvetica,sans-Serif" font-size="10.00">LSM1x0A_LoRaWAN::restore</text>
<text text-anchor="middle" x="809.25" y="-513.5" font-family="Helvetica,sans-Serif" font-size="10.00">Config</text>
</a>
</g>
</g>
<!-- Node3&#45;&gt;Node16 -->
<g id="edge20_Node000003_Node000016" class="edge">
<title>Node3&#45;&gt;Node16</title>
<g id="a_edge20_Node000003_Node000016"><a xlink:title=" ">
<path fill="none" stroke="#63b8ff" d="M471.09,-214.12C529.01,-267.18 713.94,-436.6 782.42,-499.34"/>
<polygon fill="#63b8ff" stroke="#63b8ff" points="779.7,-501.59 789.44,-505.76 784.43,-496.43 779.7,-501.59"/>
</a>
</g>
</g>
<!-- Node33 -->
<g id="Node000033" class="node">
<title>Node33</title>
<g id="a_Node000033"><a xlink:href="../../d5/d72/classLSM1x0A__LoRaWAN.html#ace4b04396f1de1f4a54f513f5f378db7" target="_top" xlink:title="Manually overrides the internal joined state tracker.">
<polygon fill="white" stroke="#666666" points="700,-939 541.5,-939 541.5,-919 700,-919 700,-939"/>
<text text-anchor="middle" x="620.75" y="-925.5" font-family="Helvetica,sans-Serif" font-size="10.00">LSM1x0A_LoRaWAN::setJoined</text>
</a>
</g>
</g>
<!-- Node3&#45;&gt;Node33 -->
<g id="edge54_Node000003_Node000033" class="edge">
<title>Node3&#45;&gt;Node33</title>
<g id="a_edge54_Node000003_Node000033"><a xlink:title=" ">
<path fill="none" stroke="#63b8ff" d="M453.22,-214.4C451.9,-310.08 449.83,-795.83 541.5,-905 543.92,-907.88 546.68,-910.43 549.68,-912.67"/>
<polygon fill="#63b8ff" stroke="#63b8ff" points="547.66,-915.54 558.02,-917.75 551.3,-909.56 547.66,-915.54"/>
</a>
</g>
</g>
<!-- Node34 -->
<g id="Node000034" class="node">
<title>Node34</title>
<g id="a_Node000034"><a xlink:href="../../d8/d92/classLSM1x0A__Controller.html#a11ad21cb5ca33ec51346764a23bd485e" target="_top" xlink:title="Performs a software reset (ATZ Command).">
<polygon fill="white" stroke="#666666" points="1277.5,-795 1171.5,-795 1171.5,-763 1277.5,-763 1277.5,-795"/>
<text text-anchor="start" x="1179.5" y="-781.5" font-family="Helvetica,sans-Serif" font-size="10.00">LSM1x0A_Controller</text>
<text text-anchor="middle" x="1224.5" y="-769.5" font-family="Helvetica,sans-Serif" font-size="10.00">::softwareReset</text>
</a>
</g>
</g>
<!-- Node3&#45;&gt;Node34 -->
<g id="edge55_Node000003_Node000034" class="edge">
<title>Node3&#45;&gt;Node34</title>
<g id="a_edge55_Node000003_Node000034"><a xlink:title=" ">
<path fill="none" stroke="#63b8ff" d="M454.14,-214.18C458.41,-318.83 484.5,-897.3 541.5,-948 606.69,-1005.99 874.64,-1058.87 1112.25,-932 1163.71,-904.52 1197.32,-841.52 1213.07,-805.51"/>
<polygon fill="#63b8ff" stroke="#63b8ff" points="1216.14,-807.25 1216.8,-796.67 1209.69,-804.53 1216.14,-807.25"/>
</a>
</g>
</g>
<!-- Node6 -->
<g id="Node000006" class="node">
<title>Node6</title>
<g id="a_Node000006"><a xlink:href="../../d6/d3c/classLSM1x0A__AtParser.html#ad2839120da13e56132b95019419be1e5" target="_top" xlink:title="Waits for an event (like BOOTALERT) without sending any command. Useful for hardware reset where the ...">
<polygon fill="white" stroke="#666666" points="879.5,-104 739,-104 739,-72 879.5,-72 879.5,-104"/>
<text text-anchor="start" x="747" y="-90.5" font-family="Helvetica,sans-Serif" font-size="10.00">LSM1x0A_AtParser::waitFor</text>
<text text-anchor="middle" x="809.25" y="-78.5" font-family="Helvetica,sans-Serif" font-size="10.00">Event</text>
</a>
</g>
</g>
<!-- Node5&#45;&gt;Node6 -->
<g id="edge5_Node000005_Node000006" class="edge">
<title>Node5&#45;&gt;Node6</title>
<g id="a_edge5_Node000005_Node000006"><a xlink:title=" ">
<path fill="none" stroke="#63b8ff" d="M674.2,-88C690.71,-88 709.36,-88 727.37,-88"/>
<polygon fill="#63b8ff" stroke="#63b8ff" points="727.28,-91.5 737.28,-88 727.28,-84.5 727.28,-91.5"/>
</a>
</g>
</g>
<!-- Node9 -->
<g id="Node000009" class="node">
<title>Node9</title>
<g id="a_Node000009"><a xlink:href="../../d5/d72/classLSM1x0A__LoRaWAN.html#a59f781f3cfd30c11cd3973bcb10a7baa" target="_top" xlink:title="Initiates a LoRaWAN Network Join procedure. This is a blocking function until the module fires an eve...">
<polygon fill="white" stroke="#666666" points="875,-186 743.5,-186 743.5,-166 875,-166 875,-186"/>
<text text-anchor="middle" x="809.25" y="-172.5" font-family="Helvetica,sans-Serif" font-size="10.00">LSM1x0A_LoRaWAN::join</text>
</a>
</g>
</g>
<!-- Node8&#45;&gt;Node9 -->
<g id="edge8_Node000008_Node000009" class="edge">
<title>Node8&#45;&gt;Node9</title>
<g id="a_edge8_Node000008_Node000009"><a xlink:title=" ">
<path fill="none" stroke="#63b8ff" d="M695.46,-176C707.42,-176 719.83,-176 731.85,-176"/>
<polygon fill="#63b8ff" stroke="#63b8ff" points="731.72,-179.5 741.72,-176 731.72,-172.5 731.72,-179.5"/>
</a>
</g>
</g>
<!-- Node9&#45;&gt;Node3 -->
<g id="edge10_Node000009_Node000003" class="edge">
<title>Node9&#45;&gt;Node3</title>
<g id="a_edge10_Node000009_Node000003"><a xlink:title=" ">
<path fill="none" stroke="#63b8ff" d="M772.52,-186.4C751.59,-191.95 724.53,-198.2 700,-201 630.01,-208.98 611.93,-202.2 541.5,-201 533.6,-200.87 525.31,-200.66 517.11,-200.43"/>
<polygon fill="#63b8ff" stroke="#63b8ff" points="517.23,-196.93 507.12,-200.12 517.01,-203.92 517.23,-196.93"/>
</a>
</g>
</g>
<!-- Node9&#45;&gt;Node4 -->
<g id="edge9_Node000009_Node000004" class="edge">
<title>Node9&#45;&gt;Node4</title>
<g id="a_edge9_Node000009_Node000004"><a xlink:title=" ">
<path fill="none" stroke="#63b8ff" d="M843.8,-165.52C856.55,-160.68 870.81,-154.16 882.5,-146 901.84,-132.5 898.27,-119.13 918.5,-107 928.45,-101.03 939.81,-96.47 951.15,-93"/>
<polygon fill="#63b8ff" stroke="#63b8ff" points="951.82,-96.45 960.51,-90.39 949.94,-89.7 951.82,-96.45"/>
</a>
</g>
</g>
<!-- Node10 -->
<g id="Node000010" class="node">
<title>Node10</title>
<g id="a_Node000010"><a xlink:href="../../d8/d92/classLSM1x0A__Controller.html#afd7d92e60ed6fdae696a955cdbe0ed8c" target="_top" xlink:title="Sends any AT command to the module, returning error if it fails. Internally uses the LsmAtParser logi...">
<polygon fill="white" stroke="#666666" points="1277.5,-558 1171.5,-558 1171.5,-526 1277.5,-526 1277.5,-558"/>
<text text-anchor="start" x="1179.5" y="-544.5" font-family="Helvetica,sans-Serif" font-size="10.00">LSM1x0A_Controller</text>
<text text-anchor="middle" x="1224.5" y="-532.5" font-family="Helvetica,sans-Serif" font-size="10.00">::sendCommand</text>
</a>
</g>
</g>
<!-- Node9&#45;&gt;Node10 -->
<g id="edge11_Node000009_Node000010" class="edge">
<title>Node9&#45;&gt;Node10</title>
<g id="a_edge11_Node000009_Node000010"><a xlink:title=" ">
<path fill="none" stroke="#63b8ff" d="M875.28,-171.81C952.89,-168.2 1076.66,-167.28 1112.25,-195 1213.98,-274.23 1224.24,-447.25 1224.2,-514.5"/>
<polygon fill="#63b8ff" stroke="#63b8ff" points="1220.7,-514.23 1224.1,-524.26 1227.7,-514.3 1220.7,-514.23"/>
</a>
</g>
</g>
<!-- Node14 -->
<g id="Node000014" class="node">
<title>Node14</title>
<g id="a_Node000014"><a xlink:href="../../d5/d72/classLSM1x0A__LoRaWAN.html#a3fdd1ac318a5ad2559323e5d57e36a5e" target="_top" xlink:title="Enables or disables specific sub&#45;bands for regions supporting Channel Masks (e.g.,...">
<polygon fill="white" stroke="#666666" points="1110.38,-224 920.38,-224 920.38,-204 1110.38,-204 1110.38,-224"/>
<text text-anchor="middle" x="1015.38" y="-210.5" font-family="Helvetica,sans-Serif" font-size="10.00">LSM1x0A_LoRaWAN::setChannelMask</text>
</a>
</g>
</g>
<!-- Node9&#45;&gt;Node14 -->
<g id="edge16_Node000009_Node000014" class="edge">
<title>Node9&#45;&gt;Node14</title>
<g id="a_edge16_Node000009_Node000014"><a xlink:title=" ">
<path fill="none" stroke="#63b8ff" d="M866.57,-186.48C891.44,-191.12 920.89,-196.6 946.93,-201.44"/>
<polygon fill="#63b8ff" stroke="#63b8ff" points="946.28,-204.88 956.75,-203.27 947.56,-198 946.28,-204.88"/>
</a>
</g>
</g>
<!-- Node15 -->
<g id="Node000015" class="node">
<title>Node15</title>
<g id="a_Node000015"><a xlink:href="../../d8/d92/classLSM1x0A__Controller.html#a62476e30e50c7fe120aeb8df4b828675" target="_top" xlink:title="Synchronously/blockingly waits for an asynchronous event to occur. Useful for wrapping commands like ...">
<polygon fill="white" stroke="#666666" points="1068.38,-148 962.38,-148 962.38,-116 1068.38,-116 1068.38,-148"/>
<text text-anchor="start" x="970.38" y="-134.5" font-family="Helvetica,sans-Serif" font-size="10.00">LSM1x0A_Controller</text>
<text text-anchor="middle" x="1015.38" y="-122.5" font-family="Helvetica,sans-Serif" font-size="10.00">::waitForEvent</text>
</a>
</g>
</g>
<!-- Node9&#45;&gt;Node15 -->
<g id="edge19_Node000009_Node000015" class="edge">
<title>Node9&#45;&gt;Node15</title>
<g id="a_edge19_Node000009_Node000015"><a xlink:title=" ">
<path fill="none" stroke="#63b8ff" d="M858.88,-165.52C886.49,-159.57 921.36,-152.05 951.07,-145.65"/>
<polygon fill="#63b8ff" stroke="#63b8ff" points="951.67,-149.1 960.7,-143.57 950.19,-142.25 951.67,-149.1"/>
</a>
</g>
</g>
<!-- Node10&#45;&gt;Node3 -->
<g id="edge12_Node000010_Node000003" class="edge">
<title>Node10&#45;&gt;Node3</title>
<g id="a_edge12_Node000010_Node000003"><a xlink:title=" ">
<path fill="none" stroke="#63b8ff" d="M1217.07,-558.31C1203.31,-593.61 1170.41,-679.91 1148.25,-754 1128.98,-818.44 1165.17,-859.48 1112.25,-901 1044.5,-954.16 994.94,-940.65 918.5,-901 631.18,-751.97 493.22,-335.66 461.02,-225.19"/>
<polygon fill="#63b8ff" stroke="#63b8ff" points="464.45,-224.47 458.33,-215.82 457.72,-226.4 464.45,-224.47"/>
</a>
</g>
</g>
<!-- Node11 -->
<g id="Node000011" class="node">
<title>Node11</title>
<g id="a_Node000011"><a xlink:href="../../d6/d3c/classLSM1x0A__AtParser.html#a29b53c521974387ba6c03afadfaffa4a" target="_top" xlink:title="Sends a simple command and waits for OK/ERROR. Example: sendCommand(&quot;AT+JOIN&quot;);.">
<polygon fill="white" stroke="#666666" points="1511,-552 1336.75,-552 1336.75,-532 1511,-532 1511,-552"/>
<text text-anchor="middle" x="1423.88" y="-538.5" font-family="Helvetica,sans-Serif" font-size="10.00">LSM1x0A_AtParser::sendCommand</text>
</a>
</g>
</g>
<!-- Node10&#45;&gt;Node11 -->
<g id="edge13_Node000010_Node000011" class="edge">
<title>Node10&#45;&gt;Node11</title>
<g id="a_edge13_Node000010_Node000011"><a xlink:title=" ">
<path fill="none" stroke="#63b8ff" d="M1277.87,-542C1292.44,-542 1308.75,-542 1325.03,-542"/>
<polygon fill="#63b8ff" stroke="#63b8ff" points="1324.76,-545.5 1334.76,-542 1324.76,-538.5 1324.76,-545.5"/>
</a>
</g>
</g>
<!-- Node11&#45;&gt;Node12 -->
<g id="edge14_Node000011_Node000012" class="edge">
<title>Node11&#45;&gt;Node12</title>
<g id="a_edge14_Node000011_Node000012"><a xlink:title=" ">
<path fill="none" stroke="#63b8ff" d="M1432.78,-531.71C1462.69,-492.78 1569.43,-353.88 1613.69,-296.3"/>
<polygon fill="#63b8ff" stroke="#63b8ff" points="1616.23,-298.73 1619.55,-288.67 1610.68,-294.46 1616.23,-298.73"/>
</a>
</g>
</g>
<!-- Node13 -->
<g id="Node000013" class="node">
<title>Node13</title>
<g id="a_Node000013"><a xlink:href="../../d5/d8b/classUartDriver.html#a5d0f22e8867eebe99273078bb19bd23d" target="_top" xlink:title="Sends data through UART.">
<polygon fill="white" stroke="#666666" points="1866.25,-281 1757.25,-281 1757.25,-261 1866.25,-261 1866.25,-281"/>
<text text-anchor="middle" x="1811.75" y="-267.5" font-family="Helvetica,sans-Serif" font-size="10.00">UartDriver::sendData</text>
</a>
</g>
</g>
<!-- Node12&#45;&gt;Node13 -->
<g id="edge15_Node000012_Node000013" class="edge">
<title>Node12&#45;&gt;Node13</title>
<g id="a_edge15_Node000012_Node000013"><a xlink:title=" ">
<path fill="none" stroke="#63b8ff" d="M1721.65,-271C1729.8,-271 1737.95,-271 1745.85,-271"/>
<polygon fill="#63b8ff" stroke="#63b8ff" points="1745.68,-274.5 1755.68,-271 1745.68,-267.5 1745.68,-274.5"/>
</a>
</g>
</g>
<!-- Node14&#45;&gt;Node7 -->
<g id="edge17_Node000014_Node000007" class="edge">
<title>Node14&#45;&gt;Node7</title>
<g id="a_edge17_Node000014_Node000007"><a xlink:title=" ">
<path fill="none" stroke="#63b8ff" d="M1040.95,-203.56C1077.54,-188.01 1146.53,-158.7 1188.42,-140.9"/>
<polygon fill="#63b8ff" stroke="#63b8ff" points="1189.73,-144.15 1197.57,-137.02 1186.99,-137.71 1189.73,-144.15"/>
</a>
</g>
</g>
<!-- Node14&#45;&gt;Node10 -->
<g id="edge18_Node000014_Node000010" class="edge">
<title>Node14&#45;&gt;Node10</title>
<g id="a_edge18_Node000014_Node000010"><a xlink:title=" ">
<path fill="none" stroke="#63b8ff" d="M1099.13,-224.28C1103.83,-226.69 1108.26,-229.57 1112.25,-233 1198.58,-307.27 1217.92,-453.75 1222.25,-514.55"/>
<polygon fill="#63b8ff" stroke="#63b8ff" points="1218.75,-514.57 1222.86,-524.33 1225.73,-514.13 1218.75,-514.57"/>
</a>
</g>
</g>
<!-- Node16&#45;&gt;Node14 -->
<g id="edge25_Node000016_Node000014" class="edge">
<title>Node16&#45;&gt;Node14</title>
<g id="a_edge25_Node000016_Node000014"><a xlink:title=" ">
<path fill="none" stroke="#63b8ff" d="M811.05,-506.78C814.43,-457.25 831.7,-306.79 918.5,-233 919.63,-232.04 920.79,-231.13 921.98,-230.25"/>
<polygon fill="#63b8ff" stroke="#63b8ff" points="923.67,-233.33 930.37,-225.12 920.02,-227.35 923.67,-233.33"/>
</a>
</g>
</g>
<!-- Node17 -->
<g id="Node000017" class="node">
<title>Node17</title>
<g id="a_Node000017"><a xlink:href="../../d5/d72/classLSM1x0A__LoRaWAN.html#af0baa3db4c7fab580d6b19a9e92472f6" target="_top" xlink:title="Enables or disables Adaptive Data Rate (ADR).">
<polygon fill="white" stroke="#666666" points="1091.25,-350 939.5,-350 939.5,-330 1091.25,-330 1091.25,-350"/>
<text text-anchor="middle" x="1015.38" y="-336.5" font-family="Helvetica,sans-Serif" font-size="10.00">LSM1x0A_LoRaWAN::setADR</text>
</a>
</g>
</g>
<!-- Node16&#45;&gt;Node17 -->
<g id="edge21_Node000016_Node000017" class="edge">
<title>Node16&#45;&gt;Node17</title>
<g id="a_edge21_Node000016_Node000017"><a xlink:title=" ">
<path fill="none" stroke="#63b8ff" d="M816.06,-506.6C828.85,-473 862.85,-396.38 918.5,-359 921.77,-356.8 925.23,-354.85 928.83,-353.11"/>
<polygon fill="#63b8ff" stroke="#63b8ff" points="929.98,-356.42 937.87,-349.35 927.29,-349.96 929.98,-356.42"/>
</a>
</g>
</g>
<!-- Node18 -->
<g id="Node000018" class="node">
<title>Node18</title>
<g id="a_Node000018"><a xlink:href="../../d5/d72/classLSM1x0A__LoRaWAN.html#a5365ed1596eb84ebf1e3b33b4a10c788" target="_top" xlink:title="Sets the LoRaWAN operational frequency band.">
<polygon fill="white" stroke="#666666" points="1091.62,-312 939.12,-312 939.12,-292 1091.62,-292 1091.62,-312"/>
<text text-anchor="middle" x="1015.38" y="-298.5" font-family="Helvetica,sans-Serif" font-size="10.00">LSM1x0A_LoRaWAN::setBand</text>
</a>
</g>
</g>
<!-- Node16&#45;&gt;Node18 -->
<g id="edge23_Node000016_Node000018" class="edge">
<title>Node16&#45;&gt;Node18</title>
<g id="a_edge23_Node000016_Node000018"><a xlink:title=" ">
<path fill="none" stroke="#63b8ff" d="M813.97,-506.5C823.7,-467.43 853.74,-368.94 918.5,-321 921.66,-318.66 925.04,-316.58 928.57,-314.75"/>
<polygon fill="#63b8ff" stroke="#63b8ff" points="929.75,-318.05 937.47,-310.8 926.91,-311.66 929.75,-318.05"/>
</a>
</g>
</g>
<!-- Node19 -->
<g id="Node000019" class="node">
<title>Node19</title>
<g id="a_Node000019"><a xlink:href="../../d5/d72/classLSM1x0A__LoRaWAN.html#a9d9285c43414337a0ccb3a6cd7ca06e6" target="_top" xlink:title="Configures the number of retries for Confirmed uplinks.">
<polygon fill="white" stroke="#666666" points="1097.62,-274 933.12,-274 933.12,-242 1097.62,-242 1097.62,-274"/>
<text text-anchor="start" x="941.12" y="-260.5" font-family="Helvetica,sans-Serif" font-size="10.00">LSM1x0A_LoRaWAN::setConfirm</text>
<text text-anchor="middle" x="1015.38" y="-248.5" font-family="Helvetica,sans-Serif" font-size="10.00">Retry</text>
</a>
</g>
</g>
<!-- Node16&#45;&gt;Node19 -->
<g id="edge26_Node000016_Node000019" class="edge">
<title>Node16&#45;&gt;Node19</title>
<g id="a_edge26_Node000016_Node000019"><a xlink:title=" ">
<path fill="none" stroke="#63b8ff" d="M812.68,-506.7C820.05,-463.28 846.2,-344.03 918.5,-283 919.99,-281.74 921.54,-280.55 923.13,-279.41"/>
<polygon fill="#63b8ff" stroke="#63b8ff" points="924.75,-282.52 931.45,-274.32 921.1,-276.55 924.75,-282.52"/>
</a>
</g>
</g>
<!-- Node20 -->
<g id="Node000020" class="node">
<title>Node20</title>
<g id="a_Node000020"><a xlink:href="../../d5/d72/classLSM1x0A__LoRaWAN.html#a56345ceeafa0b9059d6de4e69eddc82e" target="_top" xlink:title="Sets the Data Rate (DR) of the module.">
<polygon fill="white" stroke="#666666" points="1101.38,-892 929.38,-892 929.38,-872 1101.38,-872 1101.38,-892"/>
<text text-anchor="middle" x="1015.38" y="-878.5" font-family="Helvetica,sans-Serif" font-size="10.00">LSM1x0A_LoRaWAN::setDataRate</text>
</a>
</g>
</g>
<!-- Node16&#45;&gt;Node20 -->
<g id="edge28_Node000016_Node000020" class="edge">
<title>Node16&#45;&gt;Node20</title>
<g id="a_edge28_Node000016_Node000020"><a xlink:title=" ">
<path fill="none" stroke="#63b8ff" d="M810.05,-539.16C810.29,-593.93 818.94,-774.06 918.5,-863 919.45,-863.85 920.42,-864.66 921.42,-865.44"/>
<polygon fill="#63b8ff" stroke="#63b8ff" points="919.45,-868.34 929.75,-870.83 923.25,-862.46 919.45,-868.34"/>
</a>
</g>
</g>
<!-- Node21 -->
<g id="Node000021" class="node">
<title>Node21</title>
<g id="a_Node000021"><a xlink:href="../../d5/d72/classLSM1x0A__LoRaWAN.html#a8494083816ab885cb07fc3b08de029f4" target="_top" xlink:title="Sets the LoRaWAN Device Address (DevAddr) for ABP mode.">
<polygon fill="white" stroke="#666666" points="1099.5,-854 931.25,-854 931.25,-834 1099.5,-834 1099.5,-854"/>
<text text-anchor="middle" x="1015.38" y="-840.5" font-family="Helvetica,sans-Serif" font-size="10.00">LSM1x0A_LoRaWAN::setDevAddr</text>
</a>
</g>
</g>
<!-- Node16&#45;&gt;Node21 -->
<g id="edge30_Node000016_Node000021" class="edge">
<title>Node16&#45;&gt;Node21</title>
<g id="a_edge30_Node000016_Node000021"><a xlink:title=" ">
<path fill="none" stroke="#63b8ff" d="M810.78,-539.15C813.37,-589.92 828.62,-747.57 918.5,-825 919.62,-825.97 920.78,-826.89 921.96,-827.77"/>
<polygon fill="#63b8ff" stroke="#63b8ff" points="919.98,-830.65 930.32,-832.93 923.65,-824.7 919.98,-830.65"/>
</a>
</g>
</g>
<!-- Node22 -->
<g id="Node000022" class="node">
<title>Node22</title>
<g id="a_Node000022"><a xlink:href="../../d5/d72/classLSM1x0A__LoRaWAN.html#ad320634e52d7ea907043cc50dd37c5b0" target="_top" xlink:title="Sets the LoRaWAN Device EUI (DevEUI).">
<polygon fill="white" stroke="#666666" points="1098,-816 932.75,-816 932.75,-796 1098,-796 1098,-816"/>
<text text-anchor="middle" x="1015.38" y="-802.5" font-family="Helvetica,sans-Serif" font-size="10.00">LSM1x0A_LoRaWAN::setDevEUI</text>
</a>
</g>
</g>
<!-- Node16&#45;&gt;Node22 -->
<g id="edge32_Node000016_Node000022" class="edge">
<title>Node16&#45;&gt;Node22</title>
<g id="a_edge32_Node000016_Node000022"><a xlink:title=" ">
<path fill="none" stroke="#63b8ff" d="M811.74,-539.44C816.89,-586.24 838.37,-721.05 918.5,-787 919.99,-788.22 921.53,-789.38 923.12,-790.46"/>
<polygon fill="#63b8ff" stroke="#63b8ff" points="920.98,-793.27 931.4,-795.21 924.47,-787.2 920.98,-793.27"/>
</a>
</g>
</g>
<!-- Node23 -->
<g id="Node000023" class="node">
<title>Node23</title>
<g id="a_Node000023"><a xlink:href="../../d5/d72/classLSM1x0A__LoRaWAN.html#a031023b0d2dd5db3c51c2db6ae7801cc" target="_top" xlink:title="Enables or disables the Duty Cycle limitation (EU regions mostly).">
<polygon fill="white" stroke="#666666" points="1090.88,-778 939.88,-778 939.88,-746 1090.88,-746 1090.88,-778"/>
<text text-anchor="start" x="947.88" y="-764.5" font-family="Helvetica,sans-Serif" font-size="10.00">LSM1x0A_LoRaWAN::setDuty</text>
<text text-anchor="middle" x="1015.38" y="-752.5" font-family="Helvetica,sans-Serif" font-size="10.00">Cycle</text>
</a>
</g>
</g>
<!-- Node16&#45;&gt;Node23 -->
<g id="edge34_Node000016_Node000023" class="edge">
<title>Node16&#45;&gt;Node23</title>
<g id="a_edge34_Node000016_Node000023"><a xlink:title=" ">
<path fill="none" stroke="#63b8ff" d="M813.65,-539.3C822.9,-579.44 852.39,-683.67 918.5,-737 921.94,-739.78 925.66,-742.25 929.56,-744.44"/>
<polygon fill="#63b8ff" stroke="#63b8ff" points="927.71,-747.44 938.23,-748.7 930.8,-741.15 927.71,-747.44"/>
</a>
</g>
</g>
<!-- Node24 -->
<g id="Node000024" class="node">
<title>Node24</title>
<g id="a_Node000024"><a xlink:href="../../d5/d72/classLSM1x0A__LoRaWAN.html#a6b179d5825c49af0f391dfc539912f64" target="_top" xlink:title="Sets the delay for the Join1 receive window.">
<polygon fill="white" stroke="#666666" points="1092,-728 938.75,-728 938.75,-696 1092,-696 1092,-728"/>
<text text-anchor="start" x="946.75" y="-714.5" font-family="Helvetica,sans-Serif" font-size="10.00">LSM1x0A_LoRaWAN::setJoin1</text>
<text text-anchor="middle" x="1015.38" y="-702.5" font-family="Helvetica,sans-Serif" font-size="10.00">Delay</text>
</a>
</g>
</g>
<!-- Node16&#45;&gt;Node24 -->
<g id="edge36_Node000016_Node000024" class="edge">
<title>Node16&#45;&gt;Node24</title>
<g id="a_edge36_Node000016_Node000024"><a xlink:title=" ">
<path fill="none" stroke="#63b8ff" d="M816.34,-539.39C829.56,-572.62 864.13,-648.08 918.5,-687 921.67,-689.27 925.04,-691.34 928.53,-693.21"/>
<polygon fill="#63b8ff" stroke="#63b8ff" points="926.78,-696.26 937.32,-697.38 929.78,-689.93 926.78,-696.26"/>
</a>
</g>
</g>
<!-- Node25 -->
<g id="Node000025" class="node">
<title>Node25</title>
<g id="a_Node000025"><a xlink:href="../../d5/d72/classLSM1x0A__LoRaWAN.html#a4545d0caad41558cdb9bae8286b104d8" target="_top" xlink:title="Sets the delay for the Join2 receive window.">
<polygon fill="white" stroke="#666666" points="1092,-678 938.75,-678 938.75,-646 1092,-646 1092,-678"/>
<text text-anchor="start" x="946.75" y="-664.5" font-family="Helvetica,sans-Serif" font-size="10.00">LSM1x0A_LoRaWAN::setJoin2</text>
<text text-anchor="middle" x="1015.38" y="-652.5" font-family="Helvetica,sans-Serif" font-size="10.00">Delay</text>
</a>
</g>
</g>
<!-- Node16&#45;&gt;Node25 -->
<g id="edge38_Node000016_Node000025" class="edge">
<title>Node16&#45;&gt;Node25</title>
<g id="a_edge38_Node000016_Node000025"><a xlink:title=" ">
<path fill="none" stroke="#63b8ff" d="M821.14,-539.33C838.65,-564.27 875.49,-611.61 918.5,-637 921.51,-638.78 924.65,-640.43 927.88,-641.97"/>
<polygon fill="#63b8ff" stroke="#63b8ff" points="926.48,-645.18 937.05,-645.9 929.24,-638.74 926.48,-645.18"/>
</a>
</g>
</g>
<!-- Node26 -->
<g id="Node000026" class="node">
<title>Node26</title>
<g id="a_Node000026"><a xlink:href="../../d5/d72/classLSM1x0A__LoRaWAN.html#a06bd50723ec1eb7e144c9141b2ec86fc" target="_top" xlink:title="Sets the LoRaWAN Network ID (NetID).">
<polygon fill="white" stroke="#666666" points="1095.75,-628 935,-628 935,-608 1095.75,-608 1095.75,-628"/>
<text text-anchor="middle" x="1015.38" y="-614.5" font-family="Helvetica,sans-Serif" font-size="10.00">LSM1x0A_LoRaWAN::setNwkID</text>
</a>
</g>
</g>
<!-- Node16&#45;&gt;Node26 -->
<g id="edge40_Node000016_Node000026" class="edge">
<title>Node16&#45;&gt;Node26</title>
<g id="a_edge40_Node000016_Node000026"><a xlink:title=" ">
<path fill="none" stroke="#63b8ff" d="M828.35,-539.34C848.76,-556.84 883.66,-584.11 918.5,-599 923.1,-600.97 927.91,-602.73 932.83,-604.32"/>
<polygon fill="#63b8ff" stroke="#63b8ff" points="931.67,-607.63 942.26,-607.08 933.64,-600.91 931.67,-607.63"/>
</a>
</g>
</g>
<!-- Node27 -->
<g id="Node000027" class="node">
<title>Node27</title>
<g id="a_Node000027"><a xlink:href="../../d5/d72/classLSM1x0A__LoRaWAN.html#aa70ada64d28ecca216bb62268e502adf" target="_top" xlink:title="Sets the delay for the RX1 receive window.">
<polygon fill="white" stroke="#666666" points="1102.12,-590 928.62,-590 928.62,-570 1102.12,-570 1102.12,-590"/>
<text text-anchor="middle" x="1015.38" y="-576.5" font-family="Helvetica,sans-Serif" font-size="10.00">LSM1x0A_LoRaWAN::setRx1Delay</text>
</a>
</g>
</g>
<!-- Node16&#45;&gt;Node27 -->
<g id="edge42_Node000016_Node000027" class="edge">
<title>Node16&#45;&gt;Node27</title>
<g id="a_edge42_Node000016_Node000027"><a xlink:title=" ">
<path fill="none" stroke="#63b8ff" d="M852.74,-539.49C872.52,-546.76 896.5,-554.99 918.5,-561 926.58,-563.21 935.11,-565.27 943.62,-567.16"/>
<polygon fill="#63b8ff" stroke="#63b8ff" points="942.75,-570.55 953.26,-569.23 944.22,-563.71 942.75,-570.55"/>
</a>
</g>
</g>
<!-- Node28 -->
<g id="Node000028" class="node">
<title>Node28</title>
<g id="a_Node000028"><a xlink:href="../../d5/d72/classLSM1x0A__LoRaWAN.html#a2cf4eff0181b6107d082bccefa24217b" target="_top" xlink:title="Sets the Data Rate (DR) specifically for the RX2 window.">
<polygon fill="white" stroke="#666666" points="1110.38,-552 920.38,-552 920.38,-532 1110.38,-532 1110.38,-552"/>
<text text-anchor="middle" x="1015.38" y="-538.5" font-family="Helvetica,sans-Serif" font-size="10.00">LSM1x0A_LoRaWAN::setRx2DataRate</text>
</a>
</g>
</g>
<!-- Node16&#45;&gt;Node28 -->
<g id="edge44_Node000016_Node000028" class="edge">
<title>Node16&#45;&gt;Node28</title>
<g id="a_edge44_Node000016_Node000028"><a xlink:title=" ">
<path fill="none" stroke="#63b8ff" d="M882.79,-529.75C891.16,-530.53 899.81,-531.34 908.51,-532.15"/>
<polygon fill="#63b8ff" stroke="#63b8ff" points="908.14,-535.63 918.43,-533.07 908.79,-528.66 908.14,-535.63"/>
</a>
</g>
</g>
<!-- Node29 -->
<g id="Node000029" class="node">
<title>Node29</title>
<g id="a_Node000029"><a xlink:href="../../d5/d72/classLSM1x0A__LoRaWAN.html#a42d2137b475b57e19d891a5f1ac93221" target="_top" xlink:title="Sets the delay for the RX2 receive window.">
<polygon fill="white" stroke="#666666" points="1102.12,-514 928.62,-514 928.62,-494 1102.12,-494 1102.12,-514"/>
<text text-anchor="middle" x="1015.38" y="-500.5" font-family="Helvetica,sans-Serif" font-size="10.00">LSM1x0A_LoRaWAN::setRx2Delay</text>
</a>
</g>
</g>
<!-- Node16&#45;&gt;Node29 -->
<g id="edge46_Node000016_Node000029" class="edge">
<title>Node16&#45;&gt;Node29</title>
<g id="a_edge46_Node000016_Node000029"><a xlink:title=" ">
<path fill="none" stroke="#63b8ff" d="M882.79,-516.25C893.99,-515.21 905.72,-514.11 917.35,-513.03"/>
<polygon fill="#63b8ff" stroke="#63b8ff" points="917.32,-516.55 926.95,-512.14 916.67,-509.58 917.32,-516.55"/>
</a>
</g>
</g>
<!-- Node30 -->
<g id="Node000030" class="node">
<title>Node30</title>
<g id="a_Node000030"><a xlink:href="../../d5/d72/classLSM1x0A__LoRaWAN.html#a689f7dfda1dfeae11ea397c2ddf2ad37" target="_top" xlink:title="Sets the precise frequency for the RX2 window.">
<polygon fill="white" stroke="#666666" points="1112.25,-476 918.5,-476 918.5,-456 1112.25,-456 1112.25,-476"/>
<text text-anchor="middle" x="1015.38" y="-462.5" font-family="Helvetica,sans-Serif" font-size="10.00">LSM1x0A_LoRaWAN::setRx2Frequency</text>
</a>
</g>
</g>
<!-- Node16&#45;&gt;Node30 -->
<g id="edge48_Node000016_Node000030" class="edge">
<title>Node16&#45;&gt;Node30</title>
<g id="a_edge48_Node000016_Node000030"><a xlink:title=" ">
<path fill="none" stroke="#63b8ff" d="M852.74,-506.51C872.52,-499.24 896.5,-491.01 918.5,-485 926.58,-482.79 935.11,-480.73 943.62,-478.84"/>
<polygon fill="#63b8ff" stroke="#63b8ff" points="944.22,-482.29 953.26,-476.77 942.75,-475.45 944.22,-482.29"/>
</a>
</g>
</g>
<!-- Node31 -->
<g id="Node000031" class="node">
<title>Node31</title>
<g id="a_Node000031"><a xlink:href="../../d5/d72/classLSM1x0A__LoRaWAN.html#a1df10d7ae6bf45b537d28d3d5c4b88d7" target="_top" xlink:title="Sets the transmission power index.">
<polygon fill="white" stroke="#666666" points="1099.88,-438 930.88,-438 930.88,-418 1099.88,-418 1099.88,-438"/>
<text text-anchor="middle" x="1015.38" y="-424.5" font-family="Helvetica,sans-Serif" font-size="10.00">LSM1x0A_LoRaWAN::setTxPower</text>
</a>
</g>
</g>
<!-- Node16&#45;&gt;Node31 -->
<g id="edge50_Node000016_Node000031" class="edge">
<title>Node16&#45;&gt;Node31</title>
<g id="a_edge50_Node000016_Node000031"><a xlink:title=" ">
<path fill="none" stroke="#63b8ff" d="M828.35,-506.66C848.76,-489.16 883.66,-461.89 918.5,-447 923.1,-445.03 927.91,-443.27 932.83,-441.68"/>
<polygon fill="#63b8ff" stroke="#63b8ff" points="933.64,-445.09 942.26,-438.92 931.67,-438.37 933.64,-445.09"/>
</a>
</g>
</g>
<!-- Node32 -->
<g id="Node000032" class="node">
<title>Node32</title>
<g id="a_Node000032"><a xlink:href="../../d5/d72/classLSM1x0A__LoRaWAN.html#a059fd6a9356c4ecadd5a98294da5952d" target="_top" xlink:title="Configures the number of repetitions for Unconfirmed uplinks.">
<polygon fill="white" stroke="#666666" points="1102.88,-400 927.88,-400 927.88,-368 1102.88,-368 1102.88,-400"/>
<text text-anchor="start" x="935.88" y="-386.5" font-family="Helvetica,sans-Serif" font-size="10.00">LSM1x0A_LoRaWAN::setUnconfirm</text>
<text text-anchor="middle" x="1015.38" y="-374.5" font-family="Helvetica,sans-Serif" font-size="10.00">Retry</text>
</a>
</g>
</g>
<!-- Node16&#45;&gt;Node32 -->
<g id="edge52_Node000016_Node000032" class="edge">
<title>Node16&#45;&gt;Node32</title>
<g id="a_edge52_Node000016_Node000032"><a xlink:title=" ">
<path fill="none" stroke="#63b8ff" d="M821.14,-506.67C838.65,-481.73 875.49,-434.39 918.5,-409 920.81,-407.64 923.2,-406.34 925.64,-405.12"/>
<polygon fill="#63b8ff" stroke="#63b8ff" points="926.9,-408.4 934.58,-401.1 924.03,-402.01 926.9,-408.4"/>
</a>
</g>
</g>
<!-- Node17&#45;&gt;Node10 -->
<g id="edge22_Node000017_Node000010" class="edge">
<title>Node17&#45;&gt;Node10</title>
<g id="a_edge22_Node000017_Node000010"><a xlink:title=" ">
<path fill="none" stroke="#63b8ff" d="M1091.65,-348.53C1098.97,-351.2 1105.99,-354.62 1112.25,-359 1167.84,-397.86 1200.69,-474.26 1214.99,-514.97"/>
<polygon fill="#63b8ff" stroke="#63b8ff" points="1211.61,-515.89 1218.12,-524.24 1218.24,-513.65 1211.61,-515.89"/>
</a>
</g>
</g>
<!-- Node18&#45;&gt;Node10 -->
<g id="edge24_Node000018_Node000010" class="edge">
<title>Node18&#45;&gt;Node10</title>
<g id="a_edge24_Node000018_Node000010"><a xlink:title=" ">
<path fill="none" stroke="#63b8ff" d="M1092.02,-310.03C1099.27,-312.79 1106.17,-316.38 1112.25,-321 1176.87,-370.13 1206.71,-467.16 1217.91,-514.6"/>
<polygon fill="#63b8ff" stroke="#63b8ff" points="1214.42,-515.06 1220.03,-524.05 1221.25,-513.53 1214.42,-515.06"/>
</a>
</g>
</g>
<!-- Node19&#45;&gt;Node10 -->
<g id="edge27_Node000019_Node000010" class="edge">
<title>Node19&#45;&gt;Node10</title>
<g id="a_edge27_Node000019_Node000010"><a xlink:title=" ">
<path fill="none" stroke="#63b8ff" d="M1098.08,-273.44C1103.16,-276.14 1107.95,-279.3 1112.25,-283 1184.2,-344.86 1210.98,-461.59 1219.74,-514.59"/>
<polygon fill="#63b8ff" stroke="#63b8ff" points="1216.25,-514.92 1221.24,-524.26 1223.17,-513.84 1216.25,-514.92"/>
</a>
</g>
</g>
<!-- Node20&#45;&gt;Node10 -->
<g id="edge29_Node000020_Node000010" class="edge">
<title>Node20&#45;&gt;Node10</title>
<g id="a_edge29_Node000020_Node000010"><a xlink:title=" ">
<path fill="none" stroke="#63b8ff" d="M1099.69,-871.6C1104.2,-869.21 1108.44,-866.37 1112.25,-863 1150.48,-829.22 1131.72,-802.26 1148.25,-754 1171.06,-687.42 1199.05,-609.52 1213.62,-569.23"/>
<polygon fill="#63b8ff" stroke="#63b8ff" points="1216.89,-570.47 1217.01,-559.87 1210.31,-568.08 1216.89,-570.47"/>
</a>
</g>
</g>
<!-- Node21&#45;&gt;Node10 -->
<g id="edge31_Node000021_Node000010" class="edge">
<title>Node21&#45;&gt;Node10</title>
<g id="a_edge31_Node000021_Node000010"><a xlink:title=" ">
<path fill="none" stroke="#63b8ff" d="M1099.02,-833.58C1103.75,-831.21 1108.21,-828.37 1112.25,-825 1133.03,-807.64 1191.94,-636.39 1214.53,-569.02"/>
<polygon fill="#63b8ff" stroke="#63b8ff" points="1217.74,-570.45 1217.59,-559.86 1211.1,-568.24 1217.74,-570.45"/>
</a>
</g>
</g>
<!-- Node22&#45;&gt;Node10 -->
<g id="edge33_Node000022_Node000010" class="edge">
<title>Node22&#45;&gt;Node10</title>
<g id="a_edge33_Node000022_Node000010"><a xlink:title=" ">
<path fill="none" stroke="#63b8ff" d="M1098.36,-795.56C1103.3,-793.2 1107.99,-790.37 1112.25,-787 1182.75,-731.13 1210.14,-620.69 1219.38,-569.39"/>
<polygon fill="#63b8ff" stroke="#63b8ff" points="1222.79,-570.18 1221.01,-559.74 1215.89,-569.01 1222.79,-570.18"/>
</a>
</g>
</g>
<!-- Node23&#45;&gt;Node10 -->
<g id="edge35_Node000023_Node000010" class="edge">
<title>Node23&#45;&gt;Node10</title>
<g id="a_edge35_Node000023_Node000010"><a xlink:title=" ">
<path fill="none" stroke="#63b8ff" d="M1090.91,-749.05C1098.54,-745.87 1105.83,-741.92 1112.25,-737 1169.24,-693.34 1201.81,-611.57 1215.6,-569.12"/>
<polygon fill="#63b8ff" stroke="#63b8ff" points="1218.9,-570.29 1218.55,-559.7 1212.22,-568.2 1218.9,-570.29"/>
</a>
</g>
</g>
<!-- Node24&#45;&gt;Node10 -->
<g id="edge37_Node000024_Node000010" class="edge">
<title>Node24&#45;&gt;Node10</title>
<g id="a_edge37_Node000024_Node000010"><a xlink:title=" ">
<path fill="none" stroke="#63b8ff" d="M1092.24,-697.37C1099.29,-694.51 1106.09,-691.09 1112.25,-687 1158.06,-656.61 1192.82,-600.94 1210.5,-568.13"/>
<polygon fill="#63b8ff" stroke="#63b8ff" points="1213.39,-570.16 1214.93,-559.68 1207.19,-566.91 1213.39,-570.16"/>
</a>
</g>
</g>
<!-- Node25&#45;&gt;Node10 -->
<g id="edge39_Node000025_Node000010" class="edge">
<title>Node25&#45;&gt;Node10</title>
<g id="a_edge39_Node000025_Node000010"><a xlink:title=" ">
<path fill="none" stroke="#63b8ff" d="M1092.43,-645.62C1099.29,-643.12 1106,-640.26 1112.25,-637 1147.04,-618.85 1180.35,-588.01 1201.31,-566.4"/>
<polygon fill="#63b8ff" stroke="#63b8ff" points="1203.58,-569.1 1207.93,-559.44 1198.5,-564.27 1203.58,-569.1"/>
</a>
</g>
</g>
<!-- Node26&#45;&gt;Node10 -->
<g id="edge41_Node000026_Node000010" class="edge">
<title>Node26&#45;&gt;Node10</title>
<g id="a_edge41_Node000026_Node000010"><a xlink:title=" ">
<path fill="none" stroke="#63b8ff" d="M1082.01,-607.52C1092.26,-605.16 1102.63,-602.34 1112.25,-599 1138.32,-589.94 1165.95,-575.81 1187.15,-563.89"/>
<polygon fill="#63b8ff" stroke="#63b8ff" points="1188.75,-567 1195.69,-559 1185.27,-560.93 1188.75,-567"/>
</a>
</g>
</g>
<!-- Node27&#45;&gt;Node10 -->
<g id="edge43_Node000027_Node000010" class="edge">
<title>Node27&#45;&gt;Node10</title>
<g id="a_edge43_Node000027_Node000010"><a xlink:title=" ">
<path fill="none" stroke="#63b8ff" d="M1073.52,-569.52C1100.36,-564.59 1132.44,-558.71 1160.03,-553.64"/>
<polygon fill="#63b8ff" stroke="#63b8ff" points="1160.46,-557.12 1169.66,-551.88 1159.19,-550.24 1160.46,-557.12"/>
</a>
</g>
</g>
<!-- Node28&#45;&gt;Node10 -->
<g id="edge45_Node000028_Node000010" class="edge">
<title>Node28&#45;&gt;Node10</title>
<g id="a_edge45_Node000028_Node000010"><a xlink:title=" ">
<path fill="none" stroke="#63b8ff" d="M1110.85,-542C1127.34,-542 1144.14,-542 1159.57,-542"/>
<polygon fill="#63b8ff" stroke="#63b8ff" points="1159.55,-545.5 1169.55,-542 1159.55,-538.5 1159.55,-545.5"/>
</a>
</g>
</g>
<!-- Node29&#45;&gt;Node10 -->
<g id="edge47_Node000029_Node000010" class="edge">
<title>Node29&#45;&gt;Node10</title>
<g id="a_edge47_Node000029_Node000010"><a xlink:title=" ">
<path fill="none" stroke="#63b8ff" d="M1073.52,-514.48C1100.36,-519.41 1132.44,-525.29 1160.03,-530.36"/>
<polygon fill="#63b8ff" stroke="#63b8ff" points="1159.19,-533.76 1169.66,-532.12 1160.46,-526.88 1159.19,-533.76"/>
</a>
</g>
</g>
<!-- Node30&#45;&gt;Node10 -->
<g id="edge49_Node000030_Node000010" class="edge">
<title>Node30&#45;&gt;Node10</title>
<g id="a_edge49_Node000030_Node000010"><a xlink:title=" ">
<path fill="none" stroke="#63b8ff" d="M1082.01,-476.48C1092.26,-478.84 1102.63,-481.66 1112.25,-485 1138.32,-494.06 1165.95,-508.19 1187.15,-520.11"/>
<polygon fill="#63b8ff" stroke="#63b8ff" points="1185.27,-523.07 1195.69,-525 1188.75,-517 1185.27,-523.07"/>
</a>
</g>
</g>
<!-- Node31&#45;&gt;Node10 -->
<g id="edge51_Node000031_Node000010" class="edge">
<title>Node31&#45;&gt;Node10</title>
<g id="a_edge51_Node000031_Node000010"><a xlink:title=" ">
<path fill="none" stroke="#63b8ff" d="M1089.64,-438.43C1097.46,-440.74 1105.15,-443.56 1112.25,-447 1147.76,-464.21 1181.15,-495.52 1201.91,-517.48"/>
<polygon fill="#63b8ff" stroke="#63b8ff" points="1199.1,-519.6 1208.46,-524.57 1204.24,-514.85 1199.1,-519.6"/>
</a>
</g>
</g>
<!-- Node32&#45;&gt;Node10 -->
<g id="edge53_Node000032_Node000010" class="edge">
<title>Node32&#45;&gt;Node10</title>
<g id="a_edge53_Node000032_Node000010"><a xlink:title=" ">
<path fill="none" stroke="#63b8ff" d="M1095.5,-400.31C1101.36,-402.81 1107.02,-405.69 1112.25,-409 1155.24,-436.23 1189.97,-485.5 1208.6,-515.83"/>
<polygon fill="#63b8ff" stroke="#63b8ff" points="1205.59,-517.61 1213.73,-524.4 1211.6,-514.02 1205.59,-517.61"/>
</a>
</g>
</g>
<!-- Node34&#45;&gt;Node11 -->
<g id="edge56_Node000034_Node000011" class="edge">
<title>Node34&#45;&gt;Node11</title>
<g id="a_edge56_Node000034_Node000011"><a xlink:title=" ">
<path fill="none" stroke="#63b8ff" d="M1239.07,-762.71C1274.44,-720.24 1369.34,-606.28 1407.08,-560.97"/>
<polygon fill="#63b8ff" stroke="#63b8ff" points="1409.55,-563.47 1413.26,-553.55 1404.17,-558.99 1409.55,-563.47"/>
</a>
</g>
</g>
</g>
</svg>
