<?xml version="1.0" encoding="UTF-8" standalone="no"?>
<!DOCTYPE svg PUBLIC "-//W3C//DTD SVG 1.1//EN"
 "http://www.w3.org/Graphics/SVG/1.1/DTD/svg11.dtd">
<!-- Generated by graphviz version 12.2.1 (20241206.2353)
 -->
<!-- Title: LSM1x0A_LoRaWAN::getDataRate Pages: 1 -->
<!--zoomable 1018 -->

<svg id="main" version="1.1" xmlns="http://www.w3.org/2000/svg" xmlns:xlink="http://www.w3.org/1999/xlink" xml:space="preserve" onload="init(evt)">
<style type="text/css"><![CDATA[
.node, .edge {opacity: 0.7;}
.node.selected, .edge.selected {opacity: 1;}
.edge:hover path { stroke: red; }
.edge:hover polygon { stroke: red; fill: red; }
]]></style>

<defs>
  <circle id="rim" cx="0" cy="0" r="7"/>
  <circle id="rim2" cx="0" cy="0" r="3.5"/>
  <g id="zoomPlus">
    <use xlink:href="#rim" fill="#404040"><set attributeName="fill" to="#808080" begin="zoomplus.mouseover" end="zoomplus.mouseout"/></use>
    <path d="M-4,0h8M0,-4v8" fill="none" stroke="white" stroke-width="1.5" pointer-events="none"/>
  </g>
  <g id="zoomMin">
    <use xlink:href="#rim" fill="#404040"><set attributeName="fill" to="#808080" begin="zoomminus.mouseover" end="zoomminus.mouseout"/></use>
    <path d="M-4,0h8" fill="none" stroke="white" stroke-width="1.5" pointer-events="none"/>
  </g>
  <g id="arrowUp" transform="translate(30 24)">
    <use xlink:href="#rim"/>
    <path pointer-events="none" fill="none" stroke="white" stroke-width="1.5" d="M0,-3.0v7 M-2.5,-0.5L0,-3.0L2.5,-0.5"/>
  </g>
  <g id="arrowRight" transform="rotate(90) translate(36 -43)">
    <use xlink:href="#rim"/>
    <path pointer-events="none" fill="none" stroke="white" stroke-width="1.5" d="M0,-3.0v7 M-2.5,-0.5L0,-3.0L2.5,-0.5"/>
  </g>
  <g id="arrowDown" transform="rotate(180) translate(-30 -48)">
    <use xlink:href="#rim"/>
    <path pointer-events="none" fill="none" stroke="white" stroke-width="1.5" d="M0,-3.0v7 M-2.5,-0.5L0,-3.0L2.5,-0.5"/>
  </g>
  <g id="arrowLeft" transform="rotate(270) translate(-36 17)">
    <use xlink:href="#rim"/>
    <path pointer-events="none" fill="none" stroke="white" stroke-width="1.5" d="M0,-3.0v7 M-2.5,-0.5L0,-3.0L2.5,-0.5"/>
  </g>
  <g id="resetDef">
    <use xlink:href="#rim2" fill="#404040"><set attributeName="fill" to="#808080" begin="reset.mouseover" end="reset.mouseout"/></use>
  </g>
</defs>
<script type="application/ecmascript">
var viewWidth = 1871;
var viewHeight = 1018;
var sectionId = 'dynsection-14';
</script>
<script type="application/ecmascript" xlink:href="../../svg.min.js"/>
<svg id="graph" class="graph">
<g id="viewport">
<title>LSM1x0A_LoRaWAN::getDataRate</title>
<!-- Node1 -->
<g id="Node000001" class="node">
<title>Node1</title>
<g id="a_Node000001"><a xlink:title="Retrieves the current operational Data Rate.">
<polygon fill="#999999" stroke="#666666" points="172,-98 0,-98 0,-78 172,-78 172,-98"/>
<text text-anchor="middle" x="86" y="-84.5" font-family="Helvetica,sans-Serif" font-size="10.00">LSM1x0A_LoRaWAN::getDataRate</text>
</a>
</g>
</g>
<!-- Node2 -->
<g id="Node000002" class="node">
<title>Node2</title>
<g id="a_Node000002"><a xlink:href="../../d8/d92/classLSM1x0A__Controller.html#ab00328d1be83aa51bce8c2a4f907c5f4" target="_top" xlink:title="Sends an AT command and captures its response in a text block. Ideal for getters (e....">
<polygon fill="white" stroke="#666666" points="360.5,-104 208,-104 208,-72 360.5,-72 360.5,-104"/>
<text text-anchor="start" x="216" y="-90.5" font-family="Helvetica,sans-Serif" font-size="10.00">LSM1x0A_Controller</text>
<text text-anchor="middle" x="284.25" y="-78.5" font-family="Helvetica,sans-Serif" font-size="10.00">::sendCommandWithResponse</text>
</a>
</g>
</g>
<!-- Node1&#45;&gt;Node2 -->
<g id="edge1_Node000001_Node000002" class="edge">
<title>Node1&#45;&gt;Node2</title>
<g id="a_edge1_Node000001_Node000002"><a xlink:title=" ">
<path fill="none" stroke="#63b8ff" d="M172.22,-88C180.24,-88 188.37,-88 196.4,-88"/>
<polygon fill="#63b8ff" stroke="#63b8ff" points="196.15,-91.5 206.15,-88 196.15,-84.5 196.15,-91.5"/>
</a>
</g>
</g>
<!-- Node3 -->
<g id="Node000003" class="node">
<title>Node3</title>
<g id="a_Node000003"><a xlink:href="../../d8/d92/classLSM1x0A__Controller.html#abb0eb380daa3dfb7acffb483c5db8e2b" target="_top" xlink:title="Executes the recovery protocol. First Soft&#45;Reset (ATZ), then Hard&#45;Reset if there is a pin.">
<polygon fill="white" stroke="#666666" points="502.5,-214 396.5,-214 396.5,-182 502.5,-182 502.5,-214"/>
<text text-anchor="start" x="404.5" y="-200.5" font-family="Helvetica,sans-Serif" font-size="10.00">LSM1x0A_Controller</text>
<text text-anchor="middle" x="449.5" y="-188.5" font-family="Helvetica,sans-Serif" font-size="10.00">::recoverModule</text>
</a>
</g>
</g>
<!-- Node2&#45;&gt;Node3 -->
<g id="edge2_Node000002_Node000003" class="edge">
<title>Node2&#45;&gt;Node3</title>
<g id="a_edge2_Node000002_Node000003"><a xlink:title=" ">
<path fill="none" stroke="#63b8ff" d="M309.69,-104.47C337.66,-123.32 383.64,-154.29 414.95,-175.39"/>
<polygon fill="#63b8ff" stroke="#63b8ff" points="412.66,-178.07 422.9,-180.75 416.57,-172.26 412.66,-178.07"/>
</a>
</g>
</g>
<!-- Node12 -->
<g id="Node000012" class="node">
<title>Node12</title>
<g id="a_Node000012"><a xlink:href="../../d6/d3c/classLSM1x0A__AtParser.html#a0ba6f927c54fceece22c17773d3f2600" target="_top" xlink:title="Sends a command and extracts a value from the response.">
<polygon fill="white" stroke="#666666" points="1718.25,-287 1544,-287 1544,-255 1718.25,-255 1718.25,-287"/>
<text text-anchor="start" x="1552" y="-273.5" font-family="Helvetica,sans-Serif" font-size="10.00">LSM1x0A_AtParser::sendCommand</text>
<text text-anchor="middle" x="1631.12" y="-261.5" font-family="Helvetica,sans-Serif" font-size="10.00">WithResponse</text>
</a>
</g>
</g>
<!-- Node2&#45;&gt;Node12 -->
<g id="edge57_Node000002_Node000012" class="edge">
<title>Node2&#45;&gt;Node12</title>
<g id="a_edge57_Node000002_Node000012"><a xlink:title=" ">
<path fill="none" stroke="#63b8ff" d="M321.69,-71.65C381.86,-46.21 506.29,0 616.75,0 616.75,0 616.75,0 1222.5,0 1399.44,0 1558.2,-179.26 1611.31,-246.19"/>
<polygon fill="#63b8ff" stroke="#63b8ff" points="1608.24,-247.95 1617.16,-253.67 1613.75,-243.64 1608.24,-247.95"/>
</a>
</g>
</g>
<!-- Node4 -->
<g id="Node000004" class="node">
<title>Node4</title>
<g id="a_Node000004"><a xlink:href="../../d8/d92/classLSM1x0A__Controller.html#a3f6f25b843fe4fb7042c544deae2ab16" target="_top" xlink:title="Manually clears bits from the internal EventGroup.">
<polygon fill="white" stroke="#666666" points="1065.38,-98 959.38,-98 959.38,-66 1065.38,-66 1065.38,-98"/>
<text text-anchor="start" x="967.38" y="-84.5" font-family="Helvetica,sans-Serif" font-size="10.00">LSM1x0A_Controller</text>
<text text-anchor="middle" x="1012.38" y="-72.5" font-family="Helvetica,sans-Serif" font-size="10.00">::clearEvents</text>
</a>
</g>
</g>
<!-- Node3&#45;&gt;Node4 -->
<g id="edge3_Node000003_Node000004" class="edge">
<title>Node3&#45;&gt;Node4</title>
<g id="a_edge3_Node000003_Node000004"><a xlink:title=" ">
<path fill="none" stroke="#63b8ff" d="M475.18,-181.53C492.23,-171 515.84,-158.03 538.5,-151 684.15,-105.82 729.23,-138.94 879.5,-113 902,-109.12 926.4,-103.72 948.02,-98.52"/>
<polygon fill="#63b8ff" stroke="#63b8ff" points="948.7,-101.96 957.58,-96.18 947.03,-95.16 948.7,-101.96"/>
</a>
</g>
</g>
<!-- Node5 -->
<g id="Node000005" class="node">
<title>Node5</title>
<g id="a_Node000005"><a xlink:href="../../d8/d92/classLSM1x0A__Controller.html#a345d4bd79fa16b18dc33a4ca788fe5f7" target="_top" xlink:title="Performs a hardware reset using the reset pin.">
<polygon fill="white" stroke="#666666" points="670.75,-104 564.75,-104 564.75,-72 670.75,-72 670.75,-104"/>
<text text-anchor="start" x="572.75" y="-90.5" font-family="Helvetica,sans-Serif" font-size="10.00">LSM1x0A_Controller</text>
<text text-anchor="middle" x="617.75" y="-78.5" font-family="Helvetica,sans-Serif" font-size="10.00">::hardwareReset</text>
</a>
</g>
</g>
<!-- Node3&#45;&gt;Node5 -->
<g id="edge4_Node000003_Node000005" class="edge">
<title>Node3&#45;&gt;Node5</title>
<g id="a_edge4_Node000003_Node000005"><a xlink:title=" ">
<path fill="none" stroke="#63b8ff" d="M464.96,-181.63C481.32,-163.93 509.49,-135.86 538.5,-118 543.77,-114.76 549.44,-111.77 555.24,-109.03"/>
<polygon fill="#63b8ff" stroke="#63b8ff" points="556.64,-112.24 564.38,-104.99 553.81,-105.83 556.64,-112.24"/>
</a>
</g>
</g>
<!-- Node7 -->
<g id="Node000007" class="node">
<title>Node7</title>
<g id="a_Node000007"><a xlink:href="../../d5/d72/classLSM1x0A__LoRaWAN.html#a1892801e37c8cd67d37c76108d6f7d49" target="_top" xlink:title="Validates if the device is currently Joined to the network. (Either confirmed by OTAA or statically a...">
<polygon fill="white" stroke="#666666" points="1297.75,-136 1145.25,-136 1145.25,-116 1297.75,-116 1297.75,-136"/>
<text text-anchor="middle" x="1221.5" y="-122.5" font-family="Helvetica,sans-Serif" font-size="10.00">LSM1x0A_LoRaWAN::isJoined</text>
</a>
</g>
</g>
<!-- Node3&#45;&gt;Node7 -->
<g id="edge6_Node000003_Node000007" class="edge">
<title>Node3&#45;&gt;Node7</title>
<g id="a_edge6_Node000003_Node000007"><a xlink:title=" ">
<path fill="none" stroke="#63b8ff" d="M455.43,-181.77C465.49,-151.92 491.48,-88.97 538.5,-63 649.54,-1.69 987.26,-22.24 1109.25,-57 1144.32,-66.99 1179.12,-91.56 1200.22,-108.51"/>
<polygon fill="#63b8ff" stroke="#63b8ff" points="1197.8,-111.05 1207.74,-114.72 1202.26,-105.65 1197.8,-111.05"/>
</a>
</g>
</g>
<!-- Node8 -->
<g id="Node000008" class="node">
<title>Node8</title>
<g id="a_Node000008"><a xlink:href="../../d5/d72/classLSM1x0A__LoRaWAN.html#a83e11c0e74ff9e0757db616ab1163424" target="_top" xlink:title="Attempts to recover a lost connection (re&#45;executes OTAA Join if dropped).">
<polygon fill="white" stroke="#666666" points="692.12,-192 543.38,-192 543.38,-160 692.12,-160 692.12,-192"/>
<text text-anchor="start" x="551.38" y="-178.5" font-family="Helvetica,sans-Serif" font-size="10.00">LSM1x0A_LoRaWAN::recover</text>
<text text-anchor="middle" x="617.75" y="-166.5" font-family="Helvetica,sans-Serif" font-size="10.00">Connection</text>
</a>
</g>
</g>
<!-- Node3&#45;&gt;Node8 -->
<g id="edge7_Node000003_Node000008" class="edge">
<title>Node3&#45;&gt;Node8</title>
<g id="a_edge7_Node000003_Node000008"><a xlink:title=" ">
<path fill="none" stroke="#63b8ff" d="M502.65,-191.1C511.99,-189.86 521.94,-188.55 531.92,-187.23"/>
<polygon fill="#63b8ff" stroke="#63b8ff" points="532.22,-190.72 541.67,-185.94 531.3,-183.78 532.22,-190.72"/>
</a>
</g>
</g>
<!-- Node16 -->
<g id="Node000016" class="node">
<title>Node16</title>
<g id="a_Node000016"><a xlink:href="../../d5/d72/classLSM1x0A__LoRaWAN.html#ae3be4ce59dfa200369733317df356e97" target="_top" xlink:title="Pushes the RAM&#45;cached variables back down into the hardware module. Restores the operational state af...">
<polygon fill="white" stroke="#666666" points="879.5,-539 733,-539 733,-507 879.5,-507 879.5,-539"/>
<text text-anchor="start" x="741" y="-525.5" font-family="Helvetica,sans-Serif" font-size="10.00">LSM1x0A_LoRaWAN::restore</text>
<text text-anchor="middle" x="806.25" y="-513.5" font-family="Helvetica,sans-Serif" font-size="10.00">Config</text>
</a>
</g>
</g>
<!-- Node3&#45;&gt;Node16 -->
<g id="edge20_Node000003_Node000016" class="edge">
<title>Node3&#45;&gt;Node16</title>
<g id="a_edge20_Node000003_Node000016"><a xlink:title=" ">
<path fill="none" stroke="#63b8ff" d="M468.09,-214.12C526.01,-267.18 710.94,-436.6 779.42,-499.34"/>
<polygon fill="#63b8ff" stroke="#63b8ff" points="776.7,-501.59 786.44,-505.76 781.43,-496.43 776.7,-501.59"/>
</a>
</g>
</g>
<!-- Node33 -->
<g id="Node000033" class="node">
<title>Node33</title>
<g id="a_Node000033"><a xlink:href="../../d5/d72/classLSM1x0A__LoRaWAN.html#ace4b04396f1de1f4a54f513f5f378db7" target="_top" xlink:title="Manually overrides the internal joined state tracker.">
<polygon fill="white" stroke="#666666" points="697,-939 538.5,-939 538.5,-919 697,-919 697,-939"/>
<text text-anchor="middle" x="617.75" y="-925.5" font-family="Helvetica,sans-Serif" font-size="10.00">LSM1x0A_LoRaWAN::setJoined</text>
</a>
</g>
</g>
<!-- Node3&#45;&gt;Node33 -->
<g id="edge54_Node000003_Node000033" class="edge">
<title>Node3&#45;&gt;Node33</title>
<g id="a_edge54_Node000003_Node000033"><a xlink:title=" ">
<path fill="none" stroke="#63b8ff" d="M450.22,-214.4C448.9,-310.08 446.83,-795.83 538.5,-905 540.92,-907.88 543.68,-910.43 546.68,-912.67"/>
<polygon fill="#63b8ff" stroke="#63b8ff" points="544.66,-915.54 555.02,-917.75 548.3,-909.56 544.66,-915.54"/>
</a>
</g>
</g>
<!-- Node34 -->
<g id="Node000034" class="node">
<title>Node34</title>
<g id="a_Node000034"><a xlink:href="../../d8/d92/classLSM1x0A__Controller.html#a11ad21cb5ca33ec51346764a23bd485e" target="_top" xlink:title="Performs a software reset (ATZ Command).">
<polygon fill="white" stroke="#666666" points="1274.5,-795 1168.5,-795 1168.5,-763 1274.5,-763 1274.5,-795"/>
<text text-anchor="start" x="1176.5" y="-781.5" font-family="Helvetica,sans-Serif" font-size="10.00">LSM1x0A_Controller</text>
<text text-anchor="middle" x="1221.5" y="-769.5" font-family="Helvetica,sans-Serif" font-size="10.00">::softwareReset</text>
</a>
</g>
</g>
<!-- Node3&#45;&gt;Node34 -->
<g id="edge55_Node000003_Node000034" class="edge">
<title>Node3&#45;&gt;Node34</title>
<g id="a_edge55_Node000003_Node000034"><a xlink:title=" ">
<path fill="none" stroke="#63b8ff" d="M451.14,-214.18C455.41,-318.83 481.5,-897.3 538.5,-948 603.69,-1005.99 871.64,-1058.87 1109.25,-932 1160.71,-904.52 1194.32,-841.52 1210.07,-805.51"/>
<polygon fill="#63b8ff" stroke="#63b8ff" points="1213.14,-807.25 1213.8,-796.67 1206.69,-804.53 1213.14,-807.25"/>
</a>
</g>
</g>
<!-- Node6 -->
<g id="Node000006" class="node">
<title>Node6</title>
<g id="a_Node000006"><a xlink:href="../../d6/d3c/classLSM1x0A__AtParser.html#ad2839120da13e56132b95019419be1e5" target="_top" xlink:title="Waits for an event (like BOOTALERT) without sending any command. Useful for hardware reset where the ...">
<polygon fill="white" stroke="#666666" points="876.5,-104 736,-104 736,-72 876.5,-72 876.5,-104"/>
<text text-anchor="start" x="744" y="-90.5" font-family="Helvetica,sans-Serif" font-size="10.00">LSM1x0A_AtParser::waitFor</text>
<text text-anchor="middle" x="806.25" y="-78.5" font-family="Helvetica,sans-Serif" font-size="10.00">Event</text>
</a>
</g>
</g>
<!-- Node5&#45;&gt;Node6 -->
<g id="edge5_Node000005_Node000006" class="edge">
<title>Node5&#45;&gt;Node6</title>
<g id="a_edge5_Node000005_Node000006"><a xlink:title=" ">
<path fill="none" stroke="#63b8ff" d="M671.2,-88C687.71,-88 706.36,-88 724.37,-88"/>
<polygon fill="#63b8ff" stroke="#63b8ff" points="724.28,-91.5 734.28,-88 724.28,-84.5 724.28,-91.5"/>
</a>
</g>
</g>
<!-- Node9 -->
<g id="Node000009" class="node">
<title>Node9</title>
<g id="a_Node000009"><a xlink:href="../../d5/d72/classLSM1x0A__LoRaWAN.html#a59f781f3cfd30c11cd3973bcb10a7baa" target="_top" xlink:title="Initiates a LoRaWAN Network Join procedure. This is a blocking function until the module fires an eve...">
<polygon fill="white" stroke="#666666" points="872,-186 740.5,-186 740.5,-166 872,-166 872,-186"/>
<text text-anchor="middle" x="806.25" y="-172.5" font-family="Helvetica,sans-Serif" font-size="10.00">LSM1x0A_LoRaWAN::join</text>
</a>
</g>
</g>
<!-- Node8&#45;&gt;Node9 -->
<g id="edge8_Node000008_Node000009" class="edge">
<title>Node8&#45;&gt;Node9</title>
<g id="a_edge8_Node000008_Node000009"><a xlink:title=" ">
<path fill="none" stroke="#63b8ff" d="M692.46,-176C704.42,-176 716.83,-176 728.85,-176"/>
<polygon fill="#63b8ff" stroke="#63b8ff" points="728.72,-179.5 738.72,-176 728.72,-172.5 728.72,-179.5"/>
</a>
</g>
</g>
<!-- Node9&#45;&gt;Node3 -->
<g id="edge10_Node000009_Node000003" class="edge">
<title>Node9&#45;&gt;Node3</title>
<g id="a_edge10_Node000009_Node000003"><a xlink:title=" ">
<path fill="none" stroke="#63b8ff" d="M769.52,-186.4C748.59,-191.95 721.53,-198.2 697,-201 627.01,-208.98 608.93,-202.2 538.5,-201 530.6,-200.87 522.31,-200.66 514.11,-200.43"/>
<polygon fill="#63b8ff" stroke="#63b8ff" points="514.23,-196.93 504.12,-200.12 514.01,-203.92 514.23,-196.93"/>
</a>
</g>
</g>
<!-- Node9&#45;&gt;Node4 -->
<g id="edge9_Node000009_Node000004" class="edge">
<title>Node9&#45;&gt;Node4</title>
<g id="a_edge9_Node000009_Node000004"><a xlink:title=" ">
<path fill="none" stroke="#63b8ff" d="M840.8,-165.52C853.55,-160.68 867.81,-154.16 879.5,-146 898.84,-132.5 895.27,-119.13 915.5,-107 925.45,-101.03 936.81,-96.47 948.15,-93"/>
<polygon fill="#63b8ff" stroke="#63b8ff" points="948.82,-96.45 957.51,-90.39 946.94,-89.7 948.82,-96.45"/>
</a>
</g>
</g>
<!-- Node10 -->
<g id="Node000010" class="node">
<title>Node10</title>
<g id="a_Node000010"><a xlink:href="../../d8/d92/classLSM1x0A__Controller.html#afd7d92e60ed6fdae696a955cdbe0ed8c" target="_top" xlink:title="Sends any AT command to the module, returning error if it fails. Internally uses the LsmAtParser logi...">
<polygon fill="white" stroke="#666666" points="1274.5,-558 1168.5,-558 1168.5,-526 1274.5,-526 1274.5,-558"/>
<text text-anchor="start" x="1176.5" y="-544.5" font-family="Helvetica,sans-Serif" font-size="10.00">LSM1x0A_Controller</text>
<text text-anchor="middle" x="1221.5" y="-532.5" font-family="Helvetica,sans-Serif" font-size="10.00">::sendCommand</text>
</a>
</g>
</g>
<!-- Node9&#45;&gt;Node10 -->
<g id="edge11_Node000009_Node000010" class="edge">
<title>Node9&#45;&gt;Node10</title>
<g id="a_edge11_Node000009_Node000010"><a xlink:title=" ">
<path fill="none" stroke="#63b8ff" d="M872.28,-171.81C949.89,-168.2 1073.66,-167.28 1109.25,-195 1210.98,-274.23 1221.24,-447.25 1221.2,-514.5"/>
<polygon fill="#63b8ff" stroke="#63b8ff" points="1217.7,-514.23 1221.1,-524.26 1224.7,-514.3 1217.7,-514.23"/>
</a>
</g>
</g>
<!-- Node14 -->
<g id="Node000014" class="node">
<title>Node14</title>
<g id="a_Node000014"><a xlink:href="../../d5/d72/classLSM1x0A__LoRaWAN.html#a3fdd1ac318a5ad2559323e5d57e36a5e" target="_top" xlink:title="Enables or disables specific sub&#45;bands for regions supporting Channel Masks (e.g.,...">
<polygon fill="white" stroke="#666666" points="1107.38,-224 917.38,-224 917.38,-204 1107.38,-204 1107.38,-224"/>
<text text-anchor="middle" x="1012.38" y="-210.5" font-family="Helvetica,sans-Serif" font-size="10.00">LSM1x0A_LoRaWAN::setChannelMask</text>
</a>
</g>
</g>
<!-- Node9&#45;&gt;Node14 -->
<g id="edge16_Node000009_Node000014" class="edge">
<title>Node9&#45;&gt;Node14</title>
<g id="a_edge16_Node000009_Node000014"><a xlink:title=" ">
<path fill="none" stroke="#63b8ff" d="M863.57,-186.48C888.44,-191.12 917.89,-196.6 943.93,-201.44"/>
<polygon fill="#63b8ff" stroke="#63b8ff" points="943.28,-204.88 953.75,-203.27 944.56,-198 943.28,-204.88"/>
</a>
</g>
</g>
<!-- Node15 -->
<g id="Node000015" class="node">
<title>Node15</title>
<g id="a_Node000015"><a xlink:href="../../d8/d92/classLSM1x0A__Controller.html#a62476e30e50c7fe120aeb8df4b828675" target="_top" xlink:title="Synchronously/blockingly waits for an asynchronous event to occur. Useful for wrapping commands like ...">
<polygon fill="white" stroke="#666666" points="1065.38,-148 959.38,-148 959.38,-116 1065.38,-116 1065.38,-148"/>
<text text-anchor="start" x="967.38" y="-134.5" font-family="Helvetica,sans-Serif" font-size="10.00">LSM1x0A_Controller</text>
<text text-anchor="middle" x="1012.38" y="-122.5" font-family="Helvetica,sans-Serif" font-size="10.00">::waitForEvent</text>
</a>
</g>
</g>
<!-- Node9&#45;&gt;Node15 -->
<g id="edge19_Node000009_Node000015" class="edge">
<title>Node9&#45;&gt;Node15</title>
<g id="a_edge19_Node000009_Node000015"><a xlink:title=" ">
<path fill="none" stroke="#63b8ff" d="M855.88,-165.52C883.49,-159.57 918.36,-152.05 948.07,-145.65"/>
<polygon fill="#63b8ff" stroke="#63b8ff" points="948.67,-149.1 957.7,-143.57 947.19,-142.25 948.67,-149.1"/>
</a>
</g>
</g>
<!-- Node10&#45;&gt;Node3 -->
<g id="edge12_Node000010_Node000003" class="edge">
<title>Node10&#45;&gt;Node3</title>
<g id="a_edge12_Node000010_Node000003"><a xlink:title=" ">
<path fill="none" stroke="#63b8ff" d="M1214.07,-558.31C1200.31,-593.61 1167.41,-679.91 1145.25,-754 1125.98,-818.44 1162.17,-859.48 1109.25,-901 1041.5,-954.16 991.94,-940.65 915.5,-901 628.18,-751.97 490.22,-335.66 458.02,-225.19"/>
<polygon fill="#63b8ff" stroke="#63b8ff" points="461.45,-224.47 455.33,-215.82 454.72,-226.4 461.45,-224.47"/>
</a>
</g>
</g>
<!-- Node11 -->
<g id="Node000011" class="node">
<title>Node11</title>
<g id="a_Node000011"><a xlink:href="../../d6/d3c/classLSM1x0A__AtParser.html#a29b53c521974387ba6c03afadfaffa4a" target="_top" xlink:title="Sends a simple command and waits for OK/ERROR. Example: sendCommand(&quot;AT+JOIN&quot;);.">
<polygon fill="white" stroke="#666666" points="1508,-552 1333.75,-552 1333.75,-532 1508,-532 1508,-552"/>
<text text-anchor="middle" x="1420.88" y="-538.5" font-family="Helvetica,sans-Serif" font-size="10.00">LSM1x0A_AtParser::sendCommand</text>
</a>
</g>
</g>
<!-- Node10&#45;&gt;Node11 -->
<g id="edge13_Node000010_Node000011" class="edge">
<title>Node10&#45;&gt;Node11</title>
<g id="a_edge13_Node000010_Node000011"><a xlink:title=" ">
<path fill="none" stroke="#63b8ff" d="M1274.87,-542C1289.44,-542 1305.75,-542 1322.03,-542"/>
<polygon fill="#63b8ff" stroke="#63b8ff" points="1321.76,-545.5 1331.76,-542 1321.76,-538.5 1321.76,-545.5"/>
</a>
</g>
</g>
<!-- Node11&#45;&gt;Node12 -->
<g id="edge14_Node000011_Node000012" class="edge">
<title>Node11&#45;&gt;Node12</title>
<g id="a_edge14_Node000011_Node000012"><a xlink:title=" ">
<path fill="none" stroke="#63b8ff" d="M1429.78,-531.71C1459.69,-492.78 1566.43,-353.88 1610.69,-296.3"/>
<polygon fill="#63b8ff" stroke="#63b8ff" points="1613.23,-298.73 1616.55,-288.67 1607.68,-294.46 1613.23,-298.73"/>
</a>
</g>
</g>
<!-- Node13 -->
<g id="Node000013" class="node">
<title>Node13</title>
<g id="a_Node000013"><a xlink:href="../../d5/d8b/classUartDriver.html#a5d0f22e8867eebe99273078bb19bd23d" target="_top" xlink:title="Sends data through UART.">
<polygon fill="white" stroke="#666666" points="1863.25,-281 1754.25,-281 1754.25,-261 1863.25,-261 1863.25,-281"/>
<text text-anchor="middle" x="1808.75" y="-267.5" font-family="Helvetica,sans-Serif" font-size="10.00">UartDriver::sendData</text>
</a>
</g>
</g>
<!-- Node12&#45;&gt;Node13 -->
<g id="edge15_Node000012_Node000013" class="edge">
<title>Node12&#45;&gt;Node13</title>
<g id="a_edge15_Node000012_Node000013"><a xlink:title=" ">
<path fill="none" stroke="#63b8ff" d="M1718.65,-271C1726.8,-271 1734.95,-271 1742.85,-271"/>
<polygon fill="#63b8ff" stroke="#63b8ff" points="1742.68,-274.5 1752.68,-271 1742.68,-267.5 1742.68,-274.5"/>
</a>
</g>
</g>
<!-- Node14&#45;&gt;Node7 -->
<g id="edge17_Node000014_Node000007" class="edge">
<title>Node14&#45;&gt;Node7</title>
<g id="a_edge17_Node000014_Node000007"><a xlink:title=" ">
<path fill="none" stroke="#63b8ff" d="M1037.95,-203.56C1074.54,-188.01 1143.53,-158.7 1185.42,-140.9"/>
<polygon fill="#63b8ff" stroke="#63b8ff" points="1186.73,-144.15 1194.57,-137.02 1183.99,-137.71 1186.73,-144.15"/>
</a>
</g>
</g>
<!-- Node14&#45;&gt;Node10 -->
<g id="edge18_Node000014_Node000010" class="edge">
<title>Node14&#45;&gt;Node10</title>
<g id="a_edge18_Node000014_Node000010"><a xlink:title=" ">
<path fill="none" stroke="#63b8ff" d="M1096.13,-224.28C1100.83,-226.69 1105.26,-229.57 1109.25,-233 1195.58,-307.27 1214.92,-453.75 1219.25,-514.55"/>
<polygon fill="#63b8ff" stroke="#63b8ff" points="1215.75,-514.57 1219.86,-524.33 1222.73,-514.13 1215.75,-514.57"/>
</a>
</g>
</g>
<!-- Node16&#45;&gt;Node14 -->
<g id="edge25_Node000016_Node000014" class="edge">
<title>Node16&#45;&gt;Node14</title>
<g id="a_edge25_Node000016_Node000014"><a xlink:title=" ">
<path fill="none" stroke="#63b8ff" d="M808.05,-506.78C811.43,-457.25 828.7,-306.79 915.5,-233 916.63,-232.04 917.79,-231.13 918.98,-230.25"/>
<polygon fill="#63b8ff" stroke="#63b8ff" points="920.67,-233.33 927.37,-225.12 917.02,-227.35 920.67,-233.33"/>
</a>
</g>
</g>
<!-- Node17 -->
<g id="Node000017" class="node">
<title>Node17</title>
<g id="a_Node000017"><a xlink:href="../../d5/d72/classLSM1x0A__LoRaWAN.html#af0baa3db4c7fab580d6b19a9e92472f6" target="_top" xlink:title="Enables or disables Adaptive Data Rate (ADR).">
<polygon fill="white" stroke="#666666" points="1088.25,-350 936.5,-350 936.5,-330 1088.25,-330 1088.25,-350"/>
<text text-anchor="middle" x="1012.38" y="-336.5" font-family="Helvetica,sans-Serif" font-size="10.00">LSM1x0A_LoRaWAN::setADR</text>
</a>
</g>
</g>
<!-- Node16&#45;&gt;Node17 -->
<g id="edge21_Node000016_Node000017" class="edge">
<title>Node16&#45;&gt;Node17</title>
<g id="a_edge21_Node000016_Node000017"><a xlink:title=" ">
<path fill="none" stroke="#63b8ff" d="M813.06,-506.6C825.85,-473 859.85,-396.38 915.5,-359 918.77,-356.8 922.23,-354.85 925.83,-353.11"/>
<polygon fill="#63b8ff" stroke="#63b8ff" points="926.98,-356.42 934.87,-349.35 924.29,-349.96 926.98,-356.42"/>
</a>
</g>
</g>
<!-- Node18 -->
<g id="Node000018" class="node">
<title>Node18</title>
<g id="a_Node000018"><a xlink:href="../../d5/d72/classLSM1x0A__LoRaWAN.html#a5365ed1596eb84ebf1e3b33b4a10c788" target="_top" xlink:title="Sets the LoRaWAN operational frequency band.">
<polygon fill="white" stroke="#666666" points="1088.62,-312 936.12,-312 936.12,-292 1088.62,-292 1088.62,-312"/>
<text text-anchor="middle" x="1012.38" y="-298.5" font-family="Helvetica,sans-Serif" font-size="10.00">LSM1x0A_LoRaWAN::setBand</text>
</a>
</g>
</g>
<!-- Node16&#45;&gt;Node18 -->
<g id="edge23_Node000016_Node000018" class="edge">
<title>Node16&#45;&gt;Node18</title>
<g id="a_edge23_Node000016_Node000018"><a xlink:title=" ">
<path fill="none" stroke="#63b8ff" d="M810.97,-506.5C820.7,-467.43 850.74,-368.94 915.5,-321 918.66,-318.66 922.04,-316.58 925.57,-314.75"/>
<polygon fill="#63b8ff" stroke="#63b8ff" points="926.75,-318.05 934.47,-310.8 923.91,-311.66 926.75,-318.05"/>
</a>
</g>
</g>
<!-- Node19 -->
<g id="Node000019" class="node">
<title>Node19</title>
<g id="a_Node000019"><a xlink:href="../../d5/d72/classLSM1x0A__LoRaWAN.html#a9d9285c43414337a0ccb3a6cd7ca06e6" target="_top" xlink:title="Configures the number of retries for Confirmed uplinks.">
<polygon fill="white" stroke="#666666" points="1094.62,-274 930.12,-274 930.12,-242 1094.62,-242 1094.62,-274"/>
<text text-anchor="start" x="938.12" y="-260.5" font-family="Helvetica,sans-Serif" font-size="10.00">LSM1x0A_LoRaWAN::setConfirm</text>
<text text-anchor="middle" x="1012.38" y="-248.5" font-family="Helvetica,sans-Serif" font-size="10.00">Retry</text>
</a>
</g>
</g>
<!-- Node16&#45;&gt;Node19 -->
<g id="edge26_Node000016_Node000019" class="edge">
<title>Node16&#45;&gt;Node19</title>
<g id="a_edge26_Node000016_Node000019"><a xlink:title=" ">
<path fill="none" stroke="#63b8ff" d="M809.68,-506.7C817.05,-463.28 843.2,-344.03 915.5,-283 916.99,-281.74 918.54,-280.55 920.13,-279.41"/>
<polygon fill="#63b8ff" stroke="#63b8ff" points="921.75,-282.52 928.45,-274.32 918.1,-276.55 921.75,-282.52"/>
</a>
</g>
</g>
<!-- Node20 -->
<g id="Node000020" class="node">
<title>Node20</title>
<g id="a_Node000020"><a xlink:href="../../d5/d72/classLSM1x0A__LoRaWAN.html#a56345ceeafa0b9059d6de4e69eddc82e" target="_top" xlink:title="Sets the Data Rate (DR) of the module.">
<polygon fill="white" stroke="#666666" points="1098.38,-892 926.38,-892 926.38,-872 1098.38,-872 1098.38,-892"/>
<text text-anchor="middle" x="1012.38" y="-878.5" font-family="Helvetica,sans-Serif" font-size="10.00">LSM1x0A_LoRaWAN::setDataRate</text>
</a>
</g>
</g>
<!-- Node16&#45;&gt;Node20 -->
<g id="edge28_Node000016_Node000020" class="edge">
<title>Node16&#45;&gt;Node20</title>
<g id="a_edge28_Node000016_Node000020"><a xlink:title=" ">
<path fill="none" stroke="#63b8ff" d="M807.05,-539.16C807.29,-593.93 815.94,-774.06 915.5,-863 916.45,-863.85 917.42,-864.66 918.42,-865.44"/>
<polygon fill="#63b8ff" stroke="#63b8ff" points="916.45,-868.34 926.75,-870.83 920.25,-862.46 916.45,-868.34"/>
</a>
</g>
</g>
<!-- Node21 -->
<g id="Node000021" class="node">
<title>Node21</title>
<g id="a_Node000021"><a xlink:href="../../d5/d72/classLSM1x0A__LoRaWAN.html#a8494083816ab885cb07fc3b08de029f4" target="_top" xlink:title="Sets the LoRaWAN Device Address (DevAddr) for ABP mode.">
<polygon fill="white" stroke="#666666" points="1096.5,-854 928.25,-854 928.25,-834 1096.5,-834 1096.5,-854"/>
<text text-anchor="middle" x="1012.38" y="-840.5" font-family="Helvetica,sans-Serif" font-size="10.00">LSM1x0A_LoRaWAN::setDevAddr</text>
</a>
</g>
</g>
<!-- Node16&#45;&gt;Node21 -->
<g id="edge30_Node000016_Node000021" class="edge">
<title>Node16&#45;&gt;Node21</title>
<g id="a_edge30_Node000016_Node000021"><a xlink:title=" ">
<path fill="none" stroke="#63b8ff" d="M807.78,-539.15C810.37,-589.92 825.62,-747.57 915.5,-825 916.62,-825.97 917.78,-826.89 918.96,-827.77"/>
<polygon fill="#63b8ff" stroke="#63b8ff" points="916.98,-830.65 927.32,-832.93 920.65,-824.7 916.98,-830.65"/>
</a>
</g>
</g>
<!-- Node22 -->
<g id="Node000022" class="node">
<title>Node22</title>
<g id="a_Node000022"><a xlink:href="../../d5/d72/classLSM1x0A__LoRaWAN.html#ad320634e52d7ea907043cc50dd37c5b0" target="_top" xlink:title="Sets the LoRaWAN Device EUI (DevEUI).">
<polygon fill="white" stroke="#666666" points="1095,-816 929.75,-816 929.75,-796 1095,-796 1095,-816"/>
<text text-anchor="middle" x="1012.38" y="-802.5" font-family="Helvetica,sans-Serif" font-size="10.00">LSM1x0A_LoRaWAN::setDevEUI</text>
</a>
</g>
</g>
<!-- Node16&#45;&gt;Node22 -->
<g id="edge32_Node000016_Node000022" class="edge">
<title>Node16&#45;&gt;Node22</title>
<g id="a_edge32_Node000016_Node000022"><a xlink:title=" ">
<path fill="none" stroke="#63b8ff" d="M808.74,-539.44C813.89,-586.24 835.37,-721.05 915.5,-787 916.99,-788.22 918.53,-789.38 920.12,-790.46"/>
<polygon fill="#63b8ff" stroke="#63b8ff" points="917.98,-793.27 928.4,-795.21 921.47,-787.2 917.98,-793.27"/>
</a>
</g>
</g>
<!-- Node23 -->
<g id="Node000023" class="node">
<title>Node23</title>
<g id="a_Node000023"><a xlink:href="../../d5/d72/classLSM1x0A__LoRaWAN.html#a031023b0d2dd5db3c51c2db6ae7801cc" target="_top" xlink:title="Enables or disables the Duty Cycle limitation (EU regions mostly).">
<polygon fill="white" stroke="#666666" points="1087.88,-778 936.88,-778 936.88,-746 1087.88,-746 1087.88,-778"/>
<text text-anchor="start" x="944.88" y="-764.5" font-family="Helvetica,sans-Serif" font-size="10.00">LSM1x0A_LoRaWAN::setDuty</text>
<text text-anchor="middle" x="1012.38" y="-752.5" font-family="Helvetica,sans-Serif" font-size="10.00">Cycle</text>
</a>
</g>
</g>
<!-- Node16&#45;&gt;Node23 -->
<g id="edge34_Node000016_Node000023" class="edge">
<title>Node16&#45;&gt;Node23</title>
<g id="a_edge34_Node000016_Node000023"><a xlink:title=" ">
<path fill="none" stroke="#63b8ff" d="M810.65,-539.3C819.9,-579.44 849.39,-683.67 915.5,-737 918.94,-739.78 922.66,-742.25 926.56,-744.44"/>
<polygon fill="#63b8ff" stroke="#63b8ff" points="924.71,-747.44 935.23,-748.7 927.8,-741.15 924.71,-747.44"/>
</a>
</g>
</g>
<!-- Node24 -->
<g id="Node000024" class="node">
<title>Node24</title>
<g id="a_Node000024"><a xlink:href="../../d5/d72/classLSM1x0A__LoRaWAN.html#a6b179d5825c49af0f391dfc539912f64" target="_top" xlink:title="Sets the delay for the Join1 receive window.">
<polygon fill="white" stroke="#666666" points="1089,-728 935.75,-728 935.75,-696 1089,-696 1089,-728"/>
<text text-anchor="start" x="943.75" y="-714.5" font-family="Helvetica,sans-Serif" font-size="10.00">LSM1x0A_LoRaWAN::setJoin1</text>
<text text-anchor="middle" x="1012.38" y="-702.5" font-family="Helvetica,sans-Serif" font-size="10.00">Delay</text>
</a>
</g>
</g>
<!-- Node16&#45;&gt;Node24 -->
<g id="edge36_Node000016_Node000024" class="edge">
<title>Node16&#45;&gt;Node24</title>
<g id="a_edge36_Node000016_Node000024"><a xlink:title=" ">
<path fill="none" stroke="#63b8ff" d="M813.34,-539.39C826.56,-572.62 861.13,-648.08 915.5,-687 918.67,-689.27 922.04,-691.34 925.53,-693.21"/>
<polygon fill="#63b8ff" stroke="#63b8ff" points="923.78,-696.26 934.32,-697.38 926.78,-689.93 923.78,-696.26"/>
</a>
</g>
</g>
<!-- Node25 -->
<g id="Node000025" class="node">
<title>Node25</title>
<g id="a_Node000025"><a xlink:href="../../d5/d72/classLSM1x0A__LoRaWAN.html#a4545d0caad41558cdb9bae8286b104d8" target="_top" xlink:title="Sets the delay for the Join2 receive window.">
<polygon fill="white" stroke="#666666" points="1089,-678 935.75,-678 935.75,-646 1089,-646 1089,-678"/>
<text text-anchor="start" x="943.75" y="-664.5" font-family="Helvetica,sans-Serif" font-size="10.00">LSM1x0A_LoRaWAN::setJoin2</text>
<text text-anchor="middle" x="1012.38" y="-652.5" font-family="Helvetica,sans-Serif" font-size="10.00">Delay</text>
</a>
</g>
</g>
<!-- Node16&#45;&gt;Node25 -->
<g id="edge38_Node000016_Node000025" class="edge">
<title>Node16&#45;&gt;Node25</title>
<g id="a_edge38_Node000016_Node000025"><a xlink:title=" ">
<path fill="none" stroke="#63b8ff" d="M818.14,-539.33C835.65,-564.27 872.49,-611.61 915.5,-637 918.51,-638.78 921.65,-640.43 924.88,-641.97"/>
<polygon fill="#63b8ff" stroke="#63b8ff" points="923.48,-645.18 934.05,-645.9 926.24,-638.74 923.48,-645.18"/>
</a>
</g>
</g>
<!-- Node26 -->
<g id="Node000026" class="node">
<title>Node26</title>
<g id="a_Node000026"><a xlink:href="../../d5/d72/classLSM1x0A__LoRaWAN.html#a06bd50723ec1eb7e144c9141b2ec86fc" target="_top" xlink:title="Sets the LoRaWAN Network ID (NetID).">
<polygon fill="white" stroke="#666666" points="1092.75,-628 932,-628 932,-608 1092.75,-608 1092.75,-628"/>
<text text-anchor="middle" x="1012.38" y="-614.5" font-family="Helvetica,sans-Serif" font-size="10.00">LSM1x0A_LoRaWAN::setNwkID</text>
</a>
</g>
</g>
<!-- Node16&#45;&gt;Node26 -->
<g id="edge40_Node000016_Node000026" class="edge">
<title>Node16&#45;&gt;Node26</title>
<g id="a_edge40_Node000016_Node000026"><a xlink:title=" ">
<path fill="none" stroke="#63b8ff" d="M825.35,-539.34C845.76,-556.84 880.66,-584.11 915.5,-599 920.1,-600.97 924.91,-602.73 929.83,-604.32"/>
<polygon fill="#63b8ff" stroke="#63b8ff" points="928.67,-607.63 939.26,-607.08 930.64,-600.91 928.67,-607.63"/>
</a>
</g>
</g>
<!-- Node27 -->
<g id="Node000027" class="node">
<title>Node27</title>
<g id="a_Node000027"><a xlink:href="../../d5/d72/classLSM1x0A__LoRaWAN.html#aa70ada64d28ecca216bb62268e502adf" target="_top" xlink:title="Sets the delay for the RX1 receive window.">
<polygon fill="white" stroke="#666666" points="1099.12,-590 925.62,-590 925.62,-570 1099.12,-570 1099.12,-590"/>
<text text-anchor="middle" x="1012.38" y="-576.5" font-family="Helvetica,sans-Serif" font-size="10.00">LSM1x0A_LoRaWAN::setRx1Delay</text>
</a>
</g>
</g>
<!-- Node16&#45;&gt;Node27 -->
<g id="edge42_Node000016_Node000027" class="edge">
<title>Node16&#45;&gt;Node27</title>
<g id="a_edge42_Node000016_Node000027"><a xlink:title=" ">
<path fill="none" stroke="#63b8ff" d="M849.74,-539.49C869.52,-546.76 893.5,-554.99 915.5,-561 923.58,-563.21 932.11,-565.27 940.62,-567.16"/>
<polygon fill="#63b8ff" stroke="#63b8ff" points="939.75,-570.55 950.26,-569.23 941.22,-563.71 939.75,-570.55"/>
</a>
</g>
</g>
<!-- Node28 -->
<g id="Node000028" class="node">
<title>Node28</title>
<g id="a_Node000028"><a xlink:href="../../d5/d72/classLSM1x0A__LoRaWAN.html#a2cf4eff0181b6107d082bccefa24217b" target="_top" xlink:title="Sets the Data Rate (DR) specifically for the RX2 window.">
<polygon fill="white" stroke="#666666" points="1107.38,-552 917.38,-552 917.38,-532 1107.38,-532 1107.38,-552"/>
<text text-anchor="middle" x="1012.38" y="-538.5" font-family="Helvetica,sans-Serif" font-size="10.00">LSM1x0A_LoRaWAN::setRx2DataRate</text>
</a>
</g>
</g>
<!-- Node16&#45;&gt;Node28 -->
<g id="edge44_Node000016_Node000028" class="edge">
<title>Node16&#45;&gt;Node28</title>
<g id="a_edge44_Node000016_Node000028"><a xlink:title=" ">
<path fill="none" stroke="#63b8ff" d="M879.79,-529.75C888.16,-530.53 896.81,-531.34 905.51,-532.15"/>
<polygon fill="#63b8ff" stroke="#63b8ff" points="905.14,-535.63 915.43,-533.07 905.79,-528.66 905.14,-535.63"/>
</a>
</g>
</g>
<!-- Node29 -->
<g id="Node000029" class="node">
<title>Node29</title>
<g id="a_Node000029"><a xlink:href="../../d5/d72/classLSM1x0A__LoRaWAN.html#a42d2137b475b57e19d891a5f1ac93221" target="_top" xlink:title="Sets the delay for the RX2 receive window.">
<polygon fill="white" stroke="#666666" points="1099.12,-514 925.62,-514 925.62,-494 1099.12,-494 1099.12,-514"/>
<text text-anchor="middle" x="1012.38" y="-500.5" font-family="Helvetica,sans-Serif" font-size="10.00">LSM1x0A_LoRaWAN::setRx2Delay</text>
</a>
</g>
</g>
<!-- Node16&#45;&gt;Node29 -->
<g id="edge46_Node000016_Node000029" class="edge">
<title>Node16&#45;&gt;Node29</title>
<g id="a_edge46_Node000016_Node000029"><a xlink:title=" ">
<path fill="none" stroke="#63b8ff" d="M879.79,-516.25C890.99,-515.21 902.72,-514.11 914.35,-513.03"/>
<polygon fill="#63b8ff" stroke="#63b8ff" points="914.32,-516.55 923.95,-512.14 913.67,-509.58 914.32,-516.55"/>
</a>
</g>
</g>
<!-- Node30 -->
<g id="Node000030" class="node">
<title>Node30</title>
<g id="a_Node000030"><a xlink:href="../../d5/d72/classLSM1x0A__LoRaWAN.html#a689f7dfda1dfeae11ea397c2ddf2ad37" target="_top" xlink:title="Sets the precise frequency for the RX2 window.">
<polygon fill="white" stroke="#666666" points="1109.25,-476 915.5,-476 915.5,-456 1109.25,-456 1109.25,-476"/>
<text text-anchor="middle" x="1012.38" y="-462.5" font-family="Helvetica,sans-Serif" font-size="10.00">LSM1x0A_LoRaWAN::setRx2Frequency</text>
</a>
</g>
</g>
<!-- Node16&#45;&gt;Node30 -->
<g id="edge48_Node000016_Node000030" class="edge">
<title>Node16&#45;&gt;Node30</title>
<g id="a_edge48_Node000016_Node000030"><a xlink:title=" ">
<path fill="none" stroke="#63b8ff" d="M849.74,-506.51C869.52,-499.24 893.5,-491.01 915.5,-485 923.58,-482.79 932.11,-480.73 940.62,-478.84"/>
<polygon fill="#63b8ff" stroke="#63b8ff" points="941.22,-482.29 950.26,-476.77 939.75,-475.45 941.22,-482.29"/>
</a>
</g>
</g>
<!-- Node31 -->
<g id="Node000031" class="node">
<title>Node31</title>
<g id="a_Node000031"><a xlink:href="../../d5/d72/classLSM1x0A__LoRaWAN.html#a1df10d7ae6bf45b537d28d3d5c4b88d7" target="_top" xlink:title="Sets the transmission power index.">
<polygon fill="white" stroke="#666666" points="1096.88,-438 927.88,-438 927.88,-418 1096.88,-418 1096.88,-438"/>
<text text-anchor="middle" x="1012.38" y="-424.5" font-family="Helvetica,sans-Serif" font-size="10.00">LSM1x0A_LoRaWAN::setTxPower</text>
</a>
</g>
</g>
<!-- Node16&#45;&gt;Node31 -->
<g id="edge50_Node000016_Node000031" class="edge">
<title>Node16&#45;&gt;Node31</title>
<g id="a_edge50_Node000016_Node000031"><a xlink:title=" ">
<path fill="none" stroke="#63b8ff" d="M825.35,-506.66C845.76,-489.16 880.66,-461.89 915.5,-447 920.1,-445.03 924.91,-443.27 929.83,-441.68"/>
<polygon fill="#63b8ff" stroke="#63b8ff" points="930.64,-445.09 939.26,-438.92 928.67,-438.37 930.64,-445.09"/>
</a>
</g>
</g>
<!-- Node32 -->
<g id="Node000032" class="node">
<title>Node32</title>
<g id="a_Node000032"><a xlink:href="../../d5/d72/classLSM1x0A__LoRaWAN.html#a059fd6a9356c4ecadd5a98294da5952d" target="_top" xlink:title="Configures the number of repetitions for Unconfirmed uplinks.">
<polygon fill="white" stroke="#666666" points="1099.88,-400 924.88,-400 924.88,-368 1099.88,-368 1099.88,-400"/>
<text text-anchor="start" x="932.88" y="-386.5" font-family="Helvetica,sans-Serif" font-size="10.00">LSM1x0A_LoRaWAN::setUnconfirm</text>
<text text-anchor="middle" x="1012.38" y="-374.5" font-family="Helvetica,sans-Serif" font-size="10.00">Retry</text>
</a>
</g>
</g>
<!-- Node16&#45;&gt;Node32 -->
<g id="edge52_Node000016_Node000032" class="edge">
<title>Node16&#45;&gt;Node32</title>
<g id="a_edge52_Node000016_Node000032"><a xlink:title=" ">
<path fill="none" stroke="#63b8ff" d="M818.14,-506.67C835.65,-481.73 872.49,-434.39 915.5,-409 917.81,-407.64 920.2,-406.34 922.64,-405.12"/>
<polygon fill="#63b8ff" stroke="#63b8ff" points="923.9,-408.4 931.58,-401.1 921.03,-402.01 923.9,-408.4"/>
</a>
</g>
</g>
<!-- Node17&#45;&gt;Node10 -->
<g id="edge22_Node000017_Node000010" class="edge">
<title>Node17&#45;&gt;Node10</title>
<g id="a_edge22_Node000017_Node000010"><a xlink:title=" ">
<path fill="none" stroke="#63b8ff" d="M1088.65,-348.53C1095.97,-351.2 1102.99,-354.62 1109.25,-359 1164.84,-397.86 1197.69,-474.26 1211.99,-514.97"/>
<polygon fill="#63b8ff" stroke="#63b8ff" points="1208.61,-515.89 1215.12,-524.24 1215.24,-513.65 1208.61,-515.89"/>
</a>
</g>
</g>
<!-- Node18&#45;&gt;Node10 -->
<g id="edge24_Node000018_Node000010" class="edge">
<title>Node18&#45;&gt;Node10</title>
<g id="a_edge24_Node000018_Node000010"><a xlink:title=" ">
<path fill="none" stroke="#63b8ff" d="M1089.02,-310.03C1096.27,-312.79 1103.17,-316.38 1109.25,-321 1173.87,-370.13 1203.71,-467.16 1214.91,-514.6"/>
<polygon fill="#63b8ff" stroke="#63b8ff" points="1211.42,-515.06 1217.03,-524.05 1218.25,-513.53 1211.42,-515.06"/>
</a>
</g>
</g>
<!-- Node19&#45;&gt;Node10 -->
<g id="edge27_Node000019_Node000010" class="edge">
<title>Node19&#45;&gt;Node10</title>
<g id="a_edge27_Node000019_Node000010"><a xlink:title=" ">
<path fill="none" stroke="#63b8ff" d="M1095.08,-273.44C1100.16,-276.14 1104.95,-279.3 1109.25,-283 1181.2,-344.86 1207.98,-461.59 1216.74,-514.59"/>
<polygon fill="#63b8ff" stroke="#63b8ff" points="1213.25,-514.92 1218.24,-524.26 1220.17,-513.84 1213.25,-514.92"/>
</a>
</g>
</g>
<!-- Node20&#45;&gt;Node10 -->
<g id="edge29_Node000020_Node000010" class="edge">
<title>Node20&#45;&gt;Node10</title>
<g id="a_edge29_Node000020_Node000010"><a xlink:title=" ">
<path fill="none" stroke="#63b8ff" d="M1096.69,-871.6C1101.2,-869.21 1105.44,-866.37 1109.25,-863 1147.48,-829.22 1128.72,-802.26 1145.25,-754 1168.06,-687.42 1196.05,-609.52 1210.62,-569.23"/>
<polygon fill="#63b8ff" stroke="#63b8ff" points="1213.89,-570.47 1214.01,-559.87 1207.31,-568.08 1213.89,-570.47"/>
</a>
</g>
</g>
<!-- Node21&#45;&gt;Node10 -->
<g id="edge31_Node000021_Node000010" class="edge">
<title>Node21&#45;&gt;Node10</title>
<g id="a_edge31_Node000021_Node000010"><a xlink:title=" ">
<path fill="none" stroke="#63b8ff" d="M1096.02,-833.58C1100.75,-831.21 1105.21,-828.37 1109.25,-825 1130.03,-807.64 1188.94,-636.39 1211.53,-569.02"/>
<polygon fill="#63b8ff" stroke="#63b8ff" points="1214.74,-570.45 1214.59,-559.86 1208.1,-568.24 1214.74,-570.45"/>
</a>
</g>
</g>
<!-- Node22&#45;&gt;Node10 -->
<g id="edge33_Node000022_Node000010" class="edge">
<title>Node22&#45;&gt;Node10</title>
<g id="a_edge33_Node000022_Node000010"><a xlink:title=" ">
<path fill="none" stroke="#63b8ff" d="M1095.36,-795.56C1100.3,-793.2 1104.99,-790.37 1109.25,-787 1179.75,-731.13 1207.14,-620.69 1216.38,-569.39"/>
<polygon fill="#63b8ff" stroke="#63b8ff" points="1219.79,-570.18 1218.01,-559.74 1212.89,-569.01 1219.79,-570.18"/>
</a>
</g>
</g>
<!-- Node23&#45;&gt;Node10 -->
<g id="edge35_Node000023_Node000010" class="edge">
<title>Node23&#45;&gt;Node10</title>
<g id="a_edge35_Node000023_Node000010"><a xlink:title=" ">
<path fill="none" stroke="#63b8ff" d="M1087.91,-749.05C1095.54,-745.87 1102.83,-741.92 1109.25,-737 1166.24,-693.34 1198.81,-611.57 1212.6,-569.12"/>
<polygon fill="#63b8ff" stroke="#63b8ff" points="1215.9,-570.29 1215.55,-559.7 1209.22,-568.2 1215.9,-570.29"/>
</a>
</g>
</g>
<!-- Node24&#45;&gt;Node10 -->
<g id="edge37_Node000024_Node000010" class="edge">
<title>Node24&#45;&gt;Node10</title>
<g id="a_edge37_Node000024_Node000010"><a xlink:title=" ">
<path fill="none" stroke="#63b8ff" d="M1089.24,-697.37C1096.29,-694.51 1103.09,-691.09 1109.25,-687 1155.06,-656.61 1189.82,-600.94 1207.5,-568.13"/>
<polygon fill="#63b8ff" stroke="#63b8ff" points="1210.39,-570.16 1211.93,-559.68 1204.19,-566.91 1210.39,-570.16"/>
</a>
</g>
</g>
<!-- Node25&#45;&gt;Node10 -->
<g id="edge39_Node000025_Node000010" class="edge">
<title>Node25&#45;&gt;Node10</title>
<g id="a_edge39_Node000025_Node000010"><a xlink:title=" ">
<path fill="none" stroke="#63b8ff" d="M1089.43,-645.62C1096.29,-643.12 1103,-640.26 1109.25,-637 1144.04,-618.85 1177.35,-588.01 1198.31,-566.4"/>
<polygon fill="#63b8ff" stroke="#63b8ff" points="1200.58,-569.1 1204.93,-559.44 1195.5,-564.27 1200.58,-569.1"/>
</a>
</g>
</g>
<!-- Node26&#45;&gt;Node10 -->
<g id="edge41_Node000026_Node000010" class="edge">
<title>Node26&#45;&gt;Node10</title>
<g id="a_edge41_Node000026_Node000010"><a xlink:title=" ">
<path fill="none" stroke="#63b8ff" d="M1079.01,-607.52C1089.26,-605.16 1099.63,-602.34 1109.25,-599 1135.32,-589.94 1162.95,-575.81 1184.15,-563.89"/>
<polygon fill="#63b8ff" stroke="#63b8ff" points="1185.75,-567 1192.69,-559 1182.27,-560.93 1185.75,-567"/>
</a>
</g>
</g>
<!-- Node27&#45;&gt;Node10 -->
<g id="edge43_Node000027_Node000010" class="edge">
<title>Node27&#45;&gt;Node10</title>
<g id="a_edge43_Node000027_Node000010"><a xlink:title=" ">
<path fill="none" stroke="#63b8ff" d="M1070.52,-569.52C1097.36,-564.59 1129.44,-558.71 1157.03,-553.64"/>
<polygon fill="#63b8ff" stroke="#63b8ff" points="1157.46,-557.12 1166.66,-551.88 1156.19,-550.24 1157.46,-557.12"/>
</a>
</g>
</g>
<!-- Node28&#45;&gt;Node10 -->
<g id="edge45_Node000028_Node000010" class="edge">
<title>Node28&#45;&gt;Node10</title>
<g id="a_edge45_Node000028_Node000010"><a xlink:title=" ">
<path fill="none" stroke="#63b8ff" d="M1107.85,-542C1124.34,-542 1141.14,-542 1156.57,-542"/>
<polygon fill="#63b8ff" stroke="#63b8ff" points="1156.55,-545.5 1166.55,-542 1156.55,-538.5 1156.55,-545.5"/>
</a>
</g>
</g>
<!-- Node29&#45;&gt;Node10 -->
<g id="edge47_Node000029_Node000010" class="edge">
<title>Node29&#45;&gt;Node10</title>
<g id="a_edge47_Node000029_Node000010"><a xlink:title=" ">
<path fill="none" stroke="#63b8ff" d="M1070.52,-514.48C1097.36,-519.41 1129.44,-525.29 1157.03,-530.36"/>
<polygon fill="#63b8ff" stroke="#63b8ff" points="1156.19,-533.76 1166.66,-532.12 1157.46,-526.88 1156.19,-533.76"/>
</a>
</g>
</g>
<!-- Node30&#45;&gt;Node10 -->
<g id="edge49_Node000030_Node000010" class="edge">
<title>Node30&#45;&gt;Node10</title>
<g id="a_edge49_Node000030_Node000010"><a xlink:title=" ">
<path fill="none" stroke="#63b8ff" d="M1079.01,-476.48C1089.26,-478.84 1099.63,-481.66 1109.25,-485 1135.32,-494.06 1162.95,-508.19 1184.15,-520.11"/>
<polygon fill="#63b8ff" stroke="#63b8ff" points="1182.27,-523.07 1192.69,-525 1185.75,-517 1182.27,-523.07"/>
</a>
</g>
</g>
<!-- Node31&#45;&gt;Node10 -->
<g id="edge51_Node000031_Node000010" class="edge">
<title>Node31&#45;&gt;Node10</title>
<g id="a_edge51_Node000031_Node000010"><a xlink:title=" ">
<path fill="none" stroke="#63b8ff" d="M1086.64,-438.43C1094.46,-440.74 1102.15,-443.56 1109.25,-447 1144.76,-464.21 1178.15,-495.52 1198.91,-517.48"/>
<polygon fill="#63b8ff" stroke="#63b8ff" points="1196.1,-519.6 1205.46,-524.57 1201.24,-514.85 1196.1,-519.6"/>
</a>
</g>
</g>
<!-- Node32&#45;&gt;Node10 -->
<g id="edge53_Node000032_Node000010" class="edge">
<title>Node32&#45;&gt;Node10</title>
<g id="a_edge53_Node000032_Node000010"><a xlink:title=" ">
<path fill="none" stroke="#63b8ff" d="M1092.5,-400.31C1098.36,-402.81 1104.02,-405.69 1109.25,-409 1152.24,-436.23 1186.97,-485.5 1205.6,-515.83"/>
<polygon fill="#63b8ff" stroke="#63b8ff" points="1202.59,-517.61 1210.73,-524.4 1208.6,-514.02 1202.59,-517.61"/>
</a>
</g>
</g>
<!-- Node34&#45;&gt;Node11 -->
<g id="edge56_Node000034_Node000011" class="edge">
<title>Node34&#45;&gt;Node11</title>
<g id="a_edge56_Node000034_Node000011"><a xlink:title=" ">
<path fill="none" stroke="#63b8ff" d="M1236.07,-762.71C1271.44,-720.24 1366.34,-606.28 1404.08,-560.97"/>
<polygon fill="#63b8ff" stroke="#63b8ff" points="1406.55,-563.47 1410.26,-553.55 1401.17,-558.99 1406.55,-563.47"/>
</a>
</g>
</g>
</g>
</svg>

<g id="navigator" transform="translate(0 0)" fill="#404254">
  <rect fill="#f2f5e9" fill-opacity="0.5" stroke="#606060" stroke-width=".5" x="0" y="0" width="60" height="60"/>
  <use id="zoomplus" xlink:href="#zoomPlus" x="17" y="9" onmousedown="handleZoom(evt,'in')"/>
  <use id="zoomminus" xlink:href="#zoomMin" x="42" y="9" onmousedown="handleZoom(evt,'out')"/>
  <use id="reset" xlink:href="#resetDef" x="30" y="36" onmousedown="handleReset()"/>
   <use id="arrowup" xlink:href="#arrowUp" x="0" y="0" onmousedown="handlePan(0,-1)"/>
  <use id="arrowright" xlink:href="#arrowRight" x="0" y="0" onmousedown="handlePan(1,0)"/>
  <use id="arrowdown" xlink:href="#arrowDown" x="0" y="0" onmousedown="handlePan(0,1)"/>
  <use id="arrowleft" xlink:href="#arrowLeft" x="0" y="0" onmousedown="handlePan(-1,0)"/>
</g>
<svg viewBox="0 0 15 15" width="100%" height="30px" preserveAspectRatio="xMaxYMin meet">
 <g id="arrow_out" transform="scale(0.3 0.3)">
  <a xlink:href="classLSM1x0A__LoRaWAN_ab4f1040553bba39ac12a2e270fa329ab_cgraph_org.svg" target="_base">
   <rect id="button" ry="5" rx="5" y="6" x="6" height="38" width="38"
        fill="#f2f5e9" fill-opacity="0.5" stroke="#606060" stroke-width="1.0"/>
   <path id="arrow"
     d="M 11.500037,31.436501 C 11.940474,20.09759 22.043105,11.32322 32.158766,21.979434 L 37.068811,17.246167 C 37.068811,17.246167 37.088388,32 37.088388,32 L 22.160133,31.978069 C 22.160133,31.978069 26.997745,27.140456 26.997745,27.140456 C 18.528582,18.264221 13.291696,25.230495 11.500037,31.436501 z"
     style="fill:#404040;"/>
  </a>
 </g>
</svg>

<style type='text/css'>
<![CDATA[
[data-mouse-over-selected='false'] { opacity: 0.7; }
[data-mouse-over-selected='true']  { opacity: 1.0; }
]]>
</style>
<script type="application/ecmascript"><![CDATA[
document.addEventListener('DOMContentLoaded', (event) => {
  highlightEdges();
  highlightAdjacentNodes();
});
]]></script>
</svg>
