<?xml version="1.0" encoding="UTF-8" standalone="no"?>
<!DOCTYPE svg PUBLIC "-//W3C//DTD SVG 1.1//EN"
 "http://www.w3.org/Graphics/SVG/1.1/DTD/svg11.dtd">
<!-- Generated by graphviz version 12.2.1 (20241206.2353)
 -->
<!-- Title: LSM1x0A_LoRaWAN::getNwkSKey Pages: 1 -->
<svg width="1874pt" height="1018pt"
 viewBox="0.00 0.00 1873.50 1018.48" xmlns="http://www.w3.org/2000/svg" xmlns:xlink="http://www.w3.org/1999/xlink">
<g id="graph0" class="graph" transform="scale(1 1) rotate(0) translate(4 1014.48)">
<title>LSM1x0A_LoRaWAN::getNwkSKey</title>
<!-- Node1 -->
<g id="Node000001" class="node">
<title>Node1</title>
<g id="a_Node000001"><a xlink:title="Retrieves the Network Session Key.">
<polygon fill="#999999" stroke="#666666" points="174.25,-98 0,-98 0,-78 174.25,-78 174.25,-98"/>
<text text-anchor="middle" x="87.12" y="-84.5" font-family="Helvetica,sans-Serif" font-size="10.00">LSM1x0A_LoRaWAN::getNwkSKey</text>
</a>
</g>
</g>
<!-- Node2 -->
<g id="Node000002" class="node">
<title>Node2</title>
<g id="a_Node000002"><a xlink:href="../../d8/d92/classLSM1x0A__Controller.html#ab00328d1be83aa51bce8c2a4f907c5f4" target="_top" xlink:title="Sends an AT command and captures its response in a text block. Ideal for getters (e....">
<polygon fill="white" stroke="#666666" points="362.75,-104 210.25,-104 210.25,-72 362.75,-72 362.75,-104"/>
<text text-anchor="start" x="218.25" y="-90.5" font-family="Helvetica,sans-Serif" font-size="10.00">LSM1x0A_Controller</text>
<text text-anchor="middle" x="286.5" y="-78.5" font-family="Helvetica,sans-Serif" font-size="10.00">::sendCommandWithResponse</text>
</a>
</g>
</g>
<!-- Node1&#45;&gt;Node2 -->
<g id="edge1_Node000001_Node000002" class="edge">
<title>Node1&#45;&gt;Node2</title>
<g id="a_edge1_Node000001_Node000002"><a xlink:title=" ">
<path fill="none" stroke="#63b8ff" d="M174.7,-88C182.56,-88 190.53,-88 198.4,-88"/>
<polygon fill="#63b8ff" stroke="#63b8ff" points="198.32,-91.5 208.32,-88 198.32,-84.5 198.32,-91.5"/>
</a>
</g>
</g>
<!-- Node3 -->
<g id="Node000003" class="node">
<title>Node3</title>
<g id="a_Node000003"><a xlink:href="../../d8/d92/classLSM1x0A__Controller.html#abb0eb380daa3dfb7acffb483c5db8e2b" target="_top" xlink:title="Executes the recovery protocol. First Soft&#45;Reset (ATZ), then Hard&#45;Reset if there is a pin.">
<polygon fill="white" stroke="#666666" points="504.75,-214 398.75,-214 398.75,-182 504.75,-182 504.75,-214"/>
<text text-anchor="start" x="406.75" y="-200.5" font-family="Helvetica,sans-Serif" font-size="10.00">LSM1x0A_Controller</text>
<text text-anchor="middle" x="451.75" y="-188.5" font-family="Helvetica,sans-Serif" font-size="10.00">::recoverModule</text>
</a>
</g>
</g>
<!-- Node2&#45;&gt;Node3 -->
<g id="edge2_Node000002_Node000003" class="edge">
<title>Node2&#45;&gt;Node3</title>
<g id="a_edge2_Node000002_Node000003"><a xlink:title=" ">
<path fill="none" stroke="#63b8ff" d="M311.94,-104.47C339.91,-123.32 385.89,-154.29 417.2,-175.39"/>
<polygon fill="#63b8ff" stroke="#63b8ff" points="414.91,-178.07 425.15,-180.75 418.82,-172.26 414.91,-178.07"/>
</a>
</g>
</g>
<!-- Node12 -->
<g id="Node000012" class="node">
<title>Node12</title>
<g id="a_Node000012"><a xlink:href="../../d6/d3c/classLSM1x0A__AtParser.html#a0ba6f927c54fceece22c17773d3f2600" target="_top" xlink:title="Sends a command and extracts a value from the response.">
<polygon fill="white" stroke="#666666" points="1720.5,-287 1546.25,-287 1546.25,-255 1720.5,-255 1720.5,-287"/>
<text text-anchor="start" x="1554.25" y="-273.5" font-family="Helvetica,sans-Serif" font-size="10.00">LSM1x0A_AtParser::sendCommand</text>
<text text-anchor="middle" x="1633.38" y="-261.5" font-family="Helvetica,sans-Serif" font-size="10.00">WithResponse</text>
</a>
</g>
</g>
<!-- Node2&#45;&gt;Node12 -->
<g id="edge57_Node000002_Node000012" class="edge">
<title>Node2&#45;&gt;Node12</title>
<g id="a_edge57_Node000002_Node000012"><a xlink:title=" ">
<path fill="none" stroke="#63b8ff" d="M323.94,-71.65C384.11,-46.21 508.54,0 619,0 619,0 619,0 1224.75,0 1401.69,0 1560.45,-179.26 1613.56,-246.19"/>
<polygon fill="#63b8ff" stroke="#63b8ff" points="1610.49,-247.95 1619.41,-253.67 1616,-243.64 1610.49,-247.95"/>
</a>
</g>
</g>
<!-- Node4 -->
<g id="Node000004" class="node">
<title>Node4</title>
<g id="a_Node000004"><a xlink:href="../../d8/d92/classLSM1x0A__Controller.html#a3f6f25b843fe4fb7042c544deae2ab16" target="_top" xlink:title="Manually clears bits from the internal EventGroup.">
<polygon fill="white" stroke="#666666" points="1067.62,-98 961.62,-98 961.62,-66 1067.62,-66 1067.62,-98"/>
<text text-anchor="start" x="969.62" y="-84.5" font-family="Helvetica,sans-Serif" font-size="10.00">LSM1x0A_Controller</text>
<text text-anchor="middle" x="1014.62" y="-72.5" font-family="Helvetica,sans-Serif" font-size="10.00">::clearEvents</text>
</a>
</g>
</g>
<!-- Node3&#45;&gt;Node4 -->
<g id="edge3_Node000003_Node000004" class="edge">
<title>Node3&#45;&gt;Node4</title>
<g id="a_edge3_Node000003_Node000004"><a xlink:title=" ">
<path fill="none" stroke="#63b8ff" d="M477.43,-181.53C494.48,-171 518.09,-158.03 540.75,-151 686.4,-105.82 731.48,-138.94 881.75,-113 904.25,-109.12 928.65,-103.72 950.27,-98.52"/>
<polygon fill="#63b8ff" stroke="#63b8ff" points="950.95,-101.96 959.83,-96.18 949.28,-95.16 950.95,-101.96"/>
</a>
</g>
</g>
<!-- Node5 -->
<g id="Node000005" class="node">
<title>Node5</title>
<g id="a_Node000005"><a xlink:href="../../d8/d92/classLSM1x0A__Controller.html#a345d4bd79fa16b18dc33a4ca788fe5f7" target="_top" xlink:title="Performs a hardware reset using the reset pin.">
<polygon fill="white" stroke="#666666" points="673,-104 567,-104 567,-72 673,-72 673,-104"/>
<text text-anchor="start" x="575" y="-90.5" font-family="Helvetica,sans-Serif" font-size="10.00">LSM1x0A_Controller</text>
<text text-anchor="middle" x="620" y="-78.5" font-family="Helvetica,sans-Serif" font-size="10.00">::hardwareReset</text>
</a>
</g>
</g>
<!-- Node3&#45;&gt;Node5 -->
<g id="edge4_Node000003_Node000005" class="edge">
<title>Node3&#45;&gt;Node5</title>
<g id="a_edge4_Node000003_Node000005"><a xlink:title=" ">
<path fill="none" stroke="#63b8ff" d="M467.21,-181.63C483.57,-163.93 511.74,-135.86 540.75,-118 546.02,-114.76 551.69,-111.77 557.49,-109.03"/>
<polygon fill="#63b8ff" stroke="#63b8ff" points="558.89,-112.24 566.63,-104.99 556.06,-105.83 558.89,-112.24"/>
</a>
</g>
</g>
<!-- Node7 -->
<g id="Node000007" class="node">
<title>Node7</title>
<g id="a_Node000007"><a xlink:href="../../d5/d72/classLSM1x0A__LoRaWAN.html#a1892801e37c8cd67d37c76108d6f7d49" target="_top" xlink:title="Validates if the device is currently Joined to the network. (Either confirmed by OTAA or statically a...">
<polygon fill="white" stroke="#666666" points="1300,-136 1147.5,-136 1147.5,-116 1300,-116 1300,-136"/>
<text text-anchor="middle" x="1223.75" y="-122.5" font-family="Helvetica,sans-Serif" font-size="10.00">LSM1x0A_LoRaWAN::isJoined</text>
</a>
</g>
</g>
<!-- Node3&#45;&gt;Node7 -->
<g id="edge6_Node000003_Node000007" class="edge">
<title>Node3&#45;&gt;Node7</title>
<g id="a_edge6_Node000003_Node000007"><a xlink:title=" ">
<path fill="none" stroke="#63b8ff" d="M457.68,-181.77C467.74,-151.92 493.73,-88.97 540.75,-63 651.79,-1.69 989.51,-22.24 1111.5,-57 1146.57,-66.99 1181.37,-91.56 1202.47,-108.51"/>
<polygon fill="#63b8ff" stroke="#63b8ff" points="1200.05,-111.05 1209.99,-114.72 1204.51,-105.65 1200.05,-111.05"/>
</a>
</g>
</g>
<!-- Node8 -->
<g id="Node000008" class="node">
<title>Node8</title>
<g id="a_Node000008"><a xlink:href="../../d5/d72/classLSM1x0A__LoRaWAN.html#a83e11c0e74ff9e0757db616ab1163424" target="_top" xlink:title="Attempts to recover a lost connection (re&#45;executes OTAA Join if dropped).">
<polygon fill="white" stroke="#666666" points="694.38,-192 545.62,-192 545.62,-160 694.38,-160 694.38,-192"/>
<text text-anchor="start" x="553.62" y="-178.5" font-family="Helvetica,sans-Serif" font-size="10.00">LSM1x0A_LoRaWAN::recover</text>
<text text-anchor="middle" x="620" y="-166.5" font-family="Helvetica,sans-Serif" font-size="10.00">Connection</text>
</a>
</g>
</g>
<!-- Node3&#45;&gt;Node8 -->
<g id="edge7_Node000003_Node000008" class="edge">
<title>Node3&#45;&gt;Node8</title>
<g id="a_edge7_Node000003_Node000008"><a xlink:title=" ">
<path fill="none" stroke="#63b8ff" d="M504.9,-191.1C514.24,-189.86 524.19,-188.55 534.17,-187.23"/>
<polygon fill="#63b8ff" stroke="#63b8ff" points="534.47,-190.72 543.92,-185.94 533.55,-183.78 534.47,-190.72"/>
</a>
</g>
</g>
<!-- Node16 -->
<g id="Node000016" class="node">
<title>Node16</title>
<g id="a_Node000016"><a xlink:href="../../d5/d72/classLSM1x0A__LoRaWAN.html#ae3be4ce59dfa200369733317df356e97" target="_top" xlink:title="Pushes the RAM&#45;cached variables back down into the hardware module. Restores the operational state af...">
<polygon fill="white" stroke="#666666" points="881.75,-539 735.25,-539 735.25,-507 881.75,-507 881.75,-539"/>
<text text-anchor="start" x="743.25" y="-525.5" font-family="Helvetica,sans-Serif" font-size="10.00">LSM1x0A_LoRaWAN::restore</text>
<text text-anchor="middle" x="808.5" y="-513.5" font-family="Helvetica,sans-Serif" font-size="10.00">Config</text>
</a>
</g>
</g>
<!-- Node3&#45;&gt;Node16 -->
<g id="edge20_Node000003_Node000016" class="edge">
<title>Node3&#45;&gt;Node16</title>
<g id="a_edge20_Node000003_Node000016"><a xlink:title=" ">
<path fill="none" stroke="#63b8ff" d="M470.34,-214.12C528.26,-267.18 713.19,-436.6 781.67,-499.34"/>
<polygon fill="#63b8ff" stroke="#63b8ff" points="778.95,-501.59 788.69,-505.76 783.68,-496.43 778.95,-501.59"/>
</a>
</g>
</g>
<!-- Node33 -->
<g id="Node000033" class="node">
<title>Node33</title>
<g id="a_Node000033"><a xlink:href="../../d5/d72/classLSM1x0A__LoRaWAN.html#ace4b04396f1de1f4a54f513f5f378db7" target="_top" xlink:title="Manually overrides the internal joined state tracker.">
<polygon fill="white" stroke="#666666" points="699.25,-939 540.75,-939 540.75,-919 699.25,-919 699.25,-939"/>
<text text-anchor="middle" x="620" y="-925.5" font-family="Helvetica,sans-Serif" font-size="10.00">LSM1x0A_LoRaWAN::setJoined</text>
</a>
</g>
</g>
<!-- Node3&#45;&gt;Node33 -->
<g id="edge54_Node000003_Node000033" class="edge">
<title>Node3&#45;&gt;Node33</title>
<g id="a_edge54_Node000003_Node000033"><a xlink:title=" ">
<path fill="none" stroke="#63b8ff" d="M452.47,-214.4C451.15,-310.08 449.08,-795.83 540.75,-905 543.17,-907.88 545.93,-910.43 548.93,-912.67"/>
<polygon fill="#63b8ff" stroke="#63b8ff" points="546.91,-915.54 557.27,-917.75 550.55,-909.56 546.91,-915.54"/>
</a>
</g>
</g>
<!-- Node34 -->
<g id="Node000034" class="node">
<title>Node34</title>
<g id="a_Node000034"><a xlink:href="../../d8/d92/classLSM1x0A__Controller.html#a11ad21cb5ca33ec51346764a23bd485e" target="_top" xlink:title="Performs a software reset (ATZ Command).">
<polygon fill="white" stroke="#666666" points="1276.75,-795 1170.75,-795 1170.75,-763 1276.75,-763 1276.75,-795"/>
<text text-anchor="start" x="1178.75" y="-781.5" font-family="Helvetica,sans-Serif" font-size="10.00">LSM1x0A_Controller</text>
<text text-anchor="middle" x="1223.75" y="-769.5" font-family="Helvetica,sans-Serif" font-size="10.00">::softwareReset</text>
</a>
</g>
</g>
<!-- Node3&#45;&gt;Node34 -->
<g id="edge55_Node000003_Node000034" class="edge">
<title>Node3&#45;&gt;Node34</title>
<g id="a_edge55_Node000003_Node000034"><a xlink:title=" ">
<path fill="none" stroke="#63b8ff" d="M453.39,-214.18C457.66,-318.83 483.75,-897.3 540.75,-948 605.94,-1005.99 873.89,-1058.87 1111.5,-932 1162.96,-904.52 1196.57,-841.52 1212.32,-805.51"/>
<polygon fill="#63b8ff" stroke="#63b8ff" points="1215.39,-807.25 1216.05,-796.67 1208.94,-804.53 1215.39,-807.25"/>
</a>
</g>
</g>
<!-- Node6 -->
<g id="Node000006" class="node">
<title>Node6</title>
<g id="a_Node000006"><a xlink:href="../../d6/d3c/classLSM1x0A__AtParser.html#ad2839120da13e56132b95019419be1e5" target="_top" xlink:title="Waits for an event (like BOOTALERT) without sending any command. Useful for hardware reset where the ...">
<polygon fill="white" stroke="#666666" points="878.75,-104 738.25,-104 738.25,-72 878.75,-72 878.75,-104"/>
<text text-anchor="start" x="746.25" y="-90.5" font-family="Helvetica,sans-Serif" font-size="10.00">LSM1x0A_AtParser::waitFor</text>
<text text-anchor="middle" x="808.5" y="-78.5" font-family="Helvetica,sans-Serif" font-size="10.00">Event</text>
</a>
</g>
</g>
<!-- Node5&#45;&gt;Node6 -->
<g id="edge5_Node000005_Node000006" class="edge">
<title>Node5&#45;&gt;Node6</title>
<g id="a_edge5_Node000005_Node000006"><a xlink:title=" ">
<path fill="none" stroke="#63b8ff" d="M673.45,-88C689.96,-88 708.61,-88 726.62,-88"/>
<polygon fill="#63b8ff" stroke="#63b8ff" points="726.53,-91.5 736.53,-88 726.53,-84.5 726.53,-91.5"/>
</a>
</g>
</g>
<!-- Node9 -->
<g id="Node000009" class="node">
<title>Node9</title>
<g id="a_Node000009"><a xlink:href="../../d5/d72/classLSM1x0A__LoRaWAN.html#a59f781f3cfd30c11cd3973bcb10a7baa" target="_top" xlink:title="Initiates a LoRaWAN Network Join procedure. This is a blocking function until the module fires an eve...">
<polygon fill="white" stroke="#666666" points="874.25,-186 742.75,-186 742.75,-166 874.25,-166 874.25,-186"/>
<text text-anchor="middle" x="808.5" y="-172.5" font-family="Helvetica,sans-Serif" font-size="10.00">LSM1x0A_LoRaWAN::join</text>
</a>
</g>
</g>
<!-- Node8&#45;&gt;Node9 -->
<g id="edge8_Node000008_Node000009" class="edge">
<title>Node8&#45;&gt;Node9</title>
<g id="a_edge8_Node000008_Node000009"><a xlink:title=" ">
<path fill="none" stroke="#63b8ff" d="M694.71,-176C706.67,-176 719.08,-176 731.1,-176"/>
<polygon fill="#63b8ff" stroke="#63b8ff" points="730.97,-179.5 740.97,-176 730.97,-172.5 730.97,-179.5"/>
</a>
</g>
</g>
<!-- Node9&#45;&gt;Node3 -->
<g id="edge10_Node000009_Node000003" class="edge">
<title>Node9&#45;&gt;Node3</title>
<g id="a_edge10_Node000009_Node000003"><a xlink:title=" ">
<path fill="none" stroke="#63b8ff" d="M771.77,-186.4C750.84,-191.95 723.78,-198.2 699.25,-201 629.26,-208.98 611.18,-202.2 540.75,-201 532.85,-200.87 524.56,-200.66 516.36,-200.43"/>
<polygon fill="#63b8ff" stroke="#63b8ff" points="516.48,-196.93 506.37,-200.12 516.26,-203.92 516.48,-196.93"/>
</a>
</g>
</g>
<!-- Node9&#45;&gt;Node4 -->
<g id="edge9_Node000009_Node000004" class="edge">
<title>Node9&#45;&gt;Node4</title>
<g id="a_edge9_Node000009_Node000004"><a xlink:title=" ">
<path fill="none" stroke="#63b8ff" d="M843.05,-165.52C855.8,-160.68 870.06,-154.16 881.75,-146 901.09,-132.5 897.52,-119.13 917.75,-107 927.7,-101.03 939.06,-96.47 950.4,-93"/>
<polygon fill="#63b8ff" stroke="#63b8ff" points="951.07,-96.45 959.76,-90.39 949.19,-89.7 951.07,-96.45"/>
</a>
</g>
</g>
<!-- Node10 -->
<g id="Node000010" class="node">
<title>Node10</title>
<g id="a_Node000010"><a xlink:href="../../d8/d92/classLSM1x0A__Controller.html#afd7d92e60ed6fdae696a955cdbe0ed8c" target="_top" xlink:title="Sends any AT command to the module, returning error if it fails. Internally uses the LsmAtParser logi...">
<polygon fill="white" stroke="#666666" points="1276.75,-558 1170.75,-558 1170.75,-526 1276.75,-526 1276.75,-558"/>
<text text-anchor="start" x="1178.75" y="-544.5" font-family="Helvetica,sans-Serif" font-size="10.00">LSM1x0A_Controller</text>
<text text-anchor="middle" x="1223.75" y="-532.5" font-family="Helvetica,sans-Serif" font-size="10.00">::sendCommand</text>
</a>
</g>
</g>
<!-- Node9&#45;&gt;Node10 -->
<g id="edge11_Node000009_Node000010" class="edge">
<title>Node9&#45;&gt;Node10</title>
<g id="a_edge11_Node000009_Node000010"><a xlink:title=" ">
<path fill="none" stroke="#63b8ff" d="M874.53,-171.81C952.14,-168.2 1075.91,-167.28 1111.5,-195 1213.23,-274.23 1223.49,-447.25 1223.45,-514.5"/>
<polygon fill="#63b8ff" stroke="#63b8ff" points="1219.95,-514.23 1223.35,-524.26 1226.95,-514.3 1219.95,-514.23"/>
</a>
</g>
</g>
<!-- Node14 -->
<g id="Node000014" class="node">
<title>Node14</title>
<g id="a_Node000014"><a xlink:href="../../d5/d72/classLSM1x0A__LoRaWAN.html#a3fdd1ac318a5ad2559323e5d57e36a5e" target="_top" xlink:title="Enables or disables specific sub&#45;bands for regions supporting Channel Masks (e.g.,...">
<polygon fill="white" stroke="#666666" points="1109.62,-224 919.62,-224 919.62,-204 1109.62,-204 1109.62,-224"/>
<text text-anchor="middle" x="1014.62" y="-210.5" font-family="Helvetica,sans-Serif" font-size="10.00">LSM1x0A_LoRaWAN::setChannelMask</text>
</a>
</g>
</g>
<!-- Node9&#45;&gt;Node14 -->
<g id="edge16_Node000009_Node000014" class="edge">
<title>Node9&#45;&gt;Node14</title>
<g id="a_edge16_Node000009_Node000014"><a xlink:title=" ">
<path fill="none" stroke="#63b8ff" d="M865.82,-186.48C890.69,-191.12 920.14,-196.6 946.18,-201.44"/>
<polygon fill="#63b8ff" stroke="#63b8ff" points="945.53,-204.88 956,-203.27 946.81,-198 945.53,-204.88"/>
</a>
</g>
</g>
<!-- Node15 -->
<g id="Node000015" class="node">
<title>Node15</title>
<g id="a_Node000015"><a xlink:href="../../d8/d92/classLSM1x0A__Controller.html#a62476e30e50c7fe120aeb8df4b828675" target="_top" xlink:title="Synchronously/blockingly waits for an asynchronous event to occur. Useful for wrapping commands like ...">
<polygon fill="white" stroke="#666666" points="1067.62,-148 961.62,-148 961.62,-116 1067.62,-116 1067.62,-148"/>
<text text-anchor="start" x="969.62" y="-134.5" font-family="Helvetica,sans-Serif" font-size="10.00">LSM1x0A_Controller</text>
<text text-anchor="middle" x="1014.62" y="-122.5" font-family="Helvetica,sans-Serif" font-size="10.00">::waitForEvent</text>
</a>
</g>
</g>
<!-- Node9&#45;&gt;Node15 -->
<g id="edge19_Node000009_Node000015" class="edge">
<title>Node9&#45;&gt;Node15</title>
<g id="a_edge19_Node000009_Node000015"><a xlink:title=" ">
<path fill="none" stroke="#63b8ff" d="M858.13,-165.52C885.74,-159.57 920.61,-152.05 950.32,-145.65"/>
<polygon fill="#63b8ff" stroke="#63b8ff" points="950.92,-149.1 959.95,-143.57 949.44,-142.25 950.92,-149.1"/>
</a>
</g>
</g>
<!-- Node10&#45;&gt;Node3 -->
<g id="edge12_Node000010_Node000003" class="edge">
<title>Node10&#45;&gt;Node3</title>
<g id="a_edge12_Node000010_Node000003"><a xlink:title=" ">
<path fill="none" stroke="#63b8ff" d="M1216.32,-558.31C1202.56,-593.61 1169.66,-679.91 1147.5,-754 1128.23,-818.44 1164.42,-859.48 1111.5,-901 1043.75,-954.16 994.19,-940.65 917.75,-901 630.43,-751.97 492.47,-335.66 460.27,-225.19"/>
<polygon fill="#63b8ff" stroke="#63b8ff" points="463.7,-224.47 457.58,-215.82 456.97,-226.4 463.7,-224.47"/>
</a>
</g>
</g>
<!-- Node11 -->
<g id="Node000011" class="node">
<title>Node11</title>
<g id="a_Node000011"><a xlink:href="../../d6/d3c/classLSM1x0A__AtParser.html#a29b53c521974387ba6c03afadfaffa4a" target="_top" xlink:title="Sends a simple command and waits for OK/ERROR. Example: sendCommand(&quot;AT+JOIN&quot;);.">
<polygon fill="white" stroke="#666666" points="1510.25,-552 1336,-552 1336,-532 1510.25,-532 1510.25,-552"/>
<text text-anchor="middle" x="1423.12" y="-538.5" font-family="Helvetica,sans-Serif" font-size="10.00">LSM1x0A_AtParser::sendCommand</text>
</a>
</g>
</g>
<!-- Node10&#45;&gt;Node11 -->
<g id="edge13_Node000010_Node000011" class="edge">
<title>Node10&#45;&gt;Node11</title>
<g id="a_edge13_Node000010_Node000011"><a xlink:title=" ">
<path fill="none" stroke="#63b8ff" d="M1277.12,-542C1291.69,-542 1308,-542 1324.28,-542"/>
<polygon fill="#63b8ff" stroke="#63b8ff" points="1324.01,-545.5 1334.01,-542 1324.01,-538.5 1324.01,-545.5"/>
</a>
</g>
</g>
<!-- Node11&#45;&gt;Node12 -->
<g id="edge14_Node000011_Node000012" class="edge">
<title>Node11&#45;&gt;Node12</title>
<g id="a_edge14_Node000011_Node000012"><a xlink:title=" ">
<path fill="none" stroke="#63b8ff" d="M1432.03,-531.71C1461.94,-492.78 1568.68,-353.88 1612.94,-296.3"/>
<polygon fill="#63b8ff" stroke="#63b8ff" points="1615.48,-298.73 1618.8,-288.67 1609.93,-294.46 1615.48,-298.73"/>
</a>
</g>
</g>
<!-- Node13 -->
<g id="Node000013" class="node">
<title>Node13</title>
<g id="a_Node000013"><a xlink:href="../../d5/d8b/classUartDriver.html#a5d0f22e8867eebe99273078bb19bd23d" target="_top" xlink:title="Sends data through UART.">
<polygon fill="white" stroke="#666666" points="1865.5,-281 1756.5,-281 1756.5,-261 1865.5,-261 1865.5,-281"/>
<text text-anchor="middle" x="1811" y="-267.5" font-family="Helvetica,sans-Serif" font-size="10.00">UartDriver::sendData</text>
</a>
</g>
</g>
<!-- Node12&#45;&gt;Node13 -->
<g id="edge15_Node000012_Node000013" class="edge">
<title>Node12&#45;&gt;Node13</title>
<g id="a_edge15_Node000012_Node000013"><a xlink:title=" ">
<path fill="none" stroke="#63b8ff" d="M1720.9,-271C1729.05,-271 1737.2,-271 1745.1,-271"/>
<polygon fill="#63b8ff" stroke="#63b8ff" points="1744.93,-274.5 1754.93,-271 1744.93,-267.5 1744.93,-274.5"/>
</a>
</g>
</g>
<!-- Node14&#45;&gt;Node7 -->
<g id="edge17_Node000014_Node000007" class="edge">
<title>Node14&#45;&gt;Node7</title>
<g id="a_edge17_Node000014_Node000007"><a xlink:title=" ">
<path fill="none" stroke="#63b8ff" d="M1040.2,-203.56C1076.79,-188.01 1145.78,-158.7 1187.67,-140.9"/>
<polygon fill="#63b8ff" stroke="#63b8ff" points="1188.98,-144.15 1196.82,-137.02 1186.24,-137.71 1188.98,-144.15"/>
</a>
</g>
</g>
<!-- Node14&#45;&gt;Node10 -->
<g id="edge18_Node000014_Node000010" class="edge">
<title>Node14&#45;&gt;Node10</title>
<g id="a_edge18_Node000014_Node000010"><a xlink:title=" ">
<path fill="none" stroke="#63b8ff" d="M1098.38,-224.28C1103.08,-226.69 1107.51,-229.57 1111.5,-233 1197.83,-307.27 1217.17,-453.75 1221.5,-514.55"/>
<polygon fill="#63b8ff" stroke="#63b8ff" points="1218,-514.57 1222.11,-524.33 1224.98,-514.13 1218,-514.57"/>
</a>
</g>
</g>
<!-- Node16&#45;&gt;Node14 -->
<g id="edge25_Node000016_Node000014" class="edge">
<title>Node16&#45;&gt;Node14</title>
<g id="a_edge25_Node000016_Node000014"><a xlink:title=" ">
<path fill="none" stroke="#63b8ff" d="M810.3,-506.78C813.68,-457.25 830.95,-306.79 917.75,-233 918.88,-232.04 920.04,-231.13 921.23,-230.25"/>
<polygon fill="#63b8ff" stroke="#63b8ff" points="922.92,-233.33 929.62,-225.12 919.27,-227.35 922.92,-233.33"/>
</a>
</g>
</g>
<!-- Node17 -->
<g id="Node000017" class="node">
<title>Node17</title>
<g id="a_Node000017"><a xlink:href="../../d5/d72/classLSM1x0A__LoRaWAN.html#af0baa3db4c7fab580d6b19a9e92472f6" target="_top" xlink:title="Enables or disables Adaptive Data Rate (ADR).">
<polygon fill="white" stroke="#666666" points="1090.5,-350 938.75,-350 938.75,-330 1090.5,-330 1090.5,-350"/>
<text text-anchor="middle" x="1014.62" y="-336.5" font-family="Helvetica,sans-Serif" font-size="10.00">LSM1x0A_LoRaWAN::setADR</text>
</a>
</g>
</g>
<!-- Node16&#45;&gt;Node17 -->
<g id="edge21_Node000016_Node000017" class="edge">
<title>Node16&#45;&gt;Node17</title>
<g id="a_edge21_Node000016_Node000017"><a xlink:title=" ">
<path fill="none" stroke="#63b8ff" d="M815.31,-506.6C828.1,-473 862.1,-396.38 917.75,-359 921.02,-356.8 924.48,-354.85 928.08,-353.11"/>
<polygon fill="#63b8ff" stroke="#63b8ff" points="929.23,-356.42 937.12,-349.35 926.54,-349.96 929.23,-356.42"/>
</a>
</g>
</g>
<!-- Node18 -->
<g id="Node000018" class="node">
<title>Node18</title>
<g id="a_Node000018"><a xlink:href="../../d5/d72/classLSM1x0A__LoRaWAN.html#a5365ed1596eb84ebf1e3b33b4a10c788" target="_top" xlink:title="Sets the LoRaWAN operational frequency band.">
<polygon fill="white" stroke="#666666" points="1090.88,-312 938.38,-312 938.38,-292 1090.88,-292 1090.88,-312"/>
<text text-anchor="middle" x="1014.62" y="-298.5" font-family="Helvetica,sans-Serif" font-size="10.00">LSM1x0A_LoRaWAN::setBand</text>
</a>
</g>
</g>
<!-- Node16&#45;&gt;Node18 -->
<g id="edge23_Node000016_Node000018" class="edge">
<title>Node16&#45;&gt;Node18</title>
<g id="a_edge23_Node000016_Node000018"><a xlink:title=" ">
<path fill="none" stroke="#63b8ff" d="M813.22,-506.5C822.95,-467.43 852.99,-368.94 917.75,-321 920.91,-318.66 924.29,-316.58 927.82,-314.75"/>
<polygon fill="#63b8ff" stroke="#63b8ff" points="929,-318.05 936.72,-310.8 926.16,-311.66 929,-318.05"/>
</a>
</g>
</g>
<!-- Node19 -->
<g id="Node000019" class="node">
<title>Node19</title>
<g id="a_Node000019"><a xlink:href="../../d5/d72/classLSM1x0A__LoRaWAN.html#a9d9285c43414337a0ccb3a6cd7ca06e6" target="_top" xlink:title="Configures the number of retries for Confirmed uplinks.">
<polygon fill="white" stroke="#666666" points="1096.88,-274 932.38,-274 932.38,-242 1096.88,-242 1096.88,-274"/>
<text text-anchor="start" x="940.38" y="-260.5" font-family="Helvetica,sans-Serif" font-size="10.00">LSM1x0A_LoRaWAN::setConfirm</text>
<text text-anchor="middle" x="1014.62" y="-248.5" font-family="Helvetica,sans-Serif" font-size="10.00">Retry</text>
</a>
</g>
</g>
<!-- Node16&#45;&gt;Node19 -->
<g id="edge26_Node000016_Node000019" class="edge">
<title>Node16&#45;&gt;Node19</title>
<g id="a_edge26_Node000016_Node000019"><a xlink:title=" ">
<path fill="none" stroke="#63b8ff" d="M811.93,-506.7C819.3,-463.28 845.45,-344.03 917.75,-283 919.24,-281.74 920.79,-280.55 922.38,-279.41"/>
<polygon fill="#63b8ff" stroke="#63b8ff" points="924,-282.52 930.7,-274.32 920.35,-276.55 924,-282.52"/>
</a>
</g>
</g>
<!-- Node20 -->
<g id="Node000020" class="node">
<title>Node20</title>
<g id="a_Node000020"><a xlink:href="../../d5/d72/classLSM1x0A__LoRaWAN.html#a56345ceeafa0b9059d6de4e69eddc82e" target="_top" xlink:title="Sets the Data Rate (DR) of the module.">
<polygon fill="white" stroke="#666666" points="1100.62,-892 928.62,-892 928.62,-872 1100.62,-872 1100.62,-892"/>
<text text-anchor="middle" x="1014.62" y="-878.5" font-family="Helvetica,sans-Serif" font-size="10.00">LSM1x0A_LoRaWAN::setDataRate</text>
</a>
</g>
</g>
<!-- Node16&#45;&gt;Node20 -->
<g id="edge28_Node000016_Node000020" class="edge">
<title>Node16&#45;&gt;Node20</title>
<g id="a_edge28_Node000016_Node000020"><a xlink:title=" ">
<path fill="none" stroke="#63b8ff" d="M809.3,-539.16C809.54,-593.93 818.19,-774.06 917.75,-863 918.7,-863.85 919.67,-864.66 920.67,-865.44"/>
<polygon fill="#63b8ff" stroke="#63b8ff" points="918.7,-868.34 929,-870.83 922.5,-862.46 918.7,-868.34"/>
</a>
</g>
</g>
<!-- Node21 -->
<g id="Node000021" class="node">
<title>Node21</title>
<g id="a_Node000021"><a xlink:href="../../d5/d72/classLSM1x0A__LoRaWAN.html#a8494083816ab885cb07fc3b08de029f4" target="_top" xlink:title="Sets the LoRaWAN Device Address (DevAddr) for ABP mode.">
<polygon fill="white" stroke="#666666" points="1098.75,-854 930.5,-854 930.5,-834 1098.75,-834 1098.75,-854"/>
<text text-anchor="middle" x="1014.62" y="-840.5" font-family="Helvetica,sans-Serif" font-size="10.00">LSM1x0A_LoRaWAN::setDevAddr</text>
</a>
</g>
</g>
<!-- Node16&#45;&gt;Node21 -->
<g id="edge30_Node000016_Node000021" class="edge">
<title>Node16&#45;&gt;Node21</title>
<g id="a_edge30_Node000016_Node000021"><a xlink:title=" ">
<path fill="none" stroke="#63b8ff" d="M810.03,-539.15C812.62,-589.92 827.87,-747.57 917.75,-825 918.87,-825.97 920.03,-826.89 921.21,-827.77"/>
<polygon fill="#63b8ff" stroke="#63b8ff" points="919.23,-830.65 929.57,-832.93 922.9,-824.7 919.23,-830.65"/>
</a>
</g>
</g>
<!-- Node22 -->
<g id="Node000022" class="node">
<title>Node22</title>
<g id="a_Node000022"><a xlink:href="../../d5/d72/classLSM1x0A__LoRaWAN.html#ad320634e52d7ea907043cc50dd37c5b0" target="_top" xlink:title="Sets the LoRaWAN Device EUI (DevEUI).">
<polygon fill="white" stroke="#666666" points="1097.25,-816 932,-816 932,-796 1097.25,-796 1097.25,-816"/>
<text text-anchor="middle" x="1014.62" y="-802.5" font-family="Helvetica,sans-Serif" font-size="10.00">LSM1x0A_LoRaWAN::setDevEUI</text>
</a>
</g>
</g>
<!-- Node16&#45;&gt;Node22 -->
<g id="edge32_Node000016_Node000022" class="edge">
<title>Node16&#45;&gt;Node22</title>
<g id="a_edge32_Node000016_Node000022"><a xlink:title=" ">
<path fill="none" stroke="#63b8ff" d="M810.99,-539.44C816.14,-586.24 837.62,-721.05 917.75,-787 919.24,-788.22 920.78,-789.38 922.37,-790.46"/>
<polygon fill="#63b8ff" stroke="#63b8ff" points="920.23,-793.27 930.65,-795.21 923.72,-787.2 920.23,-793.27"/>
</a>
</g>
</g>
<!-- Node23 -->
<g id="Node000023" class="node">
<title>Node23</title>
<g id="a_Node000023"><a xlink:href="../../d5/d72/classLSM1x0A__LoRaWAN.html#a031023b0d2dd5db3c51c2db6ae7801cc" target="_top" xlink:title="Enables or disables the Duty Cycle limitation (EU regions mostly).">
<polygon fill="white" stroke="#666666" points="1090.12,-778 939.12,-778 939.12,-746 1090.12,-746 1090.12,-778"/>
<text text-anchor="start" x="947.12" y="-764.5" font-family="Helvetica,sans-Serif" font-size="10.00">LSM1x0A_LoRaWAN::setDuty</text>
<text text-anchor="middle" x="1014.62" y="-752.5" font-family="Helvetica,sans-Serif" font-size="10.00">Cycle</text>
</a>
</g>
</g>
<!-- Node16&#45;&gt;Node23 -->
<g id="edge34_Node000016_Node000023" class="edge">
<title>Node16&#45;&gt;Node23</title>
<g id="a_edge34_Node000016_Node000023"><a xlink:title=" ">
<path fill="none" stroke="#63b8ff" d="M812.9,-539.3C822.15,-579.44 851.64,-683.67 917.75,-737 921.19,-739.78 924.91,-742.25 928.81,-744.44"/>
<polygon fill="#63b8ff" stroke="#63b8ff" points="926.96,-747.44 937.48,-748.7 930.05,-741.15 926.96,-747.44"/>
</a>
</g>
</g>
<!-- Node24 -->
<g id="Node000024" class="node">
<title>Node24</title>
<g id="a_Node000024"><a xlink:href="../../d5/d72/classLSM1x0A__LoRaWAN.html#a6b179d5825c49af0f391dfc539912f64" target="_top" xlink:title="Sets the delay for the Join1 receive window.">
<polygon fill="white" stroke="#666666" points="1091.25,-728 938,-728 938,-696 1091.25,-696 1091.25,-728"/>
<text text-anchor="start" x="946" y="-714.5" font-family="Helvetica,sans-Serif" font-size="10.00">LSM1x0A_LoRaWAN::setJoin1</text>
<text text-anchor="middle" x="1014.62" y="-702.5" font-family="Helvetica,sans-Serif" font-size="10.00">Delay</text>
</a>
</g>
</g>
<!-- Node16&#45;&gt;Node24 -->
<g id="edge36_Node000016_Node000024" class="edge">
<title>Node16&#45;&gt;Node24</title>
<g id="a_edge36_Node000016_Node000024"><a xlink:title=" ">
<path fill="none" stroke="#63b8ff" d="M815.59,-539.39C828.81,-572.62 863.38,-648.08 917.75,-687 920.92,-689.27 924.29,-691.34 927.78,-693.21"/>
<polygon fill="#63b8ff" stroke="#63b8ff" points="926.03,-696.26 936.57,-697.38 929.03,-689.93 926.03,-696.26"/>
</a>
</g>
</g>
<!-- Node25 -->
<g id="Node000025" class="node">
<title>Node25</title>
<g id="a_Node000025"><a xlink:href="../../d5/d72/classLSM1x0A__LoRaWAN.html#a4545d0caad41558cdb9bae8286b104d8" target="_top" xlink:title="Sets the delay for the Join2 receive window.">
<polygon fill="white" stroke="#666666" points="1091.25,-678 938,-678 938,-646 1091.25,-646 1091.25,-678"/>
<text text-anchor="start" x="946" y="-664.5" font-family="Helvetica,sans-Serif" font-size="10.00">LSM1x0A_LoRaWAN::setJoin2</text>
<text text-anchor="middle" x="1014.62" y="-652.5" font-family="Helvetica,sans-Serif" font-size="10.00">Delay</text>
</a>
</g>
</g>
<!-- Node16&#45;&gt;Node25 -->
<g id="edge38_Node000016_Node000025" class="edge">
<title>Node16&#45;&gt;Node25</title>
<g id="a_edge38_Node000016_Node000025"><a xlink:title=" ">
<path fill="none" stroke="#63b8ff" d="M820.39,-539.33C837.9,-564.27 874.74,-611.61 917.75,-637 920.76,-638.78 923.9,-640.43 927.13,-641.97"/>
<polygon fill="#63b8ff" stroke="#63b8ff" points="925.73,-645.18 936.3,-645.9 928.49,-638.74 925.73,-645.18"/>
</a>
</g>
</g>
<!-- Node26 -->
<g id="Node000026" class="node">
<title>Node26</title>
<g id="a_Node000026"><a xlink:href="../../d5/d72/classLSM1x0A__LoRaWAN.html#a06bd50723ec1eb7e144c9141b2ec86fc" target="_top" xlink:title="Sets the LoRaWAN Network ID (NetID).">
<polygon fill="white" stroke="#666666" points="1095,-628 934.25,-628 934.25,-608 1095,-608 1095,-628"/>
<text text-anchor="middle" x="1014.62" y="-614.5" font-family="Helvetica,sans-Serif" font-size="10.00">LSM1x0A_LoRaWAN::setNwkID</text>
</a>
</g>
</g>
<!-- Node16&#45;&gt;Node26 -->
<g id="edge40_Node000016_Node000026" class="edge">
<title>Node16&#45;&gt;Node26</title>
<g id="a_edge40_Node000016_Node000026"><a xlink:title=" ">
<path fill="none" stroke="#63b8ff" d="M827.6,-539.34C848.01,-556.84 882.91,-584.11 917.75,-599 922.35,-600.97 927.16,-602.73 932.08,-604.32"/>
<polygon fill="#63b8ff" stroke="#63b8ff" points="930.92,-607.63 941.51,-607.08 932.89,-600.91 930.92,-607.63"/>
</a>
</g>
</g>
<!-- Node27 -->
<g id="Node000027" class="node">
<title>Node27</title>
<g id="a_Node000027"><a xlink:href="../../d5/d72/classLSM1x0A__LoRaWAN.html#aa70ada64d28ecca216bb62268e502adf" target="_top" xlink:title="Sets the delay for the RX1 receive window.">
<polygon fill="white" stroke="#666666" points="1101.38,-590 927.88,-590 927.88,-570 1101.38,-570 1101.38,-590"/>
<text text-anchor="middle" x="1014.62" y="-576.5" font-family="Helvetica,sans-Serif" font-size="10.00">LSM1x0A_LoRaWAN::setRx1Delay</text>
</a>
</g>
</g>
<!-- Node16&#45;&gt;Node27 -->
<g id="edge42_Node000016_Node000027" class="edge">
<title>Node16&#45;&gt;Node27</title>
<g id="a_edge42_Node000016_Node000027"><a xlink:title=" ">
<path fill="none" stroke="#63b8ff" d="M851.99,-539.49C871.77,-546.76 895.75,-554.99 917.75,-561 925.83,-563.21 934.36,-565.27 942.87,-567.16"/>
<polygon fill="#63b8ff" stroke="#63b8ff" points="942,-570.55 952.51,-569.23 943.47,-563.71 942,-570.55"/>
</a>
</g>
</g>
<!-- Node28 -->
<g id="Node000028" class="node">
<title>Node28</title>
<g id="a_Node000028"><a xlink:href="../../d5/d72/classLSM1x0A__LoRaWAN.html#a2cf4eff0181b6107d082bccefa24217b" target="_top" xlink:title="Sets the Data Rate (DR) specifically for the RX2 window.">
<polygon fill="white" stroke="#666666" points="1109.62,-552 919.62,-552 919.62,-532 1109.62,-532 1109.62,-552"/>
<text text-anchor="middle" x="1014.62" y="-538.5" font-family="Helvetica,sans-Serif" font-size="10.00">LSM1x0A_LoRaWAN::setRx2DataRate</text>
</a>
</g>
</g>
<!-- Node16&#45;&gt;Node28 -->
<g id="edge44_Node000016_Node000028" class="edge">
<title>Node16&#45;&gt;Node28</title>
<g id="a_edge44_Node000016_Node000028"><a xlink:title=" ">
<path fill="none" stroke="#63b8ff" d="M882.04,-529.75C890.41,-530.53 899.06,-531.34 907.76,-532.15"/>
<polygon fill="#63b8ff" stroke="#63b8ff" points="907.39,-535.63 917.68,-533.07 908.04,-528.66 907.39,-535.63"/>
</a>
</g>
</g>
<!-- Node29 -->
<g id="Node000029" class="node">
<title>Node29</title>
<g id="a_Node000029"><a xlink:href="../../d5/d72/classLSM1x0A__LoRaWAN.html#a42d2137b475b57e19d891a5f1ac93221" target="_top" xlink:title="Sets the delay for the RX2 receive window.">
<polygon fill="white" stroke="#666666" points="1101.38,-514 927.88,-514 927.88,-494 1101.38,-494 1101.38,-514"/>
<text text-anchor="middle" x="1014.62" y="-500.5" font-family="Helvetica,sans-Serif" font-size="10.00">LSM1x0A_LoRaWAN::setRx2Delay</text>
</a>
</g>
</g>
<!-- Node16&#45;&gt;Node29 -->
<g id="edge46_Node000016_Node000029" class="edge">
<title>Node16&#45;&gt;Node29</title>
<g id="a_edge46_Node000016_Node000029"><a xlink:title=" ">
<path fill="none" stroke="#63b8ff" d="M882.04,-516.25C893.24,-515.21 904.97,-514.11 916.6,-513.03"/>
<polygon fill="#63b8ff" stroke="#63b8ff" points="916.57,-516.55 926.2,-512.14 915.92,-509.58 916.57,-516.55"/>
</a>
</g>
</g>
<!-- Node30 -->
<g id="Node000030" class="node">
<title>Node30</title>
<g id="a_Node000030"><a xlink:href="../../d5/d72/classLSM1x0A__LoRaWAN.html#a689f7dfda1dfeae11ea397c2ddf2ad37" target="_top" xlink:title="Sets the precise frequency for the RX2 window.">
<polygon fill="white" stroke="#666666" points="1111.5,-476 917.75,-476 917.75,-456 1111.5,-456 1111.5,-476"/>
<text text-anchor="middle" x="1014.62" y="-462.5" font-family="Helvetica,sans-Serif" font-size="10.00">LSM1x0A_LoRaWAN::setRx2Frequency</text>
</a>
</g>
</g>
<!-- Node16&#45;&gt;Node30 -->
<g id="edge48_Node000016_Node000030" class="edge">
<title>Node16&#45;&gt;Node30</title>
<g id="a_edge48_Node000016_Node000030"><a xlink:title=" ">
<path fill="none" stroke="#63b8ff" d="M851.99,-506.51C871.77,-499.24 895.75,-491.01 917.75,-485 925.83,-482.79 934.36,-480.73 942.87,-478.84"/>
<polygon fill="#63b8ff" stroke="#63b8ff" points="943.47,-482.29 952.51,-476.77 942,-475.45 943.47,-482.29"/>
</a>
</g>
</g>
<!-- Node31 -->
<g id="Node000031" class="node">
<title>Node31</title>
<g id="a_Node000031"><a xlink:href="../../d5/d72/classLSM1x0A__LoRaWAN.html#a1df10d7ae6bf45b537d28d3d5c4b88d7" target="_top" xlink:title="Sets the transmission power index.">
<polygon fill="white" stroke="#666666" points="1099.12,-438 930.12,-438 930.12,-418 1099.12,-418 1099.12,-438"/>
<text text-anchor="middle" x="1014.62" y="-424.5" font-family="Helvetica,sans-Serif" font-size="10.00">LSM1x0A_LoRaWAN::setTxPower</text>
</a>
</g>
</g>
<!-- Node16&#45;&gt;Node31 -->
<g id="edge50_Node000016_Node000031" class="edge">
<title>Node16&#45;&gt;Node31</title>
<g id="a_edge50_Node000016_Node000031"><a xlink:title=" ">
<path fill="none" stroke="#63b8ff" d="M827.6,-506.66C848.01,-489.16 882.91,-461.89 917.75,-447 922.35,-445.03 927.16,-443.27 932.08,-441.68"/>
<polygon fill="#63b8ff" stroke="#63b8ff" points="932.89,-445.09 941.51,-438.92 930.92,-438.37 932.89,-445.09"/>
</a>
</g>
</g>
<!-- Node32 -->
<g id="Node000032" class="node">
<title>Node32</title>
<g id="a_Node000032"><a xlink:href="../../d5/d72/classLSM1x0A__LoRaWAN.html#a059fd6a9356c4ecadd5a98294da5952d" target="_top" xlink:title="Configures the number of repetitions for Unconfirmed uplinks.">
<polygon fill="white" stroke="#666666" points="1102.12,-400 927.12,-400 927.12,-368 1102.12,-368 1102.12,-400"/>
<text text-anchor="start" x="935.12" y="-386.5" font-family="Helvetica,sans-Serif" font-size="10.00">LSM1x0A_LoRaWAN::setUnconfirm</text>
<text text-anchor="middle" x="1014.62" y="-374.5" font-family="Helvetica,sans-Serif" font-size="10.00">Retry</text>
</a>
</g>
</g>
<!-- Node16&#45;&gt;Node32 -->
<g id="edge52_Node000016_Node000032" class="edge">
<title>Node16&#45;&gt;Node32</title>
<g id="a_edge52_Node000016_Node000032"><a xlink:title=" ">
<path fill="none" stroke="#63b8ff" d="M820.39,-506.67C837.9,-481.73 874.74,-434.39 917.75,-409 920.06,-407.64 922.45,-406.34 924.89,-405.12"/>
<polygon fill="#63b8ff" stroke="#63b8ff" points="926.15,-408.4 933.83,-401.1 923.28,-402.01 926.15,-408.4"/>
</a>
</g>
</g>
<!-- Node17&#45;&gt;Node10 -->
<g id="edge22_Node000017_Node000010" class="edge">
<title>Node17&#45;&gt;Node10</title>
<g id="a_edge22_Node000017_Node000010"><a xlink:title=" ">
<path fill="none" stroke="#63b8ff" d="M1090.9,-348.53C1098.22,-351.2 1105.24,-354.62 1111.5,-359 1167.09,-397.86 1199.94,-474.26 1214.24,-514.97"/>
<polygon fill="#63b8ff" stroke="#63b8ff" points="1210.86,-515.89 1217.37,-524.24 1217.49,-513.65 1210.86,-515.89"/>
</a>
</g>
</g>
<!-- Node18&#45;&gt;Node10 -->
<g id="edge24_Node000018_Node000010" class="edge">
<title>Node18&#45;&gt;Node10</title>
<g id="a_edge24_Node000018_Node000010"><a xlink:title=" ">
<path fill="none" stroke="#63b8ff" d="M1091.27,-310.03C1098.52,-312.79 1105.42,-316.38 1111.5,-321 1176.12,-370.13 1205.96,-467.16 1217.16,-514.6"/>
<polygon fill="#63b8ff" stroke="#63b8ff" points="1213.67,-515.06 1219.28,-524.05 1220.5,-513.53 1213.67,-515.06"/>
</a>
</g>
</g>
<!-- Node19&#45;&gt;Node10 -->
<g id="edge27_Node000019_Node000010" class="edge">
<title>Node19&#45;&gt;Node10</title>
<g id="a_edge27_Node000019_Node000010"><a xlink:title=" ">
<path fill="none" stroke="#63b8ff" d="M1097.33,-273.44C1102.41,-276.14 1107.2,-279.3 1111.5,-283 1183.45,-344.86 1210.23,-461.59 1218.99,-514.59"/>
<polygon fill="#63b8ff" stroke="#63b8ff" points="1215.5,-514.92 1220.49,-524.26 1222.42,-513.84 1215.5,-514.92"/>
</a>
</g>
</g>
<!-- Node20&#45;&gt;Node10 -->
<g id="edge29_Node000020_Node000010" class="edge">
<title>Node20&#45;&gt;Node10</title>
<g id="a_edge29_Node000020_Node000010"><a xlink:title=" ">
<path fill="none" stroke="#63b8ff" d="M1098.94,-871.6C1103.45,-869.21 1107.69,-866.37 1111.5,-863 1149.73,-829.22 1130.97,-802.26 1147.5,-754 1170.31,-687.42 1198.3,-609.52 1212.87,-569.23"/>
<polygon fill="#63b8ff" stroke="#63b8ff" points="1216.14,-570.47 1216.26,-559.87 1209.56,-568.08 1216.14,-570.47"/>
</a>
</g>
</g>
<!-- Node21&#45;&gt;Node10 -->
<g id="edge31_Node000021_Node000010" class="edge">
<title>Node21&#45;&gt;Node10</title>
<g id="a_edge31_Node000021_Node000010"><a xlink:title=" ">
<path fill="none" stroke="#63b8ff" d="M1098.27,-833.58C1103,-831.21 1107.46,-828.37 1111.5,-825 1132.28,-807.64 1191.19,-636.39 1213.78,-569.02"/>
<polygon fill="#63b8ff" stroke="#63b8ff" points="1216.99,-570.45 1216.84,-559.86 1210.35,-568.24 1216.99,-570.45"/>
</a>
</g>
</g>
<!-- Node22&#45;&gt;Node10 -->
<g id="edge33_Node000022_Node000010" class="edge">
<title>Node22&#45;&gt;Node10</title>
<g id="a_edge33_Node000022_Node000010"><a xlink:title=" ">
<path fill="none" stroke="#63b8ff" d="M1097.61,-795.56C1102.55,-793.2 1107.24,-790.37 1111.5,-787 1182,-731.13 1209.39,-620.69 1218.63,-569.39"/>
<polygon fill="#63b8ff" stroke="#63b8ff" points="1222.04,-570.18 1220.26,-559.74 1215.14,-569.01 1222.04,-570.18"/>
</a>
</g>
</g>
<!-- Node23&#45;&gt;Node10 -->
<g id="edge35_Node000023_Node000010" class="edge">
<title>Node23&#45;&gt;Node10</title>
<g id="a_edge35_Node000023_Node000010"><a xlink:title=" ">
<path fill="none" stroke="#63b8ff" d="M1090.16,-749.05C1097.79,-745.87 1105.08,-741.92 1111.5,-737 1168.49,-693.34 1201.06,-611.57 1214.85,-569.12"/>
<polygon fill="#63b8ff" stroke="#63b8ff" points="1218.15,-570.29 1217.8,-559.7 1211.47,-568.2 1218.15,-570.29"/>
</a>
</g>
</g>
<!-- Node24&#45;&gt;Node10 -->
<g id="edge37_Node000024_Node000010" class="edge">
<title>Node24&#45;&gt;Node10</title>
<g id="a_edge37_Node000024_Node000010"><a xlink:title=" ">
<path fill="none" stroke="#63b8ff" d="M1091.49,-697.37C1098.54,-694.51 1105.34,-691.09 1111.5,-687 1157.31,-656.61 1192.07,-600.94 1209.75,-568.13"/>
<polygon fill="#63b8ff" stroke="#63b8ff" points="1212.64,-570.16 1214.18,-559.68 1206.44,-566.91 1212.64,-570.16"/>
</a>
</g>
</g>
<!-- Node25&#45;&gt;Node10 -->
<g id="edge39_Node000025_Node000010" class="edge">
<title>Node25&#45;&gt;Node10</title>
<g id="a_edge39_Node000025_Node000010"><a xlink:title=" ">
<path fill="none" stroke="#63b8ff" d="M1091.68,-645.62C1098.54,-643.12 1105.25,-640.26 1111.5,-637 1146.29,-618.85 1179.6,-588.01 1200.56,-566.4"/>
<polygon fill="#63b8ff" stroke="#63b8ff" points="1202.83,-569.1 1207.18,-559.44 1197.75,-564.27 1202.83,-569.1"/>
</a>
</g>
</g>
<!-- Node26&#45;&gt;Node10 -->
<g id="edge41_Node000026_Node000010" class="edge">
<title>Node26&#45;&gt;Node10</title>
<g id="a_edge41_Node000026_Node000010"><a xlink:title=" ">
<path fill="none" stroke="#63b8ff" d="M1081.26,-607.52C1091.51,-605.16 1101.88,-602.34 1111.5,-599 1137.57,-589.94 1165.2,-575.81 1186.4,-563.89"/>
<polygon fill="#63b8ff" stroke="#63b8ff" points="1188,-567 1194.94,-559 1184.52,-560.93 1188,-567"/>
</a>
</g>
</g>
<!-- Node27&#45;&gt;Node10 -->
<g id="edge43_Node000027_Node000010" class="edge">
<title>Node27&#45;&gt;Node10</title>
<g id="a_edge43_Node000027_Node000010"><a xlink:title=" ">
<path fill="none" stroke="#63b8ff" d="M1072.77,-569.52C1099.61,-564.59 1131.69,-558.71 1159.28,-553.64"/>
<polygon fill="#63b8ff" stroke="#63b8ff" points="1159.71,-557.12 1168.91,-551.88 1158.44,-550.24 1159.71,-557.12"/>
</a>
</g>
</g>
<!-- Node28&#45;&gt;Node10 -->
<g id="edge45_Node000028_Node000010" class="edge">
<title>Node28&#45;&gt;Node10</title>
<g id="a_edge45_Node000028_Node000010"><a xlink:title=" ">
<path fill="none" stroke="#63b8ff" d="M1110.1,-542C1126.59,-542 1143.39,-542 1158.82,-542"/>
<polygon fill="#63b8ff" stroke="#63b8ff" points="1158.8,-545.5 1168.8,-542 1158.8,-538.5 1158.8,-545.5"/>
</a>
</g>
</g>
<!-- Node29&#45;&gt;Node10 -->
<g id="edge47_Node000029_Node000010" class="edge">
<title>Node29&#45;&gt;Node10</title>
<g id="a_edge47_Node000029_Node000010"><a xlink:title=" ">
<path fill="none" stroke="#63b8ff" d="M1072.77,-514.48C1099.61,-519.41 1131.69,-525.29 1159.28,-530.36"/>
<polygon fill="#63b8ff" stroke="#63b8ff" points="1158.44,-533.76 1168.91,-532.12 1159.71,-526.88 1158.44,-533.76"/>
</a>
</g>
</g>
<!-- Node30&#45;&gt;Node10 -->
<g id="edge49_Node000030_Node000010" class="edge">
<title>Node30&#45;&gt;Node10</title>
<g id="a_edge49_Node000030_Node000010"><a xlink:title=" ">
<path fill="none" stroke="#63b8ff" d="M1081.26,-476.48C1091.51,-478.84 1101.88,-481.66 1111.5,-485 1137.57,-494.06 1165.2,-508.19 1186.4,-520.11"/>
<polygon fill="#63b8ff" stroke="#63b8ff" points="1184.52,-523.07 1194.94,-525 1188,-517 1184.52,-523.07"/>
</a>
</g>
</g>
<!-- Node31&#45;&gt;Node10 -->
<g id="edge51_Node000031_Node000010" class="edge">
<title>Node31&#45;&gt;Node10</title>
<g id="a_edge51_Node000031_Node000010"><a xlink:title=" ">
<path fill="none" stroke="#63b8ff" d="M1088.89,-438.43C1096.71,-440.74 1104.4,-443.56 1111.5,-447 1147.01,-464.21 1180.4,-495.52 1201.16,-517.48"/>
<polygon fill="#63b8ff" stroke="#63b8ff" points="1198.35,-519.6 1207.71,-524.57 1203.49,-514.85 1198.35,-519.6"/>
</a>
</g>
</g>
<!-- Node32&#45;&gt;Node10 -->
<g id="edge53_Node000032_Node000010" class="edge">
<title>Node32&#45;&gt;Node10</title>
<g id="a_edge53_Node000032_Node000010"><a xlink:title=" ">
<path fill="none" stroke="#63b8ff" d="M1094.75,-400.31C1100.61,-402.81 1106.27,-405.69 1111.5,-409 1154.49,-436.23 1189.22,-485.5 1207.85,-515.83"/>
<polygon fill="#63b8ff" stroke="#63b8ff" points="1204.84,-517.61 1212.98,-524.4 1210.85,-514.02 1204.84,-517.61"/>
</a>
</g>
</g>
<!-- Node34&#45;&gt;Node11 -->
<g id="edge56_Node000034_Node000011" class="edge">
<title>Node34&#45;&gt;Node11</title>
<g id="a_edge56_Node000034_Node000011"><a xlink:title=" ">
<path fill="none" stroke="#63b8ff" d="M1238.32,-762.71C1273.69,-720.24 1368.59,-606.28 1406.33,-560.97"/>
<polygon fill="#63b8ff" stroke="#63b8ff" points="1408.8,-563.47 1412.51,-553.55 1403.42,-558.99 1408.8,-563.47"/>
</a>
</g>
</g>
</g>
</svg>
