<?xml version="1.0" encoding="UTF-8" standalone="no"?>
<!DOCTYPE svg PUBLIC "-//W3C//DTD SVG 1.1//EN"
 "http://www.w3.org/Graphics/SVG/1.1/DTD/svg11.dtd">
<!-- Generated by graphviz version 12.2.1 (20241206.2353)
 -->
<!-- Title: LSM1x0A_LoRaWAN::setDevAddr Pages: 1 -->
<svg width="1299pt" height="1070pt"
 viewBox="0.00 0.00 1299.00 1069.60" xmlns="http://www.w3.org/2000/svg" xmlns:xlink="http://www.w3.org/1999/xlink">
<g id="graph0" class="graph" transform="scale(1 1) rotate(0) translate(4 1065.6)">
<title>LSM1x0A_LoRaWAN::setDevAddr</title>
<!-- Node1 -->
<g id="Node000001" class="node">
<title>Node1</title>
<g id="a_Node000001"><a xlink:title="Sets the LoRaWAN Device Address (DevAddr) for ABP mode.">
<polygon fill="#999999" stroke="#666666" points="168.25,-350.54 0,-350.54 0,-330.54 168.25,-330.54 168.25,-350.54"/>
<text text-anchor="middle" x="84.12" y="-337.04" font-family="Helvetica,sans-Serif" font-size="10.00">LSM1x0A_LoRaWAN::setDevAddr</text>
</a>
</g>
</g>
<!-- Node2 -->
<g id="Node000002" class="node">
<title>Node2</title>
<g id="a_Node000002"><a xlink:href="../../d8/d92/classLSM1x0A__Controller.html#afd7d92e60ed6fdae696a955cdbe0ed8c" target="_top" xlink:title="Sends any AT command to the module, returning error if it fails. Internally uses the LsmAtParser logi...">
<polygon fill="white" stroke="#666666" points="310.25,-453.54 204.25,-453.54 204.25,-421.54 310.25,-421.54 310.25,-453.54"/>
<text text-anchor="start" x="212.25" y="-440.04" font-family="Helvetica,sans-Serif" font-size="10.00">LSM1x0A_Controller</text>
<text text-anchor="middle" x="257.25" y="-428.04" font-family="Helvetica,sans-Serif" font-size="10.00">::sendCommand</text>
</a>
</g>
</g>
<!-- Node1&#45;&gt;Node2 -->
<g id="edge1_Node000001_Node000002" class="edge">
<title>Node1&#45;&gt;Node2</title>
<g id="a_edge1_Node000001_Node000002"><a xlink:title=" ">
<path fill="none" stroke="#63b8ff" d="M103.44,-350.92C130.55,-366.29 182,-395.45 217.66,-415.67"/>
<polygon fill="#63b8ff" stroke="#63b8ff" points="215.53,-418.48 225.95,-420.37 218.98,-412.39 215.53,-418.48"/>
</a>
</g>
</g>
<!-- Node3 -->
<g id="Node000003" class="node">
<title>Node3</title>
<g id="a_Node000003"><a xlink:href="../../d8/d92/classLSM1x0A__Controller.html#abb0eb380daa3dfb7acffb483c5db8e2b" target="_top" xlink:title="Executes the recovery protocol. First Soft&#45;Reset (ATZ), then Hard&#45;Reset if there is a pin.">
<polygon fill="white" stroke="#666666" points="452.25,-870.54 346.25,-870.54 346.25,-838.54 452.25,-838.54 452.25,-870.54"/>
<text text-anchor="start" x="354.25" y="-857.04" font-family="Helvetica,sans-Serif" font-size="10.00">LSM1x0A_Controller</text>
<text text-anchor="middle" x="399.25" y="-845.04" font-family="Helvetica,sans-Serif" font-size="10.00">::recoverModule</text>
</a>
</g>
</g>
<!-- Node2&#45;&gt;Node3 -->
<g id="edge2_Node000002_Node000003" class="edge">
<title>Node2&#45;&gt;Node3</title>
<g id="a_edge2_Node000002_Node000003"><a xlink:title=" ">
<path fill="none" stroke="#63b8ff" d="M262.29,-453.99C273.66,-499.52 307.59,-630.84 346.25,-736.54 358,-768.67 374.25,-804.48 385.44,-828.14"/>
<polygon fill="#63b8ff" stroke="#63b8ff" points="382.22,-829.51 389.69,-837.03 388.54,-826.5 382.22,-829.51"/>
</a>
</g>
</g>
<!-- Node30 -->
<g id="Node000030" class="node">
<title>Node30</title>
<g id="a_Node000030"><a xlink:href="../../d6/d3c/classLSM1x0A__AtParser.html#a29b53c521974387ba6c03afadfaffa4a" target="_top" xlink:title="Sends a simple command and waits for OK/ERROR. Example: sendCommand(&quot;AT+JOIN&quot;);.">
<polygon fill="white" stroke="#666666" points="866.75,-706.54 692.5,-706.54 692.5,-686.54 866.75,-686.54 866.75,-706.54"/>
<text text-anchor="middle" x="779.62" y="-693.04" font-family="Helvetica,sans-Serif" font-size="10.00">LSM1x0A_AtParser::sendCommand</text>
</a>
</g>
</g>
<!-- Node2&#45;&gt;Node30 -->
<g id="edge54_Node000002_Node000030" class="edge">
<title>Node2&#45;&gt;Node30</title>
<g id="a_edge54_Node000002_Node000030"><a xlink:title=" ">
<path fill="none" stroke="#63b8ff" d="M262.15,-453.97C271.1,-488.15 296.28,-567.38 346.25,-611.54 438.07,-692.67 584.23,-705.56 680.8,-703.83"/>
<polygon fill="#63b8ff" stroke="#63b8ff" points="680.61,-707.34 690.52,-703.6 680.44,-700.34 680.61,-707.34"/>
</a>
</g>
</g>
<!-- Node4 -->
<g id="Node000004" class="node">
<title>Node4</title>
<g id="a_Node000004"><a xlink:href="../../d8/d92/classLSM1x0A__Controller.html#a3f6f25b843fe4fb7042c544deae2ab16" target="_top" xlink:title="Manually clears bits from the internal EventGroup.">
<polygon fill="white" stroke="#666666" points="1060.5,-927.54 954.5,-927.54 954.5,-895.54 1060.5,-895.54 1060.5,-927.54"/>
<text text-anchor="start" x="962.5" y="-914.04" font-family="Helvetica,sans-Serif" font-size="10.00">LSM1x0A_Controller</text>
<text text-anchor="middle" x="1007.5" y="-902.04" font-family="Helvetica,sans-Serif" font-size="10.00">::clearEvents</text>
</a>
</g>
</g>
<!-- Node3&#45;&gt;Node4 -->
<g id="edge3_Node000003_Node000004" class="edge">
<title>Node3&#45;&gt;Node4</title>
<g id="a_edge3_Node000003_Node000004"><a xlink:title=" ">
<path fill="none" stroke="#63b8ff" d="M451.01,-870.97C463.1,-874.32 476.04,-877.45 488.25,-879.54 650.27,-907.22 844.4,-911.71 942.71,-911.99"/>
<polygon fill="#63b8ff" stroke="#63b8ff" points="942.7,-915.49 952.7,-912.01 942.71,-908.49 942.7,-915.49"/>
</a>
</g>
</g>
<!-- Node5 -->
<g id="Node000005" class="node">
<title>Node5</title>
<g id="a_Node000005"><a xlink:href="../../d8/d92/classLSM1x0A__Controller.html#a345d4bd79fa16b18dc33a4ca788fe5f7" target="_top" xlink:title="Performs a hardware reset using the reset pin.">
<polygon fill="white" stroke="#666666" points="620.5,-870.54 514.5,-870.54 514.5,-838.54 620.5,-838.54 620.5,-870.54"/>
<text text-anchor="start" x="522.5" y="-857.04" font-family="Helvetica,sans-Serif" font-size="10.00">LSM1x0A_Controller</text>
<text text-anchor="middle" x="567.5" y="-845.04" font-family="Helvetica,sans-Serif" font-size="10.00">::hardwareReset</text>
</a>
</g>
</g>
<!-- Node3&#45;&gt;Node5 -->
<g id="edge4_Node000003_Node000005" class="edge">
<title>Node3&#45;&gt;Node5</title>
<g id="a_edge4_Node000003_Node000005"><a xlink:title=" ">
<path fill="none" stroke="#63b8ff" d="M452.4,-854.54C468.41,-854.54 486.22,-854.54 502.91,-854.54"/>
<polygon fill="#63b8ff" stroke="#63b8ff" points="502.74,-858.04 512.74,-854.54 502.74,-851.04 502.74,-858.04"/>
</a>
</g>
</g>
<!-- Node7 -->
<g id="Node000007" class="node">
<title>Node7</title>
<g id="a_Node000007"><a xlink:href="../../d5/d72/classLSM1x0A__LoRaWAN.html#a1892801e37c8cd67d37c76108d6f7d49" target="_top" xlink:title="Validates if the device is currently Joined to the network. (Either confirmed by OTAA or statically a...">
<polygon fill="white" stroke="#666666" points="1291,-793.54 1138.5,-793.54 1138.5,-773.54 1291,-773.54 1291,-793.54"/>
<text text-anchor="middle" x="1214.75" y="-780.04" font-family="Helvetica,sans-Serif" font-size="10.00">LSM1x0A_LoRaWAN::isJoined</text>
</a>
</g>
</g>
<!-- Node3&#45;&gt;Node7 -->
<g id="edge6_Node000003_Node000007" class="edge">
<title>Node3&#45;&gt;Node7</title>
<g id="a_edge6_Node000003_Node000007"><a xlink:title=" ">
<path fill="none" stroke="#63b8ff" d="M451.01,-838.13C463.1,-834.78 476.04,-831.64 488.25,-829.54 716.46,-790.35 990.2,-783.71 1126.99,-783.09"/>
<polygon fill="#63b8ff" stroke="#63b8ff" points="1126.7,-786.59 1136.69,-783.06 1126.67,-779.59 1126.7,-786.59"/>
</a>
</g>
</g>
<!-- Node8 -->
<g id="Node000008" class="node">
<title>Node8</title>
<g id="a_Node000008"><a xlink:href="../../d5/d72/classLSM1x0A__LoRaWAN.html#a83e11c0e74ff9e0757db616ab1163424" target="_top" xlink:title="Attempts to recover a lost connection (re&#45;executes OTAA Join if dropped).">
<polygon fill="white" stroke="#666666" points="641.88,-1034.54 493.12,-1034.54 493.12,-1002.54 641.88,-1002.54 641.88,-1034.54"/>
<text text-anchor="start" x="501.12" y="-1021.04" font-family="Helvetica,sans-Serif" font-size="10.00">LSM1x0A_LoRaWAN::recover</text>
<text text-anchor="middle" x="567.5" y="-1009.04" font-family="Helvetica,sans-Serif" font-size="10.00">Connection</text>
</a>
</g>
</g>
<!-- Node3&#45;&gt;Node8 -->
<g id="edge7_Node000003_Node000008" class="edge">
<title>Node3&#45;&gt;Node8</title>
<g id="a_edge7_Node000003_Node000008"><a xlink:title=" ">
<path fill="none" stroke="#63b8ff" d="M406.95,-870.94C419.14,-898.84 447.5,-955.72 488.25,-988.54 492.12,-991.65 496.34,-994.47 500.76,-997.01"/>
<polygon fill="#63b8ff" stroke="#63b8ff" points="498.85,-999.96 509.34,-1001.45 502.07,-993.75 498.85,-999.96"/>
</a>
</g>
</g>
<!-- Node12 -->
<g id="Node000012" class="node">
<title>Node12</title>
<g id="a_Node000012"><a xlink:href="../../d5/d72/classLSM1x0A__LoRaWAN.html#ae3be4ce59dfa200369733317df356e97" target="_top" xlink:title="Pushes the RAM&#45;cached variables back down into the hardware module. Restores the operational state af...">
<polygon fill="white" stroke="#666666" points="640.75,-390.54 494.25,-390.54 494.25,-358.54 640.75,-358.54 640.75,-390.54"/>
<text text-anchor="start" x="502.25" y="-377.04" font-family="Helvetica,sans-Serif" font-size="10.00">LSM1x0A_LoRaWAN::restore</text>
<text text-anchor="middle" x="567.5" y="-365.04" font-family="Helvetica,sans-Serif" font-size="10.00">Config</text>
</a>
</g>
</g>
<!-- Node3&#45;&gt;Node12 -->
<g id="edge16_Node000003_Node000012" class="edge">
<title>Node3&#45;&gt;Node12</title>
<g id="a_edge16_Node000003_Node000012"><a xlink:title=" ">
<path fill="none" stroke="#63b8ff" d="M405.88,-838.3C430.2,-768.08 526.42,-490.26 557.07,-401.77"/>
<polygon fill="#63b8ff" stroke="#63b8ff" points="560.33,-403.05 560.29,-392.46 553.71,-400.76 560.33,-403.05"/>
</a>
</g>
</g>
<!-- Node28 -->
<g id="Node000028" class="node">
<title>Node28</title>
<g id="a_Node000028"><a xlink:href="../../d5/d72/classLSM1x0A__LoRaWAN.html#ace4b04396f1de1f4a54f513f5f378db7" target="_top" xlink:title="Manually overrides the internal joined state tracker.">
<polygon fill="white" stroke="#666666" points="646.75,-946.54 488.25,-946.54 488.25,-926.54 646.75,-926.54 646.75,-946.54"/>
<text text-anchor="middle" x="567.5" y="-933.04" font-family="Helvetica,sans-Serif" font-size="10.00">LSM1x0A_LoRaWAN::setJoined</text>
</a>
</g>
</g>
<!-- Node3&#45;&gt;Node28 -->
<g id="edge49_Node000003_Node000028" class="edge">
<title>Node3&#45;&gt;Node28</title>
<g id="a_edge49_Node000003_Node000028"><a xlink:title=" ">
<path fill="none" stroke="#63b8ff" d="M421.29,-870.9C438.51,-883.66 463.92,-901.08 488.25,-912.54 496.29,-916.33 505.08,-919.7 513.77,-922.63"/>
<polygon fill="#63b8ff" stroke="#63b8ff" points="512.62,-925.94 523.21,-925.65 514.75,-919.27 512.62,-925.94"/>
</a>
</g>
</g>
<!-- Node29 -->
<g id="Node000029" class="node">
<title>Node29</title>
<g id="a_Node000029"><a xlink:href="../../d8/d92/classLSM1x0A__Controller.html#a11ad21cb5ca33ec51346764a23bd485e" target="_top" xlink:title="Performs a software reset (ATZ Command).">
<polygon fill="white" stroke="#666666" points="620.5,-782.54 514.5,-782.54 514.5,-750.54 620.5,-750.54 620.5,-782.54"/>
<text text-anchor="start" x="522.5" y="-769.04" font-family="Helvetica,sans-Serif" font-size="10.00">LSM1x0A_Controller</text>
<text text-anchor="middle" x="567.5" y="-757.04" font-family="Helvetica,sans-Serif" font-size="10.00">::softwareReset</text>
</a>
</g>
</g>
<!-- Node3&#45;&gt;Node29 -->
<g id="edge50_Node000003_Node000029" class="edge">
<title>Node3&#45;&gt;Node29</title>
<g id="a_edge50_Node000003_Node000029"><a xlink:title=" ">
<path fill="none" stroke="#63b8ff" d="M422.22,-838.12C439.55,-825.66 464.65,-808.66 488.25,-796.54 494.54,-793.31 501.25,-790.23 508.01,-787.35"/>
<polygon fill="#63b8ff" stroke="#63b8ff" points="509.28,-790.62 517.21,-783.59 506.63,-784.14 509.28,-790.62"/>
</a>
</g>
</g>
<!-- Node6 -->
<g id="Node000006" class="node">
<title>Node6</title>
<g id="a_Node000006"><a xlink:href="../../d6/d3c/classLSM1x0A__AtParser.html#ad2839120da13e56132b95019419be1e5" target="_top" xlink:title="Waits for an event (like BOOTALERT) without sending any command. Useful for hardware reset where the ...">
<polygon fill="white" stroke="#666666" points="849.88,-870.54 709.38,-870.54 709.38,-838.54 849.88,-838.54 849.88,-870.54"/>
<text text-anchor="start" x="717.38" y="-857.04" font-family="Helvetica,sans-Serif" font-size="10.00">LSM1x0A_AtParser::waitFor</text>
<text text-anchor="middle" x="779.62" y="-845.04" font-family="Helvetica,sans-Serif" font-size="10.00">Event</text>
</a>
</g>
</g>
<!-- Node5&#45;&gt;Node6 -->
<g id="edge5_Node000005_Node000006" class="edge">
<title>Node5&#45;&gt;Node6</title>
<g id="a_edge5_Node000005_Node000006"><a xlink:title=" ">
<path fill="none" stroke="#63b8ff" d="M620.98,-854.54C644.17,-854.54 671.97,-854.54 697.71,-854.54"/>
<polygon fill="#63b8ff" stroke="#63b8ff" points="697.47,-858.04 707.47,-854.54 697.47,-851.04 697.47,-858.04"/>
</a>
</g>
</g>
<!-- Node9 -->
<g id="Node000009" class="node">
<title>Node9</title>
<g id="a_Node000009"><a xlink:href="../../d5/d72/classLSM1x0A__LoRaWAN.html#a59f781f3cfd30c11cd3973bcb10a7baa" target="_top" xlink:title="Initiates a LoRaWAN Network Join procedure. This is a blocking function until the module fires an eve...">
<polygon fill="white" stroke="#666666" points="845.38,-984.54 713.88,-984.54 713.88,-964.54 845.38,-964.54 845.38,-984.54"/>
<text text-anchor="middle" x="779.62" y="-971.04" font-family="Helvetica,sans-Serif" font-size="10.00">LSM1x0A_LoRaWAN::join</text>
</a>
</g>
</g>
<!-- Node8&#45;&gt;Node9 -->
<g id="edge8_Node000008_Node000009" class="edge">
<title>Node8&#45;&gt;Node9</title>
<g id="a_edge8_Node000008_Node000009"><a xlink:title=" ">
<path fill="none" stroke="#63b8ff" d="M642.29,-1003.09C666.88,-997.94 693.99,-992.26 717.51,-987.34"/>
<polygon fill="#63b8ff" stroke="#63b8ff" points="718.19,-990.77 727.26,-985.3 716.76,-983.92 718.19,-990.77"/>
</a>
</g>
</g>
<!-- Node9&#45;&gt;Node2 -->
<g id="edge11_Node000009_Node000002" class="edge">
<title>Node9&#45;&gt;Node2</title>
<g id="a_edge11_Node000009_Node000002"><a xlink:title=" ">
<path fill="none" stroke="#63b8ff" d="M764.53,-984.89C741.37,-1001.18 693.17,-1032.13 646.75,-1043.54 578.34,-1060.36 552.32,-1072.82 488.25,-1043.54 400.56,-1003.47 388.63,-966.14 346.25,-879.54 275.38,-734.71 261.58,-536.63 258.9,-464.89"/>
<polygon fill="#63b8ff" stroke="#63b8ff" points="262.41,-465.13 258.59,-455.25 255.41,-465.36 262.41,-465.13"/>
</a>
</g>
</g>
<!-- Node9&#45;&gt;Node3 -->
<g id="edge10_Node000009_Node000003" class="edge">
<title>Node9&#45;&gt;Node3</title>
<g id="a_edge10_Node000009_Node000003"><a xlink:title=" ">
<path fill="none" stroke="#63b8ff" d="M713.53,-984.03C652.15,-989.91 559.22,-990.68 488.25,-955.54 455.24,-939.2 429.39,-904.42 414.48,-880.27"/>
<polygon fill="#63b8ff" stroke="#63b8ff" points="417.66,-878.77 409.54,-871.96 411.64,-882.35 417.66,-878.77"/>
</a>
</g>
</g>
<!-- Node9&#45;&gt;Node4 -->
<g id="edge9_Node000009_Node000004" class="edge">
<title>Node9&#45;&gt;Node4</title>
<g id="a_edge9_Node000009_Node000004"><a xlink:title=" ">
<path fill="none" stroke="#63b8ff" d="M818.18,-964.07C852.12,-954.6 902.78,-940.47 943.01,-929.25"/>
<polygon fill="#63b8ff" stroke="#63b8ff" points="943.9,-932.63 952.6,-926.58 942.02,-925.89 943.9,-932.63"/>
</a>
</g>
</g>
<!-- Node10 -->
<g id="Node000010" class="node">
<title>Node10</title>
<g id="a_Node000010"><a xlink:href="../../d5/d72/classLSM1x0A__LoRaWAN.html#a3fdd1ac318a5ad2559323e5d57e36a5e" target="_top" xlink:title="Enables or disables specific sub&#45;bands for regions supporting Channel Masks (e.g.,...">
<polygon fill="white" stroke="#666666" points="1102.5,-766.54 912.5,-766.54 912.5,-746.54 1102.5,-746.54 1102.5,-766.54"/>
<text text-anchor="middle" x="1007.5" y="-753.04" font-family="Helvetica,sans-Serif" font-size="10.00">LSM1x0A_LoRaWAN::setChannelMask</text>
</a>
</g>
</g>
<!-- Node9&#45;&gt;Node10 -->
<g id="edge12_Node000009_Node000010" class="edge">
<title>Node9&#45;&gt;Node10</title>
<g id="a_edge12_Node000009_Node000010"><a xlink:title=" ">
<path fill="none" stroke="#63b8ff" d="M791.22,-964.32C826.7,-930.07 941.74,-819.04 987.49,-774.89"/>
<polygon fill="#63b8ff" stroke="#63b8ff" points="989.81,-777.51 994.58,-768.05 984.95,-772.47 989.81,-777.51"/>
</a>
</g>
</g>
<!-- Node11 -->
<g id="Node000011" class="node">
<title>Node11</title>
<g id="a_Node000011"><a xlink:href="../../d8/d92/classLSM1x0A__Controller.html#a62476e30e50c7fe120aeb8df4b828675" target="_top" xlink:title="Synchronously/blockingly waits for an asynchronous event to occur. Useful for wrapping commands like ...">
<polygon fill="white" stroke="#666666" points="1060.5,-990.54 954.5,-990.54 954.5,-958.54 1060.5,-958.54 1060.5,-990.54"/>
<text text-anchor="start" x="962.5" y="-977.04" font-family="Helvetica,sans-Serif" font-size="10.00">LSM1x0A_Controller</text>
<text text-anchor="middle" x="1007.5" y="-965.04" font-family="Helvetica,sans-Serif" font-size="10.00">::waitForEvent</text>
</a>
</g>
</g>
<!-- Node9&#45;&gt;Node11 -->
<g id="edge15_Node000009_Node000011" class="edge">
<title>Node9&#45;&gt;Node11</title>
<g id="a_edge15_Node000009_Node000011"><a xlink:title=" ">
<path fill="none" stroke="#63b8ff" d="M845.65,-974.54C876.16,-974.54 912.4,-974.54 942.74,-974.54"/>
<polygon fill="#63b8ff" stroke="#63b8ff" points="942.55,-978.04 952.55,-974.54 942.55,-971.04 942.55,-978.04"/>
</a>
</g>
</g>
<!-- Node10&#45;&gt;Node2 -->
<g id="edge14_Node000010_Node000002" class="edge">
<title>Node10&#45;&gt;Node2</title>
<g id="a_edge14_Node000010_Node000002"><a xlink:title=" ">
<path fill="none" stroke="#63b8ff" d="M912.21,-755.04C749.27,-750.38 424.86,-731.45 346.25,-654.54 292.08,-601.54 270.14,-510.67 262.21,-465.18"/>
<polygon fill="#63b8ff" stroke="#63b8ff" points="265.68,-464.68 260.62,-455.37 258.77,-465.8 265.68,-464.68"/>
</a>
</g>
</g>
<!-- Node10&#45;&gt;Node7 -->
<g id="edge13_Node000010_Node000007" class="edge">
<title>Node10&#45;&gt;Node7</title>
<g id="a_edge13_Node000010_Node000007"><a xlink:title=" ">
<path fill="none" stroke="#63b8ff" d="M1088.15,-767.02C1100.87,-768.69 1114.09,-770.43 1126.97,-772.13"/>
<polygon fill="#63b8ff" stroke="#63b8ff" points="1126.31,-775.57 1136.68,-773.4 1127.23,-768.63 1126.31,-775.57"/>
</a>
</g>
</g>
<!-- Node12&#45;&gt;Node1 -->
<g id="edge26_Node000012_Node000001" class="edge">
<title>Node12&#45;&gt;Node1</title>
<g id="a_edge26_Node000012_Node000001"><a xlink:title=" ">
<path fill="none" stroke="#63b8ff" d="M494.13,-369.43C410.4,-363.52 272.26,-353.76 180,-347.24"/>
<polygon fill="#63b8ff" stroke="#63b8ff" points="180.43,-343.76 170.21,-346.55 179.94,-350.75 180.43,-343.76"/>
</a>
</g>
</g>
<!-- Node12&#45;&gt;Node10 -->
<g id="edge21_Node000012_Node000010" class="edge">
<title>Node12&#45;&gt;Node10</title>
<g id="a_edge21_Node000012_Node000010"><a xlink:title=" ">
<path fill="none" stroke="#63b8ff" d="M641.03,-367.2C721.3,-360.81 843.69,-356.8 876.5,-387.54 930.98,-438.58 866.68,-662.61 912.5,-721.54 919.24,-730.21 928.37,-736.74 938.3,-741.64"/>
<polygon fill="#63b8ff" stroke="#63b8ff" points="936.91,-744.86 947.48,-745.6 939.68,-738.43 936.91,-744.86"/>
</a>
</g>
</g>
<!-- Node13 -->
<g id="Node000013" class="node">
<title>Node13</title>
<g id="a_Node000013"><a xlink:href="../../d5/d72/classLSM1x0A__LoRaWAN.html#af0baa3db4c7fab580d6b19a9e92472f6" target="_top" xlink:title="Enables or disables Adaptive Data Rate (ADR).">
<polygon fill="white" stroke="#666666" points="855.5,-542.54 703.75,-542.54 703.75,-522.54 855.5,-522.54 855.5,-542.54"/>
<text text-anchor="middle" x="779.62" y="-529.04" font-family="Helvetica,sans-Serif" font-size="10.00">LSM1x0A_LoRaWAN::setADR</text>
</a>
</g>
</g>
<!-- Node12&#45;&gt;Node13 -->
<g id="edge17_Node000012_Node000013" class="edge">
<title>Node12&#45;&gt;Node13</title>
<g id="a_edge17_Node000012_Node000013"><a xlink:title=" ">
<path fill="none" stroke="#63b8ff" d="M576.95,-390.95C593.15,-420.61 631.55,-482.91 682.75,-513.54 685.95,-515.46 689.31,-517.19 692.78,-518.74"/>
<polygon fill="#63b8ff" stroke="#63b8ff" points="691.46,-521.98 702.04,-522.37 694.01,-515.46 691.46,-521.98"/>
</a>
</g>
</g>
<!-- Node14 -->
<g id="Node000014" class="node">
<title>Node14</title>
<g id="a_Node000014"><a xlink:href="../../d5/d72/classLSM1x0A__LoRaWAN.html#a5365ed1596eb84ebf1e3b33b4a10c788" target="_top" xlink:title="Sets the LoRaWAN operational frequency band.">
<polygon fill="white" stroke="#666666" points="855.88,-504.54 703.38,-504.54 703.38,-484.54 855.88,-484.54 855.88,-504.54"/>
<text text-anchor="middle" x="779.62" y="-491.04" font-family="Helvetica,sans-Serif" font-size="10.00">LSM1x0A_LoRaWAN::setBand</text>
</a>
</g>
</g>
<!-- Node12&#45;&gt;Node14 -->
<g id="edge19_Node000012_Node000014" class="edge">
<title>Node12&#45;&gt;Node14</title>
<g id="a_edge19_Node000012_Node000014"><a xlink:title=" ">
<path fill="none" stroke="#63b8ff" d="M581.76,-390.75C601.35,-413.51 640.28,-454.51 682.75,-475.54 686.43,-477.36 690.26,-479.01 694.2,-480.49"/>
<polygon fill="#63b8ff" stroke="#63b8ff" points="692.77,-483.71 703.36,-483.59 695.01,-477.07 692.77,-483.71"/>
</a>
</g>
</g>
<!-- Node15 -->
<g id="Node000015" class="node">
<title>Node15</title>
<g id="a_Node000015"><a xlink:href="../../d5/d72/classLSM1x0A__LoRaWAN.html#a9d9285c43414337a0ccb3a6cd7ca06e6" target="_top" xlink:title="Configures the number of retries for Confirmed uplinks.">
<polygon fill="white" stroke="#666666" points="861.88,-466.54 697.38,-466.54 697.38,-434.54 861.88,-434.54 861.88,-466.54"/>
<text text-anchor="start" x="705.38" y="-453.04" font-family="Helvetica,sans-Serif" font-size="10.00">LSM1x0A_LoRaWAN::setConfirm</text>
<text text-anchor="middle" x="779.62" y="-441.04" font-family="Helvetica,sans-Serif" font-size="10.00">Retry</text>
</a>
</g>
</g>
<!-- Node12&#45;&gt;Node15 -->
<g id="edge22_Node000012_Node000015" class="edge">
<title>Node12&#45;&gt;Node15</title>
<g id="a_edge22_Node000012_Node000015"><a xlink:title=" ">
<path fill="none" stroke="#63b8ff" d="M601.41,-390.97C623.92,-401.77 654.67,-415.69 682.75,-425.54 688.04,-427.4 693.54,-429.19 699.11,-430.9"/>
<polygon fill="#63b8ff" stroke="#63b8ff" points="697.83,-434.17 708.41,-433.65 699.82,-427.46 697.83,-434.17"/>
</a>
</g>
</g>
<!-- Node16 -->
<g id="Node000016" class="node">
<title>Node16</title>
<g id="a_Node000016"><a xlink:href="../../d5/d72/classLSM1x0A__LoRaWAN.html#a56345ceeafa0b9059d6de4e69eddc82e" target="_top" xlink:title="Sets the Data Rate (DR) of the module.">
<polygon fill="white" stroke="#666666" points="865.62,-416.54 693.62,-416.54 693.62,-396.54 865.62,-396.54 865.62,-416.54"/>
<text text-anchor="middle" x="779.62" y="-403.04" font-family="Helvetica,sans-Serif" font-size="10.00">LSM1x0A_LoRaWAN::setDataRate</text>
</a>
</g>
</g>
<!-- Node12&#45;&gt;Node16 -->
<g id="edge24_Node000012_Node000016" class="edge">
<title>Node12&#45;&gt;Node16</title>
<g id="a_edge24_Node000012_Node000016"><a xlink:title=" ">
<path fill="none" stroke="#63b8ff" d="M641.11,-385.6C659.66,-388.42 679.72,-391.48 698.62,-394.36"/>
<polygon fill="#63b8ff" stroke="#63b8ff" points="698,-397.8 708.41,-395.85 699.05,-390.88 698,-397.8"/>
</a>
</g>
</g>
<!-- Node17 -->
<g id="Node000017" class="node">
<title>Node17</title>
<g id="a_Node000017"><a xlink:href="../../d5/d72/classLSM1x0A__LoRaWAN.html#ad320634e52d7ea907043cc50dd37c5b0" target="_top" xlink:title="Sets the LoRaWAN Device EUI (DevEUI).">
<polygon fill="white" stroke="#666666" points="862.25,-340.54 697,-340.54 697,-320.54 862.25,-320.54 862.25,-340.54"/>
<text text-anchor="middle" x="779.62" y="-327.04" font-family="Helvetica,sans-Serif" font-size="10.00">LSM1x0A_LoRaWAN::setDevEUI</text>
</a>
</g>
</g>
<!-- Node12&#45;&gt;Node17 -->
<g id="edge27_Node000012_Node000017" class="edge">
<title>Node12&#45;&gt;Node17</title>
<g id="a_edge27_Node000012_Node000017"><a xlink:title=" ">
<path fill="none" stroke="#63b8ff" d="M641.11,-359.34C665.99,-354.13 693.57,-348.35 717.46,-343.35"/>
<polygon fill="#63b8ff" stroke="#63b8ff" points="717.95,-346.82 727.02,-341.35 716.52,-339.97 717.95,-346.82"/>
</a>
</g>
</g>
<!-- Node18 -->
<g id="Node000018" class="node">
<title>Node18</title>
<g id="a_Node000018"><a xlink:href="../../d5/d72/classLSM1x0A__LoRaWAN.html#a031023b0d2dd5db3c51c2db6ae7801cc" target="_top" xlink:title="Enables or disables the Duty Cycle limitation (EU regions mostly).">
<polygon fill="white" stroke="#666666" points="855.12,-302.54 704.12,-302.54 704.12,-270.54 855.12,-270.54 855.12,-302.54"/>
<text text-anchor="start" x="712.12" y="-289.04" font-family="Helvetica,sans-Serif" font-size="10.00">LSM1x0A_LoRaWAN::setDuty</text>
<text text-anchor="middle" x="779.62" y="-277.04" font-family="Helvetica,sans-Serif" font-size="10.00">Cycle</text>
</a>
</g>
</g>
<!-- Node12&#45;&gt;Node18 -->
<g id="edge29_Node000012_Node000018" class="edge">
<title>Node12&#45;&gt;Node18</title>
<g id="a_edge29_Node000012_Node000018"><a xlink:title=" ">
<path fill="none" stroke="#63b8ff" d="M593.91,-358.11C616.49,-344.11 650.77,-324.3 682.75,-311.54 687.15,-309.78 691.72,-308.12 696.36,-306.54"/>
<polygon fill="#63b8ff" stroke="#63b8ff" points="697.41,-309.88 705.86,-303.48 695.27,-303.21 697.41,-309.88"/>
</a>
</g>
</g>
<!-- Node19 -->
<g id="Node000019" class="node">
<title>Node19</title>
<g id="a_Node000019"><a xlink:href="../../d5/d72/classLSM1x0A__LoRaWAN.html#a6b179d5825c49af0f391dfc539912f64" target="_top" xlink:title="Sets the delay for the Join1 receive window.">
<polygon fill="white" stroke="#666666" points="856.25,-252.54 703,-252.54 703,-220.54 856.25,-220.54 856.25,-252.54"/>
<text text-anchor="start" x="711" y="-239.04" font-family="Helvetica,sans-Serif" font-size="10.00">LSM1x0A_LoRaWAN::setJoin1</text>
<text text-anchor="middle" x="779.62" y="-227.04" font-family="Helvetica,sans-Serif" font-size="10.00">Delay</text>
</a>
</g>
</g>
<!-- Node12&#45;&gt;Node19 -->
<g id="edge31_Node000012_Node000019" class="edge">
<title>Node12&#45;&gt;Node19</title>
<g id="a_edge31_Node000012_Node000019"><a xlink:title=" ">
<path fill="none" stroke="#63b8ff" d="M580.25,-358.38C599.06,-333.69 638.38,-286.8 682.75,-261.54 685.79,-259.81 688.95,-258.2 692.2,-256.69"/>
<polygon fill="#63b8ff" stroke="#63b8ff" points="693.54,-259.93 701.41,-252.84 690.84,-253.47 693.54,-259.93"/>
</a>
</g>
</g>
<!-- Node20 -->
<g id="Node000020" class="node">
<title>Node20</title>
<g id="a_Node000020"><a xlink:href="../../d5/d72/classLSM1x0A__LoRaWAN.html#a4545d0caad41558cdb9bae8286b104d8" target="_top" xlink:title="Sets the delay for the Join2 receive window.">
<polygon fill="white" stroke="#666666" points="856.25,-202.54 703,-202.54 703,-170.54 856.25,-170.54 856.25,-202.54"/>
<text text-anchor="start" x="711" y="-189.04" font-family="Helvetica,sans-Serif" font-size="10.00">LSM1x0A_LoRaWAN::setJoin2</text>
<text text-anchor="middle" x="779.62" y="-177.04" font-family="Helvetica,sans-Serif" font-size="10.00">Delay</text>
</a>
</g>
</g>
<!-- Node12&#45;&gt;Node20 -->
<g id="edge33_Node000012_Node000020" class="edge">
<title>Node12&#45;&gt;Node20</title>
<g id="a_edge33_Node000012_Node000020"><a xlink:title=" ">
<path fill="none" stroke="#63b8ff" d="M575.22,-358.25C589.71,-325.21 627.13,-250.19 682.75,-211.54 685.79,-209.43 688.99,-207.5 692.31,-205.73"/>
<polygon fill="#63b8ff" stroke="#63b8ff" points="693.65,-208.97 701.2,-201.54 690.66,-202.64 693.65,-208.97"/>
</a>
</g>
</g>
<!-- Node21 -->
<g id="Node000021" class="node">
<title>Node21</title>
<g id="a_Node000021"><a xlink:href="../../d5/d72/classLSM1x0A__LoRaWAN.html#a06bd50723ec1eb7e144c9141b2ec86fc" target="_top" xlink:title="Sets the LoRaWAN Network ID (NetID).">
<polygon fill="white" stroke="#666666" points="860,-152.54 699.25,-152.54 699.25,-132.54 860,-132.54 860,-152.54"/>
<text text-anchor="middle" x="779.62" y="-139.04" font-family="Helvetica,sans-Serif" font-size="10.00">LSM1x0A_LoRaWAN::setNwkID</text>
</a>
</g>
</g>
<!-- Node12&#45;&gt;Node21 -->
<g id="edge35_Node000012_Node000021" class="edge">
<title>Node12&#45;&gt;Node21</title>
<g id="a_edge35_Node000012_Node000021"><a xlink:title=" ">
<path fill="none" stroke="#63b8ff" d="M572.21,-358.05C582.24,-317.48 613.94,-212.46 682.75,-161.54 684.74,-160.06 686.82,-158.7 688.97,-157.42"/>
<polygon fill="#63b8ff" stroke="#63b8ff" points="690.09,-160.78 697.43,-153.15 686.93,-154.54 690.09,-160.78"/>
</a>
</g>
</g>
<!-- Node22 -->
<g id="Node000022" class="node">
<title>Node22</title>
<g id="a_Node000022"><a xlink:href="../../d5/d72/classLSM1x0A__LoRaWAN.html#aa70ada64d28ecca216bb62268e502adf" target="_top" xlink:title="Sets the delay for the RX1 receive window.">
<polygon fill="white" stroke="#666666" points="866.38,-114.54 692.88,-114.54 692.88,-94.54 866.38,-94.54 866.38,-114.54"/>
<text text-anchor="middle" x="779.62" y="-101.04" font-family="Helvetica,sans-Serif" font-size="10.00">LSM1x0A_LoRaWAN::setRx1Delay</text>
</a>
</g>
</g>
<!-- Node12&#45;&gt;Node22 -->
<g id="edge37_Node000012_Node000022" class="edge">
<title>Node12&#45;&gt;Node22</title>
<g id="a_edge37_Node000012_Node000022"><a xlink:title=" ">
<path fill="none" stroke="#63b8ff" d="M570.76,-358.22C577.92,-313.03 604.48,-185.5 682.75,-123.54 684.08,-122.49 685.45,-121.49 686.86,-120.54"/>
<polygon fill="#63b8ff" stroke="#63b8ff" points="688.36,-123.71 695.33,-115.73 684.91,-117.62 688.36,-123.71"/>
</a>
</g>
</g>
<!-- Node23 -->
<g id="Node000023" class="node">
<title>Node23</title>
<g id="a_Node000023"><a xlink:href="../../d5/d72/classLSM1x0A__LoRaWAN.html#a2cf4eff0181b6107d082bccefa24217b" target="_top" xlink:title="Sets the Data Rate (DR) specifically for the RX2 window.">
<polygon fill="white" stroke="#666666" points="874.62,-76.54 684.62,-76.54 684.62,-56.54 874.62,-56.54 874.62,-76.54"/>
<text text-anchor="middle" x="779.62" y="-63.04" font-family="Helvetica,sans-Serif" font-size="10.00">LSM1x0A_LoRaWAN::setRx2DataRate</text>
</a>
</g>
</g>
<!-- Node12&#45;&gt;Node23 -->
<g id="edge39_Node000012_Node000023" class="edge">
<title>Node12&#45;&gt;Node23</title>
<g id="a_edge39_Node000012_Node000023"><a xlink:title=" ">
<path fill="none" stroke="#63b8ff" d="M569.68,-358.35C574.2,-308.91 594.9,-158.79 682.75,-85.54 683.89,-84.59 685.06,-83.69 686.26,-82.82"/>
<polygon fill="#63b8ff" stroke="#63b8ff" points="687.93,-85.9 694.69,-77.75 684.32,-79.9 687.93,-85.9"/>
</a>
</g>
</g>
<!-- Node24 -->
<g id="Node000024" class="node">
<title>Node24</title>
<g id="a_Node000024"><a xlink:href="../../d5/d72/classLSM1x0A__LoRaWAN.html#a42d2137b475b57e19d891a5f1ac93221" target="_top" xlink:title="Sets the delay for the RX2 receive window.">
<polygon fill="white" stroke="#666666" points="866.38,-38.54 692.88,-38.54 692.88,-18.54 866.38,-18.54 866.38,-38.54"/>
<text text-anchor="middle" x="779.62" y="-25.04" font-family="Helvetica,sans-Serif" font-size="10.00">LSM1x0A_LoRaWAN::setRx2Delay</text>
</a>
</g>
</g>
<!-- Node12&#45;&gt;Node24 -->
<g id="edge41_Node000012_Node000024" class="edge">
<title>Node12&#45;&gt;Node24</title>
<g id="a_edge41_Node000012_Node000024"><a xlink:title=" ">
<path fill="none" stroke="#63b8ff" d="M568.86,-358.22C570.96,-304.54 585.36,-132.13 682.75,-47.54 683.71,-46.71 684.7,-45.9 685.71,-45.13"/>
<polygon fill="#63b8ff" stroke="#63b8ff" points="687.52,-48.13 694.1,-39.82 683.78,-42.21 687.52,-48.13"/>
</a>
</g>
</g>
<!-- Node25 -->
<g id="Node000025" class="node">
<title>Node25</title>
<g id="a_Node000025"><a xlink:href="../../d5/d72/classLSM1x0A__LoRaWAN.html#a689f7dfda1dfeae11ea397c2ddf2ad37" target="_top" xlink:title="Sets the precise frequency for the RX2 window.">
<polygon fill="white" stroke="#666666" points="876.5,-668.54 682.75,-668.54 682.75,-648.54 876.5,-648.54 876.5,-668.54"/>
<text text-anchor="middle" x="779.62" y="-655.04" font-family="Helvetica,sans-Serif" font-size="10.00">LSM1x0A_LoRaWAN::setRx2Frequency</text>
</a>
</g>
</g>
<!-- Node12&#45;&gt;Node25 -->
<g id="edge43_Node000012_Node000025" class="edge">
<title>Node12&#45;&gt;Node25</title>
<g id="a_edge43_Node000012_Node000025"><a xlink:title=" ">
<path fill="none" stroke="#63b8ff" d="M570.31,-390.73C576.46,-437.45 600.92,-573.41 682.75,-639.54 684.07,-640.61 685.43,-641.62 686.83,-642.58"/>
<polygon fill="#63b8ff" stroke="#63b8ff" points="684.85,-645.48 695.26,-647.44 688.35,-639.41 684.85,-645.48"/>
</a>
</g>
</g>
<!-- Node26 -->
<g id="Node000026" class="node">
<title>Node26</title>
<g id="a_Node000026"><a xlink:href="../../d5/d72/classLSM1x0A__LoRaWAN.html#a1df10d7ae6bf45b537d28d3d5c4b88d7" target="_top" xlink:title="Sets the transmission power index.">
<polygon fill="white" stroke="#666666" points="864.12,-630.54 695.12,-630.54 695.12,-610.54 864.12,-610.54 864.12,-630.54"/>
<text text-anchor="middle" x="779.62" y="-617.04" font-family="Helvetica,sans-Serif" font-size="10.00">LSM1x0A_LoRaWAN::setTxPower</text>
</a>
</g>
</g>
<!-- Node12&#45;&gt;Node26 -->
<g id="edge45_Node000012_Node000026" class="edge">
<title>Node12&#45;&gt;Node26</title>
<g id="a_edge45_Node000012_Node000026"><a xlink:title=" ">
<path fill="none" stroke="#63b8ff" d="M571.59,-390.84C580.51,-433.07 610.4,-546.53 682.75,-601.54 684.28,-602.71 685.87,-603.8 687.5,-604.84"/>
<polygon fill="#63b8ff" stroke="#63b8ff" points="685.47,-607.73 695.93,-609.4 688.8,-601.57 685.47,-607.73"/>
</a>
</g>
</g>
<!-- Node27 -->
<g id="Node000027" class="node">
<title>Node27</title>
<g id="a_Node000027"><a xlink:href="../../d5/d72/classLSM1x0A__LoRaWAN.html#a059fd6a9356c4ecadd5a98294da5952d" target="_top" xlink:title="Configures the number of repetitions for Unconfirmed uplinks.">
<polygon fill="white" stroke="#666666" points="867.12,-592.54 692.12,-592.54 692.12,-560.54 867.12,-560.54 867.12,-592.54"/>
<text text-anchor="start" x="700.12" y="-579.04" font-family="Helvetica,sans-Serif" font-size="10.00">LSM1x0A_LoRaWAN::setUnconfirm</text>
<text text-anchor="middle" x="779.62" y="-567.04" font-family="Helvetica,sans-Serif" font-size="10.00">Retry</text>
</a>
</g>
</g>
<!-- Node12&#45;&gt;Node27 -->
<g id="edge47_Node000012_Node000027" class="edge">
<title>Node12&#45;&gt;Node27</title>
<g id="a_edge47_Node000012_Node000027"><a xlink:title=" ">
<path fill="none" stroke="#63b8ff" d="M574.3,-390.88C587.64,-426.01 623.93,-508.98 682.75,-551.54 684.33,-552.68 685.96,-553.78 687.63,-554.82"/>
<polygon fill="#63b8ff" stroke="#63b8ff" points="685.81,-557.81 696.26,-559.53 689.16,-551.67 685.81,-557.81"/>
</a>
</g>
</g>
<!-- Node13&#45;&gt;Node2 -->
<g id="edge18_Node000013_Node000002" class="edge">
<title>Node13&#45;&gt;Node2</title>
<g id="a_edge18_Node000013_Node000002"><a xlink:title=" ">
<path fill="none" stroke="#63b8ff" d="M703.55,-528.94C616.32,-523.32 468.68,-509.34 346.25,-475.54 331.04,-471.34 315.02,-465.04 300.88,-458.77"/>
<polygon fill="#63b8ff" stroke="#63b8ff" points="302.41,-455.62 291.86,-454.64 299.5,-461.98 302.41,-455.62"/>
</a>
</g>
</g>
<!-- Node14&#45;&gt;Node2 -->
<g id="edge20_Node000014_Node000002" class="edge">
<title>Node14&#45;&gt;Node2</title>
<g id="a_edge20_Node000014_Node000002"><a xlink:title=" ">
<path fill="none" stroke="#63b8ff" d="M702.95,-490.29C616.4,-484.82 470.59,-473.81 346.25,-455.54 338.29,-454.37 329.97,-452.94 321.76,-451.41"/>
<polygon fill="#63b8ff" stroke="#63b8ff" points="322.63,-448.01 312.15,-449.55 321.3,-454.89 322.63,-448.01"/>
</a>
</g>
</g>
<!-- Node15&#45;&gt;Node2 -->
<g id="edge23_Node000015_Node000002" class="edge">
<title>Node15&#45;&gt;Node2</title>
<g id="a_edge23_Node000015_Node000002"><a xlink:title=" ">
<path fill="none" stroke="#63b8ff" d="M697.1,-448.5C593.34,-445.91 416.28,-441.49 321.9,-439.13"/>
<polygon fill="#63b8ff" stroke="#63b8ff" points="322.13,-435.64 312.04,-438.88 321.95,-442.63 322.13,-435.64"/>
</a>
</g>
</g>
<!-- Node16&#45;&gt;Node2 -->
<g id="edge25_Node000016_Node000002" class="edge">
<title>Node16&#45;&gt;Node2</title>
<g id="a_edge25_Node000016_Node000002"><a xlink:title=" ">
<path fill="none" stroke="#63b8ff" d="M693.39,-411.62C589.11,-417.83 414.99,-428.2 321.76,-433.76"/>
<polygon fill="#63b8ff" stroke="#63b8ff" points="321.81,-430.25 312.04,-434.34 322.23,-437.24 321.81,-430.25"/>
</a>
</g>
</g>
<!-- Node17&#45;&gt;Node2 -->
<g id="edge28_Node000017_Node000002" class="edge">
<title>Node17&#45;&gt;Node2</title>
<g id="a_edge28_Node000017_Node000002"><a xlink:title=" ">
<path fill="none" stroke="#63b8ff" d="M696.67,-329.39C638,-330.14 557.47,-334.4 488.25,-349.54 420.97,-364.26 347.29,-395.3 301.91,-416.29"/>
<polygon fill="#63b8ff" stroke="#63b8ff" points="300.5,-413.08 292.93,-420.49 303.47,-419.42 300.5,-413.08"/>
</a>
</g>
</g>
<!-- Node18&#45;&gt;Node2 -->
<g id="edge30_Node000018_Node000002" class="edge">
<title>Node18&#45;&gt;Node2</title>
<g id="a_edge30_Node000018_Node000002"><a xlink:title=" ">
<path fill="none" stroke="#63b8ff" d="M703.91,-284.39C614.09,-284.83 461.1,-295.41 346.25,-354.54 318.97,-368.58 294.17,-393.63 277.9,-412.55"/>
<polygon fill="#63b8ff" stroke="#63b8ff" points="275.31,-410.18 271.59,-420.1 280.69,-414.67 275.31,-410.18"/>
</a>
</g>
</g>
<!-- Node19&#45;&gt;Node2 -->
<g id="edge32_Node000019_Node000002" class="edge">
<title>Node19&#45;&gt;Node2</title>
<g id="a_edge32_Node000019_Node000002"><a xlink:title=" ">
<path fill="none" stroke="#63b8ff" d="M702.88,-232.19C611.01,-230.6 454.97,-240.11 346.25,-311.54 309.08,-335.96 283,-382.01 269.33,-411.16"/>
<polygon fill="#63b8ff" stroke="#63b8ff" points="266.25,-409.49 265.33,-420.04 272.63,-412.37 266.25,-409.49"/>
</a>
</g>
</g>
<!-- Node20&#45;&gt;Node2 -->
<g id="edge34_Node000020_Node000002" class="edge">
<title>Node20&#45;&gt;Node2</title>
<g id="a_edge34_Node000020_Node000002"><a xlink:title=" ">
<path fill="none" stroke="#63b8ff" d="M702.75,-179.26C608.96,-174.44 449.15,-180.4 346.25,-261.54 297.99,-299.59 274.1,-371.07 264.16,-410.21"/>
<polygon fill="#63b8ff" stroke="#63b8ff" points="260.8,-409.23 261.87,-419.78 267.61,-410.87 260.8,-409.23"/>
</a>
</g>
</g>
<!-- Node21&#45;&gt;Node2 -->
<g id="edge36_Node000021_Node000002" class="edge">
<title>Node21&#45;&gt;Node2</title>
<g id="a_edge36_Node000021_Node000002"><a xlink:title=" ">
<path fill="none" stroke="#63b8ff" d="M714.38,-132.06C621.65,-120.8 450.06,-114.98 346.25,-203.54 283.39,-257.16 265.36,-360.43 260.24,-409.86"/>
<polygon fill="#63b8ff" stroke="#63b8ff" points="256.77,-409.42 259.34,-419.7 263.74,-410.06 256.77,-409.42"/>
</a>
</g>
</g>
<!-- Node22&#45;&gt;Node2 -->
<g id="edge38_Node000022_Node000002" class="edge">
<title>Node22&#45;&gt;Node2</title>
<g id="a_edge38_Node000022_Node000002"><a xlink:title=" ">
<path fill="none" stroke="#63b8ff" d="M692.48,-100.99C581.26,-98.31 396.06,-100.87 346.25,-144.54 267.21,-213.84 257.78,-351.12 257.58,-409.84"/>
<polygon fill="#63b8ff" stroke="#63b8ff" points="254.08,-409.64 257.64,-419.61 261.08,-409.59 254.08,-409.64"/>
</a>
</g>
</g>
<!-- Node23&#45;&gt;Node2 -->
<g id="edge40_Node000023_Node000002" class="edge">
<title>Node23&#45;&gt;Node2</title>
<g id="a_edge40_Node000023_Node000002"><a xlink:title=" ">
<path fill="none" stroke="#63b8ff" d="M684.54,-63.1C572.89,-61.05 395.63,-64.82 346.25,-106.54 299.24,-146.27 270.71,-338.21 261.52,-410.19"/>
<polygon fill="#63b8ff" stroke="#63b8ff" points="258.07,-409.57 260.3,-419.93 265.01,-410.44 258.07,-409.57"/>
</a>
</g>
</g>
<!-- Node24&#45;&gt;Node2 -->
<g id="edge42_Node000024_Node000002" class="edge">
<title>Node24&#45;&gt;Node2</title>
<g id="a_edge42_Node000024_Node000002"><a xlink:title=" ">
<path fill="none" stroke="#63b8ff" d="M735.91,-18.06C650.51,0.14 457.39,27.01 346.25,-69.54 294.24,-114.73 268.38,-332.97 260.73,-410.3"/>
<polygon fill="#63b8ff" stroke="#63b8ff" points="257.28,-409.66 259.81,-419.95 264.25,-410.33 257.28,-409.66"/>
</a>
</g>
</g>
<!-- Node25&#45;&gt;Node2 -->
<g id="edge44_Node000025_Node000002" class="edge">
<title>Node25&#45;&gt;Node2</title>
<g id="a_edge44_Node000025_Node000002"><a xlink:title=" ">
<path fill="none" stroke="#63b8ff" d="M682.42,-661.86C587.66,-660.23 443.39,-644.06 346.25,-569.54 309.82,-541.59 283.52,-494.07 269.6,-464.32"/>
<polygon fill="#63b8ff" stroke="#63b8ff" points="272.81,-462.91 265.51,-455.24 266.43,-465.8 272.81,-462.91"/>
</a>
</g>
</g>
<!-- Node26&#45;&gt;Node2 -->
<g id="edge46_Node000026_Node000002" class="edge">
<title>Node26&#45;&gt;Node2</title>
<g id="a_edge46_Node000026_Node000002"><a xlink:title=" ">
<path fill="none" stroke="#63b8ff" d="M694.93,-619.98C603.12,-615.8 454.44,-598.26 346.25,-532.54 317.09,-514.83 291.58,-484.73 275.64,-463.16"/>
<polygon fill="#63b8ff" stroke="#63b8ff" points="278.56,-461.23 269.89,-455.15 272.88,-465.31 278.56,-461.23"/>
</a>
</g>
</g>
<!-- Node27&#45;&gt;Node2 -->
<g id="edge48_Node000027_Node000002" class="edge">
<title>Node27&#45;&gt;Node2</title>
<g id="a_edge48_Node000027_Node000002"><a xlink:title=" ">
<path fill="none" stroke="#63b8ff" d="M691.97,-573.11C602.18,-566.9 459.41,-549.46 346.25,-500.54 323.69,-490.79 301.22,-474.56 284.63,-461.02"/>
<polygon fill="#63b8ff" stroke="#63b8ff" points="287.12,-458.54 277.21,-454.8 282.62,-463.91 287.12,-458.54"/>
</a>
</g>
</g>
<!-- Node29&#45;&gt;Node30 -->
<g id="edge51_Node000029_Node000030" class="edge">
<title>Node29&#45;&gt;Node30</title>
<g id="a_edge51_Node000029_Node000030"><a xlink:title=" ">
<path fill="none" stroke="#63b8ff" d="M617.76,-750.13C653.89,-738.1 702.4,-721.93 736.68,-710.52"/>
<polygon fill="#63b8ff" stroke="#63b8ff" points="737.45,-713.95 745.84,-707.46 735.24,-707.3 737.45,-713.95"/>
</a>
</g>
</g>
<!-- Node31 -->
<g id="Node000031" class="node">
<title>Node31</title>
<g id="a_Node000031"><a xlink:href="../../d6/d3c/classLSM1x0A__AtParser.html#a0ba6f927c54fceece22c17773d3f2600" target="_top" xlink:title="Sends a command and extracts a value from the response.">
<polygon fill="white" stroke="#666666" points="1094.62,-712.54 920.38,-712.54 920.38,-680.54 1094.62,-680.54 1094.62,-712.54"/>
<text text-anchor="start" x="928.38" y="-699.04" font-family="Helvetica,sans-Serif" font-size="10.00">LSM1x0A_AtParser::sendCommand</text>
<text text-anchor="middle" x="1007.5" y="-687.04" font-family="Helvetica,sans-Serif" font-size="10.00">WithResponse</text>
</a>
</g>
</g>
<!-- Node30&#45;&gt;Node31 -->
<g id="edge52_Node000030_Node000031" class="edge">
<title>Node30&#45;&gt;Node31</title>
<g id="a_edge52_Node000030_Node000031"><a xlink:title=" ">
<path fill="none" stroke="#63b8ff" d="M866.99,-696.54C880.74,-696.54 895.06,-696.54 909.05,-696.54"/>
<polygon fill="#63b8ff" stroke="#63b8ff" points="908.67,-700.04 918.67,-696.54 908.67,-693.04 908.67,-700.04"/>
</a>
</g>
</g>
<!-- Node32 -->
<g id="Node000032" class="node">
<title>Node32</title>
<g id="a_Node000032"><a xlink:href="../../d5/d8b/classUartDriver.html#a5d0f22e8867eebe99273078bb19bd23d" target="_top" xlink:title="Sends data through UART.">
<polygon fill="white" stroke="#666666" points="1269.25,-706.54 1160.25,-706.54 1160.25,-686.54 1269.25,-686.54 1269.25,-706.54"/>
<text text-anchor="middle" x="1214.75" y="-693.04" font-family="Helvetica,sans-Serif" font-size="10.00">UartDriver::sendData</text>
</a>
</g>
</g>
<!-- Node31&#45;&gt;Node32 -->
<g id="edge53_Node000031_Node000032" class="edge">
<title>Node31&#45;&gt;Node32</title>
<g id="a_edge53_Node000031_Node000032"><a xlink:title=" ">
<path fill="none" stroke="#63b8ff" d="M1094.95,-696.54C1112.84,-696.54 1131.41,-696.54 1148.39,-696.54"/>
<polygon fill="#63b8ff" stroke="#63b8ff" points="1148.36,-700.04 1158.36,-696.54 1148.36,-693.04 1148.36,-700.04"/>
</a>
</g>
</g>
</g>
</svg>
