<?xml version="1.0" encoding="UTF-8" standalone="no"?>
<!DOCTYPE svg PUBLIC "-//W3C//DTD SVG 1.1//EN"
 "http://www.w3.org/Graphics/SVG/1.1/DTD/svg11.dtd">
<!-- Generated by graphviz version 12.2.1 (20241206.2353)
 -->
<!-- Title: LSM1x0A_LoRaWAN::getPingSlot Pages: 1 -->
<!--zoomable 1018 -->

<svg id="main" version="1.1" xmlns="http://www.w3.org/2000/svg" xmlns:xlink="http://www.w3.org/1999/xlink" xml:space="preserve" onload="init(evt)">
<style type="text/css"><![CDATA[
.node, .edge {opacity: 0.7;}
.node.selected, .edge.selected {opacity: 1;}
.edge:hover path { stroke: red; }
.edge:hover polygon { stroke: red; fill: red; }
]]></style>

<defs>
  <circle id="rim" cx="0" cy="0" r="7"/>
  <circle id="rim2" cx="0" cy="0" r="3.5"/>
  <g id="zoomPlus">
    <use xlink:href="#rim" fill="#404040"><set attributeName="fill" to="#808080" begin="zoomplus.mouseover" end="zoomplus.mouseout"/></use>
    <path d="M-4,0h8M0,-4v8" fill="none" stroke="white" stroke-width="1.5" pointer-events="none"/>
  </g>
  <g id="zoomMin">
    <use xlink:href="#rim" fill="#404040"><set attributeName="fill" to="#808080" begin="zoomminus.mouseover" end="zoomminus.mouseout"/></use>
    <path d="M-4,0h8" fill="none" stroke="white" stroke-width="1.5" pointer-events="none"/>
  </g>
  <g id="arrowUp" transform="translate(30 24)">
    <use xlink:href="#rim"/>
    <path pointer-events="none" fill="none" stroke="white" stroke-width="1.5" d="M0,-3.0v7 M-2.5,-0.5L0,-3.0L2.5,-0.5"/>
  </g>
  <g id="arrowRight" transform="rotate(90) translate(36 -43)">
    <use xlink:href="#rim"/>
    <path pointer-events="none" fill="none" stroke="white" stroke-width="1.5" d="M0,-3.0v7 M-2.5,-0.5L0,-3.0L2.5,-0.5"/>
  </g>
  <g id="arrowDown" transform="rotate(180) translate(-30 -48)">
    <use xlink:href="#rim"/>
    <path pointer-events="none" fill="none" stroke="white" stroke-width="1.5" d="M0,-3.0v7 M-2.5,-0.5L0,-3.0L2.5,-0.5"/>
  </g>
  <g id="arrowLeft" transform="rotate(270) translate(-36 17)">
    <use xlink:href="#rim"/>
    <path pointer-events="none" fill="none" stroke="white" stroke-width="1.5" d="M0,-3.0v7 M-2.5,-0.5L0,-3.0L2.5,-0.5"/>
  </g>
  <g id="resetDef">
    <use xlink:href="#rim2" fill="#404040"><set attributeName="fill" to="#808080" begin="reset.mouseover" end="reset.mouseout"/></use>
  </g>
</defs>
<script type="application/ecmascript">
var viewWidth = 1866;
var viewHeight = 1018;
var sectionId = 'dynsection-33';
</script>
<script type="application/ecmascript" xlink:href="../../svg.min.js"/>
<svg id="graph" class="graph">
<g id="viewport">
<title>LSM1x0A_LoRaWAN::getPingSlot</title>
<!-- Node1 -->
<g id="Node000001" class="node">
<title>Node1</title>
<g id="a_Node000001"><a xlink:title="Retrieves the active Ping Slot periodicity index.">
<polygon fill="#999999" stroke="#666666" points="166.75,-98 0,-98 0,-78 166.75,-78 166.75,-98"/>
<text text-anchor="middle" x="83.38" y="-84.5" font-family="Helvetica,sans-Serif" font-size="10.00">LSM1x0A_LoRaWAN::getPingSlot</text>
</a>
</g>
</g>
<!-- Node2 -->
<g id="Node000002" class="node">
<title>Node2</title>
<g id="a_Node000002"><a xlink:href="../../d8/d92/classLSM1x0A__Controller.html#ab00328d1be83aa51bce8c2a4f907c5f4" target="_top" xlink:title="Sends an AT command and captures its response in a text block. Ideal for getters (e....">
<polygon fill="white" stroke="#666666" points="355.25,-104 202.75,-104 202.75,-72 355.25,-72 355.25,-104"/>
<text text-anchor="start" x="210.75" y="-90.5" font-family="Helvetica,sans-Serif" font-size="10.00">LSM1x0A_Controller</text>
<text text-anchor="middle" x="279" y="-78.5" font-family="Helvetica,sans-Serif" font-size="10.00">::sendCommandWithResponse</text>
</a>
</g>
</g>
<!-- Node1&#45;&gt;Node2 -->
<g id="edge1_Node000001_Node000002" class="edge">
<title>Node1&#45;&gt;Node2</title>
<g id="a_edge1_Node000001_Node000002"><a xlink:title=" ">
<path fill="none" stroke="#63b8ff" d="M167.05,-88C174.92,-88 182.92,-88 190.84,-88"/>
<polygon fill="#63b8ff" stroke="#63b8ff" points="190.83,-91.5 200.83,-88 190.83,-84.5 190.83,-91.5"/>
</a>
</g>
</g>
<!-- Node3 -->
<g id="Node000003" class="node">
<title>Node3</title>
<g id="a_Node000003"><a xlink:href="../../d8/d92/classLSM1x0A__Controller.html#abb0eb380daa3dfb7acffb483c5db8e2b" target="_top" xlink:title="Executes the recovery protocol. First Soft&#45;Reset (ATZ), then Hard&#45;Reset if there is a pin.">
<polygon fill="white" stroke="#666666" points="497.25,-214 391.25,-214 391.25,-182 497.25,-182 497.25,-214"/>
<text text-anchor="start" x="399.25" y="-200.5" font-family="Helvetica,sans-Serif" font-size="10.00">LSM1x0A_Controller</text>
<text text-anchor="middle" x="444.25" y="-188.5" font-family="Helvetica,sans-Serif" font-size="10.00">::recoverModule</text>
</a>
</g>
</g>
<!-- Node2&#45;&gt;Node3 -->
<g id="edge2_Node000002_Node000003" class="edge">
<title>Node2&#45;&gt;Node3</title>
<g id="a_edge2_Node000002_Node000003"><a xlink:title=" ">
<path fill="none" stroke="#63b8ff" d="M304.44,-104.47C332.41,-123.32 378.39,-154.29 409.7,-175.39"/>
<polygon fill="#63b8ff" stroke="#63b8ff" points="407.41,-178.07 417.65,-180.75 411.32,-172.26 407.41,-178.07"/>
</a>
</g>
</g>
<!-- Node12 -->
<g id="Node000012" class="node">
<title>Node12</title>
<g id="a_Node000012"><a xlink:href="../../d6/d3c/classLSM1x0A__AtParser.html#a0ba6f927c54fceece22c17773d3f2600" target="_top" xlink:title="Sends a command and extracts a value from the response.">
<polygon fill="white" stroke="#666666" points="1713,-287 1538.75,-287 1538.75,-255 1713,-255 1713,-287"/>
<text text-anchor="start" x="1546.75" y="-273.5" font-family="Helvetica,sans-Serif" font-size="10.00">LSM1x0A_AtParser::sendCommand</text>
<text text-anchor="middle" x="1625.88" y="-261.5" font-family="Helvetica,sans-Serif" font-size="10.00">WithResponse</text>
</a>
</g>
</g>
<!-- Node2&#45;&gt;Node12 -->
<g id="edge57_Node000002_Node000012" class="edge">
<title>Node2&#45;&gt;Node12</title>
<g id="a_edge57_Node000002_Node000012"><a xlink:title=" ">
<path fill="none" stroke="#63b8ff" d="M316.44,-71.65C376.61,-46.21 501.04,0 611.5,0 611.5,0 611.5,0 1217.25,0 1394.19,0 1552.95,-179.26 1606.06,-246.19"/>
<polygon fill="#63b8ff" stroke="#63b8ff" points="1602.99,-247.95 1611.91,-253.67 1608.5,-243.64 1602.99,-247.95"/>
</a>
</g>
</g>
<!-- Node4 -->
<g id="Node000004" class="node">
<title>Node4</title>
<g id="a_Node000004"><a xlink:href="../../d8/d92/classLSM1x0A__Controller.html#a3f6f25b843fe4fb7042c544deae2ab16" target="_top" xlink:title="Manually clears bits from the internal EventGroup.">
<polygon fill="white" stroke="#666666" points="1060.12,-98 954.12,-98 954.12,-66 1060.12,-66 1060.12,-98"/>
<text text-anchor="start" x="962.12" y="-84.5" font-family="Helvetica,sans-Serif" font-size="10.00">LSM1x0A_Controller</text>
<text text-anchor="middle" x="1007.12" y="-72.5" font-family="Helvetica,sans-Serif" font-size="10.00">::clearEvents</text>
</a>
</g>
</g>
<!-- Node3&#45;&gt;Node4 -->
<g id="edge3_Node000003_Node000004" class="edge">
<title>Node3&#45;&gt;Node4</title>
<g id="a_edge3_Node000003_Node000004"><a xlink:title=" ">
<path fill="none" stroke="#63b8ff" d="M469.93,-181.53C486.98,-171 510.59,-158.03 533.25,-151 678.9,-105.82 723.98,-138.94 874.25,-113 896.75,-109.12 921.15,-103.72 942.77,-98.52"/>
<polygon fill="#63b8ff" stroke="#63b8ff" points="943.45,-101.96 952.33,-96.18 941.78,-95.16 943.45,-101.96"/>
</a>
</g>
</g>
<!-- Node5 -->
<g id="Node000005" class="node">
<title>Node5</title>
<g id="a_Node000005"><a xlink:href="../../d8/d92/classLSM1x0A__Controller.html#a345d4bd79fa16b18dc33a4ca788fe5f7" target="_top" xlink:title="Performs a hardware reset using the reset pin.">
<polygon fill="white" stroke="#666666" points="665.5,-104 559.5,-104 559.5,-72 665.5,-72 665.5,-104"/>
<text text-anchor="start" x="567.5" y="-90.5" font-family="Helvetica,sans-Serif" font-size="10.00">LSM1x0A_Controller</text>
<text text-anchor="middle" x="612.5" y="-78.5" font-family="Helvetica,sans-Serif" font-size="10.00">::hardwareReset</text>
</a>
</g>
</g>
<!-- Node3&#45;&gt;Node5 -->
<g id="edge4_Node000003_Node000005" class="edge">
<title>Node3&#45;&gt;Node5</title>
<g id="a_edge4_Node000003_Node000005"><a xlink:title=" ">
<path fill="none" stroke="#63b8ff" d="M459.71,-181.63C476.07,-163.93 504.24,-135.86 533.25,-118 538.52,-114.76 544.19,-111.77 549.99,-109.03"/>
<polygon fill="#63b8ff" stroke="#63b8ff" points="551.39,-112.24 559.13,-104.99 548.56,-105.83 551.39,-112.24"/>
</a>
</g>
</g>
<!-- Node7 -->
<g id="Node000007" class="node">
<title>Node7</title>
<g id="a_Node000007"><a xlink:href="../../d5/d72/classLSM1x0A__LoRaWAN.html#a1892801e37c8cd67d37c76108d6f7d49" target="_top" xlink:title="Validates if the device is currently Joined to the network. (Either confirmed by OTAA or statically a...">
<polygon fill="white" stroke="#666666" points="1292.5,-136 1140,-136 1140,-116 1292.5,-116 1292.5,-136"/>
<text text-anchor="middle" x="1216.25" y="-122.5" font-family="Helvetica,sans-Serif" font-size="10.00">LSM1x0A_LoRaWAN::isJoined</text>
</a>
</g>
</g>
<!-- Node3&#45;&gt;Node7 -->
<g id="edge6_Node000003_Node000007" class="edge">
<title>Node3&#45;&gt;Node7</title>
<g id="a_edge6_Node000003_Node000007"><a xlink:title=" ">
<path fill="none" stroke="#63b8ff" d="M450.18,-181.77C460.24,-151.92 486.23,-88.97 533.25,-63 644.29,-1.69 982.01,-22.24 1104,-57 1139.07,-66.99 1173.87,-91.56 1194.97,-108.51"/>
<polygon fill="#63b8ff" stroke="#63b8ff" points="1192.55,-111.05 1202.49,-114.72 1197.01,-105.65 1192.55,-111.05"/>
</a>
</g>
</g>
<!-- Node8 -->
<g id="Node000008" class="node">
<title>Node8</title>
<g id="a_Node000008"><a xlink:href="../../d5/d72/classLSM1x0A__LoRaWAN.html#a83e11c0e74ff9e0757db616ab1163424" target="_top" xlink:title="Attempts to recover a lost connection (re&#45;executes OTAA Join if dropped).">
<polygon fill="white" stroke="#666666" points="686.88,-192 538.12,-192 538.12,-160 686.88,-160 686.88,-192"/>
<text text-anchor="start" x="546.12" y="-178.5" font-family="Helvetica,sans-Serif" font-size="10.00">LSM1x0A_LoRaWAN::recover</text>
<text text-anchor="middle" x="612.5" y="-166.5" font-family="Helvetica,sans-Serif" font-size="10.00">Connection</text>
</a>
</g>
</g>
<!-- Node3&#45;&gt;Node8 -->
<g id="edge7_Node000003_Node000008" class="edge">
<title>Node3&#45;&gt;Node8</title>
<g id="a_edge7_Node000003_Node000008"><a xlink:title=" ">
<path fill="none" stroke="#63b8ff" d="M497.4,-191.1C506.74,-189.86 516.69,-188.55 526.67,-187.23"/>
<polygon fill="#63b8ff" stroke="#63b8ff" points="526.97,-190.72 536.42,-185.94 526.05,-183.78 526.97,-190.72"/>
</a>
</g>
</g>
<!-- Node16 -->
<g id="Node000016" class="node">
<title>Node16</title>
<g id="a_Node000016"><a xlink:href="../../d5/d72/classLSM1x0A__LoRaWAN.html#ae3be4ce59dfa200369733317df356e97" target="_top" xlink:title="Pushes the RAM&#45;cached variables back down into the hardware module. Restores the operational state af...">
<polygon fill="white" stroke="#666666" points="874.25,-539 727.75,-539 727.75,-507 874.25,-507 874.25,-539"/>
<text text-anchor="start" x="735.75" y="-525.5" font-family="Helvetica,sans-Serif" font-size="10.00">LSM1x0A_LoRaWAN::restore</text>
<text text-anchor="middle" x="801" y="-513.5" font-family="Helvetica,sans-Serif" font-size="10.00">Config</text>
</a>
</g>
</g>
<!-- Node3&#45;&gt;Node16 -->
<g id="edge20_Node000003_Node000016" class="edge">
<title>Node3&#45;&gt;Node16</title>
<g id="a_edge20_Node000003_Node000016"><a xlink:title=" ">
<path fill="none" stroke="#63b8ff" d="M462.84,-214.12C520.76,-267.18 705.69,-436.6 774.17,-499.34"/>
<polygon fill="#63b8ff" stroke="#63b8ff" points="771.45,-501.59 781.19,-505.76 776.18,-496.43 771.45,-501.59"/>
</a>
</g>
</g>
<!-- Node33 -->
<g id="Node000033" class="node">
<title>Node33</title>
<g id="a_Node000033"><a xlink:href="../../d5/d72/classLSM1x0A__LoRaWAN.html#ace4b04396f1de1f4a54f513f5f378db7" target="_top" xlink:title="Manually overrides the internal joined state tracker.">
<polygon fill="white" stroke="#666666" points="691.75,-939 533.25,-939 533.25,-919 691.75,-919 691.75,-939"/>
<text text-anchor="middle" x="612.5" y="-925.5" font-family="Helvetica,sans-Serif" font-size="10.00">LSM1x0A_LoRaWAN::setJoined</text>
</a>
</g>
</g>
<!-- Node3&#45;&gt;Node33 -->
<g id="edge54_Node000003_Node000033" class="edge">
<title>Node3&#45;&gt;Node33</title>
<g id="a_edge54_Node000003_Node000033"><a xlink:title=" ">
<path fill="none" stroke="#63b8ff" d="M444.97,-214.4C443.65,-310.08 441.58,-795.83 533.25,-905 535.67,-907.88 538.43,-910.43 541.43,-912.67"/>
<polygon fill="#63b8ff" stroke="#63b8ff" points="539.41,-915.54 549.77,-917.75 543.05,-909.56 539.41,-915.54"/>
</a>
</g>
</g>
<!-- Node34 -->
<g id="Node000034" class="node">
<title>Node34</title>
<g id="a_Node000034"><a xlink:href="../../d8/d92/classLSM1x0A__Controller.html#a11ad21cb5ca33ec51346764a23bd485e" target="_top" xlink:title="Performs a software reset (ATZ Command).">
<polygon fill="white" stroke="#666666" points="1269.25,-795 1163.25,-795 1163.25,-763 1269.25,-763 1269.25,-795"/>
<text text-anchor="start" x="1171.25" y="-781.5" font-family="Helvetica,sans-Serif" font-size="10.00">LSM1x0A_Controller</text>
<text text-anchor="middle" x="1216.25" y="-769.5" font-family="Helvetica,sans-Serif" font-size="10.00">::softwareReset</text>
</a>
</g>
</g>
<!-- Node3&#45;&gt;Node34 -->
<g id="edge55_Node000003_Node000034" class="edge">
<title>Node3&#45;&gt;Node34</title>
<g id="a_edge55_Node000003_Node000034"><a xlink:title=" ">
<path fill="none" stroke="#63b8ff" d="M445.89,-214.18C450.16,-318.83 476.25,-897.3 533.25,-948 598.44,-1005.99 866.39,-1058.87 1104,-932 1155.46,-904.52 1189.07,-841.52 1204.82,-805.51"/>
<polygon fill="#63b8ff" stroke="#63b8ff" points="1207.89,-807.25 1208.55,-796.67 1201.44,-804.53 1207.89,-807.25"/>
</a>
</g>
</g>
<!-- Node6 -->
<g id="Node000006" class="node">
<title>Node6</title>
<g id="a_Node000006"><a xlink:href="../../d6/d3c/classLSM1x0A__AtParser.html#ad2839120da13e56132b95019419be1e5" target="_top" xlink:title="Waits for an event (like BOOTALERT) without sending any command. Useful for hardware reset where the ...">
<polygon fill="white" stroke="#666666" points="871.25,-104 730.75,-104 730.75,-72 871.25,-72 871.25,-104"/>
<text text-anchor="start" x="738.75" y="-90.5" font-family="Helvetica,sans-Serif" font-size="10.00">LSM1x0A_AtParser::waitFor</text>
<text text-anchor="middle" x="801" y="-78.5" font-family="Helvetica,sans-Serif" font-size="10.00">Event</text>
</a>
</g>
</g>
<!-- Node5&#45;&gt;Node6 -->
<g id="edge5_Node000005_Node000006" class="edge">
<title>Node5&#45;&gt;Node6</title>
<g id="a_edge5_Node000005_Node000006"><a xlink:title=" ">
<path fill="none" stroke="#63b8ff" d="M665.95,-88C682.46,-88 701.11,-88 719.12,-88"/>
<polygon fill="#63b8ff" stroke="#63b8ff" points="719.03,-91.5 729.03,-88 719.03,-84.5 719.03,-91.5"/>
</a>
</g>
</g>
<!-- Node9 -->
<g id="Node000009" class="node">
<title>Node9</title>
<g id="a_Node000009"><a xlink:href="../../d5/d72/classLSM1x0A__LoRaWAN.html#a59f781f3cfd30c11cd3973bcb10a7baa" target="_top" xlink:title="Initiates a LoRaWAN Network Join procedure. This is a blocking function until the module fires an eve...">
<polygon fill="white" stroke="#666666" points="866.75,-186 735.25,-186 735.25,-166 866.75,-166 866.75,-186"/>
<text text-anchor="middle" x="801" y="-172.5" font-family="Helvetica,sans-Serif" font-size="10.00">LSM1x0A_LoRaWAN::join</text>
</a>
</g>
</g>
<!-- Node8&#45;&gt;Node9 -->
<g id="edge8_Node000008_Node000009" class="edge">
<title>Node8&#45;&gt;Node9</title>
<g id="a_edge8_Node000008_Node000009"><a xlink:title=" ">
<path fill="none" stroke="#63b8ff" d="M687.21,-176C699.17,-176 711.58,-176 723.6,-176"/>
<polygon fill="#63b8ff" stroke="#63b8ff" points="723.47,-179.5 733.47,-176 723.47,-172.5 723.47,-179.5"/>
</a>
</g>
</g>
<!-- Node9&#45;&gt;Node3 -->
<g id="edge10_Node000009_Node000003" class="edge">
<title>Node9&#45;&gt;Node3</title>
<g id="a_edge10_Node000009_Node000003"><a xlink:title=" ">
<path fill="none" stroke="#63b8ff" d="M764.27,-186.4C743.34,-191.95 716.28,-198.2 691.75,-201 621.76,-208.98 603.68,-202.2 533.25,-201 525.35,-200.87 517.06,-200.66 508.86,-200.43"/>
<polygon fill="#63b8ff" stroke="#63b8ff" points="508.98,-196.93 498.87,-200.12 508.76,-203.92 508.98,-196.93"/>
</a>
</g>
</g>
<!-- Node9&#45;&gt;Node4 -->
<g id="edge9_Node000009_Node000004" class="edge">
<title>Node9&#45;&gt;Node4</title>
<g id="a_edge9_Node000009_Node000004"><a xlink:title=" ">
<path fill="none" stroke="#63b8ff" d="M835.55,-165.52C848.3,-160.68 862.56,-154.16 874.25,-146 893.59,-132.5 890.02,-119.13 910.25,-107 920.2,-101.03 931.56,-96.47 942.9,-93"/>
<polygon fill="#63b8ff" stroke="#63b8ff" points="943.57,-96.45 952.26,-90.39 941.69,-89.7 943.57,-96.45"/>
</a>
</g>
</g>
<!-- Node10 -->
<g id="Node000010" class="node">
<title>Node10</title>
<g id="a_Node000010"><a xlink:href="../../d8/d92/classLSM1x0A__Controller.html#afd7d92e60ed6fdae696a955cdbe0ed8c" target="_top" xlink:title="Sends any AT command to the module, returning error if it fails. Internally uses the LsmAtParser logi...">
<polygon fill="white" stroke="#666666" points="1269.25,-558 1163.25,-558 1163.25,-526 1269.25,-526 1269.25,-558"/>
<text text-anchor="start" x="1171.25" y="-544.5" font-family="Helvetica,sans-Serif" font-size="10.00">LSM1x0A_Controller</text>
<text text-anchor="middle" x="1216.25" y="-532.5" font-family="Helvetica,sans-Serif" font-size="10.00">::sendCommand</text>
</a>
</g>
</g>
<!-- Node9&#45;&gt;Node10 -->
<g id="edge11_Node000009_Node000010" class="edge">
<title>Node9&#45;&gt;Node10</title>
<g id="a_edge11_Node000009_Node000010"><a xlink:title=" ">
<path fill="none" stroke="#63b8ff" d="M867.03,-171.81C944.64,-168.2 1068.41,-167.28 1104,-195 1205.73,-274.23 1215.99,-447.25 1215.95,-514.5"/>
<polygon fill="#63b8ff" stroke="#63b8ff" points="1212.45,-514.23 1215.85,-524.26 1219.45,-514.3 1212.45,-514.23"/>
</a>
</g>
</g>
<!-- Node14 -->
<g id="Node000014" class="node">
<title>Node14</title>
<g id="a_Node000014"><a xlink:href="../../d5/d72/classLSM1x0A__LoRaWAN.html#a3fdd1ac318a5ad2559323e5d57e36a5e" target="_top" xlink:title="Enables or disables specific sub&#45;bands for regions supporting Channel Masks (e.g.,...">
<polygon fill="white" stroke="#666666" points="1102.12,-224 912.12,-224 912.12,-204 1102.12,-204 1102.12,-224"/>
<text text-anchor="middle" x="1007.12" y="-210.5" font-family="Helvetica,sans-Serif" font-size="10.00">LSM1x0A_LoRaWAN::setChannelMask</text>
</a>
</g>
</g>
<!-- Node9&#45;&gt;Node14 -->
<g id="edge16_Node000009_Node000014" class="edge">
<title>Node9&#45;&gt;Node14</title>
<g id="a_edge16_Node000009_Node000014"><a xlink:title=" ">
<path fill="none" stroke="#63b8ff" d="M858.32,-186.48C883.19,-191.12 912.64,-196.6 938.68,-201.44"/>
<polygon fill="#63b8ff" stroke="#63b8ff" points="938.03,-204.88 948.5,-203.27 939.31,-198 938.03,-204.88"/>
</a>
</g>
</g>
<!-- Node15 -->
<g id="Node000015" class="node">
<title>Node15</title>
<g id="a_Node000015"><a xlink:href="../../d8/d92/classLSM1x0A__Controller.html#a62476e30e50c7fe120aeb8df4b828675" target="_top" xlink:title="Synchronously/blockingly waits for an asynchronous event to occur. Useful for wrapping commands like ...">
<polygon fill="white" stroke="#666666" points="1060.12,-148 954.12,-148 954.12,-116 1060.12,-116 1060.12,-148"/>
<text text-anchor="start" x="962.12" y="-134.5" font-family="Helvetica,sans-Serif" font-size="10.00">LSM1x0A_Controller</text>
<text text-anchor="middle" x="1007.12" y="-122.5" font-family="Helvetica,sans-Serif" font-size="10.00">::waitForEvent</text>
</a>
</g>
</g>
<!-- Node9&#45;&gt;Node15 -->
<g id="edge19_Node000009_Node000015" class="edge">
<title>Node9&#45;&gt;Node15</title>
<g id="a_edge19_Node000009_Node000015"><a xlink:title=" ">
<path fill="none" stroke="#63b8ff" d="M850.63,-165.52C878.24,-159.57 913.11,-152.05 942.82,-145.65"/>
<polygon fill="#63b8ff" stroke="#63b8ff" points="943.42,-149.1 952.45,-143.57 941.94,-142.25 943.42,-149.1"/>
</a>
</g>
</g>
<!-- Node10&#45;&gt;Node3 -->
<g id="edge12_Node000010_Node000003" class="edge">
<title>Node10&#45;&gt;Node3</title>
<g id="a_edge12_Node000010_Node000003"><a xlink:title=" ">
<path fill="none" stroke="#63b8ff" d="M1208.82,-558.31C1195.06,-593.61 1162.16,-679.91 1140,-754 1120.73,-818.44 1156.92,-859.48 1104,-901 1036.25,-954.16 986.69,-940.65 910.25,-901 622.93,-751.97 484.97,-335.66 452.77,-225.19"/>
<polygon fill="#63b8ff" stroke="#63b8ff" points="456.2,-224.47 450.08,-215.82 449.47,-226.4 456.2,-224.47"/>
</a>
</g>
</g>
<!-- Node11 -->
<g id="Node000011" class="node">
<title>Node11</title>
<g id="a_Node000011"><a xlink:href="../../d6/d3c/classLSM1x0A__AtParser.html#a29b53c521974387ba6c03afadfaffa4a" target="_top" xlink:title="Sends a simple command and waits for OK/ERROR. Example: sendCommand(&quot;AT+JOIN&quot;);.">
<polygon fill="white" stroke="#666666" points="1502.75,-552 1328.5,-552 1328.5,-532 1502.75,-532 1502.75,-552"/>
<text text-anchor="middle" x="1415.62" y="-538.5" font-family="Helvetica,sans-Serif" font-size="10.00">LSM1x0A_AtParser::sendCommand</text>
</a>
</g>
</g>
<!-- Node10&#45;&gt;Node11 -->
<g id="edge13_Node000010_Node000011" class="edge">
<title>Node10&#45;&gt;Node11</title>
<g id="a_edge13_Node000010_Node000011"><a xlink:title=" ">
<path fill="none" stroke="#63b8ff" d="M1269.62,-542C1284.19,-542 1300.5,-542 1316.78,-542"/>
<polygon fill="#63b8ff" stroke="#63b8ff" points="1316.51,-545.5 1326.51,-542 1316.51,-538.5 1316.51,-545.5"/>
</a>
</g>
</g>
<!-- Node11&#45;&gt;Node12 -->
<g id="edge14_Node000011_Node000012" class="edge">
<title>Node11&#45;&gt;Node12</title>
<g id="a_edge14_Node000011_Node000012"><a xlink:title=" ">
<path fill="none" stroke="#63b8ff" d="M1424.53,-531.71C1454.44,-492.78 1561.18,-353.88 1605.44,-296.3"/>
<polygon fill="#63b8ff" stroke="#63b8ff" points="1607.98,-298.73 1611.3,-288.67 1602.43,-294.46 1607.98,-298.73"/>
</a>
</g>
</g>
<!-- Node13 -->
<g id="Node000013" class="node">
<title>Node13</title>
<g id="a_Node000013"><a xlink:href="../../d5/d8b/classUartDriver.html#a5d0f22e8867eebe99273078bb19bd23d" target="_top" xlink:title="Sends data through UART.">
<polygon fill="white" stroke="#666666" points="1858,-281 1749,-281 1749,-261 1858,-261 1858,-281"/>
<text text-anchor="middle" x="1803.5" y="-267.5" font-family="Helvetica,sans-Serif" font-size="10.00">UartDriver::sendData</text>
</a>
</g>
</g>
<!-- Node12&#45;&gt;Node13 -->
<g id="edge15_Node000012_Node000013" class="edge">
<title>Node12&#45;&gt;Node13</title>
<g id="a_edge15_Node000012_Node000013"><a xlink:title=" ">
<path fill="none" stroke="#63b8ff" d="M1713.4,-271C1721.55,-271 1729.7,-271 1737.6,-271"/>
<polygon fill="#63b8ff" stroke="#63b8ff" points="1737.43,-274.5 1747.43,-271 1737.43,-267.5 1737.43,-274.5"/>
</a>
</g>
</g>
<!-- Node14&#45;&gt;Node7 -->
<g id="edge17_Node000014_Node000007" class="edge">
<title>Node14&#45;&gt;Node7</title>
<g id="a_edge17_Node000014_Node000007"><a xlink:title=" ">
<path fill="none" stroke="#63b8ff" d="M1032.7,-203.56C1069.29,-188.01 1138.28,-158.7 1180.17,-140.9"/>
<polygon fill="#63b8ff" stroke="#63b8ff" points="1181.48,-144.15 1189.32,-137.02 1178.74,-137.71 1181.48,-144.15"/>
</a>
</g>
</g>
<!-- Node14&#45;&gt;Node10 -->
<g id="edge18_Node000014_Node000010" class="edge">
<title>Node14&#45;&gt;Node10</title>
<g id="a_edge18_Node000014_Node000010"><a xlink:title=" ">
<path fill="none" stroke="#63b8ff" d="M1090.88,-224.28C1095.58,-226.69 1100.01,-229.57 1104,-233 1190.33,-307.27 1209.67,-453.75 1214,-514.55"/>
<polygon fill="#63b8ff" stroke="#63b8ff" points="1210.5,-514.57 1214.61,-524.33 1217.48,-514.13 1210.5,-514.57"/>
</a>
</g>
</g>
<!-- Node16&#45;&gt;Node14 -->
<g id="edge25_Node000016_Node000014" class="edge">
<title>Node16&#45;&gt;Node14</title>
<g id="a_edge25_Node000016_Node000014"><a xlink:title=" ">
<path fill="none" stroke="#63b8ff" d="M802.8,-506.78C806.18,-457.25 823.45,-306.79 910.25,-233 911.38,-232.04 912.54,-231.13 913.73,-230.25"/>
<polygon fill="#63b8ff" stroke="#63b8ff" points="915.42,-233.33 922.12,-225.12 911.77,-227.35 915.42,-233.33"/>
</a>
</g>
</g>
<!-- Node17 -->
<g id="Node000017" class="node">
<title>Node17</title>
<g id="a_Node000017"><a xlink:href="../../d5/d72/classLSM1x0A__LoRaWAN.html#af0baa3db4c7fab580d6b19a9e92472f6" target="_top" xlink:title="Enables or disables Adaptive Data Rate (ADR).">
<polygon fill="white" stroke="#666666" points="1083,-350 931.25,-350 931.25,-330 1083,-330 1083,-350"/>
<text text-anchor="middle" x="1007.12" y="-336.5" font-family="Helvetica,sans-Serif" font-size="10.00">LSM1x0A_LoRaWAN::setADR</text>
</a>
</g>
</g>
<!-- Node16&#45;&gt;Node17 -->
<g id="edge21_Node000016_Node000017" class="edge">
<title>Node16&#45;&gt;Node17</title>
<g id="a_edge21_Node000016_Node000017"><a xlink:title=" ">
<path fill="none" stroke="#63b8ff" d="M807.81,-506.6C820.6,-473 854.6,-396.38 910.25,-359 913.52,-356.8 916.98,-354.85 920.58,-353.11"/>
<polygon fill="#63b8ff" stroke="#63b8ff" points="921.73,-356.42 929.62,-349.35 919.04,-349.96 921.73,-356.42"/>
</a>
</g>
</g>
<!-- Node18 -->
<g id="Node000018" class="node">
<title>Node18</title>
<g id="a_Node000018"><a xlink:href="../../d5/d72/classLSM1x0A__LoRaWAN.html#a5365ed1596eb84ebf1e3b33b4a10c788" target="_top" xlink:title="Sets the LoRaWAN operational frequency band.">
<polygon fill="white" stroke="#666666" points="1083.38,-312 930.88,-312 930.88,-292 1083.38,-292 1083.38,-312"/>
<text text-anchor="middle" x="1007.12" y="-298.5" font-family="Helvetica,sans-Serif" font-size="10.00">LSM1x0A_LoRaWAN::setBand</text>
</a>
</g>
</g>
<!-- Node16&#45;&gt;Node18 -->
<g id="edge23_Node000016_Node000018" class="edge">
<title>Node16&#45;&gt;Node18</title>
<g id="a_edge23_Node000016_Node000018"><a xlink:title=" ">
<path fill="none" stroke="#63b8ff" d="M805.72,-506.5C815.45,-467.43 845.49,-368.94 910.25,-321 913.41,-318.66 916.79,-316.58 920.32,-314.75"/>
<polygon fill="#63b8ff" stroke="#63b8ff" points="921.5,-318.05 929.22,-310.8 918.66,-311.66 921.5,-318.05"/>
</a>
</g>
</g>
<!-- Node19 -->
<g id="Node000019" class="node">
<title>Node19</title>
<g id="a_Node000019"><a xlink:href="../../d5/d72/classLSM1x0A__LoRaWAN.html#a9d9285c43414337a0ccb3a6cd7ca06e6" target="_top" xlink:title="Configures the number of retries for Confirmed uplinks.">
<polygon fill="white" stroke="#666666" points="1089.38,-274 924.88,-274 924.88,-242 1089.38,-242 1089.38,-274"/>
<text text-anchor="start" x="932.88" y="-260.5" font-family="Helvetica,sans-Serif" font-size="10.00">LSM1x0A_LoRaWAN::setConfirm</text>
<text text-anchor="middle" x="1007.12" y="-248.5" font-family="Helvetica,sans-Serif" font-size="10.00">Retry</text>
</a>
</g>
</g>
<!-- Node16&#45;&gt;Node19 -->
<g id="edge26_Node000016_Node000019" class="edge">
<title>Node16&#45;&gt;Node19</title>
<g id="a_edge26_Node000016_Node000019"><a xlink:title=" ">
<path fill="none" stroke="#63b8ff" d="M804.43,-506.7C811.8,-463.28 837.95,-344.03 910.25,-283 911.74,-281.74 913.29,-280.55 914.88,-279.41"/>
<polygon fill="#63b8ff" stroke="#63b8ff" points="916.5,-282.52 923.2,-274.32 912.85,-276.55 916.5,-282.52"/>
</a>
</g>
</g>
<!-- Node20 -->
<g id="Node000020" class="node">
<title>Node20</title>
<g id="a_Node000020"><a xlink:href="../../d5/d72/classLSM1x0A__LoRaWAN.html#a56345ceeafa0b9059d6de4e69eddc82e" target="_top" xlink:title="Sets the Data Rate (DR) of the module.">
<polygon fill="white" stroke="#666666" points="1093.12,-892 921.12,-892 921.12,-872 1093.12,-872 1093.12,-892"/>
<text text-anchor="middle" x="1007.12" y="-878.5" font-family="Helvetica,sans-Serif" font-size="10.00">LSM1x0A_LoRaWAN::setDataRate</text>
</a>
</g>
</g>
<!-- Node16&#45;&gt;Node20 -->
<g id="edge28_Node000016_Node000020" class="edge">
<title>Node16&#45;&gt;Node20</title>
<g id="a_edge28_Node000016_Node000020"><a xlink:title=" ">
<path fill="none" stroke="#63b8ff" d="M801.8,-539.16C802.04,-593.93 810.69,-774.06 910.25,-863 911.2,-863.85 912.17,-864.66 913.17,-865.44"/>
<polygon fill="#63b8ff" stroke="#63b8ff" points="911.2,-868.34 921.5,-870.83 915,-862.46 911.2,-868.34"/>
</a>
</g>
</g>
<!-- Node21 -->
<g id="Node000021" class="node">
<title>Node21</title>
<g id="a_Node000021"><a xlink:href="../../d5/d72/classLSM1x0A__LoRaWAN.html#a8494083816ab885cb07fc3b08de029f4" target="_top" xlink:title="Sets the LoRaWAN Device Address (DevAddr) for ABP mode.">
<polygon fill="white" stroke="#666666" points="1091.25,-854 923,-854 923,-834 1091.25,-834 1091.25,-854"/>
<text text-anchor="middle" x="1007.12" y="-840.5" font-family="Helvetica,sans-Serif" font-size="10.00">LSM1x0A_LoRaWAN::setDevAddr</text>
</a>
</g>
</g>
<!-- Node16&#45;&gt;Node21 -->
<g id="edge30_Node000016_Node000021" class="edge">
<title>Node16&#45;&gt;Node21</title>
<g id="a_edge30_Node000016_Node000021"><a xlink:title=" ">
<path fill="none" stroke="#63b8ff" d="M802.53,-539.15C805.12,-589.92 820.37,-747.57 910.25,-825 911.37,-825.97 912.53,-826.89 913.71,-827.77"/>
<polygon fill="#63b8ff" stroke="#63b8ff" points="911.73,-830.65 922.07,-832.93 915.4,-824.7 911.73,-830.65"/>
</a>
</g>
</g>
<!-- Node22 -->
<g id="Node000022" class="node">
<title>Node22</title>
<g id="a_Node000022"><a xlink:href="../../d5/d72/classLSM1x0A__LoRaWAN.html#ad320634e52d7ea907043cc50dd37c5b0" target="_top" xlink:title="Sets the LoRaWAN Device EUI (DevEUI).">
<polygon fill="white" stroke="#666666" points="1089.75,-816 924.5,-816 924.5,-796 1089.75,-796 1089.75,-816"/>
<text text-anchor="middle" x="1007.12" y="-802.5" font-family="Helvetica,sans-Serif" font-size="10.00">LSM1x0A_LoRaWAN::setDevEUI</text>
</a>
</g>
</g>
<!-- Node16&#45;&gt;Node22 -->
<g id="edge32_Node000016_Node000022" class="edge">
<title>Node16&#45;&gt;Node22</title>
<g id="a_edge32_Node000016_Node000022"><a xlink:title=" ">
<path fill="none" stroke="#63b8ff" d="M803.49,-539.44C808.64,-586.24 830.12,-721.05 910.25,-787 911.74,-788.22 913.28,-789.38 914.87,-790.46"/>
<polygon fill="#63b8ff" stroke="#63b8ff" points="912.73,-793.27 923.15,-795.21 916.22,-787.2 912.73,-793.27"/>
</a>
</g>
</g>
<!-- Node23 -->
<g id="Node000023" class="node">
<title>Node23</title>
<g id="a_Node000023"><a xlink:href="../../d5/d72/classLSM1x0A__LoRaWAN.html#a031023b0d2dd5db3c51c2db6ae7801cc" target="_top" xlink:title="Enables or disables the Duty Cycle limitation (EU regions mostly).">
<polygon fill="white" stroke="#666666" points="1082.62,-778 931.62,-778 931.62,-746 1082.62,-746 1082.62,-778"/>
<text text-anchor="start" x="939.62" y="-764.5" font-family="Helvetica,sans-Serif" font-size="10.00">LSM1x0A_LoRaWAN::setDuty</text>
<text text-anchor="middle" x="1007.12" y="-752.5" font-family="Helvetica,sans-Serif" font-size="10.00">Cycle</text>
</a>
</g>
</g>
<!-- Node16&#45;&gt;Node23 -->
<g id="edge34_Node000016_Node000023" class="edge">
<title>Node16&#45;&gt;Node23</title>
<g id="a_edge34_Node000016_Node000023"><a xlink:title=" ">
<path fill="none" stroke="#63b8ff" d="M805.4,-539.3C814.65,-579.44 844.14,-683.67 910.25,-737 913.69,-739.78 917.41,-742.25 921.31,-744.44"/>
<polygon fill="#63b8ff" stroke="#63b8ff" points="919.46,-747.44 929.98,-748.7 922.55,-741.15 919.46,-747.44"/>
</a>
</g>
</g>
<!-- Node24 -->
<g id="Node000024" class="node">
<title>Node24</title>
<g id="a_Node000024"><a xlink:href="../../d5/d72/classLSM1x0A__LoRaWAN.html#a6b179d5825c49af0f391dfc539912f64" target="_top" xlink:title="Sets the delay for the Join1 receive window.">
<polygon fill="white" stroke="#666666" points="1083.75,-728 930.5,-728 930.5,-696 1083.75,-696 1083.75,-728"/>
<text text-anchor="start" x="938.5" y="-714.5" font-family="Helvetica,sans-Serif" font-size="10.00">LSM1x0A_LoRaWAN::setJoin1</text>
<text text-anchor="middle" x="1007.12" y="-702.5" font-family="Helvetica,sans-Serif" font-size="10.00">Delay</text>
</a>
</g>
</g>
<!-- Node16&#45;&gt;Node24 -->
<g id="edge36_Node000016_Node000024" class="edge">
<title>Node16&#45;&gt;Node24</title>
<g id="a_edge36_Node000016_Node000024"><a xlink:title=" ">
<path fill="none" stroke="#63b8ff" d="M808.09,-539.39C821.31,-572.62 855.88,-648.08 910.25,-687 913.42,-689.27 916.79,-691.34 920.28,-693.21"/>
<polygon fill="#63b8ff" stroke="#63b8ff" points="918.53,-696.26 929.07,-697.38 921.53,-689.93 918.53,-696.26"/>
</a>
</g>
</g>
<!-- Node25 -->
<g id="Node000025" class="node">
<title>Node25</title>
<g id="a_Node000025"><a xlink:href="../../d5/d72/classLSM1x0A__LoRaWAN.html#a4545d0caad41558cdb9bae8286b104d8" target="_top" xlink:title="Sets the delay for the Join2 receive window.">
<polygon fill="white" stroke="#666666" points="1083.75,-678 930.5,-678 930.5,-646 1083.75,-646 1083.75,-678"/>
<text text-anchor="start" x="938.5" y="-664.5" font-family="Helvetica,sans-Serif" font-size="10.00">LSM1x0A_LoRaWAN::setJoin2</text>
<text text-anchor="middle" x="1007.12" y="-652.5" font-family="Helvetica,sans-Serif" font-size="10.00">Delay</text>
</a>
</g>
</g>
<!-- Node16&#45;&gt;Node25 -->
<g id="edge38_Node000016_Node000025" class="edge">
<title>Node16&#45;&gt;Node25</title>
<g id="a_edge38_Node000016_Node000025"><a xlink:title=" ">
<path fill="none" stroke="#63b8ff" d="M812.89,-539.33C830.4,-564.27 867.24,-611.61 910.25,-637 913.26,-638.78 916.4,-640.43 919.63,-641.97"/>
<polygon fill="#63b8ff" stroke="#63b8ff" points="918.23,-645.18 928.8,-645.9 920.99,-638.74 918.23,-645.18"/>
</a>
</g>
</g>
<!-- Node26 -->
<g id="Node000026" class="node">
<title>Node26</title>
<g id="a_Node000026"><a xlink:href="../../d5/d72/classLSM1x0A__LoRaWAN.html#a06bd50723ec1eb7e144c9141b2ec86fc" target="_top" xlink:title="Sets the LoRaWAN Network ID (NetID).">
<polygon fill="white" stroke="#666666" points="1087.5,-628 926.75,-628 926.75,-608 1087.5,-608 1087.5,-628"/>
<text text-anchor="middle" x="1007.12" y="-614.5" font-family="Helvetica,sans-Serif" font-size="10.00">LSM1x0A_LoRaWAN::setNwkID</text>
</a>
</g>
</g>
<!-- Node16&#45;&gt;Node26 -->
<g id="edge40_Node000016_Node000026" class="edge">
<title>Node16&#45;&gt;Node26</title>
<g id="a_edge40_Node000016_Node000026"><a xlink:title=" ">
<path fill="none" stroke="#63b8ff" d="M820.1,-539.34C840.51,-556.84 875.41,-584.11 910.25,-599 914.85,-600.97 919.66,-602.73 924.58,-604.32"/>
<polygon fill="#63b8ff" stroke="#63b8ff" points="923.42,-607.63 934.01,-607.08 925.39,-600.91 923.42,-607.63"/>
</a>
</g>
</g>
<!-- Node27 -->
<g id="Node000027" class="node">
<title>Node27</title>
<g id="a_Node000027"><a xlink:href="../../d5/d72/classLSM1x0A__LoRaWAN.html#aa70ada64d28ecca216bb62268e502adf" target="_top" xlink:title="Sets the delay for the RX1 receive window.">
<polygon fill="white" stroke="#666666" points="1093.88,-590 920.38,-590 920.38,-570 1093.88,-570 1093.88,-590"/>
<text text-anchor="middle" x="1007.12" y="-576.5" font-family="Helvetica,sans-Serif" font-size="10.00">LSM1x0A_LoRaWAN::setRx1Delay</text>
</a>
</g>
</g>
<!-- Node16&#45;&gt;Node27 -->
<g id="edge42_Node000016_Node000027" class="edge">
<title>Node16&#45;&gt;Node27</title>
<g id="a_edge42_Node000016_Node000027"><a xlink:title=" ">
<path fill="none" stroke="#63b8ff" d="M844.49,-539.49C864.27,-546.76 888.25,-554.99 910.25,-561 918.33,-563.21 926.86,-565.27 935.37,-567.16"/>
<polygon fill="#63b8ff" stroke="#63b8ff" points="934.5,-570.55 945.01,-569.23 935.97,-563.71 934.5,-570.55"/>
</a>
</g>
</g>
<!-- Node28 -->
<g id="Node000028" class="node">
<title>Node28</title>
<g id="a_Node000028"><a xlink:href="../../d5/d72/classLSM1x0A__LoRaWAN.html#a2cf4eff0181b6107d082bccefa24217b" target="_top" xlink:title="Sets the Data Rate (DR) specifically for the RX2 window.">
<polygon fill="white" stroke="#666666" points="1102.12,-552 912.12,-552 912.12,-532 1102.12,-532 1102.12,-552"/>
<text text-anchor="middle" x="1007.12" y="-538.5" font-family="Helvetica,sans-Serif" font-size="10.00">LSM1x0A_LoRaWAN::setRx2DataRate</text>
</a>
</g>
</g>
<!-- Node16&#45;&gt;Node28 -->
<g id="edge44_Node000016_Node000028" class="edge">
<title>Node16&#45;&gt;Node28</title>
<g id="a_edge44_Node000016_Node000028"><a xlink:title=" ">
<path fill="none" stroke="#63b8ff" d="M874.54,-529.75C882.91,-530.53 891.56,-531.34 900.26,-532.15"/>
<polygon fill="#63b8ff" stroke="#63b8ff" points="899.89,-535.63 910.18,-533.07 900.54,-528.66 899.89,-535.63"/>
</a>
</g>
</g>
<!-- Node29 -->
<g id="Node000029" class="node">
<title>Node29</title>
<g id="a_Node000029"><a xlink:href="../../d5/d72/classLSM1x0A__LoRaWAN.html#a42d2137b475b57e19d891a5f1ac93221" target="_top" xlink:title="Sets the delay for the RX2 receive window.">
<polygon fill="white" stroke="#666666" points="1093.88,-514 920.38,-514 920.38,-494 1093.88,-494 1093.88,-514"/>
<text text-anchor="middle" x="1007.12" y="-500.5" font-family="Helvetica,sans-Serif" font-size="10.00">LSM1x0A_LoRaWAN::setRx2Delay</text>
</a>
</g>
</g>
<!-- Node16&#45;&gt;Node29 -->
<g id="edge46_Node000016_Node000029" class="edge">
<title>Node16&#45;&gt;Node29</title>
<g id="a_edge46_Node000016_Node000029"><a xlink:title=" ">
<path fill="none" stroke="#63b8ff" d="M874.54,-516.25C885.74,-515.21 897.47,-514.11 909.1,-513.03"/>
<polygon fill="#63b8ff" stroke="#63b8ff" points="909.07,-516.55 918.7,-512.14 908.42,-509.58 909.07,-516.55"/>
</a>
</g>
</g>
<!-- Node30 -->
<g id="Node000030" class="node">
<title>Node30</title>
<g id="a_Node000030"><a xlink:href="../../d5/d72/classLSM1x0A__LoRaWAN.html#a689f7dfda1dfeae11ea397c2ddf2ad37" target="_top" xlink:title="Sets the precise frequency for the RX2 window.">
<polygon fill="white" stroke="#666666" points="1104,-476 910.25,-476 910.25,-456 1104,-456 1104,-476"/>
<text text-anchor="middle" x="1007.12" y="-462.5" font-family="Helvetica,sans-Serif" font-size="10.00">LSM1x0A_LoRaWAN::setRx2Frequency</text>
</a>
</g>
</g>
<!-- Node16&#45;&gt;Node30 -->
<g id="edge48_Node000016_Node000030" class="edge">
<title>Node16&#45;&gt;Node30</title>
<g id="a_edge48_Node000016_Node000030"><a xlink:title=" ">
<path fill="none" stroke="#63b8ff" d="M844.49,-506.51C864.27,-499.24 888.25,-491.01 910.25,-485 918.33,-482.79 926.86,-480.73 935.37,-478.84"/>
<polygon fill="#63b8ff" stroke="#63b8ff" points="935.97,-482.29 945.01,-476.77 934.5,-475.45 935.97,-482.29"/>
</a>
</g>
</g>
<!-- Node31 -->
<g id="Node000031" class="node">
<title>Node31</title>
<g id="a_Node000031"><a xlink:href="../../d5/d72/classLSM1x0A__LoRaWAN.html#a1df10d7ae6bf45b537d28d3d5c4b88d7" target="_top" xlink:title="Sets the transmission power index.">
<polygon fill="white" stroke="#666666" points="1091.62,-438 922.62,-438 922.62,-418 1091.62,-418 1091.62,-438"/>
<text text-anchor="middle" x="1007.12" y="-424.5" font-family="Helvetica,sans-Serif" font-size="10.00">LSM1x0A_LoRaWAN::setTxPower</text>
</a>
</g>
</g>
<!-- Node16&#45;&gt;Node31 -->
<g id="edge50_Node000016_Node000031" class="edge">
<title>Node16&#45;&gt;Node31</title>
<g id="a_edge50_Node000016_Node000031"><a xlink:title=" ">
<path fill="none" stroke="#63b8ff" d="M820.1,-506.66C840.51,-489.16 875.41,-461.89 910.25,-447 914.85,-445.03 919.66,-443.27 924.58,-441.68"/>
<polygon fill="#63b8ff" stroke="#63b8ff" points="925.39,-445.09 934.01,-438.92 923.42,-438.37 925.39,-445.09"/>
</a>
</g>
</g>
<!-- Node32 -->
<g id="Node000032" class="node">
<title>Node32</title>
<g id="a_Node000032"><a xlink:href="../../d5/d72/classLSM1x0A__LoRaWAN.html#a059fd6a9356c4ecadd5a98294da5952d" target="_top" xlink:title="Configures the number of repetitions for Unconfirmed uplinks.">
<polygon fill="white" stroke="#666666" points="1094.62,-400 919.62,-400 919.62,-368 1094.62,-368 1094.62,-400"/>
<text text-anchor="start" x="927.62" y="-386.5" font-family="Helvetica,sans-Serif" font-size="10.00">LSM1x0A_LoRaWAN::setUnconfirm</text>
<text text-anchor="middle" x="1007.12" y="-374.5" font-family="Helvetica,sans-Serif" font-size="10.00">Retry</text>
</a>
</g>
</g>
<!-- Node16&#45;&gt;Node32 -->
<g id="edge52_Node000016_Node000032" class="edge">
<title>Node16&#45;&gt;Node32</title>
<g id="a_edge52_Node000016_Node000032"><a xlink:title=" ">
<path fill="none" stroke="#63b8ff" d="M812.89,-506.67C830.4,-481.73 867.24,-434.39 910.25,-409 912.56,-407.64 914.95,-406.34 917.39,-405.12"/>
<polygon fill="#63b8ff" stroke="#63b8ff" points="918.65,-408.4 926.33,-401.1 915.78,-402.01 918.65,-408.4"/>
</a>
</g>
</g>
<!-- Node17&#45;&gt;Node10 -->
<g id="edge22_Node000017_Node000010" class="edge">
<title>Node17&#45;&gt;Node10</title>
<g id="a_edge22_Node000017_Node000010"><a xlink:title=" ">
<path fill="none" stroke="#63b8ff" d="M1083.4,-348.53C1090.72,-351.2 1097.74,-354.62 1104,-359 1159.59,-397.86 1192.44,-474.26 1206.74,-514.97"/>
<polygon fill="#63b8ff" stroke="#63b8ff" points="1203.36,-515.89 1209.87,-524.24 1209.99,-513.65 1203.36,-515.89"/>
</a>
</g>
</g>
<!-- Node18&#45;&gt;Node10 -->
<g id="edge24_Node000018_Node000010" class="edge">
<title>Node18&#45;&gt;Node10</title>
<g id="a_edge24_Node000018_Node000010"><a xlink:title=" ">
<path fill="none" stroke="#63b8ff" d="M1083.77,-310.03C1091.02,-312.79 1097.92,-316.38 1104,-321 1168.62,-370.13 1198.46,-467.16 1209.66,-514.6"/>
<polygon fill="#63b8ff" stroke="#63b8ff" points="1206.17,-515.06 1211.78,-524.05 1213,-513.53 1206.17,-515.06"/>
</a>
</g>
</g>
<!-- Node19&#45;&gt;Node10 -->
<g id="edge27_Node000019_Node000010" class="edge">
<title>Node19&#45;&gt;Node10</title>
<g id="a_edge27_Node000019_Node000010"><a xlink:title=" ">
<path fill="none" stroke="#63b8ff" d="M1089.83,-273.44C1094.91,-276.14 1099.7,-279.3 1104,-283 1175.95,-344.86 1202.73,-461.59 1211.49,-514.59"/>
<polygon fill="#63b8ff" stroke="#63b8ff" points="1208,-514.92 1212.99,-524.26 1214.92,-513.84 1208,-514.92"/>
</a>
</g>
</g>
<!-- Node20&#45;&gt;Node10 -->
<g id="edge29_Node000020_Node000010" class="edge">
<title>Node20&#45;&gt;Node10</title>
<g id="a_edge29_Node000020_Node000010"><a xlink:title=" ">
<path fill="none" stroke="#63b8ff" d="M1091.44,-871.6C1095.95,-869.21 1100.19,-866.37 1104,-863 1142.23,-829.22 1123.47,-802.26 1140,-754 1162.81,-687.42 1190.8,-609.52 1205.37,-569.23"/>
<polygon fill="#63b8ff" stroke="#63b8ff" points="1208.64,-570.47 1208.76,-559.87 1202.06,-568.08 1208.64,-570.47"/>
</a>
</g>
</g>
<!-- Node21&#45;&gt;Node10 -->
<g id="edge31_Node000021_Node000010" class="edge">
<title>Node21&#45;&gt;Node10</title>
<g id="a_edge31_Node000021_Node000010"><a xlink:title=" ">
<path fill="none" stroke="#63b8ff" d="M1090.77,-833.58C1095.5,-831.21 1099.96,-828.37 1104,-825 1124.78,-807.64 1183.69,-636.39 1206.28,-569.02"/>
<polygon fill="#63b8ff" stroke="#63b8ff" points="1209.49,-570.45 1209.34,-559.86 1202.85,-568.24 1209.49,-570.45"/>
</a>
</g>
</g>
<!-- Node22&#45;&gt;Node10 -->
<g id="edge33_Node000022_Node000010" class="edge">
<title>Node22&#45;&gt;Node10</title>
<g id="a_edge33_Node000022_Node000010"><a xlink:title=" ">
<path fill="none" stroke="#63b8ff" d="M1090.11,-795.56C1095.05,-793.2 1099.74,-790.37 1104,-787 1174.5,-731.13 1201.89,-620.69 1211.13,-569.39"/>
<polygon fill="#63b8ff" stroke="#63b8ff" points="1214.54,-570.18 1212.76,-559.74 1207.64,-569.01 1214.54,-570.18"/>
</a>
</g>
</g>
<!-- Node23&#45;&gt;Node10 -->
<g id="edge35_Node000023_Node000010" class="edge">
<title>Node23&#45;&gt;Node10</title>
<g id="a_edge35_Node000023_Node000010"><a xlink:title=" ">
<path fill="none" stroke="#63b8ff" d="M1082.66,-749.05C1090.29,-745.87 1097.58,-741.92 1104,-737 1160.99,-693.34 1193.56,-611.57 1207.35,-569.12"/>
<polygon fill="#63b8ff" stroke="#63b8ff" points="1210.65,-570.29 1210.3,-559.7 1203.97,-568.2 1210.65,-570.29"/>
</a>
</g>
</g>
<!-- Node24&#45;&gt;Node10 -->
<g id="edge37_Node000024_Node000010" class="edge">
<title>Node24&#45;&gt;Node10</title>
<g id="a_edge37_Node000024_Node000010"><a xlink:title=" ">
<path fill="none" stroke="#63b8ff" d="M1083.99,-697.37C1091.04,-694.51 1097.84,-691.09 1104,-687 1149.81,-656.61 1184.57,-600.94 1202.25,-568.13"/>
<polygon fill="#63b8ff" stroke="#63b8ff" points="1205.14,-570.16 1206.68,-559.68 1198.94,-566.91 1205.14,-570.16"/>
</a>
</g>
</g>
<!-- Node25&#45;&gt;Node10 -->
<g id="edge39_Node000025_Node000010" class="edge">
<title>Node25&#45;&gt;Node10</title>
<g id="a_edge39_Node000025_Node000010"><a xlink:title=" ">
<path fill="none" stroke="#63b8ff" d="M1084.18,-645.62C1091.04,-643.12 1097.75,-640.26 1104,-637 1138.79,-618.85 1172.1,-588.01 1193.06,-566.4"/>
<polygon fill="#63b8ff" stroke="#63b8ff" points="1195.33,-569.1 1199.68,-559.44 1190.25,-564.27 1195.33,-569.1"/>
</a>
</g>
</g>
<!-- Node26&#45;&gt;Node10 -->
<g id="edge41_Node000026_Node000010" class="edge">
<title>Node26&#45;&gt;Node10</title>
<g id="a_edge41_Node000026_Node000010"><a xlink:title=" ">
<path fill="none" stroke="#63b8ff" d="M1073.76,-607.52C1084.01,-605.16 1094.38,-602.34 1104,-599 1130.07,-589.94 1157.7,-575.81 1178.9,-563.89"/>
<polygon fill="#63b8ff" stroke="#63b8ff" points="1180.5,-567 1187.44,-559 1177.02,-560.93 1180.5,-567"/>
</a>
</g>
</g>
<!-- Node27&#45;&gt;Node10 -->
<g id="edge43_Node000027_Node000010" class="edge">
<title>Node27&#45;&gt;Node10</title>
<g id="a_edge43_Node000027_Node000010"><a xlink:title=" ">
<path fill="none" stroke="#63b8ff" d="M1065.27,-569.52C1092.11,-564.59 1124.19,-558.71 1151.78,-553.64"/>
<polygon fill="#63b8ff" stroke="#63b8ff" points="1152.21,-557.12 1161.41,-551.88 1150.94,-550.24 1152.21,-557.12"/>
</a>
</g>
</g>
<!-- Node28&#45;&gt;Node10 -->
<g id="edge45_Node000028_Node000010" class="edge">
<title>Node28&#45;&gt;Node10</title>
<g id="a_edge45_Node000028_Node000010"><a xlink:title=" ">
<path fill="none" stroke="#63b8ff" d="M1102.6,-542C1119.09,-542 1135.89,-542 1151.32,-542"/>
<polygon fill="#63b8ff" stroke="#63b8ff" points="1151.3,-545.5 1161.3,-542 1151.3,-538.5 1151.3,-545.5"/>
</a>
</g>
</g>
<!-- Node29&#45;&gt;Node10 -->
<g id="edge47_Node000029_Node000010" class="edge">
<title>Node29&#45;&gt;Node10</title>
<g id="a_edge47_Node000029_Node000010"><a xlink:title=" ">
<path fill="none" stroke="#63b8ff" d="M1065.27,-514.48C1092.11,-519.41 1124.19,-525.29 1151.78,-530.36"/>
<polygon fill="#63b8ff" stroke="#63b8ff" points="1150.94,-533.76 1161.41,-532.12 1152.21,-526.88 1150.94,-533.76"/>
</a>
</g>
</g>
<!-- Node30&#45;&gt;Node10 -->
<g id="edge49_Node000030_Node000010" class="edge">
<title>Node30&#45;&gt;Node10</title>
<g id="a_edge49_Node000030_Node000010"><a xlink:title=" ">
<path fill="none" stroke="#63b8ff" d="M1073.76,-476.48C1084.01,-478.84 1094.38,-481.66 1104,-485 1130.07,-494.06 1157.7,-508.19 1178.9,-520.11"/>
<polygon fill="#63b8ff" stroke="#63b8ff" points="1177.02,-523.07 1187.44,-525 1180.5,-517 1177.02,-523.07"/>
</a>
</g>
</g>
<!-- Node31&#45;&gt;Node10 -->
<g id="edge51_Node000031_Node000010" class="edge">
<title>Node31&#45;&gt;Node10</title>
<g id="a_edge51_Node000031_Node000010"><a xlink:title=" ">
<path fill="none" stroke="#63b8ff" d="M1081.39,-438.43C1089.21,-440.74 1096.9,-443.56 1104,-447 1139.51,-464.21 1172.9,-495.52 1193.66,-517.48"/>
<polygon fill="#63b8ff" stroke="#63b8ff" points="1190.85,-519.6 1200.21,-524.57 1195.99,-514.85 1190.85,-519.6"/>
</a>
</g>
</g>
<!-- Node32&#45;&gt;Node10 -->
<g id="edge53_Node000032_Node000010" class="edge">
<title>Node32&#45;&gt;Node10</title>
<g id="a_edge53_Node000032_Node000010"><a xlink:title=" ">
<path fill="none" stroke="#63b8ff" d="M1087.25,-400.31C1093.11,-402.81 1098.77,-405.69 1104,-409 1146.99,-436.23 1181.72,-485.5 1200.35,-515.83"/>
<polygon fill="#63b8ff" stroke="#63b8ff" points="1197.34,-517.61 1205.48,-524.4 1203.35,-514.02 1197.34,-517.61"/>
</a>
</g>
</g>
<!-- Node34&#45;&gt;Node11 -->
<g id="edge56_Node000034_Node000011" class="edge">
<title>Node34&#45;&gt;Node11</title>
<g id="a_edge56_Node000034_Node000011"><a xlink:title=" ">
<path fill="none" stroke="#63b8ff" d="M1230.82,-762.71C1266.19,-720.24 1361.09,-606.28 1398.83,-560.97"/>
<polygon fill="#63b8ff" stroke="#63b8ff" points="1401.3,-563.47 1405.01,-553.55 1395.92,-558.99 1401.3,-563.47"/>
</a>
</g>
</g>
</g>
</svg>

<g id="navigator" transform="translate(0 0)" fill="#404254">
  <rect fill="#f2f5e9" fill-opacity="0.5" stroke="#606060" stroke-width=".5" x="0" y="0" width="60" height="60"/>
  <use id="zoomplus" xlink:href="#zoomPlus" x="17" y="9" onmousedown="handleZoom(evt,'in')"/>
  <use id="zoomminus" xlink:href="#zoomMin" x="42" y="9" onmousedown="handleZoom(evt,'out')"/>
  <use id="reset" xlink:href="#resetDef" x="30" y="36" onmousedown="handleReset()"/>
   <use id="arrowup" xlink:href="#arrowUp" x="0" y="0" onmousedown="handlePan(0,-1)"/>
  <use id="arrowright" xlink:href="#arrowRight" x="0" y="0" onmousedown="handlePan(1,0)"/>
  <use id="arrowdown" xlink:href="#arrowDown" x="0" y="0" onmousedown="handlePan(0,1)"/>
  <use id="arrowleft" xlink:href="#arrowLeft" x="0" y="0" onmousedown="handlePan(-1,0)"/>
</g>
<svg viewBox="0 0 15 15" width="100%" height="30px" preserveAspectRatio="xMaxYMin meet">
 <g id="arrow_out" transform="scale(0.3 0.3)">
  <a xlink:href="classLSM1x0A__LoRaWAN_a3336b8e342a63301d41e6617ffe9b4ac_cgraph_org.svg" target="_base">
   <rect id="button" ry="5" rx="5" y="6" x="6" height="38" width="38"
        fill="#f2f5e9" fill-opacity="0.5" stroke="#606060" stroke-width="1.0"/>
   <path id="arrow"
     d="M 11.500037,31.436501 C 11.940474,20.09759 22.043105,11.32322 32.158766,21.979434 L 37.068811,17.246167 C 37.068811,17.246167 37.088388,32 37.088388,32 L 22.160133,31.978069 C 22.160133,31.978069 26.997745,27.140456 26.997745,27.140456 C 18.528582,18.264221 13.291696,25.230495 11.500037,31.436501 z"
     style="fill:#404040;"/>
  </a>
 </g>
</svg>

<style type='text/css'>
<![CDATA[
[data-mouse-over-selected='false'] { opacity: 0.7; }
[data-mouse-over-selected='true']  { opacity: 1.0; }
]]>
</style>
<script type="application/ecmascript"><![CDATA[
document.addEventListener('DOMContentLoaded', (event) => {
  highlightEdges();
  highlightAdjacentNodes();
});
]]></script>
</svg>
