<?xml version="1.0" encoding="UTF-8" standalone="no"?>
<!DOCTYPE svg PUBLIC "-//W3C//DTD SVG 1.1//EN"
 "http://www.w3.org/Graphics/SVG/1.1/DTD/svg11.dtd">
<!-- Generated by graphviz version 12.2.1 (20241206.2353)
 -->
<!-- Title: LSM1x0A_LoRaWAN::setRx1Delay Pages: 1 -->
<!--zoomable 1067 -->

<svg id="main" version="1.1" xmlns="http://www.w3.org/2000/svg" xmlns:xlink="http://www.w3.org/1999/xlink" xml:space="preserve" onload="init(evt)">
<style type="text/css"><![CDATA[
.node, .edge {opacity: 0.7;}
.node.selected, .edge.selected {opacity: 1;}
.edge:hover path { stroke: red; }
.edge:hover polygon { stroke: red; fill: red; }
]]></style>

<defs>
  <circle id="rim" cx="0" cy="0" r="7"/>
  <circle id="rim2" cx="0" cy="0" r="3.5"/>
  <g id="zoomPlus">
    <use xlink:href="#rim" fill="#404040"><set attributeName="fill" to="#808080" begin="zoomplus.mouseover" end="zoomplus.mouseout"/></use>
    <path d="M-4,0h8M0,-4v8" fill="none" stroke="white" stroke-width="1.5" pointer-events="none"/>
  </g>
  <g id="zoomMin">
    <use xlink:href="#rim" fill="#404040"><set attributeName="fill" to="#808080" begin="zoomminus.mouseover" end="zoomminus.mouseout"/></use>
    <path d="M-4,0h8" fill="none" stroke="white" stroke-width="1.5" pointer-events="none"/>
  </g>
  <g id="arrowUp" transform="translate(30 24)">
    <use xlink:href="#rim"/>
    <path pointer-events="none" fill="none" stroke="white" stroke-width="1.5" d="M0,-3.0v7 M-2.5,-0.5L0,-3.0L2.5,-0.5"/>
  </g>
  <g id="arrowRight" transform="rotate(90) translate(36 -43)">
    <use xlink:href="#rim"/>
    <path pointer-events="none" fill="none" stroke="white" stroke-width="1.5" d="M0,-3.0v7 M-2.5,-0.5L0,-3.0L2.5,-0.5"/>
  </g>
  <g id="arrowDown" transform="rotate(180) translate(-30 -48)">
    <use xlink:href="#rim"/>
    <path pointer-events="none" fill="none" stroke="white" stroke-width="1.5" d="M0,-3.0v7 M-2.5,-0.5L0,-3.0L2.5,-0.5"/>
  </g>
  <g id="arrowLeft" transform="rotate(270) translate(-36 17)">
    <use xlink:href="#rim"/>
    <path pointer-events="none" fill="none" stroke="white" stroke-width="1.5" d="M0,-3.0v7 M-2.5,-0.5L0,-3.0L2.5,-0.5"/>
  </g>
  <g id="resetDef">
    <use xlink:href="#rim2" fill="#404040"><set attributeName="fill" to="#808080" begin="reset.mouseover" end="reset.mouseout"/></use>
  </g>
</defs>
<script type="application/ecmascript">
var viewWidth = 1304;
var viewHeight = 1067;
var sectionId = 'dynsection-99';
</script>
<script type="application/ecmascript" xlink:href="../../svg.min.js"/>
<svg id="graph" class="graph">
<g id="viewport">
<title>LSM1x0A_LoRaWAN::setRx1Delay</title>
<!-- Node1 -->
<g id="Node000001" class="node">
<title>Node1</title>
<g id="a_Node000001"><a xlink:title="Sets the delay for the RX1 receive window.">
<polygon fill="#999999" stroke="#666666" points="173.5,-351.34 0,-351.34 0,-331.34 173.5,-331.34 173.5,-351.34"/>
<text text-anchor="middle" x="86.75" y="-337.84" font-family="Helvetica,sans-Serif" font-size="10.00">LSM1x0A_LoRaWAN::setRx1Delay</text>
</a>
</g>
</g>
<!-- Node2 -->
<g id="Node000002" class="node">
<title>Node2</title>
<g id="a_Node000002"><a xlink:href="../../d8/d92/classLSM1x0A__Controller.html#afd7d92e60ed6fdae696a955cdbe0ed8c" target="_top" xlink:title="Sends any AT command to the module, returning error if it fails. Internally uses the LsmAtParser logi...">
<polygon fill="white" stroke="#666666" points="315.5,-451.34 209.5,-451.34 209.5,-419.34 315.5,-419.34 315.5,-451.34"/>
<text text-anchor="start" x="217.5" y="-437.84" font-family="Helvetica,sans-Serif" font-size="10.00">LSM1x0A_Controller</text>
<text text-anchor="middle" x="262.5" y="-425.84" font-family="Helvetica,sans-Serif" font-size="10.00">::sendCommand</text>
</a>
</g>
</g>
<!-- Node1&#45;&gt;Node2 -->
<g id="edge1_Node000001_Node000002" class="edge">
<title>Node1&#45;&gt;Node2</title>
<g id="a_edge1_Node000001_Node000002"><a xlink:title=" ">
<path fill="none" stroke="#63b8ff" d="M107.01,-351.76C134.47,-366.62 185.51,-394.23 221.39,-413.65"/>
<polygon fill="#63b8ff" stroke="#63b8ff" points="219.29,-416.49 229.75,-418.17 222.62,-410.33 219.29,-416.49"/>
</a>
</g>
</g>
<!-- Node3 -->
<g id="Node000003" class="node">
<title>Node3</title>
<g id="a_Node000003"><a xlink:href="../../d8/d92/classLSM1x0A__Controller.html#abb0eb380daa3dfb7acffb483c5db8e2b" target="_top" xlink:title="Executes the recovery protocol. First Soft&#45;Reset (ATZ), then Hard&#45;Reset if there is a pin.">
<polygon fill="white" stroke="#666666" points="457.5,-868.34 351.5,-868.34 351.5,-836.34 457.5,-836.34 457.5,-868.34"/>
<text text-anchor="start" x="359.5" y="-854.84" font-family="Helvetica,sans-Serif" font-size="10.00">LSM1x0A_Controller</text>
<text text-anchor="middle" x="404.5" y="-842.84" font-family="Helvetica,sans-Serif" font-size="10.00">::recoverModule</text>
</a>
</g>
</g>
<!-- Node2&#45;&gt;Node3 -->
<g id="edge2_Node000002_Node000003" class="edge">
<title>Node2&#45;&gt;Node3</title>
<g id="a_edge2_Node000002_Node000003"><a xlink:title=" ">
<path fill="none" stroke="#63b8ff" d="M267.54,-451.79C278.91,-497.32 312.84,-628.64 351.5,-734.34 363.25,-766.47 379.5,-802.28 390.69,-825.94"/>
<polygon fill="#63b8ff" stroke="#63b8ff" points="387.47,-827.32 394.94,-834.83 393.79,-824.3 387.47,-827.32"/>
</a>
</g>
</g>
<!-- Node30 -->
<g id="Node000030" class="node">
<title>Node30</title>
<g id="a_Node000030"><a xlink:href="../../d6/d3c/classLSM1x0A__AtParser.html#a29b53c521974387ba6c03afadfaffa4a" target="_top" xlink:title="Sends a simple command and waits for OK/ERROR. Example: sendCommand(&quot;AT+JOIN&quot;);.">
<polygon fill="white" stroke="#666666" points="872,-704.34 697.75,-704.34 697.75,-684.34 872,-684.34 872,-704.34"/>
<text text-anchor="middle" x="784.88" y="-690.84" font-family="Helvetica,sans-Serif" font-size="10.00">LSM1x0A_AtParser::sendCommand</text>
</a>
</g>
</g>
<!-- Node2&#45;&gt;Node30 -->
<g id="edge54_Node000002_Node000030" class="edge">
<title>Node2&#45;&gt;Node30</title>
<g id="a_edge54_Node000002_Node000030"><a xlink:title=" ">
<path fill="none" stroke="#63b8ff" d="M267.4,-451.77C276.35,-485.95 301.53,-565.19 351.5,-609.34 443.32,-690.47 589.48,-703.36 686.05,-701.64"/>
<polygon fill="#63b8ff" stroke="#63b8ff" points="685.86,-705.14 695.77,-701.4 685.69,-698.15 685.86,-705.14"/>
</a>
</g>
</g>
<!-- Node4 -->
<g id="Node000004" class="node">
<title>Node4</title>
<g id="a_Node000004"><a xlink:href="../../d8/d92/classLSM1x0A__Controller.html#a3f6f25b843fe4fb7042c544deae2ab16" target="_top" xlink:title="Manually clears bits from the internal EventGroup.">
<polygon fill="white" stroke="#666666" points="1065.75,-925.34 959.75,-925.34 959.75,-893.34 1065.75,-893.34 1065.75,-925.34"/>
<text text-anchor="start" x="967.75" y="-911.84" font-family="Helvetica,sans-Serif" font-size="10.00">LSM1x0A_Controller</text>
<text text-anchor="middle" x="1012.75" y="-899.84" font-family="Helvetica,sans-Serif" font-size="10.00">::clearEvents</text>
</a>
</g>
</g>
<!-- Node3&#45;&gt;Node4 -->
<g id="edge3_Node000003_Node000004" class="edge">
<title>Node3&#45;&gt;Node4</title>
<g id="a_edge3_Node000003_Node000004"><a xlink:title=" ">
<path fill="none" stroke="#63b8ff" d="M456.26,-868.77C468.35,-872.12 481.29,-875.26 493.5,-877.34 655.52,-905.03 849.65,-909.51 947.96,-909.8"/>
<polygon fill="#63b8ff" stroke="#63b8ff" points="947.95,-913.3 957.95,-909.81 947.96,-906.3 947.95,-913.3"/>
</a>
</g>
</g>
<!-- Node5 -->
<g id="Node000005" class="node">
<title>Node5</title>
<g id="a_Node000005"><a xlink:href="../../d8/d92/classLSM1x0A__Controller.html#a345d4bd79fa16b18dc33a4ca788fe5f7" target="_top" xlink:title="Performs a hardware reset using the reset pin.">
<polygon fill="white" stroke="#666666" points="625.75,-868.34 519.75,-868.34 519.75,-836.34 625.75,-836.34 625.75,-868.34"/>
<text text-anchor="start" x="527.75" y="-854.84" font-family="Helvetica,sans-Serif" font-size="10.00">LSM1x0A_Controller</text>
<text text-anchor="middle" x="572.75" y="-842.84" font-family="Helvetica,sans-Serif" font-size="10.00">::hardwareReset</text>
</a>
</g>
</g>
<!-- Node3&#45;&gt;Node5 -->
<g id="edge4_Node000003_Node000005" class="edge">
<title>Node3&#45;&gt;Node5</title>
<g id="a_edge4_Node000003_Node000005"><a xlink:title=" ">
<path fill="none" stroke="#63b8ff" d="M457.65,-852.34C473.66,-852.34 491.47,-852.34 508.16,-852.34"/>
<polygon fill="#63b8ff" stroke="#63b8ff" points="507.99,-855.84 517.99,-852.34 507.99,-848.84 507.99,-855.84"/>
</a>
</g>
</g>
<!-- Node7 -->
<g id="Node000007" class="node">
<title>Node7</title>
<g id="a_Node000007"><a xlink:href="../../d5/d72/classLSM1x0A__LoRaWAN.html#a1892801e37c8cd67d37c76108d6f7d49" target="_top" xlink:title="Validates if the device is currently Joined to the network. (Either confirmed by OTAA or statically a...">
<polygon fill="white" stroke="#666666" points="1296.25,-791.34 1143.75,-791.34 1143.75,-771.34 1296.25,-771.34 1296.25,-791.34"/>
<text text-anchor="middle" x="1220" y="-777.84" font-family="Helvetica,sans-Serif" font-size="10.00">LSM1x0A_LoRaWAN::isJoined</text>
</a>
</g>
</g>
<!-- Node3&#45;&gt;Node7 -->
<g id="edge6_Node000003_Node000007" class="edge">
<title>Node3&#45;&gt;Node7</title>
<g id="a_edge6_Node000003_Node000007"><a xlink:title=" ">
<path fill="none" stroke="#63b8ff" d="M456.26,-835.93C468.35,-832.58 481.29,-829.44 493.5,-827.34 721.71,-788.16 995.45,-781.51 1132.24,-780.89"/>
<polygon fill="#63b8ff" stroke="#63b8ff" points="1131.95,-784.39 1141.94,-780.86 1131.92,-777.39 1131.95,-784.39"/>
</a>
</g>
</g>
<!-- Node8 -->
<g id="Node000008" class="node">
<title>Node8</title>
<g id="a_Node000008"><a xlink:href="../../d5/d72/classLSM1x0A__LoRaWAN.html#a83e11c0e74ff9e0757db616ab1163424" target="_top" xlink:title="Attempts to recover a lost connection (re&#45;executes OTAA Join if dropped).">
<polygon fill="white" stroke="#666666" points="647.12,-1032.34 498.38,-1032.34 498.38,-1000.34 647.12,-1000.34 647.12,-1032.34"/>
<text text-anchor="start" x="506.38" y="-1018.84" font-family="Helvetica,sans-Serif" font-size="10.00">LSM1x0A_LoRaWAN::recover</text>
<text text-anchor="middle" x="572.75" y="-1006.84" font-family="Helvetica,sans-Serif" font-size="10.00">Connection</text>
</a>
</g>
</g>
<!-- Node3&#45;&gt;Node8 -->
<g id="edge7_Node000003_Node000008" class="edge">
<title>Node3&#45;&gt;Node8</title>
<g id="a_edge7_Node000003_Node000008"><a xlink:title=" ">
<path fill="none" stroke="#63b8ff" d="M412.2,-868.74C424.39,-896.64 452.75,-953.53 493.5,-986.34 497.37,-989.46 501.59,-992.27 506.01,-994.81"/>
<polygon fill="#63b8ff" stroke="#63b8ff" points="504.1,-997.77 514.59,-999.26 507.32,-991.55 504.1,-997.77"/>
</a>
</g>
</g>
<!-- Node12 -->
<g id="Node000012" class="node">
<title>Node12</title>
<g id="a_Node000012"><a xlink:href="../../d5/d72/classLSM1x0A__LoRaWAN.html#ae3be4ce59dfa200369733317df356e97" target="_top" xlink:title="Pushes the RAM&#45;cached variables back down into the hardware module. Restores the operational state af...">
<polygon fill="white" stroke="#666666" points="646,-388.34 499.5,-388.34 499.5,-356.34 646,-356.34 646,-388.34"/>
<text text-anchor="start" x="507.5" y="-374.84" font-family="Helvetica,sans-Serif" font-size="10.00">LSM1x0A_LoRaWAN::restore</text>
<text text-anchor="middle" x="572.75" y="-362.84" font-family="Helvetica,sans-Serif" font-size="10.00">Config</text>
</a>
</g>
</g>
<!-- Node3&#45;&gt;Node12 -->
<g id="edge16_Node000003_Node000012" class="edge">
<title>Node3&#45;&gt;Node12</title>
<g id="a_edge16_Node000003_Node000012"><a xlink:title=" ">
<path fill="none" stroke="#63b8ff" d="M411.13,-836.1C435.45,-765.89 531.67,-488.06 562.32,-399.57"/>
<polygon fill="#63b8ff" stroke="#63b8ff" points="565.58,-400.86 565.54,-390.26 558.96,-398.57 565.58,-400.86"/>
</a>
</g>
</g>
<!-- Node28 -->
<g id="Node000028" class="node">
<title>Node28</title>
<g id="a_Node000028"><a xlink:href="../../d5/d72/classLSM1x0A__LoRaWAN.html#ace4b04396f1de1f4a54f513f5f378db7" target="_top" xlink:title="Manually overrides the internal joined state tracker.">
<polygon fill="white" stroke="#666666" points="652,-944.34 493.5,-944.34 493.5,-924.34 652,-924.34 652,-944.34"/>
<text text-anchor="middle" x="572.75" y="-930.84" font-family="Helvetica,sans-Serif" font-size="10.00">LSM1x0A_LoRaWAN::setJoined</text>
</a>
</g>
</g>
<!-- Node3&#45;&gt;Node28 -->
<g id="edge49_Node000003_Node000028" class="edge">
<title>Node3&#45;&gt;Node28</title>
<g id="a_edge49_Node000003_Node000028"><a xlink:title=" ">
<path fill="none" stroke="#63b8ff" d="M426.54,-868.7C443.76,-881.46 469.17,-898.88 493.5,-910.34 501.54,-914.13 510.33,-917.5 519.02,-920.43"/>
<polygon fill="#63b8ff" stroke="#63b8ff" points="517.87,-923.74 528.46,-923.45 520,-917.07 517.87,-923.74"/>
</a>
</g>
</g>
<!-- Node29 -->
<g id="Node000029" class="node">
<title>Node29</title>
<g id="a_Node000029"><a xlink:href="../../d8/d92/classLSM1x0A__Controller.html#a11ad21cb5ca33ec51346764a23bd485e" target="_top" xlink:title="Performs a software reset (ATZ Command).">
<polygon fill="white" stroke="#666666" points="625.75,-780.34 519.75,-780.34 519.75,-748.34 625.75,-748.34 625.75,-780.34"/>
<text text-anchor="start" x="527.75" y="-766.84" font-family="Helvetica,sans-Serif" font-size="10.00">LSM1x0A_Controller</text>
<text text-anchor="middle" x="572.75" y="-754.84" font-family="Helvetica,sans-Serif" font-size="10.00">::softwareReset</text>
</a>
</g>
</g>
<!-- Node3&#45;&gt;Node29 -->
<g id="edge50_Node000003_Node000029" class="edge">
<title>Node3&#45;&gt;Node29</title>
<g id="a_edge50_Node000003_Node000029"><a xlink:title=" ">
<path fill="none" stroke="#63b8ff" d="M427.47,-835.92C444.8,-823.46 469.9,-806.46 493.5,-794.34 499.79,-791.12 506.5,-788.03 513.26,-785.16"/>
<polygon fill="#63b8ff" stroke="#63b8ff" points="514.53,-788.42 522.46,-781.39 511.88,-781.94 514.53,-788.42"/>
</a>
</g>
</g>
<!-- Node6 -->
<g id="Node000006" class="node">
<title>Node6</title>
<g id="a_Node000006"><a xlink:href="../../d6/d3c/classLSM1x0A__AtParser.html#ad2839120da13e56132b95019419be1e5" target="_top" xlink:title="Waits for an event (like BOOTALERT) without sending any command. Useful for hardware reset where the ...">
<polygon fill="white" stroke="#666666" points="855.12,-868.34 714.62,-868.34 714.62,-836.34 855.12,-836.34 855.12,-868.34"/>
<text text-anchor="start" x="722.62" y="-854.84" font-family="Helvetica,sans-Serif" font-size="10.00">LSM1x0A_AtParser::waitFor</text>
<text text-anchor="middle" x="784.88" y="-842.84" font-family="Helvetica,sans-Serif" font-size="10.00">Event</text>
</a>
</g>
</g>
<!-- Node5&#45;&gt;Node6 -->
<g id="edge5_Node000005_Node000006" class="edge">
<title>Node5&#45;&gt;Node6</title>
<g id="a_edge5_Node000005_Node000006"><a xlink:title=" ">
<path fill="none" stroke="#63b8ff" d="M626.23,-852.34C649.42,-852.34 677.22,-852.34 702.96,-852.34"/>
<polygon fill="#63b8ff" stroke="#63b8ff" points="702.72,-855.84 712.72,-852.34 702.72,-848.84 702.72,-855.84"/>
</a>
</g>
</g>
<!-- Node9 -->
<g id="Node000009" class="node">
<title>Node9</title>
<g id="a_Node000009"><a xlink:href="../../d5/d72/classLSM1x0A__LoRaWAN.html#a59f781f3cfd30c11cd3973bcb10a7baa" target="_top" xlink:title="Initiates a LoRaWAN Network Join procedure. This is a blocking function until the module fires an eve...">
<polygon fill="white" stroke="#666666" points="850.62,-982.34 719.12,-982.34 719.12,-962.34 850.62,-962.34 850.62,-982.34"/>
<text text-anchor="middle" x="784.88" y="-968.84" font-family="Helvetica,sans-Serif" font-size="10.00">LSM1x0A_LoRaWAN::join</text>
</a>
</g>
</g>
<!-- Node8&#45;&gt;Node9 -->
<g id="edge8_Node000008_Node000009" class="edge">
<title>Node8&#45;&gt;Node9</title>
<g id="a_edge8_Node000008_Node000009"><a xlink:title=" ">
<path fill="none" stroke="#63b8ff" d="M647.54,-1000.89C672.13,-995.74 699.24,-990.07 722.76,-985.14"/>
<polygon fill="#63b8ff" stroke="#63b8ff" points="723.44,-988.57 732.51,-983.1 722.01,-981.72 723.44,-988.57"/>
</a>
</g>
</g>
<!-- Node9&#45;&gt;Node2 -->
<g id="edge11_Node000009_Node000002" class="edge">
<title>Node9&#45;&gt;Node2</title>
<g id="a_edge11_Node000009_Node000002"><a xlink:title=" ">
<path fill="none" stroke="#63b8ff" d="M769.78,-982.69C746.62,-998.98 698.42,-1029.93 652,-1041.34 583.59,-1058.16 557.57,-1070.62 493.5,-1041.34 405.81,-1001.28 393.88,-963.95 351.5,-877.34 280.63,-732.51 266.83,-534.44 264.15,-462.69"/>
<polygon fill="#63b8ff" stroke="#63b8ff" points="267.66,-462.94 263.84,-453.06 260.66,-463.16 267.66,-462.94"/>
</a>
</g>
</g>
<!-- Node9&#45;&gt;Node3 -->
<g id="edge10_Node000009_Node000003" class="edge">
<title>Node9&#45;&gt;Node3</title>
<g id="a_edge10_Node000009_Node000003"><a xlink:title=" ">
<path fill="none" stroke="#63b8ff" d="M718.78,-981.83C657.4,-987.71 564.47,-988.48 493.5,-953.34 460.49,-937 434.64,-902.22 419.73,-878.08"/>
<polygon fill="#63b8ff" stroke="#63b8ff" points="422.91,-876.57 414.79,-869.76 416.89,-880.15 422.91,-876.57"/>
</a>
</g>
</g>
<!-- Node9&#45;&gt;Node4 -->
<g id="edge9_Node000009_Node000004" class="edge">
<title>Node9&#45;&gt;Node4</title>
<g id="a_edge9_Node000009_Node000004"><a xlink:title=" ">
<path fill="none" stroke="#63b8ff" d="M823.43,-961.87C857.37,-952.4 908.03,-938.27 948.26,-927.05"/>
<polygon fill="#63b8ff" stroke="#63b8ff" points="949.15,-930.44 957.85,-924.38 947.27,-923.69 949.15,-930.44"/>
</a>
</g>
</g>
<!-- Node10 -->
<g id="Node000010" class="node">
<title>Node10</title>
<g id="a_Node000010"><a xlink:href="../../d5/d72/classLSM1x0A__LoRaWAN.html#a3fdd1ac318a5ad2559323e5d57e36a5e" target="_top" xlink:title="Enables or disables specific sub&#45;bands for regions supporting Channel Masks (e.g.,...">
<polygon fill="white" stroke="#666666" points="1107.75,-764.34 917.75,-764.34 917.75,-744.34 1107.75,-744.34 1107.75,-764.34"/>
<text text-anchor="middle" x="1012.75" y="-750.84" font-family="Helvetica,sans-Serif" font-size="10.00">LSM1x0A_LoRaWAN::setChannelMask</text>
</a>
</g>
</g>
<!-- Node9&#45;&gt;Node10 -->
<g id="edge12_Node000009_Node000010" class="edge">
<title>Node9&#45;&gt;Node10</title>
<g id="a_edge12_Node000009_Node000010"><a xlink:title=" ">
<path fill="none" stroke="#63b8ff" d="M796.47,-962.12C831.95,-927.87 946.99,-816.84 992.74,-772.69"/>
<polygon fill="#63b8ff" stroke="#63b8ff" points="995.06,-775.31 999.83,-765.85 990.2,-770.28 995.06,-775.31"/>
</a>
</g>
</g>
<!-- Node11 -->
<g id="Node000011" class="node">
<title>Node11</title>
<g id="a_Node000011"><a xlink:href="../../d8/d92/classLSM1x0A__Controller.html#a62476e30e50c7fe120aeb8df4b828675" target="_top" xlink:title="Synchronously/blockingly waits for an asynchronous event to occur. Useful for wrapping commands like ...">
<polygon fill="white" stroke="#666666" points="1065.75,-988.34 959.75,-988.34 959.75,-956.34 1065.75,-956.34 1065.75,-988.34"/>
<text text-anchor="start" x="967.75" y="-974.84" font-family="Helvetica,sans-Serif" font-size="10.00">LSM1x0A_Controller</text>
<text text-anchor="middle" x="1012.75" y="-962.84" font-family="Helvetica,sans-Serif" font-size="10.00">::waitForEvent</text>
</a>
</g>
</g>
<!-- Node9&#45;&gt;Node11 -->
<g id="edge15_Node000009_Node000011" class="edge">
<title>Node9&#45;&gt;Node11</title>
<g id="a_edge15_Node000009_Node000011"><a xlink:title=" ">
<path fill="none" stroke="#63b8ff" d="M850.9,-972.34C881.41,-972.34 917.65,-972.34 947.99,-972.34"/>
<polygon fill="#63b8ff" stroke="#63b8ff" points="947.8,-975.84 957.8,-972.34 947.8,-968.84 947.8,-975.84"/>
</a>
</g>
</g>
<!-- Node10&#45;&gt;Node2 -->
<g id="edge14_Node000010_Node000002" class="edge">
<title>Node10&#45;&gt;Node2</title>
<g id="a_edge14_Node000010_Node000002"><a xlink:title=" ">
<path fill="none" stroke="#63b8ff" d="M917.46,-752.84C754.52,-748.19 430.11,-729.25 351.5,-652.34 297.33,-599.35 275.39,-508.47 267.46,-462.98"/>
<polygon fill="#63b8ff" stroke="#63b8ff" points="270.93,-462.48 265.87,-453.17 264.02,-463.61 270.93,-462.48"/>
</a>
</g>
</g>
<!-- Node10&#45;&gt;Node7 -->
<g id="edge13_Node000010_Node000007" class="edge">
<title>Node10&#45;&gt;Node7</title>
<g id="a_edge13_Node000010_Node000007"><a xlink:title=" ">
<path fill="none" stroke="#63b8ff" d="M1093.4,-764.82C1106.12,-766.5 1119.34,-768.23 1132.22,-769.93"/>
<polygon fill="#63b8ff" stroke="#63b8ff" points="1131.56,-773.37 1141.93,-771.21 1132.48,-766.43 1131.56,-773.37"/>
</a>
</g>
</g>
<!-- Node12&#45;&gt;Node1 -->
<g id="edge38_Node000012_Node000001" class="edge">
<title>Node12&#45;&gt;Node1</title>
<g id="a_edge38_Node000012_Node000001"><a xlink:title=" ">
<path fill="none" stroke="#63b8ff" d="M499.21,-367.7C415.64,-362.35 277.93,-353.53 185.1,-347.58"/>
<polygon fill="#63b8ff" stroke="#63b8ff" points="185.44,-344.09 175.23,-346.95 184.99,-351.08 185.44,-344.09"/>
</a>
</g>
</g>
<!-- Node12&#45;&gt;Node10 -->
<g id="edge21_Node000012_Node000010" class="edge">
<title>Node12&#45;&gt;Node10</title>
<g id="a_edge21_Node000012_Node000010"><a xlink:title=" ">
<path fill="none" stroke="#63b8ff" d="M646.28,-365C726.55,-358.61 848.94,-354.61 881.75,-385.34 936.23,-436.38 871.93,-660.41 917.75,-719.34 924.49,-728.02 933.62,-734.54 943.55,-739.45"/>
<polygon fill="#63b8ff" stroke="#63b8ff" points="942.16,-742.66 952.73,-743.4 944.93,-736.23 942.16,-742.66"/>
</a>
</g>
</g>
<!-- Node13 -->
<g id="Node000013" class="node">
<title>Node13</title>
<g id="a_Node000013"><a xlink:href="../../d5/d72/classLSM1x0A__LoRaWAN.html#af0baa3db4c7fab580d6b19a9e92472f6" target="_top" xlink:title="Enables or disables Adaptive Data Rate (ADR).">
<polygon fill="white" stroke="#666666" points="860.75,-540.34 709,-540.34 709,-520.34 860.75,-520.34 860.75,-540.34"/>
<text text-anchor="middle" x="784.88" y="-526.84" font-family="Helvetica,sans-Serif" font-size="10.00">LSM1x0A_LoRaWAN::setADR</text>
</a>
</g>
</g>
<!-- Node12&#45;&gt;Node13 -->
<g id="edge17_Node000012_Node000013" class="edge">
<title>Node12&#45;&gt;Node13</title>
<g id="a_edge17_Node000012_Node000013"><a xlink:title=" ">
<path fill="none" stroke="#63b8ff" d="M582.2,-388.75C598.4,-418.41 636.8,-480.71 688,-511.34 691.2,-513.26 694.56,-514.99 698.03,-516.55"/>
<polygon fill="#63b8ff" stroke="#63b8ff" points="696.71,-519.79 707.29,-520.17 699.26,-513.27 696.71,-519.79"/>
</a>
</g>
</g>
<!-- Node14 -->
<g id="Node000014" class="node">
<title>Node14</title>
<g id="a_Node000014"><a xlink:href="../../d5/d72/classLSM1x0A__LoRaWAN.html#a5365ed1596eb84ebf1e3b33b4a10c788" target="_top" xlink:title="Sets the LoRaWAN operational frequency band.">
<polygon fill="white" stroke="#666666" points="861.12,-502.34 708.62,-502.34 708.62,-482.34 861.12,-482.34 861.12,-502.34"/>
<text text-anchor="middle" x="784.88" y="-488.84" font-family="Helvetica,sans-Serif" font-size="10.00">LSM1x0A_LoRaWAN::setBand</text>
</a>
</g>
</g>
<!-- Node12&#45;&gt;Node14 -->
<g id="edge19_Node000012_Node000014" class="edge">
<title>Node12&#45;&gt;Node14</title>
<g id="a_edge19_Node000012_Node000014"><a xlink:title=" ">
<path fill="none" stroke="#63b8ff" d="M587.01,-388.55C606.6,-411.31 645.53,-452.32 688,-473.34 691.68,-475.16 695.51,-476.81 699.45,-478.3"/>
<polygon fill="#63b8ff" stroke="#63b8ff" points="698.02,-481.51 708.61,-481.4 700.26,-474.88 698.02,-481.51"/>
</a>
</g>
</g>
<!-- Node15 -->
<g id="Node000015" class="node">
<title>Node15</title>
<g id="a_Node000015"><a xlink:href="../../d5/d72/classLSM1x0A__LoRaWAN.html#a9d9285c43414337a0ccb3a6cd7ca06e6" target="_top" xlink:title="Configures the number of retries for Confirmed uplinks.">
<polygon fill="white" stroke="#666666" points="867.12,-464.34 702.62,-464.34 702.62,-432.34 867.12,-432.34 867.12,-464.34"/>
<text text-anchor="start" x="710.62" y="-450.84" font-family="Helvetica,sans-Serif" font-size="10.00">LSM1x0A_LoRaWAN::setConfirm</text>
<text text-anchor="middle" x="784.88" y="-438.84" font-family="Helvetica,sans-Serif" font-size="10.00">Retry</text>
</a>
</g>
</g>
<!-- Node12&#45;&gt;Node15 -->
<g id="edge22_Node000012_Node000015" class="edge">
<title>Node12&#45;&gt;Node15</title>
<g id="a_edge22_Node000012_Node000015"><a xlink:title=" ">
<path fill="none" stroke="#63b8ff" d="M606.66,-388.77C629.17,-399.58 659.92,-413.49 688,-423.34 693.29,-425.2 698.79,-426.99 704.36,-428.7"/>
<polygon fill="#63b8ff" stroke="#63b8ff" points="703.08,-431.97 713.66,-431.45 705.07,-425.26 703.08,-431.97"/>
</a>
</g>
</g>
<!-- Node16 -->
<g id="Node000016" class="node">
<title>Node16</title>
<g id="a_Node000016"><a xlink:href="../../d5/d72/classLSM1x0A__LoRaWAN.html#a56345ceeafa0b9059d6de4e69eddc82e" target="_top" xlink:title="Sets the Data Rate (DR) of the module.">
<polygon fill="white" stroke="#666666" points="870.88,-414.34 698.88,-414.34 698.88,-394.34 870.88,-394.34 870.88,-414.34"/>
<text text-anchor="middle" x="784.88" y="-400.84" font-family="Helvetica,sans-Serif" font-size="10.00">LSM1x0A_LoRaWAN::setDataRate</text>
</a>
</g>
</g>
<!-- Node12&#45;&gt;Node16 -->
<g id="edge24_Node000012_Node000016" class="edge">
<title>Node12&#45;&gt;Node16</title>
<g id="a_edge24_Node000012_Node000016"><a xlink:title=" ">
<path fill="none" stroke="#63b8ff" d="M646.36,-383.4C664.91,-386.23 684.97,-389.28 703.87,-392.16"/>
<polygon fill="#63b8ff" stroke="#63b8ff" points="703.25,-395.61 713.66,-393.65 704.3,-388.69 703.25,-395.61"/>
</a>
</g>
</g>
<!-- Node17 -->
<g id="Node000017" class="node">
<title>Node17</title>
<g id="a_Node000017"><a xlink:href="../../d5/d72/classLSM1x0A__LoRaWAN.html#a8494083816ab885cb07fc3b08de029f4" target="_top" xlink:title="Sets the LoRaWAN Device Address (DevAddr) for ABP mode.">
<polygon fill="white" stroke="#666666" points="869,-338.34 700.75,-338.34 700.75,-318.34 869,-318.34 869,-338.34"/>
<text text-anchor="middle" x="784.88" y="-324.84" font-family="Helvetica,sans-Serif" font-size="10.00">LSM1x0A_LoRaWAN::setDevAddr</text>
</a>
</g>
</g>
<!-- Node12&#45;&gt;Node17 -->
<g id="edge26_Node000012_Node000017" class="edge">
<title>Node12&#45;&gt;Node17</title>
<g id="a_edge26_Node000012_Node000017"><a xlink:title=" ">
<path fill="none" stroke="#63b8ff" d="M646.36,-357.14C671.24,-351.93 698.82,-346.15 722.71,-341.15"/>
<polygon fill="#63b8ff" stroke="#63b8ff" points="723.2,-344.63 732.27,-339.15 721.77,-337.77 723.2,-344.63"/>
</a>
</g>
</g>
<!-- Node18 -->
<g id="Node000018" class="node">
<title>Node18</title>
<g id="a_Node000018"><a xlink:href="../../d5/d72/classLSM1x0A__LoRaWAN.html#ad320634e52d7ea907043cc50dd37c5b0" target="_top" xlink:title="Sets the LoRaWAN Device EUI (DevEUI).">
<polygon fill="white" stroke="#666666" points="867.5,-300.34 702.25,-300.34 702.25,-280.34 867.5,-280.34 867.5,-300.34"/>
<text text-anchor="middle" x="784.88" y="-286.84" font-family="Helvetica,sans-Serif" font-size="10.00">LSM1x0A_LoRaWAN::setDevEUI</text>
</a>
</g>
</g>
<!-- Node12&#45;&gt;Node18 -->
<g id="edge28_Node000012_Node000018" class="edge">
<title>Node12&#45;&gt;Node18</title>
<g id="a_edge28_Node000012_Node000018"><a xlink:title=" ">
<path fill="none" stroke="#63b8ff" d="M598.1,-356C620.54,-341.67 655.23,-321.3 688,-309.34 693.78,-307.24 699.84,-305.34 706,-303.65"/>
<polygon fill="#63b8ff" stroke="#63b8ff" points="706.84,-307.05 715.66,-301.18 705.11,-300.26 706.84,-307.05"/>
</a>
</g>
</g>
<!-- Node19 -->
<g id="Node000019" class="node">
<title>Node19</title>
<g id="a_Node000019"><a xlink:href="../../d5/d72/classLSM1x0A__LoRaWAN.html#a031023b0d2dd5db3c51c2db6ae7801cc" target="_top" xlink:title="Enables or disables the Duty Cycle limitation (EU regions mostly).">
<polygon fill="white" stroke="#666666" points="860.38,-262.34 709.38,-262.34 709.38,-230.34 860.38,-230.34 860.38,-262.34"/>
<text text-anchor="start" x="717.38" y="-248.84" font-family="Helvetica,sans-Serif" font-size="10.00">LSM1x0A_LoRaWAN::setDuty</text>
<text text-anchor="middle" x="784.88" y="-236.84" font-family="Helvetica,sans-Serif" font-size="10.00">Cycle</text>
</a>
</g>
</g>
<!-- Node12&#45;&gt;Node19 -->
<g id="edge30_Node000012_Node000019" class="edge">
<title>Node12&#45;&gt;Node19</title>
<g id="a_edge30_Node000012_Node000019"><a xlink:title=" ">
<path fill="none" stroke="#63b8ff" d="M587.52,-356.1C607.42,-333.68 646.41,-293.5 688,-271.34 691.41,-269.53 694.95,-267.84 698.58,-266.27"/>
<polygon fill="#63b8ff" stroke="#63b8ff" points="699.59,-269.64 707.61,-262.71 697.02,-263.13 699.59,-269.64"/>
</a>
</g>
</g>
<!-- Node20 -->
<g id="Node000020" class="node">
<title>Node20</title>
<g id="a_Node000020"><a xlink:href="../../d5/d72/classLSM1x0A__LoRaWAN.html#a6b179d5825c49af0f391dfc539912f64" target="_top" xlink:title="Sets the delay for the Join1 receive window.">
<polygon fill="white" stroke="#666666" points="861.5,-212.34 708.25,-212.34 708.25,-180.34 861.5,-180.34 861.5,-212.34"/>
<text text-anchor="start" x="716.25" y="-198.84" font-family="Helvetica,sans-Serif" font-size="10.00">LSM1x0A_LoRaWAN::setJoin1</text>
<text text-anchor="middle" x="784.88" y="-186.84" font-family="Helvetica,sans-Serif" font-size="10.00">Delay</text>
</a>
</g>
</g>
<!-- Node12&#45;&gt;Node20 -->
<g id="edge32_Node000012_Node000020" class="edge">
<title>Node12&#45;&gt;Node20</title>
<g id="a_edge32_Node000012_Node000020"><a xlink:title=" ">
<path fill="none" stroke="#63b8ff" d="M581.28,-356.3C596.7,-325.22 634.97,-256.78 688,-221.34 691.07,-219.29 694.31,-217.4 697.66,-215.67"/>
<polygon fill="#63b8ff" stroke="#63b8ff" points="698.98,-218.92 706.6,-211.56 696.06,-212.56 698.98,-218.92"/>
</a>
</g>
</g>
<!-- Node21 -->
<g id="Node000021" class="node">
<title>Node21</title>
<g id="a_Node000021"><a xlink:href="../../d5/d72/classLSM1x0A__LoRaWAN.html#a4545d0caad41558cdb9bae8286b104d8" target="_top" xlink:title="Sets the delay for the Join2 receive window.">
<polygon fill="white" stroke="#666666" points="861.5,-162.34 708.25,-162.34 708.25,-130.34 861.5,-130.34 861.5,-162.34"/>
<text text-anchor="start" x="716.25" y="-148.84" font-family="Helvetica,sans-Serif" font-size="10.00">LSM1x0A_LoRaWAN::setJoin2</text>
<text text-anchor="middle" x="784.88" y="-136.84" font-family="Helvetica,sans-Serif" font-size="10.00">Delay</text>
</a>
</g>
</g>
<!-- Node12&#45;&gt;Node21 -->
<g id="edge34_Node000012_Node000021" class="edge">
<title>Node12&#45;&gt;Node21</title>
<g id="a_edge34_Node000012_Node000021"><a xlink:title=" ">
<path fill="none" stroke="#63b8ff" d="M578.27,-355.88C589.73,-317.31 623.67,-220.7 688,-171.34 691.1,-168.97 694.4,-166.82 697.84,-164.87"/>
<polygon fill="#63b8ff" stroke="#63b8ff" points="699.11,-168.15 706.52,-160.57 696.01,-161.87 699.11,-168.15"/>
</a>
</g>
</g>
<!-- Node22 -->
<g id="Node000022" class="node">
<title>Node22</title>
<g id="a_Node000022"><a xlink:href="../../d5/d72/classLSM1x0A__LoRaWAN.html#a06bd50723ec1eb7e144c9141b2ec86fc" target="_top" xlink:title="Sets the LoRaWAN Network ID (NetID).">
<polygon fill="white" stroke="#666666" points="865.25,-112.34 704.5,-112.34 704.5,-92.34 865.25,-92.34 865.25,-112.34"/>
<text text-anchor="middle" x="784.88" y="-98.84" font-family="Helvetica,sans-Serif" font-size="10.00">LSM1x0A_LoRaWAN::setNwkID</text>
</a>
</g>
</g>
<!-- Node12&#45;&gt;Node22 -->
<g id="edge36_Node000012_Node000022" class="edge">
<title>Node12&#45;&gt;Node22</title>
<g id="a_edge36_Node000012_Node000022"><a xlink:title=" ">
<path fill="none" stroke="#63b8ff" d="M576.01,-356.03C583.17,-310.84 609.73,-183.31 688,-121.34 690,-119.76 692.1,-118.3 694.27,-116.95"/>
<polygon fill="#63b8ff" stroke="#63b8ff" points="695.67,-120.16 702.9,-112.42 692.42,-113.97 695.67,-120.16"/>
</a>
</g>
</g>
<!-- Node23 -->
<g id="Node000023" class="node">
<title>Node23</title>
<g id="a_Node000023"><a xlink:href="../../d5/d72/classLSM1x0A__LoRaWAN.html#a2cf4eff0181b6107d082bccefa24217b" target="_top" xlink:title="Sets the Data Rate (DR) specifically for the RX2 window.">
<polygon fill="white" stroke="#666666" points="879.88,-74.34 689.88,-74.34 689.88,-54.34 879.88,-54.34 879.88,-74.34"/>
<text text-anchor="middle" x="784.88" y="-60.84" font-family="Helvetica,sans-Serif" font-size="10.00">LSM1x0A_LoRaWAN::setRx2DataRate</text>
</a>
</g>
</g>
<!-- Node12&#45;&gt;Node23 -->
<g id="edge39_Node000012_Node000023" class="edge">
<title>Node12&#45;&gt;Node23</title>
<g id="a_edge39_Node000012_Node000023"><a xlink:title=" ">
<path fill="none" stroke="#63b8ff" d="M574.93,-356.16C579.45,-306.72 600.15,-156.59 688,-83.34 689.14,-82.4 690.31,-81.49 691.51,-80.63"/>
<polygon fill="#63b8ff" stroke="#63b8ff" points="693.18,-83.71 699.94,-75.55 689.57,-77.71 693.18,-83.71"/>
</a>
</g>
</g>
<!-- Node24 -->
<g id="Node000024" class="node">
<title>Node24</title>
<g id="a_Node000024"><a xlink:href="../../d5/d72/classLSM1x0A__LoRaWAN.html#a42d2137b475b57e19d891a5f1ac93221" target="_top" xlink:title="Sets the delay for the RX2 receive window.">
<polygon fill="white" stroke="#666666" points="871.62,-36.34 698.12,-36.34 698.12,-16.34 871.62,-16.34 871.62,-36.34"/>
<text text-anchor="middle" x="784.88" y="-22.84" font-family="Helvetica,sans-Serif" font-size="10.00">LSM1x0A_LoRaWAN::setRx2Delay</text>
</a>
</g>
</g>
<!-- Node12&#45;&gt;Node24 -->
<g id="edge41_Node000012_Node000024" class="edge">
<title>Node12&#45;&gt;Node24</title>
<g id="a_edge41_Node000012_Node000024"><a xlink:title=" ">
<path fill="none" stroke="#63b8ff" d="M574.11,-356.02C576.21,-302.34 590.61,-129.93 688,-45.34 688.96,-44.51 689.95,-43.71 690.96,-42.94"/>
<polygon fill="#63b8ff" stroke="#63b8ff" points="692.77,-45.93 699.35,-37.63 689.03,-40.02 692.77,-45.93"/>
</a>
</g>
</g>
<!-- Node25 -->
<g id="Node000025" class="node">
<title>Node25</title>
<g id="a_Node000025"><a xlink:href="../../d5/d72/classLSM1x0A__LoRaWAN.html#a689f7dfda1dfeae11ea397c2ddf2ad37" target="_top" xlink:title="Sets the precise frequency for the RX2 window.">
<polygon fill="white" stroke="#666666" points="881.75,-666.34 688,-666.34 688,-646.34 881.75,-646.34 881.75,-666.34"/>
<text text-anchor="middle" x="784.88" y="-652.84" font-family="Helvetica,sans-Serif" font-size="10.00">LSM1x0A_LoRaWAN::setRx2Frequency</text>
</a>
</g>
</g>
<!-- Node12&#45;&gt;Node25 -->
<g id="edge43_Node000012_Node000025" class="edge">
<title>Node12&#45;&gt;Node25</title>
<g id="a_edge43_Node000012_Node000025"><a xlink:title=" ">
<path fill="none" stroke="#63b8ff" d="M575.56,-388.53C581.71,-435.26 606.17,-571.21 688,-637.34 689.32,-638.41 690.68,-639.42 692.08,-640.38"/>
<polygon fill="#63b8ff" stroke="#63b8ff" points="690.1,-643.28 700.51,-645.24 693.6,-637.22 690.1,-643.28"/>
</a>
</g>
</g>
<!-- Node26 -->
<g id="Node000026" class="node">
<title>Node26</title>
<g id="a_Node000026"><a xlink:href="../../d5/d72/classLSM1x0A__LoRaWAN.html#a1df10d7ae6bf45b537d28d3d5c4b88d7" target="_top" xlink:title="Sets the transmission power index.">
<polygon fill="white" stroke="#666666" points="869.38,-628.34 700.38,-628.34 700.38,-608.34 869.38,-608.34 869.38,-628.34"/>
<text text-anchor="middle" x="784.88" y="-614.84" font-family="Helvetica,sans-Serif" font-size="10.00">LSM1x0A_LoRaWAN::setTxPower</text>
</a>
</g>
</g>
<!-- Node12&#45;&gt;Node26 -->
<g id="edge45_Node000012_Node000026" class="edge">
<title>Node12&#45;&gt;Node26</title>
<g id="a_edge45_Node000012_Node000026"><a xlink:title=" ">
<path fill="none" stroke="#63b8ff" d="M576.84,-388.64C585.76,-430.87 615.65,-544.34 688,-599.34 689.53,-600.51 691.12,-601.61 692.75,-602.65"/>
<polygon fill="#63b8ff" stroke="#63b8ff" points="690.72,-605.53 701.18,-607.21 694.05,-599.37 690.72,-605.53"/>
</a>
</g>
</g>
<!-- Node27 -->
<g id="Node000027" class="node">
<title>Node27</title>
<g id="a_Node000027"><a xlink:href="../../d5/d72/classLSM1x0A__LoRaWAN.html#a059fd6a9356c4ecadd5a98294da5952d" target="_top" xlink:title="Configures the number of repetitions for Unconfirmed uplinks.">
<polygon fill="white" stroke="#666666" points="872.38,-590.34 697.38,-590.34 697.38,-558.34 872.38,-558.34 872.38,-590.34"/>
<text text-anchor="start" x="705.38" y="-576.84" font-family="Helvetica,sans-Serif" font-size="10.00">LSM1x0A_LoRaWAN::setUnconfirm</text>
<text text-anchor="middle" x="784.88" y="-564.84" font-family="Helvetica,sans-Serif" font-size="10.00">Retry</text>
</a>
</g>
</g>
<!-- Node12&#45;&gt;Node27 -->
<g id="edge47_Node000012_Node000027" class="edge">
<title>Node12&#45;&gt;Node27</title>
<g id="a_edge47_Node000012_Node000027"><a xlink:title=" ">
<path fill="none" stroke="#63b8ff" d="M579.55,-388.68C592.89,-423.81 629.18,-506.79 688,-549.34 689.58,-550.49 691.21,-551.58 692.88,-552.62"/>
<polygon fill="#63b8ff" stroke="#63b8ff" points="691.06,-555.61 701.51,-557.33 694.41,-549.47 691.06,-555.61"/>
</a>
</g>
</g>
<!-- Node13&#45;&gt;Node2 -->
<g id="edge18_Node000013_Node000002" class="edge">
<title>Node13&#45;&gt;Node2</title>
<g id="a_edge18_Node000013_Node000002"><a xlink:title=" ">
<path fill="none" stroke="#63b8ff" d="M708.8,-526.74C621.57,-521.12 473.93,-507.14 351.5,-473.34 336.29,-469.14 320.27,-462.84 306.13,-456.57"/>
<polygon fill="#63b8ff" stroke="#63b8ff" points="307.66,-453.42 297.11,-452.45 304.75,-459.79 307.66,-453.42"/>
</a>
</g>
</g>
<!-- Node14&#45;&gt;Node2 -->
<g id="edge20_Node000014_Node000002" class="edge">
<title>Node14&#45;&gt;Node2</title>
<g id="a_edge20_Node000014_Node000002"><a xlink:title=" ">
<path fill="none" stroke="#63b8ff" d="M708.2,-488.09C621.65,-482.63 475.84,-471.61 351.5,-453.34 343.54,-452.18 335.22,-450.75 327.01,-449.21"/>
<polygon fill="#63b8ff" stroke="#63b8ff" points="327.88,-445.82 317.4,-447.35 326.55,-452.69 327.88,-445.82"/>
</a>
</g>
</g>
<!-- Node15&#45;&gt;Node2 -->
<g id="edge23_Node000015_Node000002" class="edge">
<title>Node15&#45;&gt;Node2</title>
<g id="a_edge23_Node000015_Node000002"><a xlink:title=" ">
<path fill="none" stroke="#63b8ff" d="M702.35,-446.31C598.59,-443.72 421.53,-439.29 327.15,-436.93"/>
<polygon fill="#63b8ff" stroke="#63b8ff" points="327.38,-433.44 317.29,-436.69 327.2,-440.44 327.38,-433.44"/>
</a>
</g>
</g>
<!-- Node16&#45;&gt;Node2 -->
<g id="edge25_Node000016_Node000002" class="edge">
<title>Node16&#45;&gt;Node2</title>
<g id="a_edge25_Node000016_Node000002"><a xlink:title=" ">
<path fill="none" stroke="#63b8ff" d="M698.64,-409.42C594.36,-415.63 420.24,-426.01 327.01,-431.56"/>
<polygon fill="#63b8ff" stroke="#63b8ff" points="327.06,-428.05 317.29,-432.14 327.48,-435.04 327.06,-428.05"/>
</a>
</g>
</g>
<!-- Node17&#45;&gt;Node2 -->
<g id="edge27_Node000017_Node000002" class="edge">
<title>Node17&#45;&gt;Node2</title>
<g id="a_edge27_Node000017_Node000002"><a xlink:title=" ">
<path fill="none" stroke="#63b8ff" d="M700.34,-327.22C641.81,-328.02 562.1,-332.34 493.5,-347.34 426.22,-362.06 352.54,-393.1 307.16,-414.09"/>
<polygon fill="#63b8ff" stroke="#63b8ff" points="305.75,-410.89 298.18,-418.29 308.72,-417.23 305.75,-410.89"/>
</a>
</g>
</g>
<!-- Node18&#45;&gt;Node2 -->
<g id="edge29_Node000018_Node000002" class="edge">
<title>Node18&#45;&gt;Node2</title>
<g id="a_edge29_Node000018_Node000002"><a xlink:title=" ">
<path fill="none" stroke="#63b8ff" d="M701.81,-286.57C611.1,-285.82 463.08,-294.9 351.5,-352.34 324.22,-366.39 299.42,-391.43 283.15,-410.35"/>
<polygon fill="#63b8ff" stroke="#63b8ff" points="280.56,-407.99 276.84,-417.91 285.94,-412.47 280.56,-407.99"/>
</a>
</g>
</g>
<!-- Node19&#45;&gt;Node2 -->
<g id="edge31_Node000019_Node000002" class="edge">
<title>Node19&#45;&gt;Node2</title>
<g id="a_edge31_Node000019_Node000002"><a xlink:title=" ">
<path fill="none" stroke="#63b8ff" d="M709,-239.59C617.3,-235.08 460.72,-239.93 351.5,-310.34 314.51,-334.19 288.52,-379.59 274.8,-408.61"/>
<polygon fill="#63b8ff" stroke="#63b8ff" points="271.72,-406.93 270.77,-417.48 278.09,-409.82 271.72,-406.93"/>
</a>
</g>
</g>
<!-- Node20&#45;&gt;Node2 -->
<g id="edge33_Node000020_Node000002" class="edge">
<title>Node20&#45;&gt;Node2</title>
<g id="a_edge33_Node000020_Node000002"><a xlink:title=" ">
<path fill="none" stroke="#63b8ff" d="M708.05,-187.36C614.67,-180.48 455.66,-182.94 351.5,-261.34 302.85,-297.97 279.12,-369.04 269.31,-408.06"/>
<polygon fill="#63b8ff" stroke="#63b8ff" points="265.95,-407.06 267.05,-417.6 272.76,-408.67 265.95,-407.06"/>
</a>
</g>
</g>
<!-- Node21&#45;&gt;Node2 -->
<g id="edge35_Node000021_Node000002" class="edge">
<title>Node21&#45;&gt;Node2</title>
<g id="a_edge35_Node000021_Node000002"><a xlink:title=" ">
<path fill="none" stroke="#63b8ff" d="M708.15,-134.65C613.76,-124.53 452.59,-122.52 351.5,-205.34 288.54,-256.92 270.56,-358.98 265.47,-407.91"/>
<polygon fill="#63b8ff" stroke="#63b8ff" points="262.01,-407.36 264.58,-417.64 268.98,-408 262.01,-407.36"/>
</a>
</g>
</g>
<!-- Node22&#45;&gt;Node2 -->
<g id="edge37_Node000022_Node000002" class="edge">
<title>Node22&#45;&gt;Node2</title>
<g id="a_edge37_Node000022_Node000002"><a xlink:title=" ">
<path fill="none" stroke="#63b8ff" d="M704.34,-100.28C594.06,-99.14 402.5,-103.89 351.5,-148.34 274.09,-215.82 263.71,-349.45 263.04,-407.42"/>
<polygon fill="#63b8ff" stroke="#63b8ff" points="259.54,-407.39 263.02,-417.39 266.54,-407.4 259.54,-407.39"/>
</a>
</g>
</g>
<!-- Node23&#45;&gt;Node2 -->
<g id="edge40_Node000023_Node000002" class="edge">
<title>Node23&#45;&gt;Node2</title>
<g id="a_edge40_Node000023_Node000002"><a xlink:title=" ">
<path fill="none" stroke="#63b8ff" d="M689.75,-62.1C578.07,-61.45 400.77,-67.39 351.5,-109.34 305.41,-148.6 276.41,-336.73 266.92,-407.95"/>
<polygon fill="#63b8ff" stroke="#63b8ff" points="263.49,-407.21 265.67,-417.58 270.43,-408.12 263.49,-407.21"/>
</a>
</g>
</g>
<!-- Node24&#45;&gt;Node2 -->
<g id="edge42_Node000024_Node000002" class="edge">
<title>Node24&#45;&gt;Node2</title>
<g id="a_edge42_Node000024_Node000002"><a xlink:title=" ">
<path fill="none" stroke="#63b8ff" d="M738.8,-15.89C652.2,1.31 461.42,24.8 351.5,-71.34 300.29,-116.14 273.99,-331 266.1,-407.9"/>
<polygon fill="#63b8ff" stroke="#63b8ff" points="262.66,-407.2 265.15,-417.5 269.62,-407.9 262.66,-407.2"/>
</a>
</g>
</g>
<!-- Node25&#45;&gt;Node2 -->
<g id="edge44_Node000025_Node000002" class="edge">
<title>Node25&#45;&gt;Node2</title>
<g id="a_edge44_Node000025_Node000002"><a xlink:title=" ">
<path fill="none" stroke="#63b8ff" d="M687.67,-659.66C592.91,-658.04 448.64,-641.86 351.5,-567.34 315.07,-539.4 288.77,-491.87 274.85,-462.12"/>
<polygon fill="#63b8ff" stroke="#63b8ff" points="278.06,-460.72 270.76,-453.05 271.68,-463.6 278.06,-460.72"/>
</a>
</g>
</g>
<!-- Node26&#45;&gt;Node2 -->
<g id="edge46_Node000026_Node000002" class="edge">
<title>Node26&#45;&gt;Node2</title>
<g id="a_edge46_Node000026_Node000002"><a xlink:title=" ">
<path fill="none" stroke="#63b8ff" d="M700.18,-617.78C608.37,-613.6 459.69,-596.06 351.5,-530.34 322.34,-512.63 296.83,-482.54 280.89,-460.96"/>
<polygon fill="#63b8ff" stroke="#63b8ff" points="283.81,-459.04 275.14,-452.95 278.13,-463.12 283.81,-459.04"/>
</a>
</g>
</g>
<!-- Node27&#45;&gt;Node2 -->
<g id="edge48_Node000027_Node000002" class="edge">
<title>Node27&#45;&gt;Node2</title>
<g id="a_edge48_Node000027_Node000002"><a xlink:title=" ">
<path fill="none" stroke="#63b8ff" d="M697.22,-570.92C607.43,-564.7 464.66,-547.26 351.5,-498.34 328.94,-488.59 306.47,-472.36 289.88,-458.82"/>
<polygon fill="#63b8ff" stroke="#63b8ff" points="292.37,-456.35 282.46,-452.6 287.87,-461.71 292.37,-456.35"/>
</a>
</g>
</g>
<!-- Node29&#45;&gt;Node30 -->
<g id="edge51_Node000029_Node000030" class="edge">
<title>Node29&#45;&gt;Node30</title>
<g id="a_edge51_Node000029_Node000030"><a xlink:title=" ">
<path fill="none" stroke="#63b8ff" d="M623.01,-747.93C659.14,-735.9 707.65,-719.74 741.93,-708.32"/>
<polygon fill="#63b8ff" stroke="#63b8ff" points="742.7,-711.75 751.09,-705.27 740.49,-705.11 742.7,-711.75"/>
</a>
</g>
</g>
<!-- Node31 -->
<g id="Node000031" class="node">
<title>Node31</title>
<g id="a_Node000031"><a xlink:href="../../d6/d3c/classLSM1x0A__AtParser.html#a0ba6f927c54fceece22c17773d3f2600" target="_top" xlink:title="Sends a command and extracts a value from the response.">
<polygon fill="white" stroke="#666666" points="1099.88,-710.34 925.62,-710.34 925.62,-678.34 1099.88,-678.34 1099.88,-710.34"/>
<text text-anchor="start" x="933.62" y="-696.84" font-family="Helvetica,sans-Serif" font-size="10.00">LSM1x0A_AtParser::sendCommand</text>
<text text-anchor="middle" x="1012.75" y="-684.84" font-family="Helvetica,sans-Serif" font-size="10.00">WithResponse</text>
</a>
</g>
</g>
<!-- Node30&#45;&gt;Node31 -->
<g id="edge52_Node000030_Node000031" class="edge">
<title>Node30&#45;&gt;Node31</title>
<g id="a_edge52_Node000030_Node000031"><a xlink:title=" ">
<path fill="none" stroke="#63b8ff" d="M872.24,-694.34C885.99,-694.34 900.31,-694.34 914.3,-694.34"/>
<polygon fill="#63b8ff" stroke="#63b8ff" points="913.92,-697.84 923.92,-694.34 913.92,-690.84 913.92,-697.84"/>
</a>
</g>
</g>
<!-- Node32 -->
<g id="Node000032" class="node">
<title>Node32</title>
<g id="a_Node000032"><a xlink:href="../../d5/d8b/classUartDriver.html#a5d0f22e8867eebe99273078bb19bd23d" target="_top" xlink:title="Sends data through UART.">
<polygon fill="white" stroke="#666666" points="1274.5,-704.34 1165.5,-704.34 1165.5,-684.34 1274.5,-684.34 1274.5,-704.34"/>
<text text-anchor="middle" x="1220" y="-690.84" font-family="Helvetica,sans-Serif" font-size="10.00">UartDriver::sendData</text>
</a>
</g>
</g>
<!-- Node31&#45;&gt;Node32 -->
<g id="edge53_Node000031_Node000032" class="edge">
<title>Node31&#45;&gt;Node32</title>
<g id="a_edge53_Node000031_Node000032"><a xlink:title=" ">
<path fill="none" stroke="#63b8ff" d="M1100.2,-694.34C1118.09,-694.34 1136.66,-694.34 1153.64,-694.34"/>
<polygon fill="#63b8ff" stroke="#63b8ff" points="1153.61,-697.84 1163.61,-694.34 1153.61,-690.84 1153.61,-697.84"/>
</a>
</g>
</g>
</g>
</svg>

<g id="navigator" transform="translate(0 0)" fill="#404254">
  <rect fill="#f2f5e9" fill-opacity="0.5" stroke="#606060" stroke-width=".5" x="0" y="0" width="60" height="60"/>
  <use id="zoomplus" xlink:href="#zoomPlus" x="17" y="9" onmousedown="handleZoom(evt,'in')"/>
  <use id="zoomminus" xlink:href="#zoomMin" x="42" y="9" onmousedown="handleZoom(evt,'out')"/>
  <use id="reset" xlink:href="#resetDef" x="30" y="36" onmousedown="handleReset()"/>
   <use id="arrowup" xlink:href="#arrowUp" x="0" y="0" onmousedown="handlePan(0,-1)"/>
  <use id="arrowright" xlink:href="#arrowRight" x="0" y="0" onmousedown="handlePan(1,0)"/>
  <use id="arrowdown" xlink:href="#arrowDown" x="0" y="0" onmousedown="handlePan(0,1)"/>
  <use id="arrowleft" xlink:href="#arrowLeft" x="0" y="0" onmousedown="handlePan(-1,0)"/>
</g>
<svg viewBox="0 0 15 15" width="100%" height="30px" preserveAspectRatio="xMaxYMin meet">
 <g id="arrow_out" transform="scale(0.3 0.3)">
  <a xlink:href="classLSM1x0A__LoRaWAN_aa70ada64d28ecca216bb62268e502adf_cgraph_org.svg" target="_base">
   <rect id="button" ry="5" rx="5" y="6" x="6" height="38" width="38"
        fill="#f2f5e9" fill-opacity="0.5" stroke="#606060" stroke-width="1.0"/>
   <path id="arrow"
     d="M 11.500037,31.436501 C 11.940474,20.09759 22.043105,11.32322 32.158766,21.979434 L 37.068811,17.246167 C 37.068811,17.246167 37.088388,32 37.088388,32 L 22.160133,31.978069 C 22.160133,31.978069 26.997745,27.140456 26.997745,27.140456 C 18.528582,18.264221 13.291696,25.230495 11.500037,31.436501 z"
     style="fill:#404040;"/>
  </a>
 </g>
</svg>

<style type='text/css'>
<![CDATA[
[data-mouse-over-selected='false'] { opacity: 0.7; }
[data-mouse-over-selected='true']  { opacity: 1.0; }
]]>
</style>
<script type="application/ecmascript"><![CDATA[
document.addEventListener('DOMContentLoaded', (event) => {
  highlightEdges();
  highlightAdjacentNodes();
});
]]></script>
</svg>
