<?xml version="1.0" encoding="UTF-8" standalone="no"?>
<!DOCTYPE svg PUBLIC "-//W3C//DTD SVG 1.1//EN"
 "http://www.w3.org/Graphics/SVG/1.1/DTD/svg11.dtd">
<!-- Generated by graphviz version 12.2.1 (20241206.2353)
 -->
<!-- Title: LSM1x0A_LoRaWAN::setAbpFrameCounter Pages: 1 -->
<!--zoomable 1143 -->

<svg id="main" version="1.1" xmlns="http://www.w3.org/2000/svg" xmlns:xlink="http://www.w3.org/1999/xlink" xml:space="preserve" onload="init(evt)">
<style type="text/css"><![CDATA[
.node, .edge {opacity: 0.7;}
.node.selected, .edge.selected {opacity: 1;}
.edge:hover path { stroke: red; }
.edge:hover polygon { stroke: red; fill: red; }
]]></style>

<defs>
  <circle id="rim" cx="0" cy="0" r="7"/>
  <circle id="rim2" cx="0" cy="0" r="3.5"/>
  <g id="zoomPlus">
    <use xlink:href="#rim" fill="#404040"><set attributeName="fill" to="#808080" begin="zoomplus.mouseover" end="zoomplus.mouseout"/></use>
    <path d="M-4,0h8M0,-4v8" fill="none" stroke="white" stroke-width="1.5" pointer-events="none"/>
  </g>
  <g id="zoomMin">
    <use xlink:href="#rim" fill="#404040"><set attributeName="fill" to="#808080" begin="zoomminus.mouseover" end="zoomminus.mouseout"/></use>
    <path d="M-4,0h8" fill="none" stroke="white" stroke-width="1.5" pointer-events="none"/>
  </g>
  <g id="arrowUp" transform="translate(30 24)">
    <use xlink:href="#rim"/>
    <path pointer-events="none" fill="none" stroke="white" stroke-width="1.5" d="M0,-3.0v7 M-2.5,-0.5L0,-3.0L2.5,-0.5"/>
  </g>
  <g id="arrowRight" transform="rotate(90) translate(36 -43)">
    <use xlink:href="#rim"/>
    <path pointer-events="none" fill="none" stroke="white" stroke-width="1.5" d="M0,-3.0v7 M-2.5,-0.5L0,-3.0L2.5,-0.5"/>
  </g>
  <g id="arrowDown" transform="rotate(180) translate(-30 -48)">
    <use xlink:href="#rim"/>
    <path pointer-events="none" fill="none" stroke="white" stroke-width="1.5" d="M0,-3.0v7 M-2.5,-0.5L0,-3.0L2.5,-0.5"/>
  </g>
  <g id="arrowLeft" transform="rotate(270) translate(-36 17)">
    <use xlink:href="#rim"/>
    <path pointer-events="none" fill="none" stroke="white" stroke-width="1.5" d="M0,-3.0v7 M-2.5,-0.5L0,-3.0L2.5,-0.5"/>
  </g>
  <g id="resetDef">
    <use xlink:href="#rim2" fill="#404040"><set attributeName="fill" to="#808080" begin="reset.mouseover" end="reset.mouseout"/></use>
  </g>
</defs>
<script type="application/ecmascript">
var viewWidth = 1306;
var viewHeight = 1143;
var sectionId = 'dynsection-61';
</script>
<script type="application/ecmascript" xlink:href="../../svg.min.js"/>
<svg id="graph" class="graph">
<g id="viewport">
<title>LSM1x0A_LoRaWAN::setAbpFrameCounter</title>
<!-- Node1 -->
<g id="Node000001" class="node">
<title>Node1</title>
<g id="a_Node000001"><a xlink:title="Forcibly sets the ABP frame counter value.">
<polygon fill="#999999" stroke="#666666" points="175,-496.95 0,-496.95 0,-464.95 175,-464.95 175,-496.95"/>
<text text-anchor="start" x="8" y="-483.45" font-family="Helvetica,sans-Serif" font-size="10.00">LSM1x0A_LoRaWAN::setAbpFrame</text>
<text text-anchor="middle" x="87.5" y="-471.45" font-family="Helvetica,sans-Serif" font-size="10.00">Counter</text>
</a>
</g>
</g>
<!-- Node2 -->
<g id="Node000002" class="node">
<title>Node2</title>
<g id="a_Node000002"><a xlink:href="../../d8/d92/classLSM1x0A__Controller.html#afd7d92e60ed6fdae696a955cdbe0ed8c" target="_top" xlink:title="Sends any AT command to the module, returning error if it fails. Internally uses the LsmAtParser logi...">
<polygon fill="white" stroke="#666666" points="317,-496.95 211,-496.95 211,-464.95 317,-464.95 317,-496.95"/>
<text text-anchor="start" x="219" y="-483.45" font-family="Helvetica,sans-Serif" font-size="10.00">LSM1x0A_Controller</text>
<text text-anchor="middle" x="264" y="-471.45" font-family="Helvetica,sans-Serif" font-size="10.00">::sendCommand</text>
</a>
</g>
</g>
<!-- Node1&#45;&gt;Node2 -->
<g id="edge1_Node000001_Node000002" class="edge">
<title>Node1&#45;&gt;Node2</title>
<g id="a_edge1_Node000001_Node000002"><a xlink:title=" ">
<path fill="none" stroke="#63b8ff" d="M175.49,-480.95C183.64,-480.95 191.79,-480.95 199.65,-480.95"/>
<polygon fill="#63b8ff" stroke="#63b8ff" points="199.43,-484.45 209.43,-480.95 199.43,-477.45 199.43,-484.45"/>
</a>
</g>
</g>
<!-- Node3 -->
<g id="Node000003" class="node">
<title>Node3</title>
<g id="a_Node000003"><a xlink:href="../../d8/d92/classLSM1x0A__Controller.html#abb0eb380daa3dfb7acffb483c5db8e2b" target="_top" xlink:title="Executes the recovery protocol. First Soft&#45;Reset (ATZ), then Hard&#45;Reset if there is a pin.">
<polygon fill="white" stroke="#666666" points="459,-938.95 353,-938.95 353,-906.95 459,-906.95 459,-938.95"/>
<text text-anchor="start" x="361" y="-925.45" font-family="Helvetica,sans-Serif" font-size="10.00">LSM1x0A_Controller</text>
<text text-anchor="middle" x="406" y="-913.45" font-family="Helvetica,sans-Serif" font-size="10.00">::recoverModule</text>
</a>
</g>
</g>
<!-- Node2&#45;&gt;Node3 -->
<g id="edge2_Node000002_Node000003" class="edge">
<title>Node2&#45;&gt;Node3</title>
<g id="a_edge2_Node000002_Node000003"><a xlink:title=" ">
<path fill="none" stroke="#63b8ff" d="M268.55,-497.39C279.11,-545.46 312.16,-689.56 353,-804.95 364.35,-837.01 380.54,-872.58 391.83,-896.2"/>
<polygon fill="#63b8ff" stroke="#63b8ff" points="388.63,-897.62 396.13,-905.1 394.93,-894.57 388.63,-897.62"/>
</a>
</g>
</g>
<!-- Node31 -->
<g id="Node000031" class="node">
<title>Node31</title>
<g id="a_Node000031"><a xlink:href="../../d6/d3c/classLSM1x0A__AtParser.html#a29b53c521974387ba6c03afadfaffa4a" target="_top" xlink:title="Sends a simple command and waits for OK/ERROR. Example: sendCommand(&quot;AT+JOIN&quot;);.">
<polygon fill="white" stroke="#666666" points="873.5,-1118.95 699.25,-1118.95 699.25,-1098.95 873.5,-1098.95 873.5,-1118.95"/>
<text text-anchor="middle" x="786.38" y="-1105.45" font-family="Helvetica,sans-Serif" font-size="10.00">LSM1x0A_AtParser::sendCommand</text>
</a>
</g>
</g>
<!-- Node2&#45;&gt;Node31 -->
<g id="edge55_Node000002_Node000031" class="edge">
<title>Node2&#45;&gt;Node31</title>
<g id="a_edge55_Node000002_Node000031"><a xlink:title=" ">
<path fill="none" stroke="#63b8ff" d="M265.06,-497.2C265.88,-559.15 274.42,-785.25 353,-947.95 394.93,-1034.77 407.31,-1071.88 495,-1111.95 572.76,-1147.48 674.91,-1134.62 735.02,-1121.89"/>
<polygon fill="#63b8ff" stroke="#63b8ff" points="735.61,-1125.34 744.62,-1119.77 734.1,-1118.51 735.61,-1125.34"/>
</a>
</g>
</g>
<!-- Node4 -->
<g id="Node000004" class="node">
<title>Node4</title>
<g id="a_Node000004"><a xlink:href="../../d8/d92/classLSM1x0A__Controller.html#a3f6f25b843fe4fb7042c544deae2ab16" target="_top" xlink:title="Manually clears bits from the internal EventGroup.">
<polygon fill="white" stroke="#666666" points="1067.25,-957.95 961.25,-957.95 961.25,-925.95 1067.25,-925.95 1067.25,-957.95"/>
<text text-anchor="start" x="969.25" y="-944.45" font-family="Helvetica,sans-Serif" font-size="10.00">LSM1x0A_Controller</text>
<text text-anchor="middle" x="1014.25" y="-932.45" font-family="Helvetica,sans-Serif" font-size="10.00">::clearEvents</text>
</a>
</g>
</g>
<!-- Node3&#45;&gt;Node4 -->
<g id="edge3_Node000003_Node000004" class="edge">
<title>Node3&#45;&gt;Node4</title>
<g id="a_edge3_Node000003_Node000004"><a xlink:title=" ">
<path fill="none" stroke="#63b8ff" d="M423.08,-939.29C439.5,-954.72 466.56,-976.82 495,-985.95 654.57,-1037.18 855.16,-991 953.43,-961.72"/>
<polygon fill="#63b8ff" stroke="#63b8ff" points="954.32,-965.11 962.87,-958.86 952.29,-958.41 954.32,-965.11"/>
</a>
</g>
</g>
<!-- Node5 -->
<g id="Node000005" class="node">
<title>Node5</title>
<g id="a_Node000005"><a xlink:href="../../d8/d92/classLSM1x0A__Controller.html#a345d4bd79fa16b18dc33a4ca788fe5f7" target="_top" xlink:title="Performs a hardware reset using the reset pin.">
<polygon fill="white" stroke="#666666" points="627.25,-938.95 521.25,-938.95 521.25,-906.95 627.25,-906.95 627.25,-938.95"/>
<text text-anchor="start" x="529.25" y="-925.45" font-family="Helvetica,sans-Serif" font-size="10.00">LSM1x0A_Controller</text>
<text text-anchor="middle" x="574.25" y="-913.45" font-family="Helvetica,sans-Serif" font-size="10.00">::hardwareReset</text>
</a>
</g>
</g>
<!-- Node3&#45;&gt;Node5 -->
<g id="edge4_Node000003_Node000005" class="edge">
<title>Node3&#45;&gt;Node5</title>
<g id="a_edge4_Node000003_Node000005"><a xlink:title=" ">
<path fill="none" stroke="#63b8ff" d="M459.15,-922.95C475.16,-922.95 492.97,-922.95 509.66,-922.95"/>
<polygon fill="#63b8ff" stroke="#63b8ff" points="509.49,-926.45 519.49,-922.95 509.49,-919.45 509.49,-926.45"/>
</a>
</g>
</g>
<!-- Node7 -->
<g id="Node000007" class="node">
<title>Node7</title>
<g id="a_Node000007"><a xlink:href="../../d5/d72/classLSM1x0A__LoRaWAN.html#a1892801e37c8cd67d37c76108d6f7d49" target="_top" xlink:title="Validates if the device is currently Joined to the network. (Either confirmed by OTAA or statically a...">
<polygon fill="white" stroke="#666666" points="1297.75,-926.95 1145.25,-926.95 1145.25,-906.95 1297.75,-906.95 1297.75,-926.95"/>
<text text-anchor="middle" x="1221.5" y="-913.45" font-family="Helvetica,sans-Serif" font-size="10.00">LSM1x0A_LoRaWAN::isJoined</text>
</a>
</g>
</g>
<!-- Node3&#45;&gt;Node7 -->
<g id="edge6_Node000003_Node000007" class="edge">
<title>Node3&#45;&gt;Node7</title>
<g id="a_edge6_Node000003_Node000007"><a xlink:title=" ">
<path fill="none" stroke="#63b8ff" d="M452.94,-939.25C455.08,-940.7 457.11,-942.26 459,-943.95 484.17,-966.51 465.99,-993.6 495,-1010.95 505.7,-1017.34 821.16,-1014.94 883.25,-1008.95 984.94,-999.13 1011.74,-997.44 1109.25,-966.95 1138.08,-957.93 1169.33,-943.44 1191.34,-932.37"/>
<polygon fill="#63b8ff" stroke="#63b8ff" points="1192.7,-935.61 1200.01,-927.94 1189.51,-929.38 1192.7,-935.61"/>
</a>
</g>
</g>
<!-- Node8 -->
<g id="Node000008" class="node">
<title>Node8</title>
<g id="a_Node000008"><a xlink:href="../../d5/d72/classLSM1x0A__LoRaWAN.html#a83e11c0e74ff9e0757db616ab1163424" target="_top" xlink:title="Attempts to recover a lost connection (re&#45;executes OTAA Join if dropped).">
<polygon fill="white" stroke="#666666" points="648.62,-850.95 499.88,-850.95 499.88,-818.95 648.62,-818.95 648.62,-850.95"/>
<text text-anchor="start" x="507.88" y="-837.45" font-family="Helvetica,sans-Serif" font-size="10.00">LSM1x0A_LoRaWAN::recover</text>
<text text-anchor="middle" x="574.25" y="-825.45" font-family="Helvetica,sans-Serif" font-size="10.00">Connection</text>
</a>
</g>
</g>
<!-- Node3&#45;&gt;Node8 -->
<g id="edge7_Node000003_Node000008" class="edge">
<title>Node3&#45;&gt;Node8</title>
<g id="a_edge7_Node000003_Node000008"><a xlink:title=" ">
<path fill="none" stroke="#63b8ff" d="M428.97,-906.53C446.3,-894.07 471.4,-877.07 495,-864.95 501.29,-861.72 508,-858.64 514.76,-855.76"/>
<polygon fill="#63b8ff" stroke="#63b8ff" points="516.03,-859.02 523.96,-851.99 513.38,-852.55 516.03,-859.02"/>
</a>
</g>
</g>
<!-- Node12 -->
<g id="Node000012" class="node">
<title>Node12</title>
<g id="a_Node000012"><a xlink:href="../../d5/d72/classLSM1x0A__LoRaWAN.html#ae3be4ce59dfa200369733317df356e97" target="_top" xlink:title="Pushes the RAM&#45;cached variables back down into the hardware module. Restores the operational state af...">
<polygon fill="white" stroke="#666666" points="647.5,-496.95 501,-496.95 501,-464.95 647.5,-464.95 647.5,-496.95"/>
<text text-anchor="start" x="509" y="-483.45" font-family="Helvetica,sans-Serif" font-size="10.00">LSM1x0A_LoRaWAN::restore</text>
<text text-anchor="middle" x="574.25" y="-471.45" font-family="Helvetica,sans-Serif" font-size="10.00">Config</text>
</a>
</g>
</g>
<!-- Node3&#45;&gt;Node12 -->
<g id="edge16_Node000003_Node000012" class="edge">
<title>Node3&#45;&gt;Node12</title>
<g id="a_edge16_Node000003_Node000012"><a xlink:title=" ">
<path fill="none" stroke="#63b8ff" d="M413.11,-906.69C438.01,-840.5 531.92,-590.84 563.11,-507.91"/>
<polygon fill="#63b8ff" stroke="#63b8ff" points="566.3,-509.36 566.55,-498.77 559.75,-506.9 566.3,-509.36"/>
</a>
</g>
</g>
<!-- Node29 -->
<g id="Node000029" class="node">
<title>Node29</title>
<g id="a_Node000029"><a xlink:href="../../d5/d72/classLSM1x0A__LoRaWAN.html#ace4b04396f1de1f4a54f513f5f378db7" target="_top" xlink:title="Manually overrides the internal joined state tracker.">
<polygon fill="white" stroke="#666666" points="653.5,-976.95 495,-976.95 495,-956.95 653.5,-956.95 653.5,-976.95"/>
<text text-anchor="middle" x="574.25" y="-963.45" font-family="Helvetica,sans-Serif" font-size="10.00">LSM1x0A_LoRaWAN::setJoined</text>
</a>
</g>
</g>
<!-- Node3&#45;&gt;Node29 -->
<g id="edge50_Node000003_Node000029" class="edge">
<title>Node3&#45;&gt;Node29</title>
<g id="a_edge50_Node000003_Node000029"><a xlink:title=" ">
<path fill="none" stroke="#63b8ff" d="M459.49,-938.22C471.16,-941.51 483.48,-944.91 495,-947.95 502.36,-949.89 510.12,-951.86 517.79,-953.76"/>
<polygon fill="#63b8ff" stroke="#63b8ff" points="516.88,-957.14 527.43,-956.13 518.55,-950.35 516.88,-957.14"/>
</a>
</g>
</g>
<!-- Node30 -->
<g id="Node000030" class="node">
<title>Node30</title>
<g id="a_Node000030"><a xlink:href="../../d8/d92/classLSM1x0A__Controller.html#a11ad21cb5ca33ec51346764a23bd485e" target="_top" xlink:title="Performs a software reset (ATZ Command).">
<polygon fill="white" stroke="#666666" points="627.25,-1102.95 521.25,-1102.95 521.25,-1070.95 627.25,-1070.95 627.25,-1102.95"/>
<text text-anchor="start" x="529.25" y="-1089.45" font-family="Helvetica,sans-Serif" font-size="10.00">LSM1x0A_Controller</text>
<text text-anchor="middle" x="574.25" y="-1077.45" font-family="Helvetica,sans-Serif" font-size="10.00">::softwareReset</text>
</a>
</g>
</g>
<!-- Node3&#45;&gt;Node30 -->
<g id="edge51_Node000003_Node000030" class="edge">
<title>Node3&#45;&gt;Node30</title>
<g id="a_edge51_Node000003_Node000030"><a xlink:title=" ">
<path fill="none" stroke="#63b8ff" d="M413.7,-939.34C425.89,-967.25 454.25,-1024.13 495,-1056.95 499.82,-1060.83 505.19,-1064.24 510.8,-1067.25"/>
<polygon fill="#63b8ff" stroke="#63b8ff" points="509.21,-1070.36 519.73,-1071.55 512.25,-1064.06 509.21,-1070.36"/>
</a>
</g>
</g>
<!-- Node6 -->
<g id="Node000006" class="node">
<title>Node6</title>
<g id="a_Node000006"><a xlink:href="../../d6/d3c/classLSM1x0A__AtParser.html#ad2839120da13e56132b95019419be1e5" target="_top" xlink:title="Waits for an event (like BOOTALERT) without sending any command. Useful for hardware reset where the ...">
<polygon fill="white" stroke="#666666" points="856.62,-938.95 716.12,-938.95 716.12,-906.95 856.62,-906.95 856.62,-938.95"/>
<text text-anchor="start" x="724.12" y="-925.45" font-family="Helvetica,sans-Serif" font-size="10.00">LSM1x0A_AtParser::waitFor</text>
<text text-anchor="middle" x="786.38" y="-913.45" font-family="Helvetica,sans-Serif" font-size="10.00">Event</text>
</a>
</g>
</g>
<!-- Node5&#45;&gt;Node6 -->
<g id="edge5_Node000005_Node000006" class="edge">
<title>Node5&#45;&gt;Node6</title>
<g id="a_edge5_Node000005_Node000006"><a xlink:title=" ">
<path fill="none" stroke="#63b8ff" d="M627.73,-922.95C650.92,-922.95 678.72,-922.95 704.46,-922.95"/>
<polygon fill="#63b8ff" stroke="#63b8ff" points="704.22,-926.45 714.22,-922.95 704.22,-919.45 704.22,-926.45"/>
</a>
</g>
</g>
<!-- Node9 -->
<g id="Node000009" class="node">
<title>Node9</title>
<g id="a_Node000009"><a xlink:href="../../d5/d72/classLSM1x0A__LoRaWAN.html#a59f781f3cfd30c11cd3973bcb10a7baa" target="_top" xlink:title="Initiates a LoRaWAN Network Join procedure. This is a blocking function until the module fires an eve...">
<polygon fill="white" stroke="#666666" points="852.12,-844.95 720.62,-844.95 720.62,-824.95 852.12,-824.95 852.12,-844.95"/>
<text text-anchor="middle" x="786.38" y="-831.45" font-family="Helvetica,sans-Serif" font-size="10.00">LSM1x0A_LoRaWAN::join</text>
</a>
</g>
</g>
<!-- Node8&#45;&gt;Node9 -->
<g id="edge8_Node000008_Node000009" class="edge">
<title>Node8&#45;&gt;Node9</title>
<g id="a_edge8_Node000008_Node000009"><a xlink:title=" ">
<path fill="none" stroke="#63b8ff" d="M649.04,-834.95C668.41,-834.95 689.35,-834.95 708.86,-834.95"/>
<polygon fill="#63b8ff" stroke="#63b8ff" points="708.65,-838.45 718.65,-834.95 708.65,-831.45 708.65,-838.45"/>
</a>
</g>
</g>
<!-- Node9&#45;&gt;Node2 -->
<g id="edge11_Node000009_Node000002" class="edge">
<title>Node9&#45;&gt;Node2</title>
<g id="a_edge11_Node000009_Node000002"><a xlink:title=" ">
<path fill="none" stroke="#63b8ff" d="M732.15,-824.5C673.52,-812.53 576.73,-791.38 495,-766.95 430.61,-747.69 400.73,-762.27 353,-714.95 294.73,-657.18 274.53,-557.13 267.95,-508.74"/>
<polygon fill="#63b8ff" stroke="#63b8ff" points="271.43,-508.33 266.72,-498.84 264.48,-509.2 271.43,-508.33"/>
</a>
</g>
</g>
<!-- Node9&#45;&gt;Node3 -->
<g id="edge10_Node000009_Node000003" class="edge">
<title>Node9&#45;&gt;Node3</title>
<g id="a_edge10_Node000009_Node000003"><a xlink:title=" ">
<path fill="none" stroke="#63b8ff" d="M732.15,-845.44C673.74,-857.21 577.32,-877.35 495,-897.95 487.06,-899.94 478.74,-902.14 470.53,-904.39"/>
<polygon fill="#63b8ff" stroke="#63b8ff" points="469.59,-901.01 460.9,-907.06 471.47,-907.76 469.59,-901.01"/>
</a>
</g>
</g>
<!-- Node9&#45;&gt;Node4 -->
<g id="edge9_Node000009_Node000004" class="edge">
<title>Node9&#45;&gt;Node4</title>
<g id="a_edge9_Node000009_Node000004"><a xlink:title=" ">
<path fill="none" stroke="#63b8ff" d="M809.44,-845.4C846.16,-862.79 920.48,-898 968.51,-920.75"/>
<polygon fill="#63b8ff" stroke="#63b8ff" points="966.72,-923.78 977.26,-924.9 969.72,-917.45 966.72,-923.78"/>
</a>
</g>
</g>
<!-- Node10 -->
<g id="Node000010" class="node">
<title>Node10</title>
<g id="a_Node000010"><a xlink:href="../../d5/d72/classLSM1x0A__LoRaWAN.html#a3fdd1ac318a5ad2559323e5d57e36a5e" target="_top" xlink:title="Enables or disables specific sub&#45;bands for regions supporting Channel Masks (e.g.,...">
<polygon fill="white" stroke="#666666" points="1109.25,-654.95 919.25,-654.95 919.25,-634.95 1109.25,-634.95 1109.25,-654.95"/>
<text text-anchor="middle" x="1014.25" y="-641.45" font-family="Helvetica,sans-Serif" font-size="10.00">LSM1x0A_LoRaWAN::setChannelMask</text>
</a>
</g>
</g>
<!-- Node9&#45;&gt;Node10 -->
<g id="edge12_Node000009_Node000010" class="edge">
<title>Node9&#45;&gt;Node10</title>
<g id="a_edge12_Node000009_Node000010"><a xlink:title=" ">
<path fill="none" stroke="#63b8ff" d="M846.68,-824.45C859.4,-820.55 872.3,-815.22 883.25,-807.95 940.12,-770.19 983.75,-699.61 1002.79,-665.05"/>
<polygon fill="#63b8ff" stroke="#63b8ff" points="1005.72,-666.98 1007.37,-656.52 999.55,-663.67 1005.72,-666.98"/>
</a>
</g>
</g>
<!-- Node11 -->
<g id="Node000011" class="node">
<title>Node11</title>
<g id="a_Node000011"><a xlink:href="../../d8/d92/classLSM1x0A__Controller.html#a62476e30e50c7fe120aeb8df4b828675" target="_top" xlink:title="Synchronously/blockingly waits for an asynchronous event to occur. Useful for wrapping commands like ...">
<polygon fill="white" stroke="#666666" points="1067.25,-850.95 961.25,-850.95 961.25,-818.95 1067.25,-818.95 1067.25,-850.95"/>
<text text-anchor="start" x="969.25" y="-837.45" font-family="Helvetica,sans-Serif" font-size="10.00">LSM1x0A_Controller</text>
<text text-anchor="middle" x="1014.25" y="-825.45" font-family="Helvetica,sans-Serif" font-size="10.00">::waitForEvent</text>
</a>
</g>
</g>
<!-- Node9&#45;&gt;Node11 -->
<g id="edge15_Node000009_Node000011" class="edge">
<title>Node9&#45;&gt;Node11</title>
<g id="a_edge15_Node000009_Node000011"><a xlink:title=" ">
<path fill="none" stroke="#63b8ff" d="M852.4,-834.95C882.91,-834.95 919.15,-834.95 949.49,-834.95"/>
<polygon fill="#63b8ff" stroke="#63b8ff" points="949.3,-838.45 959.3,-834.95 949.3,-831.45 949.3,-838.45"/>
</a>
</g>
</g>
<!-- Node10&#45;&gt;Node2 -->
<g id="edge14_Node000010_Node000002" class="edge">
<title>Node10&#45;&gt;Node2</title>
<g id="a_edge14_Node000010_Node000002"><a xlink:title=" ">
<path fill="none" stroke="#63b8ff" d="M1012.47,-634.73C1007.02,-566.01 972.1,-172.04 883.25,-101.95 698.09,44.11 534.15,29.06 353,-121.95 301.42,-164.95 275.36,-377.61 267.57,-453.76"/>
<polygon fill="#63b8ff" stroke="#63b8ff" points="264.13,-452.96 266.62,-463.26 271.09,-453.65 264.13,-452.96"/>
</a>
</g>
</g>
<!-- Node10&#45;&gt;Node7 -->
<g id="edge13_Node000010_Node000007" class="edge">
<title>Node10&#45;&gt;Node7</title>
<g id="a_edge13_Node000010_Node000007"><a xlink:title=" ">
<path fill="none" stroke="#63b8ff" d="M1023.05,-655.28C1053.59,-695.76 1165.42,-843.95 1205.82,-897.49"/>
<polygon fill="#63b8ff" stroke="#63b8ff" points="1202.97,-899.52 1211.79,-905.4 1208.56,-895.31 1202.97,-899.52"/>
</a>
</g>
</g>
<!-- Node12&#45;&gt;Node10 -->
<g id="edge21_Node000012_Node000010" class="edge">
<title>Node12&#45;&gt;Node10</title>
<g id="a_edge21_Node000012_Node000010"><a xlink:title=" ">
<path fill="none" stroke="#63b8ff" d="M647.74,-484.29C725.4,-488.81 842.93,-498.64 883.25,-517.95 935.18,-542.82 979.13,-596.76 1000.09,-625.7"/>
<polygon fill="#63b8ff" stroke="#63b8ff" points="997.02,-627.41 1005.65,-633.56 1002.74,-623.37 997.02,-627.41"/>
</a>
</g>
</g>
<!-- Node13 -->
<g id="Node000013" class="node">
<title>Node13</title>
<g id="a_Node000013"><a xlink:href="../../d5/d72/classLSM1x0A__LoRaWAN.html#af0baa3db4c7fab580d6b19a9e92472f6" target="_top" xlink:title="Enables or disables Adaptive Data Rate (ADR).">
<polygon fill="white" stroke="#666666" points="862.25,-798.95 710.5,-798.95 710.5,-778.95 862.25,-778.95 862.25,-798.95"/>
<text text-anchor="middle" x="786.38" y="-785.45" font-family="Helvetica,sans-Serif" font-size="10.00">LSM1x0A_LoRaWAN::setADR</text>
</a>
</g>
</g>
<!-- Node12&#45;&gt;Node13 -->
<g id="edge17_Node000012_Node000013" class="edge">
<title>Node12&#45;&gt;Node13</title>
<g id="a_edge17_Node000012_Node000013"><a xlink:title=" ">
<path fill="none" stroke="#63b8ff" d="M576.43,-497.13C580.95,-546.58 601.65,-696.7 689.5,-769.95 692.75,-772.66 696.29,-775.03 700.01,-777.08"/>
<polygon fill="#63b8ff" stroke="#63b8ff" points="698.34,-780.17 708.88,-781.21 701.29,-773.82 698.34,-780.17"/>
</a>
</g>
</g>
<!-- Node14 -->
<g id="Node000014" class="node">
<title>Node14</title>
<g id="a_Node000014"><a xlink:href="../../d5/d72/classLSM1x0A__LoRaWAN.html#a5365ed1596eb84ebf1e3b33b4a10c788" target="_top" xlink:title="Sets the LoRaWAN operational frequency band.">
<polygon fill="white" stroke="#666666" points="862.62,-760.95 710.12,-760.95 710.12,-740.95 862.62,-740.95 862.62,-760.95"/>
<text text-anchor="middle" x="786.38" y="-747.45" font-family="Helvetica,sans-Serif" font-size="10.00">LSM1x0A_LoRaWAN::setBand</text>
</a>
</g>
</g>
<!-- Node12&#45;&gt;Node14 -->
<g id="edge19_Node000012_Node000014" class="edge">
<title>Node12&#45;&gt;Node14</title>
<g id="a_edge19_Node000012_Node000014"><a xlink:title=" ">
<path fill="none" stroke="#63b8ff" d="M577.51,-497.27C584.67,-542.46 611.23,-669.99 689.5,-731.95 692.66,-734.45 696.05,-736.64 699.61,-738.58"/>
<polygon fill="#63b8ff" stroke="#63b8ff" points="698.1,-741.74 708.65,-742.72 701.02,-735.37 698.1,-741.74"/>
</a>
</g>
</g>
<!-- Node15 -->
<g id="Node000015" class="node">
<title>Node15</title>
<g id="a_Node000015"><a xlink:href="../../d5/d72/classLSM1x0A__LoRaWAN.html#a9d9285c43414337a0ccb3a6cd7ca06e6" target="_top" xlink:title="Configures the number of retries for Confirmed uplinks.">
<polygon fill="white" stroke="#666666" points="868.62,-722.95 704.12,-722.95 704.12,-690.95 868.62,-690.95 868.62,-722.95"/>
<text text-anchor="start" x="712.12" y="-709.45" font-family="Helvetica,sans-Serif" font-size="10.00">LSM1x0A_LoRaWAN::setConfirm</text>
<text text-anchor="middle" x="786.38" y="-697.45" font-family="Helvetica,sans-Serif" font-size="10.00">Retry</text>
</a>
</g>
</g>
<!-- Node12&#45;&gt;Node15 -->
<g id="edge22_Node000012_Node000015" class="edge">
<title>Node12&#45;&gt;Node15</title>
<g id="a_edge22_Node000012_Node000015"><a xlink:title=" ">
<path fill="none" stroke="#63b8ff" d="M579.77,-497.42C591.23,-535.98 625.17,-632.59 689.5,-681.95 690.86,-682.99 692.27,-684 693.71,-684.96"/>
<polygon fill="#63b8ff" stroke="#63b8ff" points="691.93,-687.98 702.34,-689.96 695.44,-681.92 691.93,-687.98"/>
</a>
</g>
</g>
<!-- Node16 -->
<g id="Node000016" class="node">
<title>Node16</title>
<g id="a_Node000016"><a xlink:href="../../d5/d72/classLSM1x0A__LoRaWAN.html#a56345ceeafa0b9059d6de4e69eddc82e" target="_top" xlink:title="Sets the Data Rate (DR) of the module.">
<polygon fill="white" stroke="#666666" points="872.38,-672.95 700.38,-672.95 700.38,-652.95 872.38,-652.95 872.38,-672.95"/>
<text text-anchor="middle" x="786.38" y="-659.45" font-family="Helvetica,sans-Serif" font-size="10.00">LSM1x0A_LoRaWAN::setDataRate</text>
</a>
</g>
</g>
<!-- Node12&#45;&gt;Node16 -->
<g id="edge24_Node000012_Node000016" class="edge">
<title>Node12&#45;&gt;Node16</title>
<g id="a_edge24_Node000012_Node000016"><a xlink:title=" ">
<path fill="none" stroke="#63b8ff" d="M581.68,-497.26C595.74,-530.68 632.61,-606.87 689.5,-643.95 691.64,-645.34 693.85,-646.63 696.13,-647.84"/>
<polygon fill="#63b8ff" stroke="#63b8ff" points="694.55,-650.96 705.1,-651.92 697.45,-644.59 694.55,-650.96"/>
</a>
</g>
</g>
<!-- Node17 -->
<g id="Node000017" class="node">
<title>Node17</title>
<g id="a_Node000017"><a xlink:href="../../d5/d72/classLSM1x0A__LoRaWAN.html#a8494083816ab885cb07fc3b08de029f4" target="_top" xlink:title="Sets the LoRaWAN Device Address (DevAddr) for ABP mode.">
<polygon fill="white" stroke="#666666" points="870.5,-634.95 702.25,-634.95 702.25,-614.95 870.5,-614.95 870.5,-634.95"/>
<text text-anchor="middle" x="786.38" y="-621.45" font-family="Helvetica,sans-Serif" font-size="10.00">LSM1x0A_LoRaWAN::setDevAddr</text>
</a>
</g>
</g>
<!-- Node12&#45;&gt;Node17 -->
<g id="edge26_Node000012_Node000017" class="edge">
<title>Node12&#45;&gt;Node17</title>
<g id="a_edge26_Node000012_Node000017"><a xlink:title=" ">
<path fill="none" stroke="#63b8ff" d="M585.24,-497.41C602.72,-524.7 641.6,-578.97 689.5,-605.95 692.34,-607.55 695.3,-609.02 698.33,-610.36"/>
<polygon fill="#63b8ff" stroke="#63b8ff" points="696.92,-613.57 707.51,-613.93 699.46,-607.04 696.92,-613.57"/>
</a>
</g>
</g>
<!-- Node18 -->
<g id="Node000018" class="node">
<title>Node18</title>
<g id="a_Node000018"><a xlink:href="../../d5/d72/classLSM1x0A__LoRaWAN.html#ad320634e52d7ea907043cc50dd37c5b0" target="_top" xlink:title="Sets the LoRaWAN Device EUI (DevEUI).">
<polygon fill="white" stroke="#666666" points="869,-596.95 703.75,-596.95 703.75,-576.95 869,-576.95 869,-596.95"/>
<text text-anchor="middle" x="786.38" y="-583.45" font-family="Helvetica,sans-Serif" font-size="10.00">LSM1x0A_LoRaWAN::setDevEUI</text>
</a>
</g>
</g>
<!-- Node12&#45;&gt;Node18 -->
<g id="edge28_Node000012_Node000018" class="edge">
<title>Node12&#45;&gt;Node18</title>
<g id="a_edge28_Node000012_Node000018"><a xlink:title=" ">
<path fill="none" stroke="#63b8ff" d="M591.45,-497.21C612.27,-517.12 650.4,-550.34 689.5,-567.95 693.76,-569.87 698.22,-571.6 702.78,-573.15"/>
<polygon fill="#63b8ff" stroke="#63b8ff" points="701.53,-576.43 712.12,-576.02 703.59,-569.74 701.53,-576.43"/>
</a>
</g>
</g>
<!-- Node19 -->
<g id="Node000019" class="node">
<title>Node19</title>
<g id="a_Node000019"><a xlink:href="../../d5/d72/classLSM1x0A__LoRaWAN.html#a031023b0d2dd5db3c51c2db6ae7801cc" target="_top" xlink:title="Enables or disables the Duty Cycle limitation (EU regions mostly).">
<polygon fill="white" stroke="#666666" points="861.88,-558.95 710.88,-558.95 710.88,-526.95 861.88,-526.95 861.88,-558.95"/>
<text text-anchor="start" x="718.88" y="-545.45" font-family="Helvetica,sans-Serif" font-size="10.00">LSM1x0A_LoRaWAN::setDuty</text>
<text text-anchor="middle" x="786.38" y="-533.45" font-family="Helvetica,sans-Serif" font-size="10.00">Cycle</text>
</a>
</g>
</g>
<!-- Node12&#45;&gt;Node19 -->
<g id="edge30_Node000012_Node000019" class="edge">
<title>Node12&#45;&gt;Node19</title>
<g id="a_edge30_Node000012_Node000019"><a xlink:title=" ">
<path fill="none" stroke="#63b8ff" d="M631.01,-497.4C657.95,-505.35 690.48,-514.95 718.73,-523.28"/>
<polygon fill="#63b8ff" stroke="#63b8ff" points="717.69,-526.62 728.27,-526.1 719.67,-519.91 717.69,-526.62"/>
</a>
</g>
</g>
<!-- Node20 -->
<g id="Node000020" class="node">
<title>Node20</title>
<g id="a_Node000020"><a xlink:href="../../d5/d72/classLSM1x0A__LoRaWAN.html#a6b179d5825c49af0f391dfc539912f64" target="_top" xlink:title="Sets the delay for the Join1 receive window.">
<polygon fill="white" stroke="#666666" points="863,-470.95 709.75,-470.95 709.75,-438.95 863,-438.95 863,-470.95"/>
<text text-anchor="start" x="717.75" y="-457.45" font-family="Helvetica,sans-Serif" font-size="10.00">LSM1x0A_LoRaWAN::setJoin1</text>
<text text-anchor="middle" x="786.38" y="-445.45" font-family="Helvetica,sans-Serif" font-size="10.00">Delay</text>
</a>
</g>
</g>
<!-- Node12&#45;&gt;Node20 -->
<g id="edge32_Node000012_Node000020" class="edge">
<title>Node12&#45;&gt;Node20</title>
<g id="a_edge32_Node000012_Node000020"><a xlink:title=" ">
<path fill="none" stroke="#63b8ff" d="M647.86,-471.96C664.21,-469.94 681.72,-467.77 698.58,-465.69"/>
<polygon fill="#63b8ff" stroke="#63b8ff" points="698.55,-469.22 708.05,-464.52 697.69,-462.27 698.55,-469.22"/>
</a>
</g>
</g>
<!-- Node21 -->
<g id="Node000021" class="node">
<title>Node21</title>
<g id="a_Node000021"><a xlink:href="../../d5/d72/classLSM1x0A__LoRaWAN.html#a4545d0caad41558cdb9bae8286b104d8" target="_top" xlink:title="Sets the delay for the Join2 receive window.">
<polygon fill="white" stroke="#666666" points="863,-420.95 709.75,-420.95 709.75,-388.95 863,-388.95 863,-420.95"/>
<text text-anchor="start" x="717.75" y="-407.45" font-family="Helvetica,sans-Serif" font-size="10.00">LSM1x0A_LoRaWAN::setJoin2</text>
<text text-anchor="middle" x="786.38" y="-395.45" font-family="Helvetica,sans-Serif" font-size="10.00">Delay</text>
</a>
</g>
</g>
<!-- Node12&#45;&gt;Node21 -->
<g id="edge34_Node000012_Node000021" class="edge">
<title>Node12&#45;&gt;Node21</title>
<g id="a_edge34_Node000012_Node000021"><a xlink:title=" ">
<path fill="none" stroke="#63b8ff" d="M608.16,-464.52C630.67,-453.71 661.42,-439.8 689.5,-429.95 694.79,-428.09 700.29,-426.3 705.86,-424.59"/>
<polygon fill="#63b8ff" stroke="#63b8ff" points="706.57,-428.03 715.16,-421.84 704.58,-421.32 706.57,-428.03"/>
</a>
</g>
</g>
<!-- Node22 -->
<g id="Node000022" class="node">
<title>Node22</title>
<g id="a_Node000022"><a xlink:href="../../d5/d72/classLSM1x0A__LoRaWAN.html#a06bd50723ec1eb7e144c9141b2ec86fc" target="_top" xlink:title="Sets the LoRaWAN Network ID (NetID).">
<polygon fill="white" stroke="#666666" points="866.75,-370.95 706,-370.95 706,-350.95 866.75,-350.95 866.75,-370.95"/>
<text text-anchor="middle" x="786.38" y="-357.45" font-family="Helvetica,sans-Serif" font-size="10.00">LSM1x0A_LoRaWAN::setNwkID</text>
</a>
</g>
</g>
<!-- Node12&#45;&gt;Node22 -->
<g id="edge36_Node000012_Node000022" class="edge">
<title>Node12&#45;&gt;Node22</title>
<g id="a_edge36_Node000012_Node000022"><a xlink:title=" ">
<path fill="none" stroke="#63b8ff" d="M588.51,-464.74C608.1,-441.98 647.03,-400.98 689.5,-379.95 693.18,-378.13 697.01,-376.48 700.95,-374.99"/>
<polygon fill="#63b8ff" stroke="#63b8ff" points="701.76,-378.41 710.11,-371.9 699.52,-371.78 701.76,-378.41"/>
</a>
</g>
</g>
<!-- Node23 -->
<g id="Node000023" class="node">
<title>Node23</title>
<g id="a_Node000023"><a xlink:href="../../d5/d72/classLSM1x0A__LoRaWAN.html#aa70ada64d28ecca216bb62268e502adf" target="_top" xlink:title="Sets the delay for the RX1 receive window.">
<polygon fill="white" stroke="#666666" points="873.12,-332.95 699.62,-332.95 699.62,-312.95 873.12,-312.95 873.12,-332.95"/>
<text text-anchor="middle" x="786.38" y="-319.45" font-family="Helvetica,sans-Serif" font-size="10.00">LSM1x0A_LoRaWAN::setRx1Delay</text>
</a>
</g>
</g>
<!-- Node12&#45;&gt;Node23 -->
<g id="edge38_Node000012_Node000023" class="edge">
<title>Node12&#45;&gt;Node23</title>
<g id="a_edge38_Node000012_Node000023"><a xlink:title=" ">
<path fill="none" stroke="#63b8ff" d="M583.7,-464.54C599.9,-434.88 638.3,-372.58 689.5,-341.95 691.98,-340.46 694.56,-339.09 697.21,-337.82"/>
<polygon fill="#63b8ff" stroke="#63b8ff" points="698.46,-341.09 706.34,-334.02 695.76,-334.63 698.46,-341.09"/>
</a>
</g>
</g>
<!-- Node24 -->
<g id="Node000024" class="node">
<title>Node24</title>
<g id="a_Node000024"><a xlink:href="../../d5/d72/classLSM1x0A__LoRaWAN.html#a2cf4eff0181b6107d082bccefa24217b" target="_top" xlink:title="Sets the Data Rate (DR) specifically for the RX2 window.">
<polygon fill="white" stroke="#666666" points="881.38,-294.95 691.38,-294.95 691.38,-274.95 881.38,-274.95 881.38,-294.95"/>
<text text-anchor="middle" x="786.38" y="-281.45" font-family="Helvetica,sans-Serif" font-size="10.00">LSM1x0A_LoRaWAN::setRx2DataRate</text>
</a>
</g>
</g>
<!-- Node12&#45;&gt;Node24 -->
<g id="edge40_Node000012_Node000024" class="edge">
<title>Node12&#45;&gt;Node24</title>
<g id="a_edge40_Node000012_Node000024"><a xlink:title=" ">
<path fill="none" stroke="#63b8ff" d="M580.77,-464.61C593.65,-429.11 629.29,-344.84 689.5,-303.95 691.47,-302.61 693.52,-301.36 695.63,-300.19"/>
<polygon fill="#63b8ff" stroke="#63b8ff" points="696.96,-303.43 704.48,-295.97 693.95,-297.11 696.96,-303.43"/>
</a>
</g>
</g>
<!-- Node25 -->
<g id="Node000025" class="node">
<title>Node25</title>
<g id="a_Node000025"><a xlink:href="../../d5/d72/classLSM1x0A__LoRaWAN.html#a42d2137b475b57e19d891a5f1ac93221" target="_top" xlink:title="Sets the delay for the RX2 receive window.">
<polygon fill="white" stroke="#666666" points="873.12,-256.95 699.62,-256.95 699.62,-236.95 873.12,-236.95 873.12,-256.95"/>
<text text-anchor="middle" x="786.38" y="-243.45" font-family="Helvetica,sans-Serif" font-size="10.00">LSM1x0A_LoRaWAN::setRx2Delay</text>
</a>
</g>
</g>
<!-- Node12&#45;&gt;Node25 -->
<g id="edge42_Node000012_Node000025" class="edge">
<title>Node12&#45;&gt;Node25</title>
<g id="a_edge42_Node000012_Node000025"><a xlink:title=" ">
<path fill="none" stroke="#63b8ff" d="M578.84,-464.6C588.68,-423.89 620.11,-317.5 689.5,-265.95 691.09,-264.76 692.74,-263.65 694.43,-262.6"/>
<polygon fill="#63b8ff" stroke="#63b8ff" points="696.01,-265.72 703.23,-257.97 692.75,-259.53 696.01,-265.72"/>
</a>
</g>
</g>
<!-- Node26 -->
<g id="Node000026" class="node">
<title>Node26</title>
<g id="a_Node000026"><a xlink:href="../../d5/d72/classLSM1x0A__LoRaWAN.html#a689f7dfda1dfeae11ea397c2ddf2ad37" target="_top" xlink:title="Sets the precise frequency for the RX2 window.">
<polygon fill="white" stroke="#666666" points="883.25,-218.95 689.5,-218.95 689.5,-198.95 883.25,-198.95 883.25,-218.95"/>
<text text-anchor="middle" x="786.38" y="-205.45" font-family="Helvetica,sans-Serif" font-size="10.00">LSM1x0A_LoRaWAN::setRx2Frequency</text>
</a>
</g>
</g>
<!-- Node12&#45;&gt;Node26 -->
<g id="edge44_Node000012_Node000026" class="edge">
<title>Node12&#45;&gt;Node26</title>
<g id="a_edge44_Node000012_Node000026"><a xlink:title=" ">
<path fill="none" stroke="#63b8ff" d="M577.46,-464.5C584.51,-418.96 610.81,-290.44 689.5,-227.95 690.83,-226.89 692.2,-225.89 693.61,-224.94"/>
<polygon fill="#63b8ff" stroke="#63b8ff" points="695.11,-228.11 702.07,-220.12 691.65,-222.03 695.11,-228.11"/>
</a>
</g>
</g>
<!-- Node27 -->
<g id="Node000027" class="node">
<title>Node27</title>
<g id="a_Node000027"><a xlink:href="../../d5/d72/classLSM1x0A__LoRaWAN.html#a1df10d7ae6bf45b537d28d3d5c4b88d7" target="_top" xlink:title="Sets the transmission power index.">
<polygon fill="white" stroke="#666666" points="870.88,-180.95 701.88,-180.95 701.88,-160.95 870.88,-160.95 870.88,-180.95"/>
<text text-anchor="middle" x="786.38" y="-167.45" font-family="Helvetica,sans-Serif" font-size="10.00">LSM1x0A_LoRaWAN::setTxPower</text>
</a>
</g>
</g>
<!-- Node12&#45;&gt;Node27 -->
<g id="edge46_Node000012_Node000027" class="edge">
<title>Node12&#45;&gt;Node27</title>
<g id="a_edge46_Node000012_Node000027"><a xlink:title=" ">
<path fill="none" stroke="#63b8ff" d="M576.39,-464.65C580.8,-414.88 601.21,-263.73 689.5,-189.95 690.64,-189 691.8,-188.09 693,-187.23"/>
<polygon fill="#63b8ff" stroke="#63b8ff" points="694.68,-190.3 701.43,-182.14 691.06,-184.31 694.68,-190.3"/>
</a>
</g>
</g>
<!-- Node28 -->
<g id="Node000028" class="node">
<title>Node28</title>
<g id="a_Node000028"><a xlink:href="../../d5/d72/classLSM1x0A__LoRaWAN.html#a059fd6a9356c4ecadd5a98294da5952d" target="_top" xlink:title="Configures the number of repetitions for Unconfirmed uplinks.">
<polygon fill="white" stroke="#666666" points="873.88,-142.95 698.88,-142.95 698.88,-110.95 873.88,-110.95 873.88,-142.95"/>
<text text-anchor="start" x="706.88" y="-129.45" font-family="Helvetica,sans-Serif" font-size="10.00">LSM1x0A_LoRaWAN::setUnconfirm</text>
<text text-anchor="middle" x="786.38" y="-117.45" font-family="Helvetica,sans-Serif" font-size="10.00">Retry</text>
</a>
</g>
</g>
<!-- Node12&#45;&gt;Node28 -->
<g id="edge48_Node000012_Node000028" class="edge">
<title>Node12&#45;&gt;Node28</title>
<g id="a_edge48_Node000012_Node000028"><a xlink:title=" ">
<path fill="none" stroke="#63b8ff" d="M575.77,-464.75C578.4,-411.46 594.23,-239.96 689.5,-151.95 690.27,-151.23 691.07,-150.54 691.87,-149.86"/>
<polygon fill="#63b8ff" stroke="#63b8ff" points="693.72,-152.84 699.87,-144.21 689.69,-147.12 693.72,-152.84"/>
</a>
</g>
</g>
<!-- Node13&#45;&gt;Node2 -->
<g id="edge18_Node000013_Node000002" class="edge">
<title>Node13&#45;&gt;Node2</title>
<g id="a_edge18_Node000013_Node000002"><a xlink:title=" ">
<path fill="none" stroke="#63b8ff" d="M711.36,-778.49C602.14,-761.69 405.08,-725.64 353,-677.95 302.35,-631.57 279.12,-550.58 270,-508.34"/>
<polygon fill="#63b8ff" stroke="#63b8ff" points="273.48,-507.86 268.05,-498.76 266.62,-509.26 273.48,-507.86"/>
</a>
</g>
</g>
<!-- Node14&#45;&gt;Node2 -->
<g id="edge20_Node000014_Node000002" class="edge">
<title>Node14&#45;&gt;Node2</title>
<g id="a_edge20_Node000014_Node000002"><a xlink:title=" ">
<path fill="none" stroke="#63b8ff" d="M713.73,-740.46C605.67,-723.42 407.76,-687.03 353,-641.95 309.73,-606.32 284.37,-543.61 272.74,-507.88"/>
<polygon fill="#63b8ff" stroke="#63b8ff" points="276.21,-507.24 269.89,-498.74 269.52,-509.32 276.21,-507.24"/>
</a>
</g>
</g>
<!-- Node15&#45;&gt;Node2 -->
<g id="edge23_Node000015_Node000002" class="edge">
<title>Node15&#45;&gt;Node2</title>
<g id="a_edge23_Node000015_Node000002"><a xlink:title=" ">
<path fill="none" stroke="#63b8ff" d="M703.74,-696.13C594.33,-680.29 407.57,-648.15 353,-606.95 317.88,-580.43 291.49,-535.78 277.15,-507.37"/>
<polygon fill="#63b8ff" stroke="#63b8ff" points="280.46,-506.16 272.92,-498.71 274.17,-509.23 280.46,-506.16"/>
</a>
</g>
</g>
<!-- Node16&#45;&gt;Node2 -->
<g id="edge25_Node000016_Node000002" class="edge">
<title>Node16&#45;&gt;Node2</title>
<g id="a_edge25_Node000016_Node000002"><a xlink:title=" ">
<path fill="none" stroke="#63b8ff" d="M700.27,-660.63C608.56,-654.66 461.21,-634.71 353,-569.95 325.32,-553.38 300.14,-526.09 283.88,-506.09"/>
<polygon fill="#63b8ff" stroke="#63b8ff" points="286.74,-504.06 277.79,-498.39 281.25,-508.41 286.74,-504.06"/>
</a>
</g>
</g>
<!-- Node17&#45;&gt;Node2 -->
<g id="edge27_Node000017_Node000002" class="edge">
<title>Node17&#45;&gt;Node2</title>
<g id="a_edge27_Node000017_Node000002"><a xlink:title=" ">
<path fill="none" stroke="#63b8ff" d="M702.02,-618.09C612.76,-608.52 468.4,-586.49 353,-537.95 332.24,-529.22 310.99,-515.61 294.58,-503.88"/>
<polygon fill="#63b8ff" stroke="#63b8ff" points="296.87,-501.22 286.73,-498.14 292.74,-506.87 296.87,-501.22"/>
</a>
</g>
</g>
<!-- Node18&#45;&gt;Node2 -->
<g id="edge29_Node000018_Node000002" class="edge">
<title>Node18&#45;&gt;Node2</title>
<g id="a_edge29_Node000018_Node000002"><a xlink:title=" ">
<path fill="none" stroke="#63b8ff" d="M703.62,-576.91C616.03,-565.2 473.34,-543.35 353,-511.95 341.48,-508.94 329.32,-505.11 317.84,-501.17"/>
<polygon fill="#63b8ff" stroke="#63b8ff" points="319.1,-497.9 308.51,-497.88 316.78,-504.5 319.1,-497.9"/>
</a>
</g>
</g>
<!-- Node19&#45;&gt;Node2 -->
<g id="edge31_Node000019_Node000002" class="edge">
<title>Node19&#45;&gt;Node2</title>
<g id="a_edge31_Node000019_Node000002"><a xlink:title=" ">
<path fill="none" stroke="#63b8ff" d="M710.64,-534.04C607.96,-521.81 425.06,-500.02 328.6,-488.53"/>
<polygon fill="#63b8ff" stroke="#63b8ff" points="329.12,-485.06 318.78,-487.36 328.3,-492.01 329.12,-485.06"/>
</a>
</g>
</g>
<!-- Node20&#45;&gt;Node2 -->
<g id="edge33_Node000020_Node000002" class="edge">
<title>Node20&#45;&gt;Node2</title>
<g id="a_edge33_Node000020_Node000002"><a xlink:title=" ">
<path fill="none" stroke="#63b8ff" d="M709.5,-453.04C650.87,-452.09 567.73,-451.88 495,-455.95 438.62,-459.1 374.8,-466.33 328.72,-472.21"/>
<polygon fill="#63b8ff" stroke="#63b8ff" points="328.37,-468.72 318.9,-473.48 329.26,-475.67 328.37,-468.72"/>
</a>
</g>
</g>
<!-- Node21&#45;&gt;Node2 -->
<g id="edge35_Node000021_Node000002" class="edge">
<title>Node21&#45;&gt;Node2</title>
<g id="a_edge35_Node000021_Node000002"><a xlink:title=" ">
<path fill="none" stroke="#63b8ff" d="M709.38,-409.76C622.53,-416.18 476.46,-429.77 353,-454.95 344.33,-456.72 335.28,-458.94 326.42,-461.34"/>
<polygon fill="#63b8ff" stroke="#63b8ff" points="325.48,-457.97 316.8,-464.05 327.38,-464.71 325.48,-457.97"/>
</a>
</g>
</g>
<!-- Node22&#45;&gt;Node2 -->
<g id="edge37_Node000022_Node000002" class="edge">
<title>Node22&#45;&gt;Node2</title>
<g id="a_edge37_Node000022_Node000002"><a xlink:title=" ">
<path fill="none" stroke="#63b8ff" d="M705.71,-366.22C617.45,-373.87 471.88,-391.94 353,-432.95 334.51,-439.33 315.3,-449.35 299.56,-458.6"/>
<polygon fill="#63b8ff" stroke="#63b8ff" points="297.8,-455.57 291.05,-463.73 301.42,-461.56 297.8,-455.57"/>
</a>
</g>
</g>
<!-- Node23&#45;&gt;Node2 -->
<g id="edge39_Node000023_Node000002" class="edge">
<title>Node23&#45;&gt;Node2</title>
<g id="a_edge39_Node000023_Node000002"><a xlink:title=" ">
<path fill="none" stroke="#63b8ff" d="M699.24,-323.48C608.29,-327.36 463.1,-343.2 353,-400.95 326.76,-414.71 302.28,-438.19 285.84,-456.16"/>
<polygon fill="#63b8ff" stroke="#63b8ff" points="283.48,-453.54 279.45,-463.34 288.71,-458.2 283.48,-453.54"/>
</a>
</g>
</g>
<!-- Node24&#45;&gt;Node2 -->
<g id="edge41_Node000024_Node000002" class="edge">
<title>Node24&#45;&gt;Node2</title>
<g id="a_edge41_Node000024_Node000002"><a xlink:title=" ">
<path fill="none" stroke="#63b8ff" d="M691.15,-278.72C597.6,-277.21 453.94,-287.94 353,-355.95 316.5,-380.54 290.37,-425.71 276.48,-454.49"/>
<polygon fill="#63b8ff" stroke="#63b8ff" points="273.44,-452.73 272.4,-463.27 279.79,-455.68 273.44,-452.73"/>
</a>
</g>
</g>
<!-- Node25&#45;&gt;Node2 -->
<g id="edge43_Node000025_Node000002" class="edge">
<title>Node25&#45;&gt;Node2</title>
<g id="a_edge43_Node000025_Node000002"><a xlink:title=" ">
<path fill="none" stroke="#63b8ff" d="M715.6,-236.49C622.83,-226.6 458.34,-223.58 353,-304.95 304.36,-342.51 280.63,-414.19 270.81,-453.49"/>
<polygon fill="#63b8ff" stroke="#63b8ff" points="267.44,-452.56 268.55,-463.1 274.25,-454.17 267.44,-452.56"/>
</a>
</g>
</g>
<!-- Node26&#45;&gt;Node2 -->
<g id="edge45_Node000026_Node000002" class="edge">
<title>Node26&#45;&gt;Node2</title>
<g id="a_edge45_Node000026_Node000002"><a xlink:title=" ">
<path fill="none" stroke="#63b8ff" d="M689.17,-205.86C577.72,-204.31 403,-208.72 353,-248.95 289.11,-300.36 271.58,-403.6 266.79,-453.16"/>
<polygon fill="#63b8ff" stroke="#63b8ff" points="263.31,-452.77 265.95,-463.03 270.28,-453.36 263.31,-452.77"/>
</a>
</g>
</g>
<!-- Node27&#45;&gt;Node2 -->
<g id="edge47_Node000027_Node000002" class="edge">
<title>Node27&#45;&gt;Node2</title>
<g id="a_edge47_Node000027_Node000002"><a xlink:title=" ">
<path fill="none" stroke="#63b8ff" d="M738.67,-160.48C652.24,-144.01 465.89,-122.56 353,-212.95 278.19,-272.85 266.33,-397.78 264.9,-453.31"/>
<polygon fill="#63b8ff" stroke="#63b8ff" points="261.4,-453.1 264.75,-463.15 268.4,-453.21 261.4,-453.1"/>
</a>
</g>
</g>
<!-- Node28&#45;&gt;Node2 -->
<g id="edge49_Node000028_Node000002" class="edge">
<title>Node28&#45;&gt;Node2</title>
<g id="a_edge49_Node000028_Node000002"><a xlink:title=" ">
<path fill="none" stroke="#63b8ff" d="M698.49,-121.55C587.4,-116.57 403.37,-115.39 353,-157.95 307.15,-196.69 278,-383.18 268.45,-453.79"/>
<polygon fill="#63b8ff" stroke="#63b8ff" points="265.03,-452.95 267.19,-463.32 271.97,-453.87 265.03,-452.95"/>
</a>
</g>
</g>
<!-- Node30&#45;&gt;Node31 -->
<g id="edge52_Node000030_Node000031" class="edge">
<title>Node30&#45;&gt;Node31</title>
<g id="a_edge52_Node000030_Node000031"><a xlink:title=" ">
<path fill="none" stroke="#63b8ff" d="M627.73,-1092.44C645.89,-1094.34 666.86,-1096.54 687.47,-1098.7"/>
<polygon fill="#63b8ff" stroke="#63b8ff" points="687.04,-1102.17 697.35,-1099.73 687.77,-1095.21 687.04,-1102.17"/>
</a>
</g>
</g>
<!-- Node32 -->
<g id="Node000032" class="node">
<title>Node32</title>
<g id="a_Node000032"><a xlink:href="../../d6/d3c/classLSM1x0A__AtParser.html#a0ba6f927c54fceece22c17773d3f2600" target="_top" xlink:title="Sends a command and extracts a value from the response.">
<polygon fill="white" stroke="#666666" points="1101.38,-1124.95 927.12,-1124.95 927.12,-1092.95 1101.38,-1092.95 1101.38,-1124.95"/>
<text text-anchor="start" x="935.12" y="-1111.45" font-family="Helvetica,sans-Serif" font-size="10.00">LSM1x0A_AtParser::sendCommand</text>
<text text-anchor="middle" x="1014.25" y="-1099.45" font-family="Helvetica,sans-Serif" font-size="10.00">WithResponse</text>
</a>
</g>
</g>
<!-- Node31&#45;&gt;Node32 -->
<g id="edge53_Node000031_Node000032" class="edge">
<title>Node31&#45;&gt;Node32</title>
<g id="a_edge53_Node000031_Node000032"><a xlink:title=" ">
<path fill="none" stroke="#63b8ff" d="M873.74,-1108.95C887.49,-1108.95 901.81,-1108.95 915.8,-1108.95"/>
<polygon fill="#63b8ff" stroke="#63b8ff" points="915.42,-1112.45 925.42,-1108.95 915.42,-1105.45 915.42,-1112.45"/>
</a>
</g>
</g>
<!-- Node33 -->
<g id="Node000033" class="node">
<title>Node33</title>
<g id="a_Node000033"><a xlink:href="../../d5/d8b/classUartDriver.html#a5d0f22e8867eebe99273078bb19bd23d" target="_top" xlink:title="Sends data through UART.">
<polygon fill="white" stroke="#666666" points="1276,-1118.95 1167,-1118.95 1167,-1098.95 1276,-1098.95 1276,-1118.95"/>
<text text-anchor="middle" x="1221.5" y="-1105.45" font-family="Helvetica,sans-Serif" font-size="10.00">UartDriver::sendData</text>
</a>
</g>
</g>
<!-- Node32&#45;&gt;Node33 -->
<g id="edge54_Node000032_Node000033" class="edge">
<title>Node32&#45;&gt;Node33</title>
<g id="a_edge54_Node000032_Node000033"><a xlink:title=" ">
<path fill="none" stroke="#63b8ff" d="M1101.7,-1108.95C1119.59,-1108.95 1138.16,-1108.95 1155.14,-1108.95"/>
<polygon fill="#63b8ff" stroke="#63b8ff" points="1155.11,-1112.45 1165.11,-1108.95 1155.11,-1105.45 1155.11,-1112.45"/>
</a>
</g>
</g>
</g>
</svg>

<g id="navigator" transform="translate(0 0)" fill="#404254">
  <rect fill="#f2f5e9" fill-opacity="0.5" stroke="#606060" stroke-width=".5" x="0" y="0" width="60" height="60"/>
  <use id="zoomplus" xlink:href="#zoomPlus" x="17" y="9" onmousedown="handleZoom(evt,'in')"/>
  <use id="zoomminus" xlink:href="#zoomMin" x="42" y="9" onmousedown="handleZoom(evt,'out')"/>
  <use id="reset" xlink:href="#resetDef" x="30" y="36" onmousedown="handleReset()"/>
   <use id="arrowup" xlink:href="#arrowUp" x="0" y="0" onmousedown="handlePan(0,-1)"/>
  <use id="arrowright" xlink:href="#arrowRight" x="0" y="0" onmousedown="handlePan(1,0)"/>
  <use id="arrowdown" xlink:href="#arrowDown" x="0" y="0" onmousedown="handlePan(0,1)"/>
  <use id="arrowleft" xlink:href="#arrowLeft" x="0" y="0" onmousedown="handlePan(-1,0)"/>
</g>
<svg viewBox="0 0 15 15" width="100%" height="30px" preserveAspectRatio="xMaxYMin meet">
 <g id="arrow_out" transform="scale(0.3 0.3)">
  <a xlink:href="classLSM1x0A__LoRaWAN_a52376ba9af738d39f3e886d0542d7770_cgraph_org.svg" target="_base">
   <rect id="button" ry="5" rx="5" y="6" x="6" height="38" width="38"
        fill="#f2f5e9" fill-opacity="0.5" stroke="#606060" stroke-width="1.0"/>
   <path id="arrow"
     d="M 11.500037,31.436501 C 11.940474,20.09759 22.043105,11.32322 32.158766,21.979434 L 37.068811,17.246167 C 37.068811,17.246167 37.088388,32 37.088388,32 L 22.160133,31.978069 C 22.160133,31.978069 26.997745,27.140456 26.997745,27.140456 C 18.528582,18.264221 13.291696,25.230495 11.500037,31.436501 z"
     style="fill:#404040;"/>
  </a>
 </g>
</svg>

<style type='text/css'>
<![CDATA[
[data-mouse-over-selected='false'] { opacity: 0.7; }
[data-mouse-over-selected='true']  { opacity: 1.0; }
]]>
</style>
<script type="application/ecmascript"><![CDATA[
document.addEventListener('DOMContentLoaded', (event) => {
  highlightEdges();
  highlightAdjacentNodes();
});
]]></script>
</svg>
