<?xml version="1.0" encoding="UTF-8" standalone="no"?>
<!DOCTYPE svg PUBLIC "-//W3C//DTD SVG 1.1//EN"
 "http://www.w3.org/Graphics/SVG/1.1/DTD/svg11.dtd">
<!-- Generated by graphviz version 12.2.1 (20241206.2353)
 -->
<!-- Title: LSM1x0A_LoRaWAN::startContinuousModulationTx Pages: 1 -->
<svg width="1316pt" height="1143pt"
 viewBox="0.00 0.00 1316.25 1143.11" xmlns="http://www.w3.org/2000/svg" xmlns:xlink="http://www.w3.org/1999/xlink">
<g id="graph0" class="graph" transform="scale(1 1) rotate(0) translate(4 1139.11)">
<title>LSM1x0A_LoRaWAN::startContinuousModulationTx</title>
<!-- Node1 -->
<g id="Node000001" class="node">
<title>Node1</title>
<g id="a_Node000001"><a xlink:title="Transmits a continuous modulated LoRa signal.">
<polygon fill="#999999" stroke="#666666" points="185.5,-496.95 0,-496.95 0,-464.95 185.5,-464.95 185.5,-496.95"/>
<text text-anchor="start" x="8" y="-483.45" font-family="Helvetica,sans-Serif" font-size="10.00">LSM1x0A_LoRaWAN::startContinuous</text>
<text text-anchor="middle" x="92.75" y="-471.45" font-family="Helvetica,sans-Serif" font-size="10.00">ModulationTx</text>
</a>
</g>
</g>
<!-- Node2 -->
<g id="Node000002" class="node">
<title>Node2</title>
<g id="a_Node000002"><a xlink:href="../../d8/d92/classLSM1x0A__Controller.html#afd7d92e60ed6fdae696a955cdbe0ed8c" target="_top" xlink:title="Sends any AT command to the module, returning error if it fails. Internally uses the LsmAtParser logi...">
<polygon fill="white" stroke="#666666" points="327.5,-496.95 221.5,-496.95 221.5,-464.95 327.5,-464.95 327.5,-496.95"/>
<text text-anchor="start" x="229.5" y="-483.45" font-family="Helvetica,sans-Serif" font-size="10.00">LSM1x0A_Controller</text>
<text text-anchor="middle" x="274.5" y="-471.45" font-family="Helvetica,sans-Serif" font-size="10.00">::sendCommand</text>
</a>
</g>
</g>
<!-- Node1&#45;&gt;Node2 -->
<g id="edge1_Node000001_Node000002" class="edge">
<title>Node1&#45;&gt;Node2</title>
<g id="a_edge1_Node000001_Node000002"><a xlink:title=" ">
<path fill="none" stroke="#63b8ff" d="M185.99,-480.95C194.01,-480.95 202,-480.95 209.71,-480.95"/>
<polygon fill="#63b8ff" stroke="#63b8ff" points="209.64,-484.45 219.64,-480.95 209.64,-477.45 209.64,-484.45"/>
</a>
</g>
</g>
<!-- Node3 -->
<g id="Node000003" class="node">
<title>Node3</title>
<g id="a_Node000003"><a xlink:href="../../d8/d92/classLSM1x0A__Controller.html#abb0eb380daa3dfb7acffb483c5db8e2b" target="_top" xlink:title="Executes the recovery protocol. First Soft&#45;Reset (ATZ), then Hard&#45;Reset if there is a pin.">
<polygon fill="white" stroke="#666666" points="469.5,-938.95 363.5,-938.95 363.5,-906.95 469.5,-906.95 469.5,-938.95"/>
<text text-anchor="start" x="371.5" y="-925.45" font-family="Helvetica,sans-Serif" font-size="10.00">LSM1x0A_Controller</text>
<text text-anchor="middle" x="416.5" y="-913.45" font-family="Helvetica,sans-Serif" font-size="10.00">::recoverModule</text>
</a>
</g>
</g>
<!-- Node2&#45;&gt;Node3 -->
<g id="edge2_Node000002_Node000003" class="edge">
<title>Node2&#45;&gt;Node3</title>
<g id="a_edge2_Node000002_Node000003"><a xlink:title=" ">
<path fill="none" stroke="#63b8ff" d="M279.05,-497.39C289.61,-545.46 322.66,-689.56 363.5,-804.95 374.85,-837.01 391.04,-872.58 402.33,-896.2"/>
<polygon fill="#63b8ff" stroke="#63b8ff" points="399.13,-897.62 406.63,-905.1 405.43,-894.57 399.13,-897.62"/>
</a>
</g>
</g>
<!-- Node31 -->
<g id="Node000031" class="node">
<title>Node31</title>
<g id="a_Node000031"><a xlink:href="../../d6/d3c/classLSM1x0A__AtParser.html#a29b53c521974387ba6c03afadfaffa4a" target="_top" xlink:title="Sends a simple command and waits for OK/ERROR. Example: sendCommand(&quot;AT+JOIN&quot;);.">
<polygon fill="white" stroke="#666666" points="884,-1118.95 709.75,-1118.95 709.75,-1098.95 884,-1098.95 884,-1118.95"/>
<text text-anchor="middle" x="796.88" y="-1105.45" font-family="Helvetica,sans-Serif" font-size="10.00">LSM1x0A_AtParser::sendCommand</text>
</a>
</g>
</g>
<!-- Node2&#45;&gt;Node31 -->
<g id="edge55_Node000002_Node000031" class="edge">
<title>Node2&#45;&gt;Node31</title>
<g id="a_edge55_Node000002_Node000031"><a xlink:title=" ">
<path fill="none" stroke="#63b8ff" d="M275.56,-497.2C276.38,-559.15 284.92,-785.25 363.5,-947.95 405.43,-1034.77 417.81,-1071.88 505.5,-1111.95 583.26,-1147.48 685.41,-1134.62 745.52,-1121.89"/>
<polygon fill="#63b8ff" stroke="#63b8ff" points="746.11,-1125.34 755.12,-1119.77 744.6,-1118.51 746.11,-1125.34"/>
</a>
</g>
</g>
<!-- Node4 -->
<g id="Node000004" class="node">
<title>Node4</title>
<g id="a_Node000004"><a xlink:href="../../d8/d92/classLSM1x0A__Controller.html#a3f6f25b843fe4fb7042c544deae2ab16" target="_top" xlink:title="Manually clears bits from the internal EventGroup.">
<polygon fill="white" stroke="#666666" points="1077.75,-957.95 971.75,-957.95 971.75,-925.95 1077.75,-925.95 1077.75,-957.95"/>
<text text-anchor="start" x="979.75" y="-944.45" font-family="Helvetica,sans-Serif" font-size="10.00">LSM1x0A_Controller</text>
<text text-anchor="middle" x="1024.75" y="-932.45" font-family="Helvetica,sans-Serif" font-size="10.00">::clearEvents</text>
</a>
</g>
</g>
<!-- Node3&#45;&gt;Node4 -->
<g id="edge3_Node000003_Node000004" class="edge">
<title>Node3&#45;&gt;Node4</title>
<g id="a_edge3_Node000003_Node000004"><a xlink:title=" ">
<path fill="none" stroke="#63b8ff" d="M433.58,-939.29C450,-954.72 477.06,-976.82 505.5,-985.95 665.07,-1037.18 865.66,-991 963.93,-961.72"/>
<polygon fill="#63b8ff" stroke="#63b8ff" points="964.82,-965.11 973.37,-958.86 962.79,-958.41 964.82,-965.11"/>
</a>
</g>
</g>
<!-- Node5 -->
<g id="Node000005" class="node">
<title>Node5</title>
<g id="a_Node000005"><a xlink:href="../../d8/d92/classLSM1x0A__Controller.html#a345d4bd79fa16b18dc33a4ca788fe5f7" target="_top" xlink:title="Performs a hardware reset using the reset pin.">
<polygon fill="white" stroke="#666666" points="637.75,-938.95 531.75,-938.95 531.75,-906.95 637.75,-906.95 637.75,-938.95"/>
<text text-anchor="start" x="539.75" y="-925.45" font-family="Helvetica,sans-Serif" font-size="10.00">LSM1x0A_Controller</text>
<text text-anchor="middle" x="584.75" y="-913.45" font-family="Helvetica,sans-Serif" font-size="10.00">::hardwareReset</text>
</a>
</g>
</g>
<!-- Node3&#45;&gt;Node5 -->
<g id="edge4_Node000003_Node000005" class="edge">
<title>Node3&#45;&gt;Node5</title>
<g id="a_edge4_Node000003_Node000005"><a xlink:title=" ">
<path fill="none" stroke="#63b8ff" d="M469.65,-922.95C485.66,-922.95 503.47,-922.95 520.16,-922.95"/>
<polygon fill="#63b8ff" stroke="#63b8ff" points="519.99,-926.45 529.99,-922.95 519.99,-919.45 519.99,-926.45"/>
</a>
</g>
</g>
<!-- Node7 -->
<g id="Node000007" class="node">
<title>Node7</title>
<g id="a_Node000007"><a xlink:href="../../d5/d72/classLSM1x0A__LoRaWAN.html#a1892801e37c8cd67d37c76108d6f7d49" target="_top" xlink:title="Validates if the device is currently Joined to the network. (Either confirmed by OTAA or statically a...">
<polygon fill="white" stroke="#666666" points="1308.25,-926.95 1155.75,-926.95 1155.75,-906.95 1308.25,-906.95 1308.25,-926.95"/>
<text text-anchor="middle" x="1232" y="-913.45" font-family="Helvetica,sans-Serif" font-size="10.00">LSM1x0A_LoRaWAN::isJoined</text>
</a>
</g>
</g>
<!-- Node3&#45;&gt;Node7 -->
<g id="edge6_Node000003_Node000007" class="edge">
<title>Node3&#45;&gt;Node7</title>
<g id="a_edge6_Node000003_Node000007"><a xlink:title=" ">
<path fill="none" stroke="#63b8ff" d="M463.44,-939.25C465.58,-940.7 467.61,-942.26 469.5,-943.95 494.67,-966.51 476.49,-993.6 505.5,-1010.95 516.2,-1017.34 831.66,-1014.94 893.75,-1008.95 995.44,-999.13 1022.24,-997.44 1119.75,-966.95 1148.58,-957.93 1179.83,-943.44 1201.84,-932.37"/>
<polygon fill="#63b8ff" stroke="#63b8ff" points="1203.2,-935.61 1210.51,-927.94 1200.01,-929.38 1203.2,-935.61"/>
</a>
</g>
</g>
<!-- Node8 -->
<g id="Node000008" class="node">
<title>Node8</title>
<g id="a_Node000008"><a xlink:href="../../d5/d72/classLSM1x0A__LoRaWAN.html#a83e11c0e74ff9e0757db616ab1163424" target="_top" xlink:title="Attempts to recover a lost connection (re&#45;executes OTAA Join if dropped).">
<polygon fill="white" stroke="#666666" points="659.12,-850.95 510.38,-850.95 510.38,-818.95 659.12,-818.95 659.12,-850.95"/>
<text text-anchor="start" x="518.38" y="-837.45" font-family="Helvetica,sans-Serif" font-size="10.00">LSM1x0A_LoRaWAN::recover</text>
<text text-anchor="middle" x="584.75" y="-825.45" font-family="Helvetica,sans-Serif" font-size="10.00">Connection</text>
</a>
</g>
</g>
<!-- Node3&#45;&gt;Node8 -->
<g id="edge7_Node000003_Node000008" class="edge">
<title>Node3&#45;&gt;Node8</title>
<g id="a_edge7_Node000003_Node000008"><a xlink:title=" ">
<path fill="none" stroke="#63b8ff" d="M439.47,-906.53C456.8,-894.07 481.9,-877.07 505.5,-864.95 511.79,-861.72 518.5,-858.64 525.26,-855.76"/>
<polygon fill="#63b8ff" stroke="#63b8ff" points="526.53,-859.02 534.46,-851.99 523.88,-852.55 526.53,-859.02"/>
</a>
</g>
</g>
<!-- Node12 -->
<g id="Node000012" class="node">
<title>Node12</title>
<g id="a_Node000012"><a xlink:href="../../d5/d72/classLSM1x0A__LoRaWAN.html#ae3be4ce59dfa200369733317df356e97" target="_top" xlink:title="Pushes the RAM&#45;cached variables back down into the hardware module. Restores the operational state af...">
<polygon fill="white" stroke="#666666" points="658,-496.95 511.5,-496.95 511.5,-464.95 658,-464.95 658,-496.95"/>
<text text-anchor="start" x="519.5" y="-483.45" font-family="Helvetica,sans-Serif" font-size="10.00">LSM1x0A_LoRaWAN::restore</text>
<text text-anchor="middle" x="584.75" y="-471.45" font-family="Helvetica,sans-Serif" font-size="10.00">Config</text>
</a>
</g>
</g>
<!-- Node3&#45;&gt;Node12 -->
<g id="edge16_Node000003_Node000012" class="edge">
<title>Node3&#45;&gt;Node12</title>
<g id="a_edge16_Node000003_Node000012"><a xlink:title=" ">
<path fill="none" stroke="#63b8ff" d="M423.61,-906.69C448.51,-840.5 542.42,-590.84 573.61,-507.91"/>
<polygon fill="#63b8ff" stroke="#63b8ff" points="576.8,-509.36 577.05,-498.77 570.25,-506.9 576.8,-509.36"/>
</a>
</g>
</g>
<!-- Node29 -->
<g id="Node000029" class="node">
<title>Node29</title>
<g id="a_Node000029"><a xlink:href="../../d5/d72/classLSM1x0A__LoRaWAN.html#ace4b04396f1de1f4a54f513f5f378db7" target="_top" xlink:title="Manually overrides the internal joined state tracker.">
<polygon fill="white" stroke="#666666" points="664,-976.95 505.5,-976.95 505.5,-956.95 664,-956.95 664,-976.95"/>
<text text-anchor="middle" x="584.75" y="-963.45" font-family="Helvetica,sans-Serif" font-size="10.00">LSM1x0A_LoRaWAN::setJoined</text>
</a>
</g>
</g>
<!-- Node3&#45;&gt;Node29 -->
<g id="edge50_Node000003_Node000029" class="edge">
<title>Node3&#45;&gt;Node29</title>
<g id="a_edge50_Node000003_Node000029"><a xlink:title=" ">
<path fill="none" stroke="#63b8ff" d="M469.99,-938.22C481.66,-941.51 493.98,-944.91 505.5,-947.95 512.86,-949.89 520.62,-951.86 528.29,-953.76"/>
<polygon fill="#63b8ff" stroke="#63b8ff" points="527.38,-957.14 537.93,-956.13 529.05,-950.35 527.38,-957.14"/>
</a>
</g>
</g>
<!-- Node30 -->
<g id="Node000030" class="node">
<title>Node30</title>
<g id="a_Node000030"><a xlink:href="../../d8/d92/classLSM1x0A__Controller.html#a11ad21cb5ca33ec51346764a23bd485e" target="_top" xlink:title="Performs a software reset (ATZ Command).">
<polygon fill="white" stroke="#666666" points="637.75,-1102.95 531.75,-1102.95 531.75,-1070.95 637.75,-1070.95 637.75,-1102.95"/>
<text text-anchor="start" x="539.75" y="-1089.45" font-family="Helvetica,sans-Serif" font-size="10.00">LSM1x0A_Controller</text>
<text text-anchor="middle" x="584.75" y="-1077.45" font-family="Helvetica,sans-Serif" font-size="10.00">::softwareReset</text>
</a>
</g>
</g>
<!-- Node3&#45;&gt;Node30 -->
<g id="edge51_Node000003_Node000030" class="edge">
<title>Node3&#45;&gt;Node30</title>
<g id="a_edge51_Node000003_Node000030"><a xlink:title=" ">
<path fill="none" stroke="#63b8ff" d="M424.2,-939.34C436.39,-967.25 464.75,-1024.13 505.5,-1056.95 510.32,-1060.83 515.69,-1064.24 521.3,-1067.25"/>
<polygon fill="#63b8ff" stroke="#63b8ff" points="519.71,-1070.36 530.23,-1071.55 522.75,-1064.06 519.71,-1070.36"/>
</a>
</g>
</g>
<!-- Node6 -->
<g id="Node000006" class="node">
<title>Node6</title>
<g id="a_Node000006"><a xlink:href="../../d6/d3c/classLSM1x0A__AtParser.html#ad2839120da13e56132b95019419be1e5" target="_top" xlink:title="Waits for an event (like BOOTALERT) without sending any command. Useful for hardware reset where the ...">
<polygon fill="white" stroke="#666666" points="867.12,-938.95 726.62,-938.95 726.62,-906.95 867.12,-906.95 867.12,-938.95"/>
<text text-anchor="start" x="734.62" y="-925.45" font-family="Helvetica,sans-Serif" font-size="10.00">LSM1x0A_AtParser::waitFor</text>
<text text-anchor="middle" x="796.88" y="-913.45" font-family="Helvetica,sans-Serif" font-size="10.00">Event</text>
</a>
</g>
</g>
<!-- Node5&#45;&gt;Node6 -->
<g id="edge5_Node000005_Node000006" class="edge">
<title>Node5&#45;&gt;Node6</title>
<g id="a_edge5_Node000005_Node000006"><a xlink:title=" ">
<path fill="none" stroke="#63b8ff" d="M638.23,-922.95C661.42,-922.95 689.22,-922.95 714.96,-922.95"/>
<polygon fill="#63b8ff" stroke="#63b8ff" points="714.72,-926.45 724.72,-922.95 714.72,-919.45 714.72,-926.45"/>
</a>
</g>
</g>
<!-- Node9 -->
<g id="Node000009" class="node">
<title>Node9</title>
<g id="a_Node000009"><a xlink:href="../../d5/d72/classLSM1x0A__LoRaWAN.html#a59f781f3cfd30c11cd3973bcb10a7baa" target="_top" xlink:title="Initiates a LoRaWAN Network Join procedure. This is a blocking function until the module fires an eve...">
<polygon fill="white" stroke="#666666" points="862.62,-844.95 731.12,-844.95 731.12,-824.95 862.62,-824.95 862.62,-844.95"/>
<text text-anchor="middle" x="796.88" y="-831.45" font-family="Helvetica,sans-Serif" font-size="10.00">LSM1x0A_LoRaWAN::join</text>
</a>
</g>
</g>
<!-- Node8&#45;&gt;Node9 -->
<g id="edge8_Node000008_Node000009" class="edge">
<title>Node8&#45;&gt;Node9</title>
<g id="a_edge8_Node000008_Node000009"><a xlink:title=" ">
<path fill="none" stroke="#63b8ff" d="M659.54,-834.95C678.91,-834.95 699.85,-834.95 719.36,-834.95"/>
<polygon fill="#63b8ff" stroke="#63b8ff" points="719.15,-838.45 729.15,-834.95 719.15,-831.45 719.15,-838.45"/>
</a>
</g>
</g>
<!-- Node9&#45;&gt;Node2 -->
<g id="edge11_Node000009_Node000002" class="edge">
<title>Node9&#45;&gt;Node2</title>
<g id="a_edge11_Node000009_Node000002"><a xlink:title=" ">
<path fill="none" stroke="#63b8ff" d="M742.65,-824.5C684.02,-812.53 587.23,-791.38 505.5,-766.95 441.11,-747.69 411.23,-762.27 363.5,-714.95 305.23,-657.18 285.03,-557.13 278.45,-508.74"/>
<polygon fill="#63b8ff" stroke="#63b8ff" points="281.93,-508.33 277.22,-498.84 274.98,-509.2 281.93,-508.33"/>
</a>
</g>
</g>
<!-- Node9&#45;&gt;Node3 -->
<g id="edge10_Node000009_Node000003" class="edge">
<title>Node9&#45;&gt;Node3</title>
<g id="a_edge10_Node000009_Node000003"><a xlink:title=" ">
<path fill="none" stroke="#63b8ff" d="M742.65,-845.44C684.24,-857.21 587.82,-877.35 505.5,-897.95 497.56,-899.94 489.24,-902.14 481.03,-904.39"/>
<polygon fill="#63b8ff" stroke="#63b8ff" points="480.09,-901.01 471.4,-907.06 481.97,-907.76 480.09,-901.01"/>
</a>
</g>
</g>
<!-- Node9&#45;&gt;Node4 -->
<g id="edge9_Node000009_Node000004" class="edge">
<title>Node9&#45;&gt;Node4</title>
<g id="a_edge9_Node000009_Node000004"><a xlink:title=" ">
<path fill="none" stroke="#63b8ff" d="M819.94,-845.4C856.66,-862.79 930.98,-898 979.01,-920.75"/>
<polygon fill="#63b8ff" stroke="#63b8ff" points="977.22,-923.78 987.76,-924.9 980.22,-917.45 977.22,-923.78"/>
</a>
</g>
</g>
<!-- Node10 -->
<g id="Node000010" class="node">
<title>Node10</title>
<g id="a_Node000010"><a xlink:href="../../d5/d72/classLSM1x0A__LoRaWAN.html#a3fdd1ac318a5ad2559323e5d57e36a5e" target="_top" xlink:title="Enables or disables specific sub&#45;bands for regions supporting Channel Masks (e.g.,...">
<polygon fill="white" stroke="#666666" points="1119.75,-654.95 929.75,-654.95 929.75,-634.95 1119.75,-634.95 1119.75,-654.95"/>
<text text-anchor="middle" x="1024.75" y="-641.45" font-family="Helvetica,sans-Serif" font-size="10.00">LSM1x0A_LoRaWAN::setChannelMask</text>
</a>
</g>
</g>
<!-- Node9&#45;&gt;Node10 -->
<g id="edge12_Node000009_Node000010" class="edge">
<title>Node9&#45;&gt;Node10</title>
<g id="a_edge12_Node000009_Node000010"><a xlink:title=" ">
<path fill="none" stroke="#63b8ff" d="M857.18,-824.45C869.9,-820.55 882.8,-815.22 893.75,-807.95 950.62,-770.19 994.25,-699.61 1013.29,-665.05"/>
<polygon fill="#63b8ff" stroke="#63b8ff" points="1016.22,-666.98 1017.87,-656.52 1010.05,-663.67 1016.22,-666.98"/>
</a>
</g>
</g>
<!-- Node11 -->
<g id="Node000011" class="node">
<title>Node11</title>
<g id="a_Node000011"><a xlink:href="../../d8/d92/classLSM1x0A__Controller.html#a62476e30e50c7fe120aeb8df4b828675" target="_top" xlink:title="Synchronously/blockingly waits for an asynchronous event to occur. Useful for wrapping commands like ...">
<polygon fill="white" stroke="#666666" points="1077.75,-850.95 971.75,-850.95 971.75,-818.95 1077.75,-818.95 1077.75,-850.95"/>
<text text-anchor="start" x="979.75" y="-837.45" font-family="Helvetica,sans-Serif" font-size="10.00">LSM1x0A_Controller</text>
<text text-anchor="middle" x="1024.75" y="-825.45" font-family="Helvetica,sans-Serif" font-size="10.00">::waitForEvent</text>
</a>
</g>
</g>
<!-- Node9&#45;&gt;Node11 -->
<g id="edge15_Node000009_Node000011" class="edge">
<title>Node9&#45;&gt;Node11</title>
<g id="a_edge15_Node000009_Node000011"><a xlink:title=" ">
<path fill="none" stroke="#63b8ff" d="M862.9,-834.95C893.41,-834.95 929.65,-834.95 959.99,-834.95"/>
<polygon fill="#63b8ff" stroke="#63b8ff" points="959.8,-838.45 969.8,-834.95 959.8,-831.45 959.8,-838.45"/>
</a>
</g>
</g>
<!-- Node10&#45;&gt;Node2 -->
<g id="edge14_Node000010_Node000002" class="edge">
<title>Node10&#45;&gt;Node2</title>
<g id="a_edge14_Node000010_Node000002"><a xlink:title=" ">
<path fill="none" stroke="#63b8ff" d="M1022.97,-634.73C1017.52,-566.01 982.6,-172.04 893.75,-101.95 708.59,44.11 544.65,29.06 363.5,-121.95 311.92,-164.95 285.86,-377.61 278.07,-453.76"/>
<polygon fill="#63b8ff" stroke="#63b8ff" points="274.63,-452.96 277.12,-463.26 281.59,-453.65 274.63,-452.96"/>
</a>
</g>
</g>
<!-- Node10&#45;&gt;Node7 -->
<g id="edge13_Node000010_Node000007" class="edge">
<title>Node10&#45;&gt;Node7</title>
<g id="a_edge13_Node000010_Node000007"><a xlink:title=" ">
<path fill="none" stroke="#63b8ff" d="M1033.55,-655.28C1064.09,-695.76 1175.92,-843.95 1216.32,-897.49"/>
<polygon fill="#63b8ff" stroke="#63b8ff" points="1213.47,-899.52 1222.29,-905.4 1219.06,-895.31 1213.47,-899.52"/>
</a>
</g>
</g>
<!-- Node12&#45;&gt;Node10 -->
<g id="edge21_Node000012_Node000010" class="edge">
<title>Node12&#45;&gt;Node10</title>
<g id="a_edge21_Node000012_Node000010"><a xlink:title=" ">
<path fill="none" stroke="#63b8ff" d="M658.24,-484.29C735.9,-488.81 853.43,-498.64 893.75,-517.95 945.68,-542.82 989.63,-596.76 1010.59,-625.7"/>
<polygon fill="#63b8ff" stroke="#63b8ff" points="1007.52,-627.41 1016.15,-633.56 1013.24,-623.37 1007.52,-627.41"/>
</a>
</g>
</g>
<!-- Node13 -->
<g id="Node000013" class="node">
<title>Node13</title>
<g id="a_Node000013"><a xlink:href="../../d5/d72/classLSM1x0A__LoRaWAN.html#af0baa3db4c7fab580d6b19a9e92472f6" target="_top" xlink:title="Enables or disables Adaptive Data Rate (ADR).">
<polygon fill="white" stroke="#666666" points="872.75,-798.95 721,-798.95 721,-778.95 872.75,-778.95 872.75,-798.95"/>
<text text-anchor="middle" x="796.88" y="-785.45" font-family="Helvetica,sans-Serif" font-size="10.00">LSM1x0A_LoRaWAN::setADR</text>
</a>
</g>
</g>
<!-- Node12&#45;&gt;Node13 -->
<g id="edge17_Node000012_Node000013" class="edge">
<title>Node12&#45;&gt;Node13</title>
<g id="a_edge17_Node000012_Node000013"><a xlink:title=" ">
<path fill="none" stroke="#63b8ff" d="M586.93,-497.13C591.45,-546.58 612.15,-696.7 700,-769.95 703.25,-772.66 706.79,-775.03 710.51,-777.08"/>
<polygon fill="#63b8ff" stroke="#63b8ff" points="708.84,-780.17 719.38,-781.21 711.79,-773.82 708.84,-780.17"/>
</a>
</g>
</g>
<!-- Node14 -->
<g id="Node000014" class="node">
<title>Node14</title>
<g id="a_Node000014"><a xlink:href="../../d5/d72/classLSM1x0A__LoRaWAN.html#a5365ed1596eb84ebf1e3b33b4a10c788" target="_top" xlink:title="Sets the LoRaWAN operational frequency band.">
<polygon fill="white" stroke="#666666" points="873.12,-760.95 720.62,-760.95 720.62,-740.95 873.12,-740.95 873.12,-760.95"/>
<text text-anchor="middle" x="796.88" y="-747.45" font-family="Helvetica,sans-Serif" font-size="10.00">LSM1x0A_LoRaWAN::setBand</text>
</a>
</g>
</g>
<!-- Node12&#45;&gt;Node14 -->
<g id="edge19_Node000012_Node000014" class="edge">
<title>Node12&#45;&gt;Node14</title>
<g id="a_edge19_Node000012_Node000014"><a xlink:title=" ">
<path fill="none" stroke="#63b8ff" d="M588.01,-497.27C595.17,-542.46 621.73,-669.99 700,-731.95 703.16,-734.45 706.55,-736.64 710.11,-738.58"/>
<polygon fill="#63b8ff" stroke="#63b8ff" points="708.6,-741.74 719.15,-742.72 711.52,-735.37 708.6,-741.74"/>
</a>
</g>
</g>
<!-- Node15 -->
<g id="Node000015" class="node">
<title>Node15</title>
<g id="a_Node000015"><a xlink:href="../../d5/d72/classLSM1x0A__LoRaWAN.html#a9d9285c43414337a0ccb3a6cd7ca06e6" target="_top" xlink:title="Configures the number of retries for Confirmed uplinks.">
<polygon fill="white" stroke="#666666" points="879.12,-722.95 714.62,-722.95 714.62,-690.95 879.12,-690.95 879.12,-722.95"/>
<text text-anchor="start" x="722.62" y="-709.45" font-family="Helvetica,sans-Serif" font-size="10.00">LSM1x0A_LoRaWAN::setConfirm</text>
<text text-anchor="middle" x="796.88" y="-697.45" font-family="Helvetica,sans-Serif" font-size="10.00">Retry</text>
</a>
</g>
</g>
<!-- Node12&#45;&gt;Node15 -->
<g id="edge22_Node000012_Node000015" class="edge">
<title>Node12&#45;&gt;Node15</title>
<g id="a_edge22_Node000012_Node000015"><a xlink:title=" ">
<path fill="none" stroke="#63b8ff" d="M590.27,-497.42C601.73,-535.98 635.67,-632.59 700,-681.95 701.36,-682.99 702.77,-684 704.21,-684.96"/>
<polygon fill="#63b8ff" stroke="#63b8ff" points="702.43,-687.98 712.84,-689.96 705.94,-681.92 702.43,-687.98"/>
</a>
</g>
</g>
<!-- Node16 -->
<g id="Node000016" class="node">
<title>Node16</title>
<g id="a_Node000016"><a xlink:href="../../d5/d72/classLSM1x0A__LoRaWAN.html#a56345ceeafa0b9059d6de4e69eddc82e" target="_top" xlink:title="Sets the Data Rate (DR) of the module.">
<polygon fill="white" stroke="#666666" points="882.88,-672.95 710.88,-672.95 710.88,-652.95 882.88,-652.95 882.88,-672.95"/>
<text text-anchor="middle" x="796.88" y="-659.45" font-family="Helvetica,sans-Serif" font-size="10.00">LSM1x0A_LoRaWAN::setDataRate</text>
</a>
</g>
</g>
<!-- Node12&#45;&gt;Node16 -->
<g id="edge24_Node000012_Node000016" class="edge">
<title>Node12&#45;&gt;Node16</title>
<g id="a_edge24_Node000012_Node000016"><a xlink:title=" ">
<path fill="none" stroke="#63b8ff" d="M592.18,-497.26C606.24,-530.68 643.11,-606.87 700,-643.95 702.14,-645.34 704.35,-646.63 706.63,-647.84"/>
<polygon fill="#63b8ff" stroke="#63b8ff" points="705.05,-650.96 715.6,-651.92 707.95,-644.59 705.05,-650.96"/>
</a>
</g>
</g>
<!-- Node17 -->
<g id="Node000017" class="node">
<title>Node17</title>
<g id="a_Node000017"><a xlink:href="../../d5/d72/classLSM1x0A__LoRaWAN.html#a8494083816ab885cb07fc3b08de029f4" target="_top" xlink:title="Sets the LoRaWAN Device Address (DevAddr) for ABP mode.">
<polygon fill="white" stroke="#666666" points="881,-634.95 712.75,-634.95 712.75,-614.95 881,-614.95 881,-634.95"/>
<text text-anchor="middle" x="796.88" y="-621.45" font-family="Helvetica,sans-Serif" font-size="10.00">LSM1x0A_LoRaWAN::setDevAddr</text>
</a>
</g>
</g>
<!-- Node12&#45;&gt;Node17 -->
<g id="edge26_Node000012_Node000017" class="edge">
<title>Node12&#45;&gt;Node17</title>
<g id="a_edge26_Node000012_Node000017"><a xlink:title=" ">
<path fill="none" stroke="#63b8ff" d="M595.74,-497.41C613.22,-524.7 652.1,-578.97 700,-605.95 702.84,-607.55 705.8,-609.02 708.83,-610.36"/>
<polygon fill="#63b8ff" stroke="#63b8ff" points="707.42,-613.57 718.01,-613.93 709.96,-607.04 707.42,-613.57"/>
</a>
</g>
</g>
<!-- Node18 -->
<g id="Node000018" class="node">
<title>Node18</title>
<g id="a_Node000018"><a xlink:href="../../d5/d72/classLSM1x0A__LoRaWAN.html#ad320634e52d7ea907043cc50dd37c5b0" target="_top" xlink:title="Sets the LoRaWAN Device EUI (DevEUI).">
<polygon fill="white" stroke="#666666" points="879.5,-596.95 714.25,-596.95 714.25,-576.95 879.5,-576.95 879.5,-596.95"/>
<text text-anchor="middle" x="796.88" y="-583.45" font-family="Helvetica,sans-Serif" font-size="10.00">LSM1x0A_LoRaWAN::setDevEUI</text>
</a>
</g>
</g>
<!-- Node12&#45;&gt;Node18 -->
<g id="edge28_Node000012_Node000018" class="edge">
<title>Node12&#45;&gt;Node18</title>
<g id="a_edge28_Node000012_Node000018"><a xlink:title=" ">
<path fill="none" stroke="#63b8ff" d="M601.95,-497.21C622.77,-517.12 660.9,-550.34 700,-567.95 704.26,-569.87 708.72,-571.6 713.28,-573.15"/>
<polygon fill="#63b8ff" stroke="#63b8ff" points="712.03,-576.43 722.62,-576.02 714.09,-569.74 712.03,-576.43"/>
</a>
</g>
</g>
<!-- Node19 -->
<g id="Node000019" class="node">
<title>Node19</title>
<g id="a_Node000019"><a xlink:href="../../d5/d72/classLSM1x0A__LoRaWAN.html#a031023b0d2dd5db3c51c2db6ae7801cc" target="_top" xlink:title="Enables or disables the Duty Cycle limitation (EU regions mostly).">
<polygon fill="white" stroke="#666666" points="872.38,-558.95 721.38,-558.95 721.38,-526.95 872.38,-526.95 872.38,-558.95"/>
<text text-anchor="start" x="729.38" y="-545.45" font-family="Helvetica,sans-Serif" font-size="10.00">LSM1x0A_LoRaWAN::setDuty</text>
<text text-anchor="middle" x="796.88" y="-533.45" font-family="Helvetica,sans-Serif" font-size="10.00">Cycle</text>
</a>
</g>
</g>
<!-- Node12&#45;&gt;Node19 -->
<g id="edge30_Node000012_Node000019" class="edge">
<title>Node12&#45;&gt;Node19</title>
<g id="a_edge30_Node000012_Node000019"><a xlink:title=" ">
<path fill="none" stroke="#63b8ff" d="M641.51,-497.4C668.45,-505.35 700.98,-514.95 729.23,-523.28"/>
<polygon fill="#63b8ff" stroke="#63b8ff" points="728.19,-526.62 738.77,-526.1 730.17,-519.91 728.19,-526.62"/>
</a>
</g>
</g>
<!-- Node20 -->
<g id="Node000020" class="node">
<title>Node20</title>
<g id="a_Node000020"><a xlink:href="../../d5/d72/classLSM1x0A__LoRaWAN.html#a6b179d5825c49af0f391dfc539912f64" target="_top" xlink:title="Sets the delay for the Join1 receive window.">
<polygon fill="white" stroke="#666666" points="873.5,-470.95 720.25,-470.95 720.25,-438.95 873.5,-438.95 873.5,-470.95"/>
<text text-anchor="start" x="728.25" y="-457.45" font-family="Helvetica,sans-Serif" font-size="10.00">LSM1x0A_LoRaWAN::setJoin1</text>
<text text-anchor="middle" x="796.88" y="-445.45" font-family="Helvetica,sans-Serif" font-size="10.00">Delay</text>
</a>
</g>
</g>
<!-- Node12&#45;&gt;Node20 -->
<g id="edge32_Node000012_Node000020" class="edge">
<title>Node12&#45;&gt;Node20</title>
<g id="a_edge32_Node000012_Node000020"><a xlink:title=" ">
<path fill="none" stroke="#63b8ff" d="M658.36,-471.96C674.71,-469.94 692.22,-467.77 709.08,-465.69"/>
<polygon fill="#63b8ff" stroke="#63b8ff" points="709.05,-469.22 718.55,-464.52 708.19,-462.27 709.05,-469.22"/>
</a>
</g>
</g>
<!-- Node21 -->
<g id="Node000021" class="node">
<title>Node21</title>
<g id="a_Node000021"><a xlink:href="../../d5/d72/classLSM1x0A__LoRaWAN.html#a4545d0caad41558cdb9bae8286b104d8" target="_top" xlink:title="Sets the delay for the Join2 receive window.">
<polygon fill="white" stroke="#666666" points="873.5,-420.95 720.25,-420.95 720.25,-388.95 873.5,-388.95 873.5,-420.95"/>
<text text-anchor="start" x="728.25" y="-407.45" font-family="Helvetica,sans-Serif" font-size="10.00">LSM1x0A_LoRaWAN::setJoin2</text>
<text text-anchor="middle" x="796.88" y="-395.45" font-family="Helvetica,sans-Serif" font-size="10.00">Delay</text>
</a>
</g>
</g>
<!-- Node12&#45;&gt;Node21 -->
<g id="edge34_Node000012_Node000021" class="edge">
<title>Node12&#45;&gt;Node21</title>
<g id="a_edge34_Node000012_Node000021"><a xlink:title=" ">
<path fill="none" stroke="#63b8ff" d="M618.66,-464.52C641.17,-453.71 671.92,-439.8 700,-429.95 705.29,-428.09 710.79,-426.3 716.36,-424.59"/>
<polygon fill="#63b8ff" stroke="#63b8ff" points="717.07,-428.03 725.66,-421.84 715.08,-421.32 717.07,-428.03"/>
</a>
</g>
</g>
<!-- Node22 -->
<g id="Node000022" class="node">
<title>Node22</title>
<g id="a_Node000022"><a xlink:href="../../d5/d72/classLSM1x0A__LoRaWAN.html#a06bd50723ec1eb7e144c9141b2ec86fc" target="_top" xlink:title="Sets the LoRaWAN Network ID (NetID).">
<polygon fill="white" stroke="#666666" points="877.25,-370.95 716.5,-370.95 716.5,-350.95 877.25,-350.95 877.25,-370.95"/>
<text text-anchor="middle" x="796.88" y="-357.45" font-family="Helvetica,sans-Serif" font-size="10.00">LSM1x0A_LoRaWAN::setNwkID</text>
</a>
</g>
</g>
<!-- Node12&#45;&gt;Node22 -->
<g id="edge36_Node000012_Node000022" class="edge">
<title>Node12&#45;&gt;Node22</title>
<g id="a_edge36_Node000012_Node000022"><a xlink:title=" ">
<path fill="none" stroke="#63b8ff" d="M599.01,-464.74C618.6,-441.98 657.53,-400.98 700,-379.95 703.68,-378.13 707.51,-376.48 711.45,-374.99"/>
<polygon fill="#63b8ff" stroke="#63b8ff" points="712.26,-378.41 720.61,-371.9 710.02,-371.78 712.26,-378.41"/>
</a>
</g>
</g>
<!-- Node23 -->
<g id="Node000023" class="node">
<title>Node23</title>
<g id="a_Node000023"><a xlink:href="../../d5/d72/classLSM1x0A__LoRaWAN.html#aa70ada64d28ecca216bb62268e502adf" target="_top" xlink:title="Sets the delay for the RX1 receive window.">
<polygon fill="white" stroke="#666666" points="883.62,-332.95 710.12,-332.95 710.12,-312.95 883.62,-312.95 883.62,-332.95"/>
<text text-anchor="middle" x="796.88" y="-319.45" font-family="Helvetica,sans-Serif" font-size="10.00">LSM1x0A_LoRaWAN::setRx1Delay</text>
</a>
</g>
</g>
<!-- Node12&#45;&gt;Node23 -->
<g id="edge38_Node000012_Node000023" class="edge">
<title>Node12&#45;&gt;Node23</title>
<g id="a_edge38_Node000012_Node000023"><a xlink:title=" ">
<path fill="none" stroke="#63b8ff" d="M594.2,-464.54C610.4,-434.88 648.8,-372.58 700,-341.95 702.48,-340.46 705.06,-339.09 707.71,-337.82"/>
<polygon fill="#63b8ff" stroke="#63b8ff" points="708.96,-341.09 716.84,-334.02 706.26,-334.63 708.96,-341.09"/>
</a>
</g>
</g>
<!-- Node24 -->
<g id="Node000024" class="node">
<title>Node24</title>
<g id="a_Node000024"><a xlink:href="../../d5/d72/classLSM1x0A__LoRaWAN.html#a2cf4eff0181b6107d082bccefa24217b" target="_top" xlink:title="Sets the Data Rate (DR) specifically for the RX2 window.">
<polygon fill="white" stroke="#666666" points="891.88,-294.95 701.88,-294.95 701.88,-274.95 891.88,-274.95 891.88,-294.95"/>
<text text-anchor="middle" x="796.88" y="-281.45" font-family="Helvetica,sans-Serif" font-size="10.00">LSM1x0A_LoRaWAN::setRx2DataRate</text>
</a>
</g>
</g>
<!-- Node12&#45;&gt;Node24 -->
<g id="edge40_Node000012_Node000024" class="edge">
<title>Node12&#45;&gt;Node24</title>
<g id="a_edge40_Node000012_Node000024"><a xlink:title=" ">
<path fill="none" stroke="#63b8ff" d="M591.27,-464.61C604.15,-429.11 639.79,-344.84 700,-303.95 701.97,-302.61 704.02,-301.36 706.13,-300.19"/>
<polygon fill="#63b8ff" stroke="#63b8ff" points="707.46,-303.43 714.98,-295.97 704.45,-297.11 707.46,-303.43"/>
</a>
</g>
</g>
<!-- Node25 -->
<g id="Node000025" class="node">
<title>Node25</title>
<g id="a_Node000025"><a xlink:href="../../d5/d72/classLSM1x0A__LoRaWAN.html#a42d2137b475b57e19d891a5f1ac93221" target="_top" xlink:title="Sets the delay for the RX2 receive window.">
<polygon fill="white" stroke="#666666" points="883.62,-256.95 710.12,-256.95 710.12,-236.95 883.62,-236.95 883.62,-256.95"/>
<text text-anchor="middle" x="796.88" y="-243.45" font-family="Helvetica,sans-Serif" font-size="10.00">LSM1x0A_LoRaWAN::setRx2Delay</text>
</a>
</g>
</g>
<!-- Node12&#45;&gt;Node25 -->
<g id="edge42_Node000012_Node000025" class="edge">
<title>Node12&#45;&gt;Node25</title>
<g id="a_edge42_Node000012_Node000025"><a xlink:title=" ">
<path fill="none" stroke="#63b8ff" d="M589.34,-464.6C599.18,-423.89 630.61,-317.5 700,-265.95 701.59,-264.76 703.24,-263.65 704.93,-262.6"/>
<polygon fill="#63b8ff" stroke="#63b8ff" points="706.51,-265.72 713.73,-257.97 703.25,-259.53 706.51,-265.72"/>
</a>
</g>
</g>
<!-- Node26 -->
<g id="Node000026" class="node">
<title>Node26</title>
<g id="a_Node000026"><a xlink:href="../../d5/d72/classLSM1x0A__LoRaWAN.html#a689f7dfda1dfeae11ea397c2ddf2ad37" target="_top" xlink:title="Sets the precise frequency for the RX2 window.">
<polygon fill="white" stroke="#666666" points="893.75,-218.95 700,-218.95 700,-198.95 893.75,-198.95 893.75,-218.95"/>
<text text-anchor="middle" x="796.88" y="-205.45" font-family="Helvetica,sans-Serif" font-size="10.00">LSM1x0A_LoRaWAN::setRx2Frequency</text>
</a>
</g>
</g>
<!-- Node12&#45;&gt;Node26 -->
<g id="edge44_Node000012_Node000026" class="edge">
<title>Node12&#45;&gt;Node26</title>
<g id="a_edge44_Node000012_Node000026"><a xlink:title=" ">
<path fill="none" stroke="#63b8ff" d="M587.96,-464.5C595.01,-418.96 621.31,-290.44 700,-227.95 701.33,-226.89 702.7,-225.89 704.11,-224.94"/>
<polygon fill="#63b8ff" stroke="#63b8ff" points="705.61,-228.11 712.57,-220.12 702.15,-222.03 705.61,-228.11"/>
</a>
</g>
</g>
<!-- Node27 -->
<g id="Node000027" class="node">
<title>Node27</title>
<g id="a_Node000027"><a xlink:href="../../d5/d72/classLSM1x0A__LoRaWAN.html#a1df10d7ae6bf45b537d28d3d5c4b88d7" target="_top" xlink:title="Sets the transmission power index.">
<polygon fill="white" stroke="#666666" points="881.38,-180.95 712.38,-180.95 712.38,-160.95 881.38,-160.95 881.38,-180.95"/>
<text text-anchor="middle" x="796.88" y="-167.45" font-family="Helvetica,sans-Serif" font-size="10.00">LSM1x0A_LoRaWAN::setTxPower</text>
</a>
</g>
</g>
<!-- Node12&#45;&gt;Node27 -->
<g id="edge46_Node000012_Node000027" class="edge">
<title>Node12&#45;&gt;Node27</title>
<g id="a_edge46_Node000012_Node000027"><a xlink:title=" ">
<path fill="none" stroke="#63b8ff" d="M586.89,-464.65C591.3,-414.88 611.71,-263.73 700,-189.95 701.14,-189 702.3,-188.09 703.5,-187.23"/>
<polygon fill="#63b8ff" stroke="#63b8ff" points="705.18,-190.3 711.93,-182.14 701.56,-184.31 705.18,-190.3"/>
</a>
</g>
</g>
<!-- Node28 -->
<g id="Node000028" class="node">
<title>Node28</title>
<g id="a_Node000028"><a xlink:href="../../d5/d72/classLSM1x0A__LoRaWAN.html#a059fd6a9356c4ecadd5a98294da5952d" target="_top" xlink:title="Configures the number of repetitions for Unconfirmed uplinks.">
<polygon fill="white" stroke="#666666" points="884.38,-142.95 709.38,-142.95 709.38,-110.95 884.38,-110.95 884.38,-142.95"/>
<text text-anchor="start" x="717.38" y="-129.45" font-family="Helvetica,sans-Serif" font-size="10.00">LSM1x0A_LoRaWAN::setUnconfirm</text>
<text text-anchor="middle" x="796.88" y="-117.45" font-family="Helvetica,sans-Serif" font-size="10.00">Retry</text>
</a>
</g>
</g>
<!-- Node12&#45;&gt;Node28 -->
<g id="edge48_Node000012_Node000028" class="edge">
<title>Node12&#45;&gt;Node28</title>
<g id="a_edge48_Node000012_Node000028"><a xlink:title=" ">
<path fill="none" stroke="#63b8ff" d="M586.27,-464.75C588.9,-411.46 604.73,-239.96 700,-151.95 700.77,-151.23 701.57,-150.54 702.37,-149.86"/>
<polygon fill="#63b8ff" stroke="#63b8ff" points="704.22,-152.84 710.37,-144.21 700.19,-147.12 704.22,-152.84"/>
</a>
</g>
</g>
<!-- Node13&#45;&gt;Node2 -->
<g id="edge18_Node000013_Node000002" class="edge">
<title>Node13&#45;&gt;Node2</title>
<g id="a_edge18_Node000013_Node000002"><a xlink:title=" ">
<path fill="none" stroke="#63b8ff" d="M721.86,-778.49C612.64,-761.69 415.58,-725.64 363.5,-677.95 312.85,-631.57 289.62,-550.58 280.5,-508.34"/>
<polygon fill="#63b8ff" stroke="#63b8ff" points="283.98,-507.86 278.55,-498.76 277.12,-509.26 283.98,-507.86"/>
</a>
</g>
</g>
<!-- Node14&#45;&gt;Node2 -->
<g id="edge20_Node000014_Node000002" class="edge">
<title>Node14&#45;&gt;Node2</title>
<g id="a_edge20_Node000014_Node000002"><a xlink:title=" ">
<path fill="none" stroke="#63b8ff" d="M724.23,-740.46C616.17,-723.42 418.26,-687.03 363.5,-641.95 320.23,-606.32 294.87,-543.61 283.24,-507.88"/>
<polygon fill="#63b8ff" stroke="#63b8ff" points="286.71,-507.24 280.39,-498.74 280.02,-509.32 286.71,-507.24"/>
</a>
</g>
</g>
<!-- Node15&#45;&gt;Node2 -->
<g id="edge23_Node000015_Node000002" class="edge">
<title>Node15&#45;&gt;Node2</title>
<g id="a_edge23_Node000015_Node000002"><a xlink:title=" ">
<path fill="none" stroke="#63b8ff" d="M714.24,-696.13C604.83,-680.29 418.07,-648.15 363.5,-606.95 328.38,-580.43 301.99,-535.78 287.65,-507.37"/>
<polygon fill="#63b8ff" stroke="#63b8ff" points="290.96,-506.16 283.42,-498.71 284.67,-509.23 290.96,-506.16"/>
</a>
</g>
</g>
<!-- Node16&#45;&gt;Node2 -->
<g id="edge25_Node000016_Node000002" class="edge">
<title>Node16&#45;&gt;Node2</title>
<g id="a_edge25_Node000016_Node000002"><a xlink:title=" ">
<path fill="none" stroke="#63b8ff" d="M710.77,-660.63C619.06,-654.66 471.71,-634.71 363.5,-569.95 335.82,-553.38 310.64,-526.09 294.38,-506.09"/>
<polygon fill="#63b8ff" stroke="#63b8ff" points="297.24,-504.06 288.29,-498.39 291.75,-508.41 297.24,-504.06"/>
</a>
</g>
</g>
<!-- Node17&#45;&gt;Node2 -->
<g id="edge27_Node000017_Node000002" class="edge">
<title>Node17&#45;&gt;Node2</title>
<g id="a_edge27_Node000017_Node000002"><a xlink:title=" ">
<path fill="none" stroke="#63b8ff" d="M712.52,-618.09C623.26,-608.52 478.9,-586.49 363.5,-537.95 342.74,-529.22 321.49,-515.61 305.08,-503.88"/>
<polygon fill="#63b8ff" stroke="#63b8ff" points="307.37,-501.22 297.23,-498.14 303.24,-506.87 307.37,-501.22"/>
</a>
</g>
</g>
<!-- Node18&#45;&gt;Node2 -->
<g id="edge29_Node000018_Node000002" class="edge">
<title>Node18&#45;&gt;Node2</title>
<g id="a_edge29_Node000018_Node000002"><a xlink:title=" ">
<path fill="none" stroke="#63b8ff" d="M714.12,-576.91C626.53,-565.2 483.84,-543.35 363.5,-511.95 351.98,-508.94 339.82,-505.11 328.34,-501.17"/>
<polygon fill="#63b8ff" stroke="#63b8ff" points="329.6,-497.9 319.01,-497.88 327.28,-504.5 329.6,-497.9"/>
</a>
</g>
</g>
<!-- Node19&#45;&gt;Node2 -->
<g id="edge31_Node000019_Node000002" class="edge">
<title>Node19&#45;&gt;Node2</title>
<g id="a_edge31_Node000019_Node000002"><a xlink:title=" ">
<path fill="none" stroke="#63b8ff" d="M721.14,-534.04C618.46,-521.81 435.56,-500.02 339.1,-488.53"/>
<polygon fill="#63b8ff" stroke="#63b8ff" points="339.62,-485.06 329.28,-487.36 338.8,-492.01 339.62,-485.06"/>
</a>
</g>
</g>
<!-- Node20&#45;&gt;Node2 -->
<g id="edge33_Node000020_Node000002" class="edge">
<title>Node20&#45;&gt;Node2</title>
<g id="a_edge33_Node000020_Node000002"><a xlink:title=" ">
<path fill="none" stroke="#63b8ff" d="M720,-453.04C661.37,-452.09 578.23,-451.88 505.5,-455.95 449.12,-459.1 385.3,-466.33 339.22,-472.21"/>
<polygon fill="#63b8ff" stroke="#63b8ff" points="338.87,-468.72 329.4,-473.48 339.76,-475.67 338.87,-468.72"/>
</a>
</g>
</g>
<!-- Node21&#45;&gt;Node2 -->
<g id="edge35_Node000021_Node000002" class="edge">
<title>Node21&#45;&gt;Node2</title>
<g id="a_edge35_Node000021_Node000002"><a xlink:title=" ">
<path fill="none" stroke="#63b8ff" d="M719.88,-409.76C633.03,-416.18 486.96,-429.77 363.5,-454.95 354.83,-456.72 345.78,-458.94 336.92,-461.34"/>
<polygon fill="#63b8ff" stroke="#63b8ff" points="335.98,-457.97 327.3,-464.05 337.88,-464.71 335.98,-457.97"/>
</a>
</g>
</g>
<!-- Node22&#45;&gt;Node2 -->
<g id="edge37_Node000022_Node000002" class="edge">
<title>Node22&#45;&gt;Node2</title>
<g id="a_edge37_Node000022_Node000002"><a xlink:title=" ">
<path fill="none" stroke="#63b8ff" d="M716.21,-366.22C627.95,-373.87 482.38,-391.94 363.5,-432.95 345.01,-439.33 325.8,-449.35 310.06,-458.6"/>
<polygon fill="#63b8ff" stroke="#63b8ff" points="308.3,-455.57 301.55,-463.73 311.92,-461.56 308.3,-455.57"/>
</a>
</g>
</g>
<!-- Node23&#45;&gt;Node2 -->
<g id="edge39_Node000023_Node000002" class="edge">
<title>Node23&#45;&gt;Node2</title>
<g id="a_edge39_Node000023_Node000002"><a xlink:title=" ">
<path fill="none" stroke="#63b8ff" d="M709.74,-323.48C618.79,-327.36 473.6,-343.2 363.5,-400.95 337.26,-414.71 312.78,-438.19 296.34,-456.16"/>
<polygon fill="#63b8ff" stroke="#63b8ff" points="293.98,-453.54 289.95,-463.34 299.21,-458.2 293.98,-453.54"/>
</a>
</g>
</g>
<!-- Node24&#45;&gt;Node2 -->
<g id="edge41_Node000024_Node000002" class="edge">
<title>Node24&#45;&gt;Node2</title>
<g id="a_edge41_Node000024_Node000002"><a xlink:title=" ">
<path fill="none" stroke="#63b8ff" d="M701.65,-278.72C608.1,-277.21 464.44,-287.94 363.5,-355.95 327,-380.54 300.87,-425.71 286.98,-454.49"/>
<polygon fill="#63b8ff" stroke="#63b8ff" points="283.94,-452.73 282.9,-463.27 290.29,-455.68 283.94,-452.73"/>
</a>
</g>
</g>
<!-- Node25&#45;&gt;Node2 -->
<g id="edge43_Node000025_Node000002" class="edge">
<title>Node25&#45;&gt;Node2</title>
<g id="a_edge43_Node000025_Node000002"><a xlink:title=" ">
<path fill="none" stroke="#63b8ff" d="M726.1,-236.49C633.33,-226.6 468.84,-223.58 363.5,-304.95 314.86,-342.51 291.13,-414.19 281.31,-453.49"/>
<polygon fill="#63b8ff" stroke="#63b8ff" points="277.94,-452.56 279.05,-463.1 284.75,-454.17 277.94,-452.56"/>
</a>
</g>
</g>
<!-- Node26&#45;&gt;Node2 -->
<g id="edge45_Node000026_Node000002" class="edge">
<title>Node26&#45;&gt;Node2</title>
<g id="a_edge45_Node000026_Node000002"><a xlink:title=" ">
<path fill="none" stroke="#63b8ff" d="M699.67,-205.86C588.22,-204.31 413.5,-208.72 363.5,-248.95 299.61,-300.36 282.08,-403.6 277.29,-453.16"/>
<polygon fill="#63b8ff" stroke="#63b8ff" points="273.81,-452.77 276.45,-463.03 280.78,-453.36 273.81,-452.77"/>
</a>
</g>
</g>
<!-- Node27&#45;&gt;Node2 -->
<g id="edge47_Node000027_Node000002" class="edge">
<title>Node27&#45;&gt;Node2</title>
<g id="a_edge47_Node000027_Node000002"><a xlink:title=" ">
<path fill="none" stroke="#63b8ff" d="M749.17,-160.48C662.74,-144.01 476.39,-122.56 363.5,-212.95 288.69,-272.85 276.83,-397.78 275.4,-453.31"/>
<polygon fill="#63b8ff" stroke="#63b8ff" points="271.9,-453.1 275.25,-463.15 278.9,-453.21 271.9,-453.1"/>
</a>
</g>
</g>
<!-- Node28&#45;&gt;Node2 -->
<g id="edge49_Node000028_Node000002" class="edge">
<title>Node28&#45;&gt;Node2</title>
<g id="a_edge49_Node000028_Node000002"><a xlink:title=" ">
<path fill="none" stroke="#63b8ff" d="M708.99,-121.55C597.9,-116.57 413.87,-115.39 363.5,-157.95 317.65,-196.69 288.5,-383.18 278.95,-453.79"/>
<polygon fill="#63b8ff" stroke="#63b8ff" points="275.53,-452.95 277.69,-463.32 282.47,-453.87 275.53,-452.95"/>
</a>
</g>
</g>
<!-- Node30&#45;&gt;Node31 -->
<g id="edge52_Node000030_Node000031" class="edge">
<title>Node30&#45;&gt;Node31</title>
<g id="a_edge52_Node000030_Node000031"><a xlink:title=" ">
<path fill="none" stroke="#63b8ff" d="M638.23,-1092.44C656.39,-1094.34 677.36,-1096.54 697.97,-1098.7"/>
<polygon fill="#63b8ff" stroke="#63b8ff" points="697.54,-1102.17 707.85,-1099.73 698.27,-1095.21 697.54,-1102.17"/>
</a>
</g>
</g>
<!-- Node32 -->
<g id="Node000032" class="node">
<title>Node32</title>
<g id="a_Node000032"><a xlink:href="../../d6/d3c/classLSM1x0A__AtParser.html#a0ba6f927c54fceece22c17773d3f2600" target="_top" xlink:title="Sends a command and extracts a value from the response.">
<polygon fill="white" stroke="#666666" points="1111.88,-1124.95 937.62,-1124.95 937.62,-1092.95 1111.88,-1092.95 1111.88,-1124.95"/>
<text text-anchor="start" x="945.62" y="-1111.45" font-family="Helvetica,sans-Serif" font-size="10.00">LSM1x0A_AtParser::sendCommand</text>
<text text-anchor="middle" x="1024.75" y="-1099.45" font-family="Helvetica,sans-Serif" font-size="10.00">WithResponse</text>
</a>
</g>
</g>
<!-- Node31&#45;&gt;Node32 -->
<g id="edge53_Node000031_Node000032" class="edge">
<title>Node31&#45;&gt;Node32</title>
<g id="a_edge53_Node000031_Node000032"><a xlink:title=" ">
<path fill="none" stroke="#63b8ff" d="M884.24,-1108.95C897.99,-1108.95 912.31,-1108.95 926.3,-1108.95"/>
<polygon fill="#63b8ff" stroke="#63b8ff" points="925.92,-1112.45 935.92,-1108.95 925.92,-1105.45 925.92,-1112.45"/>
</a>
</g>
</g>
<!-- Node33 -->
<g id="Node000033" class="node">
<title>Node33</title>
<g id="a_Node000033"><a xlink:href="../../d5/d8b/classUartDriver.html#a5d0f22e8867eebe99273078bb19bd23d" target="_top" xlink:title="Sends data through UART.">
<polygon fill="white" stroke="#666666" points="1286.5,-1118.95 1177.5,-1118.95 1177.5,-1098.95 1286.5,-1098.95 1286.5,-1118.95"/>
<text text-anchor="middle" x="1232" y="-1105.45" font-family="Helvetica,sans-Serif" font-size="10.00">UartDriver::sendData</text>
</a>
</g>
</g>
<!-- Node32&#45;&gt;Node33 -->
<g id="edge54_Node000032_Node000033" class="edge">
<title>Node32&#45;&gt;Node33</title>
<g id="a_edge54_Node000032_Node000033"><a xlink:title=" ">
<path fill="none" stroke="#63b8ff" d="M1112.2,-1108.95C1130.09,-1108.95 1148.66,-1108.95 1165.64,-1108.95"/>
<polygon fill="#63b8ff" stroke="#63b8ff" points="1165.61,-1112.45 1175.61,-1108.95 1165.61,-1105.45 1165.61,-1112.45"/>
</a>
</g>
</g>
</g>
</svg>
