<?xml version="1.0" encoding="UTF-8" standalone="no"?>
<!DOCTYPE svg PUBLIC "-//W3C//DTD SVG 1.1//EN"
 "http://www.w3.org/Graphics/SVG/1.1/DTD/svg11.dtd">
<!-- Generated by graphviz version 12.2.1 (20241206.2353)
 -->
<!-- Title: LSM1x0A_LoRaWAN::getDevAddr Pages: 1 -->
<svg width="1868pt" height="1018pt"
 viewBox="0.00 0.00 1867.50 1018.48" xmlns="http://www.w3.org/2000/svg" xmlns:xlink="http://www.w3.org/1999/xlink">
<g id="graph0" class="graph" transform="scale(1 1) rotate(0) translate(4 1014.48)">
<title>LSM1x0A_LoRaWAN::getDevAddr</title>
<!-- Node1 -->
<g id="Node000001" class="node">
<title>Node1</title>
<g id="a_Node000001"><a xlink:title="Retrieves the assigned DevAddr.">
<polygon fill="#999999" stroke="#666666" points="168.25,-98 0,-98 0,-78 168.25,-78 168.25,-98"/>
<text text-anchor="middle" x="84.12" y="-84.5" font-family="Helvetica,sans-Serif" font-size="10.00">LSM1x0A_LoRaWAN::getDevAddr</text>
</a>
</g>
</g>
<!-- Node2 -->
<g id="Node000002" class="node">
<title>Node2</title>
<g id="a_Node000002"><a xlink:href="../../d8/d92/classLSM1x0A__Controller.html#ab00328d1be83aa51bce8c2a4f907c5f4" target="_top" xlink:title="Sends an AT command and captures its response in a text block. Ideal for getters (e....">
<polygon fill="white" stroke="#666666" points="356.75,-104 204.25,-104 204.25,-72 356.75,-72 356.75,-104"/>
<text text-anchor="start" x="212.25" y="-90.5" font-family="Helvetica,sans-Serif" font-size="10.00">LSM1x0A_Controller</text>
<text text-anchor="middle" x="280.5" y="-78.5" font-family="Helvetica,sans-Serif" font-size="10.00">::sendCommandWithResponse</text>
</a>
</g>
</g>
<!-- Node1&#45;&gt;Node2 -->
<g id="edge1_Node000001_Node000002" class="edge">
<title>Node1&#45;&gt;Node2</title>
<g id="a_edge1_Node000001_Node000002"><a xlink:title=" ">
<path fill="none" stroke="#63b8ff" d="M168.69,-88C176.57,-88 184.57,-88 192.48,-88"/>
<polygon fill="#63b8ff" stroke="#63b8ff" points="192.47,-91.5 202.47,-88 192.47,-84.5 192.47,-91.5"/>
</a>
</g>
</g>
<!-- Node3 -->
<g id="Node000003" class="node">
<title>Node3</title>
<g id="a_Node000003"><a xlink:href="../../d8/d92/classLSM1x0A__Controller.html#abb0eb380daa3dfb7acffb483c5db8e2b" target="_top" xlink:title="Executes the recovery protocol. First Soft&#45;Reset (ATZ), then Hard&#45;Reset if there is a pin.">
<polygon fill="white" stroke="#666666" points="498.75,-214 392.75,-214 392.75,-182 498.75,-182 498.75,-214"/>
<text text-anchor="start" x="400.75" y="-200.5" font-family="Helvetica,sans-Serif" font-size="10.00">LSM1x0A_Controller</text>
<text text-anchor="middle" x="445.75" y="-188.5" font-family="Helvetica,sans-Serif" font-size="10.00">::recoverModule</text>
</a>
</g>
</g>
<!-- Node2&#45;&gt;Node3 -->
<g id="edge2_Node000002_Node000003" class="edge">
<title>Node2&#45;&gt;Node3</title>
<g id="a_edge2_Node000002_Node000003"><a xlink:title=" ">
<path fill="none" stroke="#63b8ff" d="M305.94,-104.47C333.91,-123.32 379.89,-154.29 411.2,-175.39"/>
<polygon fill="#63b8ff" stroke="#63b8ff" points="408.91,-178.07 419.15,-180.75 412.82,-172.26 408.91,-178.07"/>
</a>
</g>
</g>
<!-- Node12 -->
<g id="Node000012" class="node">
<title>Node12</title>
<g id="a_Node000012"><a xlink:href="../../d6/d3c/classLSM1x0A__AtParser.html#a0ba6f927c54fceece22c17773d3f2600" target="_top" xlink:title="Sends a command and extracts a value from the response.">
<polygon fill="white" stroke="#666666" points="1714.5,-287 1540.25,-287 1540.25,-255 1714.5,-255 1714.5,-287"/>
<text text-anchor="start" x="1548.25" y="-273.5" font-family="Helvetica,sans-Serif" font-size="10.00">LSM1x0A_AtParser::sendCommand</text>
<text text-anchor="middle" x="1627.38" y="-261.5" font-family="Helvetica,sans-Serif" font-size="10.00">WithResponse</text>
</a>
</g>
</g>
<!-- Node2&#45;&gt;Node12 -->
<g id="edge57_Node000002_Node000012" class="edge">
<title>Node2&#45;&gt;Node12</title>
<g id="a_edge57_Node000002_Node000012"><a xlink:title=" ">
<path fill="none" stroke="#63b8ff" d="M317.94,-71.65C378.11,-46.21 502.54,0 613,0 613,0 613,0 1218.75,0 1395.69,0 1554.45,-179.26 1607.56,-246.19"/>
<polygon fill="#63b8ff" stroke="#63b8ff" points="1604.49,-247.95 1613.41,-253.67 1610,-243.64 1604.49,-247.95"/>
</a>
</g>
</g>
<!-- Node4 -->
<g id="Node000004" class="node">
<title>Node4</title>
<g id="a_Node000004"><a xlink:href="../../d8/d92/classLSM1x0A__Controller.html#a3f6f25b843fe4fb7042c544deae2ab16" target="_top" xlink:title="Manually clears bits from the internal EventGroup.">
<polygon fill="white" stroke="#666666" points="1061.62,-98 955.62,-98 955.62,-66 1061.62,-66 1061.62,-98"/>
<text text-anchor="start" x="963.62" y="-84.5" font-family="Helvetica,sans-Serif" font-size="10.00">LSM1x0A_Controller</text>
<text text-anchor="middle" x="1008.62" y="-72.5" font-family="Helvetica,sans-Serif" font-size="10.00">::clearEvents</text>
</a>
</g>
</g>
<!-- Node3&#45;&gt;Node4 -->
<g id="edge3_Node000003_Node000004" class="edge">
<title>Node3&#45;&gt;Node4</title>
<g id="a_edge3_Node000003_Node000004"><a xlink:title=" ">
<path fill="none" stroke="#63b8ff" d="M471.43,-181.53C488.48,-171 512.09,-158.03 534.75,-151 680.4,-105.82 725.48,-138.94 875.75,-113 898.25,-109.12 922.65,-103.72 944.27,-98.52"/>
<polygon fill="#63b8ff" stroke="#63b8ff" points="944.95,-101.96 953.83,-96.18 943.28,-95.16 944.95,-101.96"/>
</a>
</g>
</g>
<!-- Node5 -->
<g id="Node000005" class="node">
<title>Node5</title>
<g id="a_Node000005"><a xlink:href="../../d8/d92/classLSM1x0A__Controller.html#a345d4bd79fa16b18dc33a4ca788fe5f7" target="_top" xlink:title="Performs a hardware reset using the reset pin.">
<polygon fill="white" stroke="#666666" points="667,-104 561,-104 561,-72 667,-72 667,-104"/>
<text text-anchor="start" x="569" y="-90.5" font-family="Helvetica,sans-Serif" font-size="10.00">LSM1x0A_Controller</text>
<text text-anchor="middle" x="614" y="-78.5" font-family="Helvetica,sans-Serif" font-size="10.00">::hardwareReset</text>
</a>
</g>
</g>
<!-- Node3&#45;&gt;Node5 -->
<g id="edge4_Node000003_Node000005" class="edge">
<title>Node3&#45;&gt;Node5</title>
<g id="a_edge4_Node000003_Node000005"><a xlink:title=" ">
<path fill="none" stroke="#63b8ff" d="M461.21,-181.63C477.57,-163.93 505.74,-135.86 534.75,-118 540.02,-114.76 545.69,-111.77 551.49,-109.03"/>
<polygon fill="#63b8ff" stroke="#63b8ff" points="552.89,-112.24 560.63,-104.99 550.06,-105.83 552.89,-112.24"/>
</a>
</g>
</g>
<!-- Node7 -->
<g id="Node000007" class="node">
<title>Node7</title>
<g id="a_Node000007"><a xlink:href="../../d5/d72/classLSM1x0A__LoRaWAN.html#a1892801e37c8cd67d37c76108d6f7d49" target="_top" xlink:title="Validates if the device is currently Joined to the network. (Either confirmed by OTAA or statically a...">
<polygon fill="white" stroke="#666666" points="1294,-136 1141.5,-136 1141.5,-116 1294,-116 1294,-136"/>
<text text-anchor="middle" x="1217.75" y="-122.5" font-family="Helvetica,sans-Serif" font-size="10.00">LSM1x0A_LoRaWAN::isJoined</text>
</a>
</g>
</g>
<!-- Node3&#45;&gt;Node7 -->
<g id="edge6_Node000003_Node000007" class="edge">
<title>Node3&#45;&gt;Node7</title>
<g id="a_edge6_Node000003_Node000007"><a xlink:title=" ">
<path fill="none" stroke="#63b8ff" d="M451.68,-181.77C461.74,-151.92 487.73,-88.97 534.75,-63 645.79,-1.69 983.51,-22.24 1105.5,-57 1140.57,-66.99 1175.37,-91.56 1196.47,-108.51"/>
<polygon fill="#63b8ff" stroke="#63b8ff" points="1194.05,-111.05 1203.99,-114.72 1198.51,-105.65 1194.05,-111.05"/>
</a>
</g>
</g>
<!-- Node8 -->
<g id="Node000008" class="node">
<title>Node8</title>
<g id="a_Node000008"><a xlink:href="../../d5/d72/classLSM1x0A__LoRaWAN.html#a83e11c0e74ff9e0757db616ab1163424" target="_top" xlink:title="Attempts to recover a lost connection (re&#45;executes OTAA Join if dropped).">
<polygon fill="white" stroke="#666666" points="688.38,-192 539.62,-192 539.62,-160 688.38,-160 688.38,-192"/>
<text text-anchor="start" x="547.62" y="-178.5" font-family="Helvetica,sans-Serif" font-size="10.00">LSM1x0A_LoRaWAN::recover</text>
<text text-anchor="middle" x="614" y="-166.5" font-family="Helvetica,sans-Serif" font-size="10.00">Connection</text>
</a>
</g>
</g>
<!-- Node3&#45;&gt;Node8 -->
<g id="edge7_Node000003_Node000008" class="edge">
<title>Node3&#45;&gt;Node8</title>
<g id="a_edge7_Node000003_Node000008"><a xlink:title=" ">
<path fill="none" stroke="#63b8ff" d="M498.9,-191.1C508.24,-189.86 518.19,-188.55 528.17,-187.23"/>
<polygon fill="#63b8ff" stroke="#63b8ff" points="528.47,-190.72 537.92,-185.94 527.55,-183.78 528.47,-190.72"/>
</a>
</g>
</g>
<!-- Node16 -->
<g id="Node000016" class="node">
<title>Node16</title>
<g id="a_Node000016"><a xlink:href="../../d5/d72/classLSM1x0A__LoRaWAN.html#ae3be4ce59dfa200369733317df356e97" target="_top" xlink:title="Pushes the RAM&#45;cached variables back down into the hardware module. Restores the operational state af...">
<polygon fill="white" stroke="#666666" points="875.75,-539 729.25,-539 729.25,-507 875.75,-507 875.75,-539"/>
<text text-anchor="start" x="737.25" y="-525.5" font-family="Helvetica,sans-Serif" font-size="10.00">LSM1x0A_LoRaWAN::restore</text>
<text text-anchor="middle" x="802.5" y="-513.5" font-family="Helvetica,sans-Serif" font-size="10.00">Config</text>
</a>
</g>
</g>
<!-- Node3&#45;&gt;Node16 -->
<g id="edge20_Node000003_Node000016" class="edge">
<title>Node3&#45;&gt;Node16</title>
<g id="a_edge20_Node000003_Node000016"><a xlink:title=" ">
<path fill="none" stroke="#63b8ff" d="M464.34,-214.12C522.26,-267.18 707.19,-436.6 775.67,-499.34"/>
<polygon fill="#63b8ff" stroke="#63b8ff" points="772.95,-501.59 782.69,-505.76 777.68,-496.43 772.95,-501.59"/>
</a>
</g>
</g>
<!-- Node33 -->
<g id="Node000033" class="node">
<title>Node33</title>
<g id="a_Node000033"><a xlink:href="../../d5/d72/classLSM1x0A__LoRaWAN.html#ace4b04396f1de1f4a54f513f5f378db7" target="_top" xlink:title="Manually overrides the internal joined state tracker.">
<polygon fill="white" stroke="#666666" points="693.25,-939 534.75,-939 534.75,-919 693.25,-919 693.25,-939"/>
<text text-anchor="middle" x="614" y="-925.5" font-family="Helvetica,sans-Serif" font-size="10.00">LSM1x0A_LoRaWAN::setJoined</text>
</a>
</g>
</g>
<!-- Node3&#45;&gt;Node33 -->
<g id="edge54_Node000003_Node000033" class="edge">
<title>Node3&#45;&gt;Node33</title>
<g id="a_edge54_Node000003_Node000033"><a xlink:title=" ">
<path fill="none" stroke="#63b8ff" d="M446.47,-214.4C445.15,-310.08 443.08,-795.83 534.75,-905 537.17,-907.88 539.93,-910.43 542.93,-912.67"/>
<polygon fill="#63b8ff" stroke="#63b8ff" points="540.91,-915.54 551.27,-917.75 544.55,-909.56 540.91,-915.54"/>
</a>
</g>
</g>
<!-- Node34 -->
<g id="Node000034" class="node">
<title>Node34</title>
<g id="a_Node000034"><a xlink:href="../../d8/d92/classLSM1x0A__Controller.html#a11ad21cb5ca33ec51346764a23bd485e" target="_top" xlink:title="Performs a software reset (ATZ Command).">
<polygon fill="white" stroke="#666666" points="1270.75,-795 1164.75,-795 1164.75,-763 1270.75,-763 1270.75,-795"/>
<text text-anchor="start" x="1172.75" y="-781.5" font-family="Helvetica,sans-Serif" font-size="10.00">LSM1x0A_Controller</text>
<text text-anchor="middle" x="1217.75" y="-769.5" font-family="Helvetica,sans-Serif" font-size="10.00">::softwareReset</text>
</a>
</g>
</g>
<!-- Node3&#45;&gt;Node34 -->
<g id="edge55_Node000003_Node000034" class="edge">
<title>Node3&#45;&gt;Node34</title>
<g id="a_edge55_Node000003_Node000034"><a xlink:title=" ">
<path fill="none" stroke="#63b8ff" d="M447.39,-214.18C451.66,-318.83 477.75,-897.3 534.75,-948 599.94,-1005.99 867.89,-1058.87 1105.5,-932 1156.96,-904.52 1190.57,-841.52 1206.32,-805.51"/>
<polygon fill="#63b8ff" stroke="#63b8ff" points="1209.39,-807.25 1210.05,-796.67 1202.94,-804.53 1209.39,-807.25"/>
</a>
</g>
</g>
<!-- Node6 -->
<g id="Node000006" class="node">
<title>Node6</title>
<g id="a_Node000006"><a xlink:href="../../d6/d3c/classLSM1x0A__AtParser.html#ad2839120da13e56132b95019419be1e5" target="_top" xlink:title="Waits for an event (like BOOTALERT) without sending any command. Useful for hardware reset where the ...">
<polygon fill="white" stroke="#666666" points="872.75,-104 732.25,-104 732.25,-72 872.75,-72 872.75,-104"/>
<text text-anchor="start" x="740.25" y="-90.5" font-family="Helvetica,sans-Serif" font-size="10.00">LSM1x0A_AtParser::waitFor</text>
<text text-anchor="middle" x="802.5" y="-78.5" font-family="Helvetica,sans-Serif" font-size="10.00">Event</text>
</a>
</g>
</g>
<!-- Node5&#45;&gt;Node6 -->
<g id="edge5_Node000005_Node000006" class="edge">
<title>Node5&#45;&gt;Node6</title>
<g id="a_edge5_Node000005_Node000006"><a xlink:title=" ">
<path fill="none" stroke="#63b8ff" d="M667.45,-88C683.96,-88 702.61,-88 720.62,-88"/>
<polygon fill="#63b8ff" stroke="#63b8ff" points="720.53,-91.5 730.53,-88 720.53,-84.5 720.53,-91.5"/>
</a>
</g>
</g>
<!-- Node9 -->
<g id="Node000009" class="node">
<title>Node9</title>
<g id="a_Node000009"><a xlink:href="../../d5/d72/classLSM1x0A__LoRaWAN.html#a59f781f3cfd30c11cd3973bcb10a7baa" target="_top" xlink:title="Initiates a LoRaWAN Network Join procedure. This is a blocking function until the module fires an eve...">
<polygon fill="white" stroke="#666666" points="868.25,-186 736.75,-186 736.75,-166 868.25,-166 868.25,-186"/>
<text text-anchor="middle" x="802.5" y="-172.5" font-family="Helvetica,sans-Serif" font-size="10.00">LSM1x0A_LoRaWAN::join</text>
</a>
</g>
</g>
<!-- Node8&#45;&gt;Node9 -->
<g id="edge8_Node000008_Node000009" class="edge">
<title>Node8&#45;&gt;Node9</title>
<g id="a_edge8_Node000008_Node000009"><a xlink:title=" ">
<path fill="none" stroke="#63b8ff" d="M688.71,-176C700.67,-176 713.08,-176 725.1,-176"/>
<polygon fill="#63b8ff" stroke="#63b8ff" points="724.97,-179.5 734.97,-176 724.97,-172.5 724.97,-179.5"/>
</a>
</g>
</g>
<!-- Node9&#45;&gt;Node3 -->
<g id="edge10_Node000009_Node000003" class="edge">
<title>Node9&#45;&gt;Node3</title>
<g id="a_edge10_Node000009_Node000003"><a xlink:title=" ">
<path fill="none" stroke="#63b8ff" d="M765.77,-186.4C744.84,-191.95 717.78,-198.2 693.25,-201 623.26,-208.98 605.18,-202.2 534.75,-201 526.85,-200.87 518.56,-200.66 510.36,-200.43"/>
<polygon fill="#63b8ff" stroke="#63b8ff" points="510.48,-196.93 500.37,-200.12 510.26,-203.92 510.48,-196.93"/>
</a>
</g>
</g>
<!-- Node9&#45;&gt;Node4 -->
<g id="edge9_Node000009_Node000004" class="edge">
<title>Node9&#45;&gt;Node4</title>
<g id="a_edge9_Node000009_Node000004"><a xlink:title=" ">
<path fill="none" stroke="#63b8ff" d="M837.05,-165.52C849.8,-160.68 864.06,-154.16 875.75,-146 895.09,-132.5 891.52,-119.13 911.75,-107 921.7,-101.03 933.06,-96.47 944.4,-93"/>
<polygon fill="#63b8ff" stroke="#63b8ff" points="945.07,-96.45 953.76,-90.39 943.19,-89.7 945.07,-96.45"/>
</a>
</g>
</g>
<!-- Node10 -->
<g id="Node000010" class="node">
<title>Node10</title>
<g id="a_Node000010"><a xlink:href="../../d8/d92/classLSM1x0A__Controller.html#afd7d92e60ed6fdae696a955cdbe0ed8c" target="_top" xlink:title="Sends any AT command to the module, returning error if it fails. Internally uses the LsmAtParser logi...">
<polygon fill="white" stroke="#666666" points="1270.75,-558 1164.75,-558 1164.75,-526 1270.75,-526 1270.75,-558"/>
<text text-anchor="start" x="1172.75" y="-544.5" font-family="Helvetica,sans-Serif" font-size="10.00">LSM1x0A_Controller</text>
<text text-anchor="middle" x="1217.75" y="-532.5" font-family="Helvetica,sans-Serif" font-size="10.00">::sendCommand</text>
</a>
</g>
</g>
<!-- Node9&#45;&gt;Node10 -->
<g id="edge11_Node000009_Node000010" class="edge">
<title>Node9&#45;&gt;Node10</title>
<g id="a_edge11_Node000009_Node000010"><a xlink:title=" ">
<path fill="none" stroke="#63b8ff" d="M868.53,-171.81C946.14,-168.2 1069.91,-167.28 1105.5,-195 1207.23,-274.23 1217.49,-447.25 1217.45,-514.5"/>
<polygon fill="#63b8ff" stroke="#63b8ff" points="1213.95,-514.23 1217.35,-524.26 1220.95,-514.3 1213.95,-514.23"/>
</a>
</g>
</g>
<!-- Node14 -->
<g id="Node000014" class="node">
<title>Node14</title>
<g id="a_Node000014"><a xlink:href="../../d5/d72/classLSM1x0A__LoRaWAN.html#a3fdd1ac318a5ad2559323e5d57e36a5e" target="_top" xlink:title="Enables or disables specific sub&#45;bands for regions supporting Channel Masks (e.g.,...">
<polygon fill="white" stroke="#666666" points="1103.62,-224 913.62,-224 913.62,-204 1103.62,-204 1103.62,-224"/>
<text text-anchor="middle" x="1008.62" y="-210.5" font-family="Helvetica,sans-Serif" font-size="10.00">LSM1x0A_LoRaWAN::setChannelMask</text>
</a>
</g>
</g>
<!-- Node9&#45;&gt;Node14 -->
<g id="edge16_Node000009_Node000014" class="edge">
<title>Node9&#45;&gt;Node14</title>
<g id="a_edge16_Node000009_Node000014"><a xlink:title=" ">
<path fill="none" stroke="#63b8ff" d="M859.82,-186.48C884.69,-191.12 914.14,-196.6 940.18,-201.44"/>
<polygon fill="#63b8ff" stroke="#63b8ff" points="939.53,-204.88 950,-203.27 940.81,-198 939.53,-204.88"/>
</a>
</g>
</g>
<!-- Node15 -->
<g id="Node000015" class="node">
<title>Node15</title>
<g id="a_Node000015"><a xlink:href="../../d8/d92/classLSM1x0A__Controller.html#a62476e30e50c7fe120aeb8df4b828675" target="_top" xlink:title="Synchronously/blockingly waits for an asynchronous event to occur. Useful for wrapping commands like ...">
<polygon fill="white" stroke="#666666" points="1061.62,-148 955.62,-148 955.62,-116 1061.62,-116 1061.62,-148"/>
<text text-anchor="start" x="963.62" y="-134.5" font-family="Helvetica,sans-Serif" font-size="10.00">LSM1x0A_Controller</text>
<text text-anchor="middle" x="1008.62" y="-122.5" font-family="Helvetica,sans-Serif" font-size="10.00">::waitForEvent</text>
</a>
</g>
</g>
<!-- Node9&#45;&gt;Node15 -->
<g id="edge19_Node000009_Node000015" class="edge">
<title>Node9&#45;&gt;Node15</title>
<g id="a_edge19_Node000009_Node000015"><a xlink:title=" ">
<path fill="none" stroke="#63b8ff" d="M852.13,-165.52C879.74,-159.57 914.61,-152.05 944.32,-145.65"/>
<polygon fill="#63b8ff" stroke="#63b8ff" points="944.92,-149.1 953.95,-143.57 943.44,-142.25 944.92,-149.1"/>
</a>
</g>
</g>
<!-- Node10&#45;&gt;Node3 -->
<g id="edge12_Node000010_Node000003" class="edge">
<title>Node10&#45;&gt;Node3</title>
<g id="a_edge12_Node000010_Node000003"><a xlink:title=" ">
<path fill="none" stroke="#63b8ff" d="M1210.32,-558.31C1196.56,-593.61 1163.66,-679.91 1141.5,-754 1122.23,-818.44 1158.42,-859.48 1105.5,-901 1037.75,-954.16 988.19,-940.65 911.75,-901 624.43,-751.97 486.47,-335.66 454.27,-225.19"/>
<polygon fill="#63b8ff" stroke="#63b8ff" points="457.7,-224.47 451.58,-215.82 450.97,-226.4 457.7,-224.47"/>
</a>
</g>
</g>
<!-- Node11 -->
<g id="Node000011" class="node">
<title>Node11</title>
<g id="a_Node000011"><a xlink:href="../../d6/d3c/classLSM1x0A__AtParser.html#a29b53c521974387ba6c03afadfaffa4a" target="_top" xlink:title="Sends a simple command and waits for OK/ERROR. Example: sendCommand(&quot;AT+JOIN&quot;);.">
<polygon fill="white" stroke="#666666" points="1504.25,-552 1330,-552 1330,-532 1504.25,-532 1504.25,-552"/>
<text text-anchor="middle" x="1417.12" y="-538.5" font-family="Helvetica,sans-Serif" font-size="10.00">LSM1x0A_AtParser::sendCommand</text>
</a>
</g>
</g>
<!-- Node10&#45;&gt;Node11 -->
<g id="edge13_Node000010_Node000011" class="edge">
<title>Node10&#45;&gt;Node11</title>
<g id="a_edge13_Node000010_Node000011"><a xlink:title=" ">
<path fill="none" stroke="#63b8ff" d="M1271.12,-542C1285.69,-542 1302,-542 1318.28,-542"/>
<polygon fill="#63b8ff" stroke="#63b8ff" points="1318.01,-545.5 1328.01,-542 1318.01,-538.5 1318.01,-545.5"/>
</a>
</g>
</g>
<!-- Node11&#45;&gt;Node12 -->
<g id="edge14_Node000011_Node000012" class="edge">
<title>Node11&#45;&gt;Node12</title>
<g id="a_edge14_Node000011_Node000012"><a xlink:title=" ">
<path fill="none" stroke="#63b8ff" d="M1426.03,-531.71C1455.94,-492.78 1562.68,-353.88 1606.94,-296.3"/>
<polygon fill="#63b8ff" stroke="#63b8ff" points="1609.48,-298.73 1612.8,-288.67 1603.93,-294.46 1609.48,-298.73"/>
</a>
</g>
</g>
<!-- Node13 -->
<g id="Node000013" class="node">
<title>Node13</title>
<g id="a_Node000013"><a xlink:href="../../d5/d8b/classUartDriver.html#a5d0f22e8867eebe99273078bb19bd23d" target="_top" xlink:title="Sends data through UART.">
<polygon fill="white" stroke="#666666" points="1859.5,-281 1750.5,-281 1750.5,-261 1859.5,-261 1859.5,-281"/>
<text text-anchor="middle" x="1805" y="-267.5" font-family="Helvetica,sans-Serif" font-size="10.00">UartDriver::sendData</text>
</a>
</g>
</g>
<!-- Node12&#45;&gt;Node13 -->
<g id="edge15_Node000012_Node000013" class="edge">
<title>Node12&#45;&gt;Node13</title>
<g id="a_edge15_Node000012_Node000013"><a xlink:title=" ">
<path fill="none" stroke="#63b8ff" d="M1714.9,-271C1723.05,-271 1731.2,-271 1739.1,-271"/>
<polygon fill="#63b8ff" stroke="#63b8ff" points="1738.93,-274.5 1748.93,-271 1738.93,-267.5 1738.93,-274.5"/>
</a>
</g>
</g>
<!-- Node14&#45;&gt;Node7 -->
<g id="edge17_Node000014_Node000007" class="edge">
<title>Node14&#45;&gt;Node7</title>
<g id="a_edge17_Node000014_Node000007"><a xlink:title=" ">
<path fill="none" stroke="#63b8ff" d="M1034.2,-203.56C1070.79,-188.01 1139.78,-158.7 1181.67,-140.9"/>
<polygon fill="#63b8ff" stroke="#63b8ff" points="1182.98,-144.15 1190.82,-137.02 1180.24,-137.71 1182.98,-144.15"/>
</a>
</g>
</g>
<!-- Node14&#45;&gt;Node10 -->
<g id="edge18_Node000014_Node000010" class="edge">
<title>Node14&#45;&gt;Node10</title>
<g id="a_edge18_Node000014_Node000010"><a xlink:title=" ">
<path fill="none" stroke="#63b8ff" d="M1092.38,-224.28C1097.08,-226.69 1101.51,-229.57 1105.5,-233 1191.83,-307.27 1211.17,-453.75 1215.5,-514.55"/>
<polygon fill="#63b8ff" stroke="#63b8ff" points="1212,-514.57 1216.11,-524.33 1218.98,-514.13 1212,-514.57"/>
</a>
</g>
</g>
<!-- Node16&#45;&gt;Node14 -->
<g id="edge25_Node000016_Node000014" class="edge">
<title>Node16&#45;&gt;Node14</title>
<g id="a_edge25_Node000016_Node000014"><a xlink:title=" ">
<path fill="none" stroke="#63b8ff" d="M804.3,-506.78C807.68,-457.25 824.95,-306.79 911.75,-233 912.88,-232.04 914.04,-231.13 915.23,-230.25"/>
<polygon fill="#63b8ff" stroke="#63b8ff" points="916.92,-233.33 923.62,-225.12 913.27,-227.35 916.92,-233.33"/>
</a>
</g>
</g>
<!-- Node17 -->
<g id="Node000017" class="node">
<title>Node17</title>
<g id="a_Node000017"><a xlink:href="../../d5/d72/classLSM1x0A__LoRaWAN.html#af0baa3db4c7fab580d6b19a9e92472f6" target="_top" xlink:title="Enables or disables Adaptive Data Rate (ADR).">
<polygon fill="white" stroke="#666666" points="1084.5,-350 932.75,-350 932.75,-330 1084.5,-330 1084.5,-350"/>
<text text-anchor="middle" x="1008.62" y="-336.5" font-family="Helvetica,sans-Serif" font-size="10.00">LSM1x0A_LoRaWAN::setADR</text>
</a>
</g>
</g>
<!-- Node16&#45;&gt;Node17 -->
<g id="edge21_Node000016_Node000017" class="edge">
<title>Node16&#45;&gt;Node17</title>
<g id="a_edge21_Node000016_Node000017"><a xlink:title=" ">
<path fill="none" stroke="#63b8ff" d="M809.31,-506.6C822.1,-473 856.1,-396.38 911.75,-359 915.02,-356.8 918.48,-354.85 922.08,-353.11"/>
<polygon fill="#63b8ff" stroke="#63b8ff" points="923.23,-356.42 931.12,-349.35 920.54,-349.96 923.23,-356.42"/>
</a>
</g>
</g>
<!-- Node18 -->
<g id="Node000018" class="node">
<title>Node18</title>
<g id="a_Node000018"><a xlink:href="../../d5/d72/classLSM1x0A__LoRaWAN.html#a5365ed1596eb84ebf1e3b33b4a10c788" target="_top" xlink:title="Sets the LoRaWAN operational frequency band.">
<polygon fill="white" stroke="#666666" points="1084.88,-312 932.38,-312 932.38,-292 1084.88,-292 1084.88,-312"/>
<text text-anchor="middle" x="1008.62" y="-298.5" font-family="Helvetica,sans-Serif" font-size="10.00">LSM1x0A_LoRaWAN::setBand</text>
</a>
</g>
</g>
<!-- Node16&#45;&gt;Node18 -->
<g id="edge23_Node000016_Node000018" class="edge">
<title>Node16&#45;&gt;Node18</title>
<g id="a_edge23_Node000016_Node000018"><a xlink:title=" ">
<path fill="none" stroke="#63b8ff" d="M807.22,-506.5C816.95,-467.43 846.99,-368.94 911.75,-321 914.91,-318.66 918.29,-316.58 921.82,-314.75"/>
<polygon fill="#63b8ff" stroke="#63b8ff" points="923,-318.05 930.72,-310.8 920.16,-311.66 923,-318.05"/>
</a>
</g>
</g>
<!-- Node19 -->
<g id="Node000019" class="node">
<title>Node19</title>
<g id="a_Node000019"><a xlink:href="../../d5/d72/classLSM1x0A__LoRaWAN.html#a9d9285c43414337a0ccb3a6cd7ca06e6" target="_top" xlink:title="Configures the number of retries for Confirmed uplinks.">
<polygon fill="white" stroke="#666666" points="1090.88,-274 926.38,-274 926.38,-242 1090.88,-242 1090.88,-274"/>
<text text-anchor="start" x="934.38" y="-260.5" font-family="Helvetica,sans-Serif" font-size="10.00">LSM1x0A_LoRaWAN::setConfirm</text>
<text text-anchor="middle" x="1008.62" y="-248.5" font-family="Helvetica,sans-Serif" font-size="10.00">Retry</text>
</a>
</g>
</g>
<!-- Node16&#45;&gt;Node19 -->
<g id="edge26_Node000016_Node000019" class="edge">
<title>Node16&#45;&gt;Node19</title>
<g id="a_edge26_Node000016_Node000019"><a xlink:title=" ">
<path fill="none" stroke="#63b8ff" d="M805.93,-506.7C813.3,-463.28 839.45,-344.03 911.75,-283 913.24,-281.74 914.79,-280.55 916.38,-279.41"/>
<polygon fill="#63b8ff" stroke="#63b8ff" points="918,-282.52 924.7,-274.32 914.35,-276.55 918,-282.52"/>
</a>
</g>
</g>
<!-- Node20 -->
<g id="Node000020" class="node">
<title>Node20</title>
<g id="a_Node000020"><a xlink:href="../../d5/d72/classLSM1x0A__LoRaWAN.html#a56345ceeafa0b9059d6de4e69eddc82e" target="_top" xlink:title="Sets the Data Rate (DR) of the module.">
<polygon fill="white" stroke="#666666" points="1094.62,-892 922.62,-892 922.62,-872 1094.62,-872 1094.62,-892"/>
<text text-anchor="middle" x="1008.62" y="-878.5" font-family="Helvetica,sans-Serif" font-size="10.00">LSM1x0A_LoRaWAN::setDataRate</text>
</a>
</g>
</g>
<!-- Node16&#45;&gt;Node20 -->
<g id="edge28_Node000016_Node000020" class="edge">
<title>Node16&#45;&gt;Node20</title>
<g id="a_edge28_Node000016_Node000020"><a xlink:title=" ">
<path fill="none" stroke="#63b8ff" d="M803.3,-539.16C803.54,-593.93 812.19,-774.06 911.75,-863 912.7,-863.85 913.67,-864.66 914.67,-865.44"/>
<polygon fill="#63b8ff" stroke="#63b8ff" points="912.7,-868.34 923,-870.83 916.5,-862.46 912.7,-868.34"/>
</a>
</g>
</g>
<!-- Node21 -->
<g id="Node000021" class="node">
<title>Node21</title>
<g id="a_Node000021"><a xlink:href="../../d5/d72/classLSM1x0A__LoRaWAN.html#a8494083816ab885cb07fc3b08de029f4" target="_top" xlink:title="Sets the LoRaWAN Device Address (DevAddr) for ABP mode.">
<polygon fill="white" stroke="#666666" points="1092.75,-854 924.5,-854 924.5,-834 1092.75,-834 1092.75,-854"/>
<text text-anchor="middle" x="1008.62" y="-840.5" font-family="Helvetica,sans-Serif" font-size="10.00">LSM1x0A_LoRaWAN::setDevAddr</text>
</a>
</g>
</g>
<!-- Node16&#45;&gt;Node21 -->
<g id="edge30_Node000016_Node000021" class="edge">
<title>Node16&#45;&gt;Node21</title>
<g id="a_edge30_Node000016_Node000021"><a xlink:title=" ">
<path fill="none" stroke="#63b8ff" d="M804.03,-539.15C806.62,-589.92 821.87,-747.57 911.75,-825 912.87,-825.97 914.03,-826.89 915.21,-827.77"/>
<polygon fill="#63b8ff" stroke="#63b8ff" points="913.23,-830.65 923.57,-832.93 916.9,-824.7 913.23,-830.65"/>
</a>
</g>
</g>
<!-- Node22 -->
<g id="Node000022" class="node">
<title>Node22</title>
<g id="a_Node000022"><a xlink:href="../../d5/d72/classLSM1x0A__LoRaWAN.html#ad320634e52d7ea907043cc50dd37c5b0" target="_top" xlink:title="Sets the LoRaWAN Device EUI (DevEUI).">
<polygon fill="white" stroke="#666666" points="1091.25,-816 926,-816 926,-796 1091.25,-796 1091.25,-816"/>
<text text-anchor="middle" x="1008.62" y="-802.5" font-family="Helvetica,sans-Serif" font-size="10.00">LSM1x0A_LoRaWAN::setDevEUI</text>
</a>
</g>
</g>
<!-- Node16&#45;&gt;Node22 -->
<g id="edge32_Node000016_Node000022" class="edge">
<title>Node16&#45;&gt;Node22</title>
<g id="a_edge32_Node000016_Node000022"><a xlink:title=" ">
<path fill="none" stroke="#63b8ff" d="M804.99,-539.44C810.14,-586.24 831.62,-721.05 911.75,-787 913.24,-788.22 914.78,-789.38 916.37,-790.46"/>
<polygon fill="#63b8ff" stroke="#63b8ff" points="914.23,-793.27 924.65,-795.21 917.72,-787.2 914.23,-793.27"/>
</a>
</g>
</g>
<!-- Node23 -->
<g id="Node000023" class="node">
<title>Node23</title>
<g id="a_Node000023"><a xlink:href="../../d5/d72/classLSM1x0A__LoRaWAN.html#a031023b0d2dd5db3c51c2db6ae7801cc" target="_top" xlink:title="Enables or disables the Duty Cycle limitation (EU regions mostly).">
<polygon fill="white" stroke="#666666" points="1084.12,-778 933.12,-778 933.12,-746 1084.12,-746 1084.12,-778"/>
<text text-anchor="start" x="941.12" y="-764.5" font-family="Helvetica,sans-Serif" font-size="10.00">LSM1x0A_LoRaWAN::setDuty</text>
<text text-anchor="middle" x="1008.62" y="-752.5" font-family="Helvetica,sans-Serif" font-size="10.00">Cycle</text>
</a>
</g>
</g>
<!-- Node16&#45;&gt;Node23 -->
<g id="edge34_Node000016_Node000023" class="edge">
<title>Node16&#45;&gt;Node23</title>
<g id="a_edge34_Node000016_Node000023"><a xlink:title=" ">
<path fill="none" stroke="#63b8ff" d="M806.9,-539.3C816.15,-579.44 845.64,-683.67 911.75,-737 915.19,-739.78 918.91,-742.25 922.81,-744.44"/>
<polygon fill="#63b8ff" stroke="#63b8ff" points="920.96,-747.44 931.48,-748.7 924.05,-741.15 920.96,-747.44"/>
</a>
</g>
</g>
<!-- Node24 -->
<g id="Node000024" class="node">
<title>Node24</title>
<g id="a_Node000024"><a xlink:href="../../d5/d72/classLSM1x0A__LoRaWAN.html#a6b179d5825c49af0f391dfc539912f64" target="_top" xlink:title="Sets the delay for the Join1 receive window.">
<polygon fill="white" stroke="#666666" points="1085.25,-728 932,-728 932,-696 1085.25,-696 1085.25,-728"/>
<text text-anchor="start" x="940" y="-714.5" font-family="Helvetica,sans-Serif" font-size="10.00">LSM1x0A_LoRaWAN::setJoin1</text>
<text text-anchor="middle" x="1008.62" y="-702.5" font-family="Helvetica,sans-Serif" font-size="10.00">Delay</text>
</a>
</g>
</g>
<!-- Node16&#45;&gt;Node24 -->
<g id="edge36_Node000016_Node000024" class="edge">
<title>Node16&#45;&gt;Node24</title>
<g id="a_edge36_Node000016_Node000024"><a xlink:title=" ">
<path fill="none" stroke="#63b8ff" d="M809.59,-539.39C822.81,-572.62 857.38,-648.08 911.75,-687 914.92,-689.27 918.29,-691.34 921.78,-693.21"/>
<polygon fill="#63b8ff" stroke="#63b8ff" points="920.03,-696.26 930.57,-697.38 923.03,-689.93 920.03,-696.26"/>
</a>
</g>
</g>
<!-- Node25 -->
<g id="Node000025" class="node">
<title>Node25</title>
<g id="a_Node000025"><a xlink:href="../../d5/d72/classLSM1x0A__LoRaWAN.html#a4545d0caad41558cdb9bae8286b104d8" target="_top" xlink:title="Sets the delay for the Join2 receive window.">
<polygon fill="white" stroke="#666666" points="1085.25,-678 932,-678 932,-646 1085.25,-646 1085.25,-678"/>
<text text-anchor="start" x="940" y="-664.5" font-family="Helvetica,sans-Serif" font-size="10.00">LSM1x0A_LoRaWAN::setJoin2</text>
<text text-anchor="middle" x="1008.62" y="-652.5" font-family="Helvetica,sans-Serif" font-size="10.00">Delay</text>
</a>
</g>
</g>
<!-- Node16&#45;&gt;Node25 -->
<g id="edge38_Node000016_Node000025" class="edge">
<title>Node16&#45;&gt;Node25</title>
<g id="a_edge38_Node000016_Node000025"><a xlink:title=" ">
<path fill="none" stroke="#63b8ff" d="M814.39,-539.33C831.9,-564.27 868.74,-611.61 911.75,-637 914.76,-638.78 917.9,-640.43 921.13,-641.97"/>
<polygon fill="#63b8ff" stroke="#63b8ff" points="919.73,-645.18 930.3,-645.9 922.49,-638.74 919.73,-645.18"/>
</a>
</g>
</g>
<!-- Node26 -->
<g id="Node000026" class="node">
<title>Node26</title>
<g id="a_Node000026"><a xlink:href="../../d5/d72/classLSM1x0A__LoRaWAN.html#a06bd50723ec1eb7e144c9141b2ec86fc" target="_top" xlink:title="Sets the LoRaWAN Network ID (NetID).">
<polygon fill="white" stroke="#666666" points="1089,-628 928.25,-628 928.25,-608 1089,-608 1089,-628"/>
<text text-anchor="middle" x="1008.62" y="-614.5" font-family="Helvetica,sans-Serif" font-size="10.00">LSM1x0A_LoRaWAN::setNwkID</text>
</a>
</g>
</g>
<!-- Node16&#45;&gt;Node26 -->
<g id="edge40_Node000016_Node000026" class="edge">
<title>Node16&#45;&gt;Node26</title>
<g id="a_edge40_Node000016_Node000026"><a xlink:title=" ">
<path fill="none" stroke="#63b8ff" d="M821.6,-539.34C842.01,-556.84 876.91,-584.11 911.75,-599 916.35,-600.97 921.16,-602.73 926.08,-604.32"/>
<polygon fill="#63b8ff" stroke="#63b8ff" points="924.92,-607.63 935.51,-607.08 926.89,-600.91 924.92,-607.63"/>
</a>
</g>
</g>
<!-- Node27 -->
<g id="Node000027" class="node">
<title>Node27</title>
<g id="a_Node000027"><a xlink:href="../../d5/d72/classLSM1x0A__LoRaWAN.html#aa70ada64d28ecca216bb62268e502adf" target="_top" xlink:title="Sets the delay for the RX1 receive window.">
<polygon fill="white" stroke="#666666" points="1095.38,-590 921.88,-590 921.88,-570 1095.38,-570 1095.38,-590"/>
<text text-anchor="middle" x="1008.62" y="-576.5" font-family="Helvetica,sans-Serif" font-size="10.00">LSM1x0A_LoRaWAN::setRx1Delay</text>
</a>
</g>
</g>
<!-- Node16&#45;&gt;Node27 -->
<g id="edge42_Node000016_Node000027" class="edge">
<title>Node16&#45;&gt;Node27</title>
<g id="a_edge42_Node000016_Node000027"><a xlink:title=" ">
<path fill="none" stroke="#63b8ff" d="M845.99,-539.49C865.77,-546.76 889.75,-554.99 911.75,-561 919.83,-563.21 928.36,-565.27 936.87,-567.16"/>
<polygon fill="#63b8ff" stroke="#63b8ff" points="936,-570.55 946.51,-569.23 937.47,-563.71 936,-570.55"/>
</a>
</g>
</g>
<!-- Node28 -->
<g id="Node000028" class="node">
<title>Node28</title>
<g id="a_Node000028"><a xlink:href="../../d5/d72/classLSM1x0A__LoRaWAN.html#a2cf4eff0181b6107d082bccefa24217b" target="_top" xlink:title="Sets the Data Rate (DR) specifically for the RX2 window.">
<polygon fill="white" stroke="#666666" points="1103.62,-552 913.62,-552 913.62,-532 1103.62,-532 1103.62,-552"/>
<text text-anchor="middle" x="1008.62" y="-538.5" font-family="Helvetica,sans-Serif" font-size="10.00">LSM1x0A_LoRaWAN::setRx2DataRate</text>
</a>
</g>
</g>
<!-- Node16&#45;&gt;Node28 -->
<g id="edge44_Node000016_Node000028" class="edge">
<title>Node16&#45;&gt;Node28</title>
<g id="a_edge44_Node000016_Node000028"><a xlink:title=" ">
<path fill="none" stroke="#63b8ff" d="M876.04,-529.75C884.41,-530.53 893.06,-531.34 901.76,-532.15"/>
<polygon fill="#63b8ff" stroke="#63b8ff" points="901.39,-535.63 911.68,-533.07 902.04,-528.66 901.39,-535.63"/>
</a>
</g>
</g>
<!-- Node29 -->
<g id="Node000029" class="node">
<title>Node29</title>
<g id="a_Node000029"><a xlink:href="../../d5/d72/classLSM1x0A__LoRaWAN.html#a42d2137b475b57e19d891a5f1ac93221" target="_top" xlink:title="Sets the delay for the RX2 receive window.">
<polygon fill="white" stroke="#666666" points="1095.38,-514 921.88,-514 921.88,-494 1095.38,-494 1095.38,-514"/>
<text text-anchor="middle" x="1008.62" y="-500.5" font-family="Helvetica,sans-Serif" font-size="10.00">LSM1x0A_LoRaWAN::setRx2Delay</text>
</a>
</g>
</g>
<!-- Node16&#45;&gt;Node29 -->
<g id="edge46_Node000016_Node000029" class="edge">
<title>Node16&#45;&gt;Node29</title>
<g id="a_edge46_Node000016_Node000029"><a xlink:title=" ">
<path fill="none" stroke="#63b8ff" d="M876.04,-516.25C887.24,-515.21 898.97,-514.11 910.6,-513.03"/>
<polygon fill="#63b8ff" stroke="#63b8ff" points="910.57,-516.55 920.2,-512.14 909.92,-509.58 910.57,-516.55"/>
</a>
</g>
</g>
<!-- Node30 -->
<g id="Node000030" class="node">
<title>Node30</title>
<g id="a_Node000030"><a xlink:href="../../d5/d72/classLSM1x0A__LoRaWAN.html#a689f7dfda1dfeae11ea397c2ddf2ad37" target="_top" xlink:title="Sets the precise frequency for the RX2 window.">
<polygon fill="white" stroke="#666666" points="1105.5,-476 911.75,-476 911.75,-456 1105.5,-456 1105.5,-476"/>
<text text-anchor="middle" x="1008.62" y="-462.5" font-family="Helvetica,sans-Serif" font-size="10.00">LSM1x0A_LoRaWAN::setRx2Frequency</text>
</a>
</g>
</g>
<!-- Node16&#45;&gt;Node30 -->
<g id="edge48_Node000016_Node000030" class="edge">
<title>Node16&#45;&gt;Node30</title>
<g id="a_edge48_Node000016_Node000030"><a xlink:title=" ">
<path fill="none" stroke="#63b8ff" d="M845.99,-506.51C865.77,-499.24 889.75,-491.01 911.75,-485 919.83,-482.79 928.36,-480.73 936.87,-478.84"/>
<polygon fill="#63b8ff" stroke="#63b8ff" points="937.47,-482.29 946.51,-476.77 936,-475.45 937.47,-482.29"/>
</a>
</g>
</g>
<!-- Node31 -->
<g id="Node000031" class="node">
<title>Node31</title>
<g id="a_Node000031"><a xlink:href="../../d5/d72/classLSM1x0A__LoRaWAN.html#a1df10d7ae6bf45b537d28d3d5c4b88d7" target="_top" xlink:title="Sets the transmission power index.">
<polygon fill="white" stroke="#666666" points="1093.12,-438 924.12,-438 924.12,-418 1093.12,-418 1093.12,-438"/>
<text text-anchor="middle" x="1008.62" y="-424.5" font-family="Helvetica,sans-Serif" font-size="10.00">LSM1x0A_LoRaWAN::setTxPower</text>
</a>
</g>
</g>
<!-- Node16&#45;&gt;Node31 -->
<g id="edge50_Node000016_Node000031" class="edge">
<title>Node16&#45;&gt;Node31</title>
<g id="a_edge50_Node000016_Node000031"><a xlink:title=" ">
<path fill="none" stroke="#63b8ff" d="M821.6,-506.66C842.01,-489.16 876.91,-461.89 911.75,-447 916.35,-445.03 921.16,-443.27 926.08,-441.68"/>
<polygon fill="#63b8ff" stroke="#63b8ff" points="926.89,-445.09 935.51,-438.92 924.92,-438.37 926.89,-445.09"/>
</a>
</g>
</g>
<!-- Node32 -->
<g id="Node000032" class="node">
<title>Node32</title>
<g id="a_Node000032"><a xlink:href="../../d5/d72/classLSM1x0A__LoRaWAN.html#a059fd6a9356c4ecadd5a98294da5952d" target="_top" xlink:title="Configures the number of repetitions for Unconfirmed uplinks.">
<polygon fill="white" stroke="#666666" points="1096.12,-400 921.12,-400 921.12,-368 1096.12,-368 1096.12,-400"/>
<text text-anchor="start" x="929.12" y="-386.5" font-family="Helvetica,sans-Serif" font-size="10.00">LSM1x0A_LoRaWAN::setUnconfirm</text>
<text text-anchor="middle" x="1008.62" y="-374.5" font-family="Helvetica,sans-Serif" font-size="10.00">Retry</text>
</a>
</g>
</g>
<!-- Node16&#45;&gt;Node32 -->
<g id="edge52_Node000016_Node000032" class="edge">
<title>Node16&#45;&gt;Node32</title>
<g id="a_edge52_Node000016_Node000032"><a xlink:title=" ">
<path fill="none" stroke="#63b8ff" d="M814.39,-506.67C831.9,-481.73 868.74,-434.39 911.75,-409 914.06,-407.64 916.45,-406.34 918.89,-405.12"/>
<polygon fill="#63b8ff" stroke="#63b8ff" points="920.15,-408.4 927.83,-401.1 917.28,-402.01 920.15,-408.4"/>
</a>
</g>
</g>
<!-- Node17&#45;&gt;Node10 -->
<g id="edge22_Node000017_Node000010" class="edge">
<title>Node17&#45;&gt;Node10</title>
<g id="a_edge22_Node000017_Node000010"><a xlink:title=" ">
<path fill="none" stroke="#63b8ff" d="M1084.9,-348.53C1092.22,-351.2 1099.24,-354.62 1105.5,-359 1161.09,-397.86 1193.94,-474.26 1208.24,-514.97"/>
<polygon fill="#63b8ff" stroke="#63b8ff" points="1204.86,-515.89 1211.37,-524.24 1211.49,-513.65 1204.86,-515.89"/>
</a>
</g>
</g>
<!-- Node18&#45;&gt;Node10 -->
<g id="edge24_Node000018_Node000010" class="edge">
<title>Node18&#45;&gt;Node10</title>
<g id="a_edge24_Node000018_Node000010"><a xlink:title=" ">
<path fill="none" stroke="#63b8ff" d="M1085.27,-310.03C1092.52,-312.79 1099.42,-316.38 1105.5,-321 1170.12,-370.13 1199.96,-467.16 1211.16,-514.6"/>
<polygon fill="#63b8ff" stroke="#63b8ff" points="1207.67,-515.06 1213.28,-524.05 1214.5,-513.53 1207.67,-515.06"/>
</a>
</g>
</g>
<!-- Node19&#45;&gt;Node10 -->
<g id="edge27_Node000019_Node000010" class="edge">
<title>Node19&#45;&gt;Node10</title>
<g id="a_edge27_Node000019_Node000010"><a xlink:title=" ">
<path fill="none" stroke="#63b8ff" d="M1091.33,-273.44C1096.41,-276.14 1101.2,-279.3 1105.5,-283 1177.45,-344.86 1204.23,-461.59 1212.99,-514.59"/>
<polygon fill="#63b8ff" stroke="#63b8ff" points="1209.5,-514.92 1214.49,-524.26 1216.42,-513.84 1209.5,-514.92"/>
</a>
</g>
</g>
<!-- Node20&#45;&gt;Node10 -->
<g id="edge29_Node000020_Node000010" class="edge">
<title>Node20&#45;&gt;Node10</title>
<g id="a_edge29_Node000020_Node000010"><a xlink:title=" ">
<path fill="none" stroke="#63b8ff" d="M1092.94,-871.6C1097.45,-869.21 1101.69,-866.37 1105.5,-863 1143.73,-829.22 1124.97,-802.26 1141.5,-754 1164.31,-687.42 1192.3,-609.52 1206.87,-569.23"/>
<polygon fill="#63b8ff" stroke="#63b8ff" points="1210.14,-570.47 1210.26,-559.87 1203.56,-568.08 1210.14,-570.47"/>
</a>
</g>
</g>
<!-- Node21&#45;&gt;Node10 -->
<g id="edge31_Node000021_Node000010" class="edge">
<title>Node21&#45;&gt;Node10</title>
<g id="a_edge31_Node000021_Node000010"><a xlink:title=" ">
<path fill="none" stroke="#63b8ff" d="M1092.27,-833.58C1097,-831.21 1101.46,-828.37 1105.5,-825 1126.28,-807.64 1185.19,-636.39 1207.78,-569.02"/>
<polygon fill="#63b8ff" stroke="#63b8ff" points="1210.99,-570.45 1210.84,-559.86 1204.35,-568.24 1210.99,-570.45"/>
</a>
</g>
</g>
<!-- Node22&#45;&gt;Node10 -->
<g id="edge33_Node000022_Node000010" class="edge">
<title>Node22&#45;&gt;Node10</title>
<g id="a_edge33_Node000022_Node000010"><a xlink:title=" ">
<path fill="none" stroke="#63b8ff" d="M1091.61,-795.56C1096.55,-793.2 1101.24,-790.37 1105.5,-787 1176,-731.13 1203.39,-620.69 1212.63,-569.39"/>
<polygon fill="#63b8ff" stroke="#63b8ff" points="1216.04,-570.18 1214.26,-559.74 1209.14,-569.01 1216.04,-570.18"/>
</a>
</g>
</g>
<!-- Node23&#45;&gt;Node10 -->
<g id="edge35_Node000023_Node000010" class="edge">
<title>Node23&#45;&gt;Node10</title>
<g id="a_edge35_Node000023_Node000010"><a xlink:title=" ">
<path fill="none" stroke="#63b8ff" d="M1084.16,-749.05C1091.79,-745.87 1099.08,-741.92 1105.5,-737 1162.49,-693.34 1195.06,-611.57 1208.85,-569.12"/>
<polygon fill="#63b8ff" stroke="#63b8ff" points="1212.15,-570.29 1211.8,-559.7 1205.47,-568.2 1212.15,-570.29"/>
</a>
</g>
</g>
<!-- Node24&#45;&gt;Node10 -->
<g id="edge37_Node000024_Node000010" class="edge">
<title>Node24&#45;&gt;Node10</title>
<g id="a_edge37_Node000024_Node000010"><a xlink:title=" ">
<path fill="none" stroke="#63b8ff" d="M1085.49,-697.37C1092.54,-694.51 1099.34,-691.09 1105.5,-687 1151.31,-656.61 1186.07,-600.94 1203.75,-568.13"/>
<polygon fill="#63b8ff" stroke="#63b8ff" points="1206.64,-570.16 1208.18,-559.68 1200.44,-566.91 1206.64,-570.16"/>
</a>
</g>
</g>
<!-- Node25&#45;&gt;Node10 -->
<g id="edge39_Node000025_Node000010" class="edge">
<title>Node25&#45;&gt;Node10</title>
<g id="a_edge39_Node000025_Node000010"><a xlink:title=" ">
<path fill="none" stroke="#63b8ff" d="M1085.68,-645.62C1092.54,-643.12 1099.25,-640.26 1105.5,-637 1140.29,-618.85 1173.6,-588.01 1194.56,-566.4"/>
<polygon fill="#63b8ff" stroke="#63b8ff" points="1196.83,-569.1 1201.18,-559.44 1191.75,-564.27 1196.83,-569.1"/>
</a>
</g>
</g>
<!-- Node26&#45;&gt;Node10 -->
<g id="edge41_Node000026_Node000010" class="edge">
<title>Node26&#45;&gt;Node10</title>
<g id="a_edge41_Node000026_Node000010"><a xlink:title=" ">
<path fill="none" stroke="#63b8ff" d="M1075.26,-607.52C1085.51,-605.16 1095.88,-602.34 1105.5,-599 1131.57,-589.94 1159.2,-575.81 1180.4,-563.89"/>
<polygon fill="#63b8ff" stroke="#63b8ff" points="1182,-567 1188.94,-559 1178.52,-560.93 1182,-567"/>
</a>
</g>
</g>
<!-- Node27&#45;&gt;Node10 -->
<g id="edge43_Node000027_Node000010" class="edge">
<title>Node27&#45;&gt;Node10</title>
<g id="a_edge43_Node000027_Node000010"><a xlink:title=" ">
<path fill="none" stroke="#63b8ff" d="M1066.77,-569.52C1093.61,-564.59 1125.69,-558.71 1153.28,-553.64"/>
<polygon fill="#63b8ff" stroke="#63b8ff" points="1153.71,-557.12 1162.91,-551.88 1152.44,-550.24 1153.71,-557.12"/>
</a>
</g>
</g>
<!-- Node28&#45;&gt;Node10 -->
<g id="edge45_Node000028_Node000010" class="edge">
<title>Node28&#45;&gt;Node10</title>
<g id="a_edge45_Node000028_Node000010"><a xlink:title=" ">
<path fill="none" stroke="#63b8ff" d="M1104.1,-542C1120.59,-542 1137.39,-542 1152.82,-542"/>
<polygon fill="#63b8ff" stroke="#63b8ff" points="1152.8,-545.5 1162.8,-542 1152.8,-538.5 1152.8,-545.5"/>
</a>
</g>
</g>
<!-- Node29&#45;&gt;Node10 -->
<g id="edge47_Node000029_Node000010" class="edge">
<title>Node29&#45;&gt;Node10</title>
<g id="a_edge47_Node000029_Node000010"><a xlink:title=" ">
<path fill="none" stroke="#63b8ff" d="M1066.77,-514.48C1093.61,-519.41 1125.69,-525.29 1153.28,-530.36"/>
<polygon fill="#63b8ff" stroke="#63b8ff" points="1152.44,-533.76 1162.91,-532.12 1153.71,-526.88 1152.44,-533.76"/>
</a>
</g>
</g>
<!-- Node30&#45;&gt;Node10 -->
<g id="edge49_Node000030_Node000010" class="edge">
<title>Node30&#45;&gt;Node10</title>
<g id="a_edge49_Node000030_Node000010"><a xlink:title=" ">
<path fill="none" stroke="#63b8ff" d="M1075.26,-476.48C1085.51,-478.84 1095.88,-481.66 1105.5,-485 1131.57,-494.06 1159.2,-508.19 1180.4,-520.11"/>
<polygon fill="#63b8ff" stroke="#63b8ff" points="1178.52,-523.07 1188.94,-525 1182,-517 1178.52,-523.07"/>
</a>
</g>
</g>
<!-- Node31&#45;&gt;Node10 -->
<g id="edge51_Node000031_Node000010" class="edge">
<title>Node31&#45;&gt;Node10</title>
<g id="a_edge51_Node000031_Node000010"><a xlink:title=" ">
<path fill="none" stroke="#63b8ff" d="M1082.89,-438.43C1090.71,-440.74 1098.4,-443.56 1105.5,-447 1141.01,-464.21 1174.4,-495.52 1195.16,-517.48"/>
<polygon fill="#63b8ff" stroke="#63b8ff" points="1192.35,-519.6 1201.71,-524.57 1197.49,-514.85 1192.35,-519.6"/>
</a>
</g>
</g>
<!-- Node32&#45;&gt;Node10 -->
<g id="edge53_Node000032_Node000010" class="edge">
<title>Node32&#45;&gt;Node10</title>
<g id="a_edge53_Node000032_Node000010"><a xlink:title=" ">
<path fill="none" stroke="#63b8ff" d="M1088.75,-400.31C1094.61,-402.81 1100.27,-405.69 1105.5,-409 1148.49,-436.23 1183.22,-485.5 1201.85,-515.83"/>
<polygon fill="#63b8ff" stroke="#63b8ff" points="1198.84,-517.61 1206.98,-524.4 1204.85,-514.02 1198.84,-517.61"/>
</a>
</g>
</g>
<!-- Node34&#45;&gt;Node11 -->
<g id="edge56_Node000034_Node000011" class="edge">
<title>Node34&#45;&gt;Node11</title>
<g id="a_edge56_Node000034_Node000011"><a xlink:title=" ">
<path fill="none" stroke="#63b8ff" d="M1232.32,-762.71C1267.69,-720.24 1362.59,-606.28 1400.33,-560.97"/>
<polygon fill="#63b8ff" stroke="#63b8ff" points="1402.8,-563.47 1406.51,-553.55 1397.42,-558.99 1402.8,-563.47"/>
</a>
</g>
</g>
</g>
</svg>
