<?xml version="1.0" encoding="UTF-8" standalone="no"?>
<!DOCTYPE svg PUBLIC "-//W3C//DTD SVG 1.1//EN"
 "http://www.w3.org/Graphics/SVG/1.1/DTD/svg11.dtd">
<!-- Generated by graphviz version 12.2.1 (20241206.2353)
 -->
<!-- Title: LSM1x0A_LoRaWAN::recoverConnection Pages: 1 -->
<svg width="1645pt" height="950pt"
 viewBox="0.00 0.00 1644.50 950.01" xmlns="http://www.w3.org/2000/svg" xmlns:xlink="http://www.w3.org/1999/xlink">
<g id="graph0" class="graph" transform="scale(1 1) rotate(0) translate(4 946.01)">
<title>LSM1x0A_LoRaWAN::recoverConnection</title>
<!-- Node1 -->
<g id="Node000001" class="node">
<title>Node1</title>
<g id="a_Node000001"><a xlink:title="Attempts to recover a lost connection (re&#45;executes OTAA Join if dropped).">
<polygon fill="#999999" stroke="#666666" points="148.75,-217.01 0,-217.01 0,-185.01 148.75,-185.01 148.75,-217.01"/>
<text text-anchor="start" x="8" y="-203.51" font-family="Helvetica,sans-Serif" font-size="10.00">LSM1x0A_LoRaWAN::recover</text>
<text text-anchor="middle" x="74.38" y="-191.51" font-family="Helvetica,sans-Serif" font-size="10.00">Connection</text>
</a>
</g>
</g>
<!-- Node2 -->
<g id="Node000002" class="node">
<title>Node2</title>
<g id="a_Node000002"><a xlink:href="../../d5/d72/classLSM1x0A__LoRaWAN.html#a59f781f3cfd30c11cd3973bcb10a7baa" target="_top" xlink:title="Initiates a LoRaWAN Network Join procedure. This is a blocking function until the module fires an eve...">
<polygon fill="white" stroke="#666666" points="316.25,-170.01 184.75,-170.01 184.75,-150.01 316.25,-150.01 316.25,-170.01"/>
<text text-anchor="middle" x="250.5" y="-156.51" font-family="Helvetica,sans-Serif" font-size="10.00">LSM1x0A_LoRaWAN::join</text>
</a>
</g>
</g>
<!-- Node1&#45;&gt;Node2 -->
<g id="edge1_Node000001_Node000002" class="edge">
<title>Node1&#45;&gt;Node2</title>
<g id="a_edge1_Node000001_Node000002"><a xlink:title=" ">
<path fill="none" stroke="#63b8ff" d="M145.45,-184.51C161.64,-180.7 178.66,-176.69 194.13,-173.05"/>
<polygon fill="#63b8ff" stroke="#63b8ff" points="194.68,-176.51 203.61,-170.82 193.07,-169.7 194.68,-176.51"/>
</a>
</g>
</g>
<!-- Node3 -->
<g id="Node000003" class="node">
<title>Node3</title>
<g id="a_Node000003"><a xlink:href="../../d8/d92/classLSM1x0A__Controller.html#a3f6f25b843fe4fb7042c544deae2ab16" target="_top" xlink:title="Manually clears bits from the internal EventGroup.">
<polygon fill="white" stroke="#666666" points="626.5,-198.01 520.5,-198.01 520.5,-166.01 626.5,-166.01 626.5,-198.01"/>
<text text-anchor="start" x="528.5" y="-184.51" font-family="Helvetica,sans-Serif" font-size="10.00">LSM1x0A_Controller</text>
<text text-anchor="middle" x="573.5" y="-172.51" font-family="Helvetica,sans-Serif" font-size="10.00">::clearEvents</text>
</a>
</g>
</g>
<!-- Node2&#45;&gt;Node3 -->
<g id="edge2_Node000002_Node000003" class="edge">
<title>Node2&#45;&gt;Node3</title>
<g id="a_edge2_Node000002_Node000003"><a xlink:title=" ">
<path fill="none" stroke="#63b8ff" d="M316.46,-164.46C372.59,-168.31 453.23,-173.84 508.95,-177.65"/>
<polygon fill="#63b8ff" stroke="#63b8ff" points="508.37,-181.12 518.58,-178.31 508.84,-174.14 508.37,-181.12"/>
</a>
</g>
</g>
<!-- Node4 -->
<g id="Node000004" class="node">
<title>Node4</title>
<g id="a_Node000004"><a xlink:href="../../d8/d92/classLSM1x0A__Controller.html#abb0eb380daa3dfb7acffb483c5db8e2b" target="_top" xlink:title="Executes the recovery protocol. First Soft&#45;Reset (ATZ), then Hard&#45;Reset if there is a pin.">
<polygon fill="white" stroke="#666666" points="458.25,-280.01 352.25,-280.01 352.25,-248.01 458.25,-248.01 458.25,-280.01"/>
<text text-anchor="start" x="360.25" y="-266.51" font-family="Helvetica,sans-Serif" font-size="10.00">LSM1x0A_Controller</text>
<text text-anchor="middle" x="405.25" y="-254.51" font-family="Helvetica,sans-Serif" font-size="10.00">::recoverModule</text>
</a>
</g>
</g>
<!-- Node2&#45;&gt;Node4 -->
<g id="edge3_Node000002_Node000004" class="edge">
<title>Node2&#45;&gt;Node4</title>
<g id="a_edge3_Node000002_Node000004"><a xlink:title=" ">
<path fill="none" stroke="#63b8ff" d="M266.7,-170.36C290.88,-186.82 338.66,-219.35 371.03,-241.39"/>
<polygon fill="#63b8ff" stroke="#63b8ff" points="368.64,-244 378.88,-246.74 372.58,-238.22 368.64,-244"/>
</a>
</g>
</g>
<!-- Node10 -->
<g id="Node000010" class="node">
<title>Node10</title>
<g id="a_Node000010"><a xlink:href="../../d8/d92/classLSM1x0A__Controller.html#afd7d92e60ed6fdae696a955cdbe0ed8c" target="_top" xlink:title="Sends any AT command to the module, returning error if it fails. Internally uses the LsmAtParser logi...">
<polygon fill="white" stroke="#666666" points="1047.75,-475.01 941.75,-475.01 941.75,-443.01 1047.75,-443.01 1047.75,-475.01"/>
<text text-anchor="start" x="949.75" y="-461.51" font-family="Helvetica,sans-Serif" font-size="10.00">LSM1x0A_Controller</text>
<text text-anchor="middle" x="994.75" y="-449.51" font-family="Helvetica,sans-Serif" font-size="10.00">::sendCommand</text>
</a>
</g>
</g>
<!-- Node2&#45;&gt;Node10 -->
<g id="edge52_Node000002_Node000010" class="edge">
<title>Node2&#45;&gt;Node10</title>
<g id="a_edge52_Node000002_Node000010"><a xlink:title=" ">
<path fill="none" stroke="#63b8ff" d="M316.51,-150.57C458.89,-131.33 792.75,-94.43 882.5,-157.01 974.26,-221 990.54,-369.61 993.28,-431.35"/>
<polygon fill="#63b8ff" stroke="#63b8ff" points="989.78,-431.43 993.62,-441.3 996.77,-431.19 989.78,-431.43"/>
</a>
</g>
</g>
<!-- Node15 -->
<g id="Node000015" class="node">
<title>Node15</title>
<g id="a_Node000015"><a xlink:href="../../d5/d72/classLSM1x0A__LoRaWAN.html#a3fdd1ac318a5ad2559323e5d57e36a5e" target="_top" xlink:title="Enables or disables specific sub&#45;bands for regions supporting Channel Masks (e.g.,...">
<polygon fill="white" stroke="#666666" points="880.62,-110.01 690.62,-110.01 690.62,-90.01 880.62,-90.01 880.62,-110.01"/>
<text text-anchor="middle" x="785.62" y="-96.51" font-family="Helvetica,sans-Serif" font-size="10.00">LSM1x0A_LoRaWAN::setChannelMask</text>
</a>
</g>
</g>
<!-- Node2&#45;&gt;Node15 -->
<g id="edge53_Node000002_Node000015" class="edge">
<title>Node2&#45;&gt;Node15</title>
<g id="a_edge53_Node000002_Node000015"><a xlink:title=" ">
<path fill="none" stroke="#63b8ff" d="M274.57,-149.61C294.65,-141.09 324.76,-129.56 352.25,-124.01 462.21,-101.8 590.87,-97.33 679.08,-97.46"/>
<polygon fill="#63b8ff" stroke="#63b8ff" points="678.92,-100.96 688.93,-97.5 678.94,-93.96 678.92,-100.96"/>
</a>
</g>
</g>
<!-- Node32 -->
<g id="Node000032" class="node">
<title>Node32</title>
<g id="a_Node000032"><a xlink:href="../../d8/d92/classLSM1x0A__Controller.html#a62476e30e50c7fe120aeb8df4b828675" target="_top" xlink:title="Synchronously/blockingly waits for an asynchronous event to occur. Useful for wrapping commands like ...">
<polygon fill="white" stroke="#666666" points="458.25,-72.01 352.25,-72.01 352.25,-40.01 458.25,-40.01 458.25,-72.01"/>
<text text-anchor="start" x="360.25" y="-58.51" font-family="Helvetica,sans-Serif" font-size="10.00">LSM1x0A_Controller</text>
<text text-anchor="middle" x="405.25" y="-46.51" font-family="Helvetica,sans-Serif" font-size="10.00">::waitForEvent</text>
</a>
</g>
</g>
<!-- Node2&#45;&gt;Node32 -->
<g id="edge54_Node000002_Node000032" class="edge">
<title>Node2&#45;&gt;Node32</title>
<g id="a_edge54_Node000002_Node000032"><a xlink:title=" ">
<path fill="none" stroke="#63b8ff" d="M264.53,-149.72C283.42,-134.96 319.72,-107.25 352.25,-86.01 356.23,-83.41 360.43,-80.79 364.67,-78.23"/>
<polygon fill="#63b8ff" stroke="#63b8ff" points="366.35,-81.3 373.18,-73.2 362.79,-75.28 366.35,-81.3"/>
</a>
</g>
</g>
<!-- Node4&#45;&gt;Node1 -->
<g id="edge8_Node000004_Node000001" class="edge">
<title>Node4&#45;&gt;Node1</title>
<g id="a_edge8_Node000004_Node000001"><a xlink:title=" ">
<path fill="none" stroke="#63b8ff" d="M351.91,-253.98C300.39,-244.11 220.84,-228.87 160.26,-217.27"/>
<polygon fill="#63b8ff" stroke="#63b8ff" points="161.15,-213.88 150.67,-215.43 159.83,-220.75 161.15,-213.88"/>
</a>
</g>
</g>
<!-- Node4&#45;&gt;Node3 -->
<g id="edge4_Node000004_Node000003" class="edge">
<title>Node4&#45;&gt;Node3</title>
<g id="a_edge4_Node000004_Node000003"><a xlink:title=" ">
<path fill="none" stroke="#63b8ff" d="M431.43,-247.6C448.69,-236.73 472.36,-222.58 494.25,-212.01 501.03,-208.74 508.26,-205.56 515.49,-202.58"/>
<polygon fill="#63b8ff" stroke="#63b8ff" points="516.64,-205.89 524.62,-198.92 514.04,-199.39 516.64,-205.89"/>
</a>
</g>
</g>
<!-- Node5 -->
<g id="Node000005" class="node">
<title>Node5</title>
<g id="a_Node000005"><a xlink:href="../../d8/d92/classLSM1x0A__Controller.html#a345d4bd79fa16b18dc33a4ca788fe5f7" target="_top" xlink:title="Performs a hardware reset using the reset pin.">
<polygon fill="white" stroke="#666666" points="626.5,-904.01 520.5,-904.01 520.5,-872.01 626.5,-872.01 626.5,-904.01"/>
<text text-anchor="start" x="528.5" y="-890.51" font-family="Helvetica,sans-Serif" font-size="10.00">LSM1x0A_Controller</text>
<text text-anchor="middle" x="573.5" y="-878.51" font-family="Helvetica,sans-Serif" font-size="10.00">::hardwareReset</text>
</a>
</g>
</g>
<!-- Node4&#45;&gt;Node5 -->
<g id="edge5_Node000004_Node000005" class="edge">
<title>Node4&#45;&gt;Node5</title>
<g id="a_edge5_Node000004_Node000005"><a xlink:title=" ">
<path fill="none" stroke="#63b8ff" d="M406.51,-280.45C408.18,-366.56 419.9,-765.29 494.25,-858.01 498.67,-863.52 504.23,-868.02 510.34,-871.7"/>
<polygon fill="#63b8ff" stroke="#63b8ff" points="508.46,-874.67 518.95,-876.13 511.66,-868.44 508.46,-874.67"/>
</a>
</g>
</g>
<!-- Node7 -->
<g id="Node000007" class="node">
<title>Node7</title>
<g id="a_Node000007"><a xlink:href="../../d5/d72/classLSM1x0A__LoRaWAN.html#a1892801e37c8cd67d37c76108d6f7d49" target="_top" xlink:title="Validates if the device is currently Joined to the network. (Either confirmed by OTAA or statically a...">
<polygon fill="white" stroke="#666666" points="1071,-102.01 918.5,-102.01 918.5,-82.01 1071,-82.01 1071,-102.01"/>
<text text-anchor="middle" x="994.75" y="-88.51" font-family="Helvetica,sans-Serif" font-size="10.00">LSM1x0A_LoRaWAN::isJoined</text>
</a>
</g>
</g>
<!-- Node4&#45;&gt;Node7 -->
<g id="edge7_Node000004_Node000007" class="edge">
<title>Node4&#45;&gt;Node7</title>
<g id="a_edge7_Node000004_Node000007"><a xlink:title=" ">
<path fill="none" stroke="#63b8ff" d="M458.63,-275.05C513.83,-283.39 599.94,-286.57 652.75,-240.01 707.1,-192.09 632.14,-126.23 688.75,-81.01 767.28,-18.27 896.89,-54.55 958.77,-77.55"/>
<polygon fill="#63b8ff" stroke="#63b8ff" points="957.5,-80.82 968.09,-81.12 960.01,-74.28 957.5,-80.82"/>
</a>
</g>
</g>
<!-- Node8 -->
<g id="Node000008" class="node">
<title>Node8</title>
<g id="a_Node000008"><a xlink:href="../../d5/d72/classLSM1x0A__LoRaWAN.html#ae3be4ce59dfa200369733317df356e97" target="_top" xlink:title="Pushes the RAM&#45;cached variables back down into the hardware module. Restores the operational state af...">
<polygon fill="white" stroke="#666666" points="646.75,-475.01 500.25,-475.01 500.25,-443.01 646.75,-443.01 646.75,-475.01"/>
<text text-anchor="start" x="508.25" y="-461.51" font-family="Helvetica,sans-Serif" font-size="10.00">LSM1x0A_LoRaWAN::restore</text>
<text text-anchor="middle" x="573.5" y="-449.51" font-family="Helvetica,sans-Serif" font-size="10.00">Config</text>
</a>
</g>
</g>
<!-- Node4&#45;&gt;Node8 -->
<g id="edge9_Node000004_Node000008" class="edge">
<title>Node4&#45;&gt;Node8</title>
<g id="a_edge9_Node000004_Node000008"><a xlink:title=" ">
<path fill="none" stroke="#63b8ff" d="M420.14,-280.3C449.17,-314.35 516.45,-393.27 551.07,-433.88"/>
<polygon fill="#63b8ff" stroke="#63b8ff" points="548.4,-436.14 557.55,-441.48 553.73,-431.6 548.4,-436.14"/>
</a>
</g>
</g>
<!-- Node30 -->
<g id="Node000030" class="node">
<title>Node30</title>
<g id="a_Node000030"><a xlink:href="../../d5/d72/classLSM1x0A__LoRaWAN.html#ace4b04396f1de1f4a54f513f5f378db7" target="_top" xlink:title="Manually overrides the internal joined state tracker.">
<polygon fill="white" stroke="#666666" points="652.75,-942.01 494.25,-942.01 494.25,-922.01 652.75,-922.01 652.75,-942.01"/>
<text text-anchor="middle" x="573.5" y="-928.51" font-family="Helvetica,sans-Serif" font-size="10.00">LSM1x0A_LoRaWAN::setJoined</text>
</a>
</g>
</g>
<!-- Node4&#45;&gt;Node30 -->
<g id="edge49_Node000004_Node000030" class="edge">
<title>Node4&#45;&gt;Node30</title>
<g id="a_edge49_Node000004_Node000030"><a xlink:title=" ">
<path fill="none" stroke="#63b8ff" d="M406.08,-280.32C405.44,-371.36 406.88,-816.1 494.25,-913.01 494.83,-913.65 495.43,-914.28 496.04,-914.88"/>
<polygon fill="#63b8ff" stroke="#63b8ff" points="493.59,-917.41 503.65,-920.75 497.87,-911.87 493.59,-917.41"/>
</a>
</g>
</g>
<!-- Node31 -->
<g id="Node000031" class="node">
<title>Node31</title>
<g id="a_Node000031"><a xlink:href="../../d8/d92/classLSM1x0A__Controller.html#a11ad21cb5ca33ec51346764a23bd485e" target="_top" xlink:title="Performs a software reset (ATZ Command).">
<polygon fill="white" stroke="#666666" points="1047.75,-48.01 941.75,-48.01 941.75,-16.01 1047.75,-16.01 1047.75,-48.01"/>
<text text-anchor="start" x="949.75" y="-34.51" font-family="Helvetica,sans-Serif" font-size="10.00">LSM1x0A_Controller</text>
<text text-anchor="middle" x="994.75" y="-22.51" font-family="Helvetica,sans-Serif" font-size="10.00">::softwareReset</text>
</a>
</g>
</g>
<!-- Node4&#45;&gt;Node31 -->
<g id="edge50_Node000004_Node000031" class="edge">
<title>Node4&#45;&gt;Node31</title>
<g id="a_edge50_Node000004_Node000031"><a xlink:title=" ">
<path fill="none" stroke="#63b8ff" d="M458.7,-249.14C470.37,-245.99 482.7,-242.78 494.25,-240.01 564.21,-223.2 601.63,-257.65 652.75,-207.01 706.08,-154.19 631.07,-90.04 688.75,-42.01 755.76,13.79 862.67,1.97 930.49,-13.58"/>
<polygon fill="#63b8ff" stroke="#63b8ff" points="929.42,-16.92 939.96,-15.85 931.05,-10.12 929.42,-16.92"/>
</a>
</g>
</g>
<!-- Node6 -->
<g id="Node000006" class="node">
<title>Node6</title>
<g id="a_Node000006"><a xlink:href="../../d6/d3c/classLSM1x0A__AtParser.html#ad2839120da13e56132b95019419be1e5" target="_top" xlink:title="Waits for an event (like BOOTALERT) without sending any command. Useful for hardware reset where the ...">
<polygon fill="white" stroke="#666666" points="855.88,-904.01 715.38,-904.01 715.38,-872.01 855.88,-872.01 855.88,-904.01"/>
<text text-anchor="start" x="723.38" y="-890.51" font-family="Helvetica,sans-Serif" font-size="10.00">LSM1x0A_AtParser::waitFor</text>
<text text-anchor="middle" x="785.62" y="-878.51" font-family="Helvetica,sans-Serif" font-size="10.00">Event</text>
</a>
</g>
</g>
<!-- Node5&#45;&gt;Node6 -->
<g id="edge6_Node000005_Node000006" class="edge">
<title>Node5&#45;&gt;Node6</title>
<g id="a_edge6_Node000005_Node000006"><a xlink:title=" ">
<path fill="none" stroke="#63b8ff" d="M626.98,-888.01C650.17,-888.01 677.97,-888.01 703.71,-888.01"/>
<polygon fill="#63b8ff" stroke="#63b8ff" points="703.47,-891.51 713.47,-888.01 703.47,-884.51 703.47,-891.51"/>
</a>
</g>
</g>
<!-- Node9 -->
<g id="Node000009" class="node">
<title>Node9</title>
<g id="a_Node000009"><a xlink:href="../../d5/d72/classLSM1x0A__LoRaWAN.html#af0baa3db4c7fab580d6b19a9e92472f6" target="_top" xlink:title="Enables or disables Adaptive Data Rate (ADR).">
<polygon fill="white" stroke="#666666" points="861.5,-614.01 709.75,-614.01 709.75,-594.01 861.5,-594.01 861.5,-614.01"/>
<text text-anchor="middle" x="785.62" y="-600.51" font-family="Helvetica,sans-Serif" font-size="10.00">LSM1x0A_LoRaWAN::setADR</text>
</a>
</g>
</g>
<!-- Node8&#45;&gt;Node9 -->
<g id="edge10_Node000008_Node000009" class="edge">
<title>Node8&#45;&gt;Node9</title>
<g id="a_edge10_Node000008_Node000009"><a xlink:title=" ">
<path fill="none" stroke="#63b8ff" d="M584.17,-475.17C601.47,-502.53 640.44,-557.67 688.75,-585.01 692,-586.85 695.4,-588.51 698.9,-590.02"/>
<polygon fill="#63b8ff" stroke="#63b8ff" points="697.63,-593.28 708.23,-593.53 700.1,-586.73 697.63,-593.28"/>
</a>
</g>
</g>
<!-- Node14 -->
<g id="Node000014" class="node">
<title>Node14</title>
<g id="a_Node000014"><a xlink:href="../../d5/d72/classLSM1x0A__LoRaWAN.html#a5365ed1596eb84ebf1e3b33b4a10c788" target="_top" xlink:title="Sets the LoRaWAN operational frequency band.">
<polygon fill="white" stroke="#666666" points="861.88,-576.01 709.38,-576.01 709.38,-556.01 861.88,-556.01 861.88,-576.01"/>
<text text-anchor="middle" x="785.62" y="-562.51" font-family="Helvetica,sans-Serif" font-size="10.00">LSM1x0A_LoRaWAN::setBand</text>
</a>
</g>
</g>
<!-- Node8&#45;&gt;Node14 -->
<g id="edge16_Node000008_Node000014" class="edge">
<title>Node8&#45;&gt;Node14</title>
<g id="a_edge16_Node000008_Node000014"><a xlink:title=" ">
<path fill="none" stroke="#63b8ff" d="M590.66,-475.47C611.44,-495.61 649.54,-529.22 688.75,-547.01 693.01,-548.94 697.46,-550.68 702.02,-552.24"/>
<polygon fill="#63b8ff" stroke="#63b8ff" points="700.76,-555.51 711.35,-555.12 702.83,-548.83 700.76,-555.51"/>
</a>
</g>
</g>
<!-- Node8&#45;&gt;Node15 -->
<g id="edge18_Node000008_Node000015" class="edge">
<title>Node8&#45;&gt;Node15</title>
<g id="a_edge18_Node000008_Node000015"><a xlink:title=" ">
<path fill="none" stroke="#63b8ff" d="M582.28,-442.8C597.17,-411.45 630.18,-340.11 652.75,-278.01 671.92,-225.28 654.27,-201.27 688.75,-157.01 703.38,-138.23 726.06,-124.35 745.69,-114.98"/>
<polygon fill="#63b8ff" stroke="#63b8ff" points="746.86,-118.3 754.53,-110.99 743.98,-111.92 746.86,-118.3"/>
</a>
</g>
</g>
<!-- Node16 -->
<g id="Node000016" class="node">
<title>Node16</title>
<g id="a_Node000016"><a xlink:href="../../d5/d72/classLSM1x0A__LoRaWAN.html#a9d9285c43414337a0ccb3a6cd7ca06e6" target="_top" xlink:title="Configures the number of retries for Confirmed uplinks.">
<polygon fill="white" stroke="#666666" points="867.88,-538.01 703.38,-538.01 703.38,-506.01 867.88,-506.01 867.88,-538.01"/>
<text text-anchor="start" x="711.38" y="-524.51" font-family="Helvetica,sans-Serif" font-size="10.00">LSM1x0A_LoRaWAN::setConfirm</text>
<text text-anchor="middle" x="785.62" y="-512.51" font-family="Helvetica,sans-Serif" font-size="10.00">Retry</text>
</a>
</g>
</g>
<!-- Node8&#45;&gt;Node16 -->
<g id="edge21_Node000008_Node000016" class="edge">
<title>Node8&#45;&gt;Node16</title>
<g id="a_edge21_Node000008_Node000016"><a xlink:title=" ">
<path fill="none" stroke="#63b8ff" d="M621.53,-475.43C642.07,-482.4 666.5,-490.42 688.75,-497.01 695.04,-498.87 701.58,-500.74 708.16,-502.56"/>
<polygon fill="#63b8ff" stroke="#63b8ff" points="707.2,-505.92 717.76,-505.18 709.04,-499.17 707.2,-505.92"/>
</a>
</g>
</g>
<!-- Node17 -->
<g id="Node000017" class="node">
<title>Node17</title>
<g id="a_Node000017"><a xlink:href="../../d5/d72/classLSM1x0A__LoRaWAN.html#a56345ceeafa0b9059d6de4e69eddc82e" target="_top" xlink:title="Sets the Data Rate (DR) of the module.">
<polygon fill="white" stroke="#666666" points="871.62,-488.01 699.62,-488.01 699.62,-468.01 871.62,-468.01 871.62,-488.01"/>
<text text-anchor="middle" x="785.62" y="-474.51" font-family="Helvetica,sans-Serif" font-size="10.00">LSM1x0A_LoRaWAN::setDataRate</text>
</a>
</g>
</g>
<!-- Node8&#45;&gt;Node17 -->
<g id="edge23_Node000008_Node000017" class="edge">
<title>Node8&#45;&gt;Node17</title>
<g id="a_edge23_Node000008_Node000017"><a xlink:title=" ">
<path fill="none" stroke="#63b8ff" d="M647.11,-465.58C660.27,-466.77 674.18,-468.02 687.9,-469.26"/>
<polygon fill="#63b8ff" stroke="#63b8ff" points="687.58,-472.75 697.86,-470.16 688.21,-465.78 687.58,-472.75"/>
</a>
</g>
</g>
<!-- Node18 -->
<g id="Node000018" class="node">
<title>Node18</title>
<g id="a_Node000018"><a xlink:href="../../d5/d72/classLSM1x0A__LoRaWAN.html#a8494083816ab885cb07fc3b08de029f4" target="_top" xlink:title="Sets the LoRaWAN Device Address (DevAddr) for ABP mode.">
<polygon fill="white" stroke="#666666" points="869.75,-450.01 701.5,-450.01 701.5,-430.01 869.75,-430.01 869.75,-450.01"/>
<text text-anchor="middle" x="785.62" y="-436.51" font-family="Helvetica,sans-Serif" font-size="10.00">LSM1x0A_LoRaWAN::setDevAddr</text>
</a>
</g>
</g>
<!-- Node8&#45;&gt;Node18 -->
<g id="edge25_Node000008_Node000018" class="edge">
<title>Node8&#45;&gt;Node18</title>
<g id="a_edge25_Node000008_Node000018"><a xlink:title=" ">
<path fill="none" stroke="#63b8ff" d="M647.11,-452.44C660.87,-451.2 675.45,-449.88 689.78,-448.59"/>
<polygon fill="#63b8ff" stroke="#63b8ff" points="690.04,-452.08 699.68,-447.69 689.41,-445.11 690.04,-452.08"/>
</a>
</g>
</g>
<!-- Node19 -->
<g id="Node000019" class="node">
<title>Node19</title>
<g id="a_Node000019"><a xlink:href="../../d5/d72/classLSM1x0A__LoRaWAN.html#ad320634e52d7ea907043cc50dd37c5b0" target="_top" xlink:title="Sets the LoRaWAN Device EUI (DevEUI).">
<polygon fill="white" stroke="#666666" points="868.25,-412.01 703,-412.01 703,-392.01 868.25,-392.01 868.25,-412.01"/>
<text text-anchor="middle" x="785.62" y="-398.51" font-family="Helvetica,sans-Serif" font-size="10.00">LSM1x0A_LoRaWAN::setDevEUI</text>
</a>
</g>
</g>
<!-- Node8&#45;&gt;Node19 -->
<g id="edge27_Node000008_Node000019" class="edge">
<title>Node8&#45;&gt;Node19</title>
<g id="a_edge27_Node000008_Node000019"><a xlink:title=" ">
<path fill="none" stroke="#63b8ff" d="M619.69,-442.53C640.54,-435.3 665.71,-427.1 688.75,-421.01 697.06,-418.82 705.83,-416.75 714.55,-414.84"/>
<polygon fill="#63b8ff" stroke="#63b8ff" points="715,-418.32 724.06,-412.82 713.55,-411.47 715,-418.32"/>
</a>
</g>
</g>
<!-- Node20 -->
<g id="Node000020" class="node">
<title>Node20</title>
<g id="a_Node000020"><a xlink:href="../../d5/d72/classLSM1x0A__LoRaWAN.html#a031023b0d2dd5db3c51c2db6ae7801cc" target="_top" xlink:title="Enables or disables the Duty Cycle limitation (EU regions mostly).">
<polygon fill="white" stroke="#666666" points="861.12,-374.01 710.12,-374.01 710.12,-342.01 861.12,-342.01 861.12,-374.01"/>
<text text-anchor="start" x="718.12" y="-360.51" font-family="Helvetica,sans-Serif" font-size="10.00">LSM1x0A_LoRaWAN::setDuty</text>
<text text-anchor="middle" x="785.62" y="-348.51" font-family="Helvetica,sans-Serif" font-size="10.00">Cycle</text>
</a>
</g>
</g>
<!-- Node8&#45;&gt;Node20 -->
<g id="edge29_Node000008_Node000020" class="edge">
<title>Node8&#45;&gt;Node20</title>
<g id="a_edge29_Node000008_Node000020"><a xlink:title=" ">
<path fill="none" stroke="#63b8ff" d="M594.35,-442.81C616.23,-425.68 653.09,-398.98 688.75,-383.01 692.54,-381.31 696.48,-379.71 700.49,-378.2"/>
<polygon fill="#63b8ff" stroke="#63b8ff" points="701.54,-381.54 709.82,-374.93 699.23,-374.94 701.54,-381.54"/>
</a>
</g>
</g>
<!-- Node21 -->
<g id="Node000021" class="node">
<title>Node21</title>
<g id="a_Node000021"><a xlink:href="../../d5/d72/classLSM1x0A__LoRaWAN.html#a6b179d5825c49af0f391dfc539912f64" target="_top" xlink:title="Sets the delay for the Join1 receive window.">
<polygon fill="white" stroke="#666666" points="862.25,-324.01 709,-324.01 709,-292.01 862.25,-292.01 862.25,-324.01"/>
<text text-anchor="start" x="717" y="-310.51" font-family="Helvetica,sans-Serif" font-size="10.00">LSM1x0A_LoRaWAN::setJoin1</text>
<text text-anchor="middle" x="785.62" y="-298.51" font-family="Helvetica,sans-Serif" font-size="10.00">Delay</text>
</a>
</g>
</g>
<!-- Node8&#45;&gt;Node21 -->
<g id="edge31_Node000008_Node000021" class="edge">
<title>Node8&#45;&gt;Node21</title>
<g id="a_edge31_Node000008_Node000021"><a xlink:title=" ">
<path fill="none" stroke="#63b8ff" d="M584.63,-442.72C602.33,-415.66 641.52,-361.62 688.75,-333.01 691.74,-331.2 694.87,-329.51 698.08,-327.95"/>
<polygon fill="#63b8ff" stroke="#63b8ff" points="699.44,-331.18 707.21,-323.97 696.65,-324.76 699.44,-331.18"/>
</a>
</g>
</g>
<!-- Node22 -->
<g id="Node000022" class="node">
<title>Node22</title>
<g id="a_Node000022"><a xlink:href="../../d5/d72/classLSM1x0A__LoRaWAN.html#a4545d0caad41558cdb9bae8286b104d8" target="_top" xlink:title="Sets the delay for the Join2 receive window.">
<polygon fill="white" stroke="#666666" points="862.25,-274.01 709,-274.01 709,-242.01 862.25,-242.01 862.25,-274.01"/>
<text text-anchor="start" x="717" y="-260.51" font-family="Helvetica,sans-Serif" font-size="10.00">LSM1x0A_LoRaWAN::setJoin2</text>
<text text-anchor="middle" x="785.62" y="-248.51" font-family="Helvetica,sans-Serif" font-size="10.00">Delay</text>
</a>
</g>
</g>
<!-- Node8&#45;&gt;Node22 -->
<g id="edge33_Node000008_Node000022" class="edge">
<title>Node8&#45;&gt;Node22</title>
<g id="a_edge33_Node000008_Node000022"><a xlink:title=" ">
<path fill="none" stroke="#63b8ff" d="M580.33,-442.77C593.72,-407.83 630.11,-325.32 688.75,-283.01 691.91,-280.73 695.27,-278.65 698.76,-276.77"/>
<polygon fill="#63b8ff" stroke="#63b8ff" points="700.01,-280.05 707.53,-272.59 697,-273.73 700.01,-280.05"/>
</a>
</g>
</g>
<!-- Node23 -->
<g id="Node000023" class="node">
<title>Node23</title>
<g id="a_Node000023"><a xlink:href="../../d5/d72/classLSM1x0A__LoRaWAN.html#a06bd50723ec1eb7e144c9141b2ec86fc" target="_top" xlink:title="Sets the LoRaWAN Network ID (NetID).">
<polygon fill="white" stroke="#666666" points="866,-224.01 705.25,-224.01 705.25,-204.01 866,-204.01 866,-224.01"/>
<text text-anchor="middle" x="785.62" y="-210.51" font-family="Helvetica,sans-Serif" font-size="10.00">LSM1x0A_LoRaWAN::setNwkID</text>
</a>
</g>
</g>
<!-- Node8&#45;&gt;Node23 -->
<g id="edge35_Node000008_Node000023" class="edge">
<title>Node8&#45;&gt;Node23</title>
<g id="a_edge35_Node000008_Node000023"><a xlink:title=" ">
<path fill="none" stroke="#63b8ff" d="M580.55,-442.78C598.4,-395.76 651.89,-260.98 688.75,-233.01 690.78,-231.47 692.91,-230.04 695.1,-228.72"/>
<polygon fill="#63b8ff" stroke="#63b8ff" points="696.49,-231.95 703.81,-224.29 693.31,-225.71 696.49,-231.95"/>
</a>
</g>
</g>
<!-- Node24 -->
<g id="Node000024" class="node">
<title>Node24</title>
<g id="a_Node000024"><a xlink:href="../../d5/d72/classLSM1x0A__LoRaWAN.html#aa70ada64d28ecca216bb62268e502adf" target="_top" xlink:title="Sets the delay for the RX1 receive window.">
<polygon fill="white" stroke="#666666" points="872.38,-186.01 698.88,-186.01 698.88,-166.01 872.38,-166.01 872.38,-186.01"/>
<text text-anchor="middle" x="785.62" y="-172.51" font-family="Helvetica,sans-Serif" font-size="10.00">LSM1x0A_LoRaWAN::setRx1Delay</text>
</a>
</g>
</g>
<!-- Node8&#45;&gt;Node24 -->
<g id="edge37_Node000008_Node000024" class="edge">
<title>Node8&#45;&gt;Node24</title>
<g id="a_edge37_Node000008_Node000024"><a xlink:title=" ">
<path fill="none" stroke="#63b8ff" d="M581.46,-442.9C606.23,-385.61 688.58,-195.14 688.75,-195.01 690.07,-193.94 691.43,-192.93 692.84,-191.97"/>
<polygon fill="#63b8ff" stroke="#63b8ff" points="694.35,-195.14 701.26,-187.12 690.85,-189.08 694.35,-195.14"/>
</a>
</g>
</g>
<!-- Node25 -->
<g id="Node000025" class="node">
<title>Node25</title>
<g id="a_Node000025"><a xlink:href="../../d5/d72/classLSM1x0A__LoRaWAN.html#a2cf4eff0181b6107d082bccefa24217b" target="_top" xlink:title="Sets the Data Rate (DR) specifically for the RX2 window.">
<polygon fill="white" stroke="#666666" points="880.62,-816.01 690.62,-816.01 690.62,-796.01 880.62,-796.01 880.62,-816.01"/>
<text text-anchor="middle" x="785.62" y="-802.51" font-family="Helvetica,sans-Serif" font-size="10.00">LSM1x0A_LoRaWAN::setRx2DataRate</text>
</a>
</g>
</g>
<!-- Node8&#45;&gt;Node25 -->
<g id="edge39_Node000008_Node000025" class="edge">
<title>Node8&#45;&gt;Node25</title>
<g id="a_edge39_Node000008_Node000025"><a xlink:title=" ">
<path fill="none" stroke="#63b8ff" d="M574.84,-475.38C576.89,-529.22 591.14,-702.15 688.75,-787.01 689.71,-787.85 690.7,-788.65 691.71,-789.42"/>
<polygon fill="#63b8ff" stroke="#63b8ff" points="689.77,-792.34 700.1,-794.73 693.52,-786.42 689.77,-792.34"/>
</a>
</g>
</g>
<!-- Node26 -->
<g id="Node000026" class="node">
<title>Node26</title>
<g id="a_Node000026"><a xlink:href="../../d5/d72/classLSM1x0A__LoRaWAN.html#a42d2137b475b57e19d891a5f1ac93221" target="_top" xlink:title="Sets the delay for the RX2 receive window.">
<polygon fill="white" stroke="#666666" points="872.38,-778.01 698.88,-778.01 698.88,-758.01 872.38,-758.01 872.38,-778.01"/>
<text text-anchor="middle" x="785.62" y="-764.51" font-family="Helvetica,sans-Serif" font-size="10.00">LSM1x0A_LoRaWAN::setRx2Delay</text>
</a>
</g>
</g>
<!-- Node8&#45;&gt;Node26 -->
<g id="edge41_Node000008_Node000026" class="edge">
<title>Node8&#45;&gt;Node26</title>
<g id="a_edge41_Node000008_Node000026"><a xlink:title=" ">
<path fill="none" stroke="#63b8ff" d="M575.66,-475.25C580.12,-524.86 600.68,-675.49 688.75,-749.01 689.89,-749.96 691.06,-750.86 692.26,-751.73"/>
<polygon fill="#63b8ff" stroke="#63b8ff" points="690.32,-754.65 700.69,-756.81 693.93,-748.65 690.32,-754.65"/>
</a>
</g>
</g>
<!-- Node27 -->
<g id="Node000027" class="node">
<title>Node27</title>
<g id="a_Node000027"><a xlink:href="../../d5/d72/classLSM1x0A__LoRaWAN.html#a689f7dfda1dfeae11ea397c2ddf2ad37" target="_top" xlink:title="Sets the precise frequency for the RX2 window.">
<polygon fill="white" stroke="#666666" points="882.5,-740.01 688.75,-740.01 688.75,-720.01 882.5,-720.01 882.5,-740.01"/>
<text text-anchor="middle" x="785.62" y="-726.51" font-family="Helvetica,sans-Serif" font-size="10.00">LSM1x0A_LoRaWAN::setRx2Frequency</text>
</a>
</g>
</g>
<!-- Node8&#45;&gt;Node27 -->
<g id="edge43_Node000008_Node000027" class="edge">
<title>Node8&#45;&gt;Node27</title>
<g id="a_edge43_Node000008_Node000027"><a xlink:title=" ">
<path fill="none" stroke="#63b8ff" d="M576.73,-475.39C583.84,-520.76 610.27,-648.78 688.75,-711.01 690.08,-712.06 691.45,-713.07 692.86,-714.02"/>
<polygon fill="#63b8ff" stroke="#63b8ff" points="690.9,-716.93 701.33,-718.83 694.36,-710.84 690.9,-716.93"/>
</a>
</g>
</g>
<!-- Node28 -->
<g id="Node000028" class="node">
<title>Node28</title>
<g id="a_Node000028"><a xlink:href="../../d5/d72/classLSM1x0A__LoRaWAN.html#a1df10d7ae6bf45b537d28d3d5c4b88d7" target="_top" xlink:title="Sets the transmission power index.">
<polygon fill="white" stroke="#666666" points="870.12,-702.01 701.12,-702.01 701.12,-682.01 870.12,-682.01 870.12,-702.01"/>
<text text-anchor="middle" x="785.62" y="-688.51" font-family="Helvetica,sans-Serif" font-size="10.00">LSM1x0A_LoRaWAN::setTxPower</text>
</a>
</g>
</g>
<!-- Node8&#45;&gt;Node28 -->
<g id="edge45_Node000008_Node000028" class="edge">
<title>Node8&#45;&gt;Node28</title>
<g id="a_edge45_Node000008_Node000028"><a xlink:title=" ">
<path fill="none" stroke="#63b8ff" d="M578.11,-475.28C588.01,-515.81 619.57,-621.71 688.75,-673.01 690.34,-674.19 691.99,-675.3 693.68,-676.35"/>
<polygon fill="#63b8ff" stroke="#63b8ff" points="692.01,-679.43 702.49,-680.98 695.26,-673.23 692.01,-679.43"/>
</a>
</g>
</g>
<!-- Node29 -->
<g id="Node000029" class="node">
<title>Node29</title>
<g id="a_Node000029"><a xlink:href="../../d5/d72/classLSM1x0A__LoRaWAN.html#a059fd6a9356c4ecadd5a98294da5952d" target="_top" xlink:title="Configures the number of repetitions for Unconfirmed uplinks.">
<polygon fill="white" stroke="#666666" points="873.12,-664.01 698.12,-664.01 698.12,-632.01 873.12,-632.01 873.12,-664.01"/>
<text text-anchor="start" x="706.12" y="-650.51" font-family="Helvetica,sans-Serif" font-size="10.00">LSM1x0A_LoRaWAN::setUnconfirm</text>
<text text-anchor="middle" x="785.62" y="-638.51" font-family="Helvetica,sans-Serif" font-size="10.00">Retry</text>
</a>
</g>
</g>
<!-- Node8&#45;&gt;Node29 -->
<g id="edge47_Node000008_Node000029" class="edge">
<title>Node8&#45;&gt;Node29</title>
<g id="a_edge47_Node000008_Node000029"><a xlink:title=" ">
<path fill="none" stroke="#63b8ff" d="M581.19,-475.4C595.62,-508.65 632.95,-584.12 688.75,-623.01 690.35,-624.13 692,-625.19 693.68,-626.21"/>
<polygon fill="#63b8ff" stroke="#63b8ff" points="691.91,-629.23 702.38,-630.83 695.19,-623.05 691.91,-629.23"/>
</a>
</g>
</g>
<!-- Node9&#45;&gt;Node10 -->
<g id="edge11_Node000009_Node000010" class="edge">
<title>Node9&#45;&gt;Node10</title>
<g id="a_edge11_Node000009_Node000010"><a xlink:title=" ">
<path fill="none" stroke="#63b8ff" d="M861.66,-594.15C868.95,-591.73 876.03,-588.73 882.5,-585.01 925.05,-560.56 959.71,-513.86 978.48,-484.69"/>
<polygon fill="#63b8ff" stroke="#63b8ff" points="981.29,-486.79 983.64,-476.45 975.36,-483.07 981.29,-486.79"/>
</a>
</g>
</g>
<!-- Node10&#45;&gt;Node4 -->
<g id="edge12_Node000010_Node000004" class="edge">
<title>Node10&#45;&gt;Node4</title>
<g id="a_edge12_Node000010_Node000004"><a xlink:title=" ">
<path fill="none" stroke="#63b8ff" d="M991.39,-475.21C981.53,-540.3 941.46,-781.31 882.5,-825.01 813.32,-876.29 763.21,-868.26 688.75,-825.01 484.82,-706.56 423.83,-387.86 409.82,-291.79"/>
<polygon fill="#63b8ff" stroke="#63b8ff" points="413.29,-291.4 408.44,-281.98 406.36,-292.37 413.29,-291.4"/>
</a>
</g>
</g>
<!-- Node11 -->
<g id="Node000011" class="node">
<title>Node11</title>
<g id="a_Node000011"><a xlink:href="../../d6/d3c/classLSM1x0A__AtParser.html#a29b53c521974387ba6c03afadfaffa4a" target="_top" xlink:title="Sends a simple command and waits for OK/ERROR. Example: sendCommand(&quot;AT+JOIN&quot;);.">
<polygon fill="white" stroke="#666666" points="1281.25,-250.01 1107,-250.01 1107,-230.01 1281.25,-230.01 1281.25,-250.01"/>
<text text-anchor="middle" x="1194.12" y="-236.51" font-family="Helvetica,sans-Serif" font-size="10.00">LSM1x0A_AtParser::sendCommand</text>
</a>
</g>
</g>
<!-- Node10&#45;&gt;Node11 -->
<g id="edge13_Node000010_Node000011" class="edge">
<title>Node10&#45;&gt;Node11</title>
<g id="a_edge13_Node000010_Node000011"><a xlink:title=" ">
<path fill="none" stroke="#63b8ff" d="M1010.59,-442.55C1046.59,-402.6 1138.43,-300.7 1176.35,-258.62"/>
<polygon fill="#63b8ff" stroke="#63b8ff" points="1178.88,-261.05 1182.97,-251.28 1173.68,-256.36 1178.88,-261.05"/>
</a>
</g>
</g>
<!-- Node12 -->
<g id="Node000012" class="node">
<title>Node12</title>
<g id="a_Node000012"><a xlink:href="../../d6/d3c/classLSM1x0A__AtParser.html#a0ba6f927c54fceece22c17773d3f2600" target="_top" xlink:title="Sends a command and extracts a value from the response.">
<polygon fill="white" stroke="#666666" points="1491.5,-256.01 1317.25,-256.01 1317.25,-224.01 1491.5,-224.01 1491.5,-256.01"/>
<text text-anchor="start" x="1325.25" y="-242.51" font-family="Helvetica,sans-Serif" font-size="10.00">LSM1x0A_AtParser::sendCommand</text>
<text text-anchor="middle" x="1404.38" y="-230.51" font-family="Helvetica,sans-Serif" font-size="10.00">WithResponse</text>
</a>
</g>
</g>
<!-- Node11&#45;&gt;Node12 -->
<g id="edge14_Node000011_Node000012" class="edge">
<title>Node11&#45;&gt;Node12</title>
<g id="a_edge14_Node000011_Node000012"><a xlink:title=" ">
<path fill="none" stroke="#63b8ff" d="M1281.63,-240.01C1289.53,-240.01 1297.57,-240.01 1305.56,-240.01"/>
<polygon fill="#63b8ff" stroke="#63b8ff" points="1305.29,-243.51 1315.29,-240.01 1305.29,-236.51 1305.29,-243.51"/>
</a>
</g>
</g>
<!-- Node13 -->
<g id="Node000013" class="node">
<title>Node13</title>
<g id="a_Node000013"><a xlink:href="../../d5/d8b/classUartDriver.html#a5d0f22e8867eebe99273078bb19bd23d" target="_top" xlink:title="Sends data through UART.">
<polygon fill="white" stroke="#666666" points="1636.5,-250.01 1527.5,-250.01 1527.5,-230.01 1636.5,-230.01 1636.5,-250.01"/>
<text text-anchor="middle" x="1582" y="-236.51" font-family="Helvetica,sans-Serif" font-size="10.00">UartDriver::sendData</text>
</a>
</g>
</g>
<!-- Node12&#45;&gt;Node13 -->
<g id="edge15_Node000012_Node000013" class="edge">
<title>Node12&#45;&gt;Node13</title>
<g id="a_edge15_Node000012_Node000013"><a xlink:title=" ">
<path fill="none" stroke="#63b8ff" d="M1491.9,-240.01C1500.05,-240.01 1508.2,-240.01 1516.1,-240.01"/>
<polygon fill="#63b8ff" stroke="#63b8ff" points="1515.93,-243.51 1525.93,-240.01 1515.93,-236.51 1515.93,-243.51"/>
</a>
</g>
</g>
<!-- Node14&#45;&gt;Node10 -->
<g id="edge17_Node000014_Node000010" class="edge">
<title>Node14&#45;&gt;Node10</title>
<g id="a_edge17_Node000014_Node000010"><a xlink:title=" ">
<path fill="none" stroke="#63b8ff" d="M859.01,-555.52C867.11,-553.22 875.1,-550.42 882.5,-547.01 916.3,-531.41 948.98,-503.55 970.07,-483.34"/>
<polygon fill="#63b8ff" stroke="#63b8ff" points="972.32,-486.04 977.02,-476.54 967.42,-481.04 972.32,-486.04"/>
</a>
</g>
</g>
<!-- Node15&#45;&gt;Node7 -->
<g id="edge19_Node000015_Node000007" class="edge">
<title>Node15&#45;&gt;Node7</title>
<g id="a_edge19_Node000015_Node000007"><a xlink:title=" ">
<path fill="none" stroke="#63b8ff" d="M881.1,-96.36C889.6,-96.03 898.2,-95.7 906.64,-95.37"/>
<polygon fill="#63b8ff" stroke="#63b8ff" points="906.66,-98.88 916.52,-94.99 906.39,-91.88 906.66,-98.88"/>
</a>
</g>
</g>
<!-- Node15&#45;&gt;Node10 -->
<g id="edge20_Node000015_Node000010" class="edge">
<title>Node15&#45;&gt;Node10</title>
<g id="a_edge20_Node000015_Node000010"><a xlink:title=" ">
<path fill="none" stroke="#63b8ff" d="M861.21,-110.5C869.02,-113.89 876.34,-118.29 882.5,-124.01 973.07,-208 989.99,-367.41 993.08,-431.4"/>
<polygon fill="#63b8ff" stroke="#63b8ff" points="989.59,-431.51 993.48,-441.37 996.58,-431.24 989.59,-431.51"/>
</a>
</g>
</g>
<!-- Node16&#45;&gt;Node10 -->
<g id="edge22_Node000016_Node000010" class="edge">
<title>Node16&#45;&gt;Node10</title>
<g id="a_edge22_Node000016_Node000010"><a xlink:title=" ">
<path fill="none" stroke="#63b8ff" d="M852.3,-505.57C862.45,-502.84 872.78,-499.93 882.5,-497.01 900.47,-491.61 919.87,-485.19 937.37,-479.17"/>
<polygon fill="#63b8ff" stroke="#63b8ff" points="938.26,-482.57 946.56,-475.99 935.96,-475.96 938.26,-482.57"/>
</a>
</g>
</g>
<!-- Node17&#45;&gt;Node10 -->
<g id="edge24_Node000017_Node000010" class="edge">
<title>Node17&#45;&gt;Node10</title>
<g id="a_edge24_Node000017_Node000010"><a xlink:title=" ">
<path fill="none" stroke="#63b8ff" d="M872.07,-470.17C891.45,-468.39 911.7,-466.54 930,-464.86"/>
<polygon fill="#63b8ff" stroke="#63b8ff" points="930.26,-468.35 939.9,-463.95 929.63,-461.38 930.26,-468.35"/>
</a>
</g>
</g>
<!-- Node18&#45;&gt;Node10 -->
<g id="edge26_Node000018_Node000010" class="edge">
<title>Node18&#45;&gt;Node10</title>
<g id="a_edge26_Node000018_Node000010"><a xlink:title=" ">
<path fill="none" stroke="#63b8ff" d="M869.98,-447.66C890.08,-449.5 911.25,-451.44 930.28,-453.19"/>
<polygon fill="#63b8ff" stroke="#63b8ff" points="929.73,-456.65 940.01,-454.08 930.37,-449.68 929.73,-456.65"/>
</a>
</g>
</g>
<!-- Node19&#45;&gt;Node10 -->
<g id="edge28_Node000019_Node000010" class="edge">
<title>Node19&#45;&gt;Node10</title>
<g id="a_edge28_Node000019_Node000010"><a xlink:title=" ">
<path fill="none" stroke="#63b8ff" d="M845.98,-412.49C858.13,-414.99 870.78,-417.86 882.5,-421.01 901.19,-426.03 921.3,-432.54 939.21,-438.76"/>
<polygon fill="#63b8ff" stroke="#63b8ff" points="938.02,-442.05 948.62,-442.07 940.34,-435.45 938.02,-442.05"/>
</a>
</g>
</g>
<!-- Node20&#45;&gt;Node10 -->
<g id="edge30_Node000020_Node000010" class="edge">
<title>Node20&#45;&gt;Node10</title>
<g id="a_edge30_Node000020_Node000010"><a xlink:title=" ">
<path fill="none" stroke="#63b8ff" d="M860.3,-374.43C867.92,-376.95 875.45,-379.8 882.5,-383.01 912.91,-396.86 944.03,-418.92 965.59,-435.71"/>
<polygon fill="#63b8ff" stroke="#63b8ff" points="963.3,-438.37 973.31,-441.84 967.65,-432.88 963.3,-438.37"/>
</a>
</g>
</g>
<!-- Node21&#45;&gt;Node10 -->
<g id="edge32_Node000021_Node000010" class="edge">
<title>Node21&#45;&gt;Node10</title>
<g id="a_edge32_Node000021_Node000010"><a xlink:title=" ">
<path fill="none" stroke="#63b8ff" d="M862.7,-323.28C869.63,-326.01 876.35,-329.23 882.5,-333.01 924.08,-358.58 958.82,-404.53 977.91,-433.31"/>
<polygon fill="#63b8ff" stroke="#63b8ff" points="974.8,-434.95 983.17,-441.44 980.68,-431.15 974.8,-434.95"/>
</a>
</g>
</g>
<!-- Node22&#45;&gt;Node10 -->
<g id="edge34_Node000022_Node000010" class="edge">
<title>Node22&#45;&gt;Node10</title>
<g id="a_edge34_Node000022_Node000010"><a xlink:title=" ">
<path fill="none" stroke="#63b8ff" d="M862.4,-271.86C869.55,-274.88 876.39,-278.54 882.5,-283.01 935.23,-321.54 968.94,-393.35 984.22,-432.27"/>
<polygon fill="#63b8ff" stroke="#63b8ff" points="980.84,-433.25 987.66,-441.35 987.39,-430.76 980.84,-433.25"/>
</a>
</g>
</g>
<!-- Node23&#45;&gt;Node10 -->
<g id="edge36_Node000023_Node000010" class="edge">
<title>Node23&#45;&gt;Node10</title>
<g id="a_edge36_Node000023_Node000010"><a xlink:title=" ">
<path fill="none" stroke="#63b8ff" d="M866.13,-223.54C871.98,-226.07 877.52,-229.19 882.5,-233.01 948.39,-283.57 977.74,-383.48 988.51,-431.71"/>
<polygon fill="#63b8ff" stroke="#63b8ff" points="985.05,-432.25 990.54,-441.31 991.89,-430.8 985.05,-432.25"/>
</a>
</g>
</g>
<!-- Node24&#45;&gt;Node10 -->
<g id="edge38_Node000024_Node000010" class="edge">
<title>Node24&#45;&gt;Node10</title>
<g id="a_edge38_Node000024_Node000010"><a xlink:title=" ">
<path fill="none" stroke="#63b8ff" d="M868.71,-186.31C873.64,-188.71 878.29,-191.58 882.5,-195.01 957.59,-256.21 982.82,-377.1 990.59,-431.43"/>
<polygon fill="#63b8ff" stroke="#63b8ff" points="987.08,-431.61 991.87,-441.06 994.02,-430.69 987.08,-431.61"/>
</a>
</g>
</g>
<!-- Node25&#45;&gt;Node10 -->
<g id="edge40_Node000025_Node000010" class="edge">
<title>Node25&#45;&gt;Node10</title>
<g id="a_edge40_Node000025_Node000010"><a xlink:title=" ">
<path fill="none" stroke="#63b8ff" d="M869.91,-795.58C874.42,-793.2 878.67,-790.37 882.5,-787.01 973.43,-707.3 990.15,-550.43 993.14,-486.8"/>
<polygon fill="#63b8ff" stroke="#63b8ff" points="996.64,-487.01 993.52,-476.88 989.64,-486.74 996.64,-487.01"/>
</a>
</g>
</g>
<!-- Node26&#45;&gt;Node10 -->
<g id="edge42_Node000026_Node000010" class="edge">
<title>Node26&#45;&gt;Node10</title>
<g id="a_edge42_Node000026_Node000010"><a xlink:title=" ">
<path fill="none" stroke="#63b8ff" d="M869.3,-757.63C874.02,-755.25 878.48,-752.4 882.5,-749.01 964.13,-680.25 986.03,-544.47 991.77,-486.4"/>
<polygon fill="#63b8ff" stroke="#63b8ff" points="995.23,-487.02 992.63,-476.75 988.26,-486.4 995.23,-487.02"/>
</a>
</g>
</g>
<!-- Node27&#45;&gt;Node10 -->
<g id="edge44_Node000027_Node000010" class="edge">
<title>Node27&#45;&gt;Node10</title>
<g id="a_edge44_Node000027_Node000010"><a xlink:title=" ">
<path fill="none" stroke="#63b8ff" d="M868.65,-719.62C873.59,-717.25 878.26,-714.4 882.5,-711.01 954.7,-653.18 981.31,-538.87 990,-486.45"/>
<polygon fill="#63b8ff" stroke="#63b8ff" points="993.41,-487.29 991.49,-476.88 986.49,-486.22 993.41,-487.29"/>
</a>
</g>
</g>
<!-- Node28&#45;&gt;Node10 -->
<g id="edge46_Node000028_Node000010" class="edge">
<title>Node28&#45;&gt;Node10</title>
<g id="a_edge46_Node000028_Node000010"><a xlink:title=" ">
<path fill="none" stroke="#63b8ff" d="M867.93,-681.52C873.1,-679.18 878.02,-676.37 882.5,-673.01 945.52,-625.75 975.99,-532.38 987.73,-486.2"/>
<polygon fill="#63b8ff" stroke="#63b8ff" points="991.06,-487.28 990.02,-476.74 984.26,-485.64 991.06,-487.28"/>
</a>
</g>
</g>
<!-- Node29&#45;&gt;Node10 -->
<g id="edge48_Node000029_Node000010" class="edge">
<title>Node29&#45;&gt;Node10</title>
<g id="a_edge48_Node000029_Node000010"><a xlink:title=" ">
<path fill="none" stroke="#63b8ff" d="M867.58,-631.6C872.83,-629.13 877.86,-626.28 882.5,-623.01 932.42,-587.76 966.62,-522.47 982.89,-485.8"/>
<polygon fill="#63b8ff" stroke="#63b8ff" points="986.03,-487.36 986.76,-476.79 979.6,-484.6 986.03,-487.36"/>
</a>
</g>
</g>
<!-- Node31&#45;&gt;Node11 -->
<g id="edge51_Node000031_Node000011" class="edge">
<title>Node31&#45;&gt;Node11</title>
<g id="a_edge51_Node000031_Node000011"><a xlink:title=" ">
<path fill="none" stroke="#63b8ff" d="M1033.44,-48.41C1046.15,-54.98 1059.92,-63.31 1071,-73.01 1121.5,-117.23 1163.35,-185.88 1182.27,-219.73"/>
<polygon fill="#63b8ff" stroke="#63b8ff" points="1179.18,-221.38 1187.06,-228.46 1185.32,-218.01 1179.18,-221.38"/>
</a>
</g>
</g>
</g>
</svg>
