<?xml version="1.0" encoding="UTF-8" standalone="no"?>
<!DOCTYPE svg PUBLIC "-//W3C//DTD SVG 1.1//EN"
 "http://www.w3.org/Graphics/SVG/1.1/DTD/svg11.dtd">
<!-- Generated by graphviz version 12.2.1 (20241206.2353)
 -->
<!-- Title: LSM1x0A_LoRaWAN::restoreConfig Pages: 1 -->
<svg width="1488pt" height="749pt"
 viewBox="0.00 0.00 1487.50 748.93" xmlns="http://www.w3.org/2000/svg" xmlns:xlink="http://www.w3.org/1999/xlink">
<g id="graph0" class="graph" transform="scale(1 1) rotate(0) translate(4 744.93)">
<title>LSM1x0A_LoRaWAN::restoreConfig</title>
<!-- Node1 -->
<g id="Node000001" class="node">
<title>Node1</title>
<g id="a_Node000001"><a xlink:title="Pushes the RAM&#45;cached variables back down into the hardware module. Restores the operational state af...">
<polygon fill="#999999" stroke="#666666" points="146.5,-384.18 0,-384.18 0,-352.18 146.5,-352.18 146.5,-384.18"/>
<text text-anchor="start" x="8" y="-370.68" font-family="Helvetica,sans-Serif" font-size="10.00">LSM1x0A_LoRaWAN::restore</text>
<text text-anchor="middle" x="73.25" y="-358.68" font-family="Helvetica,sans-Serif" font-size="10.00">Config</text>
</a>
</g>
</g>
<!-- Node2 -->
<g id="Node000002" class="node">
<title>Node2</title>
<g id="a_Node000002"><a xlink:href="../../d5/d72/classLSM1x0A__LoRaWAN.html#af0baa3db4c7fab580d6b19a9e92472f6" target="_top" xlink:title="Enables or disables Adaptive Data Rate (ADR).">
<polygon fill="white" stroke="#666666" points="355.25,-649.18 203.5,-649.18 203.5,-629.18 355.25,-629.18 355.25,-649.18"/>
<text text-anchor="middle" x="279.38" y="-635.68" font-family="Helvetica,sans-Serif" font-size="10.00">LSM1x0A_LoRaWAN::setADR</text>
</a>
</g>
</g>
<!-- Node1&#45;&gt;Node2 -->
<g id="edge1_Node000001_Node000002" class="edge">
<title>Node1&#45;&gt;Node2</title>
<g id="a_edge1_Node000001_Node000002"><a xlink:title=" ">
<path fill="none" stroke="#63b8ff" d="M76.08,-384.53C82.06,-429.84 105.33,-557.72 182.5,-620.18 185.79,-622.84 189.36,-625.17 193.11,-627.19"/>
<polygon fill="#63b8ff" stroke="#63b8ff" points="191.48,-630.3 202.03,-631.27 194.38,-623.93 191.48,-630.3"/>
</a>
</g>
</g>
<!-- Node11 -->
<g id="Node000011" class="node">
<title>Node11</title>
<g id="a_Node000011"><a xlink:href="../../d5/d72/classLSM1x0A__LoRaWAN.html#a3fdd1ac318a5ad2559323e5d57e36a5e" target="_top" xlink:title="Enables or disables specific sub&#45;bands for regions supporting Channel Masks (e.g.,...">
<polygon fill="white" stroke="#666666" points="1291,-277.18 1101,-277.18 1101,-257.18 1291,-257.18 1291,-277.18"/>
<text text-anchor="middle" x="1196" y="-263.68" font-family="Helvetica,sans-Serif" font-size="10.00">LSM1x0A_LoRaWAN::setChannelMask</text>
</a>
</g>
</g>
<!-- Node1&#45;&gt;Node11 -->
<g id="edge26_Node000001_Node000011" class="edge">
<title>Node1&#45;&gt;Node11</title>
<g id="a_edge26_Node000001_Node000011"><a xlink:title=" ">
<path fill="none" stroke="#63b8ff" d="M73.85,-351.71C73.52,-296.84 80.62,-119.19 182.5,-40.18 281.67,36.74 338.74,-21.18 464.25,-21.18 464.25,-21.18 464.25,-21.18 776.5,-21.18 955.73,-21.18 1125.98,-190.93 1178.49,-248.41"/>
<polygon fill="#63b8ff" stroke="#63b8ff" points="1175.84,-250.7 1185.13,-255.79 1181.04,-246.02 1175.84,-250.7"/>
</a>
</g>
</g>
<!-- Node18 -->
<g id="Node000018" class="node">
<title>Node18</title>
<g id="a_Node000018"><a xlink:href="../../d5/d72/classLSM1x0A__LoRaWAN.html#a5365ed1596eb84ebf1e3b33b4a10c788" target="_top" xlink:title="Sets the LoRaWAN operational frequency band.">
<polygon fill="white" stroke="#666666" points="355.62,-611.18 203.12,-611.18 203.12,-591.18 355.62,-591.18 355.62,-611.18"/>
<text text-anchor="middle" x="279.38" y="-597.68" font-family="Helvetica,sans-Serif" font-size="10.00">LSM1x0A_LoRaWAN::setBand</text>
</a>
</g>
</g>
<!-- Node1&#45;&gt;Node18 -->
<g id="edge24_Node000001_Node000018" class="edge">
<title>Node1&#45;&gt;Node18</title>
<g id="a_edge24_Node000001_Node000018"><a xlink:title=" ">
<path fill="none" stroke="#63b8ff" d="M77.39,-384.42C86.13,-424.91 114.67,-530.71 182.5,-582.18 185.64,-584.56 188.99,-586.66 192.5,-588.52"/>
<polygon fill="#63b8ff" stroke="#63b8ff" points="190.81,-591.6 201.36,-592.51 193.69,-585.21 190.81,-591.6"/>
</a>
</g>
</g>
<!-- Node19 -->
<g id="Node000019" class="node">
<title>Node19</title>
<g id="a_Node000019"><a xlink:href="../../d5/d72/classLSM1x0A__LoRaWAN.html#a9d9285c43414337a0ccb3a6cd7ca06e6" target="_top" xlink:title="Configures the number of retries for Confirmed uplinks.">
<polygon fill="white" stroke="#666666" points="361.62,-573.18 197.12,-573.18 197.12,-541.18 361.62,-541.18 361.62,-573.18"/>
<text text-anchor="start" x="205.12" y="-559.68" font-family="Helvetica,sans-Serif" font-size="10.00">LSM1x0A_LoRaWAN::setConfirm</text>
<text text-anchor="middle" x="279.38" y="-547.68" font-family="Helvetica,sans-Serif" font-size="10.00">Retry</text>
</a>
</g>
</g>
<!-- Node1&#45;&gt;Node19 -->
<g id="edge27_Node000001_Node000019" class="edge">
<title>Node1&#45;&gt;Node19</title>
<g id="a_edge27_Node000001_Node000019"><a xlink:title=" ">
<path fill="none" stroke="#63b8ff" d="M80.34,-384.57C93.56,-417.8 128.13,-493.26 182.5,-532.18 184.09,-533.31 185.72,-534.4 187.4,-535.43"/>
<polygon fill="#63b8ff" stroke="#63b8ff" points="185.59,-538.43 196.05,-540.12 188.92,-532.28 185.59,-538.43"/>
</a>
</g>
</g>
<!-- Node20 -->
<g id="Node000020" class="node">
<title>Node20</title>
<g id="a_Node000020"><a xlink:href="../../d5/d72/classLSM1x0A__LoRaWAN.html#a56345ceeafa0b9059d6de4e69eddc82e" target="_top" xlink:title="Sets the Data Rate (DR) of the module.">
<polygon fill="white" stroke="#666666" points="365.38,-523.18 193.38,-523.18 193.38,-503.18 365.38,-503.18 365.38,-523.18"/>
<text text-anchor="middle" x="279.38" y="-509.68" font-family="Helvetica,sans-Serif" font-size="10.00">LSM1x0A_LoRaWAN::setDataRate</text>
</a>
</g>
</g>
<!-- Node1&#45;&gt;Node20 -->
<g id="edge29_Node000001_Node000020" class="edge">
<title>Node1&#45;&gt;Node20</title>
<g id="a_edge29_Node000001_Node000020"><a xlink:title=" ">
<path fill="none" stroke="#63b8ff" d="M83.19,-384.34C99.24,-411.7 135.67,-466.84 182.5,-494.18 185.16,-495.73 187.92,-497.15 190.75,-498.46"/>
<polygon fill="#63b8ff" stroke="#63b8ff" points="189.32,-501.66 199.91,-502.16 191.95,-495.17 189.32,-501.66"/>
</a>
</g>
</g>
<!-- Node21 -->
<g id="Node000021" class="node">
<title>Node21</title>
<g id="a_Node000021"><a xlink:href="../../d5/d72/classLSM1x0A__LoRaWAN.html#a8494083816ab885cb07fc3b08de029f4" target="_top" xlink:title="Sets the LoRaWAN Device Address (DevAddr) for ABP mode.">
<polygon fill="white" stroke="#666666" points="363.5,-485.18 195.25,-485.18 195.25,-465.18 363.5,-465.18 363.5,-485.18"/>
<text text-anchor="middle" x="279.38" y="-471.68" font-family="Helvetica,sans-Serif" font-size="10.00">LSM1x0A_LoRaWAN::setDevAddr</text>
</a>
</g>
</g>
<!-- Node1&#45;&gt;Node21 -->
<g id="edge31_Node000001_Node000021" class="edge">
<title>Node1&#45;&gt;Node21</title>
<g id="a_edge31_Node000001_Node000021"><a xlink:title=" ">
<path fill="none" stroke="#63b8ff" d="M89.39,-384.66C108.89,-404.83 144.79,-438.47 182.5,-456.18 186.49,-458.05 190.66,-459.74 194.92,-461.26"/>
<polygon fill="#63b8ff" stroke="#63b8ff" points="193.66,-464.53 204.25,-464.25 195.8,-457.87 193.66,-464.53"/>
</a>
</g>
</g>
<!-- Node22 -->
<g id="Node000022" class="node">
<title>Node22</title>
<g id="a_Node000022"><a xlink:href="../../d5/d72/classLSM1x0A__LoRaWAN.html#ad320634e52d7ea907043cc50dd37c5b0" target="_top" xlink:title="Sets the LoRaWAN Device EUI (DevEUI).">
<polygon fill="white" stroke="#666666" points="362,-447.18 196.75,-447.18 196.75,-427.18 362,-427.18 362,-447.18"/>
<text text-anchor="middle" x="279.38" y="-433.68" font-family="Helvetica,sans-Serif" font-size="10.00">LSM1x0A_LoRaWAN::setDevEUI</text>
</a>
</g>
</g>
<!-- Node1&#45;&gt;Node22 -->
<g id="edge33_Node000001_Node000022" class="edge">
<title>Node1&#45;&gt;Node22</title>
<g id="a_edge33_Node000001_Node000022"><a xlink:title=" ">
<path fill="none" stroke="#63b8ff" d="M104.73,-384.63C126,-395.51 155.33,-409.35 182.5,-418.18 189.17,-420.34 196.19,-422.31 203.27,-424.08"/>
<polygon fill="#63b8ff" stroke="#63b8ff" points="202.39,-427.46 212.92,-426.35 203.99,-420.65 202.39,-427.46"/>
</a>
</g>
</g>
<!-- Node23 -->
<g id="Node000023" class="node">
<title>Node23</title>
<g id="a_Node000023"><a xlink:href="../../d5/d72/classLSM1x0A__LoRaWAN.html#a031023b0d2dd5db3c51c2db6ae7801cc" target="_top" xlink:title="Enables or disables the Duty Cycle limitation (EU regions mostly).">
<polygon fill="white" stroke="#666666" points="354.88,-409.18 203.88,-409.18 203.88,-377.18 354.88,-377.18 354.88,-409.18"/>
<text text-anchor="start" x="211.88" y="-395.68" font-family="Helvetica,sans-Serif" font-size="10.00">LSM1x0A_LoRaWAN::setDuty</text>
<text text-anchor="middle" x="279.38" y="-383.68" font-family="Helvetica,sans-Serif" font-size="10.00">Cycle</text>
</a>
</g>
</g>
<!-- Node1&#45;&gt;Node23 -->
<g id="edge35_Node000001_Node000023" class="edge">
<title>Node1&#45;&gt;Node23</title>
<g id="a_edge35_Node000001_Node000023"><a xlink:title=" ">
<path fill="none" stroke="#63b8ff" d="M146.79,-377.06C161.64,-378.88 177.4,-380.81 192.65,-382.68"/>
<polygon fill="#63b8ff" stroke="#63b8ff" points="191.8,-386.1 202.15,-383.84 192.65,-379.15 191.8,-386.1"/>
</a>
</g>
</g>
<!-- Node24 -->
<g id="Node000024" class="node">
<title>Node24</title>
<g id="a_Node000024"><a xlink:href="../../d5/d72/classLSM1x0A__LoRaWAN.html#a6b179d5825c49af0f391dfc539912f64" target="_top" xlink:title="Sets the delay for the Join1 receive window.">
<polygon fill="white" stroke="#666666" points="356,-359.18 202.75,-359.18 202.75,-327.18 356,-327.18 356,-359.18"/>
<text text-anchor="start" x="210.75" y="-345.68" font-family="Helvetica,sans-Serif" font-size="10.00">LSM1x0A_LoRaWAN::setJoin1</text>
<text text-anchor="middle" x="279.38" y="-333.68" font-family="Helvetica,sans-Serif" font-size="10.00">Delay</text>
</a>
</g>
</g>
<!-- Node1&#45;&gt;Node24 -->
<g id="edge37_Node000001_Node000024" class="edge">
<title>Node1&#45;&gt;Node24</title>
<g id="a_edge37_Node000001_Node000024"><a xlink:title=" ">
<path fill="none" stroke="#63b8ff" d="M146.79,-359.29C161.13,-357.54 176.32,-355.68 191.08,-353.87"/>
<polygon fill="#63b8ff" stroke="#63b8ff" points="191.27,-357.37 200.77,-352.68 190.42,-350.42 191.27,-357.37"/>
</a>
</g>
</g>
<!-- Node25 -->
<g id="Node000025" class="node">
<title>Node25</title>
<g id="a_Node000025"><a xlink:href="../../d5/d72/classLSM1x0A__LoRaWAN.html#a4545d0caad41558cdb9bae8286b104d8" target="_top" xlink:title="Sets the delay for the Join2 receive window.">
<polygon fill="white" stroke="#666666" points="356,-309.18 202.75,-309.18 202.75,-277.18 356,-277.18 356,-309.18"/>
<text text-anchor="start" x="210.75" y="-295.68" font-family="Helvetica,sans-Serif" font-size="10.00">LSM1x0A_LoRaWAN::setJoin2</text>
<text text-anchor="middle" x="279.38" y="-283.68" font-family="Helvetica,sans-Serif" font-size="10.00">Delay</text>
</a>
</g>
</g>
<!-- Node1&#45;&gt;Node25 -->
<g id="edge39_Node000001_Node000025" class="edge">
<title>Node1&#45;&gt;Node25</title>
<g id="a_edge39_Node000001_Node000025"><a xlink:title=" ">
<path fill="none" stroke="#63b8ff" d="M105.84,-351.77C127.1,-341.19 155.99,-327.67 182.5,-318.18 187.73,-316.3 193.17,-314.5 198.67,-312.79"/>
<polygon fill="#63b8ff" stroke="#63b8ff" points="199.29,-316.26 207.87,-310.04 197.28,-309.55 199.29,-316.26"/>
</a>
</g>
</g>
<!-- Node26 -->
<g id="Node000026" class="node">
<title>Node26</title>
<g id="a_Node000026"><a xlink:href="../../d5/d72/classLSM1x0A__LoRaWAN.html#a06bd50723ec1eb7e144c9141b2ec86fc" target="_top" xlink:title="Sets the LoRaWAN Network ID (NetID).">
<polygon fill="white" stroke="#666666" points="359.75,-259.18 199,-259.18 199,-239.18 359.75,-239.18 359.75,-259.18"/>
<text text-anchor="middle" x="279.38" y="-245.68" font-family="Helvetica,sans-Serif" font-size="10.00">LSM1x0A_LoRaWAN::setNwkID</text>
</a>
</g>
</g>
<!-- Node1&#45;&gt;Node26 -->
<g id="edge41_Node000001_Node000026" class="edge">
<title>Node1&#45;&gt;Node26</title>
<g id="a_edge41_Node000001_Node000026"><a xlink:title=" ">
<path fill="none" stroke="#63b8ff" d="M86.97,-351.73C105.43,-329.11 141.91,-288.83 182.5,-268.18 185.97,-266.41 189.59,-264.81 193.3,-263.35"/>
<polygon fill="#63b8ff" stroke="#63b8ff" points="194.24,-266.73 202.53,-260.14 191.94,-260.12 194.24,-266.73"/>
</a>
</g>
</g>
<!-- Node27 -->
<g id="Node000027" class="node">
<title>Node27</title>
<g id="a_Node000027"><a xlink:href="../../d5/d72/classLSM1x0A__LoRaWAN.html#aa70ada64d28ecca216bb62268e502adf" target="_top" xlink:title="Sets the delay for the RX1 receive window.">
<polygon fill="white" stroke="#666666" points="366.12,-221.18 192.62,-221.18 192.62,-201.18 366.12,-201.18 366.12,-221.18"/>
<text text-anchor="middle" x="279.38" y="-207.68" font-family="Helvetica,sans-Serif" font-size="10.00">LSM1x0A_LoRaWAN::setRx1Delay</text>
</a>
</g>
</g>
<!-- Node1&#45;&gt;Node27 -->
<g id="edge43_Node000001_Node000027" class="edge">
<title>Node1&#45;&gt;Node27</title>
<g id="a_edge43_Node000001_Node000027"><a xlink:title=" ">
<path fill="none" stroke="#63b8ff" d="M82.06,-351.89C97.07,-322.45 132.94,-260.61 182.5,-230.18 184.97,-228.66 187.53,-227.26 190.17,-225.97"/>
<polygon fill="#63b8ff" stroke="#63b8ff" points="191.42,-229.24 199.26,-222.11 188.69,-222.8 191.42,-229.24"/>
</a>
</g>
</g>
<!-- Node28 -->
<g id="Node000028" class="node">
<title>Node28</title>
<g id="a_Node000028"><a xlink:href="../../d5/d72/classLSM1x0A__LoRaWAN.html#a2cf4eff0181b6107d082bccefa24217b" target="_top" xlink:title="Sets the Data Rate (DR) specifically for the RX2 window.">
<polygon fill="white" stroke="#666666" points="374.38,-183.18 184.38,-183.18 184.38,-163.18 374.38,-163.18 374.38,-183.18"/>
<text text-anchor="middle" x="279.38" y="-169.68" font-family="Helvetica,sans-Serif" font-size="10.00">LSM1x0A_LoRaWAN::setRx2DataRate</text>
</a>
</g>
</g>
<!-- Node1&#45;&gt;Node28 -->
<g id="edge45_Node000001_Node000028" class="edge">
<title>Node1&#45;&gt;Node28</title>
<g id="a_edge45_Node000001_Node000028"><a xlink:title=" ">
<path fill="none" stroke="#63b8ff" d="M79.33,-351.68C91.15,-316.25 124.03,-232.82 182.5,-192.18 184.33,-190.9 186.22,-189.71 188.17,-188.6"/>
<polygon fill="#63b8ff" stroke="#63b8ff" points="189.5,-191.84 196.93,-184.3 186.41,-185.56 189.5,-191.84"/>
</a>
</g>
</g>
<!-- Node29 -->
<g id="Node000029" class="node">
<title>Node29</title>
<g id="a_Node000029"><a xlink:href="../../d5/d72/classLSM1x0A__LoRaWAN.html#a42d2137b475b57e19d891a5f1ac93221" target="_top" xlink:title="Sets the delay for the RX2 receive window.">
<polygon fill="white" stroke="#666666" points="366.12,-145.18 192.62,-145.18 192.62,-125.18 366.12,-125.18 366.12,-145.18"/>
<text text-anchor="middle" x="279.38" y="-131.68" font-family="Helvetica,sans-Serif" font-size="10.00">LSM1x0A_LoRaWAN::setRx2Delay</text>
</a>
</g>
</g>
<!-- Node1&#45;&gt;Node29 -->
<g id="edge47_Node000001_Node000029" class="edge">
<title>Node1&#45;&gt;Node29</title>
<g id="a_edge47_Node000001_Node000029"><a xlink:title=" ">
<path fill="none" stroke="#63b8ff" d="M77.39,-351.93C86.13,-311.44 114.67,-205.64 182.5,-154.18 184.03,-153.01 185.62,-151.91 187.25,-150.88"/>
<polygon fill="#63b8ff" stroke="#63b8ff" points="188.55,-154.15 195.69,-146.32 185.23,-147.99 188.55,-154.15"/>
</a>
</g>
</g>
<!-- Node30 -->
<g id="Node000030" class="node">
<title>Node30</title>
<g id="a_Node000030"><a xlink:href="../../d5/d72/classLSM1x0A__LoRaWAN.html#a689f7dfda1dfeae11ea397c2ddf2ad37" target="_top" xlink:title="Sets the precise frequency for the RX2 window.">
<polygon fill="white" stroke="#666666" points="376.25,-107.18 182.5,-107.18 182.5,-87.18 376.25,-87.18 376.25,-107.18"/>
<text text-anchor="middle" x="279.38" y="-93.68" font-family="Helvetica,sans-Serif" font-size="10.00">LSM1x0A_LoRaWAN::setRx2Frequency</text>
</a>
</g>
</g>
<!-- Node1&#45;&gt;Node30 -->
<g id="edge49_Node000001_Node000030" class="edge">
<title>Node1&#45;&gt;Node30</title>
<g id="a_edge49_Node000001_Node000030"><a xlink:title=" ">
<path fill="none" stroke="#63b8ff" d="M76.08,-351.82C82.06,-306.51 105.33,-178.63 182.5,-116.18 183.82,-115.11 185.18,-114.1 186.58,-113.13"/>
<polygon fill="#63b8ff" stroke="#63b8ff" points="188.09,-116.3 195,-108.27 184.59,-110.24 188.09,-116.3"/>
</a>
</g>
</g>
<!-- Node31 -->
<g id="Node000031" class="node">
<title>Node31</title>
<g id="a_Node000031"><a xlink:href="../../d5/d72/classLSM1x0A__LoRaWAN.html#a1df10d7ae6bf45b537d28d3d5c4b88d7" target="_top" xlink:title="Sets the transmission power index.">
<polygon fill="white" stroke="#666666" points="363.88,-69.18 194.88,-69.18 194.88,-49.18 363.88,-49.18 363.88,-69.18"/>
<text text-anchor="middle" x="279.38" y="-55.68" font-family="Helvetica,sans-Serif" font-size="10.00">LSM1x0A_LoRaWAN::setTxPower</text>
</a>
</g>
</g>
<!-- Node1&#45;&gt;Node31 -->
<g id="edge51_Node000001_Node000031" class="edge">
<title>Node1&#45;&gt;Node31</title>
<g id="a_edge51_Node000001_Node000031"><a xlink:title=" ">
<path fill="none" stroke="#63b8ff" d="M75.05,-351.96C78.43,-302.42 95.7,-151.97 182.5,-78.18 183.63,-77.22 184.79,-76.3 185.98,-75.43"/>
<polygon fill="#63b8ff" stroke="#63b8ff" points="187.67,-78.5 194.37,-70.3 184.02,-72.53 187.67,-78.5"/>
</a>
</g>
</g>
<!-- Node32 -->
<g id="Node000032" class="node">
<title>Node32</title>
<g id="a_Node000032"><a xlink:href="../../d5/d72/classLSM1x0A__LoRaWAN.html#a059fd6a9356c4ecadd5a98294da5952d" target="_top" xlink:title="Configures the number of repetitions for Unconfirmed uplinks.">
<polygon fill="white" stroke="#666666" points="366.88,-699.18 191.88,-699.18 191.88,-667.18 366.88,-667.18 366.88,-699.18"/>
<text text-anchor="start" x="199.88" y="-685.68" font-family="Helvetica,sans-Serif" font-size="10.00">LSM1x0A_LoRaWAN::setUnconfirm</text>
<text text-anchor="middle" x="279.38" y="-673.68" font-family="Helvetica,sans-Serif" font-size="10.00">Retry</text>
</a>
</g>
</g>
<!-- Node1&#45;&gt;Node32 -->
<g id="edge53_Node000001_Node000032" class="edge">
<title>Node1&#45;&gt;Node32</title>
<g id="a_edge53_Node000001_Node000032"><a xlink:title=" ">
<path fill="none" stroke="#63b8ff" d="M75.28,-384.51C79.28,-433.76 98.13,-582.01 182.5,-658.18 183.28,-658.88 184.08,-659.57 184.9,-660.24"/>
<polygon fill="#63b8ff" stroke="#63b8ff" points="182.74,-663 192.95,-665.82 186.73,-657.25 182.74,-663"/>
</a>
</g>
</g>
<!-- Node3 -->
<g id="Node000003" class="node">
<title>Node3</title>
<g id="a_Node000003"><a xlink:href="../../d8/d92/classLSM1x0A__Controller.html#afd7d92e60ed6fdae696a955cdbe0ed8c" target="_top" xlink:title="Sends any AT command to the module, returning error if it fails. Internally uses the LsmAtParser logi...">
<polygon fill="white" stroke="#666666" points="518.25,-384.18 412.25,-384.18 412.25,-352.18 518.25,-352.18 518.25,-384.18"/>
<text text-anchor="start" x="420.25" y="-370.68" font-family="Helvetica,sans-Serif" font-size="10.00">LSM1x0A_Controller</text>
<text text-anchor="middle" x="465.25" y="-358.68" font-family="Helvetica,sans-Serif" font-size="10.00">::sendCommand</text>
</a>
</g>
</g>
<!-- Node2&#45;&gt;Node3 -->
<g id="edge2_Node000002_Node000003" class="edge">
<title>Node2&#45;&gt;Node3</title>
<g id="a_edge2_Node000002_Node000003"><a xlink:title=" ">
<path fill="none" stroke="#63b8ff" d="M355.7,-632.32C363.19,-629.36 370.23,-625.41 376.25,-620.18 443.78,-561.52 459.5,-448.05 463.15,-395.77"/>
<polygon fill="#63b8ff" stroke="#63b8ff" points="466.64,-396.14 463.73,-385.95 459.65,-395.73 466.64,-396.14"/>
</a>
</g>
</g>
<!-- Node4 -->
<g id="Node000004" class="node">
<title>Node4</title>
<g id="a_Node000004"><a xlink:href="../../d8/d92/classLSM1x0A__Controller.html#abb0eb380daa3dfb7acffb483c5db8e2b" target="_top" xlink:title="Executes the recovery protocol. First Soft&#45;Reset (ATZ), then Hard&#45;Reset if there is a pin.">
<polygon fill="white" stroke="#666666" points="660.25,-466.18 554.25,-466.18 554.25,-434.18 660.25,-434.18 660.25,-466.18"/>
<text text-anchor="start" x="562.25" y="-452.68" font-family="Helvetica,sans-Serif" font-size="10.00">LSM1x0A_Controller</text>
<text text-anchor="middle" x="607.25" y="-440.68" font-family="Helvetica,sans-Serif" font-size="10.00">::recoverModule</text>
</a>
</g>
</g>
<!-- Node3&#45;&gt;Node4 -->
<g id="edge3_Node000003_Node000004" class="edge">
<title>Node3&#45;&gt;Node4</title>
<g id="a_edge3_Node000003_Node000004"><a xlink:title=" ">
<path fill="none" stroke="#63b8ff" d="M494.24,-384.57C515.51,-397.03 545,-414.3 568.37,-427.99"/>
<polygon fill="#63b8ff" stroke="#63b8ff" points="566.6,-431.01 577,-433.04 570.14,-424.97 566.6,-431.01"/>
</a>
</g>
</g>
<!-- Node15 -->
<g id="Node000015" class="node">
<title>Node15</title>
<g id="a_Node000015"><a xlink:href="../../d6/d3c/classLSM1x0A__AtParser.html#a29b53c521974387ba6c03afadfaffa4a" target="_top" xlink:title="Sends a simple command and waits for OK/ERROR. Example: sendCommand(&quot;AT+JOIN&quot;);.">
<polygon fill="white" stroke="#666666" points="1065,-614.18 890.75,-614.18 890.75,-594.18 1065,-594.18 1065,-614.18"/>
<text text-anchor="middle" x="977.88" y="-600.68" font-family="Helvetica,sans-Serif" font-size="10.00">LSM1x0A_AtParser::sendCommand</text>
</a>
</g>
</g>
<!-- Node3&#45;&gt;Node15 -->
<g id="edge23_Node000003_Node000015" class="edge">
<title>Node3&#45;&gt;Node15</title>
<g id="a_edge23_Node000003_Node000015"><a xlink:title=" ">
<path fill="none" stroke="#63b8ff" d="M475.14,-384.6C501.43,-431.08 583.97,-563.05 696.25,-607.18 769.8,-636.08 862.79,-627.16 921.07,-616.73"/>
<polygon fill="#63b8ff" stroke="#63b8ff" points="921.57,-620.2 930.76,-614.92 920.29,-613.32 921.57,-620.2"/>
</a>
</g>
</g>
<!-- Node4&#45;&gt;Node1 -->
<g id="edge17_Node000004_Node000001" class="edge">
<title>Node4&#45;&gt;Node1</title>
<g id="a_edge17_Node000004_Node000001"><a xlink:title=" ">
<path fill="none" stroke="#63b8ff" d="M598.14,-466.49C573.12,-514.7 491.79,-656.39 376.25,-708.18 297.67,-743.4 252.02,-759 182.5,-708.18 130.51,-670.17 91.56,-469.61 78.77,-395.62"/>
<polygon fill="#63b8ff" stroke="#63b8ff" points="82.26,-395.26 77.13,-385.99 75.36,-396.43 82.26,-395.26"/>
</a>
</g>
</g>
<!-- Node5 -->
<g id="Node000005" class="node">
<title>Node5</title>
<g id="a_Node000005"><a xlink:href="../../d8/d92/classLSM1x0A__Controller.html#a3f6f25b843fe4fb7042c544deae2ab16" target="_top" xlink:title="Manually clears bits from the internal EventGroup.">
<polygon fill="white" stroke="#666666" points="1249,-469.18 1143,-469.18 1143,-437.18 1249,-437.18 1249,-469.18"/>
<text text-anchor="start" x="1151" y="-455.68" font-family="Helvetica,sans-Serif" font-size="10.00">LSM1x0A_Controller</text>
<text text-anchor="middle" x="1196" y="-443.68" font-family="Helvetica,sans-Serif" font-size="10.00">::clearEvents</text>
</a>
</g>
</g>
<!-- Node4&#45;&gt;Node5 -->
<g id="edge4_Node000004_Node000005" class="edge">
<title>Node4&#45;&gt;Node5</title>
<g id="a_edge4_Node000004_Node000005"><a xlink:title=" ">
<path fill="none" stroke="#63b8ff" d="M660.54,-463.37C672.21,-465.79 684.59,-467.93 696.25,-469.18 851.92,-485.79 1036.34,-470.98 1131.35,-460.82"/>
<polygon fill="#63b8ff" stroke="#63b8ff" points="1131.7,-464.31 1141.26,-459.74 1130.94,-457.35 1131.7,-464.31"/>
</a>
</g>
</g>
<!-- Node6 -->
<g id="Node000006" class="node">
<title>Node6</title>
<g id="a_Node000006"><a xlink:href="../../d8/d92/classLSM1x0A__Controller.html#a345d4bd79fa16b18dc33a4ca788fe5f7" target="_top" xlink:title="Performs a hardware reset using the reset pin.">
<polygon fill="white" stroke="#666666" points="828.5,-548.18 722.5,-548.18 722.5,-516.18 828.5,-516.18 828.5,-548.18"/>
<text text-anchor="start" x="730.5" y="-534.68" font-family="Helvetica,sans-Serif" font-size="10.00">LSM1x0A_Controller</text>
<text text-anchor="middle" x="775.5" y="-522.68" font-family="Helvetica,sans-Serif" font-size="10.00">::hardwareReset</text>
</a>
</g>
</g>
<!-- Node4&#45;&gt;Node6 -->
<g id="edge5_Node000004_Node000006" class="edge">
<title>Node4&#45;&gt;Node6</title>
<g id="a_edge5_Node000004_Node000006"><a xlink:title=" ">
<path fill="none" stroke="#63b8ff" d="M633.43,-466.58C650.69,-477.45 674.36,-491.6 696.25,-502.18 703.03,-505.45 710.26,-508.62 717.49,-511.61"/>
<polygon fill="#63b8ff" stroke="#63b8ff" points="716.04,-514.8 726.62,-515.27 718.64,-508.3 716.04,-514.8"/>
</a>
</g>
</g>
<!-- Node8 -->
<g id="Node000008" class="node">
<title>Node8</title>
<g id="a_Node000008"><a xlink:href="../../d5/d72/classLSM1x0A__LoRaWAN.html#a1892801e37c8cd67d37c76108d6f7d49" target="_top" xlink:title="Validates if the device is currently Joined to the network. (Either confirmed by OTAA or statically a...">
<polygon fill="white" stroke="#666666" points="1479.5,-315.18 1327,-315.18 1327,-295.18 1479.5,-295.18 1479.5,-315.18"/>
<text text-anchor="middle" x="1403.25" y="-301.68" font-family="Helvetica,sans-Serif" font-size="10.00">LSM1x0A_LoRaWAN::isJoined</text>
</a>
</g>
</g>
<!-- Node4&#45;&gt;Node8 -->
<g id="edge7_Node000004_Node000008" class="edge">
<title>Node4&#45;&gt;Node8</title>
<g id="a_edge7_Node000004_Node000008"><a xlink:title=" ">
<path fill="none" stroke="#63b8ff" d="M616.05,-433.88C628.88,-409.18 656.97,-363.04 696.25,-343.18 750.18,-315.91 1138.9,-308.11 1315.43,-305.96"/>
<polygon fill="#63b8ff" stroke="#63b8ff" points="1315.28,-309.46 1325.24,-305.84 1315.2,-302.46 1315.28,-309.46"/>
</a>
</g>
</g>
<!-- Node9 -->
<g id="Node000009" class="node">
<title>Node9</title>
<g id="a_Node000009"><a xlink:href="../../d5/d72/classLSM1x0A__LoRaWAN.html#a83e11c0e74ff9e0757db616ab1163424" target="_top" xlink:title="Attempts to recover a lost connection (re&#45;executes OTAA Join if dropped).">
<polygon fill="white" stroke="#666666" points="849.88,-384.18 701.12,-384.18 701.12,-352.18 849.88,-352.18 849.88,-384.18"/>
<text text-anchor="start" x="709.12" y="-370.68" font-family="Helvetica,sans-Serif" font-size="10.00">LSM1x0A_LoRaWAN::recover</text>
<text text-anchor="middle" x="775.5" y="-358.68" font-family="Helvetica,sans-Serif" font-size="10.00">Connection</text>
</a>
</g>
</g>
<!-- Node4&#45;&gt;Node9 -->
<g id="edge8_Node000004_Node000009" class="edge">
<title>Node4&#45;&gt;Node9</title>
<g id="a_edge8_Node000004_Node000009"><a xlink:title=" ">
<path fill="none" stroke="#63b8ff" d="M633.43,-433.77C650.69,-422.9 674.36,-408.75 696.25,-398.18 703.03,-394.9 710.26,-391.73 717.49,-388.74"/>
<polygon fill="#63b8ff" stroke="#63b8ff" points="718.64,-392.05 726.62,-385.08 716.04,-385.56 718.64,-392.05"/>
</a>
</g>
</g>
<!-- Node13 -->
<g id="Node000013" class="node">
<title>Node13</title>
<g id="a_Node000013"><a xlink:href="../../d5/d72/classLSM1x0A__LoRaWAN.html#ace4b04396f1de1f4a54f513f5f378db7" target="_top" xlink:title="Manually overrides the internal joined state tracker.">
<polygon fill="white" stroke="#666666" points="854.75,-460.18 696.25,-460.18 696.25,-440.18 854.75,-440.18 854.75,-460.18"/>
<text text-anchor="middle" x="775.5" y="-446.68" font-family="Helvetica,sans-Serif" font-size="10.00">LSM1x0A_LoRaWAN::setJoined</text>
</a>
</g>
</g>
<!-- Node4&#45;&gt;Node13 -->
<g id="edge18_Node000004_Node000013" class="edge">
<title>Node4&#45;&gt;Node13</title>
<g id="a_edge18_Node000004_Node000013"><a xlink:title=" ">
<path fill="none" stroke="#63b8ff" d="M660.4,-450.18C668.19,-450.18 676.4,-450.18 684.71,-450.18"/>
<polygon fill="#63b8ff" stroke="#63b8ff" points="684.54,-453.68 694.54,-450.18 684.54,-446.68 684.54,-453.68"/>
</a>
</g>
</g>
<!-- Node14 -->
<g id="Node000014" class="node">
<title>Node14</title>
<g id="a_Node000014"><a xlink:href="../../d8/d92/classLSM1x0A__Controller.html#a11ad21cb5ca33ec51346764a23bd485e" target="_top" xlink:title="Performs a software reset (ATZ Command).">
<polygon fill="white" stroke="#666666" points="828.5,-598.18 722.5,-598.18 722.5,-566.18 828.5,-566.18 828.5,-598.18"/>
<text text-anchor="start" x="730.5" y="-584.68" font-family="Helvetica,sans-Serif" font-size="10.00">LSM1x0A_Controller</text>
<text text-anchor="middle" x="775.5" y="-572.68" font-family="Helvetica,sans-Serif" font-size="10.00">::softwareReset</text>
</a>
</g>
</g>
<!-- Node4&#45;&gt;Node14 -->
<g id="edge19_Node000004_Node000014" class="edge">
<title>Node4&#45;&gt;Node14</title>
<g id="a_edge19_Node000004_Node000014"><a xlink:title=" ">
<path fill="none" stroke="#63b8ff" d="M617.44,-466.44C631.47,-489.85 660.42,-532.88 696.25,-557.18 701,-560.39 706.18,-563.22 711.56,-565.69"/>
<polygon fill="#63b8ff" stroke="#63b8ff" points="710.07,-568.87 720.65,-569.46 712.74,-562.4 710.07,-568.87"/>
</a>
</g>
</g>
<!-- Node7 -->
<g id="Node000007" class="node">
<title>Node7</title>
<g id="a_Node000007"><a xlink:href="../../d6/d3c/classLSM1x0A__AtParser.html#ad2839120da13e56132b95019419be1e5" target="_top" xlink:title="Waits for an event (like BOOTALERT) without sending any command. Useful for hardware reset where the ...">
<polygon fill="white" stroke="#666666" points="1048.12,-548.18 907.62,-548.18 907.62,-516.18 1048.12,-516.18 1048.12,-548.18"/>
<text text-anchor="start" x="915.62" y="-534.68" font-family="Helvetica,sans-Serif" font-size="10.00">LSM1x0A_AtParser::waitFor</text>
<text text-anchor="middle" x="977.88" y="-522.68" font-family="Helvetica,sans-Serif" font-size="10.00">Event</text>
</a>
</g>
</g>
<!-- Node6&#45;&gt;Node7 -->
<g id="edge6_Node000006_Node000007" class="edge">
<title>Node6&#45;&gt;Node7</title>
<g id="a_edge6_Node000006_Node000007"><a xlink:title=" ">
<path fill="none" stroke="#63b8ff" d="M828.88,-532.18C849.42,-532.18 873.45,-532.18 896.11,-532.18"/>
<polygon fill="#63b8ff" stroke="#63b8ff" points="895.93,-535.68 905.93,-532.18 895.93,-528.68 895.93,-535.68"/>
</a>
</g>
</g>
<!-- Node10 -->
<g id="Node000010" class="node">
<title>Node10</title>
<g id="a_Node000010"><a xlink:href="../../d5/d72/classLSM1x0A__LoRaWAN.html#a59f781f3cfd30c11cd3973bcb10a7baa" target="_top" xlink:title="Initiates a LoRaWAN Network Join procedure. This is a blocking function until the module fires an eve...">
<polygon fill="white" stroke="#666666" points="1043.62,-378.18 912.12,-378.18 912.12,-358.18 1043.62,-358.18 1043.62,-378.18"/>
<text text-anchor="middle" x="977.88" y="-364.68" font-family="Helvetica,sans-Serif" font-size="10.00">LSM1x0A_LoRaWAN::join</text>
</a>
</g>
</g>
<!-- Node9&#45;&gt;Node10 -->
<g id="edge9_Node000009_Node000010" class="edge">
<title>Node9&#45;&gt;Node10</title>
<g id="a_edge9_Node000009_Node000010"><a xlink:title=" ">
<path fill="none" stroke="#63b8ff" d="M850.26,-368.18C866.67,-368.18 884.1,-368.18 900.61,-368.18"/>
<polygon fill="#63b8ff" stroke="#63b8ff" points="900.35,-371.68 910.35,-368.18 900.35,-364.68 900.35,-371.68"/>
</a>
</g>
</g>
<!-- Node10&#45;&gt;Node3 -->
<g id="edge12_Node000010_Node000003" class="edge">
<title>Node10&#45;&gt;Node3</title>
<g id="a_edge12_Node000010_Node000003"><a xlink:title=" ">
<path fill="none" stroke="#63b8ff" d="M936.21,-357.7C912.6,-352.17 882.2,-345.96 854.75,-343.18 740.35,-331.59 606.42,-346.44 529.44,-357.71"/>
<polygon fill="#63b8ff" stroke="#63b8ff" points="529.38,-354.18 520,-359.12 530.41,-361.11 529.38,-354.18"/>
</a>
</g>
</g>
<!-- Node10&#45;&gt;Node4 -->
<g id="edge11_Node000010_Node000004" class="edge">
<title>Node10&#45;&gt;Node4</title>
<g id="a_edge11_Node000010_Node000004"><a xlink:title=" ">
<path fill="none" stroke="#63b8ff" d="M929.89,-378.63C864.27,-393.22 745.01,-419.75 671.6,-436.08"/>
<polygon fill="#63b8ff" stroke="#63b8ff" points="671.15,-432.6 662.15,-438.19 672.67,-439.43 671.15,-432.6"/>
</a>
</g>
</g>
<!-- Node10&#45;&gt;Node5 -->
<g id="edge10_Node000010_Node000005" class="edge">
<title>Node10&#45;&gt;Node5</title>
<g id="a_edge10_Node000010_Node000005"><a xlink:title=" ">
<path fill="none" stroke="#63b8ff" d="M1005.38,-378.6C1039.36,-391.96 1099.06,-415.44 1142.41,-432.49"/>
<polygon fill="#63b8ff" stroke="#63b8ff" points="1141.06,-435.72 1151.65,-436.13 1143.62,-429.21 1141.06,-435.72"/>
</a>
</g>
</g>
<!-- Node10&#45;&gt;Node11 -->
<g id="edge13_Node000010_Node000011" class="edge">
<title>Node10&#45;&gt;Node11</title>
<g id="a_edge13_Node000010_Node000011"><a xlink:title=" ">
<path fill="none" stroke="#63b8ff" d="M1001.19,-357.75C1039.55,-339.82 1118.14,-303.09 1162.56,-282.34"/>
<polygon fill="#63b8ff" stroke="#63b8ff" points="1163.86,-285.59 1171.44,-278.19 1160.89,-279.25 1163.86,-285.59"/>
</a>
</g>
</g>
<!-- Node12 -->
<g id="Node000012" class="node">
<title>Node12</title>
<g id="a_Node000012"><a xlink:href="../../d8/d92/classLSM1x0A__Controller.html#a62476e30e50c7fe120aeb8df4b828675" target="_top" xlink:title="Synchronously/blockingly waits for an asynchronous event to occur. Useful for wrapping commands like ...">
<polygon fill="white" stroke="#666666" points="1249,-384.18 1143,-384.18 1143,-352.18 1249,-352.18 1249,-384.18"/>
<text text-anchor="start" x="1151" y="-370.68" font-family="Helvetica,sans-Serif" font-size="10.00">LSM1x0A_Controller</text>
<text text-anchor="middle" x="1196" y="-358.68" font-family="Helvetica,sans-Serif" font-size="10.00">::waitForEvent</text>
</a>
</g>
</g>
<!-- Node10&#45;&gt;Node12 -->
<g id="edge16_Node000010_Node000012" class="edge">
<title>Node10&#45;&gt;Node12</title>
<g id="a_edge16_Node000010_Node000012"><a xlink:title=" ">
<path fill="none" stroke="#63b8ff" d="M1044.01,-368.18C1071.64,-368.18 1103.73,-368.18 1131.2,-368.18"/>
<polygon fill="#63b8ff" stroke="#63b8ff" points="1131.16,-371.68 1141.16,-368.18 1131.16,-364.68 1131.16,-371.68"/>
</a>
</g>
</g>
<!-- Node11&#45;&gt;Node3 -->
<g id="edge15_Node000011_Node000003" class="edge">
<title>Node11&#45;&gt;Node3</title>
<g id="a_edge15_Node000011_Node000003"><a xlink:title=" ">
<path fill="none" stroke="#63b8ff" d="M1100.63,-271.68C974.78,-279.07 745.63,-297.36 554.25,-339.18 543.29,-341.57 531.77,-344.81 520.81,-348.26"/>
<polygon fill="#63b8ff" stroke="#63b8ff" points="519.94,-344.87 511.51,-351.29 522.1,-351.52 519.94,-344.87"/>
</a>
</g>
</g>
<!-- Node11&#45;&gt;Node8 -->
<g id="edge14_Node000011_Node000008" class="edge">
<title>Node11&#45;&gt;Node8</title>
<g id="a_edge14_Node000011_Node000008"><a xlink:title=" ">
<path fill="none" stroke="#63b8ff" d="M1253.63,-277.66C1278.75,-282.31 1308.52,-287.82 1334.79,-292.69"/>
<polygon fill="#63b8ff" stroke="#63b8ff" points="1333.85,-296.07 1344.32,-294.45 1335.12,-289.19 1333.85,-296.07"/>
</a>
</g>
</g>
<!-- Node14&#45;&gt;Node15 -->
<g id="edge20_Node000014_Node000015" class="edge">
<title>Node14&#45;&gt;Node15</title>
<g id="a_edge20_Node000014_Node000015"><a xlink:title=" ">
<path fill="none" stroke="#63b8ff" d="M828.88,-587.93C844.29,-589.62 861.67,-591.53 878.96,-593.43"/>
<polygon fill="#63b8ff" stroke="#63b8ff" points="878.46,-596.89 888.79,-594.5 879.23,-589.93 878.46,-596.89"/>
</a>
</g>
</g>
<!-- Node16 -->
<g id="Node000016" class="node">
<title>Node16</title>
<g id="a_Node000016"><a xlink:href="../../d6/d3c/classLSM1x0A__AtParser.html#a0ba6f927c54fceece22c17773d3f2600" target="_top" xlink:title="Sends a command and extracts a value from the response.">
<polygon fill="white" stroke="#666666" points="1283.12,-620.18 1108.88,-620.18 1108.88,-588.18 1283.12,-588.18 1283.12,-620.18"/>
<text text-anchor="start" x="1116.88" y="-606.68" font-family="Helvetica,sans-Serif" font-size="10.00">LSM1x0A_AtParser::sendCommand</text>
<text text-anchor="middle" x="1196" y="-594.68" font-family="Helvetica,sans-Serif" font-size="10.00">WithResponse</text>
</a>
</g>
</g>
<!-- Node15&#45;&gt;Node16 -->
<g id="edge21_Node000015_Node000016" class="edge">
<title>Node15&#45;&gt;Node16</title>
<g id="a_edge21_Node000015_Node000016"><a xlink:title=" ">
<path fill="none" stroke="#63b8ff" d="M1065.23,-604.18C1075.67,-604.18 1086.4,-604.18 1097,-604.18"/>
<polygon fill="#63b8ff" stroke="#63b8ff" points="1096.92,-607.68 1106.92,-604.18 1096.92,-600.68 1096.92,-607.68"/>
</a>
</g>
</g>
<!-- Node17 -->
<g id="Node000017" class="node">
<title>Node17</title>
<g id="a_Node000017"><a xlink:href="../../d5/d8b/classUartDriver.html#a5d0f22e8867eebe99273078bb19bd23d" target="_top" xlink:title="Sends data through UART.">
<polygon fill="white" stroke="#666666" points="1457.75,-614.18 1348.75,-614.18 1348.75,-594.18 1457.75,-594.18 1457.75,-614.18"/>
<text text-anchor="middle" x="1403.25" y="-600.68" font-family="Helvetica,sans-Serif" font-size="10.00">UartDriver::sendData</text>
</a>
</g>
</g>
<!-- Node16&#45;&gt;Node17 -->
<g id="edge22_Node000016_Node000017" class="edge">
<title>Node16&#45;&gt;Node17</title>
<g id="a_edge22_Node000016_Node000017"><a xlink:title=" ">
<path fill="none" stroke="#63b8ff" d="M1283.45,-604.18C1301.34,-604.18 1319.91,-604.18 1336.89,-604.18"/>
<polygon fill="#63b8ff" stroke="#63b8ff" points="1336.86,-607.68 1346.86,-604.18 1336.86,-600.68 1336.86,-607.68"/>
</a>
</g>
</g>
<!-- Node18&#45;&gt;Node3 -->
<g id="edge25_Node000018_Node000003" class="edge">
<title>Node18&#45;&gt;Node3</title>
<g id="a_edge25_Node000018_Node000003"><a xlink:title=" ">
<path fill="none" stroke="#63b8ff" d="M355.9,-593.8C363.26,-590.92 370.22,-587.13 376.25,-582.18 434.36,-534.4 454.54,-442.01 461.19,-395.84"/>
<polygon fill="#63b8ff" stroke="#63b8ff" points="464.63,-396.51 462.47,-386.14 457.69,-395.59 464.63,-396.51"/>
</a>
</g>
</g>
<!-- Node19&#45;&gt;Node3 -->
<g id="edge28_Node000019_Node000003" class="edge">
<title>Node19&#45;&gt;Node3</title>
<g id="a_edge28_Node000019_Node000003"><a xlink:title=" ">
<path fill="none" stroke="#63b8ff" d="M361.73,-541.31C366.88,-538.71 371.79,-535.69 376.25,-532.18 421.16,-496.84 446.02,-432.05 457.1,-395.37"/>
<polygon fill="#63b8ff" stroke="#63b8ff" points="460.4,-396.56 459.8,-385.98 453.67,-394.62 460.4,-396.56"/>
</a>
</g>
</g>
<!-- Node20&#45;&gt;Node3 -->
<g id="edge30_Node000020_Node000003" class="edge">
<title>Node20&#45;&gt;Node3</title>
<g id="a_edge30_Node000020_Node000003"><a xlink:title=" ">
<path fill="none" stroke="#63b8ff" d="M359.28,-502.79C365.25,-500.45 370.99,-497.61 376.25,-494.18 413.49,-469.86 439.55,-423.78 453.19,-394.6"/>
<polygon fill="#63b8ff" stroke="#63b8ff" points="456.29,-396.26 457.19,-385.7 449.9,-393.39 456.29,-396.26"/>
</a>
</g>
</g>
<!-- Node21&#45;&gt;Node3 -->
<g id="edge32_Node000021_Node000003" class="edge">
<title>Node21&#45;&gt;Node3</title>
<g id="a_edge32_Node000021_Node000003"><a xlink:title=" ">
<path fill="none" stroke="#63b8ff" d="M355.68,-464.74C362.83,-462.43 369.81,-459.61 376.25,-456.18 404.71,-440.97 429.92,-413.56 445.98,-393.36"/>
<polygon fill="#63b8ff" stroke="#63b8ff" points="448.64,-395.63 451.97,-385.57 443.1,-391.36 448.64,-395.63"/>
</a>
</g>
</g>
<!-- Node22&#45;&gt;Node3 -->
<g id="edge34_Node000022_Node000003" class="edge">
<title>Node22&#45;&gt;Node3</title>
<g id="a_edge34_Node000022_Node000003"><a xlink:title=" ">
<path fill="none" stroke="#63b8ff" d="M347.67,-426.7C357.4,-424.36 367.18,-421.55 376.25,-418.18 395.21,-411.12 414.91,-400.3 430.85,-390.53"/>
<polygon fill="#63b8ff" stroke="#63b8ff" points="432.37,-393.71 438.97,-385.43 428.64,-387.79 432.37,-393.71"/>
</a>
</g>
</g>
<!-- Node23&#45;&gt;Node3 -->
<g id="edge36_Node000023_Node000003" class="edge">
<title>Node23&#45;&gt;Node3</title>
<g id="a_edge36_Node000023_Node000003"><a xlink:title=" ">
<path fill="none" stroke="#63b8ff" d="M355.16,-383.01C370.3,-380.95 386.07,-378.8 400.77,-376.81"/>
<polygon fill="#63b8ff" stroke="#63b8ff" points="400.84,-380.33 410.27,-375.51 399.89,-373.39 400.84,-380.33"/>
</a>
</g>
</g>
<!-- Node24&#45;&gt;Node3 -->
<g id="edge38_Node000024_Node000003" class="edge">
<title>Node24&#45;&gt;Node3</title>
<g id="a_edge38_Node000024_Node000003"><a xlink:title=" ">
<path fill="none" stroke="#63b8ff" d="M356.49,-353.52C371.23,-355.53 386.52,-357.61 400.8,-359.55"/>
<polygon fill="#63b8ff" stroke="#63b8ff" points="400.12,-362.99 410.5,-360.87 401.06,-356.05 400.12,-362.99"/>
</a>
</g>
</g>
<!-- Node25&#45;&gt;Node3 -->
<g id="edge40_Node000025_Node000003" class="edge">
<title>Node25&#45;&gt;Node3</title>
<g id="a_edge40_Node000025_Node000003"><a xlink:title=" ">
<path fill="none" stroke="#63b8ff" d="M352,-309.63C360.28,-312.19 368.52,-315.04 376.25,-318.18 394.72,-325.68 414.1,-336.35 429.96,-345.91"/>
<polygon fill="#63b8ff" stroke="#63b8ff" points="427.7,-348.63 438.05,-350.89 431.37,-342.67 427.7,-348.63"/>
</a>
</g>
</g>
<!-- Node26&#45;&gt;Node3 -->
<g id="edge42_Node000026_Node000003" class="edge">
<title>Node26&#45;&gt;Node3</title>
<g id="a_edge42_Node000026_Node000003"><a xlink:title=" ">
<path fill="none" stroke="#63b8ff" d="M356.9,-259.52C363.66,-261.86 370.22,-264.7 376.25,-268.18 407.33,-286.07 433.04,-318.97 448.49,-342.14"/>
<polygon fill="#63b8ff" stroke="#63b8ff" points="445.47,-343.92 453.84,-350.43 451.36,-340.13 445.47,-343.92"/>
</a>
</g>
</g>
<!-- Node27&#45;&gt;Node3 -->
<g id="edge44_Node000027_Node000003" class="edge">
<title>Node27&#45;&gt;Node3</title>
<g id="a_edge44_Node000027_Node000003"><a xlink:title=" ">
<path fill="none" stroke="#63b8ff" d="M359.92,-221.52C365.68,-223.88 371.21,-226.73 376.25,-230.18 416.16,-257.44 441.89,-309.41 454.66,-341.21"/>
<polygon fill="#63b8ff" stroke="#63b8ff" points="451.38,-342.43 458.24,-350.51 457.91,-339.92 451.38,-342.43"/>
</a>
</g>
</g>
<!-- Node28&#45;&gt;Node3 -->
<g id="edge46_Node000028_Node000003" class="edge">
<title>Node28&#45;&gt;Node3</title>
<g id="a_edge46_Node000028_Node000003"><a xlink:title=" ">
<path fill="none" stroke="#63b8ff" d="M361.74,-183.58C366.9,-185.95 371.8,-188.78 376.25,-192.18 425.12,-229.44 448.76,-301.24 458.5,-340.64"/>
<polygon fill="#63b8ff" stroke="#63b8ff" points="455.07,-341.33 460.74,-350.28 461.88,-339.74 455.07,-341.33"/>
</a>
</g>
</g>
<!-- Node29&#45;&gt;Node3 -->
<g id="edge48_Node000029_Node000003" class="edge">
<title>Node29&#45;&gt;Node3</title>
<g id="a_edge48_Node000029_Node000003"><a xlink:title=" ">
<path fill="none" stroke="#63b8ff" d="M362.96,-145.67C367.7,-148.02 372.19,-150.83 376.25,-154.18 434.36,-201.95 454.54,-294.34 461.19,-340.51"/>
<polygon fill="#63b8ff" stroke="#63b8ff" points="457.69,-340.76 462.47,-350.22 464.63,-339.84 457.69,-340.76"/>
</a>
</g>
</g>
<!-- Node30&#45;&gt;Node3 -->
<g id="edge50_Node000030_Node000003" class="edge">
<title>Node30&#45;&gt;Node3</title>
<g id="a_edge50_Node000030_Node000003"><a xlink:title=" ">
<path fill="none" stroke="#63b8ff" d="M363.62,-107.65C368.15,-110.02 372.41,-112.84 376.25,-116.18 443.78,-174.84 459.5,-288.3 463.15,-340.58"/>
<polygon fill="#63b8ff" stroke="#63b8ff" points="459.65,-340.62 463.73,-350.4 466.64,-340.21 459.65,-340.62"/>
</a>
</g>
</g>
<!-- Node31&#45;&gt;Node3 -->
<g id="edge52_Node000031_Node000003" class="edge">
<title>Node31&#45;&gt;Node3</title>
<g id="a_edge52_Node000031_Node000003"><a xlink:title=" ">
<path fill="none" stroke="#63b8ff" d="M363.79,-69.46C368.27,-71.88 372.48,-74.76 376.25,-78.18 453.25,-147.91 463.82,-282.6 464.63,-340.55"/>
<polygon fill="#63b8ff" stroke="#63b8ff" points="461.13,-340.21 464.67,-350.19 468.13,-340.18 461.13,-340.21"/>
</a>
</g>
</g>
<!-- Node32&#45;&gt;Node3 -->
<g id="edge54_Node000032_Node000003" class="edge">
<title>Node32&#45;&gt;Node3</title>
<g id="a_edge54_Node000032_Node000003"><a xlink:title=" ">
<path fill="none" stroke="#63b8ff" d="M365.24,-666.68C369.19,-664.21 372.9,-661.39 376.25,-658.18 450.99,-586.33 462.81,-453.28 464.29,-395.8"/>
<polygon fill="#63b8ff" stroke="#63b8ff" points="467.79,-395.99 464.45,-385.94 460.79,-395.88 467.79,-395.99"/>
</a>
</g>
</g>
</g>
</svg>
