<?xml version="1.0" encoding="UTF-8" standalone="no"?>
<!DOCTYPE svg PUBLIC "-//W3C//DTD SVG 1.1//EN"
 "http://www.w3.org/Graphics/SVG/1.1/DTD/svg11.dtd">
<!-- Generated by graphviz version 12.2.1 (20241206.2353)
 -->
<!-- Title: LSM1x0A_LoRaWAN::startRxRssiTone Pages: 1 -->
<!--zoomable 1143 -->

<svg id="main" version="1.1" xmlns="http://www.w3.org/2000/svg" xmlns:xlink="http://www.w3.org/1999/xlink" xml:space="preserve" onload="init(evt)">
<style type="text/css"><![CDATA[
.node, .edge {opacity: 0.7;}
.node.selected, .edge.selected {opacity: 1;}
.edge:hover path { stroke: red; }
.edge:hover polygon { stroke: red; fill: red; }
]]></style>

<defs>
  <circle id="rim" cx="0" cy="0" r="7"/>
  <circle id="rim2" cx="0" cy="0" r="3.5"/>
  <g id="zoomPlus">
    <use xlink:href="#rim" fill="#404040"><set attributeName="fill" to="#808080" begin="zoomplus.mouseover" end="zoomplus.mouseout"/></use>
    <path d="M-4,0h8M0,-4v8" fill="none" stroke="white" stroke-width="1.5" pointer-events="none"/>
  </g>
  <g id="zoomMin">
    <use xlink:href="#rim" fill="#404040"><set attributeName="fill" to="#808080" begin="zoomminus.mouseover" end="zoomminus.mouseout"/></use>
    <path d="M-4,0h8" fill="none" stroke="white" stroke-width="1.5" pointer-events="none"/>
  </g>
  <g id="arrowUp" transform="translate(30 24)">
    <use xlink:href="#rim"/>
    <path pointer-events="none" fill="none" stroke="white" stroke-width="1.5" d="M0,-3.0v7 M-2.5,-0.5L0,-3.0L2.5,-0.5"/>
  </g>
  <g id="arrowRight" transform="rotate(90) translate(36 -43)">
    <use xlink:href="#rim"/>
    <path pointer-events="none" fill="none" stroke="white" stroke-width="1.5" d="M0,-3.0v7 M-2.5,-0.5L0,-3.0L2.5,-0.5"/>
  </g>
  <g id="arrowDown" transform="rotate(180) translate(-30 -48)">
    <use xlink:href="#rim"/>
    <path pointer-events="none" fill="none" stroke="white" stroke-width="1.5" d="M0,-3.0v7 M-2.5,-0.5L0,-3.0L2.5,-0.5"/>
  </g>
  <g id="arrowLeft" transform="rotate(270) translate(-36 17)">
    <use xlink:href="#rim"/>
    <path pointer-events="none" fill="none" stroke="white" stroke-width="1.5" d="M0,-3.0v7 M-2.5,-0.5L0,-3.0L2.5,-0.5"/>
  </g>
  <g id="resetDef">
    <use xlink:href="#rim2" fill="#404040"><set attributeName="fill" to="#808080" begin="reset.mouseover" end="reset.mouseout"/></use>
  </g>
</defs>
<script type="application/ecmascript">
var viewWidth = 1280;
var viewHeight = 1143;
var sectionId = 'dynsection-113';
</script>
<script type="application/ecmascript" xlink:href="../../svg.min.js"/>
<svg id="graph" class="graph">
<g id="viewport">
<title>LSM1x0A_LoRaWAN::startRxRssiTone</title>
<!-- Node1 -->
<g id="Node000001" class="node">
<title>Node1</title>
<g id="a_Node000001"><a xlink:title="Listens and measures RSSI on the configured frequency.">
<polygon fill="#999999" stroke="#666666" points="148.75,-496.95 0,-496.95 0,-464.95 148.75,-464.95 148.75,-496.95"/>
<text text-anchor="start" x="8" y="-483.45" font-family="Helvetica,sans-Serif" font-size="10.00">LSM1x0A_LoRaWAN::startRx</text>
<text text-anchor="middle" x="74.38" y="-471.45" font-family="Helvetica,sans-Serif" font-size="10.00">RssiTone</text>
</a>
</g>
</g>
<!-- Node2 -->
<g id="Node000002" class="node">
<title>Node2</title>
<g id="a_Node000002"><a xlink:href="../../d8/d92/classLSM1x0A__Controller.html#afd7d92e60ed6fdae696a955cdbe0ed8c" target="_top" xlink:title="Sends any AT command to the module, returning error if it fails. Internally uses the LsmAtParser logi...">
<polygon fill="white" stroke="#666666" points="290.75,-496.95 184.75,-496.95 184.75,-464.95 290.75,-464.95 290.75,-496.95"/>
<text text-anchor="start" x="192.75" y="-483.45" font-family="Helvetica,sans-Serif" font-size="10.00">LSM1x0A_Controller</text>
<text text-anchor="middle" x="237.75" y="-471.45" font-family="Helvetica,sans-Serif" font-size="10.00">::sendCommand</text>
</a>
</g>
</g>
<!-- Node1&#45;&gt;Node2 -->
<g id="edge1_Node000001_Node000002" class="edge">
<title>Node1&#45;&gt;Node2</title>
<g id="a_edge1_Node000001_Node000002"><a xlink:title=" ">
<path fill="none" stroke="#63b8ff" d="M148.98,-480.95C157.02,-480.95 165.16,-480.95 173.07,-480.95"/>
<polygon fill="#63b8ff" stroke="#63b8ff" points="172.94,-484.45 182.94,-480.95 172.94,-477.45 172.94,-484.45"/>
</a>
</g>
</g>
<!-- Node3 -->
<g id="Node000003" class="node">
<title>Node3</title>
<g id="a_Node000003"><a xlink:href="../../d8/d92/classLSM1x0A__Controller.html#abb0eb380daa3dfb7acffb483c5db8e2b" target="_top" xlink:title="Executes the recovery protocol. First Soft&#45;Reset (ATZ), then Hard&#45;Reset if there is a pin.">
<polygon fill="white" stroke="#666666" points="432.75,-938.95 326.75,-938.95 326.75,-906.95 432.75,-906.95 432.75,-938.95"/>
<text text-anchor="start" x="334.75" y="-925.45" font-family="Helvetica,sans-Serif" font-size="10.00">LSM1x0A_Controller</text>
<text text-anchor="middle" x="379.75" y="-913.45" font-family="Helvetica,sans-Serif" font-size="10.00">::recoverModule</text>
</a>
</g>
</g>
<!-- Node2&#45;&gt;Node3 -->
<g id="edge2_Node000002_Node000003" class="edge">
<title>Node2&#45;&gt;Node3</title>
<g id="a_edge2_Node000002_Node000003"><a xlink:title=" ">
<path fill="none" stroke="#63b8ff" d="M242.3,-497.39C252.86,-545.46 285.91,-689.56 326.75,-804.95 338.1,-837.01 354.29,-872.58 365.58,-896.2"/>
<polygon fill="#63b8ff" stroke="#63b8ff" points="362.38,-897.62 369.88,-905.1 368.68,-894.57 362.38,-897.62"/>
</a>
</g>
</g>
<!-- Node31 -->
<g id="Node000031" class="node">
<title>Node31</title>
<g id="a_Node000031"><a xlink:href="../../d6/d3c/classLSM1x0A__AtParser.html#a29b53c521974387ba6c03afadfaffa4a" target="_top" xlink:title="Sends a simple command and waits for OK/ERROR. Example: sendCommand(&quot;AT+JOIN&quot;);.">
<polygon fill="white" stroke="#666666" points="847.25,-1118.95 673,-1118.95 673,-1098.95 847.25,-1098.95 847.25,-1118.95"/>
<text text-anchor="middle" x="760.12" y="-1105.45" font-family="Helvetica,sans-Serif" font-size="10.00">LSM1x0A_AtParser::sendCommand</text>
</a>
</g>
</g>
<!-- Node2&#45;&gt;Node31 -->
<g id="edge55_Node000002_Node000031" class="edge">
<title>Node2&#45;&gt;Node31</title>
<g id="a_edge55_Node000002_Node000031"><a xlink:title=" ">
<path fill="none" stroke="#63b8ff" d="M238.81,-497.2C239.63,-559.15 248.17,-785.25 326.75,-947.95 368.68,-1034.77 381.06,-1071.88 468.75,-1111.95 546.51,-1147.48 648.66,-1134.62 708.77,-1121.89"/>
<polygon fill="#63b8ff" stroke="#63b8ff" points="709.36,-1125.34 718.37,-1119.77 707.85,-1118.51 709.36,-1125.34"/>
</a>
</g>
</g>
<!-- Node4 -->
<g id="Node000004" class="node">
<title>Node4</title>
<g id="a_Node000004"><a xlink:href="../../d8/d92/classLSM1x0A__Controller.html#a3f6f25b843fe4fb7042c544deae2ab16" target="_top" xlink:title="Manually clears bits from the internal EventGroup.">
<polygon fill="white" stroke="#666666" points="1041,-957.95 935,-957.95 935,-925.95 1041,-925.95 1041,-957.95"/>
<text text-anchor="start" x="943" y="-944.45" font-family="Helvetica,sans-Serif" font-size="10.00">LSM1x0A_Controller</text>
<text text-anchor="middle" x="988" y="-932.45" font-family="Helvetica,sans-Serif" font-size="10.00">::clearEvents</text>
</a>
</g>
</g>
<!-- Node3&#45;&gt;Node4 -->
<g id="edge3_Node000003_Node000004" class="edge">
<title>Node3&#45;&gt;Node4</title>
<g id="a_edge3_Node000003_Node000004"><a xlink:title=" ">
<path fill="none" stroke="#63b8ff" d="M396.83,-939.29C413.25,-954.72 440.31,-976.82 468.75,-985.95 628.32,-1037.18 828.91,-991 927.18,-961.72"/>
<polygon fill="#63b8ff" stroke="#63b8ff" points="928.07,-965.11 936.62,-958.86 926.04,-958.41 928.07,-965.11"/>
</a>
</g>
</g>
<!-- Node5 -->
<g id="Node000005" class="node">
<title>Node5</title>
<g id="a_Node000005"><a xlink:href="../../d8/d92/classLSM1x0A__Controller.html#a345d4bd79fa16b18dc33a4ca788fe5f7" target="_top" xlink:title="Performs a hardware reset using the reset pin.">
<polygon fill="white" stroke="#666666" points="601,-938.95 495,-938.95 495,-906.95 601,-906.95 601,-938.95"/>
<text text-anchor="start" x="503" y="-925.45" font-family="Helvetica,sans-Serif" font-size="10.00">LSM1x0A_Controller</text>
<text text-anchor="middle" x="548" y="-913.45" font-family="Helvetica,sans-Serif" font-size="10.00">::hardwareReset</text>
</a>
</g>
</g>
<!-- Node3&#45;&gt;Node5 -->
<g id="edge4_Node000003_Node000005" class="edge">
<title>Node3&#45;&gt;Node5</title>
<g id="a_edge4_Node000003_Node000005"><a xlink:title=" ">
<path fill="none" stroke="#63b8ff" d="M432.9,-922.95C448.91,-922.95 466.72,-922.95 483.41,-922.95"/>
<polygon fill="#63b8ff" stroke="#63b8ff" points="483.24,-926.45 493.24,-922.95 483.24,-919.45 483.24,-926.45"/>
</a>
</g>
</g>
<!-- Node7 -->
<g id="Node000007" class="node">
<title>Node7</title>
<g id="a_Node000007"><a xlink:href="../../d5/d72/classLSM1x0A__LoRaWAN.html#a1892801e37c8cd67d37c76108d6f7d49" target="_top" xlink:title="Validates if the device is currently Joined to the network. (Either confirmed by OTAA or statically a...">
<polygon fill="white" stroke="#666666" points="1271.5,-926.95 1119,-926.95 1119,-906.95 1271.5,-906.95 1271.5,-926.95"/>
<text text-anchor="middle" x="1195.25" y="-913.45" font-family="Helvetica,sans-Serif" font-size="10.00">LSM1x0A_LoRaWAN::isJoined</text>
</a>
</g>
</g>
<!-- Node3&#45;&gt;Node7 -->
<g id="edge6_Node000003_Node000007" class="edge">
<title>Node3&#45;&gt;Node7</title>
<g id="a_edge6_Node000003_Node000007"><a xlink:title=" ">
<path fill="none" stroke="#63b8ff" d="M426.69,-939.25C428.83,-940.7 430.86,-942.26 432.75,-943.95 457.92,-966.51 439.74,-993.6 468.75,-1010.95 479.45,-1017.34 794.91,-1014.94 857,-1008.95 958.69,-999.13 985.49,-997.44 1083,-966.95 1111.83,-957.93 1143.08,-943.44 1165.09,-932.37"/>
<polygon fill="#63b8ff" stroke="#63b8ff" points="1166.45,-935.61 1173.76,-927.94 1163.26,-929.38 1166.45,-935.61"/>
</a>
</g>
</g>
<!-- Node8 -->
<g id="Node000008" class="node">
<title>Node8</title>
<g id="a_Node000008"><a xlink:href="../../d5/d72/classLSM1x0A__LoRaWAN.html#a83e11c0e74ff9e0757db616ab1163424" target="_top" xlink:title="Attempts to recover a lost connection (re&#45;executes OTAA Join if dropped).">
<polygon fill="white" stroke="#666666" points="622.38,-850.95 473.62,-850.95 473.62,-818.95 622.38,-818.95 622.38,-850.95"/>
<text text-anchor="start" x="481.62" y="-837.45" font-family="Helvetica,sans-Serif" font-size="10.00">LSM1x0A_LoRaWAN::recover</text>
<text text-anchor="middle" x="548" y="-825.45" font-family="Helvetica,sans-Serif" font-size="10.00">Connection</text>
</a>
</g>
</g>
<!-- Node3&#45;&gt;Node8 -->
<g id="edge7_Node000003_Node000008" class="edge">
<title>Node3&#45;&gt;Node8</title>
<g id="a_edge7_Node000003_Node000008"><a xlink:title=" ">
<path fill="none" stroke="#63b8ff" d="M402.72,-906.53C420.05,-894.07 445.15,-877.07 468.75,-864.95 475.04,-861.72 481.75,-858.64 488.51,-855.76"/>
<polygon fill="#63b8ff" stroke="#63b8ff" points="489.78,-859.02 497.71,-851.99 487.13,-852.55 489.78,-859.02"/>
</a>
</g>
</g>
<!-- Node12 -->
<g id="Node000012" class="node">
<title>Node12</title>
<g id="a_Node000012"><a xlink:href="../../d5/d72/classLSM1x0A__LoRaWAN.html#ae3be4ce59dfa200369733317df356e97" target="_top" xlink:title="Pushes the RAM&#45;cached variables back down into the hardware module. Restores the operational state af...">
<polygon fill="white" stroke="#666666" points="621.25,-496.95 474.75,-496.95 474.75,-464.95 621.25,-464.95 621.25,-496.95"/>
<text text-anchor="start" x="482.75" y="-483.45" font-family="Helvetica,sans-Serif" font-size="10.00">LSM1x0A_LoRaWAN::restore</text>
<text text-anchor="middle" x="548" y="-471.45" font-family="Helvetica,sans-Serif" font-size="10.00">Config</text>
</a>
</g>
</g>
<!-- Node3&#45;&gt;Node12 -->
<g id="edge16_Node000003_Node000012" class="edge">
<title>Node3&#45;&gt;Node12</title>
<g id="a_edge16_Node000003_Node000012"><a xlink:title=" ">
<path fill="none" stroke="#63b8ff" d="M386.86,-906.69C411.76,-840.5 505.67,-590.84 536.86,-507.91"/>
<polygon fill="#63b8ff" stroke="#63b8ff" points="540.05,-509.36 540.3,-498.77 533.5,-506.9 540.05,-509.36"/>
</a>
</g>
</g>
<!-- Node29 -->
<g id="Node000029" class="node">
<title>Node29</title>
<g id="a_Node000029"><a xlink:href="../../d5/d72/classLSM1x0A__LoRaWAN.html#ace4b04396f1de1f4a54f513f5f378db7" target="_top" xlink:title="Manually overrides the internal joined state tracker.">
<polygon fill="white" stroke="#666666" points="627.25,-976.95 468.75,-976.95 468.75,-956.95 627.25,-956.95 627.25,-976.95"/>
<text text-anchor="middle" x="548" y="-963.45" font-family="Helvetica,sans-Serif" font-size="10.00">LSM1x0A_LoRaWAN::setJoined</text>
</a>
</g>
</g>
<!-- Node3&#45;&gt;Node29 -->
<g id="edge50_Node000003_Node000029" class="edge">
<title>Node3&#45;&gt;Node29</title>
<g id="a_edge50_Node000003_Node000029"><a xlink:title=" ">
<path fill="none" stroke="#63b8ff" d="M433.24,-938.22C444.91,-941.51 457.23,-944.91 468.75,-947.95 476.11,-949.89 483.87,-951.86 491.54,-953.76"/>
<polygon fill="#63b8ff" stroke="#63b8ff" points="490.63,-957.14 501.18,-956.13 492.3,-950.35 490.63,-957.14"/>
</a>
</g>
</g>
<!-- Node30 -->
<g id="Node000030" class="node">
<title>Node30</title>
<g id="a_Node000030"><a xlink:href="../../d8/d92/classLSM1x0A__Controller.html#a11ad21cb5ca33ec51346764a23bd485e" target="_top" xlink:title="Performs a software reset (ATZ Command).">
<polygon fill="white" stroke="#666666" points="601,-1102.95 495,-1102.95 495,-1070.95 601,-1070.95 601,-1102.95"/>
<text text-anchor="start" x="503" y="-1089.45" font-family="Helvetica,sans-Serif" font-size="10.00">LSM1x0A_Controller</text>
<text text-anchor="middle" x="548" y="-1077.45" font-family="Helvetica,sans-Serif" font-size="10.00">::softwareReset</text>
</a>
</g>
</g>
<!-- Node3&#45;&gt;Node30 -->
<g id="edge51_Node000003_Node000030" class="edge">
<title>Node3&#45;&gt;Node30</title>
<g id="a_edge51_Node000003_Node000030"><a xlink:title=" ">
<path fill="none" stroke="#63b8ff" d="M387.45,-939.34C399.64,-967.25 428,-1024.13 468.75,-1056.95 473.57,-1060.83 478.94,-1064.24 484.55,-1067.25"/>
<polygon fill="#63b8ff" stroke="#63b8ff" points="482.96,-1070.36 493.48,-1071.55 486,-1064.06 482.96,-1070.36"/>
</a>
</g>
</g>
<!-- Node6 -->
<g id="Node000006" class="node">
<title>Node6</title>
<g id="a_Node000006"><a xlink:href="../../d6/d3c/classLSM1x0A__AtParser.html#ad2839120da13e56132b95019419be1e5" target="_top" xlink:title="Waits for an event (like BOOTALERT) without sending any command. Useful for hardware reset where the ...">
<polygon fill="white" stroke="#666666" points="830.38,-938.95 689.88,-938.95 689.88,-906.95 830.38,-906.95 830.38,-938.95"/>
<text text-anchor="start" x="697.88" y="-925.45" font-family="Helvetica,sans-Serif" font-size="10.00">LSM1x0A_AtParser::waitFor</text>
<text text-anchor="middle" x="760.12" y="-913.45" font-family="Helvetica,sans-Serif" font-size="10.00">Event</text>
</a>
</g>
</g>
<!-- Node5&#45;&gt;Node6 -->
<g id="edge5_Node000005_Node000006" class="edge">
<title>Node5&#45;&gt;Node6</title>
<g id="a_edge5_Node000005_Node000006"><a xlink:title=" ">
<path fill="none" stroke="#63b8ff" d="M601.48,-922.95C624.67,-922.95 652.47,-922.95 678.21,-922.95"/>
<polygon fill="#63b8ff" stroke="#63b8ff" points="677.97,-926.45 687.97,-922.95 677.97,-919.45 677.97,-926.45"/>
</a>
</g>
</g>
<!-- Node9 -->
<g id="Node000009" class="node">
<title>Node9</title>
<g id="a_Node000009"><a xlink:href="../../d5/d72/classLSM1x0A__LoRaWAN.html#a59f781f3cfd30c11cd3973bcb10a7baa" target="_top" xlink:title="Initiates a LoRaWAN Network Join procedure. This is a blocking function until the module fires an eve...">
<polygon fill="white" stroke="#666666" points="825.88,-844.95 694.38,-844.95 694.38,-824.95 825.88,-824.95 825.88,-844.95"/>
<text text-anchor="middle" x="760.12" y="-831.45" font-family="Helvetica,sans-Serif" font-size="10.00">LSM1x0A_LoRaWAN::join</text>
</a>
</g>
</g>
<!-- Node8&#45;&gt;Node9 -->
<g id="edge8_Node000008_Node000009" class="edge">
<title>Node8&#45;&gt;Node9</title>
<g id="a_edge8_Node000008_Node000009"><a xlink:title=" ">
<path fill="none" stroke="#63b8ff" d="M622.79,-834.95C642.16,-834.95 663.1,-834.95 682.61,-834.95"/>
<polygon fill="#63b8ff" stroke="#63b8ff" points="682.4,-838.45 692.4,-834.95 682.4,-831.45 682.4,-838.45"/>
</a>
</g>
</g>
<!-- Node9&#45;&gt;Node2 -->
<g id="edge11_Node000009_Node000002" class="edge">
<title>Node9&#45;&gt;Node2</title>
<g id="a_edge11_Node000009_Node000002"><a xlink:title=" ">
<path fill="none" stroke="#63b8ff" d="M705.9,-824.5C647.27,-812.53 550.48,-791.38 468.75,-766.95 404.36,-747.69 374.48,-762.27 326.75,-714.95 268.48,-657.18 248.28,-557.13 241.7,-508.74"/>
<polygon fill="#63b8ff" stroke="#63b8ff" points="245.18,-508.33 240.47,-498.84 238.23,-509.2 245.18,-508.33"/>
</a>
</g>
</g>
<!-- Node9&#45;&gt;Node3 -->
<g id="edge10_Node000009_Node000003" class="edge">
<title>Node9&#45;&gt;Node3</title>
<g id="a_edge10_Node000009_Node000003"><a xlink:title=" ">
<path fill="none" stroke="#63b8ff" d="M705.9,-845.44C647.49,-857.21 551.07,-877.35 468.75,-897.95 460.81,-899.94 452.49,-902.14 444.28,-904.39"/>
<polygon fill="#63b8ff" stroke="#63b8ff" points="443.34,-901.01 434.65,-907.06 445.22,-907.76 443.34,-901.01"/>
</a>
</g>
</g>
<!-- Node9&#45;&gt;Node4 -->
<g id="edge9_Node000009_Node000004" class="edge">
<title>Node9&#45;&gt;Node4</title>
<g id="a_edge9_Node000009_Node000004"><a xlink:title=" ">
<path fill="none" stroke="#63b8ff" d="M783.19,-845.4C819.91,-862.79 894.23,-898 942.26,-920.75"/>
<polygon fill="#63b8ff" stroke="#63b8ff" points="940.47,-923.78 951.01,-924.9 943.47,-917.45 940.47,-923.78"/>
</a>
</g>
</g>
<!-- Node10 -->
<g id="Node000010" class="node">
<title>Node10</title>
<g id="a_Node000010"><a xlink:href="../../d5/d72/classLSM1x0A__LoRaWAN.html#a3fdd1ac318a5ad2559323e5d57e36a5e" target="_top" xlink:title="Enables or disables specific sub&#45;bands for regions supporting Channel Masks (e.g.,...">
<polygon fill="white" stroke="#666666" points="1083,-654.95 893,-654.95 893,-634.95 1083,-634.95 1083,-654.95"/>
<text text-anchor="middle" x="988" y="-641.45" font-family="Helvetica,sans-Serif" font-size="10.00">LSM1x0A_LoRaWAN::setChannelMask</text>
</a>
</g>
</g>
<!-- Node9&#45;&gt;Node10 -->
<g id="edge12_Node000009_Node000010" class="edge">
<title>Node9&#45;&gt;Node10</title>
<g id="a_edge12_Node000009_Node000010"><a xlink:title=" ">
<path fill="none" stroke="#63b8ff" d="M820.43,-824.45C833.15,-820.55 846.05,-815.22 857,-807.95 913.87,-770.19 957.5,-699.61 976.54,-665.05"/>
<polygon fill="#63b8ff" stroke="#63b8ff" points="979.47,-666.98 981.12,-656.52 973.3,-663.67 979.47,-666.98"/>
</a>
</g>
</g>
<!-- Node11 -->
<g id="Node000011" class="node">
<title>Node11</title>
<g id="a_Node000011"><a xlink:href="../../d8/d92/classLSM1x0A__Controller.html#a62476e30e50c7fe120aeb8df4b828675" target="_top" xlink:title="Synchronously/blockingly waits for an asynchronous event to occur. Useful for wrapping commands like ...">
<polygon fill="white" stroke="#666666" points="1041,-850.95 935,-850.95 935,-818.95 1041,-818.95 1041,-850.95"/>
<text text-anchor="start" x="943" y="-837.45" font-family="Helvetica,sans-Serif" font-size="10.00">LSM1x0A_Controller</text>
<text text-anchor="middle" x="988" y="-825.45" font-family="Helvetica,sans-Serif" font-size="10.00">::waitForEvent</text>
</a>
</g>
</g>
<!-- Node9&#45;&gt;Node11 -->
<g id="edge15_Node000009_Node000011" class="edge">
<title>Node9&#45;&gt;Node11</title>
<g id="a_edge15_Node000009_Node000011"><a xlink:title=" ">
<path fill="none" stroke="#63b8ff" d="M826.15,-834.95C856.66,-834.95 892.9,-834.95 923.24,-834.95"/>
<polygon fill="#63b8ff" stroke="#63b8ff" points="923.05,-838.45 933.05,-834.95 923.05,-831.45 923.05,-838.45"/>
</a>
</g>
</g>
<!-- Node10&#45;&gt;Node2 -->
<g id="edge14_Node000010_Node000002" class="edge">
<title>Node10&#45;&gt;Node2</title>
<g id="a_edge14_Node000010_Node000002"><a xlink:title=" ">
<path fill="none" stroke="#63b8ff" d="M986.22,-634.73C980.77,-566.01 945.85,-172.04 857,-101.95 671.84,44.11 507.9,29.06 326.75,-121.95 275.17,-164.95 249.11,-377.61 241.32,-453.76"/>
<polygon fill="#63b8ff" stroke="#63b8ff" points="237.88,-452.96 240.37,-463.26 244.84,-453.65 237.88,-452.96"/>
</a>
</g>
</g>
<!-- Node10&#45;&gt;Node7 -->
<g id="edge13_Node000010_Node000007" class="edge">
<title>Node10&#45;&gt;Node7</title>
<g id="a_edge13_Node000010_Node000007"><a xlink:title=" ">
<path fill="none" stroke="#63b8ff" d="M996.8,-655.28C1027.34,-695.76 1139.17,-843.95 1179.57,-897.49"/>
<polygon fill="#63b8ff" stroke="#63b8ff" points="1176.72,-899.52 1185.54,-905.4 1182.31,-895.31 1176.72,-899.52"/>
</a>
</g>
</g>
<!-- Node12&#45;&gt;Node10 -->
<g id="edge21_Node000012_Node000010" class="edge">
<title>Node12&#45;&gt;Node10</title>
<g id="a_edge21_Node000012_Node000010"><a xlink:title=" ">
<path fill="none" stroke="#63b8ff" d="M621.49,-484.29C699.15,-488.81 816.68,-498.64 857,-517.95 908.93,-542.82 952.88,-596.76 973.84,-625.7"/>
<polygon fill="#63b8ff" stroke="#63b8ff" points="970.77,-627.41 979.4,-633.56 976.49,-623.37 970.77,-627.41"/>
</a>
</g>
</g>
<!-- Node13 -->
<g id="Node000013" class="node">
<title>Node13</title>
<g id="a_Node000013"><a xlink:href="../../d5/d72/classLSM1x0A__LoRaWAN.html#af0baa3db4c7fab580d6b19a9e92472f6" target="_top" xlink:title="Enables or disables Adaptive Data Rate (ADR).">
<polygon fill="white" stroke="#666666" points="836,-798.95 684.25,-798.95 684.25,-778.95 836,-778.95 836,-798.95"/>
<text text-anchor="middle" x="760.12" y="-785.45" font-family="Helvetica,sans-Serif" font-size="10.00">LSM1x0A_LoRaWAN::setADR</text>
</a>
</g>
</g>
<!-- Node12&#45;&gt;Node13 -->
<g id="edge17_Node000012_Node000013" class="edge">
<title>Node12&#45;&gt;Node13</title>
<g id="a_edge17_Node000012_Node000013"><a xlink:title=" ">
<path fill="none" stroke="#63b8ff" d="M550.18,-497.13C554.7,-546.58 575.4,-696.7 663.25,-769.95 666.5,-772.66 670.04,-775.03 673.76,-777.08"/>
<polygon fill="#63b8ff" stroke="#63b8ff" points="672.09,-780.17 682.63,-781.21 675.04,-773.82 672.09,-780.17"/>
</a>
</g>
</g>
<!-- Node14 -->
<g id="Node000014" class="node">
<title>Node14</title>
<g id="a_Node000014"><a xlink:href="../../d5/d72/classLSM1x0A__LoRaWAN.html#a5365ed1596eb84ebf1e3b33b4a10c788" target="_top" xlink:title="Sets the LoRaWAN operational frequency band.">
<polygon fill="white" stroke="#666666" points="836.38,-760.95 683.88,-760.95 683.88,-740.95 836.38,-740.95 836.38,-760.95"/>
<text text-anchor="middle" x="760.12" y="-747.45" font-family="Helvetica,sans-Serif" font-size="10.00">LSM1x0A_LoRaWAN::setBand</text>
</a>
</g>
</g>
<!-- Node12&#45;&gt;Node14 -->
<g id="edge19_Node000012_Node000014" class="edge">
<title>Node12&#45;&gt;Node14</title>
<g id="a_edge19_Node000012_Node000014"><a xlink:title=" ">
<path fill="none" stroke="#63b8ff" d="M551.26,-497.27C558.42,-542.46 584.98,-669.99 663.25,-731.95 666.41,-734.45 669.8,-736.64 673.36,-738.58"/>
<polygon fill="#63b8ff" stroke="#63b8ff" points="671.85,-741.74 682.4,-742.72 674.77,-735.37 671.85,-741.74"/>
</a>
</g>
</g>
<!-- Node15 -->
<g id="Node000015" class="node">
<title>Node15</title>
<g id="a_Node000015"><a xlink:href="../../d5/d72/classLSM1x0A__LoRaWAN.html#a9d9285c43414337a0ccb3a6cd7ca06e6" target="_top" xlink:title="Configures the number of retries for Confirmed uplinks.">
<polygon fill="white" stroke="#666666" points="842.38,-722.95 677.88,-722.95 677.88,-690.95 842.38,-690.95 842.38,-722.95"/>
<text text-anchor="start" x="685.88" y="-709.45" font-family="Helvetica,sans-Serif" font-size="10.00">LSM1x0A_LoRaWAN::setConfirm</text>
<text text-anchor="middle" x="760.12" y="-697.45" font-family="Helvetica,sans-Serif" font-size="10.00">Retry</text>
</a>
</g>
</g>
<!-- Node12&#45;&gt;Node15 -->
<g id="edge22_Node000012_Node000015" class="edge">
<title>Node12&#45;&gt;Node15</title>
<g id="a_edge22_Node000012_Node000015"><a xlink:title=" ">
<path fill="none" stroke="#63b8ff" d="M553.52,-497.42C564.98,-535.98 598.92,-632.59 663.25,-681.95 664.61,-682.99 666.02,-684 667.46,-684.96"/>
<polygon fill="#63b8ff" stroke="#63b8ff" points="665.68,-687.98 676.09,-689.96 669.19,-681.92 665.68,-687.98"/>
</a>
</g>
</g>
<!-- Node16 -->
<g id="Node000016" class="node">
<title>Node16</title>
<g id="a_Node000016"><a xlink:href="../../d5/d72/classLSM1x0A__LoRaWAN.html#a56345ceeafa0b9059d6de4e69eddc82e" target="_top" xlink:title="Sets the Data Rate (DR) of the module.">
<polygon fill="white" stroke="#666666" points="846.12,-672.95 674.12,-672.95 674.12,-652.95 846.12,-652.95 846.12,-672.95"/>
<text text-anchor="middle" x="760.12" y="-659.45" font-family="Helvetica,sans-Serif" font-size="10.00">LSM1x0A_LoRaWAN::setDataRate</text>
</a>
</g>
</g>
<!-- Node12&#45;&gt;Node16 -->
<g id="edge24_Node000012_Node000016" class="edge">
<title>Node12&#45;&gt;Node16</title>
<g id="a_edge24_Node000012_Node000016"><a xlink:title=" ">
<path fill="none" stroke="#63b8ff" d="M555.43,-497.26C569.49,-530.68 606.36,-606.87 663.25,-643.95 665.39,-645.34 667.6,-646.63 669.88,-647.84"/>
<polygon fill="#63b8ff" stroke="#63b8ff" points="668.3,-650.96 678.85,-651.92 671.2,-644.59 668.3,-650.96"/>
</a>
</g>
</g>
<!-- Node17 -->
<g id="Node000017" class="node">
<title>Node17</title>
<g id="a_Node000017"><a xlink:href="../../d5/d72/classLSM1x0A__LoRaWAN.html#a8494083816ab885cb07fc3b08de029f4" target="_top" xlink:title="Sets the LoRaWAN Device Address (DevAddr) for ABP mode.">
<polygon fill="white" stroke="#666666" points="844.25,-634.95 676,-634.95 676,-614.95 844.25,-614.95 844.25,-634.95"/>
<text text-anchor="middle" x="760.12" y="-621.45" font-family="Helvetica,sans-Serif" font-size="10.00">LSM1x0A_LoRaWAN::setDevAddr</text>
</a>
</g>
</g>
<!-- Node12&#45;&gt;Node17 -->
<g id="edge26_Node000012_Node000017" class="edge">
<title>Node12&#45;&gt;Node17</title>
<g id="a_edge26_Node000012_Node000017"><a xlink:title=" ">
<path fill="none" stroke="#63b8ff" d="M558.99,-497.41C576.47,-524.7 615.35,-578.97 663.25,-605.95 666.09,-607.55 669.05,-609.02 672.08,-610.36"/>
<polygon fill="#63b8ff" stroke="#63b8ff" points="670.67,-613.57 681.26,-613.93 673.21,-607.04 670.67,-613.57"/>
</a>
</g>
</g>
<!-- Node18 -->
<g id="Node000018" class="node">
<title>Node18</title>
<g id="a_Node000018"><a xlink:href="../../d5/d72/classLSM1x0A__LoRaWAN.html#ad320634e52d7ea907043cc50dd37c5b0" target="_top" xlink:title="Sets the LoRaWAN Device EUI (DevEUI).">
<polygon fill="white" stroke="#666666" points="842.75,-596.95 677.5,-596.95 677.5,-576.95 842.75,-576.95 842.75,-596.95"/>
<text text-anchor="middle" x="760.12" y="-583.45" font-family="Helvetica,sans-Serif" font-size="10.00">LSM1x0A_LoRaWAN::setDevEUI</text>
</a>
</g>
</g>
<!-- Node12&#45;&gt;Node18 -->
<g id="edge28_Node000012_Node000018" class="edge">
<title>Node12&#45;&gt;Node18</title>
<g id="a_edge28_Node000012_Node000018"><a xlink:title=" ">
<path fill="none" stroke="#63b8ff" d="M565.2,-497.21C586.02,-517.12 624.15,-550.34 663.25,-567.95 667.51,-569.87 671.97,-571.6 676.53,-573.15"/>
<polygon fill="#63b8ff" stroke="#63b8ff" points="675.28,-576.43 685.87,-576.02 677.34,-569.74 675.28,-576.43"/>
</a>
</g>
</g>
<!-- Node19 -->
<g id="Node000019" class="node">
<title>Node19</title>
<g id="a_Node000019"><a xlink:href="../../d5/d72/classLSM1x0A__LoRaWAN.html#a031023b0d2dd5db3c51c2db6ae7801cc" target="_top" xlink:title="Enables or disables the Duty Cycle limitation (EU regions mostly).">
<polygon fill="white" stroke="#666666" points="835.62,-558.95 684.62,-558.95 684.62,-526.95 835.62,-526.95 835.62,-558.95"/>
<text text-anchor="start" x="692.62" y="-545.45" font-family="Helvetica,sans-Serif" font-size="10.00">LSM1x0A_LoRaWAN::setDuty</text>
<text text-anchor="middle" x="760.12" y="-533.45" font-family="Helvetica,sans-Serif" font-size="10.00">Cycle</text>
</a>
</g>
</g>
<!-- Node12&#45;&gt;Node19 -->
<g id="edge30_Node000012_Node000019" class="edge">
<title>Node12&#45;&gt;Node19</title>
<g id="a_edge30_Node000012_Node000019"><a xlink:title=" ">
<path fill="none" stroke="#63b8ff" d="M604.76,-497.4C631.7,-505.35 664.23,-514.95 692.48,-523.28"/>
<polygon fill="#63b8ff" stroke="#63b8ff" points="691.44,-526.62 702.02,-526.1 693.42,-519.91 691.44,-526.62"/>
</a>
</g>
</g>
<!-- Node20 -->
<g id="Node000020" class="node">
<title>Node20</title>
<g id="a_Node000020"><a xlink:href="../../d5/d72/classLSM1x0A__LoRaWAN.html#a6b179d5825c49af0f391dfc539912f64" target="_top" xlink:title="Sets the delay for the Join1 receive window.">
<polygon fill="white" stroke="#666666" points="836.75,-470.95 683.5,-470.95 683.5,-438.95 836.75,-438.95 836.75,-470.95"/>
<text text-anchor="start" x="691.5" y="-457.45" font-family="Helvetica,sans-Serif" font-size="10.00">LSM1x0A_LoRaWAN::setJoin1</text>
<text text-anchor="middle" x="760.12" y="-445.45" font-family="Helvetica,sans-Serif" font-size="10.00">Delay</text>
</a>
</g>
</g>
<!-- Node12&#45;&gt;Node20 -->
<g id="edge32_Node000012_Node000020" class="edge">
<title>Node12&#45;&gt;Node20</title>
<g id="a_edge32_Node000012_Node000020"><a xlink:title=" ">
<path fill="none" stroke="#63b8ff" d="M621.61,-471.96C637.96,-469.94 655.47,-467.77 672.33,-465.69"/>
<polygon fill="#63b8ff" stroke="#63b8ff" points="672.3,-469.22 681.8,-464.52 671.44,-462.27 672.3,-469.22"/>
</a>
</g>
</g>
<!-- Node21 -->
<g id="Node000021" class="node">
<title>Node21</title>
<g id="a_Node000021"><a xlink:href="../../d5/d72/classLSM1x0A__LoRaWAN.html#a4545d0caad41558cdb9bae8286b104d8" target="_top" xlink:title="Sets the delay for the Join2 receive window.">
<polygon fill="white" stroke="#666666" points="836.75,-420.95 683.5,-420.95 683.5,-388.95 836.75,-388.95 836.75,-420.95"/>
<text text-anchor="start" x="691.5" y="-407.45" font-family="Helvetica,sans-Serif" font-size="10.00">LSM1x0A_LoRaWAN::setJoin2</text>
<text text-anchor="middle" x="760.12" y="-395.45" font-family="Helvetica,sans-Serif" font-size="10.00">Delay</text>
</a>
</g>
</g>
<!-- Node12&#45;&gt;Node21 -->
<g id="edge34_Node000012_Node000021" class="edge">
<title>Node12&#45;&gt;Node21</title>
<g id="a_edge34_Node000012_Node000021"><a xlink:title=" ">
<path fill="none" stroke="#63b8ff" d="M581.91,-464.52C604.42,-453.71 635.17,-439.8 663.25,-429.95 668.54,-428.09 674.04,-426.3 679.61,-424.59"/>
<polygon fill="#63b8ff" stroke="#63b8ff" points="680.32,-428.03 688.91,-421.84 678.33,-421.32 680.32,-428.03"/>
</a>
</g>
</g>
<!-- Node22 -->
<g id="Node000022" class="node">
<title>Node22</title>
<g id="a_Node000022"><a xlink:href="../../d5/d72/classLSM1x0A__LoRaWAN.html#a06bd50723ec1eb7e144c9141b2ec86fc" target="_top" xlink:title="Sets the LoRaWAN Network ID (NetID).">
<polygon fill="white" stroke="#666666" points="840.5,-370.95 679.75,-370.95 679.75,-350.95 840.5,-350.95 840.5,-370.95"/>
<text text-anchor="middle" x="760.12" y="-357.45" font-family="Helvetica,sans-Serif" font-size="10.00">LSM1x0A_LoRaWAN::setNwkID</text>
</a>
</g>
</g>
<!-- Node12&#45;&gt;Node22 -->
<g id="edge36_Node000012_Node000022" class="edge">
<title>Node12&#45;&gt;Node22</title>
<g id="a_edge36_Node000012_Node000022"><a xlink:title=" ">
<path fill="none" stroke="#63b8ff" d="M562.26,-464.74C581.85,-441.98 620.78,-400.98 663.25,-379.95 666.93,-378.13 670.76,-376.48 674.7,-374.99"/>
<polygon fill="#63b8ff" stroke="#63b8ff" points="675.51,-378.41 683.86,-371.9 673.27,-371.78 675.51,-378.41"/>
</a>
</g>
</g>
<!-- Node23 -->
<g id="Node000023" class="node">
<title>Node23</title>
<g id="a_Node000023"><a xlink:href="../../d5/d72/classLSM1x0A__LoRaWAN.html#aa70ada64d28ecca216bb62268e502adf" target="_top" xlink:title="Sets the delay for the RX1 receive window.">
<polygon fill="white" stroke="#666666" points="846.88,-332.95 673.38,-332.95 673.38,-312.95 846.88,-312.95 846.88,-332.95"/>
<text text-anchor="middle" x="760.12" y="-319.45" font-family="Helvetica,sans-Serif" font-size="10.00">LSM1x0A_LoRaWAN::setRx1Delay</text>
</a>
</g>
</g>
<!-- Node12&#45;&gt;Node23 -->
<g id="edge38_Node000012_Node000023" class="edge">
<title>Node12&#45;&gt;Node23</title>
<g id="a_edge38_Node000012_Node000023"><a xlink:title=" ">
<path fill="none" stroke="#63b8ff" d="M557.45,-464.54C573.65,-434.88 612.05,-372.58 663.25,-341.95 665.73,-340.46 668.31,-339.09 670.96,-337.82"/>
<polygon fill="#63b8ff" stroke="#63b8ff" points="672.21,-341.09 680.09,-334.02 669.51,-334.63 672.21,-341.09"/>
</a>
</g>
</g>
<!-- Node24 -->
<g id="Node000024" class="node">
<title>Node24</title>
<g id="a_Node000024"><a xlink:href="../../d5/d72/classLSM1x0A__LoRaWAN.html#a2cf4eff0181b6107d082bccefa24217b" target="_top" xlink:title="Sets the Data Rate (DR) specifically for the RX2 window.">
<polygon fill="white" stroke="#666666" points="855.12,-294.95 665.12,-294.95 665.12,-274.95 855.12,-274.95 855.12,-294.95"/>
<text text-anchor="middle" x="760.12" y="-281.45" font-family="Helvetica,sans-Serif" font-size="10.00">LSM1x0A_LoRaWAN::setRx2DataRate</text>
</a>
</g>
</g>
<!-- Node12&#45;&gt;Node24 -->
<g id="edge40_Node000012_Node000024" class="edge">
<title>Node12&#45;&gt;Node24</title>
<g id="a_edge40_Node000012_Node000024"><a xlink:title=" ">
<path fill="none" stroke="#63b8ff" d="M554.52,-464.61C567.4,-429.11 603.04,-344.84 663.25,-303.95 665.22,-302.61 667.27,-301.36 669.38,-300.19"/>
<polygon fill="#63b8ff" stroke="#63b8ff" points="670.71,-303.43 678.23,-295.97 667.7,-297.11 670.71,-303.43"/>
</a>
</g>
</g>
<!-- Node25 -->
<g id="Node000025" class="node">
<title>Node25</title>
<g id="a_Node000025"><a xlink:href="../../d5/d72/classLSM1x0A__LoRaWAN.html#a42d2137b475b57e19d891a5f1ac93221" target="_top" xlink:title="Sets the delay for the RX2 receive window.">
<polygon fill="white" stroke="#666666" points="846.88,-256.95 673.38,-256.95 673.38,-236.95 846.88,-236.95 846.88,-256.95"/>
<text text-anchor="middle" x="760.12" y="-243.45" font-family="Helvetica,sans-Serif" font-size="10.00">LSM1x0A_LoRaWAN::setRx2Delay</text>
</a>
</g>
</g>
<!-- Node12&#45;&gt;Node25 -->
<g id="edge42_Node000012_Node000025" class="edge">
<title>Node12&#45;&gt;Node25</title>
<g id="a_edge42_Node000012_Node000025"><a xlink:title=" ">
<path fill="none" stroke="#63b8ff" d="M552.59,-464.6C562.43,-423.89 593.86,-317.5 663.25,-265.95 664.84,-264.76 666.49,-263.65 668.18,-262.6"/>
<polygon fill="#63b8ff" stroke="#63b8ff" points="669.76,-265.72 676.98,-257.97 666.5,-259.53 669.76,-265.72"/>
</a>
</g>
</g>
<!-- Node26 -->
<g id="Node000026" class="node">
<title>Node26</title>
<g id="a_Node000026"><a xlink:href="../../d5/d72/classLSM1x0A__LoRaWAN.html#a689f7dfda1dfeae11ea397c2ddf2ad37" target="_top" xlink:title="Sets the precise frequency for the RX2 window.">
<polygon fill="white" stroke="#666666" points="857,-218.95 663.25,-218.95 663.25,-198.95 857,-198.95 857,-218.95"/>
<text text-anchor="middle" x="760.12" y="-205.45" font-family="Helvetica,sans-Serif" font-size="10.00">LSM1x0A_LoRaWAN::setRx2Frequency</text>
</a>
</g>
</g>
<!-- Node12&#45;&gt;Node26 -->
<g id="edge44_Node000012_Node000026" class="edge">
<title>Node12&#45;&gt;Node26</title>
<g id="a_edge44_Node000012_Node000026"><a xlink:title=" ">
<path fill="none" stroke="#63b8ff" d="M551.21,-464.5C558.26,-418.96 584.56,-290.44 663.25,-227.95 664.58,-226.89 665.95,-225.89 667.36,-224.94"/>
<polygon fill="#63b8ff" stroke="#63b8ff" points="668.86,-228.11 675.82,-220.12 665.4,-222.03 668.86,-228.11"/>
</a>
</g>
</g>
<!-- Node27 -->
<g id="Node000027" class="node">
<title>Node27</title>
<g id="a_Node000027"><a xlink:href="../../d5/d72/classLSM1x0A__LoRaWAN.html#a1df10d7ae6bf45b537d28d3d5c4b88d7" target="_top" xlink:title="Sets the transmission power index.">
<polygon fill="white" stroke="#666666" points="844.62,-180.95 675.62,-180.95 675.62,-160.95 844.62,-160.95 844.62,-180.95"/>
<text text-anchor="middle" x="760.12" y="-167.45" font-family="Helvetica,sans-Serif" font-size="10.00">LSM1x0A_LoRaWAN::setTxPower</text>
</a>
</g>
</g>
<!-- Node12&#45;&gt;Node27 -->
<g id="edge46_Node000012_Node000027" class="edge">
<title>Node12&#45;&gt;Node27</title>
<g id="a_edge46_Node000012_Node000027"><a xlink:title=" ">
<path fill="none" stroke="#63b8ff" d="M550.14,-464.65C554.55,-414.88 574.96,-263.73 663.25,-189.95 664.39,-189 665.55,-188.09 666.75,-187.23"/>
<polygon fill="#63b8ff" stroke="#63b8ff" points="668.43,-190.3 675.18,-182.14 664.81,-184.31 668.43,-190.3"/>
</a>
</g>
</g>
<!-- Node28 -->
<g id="Node000028" class="node">
<title>Node28</title>
<g id="a_Node000028"><a xlink:href="../../d5/d72/classLSM1x0A__LoRaWAN.html#a059fd6a9356c4ecadd5a98294da5952d" target="_top" xlink:title="Configures the number of repetitions for Unconfirmed uplinks.">
<polygon fill="white" stroke="#666666" points="847.62,-142.95 672.62,-142.95 672.62,-110.95 847.62,-110.95 847.62,-142.95"/>
<text text-anchor="start" x="680.62" y="-129.45" font-family="Helvetica,sans-Serif" font-size="10.00">LSM1x0A_LoRaWAN::setUnconfirm</text>
<text text-anchor="middle" x="760.12" y="-117.45" font-family="Helvetica,sans-Serif" font-size="10.00">Retry</text>
</a>
</g>
</g>
<!-- Node12&#45;&gt;Node28 -->
<g id="edge48_Node000012_Node000028" class="edge">
<title>Node12&#45;&gt;Node28</title>
<g id="a_edge48_Node000012_Node000028"><a xlink:title=" ">
<path fill="none" stroke="#63b8ff" d="M549.52,-464.75C552.15,-411.46 567.98,-239.96 663.25,-151.95 664.02,-151.23 664.82,-150.54 665.62,-149.86"/>
<polygon fill="#63b8ff" stroke="#63b8ff" points="667.47,-152.84 673.62,-144.21 663.44,-147.12 667.47,-152.84"/>
</a>
</g>
</g>
<!-- Node13&#45;&gt;Node2 -->
<g id="edge18_Node000013_Node000002" class="edge">
<title>Node13&#45;&gt;Node2</title>
<g id="a_edge18_Node000013_Node000002"><a xlink:title=" ">
<path fill="none" stroke="#63b8ff" d="M685.11,-778.49C575.89,-761.69 378.83,-725.64 326.75,-677.95 276.1,-631.57 252.87,-550.58 243.75,-508.34"/>
<polygon fill="#63b8ff" stroke="#63b8ff" points="247.23,-507.86 241.8,-498.76 240.37,-509.26 247.23,-507.86"/>
</a>
</g>
</g>
<!-- Node14&#45;&gt;Node2 -->
<g id="edge20_Node000014_Node000002" class="edge">
<title>Node14&#45;&gt;Node2</title>
<g id="a_edge20_Node000014_Node000002"><a xlink:title=" ">
<path fill="none" stroke="#63b8ff" d="M687.48,-740.46C579.42,-723.42 381.51,-687.03 326.75,-641.95 283.48,-606.32 258.12,-543.61 246.49,-507.88"/>
<polygon fill="#63b8ff" stroke="#63b8ff" points="249.96,-507.24 243.64,-498.74 243.27,-509.32 249.96,-507.24"/>
</a>
</g>
</g>
<!-- Node15&#45;&gt;Node2 -->
<g id="edge23_Node000015_Node000002" class="edge">
<title>Node15&#45;&gt;Node2</title>
<g id="a_edge23_Node000015_Node000002"><a xlink:title=" ">
<path fill="none" stroke="#63b8ff" d="M677.49,-696.13C568.08,-680.29 381.32,-648.15 326.75,-606.95 291.63,-580.43 265.24,-535.78 250.9,-507.37"/>
<polygon fill="#63b8ff" stroke="#63b8ff" points="254.21,-506.16 246.67,-498.71 247.92,-509.23 254.21,-506.16"/>
</a>
</g>
</g>
<!-- Node16&#45;&gt;Node2 -->
<g id="edge25_Node000016_Node000002" class="edge">
<title>Node16&#45;&gt;Node2</title>
<g id="a_edge25_Node000016_Node000002"><a xlink:title=" ">
<path fill="none" stroke="#63b8ff" d="M674.02,-660.63C582.31,-654.66 434.96,-634.71 326.75,-569.95 299.07,-553.38 273.89,-526.09 257.63,-506.09"/>
<polygon fill="#63b8ff" stroke="#63b8ff" points="260.49,-504.06 251.54,-498.39 255,-508.41 260.49,-504.06"/>
</a>
</g>
</g>
<!-- Node17&#45;&gt;Node2 -->
<g id="edge27_Node000017_Node000002" class="edge">
<title>Node17&#45;&gt;Node2</title>
<g id="a_edge27_Node000017_Node000002"><a xlink:title=" ">
<path fill="none" stroke="#63b8ff" d="M675.77,-618.09C586.51,-608.52 442.15,-586.49 326.75,-537.95 305.99,-529.22 284.74,-515.61 268.33,-503.88"/>
<polygon fill="#63b8ff" stroke="#63b8ff" points="270.62,-501.22 260.48,-498.14 266.49,-506.87 270.62,-501.22"/>
</a>
</g>
</g>
<!-- Node18&#45;&gt;Node2 -->
<g id="edge29_Node000018_Node000002" class="edge">
<title>Node18&#45;&gt;Node2</title>
<g id="a_edge29_Node000018_Node000002"><a xlink:title=" ">
<path fill="none" stroke="#63b8ff" d="M677.37,-576.91C589.78,-565.2 447.09,-543.35 326.75,-511.95 315.23,-508.94 303.07,-505.11 291.59,-501.17"/>
<polygon fill="#63b8ff" stroke="#63b8ff" points="292.85,-497.9 282.26,-497.88 290.53,-504.5 292.85,-497.9"/>
</a>
</g>
</g>
<!-- Node19&#45;&gt;Node2 -->
<g id="edge31_Node000019_Node000002" class="edge">
<title>Node19&#45;&gt;Node2</title>
<g id="a_edge31_Node000019_Node000002"><a xlink:title=" ">
<path fill="none" stroke="#63b8ff" d="M684.39,-534.04C581.71,-521.81 398.81,-500.02 302.35,-488.53"/>
<polygon fill="#63b8ff" stroke="#63b8ff" points="302.87,-485.06 292.53,-487.36 302.05,-492.01 302.87,-485.06"/>
</a>
</g>
</g>
<!-- Node20&#45;&gt;Node2 -->
<g id="edge33_Node000020_Node000002" class="edge">
<title>Node20&#45;&gt;Node2</title>
<g id="a_edge33_Node000020_Node000002"><a xlink:title=" ">
<path fill="none" stroke="#63b8ff" d="M683.25,-453.04C624.62,-452.09 541.48,-451.88 468.75,-455.95 412.37,-459.1 348.55,-466.33 302.47,-472.21"/>
<polygon fill="#63b8ff" stroke="#63b8ff" points="302.12,-468.72 292.65,-473.48 303.01,-475.67 302.12,-468.72"/>
</a>
</g>
</g>
<!-- Node21&#45;&gt;Node2 -->
<g id="edge35_Node000021_Node000002" class="edge">
<title>Node21&#45;&gt;Node2</title>
<g id="a_edge35_Node000021_Node000002"><a xlink:title=" ">
<path fill="none" stroke="#63b8ff" d="M683.13,-409.76C596.28,-416.18 450.21,-429.77 326.75,-454.95 318.08,-456.72 309.03,-458.94 300.17,-461.34"/>
<polygon fill="#63b8ff" stroke="#63b8ff" points="299.23,-457.97 290.55,-464.05 301.13,-464.71 299.23,-457.97"/>
</a>
</g>
</g>
<!-- Node22&#45;&gt;Node2 -->
<g id="edge37_Node000022_Node000002" class="edge">
<title>Node22&#45;&gt;Node2</title>
<g id="a_edge37_Node000022_Node000002"><a xlink:title=" ">
<path fill="none" stroke="#63b8ff" d="M679.46,-366.22C591.2,-373.87 445.63,-391.94 326.75,-432.95 308.26,-439.33 289.05,-449.35 273.31,-458.6"/>
<polygon fill="#63b8ff" stroke="#63b8ff" points="271.55,-455.57 264.8,-463.73 275.17,-461.56 271.55,-455.57"/>
</a>
</g>
</g>
<!-- Node23&#45;&gt;Node2 -->
<g id="edge39_Node000023_Node000002" class="edge">
<title>Node23&#45;&gt;Node2</title>
<g id="a_edge39_Node000023_Node000002"><a xlink:title=" ">
<path fill="none" stroke="#63b8ff" d="M672.99,-323.48C582.04,-327.36 436.85,-343.2 326.75,-400.95 300.51,-414.71 276.03,-438.19 259.59,-456.16"/>
<polygon fill="#63b8ff" stroke="#63b8ff" points="257.23,-453.54 253.2,-463.34 262.46,-458.2 257.23,-453.54"/>
</a>
</g>
</g>
<!-- Node24&#45;&gt;Node2 -->
<g id="edge41_Node000024_Node000002" class="edge">
<title>Node24&#45;&gt;Node2</title>
<g id="a_edge41_Node000024_Node000002"><a xlink:title=" ">
<path fill="none" stroke="#63b8ff" d="M664.9,-278.72C571.35,-277.21 427.69,-287.94 326.75,-355.95 290.25,-380.54 264.12,-425.71 250.23,-454.49"/>
<polygon fill="#63b8ff" stroke="#63b8ff" points="247.19,-452.73 246.15,-463.27 253.54,-455.68 247.19,-452.73"/>
</a>
</g>
</g>
<!-- Node25&#45;&gt;Node2 -->
<g id="edge43_Node000025_Node000002" class="edge">
<title>Node25&#45;&gt;Node2</title>
<g id="a_edge43_Node000025_Node000002"><a xlink:title=" ">
<path fill="none" stroke="#63b8ff" d="M689.35,-236.49C596.58,-226.6 432.09,-223.58 326.75,-304.95 278.11,-342.51 254.38,-414.19 244.56,-453.49"/>
<polygon fill="#63b8ff" stroke="#63b8ff" points="241.19,-452.56 242.3,-463.1 248,-454.17 241.19,-452.56"/>
</a>
</g>
</g>
<!-- Node26&#45;&gt;Node2 -->
<g id="edge45_Node000026_Node000002" class="edge">
<title>Node26&#45;&gt;Node2</title>
<g id="a_edge45_Node000026_Node000002"><a xlink:title=" ">
<path fill="none" stroke="#63b8ff" d="M662.92,-205.86C551.47,-204.31 376.75,-208.72 326.75,-248.95 262.86,-300.36 245.33,-403.6 240.54,-453.16"/>
<polygon fill="#63b8ff" stroke="#63b8ff" points="237.06,-452.77 239.7,-463.03 244.03,-453.36 237.06,-452.77"/>
</a>
</g>
</g>
<!-- Node27&#45;&gt;Node2 -->
<g id="edge47_Node000027_Node000002" class="edge">
<title>Node27&#45;&gt;Node2</title>
<g id="a_edge47_Node000027_Node000002"><a xlink:title=" ">
<path fill="none" stroke="#63b8ff" d="M712.42,-160.48C625.99,-144.01 439.64,-122.56 326.75,-212.95 251.94,-272.85 240.08,-397.78 238.65,-453.31"/>
<polygon fill="#63b8ff" stroke="#63b8ff" points="235.15,-453.1 238.5,-463.15 242.15,-453.21 235.15,-453.1"/>
</a>
</g>
</g>
<!-- Node28&#45;&gt;Node2 -->
<g id="edge49_Node000028_Node000002" class="edge">
<title>Node28&#45;&gt;Node2</title>
<g id="a_edge49_Node000028_Node000002"><a xlink:title=" ">
<path fill="none" stroke="#63b8ff" d="M672.24,-121.55C561.15,-116.57 377.12,-115.39 326.75,-157.95 280.9,-196.69 251.75,-383.18 242.2,-453.79"/>
<polygon fill="#63b8ff" stroke="#63b8ff" points="238.78,-452.95 240.94,-463.32 245.72,-453.87 238.78,-452.95"/>
</a>
</g>
</g>
<!-- Node30&#45;&gt;Node31 -->
<g id="edge52_Node000030_Node000031" class="edge">
<title>Node30&#45;&gt;Node31</title>
<g id="a_edge52_Node000030_Node000031"><a xlink:title=" ">
<path fill="none" stroke="#63b8ff" d="M601.48,-1092.44C619.64,-1094.34 640.61,-1096.54 661.22,-1098.7"/>
<polygon fill="#63b8ff" stroke="#63b8ff" points="660.79,-1102.17 671.1,-1099.73 661.52,-1095.21 660.79,-1102.17"/>
</a>
</g>
</g>
<!-- Node32 -->
<g id="Node000032" class="node">
<title>Node32</title>
<g id="a_Node000032"><a xlink:href="../../d6/d3c/classLSM1x0A__AtParser.html#a0ba6f927c54fceece22c17773d3f2600" target="_top" xlink:title="Sends a command and extracts a value from the response.">
<polygon fill="white" stroke="#666666" points="1075.12,-1124.95 900.88,-1124.95 900.88,-1092.95 1075.12,-1092.95 1075.12,-1124.95"/>
<text text-anchor="start" x="908.88" y="-1111.45" font-family="Helvetica,sans-Serif" font-size="10.00">LSM1x0A_AtParser::sendCommand</text>
<text text-anchor="middle" x="988" y="-1099.45" font-family="Helvetica,sans-Serif" font-size="10.00">WithResponse</text>
</a>
</g>
</g>
<!-- Node31&#45;&gt;Node32 -->
<g id="edge53_Node000031_Node000032" class="edge">
<title>Node31&#45;&gt;Node32</title>
<g id="a_edge53_Node000031_Node000032"><a xlink:title=" ">
<path fill="none" stroke="#63b8ff" d="M847.49,-1108.95C861.24,-1108.95 875.56,-1108.95 889.55,-1108.95"/>
<polygon fill="#63b8ff" stroke="#63b8ff" points="889.17,-1112.45 899.17,-1108.95 889.17,-1105.45 889.17,-1112.45"/>
</a>
</g>
</g>
<!-- Node33 -->
<g id="Node000033" class="node">
<title>Node33</title>
<g id="a_Node000033"><a xlink:href="../../d5/d8b/classUartDriver.html#a5d0f22e8867eebe99273078bb19bd23d" target="_top" xlink:title="Sends data through UART.">
<polygon fill="white" stroke="#666666" points="1249.75,-1118.95 1140.75,-1118.95 1140.75,-1098.95 1249.75,-1098.95 1249.75,-1118.95"/>
<text text-anchor="middle" x="1195.25" y="-1105.45" font-family="Helvetica,sans-Serif" font-size="10.00">UartDriver::sendData</text>
</a>
</g>
</g>
<!-- Node32&#45;&gt;Node33 -->
<g id="edge54_Node000032_Node000033" class="edge">
<title>Node32&#45;&gt;Node33</title>
<g id="a_edge54_Node000032_Node000033"><a xlink:title=" ">
<path fill="none" stroke="#63b8ff" d="M1075.45,-1108.95C1093.34,-1108.95 1111.91,-1108.95 1128.89,-1108.95"/>
<polygon fill="#63b8ff" stroke="#63b8ff" points="1128.86,-1112.45 1138.86,-1108.95 1128.86,-1105.45 1128.86,-1112.45"/>
</a>
</g>
</g>
</g>
</svg>

<g id="navigator" transform="translate(0 0)" fill="#404254">
  <rect fill="#f2f5e9" fill-opacity="0.5" stroke="#606060" stroke-width=".5" x="0" y="0" width="60" height="60"/>
  <use id="zoomplus" xlink:href="#zoomPlus" x="17" y="9" onmousedown="handleZoom(evt,'in')"/>
  <use id="zoomminus" xlink:href="#zoomMin" x="42" y="9" onmousedown="handleZoom(evt,'out')"/>
  <use id="reset" xlink:href="#resetDef" x="30" y="36" onmousedown="handleReset()"/>
   <use id="arrowup" xlink:href="#arrowUp" x="0" y="0" onmousedown="handlePan(0,-1)"/>
  <use id="arrowright" xlink:href="#arrowRight" x="0" y="0" onmousedown="handlePan(1,0)"/>
  <use id="arrowdown" xlink:href="#arrowDown" x="0" y="0" onmousedown="handlePan(0,1)"/>
  <use id="arrowleft" xlink:href="#arrowLeft" x="0" y="0" onmousedown="handlePan(-1,0)"/>
</g>
<svg viewBox="0 0 15 15" width="100%" height="30px" preserveAspectRatio="xMaxYMin meet">
 <g id="arrow_out" transform="scale(0.3 0.3)">
  <a xlink:href="classLSM1x0A__LoRaWAN_ad39b5ff1a14d9d3f6c2d99a166c2d67d_cgraph_org.svg" target="_base">
   <rect id="button" ry="5" rx="5" y="6" x="6" height="38" width="38"
        fill="#f2f5e9" fill-opacity="0.5" stroke="#606060" stroke-width="1.0"/>
   <path id="arrow"
     d="M 11.500037,31.436501 C 11.940474,20.09759 22.043105,11.32322 32.158766,21.979434 L 37.068811,17.246167 C 37.068811,17.246167 37.088388,32 37.088388,32 L 22.160133,31.978069 C 22.160133,31.978069 26.997745,27.140456 26.997745,27.140456 C 18.528582,18.264221 13.291696,25.230495 11.500037,31.436501 z"
     style="fill:#404040;"/>
  </a>
 </g>
</svg>

<style type='text/css'>
<![CDATA[
[data-mouse-over-selected='false'] { opacity: 0.7; }
[data-mouse-over-selected='true']  { opacity: 1.0; }
]]>
</style>
<script type="application/ecmascript"><![CDATA[
document.addEventListener('DOMContentLoaded', (event) => {
  highlightEdges();
  highlightAdjacentNodes();
});
]]></script>
</svg>
