<?xml version="1.0" encoding="UTF-8" standalone="no"?>
<!DOCTYPE svg PUBLIC "-//W3C//DTD SVG 1.1//EN"
 "http://www.w3.org/Graphics/SVG/1.1/DTD/svg11.dtd">
<!-- Generated by graphviz version 12.2.1 (20241206.2353)
 -->
<!-- Title: LSM1x0A_LoRaWAN::getConfirmRetry Pages: 1 -->
<svg width="518pt" height="78pt"
 viewBox="0.00 0.00 518.00 78.00" xmlns="http://www.w3.org/2000/svg" xmlns:xlink="http://www.w3.org/1999/xlink">
<g id="graph0" class="graph" transform="scale(1 1) rotate(0) translate(4 74)">
<title>LSM1x0A_LoRaWAN::getConfirmRetry</title>
<!-- Node1 -->
<g id="Node000001" class="node">
<title>Node1</title>
<g id="a_Node000001"><a xlink:title="Retrieves the Confirmed uplink retries limit.">
<polygon fill="#999999" stroke="#666666" points="510,-48 345.5,-48 345.5,-16 510,-16 510,-48"/>
<text text-anchor="start" x="353.5" y="-34.5" font-family="Helvetica,sans-Serif" font-size="10.00">LSM1x0A_LoRaWAN::getConfirm</text>
<text text-anchor="middle" x="427.75" y="-22.5" font-family="Helvetica,sans-Serif" font-size="10.00">Retry</text>
</a>
</g>
</g>
<!-- Node2 -->
<g id="Node000002" class="node">
<title>Node2</title>
<g id="a_Node000002"><a xlink:href="../../d5/d72/classLSM1x0A__LoRaWAN.html#a034f8c2d6cae9d8ae231adca4d02b527" target="_top" xlink:title="Polls the module for all its properties and populates the internal RAM cache. Recommended after wakin...">
<polygon fill="white" stroke="#666666" points="309.5,-70 146.5,-70 146.5,-38 309.5,-38 309.5,-70"/>
<text text-anchor="start" x="154.5" y="-56.5" font-family="Helvetica,sans-Serif" font-size="10.00">LSM1x0A_LoRaWAN::loadConfig</text>
<text text-anchor="middle" x="228" y="-44.5" font-family="Helvetica,sans-Serif" font-size="10.00">FromModule</text>
</a>
</g>
</g>
<!-- Node1&#45;&gt;Node2 -->
<g id="edge1_Node000001_Node000002" class="edge">
<title>Node1&#45;&gt;Node2</title>
<g id="a_edge1_Node000001_Node000002"><a xlink:title=" ">
<path fill="none" stroke="#63b8ff" d="M333.85,-42.34C325.8,-43.23 317.69,-44.13 309.75,-45.02"/>
<polygon fill="#63b8ff" stroke="#63b8ff" points="334.12,-45.83 343.67,-41.24 333.35,-38.87 334.12,-45.83"/>
</a>
</g>
</g>
<!-- Node4 -->
<g id="Node000004" class="node">
<title>Node4</title>
<g id="a_Node000004"><a xlink:href="../../d5/d72/classLSM1x0A__LoRaWAN.html#a1a92efbffd40faac5ebc54e74913106f" target="_top" xlink:title="Transmits a payload through the LoRaWAN network. Blocks until the MAC layer confirms transmission (or...">
<polygon fill="white" stroke="#666666" points="307.25,-20 148.75,-20 148.75,0 307.25,0 307.25,-20"/>
<text text-anchor="middle" x="228" y="-6.5" font-family="Helvetica,sans-Serif" font-size="10.00">LSM1x0A_LoRaWAN::sendData</text>
</a>
</g>
</g>
<!-- Node1&#45;&gt;Node4 -->
<g id="edge3_Node000001_Node000004" class="edge">
<title>Node1&#45;&gt;Node4</title>
<g id="a_edge3_Node000001_Node000004"><a xlink:title=" ">
<path fill="none" stroke="#63b8ff" d="M334.01,-21.68C325.15,-20.7 316.23,-19.7 307.52,-18.74"/>
<polygon fill="#63b8ff" stroke="#63b8ff" points="333.35,-25.13 343.67,-22.76 334.12,-18.17 333.35,-25.13"/>
</a>
</g>
</g>
<!-- Node3 -->
<g id="Node000003" class="node">
<title>Node3</title>
<g id="a_Node000003"><a xlink:href="../../d8/d92/classLSM1x0A__Controller.html#abdd8a00eb5697bbd25cd0330c11c919e" target="_top" xlink:title="Synchronizes the internal RAM cache by reading the key operational parameters from the module&#39;s firmw...">
<polygon fill="white" stroke="#666666" points="110.5,-70 0,-70 0,-38 110.5,-38 110.5,-70"/>
<text text-anchor="start" x="8" y="-56.5" font-family="Helvetica,sans-Serif" font-size="10.00">LSM1x0A_Controller</text>
<text text-anchor="middle" x="55.25" y="-44.5" font-family="Helvetica,sans-Serif" font-size="10.00">::syncConfigToCache</text>
</a>
</g>
</g>
<!-- Node2&#45;&gt;Node3 -->
<g id="edge2_Node000002_Node000003" class="edge">
<title>Node2&#45;&gt;Node3</title>
<g id="a_edge2_Node000002_Node000003"><a xlink:title=" ">
<path fill="none" stroke="#63b8ff" d="M134.81,-54C126.52,-54 118.33,-54 110.53,-54"/>
<polygon fill="#63b8ff" stroke="#63b8ff" points="134.61,-57.5 144.61,-54 134.61,-50.5 134.61,-57.5"/>
</a>
</g>
</g>
</g>
</svg>
