<?xml version="1.0" encoding="UTF-8" standalone="no"?>
<!DOCTYPE svg PUBLIC "-//W3C//DTD SVG 1.1//EN"
 "http://www.w3.org/Graphics/SVG/1.1/DTD/svg11.dtd">
<!-- Generated by graphviz version 12.2.1 (20241206.2353)
 -->
<!-- Title: LSM1x0A_LoRaWAN::getDutyCycle Pages: 1 -->
<svg width="1850pt" height="1018pt"
 viewBox="0.00 0.00 1850.25 1018.48" xmlns="http://www.w3.org/2000/svg" xmlns:xlink="http://www.w3.org/1999/xlink">
<g id="graph0" class="graph" transform="scale(1 1) rotate(0) translate(4 1014.48)">
<title>LSM1x0A_LoRaWAN::getDutyCycle</title>
<!-- Node1 -->
<g id="Node000001" class="node">
<title>Node1</title>
<g id="a_Node000001"><a xlink:title="Retrieves the Duty Cycle limitation state.">
<polygon fill="#999999" stroke="#666666" points="151,-104 0,-104 0,-72 151,-72 151,-104"/>
<text text-anchor="start" x="8" y="-90.5" font-family="Helvetica,sans-Serif" font-size="10.00">LSM1x0A_LoRaWAN::getDuty</text>
<text text-anchor="middle" x="75.5" y="-78.5" font-family="Helvetica,sans-Serif" font-size="10.00">Cycle</text>
</a>
</g>
</g>
<!-- Node2 -->
<g id="Node000002" class="node">
<title>Node2</title>
<g id="a_Node000002"><a xlink:href="../../d8/d92/classLSM1x0A__Controller.html#ab00328d1be83aa51bce8c2a4f907c5f4" target="_top" xlink:title="Sends an AT command and captures its response in a text block. Ideal for getters (e....">
<polygon fill="white" stroke="#666666" points="339.5,-104 187,-104 187,-72 339.5,-72 339.5,-104"/>
<text text-anchor="start" x="195" y="-90.5" font-family="Helvetica,sans-Serif" font-size="10.00">LSM1x0A_Controller</text>
<text text-anchor="middle" x="263.25" y="-78.5" font-family="Helvetica,sans-Serif" font-size="10.00">::sendCommandWithResponse</text>
</a>
</g>
</g>
<!-- Node1&#45;&gt;Node2 -->
<g id="edge1_Node000001_Node000002" class="edge">
<title>Node1&#45;&gt;Node2</title>
<g id="a_edge1_Node000001_Node000002"><a xlink:title=" ">
<path fill="none" stroke="#63b8ff" d="M151.25,-88C159.2,-88 167.33,-88 175.4,-88"/>
<polygon fill="#63b8ff" stroke="#63b8ff" points="175.23,-91.5 185.23,-88 175.23,-84.5 175.23,-91.5"/>
</a>
</g>
</g>
<!-- Node3 -->
<g id="Node000003" class="node">
<title>Node3</title>
<g id="a_Node000003"><a xlink:href="../../d8/d92/classLSM1x0A__Controller.html#abb0eb380daa3dfb7acffb483c5db8e2b" target="_top" xlink:title="Executes the recovery protocol. First Soft&#45;Reset (ATZ), then Hard&#45;Reset if there is a pin.">
<polygon fill="white" stroke="#666666" points="481.5,-214 375.5,-214 375.5,-182 481.5,-182 481.5,-214"/>
<text text-anchor="start" x="383.5" y="-200.5" font-family="Helvetica,sans-Serif" font-size="10.00">LSM1x0A_Controller</text>
<text text-anchor="middle" x="428.5" y="-188.5" font-family="Helvetica,sans-Serif" font-size="10.00">::recoverModule</text>
</a>
</g>
</g>
<!-- Node2&#45;&gt;Node3 -->
<g id="edge2_Node000002_Node000003" class="edge">
<title>Node2&#45;&gt;Node3</title>
<g id="a_edge2_Node000002_Node000003"><a xlink:title=" ">
<path fill="none" stroke="#63b8ff" d="M288.69,-104.47C316.66,-123.32 362.64,-154.29 393.95,-175.39"/>
<polygon fill="#63b8ff" stroke="#63b8ff" points="391.66,-178.07 401.9,-180.75 395.57,-172.26 391.66,-178.07"/>
</a>
</g>
</g>
<!-- Node12 -->
<g id="Node000012" class="node">
<title>Node12</title>
<g id="a_Node000012"><a xlink:href="../../d6/d3c/classLSM1x0A__AtParser.html#a0ba6f927c54fceece22c17773d3f2600" target="_top" xlink:title="Sends a command and extracts a value from the response.">
<polygon fill="white" stroke="#666666" points="1697.25,-287 1523,-287 1523,-255 1697.25,-255 1697.25,-287"/>
<text text-anchor="start" x="1531" y="-273.5" font-family="Helvetica,sans-Serif" font-size="10.00">LSM1x0A_AtParser::sendCommand</text>
<text text-anchor="middle" x="1610.12" y="-261.5" font-family="Helvetica,sans-Serif" font-size="10.00">WithResponse</text>
</a>
</g>
</g>
<!-- Node2&#45;&gt;Node12 -->
<g id="edge57_Node000002_Node000012" class="edge">
<title>Node2&#45;&gt;Node12</title>
<g id="a_edge57_Node000002_Node000012"><a xlink:title=" ">
<path fill="none" stroke="#63b8ff" d="M300.69,-71.65C360.86,-46.21 485.29,0 595.75,0 595.75,0 595.75,0 1201.5,0 1378.44,0 1537.2,-179.26 1590.31,-246.19"/>
<polygon fill="#63b8ff" stroke="#63b8ff" points="1587.24,-247.95 1596.16,-253.67 1592.75,-243.64 1587.24,-247.95"/>
</a>
</g>
</g>
<!-- Node4 -->
<g id="Node000004" class="node">
<title>Node4</title>
<g id="a_Node000004"><a xlink:href="../../d8/d92/classLSM1x0A__Controller.html#a3f6f25b843fe4fb7042c544deae2ab16" target="_top" xlink:title="Manually clears bits from the internal EventGroup.">
<polygon fill="white" stroke="#666666" points="1044.38,-98 938.38,-98 938.38,-66 1044.38,-66 1044.38,-98"/>
<text text-anchor="start" x="946.38" y="-84.5" font-family="Helvetica,sans-Serif" font-size="10.00">LSM1x0A_Controller</text>
<text text-anchor="middle" x="991.38" y="-72.5" font-family="Helvetica,sans-Serif" font-size="10.00">::clearEvents</text>
</a>
</g>
</g>
<!-- Node3&#45;&gt;Node4 -->
<g id="edge3_Node000003_Node000004" class="edge">
<title>Node3&#45;&gt;Node4</title>
<g id="a_edge3_Node000003_Node000004"><a xlink:title=" ">
<path fill="none" stroke="#63b8ff" d="M454.18,-181.53C471.23,-171 494.84,-158.03 517.5,-151 663.15,-105.82 708.23,-138.94 858.5,-113 881,-109.12 905.4,-103.72 927.02,-98.52"/>
<polygon fill="#63b8ff" stroke="#63b8ff" points="927.7,-101.96 936.58,-96.18 926.03,-95.16 927.7,-101.96"/>
</a>
</g>
</g>
<!-- Node5 -->
<g id="Node000005" class="node">
<title>Node5</title>
<g id="a_Node000005"><a xlink:href="../../d8/d92/classLSM1x0A__Controller.html#a345d4bd79fa16b18dc33a4ca788fe5f7" target="_top" xlink:title="Performs a hardware reset using the reset pin.">
<polygon fill="white" stroke="#666666" points="649.75,-104 543.75,-104 543.75,-72 649.75,-72 649.75,-104"/>
<text text-anchor="start" x="551.75" y="-90.5" font-family="Helvetica,sans-Serif" font-size="10.00">LSM1x0A_Controller</text>
<text text-anchor="middle" x="596.75" y="-78.5" font-family="Helvetica,sans-Serif" font-size="10.00">::hardwareReset</text>
</a>
</g>
</g>
<!-- Node3&#45;&gt;Node5 -->
<g id="edge4_Node000003_Node000005" class="edge">
<title>Node3&#45;&gt;Node5</title>
<g id="a_edge4_Node000003_Node000005"><a xlink:title=" ">
<path fill="none" stroke="#63b8ff" d="M443.96,-181.63C460.32,-163.93 488.49,-135.86 517.5,-118 522.77,-114.76 528.44,-111.77 534.24,-109.03"/>
<polygon fill="#63b8ff" stroke="#63b8ff" points="535.64,-112.24 543.38,-104.99 532.81,-105.83 535.64,-112.24"/>
</a>
</g>
</g>
<!-- Node7 -->
<g id="Node000007" class="node">
<title>Node7</title>
<g id="a_Node000007"><a xlink:href="../../d5/d72/classLSM1x0A__LoRaWAN.html#a1892801e37c8cd67d37c76108d6f7d49" target="_top" xlink:title="Validates if the device is currently Joined to the network. (Either confirmed by OTAA or statically a...">
<polygon fill="white" stroke="#666666" points="1276.75,-136 1124.25,-136 1124.25,-116 1276.75,-116 1276.75,-136"/>
<text text-anchor="middle" x="1200.5" y="-122.5" font-family="Helvetica,sans-Serif" font-size="10.00">LSM1x0A_LoRaWAN::isJoined</text>
</a>
</g>
</g>
<!-- Node3&#45;&gt;Node7 -->
<g id="edge6_Node000003_Node000007" class="edge">
<title>Node3&#45;&gt;Node7</title>
<g id="a_edge6_Node000003_Node000007"><a xlink:title=" ">
<path fill="none" stroke="#63b8ff" d="M434.43,-181.77C444.49,-151.92 470.48,-88.97 517.5,-63 628.54,-1.69 966.26,-22.24 1088.25,-57 1123.32,-66.99 1158.12,-91.56 1179.22,-108.51"/>
<polygon fill="#63b8ff" stroke="#63b8ff" points="1176.8,-111.05 1186.74,-114.72 1181.26,-105.65 1176.8,-111.05"/>
</a>
</g>
</g>
<!-- Node8 -->
<g id="Node000008" class="node">
<title>Node8</title>
<g id="a_Node000008"><a xlink:href="../../d5/d72/classLSM1x0A__LoRaWAN.html#a83e11c0e74ff9e0757db616ab1163424" target="_top" xlink:title="Attempts to recover a lost connection (re&#45;executes OTAA Join if dropped).">
<polygon fill="white" stroke="#666666" points="671.12,-192 522.38,-192 522.38,-160 671.12,-160 671.12,-192"/>
<text text-anchor="start" x="530.38" y="-178.5" font-family="Helvetica,sans-Serif" font-size="10.00">LSM1x0A_LoRaWAN::recover</text>
<text text-anchor="middle" x="596.75" y="-166.5" font-family="Helvetica,sans-Serif" font-size="10.00">Connection</text>
</a>
</g>
</g>
<!-- Node3&#45;&gt;Node8 -->
<g id="edge7_Node000003_Node000008" class="edge">
<title>Node3&#45;&gt;Node8</title>
<g id="a_edge7_Node000003_Node000008"><a xlink:title=" ">
<path fill="none" stroke="#63b8ff" d="M481.65,-191.1C490.99,-189.86 500.94,-188.55 510.92,-187.23"/>
<polygon fill="#63b8ff" stroke="#63b8ff" points="511.22,-190.72 520.67,-185.94 510.3,-183.78 511.22,-190.72"/>
</a>
</g>
</g>
<!-- Node16 -->
<g id="Node000016" class="node">
<title>Node16</title>
<g id="a_Node000016"><a xlink:href="../../d5/d72/classLSM1x0A__LoRaWAN.html#ae3be4ce59dfa200369733317df356e97" target="_top" xlink:title="Pushes the RAM&#45;cached variables back down into the hardware module. Restores the operational state af...">
<polygon fill="white" stroke="#666666" points="858.5,-539 712,-539 712,-507 858.5,-507 858.5,-539"/>
<text text-anchor="start" x="720" y="-525.5" font-family="Helvetica,sans-Serif" font-size="10.00">LSM1x0A_LoRaWAN::restore</text>
<text text-anchor="middle" x="785.25" y="-513.5" font-family="Helvetica,sans-Serif" font-size="10.00">Config</text>
</a>
</g>
</g>
<!-- Node3&#45;&gt;Node16 -->
<g id="edge20_Node000003_Node000016" class="edge">
<title>Node3&#45;&gt;Node16</title>
<g id="a_edge20_Node000003_Node000016"><a xlink:title=" ">
<path fill="none" stroke="#63b8ff" d="M447.09,-214.12C505.01,-267.18 689.94,-436.6 758.42,-499.34"/>
<polygon fill="#63b8ff" stroke="#63b8ff" points="755.7,-501.59 765.44,-505.76 760.43,-496.43 755.7,-501.59"/>
</a>
</g>
</g>
<!-- Node33 -->
<g id="Node000033" class="node">
<title>Node33</title>
<g id="a_Node000033"><a xlink:href="../../d5/d72/classLSM1x0A__LoRaWAN.html#ace4b04396f1de1f4a54f513f5f378db7" target="_top" xlink:title="Manually overrides the internal joined state tracker.">
<polygon fill="white" stroke="#666666" points="676,-939 517.5,-939 517.5,-919 676,-919 676,-939"/>
<text text-anchor="middle" x="596.75" y="-925.5" font-family="Helvetica,sans-Serif" font-size="10.00">LSM1x0A_LoRaWAN::setJoined</text>
</a>
</g>
</g>
<!-- Node3&#45;&gt;Node33 -->
<g id="edge54_Node000003_Node000033" class="edge">
<title>Node3&#45;&gt;Node33</title>
<g id="a_edge54_Node000003_Node000033"><a xlink:title=" ">
<path fill="none" stroke="#63b8ff" d="M429.22,-214.4C427.9,-310.08 425.83,-795.83 517.5,-905 519.92,-907.88 522.68,-910.43 525.68,-912.67"/>
<polygon fill="#63b8ff" stroke="#63b8ff" points="523.66,-915.54 534.02,-917.75 527.3,-909.56 523.66,-915.54"/>
</a>
</g>
</g>
<!-- Node34 -->
<g id="Node000034" class="node">
<title>Node34</title>
<g id="a_Node000034"><a xlink:href="../../d8/d92/classLSM1x0A__Controller.html#a11ad21cb5ca33ec51346764a23bd485e" target="_top" xlink:title="Performs a software reset (ATZ Command).">
<polygon fill="white" stroke="#666666" points="1253.5,-795 1147.5,-795 1147.5,-763 1253.5,-763 1253.5,-795"/>
<text text-anchor="start" x="1155.5" y="-781.5" font-family="Helvetica,sans-Serif" font-size="10.00">LSM1x0A_Controller</text>
<text text-anchor="middle" x="1200.5" y="-769.5" font-family="Helvetica,sans-Serif" font-size="10.00">::softwareReset</text>
</a>
</g>
</g>
<!-- Node3&#45;&gt;Node34 -->
<g id="edge55_Node000003_Node000034" class="edge">
<title>Node3&#45;&gt;Node34</title>
<g id="a_edge55_Node000003_Node000034"><a xlink:title=" ">
<path fill="none" stroke="#63b8ff" d="M430.14,-214.18C434.41,-318.83 460.5,-897.3 517.5,-948 582.69,-1005.99 850.64,-1058.87 1088.25,-932 1139.71,-904.52 1173.32,-841.52 1189.07,-805.51"/>
<polygon fill="#63b8ff" stroke="#63b8ff" points="1192.14,-807.25 1192.8,-796.67 1185.69,-804.53 1192.14,-807.25"/>
</a>
</g>
</g>
<!-- Node6 -->
<g id="Node000006" class="node">
<title>Node6</title>
<g id="a_Node000006"><a xlink:href="../../d6/d3c/classLSM1x0A__AtParser.html#ad2839120da13e56132b95019419be1e5" target="_top" xlink:title="Waits for an event (like BOOTALERT) without sending any command. Useful for hardware reset where the ...">
<polygon fill="white" stroke="#666666" points="855.5,-104 715,-104 715,-72 855.5,-72 855.5,-104"/>
<text text-anchor="start" x="723" y="-90.5" font-family="Helvetica,sans-Serif" font-size="10.00">LSM1x0A_AtParser::waitFor</text>
<text text-anchor="middle" x="785.25" y="-78.5" font-family="Helvetica,sans-Serif" font-size="10.00">Event</text>
</a>
</g>
</g>
<!-- Node5&#45;&gt;Node6 -->
<g id="edge5_Node000005_Node000006" class="edge">
<title>Node5&#45;&gt;Node6</title>
<g id="a_edge5_Node000005_Node000006"><a xlink:title=" ">
<path fill="none" stroke="#63b8ff" d="M650.2,-88C666.71,-88 685.36,-88 703.37,-88"/>
<polygon fill="#63b8ff" stroke="#63b8ff" points="703.28,-91.5 713.28,-88 703.28,-84.5 703.28,-91.5"/>
</a>
</g>
</g>
<!-- Node9 -->
<g id="Node000009" class="node">
<title>Node9</title>
<g id="a_Node000009"><a xlink:href="../../d5/d72/classLSM1x0A__LoRaWAN.html#a59f781f3cfd30c11cd3973bcb10a7baa" target="_top" xlink:title="Initiates a LoRaWAN Network Join procedure. This is a blocking function until the module fires an eve...">
<polygon fill="white" stroke="#666666" points="851,-186 719.5,-186 719.5,-166 851,-166 851,-186"/>
<text text-anchor="middle" x="785.25" y="-172.5" font-family="Helvetica,sans-Serif" font-size="10.00">LSM1x0A_LoRaWAN::join</text>
</a>
</g>
</g>
<!-- Node8&#45;&gt;Node9 -->
<g id="edge8_Node000008_Node000009" class="edge">
<title>Node8&#45;&gt;Node9</title>
<g id="a_edge8_Node000008_Node000009"><a xlink:title=" ">
<path fill="none" stroke="#63b8ff" d="M671.46,-176C683.42,-176 695.83,-176 707.85,-176"/>
<polygon fill="#63b8ff" stroke="#63b8ff" points="707.72,-179.5 717.72,-176 707.72,-172.5 707.72,-179.5"/>
</a>
</g>
</g>
<!-- Node9&#45;&gt;Node3 -->
<g id="edge10_Node000009_Node000003" class="edge">
<title>Node9&#45;&gt;Node3</title>
<g id="a_edge10_Node000009_Node000003"><a xlink:title=" ">
<path fill="none" stroke="#63b8ff" d="M748.52,-186.4C727.59,-191.95 700.53,-198.2 676,-201 606.01,-208.98 587.93,-202.2 517.5,-201 509.6,-200.87 501.31,-200.66 493.11,-200.43"/>
<polygon fill="#63b8ff" stroke="#63b8ff" points="493.23,-196.93 483.12,-200.12 493.01,-203.92 493.23,-196.93"/>
</a>
</g>
</g>
<!-- Node9&#45;&gt;Node4 -->
<g id="edge9_Node000009_Node000004" class="edge">
<title>Node9&#45;&gt;Node4</title>
<g id="a_edge9_Node000009_Node000004"><a xlink:title=" ">
<path fill="none" stroke="#63b8ff" d="M819.8,-165.52C832.55,-160.68 846.81,-154.16 858.5,-146 877.84,-132.5 874.27,-119.13 894.5,-107 904.45,-101.03 915.81,-96.47 927.15,-93"/>
<polygon fill="#63b8ff" stroke="#63b8ff" points="927.82,-96.45 936.51,-90.39 925.94,-89.7 927.82,-96.45"/>
</a>
</g>
</g>
<!-- Node10 -->
<g id="Node000010" class="node">
<title>Node10</title>
<g id="a_Node000010"><a xlink:href="../../d8/d92/classLSM1x0A__Controller.html#afd7d92e60ed6fdae696a955cdbe0ed8c" target="_top" xlink:title="Sends any AT command to the module, returning error if it fails. Internally uses the LsmAtParser logi...">
<polygon fill="white" stroke="#666666" points="1253.5,-558 1147.5,-558 1147.5,-526 1253.5,-526 1253.5,-558"/>
<text text-anchor="start" x="1155.5" y="-544.5" font-family="Helvetica,sans-Serif" font-size="10.00">LSM1x0A_Controller</text>
<text text-anchor="middle" x="1200.5" y="-532.5" font-family="Helvetica,sans-Serif" font-size="10.00">::sendCommand</text>
</a>
</g>
</g>
<!-- Node9&#45;&gt;Node10 -->
<g id="edge11_Node000009_Node000010" class="edge">
<title>Node9&#45;&gt;Node10</title>
<g id="a_edge11_Node000009_Node000010"><a xlink:title=" ">
<path fill="none" stroke="#63b8ff" d="M851.28,-171.81C928.89,-168.2 1052.66,-167.28 1088.25,-195 1189.98,-274.23 1200.24,-447.25 1200.2,-514.5"/>
<polygon fill="#63b8ff" stroke="#63b8ff" points="1196.7,-514.23 1200.1,-524.26 1203.7,-514.3 1196.7,-514.23"/>
</a>
</g>
</g>
<!-- Node14 -->
<g id="Node000014" class="node">
<title>Node14</title>
<g id="a_Node000014"><a xlink:href="../../d5/d72/classLSM1x0A__LoRaWAN.html#a3fdd1ac318a5ad2559323e5d57e36a5e" target="_top" xlink:title="Enables or disables specific sub&#45;bands for regions supporting Channel Masks (e.g.,...">
<polygon fill="white" stroke="#666666" points="1086.38,-224 896.38,-224 896.38,-204 1086.38,-204 1086.38,-224"/>
<text text-anchor="middle" x="991.38" y="-210.5" font-family="Helvetica,sans-Serif" font-size="10.00">LSM1x0A_LoRaWAN::setChannelMask</text>
</a>
</g>
</g>
<!-- Node9&#45;&gt;Node14 -->
<g id="edge16_Node000009_Node000014" class="edge">
<title>Node9&#45;&gt;Node14</title>
<g id="a_edge16_Node000009_Node000014"><a xlink:title=" ">
<path fill="none" stroke="#63b8ff" d="M842.57,-186.48C867.44,-191.12 896.89,-196.6 922.93,-201.44"/>
<polygon fill="#63b8ff" stroke="#63b8ff" points="922.28,-204.88 932.75,-203.27 923.56,-198 922.28,-204.88"/>
</a>
</g>
</g>
<!-- Node15 -->
<g id="Node000015" class="node">
<title>Node15</title>
<g id="a_Node000015"><a xlink:href="../../d8/d92/classLSM1x0A__Controller.html#a62476e30e50c7fe120aeb8df4b828675" target="_top" xlink:title="Synchronously/blockingly waits for an asynchronous event to occur. Useful for wrapping commands like ...">
<polygon fill="white" stroke="#666666" points="1044.38,-148 938.38,-148 938.38,-116 1044.38,-116 1044.38,-148"/>
<text text-anchor="start" x="946.38" y="-134.5" font-family="Helvetica,sans-Serif" font-size="10.00">LSM1x0A_Controller</text>
<text text-anchor="middle" x="991.38" y="-122.5" font-family="Helvetica,sans-Serif" font-size="10.00">::waitForEvent</text>
</a>
</g>
</g>
<!-- Node9&#45;&gt;Node15 -->
<g id="edge19_Node000009_Node000015" class="edge">
<title>Node9&#45;&gt;Node15</title>
<g id="a_edge19_Node000009_Node000015"><a xlink:title=" ">
<path fill="none" stroke="#63b8ff" d="M834.88,-165.52C862.49,-159.57 897.36,-152.05 927.07,-145.65"/>
<polygon fill="#63b8ff" stroke="#63b8ff" points="927.67,-149.1 936.7,-143.57 926.19,-142.25 927.67,-149.1"/>
</a>
</g>
</g>
<!-- Node10&#45;&gt;Node3 -->
<g id="edge12_Node000010_Node000003" class="edge">
<title>Node10&#45;&gt;Node3</title>
<g id="a_edge12_Node000010_Node000003"><a xlink:title=" ">
<path fill="none" stroke="#63b8ff" d="M1193.07,-558.31C1179.31,-593.61 1146.41,-679.91 1124.25,-754 1104.98,-818.44 1141.17,-859.48 1088.25,-901 1020.5,-954.16 970.94,-940.65 894.5,-901 607.18,-751.97 469.22,-335.66 437.02,-225.19"/>
<polygon fill="#63b8ff" stroke="#63b8ff" points="440.45,-224.47 434.33,-215.82 433.72,-226.4 440.45,-224.47"/>
</a>
</g>
</g>
<!-- Node11 -->
<g id="Node000011" class="node">
<title>Node11</title>
<g id="a_Node000011"><a xlink:href="../../d6/d3c/classLSM1x0A__AtParser.html#a29b53c521974387ba6c03afadfaffa4a" target="_top" xlink:title="Sends a simple command and waits for OK/ERROR. Example: sendCommand(&quot;AT+JOIN&quot;);.">
<polygon fill="white" stroke="#666666" points="1487,-552 1312.75,-552 1312.75,-532 1487,-532 1487,-552"/>
<text text-anchor="middle" x="1399.88" y="-538.5" font-family="Helvetica,sans-Serif" font-size="10.00">LSM1x0A_AtParser::sendCommand</text>
</a>
</g>
</g>
<!-- Node10&#45;&gt;Node11 -->
<g id="edge13_Node000010_Node000011" class="edge">
<title>Node10&#45;&gt;Node11</title>
<g id="a_edge13_Node000010_Node000011"><a xlink:title=" ">
<path fill="none" stroke="#63b8ff" d="M1253.87,-542C1268.44,-542 1284.75,-542 1301.03,-542"/>
<polygon fill="#63b8ff" stroke="#63b8ff" points="1300.76,-545.5 1310.76,-542 1300.76,-538.5 1300.76,-545.5"/>
</a>
</g>
</g>
<!-- Node11&#45;&gt;Node12 -->
<g id="edge14_Node000011_Node000012" class="edge">
<title>Node11&#45;&gt;Node12</title>
<g id="a_edge14_Node000011_Node000012"><a xlink:title=" ">
<path fill="none" stroke="#63b8ff" d="M1408.78,-531.71C1438.69,-492.78 1545.43,-353.88 1589.69,-296.3"/>
<polygon fill="#63b8ff" stroke="#63b8ff" points="1592.23,-298.73 1595.55,-288.67 1586.68,-294.46 1592.23,-298.73"/>
</a>
</g>
</g>
<!-- Node13 -->
<g id="Node000013" class="node">
<title>Node13</title>
<g id="a_Node000013"><a xlink:href="../../d5/d8b/classUartDriver.html#a5d0f22e8867eebe99273078bb19bd23d" target="_top" xlink:title="Sends data through UART.">
<polygon fill="white" stroke="#666666" points="1842.25,-281 1733.25,-281 1733.25,-261 1842.25,-261 1842.25,-281"/>
<text text-anchor="middle" x="1787.75" y="-267.5" font-family="Helvetica,sans-Serif" font-size="10.00">UartDriver::sendData</text>
</a>
</g>
</g>
<!-- Node12&#45;&gt;Node13 -->
<g id="edge15_Node000012_Node000013" class="edge">
<title>Node12&#45;&gt;Node13</title>
<g id="a_edge15_Node000012_Node000013"><a xlink:title=" ">
<path fill="none" stroke="#63b8ff" d="M1697.65,-271C1705.8,-271 1713.95,-271 1721.85,-271"/>
<polygon fill="#63b8ff" stroke="#63b8ff" points="1721.68,-274.5 1731.68,-271 1721.68,-267.5 1721.68,-274.5"/>
</a>
</g>
</g>
<!-- Node14&#45;&gt;Node7 -->
<g id="edge17_Node000014_Node000007" class="edge">
<title>Node14&#45;&gt;Node7</title>
<g id="a_edge17_Node000014_Node000007"><a xlink:title=" ">
<path fill="none" stroke="#63b8ff" d="M1016.95,-203.56C1053.54,-188.01 1122.53,-158.7 1164.42,-140.9"/>
<polygon fill="#63b8ff" stroke="#63b8ff" points="1165.73,-144.15 1173.57,-137.02 1162.99,-137.71 1165.73,-144.15"/>
</a>
</g>
</g>
<!-- Node14&#45;&gt;Node10 -->
<g id="edge18_Node000014_Node000010" class="edge">
<title>Node14&#45;&gt;Node10</title>
<g id="a_edge18_Node000014_Node000010"><a xlink:title=" ">
<path fill="none" stroke="#63b8ff" d="M1075.13,-224.28C1079.83,-226.69 1084.26,-229.57 1088.25,-233 1174.58,-307.27 1193.92,-453.75 1198.25,-514.55"/>
<polygon fill="#63b8ff" stroke="#63b8ff" points="1194.75,-514.57 1198.86,-524.33 1201.73,-514.13 1194.75,-514.57"/>
</a>
</g>
</g>
<!-- Node16&#45;&gt;Node14 -->
<g id="edge25_Node000016_Node000014" class="edge">
<title>Node16&#45;&gt;Node14</title>
<g id="a_edge25_Node000016_Node000014"><a xlink:title=" ">
<path fill="none" stroke="#63b8ff" d="M787.05,-506.78C790.43,-457.25 807.7,-306.79 894.5,-233 895.63,-232.04 896.79,-231.13 897.98,-230.25"/>
<polygon fill="#63b8ff" stroke="#63b8ff" points="899.67,-233.33 906.37,-225.12 896.02,-227.35 899.67,-233.33"/>
</a>
</g>
</g>
<!-- Node17 -->
<g id="Node000017" class="node">
<title>Node17</title>
<g id="a_Node000017"><a xlink:href="../../d5/d72/classLSM1x0A__LoRaWAN.html#af0baa3db4c7fab580d6b19a9e92472f6" target="_top" xlink:title="Enables or disables Adaptive Data Rate (ADR).">
<polygon fill="white" stroke="#666666" points="1067.25,-350 915.5,-350 915.5,-330 1067.25,-330 1067.25,-350"/>
<text text-anchor="middle" x="991.38" y="-336.5" font-family="Helvetica,sans-Serif" font-size="10.00">LSM1x0A_LoRaWAN::setADR</text>
</a>
</g>
</g>
<!-- Node16&#45;&gt;Node17 -->
<g id="edge21_Node000016_Node000017" class="edge">
<title>Node16&#45;&gt;Node17</title>
<g id="a_edge21_Node000016_Node000017"><a xlink:title=" ">
<path fill="none" stroke="#63b8ff" d="M792.06,-506.6C804.85,-473 838.85,-396.38 894.5,-359 897.77,-356.8 901.23,-354.85 904.83,-353.11"/>
<polygon fill="#63b8ff" stroke="#63b8ff" points="905.98,-356.42 913.87,-349.35 903.29,-349.96 905.98,-356.42"/>
</a>
</g>
</g>
<!-- Node18 -->
<g id="Node000018" class="node">
<title>Node18</title>
<g id="a_Node000018"><a xlink:href="../../d5/d72/classLSM1x0A__LoRaWAN.html#a5365ed1596eb84ebf1e3b33b4a10c788" target="_top" xlink:title="Sets the LoRaWAN operational frequency band.">
<polygon fill="white" stroke="#666666" points="1067.62,-312 915.12,-312 915.12,-292 1067.62,-292 1067.62,-312"/>
<text text-anchor="middle" x="991.38" y="-298.5" font-family="Helvetica,sans-Serif" font-size="10.00">LSM1x0A_LoRaWAN::setBand</text>
</a>
</g>
</g>
<!-- Node16&#45;&gt;Node18 -->
<g id="edge23_Node000016_Node000018" class="edge">
<title>Node16&#45;&gt;Node18</title>
<g id="a_edge23_Node000016_Node000018"><a xlink:title=" ">
<path fill="none" stroke="#63b8ff" d="M789.97,-506.5C799.7,-467.43 829.74,-368.94 894.5,-321 897.66,-318.66 901.04,-316.58 904.57,-314.75"/>
<polygon fill="#63b8ff" stroke="#63b8ff" points="905.75,-318.05 913.47,-310.8 902.91,-311.66 905.75,-318.05"/>
</a>
</g>
</g>
<!-- Node19 -->
<g id="Node000019" class="node">
<title>Node19</title>
<g id="a_Node000019"><a xlink:href="../../d5/d72/classLSM1x0A__LoRaWAN.html#a9d9285c43414337a0ccb3a6cd7ca06e6" target="_top" xlink:title="Configures the number of retries for Confirmed uplinks.">
<polygon fill="white" stroke="#666666" points="1073.62,-274 909.12,-274 909.12,-242 1073.62,-242 1073.62,-274"/>
<text text-anchor="start" x="917.12" y="-260.5" font-family="Helvetica,sans-Serif" font-size="10.00">LSM1x0A_LoRaWAN::setConfirm</text>
<text text-anchor="middle" x="991.38" y="-248.5" font-family="Helvetica,sans-Serif" font-size="10.00">Retry</text>
</a>
</g>
</g>
<!-- Node16&#45;&gt;Node19 -->
<g id="edge26_Node000016_Node000019" class="edge">
<title>Node16&#45;&gt;Node19</title>
<g id="a_edge26_Node000016_Node000019"><a xlink:title=" ">
<path fill="none" stroke="#63b8ff" d="M788.68,-506.7C796.05,-463.28 822.2,-344.03 894.5,-283 895.99,-281.74 897.54,-280.55 899.13,-279.41"/>
<polygon fill="#63b8ff" stroke="#63b8ff" points="900.75,-282.52 907.45,-274.32 897.1,-276.55 900.75,-282.52"/>
</a>
</g>
</g>
<!-- Node20 -->
<g id="Node000020" class="node">
<title>Node20</title>
<g id="a_Node000020"><a xlink:href="../../d5/d72/classLSM1x0A__LoRaWAN.html#a56345ceeafa0b9059d6de4e69eddc82e" target="_top" xlink:title="Sets the Data Rate (DR) of the module.">
<polygon fill="white" stroke="#666666" points="1077.38,-892 905.38,-892 905.38,-872 1077.38,-872 1077.38,-892"/>
<text text-anchor="middle" x="991.38" y="-878.5" font-family="Helvetica,sans-Serif" font-size="10.00">LSM1x0A_LoRaWAN::setDataRate</text>
</a>
</g>
</g>
<!-- Node16&#45;&gt;Node20 -->
<g id="edge28_Node000016_Node000020" class="edge">
<title>Node16&#45;&gt;Node20</title>
<g id="a_edge28_Node000016_Node000020"><a xlink:title=" ">
<path fill="none" stroke="#63b8ff" d="M786.05,-539.16C786.29,-593.93 794.94,-774.06 894.5,-863 895.45,-863.85 896.42,-864.66 897.42,-865.44"/>
<polygon fill="#63b8ff" stroke="#63b8ff" points="895.45,-868.34 905.75,-870.83 899.25,-862.46 895.45,-868.34"/>
</a>
</g>
</g>
<!-- Node21 -->
<g id="Node000021" class="node">
<title>Node21</title>
<g id="a_Node000021"><a xlink:href="../../d5/d72/classLSM1x0A__LoRaWAN.html#a8494083816ab885cb07fc3b08de029f4" target="_top" xlink:title="Sets the LoRaWAN Device Address (DevAddr) for ABP mode.">
<polygon fill="white" stroke="#666666" points="1075.5,-854 907.25,-854 907.25,-834 1075.5,-834 1075.5,-854"/>
<text text-anchor="middle" x="991.38" y="-840.5" font-family="Helvetica,sans-Serif" font-size="10.00">LSM1x0A_LoRaWAN::setDevAddr</text>
</a>
</g>
</g>
<!-- Node16&#45;&gt;Node21 -->
<g id="edge30_Node000016_Node000021" class="edge">
<title>Node16&#45;&gt;Node21</title>
<g id="a_edge30_Node000016_Node000021"><a xlink:title=" ">
<path fill="none" stroke="#63b8ff" d="M786.78,-539.15C789.37,-589.92 804.62,-747.57 894.5,-825 895.62,-825.97 896.78,-826.89 897.96,-827.77"/>
<polygon fill="#63b8ff" stroke="#63b8ff" points="895.98,-830.65 906.32,-832.93 899.65,-824.7 895.98,-830.65"/>
</a>
</g>
</g>
<!-- Node22 -->
<g id="Node000022" class="node">
<title>Node22</title>
<g id="a_Node000022"><a xlink:href="../../d5/d72/classLSM1x0A__LoRaWAN.html#ad320634e52d7ea907043cc50dd37c5b0" target="_top" xlink:title="Sets the LoRaWAN Device EUI (DevEUI).">
<polygon fill="white" stroke="#666666" points="1074,-816 908.75,-816 908.75,-796 1074,-796 1074,-816"/>
<text text-anchor="middle" x="991.38" y="-802.5" font-family="Helvetica,sans-Serif" font-size="10.00">LSM1x0A_LoRaWAN::setDevEUI</text>
</a>
</g>
</g>
<!-- Node16&#45;&gt;Node22 -->
<g id="edge32_Node000016_Node000022" class="edge">
<title>Node16&#45;&gt;Node22</title>
<g id="a_edge32_Node000016_Node000022"><a xlink:title=" ">
<path fill="none" stroke="#63b8ff" d="M787.74,-539.44C792.89,-586.24 814.37,-721.05 894.5,-787 895.99,-788.22 897.53,-789.38 899.12,-790.46"/>
<polygon fill="#63b8ff" stroke="#63b8ff" points="896.98,-793.27 907.4,-795.21 900.47,-787.2 896.98,-793.27"/>
</a>
</g>
</g>
<!-- Node23 -->
<g id="Node000023" class="node">
<title>Node23</title>
<g id="a_Node000023"><a xlink:href="../../d5/d72/classLSM1x0A__LoRaWAN.html#a031023b0d2dd5db3c51c2db6ae7801cc" target="_top" xlink:title="Enables or disables the Duty Cycle limitation (EU regions mostly).">
<polygon fill="white" stroke="#666666" points="1066.88,-778 915.88,-778 915.88,-746 1066.88,-746 1066.88,-778"/>
<text text-anchor="start" x="923.88" y="-764.5" font-family="Helvetica,sans-Serif" font-size="10.00">LSM1x0A_LoRaWAN::setDuty</text>
<text text-anchor="middle" x="991.38" y="-752.5" font-family="Helvetica,sans-Serif" font-size="10.00">Cycle</text>
</a>
</g>
</g>
<!-- Node16&#45;&gt;Node23 -->
<g id="edge34_Node000016_Node000023" class="edge">
<title>Node16&#45;&gt;Node23</title>
<g id="a_edge34_Node000016_Node000023"><a xlink:title=" ">
<path fill="none" stroke="#63b8ff" d="M789.65,-539.3C798.9,-579.44 828.39,-683.67 894.5,-737 897.94,-739.78 901.66,-742.25 905.56,-744.44"/>
<polygon fill="#63b8ff" stroke="#63b8ff" points="903.71,-747.44 914.23,-748.7 906.8,-741.15 903.71,-747.44"/>
</a>
</g>
</g>
<!-- Node24 -->
<g id="Node000024" class="node">
<title>Node24</title>
<g id="a_Node000024"><a xlink:href="../../d5/d72/classLSM1x0A__LoRaWAN.html#a6b179d5825c49af0f391dfc539912f64" target="_top" xlink:title="Sets the delay for the Join1 receive window.">
<polygon fill="white" stroke="#666666" points="1068,-728 914.75,-728 914.75,-696 1068,-696 1068,-728"/>
<text text-anchor="start" x="922.75" y="-714.5" font-family="Helvetica,sans-Serif" font-size="10.00">LSM1x0A_LoRaWAN::setJoin1</text>
<text text-anchor="middle" x="991.38" y="-702.5" font-family="Helvetica,sans-Serif" font-size="10.00">Delay</text>
</a>
</g>
</g>
<!-- Node16&#45;&gt;Node24 -->
<g id="edge36_Node000016_Node000024" class="edge">
<title>Node16&#45;&gt;Node24</title>
<g id="a_edge36_Node000016_Node000024"><a xlink:title=" ">
<path fill="none" stroke="#63b8ff" d="M792.34,-539.39C805.56,-572.62 840.13,-648.08 894.5,-687 897.67,-689.27 901.04,-691.34 904.53,-693.21"/>
<polygon fill="#63b8ff" stroke="#63b8ff" points="902.78,-696.26 913.32,-697.38 905.78,-689.93 902.78,-696.26"/>
</a>
</g>
</g>
<!-- Node25 -->
<g id="Node000025" class="node">
<title>Node25</title>
<g id="a_Node000025"><a xlink:href="../../d5/d72/classLSM1x0A__LoRaWAN.html#a4545d0caad41558cdb9bae8286b104d8" target="_top" xlink:title="Sets the delay for the Join2 receive window.">
<polygon fill="white" stroke="#666666" points="1068,-678 914.75,-678 914.75,-646 1068,-646 1068,-678"/>
<text text-anchor="start" x="922.75" y="-664.5" font-family="Helvetica,sans-Serif" font-size="10.00">LSM1x0A_LoRaWAN::setJoin2</text>
<text text-anchor="middle" x="991.38" y="-652.5" font-family="Helvetica,sans-Serif" font-size="10.00">Delay</text>
</a>
</g>
</g>
<!-- Node16&#45;&gt;Node25 -->
<g id="edge38_Node000016_Node000025" class="edge">
<title>Node16&#45;&gt;Node25</title>
<g id="a_edge38_Node000016_Node000025"><a xlink:title=" ">
<path fill="none" stroke="#63b8ff" d="M797.14,-539.33C814.65,-564.27 851.49,-611.61 894.5,-637 897.51,-638.78 900.65,-640.43 903.88,-641.97"/>
<polygon fill="#63b8ff" stroke="#63b8ff" points="902.48,-645.18 913.05,-645.9 905.24,-638.74 902.48,-645.18"/>
</a>
</g>
</g>
<!-- Node26 -->
<g id="Node000026" class="node">
<title>Node26</title>
<g id="a_Node000026"><a xlink:href="../../d5/d72/classLSM1x0A__LoRaWAN.html#a06bd50723ec1eb7e144c9141b2ec86fc" target="_top" xlink:title="Sets the LoRaWAN Network ID (NetID).">
<polygon fill="white" stroke="#666666" points="1071.75,-628 911,-628 911,-608 1071.75,-608 1071.75,-628"/>
<text text-anchor="middle" x="991.38" y="-614.5" font-family="Helvetica,sans-Serif" font-size="10.00">LSM1x0A_LoRaWAN::setNwkID</text>
</a>
</g>
</g>
<!-- Node16&#45;&gt;Node26 -->
<g id="edge40_Node000016_Node000026" class="edge">
<title>Node16&#45;&gt;Node26</title>
<g id="a_edge40_Node000016_Node000026"><a xlink:title=" ">
<path fill="none" stroke="#63b8ff" d="M804.35,-539.34C824.76,-556.84 859.66,-584.11 894.5,-599 899.1,-600.97 903.91,-602.73 908.83,-604.32"/>
<polygon fill="#63b8ff" stroke="#63b8ff" points="907.67,-607.63 918.26,-607.08 909.64,-600.91 907.67,-607.63"/>
</a>
</g>
</g>
<!-- Node27 -->
<g id="Node000027" class="node">
<title>Node27</title>
<g id="a_Node000027"><a xlink:href="../../d5/d72/classLSM1x0A__LoRaWAN.html#aa70ada64d28ecca216bb62268e502adf" target="_top" xlink:title="Sets the delay for the RX1 receive window.">
<polygon fill="white" stroke="#666666" points="1078.12,-590 904.62,-590 904.62,-570 1078.12,-570 1078.12,-590"/>
<text text-anchor="middle" x="991.38" y="-576.5" font-family="Helvetica,sans-Serif" font-size="10.00">LSM1x0A_LoRaWAN::setRx1Delay</text>
</a>
</g>
</g>
<!-- Node16&#45;&gt;Node27 -->
<g id="edge42_Node000016_Node000027" class="edge">
<title>Node16&#45;&gt;Node27</title>
<g id="a_edge42_Node000016_Node000027"><a xlink:title=" ">
<path fill="none" stroke="#63b8ff" d="M828.74,-539.49C848.52,-546.76 872.5,-554.99 894.5,-561 902.58,-563.21 911.11,-565.27 919.62,-567.16"/>
<polygon fill="#63b8ff" stroke="#63b8ff" points="918.75,-570.55 929.26,-569.23 920.22,-563.71 918.75,-570.55"/>
</a>
</g>
</g>
<!-- Node28 -->
<g id="Node000028" class="node">
<title>Node28</title>
<g id="a_Node000028"><a xlink:href="../../d5/d72/classLSM1x0A__LoRaWAN.html#a2cf4eff0181b6107d082bccefa24217b" target="_top" xlink:title="Sets the Data Rate (DR) specifically for the RX2 window.">
<polygon fill="white" stroke="#666666" points="1086.38,-552 896.38,-552 896.38,-532 1086.38,-532 1086.38,-552"/>
<text text-anchor="middle" x="991.38" y="-538.5" font-family="Helvetica,sans-Serif" font-size="10.00">LSM1x0A_LoRaWAN::setRx2DataRate</text>
</a>
</g>
</g>
<!-- Node16&#45;&gt;Node28 -->
<g id="edge44_Node000016_Node000028" class="edge">
<title>Node16&#45;&gt;Node28</title>
<g id="a_edge44_Node000016_Node000028"><a xlink:title=" ">
<path fill="none" stroke="#63b8ff" d="M858.79,-529.75C867.16,-530.53 875.81,-531.34 884.51,-532.15"/>
<polygon fill="#63b8ff" stroke="#63b8ff" points="884.14,-535.63 894.43,-533.07 884.79,-528.66 884.14,-535.63"/>
</a>
</g>
</g>
<!-- Node29 -->
<g id="Node000029" class="node">
<title>Node29</title>
<g id="a_Node000029"><a xlink:href="../../d5/d72/classLSM1x0A__LoRaWAN.html#a42d2137b475b57e19d891a5f1ac93221" target="_top" xlink:title="Sets the delay for the RX2 receive window.">
<polygon fill="white" stroke="#666666" points="1078.12,-514 904.62,-514 904.62,-494 1078.12,-494 1078.12,-514"/>
<text text-anchor="middle" x="991.38" y="-500.5" font-family="Helvetica,sans-Serif" font-size="10.00">LSM1x0A_LoRaWAN::setRx2Delay</text>
</a>
</g>
</g>
<!-- Node16&#45;&gt;Node29 -->
<g id="edge46_Node000016_Node000029" class="edge">
<title>Node16&#45;&gt;Node29</title>
<g id="a_edge46_Node000016_Node000029"><a xlink:title=" ">
<path fill="none" stroke="#63b8ff" d="M858.79,-516.25C869.99,-515.21 881.72,-514.11 893.35,-513.03"/>
<polygon fill="#63b8ff" stroke="#63b8ff" points="893.32,-516.55 902.95,-512.14 892.67,-509.58 893.32,-516.55"/>
</a>
</g>
</g>
<!-- Node30 -->
<g id="Node000030" class="node">
<title>Node30</title>
<g id="a_Node000030"><a xlink:href="../../d5/d72/classLSM1x0A__LoRaWAN.html#a689f7dfda1dfeae11ea397c2ddf2ad37" target="_top" xlink:title="Sets the precise frequency for the RX2 window.">
<polygon fill="white" stroke="#666666" points="1088.25,-476 894.5,-476 894.5,-456 1088.25,-456 1088.25,-476"/>
<text text-anchor="middle" x="991.38" y="-462.5" font-family="Helvetica,sans-Serif" font-size="10.00">LSM1x0A_LoRaWAN::setRx2Frequency</text>
</a>
</g>
</g>
<!-- Node16&#45;&gt;Node30 -->
<g id="edge48_Node000016_Node000030" class="edge">
<title>Node16&#45;&gt;Node30</title>
<g id="a_edge48_Node000016_Node000030"><a xlink:title=" ">
<path fill="none" stroke="#63b8ff" d="M828.74,-506.51C848.52,-499.24 872.5,-491.01 894.5,-485 902.58,-482.79 911.11,-480.73 919.62,-478.84"/>
<polygon fill="#63b8ff" stroke="#63b8ff" points="920.22,-482.29 929.26,-476.77 918.75,-475.45 920.22,-482.29"/>
</a>
</g>
</g>
<!-- Node31 -->
<g id="Node000031" class="node">
<title>Node31</title>
<g id="a_Node000031"><a xlink:href="../../d5/d72/classLSM1x0A__LoRaWAN.html#a1df10d7ae6bf45b537d28d3d5c4b88d7" target="_top" xlink:title="Sets the transmission power index.">
<polygon fill="white" stroke="#666666" points="1075.88,-438 906.88,-438 906.88,-418 1075.88,-418 1075.88,-438"/>
<text text-anchor="middle" x="991.38" y="-424.5" font-family="Helvetica,sans-Serif" font-size="10.00">LSM1x0A_LoRaWAN::setTxPower</text>
</a>
</g>
</g>
<!-- Node16&#45;&gt;Node31 -->
<g id="edge50_Node000016_Node000031" class="edge">
<title>Node16&#45;&gt;Node31</title>
<g id="a_edge50_Node000016_Node000031"><a xlink:title=" ">
<path fill="none" stroke="#63b8ff" d="M804.35,-506.66C824.76,-489.16 859.66,-461.89 894.5,-447 899.1,-445.03 903.91,-443.27 908.83,-441.68"/>
<polygon fill="#63b8ff" stroke="#63b8ff" points="909.64,-445.09 918.26,-438.92 907.67,-438.37 909.64,-445.09"/>
</a>
</g>
</g>
<!-- Node32 -->
<g id="Node000032" class="node">
<title>Node32</title>
<g id="a_Node000032"><a xlink:href="../../d5/d72/classLSM1x0A__LoRaWAN.html#a059fd6a9356c4ecadd5a98294da5952d" target="_top" xlink:title="Configures the number of repetitions for Unconfirmed uplinks.">
<polygon fill="white" stroke="#666666" points="1078.88,-400 903.88,-400 903.88,-368 1078.88,-368 1078.88,-400"/>
<text text-anchor="start" x="911.88" y="-386.5" font-family="Helvetica,sans-Serif" font-size="10.00">LSM1x0A_LoRaWAN::setUnconfirm</text>
<text text-anchor="middle" x="991.38" y="-374.5" font-family="Helvetica,sans-Serif" font-size="10.00">Retry</text>
</a>
</g>
</g>
<!-- Node16&#45;&gt;Node32 -->
<g id="edge52_Node000016_Node000032" class="edge">
<title>Node16&#45;&gt;Node32</title>
<g id="a_edge52_Node000016_Node000032"><a xlink:title=" ">
<path fill="none" stroke="#63b8ff" d="M797.14,-506.67C814.65,-481.73 851.49,-434.39 894.5,-409 896.81,-407.64 899.2,-406.34 901.64,-405.12"/>
<polygon fill="#63b8ff" stroke="#63b8ff" points="902.9,-408.4 910.58,-401.1 900.03,-402.01 902.9,-408.4"/>
</a>
</g>
</g>
<!-- Node17&#45;&gt;Node10 -->
<g id="edge22_Node000017_Node000010" class="edge">
<title>Node17&#45;&gt;Node10</title>
<g id="a_edge22_Node000017_Node000010"><a xlink:title=" ">
<path fill="none" stroke="#63b8ff" d="M1067.65,-348.53C1074.97,-351.2 1081.99,-354.62 1088.25,-359 1143.84,-397.86 1176.69,-474.26 1190.99,-514.97"/>
<polygon fill="#63b8ff" stroke="#63b8ff" points="1187.61,-515.89 1194.12,-524.24 1194.24,-513.65 1187.61,-515.89"/>
</a>
</g>
</g>
<!-- Node18&#45;&gt;Node10 -->
<g id="edge24_Node000018_Node000010" class="edge">
<title>Node18&#45;&gt;Node10</title>
<g id="a_edge24_Node000018_Node000010"><a xlink:title=" ">
<path fill="none" stroke="#63b8ff" d="M1068.02,-310.03C1075.27,-312.79 1082.17,-316.38 1088.25,-321 1152.87,-370.13 1182.71,-467.16 1193.91,-514.6"/>
<polygon fill="#63b8ff" stroke="#63b8ff" points="1190.42,-515.06 1196.03,-524.05 1197.25,-513.53 1190.42,-515.06"/>
</a>
</g>
</g>
<!-- Node19&#45;&gt;Node10 -->
<g id="edge27_Node000019_Node000010" class="edge">
<title>Node19&#45;&gt;Node10</title>
<g id="a_edge27_Node000019_Node000010"><a xlink:title=" ">
<path fill="none" stroke="#63b8ff" d="M1074.08,-273.44C1079.16,-276.14 1083.95,-279.3 1088.25,-283 1160.2,-344.86 1186.98,-461.59 1195.74,-514.59"/>
<polygon fill="#63b8ff" stroke="#63b8ff" points="1192.25,-514.92 1197.24,-524.26 1199.17,-513.84 1192.25,-514.92"/>
</a>
</g>
</g>
<!-- Node20&#45;&gt;Node10 -->
<g id="edge29_Node000020_Node000010" class="edge">
<title>Node20&#45;&gt;Node10</title>
<g id="a_edge29_Node000020_Node000010"><a xlink:title=" ">
<path fill="none" stroke="#63b8ff" d="M1075.69,-871.6C1080.2,-869.21 1084.44,-866.37 1088.25,-863 1126.48,-829.22 1107.72,-802.26 1124.25,-754 1147.06,-687.42 1175.05,-609.52 1189.62,-569.23"/>
<polygon fill="#63b8ff" stroke="#63b8ff" points="1192.89,-570.47 1193.01,-559.87 1186.31,-568.08 1192.89,-570.47"/>
</a>
</g>
</g>
<!-- Node21&#45;&gt;Node10 -->
<g id="edge31_Node000021_Node000010" class="edge">
<title>Node21&#45;&gt;Node10</title>
<g id="a_edge31_Node000021_Node000010"><a xlink:title=" ">
<path fill="none" stroke="#63b8ff" d="M1075.02,-833.58C1079.75,-831.21 1084.21,-828.37 1088.25,-825 1109.03,-807.64 1167.94,-636.39 1190.53,-569.02"/>
<polygon fill="#63b8ff" stroke="#63b8ff" points="1193.74,-570.45 1193.59,-559.86 1187.1,-568.24 1193.74,-570.45"/>
</a>
</g>
</g>
<!-- Node22&#45;&gt;Node10 -->
<g id="edge33_Node000022_Node000010" class="edge">
<title>Node22&#45;&gt;Node10</title>
<g id="a_edge33_Node000022_Node000010"><a xlink:title=" ">
<path fill="none" stroke="#63b8ff" d="M1074.36,-795.56C1079.3,-793.2 1083.99,-790.37 1088.25,-787 1158.75,-731.13 1186.14,-620.69 1195.38,-569.39"/>
<polygon fill="#63b8ff" stroke="#63b8ff" points="1198.79,-570.18 1197.01,-559.74 1191.89,-569.01 1198.79,-570.18"/>
</a>
</g>
</g>
<!-- Node23&#45;&gt;Node10 -->
<g id="edge35_Node000023_Node000010" class="edge">
<title>Node23&#45;&gt;Node10</title>
<g id="a_edge35_Node000023_Node000010"><a xlink:title=" ">
<path fill="none" stroke="#63b8ff" d="M1066.91,-749.05C1074.54,-745.87 1081.83,-741.92 1088.25,-737 1145.24,-693.34 1177.81,-611.57 1191.6,-569.12"/>
<polygon fill="#63b8ff" stroke="#63b8ff" points="1194.9,-570.29 1194.55,-559.7 1188.22,-568.2 1194.9,-570.29"/>
</a>
</g>
</g>
<!-- Node24&#45;&gt;Node10 -->
<g id="edge37_Node000024_Node000010" class="edge">
<title>Node24&#45;&gt;Node10</title>
<g id="a_edge37_Node000024_Node000010"><a xlink:title=" ">
<path fill="none" stroke="#63b8ff" d="M1068.24,-697.37C1075.29,-694.51 1082.09,-691.09 1088.25,-687 1134.06,-656.61 1168.82,-600.94 1186.5,-568.13"/>
<polygon fill="#63b8ff" stroke="#63b8ff" points="1189.39,-570.16 1190.93,-559.68 1183.19,-566.91 1189.39,-570.16"/>
</a>
</g>
</g>
<!-- Node25&#45;&gt;Node10 -->
<g id="edge39_Node000025_Node000010" class="edge">
<title>Node25&#45;&gt;Node10</title>
<g id="a_edge39_Node000025_Node000010"><a xlink:title=" ">
<path fill="none" stroke="#63b8ff" d="M1068.43,-645.62C1075.29,-643.12 1082,-640.26 1088.25,-637 1123.04,-618.85 1156.35,-588.01 1177.31,-566.4"/>
<polygon fill="#63b8ff" stroke="#63b8ff" points="1179.58,-569.1 1183.93,-559.44 1174.5,-564.27 1179.58,-569.1"/>
</a>
</g>
</g>
<!-- Node26&#45;&gt;Node10 -->
<g id="edge41_Node000026_Node000010" class="edge">
<title>Node26&#45;&gt;Node10</title>
<g id="a_edge41_Node000026_Node000010"><a xlink:title=" ">
<path fill="none" stroke="#63b8ff" d="M1058.01,-607.52C1068.26,-605.16 1078.63,-602.34 1088.25,-599 1114.32,-589.94 1141.95,-575.81 1163.15,-563.89"/>
<polygon fill="#63b8ff" stroke="#63b8ff" points="1164.75,-567 1171.69,-559 1161.27,-560.93 1164.75,-567"/>
</a>
</g>
</g>
<!-- Node27&#45;&gt;Node10 -->
<g id="edge43_Node000027_Node000010" class="edge">
<title>Node27&#45;&gt;Node10</title>
<g id="a_edge43_Node000027_Node000010"><a xlink:title=" ">
<path fill="none" stroke="#63b8ff" d="M1049.52,-569.52C1076.36,-564.59 1108.44,-558.71 1136.03,-553.64"/>
<polygon fill="#63b8ff" stroke="#63b8ff" points="1136.46,-557.12 1145.66,-551.88 1135.19,-550.24 1136.46,-557.12"/>
</a>
</g>
</g>
<!-- Node28&#45;&gt;Node10 -->
<g id="edge45_Node000028_Node000010" class="edge">
<title>Node28&#45;&gt;Node10</title>
<g id="a_edge45_Node000028_Node000010"><a xlink:title=" ">
<path fill="none" stroke="#63b8ff" d="M1086.85,-542C1103.34,-542 1120.14,-542 1135.57,-542"/>
<polygon fill="#63b8ff" stroke="#63b8ff" points="1135.55,-545.5 1145.55,-542 1135.55,-538.5 1135.55,-545.5"/>
</a>
</g>
</g>
<!-- Node29&#45;&gt;Node10 -->
<g id="edge47_Node000029_Node000010" class="edge">
<title>Node29&#45;&gt;Node10</title>
<g id="a_edge47_Node000029_Node000010"><a xlink:title=" ">
<path fill="none" stroke="#63b8ff" d="M1049.52,-514.48C1076.36,-519.41 1108.44,-525.29 1136.03,-530.36"/>
<polygon fill="#63b8ff" stroke="#63b8ff" points="1135.19,-533.76 1145.66,-532.12 1136.46,-526.88 1135.19,-533.76"/>
</a>
</g>
</g>
<!-- Node30&#45;&gt;Node10 -->
<g id="edge49_Node000030_Node000010" class="edge">
<title>Node30&#45;&gt;Node10</title>
<g id="a_edge49_Node000030_Node000010"><a xlink:title=" ">
<path fill="none" stroke="#63b8ff" d="M1058.01,-476.48C1068.26,-478.84 1078.63,-481.66 1088.25,-485 1114.32,-494.06 1141.95,-508.19 1163.15,-520.11"/>
<polygon fill="#63b8ff" stroke="#63b8ff" points="1161.27,-523.07 1171.69,-525 1164.75,-517 1161.27,-523.07"/>
</a>
</g>
</g>
<!-- Node31&#45;&gt;Node10 -->
<g id="edge51_Node000031_Node000010" class="edge">
<title>Node31&#45;&gt;Node10</title>
<g id="a_edge51_Node000031_Node000010"><a xlink:title=" ">
<path fill="none" stroke="#63b8ff" d="M1065.64,-438.43C1073.46,-440.74 1081.15,-443.56 1088.25,-447 1123.76,-464.21 1157.15,-495.52 1177.91,-517.48"/>
<polygon fill="#63b8ff" stroke="#63b8ff" points="1175.1,-519.6 1184.46,-524.57 1180.24,-514.85 1175.1,-519.6"/>
</a>
</g>
</g>
<!-- Node32&#45;&gt;Node10 -->
<g id="edge53_Node000032_Node000010" class="edge">
<title>Node32&#45;&gt;Node10</title>
<g id="a_edge53_Node000032_Node000010"><a xlink:title=" ">
<path fill="none" stroke="#63b8ff" d="M1071.5,-400.31C1077.36,-402.81 1083.02,-405.69 1088.25,-409 1131.24,-436.23 1165.97,-485.5 1184.6,-515.83"/>
<polygon fill="#63b8ff" stroke="#63b8ff" points="1181.59,-517.61 1189.73,-524.4 1187.6,-514.02 1181.59,-517.61"/>
</a>
</g>
</g>
<!-- Node34&#45;&gt;Node11 -->
<g id="edge56_Node000034_Node000011" class="edge">
<title>Node34&#45;&gt;Node11</title>
<g id="a_edge56_Node000034_Node000011"><a xlink:title=" ">
<path fill="none" stroke="#63b8ff" d="M1215.07,-762.71C1250.44,-720.24 1345.34,-606.28 1383.08,-560.97"/>
<polygon fill="#63b8ff" stroke="#63b8ff" points="1385.55,-563.47 1389.26,-553.55 1380.17,-558.99 1385.55,-563.47"/>
</a>
</g>
</g>
</g>
</svg>
