<?xml version="1.0" encoding="UTF-8" standalone="no"?>
<!DOCTYPE svg PUBLIC "-//W3C//DTD SVG 1.1//EN"
 "http://www.w3.org/Graphics/SVG/1.1/DTD/svg11.dtd">
<!-- Generated by graphviz version 12.2.1 (20241206.2353)
 -->
<!-- Title: LSM1x0A_LoRaWAN::getRx1Delay Pages: 1 -->
<svg width="1873pt" height="1018pt"
 viewBox="0.00 0.00 1872.75 1018.48" xmlns="http://www.w3.org/2000/svg" xmlns:xlink="http://www.w3.org/1999/xlink">
<g id="graph0" class="graph" transform="scale(1 1) rotate(0) translate(4 1014.48)">
<title>LSM1x0A_LoRaWAN::getRx1Delay</title>
<!-- Node1 -->
<g id="Node000001" class="node">
<title>Node1</title>
<g id="a_Node000001"><a xlink:title="Retrieves the RX1 receive window delay.">
<polygon fill="#999999" stroke="#666666" points="173.5,-98 0,-98 0,-78 173.5,-78 173.5,-98"/>
<text text-anchor="middle" x="86.75" y="-84.5" font-family="Helvetica,sans-Serif" font-size="10.00">LSM1x0A_LoRaWAN::getRx1Delay</text>
</a>
</g>
</g>
<!-- Node2 -->
<g id="Node000002" class="node">
<title>Node2</title>
<g id="a_Node000002"><a xlink:href="../../d8/d92/classLSM1x0A__Controller.html#ab00328d1be83aa51bce8c2a4f907c5f4" target="_top" xlink:title="Sends an AT command and captures its response in a text block. Ideal for getters (e....">
<polygon fill="white" stroke="#666666" points="362,-104 209.5,-104 209.5,-72 362,-72 362,-104"/>
<text text-anchor="start" x="217.5" y="-90.5" font-family="Helvetica,sans-Serif" font-size="10.00">LSM1x0A_Controller</text>
<text text-anchor="middle" x="285.75" y="-78.5" font-family="Helvetica,sans-Serif" font-size="10.00">::sendCommandWithResponse</text>
</a>
</g>
</g>
<!-- Node1&#45;&gt;Node2 -->
<g id="edge1_Node000001_Node000002" class="edge">
<title>Node1&#45;&gt;Node2</title>
<g id="a_edge1_Node000001_Node000002"><a xlink:title=" ">
<path fill="none" stroke="#63b8ff" d="M173.87,-88C181.73,-88 189.7,-88 197.57,-88"/>
<polygon fill="#63b8ff" stroke="#63b8ff" points="197.49,-91.5 207.49,-88 197.49,-84.5 197.49,-91.5"/>
</a>
</g>
</g>
<!-- Node3 -->
<g id="Node000003" class="node">
<title>Node3</title>
<g id="a_Node000003"><a xlink:href="../../d8/d92/classLSM1x0A__Controller.html#abb0eb380daa3dfb7acffb483c5db8e2b" target="_top" xlink:title="Executes the recovery protocol. First Soft&#45;Reset (ATZ), then Hard&#45;Reset if there is a pin.">
<polygon fill="white" stroke="#666666" points="504,-214 398,-214 398,-182 504,-182 504,-214"/>
<text text-anchor="start" x="406" y="-200.5" font-family="Helvetica,sans-Serif" font-size="10.00">LSM1x0A_Controller</text>
<text text-anchor="middle" x="451" y="-188.5" font-family="Helvetica,sans-Serif" font-size="10.00">::recoverModule</text>
</a>
</g>
</g>
<!-- Node2&#45;&gt;Node3 -->
<g id="edge2_Node000002_Node000003" class="edge">
<title>Node2&#45;&gt;Node3</title>
<g id="a_edge2_Node000002_Node000003"><a xlink:title=" ">
<path fill="none" stroke="#63b8ff" d="M311.19,-104.47C339.16,-123.32 385.14,-154.29 416.45,-175.39"/>
<polygon fill="#63b8ff" stroke="#63b8ff" points="414.16,-178.07 424.4,-180.75 418.07,-172.26 414.16,-178.07"/>
</a>
</g>
</g>
<!-- Node12 -->
<g id="Node000012" class="node">
<title>Node12</title>
<g id="a_Node000012"><a xlink:href="../../d6/d3c/classLSM1x0A__AtParser.html#a0ba6f927c54fceece22c17773d3f2600" target="_top" xlink:title="Sends a command and extracts a value from the response.">
<polygon fill="white" stroke="#666666" points="1719.75,-287 1545.5,-287 1545.5,-255 1719.75,-255 1719.75,-287"/>
<text text-anchor="start" x="1553.5" y="-273.5" font-family="Helvetica,sans-Serif" font-size="10.00">LSM1x0A_AtParser::sendCommand</text>
<text text-anchor="middle" x="1632.62" y="-261.5" font-family="Helvetica,sans-Serif" font-size="10.00">WithResponse</text>
</a>
</g>
</g>
<!-- Node2&#45;&gt;Node12 -->
<g id="edge57_Node000002_Node000012" class="edge">
<title>Node2&#45;&gt;Node12</title>
<g id="a_edge57_Node000002_Node000012"><a xlink:title=" ">
<path fill="none" stroke="#63b8ff" d="M323.19,-71.65C383.36,-46.21 507.79,0 618.25,0 618.25,0 618.25,0 1224,0 1400.94,0 1559.7,-179.26 1612.81,-246.19"/>
<polygon fill="#63b8ff" stroke="#63b8ff" points="1609.74,-247.95 1618.66,-253.67 1615.25,-243.64 1609.74,-247.95"/>
</a>
</g>
</g>
<!-- Node4 -->
<g id="Node000004" class="node">
<title>Node4</title>
<g id="a_Node000004"><a xlink:href="../../d8/d92/classLSM1x0A__Controller.html#a3f6f25b843fe4fb7042c544deae2ab16" target="_top" xlink:title="Manually clears bits from the internal EventGroup.">
<polygon fill="white" stroke="#666666" points="1066.88,-98 960.88,-98 960.88,-66 1066.88,-66 1066.88,-98"/>
<text text-anchor="start" x="968.88" y="-84.5" font-family="Helvetica,sans-Serif" font-size="10.00">LSM1x0A_Controller</text>
<text text-anchor="middle" x="1013.88" y="-72.5" font-family="Helvetica,sans-Serif" font-size="10.00">::clearEvents</text>
</a>
</g>
</g>
<!-- Node3&#45;&gt;Node4 -->
<g id="edge3_Node000003_Node000004" class="edge">
<title>Node3&#45;&gt;Node4</title>
<g id="a_edge3_Node000003_Node000004"><a xlink:title=" ">
<path fill="none" stroke="#63b8ff" d="M476.68,-181.53C493.73,-171 517.34,-158.03 540,-151 685.65,-105.82 730.73,-138.94 881,-113 903.5,-109.12 927.9,-103.72 949.52,-98.52"/>
<polygon fill="#63b8ff" stroke="#63b8ff" points="950.2,-101.96 959.08,-96.18 948.53,-95.16 950.2,-101.96"/>
</a>
</g>
</g>
<!-- Node5 -->
<g id="Node000005" class="node">
<title>Node5</title>
<g id="a_Node000005"><a xlink:href="../../d8/d92/classLSM1x0A__Controller.html#a345d4bd79fa16b18dc33a4ca788fe5f7" target="_top" xlink:title="Performs a hardware reset using the reset pin.">
<polygon fill="white" stroke="#666666" points="672.25,-104 566.25,-104 566.25,-72 672.25,-72 672.25,-104"/>
<text text-anchor="start" x="574.25" y="-90.5" font-family="Helvetica,sans-Serif" font-size="10.00">LSM1x0A_Controller</text>
<text text-anchor="middle" x="619.25" y="-78.5" font-family="Helvetica,sans-Serif" font-size="10.00">::hardwareReset</text>
</a>
</g>
</g>
<!-- Node3&#45;&gt;Node5 -->
<g id="edge4_Node000003_Node000005" class="edge">
<title>Node3&#45;&gt;Node5</title>
<g id="a_edge4_Node000003_Node000005"><a xlink:title=" ">
<path fill="none" stroke="#63b8ff" d="M466.46,-181.63C482.82,-163.93 510.99,-135.86 540,-118 545.27,-114.76 550.94,-111.77 556.74,-109.03"/>
<polygon fill="#63b8ff" stroke="#63b8ff" points="558.14,-112.24 565.88,-104.99 555.31,-105.83 558.14,-112.24"/>
</a>
</g>
</g>
<!-- Node7 -->
<g id="Node000007" class="node">
<title>Node7</title>
<g id="a_Node000007"><a xlink:href="../../d5/d72/classLSM1x0A__LoRaWAN.html#a1892801e37c8cd67d37c76108d6f7d49" target="_top" xlink:title="Validates if the device is currently Joined to the network. (Either confirmed by OTAA or statically a...">
<polygon fill="white" stroke="#666666" points="1299.25,-136 1146.75,-136 1146.75,-116 1299.25,-116 1299.25,-136"/>
<text text-anchor="middle" x="1223" y="-122.5" font-family="Helvetica,sans-Serif" font-size="10.00">LSM1x0A_LoRaWAN::isJoined</text>
</a>
</g>
</g>
<!-- Node3&#45;&gt;Node7 -->
<g id="edge6_Node000003_Node000007" class="edge">
<title>Node3&#45;&gt;Node7</title>
<g id="a_edge6_Node000003_Node000007"><a xlink:title=" ">
<path fill="none" stroke="#63b8ff" d="M456.93,-181.77C466.99,-151.92 492.98,-88.97 540,-63 651.04,-1.69 988.76,-22.24 1110.75,-57 1145.82,-66.99 1180.62,-91.56 1201.72,-108.51"/>
<polygon fill="#63b8ff" stroke="#63b8ff" points="1199.3,-111.05 1209.24,-114.72 1203.76,-105.65 1199.3,-111.05"/>
</a>
</g>
</g>
<!-- Node8 -->
<g id="Node000008" class="node">
<title>Node8</title>
<g id="a_Node000008"><a xlink:href="../../d5/d72/classLSM1x0A__LoRaWAN.html#a83e11c0e74ff9e0757db616ab1163424" target="_top" xlink:title="Attempts to recover a lost connection (re&#45;executes OTAA Join if dropped).">
<polygon fill="white" stroke="#666666" points="693.62,-192 544.88,-192 544.88,-160 693.62,-160 693.62,-192"/>
<text text-anchor="start" x="552.88" y="-178.5" font-family="Helvetica,sans-Serif" font-size="10.00">LSM1x0A_LoRaWAN::recover</text>
<text text-anchor="middle" x="619.25" y="-166.5" font-family="Helvetica,sans-Serif" font-size="10.00">Connection</text>
</a>
</g>
</g>
<!-- Node3&#45;&gt;Node8 -->
<g id="edge7_Node000003_Node000008" class="edge">
<title>Node3&#45;&gt;Node8</title>
<g id="a_edge7_Node000003_Node000008"><a xlink:title=" ">
<path fill="none" stroke="#63b8ff" d="M504.15,-191.1C513.49,-189.86 523.44,-188.55 533.42,-187.23"/>
<polygon fill="#63b8ff" stroke="#63b8ff" points="533.72,-190.72 543.17,-185.94 532.8,-183.78 533.72,-190.72"/>
</a>
</g>
</g>
<!-- Node16 -->
<g id="Node000016" class="node">
<title>Node16</title>
<g id="a_Node000016"><a xlink:href="../../d5/d72/classLSM1x0A__LoRaWAN.html#ae3be4ce59dfa200369733317df356e97" target="_top" xlink:title="Pushes the RAM&#45;cached variables back down into the hardware module. Restores the operational state af...">
<polygon fill="white" stroke="#666666" points="881,-539 734.5,-539 734.5,-507 881,-507 881,-539"/>
<text text-anchor="start" x="742.5" y="-525.5" font-family="Helvetica,sans-Serif" font-size="10.00">LSM1x0A_LoRaWAN::restore</text>
<text text-anchor="middle" x="807.75" y="-513.5" font-family="Helvetica,sans-Serif" font-size="10.00">Config</text>
</a>
</g>
</g>
<!-- Node3&#45;&gt;Node16 -->
<g id="edge20_Node000003_Node000016" class="edge">
<title>Node3&#45;&gt;Node16</title>
<g id="a_edge20_Node000003_Node000016"><a xlink:title=" ">
<path fill="none" stroke="#63b8ff" d="M469.59,-214.12C527.51,-267.18 712.44,-436.6 780.92,-499.34"/>
<polygon fill="#63b8ff" stroke="#63b8ff" points="778.2,-501.59 787.94,-505.76 782.93,-496.43 778.2,-501.59"/>
</a>
</g>
</g>
<!-- Node33 -->
<g id="Node000033" class="node">
<title>Node33</title>
<g id="a_Node000033"><a xlink:href="../../d5/d72/classLSM1x0A__LoRaWAN.html#ace4b04396f1de1f4a54f513f5f378db7" target="_top" xlink:title="Manually overrides the internal joined state tracker.">
<polygon fill="white" stroke="#666666" points="698.5,-939 540,-939 540,-919 698.5,-919 698.5,-939"/>
<text text-anchor="middle" x="619.25" y="-925.5" font-family="Helvetica,sans-Serif" font-size="10.00">LSM1x0A_LoRaWAN::setJoined</text>
</a>
</g>
</g>
<!-- Node3&#45;&gt;Node33 -->
<g id="edge54_Node000003_Node000033" class="edge">
<title>Node3&#45;&gt;Node33</title>
<g id="a_edge54_Node000003_Node000033"><a xlink:title=" ">
<path fill="none" stroke="#63b8ff" d="M451.72,-214.4C450.4,-310.08 448.33,-795.83 540,-905 542.42,-907.88 545.18,-910.43 548.18,-912.67"/>
<polygon fill="#63b8ff" stroke="#63b8ff" points="546.16,-915.54 556.52,-917.75 549.8,-909.56 546.16,-915.54"/>
</a>
</g>
</g>
<!-- Node34 -->
<g id="Node000034" class="node">
<title>Node34</title>
<g id="a_Node000034"><a xlink:href="../../d8/d92/classLSM1x0A__Controller.html#a11ad21cb5ca33ec51346764a23bd485e" target="_top" xlink:title="Performs a software reset (ATZ Command).">
<polygon fill="white" stroke="#666666" points="1276,-795 1170,-795 1170,-763 1276,-763 1276,-795"/>
<text text-anchor="start" x="1178" y="-781.5" font-family="Helvetica,sans-Serif" font-size="10.00">LSM1x0A_Controller</text>
<text text-anchor="middle" x="1223" y="-769.5" font-family="Helvetica,sans-Serif" font-size="10.00">::softwareReset</text>
</a>
</g>
</g>
<!-- Node3&#45;&gt;Node34 -->
<g id="edge55_Node000003_Node000034" class="edge">
<title>Node3&#45;&gt;Node34</title>
<g id="a_edge55_Node000003_Node000034"><a xlink:title=" ">
<path fill="none" stroke="#63b8ff" d="M452.64,-214.18C456.91,-318.83 483,-897.3 540,-948 605.19,-1005.99 873.14,-1058.87 1110.75,-932 1162.21,-904.52 1195.82,-841.52 1211.57,-805.51"/>
<polygon fill="#63b8ff" stroke="#63b8ff" points="1214.64,-807.25 1215.3,-796.67 1208.19,-804.53 1214.64,-807.25"/>
</a>
</g>
</g>
<!-- Node6 -->
<g id="Node000006" class="node">
<title>Node6</title>
<g id="a_Node000006"><a xlink:href="../../d6/d3c/classLSM1x0A__AtParser.html#ad2839120da13e56132b95019419be1e5" target="_top" xlink:title="Waits for an event (like BOOTALERT) without sending any command. Useful for hardware reset where the ...">
<polygon fill="white" stroke="#666666" points="878,-104 737.5,-104 737.5,-72 878,-72 878,-104"/>
<text text-anchor="start" x="745.5" y="-90.5" font-family="Helvetica,sans-Serif" font-size="10.00">LSM1x0A_AtParser::waitFor</text>
<text text-anchor="middle" x="807.75" y="-78.5" font-family="Helvetica,sans-Serif" font-size="10.00">Event</text>
</a>
</g>
</g>
<!-- Node5&#45;&gt;Node6 -->
<g id="edge5_Node000005_Node000006" class="edge">
<title>Node5&#45;&gt;Node6</title>
<g id="a_edge5_Node000005_Node000006"><a xlink:title=" ">
<path fill="none" stroke="#63b8ff" d="M672.7,-88C689.21,-88 707.86,-88 725.87,-88"/>
<polygon fill="#63b8ff" stroke="#63b8ff" points="725.78,-91.5 735.78,-88 725.78,-84.5 725.78,-91.5"/>
</a>
</g>
</g>
<!-- Node9 -->
<g id="Node000009" class="node">
<title>Node9</title>
<g id="a_Node000009"><a xlink:href="../../d5/d72/classLSM1x0A__LoRaWAN.html#a59f781f3cfd30c11cd3973bcb10a7baa" target="_top" xlink:title="Initiates a LoRaWAN Network Join procedure. This is a blocking function until the module fires an eve...">
<polygon fill="white" stroke="#666666" points="873.5,-186 742,-186 742,-166 873.5,-166 873.5,-186"/>
<text text-anchor="middle" x="807.75" y="-172.5" font-family="Helvetica,sans-Serif" font-size="10.00">LSM1x0A_LoRaWAN::join</text>
</a>
</g>
</g>
<!-- Node8&#45;&gt;Node9 -->
<g id="edge8_Node000008_Node000009" class="edge">
<title>Node8&#45;&gt;Node9</title>
<g id="a_edge8_Node000008_Node000009"><a xlink:title=" ">
<path fill="none" stroke="#63b8ff" d="M693.96,-176C705.92,-176 718.33,-176 730.35,-176"/>
<polygon fill="#63b8ff" stroke="#63b8ff" points="730.22,-179.5 740.22,-176 730.22,-172.5 730.22,-179.5"/>
</a>
</g>
</g>
<!-- Node9&#45;&gt;Node3 -->
<g id="edge10_Node000009_Node000003" class="edge">
<title>Node9&#45;&gt;Node3</title>
<g id="a_edge10_Node000009_Node000003"><a xlink:title=" ">
<path fill="none" stroke="#63b8ff" d="M771.02,-186.4C750.09,-191.95 723.03,-198.2 698.5,-201 628.51,-208.98 610.43,-202.2 540,-201 532.1,-200.87 523.81,-200.66 515.61,-200.43"/>
<polygon fill="#63b8ff" stroke="#63b8ff" points="515.73,-196.93 505.62,-200.12 515.51,-203.92 515.73,-196.93"/>
</a>
</g>
</g>
<!-- Node9&#45;&gt;Node4 -->
<g id="edge9_Node000009_Node000004" class="edge">
<title>Node9&#45;&gt;Node4</title>
<g id="a_edge9_Node000009_Node000004"><a xlink:title=" ">
<path fill="none" stroke="#63b8ff" d="M842.3,-165.52C855.05,-160.68 869.31,-154.16 881,-146 900.34,-132.5 896.77,-119.13 917,-107 926.95,-101.03 938.31,-96.47 949.65,-93"/>
<polygon fill="#63b8ff" stroke="#63b8ff" points="950.32,-96.45 959.01,-90.39 948.44,-89.7 950.32,-96.45"/>
</a>
</g>
</g>
<!-- Node10 -->
<g id="Node000010" class="node">
<title>Node10</title>
<g id="a_Node000010"><a xlink:href="../../d8/d92/classLSM1x0A__Controller.html#afd7d92e60ed6fdae696a955cdbe0ed8c" target="_top" xlink:title="Sends any AT command to the module, returning error if it fails. Internally uses the LsmAtParser logi...">
<polygon fill="white" stroke="#666666" points="1276,-558 1170,-558 1170,-526 1276,-526 1276,-558"/>
<text text-anchor="start" x="1178" y="-544.5" font-family="Helvetica,sans-Serif" font-size="10.00">LSM1x0A_Controller</text>
<text text-anchor="middle" x="1223" y="-532.5" font-family="Helvetica,sans-Serif" font-size="10.00">::sendCommand</text>
</a>
</g>
</g>
<!-- Node9&#45;&gt;Node10 -->
<g id="edge11_Node000009_Node000010" class="edge">
<title>Node9&#45;&gt;Node10</title>
<g id="a_edge11_Node000009_Node000010"><a xlink:title=" ">
<path fill="none" stroke="#63b8ff" d="M873.78,-171.81C951.39,-168.2 1075.16,-167.28 1110.75,-195 1212.48,-274.23 1222.74,-447.25 1222.7,-514.5"/>
<polygon fill="#63b8ff" stroke="#63b8ff" points="1219.2,-514.23 1222.6,-524.26 1226.2,-514.3 1219.2,-514.23"/>
</a>
</g>
</g>
<!-- Node14 -->
<g id="Node000014" class="node">
<title>Node14</title>
<g id="a_Node000014"><a xlink:href="../../d5/d72/classLSM1x0A__LoRaWAN.html#a3fdd1ac318a5ad2559323e5d57e36a5e" target="_top" xlink:title="Enables or disables specific sub&#45;bands for regions supporting Channel Masks (e.g.,...">
<polygon fill="white" stroke="#666666" points="1108.88,-224 918.88,-224 918.88,-204 1108.88,-204 1108.88,-224"/>
<text text-anchor="middle" x="1013.88" y="-210.5" font-family="Helvetica,sans-Serif" font-size="10.00">LSM1x0A_LoRaWAN::setChannelMask</text>
</a>
</g>
</g>
<!-- Node9&#45;&gt;Node14 -->
<g id="edge16_Node000009_Node000014" class="edge">
<title>Node9&#45;&gt;Node14</title>
<g id="a_edge16_Node000009_Node000014"><a xlink:title=" ">
<path fill="none" stroke="#63b8ff" d="M865.07,-186.48C889.94,-191.12 919.39,-196.6 945.43,-201.44"/>
<polygon fill="#63b8ff" stroke="#63b8ff" points="944.78,-204.88 955.25,-203.27 946.06,-198 944.78,-204.88"/>
</a>
</g>
</g>
<!-- Node15 -->
<g id="Node000015" class="node">
<title>Node15</title>
<g id="a_Node000015"><a xlink:href="../../d8/d92/classLSM1x0A__Controller.html#a62476e30e50c7fe120aeb8df4b828675" target="_top" xlink:title="Synchronously/blockingly waits for an asynchronous event to occur. Useful for wrapping commands like ...">
<polygon fill="white" stroke="#666666" points="1066.88,-148 960.88,-148 960.88,-116 1066.88,-116 1066.88,-148"/>
<text text-anchor="start" x="968.88" y="-134.5" font-family="Helvetica,sans-Serif" font-size="10.00">LSM1x0A_Controller</text>
<text text-anchor="middle" x="1013.88" y="-122.5" font-family="Helvetica,sans-Serif" font-size="10.00">::waitForEvent</text>
</a>
</g>
</g>
<!-- Node9&#45;&gt;Node15 -->
<g id="edge19_Node000009_Node000015" class="edge">
<title>Node9&#45;&gt;Node15</title>
<g id="a_edge19_Node000009_Node000015"><a xlink:title=" ">
<path fill="none" stroke="#63b8ff" d="M857.38,-165.52C884.99,-159.57 919.86,-152.05 949.57,-145.65"/>
<polygon fill="#63b8ff" stroke="#63b8ff" points="950.17,-149.1 959.2,-143.57 948.69,-142.25 950.17,-149.1"/>
</a>
</g>
</g>
<!-- Node10&#45;&gt;Node3 -->
<g id="edge12_Node000010_Node000003" class="edge">
<title>Node10&#45;&gt;Node3</title>
<g id="a_edge12_Node000010_Node000003"><a xlink:title=" ">
<path fill="none" stroke="#63b8ff" d="M1215.57,-558.31C1201.81,-593.61 1168.91,-679.91 1146.75,-754 1127.48,-818.44 1163.67,-859.48 1110.75,-901 1043,-954.16 993.44,-940.65 917,-901 629.68,-751.97 491.72,-335.66 459.52,-225.19"/>
<polygon fill="#63b8ff" stroke="#63b8ff" points="462.95,-224.47 456.83,-215.82 456.22,-226.4 462.95,-224.47"/>
</a>
</g>
</g>
<!-- Node11 -->
<g id="Node000011" class="node">
<title>Node11</title>
<g id="a_Node000011"><a xlink:href="../../d6/d3c/classLSM1x0A__AtParser.html#a29b53c521974387ba6c03afadfaffa4a" target="_top" xlink:title="Sends a simple command and waits for OK/ERROR. Example: sendCommand(&quot;AT+JOIN&quot;);.">
<polygon fill="white" stroke="#666666" points="1509.5,-552 1335.25,-552 1335.25,-532 1509.5,-532 1509.5,-552"/>
<text text-anchor="middle" x="1422.38" y="-538.5" font-family="Helvetica,sans-Serif" font-size="10.00">LSM1x0A_AtParser::sendCommand</text>
</a>
</g>
</g>
<!-- Node10&#45;&gt;Node11 -->
<g id="edge13_Node000010_Node000011" class="edge">
<title>Node10&#45;&gt;Node11</title>
<g id="a_edge13_Node000010_Node000011"><a xlink:title=" ">
<path fill="none" stroke="#63b8ff" d="M1276.37,-542C1290.94,-542 1307.25,-542 1323.53,-542"/>
<polygon fill="#63b8ff" stroke="#63b8ff" points="1323.26,-545.5 1333.26,-542 1323.26,-538.5 1323.26,-545.5"/>
</a>
</g>
</g>
<!-- Node11&#45;&gt;Node12 -->
<g id="edge14_Node000011_Node000012" class="edge">
<title>Node11&#45;&gt;Node12</title>
<g id="a_edge14_Node000011_Node000012"><a xlink:title=" ">
<path fill="none" stroke="#63b8ff" d="M1431.28,-531.71C1461.19,-492.78 1567.93,-353.88 1612.19,-296.3"/>
<polygon fill="#63b8ff" stroke="#63b8ff" points="1614.73,-298.73 1618.05,-288.67 1609.18,-294.46 1614.73,-298.73"/>
</a>
</g>
</g>
<!-- Node13 -->
<g id="Node000013" class="node">
<title>Node13</title>
<g id="a_Node000013"><a xlink:href="../../d5/d8b/classUartDriver.html#a5d0f22e8867eebe99273078bb19bd23d" target="_top" xlink:title="Sends data through UART.">
<polygon fill="white" stroke="#666666" points="1864.75,-281 1755.75,-281 1755.75,-261 1864.75,-261 1864.75,-281"/>
<text text-anchor="middle" x="1810.25" y="-267.5" font-family="Helvetica,sans-Serif" font-size="10.00">UartDriver::sendData</text>
</a>
</g>
</g>
<!-- Node12&#45;&gt;Node13 -->
<g id="edge15_Node000012_Node000013" class="edge">
<title>Node12&#45;&gt;Node13</title>
<g id="a_edge15_Node000012_Node000013"><a xlink:title=" ">
<path fill="none" stroke="#63b8ff" d="M1720.15,-271C1728.3,-271 1736.45,-271 1744.35,-271"/>
<polygon fill="#63b8ff" stroke="#63b8ff" points="1744.18,-274.5 1754.18,-271 1744.18,-267.5 1744.18,-274.5"/>
</a>
</g>
</g>
<!-- Node14&#45;&gt;Node7 -->
<g id="edge17_Node000014_Node000007" class="edge">
<title>Node14&#45;&gt;Node7</title>
<g id="a_edge17_Node000014_Node000007"><a xlink:title=" ">
<path fill="none" stroke="#63b8ff" d="M1039.45,-203.56C1076.04,-188.01 1145.03,-158.7 1186.92,-140.9"/>
<polygon fill="#63b8ff" stroke="#63b8ff" points="1188.23,-144.15 1196.07,-137.02 1185.49,-137.71 1188.23,-144.15"/>
</a>
</g>
</g>
<!-- Node14&#45;&gt;Node10 -->
<g id="edge18_Node000014_Node000010" class="edge">
<title>Node14&#45;&gt;Node10</title>
<g id="a_edge18_Node000014_Node000010"><a xlink:title=" ">
<path fill="none" stroke="#63b8ff" d="M1097.63,-224.28C1102.33,-226.69 1106.76,-229.57 1110.75,-233 1197.08,-307.27 1216.42,-453.75 1220.75,-514.55"/>
<polygon fill="#63b8ff" stroke="#63b8ff" points="1217.25,-514.57 1221.36,-524.33 1224.23,-514.13 1217.25,-514.57"/>
</a>
</g>
</g>
<!-- Node16&#45;&gt;Node14 -->
<g id="edge25_Node000016_Node000014" class="edge">
<title>Node16&#45;&gt;Node14</title>
<g id="a_edge25_Node000016_Node000014"><a xlink:title=" ">
<path fill="none" stroke="#63b8ff" d="M809.55,-506.78C812.93,-457.25 830.2,-306.79 917,-233 918.13,-232.04 919.29,-231.13 920.48,-230.25"/>
<polygon fill="#63b8ff" stroke="#63b8ff" points="922.17,-233.33 928.87,-225.12 918.52,-227.35 922.17,-233.33"/>
</a>
</g>
</g>
<!-- Node17 -->
<g id="Node000017" class="node">
<title>Node17</title>
<g id="a_Node000017"><a xlink:href="../../d5/d72/classLSM1x0A__LoRaWAN.html#af0baa3db4c7fab580d6b19a9e92472f6" target="_top" xlink:title="Enables or disables Adaptive Data Rate (ADR).">
<polygon fill="white" stroke="#666666" points="1089.75,-350 938,-350 938,-330 1089.75,-330 1089.75,-350"/>
<text text-anchor="middle" x="1013.88" y="-336.5" font-family="Helvetica,sans-Serif" font-size="10.00">LSM1x0A_LoRaWAN::setADR</text>
</a>
</g>
</g>
<!-- Node16&#45;&gt;Node17 -->
<g id="edge21_Node000016_Node000017" class="edge">
<title>Node16&#45;&gt;Node17</title>
<g id="a_edge21_Node000016_Node000017"><a xlink:title=" ">
<path fill="none" stroke="#63b8ff" d="M814.56,-506.6C827.35,-473 861.35,-396.38 917,-359 920.27,-356.8 923.73,-354.85 927.33,-353.11"/>
<polygon fill="#63b8ff" stroke="#63b8ff" points="928.48,-356.42 936.37,-349.35 925.79,-349.96 928.48,-356.42"/>
</a>
</g>
</g>
<!-- Node18 -->
<g id="Node000018" class="node">
<title>Node18</title>
<g id="a_Node000018"><a xlink:href="../../d5/d72/classLSM1x0A__LoRaWAN.html#a5365ed1596eb84ebf1e3b33b4a10c788" target="_top" xlink:title="Sets the LoRaWAN operational frequency band.">
<polygon fill="white" stroke="#666666" points="1090.12,-312 937.62,-312 937.62,-292 1090.12,-292 1090.12,-312"/>
<text text-anchor="middle" x="1013.88" y="-298.5" font-family="Helvetica,sans-Serif" font-size="10.00">LSM1x0A_LoRaWAN::setBand</text>
</a>
</g>
</g>
<!-- Node16&#45;&gt;Node18 -->
<g id="edge23_Node000016_Node000018" class="edge">
<title>Node16&#45;&gt;Node18</title>
<g id="a_edge23_Node000016_Node000018"><a xlink:title=" ">
<path fill="none" stroke="#63b8ff" d="M812.47,-506.5C822.2,-467.43 852.24,-368.94 917,-321 920.16,-318.66 923.54,-316.58 927.07,-314.75"/>
<polygon fill="#63b8ff" stroke="#63b8ff" points="928.25,-318.05 935.97,-310.8 925.41,-311.66 928.25,-318.05"/>
</a>
</g>
</g>
<!-- Node19 -->
<g id="Node000019" class="node">
<title>Node19</title>
<g id="a_Node000019"><a xlink:href="../../d5/d72/classLSM1x0A__LoRaWAN.html#a9d9285c43414337a0ccb3a6cd7ca06e6" target="_top" xlink:title="Configures the number of retries for Confirmed uplinks.">
<polygon fill="white" stroke="#666666" points="1096.12,-274 931.62,-274 931.62,-242 1096.12,-242 1096.12,-274"/>
<text text-anchor="start" x="939.62" y="-260.5" font-family="Helvetica,sans-Serif" font-size="10.00">LSM1x0A_LoRaWAN::setConfirm</text>
<text text-anchor="middle" x="1013.88" y="-248.5" font-family="Helvetica,sans-Serif" font-size="10.00">Retry</text>
</a>
</g>
</g>
<!-- Node16&#45;&gt;Node19 -->
<g id="edge26_Node000016_Node000019" class="edge">
<title>Node16&#45;&gt;Node19</title>
<g id="a_edge26_Node000016_Node000019"><a xlink:title=" ">
<path fill="none" stroke="#63b8ff" d="M811.18,-506.7C818.55,-463.28 844.7,-344.03 917,-283 918.49,-281.74 920.04,-280.55 921.63,-279.41"/>
<polygon fill="#63b8ff" stroke="#63b8ff" points="923.25,-282.52 929.95,-274.32 919.6,-276.55 923.25,-282.52"/>
</a>
</g>
</g>
<!-- Node20 -->
<g id="Node000020" class="node">
<title>Node20</title>
<g id="a_Node000020"><a xlink:href="../../d5/d72/classLSM1x0A__LoRaWAN.html#a56345ceeafa0b9059d6de4e69eddc82e" target="_top" xlink:title="Sets the Data Rate (DR) of the module.">
<polygon fill="white" stroke="#666666" points="1099.88,-892 927.88,-892 927.88,-872 1099.88,-872 1099.88,-892"/>
<text text-anchor="middle" x="1013.88" y="-878.5" font-family="Helvetica,sans-Serif" font-size="10.00">LSM1x0A_LoRaWAN::setDataRate</text>
</a>
</g>
</g>
<!-- Node16&#45;&gt;Node20 -->
<g id="edge28_Node000016_Node000020" class="edge">
<title>Node16&#45;&gt;Node20</title>
<g id="a_edge28_Node000016_Node000020"><a xlink:title=" ">
<path fill="none" stroke="#63b8ff" d="M808.55,-539.16C808.79,-593.93 817.44,-774.06 917,-863 917.95,-863.85 918.92,-864.66 919.92,-865.44"/>
<polygon fill="#63b8ff" stroke="#63b8ff" points="917.95,-868.34 928.25,-870.83 921.75,-862.46 917.95,-868.34"/>
</a>
</g>
</g>
<!-- Node21 -->
<g id="Node000021" class="node">
<title>Node21</title>
<g id="a_Node000021"><a xlink:href="../../d5/d72/classLSM1x0A__LoRaWAN.html#a8494083816ab885cb07fc3b08de029f4" target="_top" xlink:title="Sets the LoRaWAN Device Address (DevAddr) for ABP mode.">
<polygon fill="white" stroke="#666666" points="1098,-854 929.75,-854 929.75,-834 1098,-834 1098,-854"/>
<text text-anchor="middle" x="1013.88" y="-840.5" font-family="Helvetica,sans-Serif" font-size="10.00">LSM1x0A_LoRaWAN::setDevAddr</text>
</a>
</g>
</g>
<!-- Node16&#45;&gt;Node21 -->
<g id="edge30_Node000016_Node000021" class="edge">
<title>Node16&#45;&gt;Node21</title>
<g id="a_edge30_Node000016_Node000021"><a xlink:title=" ">
<path fill="none" stroke="#63b8ff" d="M809.28,-539.15C811.87,-589.92 827.12,-747.57 917,-825 918.12,-825.97 919.28,-826.89 920.46,-827.77"/>
<polygon fill="#63b8ff" stroke="#63b8ff" points="918.48,-830.65 928.82,-832.93 922.15,-824.7 918.48,-830.65"/>
</a>
</g>
</g>
<!-- Node22 -->
<g id="Node000022" class="node">
<title>Node22</title>
<g id="a_Node000022"><a xlink:href="../../d5/d72/classLSM1x0A__LoRaWAN.html#ad320634e52d7ea907043cc50dd37c5b0" target="_top" xlink:title="Sets the LoRaWAN Device EUI (DevEUI).">
<polygon fill="white" stroke="#666666" points="1096.5,-816 931.25,-816 931.25,-796 1096.5,-796 1096.5,-816"/>
<text text-anchor="middle" x="1013.88" y="-802.5" font-family="Helvetica,sans-Serif" font-size="10.00">LSM1x0A_LoRaWAN::setDevEUI</text>
</a>
</g>
</g>
<!-- Node16&#45;&gt;Node22 -->
<g id="edge32_Node000016_Node000022" class="edge">
<title>Node16&#45;&gt;Node22</title>
<g id="a_edge32_Node000016_Node000022"><a xlink:title=" ">
<path fill="none" stroke="#63b8ff" d="M810.24,-539.44C815.39,-586.24 836.87,-721.05 917,-787 918.49,-788.22 920.03,-789.38 921.62,-790.46"/>
<polygon fill="#63b8ff" stroke="#63b8ff" points="919.48,-793.27 929.9,-795.21 922.97,-787.2 919.48,-793.27"/>
</a>
</g>
</g>
<!-- Node23 -->
<g id="Node000023" class="node">
<title>Node23</title>
<g id="a_Node000023"><a xlink:href="../../d5/d72/classLSM1x0A__LoRaWAN.html#a031023b0d2dd5db3c51c2db6ae7801cc" target="_top" xlink:title="Enables or disables the Duty Cycle limitation (EU regions mostly).">
<polygon fill="white" stroke="#666666" points="1089.38,-778 938.38,-778 938.38,-746 1089.38,-746 1089.38,-778"/>
<text text-anchor="start" x="946.38" y="-764.5" font-family="Helvetica,sans-Serif" font-size="10.00">LSM1x0A_LoRaWAN::setDuty</text>
<text text-anchor="middle" x="1013.88" y="-752.5" font-family="Helvetica,sans-Serif" font-size="10.00">Cycle</text>
</a>
</g>
</g>
<!-- Node16&#45;&gt;Node23 -->
<g id="edge34_Node000016_Node000023" class="edge">
<title>Node16&#45;&gt;Node23</title>
<g id="a_edge34_Node000016_Node000023"><a xlink:title=" ">
<path fill="none" stroke="#63b8ff" d="M812.15,-539.3C821.4,-579.44 850.89,-683.67 917,-737 920.44,-739.78 924.16,-742.25 928.06,-744.44"/>
<polygon fill="#63b8ff" stroke="#63b8ff" points="926.21,-747.44 936.73,-748.7 929.3,-741.15 926.21,-747.44"/>
</a>
</g>
</g>
<!-- Node24 -->
<g id="Node000024" class="node">
<title>Node24</title>
<g id="a_Node000024"><a xlink:href="../../d5/d72/classLSM1x0A__LoRaWAN.html#a6b179d5825c49af0f391dfc539912f64" target="_top" xlink:title="Sets the delay for the Join1 receive window.">
<polygon fill="white" stroke="#666666" points="1090.5,-728 937.25,-728 937.25,-696 1090.5,-696 1090.5,-728"/>
<text text-anchor="start" x="945.25" y="-714.5" font-family="Helvetica,sans-Serif" font-size="10.00">LSM1x0A_LoRaWAN::setJoin1</text>
<text text-anchor="middle" x="1013.88" y="-702.5" font-family="Helvetica,sans-Serif" font-size="10.00">Delay</text>
</a>
</g>
</g>
<!-- Node16&#45;&gt;Node24 -->
<g id="edge36_Node000016_Node000024" class="edge">
<title>Node16&#45;&gt;Node24</title>
<g id="a_edge36_Node000016_Node000024"><a xlink:title=" ">
<path fill="none" stroke="#63b8ff" d="M814.84,-539.39C828.06,-572.62 862.63,-648.08 917,-687 920.17,-689.27 923.54,-691.34 927.03,-693.21"/>
<polygon fill="#63b8ff" stroke="#63b8ff" points="925.28,-696.26 935.82,-697.38 928.28,-689.93 925.28,-696.26"/>
</a>
</g>
</g>
<!-- Node25 -->
<g id="Node000025" class="node">
<title>Node25</title>
<g id="a_Node000025"><a xlink:href="../../d5/d72/classLSM1x0A__LoRaWAN.html#a4545d0caad41558cdb9bae8286b104d8" target="_top" xlink:title="Sets the delay for the Join2 receive window.">
<polygon fill="white" stroke="#666666" points="1090.5,-678 937.25,-678 937.25,-646 1090.5,-646 1090.5,-678"/>
<text text-anchor="start" x="945.25" y="-664.5" font-family="Helvetica,sans-Serif" font-size="10.00">LSM1x0A_LoRaWAN::setJoin2</text>
<text text-anchor="middle" x="1013.88" y="-652.5" font-family="Helvetica,sans-Serif" font-size="10.00">Delay</text>
</a>
</g>
</g>
<!-- Node16&#45;&gt;Node25 -->
<g id="edge38_Node000016_Node000025" class="edge">
<title>Node16&#45;&gt;Node25</title>
<g id="a_edge38_Node000016_Node000025"><a xlink:title=" ">
<path fill="none" stroke="#63b8ff" d="M819.64,-539.33C837.15,-564.27 873.99,-611.61 917,-637 920.01,-638.78 923.15,-640.43 926.38,-641.97"/>
<polygon fill="#63b8ff" stroke="#63b8ff" points="924.98,-645.18 935.55,-645.9 927.74,-638.74 924.98,-645.18"/>
</a>
</g>
</g>
<!-- Node26 -->
<g id="Node000026" class="node">
<title>Node26</title>
<g id="a_Node000026"><a xlink:href="../../d5/d72/classLSM1x0A__LoRaWAN.html#a06bd50723ec1eb7e144c9141b2ec86fc" target="_top" xlink:title="Sets the LoRaWAN Network ID (NetID).">
<polygon fill="white" stroke="#666666" points="1094.25,-628 933.5,-628 933.5,-608 1094.25,-608 1094.25,-628"/>
<text text-anchor="middle" x="1013.88" y="-614.5" font-family="Helvetica,sans-Serif" font-size="10.00">LSM1x0A_LoRaWAN::setNwkID</text>
</a>
</g>
</g>
<!-- Node16&#45;&gt;Node26 -->
<g id="edge40_Node000016_Node000026" class="edge">
<title>Node16&#45;&gt;Node26</title>
<g id="a_edge40_Node000016_Node000026"><a xlink:title=" ">
<path fill="none" stroke="#63b8ff" d="M826.85,-539.34C847.26,-556.84 882.16,-584.11 917,-599 921.6,-600.97 926.41,-602.73 931.33,-604.32"/>
<polygon fill="#63b8ff" stroke="#63b8ff" points="930.17,-607.63 940.76,-607.08 932.14,-600.91 930.17,-607.63"/>
</a>
</g>
</g>
<!-- Node27 -->
<g id="Node000027" class="node">
<title>Node27</title>
<g id="a_Node000027"><a xlink:href="../../d5/d72/classLSM1x0A__LoRaWAN.html#aa70ada64d28ecca216bb62268e502adf" target="_top" xlink:title="Sets the delay for the RX1 receive window.">
<polygon fill="white" stroke="#666666" points="1100.62,-590 927.12,-590 927.12,-570 1100.62,-570 1100.62,-590"/>
<text text-anchor="middle" x="1013.88" y="-576.5" font-family="Helvetica,sans-Serif" font-size="10.00">LSM1x0A_LoRaWAN::setRx1Delay</text>
</a>
</g>
</g>
<!-- Node16&#45;&gt;Node27 -->
<g id="edge42_Node000016_Node000027" class="edge">
<title>Node16&#45;&gt;Node27</title>
<g id="a_edge42_Node000016_Node000027"><a xlink:title=" ">
<path fill="none" stroke="#63b8ff" d="M851.24,-539.49C871.02,-546.76 895,-554.99 917,-561 925.08,-563.21 933.61,-565.27 942.12,-567.16"/>
<polygon fill="#63b8ff" stroke="#63b8ff" points="941.25,-570.55 951.76,-569.23 942.72,-563.71 941.25,-570.55"/>
</a>
</g>
</g>
<!-- Node28 -->
<g id="Node000028" class="node">
<title>Node28</title>
<g id="a_Node000028"><a xlink:href="../../d5/d72/classLSM1x0A__LoRaWAN.html#a2cf4eff0181b6107d082bccefa24217b" target="_top" xlink:title="Sets the Data Rate (DR) specifically for the RX2 window.">
<polygon fill="white" stroke="#666666" points="1108.88,-552 918.88,-552 918.88,-532 1108.88,-532 1108.88,-552"/>
<text text-anchor="middle" x="1013.88" y="-538.5" font-family="Helvetica,sans-Serif" font-size="10.00">LSM1x0A_LoRaWAN::setRx2DataRate</text>
</a>
</g>
</g>
<!-- Node16&#45;&gt;Node28 -->
<g id="edge44_Node000016_Node000028" class="edge">
<title>Node16&#45;&gt;Node28</title>
<g id="a_edge44_Node000016_Node000028"><a xlink:title=" ">
<path fill="none" stroke="#63b8ff" d="M881.29,-529.75C889.66,-530.53 898.31,-531.34 907.01,-532.15"/>
<polygon fill="#63b8ff" stroke="#63b8ff" points="906.64,-535.63 916.93,-533.07 907.29,-528.66 906.64,-535.63"/>
</a>
</g>
</g>
<!-- Node29 -->
<g id="Node000029" class="node">
<title>Node29</title>
<g id="a_Node000029"><a xlink:href="../../d5/d72/classLSM1x0A__LoRaWAN.html#a42d2137b475b57e19d891a5f1ac93221" target="_top" xlink:title="Sets the delay for the RX2 receive window.">
<polygon fill="white" stroke="#666666" points="1100.62,-514 927.12,-514 927.12,-494 1100.62,-494 1100.62,-514"/>
<text text-anchor="middle" x="1013.88" y="-500.5" font-family="Helvetica,sans-Serif" font-size="10.00">LSM1x0A_LoRaWAN::setRx2Delay</text>
</a>
</g>
</g>
<!-- Node16&#45;&gt;Node29 -->
<g id="edge46_Node000016_Node000029" class="edge">
<title>Node16&#45;&gt;Node29</title>
<g id="a_edge46_Node000016_Node000029"><a xlink:title=" ">
<path fill="none" stroke="#63b8ff" d="M881.29,-516.25C892.49,-515.21 904.22,-514.11 915.85,-513.03"/>
<polygon fill="#63b8ff" stroke="#63b8ff" points="915.82,-516.55 925.45,-512.14 915.17,-509.58 915.82,-516.55"/>
</a>
</g>
</g>
<!-- Node30 -->
<g id="Node000030" class="node">
<title>Node30</title>
<g id="a_Node000030"><a xlink:href="../../d5/d72/classLSM1x0A__LoRaWAN.html#a689f7dfda1dfeae11ea397c2ddf2ad37" target="_top" xlink:title="Sets the precise frequency for the RX2 window.">
<polygon fill="white" stroke="#666666" points="1110.75,-476 917,-476 917,-456 1110.75,-456 1110.75,-476"/>
<text text-anchor="middle" x="1013.88" y="-462.5" font-family="Helvetica,sans-Serif" font-size="10.00">LSM1x0A_LoRaWAN::setRx2Frequency</text>
</a>
</g>
</g>
<!-- Node16&#45;&gt;Node30 -->
<g id="edge48_Node000016_Node000030" class="edge">
<title>Node16&#45;&gt;Node30</title>
<g id="a_edge48_Node000016_Node000030"><a xlink:title=" ">
<path fill="none" stroke="#63b8ff" d="M851.24,-506.51C871.02,-499.24 895,-491.01 917,-485 925.08,-482.79 933.61,-480.73 942.12,-478.84"/>
<polygon fill="#63b8ff" stroke="#63b8ff" points="942.72,-482.29 951.76,-476.77 941.25,-475.45 942.72,-482.29"/>
</a>
</g>
</g>
<!-- Node31 -->
<g id="Node000031" class="node">
<title>Node31</title>
<g id="a_Node000031"><a xlink:href="../../d5/d72/classLSM1x0A__LoRaWAN.html#a1df10d7ae6bf45b537d28d3d5c4b88d7" target="_top" xlink:title="Sets the transmission power index.">
<polygon fill="white" stroke="#666666" points="1098.38,-438 929.38,-438 929.38,-418 1098.38,-418 1098.38,-438"/>
<text text-anchor="middle" x="1013.88" y="-424.5" font-family="Helvetica,sans-Serif" font-size="10.00">LSM1x0A_LoRaWAN::setTxPower</text>
</a>
</g>
</g>
<!-- Node16&#45;&gt;Node31 -->
<g id="edge50_Node000016_Node000031" class="edge">
<title>Node16&#45;&gt;Node31</title>
<g id="a_edge50_Node000016_Node000031"><a xlink:title=" ">
<path fill="none" stroke="#63b8ff" d="M826.85,-506.66C847.26,-489.16 882.16,-461.89 917,-447 921.6,-445.03 926.41,-443.27 931.33,-441.68"/>
<polygon fill="#63b8ff" stroke="#63b8ff" points="932.14,-445.09 940.76,-438.92 930.17,-438.37 932.14,-445.09"/>
</a>
</g>
</g>
<!-- Node32 -->
<g id="Node000032" class="node">
<title>Node32</title>
<g id="a_Node000032"><a xlink:href="../../d5/d72/classLSM1x0A__LoRaWAN.html#a059fd6a9356c4ecadd5a98294da5952d" target="_top" xlink:title="Configures the number of repetitions for Unconfirmed uplinks.">
<polygon fill="white" stroke="#666666" points="1101.38,-400 926.38,-400 926.38,-368 1101.38,-368 1101.38,-400"/>
<text text-anchor="start" x="934.38" y="-386.5" font-family="Helvetica,sans-Serif" font-size="10.00">LSM1x0A_LoRaWAN::setUnconfirm</text>
<text text-anchor="middle" x="1013.88" y="-374.5" font-family="Helvetica,sans-Serif" font-size="10.00">Retry</text>
</a>
</g>
</g>
<!-- Node16&#45;&gt;Node32 -->
<g id="edge52_Node000016_Node000032" class="edge">
<title>Node16&#45;&gt;Node32</title>
<g id="a_edge52_Node000016_Node000032"><a xlink:title=" ">
<path fill="none" stroke="#63b8ff" d="M819.64,-506.67C837.15,-481.73 873.99,-434.39 917,-409 919.31,-407.64 921.7,-406.34 924.14,-405.12"/>
<polygon fill="#63b8ff" stroke="#63b8ff" points="925.4,-408.4 933.08,-401.1 922.53,-402.01 925.4,-408.4"/>
</a>
</g>
</g>
<!-- Node17&#45;&gt;Node10 -->
<g id="edge22_Node000017_Node000010" class="edge">
<title>Node17&#45;&gt;Node10</title>
<g id="a_edge22_Node000017_Node000010"><a xlink:title=" ">
<path fill="none" stroke="#63b8ff" d="M1090.15,-348.53C1097.47,-351.2 1104.49,-354.62 1110.75,-359 1166.34,-397.86 1199.19,-474.26 1213.49,-514.97"/>
<polygon fill="#63b8ff" stroke="#63b8ff" points="1210.11,-515.89 1216.62,-524.24 1216.74,-513.65 1210.11,-515.89"/>
</a>
</g>
</g>
<!-- Node18&#45;&gt;Node10 -->
<g id="edge24_Node000018_Node000010" class="edge">
<title>Node18&#45;&gt;Node10</title>
<g id="a_edge24_Node000018_Node000010"><a xlink:title=" ">
<path fill="none" stroke="#63b8ff" d="M1090.52,-310.03C1097.77,-312.79 1104.67,-316.38 1110.75,-321 1175.37,-370.13 1205.21,-467.16 1216.41,-514.6"/>
<polygon fill="#63b8ff" stroke="#63b8ff" points="1212.92,-515.06 1218.53,-524.05 1219.75,-513.53 1212.92,-515.06"/>
</a>
</g>
</g>
<!-- Node19&#45;&gt;Node10 -->
<g id="edge27_Node000019_Node000010" class="edge">
<title>Node19&#45;&gt;Node10</title>
<g id="a_edge27_Node000019_Node000010"><a xlink:title=" ">
<path fill="none" stroke="#63b8ff" d="M1096.58,-273.44C1101.66,-276.14 1106.45,-279.3 1110.75,-283 1182.7,-344.86 1209.48,-461.59 1218.24,-514.59"/>
<polygon fill="#63b8ff" stroke="#63b8ff" points="1214.75,-514.92 1219.74,-524.26 1221.67,-513.84 1214.75,-514.92"/>
</a>
</g>
</g>
<!-- Node20&#45;&gt;Node10 -->
<g id="edge29_Node000020_Node000010" class="edge">
<title>Node20&#45;&gt;Node10</title>
<g id="a_edge29_Node000020_Node000010"><a xlink:title=" ">
<path fill="none" stroke="#63b8ff" d="M1098.19,-871.6C1102.7,-869.21 1106.94,-866.37 1110.75,-863 1148.98,-829.22 1130.22,-802.26 1146.75,-754 1169.56,-687.42 1197.55,-609.52 1212.12,-569.23"/>
<polygon fill="#63b8ff" stroke="#63b8ff" points="1215.39,-570.47 1215.51,-559.87 1208.81,-568.08 1215.39,-570.47"/>
</a>
</g>
</g>
<!-- Node21&#45;&gt;Node10 -->
<g id="edge31_Node000021_Node000010" class="edge">
<title>Node21&#45;&gt;Node10</title>
<g id="a_edge31_Node000021_Node000010"><a xlink:title=" ">
<path fill="none" stroke="#63b8ff" d="M1097.52,-833.58C1102.25,-831.21 1106.71,-828.37 1110.75,-825 1131.53,-807.64 1190.44,-636.39 1213.03,-569.02"/>
<polygon fill="#63b8ff" stroke="#63b8ff" points="1216.24,-570.45 1216.09,-559.86 1209.6,-568.24 1216.24,-570.45"/>
</a>
</g>
</g>
<!-- Node22&#45;&gt;Node10 -->
<g id="edge33_Node000022_Node000010" class="edge">
<title>Node22&#45;&gt;Node10</title>
<g id="a_edge33_Node000022_Node000010"><a xlink:title=" ">
<path fill="none" stroke="#63b8ff" d="M1096.86,-795.56C1101.8,-793.2 1106.49,-790.37 1110.75,-787 1181.25,-731.13 1208.64,-620.69 1217.88,-569.39"/>
<polygon fill="#63b8ff" stroke="#63b8ff" points="1221.29,-570.18 1219.51,-559.74 1214.39,-569.01 1221.29,-570.18"/>
</a>
</g>
</g>
<!-- Node23&#45;&gt;Node10 -->
<g id="edge35_Node000023_Node000010" class="edge">
<title>Node23&#45;&gt;Node10</title>
<g id="a_edge35_Node000023_Node000010"><a xlink:title=" ">
<path fill="none" stroke="#63b8ff" d="M1089.41,-749.05C1097.04,-745.87 1104.33,-741.92 1110.75,-737 1167.74,-693.34 1200.31,-611.57 1214.1,-569.12"/>
<polygon fill="#63b8ff" stroke="#63b8ff" points="1217.4,-570.29 1217.05,-559.7 1210.72,-568.2 1217.4,-570.29"/>
</a>
</g>
</g>
<!-- Node24&#45;&gt;Node10 -->
<g id="edge37_Node000024_Node000010" class="edge">
<title>Node24&#45;&gt;Node10</title>
<g id="a_edge37_Node000024_Node000010"><a xlink:title=" ">
<path fill="none" stroke="#63b8ff" d="M1090.74,-697.37C1097.79,-694.51 1104.59,-691.09 1110.75,-687 1156.56,-656.61 1191.32,-600.94 1209,-568.13"/>
<polygon fill="#63b8ff" stroke="#63b8ff" points="1211.89,-570.16 1213.43,-559.68 1205.69,-566.91 1211.89,-570.16"/>
</a>
</g>
</g>
<!-- Node25&#45;&gt;Node10 -->
<g id="edge39_Node000025_Node000010" class="edge">
<title>Node25&#45;&gt;Node10</title>
<g id="a_edge39_Node000025_Node000010"><a xlink:title=" ">
<path fill="none" stroke="#63b8ff" d="M1090.93,-645.62C1097.79,-643.12 1104.5,-640.26 1110.75,-637 1145.54,-618.85 1178.85,-588.01 1199.81,-566.4"/>
<polygon fill="#63b8ff" stroke="#63b8ff" points="1202.08,-569.1 1206.43,-559.44 1197,-564.27 1202.08,-569.1"/>
</a>
</g>
</g>
<!-- Node26&#45;&gt;Node10 -->
<g id="edge41_Node000026_Node000010" class="edge">
<title>Node26&#45;&gt;Node10</title>
<g id="a_edge41_Node000026_Node000010"><a xlink:title=" ">
<path fill="none" stroke="#63b8ff" d="M1080.51,-607.52C1090.76,-605.16 1101.13,-602.34 1110.75,-599 1136.82,-589.94 1164.45,-575.81 1185.65,-563.89"/>
<polygon fill="#63b8ff" stroke="#63b8ff" points="1187.25,-567 1194.19,-559 1183.77,-560.93 1187.25,-567"/>
</a>
</g>
</g>
<!-- Node27&#45;&gt;Node10 -->
<g id="edge43_Node000027_Node000010" class="edge">
<title>Node27&#45;&gt;Node10</title>
<g id="a_edge43_Node000027_Node000010"><a xlink:title=" ">
<path fill="none" stroke="#63b8ff" d="M1072.02,-569.52C1098.86,-564.59 1130.94,-558.71 1158.53,-553.64"/>
<polygon fill="#63b8ff" stroke="#63b8ff" points="1158.96,-557.12 1168.16,-551.88 1157.69,-550.24 1158.96,-557.12"/>
</a>
</g>
</g>
<!-- Node28&#45;&gt;Node10 -->
<g id="edge45_Node000028_Node000010" class="edge">
<title>Node28&#45;&gt;Node10</title>
<g id="a_edge45_Node000028_Node000010"><a xlink:title=" ">
<path fill="none" stroke="#63b8ff" d="M1109.35,-542C1125.84,-542 1142.64,-542 1158.07,-542"/>
<polygon fill="#63b8ff" stroke="#63b8ff" points="1158.05,-545.5 1168.05,-542 1158.05,-538.5 1158.05,-545.5"/>
</a>
</g>
</g>
<!-- Node29&#45;&gt;Node10 -->
<g id="edge47_Node000029_Node000010" class="edge">
<title>Node29&#45;&gt;Node10</title>
<g id="a_edge47_Node000029_Node000010"><a xlink:title=" ">
<path fill="none" stroke="#63b8ff" d="M1072.02,-514.48C1098.86,-519.41 1130.94,-525.29 1158.53,-530.36"/>
<polygon fill="#63b8ff" stroke="#63b8ff" points="1157.69,-533.76 1168.16,-532.12 1158.96,-526.88 1157.69,-533.76"/>
</a>
</g>
</g>
<!-- Node30&#45;&gt;Node10 -->
<g id="edge49_Node000030_Node000010" class="edge">
<title>Node30&#45;&gt;Node10</title>
<g id="a_edge49_Node000030_Node000010"><a xlink:title=" ">
<path fill="none" stroke="#63b8ff" d="M1080.51,-476.48C1090.76,-478.84 1101.13,-481.66 1110.75,-485 1136.82,-494.06 1164.45,-508.19 1185.65,-520.11"/>
<polygon fill="#63b8ff" stroke="#63b8ff" points="1183.77,-523.07 1194.19,-525 1187.25,-517 1183.77,-523.07"/>
</a>
</g>
</g>
<!-- Node31&#45;&gt;Node10 -->
<g id="edge51_Node000031_Node000010" class="edge">
<title>Node31&#45;&gt;Node10</title>
<g id="a_edge51_Node000031_Node000010"><a xlink:title=" ">
<path fill="none" stroke="#63b8ff" d="M1088.14,-438.43C1095.96,-440.74 1103.65,-443.56 1110.75,-447 1146.26,-464.21 1179.65,-495.52 1200.41,-517.48"/>
<polygon fill="#63b8ff" stroke="#63b8ff" points="1197.6,-519.6 1206.96,-524.57 1202.74,-514.85 1197.6,-519.6"/>
</a>
</g>
</g>
<!-- Node32&#45;&gt;Node10 -->
<g id="edge53_Node000032_Node000010" class="edge">
<title>Node32&#45;&gt;Node10</title>
<g id="a_edge53_Node000032_Node000010"><a xlink:title=" ">
<path fill="none" stroke="#63b8ff" d="M1094,-400.31C1099.86,-402.81 1105.52,-405.69 1110.75,-409 1153.74,-436.23 1188.47,-485.5 1207.1,-515.83"/>
<polygon fill="#63b8ff" stroke="#63b8ff" points="1204.09,-517.61 1212.23,-524.4 1210.1,-514.02 1204.09,-517.61"/>
</a>
</g>
</g>
<!-- Node34&#45;&gt;Node11 -->
<g id="edge56_Node000034_Node000011" class="edge">
<title>Node34&#45;&gt;Node11</title>
<g id="a_edge56_Node000034_Node000011"><a xlink:title=" ">
<path fill="none" stroke="#63b8ff" d="M1237.57,-762.71C1272.94,-720.24 1367.84,-606.28 1405.58,-560.97"/>
<polygon fill="#63b8ff" stroke="#63b8ff" points="1408.05,-563.47 1411.76,-553.55 1402.67,-558.99 1408.05,-563.47"/>
</a>
</g>
</g>
</g>
</svg>
