<?xml version="1.0" encoding="UTF-8" standalone="no"?>
<!DOCTYPE svg PUBLIC "-//W3C//DTD SVG 1.1//EN"
 "http://www.w3.org/Graphics/SVG/1.1/DTD/svg11.dtd">
<!-- Generated by graphviz version 12.2.1 (20241206.2353)
 -->
<!-- Title: LSM1x0A_LoRaWAN::setCertificationMode Pages: 1 -->
<svg width="1337pt" height="1143pt"
 viewBox="0.00 0.00 1337.25 1143.11" xmlns="http://www.w3.org/2000/svg" xmlns:xlink="http://www.w3.org/1999/xlink">
<g id="graph0" class="graph" transform="scale(1 1) rotate(0) translate(4 1139.11)">
<title>LSM1x0A_LoRaWAN::setCertificationMode</title>
<!-- Node1 -->
<g id="Node000001" class="node">
<title>Node1</title>
<g id="a_Node000001"><a xlink:title="Enters LoRaWAN certification mode.">
<polygon fill="#999999" stroke="#666666" points="206.5,-490.95 0,-490.95 0,-470.95 206.5,-470.95 206.5,-490.95"/>
<text text-anchor="middle" x="103.25" y="-477.45" font-family="Helvetica,sans-Serif" font-size="10.00">LSM1x0A_LoRaWAN::setCertificationMode</text>
</a>
</g>
</g>
<!-- Node2 -->
<g id="Node000002" class="node">
<title>Node2</title>
<g id="a_Node000002"><a xlink:href="../../d8/d92/classLSM1x0A__Controller.html#afd7d92e60ed6fdae696a955cdbe0ed8c" target="_top" xlink:title="Sends any AT command to the module, returning error if it fails. Internally uses the LsmAtParser logi...">
<polygon fill="white" stroke="#666666" points="348.5,-496.95 242.5,-496.95 242.5,-464.95 348.5,-464.95 348.5,-496.95"/>
<text text-anchor="start" x="250.5" y="-483.45" font-family="Helvetica,sans-Serif" font-size="10.00">LSM1x0A_Controller</text>
<text text-anchor="middle" x="295.5" y="-471.45" font-family="Helvetica,sans-Serif" font-size="10.00">::sendCommand</text>
</a>
</g>
</g>
<!-- Node1&#45;&gt;Node2 -->
<g id="edge1_Node000001_Node000002" class="edge">
<title>Node1&#45;&gt;Node2</title>
<g id="a_edge1_Node000001_Node000002"><a xlink:title=" ">
<path fill="none" stroke="#63b8ff" d="M206.89,-480.95C215.15,-480.95 223.32,-480.95 231.18,-480.95"/>
<polygon fill="#63b8ff" stroke="#63b8ff" points="230.9,-484.45 240.9,-480.95 230.9,-477.45 230.9,-484.45"/>
</a>
</g>
</g>
<!-- Node3 -->
<g id="Node000003" class="node">
<title>Node3</title>
<g id="a_Node000003"><a xlink:href="../../d8/d92/classLSM1x0A__Controller.html#abb0eb380daa3dfb7acffb483c5db8e2b" target="_top" xlink:title="Executes the recovery protocol. First Soft&#45;Reset (ATZ), then Hard&#45;Reset if there is a pin.">
<polygon fill="white" stroke="#666666" points="490.5,-938.95 384.5,-938.95 384.5,-906.95 490.5,-906.95 490.5,-938.95"/>
<text text-anchor="start" x="392.5" y="-925.45" font-family="Helvetica,sans-Serif" font-size="10.00">LSM1x0A_Controller</text>
<text text-anchor="middle" x="437.5" y="-913.45" font-family="Helvetica,sans-Serif" font-size="10.00">::recoverModule</text>
</a>
</g>
</g>
<!-- Node2&#45;&gt;Node3 -->
<g id="edge2_Node000002_Node000003" class="edge">
<title>Node2&#45;&gt;Node3</title>
<g id="a_edge2_Node000002_Node000003"><a xlink:title=" ">
<path fill="none" stroke="#63b8ff" d="M300.05,-497.39C310.61,-545.46 343.66,-689.56 384.5,-804.95 395.85,-837.01 412.04,-872.58 423.33,-896.2"/>
<polygon fill="#63b8ff" stroke="#63b8ff" points="420.13,-897.62 427.63,-905.1 426.43,-894.57 420.13,-897.62"/>
</a>
</g>
</g>
<!-- Node31 -->
<g id="Node000031" class="node">
<title>Node31</title>
<g id="a_Node000031"><a xlink:href="../../d6/d3c/classLSM1x0A__AtParser.html#a29b53c521974387ba6c03afadfaffa4a" target="_top" xlink:title="Sends a simple command and waits for OK/ERROR. Example: sendCommand(&quot;AT+JOIN&quot;);.">
<polygon fill="white" stroke="#666666" points="905,-1118.95 730.75,-1118.95 730.75,-1098.95 905,-1098.95 905,-1118.95"/>
<text text-anchor="middle" x="817.88" y="-1105.45" font-family="Helvetica,sans-Serif" font-size="10.00">LSM1x0A_AtParser::sendCommand</text>
</a>
</g>
</g>
<!-- Node2&#45;&gt;Node31 -->
<g id="edge55_Node000002_Node000031" class="edge">
<title>Node2&#45;&gt;Node31</title>
<g id="a_edge55_Node000002_Node000031"><a xlink:title=" ">
<path fill="none" stroke="#63b8ff" d="M296.56,-497.2C297.38,-559.15 305.92,-785.25 384.5,-947.95 426.43,-1034.77 438.81,-1071.88 526.5,-1111.95 604.26,-1147.48 706.41,-1134.62 766.52,-1121.89"/>
<polygon fill="#63b8ff" stroke="#63b8ff" points="767.11,-1125.34 776.12,-1119.77 765.6,-1118.51 767.11,-1125.34"/>
</a>
</g>
</g>
<!-- Node4 -->
<g id="Node000004" class="node">
<title>Node4</title>
<g id="a_Node000004"><a xlink:href="../../d8/d92/classLSM1x0A__Controller.html#a3f6f25b843fe4fb7042c544deae2ab16" target="_top" xlink:title="Manually clears bits from the internal EventGroup.">
<polygon fill="white" stroke="#666666" points="1098.75,-957.95 992.75,-957.95 992.75,-925.95 1098.75,-925.95 1098.75,-957.95"/>
<text text-anchor="start" x="1000.75" y="-944.45" font-family="Helvetica,sans-Serif" font-size="10.00">LSM1x0A_Controller</text>
<text text-anchor="middle" x="1045.75" y="-932.45" font-family="Helvetica,sans-Serif" font-size="10.00">::clearEvents</text>
</a>
</g>
</g>
<!-- Node3&#45;&gt;Node4 -->
<g id="edge3_Node000003_Node000004" class="edge">
<title>Node3&#45;&gt;Node4</title>
<g id="a_edge3_Node000003_Node000004"><a xlink:title=" ">
<path fill="none" stroke="#63b8ff" d="M454.58,-939.29C471,-954.72 498.06,-976.82 526.5,-985.95 686.07,-1037.18 886.66,-991 984.93,-961.72"/>
<polygon fill="#63b8ff" stroke="#63b8ff" points="985.82,-965.11 994.37,-958.86 983.79,-958.41 985.82,-965.11"/>
</a>
</g>
</g>
<!-- Node5 -->
<g id="Node000005" class="node">
<title>Node5</title>
<g id="a_Node000005"><a xlink:href="../../d8/d92/classLSM1x0A__Controller.html#a345d4bd79fa16b18dc33a4ca788fe5f7" target="_top" xlink:title="Performs a hardware reset using the reset pin.">
<polygon fill="white" stroke="#666666" points="658.75,-938.95 552.75,-938.95 552.75,-906.95 658.75,-906.95 658.75,-938.95"/>
<text text-anchor="start" x="560.75" y="-925.45" font-family="Helvetica,sans-Serif" font-size="10.00">LSM1x0A_Controller</text>
<text text-anchor="middle" x="605.75" y="-913.45" font-family="Helvetica,sans-Serif" font-size="10.00">::hardwareReset</text>
</a>
</g>
</g>
<!-- Node3&#45;&gt;Node5 -->
<g id="edge4_Node000003_Node000005" class="edge">
<title>Node3&#45;&gt;Node5</title>
<g id="a_edge4_Node000003_Node000005"><a xlink:title=" ">
<path fill="none" stroke="#63b8ff" d="M490.65,-922.95C506.66,-922.95 524.47,-922.95 541.16,-922.95"/>
<polygon fill="#63b8ff" stroke="#63b8ff" points="540.99,-926.45 550.99,-922.95 540.99,-919.45 540.99,-926.45"/>
</a>
</g>
</g>
<!-- Node7 -->
<g id="Node000007" class="node">
<title>Node7</title>
<g id="a_Node000007"><a xlink:href="../../d5/d72/classLSM1x0A__LoRaWAN.html#a1892801e37c8cd67d37c76108d6f7d49" target="_top" xlink:title="Validates if the device is currently Joined to the network. (Either confirmed by OTAA or statically a...">
<polygon fill="white" stroke="#666666" points="1329.25,-926.95 1176.75,-926.95 1176.75,-906.95 1329.25,-906.95 1329.25,-926.95"/>
<text text-anchor="middle" x="1253" y="-913.45" font-family="Helvetica,sans-Serif" font-size="10.00">LSM1x0A_LoRaWAN::isJoined</text>
</a>
</g>
</g>
<!-- Node3&#45;&gt;Node7 -->
<g id="edge6_Node000003_Node000007" class="edge">
<title>Node3&#45;&gt;Node7</title>
<g id="a_edge6_Node000003_Node000007"><a xlink:title=" ">
<path fill="none" stroke="#63b8ff" d="M484.44,-939.25C486.58,-940.7 488.61,-942.26 490.5,-943.95 515.67,-966.51 497.49,-993.6 526.5,-1010.95 537.2,-1017.34 852.66,-1014.94 914.75,-1008.95 1016.44,-999.13 1043.24,-997.44 1140.75,-966.95 1169.58,-957.93 1200.83,-943.44 1222.84,-932.37"/>
<polygon fill="#63b8ff" stroke="#63b8ff" points="1224.2,-935.61 1231.51,-927.94 1221.01,-929.38 1224.2,-935.61"/>
</a>
</g>
</g>
<!-- Node8 -->
<g id="Node000008" class="node">
<title>Node8</title>
<g id="a_Node000008"><a xlink:href="../../d5/d72/classLSM1x0A__LoRaWAN.html#a83e11c0e74ff9e0757db616ab1163424" target="_top" xlink:title="Attempts to recover a lost connection (re&#45;executes OTAA Join if dropped).">
<polygon fill="white" stroke="#666666" points="680.12,-850.95 531.38,-850.95 531.38,-818.95 680.12,-818.95 680.12,-850.95"/>
<text text-anchor="start" x="539.38" y="-837.45" font-family="Helvetica,sans-Serif" font-size="10.00">LSM1x0A_LoRaWAN::recover</text>
<text text-anchor="middle" x="605.75" y="-825.45" font-family="Helvetica,sans-Serif" font-size="10.00">Connection</text>
</a>
</g>
</g>
<!-- Node3&#45;&gt;Node8 -->
<g id="edge7_Node000003_Node000008" class="edge">
<title>Node3&#45;&gt;Node8</title>
<g id="a_edge7_Node000003_Node000008"><a xlink:title=" ">
<path fill="none" stroke="#63b8ff" d="M460.47,-906.53C477.8,-894.07 502.9,-877.07 526.5,-864.95 532.79,-861.72 539.5,-858.64 546.26,-855.76"/>
<polygon fill="#63b8ff" stroke="#63b8ff" points="547.53,-859.02 555.46,-851.99 544.88,-852.55 547.53,-859.02"/>
</a>
</g>
</g>
<!-- Node12 -->
<g id="Node000012" class="node">
<title>Node12</title>
<g id="a_Node000012"><a xlink:href="../../d5/d72/classLSM1x0A__LoRaWAN.html#ae3be4ce59dfa200369733317df356e97" target="_top" xlink:title="Pushes the RAM&#45;cached variables back down into the hardware module. Restores the operational state af...">
<polygon fill="white" stroke="#666666" points="679,-496.95 532.5,-496.95 532.5,-464.95 679,-464.95 679,-496.95"/>
<text text-anchor="start" x="540.5" y="-483.45" font-family="Helvetica,sans-Serif" font-size="10.00">LSM1x0A_LoRaWAN::restore</text>
<text text-anchor="middle" x="605.75" y="-471.45" font-family="Helvetica,sans-Serif" font-size="10.00">Config</text>
</a>
</g>
</g>
<!-- Node3&#45;&gt;Node12 -->
<g id="edge16_Node000003_Node000012" class="edge">
<title>Node3&#45;&gt;Node12</title>
<g id="a_edge16_Node000003_Node000012"><a xlink:title=" ">
<path fill="none" stroke="#63b8ff" d="M444.61,-906.69C469.51,-840.5 563.42,-590.84 594.61,-507.91"/>
<polygon fill="#63b8ff" stroke="#63b8ff" points="597.8,-509.36 598.05,-498.77 591.25,-506.9 597.8,-509.36"/>
</a>
</g>
</g>
<!-- Node29 -->
<g id="Node000029" class="node">
<title>Node29</title>
<g id="a_Node000029"><a xlink:href="../../d5/d72/classLSM1x0A__LoRaWAN.html#ace4b04396f1de1f4a54f513f5f378db7" target="_top" xlink:title="Manually overrides the internal joined state tracker.">
<polygon fill="white" stroke="#666666" points="685,-976.95 526.5,-976.95 526.5,-956.95 685,-956.95 685,-976.95"/>
<text text-anchor="middle" x="605.75" y="-963.45" font-family="Helvetica,sans-Serif" font-size="10.00">LSM1x0A_LoRaWAN::setJoined</text>
</a>
</g>
</g>
<!-- Node3&#45;&gt;Node29 -->
<g id="edge50_Node000003_Node000029" class="edge">
<title>Node3&#45;&gt;Node29</title>
<g id="a_edge50_Node000003_Node000029"><a xlink:title=" ">
<path fill="none" stroke="#63b8ff" d="M490.99,-938.22C502.66,-941.51 514.98,-944.91 526.5,-947.95 533.86,-949.89 541.62,-951.86 549.29,-953.76"/>
<polygon fill="#63b8ff" stroke="#63b8ff" points="548.38,-957.14 558.93,-956.13 550.05,-950.35 548.38,-957.14"/>
</a>
</g>
</g>
<!-- Node30 -->
<g id="Node000030" class="node">
<title>Node30</title>
<g id="a_Node000030"><a xlink:href="../../d8/d92/classLSM1x0A__Controller.html#a11ad21cb5ca33ec51346764a23bd485e" target="_top" xlink:title="Performs a software reset (ATZ Command).">
<polygon fill="white" stroke="#666666" points="658.75,-1102.95 552.75,-1102.95 552.75,-1070.95 658.75,-1070.95 658.75,-1102.95"/>
<text text-anchor="start" x="560.75" y="-1089.45" font-family="Helvetica,sans-Serif" font-size="10.00">LSM1x0A_Controller</text>
<text text-anchor="middle" x="605.75" y="-1077.45" font-family="Helvetica,sans-Serif" font-size="10.00">::softwareReset</text>
</a>
</g>
</g>
<!-- Node3&#45;&gt;Node30 -->
<g id="edge51_Node000003_Node000030" class="edge">
<title>Node3&#45;&gt;Node30</title>
<g id="a_edge51_Node000003_Node000030"><a xlink:title=" ">
<path fill="none" stroke="#63b8ff" d="M445.2,-939.34C457.39,-967.25 485.75,-1024.13 526.5,-1056.95 531.32,-1060.83 536.69,-1064.24 542.3,-1067.25"/>
<polygon fill="#63b8ff" stroke="#63b8ff" points="540.71,-1070.36 551.23,-1071.55 543.75,-1064.06 540.71,-1070.36"/>
</a>
</g>
</g>
<!-- Node6 -->
<g id="Node000006" class="node">
<title>Node6</title>
<g id="a_Node000006"><a xlink:href="../../d6/d3c/classLSM1x0A__AtParser.html#ad2839120da13e56132b95019419be1e5" target="_top" xlink:title="Waits for an event (like BOOTALERT) without sending any command. Useful for hardware reset where the ...">
<polygon fill="white" stroke="#666666" points="888.12,-938.95 747.62,-938.95 747.62,-906.95 888.12,-906.95 888.12,-938.95"/>
<text text-anchor="start" x="755.62" y="-925.45" font-family="Helvetica,sans-Serif" font-size="10.00">LSM1x0A_AtParser::waitFor</text>
<text text-anchor="middle" x="817.88" y="-913.45" font-family="Helvetica,sans-Serif" font-size="10.00">Event</text>
</a>
</g>
</g>
<!-- Node5&#45;&gt;Node6 -->
<g id="edge5_Node000005_Node000006" class="edge">
<title>Node5&#45;&gt;Node6</title>
<g id="a_edge5_Node000005_Node000006"><a xlink:title=" ">
<path fill="none" stroke="#63b8ff" d="M659.23,-922.95C682.42,-922.95 710.22,-922.95 735.96,-922.95"/>
<polygon fill="#63b8ff" stroke="#63b8ff" points="735.72,-926.45 745.72,-922.95 735.72,-919.45 735.72,-926.45"/>
</a>
</g>
</g>
<!-- Node9 -->
<g id="Node000009" class="node">
<title>Node9</title>
<g id="a_Node000009"><a xlink:href="../../d5/d72/classLSM1x0A__LoRaWAN.html#a59f781f3cfd30c11cd3973bcb10a7baa" target="_top" xlink:title="Initiates a LoRaWAN Network Join procedure. This is a blocking function until the module fires an eve...">
<polygon fill="white" stroke="#666666" points="883.62,-844.95 752.12,-844.95 752.12,-824.95 883.62,-824.95 883.62,-844.95"/>
<text text-anchor="middle" x="817.88" y="-831.45" font-family="Helvetica,sans-Serif" font-size="10.00">LSM1x0A_LoRaWAN::join</text>
</a>
</g>
</g>
<!-- Node8&#45;&gt;Node9 -->
<g id="edge8_Node000008_Node000009" class="edge">
<title>Node8&#45;&gt;Node9</title>
<g id="a_edge8_Node000008_Node000009"><a xlink:title=" ">
<path fill="none" stroke="#63b8ff" d="M680.54,-834.95C699.91,-834.95 720.85,-834.95 740.36,-834.95"/>
<polygon fill="#63b8ff" stroke="#63b8ff" points="740.15,-838.45 750.15,-834.95 740.15,-831.45 740.15,-838.45"/>
</a>
</g>
</g>
<!-- Node9&#45;&gt;Node2 -->
<g id="edge11_Node000009_Node000002" class="edge">
<title>Node9&#45;&gt;Node2</title>
<g id="a_edge11_Node000009_Node000002"><a xlink:title=" ">
<path fill="none" stroke="#63b8ff" d="M763.65,-824.5C705.02,-812.53 608.23,-791.38 526.5,-766.95 462.11,-747.69 432.23,-762.27 384.5,-714.95 326.23,-657.18 306.03,-557.13 299.45,-508.74"/>
<polygon fill="#63b8ff" stroke="#63b8ff" points="302.93,-508.33 298.22,-498.84 295.98,-509.2 302.93,-508.33"/>
</a>
</g>
</g>
<!-- Node9&#45;&gt;Node3 -->
<g id="edge10_Node000009_Node000003" class="edge">
<title>Node9&#45;&gt;Node3</title>
<g id="a_edge10_Node000009_Node000003"><a xlink:title=" ">
<path fill="none" stroke="#63b8ff" d="M763.65,-845.44C705.24,-857.21 608.82,-877.35 526.5,-897.95 518.56,-899.94 510.24,-902.14 502.03,-904.39"/>
<polygon fill="#63b8ff" stroke="#63b8ff" points="501.09,-901.01 492.4,-907.06 502.97,-907.76 501.09,-901.01"/>
</a>
</g>
</g>
<!-- Node9&#45;&gt;Node4 -->
<g id="edge9_Node000009_Node000004" class="edge">
<title>Node9&#45;&gt;Node4</title>
<g id="a_edge9_Node000009_Node000004"><a xlink:title=" ">
<path fill="none" stroke="#63b8ff" d="M840.94,-845.4C877.66,-862.79 951.98,-898 1000.01,-920.75"/>
<polygon fill="#63b8ff" stroke="#63b8ff" points="998.22,-923.78 1008.76,-924.9 1001.22,-917.45 998.22,-923.78"/>
</a>
</g>
</g>
<!-- Node10 -->
<g id="Node000010" class="node">
<title>Node10</title>
<g id="a_Node000010"><a xlink:href="../../d5/d72/classLSM1x0A__LoRaWAN.html#a3fdd1ac318a5ad2559323e5d57e36a5e" target="_top" xlink:title="Enables or disables specific sub&#45;bands for regions supporting Channel Masks (e.g.,...">
<polygon fill="white" stroke="#666666" points="1140.75,-654.95 950.75,-654.95 950.75,-634.95 1140.75,-634.95 1140.75,-654.95"/>
<text text-anchor="middle" x="1045.75" y="-641.45" font-family="Helvetica,sans-Serif" font-size="10.00">LSM1x0A_LoRaWAN::setChannelMask</text>
</a>
</g>
</g>
<!-- Node9&#45;&gt;Node10 -->
<g id="edge12_Node000009_Node000010" class="edge">
<title>Node9&#45;&gt;Node10</title>
<g id="a_edge12_Node000009_Node000010"><a xlink:title=" ">
<path fill="none" stroke="#63b8ff" d="M878.18,-824.45C890.9,-820.55 903.8,-815.22 914.75,-807.95 971.62,-770.19 1015.25,-699.61 1034.29,-665.05"/>
<polygon fill="#63b8ff" stroke="#63b8ff" points="1037.22,-666.98 1038.87,-656.52 1031.05,-663.67 1037.22,-666.98"/>
</a>
</g>
</g>
<!-- Node11 -->
<g id="Node000011" class="node">
<title>Node11</title>
<g id="a_Node000011"><a xlink:href="../../d8/d92/classLSM1x0A__Controller.html#a62476e30e50c7fe120aeb8df4b828675" target="_top" xlink:title="Synchronously/blockingly waits for an asynchronous event to occur. Useful for wrapping commands like ...">
<polygon fill="white" stroke="#666666" points="1098.75,-850.95 992.75,-850.95 992.75,-818.95 1098.75,-818.95 1098.75,-850.95"/>
<text text-anchor="start" x="1000.75" y="-837.45" font-family="Helvetica,sans-Serif" font-size="10.00">LSM1x0A_Controller</text>
<text text-anchor="middle" x="1045.75" y="-825.45" font-family="Helvetica,sans-Serif" font-size="10.00">::waitForEvent</text>
</a>
</g>
</g>
<!-- Node9&#45;&gt;Node11 -->
<g id="edge15_Node000009_Node000011" class="edge">
<title>Node9&#45;&gt;Node11</title>
<g id="a_edge15_Node000009_Node000011"><a xlink:title=" ">
<path fill="none" stroke="#63b8ff" d="M883.9,-834.95C914.41,-834.95 950.65,-834.95 980.99,-834.95"/>
<polygon fill="#63b8ff" stroke="#63b8ff" points="980.8,-838.45 990.8,-834.95 980.8,-831.45 980.8,-838.45"/>
</a>
</g>
</g>
<!-- Node10&#45;&gt;Node2 -->
<g id="edge14_Node000010_Node000002" class="edge">
<title>Node10&#45;&gt;Node2</title>
<g id="a_edge14_Node000010_Node000002"><a xlink:title=" ">
<path fill="none" stroke="#63b8ff" d="M1043.97,-634.73C1038.52,-566.01 1003.6,-172.04 914.75,-101.95 729.59,44.11 565.65,29.06 384.5,-121.95 332.92,-164.95 306.86,-377.61 299.07,-453.76"/>
<polygon fill="#63b8ff" stroke="#63b8ff" points="295.63,-452.96 298.12,-463.26 302.59,-453.65 295.63,-452.96"/>
</a>
</g>
</g>
<!-- Node10&#45;&gt;Node7 -->
<g id="edge13_Node000010_Node000007" class="edge">
<title>Node10&#45;&gt;Node7</title>
<g id="a_edge13_Node000010_Node000007"><a xlink:title=" ">
<path fill="none" stroke="#63b8ff" d="M1054.55,-655.28C1085.09,-695.76 1196.92,-843.95 1237.32,-897.49"/>
<polygon fill="#63b8ff" stroke="#63b8ff" points="1234.47,-899.52 1243.29,-905.4 1240.06,-895.31 1234.47,-899.52"/>
</a>
</g>
</g>
<!-- Node12&#45;&gt;Node10 -->
<g id="edge21_Node000012_Node000010" class="edge">
<title>Node12&#45;&gt;Node10</title>
<g id="a_edge21_Node000012_Node000010"><a xlink:title=" ">
<path fill="none" stroke="#63b8ff" d="M679.24,-484.29C756.9,-488.81 874.43,-498.64 914.75,-517.95 966.68,-542.82 1010.63,-596.76 1031.59,-625.7"/>
<polygon fill="#63b8ff" stroke="#63b8ff" points="1028.52,-627.41 1037.15,-633.56 1034.24,-623.37 1028.52,-627.41"/>
</a>
</g>
</g>
<!-- Node13 -->
<g id="Node000013" class="node">
<title>Node13</title>
<g id="a_Node000013"><a xlink:href="../../d5/d72/classLSM1x0A__LoRaWAN.html#af0baa3db4c7fab580d6b19a9e92472f6" target="_top" xlink:title="Enables or disables Adaptive Data Rate (ADR).">
<polygon fill="white" stroke="#666666" points="893.75,-798.95 742,-798.95 742,-778.95 893.75,-778.95 893.75,-798.95"/>
<text text-anchor="middle" x="817.88" y="-785.45" font-family="Helvetica,sans-Serif" font-size="10.00">LSM1x0A_LoRaWAN::setADR</text>
</a>
</g>
</g>
<!-- Node12&#45;&gt;Node13 -->
<g id="edge17_Node000012_Node000013" class="edge">
<title>Node12&#45;&gt;Node13</title>
<g id="a_edge17_Node000012_Node000013"><a xlink:title=" ">
<path fill="none" stroke="#63b8ff" d="M607.93,-497.13C612.45,-546.58 633.15,-696.7 721,-769.95 724.25,-772.66 727.79,-775.03 731.51,-777.08"/>
<polygon fill="#63b8ff" stroke="#63b8ff" points="729.84,-780.17 740.38,-781.21 732.79,-773.82 729.84,-780.17"/>
</a>
</g>
</g>
<!-- Node14 -->
<g id="Node000014" class="node">
<title>Node14</title>
<g id="a_Node000014"><a xlink:href="../../d5/d72/classLSM1x0A__LoRaWAN.html#a5365ed1596eb84ebf1e3b33b4a10c788" target="_top" xlink:title="Sets the LoRaWAN operational frequency band.">
<polygon fill="white" stroke="#666666" points="894.12,-760.95 741.62,-760.95 741.62,-740.95 894.12,-740.95 894.12,-760.95"/>
<text text-anchor="middle" x="817.88" y="-747.45" font-family="Helvetica,sans-Serif" font-size="10.00">LSM1x0A_LoRaWAN::setBand</text>
</a>
</g>
</g>
<!-- Node12&#45;&gt;Node14 -->
<g id="edge19_Node000012_Node000014" class="edge">
<title>Node12&#45;&gt;Node14</title>
<g id="a_edge19_Node000012_Node000014"><a xlink:title=" ">
<path fill="none" stroke="#63b8ff" d="M609.01,-497.27C616.17,-542.46 642.73,-669.99 721,-731.95 724.16,-734.45 727.55,-736.64 731.11,-738.58"/>
<polygon fill="#63b8ff" stroke="#63b8ff" points="729.6,-741.74 740.15,-742.72 732.52,-735.37 729.6,-741.74"/>
</a>
</g>
</g>
<!-- Node15 -->
<g id="Node000015" class="node">
<title>Node15</title>
<g id="a_Node000015"><a xlink:href="../../d5/d72/classLSM1x0A__LoRaWAN.html#a9d9285c43414337a0ccb3a6cd7ca06e6" target="_top" xlink:title="Configures the number of retries for Confirmed uplinks.">
<polygon fill="white" stroke="#666666" points="900.12,-722.95 735.62,-722.95 735.62,-690.95 900.12,-690.95 900.12,-722.95"/>
<text text-anchor="start" x="743.62" y="-709.45" font-family="Helvetica,sans-Serif" font-size="10.00">LSM1x0A_LoRaWAN::setConfirm</text>
<text text-anchor="middle" x="817.88" y="-697.45" font-family="Helvetica,sans-Serif" font-size="10.00">Retry</text>
</a>
</g>
</g>
<!-- Node12&#45;&gt;Node15 -->
<g id="edge22_Node000012_Node000015" class="edge">
<title>Node12&#45;&gt;Node15</title>
<g id="a_edge22_Node000012_Node000015"><a xlink:title=" ">
<path fill="none" stroke="#63b8ff" d="M611.27,-497.42C622.73,-535.98 656.67,-632.59 721,-681.95 722.36,-682.99 723.77,-684 725.21,-684.96"/>
<polygon fill="#63b8ff" stroke="#63b8ff" points="723.43,-687.98 733.84,-689.96 726.94,-681.92 723.43,-687.98"/>
</a>
</g>
</g>
<!-- Node16 -->
<g id="Node000016" class="node">
<title>Node16</title>
<g id="a_Node000016"><a xlink:href="../../d5/d72/classLSM1x0A__LoRaWAN.html#a56345ceeafa0b9059d6de4e69eddc82e" target="_top" xlink:title="Sets the Data Rate (DR) of the module.">
<polygon fill="white" stroke="#666666" points="903.88,-672.95 731.88,-672.95 731.88,-652.95 903.88,-652.95 903.88,-672.95"/>
<text text-anchor="middle" x="817.88" y="-659.45" font-family="Helvetica,sans-Serif" font-size="10.00">LSM1x0A_LoRaWAN::setDataRate</text>
</a>
</g>
</g>
<!-- Node12&#45;&gt;Node16 -->
<g id="edge24_Node000012_Node000016" class="edge">
<title>Node12&#45;&gt;Node16</title>
<g id="a_edge24_Node000012_Node000016"><a xlink:title=" ">
<path fill="none" stroke="#63b8ff" d="M613.18,-497.26C627.24,-530.68 664.11,-606.87 721,-643.95 723.14,-645.34 725.35,-646.63 727.63,-647.84"/>
<polygon fill="#63b8ff" stroke="#63b8ff" points="726.05,-650.96 736.6,-651.92 728.95,-644.59 726.05,-650.96"/>
</a>
</g>
</g>
<!-- Node17 -->
<g id="Node000017" class="node">
<title>Node17</title>
<g id="a_Node000017"><a xlink:href="../../d5/d72/classLSM1x0A__LoRaWAN.html#a8494083816ab885cb07fc3b08de029f4" target="_top" xlink:title="Sets the LoRaWAN Device Address (DevAddr) for ABP mode.">
<polygon fill="white" stroke="#666666" points="902,-634.95 733.75,-634.95 733.75,-614.95 902,-614.95 902,-634.95"/>
<text text-anchor="middle" x="817.88" y="-621.45" font-family="Helvetica,sans-Serif" font-size="10.00">LSM1x0A_LoRaWAN::setDevAddr</text>
</a>
</g>
</g>
<!-- Node12&#45;&gt;Node17 -->
<g id="edge26_Node000012_Node000017" class="edge">
<title>Node12&#45;&gt;Node17</title>
<g id="a_edge26_Node000012_Node000017"><a xlink:title=" ">
<path fill="none" stroke="#63b8ff" d="M616.74,-497.41C634.22,-524.7 673.1,-578.97 721,-605.95 723.84,-607.55 726.8,-609.02 729.83,-610.36"/>
<polygon fill="#63b8ff" stroke="#63b8ff" points="728.42,-613.57 739.01,-613.93 730.96,-607.04 728.42,-613.57"/>
</a>
</g>
</g>
<!-- Node18 -->
<g id="Node000018" class="node">
<title>Node18</title>
<g id="a_Node000018"><a xlink:href="../../d5/d72/classLSM1x0A__LoRaWAN.html#ad320634e52d7ea907043cc50dd37c5b0" target="_top" xlink:title="Sets the LoRaWAN Device EUI (DevEUI).">
<polygon fill="white" stroke="#666666" points="900.5,-596.95 735.25,-596.95 735.25,-576.95 900.5,-576.95 900.5,-596.95"/>
<text text-anchor="middle" x="817.88" y="-583.45" font-family="Helvetica,sans-Serif" font-size="10.00">LSM1x0A_LoRaWAN::setDevEUI</text>
</a>
</g>
</g>
<!-- Node12&#45;&gt;Node18 -->
<g id="edge28_Node000012_Node000018" class="edge">
<title>Node12&#45;&gt;Node18</title>
<g id="a_edge28_Node000012_Node000018"><a xlink:title=" ">
<path fill="none" stroke="#63b8ff" d="M622.95,-497.21C643.77,-517.12 681.9,-550.34 721,-567.95 725.26,-569.87 729.72,-571.6 734.28,-573.15"/>
<polygon fill="#63b8ff" stroke="#63b8ff" points="733.03,-576.43 743.62,-576.02 735.09,-569.74 733.03,-576.43"/>
</a>
</g>
</g>
<!-- Node19 -->
<g id="Node000019" class="node">
<title>Node19</title>
<g id="a_Node000019"><a xlink:href="../../d5/d72/classLSM1x0A__LoRaWAN.html#a031023b0d2dd5db3c51c2db6ae7801cc" target="_top" xlink:title="Enables or disables the Duty Cycle limitation (EU regions mostly).">
<polygon fill="white" stroke="#666666" points="893.38,-558.95 742.38,-558.95 742.38,-526.95 893.38,-526.95 893.38,-558.95"/>
<text text-anchor="start" x="750.38" y="-545.45" font-family="Helvetica,sans-Serif" font-size="10.00">LSM1x0A_LoRaWAN::setDuty</text>
<text text-anchor="middle" x="817.88" y="-533.45" font-family="Helvetica,sans-Serif" font-size="10.00">Cycle</text>
</a>
</g>
</g>
<!-- Node12&#45;&gt;Node19 -->
<g id="edge30_Node000012_Node000019" class="edge">
<title>Node12&#45;&gt;Node19</title>
<g id="a_edge30_Node000012_Node000019"><a xlink:title=" ">
<path fill="none" stroke="#63b8ff" d="M662.51,-497.4C689.45,-505.35 721.98,-514.95 750.23,-523.28"/>
<polygon fill="#63b8ff" stroke="#63b8ff" points="749.19,-526.62 759.77,-526.1 751.17,-519.91 749.19,-526.62"/>
</a>
</g>
</g>
<!-- Node20 -->
<g id="Node000020" class="node">
<title>Node20</title>
<g id="a_Node000020"><a xlink:href="../../d5/d72/classLSM1x0A__LoRaWAN.html#a6b179d5825c49af0f391dfc539912f64" target="_top" xlink:title="Sets the delay for the Join1 receive window.">
<polygon fill="white" stroke="#666666" points="894.5,-470.95 741.25,-470.95 741.25,-438.95 894.5,-438.95 894.5,-470.95"/>
<text text-anchor="start" x="749.25" y="-457.45" font-family="Helvetica,sans-Serif" font-size="10.00">LSM1x0A_LoRaWAN::setJoin1</text>
<text text-anchor="middle" x="817.88" y="-445.45" font-family="Helvetica,sans-Serif" font-size="10.00">Delay</text>
</a>
</g>
</g>
<!-- Node12&#45;&gt;Node20 -->
<g id="edge32_Node000012_Node000020" class="edge">
<title>Node12&#45;&gt;Node20</title>
<g id="a_edge32_Node000012_Node000020"><a xlink:title=" ">
<path fill="none" stroke="#63b8ff" d="M679.36,-471.96C695.71,-469.94 713.22,-467.77 730.08,-465.69"/>
<polygon fill="#63b8ff" stroke="#63b8ff" points="730.05,-469.22 739.55,-464.52 729.19,-462.27 730.05,-469.22"/>
</a>
</g>
</g>
<!-- Node21 -->
<g id="Node000021" class="node">
<title>Node21</title>
<g id="a_Node000021"><a xlink:href="../../d5/d72/classLSM1x0A__LoRaWAN.html#a4545d0caad41558cdb9bae8286b104d8" target="_top" xlink:title="Sets the delay for the Join2 receive window.">
<polygon fill="white" stroke="#666666" points="894.5,-420.95 741.25,-420.95 741.25,-388.95 894.5,-388.95 894.5,-420.95"/>
<text text-anchor="start" x="749.25" y="-407.45" font-family="Helvetica,sans-Serif" font-size="10.00">LSM1x0A_LoRaWAN::setJoin2</text>
<text text-anchor="middle" x="817.88" y="-395.45" font-family="Helvetica,sans-Serif" font-size="10.00">Delay</text>
</a>
</g>
</g>
<!-- Node12&#45;&gt;Node21 -->
<g id="edge34_Node000012_Node000021" class="edge">
<title>Node12&#45;&gt;Node21</title>
<g id="a_edge34_Node000012_Node000021"><a xlink:title=" ">
<path fill="none" stroke="#63b8ff" d="M639.66,-464.52C662.17,-453.71 692.92,-439.8 721,-429.95 726.29,-428.09 731.79,-426.3 737.36,-424.59"/>
<polygon fill="#63b8ff" stroke="#63b8ff" points="738.07,-428.03 746.66,-421.84 736.08,-421.32 738.07,-428.03"/>
</a>
</g>
</g>
<!-- Node22 -->
<g id="Node000022" class="node">
<title>Node22</title>
<g id="a_Node000022"><a xlink:href="../../d5/d72/classLSM1x0A__LoRaWAN.html#a06bd50723ec1eb7e144c9141b2ec86fc" target="_top" xlink:title="Sets the LoRaWAN Network ID (NetID).">
<polygon fill="white" stroke="#666666" points="898.25,-370.95 737.5,-370.95 737.5,-350.95 898.25,-350.95 898.25,-370.95"/>
<text text-anchor="middle" x="817.88" y="-357.45" font-family="Helvetica,sans-Serif" font-size="10.00">LSM1x0A_LoRaWAN::setNwkID</text>
</a>
</g>
</g>
<!-- Node12&#45;&gt;Node22 -->
<g id="edge36_Node000012_Node000022" class="edge">
<title>Node12&#45;&gt;Node22</title>
<g id="a_edge36_Node000012_Node000022"><a xlink:title=" ">
<path fill="none" stroke="#63b8ff" d="M620.01,-464.74C639.6,-441.98 678.53,-400.98 721,-379.95 724.68,-378.13 728.51,-376.48 732.45,-374.99"/>
<polygon fill="#63b8ff" stroke="#63b8ff" points="733.26,-378.41 741.61,-371.9 731.02,-371.78 733.26,-378.41"/>
</a>
</g>
</g>
<!-- Node23 -->
<g id="Node000023" class="node">
<title>Node23</title>
<g id="a_Node000023"><a xlink:href="../../d5/d72/classLSM1x0A__LoRaWAN.html#aa70ada64d28ecca216bb62268e502adf" target="_top" xlink:title="Sets the delay for the RX1 receive window.">
<polygon fill="white" stroke="#666666" points="904.62,-332.95 731.12,-332.95 731.12,-312.95 904.62,-312.95 904.62,-332.95"/>
<text text-anchor="middle" x="817.88" y="-319.45" font-family="Helvetica,sans-Serif" font-size="10.00">LSM1x0A_LoRaWAN::setRx1Delay</text>
</a>
</g>
</g>
<!-- Node12&#45;&gt;Node23 -->
<g id="edge38_Node000012_Node000023" class="edge">
<title>Node12&#45;&gt;Node23</title>
<g id="a_edge38_Node000012_Node000023"><a xlink:title=" ">
<path fill="none" stroke="#63b8ff" d="M615.2,-464.54C631.4,-434.88 669.8,-372.58 721,-341.95 723.48,-340.46 726.06,-339.09 728.71,-337.82"/>
<polygon fill="#63b8ff" stroke="#63b8ff" points="729.96,-341.09 737.84,-334.02 727.26,-334.63 729.96,-341.09"/>
</a>
</g>
</g>
<!-- Node24 -->
<g id="Node000024" class="node">
<title>Node24</title>
<g id="a_Node000024"><a xlink:href="../../d5/d72/classLSM1x0A__LoRaWAN.html#a2cf4eff0181b6107d082bccefa24217b" target="_top" xlink:title="Sets the Data Rate (DR) specifically for the RX2 window.">
<polygon fill="white" stroke="#666666" points="912.88,-294.95 722.88,-294.95 722.88,-274.95 912.88,-274.95 912.88,-294.95"/>
<text text-anchor="middle" x="817.88" y="-281.45" font-family="Helvetica,sans-Serif" font-size="10.00">LSM1x0A_LoRaWAN::setRx2DataRate</text>
</a>
</g>
</g>
<!-- Node12&#45;&gt;Node24 -->
<g id="edge40_Node000012_Node000024" class="edge">
<title>Node12&#45;&gt;Node24</title>
<g id="a_edge40_Node000012_Node000024"><a xlink:title=" ">
<path fill="none" stroke="#63b8ff" d="M612.27,-464.61C625.15,-429.11 660.79,-344.84 721,-303.95 722.97,-302.61 725.02,-301.36 727.13,-300.19"/>
<polygon fill="#63b8ff" stroke="#63b8ff" points="728.46,-303.43 735.98,-295.97 725.45,-297.11 728.46,-303.43"/>
</a>
</g>
</g>
<!-- Node25 -->
<g id="Node000025" class="node">
<title>Node25</title>
<g id="a_Node000025"><a xlink:href="../../d5/d72/classLSM1x0A__LoRaWAN.html#a42d2137b475b57e19d891a5f1ac93221" target="_top" xlink:title="Sets the delay for the RX2 receive window.">
<polygon fill="white" stroke="#666666" points="904.62,-256.95 731.12,-256.95 731.12,-236.95 904.62,-236.95 904.62,-256.95"/>
<text text-anchor="middle" x="817.88" y="-243.45" font-family="Helvetica,sans-Serif" font-size="10.00">LSM1x0A_LoRaWAN::setRx2Delay</text>
</a>
</g>
</g>
<!-- Node12&#45;&gt;Node25 -->
<g id="edge42_Node000012_Node000025" class="edge">
<title>Node12&#45;&gt;Node25</title>
<g id="a_edge42_Node000012_Node000025"><a xlink:title=" ">
<path fill="none" stroke="#63b8ff" d="M610.34,-464.6C620.18,-423.89 651.61,-317.5 721,-265.95 722.59,-264.76 724.24,-263.65 725.93,-262.6"/>
<polygon fill="#63b8ff" stroke="#63b8ff" points="727.51,-265.72 734.73,-257.97 724.25,-259.53 727.51,-265.72"/>
</a>
</g>
</g>
<!-- Node26 -->
<g id="Node000026" class="node">
<title>Node26</title>
<g id="a_Node000026"><a xlink:href="../../d5/d72/classLSM1x0A__LoRaWAN.html#a689f7dfda1dfeae11ea397c2ddf2ad37" target="_top" xlink:title="Sets the precise frequency for the RX2 window.">
<polygon fill="white" stroke="#666666" points="914.75,-218.95 721,-218.95 721,-198.95 914.75,-198.95 914.75,-218.95"/>
<text text-anchor="middle" x="817.88" y="-205.45" font-family="Helvetica,sans-Serif" font-size="10.00">LSM1x0A_LoRaWAN::setRx2Frequency</text>
</a>
</g>
</g>
<!-- Node12&#45;&gt;Node26 -->
<g id="edge44_Node000012_Node000026" class="edge">
<title>Node12&#45;&gt;Node26</title>
<g id="a_edge44_Node000012_Node000026"><a xlink:title=" ">
<path fill="none" stroke="#63b8ff" d="M608.96,-464.5C616.01,-418.96 642.31,-290.44 721,-227.95 722.33,-226.89 723.7,-225.89 725.11,-224.94"/>
<polygon fill="#63b8ff" stroke="#63b8ff" points="726.61,-228.11 733.57,-220.12 723.15,-222.03 726.61,-228.11"/>
</a>
</g>
</g>
<!-- Node27 -->
<g id="Node000027" class="node">
<title>Node27</title>
<g id="a_Node000027"><a xlink:href="../../d5/d72/classLSM1x0A__LoRaWAN.html#a1df10d7ae6bf45b537d28d3d5c4b88d7" target="_top" xlink:title="Sets the transmission power index.">
<polygon fill="white" stroke="#666666" points="902.38,-180.95 733.38,-180.95 733.38,-160.95 902.38,-160.95 902.38,-180.95"/>
<text text-anchor="middle" x="817.88" y="-167.45" font-family="Helvetica,sans-Serif" font-size="10.00">LSM1x0A_LoRaWAN::setTxPower</text>
</a>
</g>
</g>
<!-- Node12&#45;&gt;Node27 -->
<g id="edge46_Node000012_Node000027" class="edge">
<title>Node12&#45;&gt;Node27</title>
<g id="a_edge46_Node000012_Node000027"><a xlink:title=" ">
<path fill="none" stroke="#63b8ff" d="M607.89,-464.65C612.3,-414.88 632.71,-263.73 721,-189.95 722.14,-189 723.3,-188.09 724.5,-187.23"/>
<polygon fill="#63b8ff" stroke="#63b8ff" points="726.18,-190.3 732.93,-182.14 722.56,-184.31 726.18,-190.3"/>
</a>
</g>
</g>
<!-- Node28 -->
<g id="Node000028" class="node">
<title>Node28</title>
<g id="a_Node000028"><a xlink:href="../../d5/d72/classLSM1x0A__LoRaWAN.html#a059fd6a9356c4ecadd5a98294da5952d" target="_top" xlink:title="Configures the number of repetitions for Unconfirmed uplinks.">
<polygon fill="white" stroke="#666666" points="905.38,-142.95 730.38,-142.95 730.38,-110.95 905.38,-110.95 905.38,-142.95"/>
<text text-anchor="start" x="738.38" y="-129.45" font-family="Helvetica,sans-Serif" font-size="10.00">LSM1x0A_LoRaWAN::setUnconfirm</text>
<text text-anchor="middle" x="817.88" y="-117.45" font-family="Helvetica,sans-Serif" font-size="10.00">Retry</text>
</a>
</g>
</g>
<!-- Node12&#45;&gt;Node28 -->
<g id="edge48_Node000012_Node000028" class="edge">
<title>Node12&#45;&gt;Node28</title>
<g id="a_edge48_Node000012_Node000028"><a xlink:title=" ">
<path fill="none" stroke="#63b8ff" d="M607.27,-464.75C609.9,-411.46 625.73,-239.96 721,-151.95 721.77,-151.23 722.57,-150.54 723.37,-149.86"/>
<polygon fill="#63b8ff" stroke="#63b8ff" points="725.22,-152.84 731.37,-144.21 721.19,-147.12 725.22,-152.84"/>
</a>
</g>
</g>
<!-- Node13&#45;&gt;Node2 -->
<g id="edge18_Node000013_Node000002" class="edge">
<title>Node13&#45;&gt;Node2</title>
<g id="a_edge18_Node000013_Node000002"><a xlink:title=" ">
<path fill="none" stroke="#63b8ff" d="M742.86,-778.49C633.64,-761.69 436.58,-725.64 384.5,-677.95 333.85,-631.57 310.62,-550.58 301.5,-508.34"/>
<polygon fill="#63b8ff" stroke="#63b8ff" points="304.98,-507.86 299.55,-498.76 298.12,-509.26 304.98,-507.86"/>
</a>
</g>
</g>
<!-- Node14&#45;&gt;Node2 -->
<g id="edge20_Node000014_Node000002" class="edge">
<title>Node14&#45;&gt;Node2</title>
<g id="a_edge20_Node000014_Node000002"><a xlink:title=" ">
<path fill="none" stroke="#63b8ff" d="M745.23,-740.46C637.17,-723.42 439.26,-687.03 384.5,-641.95 341.23,-606.32 315.87,-543.61 304.24,-507.88"/>
<polygon fill="#63b8ff" stroke="#63b8ff" points="307.71,-507.24 301.39,-498.74 301.02,-509.32 307.71,-507.24"/>
</a>
</g>
</g>
<!-- Node15&#45;&gt;Node2 -->
<g id="edge23_Node000015_Node000002" class="edge">
<title>Node15&#45;&gt;Node2</title>
<g id="a_edge23_Node000015_Node000002"><a xlink:title=" ">
<path fill="none" stroke="#63b8ff" d="M735.24,-696.13C625.83,-680.29 439.07,-648.15 384.5,-606.95 349.38,-580.43 322.99,-535.78 308.65,-507.37"/>
<polygon fill="#63b8ff" stroke="#63b8ff" points="311.96,-506.16 304.42,-498.71 305.67,-509.23 311.96,-506.16"/>
</a>
</g>
</g>
<!-- Node16&#45;&gt;Node2 -->
<g id="edge25_Node000016_Node000002" class="edge">
<title>Node16&#45;&gt;Node2</title>
<g id="a_edge25_Node000016_Node000002"><a xlink:title=" ">
<path fill="none" stroke="#63b8ff" d="M731.77,-660.63C640.06,-654.66 492.71,-634.71 384.5,-569.95 356.82,-553.38 331.64,-526.09 315.38,-506.09"/>
<polygon fill="#63b8ff" stroke="#63b8ff" points="318.24,-504.06 309.29,-498.39 312.75,-508.41 318.24,-504.06"/>
</a>
</g>
</g>
<!-- Node17&#45;&gt;Node2 -->
<g id="edge27_Node000017_Node000002" class="edge">
<title>Node17&#45;&gt;Node2</title>
<g id="a_edge27_Node000017_Node000002"><a xlink:title=" ">
<path fill="none" stroke="#63b8ff" d="M733.52,-618.09C644.26,-608.52 499.9,-586.49 384.5,-537.95 363.74,-529.22 342.49,-515.61 326.08,-503.88"/>
<polygon fill="#63b8ff" stroke="#63b8ff" points="328.37,-501.22 318.23,-498.14 324.24,-506.87 328.37,-501.22"/>
</a>
</g>
</g>
<!-- Node18&#45;&gt;Node2 -->
<g id="edge29_Node000018_Node000002" class="edge">
<title>Node18&#45;&gt;Node2</title>
<g id="a_edge29_Node000018_Node000002"><a xlink:title=" ">
<path fill="none" stroke="#63b8ff" d="M735.12,-576.91C647.53,-565.2 504.84,-543.35 384.5,-511.95 372.98,-508.94 360.82,-505.11 349.34,-501.17"/>
<polygon fill="#63b8ff" stroke="#63b8ff" points="350.6,-497.9 340.01,-497.88 348.28,-504.5 350.6,-497.9"/>
</a>
</g>
</g>
<!-- Node19&#45;&gt;Node2 -->
<g id="edge31_Node000019_Node000002" class="edge">
<title>Node19&#45;&gt;Node2</title>
<g id="a_edge31_Node000019_Node000002"><a xlink:title=" ">
<path fill="none" stroke="#63b8ff" d="M742.14,-534.04C639.46,-521.81 456.56,-500.02 360.1,-488.53"/>
<polygon fill="#63b8ff" stroke="#63b8ff" points="360.62,-485.06 350.28,-487.36 359.8,-492.01 360.62,-485.06"/>
</a>
</g>
</g>
<!-- Node20&#45;&gt;Node2 -->
<g id="edge33_Node000020_Node000002" class="edge">
<title>Node20&#45;&gt;Node2</title>
<g id="a_edge33_Node000020_Node000002"><a xlink:title=" ">
<path fill="none" stroke="#63b8ff" d="M741,-453.04C682.37,-452.09 599.23,-451.88 526.5,-455.95 470.12,-459.1 406.3,-466.33 360.22,-472.21"/>
<polygon fill="#63b8ff" stroke="#63b8ff" points="359.87,-468.72 350.4,-473.48 360.76,-475.67 359.87,-468.72"/>
</a>
</g>
</g>
<!-- Node21&#45;&gt;Node2 -->
<g id="edge35_Node000021_Node000002" class="edge">
<title>Node21&#45;&gt;Node2</title>
<g id="a_edge35_Node000021_Node000002"><a xlink:title=" ">
<path fill="none" stroke="#63b8ff" d="M740.88,-409.76C654.03,-416.18 507.96,-429.77 384.5,-454.95 375.83,-456.72 366.78,-458.94 357.92,-461.34"/>
<polygon fill="#63b8ff" stroke="#63b8ff" points="356.98,-457.97 348.3,-464.05 358.88,-464.71 356.98,-457.97"/>
</a>
</g>
</g>
<!-- Node22&#45;&gt;Node2 -->
<g id="edge37_Node000022_Node000002" class="edge">
<title>Node22&#45;&gt;Node2</title>
<g id="a_edge37_Node000022_Node000002"><a xlink:title=" ">
<path fill="none" stroke="#63b8ff" d="M737.21,-366.22C648.95,-373.87 503.38,-391.94 384.5,-432.95 366.01,-439.33 346.8,-449.35 331.06,-458.6"/>
<polygon fill="#63b8ff" stroke="#63b8ff" points="329.3,-455.57 322.55,-463.73 332.92,-461.56 329.3,-455.57"/>
</a>
</g>
</g>
<!-- Node23&#45;&gt;Node2 -->
<g id="edge39_Node000023_Node000002" class="edge">
<title>Node23&#45;&gt;Node2</title>
<g id="a_edge39_Node000023_Node000002"><a xlink:title=" ">
<path fill="none" stroke="#63b8ff" d="M730.74,-323.48C639.79,-327.36 494.6,-343.2 384.5,-400.95 358.26,-414.71 333.78,-438.19 317.34,-456.16"/>
<polygon fill="#63b8ff" stroke="#63b8ff" points="314.98,-453.54 310.95,-463.34 320.21,-458.2 314.98,-453.54"/>
</a>
</g>
</g>
<!-- Node24&#45;&gt;Node2 -->
<g id="edge41_Node000024_Node000002" class="edge">
<title>Node24&#45;&gt;Node2</title>
<g id="a_edge41_Node000024_Node000002"><a xlink:title=" ">
<path fill="none" stroke="#63b8ff" d="M722.65,-278.72C629.1,-277.21 485.44,-287.94 384.5,-355.95 348,-380.54 321.87,-425.71 307.98,-454.49"/>
<polygon fill="#63b8ff" stroke="#63b8ff" points="304.94,-452.73 303.9,-463.27 311.29,-455.68 304.94,-452.73"/>
</a>
</g>
</g>
<!-- Node25&#45;&gt;Node2 -->
<g id="edge43_Node000025_Node000002" class="edge">
<title>Node25&#45;&gt;Node2</title>
<g id="a_edge43_Node000025_Node000002"><a xlink:title=" ">
<path fill="none" stroke="#63b8ff" d="M747.1,-236.49C654.33,-226.6 489.84,-223.58 384.5,-304.95 335.86,-342.51 312.13,-414.19 302.31,-453.49"/>
<polygon fill="#63b8ff" stroke="#63b8ff" points="298.94,-452.56 300.05,-463.1 305.75,-454.17 298.94,-452.56"/>
</a>
</g>
</g>
<!-- Node26&#45;&gt;Node2 -->
<g id="edge45_Node000026_Node000002" class="edge">
<title>Node26&#45;&gt;Node2</title>
<g id="a_edge45_Node000026_Node000002"><a xlink:title=" ">
<path fill="none" stroke="#63b8ff" d="M720.67,-205.86C609.22,-204.31 434.5,-208.72 384.5,-248.95 320.61,-300.36 303.08,-403.6 298.29,-453.16"/>
<polygon fill="#63b8ff" stroke="#63b8ff" points="294.81,-452.77 297.45,-463.03 301.78,-453.36 294.81,-452.77"/>
</a>
</g>
</g>
<!-- Node27&#45;&gt;Node2 -->
<g id="edge47_Node000027_Node000002" class="edge">
<title>Node27&#45;&gt;Node2</title>
<g id="a_edge47_Node000027_Node000002"><a xlink:title=" ">
<path fill="none" stroke="#63b8ff" d="M770.17,-160.48C683.74,-144.01 497.39,-122.56 384.5,-212.95 309.69,-272.85 297.83,-397.78 296.4,-453.31"/>
<polygon fill="#63b8ff" stroke="#63b8ff" points="292.9,-453.1 296.25,-463.15 299.9,-453.21 292.9,-453.1"/>
</a>
</g>
</g>
<!-- Node28&#45;&gt;Node2 -->
<g id="edge49_Node000028_Node000002" class="edge">
<title>Node28&#45;&gt;Node2</title>
<g id="a_edge49_Node000028_Node000002"><a xlink:title=" ">
<path fill="none" stroke="#63b8ff" d="M729.99,-121.55C618.9,-116.57 434.87,-115.39 384.5,-157.95 338.65,-196.69 309.5,-383.18 299.95,-453.79"/>
<polygon fill="#63b8ff" stroke="#63b8ff" points="296.53,-452.95 298.69,-463.32 303.47,-453.87 296.53,-452.95"/>
</a>
</g>
</g>
<!-- Node30&#45;&gt;Node31 -->
<g id="edge52_Node000030_Node000031" class="edge">
<title>Node30&#45;&gt;Node31</title>
<g id="a_edge52_Node000030_Node000031"><a xlink:title=" ">
<path fill="none" stroke="#63b8ff" d="M659.23,-1092.44C677.39,-1094.34 698.36,-1096.54 718.97,-1098.7"/>
<polygon fill="#63b8ff" stroke="#63b8ff" points="718.54,-1102.17 728.85,-1099.73 719.27,-1095.21 718.54,-1102.17"/>
</a>
</g>
</g>
<!-- Node32 -->
<g id="Node000032" class="node">
<title>Node32</title>
<g id="a_Node000032"><a xlink:href="../../d6/d3c/classLSM1x0A__AtParser.html#a0ba6f927c54fceece22c17773d3f2600" target="_top" xlink:title="Sends a command and extracts a value from the response.">
<polygon fill="white" stroke="#666666" points="1132.88,-1124.95 958.62,-1124.95 958.62,-1092.95 1132.88,-1092.95 1132.88,-1124.95"/>
<text text-anchor="start" x="966.62" y="-1111.45" font-family="Helvetica,sans-Serif" font-size="10.00">LSM1x0A_AtParser::sendCommand</text>
<text text-anchor="middle" x="1045.75" y="-1099.45" font-family="Helvetica,sans-Serif" font-size="10.00">WithResponse</text>
</a>
</g>
</g>
<!-- Node31&#45;&gt;Node32 -->
<g id="edge53_Node000031_Node000032" class="edge">
<title>Node31&#45;&gt;Node32</title>
<g id="a_edge53_Node000031_Node000032"><a xlink:title=" ">
<path fill="none" stroke="#63b8ff" d="M905.24,-1108.95C918.99,-1108.95 933.31,-1108.95 947.3,-1108.95"/>
<polygon fill="#63b8ff" stroke="#63b8ff" points="946.92,-1112.45 956.92,-1108.95 946.92,-1105.45 946.92,-1112.45"/>
</a>
</g>
</g>
<!-- Node33 -->
<g id="Node000033" class="node">
<title>Node33</title>
<g id="a_Node000033"><a xlink:href="../../d5/d8b/classUartDriver.html#a5d0f22e8867eebe99273078bb19bd23d" target="_top" xlink:title="Sends data through UART.">
<polygon fill="white" stroke="#666666" points="1307.5,-1118.95 1198.5,-1118.95 1198.5,-1098.95 1307.5,-1098.95 1307.5,-1118.95"/>
<text text-anchor="middle" x="1253" y="-1105.45" font-family="Helvetica,sans-Serif" font-size="10.00">UartDriver::sendData</text>
</a>
</g>
</g>
<!-- Node32&#45;&gt;Node33 -->
<g id="edge54_Node000032_Node000033" class="edge">
<title>Node32&#45;&gt;Node33</title>
<g id="a_edge54_Node000032_Node000033"><a xlink:title=" ">
<path fill="none" stroke="#63b8ff" d="M1133.2,-1108.95C1151.09,-1108.95 1169.66,-1108.95 1186.64,-1108.95"/>
<polygon fill="#63b8ff" stroke="#63b8ff" points="1186.61,-1112.45 1196.61,-1108.95 1186.61,-1105.45 1186.61,-1112.45"/>
</a>
</g>
</g>
</g>
</svg>
