<?xml version="1.0" encoding="UTF-8" standalone="no"?>
<!DOCTYPE svg PUBLIC "-//W3C//DTD SVG 1.1//EN"
 "http://www.w3.org/Graphics/SVG/1.1/DTD/svg11.dtd">
<!-- Generated by graphviz version 12.2.1 (20241206.2353)
 -->
<!-- Title: LSM1x0A_LoRaWAN::setNwkID Pages: 1 -->
<svg width="1292pt" height="1067pt"
 viewBox="0.00 0.00 1291.50 1067.41" xmlns="http://www.w3.org/2000/svg" xmlns:xlink="http://www.w3.org/1999/xlink">
<g id="graph0" class="graph" transform="scale(1 1) rotate(0) translate(4 1063.41)">
<title>LSM1x0A_LoRaWAN::setNwkID</title>
<!-- Node1 -->
<g id="Node000001" class="node">
<title>Node1</title>
<g id="a_Node000001"><a xlink:title="Sets the LoRaWAN Network ID (NetID).">
<polygon fill="#999999" stroke="#666666" points="160.75,-351.34 0,-351.34 0,-331.34 160.75,-331.34 160.75,-351.34"/>
<text text-anchor="middle" x="80.38" y="-337.84" font-family="Helvetica,sans-Serif" font-size="10.00">LSM1x0A_LoRaWAN::setNwkID</text>
</a>
</g>
</g>
<!-- Node2 -->
<g id="Node000002" class="node">
<title>Node2</title>
<g id="a_Node000002"><a xlink:href="../../d8/d92/classLSM1x0A__Controller.html#afd7d92e60ed6fdae696a955cdbe0ed8c" target="_top" xlink:title="Sends any AT command to the module, returning error if it fails. Internally uses the LsmAtParser logi...">
<polygon fill="white" stroke="#666666" points="302.75,-451.34 196.75,-451.34 196.75,-419.34 302.75,-419.34 302.75,-451.34"/>
<text text-anchor="start" x="204.75" y="-437.84" font-family="Helvetica,sans-Serif" font-size="10.00">LSM1x0A_Controller</text>
<text text-anchor="middle" x="249.75" y="-425.84" font-family="Helvetica,sans-Serif" font-size="10.00">::sendCommand</text>
</a>
</g>
</g>
<!-- Node1&#45;&gt;Node2 -->
<g id="edge1_Node000001_Node000002" class="edge">
<title>Node1&#45;&gt;Node2</title>
<g id="a_edge1_Node000001_Node000002"><a xlink:title=" ">
<path fill="none" stroke="#63b8ff" d="M99.93,-351.76C126.27,-366.56 175.13,-394 209.67,-413.4"/>
<polygon fill="#63b8ff" stroke="#63b8ff" points="207.69,-416.3 218.13,-418.15 211.12,-410.2 207.69,-416.3"/>
</a>
</g>
</g>
<!-- Node3 -->
<g id="Node000003" class="node">
<title>Node3</title>
<g id="a_Node000003"><a xlink:href="../../d8/d92/classLSM1x0A__Controller.html#abb0eb380daa3dfb7acffb483c5db8e2b" target="_top" xlink:title="Executes the recovery protocol. First Soft&#45;Reset (ATZ), then Hard&#45;Reset if there is a pin.">
<polygon fill="white" stroke="#666666" points="444.75,-868.34 338.75,-868.34 338.75,-836.34 444.75,-836.34 444.75,-868.34"/>
<text text-anchor="start" x="346.75" y="-854.84" font-family="Helvetica,sans-Serif" font-size="10.00">LSM1x0A_Controller</text>
<text text-anchor="middle" x="391.75" y="-842.84" font-family="Helvetica,sans-Serif" font-size="10.00">::recoverModule</text>
</a>
</g>
</g>
<!-- Node2&#45;&gt;Node3 -->
<g id="edge2_Node000002_Node000003" class="edge">
<title>Node2&#45;&gt;Node3</title>
<g id="a_edge2_Node000002_Node000003"><a xlink:title=" ">
<path fill="none" stroke="#63b8ff" d="M254.79,-451.79C266.16,-497.32 300.09,-628.64 338.75,-734.34 350.5,-766.47 366.75,-802.28 377.94,-825.94"/>
<polygon fill="#63b8ff" stroke="#63b8ff" points="374.72,-827.32 382.19,-834.83 381.04,-824.3 374.72,-827.32"/>
</a>
</g>
</g>
<!-- Node30 -->
<g id="Node000030" class="node">
<title>Node30</title>
<g id="a_Node000030"><a xlink:href="../../d6/d3c/classLSM1x0A__AtParser.html#a29b53c521974387ba6c03afadfaffa4a" target="_top" xlink:title="Sends a simple command and waits for OK/ERROR. Example: sendCommand(&quot;AT+JOIN&quot;);.">
<polygon fill="white" stroke="#666666" points="859.25,-704.34 685,-704.34 685,-684.34 859.25,-684.34 859.25,-704.34"/>
<text text-anchor="middle" x="772.12" y="-690.84" font-family="Helvetica,sans-Serif" font-size="10.00">LSM1x0A_AtParser::sendCommand</text>
</a>
</g>
</g>
<!-- Node2&#45;&gt;Node30 -->
<g id="edge54_Node000002_Node000030" class="edge">
<title>Node2&#45;&gt;Node30</title>
<g id="a_edge54_Node000002_Node000030"><a xlink:title=" ">
<path fill="none" stroke="#63b8ff" d="M254.65,-451.77C263.6,-485.95 288.78,-565.19 338.75,-609.34 430.57,-690.47 576.73,-703.36 673.3,-701.64"/>
<polygon fill="#63b8ff" stroke="#63b8ff" points="673.11,-705.14 683.02,-701.4 672.94,-698.15 673.11,-705.14"/>
</a>
</g>
</g>
<!-- Node4 -->
<g id="Node000004" class="node">
<title>Node4</title>
<g id="a_Node000004"><a xlink:href="../../d8/d92/classLSM1x0A__Controller.html#a3f6f25b843fe4fb7042c544deae2ab16" target="_top" xlink:title="Manually clears bits from the internal EventGroup.">
<polygon fill="white" stroke="#666666" points="1053,-925.34 947,-925.34 947,-893.34 1053,-893.34 1053,-925.34"/>
<text text-anchor="start" x="955" y="-911.84" font-family="Helvetica,sans-Serif" font-size="10.00">LSM1x0A_Controller</text>
<text text-anchor="middle" x="1000" y="-899.84" font-family="Helvetica,sans-Serif" font-size="10.00">::clearEvents</text>
</a>
</g>
</g>
<!-- Node3&#45;&gt;Node4 -->
<g id="edge3_Node000003_Node000004" class="edge">
<title>Node3&#45;&gt;Node4</title>
<g id="a_edge3_Node000003_Node000004"><a xlink:title=" ">
<path fill="none" stroke="#63b8ff" d="M443.51,-868.77C455.6,-872.12 468.54,-875.26 480.75,-877.34 642.77,-905.03 836.9,-909.51 935.21,-909.8"/>
<polygon fill="#63b8ff" stroke="#63b8ff" points="935.2,-913.3 945.2,-909.81 935.21,-906.3 935.2,-913.3"/>
</a>
</g>
</g>
<!-- Node5 -->
<g id="Node000005" class="node">
<title>Node5</title>
<g id="a_Node000005"><a xlink:href="../../d8/d92/classLSM1x0A__Controller.html#a345d4bd79fa16b18dc33a4ca788fe5f7" target="_top" xlink:title="Performs a hardware reset using the reset pin.">
<polygon fill="white" stroke="#666666" points="613,-868.34 507,-868.34 507,-836.34 613,-836.34 613,-868.34"/>
<text text-anchor="start" x="515" y="-854.84" font-family="Helvetica,sans-Serif" font-size="10.00">LSM1x0A_Controller</text>
<text text-anchor="middle" x="560" y="-842.84" font-family="Helvetica,sans-Serif" font-size="10.00">::hardwareReset</text>
</a>
</g>
</g>
<!-- Node3&#45;&gt;Node5 -->
<g id="edge4_Node000003_Node000005" class="edge">
<title>Node3&#45;&gt;Node5</title>
<g id="a_edge4_Node000003_Node000005"><a xlink:title=" ">
<path fill="none" stroke="#63b8ff" d="M444.9,-852.34C460.91,-852.34 478.72,-852.34 495.41,-852.34"/>
<polygon fill="#63b8ff" stroke="#63b8ff" points="495.24,-855.84 505.24,-852.34 495.24,-848.84 495.24,-855.84"/>
</a>
</g>
</g>
<!-- Node7 -->
<g id="Node000007" class="node">
<title>Node7</title>
<g id="a_Node000007"><a xlink:href="../../d5/d72/classLSM1x0A__LoRaWAN.html#a1892801e37c8cd67d37c76108d6f7d49" target="_top" xlink:title="Validates if the device is currently Joined to the network. (Either confirmed by OTAA or statically a...">
<polygon fill="white" stroke="#666666" points="1283.5,-791.34 1131,-791.34 1131,-771.34 1283.5,-771.34 1283.5,-791.34"/>
<text text-anchor="middle" x="1207.25" y="-777.84" font-family="Helvetica,sans-Serif" font-size="10.00">LSM1x0A_LoRaWAN::isJoined</text>
</a>
</g>
</g>
<!-- Node3&#45;&gt;Node7 -->
<g id="edge6_Node000003_Node000007" class="edge">
<title>Node3&#45;&gt;Node7</title>
<g id="a_edge6_Node000003_Node000007"><a xlink:title=" ">
<path fill="none" stroke="#63b8ff" d="M443.51,-835.93C455.6,-832.58 468.54,-829.44 480.75,-827.34 708.96,-788.16 982.7,-781.51 1119.49,-780.89"/>
<polygon fill="#63b8ff" stroke="#63b8ff" points="1119.2,-784.39 1129.19,-780.86 1119.17,-777.39 1119.2,-784.39"/>
</a>
</g>
</g>
<!-- Node8 -->
<g id="Node000008" class="node">
<title>Node8</title>
<g id="a_Node000008"><a xlink:href="../../d5/d72/classLSM1x0A__LoRaWAN.html#a83e11c0e74ff9e0757db616ab1163424" target="_top" xlink:title="Attempts to recover a lost connection (re&#45;executes OTAA Join if dropped).">
<polygon fill="white" stroke="#666666" points="634.38,-1032.34 485.62,-1032.34 485.62,-1000.34 634.38,-1000.34 634.38,-1032.34"/>
<text text-anchor="start" x="493.62" y="-1018.84" font-family="Helvetica,sans-Serif" font-size="10.00">LSM1x0A_LoRaWAN::recover</text>
<text text-anchor="middle" x="560" y="-1006.84" font-family="Helvetica,sans-Serif" font-size="10.00">Connection</text>
</a>
</g>
</g>
<!-- Node3&#45;&gt;Node8 -->
<g id="edge7_Node000003_Node000008" class="edge">
<title>Node3&#45;&gt;Node8</title>
<g id="a_edge7_Node000003_Node000008"><a xlink:title=" ">
<path fill="none" stroke="#63b8ff" d="M399.45,-868.74C411.64,-896.64 440,-953.53 480.75,-986.34 484.62,-989.46 488.84,-992.27 493.26,-994.81"/>
<polygon fill="#63b8ff" stroke="#63b8ff" points="491.35,-997.77 501.84,-999.26 494.57,-991.55 491.35,-997.77"/>
</a>
</g>
</g>
<!-- Node12 -->
<g id="Node000012" class="node">
<title>Node12</title>
<g id="a_Node000012"><a xlink:href="../../d5/d72/classLSM1x0A__LoRaWAN.html#ae3be4ce59dfa200369733317df356e97" target="_top" xlink:title="Pushes the RAM&#45;cached variables back down into the hardware module. Restores the operational state af...">
<polygon fill="white" stroke="#666666" points="633.25,-388.34 486.75,-388.34 486.75,-356.34 633.25,-356.34 633.25,-388.34"/>
<text text-anchor="start" x="494.75" y="-374.84" font-family="Helvetica,sans-Serif" font-size="10.00">LSM1x0A_LoRaWAN::restore</text>
<text text-anchor="middle" x="560" y="-362.84" font-family="Helvetica,sans-Serif" font-size="10.00">Config</text>
</a>
</g>
</g>
<!-- Node3&#45;&gt;Node12 -->
<g id="edge16_Node000003_Node000012" class="edge">
<title>Node3&#45;&gt;Node12</title>
<g id="a_edge16_Node000003_Node000012"><a xlink:title=" ">
<path fill="none" stroke="#63b8ff" d="M398.38,-836.1C422.7,-765.89 518.92,-488.06 549.57,-399.57"/>
<polygon fill="#63b8ff" stroke="#63b8ff" points="552.83,-400.86 552.79,-390.26 546.21,-398.57 552.83,-400.86"/>
</a>
</g>
</g>
<!-- Node28 -->
<g id="Node000028" class="node">
<title>Node28</title>
<g id="a_Node000028"><a xlink:href="../../d5/d72/classLSM1x0A__LoRaWAN.html#ace4b04396f1de1f4a54f513f5f378db7" target="_top" xlink:title="Manually overrides the internal joined state tracker.">
<polygon fill="white" stroke="#666666" points="639.25,-944.34 480.75,-944.34 480.75,-924.34 639.25,-924.34 639.25,-944.34"/>
<text text-anchor="middle" x="560" y="-930.84" font-family="Helvetica,sans-Serif" font-size="10.00">LSM1x0A_LoRaWAN::setJoined</text>
</a>
</g>
</g>
<!-- Node3&#45;&gt;Node28 -->
<g id="edge49_Node000003_Node000028" class="edge">
<title>Node3&#45;&gt;Node28</title>
<g id="a_edge49_Node000003_Node000028"><a xlink:title=" ">
<path fill="none" stroke="#63b8ff" d="M413.79,-868.7C431.01,-881.46 456.42,-898.88 480.75,-910.34 488.79,-914.13 497.58,-917.5 506.27,-920.43"/>
<polygon fill="#63b8ff" stroke="#63b8ff" points="505.12,-923.74 515.71,-923.45 507.25,-917.07 505.12,-923.74"/>
</a>
</g>
</g>
<!-- Node29 -->
<g id="Node000029" class="node">
<title>Node29</title>
<g id="a_Node000029"><a xlink:href="../../d8/d92/classLSM1x0A__Controller.html#a11ad21cb5ca33ec51346764a23bd485e" target="_top" xlink:title="Performs a software reset (ATZ Command).">
<polygon fill="white" stroke="#666666" points="613,-780.34 507,-780.34 507,-748.34 613,-748.34 613,-780.34"/>
<text text-anchor="start" x="515" y="-766.84" font-family="Helvetica,sans-Serif" font-size="10.00">LSM1x0A_Controller</text>
<text text-anchor="middle" x="560" y="-754.84" font-family="Helvetica,sans-Serif" font-size="10.00">::softwareReset</text>
</a>
</g>
</g>
<!-- Node3&#45;&gt;Node29 -->
<g id="edge50_Node000003_Node000029" class="edge">
<title>Node3&#45;&gt;Node29</title>
<g id="a_edge50_Node000003_Node000029"><a xlink:title=" ">
<path fill="none" stroke="#63b8ff" d="M414.72,-835.92C432.05,-823.46 457.15,-806.46 480.75,-794.34 487.04,-791.12 493.75,-788.03 500.51,-785.16"/>
<polygon fill="#63b8ff" stroke="#63b8ff" points="501.78,-788.42 509.71,-781.39 499.13,-781.94 501.78,-788.42"/>
</a>
</g>
</g>
<!-- Node6 -->
<g id="Node000006" class="node">
<title>Node6</title>
<g id="a_Node000006"><a xlink:href="../../d6/d3c/classLSM1x0A__AtParser.html#ad2839120da13e56132b95019419be1e5" target="_top" xlink:title="Waits for an event (like BOOTALERT) without sending any command. Useful for hardware reset where the ...">
<polygon fill="white" stroke="#666666" points="842.38,-868.34 701.88,-868.34 701.88,-836.34 842.38,-836.34 842.38,-868.34"/>
<text text-anchor="start" x="709.88" y="-854.84" font-family="Helvetica,sans-Serif" font-size="10.00">LSM1x0A_AtParser::waitFor</text>
<text text-anchor="middle" x="772.12" y="-842.84" font-family="Helvetica,sans-Serif" font-size="10.00">Event</text>
</a>
</g>
</g>
<!-- Node5&#45;&gt;Node6 -->
<g id="edge5_Node000005_Node000006" class="edge">
<title>Node5&#45;&gt;Node6</title>
<g id="a_edge5_Node000005_Node000006"><a xlink:title=" ">
<path fill="none" stroke="#63b8ff" d="M613.48,-852.34C636.67,-852.34 664.47,-852.34 690.21,-852.34"/>
<polygon fill="#63b8ff" stroke="#63b8ff" points="689.97,-855.84 699.97,-852.34 689.97,-848.84 689.97,-855.84"/>
</a>
</g>
</g>
<!-- Node9 -->
<g id="Node000009" class="node">
<title>Node9</title>
<g id="a_Node000009"><a xlink:href="../../d5/d72/classLSM1x0A__LoRaWAN.html#a59f781f3cfd30c11cd3973bcb10a7baa" target="_top" xlink:title="Initiates a LoRaWAN Network Join procedure. This is a blocking function until the module fires an eve...">
<polygon fill="white" stroke="#666666" points="837.88,-982.34 706.38,-982.34 706.38,-962.34 837.88,-962.34 837.88,-982.34"/>
<text text-anchor="middle" x="772.12" y="-968.84" font-family="Helvetica,sans-Serif" font-size="10.00">LSM1x0A_LoRaWAN::join</text>
</a>
</g>
</g>
<!-- Node8&#45;&gt;Node9 -->
<g id="edge8_Node000008_Node000009" class="edge">
<title>Node8&#45;&gt;Node9</title>
<g id="a_edge8_Node000008_Node000009"><a xlink:title=" ">
<path fill="none" stroke="#63b8ff" d="M634.79,-1000.89C659.38,-995.74 686.49,-990.07 710.01,-985.14"/>
<polygon fill="#63b8ff" stroke="#63b8ff" points="710.69,-988.57 719.76,-983.1 709.26,-981.72 710.69,-988.57"/>
</a>
</g>
</g>
<!-- Node9&#45;&gt;Node2 -->
<g id="edge11_Node000009_Node000002" class="edge">
<title>Node9&#45;&gt;Node2</title>
<g id="a_edge11_Node000009_Node000002"><a xlink:title=" ">
<path fill="none" stroke="#63b8ff" d="M757.03,-982.69C733.87,-998.98 685.67,-1029.93 639.25,-1041.34 570.84,-1058.16 544.82,-1070.62 480.75,-1041.34 393.06,-1001.28 381.13,-963.95 338.75,-877.34 267.88,-732.51 254.08,-534.44 251.4,-462.69"/>
<polygon fill="#63b8ff" stroke="#63b8ff" points="254.91,-462.94 251.09,-453.06 247.91,-463.16 254.91,-462.94"/>
</a>
</g>
</g>
<!-- Node9&#45;&gt;Node3 -->
<g id="edge10_Node000009_Node000003" class="edge">
<title>Node9&#45;&gt;Node3</title>
<g id="a_edge10_Node000009_Node000003"><a xlink:title=" ">
<path fill="none" stroke="#63b8ff" d="M706.03,-981.83C644.65,-987.71 551.72,-988.48 480.75,-953.34 447.74,-937 421.89,-902.22 406.98,-878.08"/>
<polygon fill="#63b8ff" stroke="#63b8ff" points="410.16,-876.57 402.04,-869.76 404.14,-880.15 410.16,-876.57"/>
</a>
</g>
</g>
<!-- Node9&#45;&gt;Node4 -->
<g id="edge9_Node000009_Node000004" class="edge">
<title>Node9&#45;&gt;Node4</title>
<g id="a_edge9_Node000009_Node000004"><a xlink:title=" ">
<path fill="none" stroke="#63b8ff" d="M810.68,-961.87C844.62,-952.4 895.28,-938.27 935.51,-927.05"/>
<polygon fill="#63b8ff" stroke="#63b8ff" points="936.4,-930.44 945.1,-924.38 934.52,-923.69 936.4,-930.44"/>
</a>
</g>
</g>
<!-- Node10 -->
<g id="Node000010" class="node">
<title>Node10</title>
<g id="a_Node000010"><a xlink:href="../../d5/d72/classLSM1x0A__LoRaWAN.html#a3fdd1ac318a5ad2559323e5d57e36a5e" target="_top" xlink:title="Enables or disables specific sub&#45;bands for regions supporting Channel Masks (e.g.,...">
<polygon fill="white" stroke="#666666" points="1095,-764.34 905,-764.34 905,-744.34 1095,-744.34 1095,-764.34"/>
<text text-anchor="middle" x="1000" y="-750.84" font-family="Helvetica,sans-Serif" font-size="10.00">LSM1x0A_LoRaWAN::setChannelMask</text>
</a>
</g>
</g>
<!-- Node9&#45;&gt;Node10 -->
<g id="edge12_Node000009_Node000010" class="edge">
<title>Node9&#45;&gt;Node10</title>
<g id="a_edge12_Node000009_Node000010"><a xlink:title=" ">
<path fill="none" stroke="#63b8ff" d="M783.72,-962.12C819.2,-927.87 934.24,-816.84 979.99,-772.69"/>
<polygon fill="#63b8ff" stroke="#63b8ff" points="982.31,-775.31 987.08,-765.85 977.45,-770.28 982.31,-775.31"/>
</a>
</g>
</g>
<!-- Node11 -->
<g id="Node000011" class="node">
<title>Node11</title>
<g id="a_Node000011"><a xlink:href="../../d8/d92/classLSM1x0A__Controller.html#a62476e30e50c7fe120aeb8df4b828675" target="_top" xlink:title="Synchronously/blockingly waits for an asynchronous event to occur. Useful for wrapping commands like ...">
<polygon fill="white" stroke="#666666" points="1053,-988.34 947,-988.34 947,-956.34 1053,-956.34 1053,-988.34"/>
<text text-anchor="start" x="955" y="-974.84" font-family="Helvetica,sans-Serif" font-size="10.00">LSM1x0A_Controller</text>
<text text-anchor="middle" x="1000" y="-962.84" font-family="Helvetica,sans-Serif" font-size="10.00">::waitForEvent</text>
</a>
</g>
</g>
<!-- Node9&#45;&gt;Node11 -->
<g id="edge15_Node000009_Node000011" class="edge">
<title>Node9&#45;&gt;Node11</title>
<g id="a_edge15_Node000009_Node000011"><a xlink:title=" ">
<path fill="none" stroke="#63b8ff" d="M838.15,-972.34C868.66,-972.34 904.9,-972.34 935.24,-972.34"/>
<polygon fill="#63b8ff" stroke="#63b8ff" points="935.05,-975.84 945.05,-972.34 935.05,-968.84 935.05,-975.84"/>
</a>
</g>
</g>
<!-- Node10&#45;&gt;Node2 -->
<g id="edge14_Node000010_Node000002" class="edge">
<title>Node10&#45;&gt;Node2</title>
<g id="a_edge14_Node000010_Node000002"><a xlink:title=" ">
<path fill="none" stroke="#63b8ff" d="M904.71,-752.84C741.77,-748.19 417.36,-729.25 338.75,-652.34 284.58,-599.35 262.64,-508.47 254.71,-462.98"/>
<polygon fill="#63b8ff" stroke="#63b8ff" points="258.18,-462.48 253.12,-453.17 251.27,-463.61 258.18,-462.48"/>
</a>
</g>
</g>
<!-- Node10&#45;&gt;Node7 -->
<g id="edge13_Node000010_Node000007" class="edge">
<title>Node10&#45;&gt;Node7</title>
<g id="a_edge13_Node000010_Node000007"><a xlink:title=" ">
<path fill="none" stroke="#63b8ff" d="M1080.65,-764.82C1093.37,-766.5 1106.59,-768.23 1119.47,-769.93"/>
<polygon fill="#63b8ff" stroke="#63b8ff" points="1118.81,-773.37 1129.18,-771.21 1119.73,-766.43 1118.81,-773.37"/>
</a>
</g>
</g>
<!-- Node12&#45;&gt;Node1 -->
<g id="edge36_Node000012_Node000001" class="edge">
<title>Node12&#45;&gt;Node1</title>
<g id="a_edge36_Node000012_Node000001"><a xlink:title=" ">
<path fill="none" stroke="#63b8ff" d="M486.54,-367.64C402.48,-362.19 263.79,-353.18 172.5,-347.26"/>
<polygon fill="#63b8ff" stroke="#63b8ff" points="172.77,-343.77 162.56,-346.61 172.31,-350.75 172.77,-343.77"/>
</a>
</g>
</g>
<!-- Node12&#45;&gt;Node10 -->
<g id="edge21_Node000012_Node000010" class="edge">
<title>Node12&#45;&gt;Node10</title>
<g id="a_edge21_Node000012_Node000010"><a xlink:title=" ">
<path fill="none" stroke="#63b8ff" d="M633.53,-365C713.8,-358.61 836.19,-354.61 869,-385.34 923.48,-436.38 859.18,-660.41 905,-719.34 911.74,-728.02 920.87,-734.54 930.8,-739.45"/>
<polygon fill="#63b8ff" stroke="#63b8ff" points="929.41,-742.66 939.98,-743.4 932.18,-736.23 929.41,-742.66"/>
</a>
</g>
</g>
<!-- Node13 -->
<g id="Node000013" class="node">
<title>Node13</title>
<g id="a_Node000013"><a xlink:href="../../d5/d72/classLSM1x0A__LoRaWAN.html#af0baa3db4c7fab580d6b19a9e92472f6" target="_top" xlink:title="Enables or disables Adaptive Data Rate (ADR).">
<polygon fill="white" stroke="#666666" points="848,-540.34 696.25,-540.34 696.25,-520.34 848,-520.34 848,-540.34"/>
<text text-anchor="middle" x="772.12" y="-526.84" font-family="Helvetica,sans-Serif" font-size="10.00">LSM1x0A_LoRaWAN::setADR</text>
</a>
</g>
</g>
<!-- Node12&#45;&gt;Node13 -->
<g id="edge17_Node000012_Node000013" class="edge">
<title>Node12&#45;&gt;Node13</title>
<g id="a_edge17_Node000012_Node000013"><a xlink:title=" ">
<path fill="none" stroke="#63b8ff" d="M569.45,-388.75C585.65,-418.41 624.05,-480.71 675.25,-511.34 678.45,-513.26 681.81,-514.99 685.28,-516.55"/>
<polygon fill="#63b8ff" stroke="#63b8ff" points="683.96,-519.79 694.54,-520.17 686.51,-513.27 683.96,-519.79"/>
</a>
</g>
</g>
<!-- Node14 -->
<g id="Node000014" class="node">
<title>Node14</title>
<g id="a_Node000014"><a xlink:href="../../d5/d72/classLSM1x0A__LoRaWAN.html#a5365ed1596eb84ebf1e3b33b4a10c788" target="_top" xlink:title="Sets the LoRaWAN operational frequency band.">
<polygon fill="white" stroke="#666666" points="848.38,-502.34 695.88,-502.34 695.88,-482.34 848.38,-482.34 848.38,-502.34"/>
<text text-anchor="middle" x="772.12" y="-488.84" font-family="Helvetica,sans-Serif" font-size="10.00">LSM1x0A_LoRaWAN::setBand</text>
</a>
</g>
</g>
<!-- Node12&#45;&gt;Node14 -->
<g id="edge19_Node000012_Node000014" class="edge">
<title>Node12&#45;&gt;Node14</title>
<g id="a_edge19_Node000012_Node000014"><a xlink:title=" ">
<path fill="none" stroke="#63b8ff" d="M574.26,-388.55C593.85,-411.31 632.78,-452.32 675.25,-473.34 678.93,-475.16 682.76,-476.81 686.7,-478.3"/>
<polygon fill="#63b8ff" stroke="#63b8ff" points="685.27,-481.51 695.86,-481.4 687.51,-474.88 685.27,-481.51"/>
</a>
</g>
</g>
<!-- Node15 -->
<g id="Node000015" class="node">
<title>Node15</title>
<g id="a_Node000015"><a xlink:href="../../d5/d72/classLSM1x0A__LoRaWAN.html#a9d9285c43414337a0ccb3a6cd7ca06e6" target="_top" xlink:title="Configures the number of retries for Confirmed uplinks.">
<polygon fill="white" stroke="#666666" points="854.38,-464.34 689.88,-464.34 689.88,-432.34 854.38,-432.34 854.38,-464.34"/>
<text text-anchor="start" x="697.88" y="-450.84" font-family="Helvetica,sans-Serif" font-size="10.00">LSM1x0A_LoRaWAN::setConfirm</text>
<text text-anchor="middle" x="772.12" y="-438.84" font-family="Helvetica,sans-Serif" font-size="10.00">Retry</text>
</a>
</g>
</g>
<!-- Node12&#45;&gt;Node15 -->
<g id="edge22_Node000012_Node000015" class="edge">
<title>Node12&#45;&gt;Node15</title>
<g id="a_edge22_Node000012_Node000015"><a xlink:title=" ">
<path fill="none" stroke="#63b8ff" d="M593.91,-388.77C616.42,-399.58 647.17,-413.49 675.25,-423.34 680.54,-425.2 686.04,-426.99 691.61,-428.7"/>
<polygon fill="#63b8ff" stroke="#63b8ff" points="690.33,-431.97 700.91,-431.45 692.32,-425.26 690.33,-431.97"/>
</a>
</g>
</g>
<!-- Node16 -->
<g id="Node000016" class="node">
<title>Node16</title>
<g id="a_Node000016"><a xlink:href="../../d5/d72/classLSM1x0A__LoRaWAN.html#a56345ceeafa0b9059d6de4e69eddc82e" target="_top" xlink:title="Sets the Data Rate (DR) of the module.">
<polygon fill="white" stroke="#666666" points="858.12,-414.34 686.12,-414.34 686.12,-394.34 858.12,-394.34 858.12,-414.34"/>
<text text-anchor="middle" x="772.12" y="-400.84" font-family="Helvetica,sans-Serif" font-size="10.00">LSM1x0A_LoRaWAN::setDataRate</text>
</a>
</g>
</g>
<!-- Node12&#45;&gt;Node16 -->
<g id="edge24_Node000012_Node000016" class="edge">
<title>Node12&#45;&gt;Node16</title>
<g id="a_edge24_Node000012_Node000016"><a xlink:title=" ">
<path fill="none" stroke="#63b8ff" d="M633.61,-383.4C652.16,-386.23 672.22,-389.28 691.12,-392.16"/>
<polygon fill="#63b8ff" stroke="#63b8ff" points="690.5,-395.61 700.91,-393.65 691.55,-388.69 690.5,-395.61"/>
</a>
</g>
</g>
<!-- Node17 -->
<g id="Node000017" class="node">
<title>Node17</title>
<g id="a_Node000017"><a xlink:href="../../d5/d72/classLSM1x0A__LoRaWAN.html#a8494083816ab885cb07fc3b08de029f4" target="_top" xlink:title="Sets the LoRaWAN Device Address (DevAddr) for ABP mode.">
<polygon fill="white" stroke="#666666" points="856.25,-338.34 688,-338.34 688,-318.34 856.25,-318.34 856.25,-338.34"/>
<text text-anchor="middle" x="772.12" y="-324.84" font-family="Helvetica,sans-Serif" font-size="10.00">LSM1x0A_LoRaWAN::setDevAddr</text>
</a>
</g>
</g>
<!-- Node12&#45;&gt;Node17 -->
<g id="edge26_Node000012_Node000017" class="edge">
<title>Node12&#45;&gt;Node17</title>
<g id="a_edge26_Node000012_Node000017"><a xlink:title=" ">
<path fill="none" stroke="#63b8ff" d="M633.61,-357.14C658.49,-351.93 686.07,-346.15 709.96,-341.15"/>
<polygon fill="#63b8ff" stroke="#63b8ff" points="710.45,-344.63 719.52,-339.15 709.02,-337.77 710.45,-344.63"/>
</a>
</g>
</g>
<!-- Node18 -->
<g id="Node000018" class="node">
<title>Node18</title>
<g id="a_Node000018"><a xlink:href="../../d5/d72/classLSM1x0A__LoRaWAN.html#ad320634e52d7ea907043cc50dd37c5b0" target="_top" xlink:title="Sets the LoRaWAN Device EUI (DevEUI).">
<polygon fill="white" stroke="#666666" points="854.75,-300.34 689.5,-300.34 689.5,-280.34 854.75,-280.34 854.75,-300.34"/>
<text text-anchor="middle" x="772.12" y="-286.84" font-family="Helvetica,sans-Serif" font-size="10.00">LSM1x0A_LoRaWAN::setDevEUI</text>
</a>
</g>
</g>
<!-- Node12&#45;&gt;Node18 -->
<g id="edge28_Node000012_Node000018" class="edge">
<title>Node12&#45;&gt;Node18</title>
<g id="a_edge28_Node000012_Node000018"><a xlink:title=" ">
<path fill="none" stroke="#63b8ff" d="M585.35,-356C607.79,-341.67 642.48,-321.3 675.25,-309.34 681.03,-307.24 687.09,-305.34 693.25,-303.65"/>
<polygon fill="#63b8ff" stroke="#63b8ff" points="694.09,-307.05 702.91,-301.18 692.36,-300.26 694.09,-307.05"/>
</a>
</g>
</g>
<!-- Node19 -->
<g id="Node000019" class="node">
<title>Node19</title>
<g id="a_Node000019"><a xlink:href="../../d5/d72/classLSM1x0A__LoRaWAN.html#a031023b0d2dd5db3c51c2db6ae7801cc" target="_top" xlink:title="Enables or disables the Duty Cycle limitation (EU regions mostly).">
<polygon fill="white" stroke="#666666" points="847.62,-262.34 696.62,-262.34 696.62,-230.34 847.62,-230.34 847.62,-262.34"/>
<text text-anchor="start" x="704.62" y="-248.84" font-family="Helvetica,sans-Serif" font-size="10.00">LSM1x0A_LoRaWAN::setDuty</text>
<text text-anchor="middle" x="772.12" y="-236.84" font-family="Helvetica,sans-Serif" font-size="10.00">Cycle</text>
</a>
</g>
</g>
<!-- Node12&#45;&gt;Node19 -->
<g id="edge30_Node000012_Node000019" class="edge">
<title>Node12&#45;&gt;Node19</title>
<g id="a_edge30_Node000012_Node000019"><a xlink:title=" ">
<path fill="none" stroke="#63b8ff" d="M574.77,-356.1C594.67,-333.68 633.66,-293.5 675.25,-271.34 678.66,-269.53 682.2,-267.84 685.83,-266.27"/>
<polygon fill="#63b8ff" stroke="#63b8ff" points="686.84,-269.64 694.86,-262.71 684.27,-263.13 686.84,-269.64"/>
</a>
</g>
</g>
<!-- Node20 -->
<g id="Node000020" class="node">
<title>Node20</title>
<g id="a_Node000020"><a xlink:href="../../d5/d72/classLSM1x0A__LoRaWAN.html#a6b179d5825c49af0f391dfc539912f64" target="_top" xlink:title="Sets the delay for the Join1 receive window.">
<polygon fill="white" stroke="#666666" points="848.75,-212.34 695.5,-212.34 695.5,-180.34 848.75,-180.34 848.75,-212.34"/>
<text text-anchor="start" x="703.5" y="-198.84" font-family="Helvetica,sans-Serif" font-size="10.00">LSM1x0A_LoRaWAN::setJoin1</text>
<text text-anchor="middle" x="772.12" y="-186.84" font-family="Helvetica,sans-Serif" font-size="10.00">Delay</text>
</a>
</g>
</g>
<!-- Node12&#45;&gt;Node20 -->
<g id="edge32_Node000012_Node000020" class="edge">
<title>Node12&#45;&gt;Node20</title>
<g id="a_edge32_Node000012_Node000020"><a xlink:title=" ">
<path fill="none" stroke="#63b8ff" d="M568.53,-356.3C583.95,-325.22 622.22,-256.78 675.25,-221.34 678.32,-219.29 681.56,-217.4 684.91,-215.67"/>
<polygon fill="#63b8ff" stroke="#63b8ff" points="686.23,-218.92 693.85,-211.56 683.31,-212.56 686.23,-218.92"/>
</a>
</g>
</g>
<!-- Node21 -->
<g id="Node000021" class="node">
<title>Node21</title>
<g id="a_Node000021"><a xlink:href="../../d5/d72/classLSM1x0A__LoRaWAN.html#a4545d0caad41558cdb9bae8286b104d8" target="_top" xlink:title="Sets the delay for the Join2 receive window.">
<polygon fill="white" stroke="#666666" points="848.75,-162.34 695.5,-162.34 695.5,-130.34 848.75,-130.34 848.75,-162.34"/>
<text text-anchor="start" x="703.5" y="-148.84" font-family="Helvetica,sans-Serif" font-size="10.00">LSM1x0A_LoRaWAN::setJoin2</text>
<text text-anchor="middle" x="772.12" y="-136.84" font-family="Helvetica,sans-Serif" font-size="10.00">Delay</text>
</a>
</g>
</g>
<!-- Node12&#45;&gt;Node21 -->
<g id="edge34_Node000012_Node000021" class="edge">
<title>Node12&#45;&gt;Node21</title>
<g id="a_edge34_Node000012_Node000021"><a xlink:title=" ">
<path fill="none" stroke="#63b8ff" d="M565.52,-355.88C576.98,-317.31 610.92,-220.7 675.25,-171.34 678.35,-168.97 681.65,-166.82 685.09,-164.87"/>
<polygon fill="#63b8ff" stroke="#63b8ff" points="686.36,-168.15 693.77,-160.57 683.26,-161.87 686.36,-168.15"/>
</a>
</g>
</g>
<!-- Node22 -->
<g id="Node000022" class="node">
<title>Node22</title>
<g id="a_Node000022"><a xlink:href="../../d5/d72/classLSM1x0A__LoRaWAN.html#aa70ada64d28ecca216bb62268e502adf" target="_top" xlink:title="Sets the delay for the RX1 receive window.">
<polygon fill="white" stroke="#666666" points="858.88,-112.34 685.38,-112.34 685.38,-92.34 858.88,-92.34 858.88,-112.34"/>
<text text-anchor="middle" x="772.12" y="-98.84" font-family="Helvetica,sans-Serif" font-size="10.00">LSM1x0A_LoRaWAN::setRx1Delay</text>
</a>
</g>
</g>
<!-- Node12&#45;&gt;Node22 -->
<g id="edge37_Node000012_Node000022" class="edge">
<title>Node12&#45;&gt;Node22</title>
<g id="a_edge37_Node000012_Node000022"><a xlink:title=" ">
<path fill="none" stroke="#63b8ff" d="M563.26,-356.03C570.42,-310.84 596.98,-183.31 675.25,-121.34 676.58,-120.29 677.95,-119.29 679.36,-118.34"/>
<polygon fill="#63b8ff" stroke="#63b8ff" points="680.86,-121.51 687.83,-113.53 677.41,-115.43 680.86,-121.51"/>
</a>
</g>
</g>
<!-- Node23 -->
<g id="Node000023" class="node">
<title>Node23</title>
<g id="a_Node000023"><a xlink:href="../../d5/d72/classLSM1x0A__LoRaWAN.html#a2cf4eff0181b6107d082bccefa24217b" target="_top" xlink:title="Sets the Data Rate (DR) specifically for the RX2 window.">
<polygon fill="white" stroke="#666666" points="867.12,-74.34 677.12,-74.34 677.12,-54.34 867.12,-54.34 867.12,-74.34"/>
<text text-anchor="middle" x="772.12" y="-60.84" font-family="Helvetica,sans-Serif" font-size="10.00">LSM1x0A_LoRaWAN::setRx2DataRate</text>
</a>
</g>
</g>
<!-- Node12&#45;&gt;Node23 -->
<g id="edge39_Node000012_Node000023" class="edge">
<title>Node12&#45;&gt;Node23</title>
<g id="a_edge39_Node000012_Node000023"><a xlink:title=" ">
<path fill="none" stroke="#63b8ff" d="M562.18,-356.16C566.7,-306.72 587.4,-156.59 675.25,-83.34 676.39,-82.4 677.56,-81.49 678.76,-80.63"/>
<polygon fill="#63b8ff" stroke="#63b8ff" points="680.43,-83.71 687.19,-75.55 676.82,-77.71 680.43,-83.71"/>
</a>
</g>
</g>
<!-- Node24 -->
<g id="Node000024" class="node">
<title>Node24</title>
<g id="a_Node000024"><a xlink:href="../../d5/d72/classLSM1x0A__LoRaWAN.html#a42d2137b475b57e19d891a5f1ac93221" target="_top" xlink:title="Sets the delay for the RX2 receive window.">
<polygon fill="white" stroke="#666666" points="858.88,-36.34 685.38,-36.34 685.38,-16.34 858.88,-16.34 858.88,-36.34"/>
<text text-anchor="middle" x="772.12" y="-22.84" font-family="Helvetica,sans-Serif" font-size="10.00">LSM1x0A_LoRaWAN::setRx2Delay</text>
</a>
</g>
</g>
<!-- Node12&#45;&gt;Node24 -->
<g id="edge41_Node000012_Node000024" class="edge">
<title>Node12&#45;&gt;Node24</title>
<g id="a_edge41_Node000012_Node000024"><a xlink:title=" ">
<path fill="none" stroke="#63b8ff" d="M561.36,-356.02C563.46,-302.34 577.86,-129.93 675.25,-45.34 676.21,-44.51 677.2,-43.71 678.21,-42.94"/>
<polygon fill="#63b8ff" stroke="#63b8ff" points="680.02,-45.93 686.6,-37.63 676.28,-40.02 680.02,-45.93"/>
</a>
</g>
</g>
<!-- Node25 -->
<g id="Node000025" class="node">
<title>Node25</title>
<g id="a_Node000025"><a xlink:href="../../d5/d72/classLSM1x0A__LoRaWAN.html#a689f7dfda1dfeae11ea397c2ddf2ad37" target="_top" xlink:title="Sets the precise frequency for the RX2 window.">
<polygon fill="white" stroke="#666666" points="869,-666.34 675.25,-666.34 675.25,-646.34 869,-646.34 869,-666.34"/>
<text text-anchor="middle" x="772.12" y="-652.84" font-family="Helvetica,sans-Serif" font-size="10.00">LSM1x0A_LoRaWAN::setRx2Frequency</text>
</a>
</g>
</g>
<!-- Node12&#45;&gt;Node25 -->
<g id="edge43_Node000012_Node000025" class="edge">
<title>Node12&#45;&gt;Node25</title>
<g id="a_edge43_Node000012_Node000025"><a xlink:title=" ">
<path fill="none" stroke="#63b8ff" d="M562.81,-388.53C568.96,-435.26 593.42,-571.21 675.25,-637.34 676.57,-638.41 677.93,-639.42 679.33,-640.38"/>
<polygon fill="#63b8ff" stroke="#63b8ff" points="677.35,-643.28 687.76,-645.24 680.85,-637.22 677.35,-643.28"/>
</a>
</g>
</g>
<!-- Node26 -->
<g id="Node000026" class="node">
<title>Node26</title>
<g id="a_Node000026"><a xlink:href="../../d5/d72/classLSM1x0A__LoRaWAN.html#a1df10d7ae6bf45b537d28d3d5c4b88d7" target="_top" xlink:title="Sets the transmission power index.">
<polygon fill="white" stroke="#666666" points="856.62,-628.34 687.62,-628.34 687.62,-608.34 856.62,-608.34 856.62,-628.34"/>
<text text-anchor="middle" x="772.12" y="-614.84" font-family="Helvetica,sans-Serif" font-size="10.00">LSM1x0A_LoRaWAN::setTxPower</text>
</a>
</g>
</g>
<!-- Node12&#45;&gt;Node26 -->
<g id="edge45_Node000012_Node000026" class="edge">
<title>Node12&#45;&gt;Node26</title>
<g id="a_edge45_Node000012_Node000026"><a xlink:title=" ">
<path fill="none" stroke="#63b8ff" d="M564.09,-388.64C573.01,-430.87 602.9,-544.34 675.25,-599.34 676.78,-600.51 678.37,-601.61 680,-602.65"/>
<polygon fill="#63b8ff" stroke="#63b8ff" points="677.97,-605.53 688.43,-607.21 681.3,-599.37 677.97,-605.53"/>
</a>
</g>
</g>
<!-- Node27 -->
<g id="Node000027" class="node">
<title>Node27</title>
<g id="a_Node000027"><a xlink:href="../../d5/d72/classLSM1x0A__LoRaWAN.html#a059fd6a9356c4ecadd5a98294da5952d" target="_top" xlink:title="Configures the number of repetitions for Unconfirmed uplinks.">
<polygon fill="white" stroke="#666666" points="859.62,-590.34 684.62,-590.34 684.62,-558.34 859.62,-558.34 859.62,-590.34"/>
<text text-anchor="start" x="692.62" y="-576.84" font-family="Helvetica,sans-Serif" font-size="10.00">LSM1x0A_LoRaWAN::setUnconfirm</text>
<text text-anchor="middle" x="772.12" y="-564.84" font-family="Helvetica,sans-Serif" font-size="10.00">Retry</text>
</a>
</g>
</g>
<!-- Node12&#45;&gt;Node27 -->
<g id="edge47_Node000012_Node000027" class="edge">
<title>Node12&#45;&gt;Node27</title>
<g id="a_edge47_Node000012_Node000027"><a xlink:title=" ">
<path fill="none" stroke="#63b8ff" d="M566.8,-388.68C580.14,-423.81 616.43,-506.79 675.25,-549.34 676.83,-550.49 678.46,-551.58 680.13,-552.62"/>
<polygon fill="#63b8ff" stroke="#63b8ff" points="678.31,-555.61 688.76,-557.33 681.66,-549.47 678.31,-555.61"/>
</a>
</g>
</g>
<!-- Node13&#45;&gt;Node2 -->
<g id="edge18_Node000013_Node000002" class="edge">
<title>Node13&#45;&gt;Node2</title>
<g id="a_edge18_Node000013_Node000002"><a xlink:title=" ">
<path fill="none" stroke="#63b8ff" d="M696.05,-526.74C608.82,-521.12 461.18,-507.14 338.75,-473.34 323.54,-469.14 307.52,-462.84 293.38,-456.57"/>
<polygon fill="#63b8ff" stroke="#63b8ff" points="294.91,-453.42 284.36,-452.45 292,-459.79 294.91,-453.42"/>
</a>
</g>
</g>
<!-- Node14&#45;&gt;Node2 -->
<g id="edge20_Node000014_Node000002" class="edge">
<title>Node14&#45;&gt;Node2</title>
<g id="a_edge20_Node000014_Node000002"><a xlink:title=" ">
<path fill="none" stroke="#63b8ff" d="M695.45,-488.09C608.9,-482.63 463.09,-471.61 338.75,-453.34 330.79,-452.18 322.47,-450.75 314.26,-449.21"/>
<polygon fill="#63b8ff" stroke="#63b8ff" points="315.13,-445.82 304.65,-447.35 313.8,-452.69 315.13,-445.82"/>
</a>
</g>
</g>
<!-- Node15&#45;&gt;Node2 -->
<g id="edge23_Node000015_Node000002" class="edge">
<title>Node15&#45;&gt;Node2</title>
<g id="a_edge23_Node000015_Node000002"><a xlink:title=" ">
<path fill="none" stroke="#63b8ff" d="M689.6,-446.31C585.84,-443.72 408.78,-439.29 314.4,-436.93"/>
<polygon fill="#63b8ff" stroke="#63b8ff" points="314.63,-433.44 304.54,-436.69 314.45,-440.44 314.63,-433.44"/>
</a>
</g>
</g>
<!-- Node16&#45;&gt;Node2 -->
<g id="edge25_Node000016_Node000002" class="edge">
<title>Node16&#45;&gt;Node2</title>
<g id="a_edge25_Node000016_Node000002"><a xlink:title=" ">
<path fill="none" stroke="#63b8ff" d="M685.89,-409.42C581.61,-415.63 407.49,-426.01 314.26,-431.56"/>
<polygon fill="#63b8ff" stroke="#63b8ff" points="314.31,-428.05 304.54,-432.14 314.73,-435.04 314.31,-428.05"/>
</a>
</g>
</g>
<!-- Node17&#45;&gt;Node2 -->
<g id="edge27_Node000017_Node000002" class="edge">
<title>Node17&#45;&gt;Node2</title>
<g id="a_edge27_Node000017_Node000002"><a xlink:title=" ">
<path fill="none" stroke="#63b8ff" d="M687.59,-327.22C629.06,-328.02 549.35,-332.34 480.75,-347.34 413.47,-362.06 339.79,-393.1 294.41,-414.09"/>
<polygon fill="#63b8ff" stroke="#63b8ff" points="293,-410.89 285.43,-418.29 295.97,-417.23 293,-410.89"/>
</a>
</g>
</g>
<!-- Node18&#45;&gt;Node2 -->
<g id="edge29_Node000018_Node000002" class="edge">
<title>Node18&#45;&gt;Node2</title>
<g id="a_edge29_Node000018_Node000002"><a xlink:title=" ">
<path fill="none" stroke="#63b8ff" d="M689.06,-286.57C598.35,-285.82 450.33,-294.9 338.75,-352.34 311.47,-366.39 286.67,-391.43 270.4,-410.35"/>
<polygon fill="#63b8ff" stroke="#63b8ff" points="267.81,-407.99 264.09,-417.91 273.19,-412.47 267.81,-407.99"/>
</a>
</g>
</g>
<!-- Node19&#45;&gt;Node2 -->
<g id="edge31_Node000019_Node000002" class="edge">
<title>Node19&#45;&gt;Node2</title>
<g id="a_edge31_Node000019_Node000002"><a xlink:title=" ">
<path fill="none" stroke="#63b8ff" d="M696.25,-239.59C604.55,-235.08 447.97,-239.93 338.75,-310.34 301.76,-334.19 275.77,-379.59 262.05,-408.61"/>
<polygon fill="#63b8ff" stroke="#63b8ff" points="258.97,-406.93 258.02,-417.48 265.34,-409.82 258.97,-406.93"/>
</a>
</g>
</g>
<!-- Node20&#45;&gt;Node2 -->
<g id="edge33_Node000020_Node000002" class="edge">
<title>Node20&#45;&gt;Node2</title>
<g id="a_edge33_Node000020_Node000002"><a xlink:title=" ">
<path fill="none" stroke="#63b8ff" d="M695.3,-187.36C601.92,-180.48 442.91,-182.94 338.75,-261.34 290.1,-297.97 266.37,-369.04 256.56,-408.06"/>
<polygon fill="#63b8ff" stroke="#63b8ff" points="253.2,-407.06 254.3,-417.6 260.01,-408.67 253.2,-407.06"/>
</a>
</g>
</g>
<!-- Node21&#45;&gt;Node2 -->
<g id="edge35_Node000021_Node000002" class="edge">
<title>Node21&#45;&gt;Node2</title>
<g id="a_edge35_Node000021_Node000002"><a xlink:title=" ">
<path fill="none" stroke="#63b8ff" d="M695.4,-134.65C601.01,-124.53 439.84,-122.52 338.75,-205.34 275.79,-256.92 257.81,-358.98 252.72,-407.91"/>
<polygon fill="#63b8ff" stroke="#63b8ff" points="249.26,-407.36 251.83,-417.64 256.23,-408 249.26,-407.36"/>
</a>
</g>
</g>
<!-- Node22&#45;&gt;Node2 -->
<g id="edge38_Node000022_Node000002" class="edge">
<title>Node22&#45;&gt;Node2</title>
<g id="a_edge38_Node000022_Node000002"><a xlink:title=" ">
<path fill="none" stroke="#63b8ff" d="M685.04,-100.22C573.89,-99.34 388.76,-104.76 338.75,-148.34 261.34,-215.82 250.96,-349.45 250.29,-407.42"/>
<polygon fill="#63b8ff" stroke="#63b8ff" points="246.79,-407.39 250.27,-417.39 253.79,-407.4 246.79,-407.39"/>
</a>
</g>
</g>
<!-- Node23&#45;&gt;Node2 -->
<g id="edge40_Node000023_Node000002" class="edge">
<title>Node23&#45;&gt;Node2</title>
<g id="a_edge40_Node000023_Node000002"><a xlink:title=" ">
<path fill="none" stroke="#63b8ff" d="M677,-62.1C565.32,-61.45 388.02,-67.39 338.75,-109.34 292.66,-148.6 263.66,-336.73 254.17,-407.95"/>
<polygon fill="#63b8ff" stroke="#63b8ff" points="250.74,-407.21 252.92,-417.58 257.68,-408.12 250.74,-407.21"/>
</a>
</g>
</g>
<!-- Node24&#45;&gt;Node2 -->
<g id="edge42_Node000024_Node000002" class="edge">
<title>Node24&#45;&gt;Node2</title>
<g id="a_edge42_Node000024_Node000002"><a xlink:title=" ">
<path fill="none" stroke="#63b8ff" d="M726.05,-15.89C639.45,1.31 448.67,24.8 338.75,-71.34 287.54,-116.14 261.24,-331 253.35,-407.9"/>
<polygon fill="#63b8ff" stroke="#63b8ff" points="249.91,-407.2 252.4,-417.5 256.87,-407.9 249.91,-407.2"/>
</a>
</g>
</g>
<!-- Node25&#45;&gt;Node2 -->
<g id="edge44_Node000025_Node000002" class="edge">
<title>Node25&#45;&gt;Node2</title>
<g id="a_edge44_Node000025_Node000002"><a xlink:title=" ">
<path fill="none" stroke="#63b8ff" d="M674.92,-659.66C580.16,-658.04 435.89,-641.86 338.75,-567.34 302.32,-539.4 276.02,-491.87 262.1,-462.12"/>
<polygon fill="#63b8ff" stroke="#63b8ff" points="265.31,-460.72 258.01,-453.05 258.93,-463.6 265.31,-460.72"/>
</a>
</g>
</g>
<!-- Node26&#45;&gt;Node2 -->
<g id="edge46_Node000026_Node000002" class="edge">
<title>Node26&#45;&gt;Node2</title>
<g id="a_edge46_Node000026_Node000002"><a xlink:title=" ">
<path fill="none" stroke="#63b8ff" d="M687.43,-617.78C595.62,-613.6 446.94,-596.06 338.75,-530.34 309.59,-512.63 284.08,-482.54 268.14,-460.96"/>
<polygon fill="#63b8ff" stroke="#63b8ff" points="271.06,-459.04 262.39,-452.95 265.38,-463.12 271.06,-459.04"/>
</a>
</g>
</g>
<!-- Node27&#45;&gt;Node2 -->
<g id="edge48_Node000027_Node000002" class="edge">
<title>Node27&#45;&gt;Node2</title>
<g id="a_edge48_Node000027_Node000002"><a xlink:title=" ">
<path fill="none" stroke="#63b8ff" d="M684.47,-570.92C594.68,-564.7 451.91,-547.26 338.75,-498.34 316.19,-488.59 293.72,-472.36 277.13,-458.82"/>
<polygon fill="#63b8ff" stroke="#63b8ff" points="279.62,-456.35 269.71,-452.6 275.12,-461.71 279.62,-456.35"/>
</a>
</g>
</g>
<!-- Node29&#45;&gt;Node30 -->
<g id="edge51_Node000029_Node000030" class="edge">
<title>Node29&#45;&gt;Node30</title>
<g id="a_edge51_Node000029_Node000030"><a xlink:title=" ">
<path fill="none" stroke="#63b8ff" d="M610.26,-747.93C646.39,-735.9 694.9,-719.74 729.18,-708.32"/>
<polygon fill="#63b8ff" stroke="#63b8ff" points="729.95,-711.75 738.34,-705.27 727.74,-705.11 729.95,-711.75"/>
</a>
</g>
</g>
<!-- Node31 -->
<g id="Node000031" class="node">
<title>Node31</title>
<g id="a_Node000031"><a xlink:href="../../d6/d3c/classLSM1x0A__AtParser.html#a0ba6f927c54fceece22c17773d3f2600" target="_top" xlink:title="Sends a command and extracts a value from the response.">
<polygon fill="white" stroke="#666666" points="1087.12,-710.34 912.88,-710.34 912.88,-678.34 1087.12,-678.34 1087.12,-710.34"/>
<text text-anchor="start" x="920.88" y="-696.84" font-family="Helvetica,sans-Serif" font-size="10.00">LSM1x0A_AtParser::sendCommand</text>
<text text-anchor="middle" x="1000" y="-684.84" font-family="Helvetica,sans-Serif" font-size="10.00">WithResponse</text>
</a>
</g>
</g>
<!-- Node30&#45;&gt;Node31 -->
<g id="edge52_Node000030_Node000031" class="edge">
<title>Node30&#45;&gt;Node31</title>
<g id="a_edge52_Node000030_Node000031"><a xlink:title=" ">
<path fill="none" stroke="#63b8ff" d="M859.49,-694.34C873.24,-694.34 887.56,-694.34 901.55,-694.34"/>
<polygon fill="#63b8ff" stroke="#63b8ff" points="901.17,-697.84 911.17,-694.34 901.17,-690.84 901.17,-697.84"/>
</a>
</g>
</g>
<!-- Node32 -->
<g id="Node000032" class="node">
<title>Node32</title>
<g id="a_Node000032"><a xlink:href="../../d5/d8b/classUartDriver.html#a5d0f22e8867eebe99273078bb19bd23d" target="_top" xlink:title="Sends data through UART.">
<polygon fill="white" stroke="#666666" points="1261.75,-704.34 1152.75,-704.34 1152.75,-684.34 1261.75,-684.34 1261.75,-704.34"/>
<text text-anchor="middle" x="1207.25" y="-690.84" font-family="Helvetica,sans-Serif" font-size="10.00">UartDriver::sendData</text>
</a>
</g>
</g>
<!-- Node31&#45;&gt;Node32 -->
<g id="edge53_Node000031_Node000032" class="edge">
<title>Node31&#45;&gt;Node32</title>
<g id="a_edge53_Node000031_Node000032"><a xlink:title=" ">
<path fill="none" stroke="#63b8ff" d="M1087.45,-694.34C1105.34,-694.34 1123.91,-694.34 1140.89,-694.34"/>
<polygon fill="#63b8ff" stroke="#63b8ff" points="1140.86,-697.84 1150.86,-694.34 1140.86,-690.84 1140.86,-697.84"/>
</a>
</g>
</g>
</g>
</svg>
