<?xml version="1.0" encoding="UTF-8" standalone="no"?>
<!DOCTYPE svg PUBLIC "-//W3C//DTD SVG 1.1//EN"
 "http://www.w3.org/Graphics/SVG/1.1/DTD/svg11.dtd">
<!-- Generated by graphviz version 12.2.1 (20241206.2353)
 -->
<!-- Title: LSM1x0A_LoRaWAN::setJoin2Delay Pages: 1 -->
<!--zoomable 1059 -->

<svg id="main" version="1.1" xmlns="http://www.w3.org/2000/svg" xmlns:xlink="http://www.w3.org/1999/xlink" xml:space="preserve" onload="init(evt)">
<style type="text/css"><![CDATA[
.node, .edge {opacity: 0.7;}
.node.selected, .edge.selected {opacity: 1;}
.edge:hover path { stroke: red; }
.edge:hover polygon { stroke: red; fill: red; }
]]></style>

<defs>
  <circle id="rim" cx="0" cy="0" r="7"/>
  <circle id="rim2" cx="0" cy="0" r="3.5"/>
  <g id="zoomPlus">
    <use xlink:href="#rim" fill="#404040"><set attributeName="fill" to="#808080" begin="zoomplus.mouseover" end="zoomplus.mouseout"/></use>
    <path d="M-4,0h8M0,-4v8" fill="none" stroke="white" stroke-width="1.5" pointer-events="none"/>
  </g>
  <g id="zoomMin">
    <use xlink:href="#rim" fill="#404040"><set attributeName="fill" to="#808080" begin="zoomminus.mouseover" end="zoomminus.mouseout"/></use>
    <path d="M-4,0h8" fill="none" stroke="white" stroke-width="1.5" pointer-events="none"/>
  </g>
  <g id="arrowUp" transform="translate(30 24)">
    <use xlink:href="#rim"/>
    <path pointer-events="none" fill="none" stroke="white" stroke-width="1.5" d="M0,-3.0v7 M-2.5,-0.5L0,-3.0L2.5,-0.5"/>
  </g>
  <g id="arrowRight" transform="rotate(90) translate(36 -43)">
    <use xlink:href="#rim"/>
    <path pointer-events="none" fill="none" stroke="white" stroke-width="1.5" d="M0,-3.0v7 M-2.5,-0.5L0,-3.0L2.5,-0.5"/>
  </g>
  <g id="arrowDown" transform="rotate(180) translate(-30 -48)">
    <use xlink:href="#rim"/>
    <path pointer-events="none" fill="none" stroke="white" stroke-width="1.5" d="M0,-3.0v7 M-2.5,-0.5L0,-3.0L2.5,-0.5"/>
  </g>
  <g id="arrowLeft" transform="rotate(270) translate(-36 17)">
    <use xlink:href="#rim"/>
    <path pointer-events="none" fill="none" stroke="white" stroke-width="1.5" d="M0,-3.0v7 M-2.5,-0.5L0,-3.0L2.5,-0.5"/>
  </g>
  <g id="resetDef">
    <use xlink:href="#rim2" fill="#404040"><set attributeName="fill" to="#808080" begin="reset.mouseover" end="reset.mouseout"/></use>
  </g>
</defs>
<script type="application/ecmascript">
var viewWidth = 1284;
var viewHeight = 1059;
var sectionId = 'dynsection-88';
</script>
<script type="application/ecmascript" xlink:href="../../svg.min.js"/>
<svg id="graph" class="graph">
<g id="viewport">
<title>LSM1x0A_LoRaWAN::setJoin2Delay</title>
<!-- Node1 -->
<g id="Node000001" class="node">
<title>Node1</title>
<g id="a_Node000001"><a xlink:title="Sets the delay for the Join2 receive window.">
<polygon fill="#999999" stroke="#666666" points="153.25,-350.01 0,-350.01 0,-318.01 153.25,-318.01 153.25,-350.01"/>
<text text-anchor="start" x="8" y="-336.51" font-family="Helvetica,sans-Serif" font-size="10.00">LSM1x0A_LoRaWAN::setJoin2</text>
<text text-anchor="middle" x="76.62" y="-324.51" font-family="Helvetica,sans-Serif" font-size="10.00">Delay</text>
</a>
</g>
</g>
<!-- Node2 -->
<g id="Node000002" class="node">
<title>Node2</title>
<g id="a_Node000002"><a xlink:href="../../d8/d92/classLSM1x0A__Controller.html#afd7d92e60ed6fdae696a955cdbe0ed8c" target="_top" xlink:title="Sends any AT command to the module, returning error if it fails. Internally uses the LsmAtParser logi...">
<polygon fill="white" stroke="#666666" points="295.25,-443.01 189.25,-443.01 189.25,-411.01 295.25,-411.01 295.25,-443.01"/>
<text text-anchor="start" x="197.25" y="-429.51" font-family="Helvetica,sans-Serif" font-size="10.00">LSM1x0A_Controller</text>
<text text-anchor="middle" x="242.25" y="-417.51" font-family="Helvetica,sans-Serif" font-size="10.00">::sendCommand</text>
</a>
</g>
</g>
<!-- Node1&#45;&gt;Node2 -->
<g id="edge1_Node000001_Node000002" class="edge">
<title>Node1&#45;&gt;Node2</title>
<g id="a_edge1_Node000001_Node000002"><a xlink:title=" ">
<path fill="none" stroke="#63b8ff" d="M106.5,-350.42C133.17,-365.58 173,-388.22 202.44,-404.95"/>
<polygon fill="#63b8ff" stroke="#63b8ff" points="200.65,-407.96 211.07,-409.85 204.11,-401.87 200.65,-407.96"/>
</a>
</g>
</g>
<!-- Node3 -->
<g id="Node000003" class="node">
<title>Node3</title>
<g id="a_Node000003"><a xlink:href="../../d8/d92/classLSM1x0A__Controller.html#abb0eb380daa3dfb7acffb483c5db8e2b" target="_top" xlink:title="Executes the recovery protocol. First Soft&#45;Reset (ATZ), then Hard&#45;Reset if there is a pin.">
<polygon fill="white" stroke="#666666" points="437.25,-860.01 331.25,-860.01 331.25,-828.01 437.25,-828.01 437.25,-860.01"/>
<text text-anchor="start" x="339.25" y="-846.51" font-family="Helvetica,sans-Serif" font-size="10.00">LSM1x0A_Controller</text>
<text text-anchor="middle" x="384.25" y="-834.51" font-family="Helvetica,sans-Serif" font-size="10.00">::recoverModule</text>
</a>
</g>
</g>
<!-- Node2&#45;&gt;Node3 -->
<g id="edge2_Node000002_Node000003" class="edge">
<title>Node2&#45;&gt;Node3</title>
<g id="a_edge2_Node000002_Node000003"><a xlink:title=" ">
<path fill="none" stroke="#63b8ff" d="M247.29,-443.45C258.66,-488.98 292.59,-620.3 331.25,-726.01 343,-758.13 359.25,-793.95 370.44,-817.6"/>
<polygon fill="#63b8ff" stroke="#63b8ff" points="367.22,-818.98 374.69,-826.5 373.54,-815.96 367.22,-818.98"/>
</a>
</g>
</g>
<!-- Node30 -->
<g id="Node000030" class="node">
<title>Node30</title>
<g id="a_Node000030"><a xlink:href="../../d6/d3c/classLSM1x0A__AtParser.html#a29b53c521974387ba6c03afadfaffa4a" target="_top" xlink:title="Sends a simple command and waits for OK/ERROR. Example: sendCommand(&quot;AT+JOIN&quot;);.">
<polygon fill="white" stroke="#666666" points="851.75,-696.01 677.5,-696.01 677.5,-676.01 851.75,-676.01 851.75,-696.01"/>
<text text-anchor="middle" x="764.62" y="-682.51" font-family="Helvetica,sans-Serif" font-size="10.00">LSM1x0A_AtParser::sendCommand</text>
</a>
</g>
</g>
<!-- Node2&#45;&gt;Node30 -->
<g id="edge54_Node000002_Node000030" class="edge">
<title>Node2&#45;&gt;Node30</title>
<g id="a_edge54_Node000002_Node000030"><a xlink:title=" ">
<path fill="none" stroke="#63b8ff" d="M247.15,-443.44C256.1,-477.61 281.28,-556.85 331.25,-601.01 423.07,-682.14 569.23,-695.02 665.8,-693.3"/>
<polygon fill="#63b8ff" stroke="#63b8ff" points="665.61,-696.81 675.52,-693.07 665.44,-689.81 665.61,-696.81"/>
</a>
</g>
</g>
<!-- Node4 -->
<g id="Node000004" class="node">
<title>Node4</title>
<g id="a_Node000004"><a xlink:href="../../d8/d92/classLSM1x0A__Controller.html#a3f6f25b843fe4fb7042c544deae2ab16" target="_top" xlink:title="Manually clears bits from the internal EventGroup.">
<polygon fill="white" stroke="#666666" points="1045.5,-917.01 939.5,-917.01 939.5,-885.01 1045.5,-885.01 1045.5,-917.01"/>
<text text-anchor="start" x="947.5" y="-903.51" font-family="Helvetica,sans-Serif" font-size="10.00">LSM1x0A_Controller</text>
<text text-anchor="middle" x="992.5" y="-891.51" font-family="Helvetica,sans-Serif" font-size="10.00">::clearEvents</text>
</a>
</g>
</g>
<!-- Node3&#45;&gt;Node4 -->
<g id="edge3_Node000003_Node000004" class="edge">
<title>Node3&#45;&gt;Node4</title>
<g id="a_edge3_Node000003_Node000004"><a xlink:title=" ">
<path fill="none" stroke="#63b8ff" d="M436.01,-860.43C448.1,-863.78 461.04,-866.92 473.25,-869.01 635.27,-896.69 829.4,-901.17 927.71,-901.46"/>
<polygon fill="#63b8ff" stroke="#63b8ff" points="927.7,-904.96 937.7,-901.47 927.71,-897.96 927.7,-904.96"/>
</a>
</g>
</g>
<!-- Node5 -->
<g id="Node000005" class="node">
<title>Node5</title>
<g id="a_Node000005"><a xlink:href="../../d8/d92/classLSM1x0A__Controller.html#a345d4bd79fa16b18dc33a4ca788fe5f7" target="_top" xlink:title="Performs a hardware reset using the reset pin.">
<polygon fill="white" stroke="#666666" points="605.5,-860.01 499.5,-860.01 499.5,-828.01 605.5,-828.01 605.5,-860.01"/>
<text text-anchor="start" x="507.5" y="-846.51" font-family="Helvetica,sans-Serif" font-size="10.00">LSM1x0A_Controller</text>
<text text-anchor="middle" x="552.5" y="-834.51" font-family="Helvetica,sans-Serif" font-size="10.00">::hardwareReset</text>
</a>
</g>
</g>
<!-- Node3&#45;&gt;Node5 -->
<g id="edge4_Node000003_Node000005" class="edge">
<title>Node3&#45;&gt;Node5</title>
<g id="a_edge4_Node000003_Node000005"><a xlink:title=" ">
<path fill="none" stroke="#63b8ff" d="M437.4,-844.01C453.41,-844.01 471.22,-844.01 487.91,-844.01"/>
<polygon fill="#63b8ff" stroke="#63b8ff" points="487.74,-847.51 497.74,-844.01 487.74,-840.51 487.74,-847.51"/>
</a>
</g>
</g>
<!-- Node7 -->
<g id="Node000007" class="node">
<title>Node7</title>
<g id="a_Node000007"><a xlink:href="../../d5/d72/classLSM1x0A__LoRaWAN.html#a1892801e37c8cd67d37c76108d6f7d49" target="_top" xlink:title="Validates if the device is currently Joined to the network. (Either confirmed by OTAA or statically a...">
<polygon fill="white" stroke="#666666" points="1276,-783.01 1123.5,-783.01 1123.5,-763.01 1276,-763.01 1276,-783.01"/>
<text text-anchor="middle" x="1199.75" y="-769.51" font-family="Helvetica,sans-Serif" font-size="10.00">LSM1x0A_LoRaWAN::isJoined</text>
</a>
</g>
</g>
<!-- Node3&#45;&gt;Node7 -->
<g id="edge6_Node000003_Node000007" class="edge">
<title>Node3&#45;&gt;Node7</title>
<g id="a_edge6_Node000003_Node000007"><a xlink:title=" ">
<path fill="none" stroke="#63b8ff" d="M436.01,-827.6C448.1,-824.24 461.04,-821.1 473.25,-819.01 701.46,-779.82 975.2,-773.17 1111.99,-772.56"/>
<polygon fill="#63b8ff" stroke="#63b8ff" points="1111.7,-776.06 1121.69,-772.52 1111.67,-769.06 1111.7,-776.06"/>
</a>
</g>
</g>
<!-- Node8 -->
<g id="Node000008" class="node">
<title>Node8</title>
<g id="a_Node000008"><a xlink:href="../../d5/d72/classLSM1x0A__LoRaWAN.html#a83e11c0e74ff9e0757db616ab1163424" target="_top" xlink:title="Attempts to recover a lost connection (re&#45;executes OTAA Join if dropped).">
<polygon fill="white" stroke="#666666" points="626.88,-1024.01 478.12,-1024.01 478.12,-992.01 626.88,-992.01 626.88,-1024.01"/>
<text text-anchor="start" x="486.12" y="-1010.51" font-family="Helvetica,sans-Serif" font-size="10.00">LSM1x0A_LoRaWAN::recover</text>
<text text-anchor="middle" x="552.5" y="-998.51" font-family="Helvetica,sans-Serif" font-size="10.00">Connection</text>
</a>
</g>
</g>
<!-- Node3&#45;&gt;Node8 -->
<g id="edge7_Node000003_Node000008" class="edge">
<title>Node3&#45;&gt;Node8</title>
<g id="a_edge7_Node000003_Node000008"><a xlink:title=" ">
<path fill="none" stroke="#63b8ff" d="M391.95,-860.4C404.14,-888.31 432.5,-945.19 473.25,-978.01 477.12,-981.12 481.34,-983.94 485.76,-986.48"/>
<polygon fill="#63b8ff" stroke="#63b8ff" points="483.85,-989.43 494.34,-990.92 487.07,-983.21 483.85,-989.43"/>
</a>
</g>
</g>
<!-- Node12 -->
<g id="Node000012" class="node">
<title>Node12</title>
<g id="a_Node000012"><a xlink:href="../../d5/d72/classLSM1x0A__LoRaWAN.html#ae3be4ce59dfa200369733317df356e97" target="_top" xlink:title="Pushes the RAM&#45;cached variables back down into the hardware module. Restores the operational state af...">
<polygon fill="white" stroke="#666666" points="625.75,-380.01 479.25,-380.01 479.25,-348.01 625.75,-348.01 625.75,-380.01"/>
<text text-anchor="start" x="487.25" y="-366.51" font-family="Helvetica,sans-Serif" font-size="10.00">LSM1x0A_LoRaWAN::restore</text>
<text text-anchor="middle" x="552.5" y="-354.51" font-family="Helvetica,sans-Serif" font-size="10.00">Config</text>
</a>
</g>
</g>
<!-- Node3&#45;&gt;Node12 -->
<g id="edge16_Node000003_Node000012" class="edge">
<title>Node3&#45;&gt;Node12</title>
<g id="a_edge16_Node000003_Node000012"><a xlink:title=" ">
<path fill="none" stroke="#63b8ff" d="M390.88,-827.76C415.2,-757.55 511.42,-479.72 542.07,-391.23"/>
<polygon fill="#63b8ff" stroke="#63b8ff" points="545.33,-392.52 545.29,-381.93 538.71,-390.23 545.33,-392.52"/>
</a>
</g>
</g>
<!-- Node28 -->
<g id="Node000028" class="node">
<title>Node28</title>
<g id="a_Node000028"><a xlink:href="../../d5/d72/classLSM1x0A__LoRaWAN.html#ace4b04396f1de1f4a54f513f5f378db7" target="_top" xlink:title="Manually overrides the internal joined state tracker.">
<polygon fill="white" stroke="#666666" points="631.75,-936.01 473.25,-936.01 473.25,-916.01 631.75,-916.01 631.75,-936.01"/>
<text text-anchor="middle" x="552.5" y="-922.51" font-family="Helvetica,sans-Serif" font-size="10.00">LSM1x0A_LoRaWAN::setJoined</text>
</a>
</g>
</g>
<!-- Node3&#45;&gt;Node28 -->
<g id="edge49_Node000003_Node000028" class="edge">
<title>Node3&#45;&gt;Node28</title>
<g id="a_edge49_Node000003_Node000028"><a xlink:title=" ">
<path fill="none" stroke="#63b8ff" d="M406.29,-860.36C423.51,-873.12 448.92,-890.55 473.25,-902.01 481.29,-905.8 490.08,-909.17 498.77,-912.1"/>
<polygon fill="#63b8ff" stroke="#63b8ff" points="497.62,-915.4 508.21,-915.11 499.75,-908.74 497.62,-915.4"/>
</a>
</g>
</g>
<!-- Node29 -->
<g id="Node000029" class="node">
<title>Node29</title>
<g id="a_Node000029"><a xlink:href="../../d8/d92/classLSM1x0A__Controller.html#a11ad21cb5ca33ec51346764a23bd485e" target="_top" xlink:title="Performs a software reset (ATZ Command).">
<polygon fill="white" stroke="#666666" points="605.5,-772.01 499.5,-772.01 499.5,-740.01 605.5,-740.01 605.5,-772.01"/>
<text text-anchor="start" x="507.5" y="-758.51" font-family="Helvetica,sans-Serif" font-size="10.00">LSM1x0A_Controller</text>
<text text-anchor="middle" x="552.5" y="-746.51" font-family="Helvetica,sans-Serif" font-size="10.00">::softwareReset</text>
</a>
</g>
</g>
<!-- Node3&#45;&gt;Node29 -->
<g id="edge50_Node000003_Node000029" class="edge">
<title>Node3&#45;&gt;Node29</title>
<g id="a_edge50_Node000003_Node000029"><a xlink:title=" ">
<path fill="none" stroke="#63b8ff" d="M407.22,-827.59C424.55,-815.13 449.65,-798.13 473.25,-786.01 479.54,-782.78 486.25,-779.7 493.01,-776.82"/>
<polygon fill="#63b8ff" stroke="#63b8ff" points="494.28,-780.08 502.21,-773.05 491.63,-773.6 494.28,-780.08"/>
</a>
</g>
</g>
<!-- Node6 -->
<g id="Node000006" class="node">
<title>Node6</title>
<g id="a_Node000006"><a xlink:href="../../d6/d3c/classLSM1x0A__AtParser.html#ad2839120da13e56132b95019419be1e5" target="_top" xlink:title="Waits for an event (like BOOTALERT) without sending any command. Useful for hardware reset where the ...">
<polygon fill="white" stroke="#666666" points="834.88,-860.01 694.38,-860.01 694.38,-828.01 834.88,-828.01 834.88,-860.01"/>
<text text-anchor="start" x="702.38" y="-846.51" font-family="Helvetica,sans-Serif" font-size="10.00">LSM1x0A_AtParser::waitFor</text>
<text text-anchor="middle" x="764.62" y="-834.51" font-family="Helvetica,sans-Serif" font-size="10.00">Event</text>
</a>
</g>
</g>
<!-- Node5&#45;&gt;Node6 -->
<g id="edge5_Node000005_Node000006" class="edge">
<title>Node5&#45;&gt;Node6</title>
<g id="a_edge5_Node000005_Node000006"><a xlink:title=" ">
<path fill="none" stroke="#63b8ff" d="M605.98,-844.01C629.17,-844.01 656.97,-844.01 682.71,-844.01"/>
<polygon fill="#63b8ff" stroke="#63b8ff" points="682.47,-847.51 692.47,-844.01 682.47,-840.51 682.47,-847.51"/>
</a>
</g>
</g>
<!-- Node9 -->
<g id="Node000009" class="node">
<title>Node9</title>
<g id="a_Node000009"><a xlink:href="../../d5/d72/classLSM1x0A__LoRaWAN.html#a59f781f3cfd30c11cd3973bcb10a7baa" target="_top" xlink:title="Initiates a LoRaWAN Network Join procedure. This is a blocking function until the module fires an eve...">
<polygon fill="white" stroke="#666666" points="830.38,-974.01 698.88,-974.01 698.88,-954.01 830.38,-954.01 830.38,-974.01"/>
<text text-anchor="middle" x="764.62" y="-960.51" font-family="Helvetica,sans-Serif" font-size="10.00">LSM1x0A_LoRaWAN::join</text>
</a>
</g>
</g>
<!-- Node8&#45;&gt;Node9 -->
<g id="edge8_Node000008_Node000009" class="edge">
<title>Node8&#45;&gt;Node9</title>
<g id="a_edge8_Node000008_Node000009"><a xlink:title=" ">
<path fill="none" stroke="#63b8ff" d="M627.29,-992.56C651.88,-987.41 678.99,-981.73 702.51,-976.8"/>
<polygon fill="#63b8ff" stroke="#63b8ff" points="703.19,-980.24 712.26,-974.76 701.76,-973.39 703.19,-980.24"/>
</a>
</g>
</g>
<!-- Node9&#45;&gt;Node2 -->
<g id="edge11_Node000009_Node000002" class="edge">
<title>Node9&#45;&gt;Node2</title>
<g id="a_edge11_Node000009_Node000002"><a xlink:title=" ">
<path fill="none" stroke="#63b8ff" d="M749.53,-974.35C726.37,-990.64 678.17,-1021.6 631.75,-1033.01 563.34,-1049.82 537.32,-1062.28 473.25,-1033.01 385.56,-992.94 373.63,-955.61 331.25,-869.01 260.38,-724.18 246.58,-526.1 243.9,-454.35"/>
<polygon fill="#63b8ff" stroke="#63b8ff" points="247.41,-454.6 243.59,-444.72 240.41,-454.83 247.41,-454.6"/>
</a>
</g>
</g>
<!-- Node9&#45;&gt;Node3 -->
<g id="edge10_Node000009_Node000003" class="edge">
<title>Node9&#45;&gt;Node3</title>
<g id="a_edge10_Node000009_Node000003"><a xlink:title=" ">
<path fill="none" stroke="#63b8ff" d="M698.53,-973.5C637.15,-979.37 544.22,-980.14 473.25,-945.01 440.24,-928.67 414.39,-893.89 399.48,-869.74"/>
<polygon fill="#63b8ff" stroke="#63b8ff" points="402.66,-868.24 394.54,-861.43 396.64,-871.81 402.66,-868.24"/>
</a>
</g>
</g>
<!-- Node9&#45;&gt;Node4 -->
<g id="edge9_Node000009_Node000004" class="edge">
<title>Node9&#45;&gt;Node4</title>
<g id="a_edge9_Node000009_Node000004"><a xlink:title=" ">
<path fill="none" stroke="#63b8ff" d="M803.18,-953.53C837.12,-944.07 887.78,-929.94 928.01,-918.72"/>
<polygon fill="#63b8ff" stroke="#63b8ff" points="928.9,-922.1 937.6,-916.04 927.02,-915.36 928.9,-922.1"/>
</a>
</g>
</g>
<!-- Node10 -->
<g id="Node000010" class="node">
<title>Node10</title>
<g id="a_Node000010"><a xlink:href="../../d5/d72/classLSM1x0A__LoRaWAN.html#a3fdd1ac318a5ad2559323e5d57e36a5e" target="_top" xlink:title="Enables or disables specific sub&#45;bands for regions supporting Channel Masks (e.g.,...">
<polygon fill="white" stroke="#666666" points="1087.5,-756.01 897.5,-756.01 897.5,-736.01 1087.5,-736.01 1087.5,-756.01"/>
<text text-anchor="middle" x="992.5" y="-742.51" font-family="Helvetica,sans-Serif" font-size="10.00">LSM1x0A_LoRaWAN::setChannelMask</text>
</a>
</g>
</g>
<!-- Node9&#45;&gt;Node10 -->
<g id="edge12_Node000009_Node000010" class="edge">
<title>Node9&#45;&gt;Node10</title>
<g id="a_edge12_Node000009_Node000010"><a xlink:title=" ">
<path fill="none" stroke="#63b8ff" d="M776.22,-953.79C811.7,-919.53 926.74,-808.51 972.49,-764.36"/>
<polygon fill="#63b8ff" stroke="#63b8ff" points="974.81,-766.98 979.58,-757.51 969.95,-761.94 974.81,-766.98"/>
</a>
</g>
</g>
<!-- Node11 -->
<g id="Node000011" class="node">
<title>Node11</title>
<g id="a_Node000011"><a xlink:href="../../d8/d92/classLSM1x0A__Controller.html#a62476e30e50c7fe120aeb8df4b828675" target="_top" xlink:title="Synchronously/blockingly waits for an asynchronous event to occur. Useful for wrapping commands like ...">
<polygon fill="white" stroke="#666666" points="1045.5,-980.01 939.5,-980.01 939.5,-948.01 1045.5,-948.01 1045.5,-980.01"/>
<text text-anchor="start" x="947.5" y="-966.51" font-family="Helvetica,sans-Serif" font-size="10.00">LSM1x0A_Controller</text>
<text text-anchor="middle" x="992.5" y="-954.51" font-family="Helvetica,sans-Serif" font-size="10.00">::waitForEvent</text>
</a>
</g>
</g>
<!-- Node9&#45;&gt;Node11 -->
<g id="edge15_Node000009_Node000011" class="edge">
<title>Node9&#45;&gt;Node11</title>
<g id="a_edge15_Node000009_Node000011"><a xlink:title=" ">
<path fill="none" stroke="#63b8ff" d="M830.65,-964.01C861.16,-964.01 897.4,-964.01 927.74,-964.01"/>
<polygon fill="#63b8ff" stroke="#63b8ff" points="927.55,-967.51 937.55,-964.01 927.55,-960.51 927.55,-967.51"/>
</a>
</g>
</g>
<!-- Node10&#45;&gt;Node2 -->
<g id="edge14_Node000010_Node000002" class="edge">
<title>Node10&#45;&gt;Node2</title>
<g id="a_edge14_Node000010_Node000002"><a xlink:title=" ">
<path fill="none" stroke="#63b8ff" d="M897.21,-744.5C734.27,-739.85 409.86,-720.91 331.25,-644.01 277.08,-591.01 255.14,-500.14 247.21,-454.65"/>
<polygon fill="#63b8ff" stroke="#63b8ff" points="250.68,-454.14 245.62,-444.84 243.77,-455.27 250.68,-454.14"/>
</a>
</g>
</g>
<!-- Node10&#45;&gt;Node7 -->
<g id="edge13_Node000010_Node000007" class="edge">
<title>Node10&#45;&gt;Node7</title>
<g id="a_edge13_Node000010_Node000007"><a xlink:title=" ">
<path fill="none" stroke="#63b8ff" d="M1073.15,-756.48C1085.87,-758.16 1099.09,-759.9 1111.97,-761.59"/>
<polygon fill="#63b8ff" stroke="#63b8ff" points="1111.31,-765.04 1121.68,-762.87 1112.23,-758.1 1111.31,-765.04"/>
</a>
</g>
</g>
<!-- Node12&#45;&gt;Node1 -->
<g id="edge34_Node000012_Node000001" class="edge">
<title>Node12&#45;&gt;Node1</title>
<g id="a_edge34_Node000012_Node000001"><a xlink:title=" ">
<path fill="none" stroke="#63b8ff" d="M478.97,-359.42C394.51,-354.07 255.08,-345.24 164.8,-339.53"/>
<polygon fill="#63b8ff" stroke="#63b8ff" points="165.21,-336.05 155.01,-338.91 164.77,-343.03 165.21,-336.05"/>
</a>
</g>
</g>
<!-- Node12&#45;&gt;Node10 -->
<g id="edge21_Node000012_Node000010" class="edge">
<title>Node12&#45;&gt;Node10</title>
<g id="a_edge21_Node000012_Node000010"><a xlink:title=" ">
<path fill="none" stroke="#63b8ff" d="M626.03,-356.66C706.3,-350.28 828.69,-346.27 861.5,-377.01 915.98,-428.05 851.68,-652.07 897.5,-711.01 904.24,-719.68 913.37,-726.2 923.3,-731.11"/>
<polygon fill="#63b8ff" stroke="#63b8ff" points="921.91,-734.32 932.48,-735.06 924.68,-727.89 921.91,-734.32"/>
</a>
</g>
</g>
<!-- Node13 -->
<g id="Node000013" class="node">
<title>Node13</title>
<g id="a_Node000013"><a xlink:href="../../d5/d72/classLSM1x0A__LoRaWAN.html#af0baa3db4c7fab580d6b19a9e92472f6" target="_top" xlink:title="Enables or disables Adaptive Data Rate (ADR).">
<polygon fill="white" stroke="#666666" points="840.5,-532.01 688.75,-532.01 688.75,-512.01 840.5,-512.01 840.5,-532.01"/>
<text text-anchor="middle" x="764.62" y="-518.51" font-family="Helvetica,sans-Serif" font-size="10.00">LSM1x0A_LoRaWAN::setADR</text>
</a>
</g>
</g>
<!-- Node12&#45;&gt;Node13 -->
<g id="edge17_Node000012_Node000013" class="edge">
<title>Node12&#45;&gt;Node13</title>
<g id="a_edge17_Node000012_Node000013"><a xlink:title=" ">
<path fill="none" stroke="#63b8ff" d="M561.95,-380.41C578.15,-410.07 616.55,-472.37 667.75,-503.01 670.95,-504.92 674.31,-506.65 677.78,-508.21"/>
<polygon fill="#63b8ff" stroke="#63b8ff" points="676.46,-511.45 687.04,-511.83 679.01,-504.93 676.46,-511.45"/>
</a>
</g>
</g>
<!-- Node14 -->
<g id="Node000014" class="node">
<title>Node14</title>
<g id="a_Node000014"><a xlink:href="../../d5/d72/classLSM1x0A__LoRaWAN.html#a5365ed1596eb84ebf1e3b33b4a10c788" target="_top" xlink:title="Sets the LoRaWAN operational frequency band.">
<polygon fill="white" stroke="#666666" points="840.88,-494.01 688.38,-494.01 688.38,-474.01 840.88,-474.01 840.88,-494.01"/>
<text text-anchor="middle" x="764.62" y="-480.51" font-family="Helvetica,sans-Serif" font-size="10.00">LSM1x0A_LoRaWAN::setBand</text>
</a>
</g>
</g>
<!-- Node12&#45;&gt;Node14 -->
<g id="edge19_Node000012_Node000014" class="edge">
<title>Node12&#45;&gt;Node14</title>
<g id="a_edge19_Node000012_Node000014"><a xlink:title=" ">
<path fill="none" stroke="#63b8ff" d="M566.76,-380.22C586.35,-402.98 625.28,-443.98 667.75,-465.01 671.43,-466.83 675.26,-468.47 679.2,-469.96"/>
<polygon fill="#63b8ff" stroke="#63b8ff" points="677.77,-473.17 688.36,-473.06 680.01,-466.54 677.77,-473.17"/>
</a>
</g>
</g>
<!-- Node15 -->
<g id="Node000015" class="node">
<title>Node15</title>
<g id="a_Node000015"><a xlink:href="../../d5/d72/classLSM1x0A__LoRaWAN.html#a9d9285c43414337a0ccb3a6cd7ca06e6" target="_top" xlink:title="Configures the number of retries for Confirmed uplinks.">
<polygon fill="white" stroke="#666666" points="846.88,-456.01 682.38,-456.01 682.38,-424.01 846.88,-424.01 846.88,-456.01"/>
<text text-anchor="start" x="690.38" y="-442.51" font-family="Helvetica,sans-Serif" font-size="10.00">LSM1x0A_LoRaWAN::setConfirm</text>
<text text-anchor="middle" x="764.62" y="-430.51" font-family="Helvetica,sans-Serif" font-size="10.00">Retry</text>
</a>
</g>
</g>
<!-- Node12&#45;&gt;Node15 -->
<g id="edge22_Node000012_Node000015" class="edge">
<title>Node12&#45;&gt;Node15</title>
<g id="a_edge22_Node000012_Node000015"><a xlink:title=" ">
<path fill="none" stroke="#63b8ff" d="M586.41,-380.44C608.92,-391.24 639.67,-405.15 667.75,-415.01 673.04,-416.86 678.54,-418.65 684.11,-420.36"/>
<polygon fill="#63b8ff" stroke="#63b8ff" points="682.83,-423.63 693.41,-423.12 684.82,-416.92 682.83,-423.63"/>
</a>
</g>
</g>
<!-- Node16 -->
<g id="Node000016" class="node">
<title>Node16</title>
<g id="a_Node000016"><a xlink:href="../../d5/d72/classLSM1x0A__LoRaWAN.html#a56345ceeafa0b9059d6de4e69eddc82e" target="_top" xlink:title="Sets the Data Rate (DR) of the module.">
<polygon fill="white" stroke="#666666" points="850.62,-406.01 678.62,-406.01 678.62,-386.01 850.62,-386.01 850.62,-406.01"/>
<text text-anchor="middle" x="764.62" y="-392.51" font-family="Helvetica,sans-Serif" font-size="10.00">LSM1x0A_LoRaWAN::setDataRate</text>
</a>
</g>
</g>
<!-- Node12&#45;&gt;Node16 -->
<g id="edge24_Node000012_Node000016" class="edge">
<title>Node12&#45;&gt;Node16</title>
<g id="a_edge24_Node000012_Node000016"><a xlink:title=" ">
<path fill="none" stroke="#63b8ff" d="M626.11,-375.06C644.66,-377.89 664.72,-380.94 683.62,-383.82"/>
<polygon fill="#63b8ff" stroke="#63b8ff" points="683,-387.27 693.41,-385.31 684.05,-380.35 683,-387.27"/>
</a>
</g>
</g>
<!-- Node17 -->
<g id="Node000017" class="node">
<title>Node17</title>
<g id="a_Node000017"><a xlink:href="../../d5/d72/classLSM1x0A__LoRaWAN.html#a8494083816ab885cb07fc3b08de029f4" target="_top" xlink:title="Sets the LoRaWAN Device Address (DevAddr) for ABP mode.">
<polygon fill="white" stroke="#666666" points="848.75,-330.01 680.5,-330.01 680.5,-310.01 848.75,-310.01 848.75,-330.01"/>
<text text-anchor="middle" x="764.62" y="-316.51" font-family="Helvetica,sans-Serif" font-size="10.00">LSM1x0A_LoRaWAN::setDevAddr</text>
</a>
</g>
</g>
<!-- Node12&#45;&gt;Node17 -->
<g id="edge26_Node000012_Node000017" class="edge">
<title>Node12&#45;&gt;Node17</title>
<g id="a_edge26_Node000012_Node000017"><a xlink:title=" ">
<path fill="none" stroke="#63b8ff" d="M626.11,-348.8C650.99,-343.59 678.57,-337.82 702.46,-332.82"/>
<polygon fill="#63b8ff" stroke="#63b8ff" points="702.95,-336.29 712.02,-330.81 701.52,-329.44 702.95,-336.29"/>
</a>
</g>
</g>
<!-- Node18 -->
<g id="Node000018" class="node">
<title>Node18</title>
<g id="a_Node000018"><a xlink:href="../../d5/d72/classLSM1x0A__LoRaWAN.html#ad320634e52d7ea907043cc50dd37c5b0" target="_top" xlink:title="Sets the LoRaWAN Device EUI (DevEUI).">
<polygon fill="white" stroke="#666666" points="847.25,-292.01 682,-292.01 682,-272.01 847.25,-272.01 847.25,-292.01"/>
<text text-anchor="middle" x="764.62" y="-278.51" font-family="Helvetica,sans-Serif" font-size="10.00">LSM1x0A_LoRaWAN::setDevEUI</text>
</a>
</g>
</g>
<!-- Node12&#45;&gt;Node18 -->
<g id="edge28_Node000012_Node000018" class="edge">
<title>Node12&#45;&gt;Node18</title>
<g id="a_edge28_Node000012_Node000018"><a xlink:title=" ">
<path fill="none" stroke="#63b8ff" d="M577.85,-347.67C600.29,-333.33 634.98,-312.96 667.75,-301.01 673.53,-298.9 679.59,-297.01 685.75,-295.31"/>
<polygon fill="#63b8ff" stroke="#63b8ff" points="686.59,-298.71 695.41,-292.85 684.86,-291.93 686.59,-298.71"/>
</a>
</g>
</g>
<!-- Node19 -->
<g id="Node000019" class="node">
<title>Node19</title>
<g id="a_Node000019"><a xlink:href="../../d5/d72/classLSM1x0A__LoRaWAN.html#a031023b0d2dd5db3c51c2db6ae7801cc" target="_top" xlink:title="Enables or disables the Duty Cycle limitation (EU regions mostly).">
<polygon fill="white" stroke="#666666" points="840.12,-254.01 689.12,-254.01 689.12,-222.01 840.12,-222.01 840.12,-254.01"/>
<text text-anchor="start" x="697.12" y="-240.51" font-family="Helvetica,sans-Serif" font-size="10.00">LSM1x0A_LoRaWAN::setDuty</text>
<text text-anchor="middle" x="764.62" y="-228.51" font-family="Helvetica,sans-Serif" font-size="10.00">Cycle</text>
</a>
</g>
</g>
<!-- Node12&#45;&gt;Node19 -->
<g id="edge30_Node000012_Node000019" class="edge">
<title>Node12&#45;&gt;Node19</title>
<g id="a_edge30_Node000012_Node000019"><a xlink:title=" ">
<path fill="none" stroke="#63b8ff" d="M567.27,-347.76C587.17,-325.34 626.16,-285.16 667.75,-263.01 671.16,-261.19 674.7,-259.51 678.33,-257.93"/>
<polygon fill="#63b8ff" stroke="#63b8ff" points="679.34,-261.3 687.36,-254.37 676.77,-254.79 679.34,-261.3"/>
</a>
</g>
</g>
<!-- Node20 -->
<g id="Node000020" class="node">
<title>Node20</title>
<g id="a_Node000020"><a xlink:href="../../d5/d72/classLSM1x0A__LoRaWAN.html#a6b179d5825c49af0f391dfc539912f64" target="_top" xlink:title="Sets the delay for the Join1 receive window.">
<polygon fill="white" stroke="#666666" points="841.25,-204.01 688,-204.01 688,-172.01 841.25,-172.01 841.25,-204.01"/>
<text text-anchor="start" x="696" y="-190.51" font-family="Helvetica,sans-Serif" font-size="10.00">LSM1x0A_LoRaWAN::setJoin1</text>
<text text-anchor="middle" x="764.62" y="-178.51" font-family="Helvetica,sans-Serif" font-size="10.00">Delay</text>
</a>
</g>
</g>
<!-- Node12&#45;&gt;Node20 -->
<g id="edge32_Node000012_Node000020" class="edge">
<title>Node12&#45;&gt;Node20</title>
<g id="a_edge32_Node000012_Node000020"><a xlink:title=" ">
<path fill="none" stroke="#63b8ff" d="M561.03,-347.96C576.45,-316.89 614.72,-248.44 667.75,-213.01 670.82,-210.95 674.06,-209.07 677.41,-207.34"/>
<polygon fill="#63b8ff" stroke="#63b8ff" points="678.73,-210.58 686.35,-203.23 675.81,-204.22 678.73,-210.58"/>
</a>
</g>
</g>
<!-- Node21 -->
<g id="Node000021" class="node">
<title>Node21</title>
<g id="a_Node000021"><a xlink:href="../../d5/d72/classLSM1x0A__LoRaWAN.html#a06bd50723ec1eb7e144c9141b2ec86fc" target="_top" xlink:title="Sets the LoRaWAN Network ID (NetID).">
<polygon fill="white" stroke="#666666" points="845,-154.01 684.25,-154.01 684.25,-134.01 845,-134.01 845,-154.01"/>
<text text-anchor="middle" x="764.62" y="-140.51" font-family="Helvetica,sans-Serif" font-size="10.00">LSM1x0A_LoRaWAN::setNwkID</text>
</a>
</g>
</g>
<!-- Node12&#45;&gt;Node21 -->
<g id="edge35_Node000012_Node000021" class="edge">
<title>Node12&#45;&gt;Node21</title>
<g id="a_edge35_Node000012_Node000021"><a xlink:title=" ">
<path fill="none" stroke="#63b8ff" d="M557.75,-347.57C568.71,-308.65 601.82,-210.55 667.75,-163.01 669.69,-161.61 671.7,-160.31 673.77,-159.1"/>
<polygon fill="#63b8ff" stroke="#63b8ff" points="675.13,-162.33 682.53,-154.74 672.02,-156.07 675.13,-162.33"/>
</a>
</g>
</g>
<!-- Node22 -->
<g id="Node000022" class="node">
<title>Node22</title>
<g id="a_Node000022"><a xlink:href="../../d5/d72/classLSM1x0A__LoRaWAN.html#aa70ada64d28ecca216bb62268e502adf" target="_top" xlink:title="Sets the delay for the RX1 receive window.">
<polygon fill="white" stroke="#666666" points="851.38,-116.01 677.88,-116.01 677.88,-96.01 851.38,-96.01 851.38,-116.01"/>
<text text-anchor="middle" x="764.62" y="-102.51" font-family="Helvetica,sans-Serif" font-size="10.00">LSM1x0A_LoRaWAN::setRx1Delay</text>
</a>
</g>
</g>
<!-- Node12&#45;&gt;Node22 -->
<g id="edge37_Node000012_Node000022" class="edge">
<title>Node12&#45;&gt;Node22</title>
<g id="a_edge37_Node000012_Node000022"><a xlink:title=" ">
<path fill="none" stroke="#63b8ff" d="M556.19,-347.51C564.27,-303.62 592.56,-183.4 667.75,-125.01 669.27,-123.83 670.84,-122.71 672.46,-121.66"/>
<polygon fill="#63b8ff" stroke="#63b8ff" points="673.78,-124.93 680.86,-117.05 670.41,-118.8 673.78,-124.93"/>
</a>
</g>
</g>
<!-- Node23 -->
<g id="Node000023" class="node">
<title>Node23</title>
<g id="a_Node000023"><a xlink:href="../../d5/d72/classLSM1x0A__LoRaWAN.html#a2cf4eff0181b6107d082bccefa24217b" target="_top" xlink:title="Sets the Data Rate (DR) specifically for the RX2 window.">
<polygon fill="white" stroke="#666666" points="859.62,-78.01 669.62,-78.01 669.62,-58.01 859.62,-58.01 859.62,-78.01"/>
<text text-anchor="middle" x="764.62" y="-64.51" font-family="Helvetica,sans-Serif" font-size="10.00">LSM1x0A_LoRaWAN::setRx2DataRate</text>
</a>
</g>
</g>
<!-- Node12&#45;&gt;Node23 -->
<g id="edge39_Node000012_Node000023" class="edge">
<title>Node12&#45;&gt;Node23</title>
<g id="a_edge39_Node000012_Node000023"><a xlink:title=" ">
<path fill="none" stroke="#63b8ff" d="M554.99,-347.8C560.32,-299.68 582.93,-156.67 667.75,-87.01 668.89,-86.07 670.07,-85.17 671.28,-84.31"/>
<polygon fill="#63b8ff" stroke="#63b8ff" points="672.94,-87.4 679.75,-79.28 669.36,-81.38 672.94,-87.4"/>
</a>
</g>
</g>
<!-- Node24 -->
<g id="Node000024" class="node">
<title>Node24</title>
<g id="a_Node000024"><a xlink:href="../../d5/d72/classLSM1x0A__LoRaWAN.html#a42d2137b475b57e19d891a5f1ac93221" target="_top" xlink:title="Sets the delay for the RX2 receive window.">
<polygon fill="white" stroke="#666666" points="851.38,-40.01 677.88,-40.01 677.88,-20.01 851.38,-20.01 851.38,-40.01"/>
<text text-anchor="middle" x="764.62" y="-26.51" font-family="Helvetica,sans-Serif" font-size="10.00">LSM1x0A_LoRaWAN::setRx2Delay</text>
</a>
</g>
</g>
<!-- Node12&#45;&gt;Node24 -->
<g id="edge41_Node000012_Node000024" class="edge">
<title>Node12&#45;&gt;Node24</title>
<g id="a_edge41_Node000012_Node000024"><a xlink:title=" ">
<path fill="none" stroke="#63b8ff" d="M554.11,-347.53C556.99,-294.96 573.5,-129.89 667.75,-49.01 668.87,-48.04 670.03,-47.12 671.22,-46.25"/>
<polygon fill="#63b8ff" stroke="#63b8ff" points="672.91,-49.32 679.59,-41.09 669.24,-43.35 672.91,-49.32"/>
</a>
</g>
</g>
<!-- Node25 -->
<g id="Node000025" class="node">
<title>Node25</title>
<g id="a_Node000025"><a xlink:href="../../d5/d72/classLSM1x0A__LoRaWAN.html#a689f7dfda1dfeae11ea397c2ddf2ad37" target="_top" xlink:title="Sets the precise frequency for the RX2 window.">
<polygon fill="white" stroke="#666666" points="861.5,-658.01 667.75,-658.01 667.75,-638.01 861.5,-638.01 861.5,-658.01"/>
<text text-anchor="middle" x="764.62" y="-644.51" font-family="Helvetica,sans-Serif" font-size="10.00">LSM1x0A_LoRaWAN::setRx2Frequency</text>
</a>
</g>
</g>
<!-- Node12&#45;&gt;Node25 -->
<g id="edge43_Node000012_Node000025" class="edge">
<title>Node12&#45;&gt;Node25</title>
<g id="a_edge43_Node000012_Node000025"><a xlink:title=" ">
<path fill="none" stroke="#63b8ff" d="M555.31,-380.2C561.46,-426.92 585.92,-562.88 667.75,-629.01 669.07,-630.07 670.43,-631.09 671.83,-632.05"/>
<polygon fill="#63b8ff" stroke="#63b8ff" points="669.85,-634.94 680.26,-636.91 673.35,-628.88 669.85,-634.94"/>
</a>
</g>
</g>
<!-- Node26 -->
<g id="Node000026" class="node">
<title>Node26</title>
<g id="a_Node000026"><a xlink:href="../../d5/d72/classLSM1x0A__LoRaWAN.html#a1df10d7ae6bf45b537d28d3d5c4b88d7" target="_top" xlink:title="Sets the transmission power index.">
<polygon fill="white" stroke="#666666" points="849.12,-620.01 680.12,-620.01 680.12,-600.01 849.12,-600.01 849.12,-620.01"/>
<text text-anchor="middle" x="764.62" y="-606.51" font-family="Helvetica,sans-Serif" font-size="10.00">LSM1x0A_LoRaWAN::setTxPower</text>
</a>
</g>
</g>
<!-- Node12&#45;&gt;Node26 -->
<g id="edge45_Node000012_Node000026" class="edge">
<title>Node12&#45;&gt;Node26</title>
<g id="a_edge45_Node000012_Node000026"><a xlink:title=" ">
<path fill="none" stroke="#63b8ff" d="M556.59,-380.31C565.51,-422.53 595.4,-536 667.75,-591.01 669.28,-592.17 670.87,-593.27 672.5,-594.31"/>
<polygon fill="#63b8ff" stroke="#63b8ff" points="670.47,-597.19 680.93,-598.87 673.8,-591.03 670.47,-597.19"/>
</a>
</g>
</g>
<!-- Node27 -->
<g id="Node000027" class="node">
<title>Node27</title>
<g id="a_Node000027"><a xlink:href="../../d5/d72/classLSM1x0A__LoRaWAN.html#a059fd6a9356c4ecadd5a98294da5952d" target="_top" xlink:title="Configures the number of repetitions for Unconfirmed uplinks.">
<polygon fill="white" stroke="#666666" points="852.12,-582.01 677.12,-582.01 677.12,-550.01 852.12,-550.01 852.12,-582.01"/>
<text text-anchor="start" x="685.12" y="-568.51" font-family="Helvetica,sans-Serif" font-size="10.00">LSM1x0A_LoRaWAN::setUnconfirm</text>
<text text-anchor="middle" x="764.62" y="-556.51" font-family="Helvetica,sans-Serif" font-size="10.00">Retry</text>
</a>
</g>
</g>
<!-- Node12&#45;&gt;Node27 -->
<g id="edge47_Node000012_Node000027" class="edge">
<title>Node12&#45;&gt;Node27</title>
<g id="a_edge47_Node000012_Node000027"><a xlink:title=" ">
<path fill="none" stroke="#63b8ff" d="M559.3,-380.34C572.64,-415.47 608.93,-498.45 667.75,-541.01 669.33,-542.15 670.96,-543.24 672.63,-544.28"/>
<polygon fill="#63b8ff" stroke="#63b8ff" points="670.81,-547.28 681.26,-549 674.16,-541.13 670.81,-547.28"/>
</a>
</g>
</g>
<!-- Node13&#45;&gt;Node2 -->
<g id="edge18_Node000013_Node000002" class="edge">
<title>Node13&#45;&gt;Node2</title>
<g id="a_edge18_Node000013_Node000002"><a xlink:title=" ">
<path fill="none" stroke="#63b8ff" d="M688.55,-518.41C601.32,-512.78 453.68,-498.81 331.25,-465.01 316.04,-460.81 300.02,-454.51 285.88,-448.23"/>
<polygon fill="#63b8ff" stroke="#63b8ff" points="287.41,-445.08 276.86,-444.11 284.5,-451.45 287.41,-445.08"/>
</a>
</g>
</g>
<!-- Node14&#45;&gt;Node2 -->
<g id="edge20_Node000014_Node000002" class="edge">
<title>Node14&#45;&gt;Node2</title>
<g id="a_edge20_Node000014_Node000002"><a xlink:title=" ">
<path fill="none" stroke="#63b8ff" d="M687.95,-479.75C601.4,-474.29 455.59,-463.27 331.25,-445.01 323.29,-443.84 314.97,-442.41 306.76,-440.87"/>
<polygon fill="#63b8ff" stroke="#63b8ff" points="307.63,-437.48 297.15,-439.02 306.3,-444.35 307.63,-437.48"/>
</a>
</g>
</g>
<!-- Node15&#45;&gt;Node2 -->
<g id="edge23_Node000015_Node000002" class="edge">
<title>Node15&#45;&gt;Node2</title>
<g id="a_edge23_Node000015_Node000002"><a xlink:title=" ">
<path fill="none" stroke="#63b8ff" d="M682.1,-437.97C578.34,-435.38 401.28,-430.96 306.9,-428.6"/>
<polygon fill="#63b8ff" stroke="#63b8ff" points="307.13,-425.1 297.04,-428.35 306.95,-432.1 307.13,-425.1"/>
</a>
</g>
</g>
<!-- Node16&#45;&gt;Node2 -->
<g id="edge25_Node000016_Node000002" class="edge">
<title>Node16&#45;&gt;Node2</title>
<g id="a_edge25_Node000016_Node000002"><a xlink:title=" ">
<path fill="none" stroke="#63b8ff" d="M678.39,-401.09C574.11,-407.3 399.99,-417.67 306.76,-423.22"/>
<polygon fill="#63b8ff" stroke="#63b8ff" points="306.81,-419.71 297.04,-423.8 307.23,-426.7 306.81,-419.71"/>
</a>
</g>
</g>
<!-- Node17&#45;&gt;Node2 -->
<g id="edge27_Node000017_Node000002" class="edge">
<title>Node17&#45;&gt;Node2</title>
<g id="a_edge27_Node000017_Node000002"><a xlink:title=" ">
<path fill="none" stroke="#63b8ff" d="M680.09,-318.88C621.56,-319.69 541.85,-324 473.25,-339.01 405.97,-353.73 332.29,-384.76 286.91,-405.76"/>
<polygon fill="#63b8ff" stroke="#63b8ff" points="285.5,-402.55 277.93,-409.96 288.47,-408.89 285.5,-402.55"/>
</a>
</g>
</g>
<!-- Node18&#45;&gt;Node2 -->
<g id="edge29_Node000018_Node000002" class="edge">
<title>Node18&#45;&gt;Node2</title>
<g id="a_edge29_Node000018_Node000002"><a xlink:title=" ">
<path fill="none" stroke="#63b8ff" d="M681.56,-278.24C590.85,-277.48 442.83,-286.56 331.25,-344.01 303.97,-358.05 279.17,-383.1 262.9,-402.01"/>
<polygon fill="#63b8ff" stroke="#63b8ff" points="260.31,-399.65 256.59,-409.57 265.69,-404.13 260.31,-399.65"/>
</a>
</g>
</g>
<!-- Node19&#45;&gt;Node2 -->
<g id="edge31_Node000019_Node000002" class="edge">
<title>Node19&#45;&gt;Node2</title>
<g id="a_edge31_Node000019_Node000002"><a xlink:title=" ">
<path fill="none" stroke="#63b8ff" d="M688.75,-231.25C597.05,-226.75 440.47,-231.59 331.25,-302.01 294.26,-325.85 268.27,-371.25 254.55,-400.28"/>
<polygon fill="#63b8ff" stroke="#63b8ff" points="251.47,-398.59 250.52,-409.14 257.84,-401.49 251.47,-398.59"/>
</a>
</g>
</g>
<!-- Node20&#45;&gt;Node2 -->
<g id="edge33_Node000020_Node000002" class="edge">
<title>Node20&#45;&gt;Node2</title>
<g id="a_edge33_Node000020_Node000002"><a xlink:title=" ">
<path fill="none" stroke="#63b8ff" d="M687.8,-179.02C594.42,-172.14 435.41,-174.6 331.25,-253.01 282.6,-289.63 258.87,-360.7 249.06,-399.72"/>
<polygon fill="#63b8ff" stroke="#63b8ff" points="245.7,-398.72 246.8,-409.26 252.51,-400.34 245.7,-398.72"/>
</a>
</g>
</g>
<!-- Node21&#45;&gt;Node2 -->
<g id="edge36_Node000021_Node000002" class="edge">
<title>Node21&#45;&gt;Node2</title>
<g id="a_edge36_Node000021_Node000002"><a xlink:title=" ">
<path fill="none" stroke="#63b8ff" d="M707.27,-133.52C617.08,-120.15 439.47,-108.34 331.25,-197.01 268.29,-248.59 250.31,-350.64 245.22,-399.58"/>
<polygon fill="#63b8ff" stroke="#63b8ff" points="241.76,-399.02 244.33,-409.3 248.73,-399.67 241.76,-399.02"/>
</a>
</g>
</g>
<!-- Node22&#45;&gt;Node2 -->
<g id="edge38_Node000022_Node000002" class="edge">
<title>Node22&#45;&gt;Node2</title>
<g id="a_edge38_Node000022_Node000002"><a xlink:title=" ">
<path fill="none" stroke="#63b8ff" d="M677.68,-101.32C566.68,-97.16 381.72,-97.22 331.25,-140.01 252.73,-206.57 242.99,-341.26 242.64,-399.33"/>
<polygon fill="#63b8ff" stroke="#63b8ff" points="239.14,-399.32 242.68,-409.3 246.14,-399.29 239.14,-399.32"/>
</a>
</g>
</g>
<!-- Node23&#45;&gt;Node2 -->
<g id="edge40_Node000023_Node000002" class="edge">
<title>Node23&#45;&gt;Node2</title>
<g id="a_edge40_Node000023_Node000002"><a xlink:title=" ">
<path fill="none" stroke="#63b8ff" d="M669.14,-63.67C557.56,-60.59 380.83,-62.76 331.25,-104.01 285.11,-142.4 256.14,-329.11 246.67,-399.81"/>
<polygon fill="#63b8ff" stroke="#63b8ff" points="243.24,-398.99 245.42,-409.36 250.18,-399.9 243.24,-398.99"/>
</a>
</g>
</g>
<!-- Node24&#45;&gt;Node2 -->
<g id="edge42_Node000024_Node000002" class="edge">
<title>Node24&#45;&gt;Node2</title>
<g id="a_edge42_Node000024_Node000002"><a xlink:title=" ">
<path fill="none" stroke="#63b8ff" d="M722.3,-19.52C637.74,-0.73 443.49,28.28 331.25,-68.01 280.38,-111.64 253.94,-323.06 245.93,-399.42"/>
<polygon fill="#63b8ff" stroke="#63b8ff" points="242.45,-399.06 244.91,-409.36 249.41,-399.77 242.45,-399.06"/>
</a>
</g>
</g>
<!-- Node25&#45;&gt;Node2 -->
<g id="edge44_Node000025_Node000002" class="edge">
<title>Node25&#45;&gt;Node2</title>
<g id="a_edge44_Node000025_Node000002"><a xlink:title=" ">
<path fill="none" stroke="#63b8ff" d="M667.42,-651.33C572.66,-649.7 428.39,-633.53 331.25,-559.01 294.82,-531.06 268.52,-483.54 254.6,-453.78"/>
<polygon fill="#63b8ff" stroke="#63b8ff" points="257.81,-452.38 250.51,-444.71 251.43,-455.26 257.81,-452.38"/>
</a>
</g>
</g>
<!-- Node26&#45;&gt;Node2 -->
<g id="edge46_Node000026_Node000002" class="edge">
<title>Node26&#45;&gt;Node2</title>
<g id="a_edge46_Node000026_Node000002"><a xlink:title=" ">
<path fill="none" stroke="#63b8ff" d="M679.93,-609.45C588.12,-605.27 439.44,-587.72 331.25,-522.01 302.09,-504.3 276.58,-474.2 260.64,-452.62"/>
<polygon fill="#63b8ff" stroke="#63b8ff" points="263.56,-450.7 254.89,-444.62 257.88,-454.78 263.56,-450.7"/>
</a>
</g>
</g>
<!-- Node27&#45;&gt;Node2 -->
<g id="edge48_Node000027_Node000002" class="edge">
<title>Node27&#45;&gt;Node2</title>
<g id="a_edge48_Node000027_Node000002"><a xlink:title=" ">
<path fill="none" stroke="#63b8ff" d="M676.97,-562.58C587.18,-556.36 444.41,-538.92 331.25,-490.01 308.69,-480.26 286.22,-464.03 269.63,-450.48"/>
<polygon fill="#63b8ff" stroke="#63b8ff" points="272.12,-448.01 262.21,-444.26 267.62,-453.37 272.12,-448.01"/>
</a>
</g>
</g>
<!-- Node29&#45;&gt;Node30 -->
<g id="edge51_Node000029_Node000030" class="edge">
<title>Node29&#45;&gt;Node30</title>
<g id="a_edge51_Node000029_Node000030"><a xlink:title=" ">
<path fill="none" stroke="#63b8ff" d="M602.76,-739.6C638.89,-727.56 687.4,-711.4 721.68,-699.98"/>
<polygon fill="#63b8ff" stroke="#63b8ff" points="722.45,-703.41 730.84,-696.93 720.24,-696.77 722.45,-703.41"/>
</a>
</g>
</g>
<!-- Node31 -->
<g id="Node000031" class="node">
<title>Node31</title>
<g id="a_Node000031"><a xlink:href="../../d6/d3c/classLSM1x0A__AtParser.html#a0ba6f927c54fceece22c17773d3f2600" target="_top" xlink:title="Sends a command and extracts a value from the response.">
<polygon fill="white" stroke="#666666" points="1079.62,-702.01 905.38,-702.01 905.38,-670.01 1079.62,-670.01 1079.62,-702.01"/>
<text text-anchor="start" x="913.38" y="-688.51" font-family="Helvetica,sans-Serif" font-size="10.00">LSM1x0A_AtParser::sendCommand</text>
<text text-anchor="middle" x="992.5" y="-676.51" font-family="Helvetica,sans-Serif" font-size="10.00">WithResponse</text>
</a>
</g>
</g>
<!-- Node30&#45;&gt;Node31 -->
<g id="edge52_Node000030_Node000031" class="edge">
<title>Node30&#45;&gt;Node31</title>
<g id="a_edge52_Node000030_Node000031"><a xlink:title=" ">
<path fill="none" stroke="#63b8ff" d="M851.99,-686.01C865.74,-686.01 880.06,-686.01 894.05,-686.01"/>
<polygon fill="#63b8ff" stroke="#63b8ff" points="893.67,-689.51 903.67,-686.01 893.67,-682.51 893.67,-689.51"/>
</a>
</g>
</g>
<!-- Node32 -->
<g id="Node000032" class="node">
<title>Node32</title>
<g id="a_Node000032"><a xlink:href="../../d5/d8b/classUartDriver.html#a5d0f22e8867eebe99273078bb19bd23d" target="_top" xlink:title="Sends data through UART.">
<polygon fill="white" stroke="#666666" points="1254.25,-696.01 1145.25,-696.01 1145.25,-676.01 1254.25,-676.01 1254.25,-696.01"/>
<text text-anchor="middle" x="1199.75" y="-682.51" font-family="Helvetica,sans-Serif" font-size="10.00">UartDriver::sendData</text>
</a>
</g>
</g>
<!-- Node31&#45;&gt;Node32 -->
<g id="edge53_Node000031_Node000032" class="edge">
<title>Node31&#45;&gt;Node32</title>
<g id="a_edge53_Node000031_Node000032"><a xlink:title=" ">
<path fill="none" stroke="#63b8ff" d="M1079.95,-686.01C1097.84,-686.01 1116.41,-686.01 1133.39,-686.01"/>
<polygon fill="#63b8ff" stroke="#63b8ff" points="1133.36,-689.51 1143.36,-686.01 1133.36,-682.51 1133.36,-689.51"/>
</a>
</g>
</g>
</g>
</svg>

<g id="navigator" transform="translate(0 0)" fill="#404254">
  <rect fill="#f2f5e9" fill-opacity="0.5" stroke="#606060" stroke-width=".5" x="0" y="0" width="60" height="60"/>
  <use id="zoomplus" xlink:href="#zoomPlus" x="17" y="9" onmousedown="handleZoom(evt,'in')"/>
  <use id="zoomminus" xlink:href="#zoomMin" x="42" y="9" onmousedown="handleZoom(evt,'out')"/>
  <use id="reset" xlink:href="#resetDef" x="30" y="36" onmousedown="handleReset()"/>
   <use id="arrowup" xlink:href="#arrowUp" x="0" y="0" onmousedown="handlePan(0,-1)"/>
  <use id="arrowright" xlink:href="#arrowRight" x="0" y="0" onmousedown="handlePan(1,0)"/>
  <use id="arrowdown" xlink:href="#arrowDown" x="0" y="0" onmousedown="handlePan(0,1)"/>
  <use id="arrowleft" xlink:href="#arrowLeft" x="0" y="0" onmousedown="handlePan(-1,0)"/>
</g>
<svg viewBox="0 0 15 15" width="100%" height="30px" preserveAspectRatio="xMaxYMin meet">
 <g id="arrow_out" transform="scale(0.3 0.3)">
  <a xlink:href="classLSM1x0A__LoRaWAN_a4545d0caad41558cdb9bae8286b104d8_cgraph_org.svg" target="_base">
   <rect id="button" ry="5" rx="5" y="6" x="6" height="38" width="38"
        fill="#f2f5e9" fill-opacity="0.5" stroke="#606060" stroke-width="1.0"/>
   <path id="arrow"
     d="M 11.500037,31.436501 C 11.940474,20.09759 22.043105,11.32322 32.158766,21.979434 L 37.068811,17.246167 C 37.068811,17.246167 37.088388,32 37.088388,32 L 22.160133,31.978069 C 22.160133,31.978069 26.997745,27.140456 26.997745,27.140456 C 18.528582,18.264221 13.291696,25.230495 11.500037,31.436501 z"
     style="fill:#404040;"/>
  </a>
 </g>
</svg>

<style type='text/css'>
<![CDATA[
[data-mouse-over-selected='false'] { opacity: 0.7; }
[data-mouse-over-selected='true']  { opacity: 1.0; }
]]>
</style>
<script type="application/ecmascript"><![CDATA[
document.addEventListener('DOMContentLoaded', (event) => {
  highlightEdges();
  highlightAdjacentNodes();
});
]]></script>
</svg>
