<?xml version="1.0" encoding="UTF-8" standalone="no"?>
<!DOCTYPE svg PUBLIC "-//W3C//DTD SVG 1.1//EN"
 "http://www.w3.org/Graphics/SVG/1.1/DTD/svg11.dtd">
<!-- Generated by graphviz version 12.2.1 (20241206.2353)
 -->
<!-- Title: LSM1x0A_LoRaWAN::sendCertificationPacket Pages: 1 -->
<svg width="1321pt" height="1143pt"
 viewBox="0.00 0.00 1320.75 1143.11" xmlns="http://www.w3.org/2000/svg" xmlns:xlink="http://www.w3.org/1999/xlink">
<g id="graph0" class="graph" transform="scale(1 1) rotate(0) translate(4 1139.11)">
<title>LSM1x0A_LoRaWAN::sendCertificationPacket</title>
<!-- Node1 -->
<g id="Node000001" class="node">
<title>Node1</title>
<g id="a_Node000001"><a xlink:title="Sends a predefined LoRaWAN certification packet.">
<polygon fill="#999999" stroke="#666666" points="190,-496.95 0,-496.95 0,-464.95 190,-464.95 190,-496.95"/>
<text text-anchor="start" x="8" y="-483.45" font-family="Helvetica,sans-Serif" font-size="10.00">LSM1x0A_LoRaWAN::sendCertification</text>
<text text-anchor="middle" x="95" y="-471.45" font-family="Helvetica,sans-Serif" font-size="10.00">Packet</text>
</a>
</g>
</g>
<!-- Node2 -->
<g id="Node000002" class="node">
<title>Node2</title>
<g id="a_Node000002"><a xlink:href="../../d8/d92/classLSM1x0A__Controller.html#afd7d92e60ed6fdae696a955cdbe0ed8c" target="_top" xlink:title="Sends any AT command to the module, returning error if it fails. Internally uses the LsmAtParser logi...">
<polygon fill="white" stroke="#666666" points="332,-496.95 226,-496.95 226,-464.95 332,-464.95 332,-496.95"/>
<text text-anchor="start" x="234" y="-483.45" font-family="Helvetica,sans-Serif" font-size="10.00">LSM1x0A_Controller</text>
<text text-anchor="middle" x="279" y="-471.45" font-family="Helvetica,sans-Serif" font-size="10.00">::sendCommand</text>
</a>
</g>
</g>
<!-- Node1&#45;&gt;Node2 -->
<g id="edge1_Node000001_Node000002" class="edge">
<title>Node1&#45;&gt;Node2</title>
<g id="a_edge1_Node000001_Node000002"><a xlink:title=" ">
<path fill="none" stroke="#63b8ff" d="M190.47,-480.95C198.51,-480.95 206.52,-480.95 214.25,-480.95"/>
<polygon fill="#63b8ff" stroke="#63b8ff" points="214.2,-484.45 224.2,-480.95 214.2,-477.45 214.2,-484.45"/>
</a>
</g>
</g>
<!-- Node3 -->
<g id="Node000003" class="node">
<title>Node3</title>
<g id="a_Node000003"><a xlink:href="../../d8/d92/classLSM1x0A__Controller.html#abb0eb380daa3dfb7acffb483c5db8e2b" target="_top" xlink:title="Executes the recovery protocol. First Soft&#45;Reset (ATZ), then Hard&#45;Reset if there is a pin.">
<polygon fill="white" stroke="#666666" points="474,-938.95 368,-938.95 368,-906.95 474,-906.95 474,-938.95"/>
<text text-anchor="start" x="376" y="-925.45" font-family="Helvetica,sans-Serif" font-size="10.00">LSM1x0A_Controller</text>
<text text-anchor="middle" x="421" y="-913.45" font-family="Helvetica,sans-Serif" font-size="10.00">::recoverModule</text>
</a>
</g>
</g>
<!-- Node2&#45;&gt;Node3 -->
<g id="edge2_Node000002_Node000003" class="edge">
<title>Node2&#45;&gt;Node3</title>
<g id="a_edge2_Node000002_Node000003"><a xlink:title=" ">
<path fill="none" stroke="#63b8ff" d="M283.55,-497.39C294.11,-545.46 327.16,-689.56 368,-804.95 379.35,-837.01 395.54,-872.58 406.83,-896.2"/>
<polygon fill="#63b8ff" stroke="#63b8ff" points="403.63,-897.62 411.13,-905.1 409.93,-894.57 403.63,-897.62"/>
</a>
</g>
</g>
<!-- Node31 -->
<g id="Node000031" class="node">
<title>Node31</title>
<g id="a_Node000031"><a xlink:href="../../d6/d3c/classLSM1x0A__AtParser.html#a29b53c521974387ba6c03afadfaffa4a" target="_top" xlink:title="Sends a simple command and waits for OK/ERROR. Example: sendCommand(&quot;AT+JOIN&quot;);.">
<polygon fill="white" stroke="#666666" points="888.5,-1118.95 714.25,-1118.95 714.25,-1098.95 888.5,-1098.95 888.5,-1118.95"/>
<text text-anchor="middle" x="801.38" y="-1105.45" font-family="Helvetica,sans-Serif" font-size="10.00">LSM1x0A_AtParser::sendCommand</text>
</a>
</g>
</g>
<!-- Node2&#45;&gt;Node31 -->
<g id="edge55_Node000002_Node000031" class="edge">
<title>Node2&#45;&gt;Node31</title>
<g id="a_edge55_Node000002_Node000031"><a xlink:title=" ">
<path fill="none" stroke="#63b8ff" d="M280.06,-497.2C280.88,-559.15 289.42,-785.25 368,-947.95 409.93,-1034.77 422.31,-1071.88 510,-1111.95 587.76,-1147.48 689.91,-1134.62 750.02,-1121.89"/>
<polygon fill="#63b8ff" stroke="#63b8ff" points="750.61,-1125.34 759.62,-1119.77 749.1,-1118.51 750.61,-1125.34"/>
</a>
</g>
</g>
<!-- Node4 -->
<g id="Node000004" class="node">
<title>Node4</title>
<g id="a_Node000004"><a xlink:href="../../d8/d92/classLSM1x0A__Controller.html#a3f6f25b843fe4fb7042c544deae2ab16" target="_top" xlink:title="Manually clears bits from the internal EventGroup.">
<polygon fill="white" stroke="#666666" points="1082.25,-957.95 976.25,-957.95 976.25,-925.95 1082.25,-925.95 1082.25,-957.95"/>
<text text-anchor="start" x="984.25" y="-944.45" font-family="Helvetica,sans-Serif" font-size="10.00">LSM1x0A_Controller</text>
<text text-anchor="middle" x="1029.25" y="-932.45" font-family="Helvetica,sans-Serif" font-size="10.00">::clearEvents</text>
</a>
</g>
</g>
<!-- Node3&#45;&gt;Node4 -->
<g id="edge3_Node000003_Node000004" class="edge">
<title>Node3&#45;&gt;Node4</title>
<g id="a_edge3_Node000003_Node000004"><a xlink:title=" ">
<path fill="none" stroke="#63b8ff" d="M438.08,-939.29C454.5,-954.72 481.56,-976.82 510,-985.95 669.57,-1037.18 870.16,-991 968.43,-961.72"/>
<polygon fill="#63b8ff" stroke="#63b8ff" points="969.32,-965.11 977.87,-958.86 967.29,-958.41 969.32,-965.11"/>
</a>
</g>
</g>
<!-- Node5 -->
<g id="Node000005" class="node">
<title>Node5</title>
<g id="a_Node000005"><a xlink:href="../../d8/d92/classLSM1x0A__Controller.html#a345d4bd79fa16b18dc33a4ca788fe5f7" target="_top" xlink:title="Performs a hardware reset using the reset pin.">
<polygon fill="white" stroke="#666666" points="642.25,-938.95 536.25,-938.95 536.25,-906.95 642.25,-906.95 642.25,-938.95"/>
<text text-anchor="start" x="544.25" y="-925.45" font-family="Helvetica,sans-Serif" font-size="10.00">LSM1x0A_Controller</text>
<text text-anchor="middle" x="589.25" y="-913.45" font-family="Helvetica,sans-Serif" font-size="10.00">::hardwareReset</text>
</a>
</g>
</g>
<!-- Node3&#45;&gt;Node5 -->
<g id="edge4_Node000003_Node000005" class="edge">
<title>Node3&#45;&gt;Node5</title>
<g id="a_edge4_Node000003_Node000005"><a xlink:title=" ">
<path fill="none" stroke="#63b8ff" d="M474.15,-922.95C490.16,-922.95 507.97,-922.95 524.66,-922.95"/>
<polygon fill="#63b8ff" stroke="#63b8ff" points="524.49,-926.45 534.49,-922.95 524.49,-919.45 524.49,-926.45"/>
</a>
</g>
</g>
<!-- Node7 -->
<g id="Node000007" class="node">
<title>Node7</title>
<g id="a_Node000007"><a xlink:href="../../d5/d72/classLSM1x0A__LoRaWAN.html#a1892801e37c8cd67d37c76108d6f7d49" target="_top" xlink:title="Validates if the device is currently Joined to the network. (Either confirmed by OTAA or statically a...">
<polygon fill="white" stroke="#666666" points="1312.75,-926.95 1160.25,-926.95 1160.25,-906.95 1312.75,-906.95 1312.75,-926.95"/>
<text text-anchor="middle" x="1236.5" y="-913.45" font-family="Helvetica,sans-Serif" font-size="10.00">LSM1x0A_LoRaWAN::isJoined</text>
</a>
</g>
</g>
<!-- Node3&#45;&gt;Node7 -->
<g id="edge6_Node000003_Node000007" class="edge">
<title>Node3&#45;&gt;Node7</title>
<g id="a_edge6_Node000003_Node000007"><a xlink:title=" ">
<path fill="none" stroke="#63b8ff" d="M467.94,-939.25C470.08,-940.7 472.11,-942.26 474,-943.95 499.17,-966.51 480.99,-993.6 510,-1010.95 520.7,-1017.34 836.16,-1014.94 898.25,-1008.95 999.94,-999.13 1026.74,-997.44 1124.25,-966.95 1153.08,-957.93 1184.33,-943.44 1206.34,-932.37"/>
<polygon fill="#63b8ff" stroke="#63b8ff" points="1207.7,-935.61 1215.01,-927.94 1204.51,-929.38 1207.7,-935.61"/>
</a>
</g>
</g>
<!-- Node8 -->
<g id="Node000008" class="node">
<title>Node8</title>
<g id="a_Node000008"><a xlink:href="../../d5/d72/classLSM1x0A__LoRaWAN.html#a83e11c0e74ff9e0757db616ab1163424" target="_top" xlink:title="Attempts to recover a lost connection (re&#45;executes OTAA Join if dropped).">
<polygon fill="white" stroke="#666666" points="663.62,-850.95 514.88,-850.95 514.88,-818.95 663.62,-818.95 663.62,-850.95"/>
<text text-anchor="start" x="522.88" y="-837.45" font-family="Helvetica,sans-Serif" font-size="10.00">LSM1x0A_LoRaWAN::recover</text>
<text text-anchor="middle" x="589.25" y="-825.45" font-family="Helvetica,sans-Serif" font-size="10.00">Connection</text>
</a>
</g>
</g>
<!-- Node3&#45;&gt;Node8 -->
<g id="edge7_Node000003_Node000008" class="edge">
<title>Node3&#45;&gt;Node8</title>
<g id="a_edge7_Node000003_Node000008"><a xlink:title=" ">
<path fill="none" stroke="#63b8ff" d="M443.97,-906.53C461.3,-894.07 486.4,-877.07 510,-864.95 516.29,-861.72 523,-858.64 529.76,-855.76"/>
<polygon fill="#63b8ff" stroke="#63b8ff" points="531.03,-859.02 538.96,-851.99 528.38,-852.55 531.03,-859.02"/>
</a>
</g>
</g>
<!-- Node12 -->
<g id="Node000012" class="node">
<title>Node12</title>
<g id="a_Node000012"><a xlink:href="../../d5/d72/classLSM1x0A__LoRaWAN.html#ae3be4ce59dfa200369733317df356e97" target="_top" xlink:title="Pushes the RAM&#45;cached variables back down into the hardware module. Restores the operational state af...">
<polygon fill="white" stroke="#666666" points="662.5,-496.95 516,-496.95 516,-464.95 662.5,-464.95 662.5,-496.95"/>
<text text-anchor="start" x="524" y="-483.45" font-family="Helvetica,sans-Serif" font-size="10.00">LSM1x0A_LoRaWAN::restore</text>
<text text-anchor="middle" x="589.25" y="-471.45" font-family="Helvetica,sans-Serif" font-size="10.00">Config</text>
</a>
</g>
</g>
<!-- Node3&#45;&gt;Node12 -->
<g id="edge16_Node000003_Node000012" class="edge">
<title>Node3&#45;&gt;Node12</title>
<g id="a_edge16_Node000003_Node000012"><a xlink:title=" ">
<path fill="none" stroke="#63b8ff" d="M428.11,-906.69C453.01,-840.5 546.92,-590.84 578.11,-507.91"/>
<polygon fill="#63b8ff" stroke="#63b8ff" points="581.3,-509.36 581.55,-498.77 574.75,-506.9 581.3,-509.36"/>
</a>
</g>
</g>
<!-- Node29 -->
<g id="Node000029" class="node">
<title>Node29</title>
<g id="a_Node000029"><a xlink:href="../../d5/d72/classLSM1x0A__LoRaWAN.html#ace4b04396f1de1f4a54f513f5f378db7" target="_top" xlink:title="Manually overrides the internal joined state tracker.">
<polygon fill="white" stroke="#666666" points="668.5,-976.95 510,-976.95 510,-956.95 668.5,-956.95 668.5,-976.95"/>
<text text-anchor="middle" x="589.25" y="-963.45" font-family="Helvetica,sans-Serif" font-size="10.00">LSM1x0A_LoRaWAN::setJoined</text>
</a>
</g>
</g>
<!-- Node3&#45;&gt;Node29 -->
<g id="edge50_Node000003_Node000029" class="edge">
<title>Node3&#45;&gt;Node29</title>
<g id="a_edge50_Node000003_Node000029"><a xlink:title=" ">
<path fill="none" stroke="#63b8ff" d="M474.49,-938.22C486.16,-941.51 498.48,-944.91 510,-947.95 517.36,-949.89 525.12,-951.86 532.79,-953.76"/>
<polygon fill="#63b8ff" stroke="#63b8ff" points="531.88,-957.14 542.43,-956.13 533.55,-950.35 531.88,-957.14"/>
</a>
</g>
</g>
<!-- Node30 -->
<g id="Node000030" class="node">
<title>Node30</title>
<g id="a_Node000030"><a xlink:href="../../d8/d92/classLSM1x0A__Controller.html#a11ad21cb5ca33ec51346764a23bd485e" target="_top" xlink:title="Performs a software reset (ATZ Command).">
<polygon fill="white" stroke="#666666" points="642.25,-1102.95 536.25,-1102.95 536.25,-1070.95 642.25,-1070.95 642.25,-1102.95"/>
<text text-anchor="start" x="544.25" y="-1089.45" font-family="Helvetica,sans-Serif" font-size="10.00">LSM1x0A_Controller</text>
<text text-anchor="middle" x="589.25" y="-1077.45" font-family="Helvetica,sans-Serif" font-size="10.00">::softwareReset</text>
</a>
</g>
</g>
<!-- Node3&#45;&gt;Node30 -->
<g id="edge51_Node000003_Node000030" class="edge">
<title>Node3&#45;&gt;Node30</title>
<g id="a_edge51_Node000003_Node000030"><a xlink:title=" ">
<path fill="none" stroke="#63b8ff" d="M428.7,-939.34C440.89,-967.25 469.25,-1024.13 510,-1056.95 514.82,-1060.83 520.19,-1064.24 525.8,-1067.25"/>
<polygon fill="#63b8ff" stroke="#63b8ff" points="524.21,-1070.36 534.73,-1071.55 527.25,-1064.06 524.21,-1070.36"/>
</a>
</g>
</g>
<!-- Node6 -->
<g id="Node000006" class="node">
<title>Node6</title>
<g id="a_Node000006"><a xlink:href="../../d6/d3c/classLSM1x0A__AtParser.html#ad2839120da13e56132b95019419be1e5" target="_top" xlink:title="Waits for an event (like BOOTALERT) without sending any command. Useful for hardware reset where the ...">
<polygon fill="white" stroke="#666666" points="871.62,-938.95 731.12,-938.95 731.12,-906.95 871.62,-906.95 871.62,-938.95"/>
<text text-anchor="start" x="739.12" y="-925.45" font-family="Helvetica,sans-Serif" font-size="10.00">LSM1x0A_AtParser::waitFor</text>
<text text-anchor="middle" x="801.38" y="-913.45" font-family="Helvetica,sans-Serif" font-size="10.00">Event</text>
</a>
</g>
</g>
<!-- Node5&#45;&gt;Node6 -->
<g id="edge5_Node000005_Node000006" class="edge">
<title>Node5&#45;&gt;Node6</title>
<g id="a_edge5_Node000005_Node000006"><a xlink:title=" ">
<path fill="none" stroke="#63b8ff" d="M642.73,-922.95C665.92,-922.95 693.72,-922.95 719.46,-922.95"/>
<polygon fill="#63b8ff" stroke="#63b8ff" points="719.22,-926.45 729.22,-922.95 719.22,-919.45 719.22,-926.45"/>
</a>
</g>
</g>
<!-- Node9 -->
<g id="Node000009" class="node">
<title>Node9</title>
<g id="a_Node000009"><a xlink:href="../../d5/d72/classLSM1x0A__LoRaWAN.html#a59f781f3cfd30c11cd3973bcb10a7baa" target="_top" xlink:title="Initiates a LoRaWAN Network Join procedure. This is a blocking function until the module fires an eve...">
<polygon fill="white" stroke="#666666" points="867.12,-844.95 735.62,-844.95 735.62,-824.95 867.12,-824.95 867.12,-844.95"/>
<text text-anchor="middle" x="801.38" y="-831.45" font-family="Helvetica,sans-Serif" font-size="10.00">LSM1x0A_LoRaWAN::join</text>
</a>
</g>
</g>
<!-- Node8&#45;&gt;Node9 -->
<g id="edge8_Node000008_Node000009" class="edge">
<title>Node8&#45;&gt;Node9</title>
<g id="a_edge8_Node000008_Node000009"><a xlink:title=" ">
<path fill="none" stroke="#63b8ff" d="M664.04,-834.95C683.41,-834.95 704.35,-834.95 723.86,-834.95"/>
<polygon fill="#63b8ff" stroke="#63b8ff" points="723.65,-838.45 733.65,-834.95 723.65,-831.45 723.65,-838.45"/>
</a>
</g>
</g>
<!-- Node9&#45;&gt;Node2 -->
<g id="edge11_Node000009_Node000002" class="edge">
<title>Node9&#45;&gt;Node2</title>
<g id="a_edge11_Node000009_Node000002"><a xlink:title=" ">
<path fill="none" stroke="#63b8ff" d="M747.15,-824.5C688.52,-812.53 591.73,-791.38 510,-766.95 445.61,-747.69 415.73,-762.27 368,-714.95 309.73,-657.18 289.53,-557.13 282.95,-508.74"/>
<polygon fill="#63b8ff" stroke="#63b8ff" points="286.43,-508.33 281.72,-498.84 279.48,-509.2 286.43,-508.33"/>
</a>
</g>
</g>
<!-- Node9&#45;&gt;Node3 -->
<g id="edge10_Node000009_Node000003" class="edge">
<title>Node9&#45;&gt;Node3</title>
<g id="a_edge10_Node000009_Node000003"><a xlink:title=" ">
<path fill="none" stroke="#63b8ff" d="M747.15,-845.44C688.74,-857.21 592.32,-877.35 510,-897.95 502.06,-899.94 493.74,-902.14 485.53,-904.39"/>
<polygon fill="#63b8ff" stroke="#63b8ff" points="484.59,-901.01 475.9,-907.06 486.47,-907.76 484.59,-901.01"/>
</a>
</g>
</g>
<!-- Node9&#45;&gt;Node4 -->
<g id="edge9_Node000009_Node000004" class="edge">
<title>Node9&#45;&gt;Node4</title>
<g id="a_edge9_Node000009_Node000004"><a xlink:title=" ">
<path fill="none" stroke="#63b8ff" d="M824.44,-845.4C861.16,-862.79 935.48,-898 983.51,-920.75"/>
<polygon fill="#63b8ff" stroke="#63b8ff" points="981.72,-923.78 992.26,-924.9 984.72,-917.45 981.72,-923.78"/>
</a>
</g>
</g>
<!-- Node10 -->
<g id="Node000010" class="node">
<title>Node10</title>
<g id="a_Node000010"><a xlink:href="../../d5/d72/classLSM1x0A__LoRaWAN.html#a3fdd1ac318a5ad2559323e5d57e36a5e" target="_top" xlink:title="Enables or disables specific sub&#45;bands for regions supporting Channel Masks (e.g.,...">
<polygon fill="white" stroke="#666666" points="1124.25,-654.95 934.25,-654.95 934.25,-634.95 1124.25,-634.95 1124.25,-654.95"/>
<text text-anchor="middle" x="1029.25" y="-641.45" font-family="Helvetica,sans-Serif" font-size="10.00">LSM1x0A_LoRaWAN::setChannelMask</text>
</a>
</g>
</g>
<!-- Node9&#45;&gt;Node10 -->
<g id="edge12_Node000009_Node000010" class="edge">
<title>Node9&#45;&gt;Node10</title>
<g id="a_edge12_Node000009_Node000010"><a xlink:title=" ">
<path fill="none" stroke="#63b8ff" d="M861.68,-824.45C874.4,-820.55 887.3,-815.22 898.25,-807.95 955.12,-770.19 998.75,-699.61 1017.79,-665.05"/>
<polygon fill="#63b8ff" stroke="#63b8ff" points="1020.72,-666.98 1022.37,-656.52 1014.55,-663.67 1020.72,-666.98"/>
</a>
</g>
</g>
<!-- Node11 -->
<g id="Node000011" class="node">
<title>Node11</title>
<g id="a_Node000011"><a xlink:href="../../d8/d92/classLSM1x0A__Controller.html#a62476e30e50c7fe120aeb8df4b828675" target="_top" xlink:title="Synchronously/blockingly waits for an asynchronous event to occur. Useful for wrapping commands like ...">
<polygon fill="white" stroke="#666666" points="1082.25,-850.95 976.25,-850.95 976.25,-818.95 1082.25,-818.95 1082.25,-850.95"/>
<text text-anchor="start" x="984.25" y="-837.45" font-family="Helvetica,sans-Serif" font-size="10.00">LSM1x0A_Controller</text>
<text text-anchor="middle" x="1029.25" y="-825.45" font-family="Helvetica,sans-Serif" font-size="10.00">::waitForEvent</text>
</a>
</g>
</g>
<!-- Node9&#45;&gt;Node11 -->
<g id="edge15_Node000009_Node000011" class="edge">
<title>Node9&#45;&gt;Node11</title>
<g id="a_edge15_Node000009_Node000011"><a xlink:title=" ">
<path fill="none" stroke="#63b8ff" d="M867.4,-834.95C897.91,-834.95 934.15,-834.95 964.49,-834.95"/>
<polygon fill="#63b8ff" stroke="#63b8ff" points="964.3,-838.45 974.3,-834.95 964.3,-831.45 964.3,-838.45"/>
</a>
</g>
</g>
<!-- Node10&#45;&gt;Node2 -->
<g id="edge14_Node000010_Node000002" class="edge">
<title>Node10&#45;&gt;Node2</title>
<g id="a_edge14_Node000010_Node000002"><a xlink:title=" ">
<path fill="none" stroke="#63b8ff" d="M1027.47,-634.73C1022.02,-566.01 987.1,-172.04 898.25,-101.95 713.09,44.11 549.15,29.06 368,-121.95 316.42,-164.95 290.36,-377.61 282.57,-453.76"/>
<polygon fill="#63b8ff" stroke="#63b8ff" points="279.13,-452.96 281.62,-463.26 286.09,-453.65 279.13,-452.96"/>
</a>
</g>
</g>
<!-- Node10&#45;&gt;Node7 -->
<g id="edge13_Node000010_Node000007" class="edge">
<title>Node10&#45;&gt;Node7</title>
<g id="a_edge13_Node000010_Node000007"><a xlink:title=" ">
<path fill="none" stroke="#63b8ff" d="M1038.05,-655.28C1068.59,-695.76 1180.42,-843.95 1220.82,-897.49"/>
<polygon fill="#63b8ff" stroke="#63b8ff" points="1217.97,-899.52 1226.79,-905.4 1223.56,-895.31 1217.97,-899.52"/>
</a>
</g>
</g>
<!-- Node12&#45;&gt;Node10 -->
<g id="edge21_Node000012_Node000010" class="edge">
<title>Node12&#45;&gt;Node10</title>
<g id="a_edge21_Node000012_Node000010"><a xlink:title=" ">
<path fill="none" stroke="#63b8ff" d="M662.74,-484.29C740.4,-488.81 857.93,-498.64 898.25,-517.95 950.18,-542.82 994.13,-596.76 1015.09,-625.7"/>
<polygon fill="#63b8ff" stroke="#63b8ff" points="1012.02,-627.41 1020.65,-633.56 1017.74,-623.37 1012.02,-627.41"/>
</a>
</g>
</g>
<!-- Node13 -->
<g id="Node000013" class="node">
<title>Node13</title>
<g id="a_Node000013"><a xlink:href="../../d5/d72/classLSM1x0A__LoRaWAN.html#af0baa3db4c7fab580d6b19a9e92472f6" target="_top" xlink:title="Enables or disables Adaptive Data Rate (ADR).">
<polygon fill="white" stroke="#666666" points="877.25,-798.95 725.5,-798.95 725.5,-778.95 877.25,-778.95 877.25,-798.95"/>
<text text-anchor="middle" x="801.38" y="-785.45" font-family="Helvetica,sans-Serif" font-size="10.00">LSM1x0A_LoRaWAN::setADR</text>
</a>
</g>
</g>
<!-- Node12&#45;&gt;Node13 -->
<g id="edge17_Node000012_Node000013" class="edge">
<title>Node12&#45;&gt;Node13</title>
<g id="a_edge17_Node000012_Node000013"><a xlink:title=" ">
<path fill="none" stroke="#63b8ff" d="M591.43,-497.13C595.95,-546.58 616.65,-696.7 704.5,-769.95 707.75,-772.66 711.29,-775.03 715.01,-777.08"/>
<polygon fill="#63b8ff" stroke="#63b8ff" points="713.34,-780.17 723.88,-781.21 716.29,-773.82 713.34,-780.17"/>
</a>
</g>
</g>
<!-- Node14 -->
<g id="Node000014" class="node">
<title>Node14</title>
<g id="a_Node000014"><a xlink:href="../../d5/d72/classLSM1x0A__LoRaWAN.html#a5365ed1596eb84ebf1e3b33b4a10c788" target="_top" xlink:title="Sets the LoRaWAN operational frequency band.">
<polygon fill="white" stroke="#666666" points="877.62,-760.95 725.12,-760.95 725.12,-740.95 877.62,-740.95 877.62,-760.95"/>
<text text-anchor="middle" x="801.38" y="-747.45" font-family="Helvetica,sans-Serif" font-size="10.00">LSM1x0A_LoRaWAN::setBand</text>
</a>
</g>
</g>
<!-- Node12&#45;&gt;Node14 -->
<g id="edge19_Node000012_Node000014" class="edge">
<title>Node12&#45;&gt;Node14</title>
<g id="a_edge19_Node000012_Node000014"><a xlink:title=" ">
<path fill="none" stroke="#63b8ff" d="M592.51,-497.27C599.67,-542.46 626.23,-669.99 704.5,-731.95 707.66,-734.45 711.05,-736.64 714.61,-738.58"/>
<polygon fill="#63b8ff" stroke="#63b8ff" points="713.1,-741.74 723.65,-742.72 716.02,-735.37 713.1,-741.74"/>
</a>
</g>
</g>
<!-- Node15 -->
<g id="Node000015" class="node">
<title>Node15</title>
<g id="a_Node000015"><a xlink:href="../../d5/d72/classLSM1x0A__LoRaWAN.html#a9d9285c43414337a0ccb3a6cd7ca06e6" target="_top" xlink:title="Configures the number of retries for Confirmed uplinks.">
<polygon fill="white" stroke="#666666" points="883.62,-722.95 719.12,-722.95 719.12,-690.95 883.62,-690.95 883.62,-722.95"/>
<text text-anchor="start" x="727.12" y="-709.45" font-family="Helvetica,sans-Serif" font-size="10.00">LSM1x0A_LoRaWAN::setConfirm</text>
<text text-anchor="middle" x="801.38" y="-697.45" font-family="Helvetica,sans-Serif" font-size="10.00">Retry</text>
</a>
</g>
</g>
<!-- Node12&#45;&gt;Node15 -->
<g id="edge22_Node000012_Node000015" class="edge">
<title>Node12&#45;&gt;Node15</title>
<g id="a_edge22_Node000012_Node000015"><a xlink:title=" ">
<path fill="none" stroke="#63b8ff" d="M594.77,-497.42C606.23,-535.98 640.17,-632.59 704.5,-681.95 705.86,-682.99 707.27,-684 708.71,-684.96"/>
<polygon fill="#63b8ff" stroke="#63b8ff" points="706.93,-687.98 717.34,-689.96 710.44,-681.92 706.93,-687.98"/>
</a>
</g>
</g>
<!-- Node16 -->
<g id="Node000016" class="node">
<title>Node16</title>
<g id="a_Node000016"><a xlink:href="../../d5/d72/classLSM1x0A__LoRaWAN.html#a56345ceeafa0b9059d6de4e69eddc82e" target="_top" xlink:title="Sets the Data Rate (DR) of the module.">
<polygon fill="white" stroke="#666666" points="887.38,-672.95 715.38,-672.95 715.38,-652.95 887.38,-652.95 887.38,-672.95"/>
<text text-anchor="middle" x="801.38" y="-659.45" font-family="Helvetica,sans-Serif" font-size="10.00">LSM1x0A_LoRaWAN::setDataRate</text>
</a>
</g>
</g>
<!-- Node12&#45;&gt;Node16 -->
<g id="edge24_Node000012_Node000016" class="edge">
<title>Node12&#45;&gt;Node16</title>
<g id="a_edge24_Node000012_Node000016"><a xlink:title=" ">
<path fill="none" stroke="#63b8ff" d="M596.68,-497.26C610.74,-530.68 647.61,-606.87 704.5,-643.95 706.64,-645.34 708.85,-646.63 711.13,-647.84"/>
<polygon fill="#63b8ff" stroke="#63b8ff" points="709.55,-650.96 720.1,-651.92 712.45,-644.59 709.55,-650.96"/>
</a>
</g>
</g>
<!-- Node17 -->
<g id="Node000017" class="node">
<title>Node17</title>
<g id="a_Node000017"><a xlink:href="../../d5/d72/classLSM1x0A__LoRaWAN.html#a8494083816ab885cb07fc3b08de029f4" target="_top" xlink:title="Sets the LoRaWAN Device Address (DevAddr) for ABP mode.">
<polygon fill="white" stroke="#666666" points="885.5,-634.95 717.25,-634.95 717.25,-614.95 885.5,-614.95 885.5,-634.95"/>
<text text-anchor="middle" x="801.38" y="-621.45" font-family="Helvetica,sans-Serif" font-size="10.00">LSM1x0A_LoRaWAN::setDevAddr</text>
</a>
</g>
</g>
<!-- Node12&#45;&gt;Node17 -->
<g id="edge26_Node000012_Node000017" class="edge">
<title>Node12&#45;&gt;Node17</title>
<g id="a_edge26_Node000012_Node000017"><a xlink:title=" ">
<path fill="none" stroke="#63b8ff" d="M600.24,-497.41C617.72,-524.7 656.6,-578.97 704.5,-605.95 707.34,-607.55 710.3,-609.02 713.33,-610.36"/>
<polygon fill="#63b8ff" stroke="#63b8ff" points="711.92,-613.57 722.51,-613.93 714.46,-607.04 711.92,-613.57"/>
</a>
</g>
</g>
<!-- Node18 -->
<g id="Node000018" class="node">
<title>Node18</title>
<g id="a_Node000018"><a xlink:href="../../d5/d72/classLSM1x0A__LoRaWAN.html#ad320634e52d7ea907043cc50dd37c5b0" target="_top" xlink:title="Sets the LoRaWAN Device EUI (DevEUI).">
<polygon fill="white" stroke="#666666" points="884,-596.95 718.75,-596.95 718.75,-576.95 884,-576.95 884,-596.95"/>
<text text-anchor="middle" x="801.38" y="-583.45" font-family="Helvetica,sans-Serif" font-size="10.00">LSM1x0A_LoRaWAN::setDevEUI</text>
</a>
</g>
</g>
<!-- Node12&#45;&gt;Node18 -->
<g id="edge28_Node000012_Node000018" class="edge">
<title>Node12&#45;&gt;Node18</title>
<g id="a_edge28_Node000012_Node000018"><a xlink:title=" ">
<path fill="none" stroke="#63b8ff" d="M606.45,-497.21C627.27,-517.12 665.4,-550.34 704.5,-567.95 708.76,-569.87 713.22,-571.6 717.78,-573.15"/>
<polygon fill="#63b8ff" stroke="#63b8ff" points="716.53,-576.43 727.12,-576.02 718.59,-569.74 716.53,-576.43"/>
</a>
</g>
</g>
<!-- Node19 -->
<g id="Node000019" class="node">
<title>Node19</title>
<g id="a_Node000019"><a xlink:href="../../d5/d72/classLSM1x0A__LoRaWAN.html#a031023b0d2dd5db3c51c2db6ae7801cc" target="_top" xlink:title="Enables or disables the Duty Cycle limitation (EU regions mostly).">
<polygon fill="white" stroke="#666666" points="876.88,-558.95 725.88,-558.95 725.88,-526.95 876.88,-526.95 876.88,-558.95"/>
<text text-anchor="start" x="733.88" y="-545.45" font-family="Helvetica,sans-Serif" font-size="10.00">LSM1x0A_LoRaWAN::setDuty</text>
<text text-anchor="middle" x="801.38" y="-533.45" font-family="Helvetica,sans-Serif" font-size="10.00">Cycle</text>
</a>
</g>
</g>
<!-- Node12&#45;&gt;Node19 -->
<g id="edge30_Node000012_Node000019" class="edge">
<title>Node12&#45;&gt;Node19</title>
<g id="a_edge30_Node000012_Node000019"><a xlink:title=" ">
<path fill="none" stroke="#63b8ff" d="M646.01,-497.4C672.95,-505.35 705.48,-514.95 733.73,-523.28"/>
<polygon fill="#63b8ff" stroke="#63b8ff" points="732.69,-526.62 743.27,-526.1 734.67,-519.91 732.69,-526.62"/>
</a>
</g>
</g>
<!-- Node20 -->
<g id="Node000020" class="node">
<title>Node20</title>
<g id="a_Node000020"><a xlink:href="../../d5/d72/classLSM1x0A__LoRaWAN.html#a6b179d5825c49af0f391dfc539912f64" target="_top" xlink:title="Sets the delay for the Join1 receive window.">
<polygon fill="white" stroke="#666666" points="878,-470.95 724.75,-470.95 724.75,-438.95 878,-438.95 878,-470.95"/>
<text text-anchor="start" x="732.75" y="-457.45" font-family="Helvetica,sans-Serif" font-size="10.00">LSM1x0A_LoRaWAN::setJoin1</text>
<text text-anchor="middle" x="801.38" y="-445.45" font-family="Helvetica,sans-Serif" font-size="10.00">Delay</text>
</a>
</g>
</g>
<!-- Node12&#45;&gt;Node20 -->
<g id="edge32_Node000012_Node000020" class="edge">
<title>Node12&#45;&gt;Node20</title>
<g id="a_edge32_Node000012_Node000020"><a xlink:title=" ">
<path fill="none" stroke="#63b8ff" d="M662.86,-471.96C679.21,-469.94 696.72,-467.77 713.58,-465.69"/>
<polygon fill="#63b8ff" stroke="#63b8ff" points="713.55,-469.22 723.05,-464.52 712.69,-462.27 713.55,-469.22"/>
</a>
</g>
</g>
<!-- Node21 -->
<g id="Node000021" class="node">
<title>Node21</title>
<g id="a_Node000021"><a xlink:href="../../d5/d72/classLSM1x0A__LoRaWAN.html#a4545d0caad41558cdb9bae8286b104d8" target="_top" xlink:title="Sets the delay for the Join2 receive window.">
<polygon fill="white" stroke="#666666" points="878,-420.95 724.75,-420.95 724.75,-388.95 878,-388.95 878,-420.95"/>
<text text-anchor="start" x="732.75" y="-407.45" font-family="Helvetica,sans-Serif" font-size="10.00">LSM1x0A_LoRaWAN::setJoin2</text>
<text text-anchor="middle" x="801.38" y="-395.45" font-family="Helvetica,sans-Serif" font-size="10.00">Delay</text>
</a>
</g>
</g>
<!-- Node12&#45;&gt;Node21 -->
<g id="edge34_Node000012_Node000021" class="edge">
<title>Node12&#45;&gt;Node21</title>
<g id="a_edge34_Node000012_Node000021"><a xlink:title=" ">
<path fill="none" stroke="#63b8ff" d="M623.16,-464.52C645.67,-453.71 676.42,-439.8 704.5,-429.95 709.79,-428.09 715.29,-426.3 720.86,-424.59"/>
<polygon fill="#63b8ff" stroke="#63b8ff" points="721.57,-428.03 730.16,-421.84 719.58,-421.32 721.57,-428.03"/>
</a>
</g>
</g>
<!-- Node22 -->
<g id="Node000022" class="node">
<title>Node22</title>
<g id="a_Node000022"><a xlink:href="../../d5/d72/classLSM1x0A__LoRaWAN.html#a06bd50723ec1eb7e144c9141b2ec86fc" target="_top" xlink:title="Sets the LoRaWAN Network ID (NetID).">
<polygon fill="white" stroke="#666666" points="881.75,-370.95 721,-370.95 721,-350.95 881.75,-350.95 881.75,-370.95"/>
<text text-anchor="middle" x="801.38" y="-357.45" font-family="Helvetica,sans-Serif" font-size="10.00">LSM1x0A_LoRaWAN::setNwkID</text>
</a>
</g>
</g>
<!-- Node12&#45;&gt;Node22 -->
<g id="edge36_Node000012_Node000022" class="edge">
<title>Node12&#45;&gt;Node22</title>
<g id="a_edge36_Node000012_Node000022"><a xlink:title=" ">
<path fill="none" stroke="#63b8ff" d="M603.51,-464.74C623.1,-441.98 662.03,-400.98 704.5,-379.95 708.18,-378.13 712.01,-376.48 715.95,-374.99"/>
<polygon fill="#63b8ff" stroke="#63b8ff" points="716.76,-378.41 725.11,-371.9 714.52,-371.78 716.76,-378.41"/>
</a>
</g>
</g>
<!-- Node23 -->
<g id="Node000023" class="node">
<title>Node23</title>
<g id="a_Node000023"><a xlink:href="../../d5/d72/classLSM1x0A__LoRaWAN.html#aa70ada64d28ecca216bb62268e502adf" target="_top" xlink:title="Sets the delay for the RX1 receive window.">
<polygon fill="white" stroke="#666666" points="888.12,-332.95 714.62,-332.95 714.62,-312.95 888.12,-312.95 888.12,-332.95"/>
<text text-anchor="middle" x="801.38" y="-319.45" font-family="Helvetica,sans-Serif" font-size="10.00">LSM1x0A_LoRaWAN::setRx1Delay</text>
</a>
</g>
</g>
<!-- Node12&#45;&gt;Node23 -->
<g id="edge38_Node000012_Node000023" class="edge">
<title>Node12&#45;&gt;Node23</title>
<g id="a_edge38_Node000012_Node000023"><a xlink:title=" ">
<path fill="none" stroke="#63b8ff" d="M598.7,-464.54C614.9,-434.88 653.3,-372.58 704.5,-341.95 706.98,-340.46 709.56,-339.09 712.21,-337.82"/>
<polygon fill="#63b8ff" stroke="#63b8ff" points="713.46,-341.09 721.34,-334.02 710.76,-334.63 713.46,-341.09"/>
</a>
</g>
</g>
<!-- Node24 -->
<g id="Node000024" class="node">
<title>Node24</title>
<g id="a_Node000024"><a xlink:href="../../d5/d72/classLSM1x0A__LoRaWAN.html#a2cf4eff0181b6107d082bccefa24217b" target="_top" xlink:title="Sets the Data Rate (DR) specifically for the RX2 window.">
<polygon fill="white" stroke="#666666" points="896.38,-294.95 706.38,-294.95 706.38,-274.95 896.38,-274.95 896.38,-294.95"/>
<text text-anchor="middle" x="801.38" y="-281.45" font-family="Helvetica,sans-Serif" font-size="10.00">LSM1x0A_LoRaWAN::setRx2DataRate</text>
</a>
</g>
</g>
<!-- Node12&#45;&gt;Node24 -->
<g id="edge40_Node000012_Node000024" class="edge">
<title>Node12&#45;&gt;Node24</title>
<g id="a_edge40_Node000012_Node000024"><a xlink:title=" ">
<path fill="none" stroke="#63b8ff" d="M595.77,-464.61C608.65,-429.11 644.29,-344.84 704.5,-303.95 706.47,-302.61 708.52,-301.36 710.63,-300.19"/>
<polygon fill="#63b8ff" stroke="#63b8ff" points="711.96,-303.43 719.48,-295.97 708.95,-297.11 711.96,-303.43"/>
</a>
</g>
</g>
<!-- Node25 -->
<g id="Node000025" class="node">
<title>Node25</title>
<g id="a_Node000025"><a xlink:href="../../d5/d72/classLSM1x0A__LoRaWAN.html#a42d2137b475b57e19d891a5f1ac93221" target="_top" xlink:title="Sets the delay for the RX2 receive window.">
<polygon fill="white" stroke="#666666" points="888.12,-256.95 714.62,-256.95 714.62,-236.95 888.12,-236.95 888.12,-256.95"/>
<text text-anchor="middle" x="801.38" y="-243.45" font-family="Helvetica,sans-Serif" font-size="10.00">LSM1x0A_LoRaWAN::setRx2Delay</text>
</a>
</g>
</g>
<!-- Node12&#45;&gt;Node25 -->
<g id="edge42_Node000012_Node000025" class="edge">
<title>Node12&#45;&gt;Node25</title>
<g id="a_edge42_Node000012_Node000025"><a xlink:title=" ">
<path fill="none" stroke="#63b8ff" d="M593.84,-464.6C603.68,-423.89 635.11,-317.5 704.5,-265.95 706.09,-264.76 707.74,-263.65 709.43,-262.6"/>
<polygon fill="#63b8ff" stroke="#63b8ff" points="711.01,-265.72 718.23,-257.97 707.75,-259.53 711.01,-265.72"/>
</a>
</g>
</g>
<!-- Node26 -->
<g id="Node000026" class="node">
<title>Node26</title>
<g id="a_Node000026"><a xlink:href="../../d5/d72/classLSM1x0A__LoRaWAN.html#a689f7dfda1dfeae11ea397c2ddf2ad37" target="_top" xlink:title="Sets the precise frequency for the RX2 window.">
<polygon fill="white" stroke="#666666" points="898.25,-218.95 704.5,-218.95 704.5,-198.95 898.25,-198.95 898.25,-218.95"/>
<text text-anchor="middle" x="801.38" y="-205.45" font-family="Helvetica,sans-Serif" font-size="10.00">LSM1x0A_LoRaWAN::setRx2Frequency</text>
</a>
</g>
</g>
<!-- Node12&#45;&gt;Node26 -->
<g id="edge44_Node000012_Node000026" class="edge">
<title>Node12&#45;&gt;Node26</title>
<g id="a_edge44_Node000012_Node000026"><a xlink:title=" ">
<path fill="none" stroke="#63b8ff" d="M592.46,-464.5C599.51,-418.96 625.81,-290.44 704.5,-227.95 705.83,-226.89 707.2,-225.89 708.61,-224.94"/>
<polygon fill="#63b8ff" stroke="#63b8ff" points="710.11,-228.11 717.07,-220.12 706.65,-222.03 710.11,-228.11"/>
</a>
</g>
</g>
<!-- Node27 -->
<g id="Node000027" class="node">
<title>Node27</title>
<g id="a_Node000027"><a xlink:href="../../d5/d72/classLSM1x0A__LoRaWAN.html#a1df10d7ae6bf45b537d28d3d5c4b88d7" target="_top" xlink:title="Sets the transmission power index.">
<polygon fill="white" stroke="#666666" points="885.88,-180.95 716.88,-180.95 716.88,-160.95 885.88,-160.95 885.88,-180.95"/>
<text text-anchor="middle" x="801.38" y="-167.45" font-family="Helvetica,sans-Serif" font-size="10.00">LSM1x0A_LoRaWAN::setTxPower</text>
</a>
</g>
</g>
<!-- Node12&#45;&gt;Node27 -->
<g id="edge46_Node000012_Node000027" class="edge">
<title>Node12&#45;&gt;Node27</title>
<g id="a_edge46_Node000012_Node000027"><a xlink:title=" ">
<path fill="none" stroke="#63b8ff" d="M591.39,-464.65C595.8,-414.88 616.21,-263.73 704.5,-189.95 705.64,-189 706.8,-188.09 708,-187.23"/>
<polygon fill="#63b8ff" stroke="#63b8ff" points="709.68,-190.3 716.43,-182.14 706.06,-184.31 709.68,-190.3"/>
</a>
</g>
</g>
<!-- Node28 -->
<g id="Node000028" class="node">
<title>Node28</title>
<g id="a_Node000028"><a xlink:href="../../d5/d72/classLSM1x0A__LoRaWAN.html#a059fd6a9356c4ecadd5a98294da5952d" target="_top" xlink:title="Configures the number of repetitions for Unconfirmed uplinks.">
<polygon fill="white" stroke="#666666" points="888.88,-142.95 713.88,-142.95 713.88,-110.95 888.88,-110.95 888.88,-142.95"/>
<text text-anchor="start" x="721.88" y="-129.45" font-family="Helvetica,sans-Serif" font-size="10.00">LSM1x0A_LoRaWAN::setUnconfirm</text>
<text text-anchor="middle" x="801.38" y="-117.45" font-family="Helvetica,sans-Serif" font-size="10.00">Retry</text>
</a>
</g>
</g>
<!-- Node12&#45;&gt;Node28 -->
<g id="edge48_Node000012_Node000028" class="edge">
<title>Node12&#45;&gt;Node28</title>
<g id="a_edge48_Node000012_Node000028"><a xlink:title=" ">
<path fill="none" stroke="#63b8ff" d="M590.77,-464.75C593.4,-411.46 609.23,-239.96 704.5,-151.95 705.27,-151.23 706.07,-150.54 706.87,-149.86"/>
<polygon fill="#63b8ff" stroke="#63b8ff" points="708.72,-152.84 714.87,-144.21 704.69,-147.12 708.72,-152.84"/>
</a>
</g>
</g>
<!-- Node13&#45;&gt;Node2 -->
<g id="edge18_Node000013_Node000002" class="edge">
<title>Node13&#45;&gt;Node2</title>
<g id="a_edge18_Node000013_Node000002"><a xlink:title=" ">
<path fill="none" stroke="#63b8ff" d="M726.36,-778.49C617.14,-761.69 420.08,-725.64 368,-677.95 317.35,-631.57 294.12,-550.58 285,-508.34"/>
<polygon fill="#63b8ff" stroke="#63b8ff" points="288.48,-507.86 283.05,-498.76 281.62,-509.26 288.48,-507.86"/>
</a>
</g>
</g>
<!-- Node14&#45;&gt;Node2 -->
<g id="edge20_Node000014_Node000002" class="edge">
<title>Node14&#45;&gt;Node2</title>
<g id="a_edge20_Node000014_Node000002"><a xlink:title=" ">
<path fill="none" stroke="#63b8ff" d="M728.73,-740.46C620.67,-723.42 422.76,-687.03 368,-641.95 324.73,-606.32 299.37,-543.61 287.74,-507.88"/>
<polygon fill="#63b8ff" stroke="#63b8ff" points="291.21,-507.24 284.89,-498.74 284.52,-509.32 291.21,-507.24"/>
</a>
</g>
</g>
<!-- Node15&#45;&gt;Node2 -->
<g id="edge23_Node000015_Node000002" class="edge">
<title>Node15&#45;&gt;Node2</title>
<g id="a_edge23_Node000015_Node000002"><a xlink:title=" ">
<path fill="none" stroke="#63b8ff" d="M718.74,-696.13C609.33,-680.29 422.57,-648.15 368,-606.95 332.88,-580.43 306.49,-535.78 292.15,-507.37"/>
<polygon fill="#63b8ff" stroke="#63b8ff" points="295.46,-506.16 287.92,-498.71 289.17,-509.23 295.46,-506.16"/>
</a>
</g>
</g>
<!-- Node16&#45;&gt;Node2 -->
<g id="edge25_Node000016_Node000002" class="edge">
<title>Node16&#45;&gt;Node2</title>
<g id="a_edge25_Node000016_Node000002"><a xlink:title=" ">
<path fill="none" stroke="#63b8ff" d="M715.27,-660.63C623.56,-654.66 476.21,-634.71 368,-569.95 340.32,-553.38 315.14,-526.09 298.88,-506.09"/>
<polygon fill="#63b8ff" stroke="#63b8ff" points="301.74,-504.06 292.79,-498.39 296.25,-508.41 301.74,-504.06"/>
</a>
</g>
</g>
<!-- Node17&#45;&gt;Node2 -->
<g id="edge27_Node000017_Node000002" class="edge">
<title>Node17&#45;&gt;Node2</title>
<g id="a_edge27_Node000017_Node000002"><a xlink:title=" ">
<path fill="none" stroke="#63b8ff" d="M717.02,-618.09C627.76,-608.52 483.4,-586.49 368,-537.95 347.24,-529.22 325.99,-515.61 309.58,-503.88"/>
<polygon fill="#63b8ff" stroke="#63b8ff" points="311.87,-501.22 301.73,-498.14 307.74,-506.87 311.87,-501.22"/>
</a>
</g>
</g>
<!-- Node18&#45;&gt;Node2 -->
<g id="edge29_Node000018_Node000002" class="edge">
<title>Node18&#45;&gt;Node2</title>
<g id="a_edge29_Node000018_Node000002"><a xlink:title=" ">
<path fill="none" stroke="#63b8ff" d="M718.62,-576.91C631.03,-565.2 488.34,-543.35 368,-511.95 356.48,-508.94 344.32,-505.11 332.84,-501.17"/>
<polygon fill="#63b8ff" stroke="#63b8ff" points="334.1,-497.9 323.51,-497.88 331.78,-504.5 334.1,-497.9"/>
</a>
</g>
</g>
<!-- Node19&#45;&gt;Node2 -->
<g id="edge31_Node000019_Node000002" class="edge">
<title>Node19&#45;&gt;Node2</title>
<g id="a_edge31_Node000019_Node000002"><a xlink:title=" ">
<path fill="none" stroke="#63b8ff" d="M725.64,-534.04C622.96,-521.81 440.06,-500.02 343.6,-488.53"/>
<polygon fill="#63b8ff" stroke="#63b8ff" points="344.12,-485.06 333.78,-487.36 343.3,-492.01 344.12,-485.06"/>
</a>
</g>
</g>
<!-- Node20&#45;&gt;Node2 -->
<g id="edge33_Node000020_Node000002" class="edge">
<title>Node20&#45;&gt;Node2</title>
<g id="a_edge33_Node000020_Node000002"><a xlink:title=" ">
<path fill="none" stroke="#63b8ff" d="M724.5,-453.04C665.87,-452.09 582.73,-451.88 510,-455.95 453.62,-459.1 389.8,-466.33 343.72,-472.21"/>
<polygon fill="#63b8ff" stroke="#63b8ff" points="343.37,-468.72 333.9,-473.48 344.26,-475.67 343.37,-468.72"/>
</a>
</g>
</g>
<!-- Node21&#45;&gt;Node2 -->
<g id="edge35_Node000021_Node000002" class="edge">
<title>Node21&#45;&gt;Node2</title>
<g id="a_edge35_Node000021_Node000002"><a xlink:title=" ">
<path fill="none" stroke="#63b8ff" d="M724.38,-409.76C637.53,-416.18 491.46,-429.77 368,-454.95 359.33,-456.72 350.28,-458.94 341.42,-461.34"/>
<polygon fill="#63b8ff" stroke="#63b8ff" points="340.48,-457.97 331.8,-464.05 342.38,-464.71 340.48,-457.97"/>
</a>
</g>
</g>
<!-- Node22&#45;&gt;Node2 -->
<g id="edge37_Node000022_Node000002" class="edge">
<title>Node22&#45;&gt;Node2</title>
<g id="a_edge37_Node000022_Node000002"><a xlink:title=" ">
<path fill="none" stroke="#63b8ff" d="M720.71,-366.22C632.45,-373.87 486.88,-391.94 368,-432.95 349.51,-439.33 330.3,-449.35 314.56,-458.6"/>
<polygon fill="#63b8ff" stroke="#63b8ff" points="312.8,-455.57 306.05,-463.73 316.42,-461.56 312.8,-455.57"/>
</a>
</g>
</g>
<!-- Node23&#45;&gt;Node2 -->
<g id="edge39_Node000023_Node000002" class="edge">
<title>Node23&#45;&gt;Node2</title>
<g id="a_edge39_Node000023_Node000002"><a xlink:title=" ">
<path fill="none" stroke="#63b8ff" d="M714.24,-323.48C623.29,-327.36 478.1,-343.2 368,-400.95 341.76,-414.71 317.28,-438.19 300.84,-456.16"/>
<polygon fill="#63b8ff" stroke="#63b8ff" points="298.48,-453.54 294.45,-463.34 303.71,-458.2 298.48,-453.54"/>
</a>
</g>
</g>
<!-- Node24&#45;&gt;Node2 -->
<g id="edge41_Node000024_Node000002" class="edge">
<title>Node24&#45;&gt;Node2</title>
<g id="a_edge41_Node000024_Node000002"><a xlink:title=" ">
<path fill="none" stroke="#63b8ff" d="M706.15,-278.72C612.6,-277.21 468.94,-287.94 368,-355.95 331.5,-380.54 305.37,-425.71 291.48,-454.49"/>
<polygon fill="#63b8ff" stroke="#63b8ff" points="288.44,-452.73 287.4,-463.27 294.79,-455.68 288.44,-452.73"/>
</a>
</g>
</g>
<!-- Node25&#45;&gt;Node2 -->
<g id="edge43_Node000025_Node000002" class="edge">
<title>Node25&#45;&gt;Node2</title>
<g id="a_edge43_Node000025_Node000002"><a xlink:title=" ">
<path fill="none" stroke="#63b8ff" d="M730.6,-236.49C637.83,-226.6 473.34,-223.58 368,-304.95 319.36,-342.51 295.63,-414.19 285.81,-453.49"/>
<polygon fill="#63b8ff" stroke="#63b8ff" points="282.44,-452.56 283.55,-463.1 289.25,-454.17 282.44,-452.56"/>
</a>
</g>
</g>
<!-- Node26&#45;&gt;Node2 -->
<g id="edge45_Node000026_Node000002" class="edge">
<title>Node26&#45;&gt;Node2</title>
<g id="a_edge45_Node000026_Node000002"><a xlink:title=" ">
<path fill="none" stroke="#63b8ff" d="M704.17,-205.86C592.72,-204.31 418,-208.72 368,-248.95 304.11,-300.36 286.58,-403.6 281.79,-453.16"/>
<polygon fill="#63b8ff" stroke="#63b8ff" points="278.31,-452.77 280.95,-463.03 285.28,-453.36 278.31,-452.77"/>
</a>
</g>
</g>
<!-- Node27&#45;&gt;Node2 -->
<g id="edge47_Node000027_Node000002" class="edge">
<title>Node27&#45;&gt;Node2</title>
<g id="a_edge47_Node000027_Node000002"><a xlink:title=" ">
<path fill="none" stroke="#63b8ff" d="M753.67,-160.48C667.24,-144.01 480.89,-122.56 368,-212.95 293.19,-272.85 281.33,-397.78 279.9,-453.31"/>
<polygon fill="#63b8ff" stroke="#63b8ff" points="276.4,-453.1 279.75,-463.15 283.4,-453.21 276.4,-453.1"/>
</a>
</g>
</g>
<!-- Node28&#45;&gt;Node2 -->
<g id="edge49_Node000028_Node000002" class="edge">
<title>Node28&#45;&gt;Node2</title>
<g id="a_edge49_Node000028_Node000002"><a xlink:title=" ">
<path fill="none" stroke="#63b8ff" d="M713.49,-121.55C602.4,-116.57 418.37,-115.39 368,-157.95 322.15,-196.69 293,-383.18 283.45,-453.79"/>
<polygon fill="#63b8ff" stroke="#63b8ff" points="280.03,-452.95 282.19,-463.32 286.97,-453.87 280.03,-452.95"/>
</a>
</g>
</g>
<!-- Node30&#45;&gt;Node31 -->
<g id="edge52_Node000030_Node000031" class="edge">
<title>Node30&#45;&gt;Node31</title>
<g id="a_edge52_Node000030_Node000031"><a xlink:title=" ">
<path fill="none" stroke="#63b8ff" d="M642.73,-1092.44C660.89,-1094.34 681.86,-1096.54 702.47,-1098.7"/>
<polygon fill="#63b8ff" stroke="#63b8ff" points="702.04,-1102.17 712.35,-1099.73 702.77,-1095.21 702.04,-1102.17"/>
</a>
</g>
</g>
<!-- Node32 -->
<g id="Node000032" class="node">
<title>Node32</title>
<g id="a_Node000032"><a xlink:href="../../d6/d3c/classLSM1x0A__AtParser.html#a0ba6f927c54fceece22c17773d3f2600" target="_top" xlink:title="Sends a command and extracts a value from the response.">
<polygon fill="white" stroke="#666666" points="1116.38,-1124.95 942.12,-1124.95 942.12,-1092.95 1116.38,-1092.95 1116.38,-1124.95"/>
<text text-anchor="start" x="950.12" y="-1111.45" font-family="Helvetica,sans-Serif" font-size="10.00">LSM1x0A_AtParser::sendCommand</text>
<text text-anchor="middle" x="1029.25" y="-1099.45" font-family="Helvetica,sans-Serif" font-size="10.00">WithResponse</text>
</a>
</g>
</g>
<!-- Node31&#45;&gt;Node32 -->
<g id="edge53_Node000031_Node000032" class="edge">
<title>Node31&#45;&gt;Node32</title>
<g id="a_edge53_Node000031_Node000032"><a xlink:title=" ">
<path fill="none" stroke="#63b8ff" d="M888.74,-1108.95C902.49,-1108.95 916.81,-1108.95 930.8,-1108.95"/>
<polygon fill="#63b8ff" stroke="#63b8ff" points="930.42,-1112.45 940.42,-1108.95 930.42,-1105.45 930.42,-1112.45"/>
</a>
</g>
</g>
<!-- Node33 -->
<g id="Node000033" class="node">
<title>Node33</title>
<g id="a_Node000033"><a xlink:href="../../d5/d8b/classUartDriver.html#a5d0f22e8867eebe99273078bb19bd23d" target="_top" xlink:title="Sends data through UART.">
<polygon fill="white" stroke="#666666" points="1291,-1118.95 1182,-1118.95 1182,-1098.95 1291,-1098.95 1291,-1118.95"/>
<text text-anchor="middle" x="1236.5" y="-1105.45" font-family="Helvetica,sans-Serif" font-size="10.00">UartDriver::sendData</text>
</a>
</g>
</g>
<!-- Node32&#45;&gt;Node33 -->
<g id="edge54_Node000032_Node000033" class="edge">
<title>Node32&#45;&gt;Node33</title>
<g id="a_edge54_Node000032_Node000033"><a xlink:title=" ">
<path fill="none" stroke="#63b8ff" d="M1116.7,-1108.95C1134.59,-1108.95 1153.16,-1108.95 1170.14,-1108.95"/>
<polygon fill="#63b8ff" stroke="#63b8ff" points="1170.11,-1112.45 1180.11,-1108.95 1170.11,-1105.45 1170.11,-1112.45"/>
</a>
</g>
</g>
</g>
</svg>
