<?xml version="1.0" encoding="UTF-8" standalone="no"?>
<!DOCTYPE svg PUBLIC "-//W3C//DTD SVG 1.1//EN"
 "http://www.w3.org/Graphics/SVG/1.1/DTD/svg11.dtd">
<!-- Generated by graphviz version 12.2.1 (20241206.2353)
 -->
<!-- Title: LSM1x0A_LoRaWAN::startTxTone Pages: 1 -->
<!--zoomable 1143 -->

<svg id="main" version="1.1" xmlns="http://www.w3.org/2000/svg" xmlns:xlink="http://www.w3.org/1999/xlink" xml:space="preserve" onload="init(evt)">
<style type="text/css"><![CDATA[
.node, .edge {opacity: 0.7;}
.node.selected, .edge.selected {opacity: 1;}
.edge:hover path { stroke: red; }
.edge:hover polygon { stroke: red; fill: red; }
]]></style>

<defs>
  <circle id="rim" cx="0" cy="0" r="7"/>
  <circle id="rim2" cx="0" cy="0" r="3.5"/>
  <g id="zoomPlus">
    <use xlink:href="#rim" fill="#404040"><set attributeName="fill" to="#808080" begin="zoomplus.mouseover" end="zoomplus.mouseout"/></use>
    <path d="M-4,0h8M0,-4v8" fill="none" stroke="white" stroke-width="1.5" pointer-events="none"/>
  </g>
  <g id="zoomMin">
    <use xlink:href="#rim" fill="#404040"><set attributeName="fill" to="#808080" begin="zoomminus.mouseover" end="zoomminus.mouseout"/></use>
    <path d="M-4,0h8" fill="none" stroke="white" stroke-width="1.5" pointer-events="none"/>
  </g>
  <g id="arrowUp" transform="translate(30 24)">
    <use xlink:href="#rim"/>
    <path pointer-events="none" fill="none" stroke="white" stroke-width="1.5" d="M0,-3.0v7 M-2.5,-0.5L0,-3.0L2.5,-0.5"/>
  </g>
  <g id="arrowRight" transform="rotate(90) translate(36 -43)">
    <use xlink:href="#rim"/>
    <path pointer-events="none" fill="none" stroke="white" stroke-width="1.5" d="M0,-3.0v7 M-2.5,-0.5L0,-3.0L2.5,-0.5"/>
  </g>
  <g id="arrowDown" transform="rotate(180) translate(-30 -48)">
    <use xlink:href="#rim"/>
    <path pointer-events="none" fill="none" stroke="white" stroke-width="1.5" d="M0,-3.0v7 M-2.5,-0.5L0,-3.0L2.5,-0.5"/>
  </g>
  <g id="arrowLeft" transform="rotate(270) translate(-36 17)">
    <use xlink:href="#rim"/>
    <path pointer-events="none" fill="none" stroke="white" stroke-width="1.5" d="M0,-3.0v7 M-2.5,-0.5L0,-3.0L2.5,-0.5"/>
  </g>
  <g id="resetDef">
    <use xlink:href="#rim2" fill="#404040"><set attributeName="fill" to="#808080" begin="reset.mouseover" end="reset.mouseout"/></use>
  </g>
</defs>
<script type="application/ecmascript">
var viewWidth = 1299;
var viewHeight = 1143;
var sectionId = 'dynsection-117';
</script>
<script type="application/ecmascript" xlink:href="../../svg.min.js"/>
<svg id="graph" class="graph">
<g id="viewport">
<title>LSM1x0A_LoRaWAN::startTxTone</title>
<!-- Node1 -->
<g id="Node000001" class="node">
<title>Node1</title>
<g id="a_Node000001"><a xlink:title="Emits a continuous Continuous Wave (CW) tone on the TX path.">
<polygon fill="#999999" stroke="#666666" points="168.25,-490.95 0,-490.95 0,-470.95 168.25,-470.95 168.25,-490.95"/>
<text text-anchor="middle" x="84.12" y="-477.45" font-family="Helvetica,sans-Serif" font-size="10.00">LSM1x0A_LoRaWAN::startTxTone</text>
</a>
</g>
</g>
<!-- Node2 -->
<g id="Node000002" class="node">
<title>Node2</title>
<g id="a_Node000002"><a xlink:href="../../d8/d92/classLSM1x0A__Controller.html#afd7d92e60ed6fdae696a955cdbe0ed8c" target="_top" xlink:title="Sends any AT command to the module, returning error if it fails. Internally uses the LsmAtParser logi...">
<polygon fill="white" stroke="#666666" points="310.25,-496.95 204.25,-496.95 204.25,-464.95 310.25,-464.95 310.25,-496.95"/>
<text text-anchor="start" x="212.25" y="-483.45" font-family="Helvetica,sans-Serif" font-size="10.00">LSM1x0A_Controller</text>
<text text-anchor="middle" x="257.25" y="-471.45" font-family="Helvetica,sans-Serif" font-size="10.00">::sendCommand</text>
</a>
</g>
</g>
<!-- Node1&#45;&gt;Node2 -->
<g id="edge1_Node000001_Node000002" class="edge">
<title>Node1&#45;&gt;Node2</title>
<g id="a_edge1_Node000001_Node000002"><a xlink:title=" ">
<path fill="none" stroke="#63b8ff" d="M168.68,-480.95C176.78,-480.95 184.9,-480.95 192.75,-480.95"/>
<polygon fill="#63b8ff" stroke="#63b8ff" points="192.51,-484.45 202.51,-480.95 192.51,-477.45 192.51,-484.45"/>
</a>
</g>
</g>
<!-- Node3 -->
<g id="Node000003" class="node">
<title>Node3</title>
<g id="a_Node000003"><a xlink:href="../../d8/d92/classLSM1x0A__Controller.html#abb0eb380daa3dfb7acffb483c5db8e2b" target="_top" xlink:title="Executes the recovery protocol. First Soft&#45;Reset (ATZ), then Hard&#45;Reset if there is a pin.">
<polygon fill="white" stroke="#666666" points="452.25,-938.95 346.25,-938.95 346.25,-906.95 452.25,-906.95 452.25,-938.95"/>
<text text-anchor="start" x="354.25" y="-925.45" font-family="Helvetica,sans-Serif" font-size="10.00">LSM1x0A_Controller</text>
<text text-anchor="middle" x="399.25" y="-913.45" font-family="Helvetica,sans-Serif" font-size="10.00">::recoverModule</text>
</a>
</g>
</g>
<!-- Node2&#45;&gt;Node3 -->
<g id="edge2_Node000002_Node000003" class="edge">
<title>Node2&#45;&gt;Node3</title>
<g id="a_edge2_Node000002_Node000003"><a xlink:title=" ">
<path fill="none" stroke="#63b8ff" d="M261.8,-497.39C272.36,-545.46 305.41,-689.56 346.25,-804.95 357.6,-837.01 373.79,-872.58 385.08,-896.2"/>
<polygon fill="#63b8ff" stroke="#63b8ff" points="381.88,-897.62 389.38,-905.1 388.18,-894.57 381.88,-897.62"/>
</a>
</g>
</g>
<!-- Node31 -->
<g id="Node000031" class="node">
<title>Node31</title>
<g id="a_Node000031"><a xlink:href="../../d6/d3c/classLSM1x0A__AtParser.html#a29b53c521974387ba6c03afadfaffa4a" target="_top" xlink:title="Sends a simple command and waits for OK/ERROR. Example: sendCommand(&quot;AT+JOIN&quot;);.">
<polygon fill="white" stroke="#666666" points="866.75,-1118.95 692.5,-1118.95 692.5,-1098.95 866.75,-1098.95 866.75,-1118.95"/>
<text text-anchor="middle" x="779.62" y="-1105.45" font-family="Helvetica,sans-Serif" font-size="10.00">LSM1x0A_AtParser::sendCommand</text>
</a>
</g>
</g>
<!-- Node2&#45;&gt;Node31 -->
<g id="edge55_Node000002_Node000031" class="edge">
<title>Node2&#45;&gt;Node31</title>
<g id="a_edge55_Node000002_Node000031"><a xlink:title=" ">
<path fill="none" stroke="#63b8ff" d="M258.31,-497.2C259.13,-559.15 267.67,-785.25 346.25,-947.95 388.18,-1034.77 400.56,-1071.88 488.25,-1111.95 566.01,-1147.48 668.16,-1134.62 728.27,-1121.89"/>
<polygon fill="#63b8ff" stroke="#63b8ff" points="728.86,-1125.34 737.87,-1119.77 727.35,-1118.51 728.86,-1125.34"/>
</a>
</g>
</g>
<!-- Node4 -->
<g id="Node000004" class="node">
<title>Node4</title>
<g id="a_Node000004"><a xlink:href="../../d8/d92/classLSM1x0A__Controller.html#a3f6f25b843fe4fb7042c544deae2ab16" target="_top" xlink:title="Manually clears bits from the internal EventGroup.">
<polygon fill="white" stroke="#666666" points="1060.5,-957.95 954.5,-957.95 954.5,-925.95 1060.5,-925.95 1060.5,-957.95"/>
<text text-anchor="start" x="962.5" y="-944.45" font-family="Helvetica,sans-Serif" font-size="10.00">LSM1x0A_Controller</text>
<text text-anchor="middle" x="1007.5" y="-932.45" font-family="Helvetica,sans-Serif" font-size="10.00">::clearEvents</text>
</a>
</g>
</g>
<!-- Node3&#45;&gt;Node4 -->
<g id="edge3_Node000003_Node000004" class="edge">
<title>Node3&#45;&gt;Node4</title>
<g id="a_edge3_Node000003_Node000004"><a xlink:title=" ">
<path fill="none" stroke="#63b8ff" d="M416.33,-939.29C432.75,-954.72 459.81,-976.82 488.25,-985.95 647.82,-1037.18 848.41,-991 946.68,-961.72"/>
<polygon fill="#63b8ff" stroke="#63b8ff" points="947.57,-965.11 956.12,-958.86 945.54,-958.41 947.57,-965.11"/>
</a>
</g>
</g>
<!-- Node5 -->
<g id="Node000005" class="node">
<title>Node5</title>
<g id="a_Node000005"><a xlink:href="../../d8/d92/classLSM1x0A__Controller.html#a345d4bd79fa16b18dc33a4ca788fe5f7" target="_top" xlink:title="Performs a hardware reset using the reset pin.">
<polygon fill="white" stroke="#666666" points="620.5,-938.95 514.5,-938.95 514.5,-906.95 620.5,-906.95 620.5,-938.95"/>
<text text-anchor="start" x="522.5" y="-925.45" font-family="Helvetica,sans-Serif" font-size="10.00">LSM1x0A_Controller</text>
<text text-anchor="middle" x="567.5" y="-913.45" font-family="Helvetica,sans-Serif" font-size="10.00">::hardwareReset</text>
</a>
</g>
</g>
<!-- Node3&#45;&gt;Node5 -->
<g id="edge4_Node000003_Node000005" class="edge">
<title>Node3&#45;&gt;Node5</title>
<g id="a_edge4_Node000003_Node000005"><a xlink:title=" ">
<path fill="none" stroke="#63b8ff" d="M452.4,-922.95C468.41,-922.95 486.22,-922.95 502.91,-922.95"/>
<polygon fill="#63b8ff" stroke="#63b8ff" points="502.74,-926.45 512.74,-922.95 502.74,-919.45 502.74,-926.45"/>
</a>
</g>
</g>
<!-- Node7 -->
<g id="Node000007" class="node">
<title>Node7</title>
<g id="a_Node000007"><a xlink:href="../../d5/d72/classLSM1x0A__LoRaWAN.html#a1892801e37c8cd67d37c76108d6f7d49" target="_top" xlink:title="Validates if the device is currently Joined to the network. (Either confirmed by OTAA or statically a...">
<polygon fill="white" stroke="#666666" points="1291,-926.95 1138.5,-926.95 1138.5,-906.95 1291,-906.95 1291,-926.95"/>
<text text-anchor="middle" x="1214.75" y="-913.45" font-family="Helvetica,sans-Serif" font-size="10.00">LSM1x0A_LoRaWAN::isJoined</text>
</a>
</g>
</g>
<!-- Node3&#45;&gt;Node7 -->
<g id="edge6_Node000003_Node000007" class="edge">
<title>Node3&#45;&gt;Node7</title>
<g id="a_edge6_Node000003_Node000007"><a xlink:title=" ">
<path fill="none" stroke="#63b8ff" d="M446.19,-939.25C448.33,-940.7 450.36,-942.26 452.25,-943.95 477.42,-966.51 459.24,-993.6 488.25,-1010.95 498.95,-1017.34 814.41,-1014.94 876.5,-1008.95 978.19,-999.13 1004.99,-997.44 1102.5,-966.95 1131.33,-957.93 1162.58,-943.44 1184.59,-932.37"/>
<polygon fill="#63b8ff" stroke="#63b8ff" points="1185.95,-935.61 1193.26,-927.94 1182.76,-929.38 1185.95,-935.61"/>
</a>
</g>
</g>
<!-- Node8 -->
<g id="Node000008" class="node">
<title>Node8</title>
<g id="a_Node000008"><a xlink:href="../../d5/d72/classLSM1x0A__LoRaWAN.html#a83e11c0e74ff9e0757db616ab1163424" target="_top" xlink:title="Attempts to recover a lost connection (re&#45;executes OTAA Join if dropped).">
<polygon fill="white" stroke="#666666" points="641.88,-850.95 493.12,-850.95 493.12,-818.95 641.88,-818.95 641.88,-850.95"/>
<text text-anchor="start" x="501.12" y="-837.45" font-family="Helvetica,sans-Serif" font-size="10.00">LSM1x0A_LoRaWAN::recover</text>
<text text-anchor="middle" x="567.5" y="-825.45" font-family="Helvetica,sans-Serif" font-size="10.00">Connection</text>
</a>
</g>
</g>
<!-- Node3&#45;&gt;Node8 -->
<g id="edge7_Node000003_Node000008" class="edge">
<title>Node3&#45;&gt;Node8</title>
<g id="a_edge7_Node000003_Node000008"><a xlink:title=" ">
<path fill="none" stroke="#63b8ff" d="M422.22,-906.53C439.55,-894.07 464.65,-877.07 488.25,-864.95 494.54,-861.72 501.25,-858.64 508.01,-855.76"/>
<polygon fill="#63b8ff" stroke="#63b8ff" points="509.28,-859.02 517.21,-851.99 506.63,-852.55 509.28,-859.02"/>
</a>
</g>
</g>
<!-- Node12 -->
<g id="Node000012" class="node">
<title>Node12</title>
<g id="a_Node000012"><a xlink:href="../../d5/d72/classLSM1x0A__LoRaWAN.html#ae3be4ce59dfa200369733317df356e97" target="_top" xlink:title="Pushes the RAM&#45;cached variables back down into the hardware module. Restores the operational state af...">
<polygon fill="white" stroke="#666666" points="640.75,-496.95 494.25,-496.95 494.25,-464.95 640.75,-464.95 640.75,-496.95"/>
<text text-anchor="start" x="502.25" y="-483.45" font-family="Helvetica,sans-Serif" font-size="10.00">LSM1x0A_LoRaWAN::restore</text>
<text text-anchor="middle" x="567.5" y="-471.45" font-family="Helvetica,sans-Serif" font-size="10.00">Config</text>
</a>
</g>
</g>
<!-- Node3&#45;&gt;Node12 -->
<g id="edge16_Node000003_Node000012" class="edge">
<title>Node3&#45;&gt;Node12</title>
<g id="a_edge16_Node000003_Node000012"><a xlink:title=" ">
<path fill="none" stroke="#63b8ff" d="M406.36,-906.69C431.26,-840.5 525.17,-590.84 556.36,-507.91"/>
<polygon fill="#63b8ff" stroke="#63b8ff" points="559.55,-509.36 559.8,-498.77 553,-506.9 559.55,-509.36"/>
</a>
</g>
</g>
<!-- Node29 -->
<g id="Node000029" class="node">
<title>Node29</title>
<g id="a_Node000029"><a xlink:href="../../d5/d72/classLSM1x0A__LoRaWAN.html#ace4b04396f1de1f4a54f513f5f378db7" target="_top" xlink:title="Manually overrides the internal joined state tracker.">
<polygon fill="white" stroke="#666666" points="646.75,-976.95 488.25,-976.95 488.25,-956.95 646.75,-956.95 646.75,-976.95"/>
<text text-anchor="middle" x="567.5" y="-963.45" font-family="Helvetica,sans-Serif" font-size="10.00">LSM1x0A_LoRaWAN::setJoined</text>
</a>
</g>
</g>
<!-- Node3&#45;&gt;Node29 -->
<g id="edge50_Node000003_Node000029" class="edge">
<title>Node3&#45;&gt;Node29</title>
<g id="a_edge50_Node000003_Node000029"><a xlink:title=" ">
<path fill="none" stroke="#63b8ff" d="M452.74,-938.22C464.41,-941.51 476.73,-944.91 488.25,-947.95 495.61,-949.89 503.37,-951.86 511.04,-953.76"/>
<polygon fill="#63b8ff" stroke="#63b8ff" points="510.13,-957.14 520.68,-956.13 511.8,-950.35 510.13,-957.14"/>
</a>
</g>
</g>
<!-- Node30 -->
<g id="Node000030" class="node">
<title>Node30</title>
<g id="a_Node000030"><a xlink:href="../../d8/d92/classLSM1x0A__Controller.html#a11ad21cb5ca33ec51346764a23bd485e" target="_top" xlink:title="Performs a software reset (ATZ Command).">
<polygon fill="white" stroke="#666666" points="620.5,-1102.95 514.5,-1102.95 514.5,-1070.95 620.5,-1070.95 620.5,-1102.95"/>
<text text-anchor="start" x="522.5" y="-1089.45" font-family="Helvetica,sans-Serif" font-size="10.00">LSM1x0A_Controller</text>
<text text-anchor="middle" x="567.5" y="-1077.45" font-family="Helvetica,sans-Serif" font-size="10.00">::softwareReset</text>
</a>
</g>
</g>
<!-- Node3&#45;&gt;Node30 -->
<g id="edge51_Node000003_Node000030" class="edge">
<title>Node3&#45;&gt;Node30</title>
<g id="a_edge51_Node000003_Node000030"><a xlink:title=" ">
<path fill="none" stroke="#63b8ff" d="M406.95,-939.34C419.14,-967.25 447.5,-1024.13 488.25,-1056.95 493.07,-1060.83 498.44,-1064.24 504.05,-1067.25"/>
<polygon fill="#63b8ff" stroke="#63b8ff" points="502.46,-1070.36 512.98,-1071.55 505.5,-1064.06 502.46,-1070.36"/>
</a>
</g>
</g>
<!-- Node6 -->
<g id="Node000006" class="node">
<title>Node6</title>
<g id="a_Node000006"><a xlink:href="../../d6/d3c/classLSM1x0A__AtParser.html#ad2839120da13e56132b95019419be1e5" target="_top" xlink:title="Waits for an event (like BOOTALERT) without sending any command. Useful for hardware reset where the ...">
<polygon fill="white" stroke="#666666" points="849.88,-938.95 709.38,-938.95 709.38,-906.95 849.88,-906.95 849.88,-938.95"/>
<text text-anchor="start" x="717.38" y="-925.45" font-family="Helvetica,sans-Serif" font-size="10.00">LSM1x0A_AtParser::waitFor</text>
<text text-anchor="middle" x="779.62" y="-913.45" font-family="Helvetica,sans-Serif" font-size="10.00">Event</text>
</a>
</g>
</g>
<!-- Node5&#45;&gt;Node6 -->
<g id="edge5_Node000005_Node000006" class="edge">
<title>Node5&#45;&gt;Node6</title>
<g id="a_edge5_Node000005_Node000006"><a xlink:title=" ">
<path fill="none" stroke="#63b8ff" d="M620.98,-922.95C644.17,-922.95 671.97,-922.95 697.71,-922.95"/>
<polygon fill="#63b8ff" stroke="#63b8ff" points="697.47,-926.45 707.47,-922.95 697.47,-919.45 697.47,-926.45"/>
</a>
</g>
</g>
<!-- Node9 -->
<g id="Node000009" class="node">
<title>Node9</title>
<g id="a_Node000009"><a xlink:href="../../d5/d72/classLSM1x0A__LoRaWAN.html#a59f781f3cfd30c11cd3973bcb10a7baa" target="_top" xlink:title="Initiates a LoRaWAN Network Join procedure. This is a blocking function until the module fires an eve...">
<polygon fill="white" stroke="#666666" points="845.38,-844.95 713.88,-844.95 713.88,-824.95 845.38,-824.95 845.38,-844.95"/>
<text text-anchor="middle" x="779.62" y="-831.45" font-family="Helvetica,sans-Serif" font-size="10.00">LSM1x0A_LoRaWAN::join</text>
</a>
</g>
</g>
<!-- Node8&#45;&gt;Node9 -->
<g id="edge8_Node000008_Node000009" class="edge">
<title>Node8&#45;&gt;Node9</title>
<g id="a_edge8_Node000008_Node000009"><a xlink:title=" ">
<path fill="none" stroke="#63b8ff" d="M642.29,-834.95C661.66,-834.95 682.6,-834.95 702.11,-834.95"/>
<polygon fill="#63b8ff" stroke="#63b8ff" points="701.9,-838.45 711.9,-834.95 701.9,-831.45 701.9,-838.45"/>
</a>
</g>
</g>
<!-- Node9&#45;&gt;Node2 -->
<g id="edge11_Node000009_Node000002" class="edge">
<title>Node9&#45;&gt;Node2</title>
<g id="a_edge11_Node000009_Node000002"><a xlink:title=" ">
<path fill="none" stroke="#63b8ff" d="M725.4,-824.5C666.77,-812.53 569.98,-791.38 488.25,-766.95 423.86,-747.69 393.98,-762.27 346.25,-714.95 287.98,-657.18 267.78,-557.13 261.2,-508.74"/>
<polygon fill="#63b8ff" stroke="#63b8ff" points="264.68,-508.33 259.97,-498.84 257.73,-509.2 264.68,-508.33"/>
</a>
</g>
</g>
<!-- Node9&#45;&gt;Node3 -->
<g id="edge10_Node000009_Node000003" class="edge">
<title>Node9&#45;&gt;Node3</title>
<g id="a_edge10_Node000009_Node000003"><a xlink:title=" ">
<path fill="none" stroke="#63b8ff" d="M725.4,-845.44C666.99,-857.21 570.57,-877.35 488.25,-897.95 480.31,-899.94 471.99,-902.14 463.78,-904.39"/>
<polygon fill="#63b8ff" stroke="#63b8ff" points="462.84,-901.01 454.15,-907.06 464.72,-907.76 462.84,-901.01"/>
</a>
</g>
</g>
<!-- Node9&#45;&gt;Node4 -->
<g id="edge9_Node000009_Node000004" class="edge">
<title>Node9&#45;&gt;Node4</title>
<g id="a_edge9_Node000009_Node000004"><a xlink:title=" ">
<path fill="none" stroke="#63b8ff" d="M802.69,-845.4C839.41,-862.79 913.73,-898 961.76,-920.75"/>
<polygon fill="#63b8ff" stroke="#63b8ff" points="959.97,-923.78 970.51,-924.9 962.97,-917.45 959.97,-923.78"/>
</a>
</g>
</g>
<!-- Node10 -->
<g id="Node000010" class="node">
<title>Node10</title>
<g id="a_Node000010"><a xlink:href="../../d5/d72/classLSM1x0A__LoRaWAN.html#a3fdd1ac318a5ad2559323e5d57e36a5e" target="_top" xlink:title="Enables or disables specific sub&#45;bands for regions supporting Channel Masks (e.g.,...">
<polygon fill="white" stroke="#666666" points="1102.5,-654.95 912.5,-654.95 912.5,-634.95 1102.5,-634.95 1102.5,-654.95"/>
<text text-anchor="middle" x="1007.5" y="-641.45" font-family="Helvetica,sans-Serif" font-size="10.00">LSM1x0A_LoRaWAN::setChannelMask</text>
</a>
</g>
</g>
<!-- Node9&#45;&gt;Node10 -->
<g id="edge12_Node000009_Node000010" class="edge">
<title>Node9&#45;&gt;Node10</title>
<g id="a_edge12_Node000009_Node000010"><a xlink:title=" ">
<path fill="none" stroke="#63b8ff" d="M839.93,-824.45C852.65,-820.55 865.55,-815.22 876.5,-807.95 933.37,-770.19 977,-699.61 996.04,-665.05"/>
<polygon fill="#63b8ff" stroke="#63b8ff" points="998.97,-666.98 1000.62,-656.52 992.8,-663.67 998.97,-666.98"/>
</a>
</g>
</g>
<!-- Node11 -->
<g id="Node000011" class="node">
<title>Node11</title>
<g id="a_Node000011"><a xlink:href="../../d8/d92/classLSM1x0A__Controller.html#a62476e30e50c7fe120aeb8df4b828675" target="_top" xlink:title="Synchronously/blockingly waits for an asynchronous event to occur. Useful for wrapping commands like ...">
<polygon fill="white" stroke="#666666" points="1060.5,-850.95 954.5,-850.95 954.5,-818.95 1060.5,-818.95 1060.5,-850.95"/>
<text text-anchor="start" x="962.5" y="-837.45" font-family="Helvetica,sans-Serif" font-size="10.00">LSM1x0A_Controller</text>
<text text-anchor="middle" x="1007.5" y="-825.45" font-family="Helvetica,sans-Serif" font-size="10.00">::waitForEvent</text>
</a>
</g>
</g>
<!-- Node9&#45;&gt;Node11 -->
<g id="edge15_Node000009_Node000011" class="edge">
<title>Node9&#45;&gt;Node11</title>
<g id="a_edge15_Node000009_Node000011"><a xlink:title=" ">
<path fill="none" stroke="#63b8ff" d="M845.65,-834.95C876.16,-834.95 912.4,-834.95 942.74,-834.95"/>
<polygon fill="#63b8ff" stroke="#63b8ff" points="942.55,-838.45 952.55,-834.95 942.55,-831.45 942.55,-838.45"/>
</a>
</g>
</g>
<!-- Node10&#45;&gt;Node2 -->
<g id="edge14_Node000010_Node000002" class="edge">
<title>Node10&#45;&gt;Node2</title>
<g id="a_edge14_Node000010_Node000002"><a xlink:title=" ">
<path fill="none" stroke="#63b8ff" d="M1005.72,-634.73C1000.27,-566.01 965.35,-172.04 876.5,-101.95 691.34,44.11 527.4,29.06 346.25,-121.95 294.67,-164.95 268.61,-377.61 260.82,-453.76"/>
<polygon fill="#63b8ff" stroke="#63b8ff" points="257.38,-452.96 259.87,-463.26 264.34,-453.65 257.38,-452.96"/>
</a>
</g>
</g>
<!-- Node10&#45;&gt;Node7 -->
<g id="edge13_Node000010_Node000007" class="edge">
<title>Node10&#45;&gt;Node7</title>
<g id="a_edge13_Node000010_Node000007"><a xlink:title=" ">
<path fill="none" stroke="#63b8ff" d="M1016.3,-655.28C1046.84,-695.76 1158.67,-843.95 1199.07,-897.49"/>
<polygon fill="#63b8ff" stroke="#63b8ff" points="1196.22,-899.52 1205.04,-905.4 1201.81,-895.31 1196.22,-899.52"/>
</a>
</g>
</g>
<!-- Node12&#45;&gt;Node10 -->
<g id="edge21_Node000012_Node000010" class="edge">
<title>Node12&#45;&gt;Node10</title>
<g id="a_edge21_Node000012_Node000010"><a xlink:title=" ">
<path fill="none" stroke="#63b8ff" d="M640.99,-484.29C718.65,-488.81 836.18,-498.64 876.5,-517.95 928.43,-542.82 972.38,-596.76 993.34,-625.7"/>
<polygon fill="#63b8ff" stroke="#63b8ff" points="990.27,-627.41 998.9,-633.56 995.99,-623.37 990.27,-627.41"/>
</a>
</g>
</g>
<!-- Node13 -->
<g id="Node000013" class="node">
<title>Node13</title>
<g id="a_Node000013"><a xlink:href="../../d5/d72/classLSM1x0A__LoRaWAN.html#af0baa3db4c7fab580d6b19a9e92472f6" target="_top" xlink:title="Enables or disables Adaptive Data Rate (ADR).">
<polygon fill="white" stroke="#666666" points="855.5,-798.95 703.75,-798.95 703.75,-778.95 855.5,-778.95 855.5,-798.95"/>
<text text-anchor="middle" x="779.62" y="-785.45" font-family="Helvetica,sans-Serif" font-size="10.00">LSM1x0A_LoRaWAN::setADR</text>
</a>
</g>
</g>
<!-- Node12&#45;&gt;Node13 -->
<g id="edge17_Node000012_Node000013" class="edge">
<title>Node12&#45;&gt;Node13</title>
<g id="a_edge17_Node000012_Node000013"><a xlink:title=" ">
<path fill="none" stroke="#63b8ff" d="M569.68,-497.13C574.2,-546.58 594.9,-696.7 682.75,-769.95 686,-772.66 689.54,-775.03 693.26,-777.08"/>
<polygon fill="#63b8ff" stroke="#63b8ff" points="691.59,-780.17 702.13,-781.21 694.54,-773.82 691.59,-780.17"/>
</a>
</g>
</g>
<!-- Node14 -->
<g id="Node000014" class="node">
<title>Node14</title>
<g id="a_Node000014"><a xlink:href="../../d5/d72/classLSM1x0A__LoRaWAN.html#a5365ed1596eb84ebf1e3b33b4a10c788" target="_top" xlink:title="Sets the LoRaWAN operational frequency band.">
<polygon fill="white" stroke="#666666" points="855.88,-760.95 703.38,-760.95 703.38,-740.95 855.88,-740.95 855.88,-760.95"/>
<text text-anchor="middle" x="779.62" y="-747.45" font-family="Helvetica,sans-Serif" font-size="10.00">LSM1x0A_LoRaWAN::setBand</text>
</a>
</g>
</g>
<!-- Node12&#45;&gt;Node14 -->
<g id="edge19_Node000012_Node000014" class="edge">
<title>Node12&#45;&gt;Node14</title>
<g id="a_edge19_Node000012_Node000014"><a xlink:title=" ">
<path fill="none" stroke="#63b8ff" d="M570.76,-497.27C577.92,-542.46 604.48,-669.99 682.75,-731.95 685.91,-734.45 689.3,-736.64 692.86,-738.58"/>
<polygon fill="#63b8ff" stroke="#63b8ff" points="691.35,-741.74 701.9,-742.72 694.27,-735.37 691.35,-741.74"/>
</a>
</g>
</g>
<!-- Node15 -->
<g id="Node000015" class="node">
<title>Node15</title>
<g id="a_Node000015"><a xlink:href="../../d5/d72/classLSM1x0A__LoRaWAN.html#a9d9285c43414337a0ccb3a6cd7ca06e6" target="_top" xlink:title="Configures the number of retries for Confirmed uplinks.">
<polygon fill="white" stroke="#666666" points="861.88,-722.95 697.38,-722.95 697.38,-690.95 861.88,-690.95 861.88,-722.95"/>
<text text-anchor="start" x="705.38" y="-709.45" font-family="Helvetica,sans-Serif" font-size="10.00">LSM1x0A_LoRaWAN::setConfirm</text>
<text text-anchor="middle" x="779.62" y="-697.45" font-family="Helvetica,sans-Serif" font-size="10.00">Retry</text>
</a>
</g>
</g>
<!-- Node12&#45;&gt;Node15 -->
<g id="edge22_Node000012_Node000015" class="edge">
<title>Node12&#45;&gt;Node15</title>
<g id="a_edge22_Node000012_Node000015"><a xlink:title=" ">
<path fill="none" stroke="#63b8ff" d="M573.02,-497.42C584.48,-535.98 618.42,-632.59 682.75,-681.95 684.11,-682.99 685.52,-684 686.96,-684.96"/>
<polygon fill="#63b8ff" stroke="#63b8ff" points="685.18,-687.98 695.59,-689.96 688.69,-681.92 685.18,-687.98"/>
</a>
</g>
</g>
<!-- Node16 -->
<g id="Node000016" class="node">
<title>Node16</title>
<g id="a_Node000016"><a xlink:href="../../d5/d72/classLSM1x0A__LoRaWAN.html#a56345ceeafa0b9059d6de4e69eddc82e" target="_top" xlink:title="Sets the Data Rate (DR) of the module.">
<polygon fill="white" stroke="#666666" points="865.62,-672.95 693.62,-672.95 693.62,-652.95 865.62,-652.95 865.62,-672.95"/>
<text text-anchor="middle" x="779.62" y="-659.45" font-family="Helvetica,sans-Serif" font-size="10.00">LSM1x0A_LoRaWAN::setDataRate</text>
</a>
</g>
</g>
<!-- Node12&#45;&gt;Node16 -->
<g id="edge24_Node000012_Node000016" class="edge">
<title>Node12&#45;&gt;Node16</title>
<g id="a_edge24_Node000012_Node000016"><a xlink:title=" ">
<path fill="none" stroke="#63b8ff" d="M574.93,-497.26C588.99,-530.68 625.86,-606.87 682.75,-643.95 684.89,-645.34 687.1,-646.63 689.38,-647.84"/>
<polygon fill="#63b8ff" stroke="#63b8ff" points="687.8,-650.96 698.35,-651.92 690.7,-644.59 687.8,-650.96"/>
</a>
</g>
</g>
<!-- Node17 -->
<g id="Node000017" class="node">
<title>Node17</title>
<g id="a_Node000017"><a xlink:href="../../d5/d72/classLSM1x0A__LoRaWAN.html#a8494083816ab885cb07fc3b08de029f4" target="_top" xlink:title="Sets the LoRaWAN Device Address (DevAddr) for ABP mode.">
<polygon fill="white" stroke="#666666" points="863.75,-634.95 695.5,-634.95 695.5,-614.95 863.75,-614.95 863.75,-634.95"/>
<text text-anchor="middle" x="779.62" y="-621.45" font-family="Helvetica,sans-Serif" font-size="10.00">LSM1x0A_LoRaWAN::setDevAddr</text>
</a>
</g>
</g>
<!-- Node12&#45;&gt;Node17 -->
<g id="edge26_Node000012_Node000017" class="edge">
<title>Node12&#45;&gt;Node17</title>
<g id="a_edge26_Node000012_Node000017"><a xlink:title=" ">
<path fill="none" stroke="#63b8ff" d="M578.49,-497.41C595.97,-524.7 634.85,-578.97 682.75,-605.95 685.59,-607.55 688.55,-609.02 691.58,-610.36"/>
<polygon fill="#63b8ff" stroke="#63b8ff" points="690.17,-613.57 700.76,-613.93 692.71,-607.04 690.17,-613.57"/>
</a>
</g>
</g>
<!-- Node18 -->
<g id="Node000018" class="node">
<title>Node18</title>
<g id="a_Node000018"><a xlink:href="../../d5/d72/classLSM1x0A__LoRaWAN.html#ad320634e52d7ea907043cc50dd37c5b0" target="_top" xlink:title="Sets the LoRaWAN Device EUI (DevEUI).">
<polygon fill="white" stroke="#666666" points="862.25,-596.95 697,-596.95 697,-576.95 862.25,-576.95 862.25,-596.95"/>
<text text-anchor="middle" x="779.62" y="-583.45" font-family="Helvetica,sans-Serif" font-size="10.00">LSM1x0A_LoRaWAN::setDevEUI</text>
</a>
</g>
</g>
<!-- Node12&#45;&gt;Node18 -->
<g id="edge28_Node000012_Node000018" class="edge">
<title>Node12&#45;&gt;Node18</title>
<g id="a_edge28_Node000012_Node000018"><a xlink:title=" ">
<path fill="none" stroke="#63b8ff" d="M584.7,-497.21C605.52,-517.12 643.65,-550.34 682.75,-567.95 687.01,-569.87 691.47,-571.6 696.03,-573.15"/>
<polygon fill="#63b8ff" stroke="#63b8ff" points="694.78,-576.43 705.37,-576.02 696.84,-569.74 694.78,-576.43"/>
</a>
</g>
</g>
<!-- Node19 -->
<g id="Node000019" class="node">
<title>Node19</title>
<g id="a_Node000019"><a xlink:href="../../d5/d72/classLSM1x0A__LoRaWAN.html#a031023b0d2dd5db3c51c2db6ae7801cc" target="_top" xlink:title="Enables or disables the Duty Cycle limitation (EU regions mostly).">
<polygon fill="white" stroke="#666666" points="855.12,-558.95 704.12,-558.95 704.12,-526.95 855.12,-526.95 855.12,-558.95"/>
<text text-anchor="start" x="712.12" y="-545.45" font-family="Helvetica,sans-Serif" font-size="10.00">LSM1x0A_LoRaWAN::setDuty</text>
<text text-anchor="middle" x="779.62" y="-533.45" font-family="Helvetica,sans-Serif" font-size="10.00">Cycle</text>
</a>
</g>
</g>
<!-- Node12&#45;&gt;Node19 -->
<g id="edge30_Node000012_Node000019" class="edge">
<title>Node12&#45;&gt;Node19</title>
<g id="a_edge30_Node000012_Node000019"><a xlink:title=" ">
<path fill="none" stroke="#63b8ff" d="M624.26,-497.4C651.2,-505.35 683.73,-514.95 711.98,-523.28"/>
<polygon fill="#63b8ff" stroke="#63b8ff" points="710.94,-526.62 721.52,-526.1 712.92,-519.91 710.94,-526.62"/>
</a>
</g>
</g>
<!-- Node20 -->
<g id="Node000020" class="node">
<title>Node20</title>
<g id="a_Node000020"><a xlink:href="../../d5/d72/classLSM1x0A__LoRaWAN.html#a6b179d5825c49af0f391dfc539912f64" target="_top" xlink:title="Sets the delay for the Join1 receive window.">
<polygon fill="white" stroke="#666666" points="856.25,-470.95 703,-470.95 703,-438.95 856.25,-438.95 856.25,-470.95"/>
<text text-anchor="start" x="711" y="-457.45" font-family="Helvetica,sans-Serif" font-size="10.00">LSM1x0A_LoRaWAN::setJoin1</text>
<text text-anchor="middle" x="779.62" y="-445.45" font-family="Helvetica,sans-Serif" font-size="10.00">Delay</text>
</a>
</g>
</g>
<!-- Node12&#45;&gt;Node20 -->
<g id="edge32_Node000012_Node000020" class="edge">
<title>Node12&#45;&gt;Node20</title>
<g id="a_edge32_Node000012_Node000020"><a xlink:title=" ">
<path fill="none" stroke="#63b8ff" d="M641.11,-471.96C657.46,-469.94 674.97,-467.77 691.83,-465.69"/>
<polygon fill="#63b8ff" stroke="#63b8ff" points="691.8,-469.22 701.3,-464.52 690.94,-462.27 691.8,-469.22"/>
</a>
</g>
</g>
<!-- Node21 -->
<g id="Node000021" class="node">
<title>Node21</title>
<g id="a_Node000021"><a xlink:href="../../d5/d72/classLSM1x0A__LoRaWAN.html#a4545d0caad41558cdb9bae8286b104d8" target="_top" xlink:title="Sets the delay for the Join2 receive window.">
<polygon fill="white" stroke="#666666" points="856.25,-420.95 703,-420.95 703,-388.95 856.25,-388.95 856.25,-420.95"/>
<text text-anchor="start" x="711" y="-407.45" font-family="Helvetica,sans-Serif" font-size="10.00">LSM1x0A_LoRaWAN::setJoin2</text>
<text text-anchor="middle" x="779.62" y="-395.45" font-family="Helvetica,sans-Serif" font-size="10.00">Delay</text>
</a>
</g>
</g>
<!-- Node12&#45;&gt;Node21 -->
<g id="edge34_Node000012_Node000021" class="edge">
<title>Node12&#45;&gt;Node21</title>
<g id="a_edge34_Node000012_Node000021"><a xlink:title=" ">
<path fill="none" stroke="#63b8ff" d="M601.41,-464.52C623.92,-453.71 654.67,-439.8 682.75,-429.95 688.04,-428.09 693.54,-426.3 699.11,-424.59"/>
<polygon fill="#63b8ff" stroke="#63b8ff" points="699.82,-428.03 708.41,-421.84 697.83,-421.32 699.82,-428.03"/>
</a>
</g>
</g>
<!-- Node22 -->
<g id="Node000022" class="node">
<title>Node22</title>
<g id="a_Node000022"><a xlink:href="../../d5/d72/classLSM1x0A__LoRaWAN.html#a06bd50723ec1eb7e144c9141b2ec86fc" target="_top" xlink:title="Sets the LoRaWAN Network ID (NetID).">
<polygon fill="white" stroke="#666666" points="860,-370.95 699.25,-370.95 699.25,-350.95 860,-350.95 860,-370.95"/>
<text text-anchor="middle" x="779.62" y="-357.45" font-family="Helvetica,sans-Serif" font-size="10.00">LSM1x0A_LoRaWAN::setNwkID</text>
</a>
</g>
</g>
<!-- Node12&#45;&gt;Node22 -->
<g id="edge36_Node000012_Node000022" class="edge">
<title>Node12&#45;&gt;Node22</title>
<g id="a_edge36_Node000012_Node000022"><a xlink:title=" ">
<path fill="none" stroke="#63b8ff" d="M581.76,-464.74C601.35,-441.98 640.28,-400.98 682.75,-379.95 686.43,-378.13 690.26,-376.48 694.2,-374.99"/>
<polygon fill="#63b8ff" stroke="#63b8ff" points="695.01,-378.41 703.36,-371.9 692.77,-371.78 695.01,-378.41"/>
</a>
</g>
</g>
<!-- Node23 -->
<g id="Node000023" class="node">
<title>Node23</title>
<g id="a_Node000023"><a xlink:href="../../d5/d72/classLSM1x0A__LoRaWAN.html#aa70ada64d28ecca216bb62268e502adf" target="_top" xlink:title="Sets the delay for the RX1 receive window.">
<polygon fill="white" stroke="#666666" points="866.38,-332.95 692.88,-332.95 692.88,-312.95 866.38,-312.95 866.38,-332.95"/>
<text text-anchor="middle" x="779.62" y="-319.45" font-family="Helvetica,sans-Serif" font-size="10.00">LSM1x0A_LoRaWAN::setRx1Delay</text>
</a>
</g>
</g>
<!-- Node12&#45;&gt;Node23 -->
<g id="edge38_Node000012_Node000023" class="edge">
<title>Node12&#45;&gt;Node23</title>
<g id="a_edge38_Node000012_Node000023"><a xlink:title=" ">
<path fill="none" stroke="#63b8ff" d="M576.95,-464.54C593.15,-434.88 631.55,-372.58 682.75,-341.95 685.23,-340.46 687.81,-339.09 690.46,-337.82"/>
<polygon fill="#63b8ff" stroke="#63b8ff" points="691.71,-341.09 699.59,-334.02 689.01,-334.63 691.71,-341.09"/>
</a>
</g>
</g>
<!-- Node24 -->
<g id="Node000024" class="node">
<title>Node24</title>
<g id="a_Node000024"><a xlink:href="../../d5/d72/classLSM1x0A__LoRaWAN.html#a2cf4eff0181b6107d082bccefa24217b" target="_top" xlink:title="Sets the Data Rate (DR) specifically for the RX2 window.">
<polygon fill="white" stroke="#666666" points="874.62,-294.95 684.62,-294.95 684.62,-274.95 874.62,-274.95 874.62,-294.95"/>
<text text-anchor="middle" x="779.62" y="-281.45" font-family="Helvetica,sans-Serif" font-size="10.00">LSM1x0A_LoRaWAN::setRx2DataRate</text>
</a>
</g>
</g>
<!-- Node12&#45;&gt;Node24 -->
<g id="edge40_Node000012_Node000024" class="edge">
<title>Node12&#45;&gt;Node24</title>
<g id="a_edge40_Node000012_Node000024"><a xlink:title=" ">
<path fill="none" stroke="#63b8ff" d="M574.02,-464.61C586.9,-429.11 622.54,-344.84 682.75,-303.95 684.72,-302.61 686.77,-301.36 688.88,-300.19"/>
<polygon fill="#63b8ff" stroke="#63b8ff" points="690.21,-303.43 697.73,-295.97 687.2,-297.11 690.21,-303.43"/>
</a>
</g>
</g>
<!-- Node25 -->
<g id="Node000025" class="node">
<title>Node25</title>
<g id="a_Node000025"><a xlink:href="../../d5/d72/classLSM1x0A__LoRaWAN.html#a42d2137b475b57e19d891a5f1ac93221" target="_top" xlink:title="Sets the delay for the RX2 receive window.">
<polygon fill="white" stroke="#666666" points="866.38,-256.95 692.88,-256.95 692.88,-236.95 866.38,-236.95 866.38,-256.95"/>
<text text-anchor="middle" x="779.62" y="-243.45" font-family="Helvetica,sans-Serif" font-size="10.00">LSM1x0A_LoRaWAN::setRx2Delay</text>
</a>
</g>
</g>
<!-- Node12&#45;&gt;Node25 -->
<g id="edge42_Node000012_Node000025" class="edge">
<title>Node12&#45;&gt;Node25</title>
<g id="a_edge42_Node000012_Node000025"><a xlink:title=" ">
<path fill="none" stroke="#63b8ff" d="M572.09,-464.6C581.93,-423.89 613.36,-317.5 682.75,-265.95 684.34,-264.76 685.99,-263.65 687.68,-262.6"/>
<polygon fill="#63b8ff" stroke="#63b8ff" points="689.26,-265.72 696.48,-257.97 686,-259.53 689.26,-265.72"/>
</a>
</g>
</g>
<!-- Node26 -->
<g id="Node000026" class="node">
<title>Node26</title>
<g id="a_Node000026"><a xlink:href="../../d5/d72/classLSM1x0A__LoRaWAN.html#a689f7dfda1dfeae11ea397c2ddf2ad37" target="_top" xlink:title="Sets the precise frequency for the RX2 window.">
<polygon fill="white" stroke="#666666" points="876.5,-218.95 682.75,-218.95 682.75,-198.95 876.5,-198.95 876.5,-218.95"/>
<text text-anchor="middle" x="779.62" y="-205.45" font-family="Helvetica,sans-Serif" font-size="10.00">LSM1x0A_LoRaWAN::setRx2Frequency</text>
</a>
</g>
</g>
<!-- Node12&#45;&gt;Node26 -->
<g id="edge44_Node000012_Node000026" class="edge">
<title>Node12&#45;&gt;Node26</title>
<g id="a_edge44_Node000012_Node000026"><a xlink:title=" ">
<path fill="none" stroke="#63b8ff" d="M570.71,-464.5C577.76,-418.96 604.06,-290.44 682.75,-227.95 684.08,-226.89 685.45,-225.89 686.86,-224.94"/>
<polygon fill="#63b8ff" stroke="#63b8ff" points="688.36,-228.11 695.32,-220.12 684.9,-222.03 688.36,-228.11"/>
</a>
</g>
</g>
<!-- Node27 -->
<g id="Node000027" class="node">
<title>Node27</title>
<g id="a_Node000027"><a xlink:href="../../d5/d72/classLSM1x0A__LoRaWAN.html#a1df10d7ae6bf45b537d28d3d5c4b88d7" target="_top" xlink:title="Sets the transmission power index.">
<polygon fill="white" stroke="#666666" points="864.12,-180.95 695.12,-180.95 695.12,-160.95 864.12,-160.95 864.12,-180.95"/>
<text text-anchor="middle" x="779.62" y="-167.45" font-family="Helvetica,sans-Serif" font-size="10.00">LSM1x0A_LoRaWAN::setTxPower</text>
</a>
</g>
</g>
<!-- Node12&#45;&gt;Node27 -->
<g id="edge46_Node000012_Node000027" class="edge">
<title>Node12&#45;&gt;Node27</title>
<g id="a_edge46_Node000012_Node000027"><a xlink:title=" ">
<path fill="none" stroke="#63b8ff" d="M569.64,-464.65C574.05,-414.88 594.46,-263.73 682.75,-189.95 683.89,-189 685.05,-188.09 686.25,-187.23"/>
<polygon fill="#63b8ff" stroke="#63b8ff" points="687.93,-190.3 694.68,-182.14 684.31,-184.31 687.93,-190.3"/>
</a>
</g>
</g>
<!-- Node28 -->
<g id="Node000028" class="node">
<title>Node28</title>
<g id="a_Node000028"><a xlink:href="../../d5/d72/classLSM1x0A__LoRaWAN.html#a059fd6a9356c4ecadd5a98294da5952d" target="_top" xlink:title="Configures the number of repetitions for Unconfirmed uplinks.">
<polygon fill="white" stroke="#666666" points="867.12,-142.95 692.12,-142.95 692.12,-110.95 867.12,-110.95 867.12,-142.95"/>
<text text-anchor="start" x="700.12" y="-129.45" font-family="Helvetica,sans-Serif" font-size="10.00">LSM1x0A_LoRaWAN::setUnconfirm</text>
<text text-anchor="middle" x="779.62" y="-117.45" font-family="Helvetica,sans-Serif" font-size="10.00">Retry</text>
</a>
</g>
</g>
<!-- Node12&#45;&gt;Node28 -->
<g id="edge48_Node000012_Node000028" class="edge">
<title>Node12&#45;&gt;Node28</title>
<g id="a_edge48_Node000012_Node000028"><a xlink:title=" ">
<path fill="none" stroke="#63b8ff" d="M569.02,-464.75C571.65,-411.46 587.48,-239.96 682.75,-151.95 683.52,-151.23 684.32,-150.54 685.12,-149.86"/>
<polygon fill="#63b8ff" stroke="#63b8ff" points="686.97,-152.84 693.12,-144.21 682.94,-147.12 686.97,-152.84"/>
</a>
</g>
</g>
<!-- Node13&#45;&gt;Node2 -->
<g id="edge18_Node000013_Node000002" class="edge">
<title>Node13&#45;&gt;Node2</title>
<g id="a_edge18_Node000013_Node000002"><a xlink:title=" ">
<path fill="none" stroke="#63b8ff" d="M704.61,-778.49C595.39,-761.69 398.33,-725.64 346.25,-677.95 295.6,-631.57 272.37,-550.58 263.25,-508.34"/>
<polygon fill="#63b8ff" stroke="#63b8ff" points="266.73,-507.86 261.3,-498.76 259.87,-509.26 266.73,-507.86"/>
</a>
</g>
</g>
<!-- Node14&#45;&gt;Node2 -->
<g id="edge20_Node000014_Node000002" class="edge">
<title>Node14&#45;&gt;Node2</title>
<g id="a_edge20_Node000014_Node000002"><a xlink:title=" ">
<path fill="none" stroke="#63b8ff" d="M706.98,-740.46C598.92,-723.42 401.01,-687.03 346.25,-641.95 302.98,-606.32 277.62,-543.61 265.99,-507.88"/>
<polygon fill="#63b8ff" stroke="#63b8ff" points="269.46,-507.24 263.14,-498.74 262.77,-509.32 269.46,-507.24"/>
</a>
</g>
</g>
<!-- Node15&#45;&gt;Node2 -->
<g id="edge23_Node000015_Node000002" class="edge">
<title>Node15&#45;&gt;Node2</title>
<g id="a_edge23_Node000015_Node000002"><a xlink:title=" ">
<path fill="none" stroke="#63b8ff" d="M696.99,-696.13C587.58,-680.29 400.82,-648.15 346.25,-606.95 311.13,-580.43 284.74,-535.78 270.4,-507.37"/>
<polygon fill="#63b8ff" stroke="#63b8ff" points="273.71,-506.16 266.17,-498.71 267.42,-509.23 273.71,-506.16"/>
</a>
</g>
</g>
<!-- Node16&#45;&gt;Node2 -->
<g id="edge25_Node000016_Node000002" class="edge">
<title>Node16&#45;&gt;Node2</title>
<g id="a_edge25_Node000016_Node000002"><a xlink:title=" ">
<path fill="none" stroke="#63b8ff" d="M693.52,-660.63C601.81,-654.66 454.46,-634.71 346.25,-569.95 318.57,-553.38 293.39,-526.09 277.13,-506.09"/>
<polygon fill="#63b8ff" stroke="#63b8ff" points="279.99,-504.06 271.04,-498.39 274.5,-508.41 279.99,-504.06"/>
</a>
</g>
</g>
<!-- Node17&#45;&gt;Node2 -->
<g id="edge27_Node000017_Node000002" class="edge">
<title>Node17&#45;&gt;Node2</title>
<g id="a_edge27_Node000017_Node000002"><a xlink:title=" ">
<path fill="none" stroke="#63b8ff" d="M695.27,-618.09C606.01,-608.52 461.65,-586.49 346.25,-537.95 325.49,-529.22 304.24,-515.61 287.83,-503.88"/>
<polygon fill="#63b8ff" stroke="#63b8ff" points="290.12,-501.22 279.98,-498.14 285.99,-506.87 290.12,-501.22"/>
</a>
</g>
</g>
<!-- Node18&#45;&gt;Node2 -->
<g id="edge29_Node000018_Node000002" class="edge">
<title>Node18&#45;&gt;Node2</title>
<g id="a_edge29_Node000018_Node000002"><a xlink:title=" ">
<path fill="none" stroke="#63b8ff" d="M696.87,-576.91C609.28,-565.2 466.59,-543.35 346.25,-511.95 334.73,-508.94 322.57,-505.11 311.09,-501.17"/>
<polygon fill="#63b8ff" stroke="#63b8ff" points="312.35,-497.9 301.76,-497.88 310.03,-504.5 312.35,-497.9"/>
</a>
</g>
</g>
<!-- Node19&#45;&gt;Node2 -->
<g id="edge31_Node000019_Node000002" class="edge">
<title>Node19&#45;&gt;Node2</title>
<g id="a_edge31_Node000019_Node000002"><a xlink:title=" ">
<path fill="none" stroke="#63b8ff" d="M703.89,-534.04C601.21,-521.81 418.31,-500.02 321.85,-488.53"/>
<polygon fill="#63b8ff" stroke="#63b8ff" points="322.37,-485.06 312.03,-487.36 321.55,-492.01 322.37,-485.06"/>
</a>
</g>
</g>
<!-- Node20&#45;&gt;Node2 -->
<g id="edge33_Node000020_Node000002" class="edge">
<title>Node20&#45;&gt;Node2</title>
<g id="a_edge33_Node000020_Node000002"><a xlink:title=" ">
<path fill="none" stroke="#63b8ff" d="M702.75,-453.04C644.12,-452.09 560.98,-451.88 488.25,-455.95 431.87,-459.1 368.05,-466.33 321.97,-472.21"/>
<polygon fill="#63b8ff" stroke="#63b8ff" points="321.62,-468.72 312.15,-473.48 322.51,-475.67 321.62,-468.72"/>
</a>
</g>
</g>
<!-- Node21&#45;&gt;Node2 -->
<g id="edge35_Node000021_Node000002" class="edge">
<title>Node21&#45;&gt;Node2</title>
<g id="a_edge35_Node000021_Node000002"><a xlink:title=" ">
<path fill="none" stroke="#63b8ff" d="M702.63,-409.76C615.78,-416.18 469.71,-429.77 346.25,-454.95 337.58,-456.72 328.53,-458.94 319.67,-461.34"/>
<polygon fill="#63b8ff" stroke="#63b8ff" points="318.73,-457.97 310.05,-464.05 320.63,-464.71 318.73,-457.97"/>
</a>
</g>
</g>
<!-- Node22&#45;&gt;Node2 -->
<g id="edge37_Node000022_Node000002" class="edge">
<title>Node22&#45;&gt;Node2</title>
<g id="a_edge37_Node000022_Node000002"><a xlink:title=" ">
<path fill="none" stroke="#63b8ff" d="M698.96,-366.22C610.7,-373.87 465.13,-391.94 346.25,-432.95 327.76,-439.33 308.55,-449.35 292.81,-458.6"/>
<polygon fill="#63b8ff" stroke="#63b8ff" points="291.05,-455.57 284.3,-463.73 294.67,-461.56 291.05,-455.57"/>
</a>
</g>
</g>
<!-- Node23&#45;&gt;Node2 -->
<g id="edge39_Node000023_Node000002" class="edge">
<title>Node23&#45;&gt;Node2</title>
<g id="a_edge39_Node000023_Node000002"><a xlink:title=" ">
<path fill="none" stroke="#63b8ff" d="M692.49,-323.48C601.54,-327.36 456.35,-343.2 346.25,-400.95 320.01,-414.71 295.53,-438.19 279.09,-456.16"/>
<polygon fill="#63b8ff" stroke="#63b8ff" points="276.73,-453.54 272.7,-463.34 281.96,-458.2 276.73,-453.54"/>
</a>
</g>
</g>
<!-- Node24&#45;&gt;Node2 -->
<g id="edge41_Node000024_Node000002" class="edge">
<title>Node24&#45;&gt;Node2</title>
<g id="a_edge41_Node000024_Node000002"><a xlink:title=" ">
<path fill="none" stroke="#63b8ff" d="M684.4,-278.72C590.85,-277.21 447.19,-287.94 346.25,-355.95 309.75,-380.54 283.62,-425.71 269.73,-454.49"/>
<polygon fill="#63b8ff" stroke="#63b8ff" points="266.69,-452.73 265.65,-463.27 273.04,-455.68 266.69,-452.73"/>
</a>
</g>
</g>
<!-- Node25&#45;&gt;Node2 -->
<g id="edge43_Node000025_Node000002" class="edge">
<title>Node25&#45;&gt;Node2</title>
<g id="a_edge43_Node000025_Node000002"><a xlink:title=" ">
<path fill="none" stroke="#63b8ff" d="M708.85,-236.49C616.08,-226.6 451.59,-223.58 346.25,-304.95 297.61,-342.51 273.88,-414.19 264.06,-453.49"/>
<polygon fill="#63b8ff" stroke="#63b8ff" points="260.69,-452.56 261.8,-463.1 267.5,-454.17 260.69,-452.56"/>
</a>
</g>
</g>
<!-- Node26&#45;&gt;Node2 -->
<g id="edge45_Node000026_Node000002" class="edge">
<title>Node26&#45;&gt;Node2</title>
<g id="a_edge45_Node000026_Node000002"><a xlink:title=" ">
<path fill="none" stroke="#63b8ff" d="M682.42,-205.86C570.97,-204.31 396.25,-208.72 346.25,-248.95 282.36,-300.36 264.83,-403.6 260.04,-453.16"/>
<polygon fill="#63b8ff" stroke="#63b8ff" points="256.56,-452.77 259.2,-463.03 263.53,-453.36 256.56,-452.77"/>
</a>
</g>
</g>
<!-- Node27&#45;&gt;Node2 -->
<g id="edge47_Node000027_Node000002" class="edge">
<title>Node27&#45;&gt;Node2</title>
<g id="a_edge47_Node000027_Node000002"><a xlink:title=" ">
<path fill="none" stroke="#63b8ff" d="M731.92,-160.48C645.49,-144.01 459.14,-122.56 346.25,-212.95 271.44,-272.85 259.58,-397.78 258.15,-453.31"/>
<polygon fill="#63b8ff" stroke="#63b8ff" points="254.65,-453.1 258,-463.15 261.65,-453.21 254.65,-453.1"/>
</a>
</g>
</g>
<!-- Node28&#45;&gt;Node2 -->
<g id="edge49_Node000028_Node000002" class="edge">
<title>Node28&#45;&gt;Node2</title>
<g id="a_edge49_Node000028_Node000002"><a xlink:title=" ">
<path fill="none" stroke="#63b8ff" d="M691.74,-121.55C580.65,-116.57 396.62,-115.39 346.25,-157.95 300.4,-196.69 271.25,-383.18 261.7,-453.79"/>
<polygon fill="#63b8ff" stroke="#63b8ff" points="258.28,-452.95 260.44,-463.32 265.22,-453.87 258.28,-452.95"/>
</a>
</g>
</g>
<!-- Node30&#45;&gt;Node31 -->
<g id="edge52_Node000030_Node000031" class="edge">
<title>Node30&#45;&gt;Node31</title>
<g id="a_edge52_Node000030_Node000031"><a xlink:title=" ">
<path fill="none" stroke="#63b8ff" d="M620.98,-1092.44C639.14,-1094.34 660.11,-1096.54 680.72,-1098.7"/>
<polygon fill="#63b8ff" stroke="#63b8ff" points="680.29,-1102.17 690.6,-1099.73 681.02,-1095.21 680.29,-1102.17"/>
</a>
</g>
</g>
<!-- Node32 -->
<g id="Node000032" class="node">
<title>Node32</title>
<g id="a_Node000032"><a xlink:href="../../d6/d3c/classLSM1x0A__AtParser.html#a0ba6f927c54fceece22c17773d3f2600" target="_top" xlink:title="Sends a command and extracts a value from the response.">
<polygon fill="white" stroke="#666666" points="1094.62,-1124.95 920.38,-1124.95 920.38,-1092.95 1094.62,-1092.95 1094.62,-1124.95"/>
<text text-anchor="start" x="928.38" y="-1111.45" font-family="Helvetica,sans-Serif" font-size="10.00">LSM1x0A_AtParser::sendCommand</text>
<text text-anchor="middle" x="1007.5" y="-1099.45" font-family="Helvetica,sans-Serif" font-size="10.00">WithResponse</text>
</a>
</g>
</g>
<!-- Node31&#45;&gt;Node32 -->
<g id="edge53_Node000031_Node000032" class="edge">
<title>Node31&#45;&gt;Node32</title>
<g id="a_edge53_Node000031_Node000032"><a xlink:title=" ">
<path fill="none" stroke="#63b8ff" d="M866.99,-1108.95C880.74,-1108.95 895.06,-1108.95 909.05,-1108.95"/>
<polygon fill="#63b8ff" stroke="#63b8ff" points="908.67,-1112.45 918.67,-1108.95 908.67,-1105.45 908.67,-1112.45"/>
</a>
</g>
</g>
<!-- Node33 -->
<g id="Node000033" class="node">
<title>Node33</title>
<g id="a_Node000033"><a xlink:href="../../d5/d8b/classUartDriver.html#a5d0f22e8867eebe99273078bb19bd23d" target="_top" xlink:title="Sends data through UART.">
<polygon fill="white" stroke="#666666" points="1269.25,-1118.95 1160.25,-1118.95 1160.25,-1098.95 1269.25,-1098.95 1269.25,-1118.95"/>
<text text-anchor="middle" x="1214.75" y="-1105.45" font-family="Helvetica,sans-Serif" font-size="10.00">UartDriver::sendData</text>
</a>
</g>
</g>
<!-- Node32&#45;&gt;Node33 -->
<g id="edge54_Node000032_Node000033" class="edge">
<title>Node32&#45;&gt;Node33</title>
<g id="a_edge54_Node000032_Node000033"><a xlink:title=" ">
<path fill="none" stroke="#63b8ff" d="M1094.95,-1108.95C1112.84,-1108.95 1131.41,-1108.95 1148.39,-1108.95"/>
<polygon fill="#63b8ff" stroke="#63b8ff" points="1148.36,-1112.45 1158.36,-1108.95 1148.36,-1105.45 1148.36,-1112.45"/>
</a>
</g>
</g>
</g>
</svg>

<g id="navigator" transform="translate(0 0)" fill="#404254">
  <rect fill="#f2f5e9" fill-opacity="0.5" stroke="#606060" stroke-width=".5" x="0" y="0" width="60" height="60"/>
  <use id="zoomplus" xlink:href="#zoomPlus" x="17" y="9" onmousedown="handleZoom(evt,'in')"/>
  <use id="zoomminus" xlink:href="#zoomMin" x="42" y="9" onmousedown="handleZoom(evt,'out')"/>
  <use id="reset" xlink:href="#resetDef" x="30" y="36" onmousedown="handleReset()"/>
   <use id="arrowup" xlink:href="#arrowUp" x="0" y="0" onmousedown="handlePan(0,-1)"/>
  <use id="arrowright" xlink:href="#arrowRight" x="0" y="0" onmousedown="handlePan(1,0)"/>
  <use id="arrowdown" xlink:href="#arrowDown" x="0" y="0" onmousedown="handlePan(0,1)"/>
  <use id="arrowleft" xlink:href="#arrowLeft" x="0" y="0" onmousedown="handlePan(-1,0)"/>
</g>
<svg viewBox="0 0 15 15" width="100%" height="30px" preserveAspectRatio="xMaxYMin meet">
 <g id="arrow_out" transform="scale(0.3 0.3)">
  <a xlink:href="classLSM1x0A__LoRaWAN_a525eec04d1e0b9f0cefeefdcff6b2668_cgraph_org.svg" target="_base">
   <rect id="button" ry="5" rx="5" y="6" x="6" height="38" width="38"
        fill="#f2f5e9" fill-opacity="0.5" stroke="#606060" stroke-width="1.0"/>
   <path id="arrow"
     d="M 11.500037,31.436501 C 11.940474,20.09759 22.043105,11.32322 32.158766,21.979434 L 37.068811,17.246167 C 37.068811,17.246167 37.088388,32 37.088388,32 L 22.160133,31.978069 C 22.160133,31.978069 26.997745,27.140456 26.997745,27.140456 C 18.528582,18.264221 13.291696,25.230495 11.500037,31.436501 z"
     style="fill:#404040;"/>
  </a>
 </g>
</svg>

<style type='text/css'>
<![CDATA[
[data-mouse-over-selected='false'] { opacity: 0.7; }
[data-mouse-over-selected='true']  { opacity: 1.0; }
]]>
</style>
<script type="application/ecmascript"><![CDATA[
document.addEventListener('DOMContentLoaded', (event) => {
  highlightEdges();
  highlightAdjacentNodes();
});
]]></script>
</svg>
