<?xml version="1.0" encoding="UTF-8" standalone="no"?>
<!DOCTYPE svg PUBLIC "-//W3C//DTD SVG 1.1//EN"
 "http://www.w3.org/Graphics/SVG/1.1/DTD/svg11.dtd">
<!-- Generated by graphviz version 12.2.1 (20241206.2353)
 -->
<!-- Title: LSM1x0A_LoRaWAN::setUnconfirmRetry Pages: 1 -->
<!--zoomable 1067 -->

<svg id="main" version="1.1" xmlns="http://www.w3.org/2000/svg" xmlns:xlink="http://www.w3.org/1999/xlink" xml:space="preserve" onload="init(evt)">
<style type="text/css"><![CDATA[
.node, .edge {opacity: 0.7;}
.node.selected, .edge.selected {opacity: 1;}
.edge:hover path { stroke: red; }
.edge:hover polygon { stroke: red; fill: red; }
]]></style>

<defs>
  <circle id="rim" cx="0" cy="0" r="7"/>
  <circle id="rim2" cx="0" cy="0" r="3.5"/>
  <g id="zoomPlus">
    <use xlink:href="#rim" fill="#404040"><set attributeName="fill" to="#808080" begin="zoomplus.mouseover" end="zoomplus.mouseout"/></use>
    <path d="M-4,0h8M0,-4v8" fill="none" stroke="white" stroke-width="1.5" pointer-events="none"/>
  </g>
  <g id="zoomMin">
    <use xlink:href="#rim" fill="#404040"><set attributeName="fill" to="#808080" begin="zoomminus.mouseover" end="zoomminus.mouseout"/></use>
    <path d="M-4,0h8" fill="none" stroke="white" stroke-width="1.5" pointer-events="none"/>
  </g>
  <g id="arrowUp" transform="translate(30 24)">
    <use xlink:href="#rim"/>
    <path pointer-events="none" fill="none" stroke="white" stroke-width="1.5" d="M0,-3.0v7 M-2.5,-0.5L0,-3.0L2.5,-0.5"/>
  </g>
  <g id="arrowRight" transform="rotate(90) translate(36 -43)">
    <use xlink:href="#rim"/>
    <path pointer-events="none" fill="none" stroke="white" stroke-width="1.5" d="M0,-3.0v7 M-2.5,-0.5L0,-3.0L2.5,-0.5"/>
  </g>
  <g id="arrowDown" transform="rotate(180) translate(-30 -48)">
    <use xlink:href="#rim"/>
    <path pointer-events="none" fill="none" stroke="white" stroke-width="1.5" d="M0,-3.0v7 M-2.5,-0.5L0,-3.0L2.5,-0.5"/>
  </g>
  <g id="arrowLeft" transform="rotate(270) translate(-36 17)">
    <use xlink:href="#rim"/>
    <path pointer-events="none" fill="none" stroke="white" stroke-width="1.5" d="M0,-3.0v7 M-2.5,-0.5L0,-3.0L2.5,-0.5"/>
  </g>
  <g id="resetDef">
    <use xlink:href="#rim2" fill="#404040"><set attributeName="fill" to="#808080" begin="reset.mouseover" end="reset.mouseout"/></use>
  </g>
</defs>
<script type="application/ecmascript">
var viewWidth = 1306;
var viewHeight = 1067;
var sectionId = 'dynsection-109';
</script>
<script type="application/ecmascript" xlink:href="../../svg.min.js"/>
<svg id="graph" class="graph">
<g id="viewport">
<title>LSM1x0A_LoRaWAN::setUnconfirmRetry</title>
<!-- Node1 -->
<g id="Node000001" class="node">
<title>Node1</title>
<g id="a_Node000001"><a xlink:title="Configures the number of repetitions for Unconfirmed uplinks.">
<polygon fill="#999999" stroke="#666666" points="175,-357.34 0,-357.34 0,-325.34 175,-325.34 175,-357.34"/>
<text text-anchor="start" x="8" y="-343.84" font-family="Helvetica,sans-Serif" font-size="10.00">LSM1x0A_LoRaWAN::setUnconfirm</text>
<text text-anchor="middle" x="87.5" y="-331.84" font-family="Helvetica,sans-Serif" font-size="10.00">Retry</text>
</a>
</g>
</g>
<!-- Node2 -->
<g id="Node000002" class="node">
<title>Node2</title>
<g id="a_Node000002"><a xlink:href="../../d8/d92/classLSM1x0A__Controller.html#afd7d92e60ed6fdae696a955cdbe0ed8c" target="_top" xlink:title="Sends any AT command to the module, returning error if it fails. Internally uses the LsmAtParser logi...">
<polygon fill="white" stroke="#666666" points="317,-451.34 211,-451.34 211,-419.34 317,-419.34 317,-451.34"/>
<text text-anchor="start" x="219" y="-437.84" font-family="Helvetica,sans-Serif" font-size="10.00">LSM1x0A_Controller</text>
<text text-anchor="middle" x="264" y="-425.84" font-family="Helvetica,sans-Serif" font-size="10.00">::sendCommand</text>
</a>
</g>
</g>
<!-- Node1&#45;&gt;Node2 -->
<g id="edge1_Node000001_Node000002" class="edge">
<title>Node1&#45;&gt;Node2</title>
<g id="a_edge1_Node000001_Node000002"><a xlink:title=" ">
<path fill="none" stroke="#63b8ff" d="M118.9,-357.72C147.71,-373.24 191.17,-396.65 222.83,-413.71"/>
<polygon fill="#63b8ff" stroke="#63b8ff" points="220.86,-416.62 231.33,-418.28 224.18,-410.46 220.86,-416.62"/>
</a>
</g>
</g>
<!-- Node3 -->
<g id="Node000003" class="node">
<title>Node3</title>
<g id="a_Node000003"><a xlink:href="../../d8/d92/classLSM1x0A__Controller.html#abb0eb380daa3dfb7acffb483c5db8e2b" target="_top" xlink:title="Executes the recovery protocol. First Soft&#45;Reset (ATZ), then Hard&#45;Reset if there is a pin.">
<polygon fill="white" stroke="#666666" points="459,-868.34 353,-868.34 353,-836.34 459,-836.34 459,-868.34"/>
<text text-anchor="start" x="361" y="-854.84" font-family="Helvetica,sans-Serif" font-size="10.00">LSM1x0A_Controller</text>
<text text-anchor="middle" x="406" y="-842.84" font-family="Helvetica,sans-Serif" font-size="10.00">::recoverModule</text>
</a>
</g>
</g>
<!-- Node2&#45;&gt;Node3 -->
<g id="edge2_Node000002_Node000003" class="edge">
<title>Node2&#45;&gt;Node3</title>
<g id="a_edge2_Node000002_Node000003"><a xlink:title=" ">
<path fill="none" stroke="#63b8ff" d="M269.04,-451.79C280.41,-497.32 314.34,-628.64 353,-734.34 364.75,-766.47 381,-802.28 392.19,-825.94"/>
<polygon fill="#63b8ff" stroke="#63b8ff" points="388.97,-827.32 396.44,-834.83 395.29,-824.3 388.97,-827.32"/>
</a>
</g>
</g>
<!-- Node30 -->
<g id="Node000030" class="node">
<title>Node30</title>
<g id="a_Node000030"><a xlink:href="../../d6/d3c/classLSM1x0A__AtParser.html#a29b53c521974387ba6c03afadfaffa4a" target="_top" xlink:title="Sends a simple command and waits for OK/ERROR. Example: sendCommand(&quot;AT+JOIN&quot;);.">
<polygon fill="white" stroke="#666666" points="873.5,-692.34 699.25,-692.34 699.25,-672.34 873.5,-672.34 873.5,-692.34"/>
<text text-anchor="middle" x="786.38" y="-678.84" font-family="Helvetica,sans-Serif" font-size="10.00">LSM1x0A_AtParser::sendCommand</text>
</a>
</g>
</g>
<!-- Node2&#45;&gt;Node30 -->
<g id="edge54_Node000002_Node000030" class="edge">
<title>Node2&#45;&gt;Node30</title>
<g id="a_edge54_Node000002_Node000030"><a xlink:title=" ">
<path fill="none" stroke="#63b8ff" d="M269.02,-451.73C278.12,-485.41 303.46,-562.8 353,-605.34 445.55,-684.82 591.3,-695.03 687.61,-691.51"/>
<polygon fill="#63b8ff" stroke="#63b8ff" points="687.75,-695.01 697.59,-691.08 687.45,-688.01 687.75,-695.01"/>
</a>
</g>
</g>
<!-- Node4 -->
<g id="Node000004" class="node">
<title>Node4</title>
<g id="a_Node000004"><a xlink:href="../../d8/d92/classLSM1x0A__Controller.html#a3f6f25b843fe4fb7042c544deae2ab16" target="_top" xlink:title="Manually clears bits from the internal EventGroup.">
<polygon fill="white" stroke="#666666" points="1067.25,-925.34 961.25,-925.34 961.25,-893.34 1067.25,-893.34 1067.25,-925.34"/>
<text text-anchor="start" x="969.25" y="-911.84" font-family="Helvetica,sans-Serif" font-size="10.00">LSM1x0A_Controller</text>
<text text-anchor="middle" x="1014.25" y="-899.84" font-family="Helvetica,sans-Serif" font-size="10.00">::clearEvents</text>
</a>
</g>
</g>
<!-- Node3&#45;&gt;Node4 -->
<g id="edge3_Node000003_Node000004" class="edge">
<title>Node3&#45;&gt;Node4</title>
<g id="a_edge3_Node000003_Node000004"><a xlink:title=" ">
<path fill="none" stroke="#63b8ff" d="M457.76,-868.77C469.85,-872.12 482.79,-875.26 495,-877.34 657.02,-905.03 851.15,-909.51 949.46,-909.8"/>
<polygon fill="#63b8ff" stroke="#63b8ff" points="949.45,-913.3 959.45,-909.81 949.46,-906.3 949.45,-913.3"/>
</a>
</g>
</g>
<!-- Node5 -->
<g id="Node000005" class="node">
<title>Node5</title>
<g id="a_Node000005"><a xlink:href="../../d8/d92/classLSM1x0A__Controller.html#a345d4bd79fa16b18dc33a4ca788fe5f7" target="_top" xlink:title="Performs a hardware reset using the reset pin.">
<polygon fill="white" stroke="#666666" points="627.25,-868.34 521.25,-868.34 521.25,-836.34 627.25,-836.34 627.25,-868.34"/>
<text text-anchor="start" x="529.25" y="-854.84" font-family="Helvetica,sans-Serif" font-size="10.00">LSM1x0A_Controller</text>
<text text-anchor="middle" x="574.25" y="-842.84" font-family="Helvetica,sans-Serif" font-size="10.00">::hardwareReset</text>
</a>
</g>
</g>
<!-- Node3&#45;&gt;Node5 -->
<g id="edge4_Node000003_Node000005" class="edge">
<title>Node3&#45;&gt;Node5</title>
<g id="a_edge4_Node000003_Node000005"><a xlink:title=" ">
<path fill="none" stroke="#63b8ff" d="M459.15,-852.34C475.16,-852.34 492.97,-852.34 509.66,-852.34"/>
<polygon fill="#63b8ff" stroke="#63b8ff" points="509.49,-855.84 519.49,-852.34 509.49,-848.84 509.49,-855.84"/>
</a>
</g>
</g>
<!-- Node7 -->
<g id="Node000007" class="node">
<title>Node7</title>
<g id="a_Node000007"><a xlink:href="../../d5/d72/classLSM1x0A__LoRaWAN.html#a1892801e37c8cd67d37c76108d6f7d49" target="_top" xlink:title="Validates if the device is currently Joined to the network. (Either confirmed by OTAA or statically a...">
<polygon fill="white" stroke="#666666" points="1297.75,-788.34 1145.25,-788.34 1145.25,-768.34 1297.75,-768.34 1297.75,-788.34"/>
<text text-anchor="middle" x="1221.5" y="-774.84" font-family="Helvetica,sans-Serif" font-size="10.00">LSM1x0A_LoRaWAN::isJoined</text>
</a>
</g>
</g>
<!-- Node3&#45;&gt;Node7 -->
<g id="edge6_Node000003_Node000007" class="edge">
<title>Node3&#45;&gt;Node7</title>
<g id="a_edge6_Node000003_Node000007"><a xlink:title=" ">
<path fill="none" stroke="#63b8ff" d="M457.77,-835.97C469.86,-832.62 482.79,-829.47 495,-827.34 723.19,-787.68 996.93,-779.7 1133.74,-778.36"/>
<polygon fill="#63b8ff" stroke="#63b8ff" points="1133.46,-781.87 1143.43,-778.28 1133.4,-774.87 1133.46,-781.87"/>
</a>
</g>
</g>
<!-- Node8 -->
<g id="Node000008" class="node">
<title>Node8</title>
<g id="a_Node000008"><a xlink:href="../../d5/d72/classLSM1x0A__LoRaWAN.html#a83e11c0e74ff9e0757db616ab1163424" target="_top" xlink:title="Attempts to recover a lost connection (re&#45;executes OTAA Join if dropped).">
<polygon fill="white" stroke="#666666" points="648.62,-1032.34 499.88,-1032.34 499.88,-1000.34 648.62,-1000.34 648.62,-1032.34"/>
<text text-anchor="start" x="507.88" y="-1018.84" font-family="Helvetica,sans-Serif" font-size="10.00">LSM1x0A_LoRaWAN::recover</text>
<text text-anchor="middle" x="574.25" y="-1006.84" font-family="Helvetica,sans-Serif" font-size="10.00">Connection</text>
</a>
</g>
</g>
<!-- Node3&#45;&gt;Node8 -->
<g id="edge7_Node000003_Node000008" class="edge">
<title>Node3&#45;&gt;Node8</title>
<g id="a_edge7_Node000003_Node000008"><a xlink:title=" ">
<path fill="none" stroke="#63b8ff" d="M413.7,-868.74C425.89,-896.64 454.25,-953.53 495,-986.34 498.87,-989.46 503.09,-992.27 507.51,-994.81"/>
<polygon fill="#63b8ff" stroke="#63b8ff" points="505.6,-997.77 516.09,-999.26 508.82,-991.55 505.6,-997.77"/>
</a>
</g>
</g>
<!-- Node12 -->
<g id="Node000012" class="node">
<title>Node12</title>
<g id="a_Node000012"><a xlink:href="../../d5/d72/classLSM1x0A__LoRaWAN.html#ae3be4ce59dfa200369733317df356e97" target="_top" xlink:title="Pushes the RAM&#45;cached variables back down into the hardware module. Restores the operational state af...">
<polygon fill="white" stroke="#666666" points="647.5,-388.34 501,-388.34 501,-356.34 647.5,-356.34 647.5,-388.34"/>
<text text-anchor="start" x="509" y="-374.84" font-family="Helvetica,sans-Serif" font-size="10.00">LSM1x0A_LoRaWAN::restore</text>
<text text-anchor="middle" x="574.25" y="-362.84" font-family="Helvetica,sans-Serif" font-size="10.00">Config</text>
</a>
</g>
</g>
<!-- Node3&#45;&gt;Node12 -->
<g id="edge16_Node000003_Node000012" class="edge">
<title>Node3&#45;&gt;Node12</title>
<g id="a_edge16_Node000003_Node000012"><a xlink:title=" ">
<path fill="none" stroke="#63b8ff" d="M412.63,-836.1C436.95,-765.89 533.17,-488.06 563.82,-399.57"/>
<polygon fill="#63b8ff" stroke="#63b8ff" points="567.08,-400.86 567.04,-390.26 560.46,-398.57 567.08,-400.86"/>
</a>
</g>
</g>
<!-- Node28 -->
<g id="Node000028" class="node">
<title>Node28</title>
<g id="a_Node000028"><a xlink:href="../../d5/d72/classLSM1x0A__LoRaWAN.html#ace4b04396f1de1f4a54f513f5f378db7" target="_top" xlink:title="Manually overrides the internal joined state tracker.">
<polygon fill="white" stroke="#666666" points="653.5,-944.34 495,-944.34 495,-924.34 653.5,-924.34 653.5,-944.34"/>
<text text-anchor="middle" x="574.25" y="-930.84" font-family="Helvetica,sans-Serif" font-size="10.00">LSM1x0A_LoRaWAN::setJoined</text>
</a>
</g>
</g>
<!-- Node3&#45;&gt;Node28 -->
<g id="edge49_Node000003_Node000028" class="edge">
<title>Node3&#45;&gt;Node28</title>
<g id="a_edge49_Node000003_Node000028"><a xlink:title=" ">
<path fill="none" stroke="#63b8ff" d="M428.04,-868.7C445.26,-881.46 470.67,-898.88 495,-910.34 503.04,-914.13 511.83,-917.5 520.52,-920.43"/>
<polygon fill="#63b8ff" stroke="#63b8ff" points="519.37,-923.74 529.96,-923.45 521.5,-917.07 519.37,-923.74"/>
</a>
</g>
</g>
<!-- Node29 -->
<g id="Node000029" class="node">
<title>Node29</title>
<g id="a_Node000029"><a xlink:href="../../d8/d92/classLSM1x0A__Controller.html#a11ad21cb5ca33ec51346764a23bd485e" target="_top" xlink:title="Performs a software reset (ATZ Command).">
<polygon fill="white" stroke="#666666" points="627.25,-780.34 521.25,-780.34 521.25,-748.34 627.25,-748.34 627.25,-780.34"/>
<text text-anchor="start" x="529.25" y="-766.84" font-family="Helvetica,sans-Serif" font-size="10.00">LSM1x0A_Controller</text>
<text text-anchor="middle" x="574.25" y="-754.84" font-family="Helvetica,sans-Serif" font-size="10.00">::softwareReset</text>
</a>
</g>
</g>
<!-- Node3&#45;&gt;Node29 -->
<g id="edge50_Node000003_Node000029" class="edge">
<title>Node3&#45;&gt;Node29</title>
<g id="a_edge50_Node000003_Node000029"><a xlink:title=" ">
<path fill="none" stroke="#63b8ff" d="M428.97,-835.92C446.3,-823.46 471.4,-806.46 495,-794.34 501.29,-791.12 508,-788.03 514.76,-785.16"/>
<polygon fill="#63b8ff" stroke="#63b8ff" points="516.03,-788.42 523.96,-781.39 513.38,-781.94 516.03,-788.42"/>
</a>
</g>
</g>
<!-- Node6 -->
<g id="Node000006" class="node">
<title>Node6</title>
<g id="a_Node000006"><a xlink:href="../../d6/d3c/classLSM1x0A__AtParser.html#ad2839120da13e56132b95019419be1e5" target="_top" xlink:title="Waits for an event (like BOOTALERT) without sending any command. Useful for hardware reset where the ...">
<polygon fill="white" stroke="#666666" points="856.62,-868.34 716.12,-868.34 716.12,-836.34 856.62,-836.34 856.62,-868.34"/>
<text text-anchor="start" x="724.12" y="-854.84" font-family="Helvetica,sans-Serif" font-size="10.00">LSM1x0A_AtParser::waitFor</text>
<text text-anchor="middle" x="786.38" y="-842.84" font-family="Helvetica,sans-Serif" font-size="10.00">Event</text>
</a>
</g>
</g>
<!-- Node5&#45;&gt;Node6 -->
<g id="edge5_Node000005_Node000006" class="edge">
<title>Node5&#45;&gt;Node6</title>
<g id="a_edge5_Node000005_Node000006"><a xlink:title=" ">
<path fill="none" stroke="#63b8ff" d="M627.73,-852.34C650.92,-852.34 678.72,-852.34 704.46,-852.34"/>
<polygon fill="#63b8ff" stroke="#63b8ff" points="704.22,-855.84 714.22,-852.34 704.22,-848.84 704.22,-855.84"/>
</a>
</g>
</g>
<!-- Node9 -->
<g id="Node000009" class="node">
<title>Node9</title>
<g id="a_Node000009"><a xlink:href="../../d5/d72/classLSM1x0A__LoRaWAN.html#a59f781f3cfd30c11cd3973bcb10a7baa" target="_top" xlink:title="Initiates a LoRaWAN Network Join procedure. This is a blocking function until the module fires an eve...">
<polygon fill="white" stroke="#666666" points="852.12,-982.34 720.62,-982.34 720.62,-962.34 852.12,-962.34 852.12,-982.34"/>
<text text-anchor="middle" x="786.38" y="-968.84" font-family="Helvetica,sans-Serif" font-size="10.00">LSM1x0A_LoRaWAN::join</text>
</a>
</g>
</g>
<!-- Node8&#45;&gt;Node9 -->
<g id="edge8_Node000008_Node000009" class="edge">
<title>Node8&#45;&gt;Node9</title>
<g id="a_edge8_Node000008_Node000009"><a xlink:title=" ">
<path fill="none" stroke="#63b8ff" d="M649.04,-1000.89C673.63,-995.74 700.74,-990.07 724.26,-985.14"/>
<polygon fill="#63b8ff" stroke="#63b8ff" points="724.94,-988.57 734.01,-983.1 723.51,-981.72 724.94,-988.57"/>
</a>
</g>
</g>
<!-- Node9&#45;&gt;Node2 -->
<g id="edge11_Node000009_Node000002" class="edge">
<title>Node9&#45;&gt;Node2</title>
<g id="a_edge11_Node000009_Node000002"><a xlink:title=" ">
<path fill="none" stroke="#63b8ff" d="M771.28,-982.69C748.12,-998.98 699.92,-1029.93 653.5,-1041.34 585.09,-1058.16 559.07,-1070.62 495,-1041.34 407.31,-1001.28 395.38,-963.95 353,-877.34 282.13,-732.51 268.33,-534.44 265.65,-462.69"/>
<polygon fill="#63b8ff" stroke="#63b8ff" points="269.16,-462.94 265.34,-453.06 262.16,-463.16 269.16,-462.94"/>
</a>
</g>
</g>
<!-- Node9&#45;&gt;Node3 -->
<g id="edge10_Node000009_Node000003" class="edge">
<title>Node9&#45;&gt;Node3</title>
<g id="a_edge10_Node000009_Node000003"><a xlink:title=" ">
<path fill="none" stroke="#63b8ff" d="M720.28,-981.83C658.9,-987.71 565.97,-988.48 495,-953.34 461.99,-937 436.14,-902.22 421.23,-878.08"/>
<polygon fill="#63b8ff" stroke="#63b8ff" points="424.41,-876.57 416.29,-869.76 418.39,-880.15 424.41,-876.57"/>
</a>
</g>
</g>
<!-- Node9&#45;&gt;Node4 -->
<g id="edge9_Node000009_Node000004" class="edge">
<title>Node9&#45;&gt;Node4</title>
<g id="a_edge9_Node000009_Node000004"><a xlink:title=" ">
<path fill="none" stroke="#63b8ff" d="M824.93,-961.87C858.87,-952.4 909.53,-938.27 949.76,-927.05"/>
<polygon fill="#63b8ff" stroke="#63b8ff" points="950.65,-930.44 959.35,-924.38 948.77,-923.69 950.65,-930.44"/>
</a>
</g>
</g>
<!-- Node10 -->
<g id="Node000010" class="node">
<title>Node10</title>
<g id="a_Node000010"><a xlink:href="../../d5/d72/classLSM1x0A__LoRaWAN.html#a3fdd1ac318a5ad2559323e5d57e36a5e" target="_top" xlink:title="Enables or disables specific sub&#45;bands for regions supporting Channel Masks (e.g.,...">
<polygon fill="white" stroke="#666666" points="1109.25,-758.34 919.25,-758.34 919.25,-738.34 1109.25,-738.34 1109.25,-758.34"/>
<text text-anchor="middle" x="1014.25" y="-744.84" font-family="Helvetica,sans-Serif" font-size="10.00">LSM1x0A_LoRaWAN::setChannelMask</text>
</a>
</g>
</g>
<!-- Node9&#45;&gt;Node10 -->
<g id="edge12_Node000009_Node000010" class="edge">
<title>Node9&#45;&gt;Node10</title>
<g id="a_edge12_Node000009_Node000010"><a xlink:title=" ">
<path fill="none" stroke="#63b8ff" d="M797.73,-962.08C815.32,-944.67 852.14,-908.2 883.25,-877.34 923.04,-837.89 969.65,-791.63 994.84,-766.63"/>
<polygon fill="#63b8ff" stroke="#63b8ff" points="997.1,-769.31 1001.73,-759.78 992.17,-764.34 997.1,-769.31"/>
</a>
</g>
</g>
<!-- Node11 -->
<g id="Node000011" class="node">
<title>Node11</title>
<g id="a_Node000011"><a xlink:href="../../d8/d92/classLSM1x0A__Controller.html#a62476e30e50c7fe120aeb8df4b828675" target="_top" xlink:title="Synchronously/blockingly waits for an asynchronous event to occur. Useful for wrapping commands like ...">
<polygon fill="white" stroke="#666666" points="1067.25,-988.34 961.25,-988.34 961.25,-956.34 1067.25,-956.34 1067.25,-988.34"/>
<text text-anchor="start" x="969.25" y="-974.84" font-family="Helvetica,sans-Serif" font-size="10.00">LSM1x0A_Controller</text>
<text text-anchor="middle" x="1014.25" y="-962.84" font-family="Helvetica,sans-Serif" font-size="10.00">::waitForEvent</text>
</a>
</g>
</g>
<!-- Node9&#45;&gt;Node11 -->
<g id="edge15_Node000009_Node000011" class="edge">
<title>Node9&#45;&gt;Node11</title>
<g id="a_edge15_Node000009_Node000011"><a xlink:title=" ">
<path fill="none" stroke="#63b8ff" d="M852.4,-972.34C882.91,-972.34 919.15,-972.34 949.49,-972.34"/>
<polygon fill="#63b8ff" stroke="#63b8ff" points="949.3,-975.84 959.3,-972.34 949.3,-968.84 949.3,-975.84"/>
</a>
</g>
</g>
<!-- Node10&#45;&gt;Node2 -->
<g id="edge14_Node000010_Node000002" class="edge">
<title>Node10&#45;&gt;Node2</title>
<g id="a_edge14_Node000010_Node000002"><a xlink:title=" ">
<path fill="none" stroke="#63b8ff" d="M918.89,-746.73C756.24,-741.93 432.79,-722.87 353,-647.34 299.18,-596.4 277.12,-507.61 269.07,-462.83"/>
<polygon fill="#63b8ff" stroke="#63b8ff" points="272.56,-462.47 267.45,-453.18 265.66,-463.63 272.56,-462.47"/>
</a>
</g>
</g>
<!-- Node10&#45;&gt;Node7 -->
<g id="edge13_Node000010_Node000007" class="edge">
<title>Node10&#45;&gt;Node7</title>
<g id="a_edge13_Node000010_Node000007"><a xlink:title=" ">
<path fill="none" stroke="#63b8ff" d="M1087.04,-758.84C1103.44,-761.23 1121.01,-763.8 1137.83,-766.26"/>
<polygon fill="#63b8ff" stroke="#63b8ff" points="1136.86,-769.66 1147.26,-767.64 1137.87,-762.73 1136.86,-769.66"/>
</a>
</g>
</g>
<!-- Node12&#45;&gt;Node1 -->
<g id="edge48_Node000012_Node000001" class="edge">
<title>Node12&#45;&gt;Node1</title>
<g id="a_edge48_Node000012_Node000001"><a xlink:title=" ">
<path fill="none" stroke="#63b8ff" d="M500.86,-367.71C417.44,-362.38 279.92,-353.59 186.85,-347.63"/>
<polygon fill="#63b8ff" stroke="#63b8ff" points="187.16,-344.15 176.95,-347 186.71,-351.13 187.16,-344.15"/>
</a>
</g>
</g>
<!-- Node12&#45;&gt;Node10 -->
<g id="edge21_Node000012_Node000010" class="edge">
<title>Node12&#45;&gt;Node10</title>
<g id="a_edge21_Node000012_Node000010"><a xlink:title=" ">
<path fill="none" stroke="#63b8ff" d="M647.76,-365.02C728.01,-358.66 850.38,-354.67 883.25,-385.34 935.89,-434.47 876.52,-649.4 919.25,-707.34 928.01,-719.22 940.95,-727.7 954.44,-733.75"/>
<polygon fill="#63b8ff" stroke="#63b8ff" points="952.82,-736.87 963.4,-737.34 955.43,-730.37 952.82,-736.87"/>
</a>
</g>
</g>
<!-- Node13 -->
<g id="Node000013" class="node">
<title>Node13</title>
<g id="a_Node000013"><a xlink:href="../../d5/d72/classLSM1x0A__LoRaWAN.html#af0baa3db4c7fab580d6b19a9e92472f6" target="_top" xlink:title="Enables or disables Adaptive Data Rate (ADR).">
<polygon fill="white" stroke="#666666" points="862.25,-540.34 710.5,-540.34 710.5,-520.34 862.25,-520.34 862.25,-540.34"/>
<text text-anchor="middle" x="786.38" y="-526.84" font-family="Helvetica,sans-Serif" font-size="10.00">LSM1x0A_LoRaWAN::setADR</text>
</a>
</g>
</g>
<!-- Node12&#45;&gt;Node13 -->
<g id="edge17_Node000012_Node000013" class="edge">
<title>Node12&#45;&gt;Node13</title>
<g id="a_edge17_Node000012_Node000013"><a xlink:title=" ">
<path fill="none" stroke="#63b8ff" d="M583.7,-388.75C599.9,-418.41 638.3,-480.71 689.5,-511.34 692.7,-513.26 696.06,-514.99 699.53,-516.55"/>
<polygon fill="#63b8ff" stroke="#63b8ff" points="698.21,-519.79 708.79,-520.17 700.76,-513.27 698.21,-519.79"/>
</a>
</g>
</g>
<!-- Node14 -->
<g id="Node000014" class="node">
<title>Node14</title>
<g id="a_Node000014"><a xlink:href="../../d5/d72/classLSM1x0A__LoRaWAN.html#a5365ed1596eb84ebf1e3b33b4a10c788" target="_top" xlink:title="Sets the LoRaWAN operational frequency band.">
<polygon fill="white" stroke="#666666" points="862.62,-502.34 710.12,-502.34 710.12,-482.34 862.62,-482.34 862.62,-502.34"/>
<text text-anchor="middle" x="786.38" y="-488.84" font-family="Helvetica,sans-Serif" font-size="10.00">LSM1x0A_LoRaWAN::setBand</text>
</a>
</g>
</g>
<!-- Node12&#45;&gt;Node14 -->
<g id="edge19_Node000012_Node000014" class="edge">
<title>Node12&#45;&gt;Node14</title>
<g id="a_edge19_Node000012_Node000014"><a xlink:title=" ">
<path fill="none" stroke="#63b8ff" d="M588.51,-388.55C608.1,-411.31 647.03,-452.32 689.5,-473.34 693.18,-475.16 697.01,-476.81 700.95,-478.3"/>
<polygon fill="#63b8ff" stroke="#63b8ff" points="699.52,-481.51 710.11,-481.4 701.76,-474.88 699.52,-481.51"/>
</a>
</g>
</g>
<!-- Node15 -->
<g id="Node000015" class="node">
<title>Node15</title>
<g id="a_Node000015"><a xlink:href="../../d5/d72/classLSM1x0A__LoRaWAN.html#a9d9285c43414337a0ccb3a6cd7ca06e6" target="_top" xlink:title="Configures the number of retries for Confirmed uplinks.">
<polygon fill="white" stroke="#666666" points="868.62,-464.34 704.12,-464.34 704.12,-432.34 868.62,-432.34 868.62,-464.34"/>
<text text-anchor="start" x="712.12" y="-450.84" font-family="Helvetica,sans-Serif" font-size="10.00">LSM1x0A_LoRaWAN::setConfirm</text>
<text text-anchor="middle" x="786.38" y="-438.84" font-family="Helvetica,sans-Serif" font-size="10.00">Retry</text>
</a>
</g>
</g>
<!-- Node12&#45;&gt;Node15 -->
<g id="edge22_Node000012_Node000015" class="edge">
<title>Node12&#45;&gt;Node15</title>
<g id="a_edge22_Node000012_Node000015"><a xlink:title=" ">
<path fill="none" stroke="#63b8ff" d="M608.16,-388.77C630.67,-399.58 661.42,-413.49 689.5,-423.34 694.79,-425.2 700.29,-426.99 705.86,-428.7"/>
<polygon fill="#63b8ff" stroke="#63b8ff" points="704.58,-431.97 715.16,-431.45 706.57,-425.26 704.58,-431.97"/>
</a>
</g>
</g>
<!-- Node16 -->
<g id="Node000016" class="node">
<title>Node16</title>
<g id="a_Node000016"><a xlink:href="../../d5/d72/classLSM1x0A__LoRaWAN.html#a56345ceeafa0b9059d6de4e69eddc82e" target="_top" xlink:title="Sets the Data Rate (DR) of the module.">
<polygon fill="white" stroke="#666666" points="872.38,-414.34 700.38,-414.34 700.38,-394.34 872.38,-394.34 872.38,-414.34"/>
<text text-anchor="middle" x="786.38" y="-400.84" font-family="Helvetica,sans-Serif" font-size="10.00">LSM1x0A_LoRaWAN::setDataRate</text>
</a>
</g>
</g>
<!-- Node12&#45;&gt;Node16 -->
<g id="edge24_Node000012_Node000016" class="edge">
<title>Node12&#45;&gt;Node16</title>
<g id="a_edge24_Node000012_Node000016"><a xlink:title=" ">
<path fill="none" stroke="#63b8ff" d="M647.86,-383.4C666.41,-386.23 686.47,-389.28 705.37,-392.16"/>
<polygon fill="#63b8ff" stroke="#63b8ff" points="704.75,-395.61 715.16,-393.65 705.8,-388.69 704.75,-395.61"/>
</a>
</g>
</g>
<!-- Node17 -->
<g id="Node000017" class="node">
<title>Node17</title>
<g id="a_Node000017"><a xlink:href="../../d5/d72/classLSM1x0A__LoRaWAN.html#a8494083816ab885cb07fc3b08de029f4" target="_top" xlink:title="Sets the LoRaWAN Device Address (DevAddr) for ABP mode.">
<polygon fill="white" stroke="#666666" points="870.5,-338.34 702.25,-338.34 702.25,-318.34 870.5,-318.34 870.5,-338.34"/>
<text text-anchor="middle" x="786.38" y="-324.84" font-family="Helvetica,sans-Serif" font-size="10.00">LSM1x0A_LoRaWAN::setDevAddr</text>
</a>
</g>
</g>
<!-- Node12&#45;&gt;Node17 -->
<g id="edge26_Node000012_Node000017" class="edge">
<title>Node12&#45;&gt;Node17</title>
<g id="a_edge26_Node000012_Node000017"><a xlink:title=" ">
<path fill="none" stroke="#63b8ff" d="M647.86,-357.14C672.74,-351.93 700.32,-346.15 724.21,-341.15"/>
<polygon fill="#63b8ff" stroke="#63b8ff" points="724.7,-344.63 733.77,-339.15 723.27,-337.77 724.7,-344.63"/>
</a>
</g>
</g>
<!-- Node18 -->
<g id="Node000018" class="node">
<title>Node18</title>
<g id="a_Node000018"><a xlink:href="../../d5/d72/classLSM1x0A__LoRaWAN.html#ad320634e52d7ea907043cc50dd37c5b0" target="_top" xlink:title="Sets the LoRaWAN Device EUI (DevEUI).">
<polygon fill="white" stroke="#666666" points="869,-300.34 703.75,-300.34 703.75,-280.34 869,-280.34 869,-300.34"/>
<text text-anchor="middle" x="786.38" y="-286.84" font-family="Helvetica,sans-Serif" font-size="10.00">LSM1x0A_LoRaWAN::setDevEUI</text>
</a>
</g>
</g>
<!-- Node12&#45;&gt;Node18 -->
<g id="edge28_Node000012_Node000018" class="edge">
<title>Node12&#45;&gt;Node18</title>
<g id="a_edge28_Node000012_Node000018"><a xlink:title=" ">
<path fill="none" stroke="#63b8ff" d="M599.6,-356C622.04,-341.67 656.73,-321.3 689.5,-309.34 695.28,-307.24 701.34,-305.34 707.5,-303.65"/>
<polygon fill="#63b8ff" stroke="#63b8ff" points="708.34,-307.05 717.16,-301.18 706.61,-300.26 708.34,-307.05"/>
</a>
</g>
</g>
<!-- Node19 -->
<g id="Node000019" class="node">
<title>Node19</title>
<g id="a_Node000019"><a xlink:href="../../d5/d72/classLSM1x0A__LoRaWAN.html#a031023b0d2dd5db3c51c2db6ae7801cc" target="_top" xlink:title="Enables or disables the Duty Cycle limitation (EU regions mostly).">
<polygon fill="white" stroke="#666666" points="861.88,-262.34 710.88,-262.34 710.88,-230.34 861.88,-230.34 861.88,-262.34"/>
<text text-anchor="start" x="718.88" y="-248.84" font-family="Helvetica,sans-Serif" font-size="10.00">LSM1x0A_LoRaWAN::setDuty</text>
<text text-anchor="middle" x="786.38" y="-236.84" font-family="Helvetica,sans-Serif" font-size="10.00">Cycle</text>
</a>
</g>
</g>
<!-- Node12&#45;&gt;Node19 -->
<g id="edge30_Node000012_Node000019" class="edge">
<title>Node12&#45;&gt;Node19</title>
<g id="a_edge30_Node000012_Node000019"><a xlink:title=" ">
<path fill="none" stroke="#63b8ff" d="M589.02,-356.1C608.92,-333.68 647.91,-293.5 689.5,-271.34 692.91,-269.53 696.45,-267.84 700.08,-266.27"/>
<polygon fill="#63b8ff" stroke="#63b8ff" points="701.09,-269.64 709.11,-262.71 698.52,-263.13 701.09,-269.64"/>
</a>
</g>
</g>
<!-- Node20 -->
<g id="Node000020" class="node">
<title>Node20</title>
<g id="a_Node000020"><a xlink:href="../../d5/d72/classLSM1x0A__LoRaWAN.html#a6b179d5825c49af0f391dfc539912f64" target="_top" xlink:title="Sets the delay for the Join1 receive window.">
<polygon fill="white" stroke="#666666" points="863,-212.34 709.75,-212.34 709.75,-180.34 863,-180.34 863,-212.34"/>
<text text-anchor="start" x="717.75" y="-198.84" font-family="Helvetica,sans-Serif" font-size="10.00">LSM1x0A_LoRaWAN::setJoin1</text>
<text text-anchor="middle" x="786.38" y="-186.84" font-family="Helvetica,sans-Serif" font-size="10.00">Delay</text>
</a>
</g>
</g>
<!-- Node12&#45;&gt;Node20 -->
<g id="edge32_Node000012_Node000020" class="edge">
<title>Node12&#45;&gt;Node20</title>
<g id="a_edge32_Node000012_Node000020"><a xlink:title=" ">
<path fill="none" stroke="#63b8ff" d="M582.78,-356.3C598.2,-325.22 636.47,-256.78 689.5,-221.34 692.57,-219.29 695.81,-217.4 699.16,-215.67"/>
<polygon fill="#63b8ff" stroke="#63b8ff" points="700.48,-218.92 708.1,-211.56 697.56,-212.56 700.48,-218.92"/>
</a>
</g>
</g>
<!-- Node21 -->
<g id="Node000021" class="node">
<title>Node21</title>
<g id="a_Node000021"><a xlink:href="../../d5/d72/classLSM1x0A__LoRaWAN.html#a4545d0caad41558cdb9bae8286b104d8" target="_top" xlink:title="Sets the delay for the Join2 receive window.">
<polygon fill="white" stroke="#666666" points="863,-162.34 709.75,-162.34 709.75,-130.34 863,-130.34 863,-162.34"/>
<text text-anchor="start" x="717.75" y="-148.84" font-family="Helvetica,sans-Serif" font-size="10.00">LSM1x0A_LoRaWAN::setJoin2</text>
<text text-anchor="middle" x="786.38" y="-136.84" font-family="Helvetica,sans-Serif" font-size="10.00">Delay</text>
</a>
</g>
</g>
<!-- Node12&#45;&gt;Node21 -->
<g id="edge34_Node000012_Node000021" class="edge">
<title>Node12&#45;&gt;Node21</title>
<g id="a_edge34_Node000012_Node000021"><a xlink:title=" ">
<path fill="none" stroke="#63b8ff" d="M579.77,-355.88C591.23,-317.31 625.17,-220.7 689.5,-171.34 692.6,-168.97 695.9,-166.82 699.34,-164.87"/>
<polygon fill="#63b8ff" stroke="#63b8ff" points="700.61,-168.15 708.02,-160.57 697.51,-161.87 700.61,-168.15"/>
</a>
</g>
</g>
<!-- Node22 -->
<g id="Node000022" class="node">
<title>Node22</title>
<g id="a_Node000022"><a xlink:href="../../d5/d72/classLSM1x0A__LoRaWAN.html#a06bd50723ec1eb7e144c9141b2ec86fc" target="_top" xlink:title="Sets the LoRaWAN Network ID (NetID).">
<polygon fill="white" stroke="#666666" points="866.75,-112.34 706,-112.34 706,-92.34 866.75,-92.34 866.75,-112.34"/>
<text text-anchor="middle" x="786.38" y="-98.84" font-family="Helvetica,sans-Serif" font-size="10.00">LSM1x0A_LoRaWAN::setNwkID</text>
</a>
</g>
</g>
<!-- Node12&#45;&gt;Node22 -->
<g id="edge36_Node000012_Node000022" class="edge">
<title>Node12&#45;&gt;Node22</title>
<g id="a_edge36_Node000012_Node000022"><a xlink:title=" ">
<path fill="none" stroke="#63b8ff" d="M577.51,-356.03C584.67,-310.84 611.23,-183.31 689.5,-121.34 691.5,-119.76 693.6,-118.3 695.77,-116.95"/>
<polygon fill="#63b8ff" stroke="#63b8ff" points="697.17,-120.16 704.4,-112.42 693.92,-113.97 697.17,-120.16"/>
</a>
</g>
</g>
<!-- Node23 -->
<g id="Node000023" class="node">
<title>Node23</title>
<g id="a_Node000023"><a xlink:href="../../d5/d72/classLSM1x0A__LoRaWAN.html#aa70ada64d28ecca216bb62268e502adf" target="_top" xlink:title="Sets the delay for the RX1 receive window.">
<polygon fill="white" stroke="#666666" points="873.12,-74.34 699.62,-74.34 699.62,-54.34 873.12,-54.34 873.12,-74.34"/>
<text text-anchor="middle" x="786.38" y="-60.84" font-family="Helvetica,sans-Serif" font-size="10.00">LSM1x0A_LoRaWAN::setRx1Delay</text>
</a>
</g>
</g>
<!-- Node12&#45;&gt;Node23 -->
<g id="edge38_Node000012_Node000023" class="edge">
<title>Node12&#45;&gt;Node23</title>
<g id="a_edge38_Node000012_Node000023"><a xlink:title=" ">
<path fill="none" stroke="#63b8ff" d="M576.43,-356.16C580.95,-306.72 601.65,-156.59 689.5,-83.34 690.64,-82.4 691.81,-81.49 693.01,-80.63"/>
<polygon fill="#63b8ff" stroke="#63b8ff" points="694.68,-83.71 701.44,-75.55 691.07,-77.71 694.68,-83.71"/>
</a>
</g>
</g>
<!-- Node24 -->
<g id="Node000024" class="node">
<title>Node24</title>
<g id="a_Node000024"><a xlink:href="../../d5/d72/classLSM1x0A__LoRaWAN.html#a2cf4eff0181b6107d082bccefa24217b" target="_top" xlink:title="Sets the Data Rate (DR) specifically for the RX2 window.">
<polygon fill="white" stroke="#666666" points="881.38,-36.34 691.38,-36.34 691.38,-16.34 881.38,-16.34 881.38,-36.34"/>
<text text-anchor="middle" x="786.38" y="-22.84" font-family="Helvetica,sans-Serif" font-size="10.00">LSM1x0A_LoRaWAN::setRx2DataRate</text>
</a>
</g>
</g>
<!-- Node12&#45;&gt;Node24 -->
<g id="edge40_Node000012_Node000024" class="edge">
<title>Node12&#45;&gt;Node24</title>
<g id="a_edge40_Node000012_Node000024"><a xlink:title=" ">
<path fill="none" stroke="#63b8ff" d="M575.61,-356.02C577.71,-302.34 592.11,-129.93 689.5,-45.34 690.46,-44.51 691.45,-43.71 692.46,-42.94"/>
<polygon fill="#63b8ff" stroke="#63b8ff" points="694.27,-45.93 700.85,-37.63 690.53,-40.02 694.27,-45.93"/>
</a>
</g>
</g>
<!-- Node25 -->
<g id="Node000025" class="node">
<title>Node25</title>
<g id="a_Node000025"><a xlink:href="../../d5/d72/classLSM1x0A__LoRaWAN.html#a42d2137b475b57e19d891a5f1ac93221" target="_top" xlink:title="Sets the delay for the RX2 receive window.">
<polygon fill="white" stroke="#666666" points="873.12,-654.34 699.62,-654.34 699.62,-634.34 873.12,-634.34 873.12,-654.34"/>
<text text-anchor="middle" x="786.38" y="-640.84" font-family="Helvetica,sans-Serif" font-size="10.00">LSM1x0A_LoRaWAN::setRx2Delay</text>
</a>
</g>
</g>
<!-- Node12&#45;&gt;Node25 -->
<g id="edge42_Node000012_Node000025" class="edge">
<title>Node12&#45;&gt;Node25</title>
<g id="a_edge42_Node000012_Node000025"><a xlink:title=" ">
<path fill="none" stroke="#63b8ff" d="M577.46,-388.79C584.51,-434.33 610.81,-562.85 689.5,-625.34 690.83,-626.4 692.2,-627.4 693.61,-628.35"/>
<polygon fill="#63b8ff" stroke="#63b8ff" points="691.65,-631.26 702.07,-633.17 695.11,-625.18 691.65,-631.26"/>
</a>
</g>
</g>
<!-- Node26 -->
<g id="Node000026" class="node">
<title>Node26</title>
<g id="a_Node000026"><a xlink:href="../../d5/d72/classLSM1x0A__LoRaWAN.html#a689f7dfda1dfeae11ea397c2ddf2ad37" target="_top" xlink:title="Sets the precise frequency for the RX2 window.">
<polygon fill="white" stroke="#666666" points="883.25,-616.34 689.5,-616.34 689.5,-596.34 883.25,-596.34 883.25,-616.34"/>
<text text-anchor="middle" x="786.38" y="-602.84" font-family="Helvetica,sans-Serif" font-size="10.00">LSM1x0A_LoRaWAN::setRx2Frequency</text>
</a>
</g>
</g>
<!-- Node12&#45;&gt;Node26 -->
<g id="edge44_Node000012_Node000026" class="edge">
<title>Node12&#45;&gt;Node26</title>
<g id="a_edge44_Node000012_Node000026"><a xlink:title=" ">
<path fill="none" stroke="#63b8ff" d="M578.84,-388.69C588.68,-429.41 620.11,-535.79 689.5,-587.34 691.09,-588.53 692.74,-589.64 694.43,-590.69"/>
<polygon fill="#63b8ff" stroke="#63b8ff" points="692.75,-593.76 703.23,-595.32 696.01,-587.57 692.75,-593.76"/>
</a>
</g>
</g>
<!-- Node27 -->
<g id="Node000027" class="node">
<title>Node27</title>
<g id="a_Node000027"><a xlink:href="../../d5/d72/classLSM1x0A__LoRaWAN.html#a1df10d7ae6bf45b537d28d3d5c4b88d7" target="_top" xlink:title="Sets the transmission power index.">
<polygon fill="white" stroke="#666666" points="870.88,-578.34 701.88,-578.34 701.88,-558.34 870.88,-558.34 870.88,-578.34"/>
<text text-anchor="middle" x="786.38" y="-564.84" font-family="Helvetica,sans-Serif" font-size="10.00">LSM1x0A_LoRaWAN::setTxPower</text>
</a>
</g>
</g>
<!-- Node12&#45;&gt;Node27 -->
<g id="edge46_Node000012_Node000027" class="edge">
<title>Node12&#45;&gt;Node27</title>
<g id="a_edge46_Node000012_Node000027"><a xlink:title=" ">
<path fill="none" stroke="#63b8ff" d="M580.77,-388.68C593.65,-424.18 629.29,-508.45 689.5,-549.34 691.47,-550.68 693.52,-551.94 695.63,-553.1"/>
<polygon fill="#63b8ff" stroke="#63b8ff" points="693.95,-556.18 704.48,-557.32 696.96,-549.86 693.95,-556.18"/>
</a>
</g>
</g>
<!-- Node13&#45;&gt;Node2 -->
<g id="edge18_Node000013_Node000002" class="edge">
<title>Node13&#45;&gt;Node2</title>
<g id="a_edge18_Node000013_Node000002"><a xlink:title=" ">
<path fill="none" stroke="#63b8ff" d="M710.3,-526.74C623.07,-521.12 475.43,-507.14 353,-473.34 337.79,-469.14 321.77,-462.84 307.63,-456.57"/>
<polygon fill="#63b8ff" stroke="#63b8ff" points="309.16,-453.42 298.61,-452.45 306.25,-459.79 309.16,-453.42"/>
</a>
</g>
</g>
<!-- Node14&#45;&gt;Node2 -->
<g id="edge20_Node000014_Node000002" class="edge">
<title>Node14&#45;&gt;Node2</title>
<g id="a_edge20_Node000014_Node000002"><a xlink:title=" ">
<path fill="none" stroke="#63b8ff" d="M709.7,-488.09C623.15,-482.63 477.34,-471.61 353,-453.34 345.04,-452.18 336.72,-450.75 328.51,-449.21"/>
<polygon fill="#63b8ff" stroke="#63b8ff" points="329.38,-445.82 318.9,-447.35 328.05,-452.69 329.38,-445.82"/>
</a>
</g>
</g>
<!-- Node15&#45;&gt;Node2 -->
<g id="edge23_Node000015_Node000002" class="edge">
<title>Node15&#45;&gt;Node2</title>
<g id="a_edge23_Node000015_Node000002"><a xlink:title=" ">
<path fill="none" stroke="#63b8ff" d="M703.85,-446.31C600.09,-443.72 423.03,-439.29 328.65,-436.93"/>
<polygon fill="#63b8ff" stroke="#63b8ff" points="328.88,-433.44 318.79,-436.69 328.7,-440.44 328.88,-433.44"/>
</a>
</g>
</g>
<!-- Node16&#45;&gt;Node2 -->
<g id="edge25_Node000016_Node000002" class="edge">
<title>Node16&#45;&gt;Node2</title>
<g id="a_edge25_Node000016_Node000002"><a xlink:title=" ">
<path fill="none" stroke="#63b8ff" d="M700.14,-409.42C595.86,-415.63 421.74,-426.01 328.51,-431.56"/>
<polygon fill="#63b8ff" stroke="#63b8ff" points="328.56,-428.05 318.79,-432.14 328.98,-435.04 328.56,-428.05"/>
</a>
</g>
</g>
<!-- Node17&#45;&gt;Node2 -->
<g id="edge27_Node000017_Node000002" class="edge">
<title>Node17&#45;&gt;Node2</title>
<g id="a_edge27_Node000017_Node000002"><a xlink:title=" ">
<path fill="none" stroke="#63b8ff" d="M701.84,-327.22C643.31,-328.02 563.6,-332.34 495,-347.34 427.72,-362.06 354.04,-393.1 308.66,-414.09"/>
<polygon fill="#63b8ff" stroke="#63b8ff" points="307.25,-410.89 299.68,-418.29 310.22,-417.23 307.25,-410.89"/>
</a>
</g>
</g>
<!-- Node18&#45;&gt;Node2 -->
<g id="edge29_Node000018_Node000002" class="edge">
<title>Node18&#45;&gt;Node2</title>
<g id="a_edge29_Node000018_Node000002"><a xlink:title=" ">
<path fill="none" stroke="#63b8ff" d="M703.31,-286.57C612.6,-285.82 464.58,-294.9 353,-352.34 325.72,-366.39 300.92,-391.43 284.65,-410.35"/>
<polygon fill="#63b8ff" stroke="#63b8ff" points="282.06,-407.99 278.34,-417.91 287.44,-412.47 282.06,-407.99"/>
</a>
</g>
</g>
<!-- Node19&#45;&gt;Node2 -->
<g id="edge31_Node000019_Node000002" class="edge">
<title>Node19&#45;&gt;Node2</title>
<g id="a_edge31_Node000019_Node000002"><a xlink:title=" ">
<path fill="none" stroke="#63b8ff" d="M710.5,-239.59C618.8,-235.08 462.22,-239.93 353,-310.34 316.01,-334.19 290.02,-379.59 276.3,-408.61"/>
<polygon fill="#63b8ff" stroke="#63b8ff" points="273.22,-406.93 272.27,-417.48 279.59,-409.82 273.22,-406.93"/>
</a>
</g>
</g>
<!-- Node20&#45;&gt;Node2 -->
<g id="edge33_Node000020_Node000002" class="edge">
<title>Node20&#45;&gt;Node2</title>
<g id="a_edge33_Node000020_Node000002"><a xlink:title=" ">
<path fill="none" stroke="#63b8ff" d="M709.55,-187.36C616.17,-180.48 457.16,-182.94 353,-261.34 304.35,-297.97 280.62,-369.04 270.81,-408.06"/>
<polygon fill="#63b8ff" stroke="#63b8ff" points="267.45,-407.06 268.55,-417.6 274.26,-408.67 267.45,-407.06"/>
</a>
</g>
</g>
<!-- Node21&#45;&gt;Node2 -->
<g id="edge35_Node000021_Node000002" class="edge">
<title>Node21&#45;&gt;Node2</title>
<g id="a_edge35_Node000021_Node000002"><a xlink:title=" ">
<path fill="none" stroke="#63b8ff" d="M709.65,-134.65C615.26,-124.53 454.09,-122.52 353,-205.34 290.04,-256.92 272.06,-358.98 266.97,-407.91"/>
<polygon fill="#63b8ff" stroke="#63b8ff" points="263.51,-407.36 266.08,-417.64 270.48,-408 263.51,-407.36"/>
</a>
</g>
</g>
<!-- Node22&#45;&gt;Node2 -->
<g id="edge37_Node000022_Node000002" class="edge">
<title>Node22&#45;&gt;Node2</title>
<g id="a_edge37_Node000022_Node000002"><a xlink:title=" ">
<path fill="none" stroke="#63b8ff" d="M705.84,-100.28C595.56,-99.14 404,-103.89 353,-148.34 275.59,-215.82 265.21,-349.45 264.54,-407.42"/>
<polygon fill="#63b8ff" stroke="#63b8ff" points="261.04,-407.39 264.52,-417.39 268.04,-407.4 261.04,-407.39"/>
</a>
</g>
</g>
<!-- Node23&#45;&gt;Node2 -->
<g id="edge39_Node000023_Node000002" class="edge">
<title>Node23&#45;&gt;Node2</title>
<g id="a_edge39_Node000023_Node000002"><a xlink:title=" ">
<path fill="none" stroke="#63b8ff" d="M699.43,-62.16C588.44,-61.18 403.49,-66.35 353,-109.34 306.91,-148.6 277.91,-336.73 268.42,-407.95"/>
<polygon fill="#63b8ff" stroke="#63b8ff" points="264.99,-407.21 267.17,-417.58 271.93,-408.12 264.99,-407.21"/>
</a>
</g>
</g>
<!-- Node24&#45;&gt;Node2 -->
<g id="edge41_Node000024_Node000002" class="edge">
<title>Node24&#45;&gt;Node2</title>
<g id="a_edge41_Node000024_Node000002"><a xlink:title=" ">
<path fill="none" stroke="#63b8ff" d="M740.3,-15.89C653.7,1.31 462.92,24.8 353,-71.34 301.79,-116.14 275.49,-331 267.6,-407.9"/>
<polygon fill="#63b8ff" stroke="#63b8ff" points="264.16,-407.2 266.65,-417.5 271.12,-407.9 264.16,-407.2"/>
</a>
</g>
</g>
<!-- Node25&#45;&gt;Node2 -->
<g id="edge43_Node000025_Node000002" class="edge">
<title>Node25&#45;&gt;Node2</title>
<g id="a_edge43_Node000025_Node000002"><a xlink:title=" ">
<path fill="none" stroke="#63b8ff" d="M699.51,-649.91C605.43,-651.55 454.44,-640.57 353,-565.34 316.51,-538.28 290.23,-491.34 276.33,-461.88"/>
<polygon fill="#63b8ff" stroke="#63b8ff" points="279.57,-460.56 272.24,-452.91 273.2,-463.46 279.57,-460.56"/>
</a>
</g>
</g>
<!-- Node26&#45;&gt;Node2 -->
<g id="edge45_Node000026_Node000002" class="edge">
<title>Node26&#45;&gt;Node2</title>
<g id="a_edge45_Node000026_Node000002"><a xlink:title=" ">
<path fill="none" stroke="#63b8ff" d="M689.23,-608.36C596.81,-606.09 456.33,-591.27 353,-529.34 323.9,-511.9 298.38,-482.11 282.42,-460.73"/>
<polygon fill="#63b8ff" stroke="#63b8ff" points="285.37,-458.85 276.67,-452.81 279.7,-462.96 285.37,-458.85"/>
</a>
</g>
</g>
<!-- Node27&#45;&gt;Node2 -->
<g id="edge47_Node000027_Node000002" class="edge">
<title>Node27&#45;&gt;Node2</title>
<g id="a_edge47_Node000027_Node000002"><a xlink:title=" ">
<path fill="none" stroke="#63b8ff" d="M701.52,-566.85C611.84,-562.55 467.12,-547.68 353,-498.34 330.44,-488.59 307.97,-472.36 291.38,-458.82"/>
<polygon fill="#63b8ff" stroke="#63b8ff" points="293.87,-456.35 283.96,-452.6 289.37,-461.71 293.87,-456.35"/>
</a>
</g>
</g>
<!-- Node29&#45;&gt;Node30 -->
<g id="edge51_Node000029_Node000030" class="edge">
<title>Node29&#45;&gt;Node30</title>
<g id="a_edge51_Node000029_Node000030"><a xlink:title=" ">
<path fill="none" stroke="#63b8ff" d="M617.52,-747.85C655.64,-732.97 711.18,-711.3 747.79,-697.01"/>
<polygon fill="#63b8ff" stroke="#63b8ff" points="749.05,-700.28 757.09,-693.38 746.5,-693.76 749.05,-700.28"/>
</a>
</g>
</g>
<!-- Node31 -->
<g id="Node000031" class="node">
<title>Node31</title>
<g id="a_Node000031"><a xlink:href="../../d6/d3c/classLSM1x0A__AtParser.html#a0ba6f927c54fceece22c17773d3f2600" target="_top" xlink:title="Sends a command and extracts a value from the response.">
<polygon fill="white" stroke="#666666" points="1101.38,-698.34 927.12,-698.34 927.12,-666.34 1101.38,-666.34 1101.38,-698.34"/>
<text text-anchor="start" x="935.12" y="-684.84" font-family="Helvetica,sans-Serif" font-size="10.00">LSM1x0A_AtParser::sendCommand</text>
<text text-anchor="middle" x="1014.25" y="-672.84" font-family="Helvetica,sans-Serif" font-size="10.00">WithResponse</text>
</a>
</g>
</g>
<!-- Node30&#45;&gt;Node31 -->
<g id="edge52_Node000030_Node000031" class="edge">
<title>Node30&#45;&gt;Node31</title>
<g id="a_edge52_Node000030_Node000031"><a xlink:title=" ">
<path fill="none" stroke="#63b8ff" d="M873.74,-682.34C887.49,-682.34 901.81,-682.34 915.8,-682.34"/>
<polygon fill="#63b8ff" stroke="#63b8ff" points="915.42,-685.84 925.42,-682.34 915.42,-678.84 915.42,-685.84"/>
</a>
</g>
</g>
<!-- Node32 -->
<g id="Node000032" class="node">
<title>Node32</title>
<g id="a_Node000032"><a xlink:href="../../d5/d8b/classUartDriver.html#a5d0f22e8867eebe99273078bb19bd23d" target="_top" xlink:title="Sends data through UART.">
<polygon fill="white" stroke="#666666" points="1276,-692.34 1167,-692.34 1167,-672.34 1276,-672.34 1276,-692.34"/>
<text text-anchor="middle" x="1221.5" y="-678.84" font-family="Helvetica,sans-Serif" font-size="10.00">UartDriver::sendData</text>
</a>
</g>
</g>
<!-- Node31&#45;&gt;Node32 -->
<g id="edge53_Node000031_Node000032" class="edge">
<title>Node31&#45;&gt;Node32</title>
<g id="a_edge53_Node000031_Node000032"><a xlink:title=" ">
<path fill="none" stroke="#63b8ff" d="M1101.7,-682.34C1119.59,-682.34 1138.16,-682.34 1155.14,-682.34"/>
<polygon fill="#63b8ff" stroke="#63b8ff" points="1155.11,-685.84 1165.11,-682.34 1155.11,-678.84 1155.11,-685.84"/>
</a>
</g>
</g>
</g>
</svg>

<g id="navigator" transform="translate(0 0)" fill="#404254">
  <rect fill="#f2f5e9" fill-opacity="0.5" stroke="#606060" stroke-width=".5" x="0" y="0" width="60" height="60"/>
  <use id="zoomplus" xlink:href="#zoomPlus" x="17" y="9" onmousedown="handleZoom(evt,'in')"/>
  <use id="zoomminus" xlink:href="#zoomMin" x="42" y="9" onmousedown="handleZoom(evt,'out')"/>
  <use id="reset" xlink:href="#resetDef" x="30" y="36" onmousedown="handleReset()"/>
   <use id="arrowup" xlink:href="#arrowUp" x="0" y="0" onmousedown="handlePan(0,-1)"/>
  <use id="arrowright" xlink:href="#arrowRight" x="0" y="0" onmousedown="handlePan(1,0)"/>
  <use id="arrowdown" xlink:href="#arrowDown" x="0" y="0" onmousedown="handlePan(0,1)"/>
  <use id="arrowleft" xlink:href="#arrowLeft" x="0" y="0" onmousedown="handlePan(-1,0)"/>
</g>
<svg viewBox="0 0 15 15" width="100%" height="30px" preserveAspectRatio="xMaxYMin meet">
 <g id="arrow_out" transform="scale(0.3 0.3)">
  <a xlink:href="classLSM1x0A__LoRaWAN_a059fd6a9356c4ecadd5a98294da5952d_cgraph_org.svg" target="_base">
   <rect id="button" ry="5" rx="5" y="6" x="6" height="38" width="38"
        fill="#f2f5e9" fill-opacity="0.5" stroke="#606060" stroke-width="1.0"/>
   <path id="arrow"
     d="M 11.500037,31.436501 C 11.940474,20.09759 22.043105,11.32322 32.158766,21.979434 L 37.068811,17.246167 C 37.068811,17.246167 37.088388,32 37.088388,32 L 22.160133,31.978069 C 22.160133,31.978069 26.997745,27.140456 26.997745,27.140456 C 18.528582,18.264221 13.291696,25.230495 11.500037,31.436501 z"
     style="fill:#404040;"/>
  </a>
 </g>
</svg>

<style type='text/css'>
<![CDATA[
[data-mouse-over-selected='false'] { opacity: 0.7; }
[data-mouse-over-selected='true']  { opacity: 1.0; }
]]>
</style>
<script type="application/ecmascript"><![CDATA[
document.addEventListener('DOMContentLoaded', (event) => {
  highlightEdges();
  highlightAdjacentNodes();
});
]]></script>
</svg>
